<svg xmlns="http://www.w3.org/2000/svg" xmlns:xlink="http://www.w3.org/1999/xlink" width="529.997" height="325.948" viewBox="0 0 529.997 325.948">
  <defs>
    <clipPath id="clip-path">
      <path id="Trazado_100479" data-name="Trazado 100479" d="M860.252,612.879H683.7a6.919,6.919,0,0,1-6.919-6.919V572.005a23.605,23.605,0,0,1,23.606-23.6h33.955a11.114,11.114,0,0,1,11.114,11.114h0a19.076,19.076,0,0,0,19.076,19.076H824.25a19.077,19.077,0,0,0,19.076-19.076v-71A19.077,19.077,0,0,0,824.25,469.44H583.475a7.217,7.217,0,0,0-7.217,7.217V675.3a19.077,19.077,0,0,0,19.076,19.077H860.252a18.093,18.093,0,0,0,18.092-18.093v-45.31A18.093,18.093,0,0,0,860.252,612.879Z" fill="#ab8f9a"/>
    </clipPath>
    <clipPath id="clip-path-2">
      <path id="Trazado_100513" data-name="Trazado 100513" d="M717.342,457.68s-6.7,6.708-15.546,5.3c2.107,20.734-11.127,39.81-10.1,56.79.75,12.368,1.029,12.348,1.029,12.348a54.731,54.731,0,0,0,31.328,1.352C719.36,484.793,733.595,464.692,717.342,457.68Z" fill="#ffbbcf"/>
    </clipPath>
  </defs>
  <g id="Grupo_53733" data-name="Grupo 53733" transform="translate(-507.658 -389.297)">
    <g id="Grupo_53689" data-name="Grupo 53689">
      <path id="Trazado_99953" data-name="Trazado 99953" d="M612.5,704.862c-64.827-30.514-116.993-205.244-7.6-277.668s232.467-25.83,258.8,14.181S905.092,516.6,951.83,510.76c52.672-6.584,130.92,123.324,3.672,194.1Z" fill="#f7f1d7"/>
      <g id="Grupo_53556" data-name="Grupo 53556">
        <g id="Grupo_53555" data-name="Grupo 53555">
          <path id="Trazado_99954" data-name="Trazado 99954" d="M611.081,483.477a.5.5,0,0,1,0-1,.463.463,0,0,1,.1.01,46.14,46.14,0,0,0,5.9.237.51.51,0,0,1,.51.486.5.5,0,0,1-.484.51q-.57.014-1.143.014A46.584,46.584,0,0,1,611.081,483.477Zm11.466-.71a.5.5,0,0,1,.414-.568,44.766,44.766,0,0,0,5.758-1.29.5.5,0,1,1,.373.928.487.487,0,0,1-.092.027,45.858,45.858,0,0,1-5.885,1.318.489.489,0,0,1-.077.006.5.5,0,0,1-.492-.421Zm-17.41-.314a45.742,45.742,0,0,1-5.756-1.8.5.5,0,1,1,.274-.962.622.622,0,0,1,.085.033,44.659,44.659,0,0,0,5.631,1.757.5.5,0,0,1-.117.982.516.516,0,0,1-.117-.01Zm28.872-2.925a.5.5,0,0,1,.253-.657,45.218,45.218,0,0,0,5.225-2.748.5.5,0,1,1,.52.849,46.208,46.208,0,0,1-5.341,2.809.5.5,0,0,1-.657-.252Zm-40.1-1.408a46.313,46.313,0,0,1-5.093-3.232.5.5,0,0,1,.587-.8,45.106,45.106,0,0,0,4.983,3.163.5.5,0,0,1-.477.874Zm50.323-4.7a.5.5,0,0,1,.074-.7,45.583,45.583,0,0,0,4.336-4,.5.5,0,0,1,.722.686,46.249,46.249,0,0,1-4.432,4.092.5.5,0,0,1-.7-.073Zm-60.044-2.4a46.505,46.505,0,0,1-4.087-4.437.5.5,0,0,1,.775-.625,45.274,45.274,0,0,0,4,4.342.5.5,0,0,1-.61.793.475.475,0,0,1-.076-.073Zm68.341-6.145a.5.5,0,0,1-.111-.7l0,0a45.453,45.453,0,0,0,3.155-4.985.5.5,0,0,1,.874.477,46.341,46.341,0,0,1-3.224,5.094.5.5,0,0,1-.7.11h0Zm-75.9-3.224a45.851,45.851,0,0,1-2.8-5.343.5.5,0,0,1,.866-.5.522.522,0,0,1,.044.1,44.965,44.965,0,0,0,2.74,5.228.5.5,0,0,1-.8.6.488.488,0,0,1-.051-.085Zm81.709-7.165a.5.5,0,0,1-.286-.643,44.9,44.9,0,0,0,1.75-5.635.5.5,0,0,1,.968.232,46.025,46.025,0,0,1-1.789,5.76.5.5,0,0,1-.465.32.489.489,0,0,1-.181-.035Zm2.9-11.547a.5.5,0,0,1-.444-.547,45.789,45.789,0,0,0,.245-4.727q0-.587-.015-1.17a.5.5,0,1,1,.992-.123.521.521,0,0,1,0,.1q.015.6.015,1.2a46.943,46.943,0,0,1-.25,4.83.5.5,0,0,1-.494.446Zm-.746-12.321a45.148,45.148,0,0,0-1.3-5.756.5.5,0,1,1,.925-.378.522.522,0,0,1,.029.1,46.07,46.07,0,0,1,1.325,5.884.5.5,0,0,1-.968.253.542.542,0,0,1-.015-.1Zm-3.341-11.3A45.3,45.3,0,0,0,654.4,414.1a.5.5,0,0,1,.848-.521,46.274,46.274,0,0,1,2.815,5.337.5.5,0,1,1-.909.406Zm-81.522-2.888a.5.5,0,0,1-.2-.675,46.106,46.106,0,0,1,3.213-5.105.5.5,0,0,1,.806.584,45.144,45.144,0,0,0-3.144,4.995.5.5,0,0,1-.675.2Zm75.355-7.15a45.625,45.625,0,0,0-4.009-4.331.5.5,0,0,1,.685-.722,46.774,46.774,0,0,1,4.1,4.426.5.5,0,0,1-.773.627Zm-68.47-2.569a.5.5,0,0,1-.02-.7,46.352,46.352,0,0,1,4.422-4.1.5.5,0,0,1,.628.772,45.4,45.4,0,0,0-4.328,4.015.5.5,0,0,1-.7.02Zm59.924-5.535a45.343,45.343,0,0,0-4.988-3.149.5.5,0,0,1,.476-.875,46.343,46.343,0,0,1,5.1,3.219.5.5,0,0,1-.585.8Zm-50.766-2.08a.5.5,0,0,1,.163-.685,46.016,46.016,0,0,1,5.333-2.821.5.5,0,0,1,.5.867.527.527,0,0,1-.091.041,45.05,45.05,0,0,0-5.218,2.76.5.5,0,0,1-.685-.163Zm40.423-3.537a45,45,0,0,0-5.636-1.744.5.5,0,1,1,.142-.99.469.469,0,0,1,.088.021,45.867,45.867,0,0,1,5.763,1.783.5.5,0,0,1-.178.962.483.483,0,0,1-.18-.029Zm-29.6-1.446a.5.5,0,0,1,.335-.619,45.907,45.907,0,0,1,5.885-1.333.5.5,0,0,1,.156.983,44.8,44.8,0,0,0-5.758,1.3.488.488,0,0,1-.142.021.5.5,0,0,1-.481-.349Zm18.15-1.285a45.949,45.949,0,0,0-5.9-.223.5.5,0,0,1-.026-1,46.641,46.641,0,0,1,6.026.228.5.5,0,0,1-.051.993Z" fill="#b5ac84"/>
        </g>
      </g>
      <g id="Grupo_53563" data-name="Grupo 53563">
        <g id="Grupo_53562" data-name="Grupo 53562">
          <g id="Grupo_53557" data-name="Grupo 53557">
            <path id="Trazado_99955" data-name="Trazado 99955" d="M554.616,433.749a13.957,13.957,0,1,1,13.957,13.957A13.957,13.957,0,0,1,554.616,433.749Zm1.469,0a12.488,12.488,0,1,0,12.488-12.488A12.489,12.489,0,0,0,556.085,433.749Z" fill="#b5ac84"/>
          </g>
          <g id="Grupo_53558" data-name="Grupo 53558">
            <path id="Trazado_99956" data-name="Trazado 99956" d="M572.416,433.749a1.927,1.927,0,1,1,1.927,1.927A1.927,1.927,0,0,1,572.416,433.749Zm.979,0a.948.948,0,1,0,.948-.948h0a.95.95,0,0,0-.948.948Z" fill="#b5ac84"/>
          </g>
          <g id="Grupo_53559" data-name="Grupo 53559">
            <path id="Trazado_99957" data-name="Trazado 99957" d="M561.153,433.749a1.927,1.927,0,1,1,1.927,1.927A1.927,1.927,0,0,1,561.153,433.749Zm.979,0a.947.947,0,1,0,.948-.948A.947.947,0,0,0,562.132,433.749Z" fill="#b5ac84"/>
          </g>
          <g id="Grupo_53560" data-name="Grupo 53560">
            <path id="Trazado_99958" data-name="Trazado 99958" d="M568.711,430.044a1.927,1.927,0,1,1,1.927-1.927A1.927,1.927,0,0,1,568.711,430.044Zm0-.979a.947.947,0,1,0-.948-.948A.947.947,0,0,0,568.711,429.065Z" fill="#b5ac84"/>
          </g>
          <g id="Grupo_53561" data-name="Grupo 53561">
            <path id="Trazado_99959" data-name="Trazado 99959" d="M568.711,441.308a1.927,1.927,0,1,1,1.927-1.927A1.927,1.927,0,0,1,568.711,441.308Zm0-.979a.948.948,0,1,0-.948-.948h0A.948.948,0,0,0,568.711,440.329Z" fill="#b5ac84"/>
          </g>
        </g>
      </g>
      <path id="Trazado_99960" data-name="Trazado 99960" d="M926.005,410.48c-61.124-2.469-37.985,95.215,32.92,90.657S976.144,412.506,926.005,410.48Z" fill="#f7f1d7"/>
      <g id="Grupo_53582" data-name="Grupo 53582">
        <g id="Grupo_53581" data-name="Grupo 53581">
          <g id="Grupo_53567" data-name="Grupo 53567">
            <g id="Grupo_53564" data-name="Grupo 53564">
              <path id="Trazado_99961" data-name="Trazado 99961" d="M1012.716,452.1a.38.38,0,0,0,.313-.6h0c-.429-.636-.879-1.272-1.337-1.888a.383.383,0,0,0-.614.457c.451.606.894,1.231,1.316,1.858A.384.384,0,0,0,1012.716,452.1Z" fill="#b5ac84"/>
            </g>
            <g id="Grupo_53565" data-name="Grupo 53565">
              <path id="Trazado_99962" data-name="Trazado 99962" d="M1008.5,446.887c-.9-1.02-1.856-2.015-2.839-2.956a.383.383,0,1,1,.505-.576l.024.023c1,.957,1.969,1.967,2.883,3a.382.382,0,1,1-.573.506h0Zm-5.914-5.665c-1.06-.857-2.167-1.679-3.292-2.442a.382.382,0,0,1,.429-.633c1.143.775,2.267,1.61,3.343,2.48a.383.383,0,0,1-.481.595Zm-6.776-4.6c-1.186-.668-2.416-1.292-3.653-1.856a.384.384,0,1,1,.317-.7c1.257.573,2.505,1.207,3.711,1.885a.383.383,0,0,1-.375.667Zm-7.451-3.4c-1.283-.458-2.6-.867-3.914-1.214a.383.383,0,0,1,.2-.74c1.335.352,2.673.767,3.976,1.233a.385.385,0,0,1-.263.724Z" fill="#b5ac84"/>
            </g>
            <g id="Grupo_53566" data-name="Grupo 53566">
              <path id="Trazado_99963" data-name="Trazado 99963" d="M980.5,431.138a.383.383,0,0,0,.066-.759c-.755-.133-1.525-.249-2.288-.346a.383.383,0,1,0-.1.759c.751.1,1.508.21,2.252.341A.324.324,0,0,0,980.5,431.138Z" fill="#b5ac84"/>
            </g>
          </g>
          <g id="Grupo_53571" data-name="Grupo 53571">
            <g id="Grupo_53568" data-name="Grupo 53568">
              <path id="Trazado_99964" data-name="Trazado 99964" d="M958.566,432.251a.383.383,0,0,0,.1-.014c.729-.207,1.471-.4,2.2-.569a.383.383,0,0,0-.132-.755l-.041.01c-.746.173-1.5.368-2.24.577a.383.383,0,0,0,.1.751Z" fill="#b5ac84"/>
            </g>
            <g id="Grupo_53569" data-name="Grupo 53569">
              <path id="Trazado_99965" data-name="Trazado 99965" d="M971.284,528.581c-1.565-.021-3.143-.117-4.691-.284a.383.383,0,0,1,.083-.761c1.524.165,3.079.259,4.619.28a.383.383,0,0,1-.005.765Zm4.286-.506a.381.381,0,0,1,.349-.412h0c1.536-.123,3.08-.321,4.59-.589a.383.383,0,0,1,.154.75l-.021,0c-1.533.271-3.1.472-4.662.6h-.031A.381.381,0,0,1,975.57,528.075Zm-13.621-.5c-1.531-.315-3.063-.708-4.554-1.167a.382.382,0,0,1,.225-.731h0c1.469.452,2.977.838,4.484,1.148a.382.382,0,0,1-.077.757.391.391,0,0,1-.077-.011Zm22.808-1.048a.382.382,0,0,1,.266-.471c1.482-.411,2.961-.9,4.4-1.45a.383.383,0,0,1,.314.7.333.333,0,0,1-.04.015c-1.457.56-2.96,1.055-4.465,1.473a.378.378,0,0,1-.1.014.382.382,0,0,1-.374-.284Zm-31.784-1.715c-1.44-.6-2.87-1.276-4.249-2.011a.383.383,0,0,1,.359-.675c1.359.725,2.766,1.391,4.183,1.98a.382.382,0,0,1-.146.735.362.362,0,0,1-.146-.033Zm40.511-1.556a.38.38,0,0,1,.171-.512h0c1.375-.685,2.734-1.445,4.041-2.259a.382.382,0,0,1,.4.649c-1.326.827-2.707,1.6-4.1,2.294a.383.383,0,0,1-.512-.172Zm-48.8-2.862c-1.3-.862-2.577-1.8-3.792-2.779a.383.383,0,1,1,.481-.595c1.2.967,2.452,1.887,3.734,2.736a.383.383,0,0,1-.423.638Zm56.747-2.005a.382.382,0,0,1,.072-.536h0c1.22-.933,2.413-1.935,3.542-2.98a.382.382,0,0,1,.519.561h0c-1.146,1.061-2.358,2.08-3.6,3.027a.383.383,0,0,1-.536-.071h0Zm-64.052-3.9c-1.117-1.092-2.194-2.25-3.2-3.442a.382.382,0,0,1,.584-.494c.992,1.173,2.054,2.314,3.153,3.389a.383.383,0,1,1-.535.547Zm70.942-2.379a.384.384,0,0,1-.031-.54c1.026-1.148,2.008-2.356,2.919-3.593a.382.382,0,1,1,.616.453h0c-.925,1.256-1.923,2.484-2.965,3.649a.384.384,0,0,1-.54.03Zm-77.007-4.792c-.891-1.283-1.73-2.623-2.5-3.984a.383.383,0,0,1,.667-.375c.754,1.34,1.582,2.66,2.459,3.922a.383.383,0,0,1-.628.437Zm82.594-2.669a.384.384,0,0,1-.131-.525c.792-1.319,1.527-2.691,2.188-4.078a.383.383,0,0,1,.692.329c-.672,1.409-1.421,2.8-2.224,4.143a.375.375,0,0,1-.523.129Zm-87.2-5.518c-.634-1.429-1.2-2.9-1.7-4.385a.383.383,0,0,1,.715-.275l.011.033c.485,1.458,1.047,2.91,1.67,4.317a.384.384,0,0,1-.2.5.376.376,0,0,1-.5-.192Zm91.271-2.863a.385.385,0,0,1-.228-.49c.526-1.444.989-2.931,1.374-4.419a.382.382,0,1,1,.74.192h0c-.391,1.512-.86,3.022-1.4,4.49a.381.381,0,0,1-.489.228h0Zm-94.238-6.049c-.349-1.52-.629-3.077-.832-4.627a.383.383,0,0,1,.759-.1c.2,1.527.475,3.059.818,4.555a.381.381,0,0,1-.286.458h0a.355.355,0,0,1-.086.01.382.382,0,0,1-.368-.3Zm96.645-2.954a.384.384,0,0,1-.318-.438c.242-1.516.413-3.063.51-4.6a.384.384,0,0,1,.765.048c-.1,1.561-.273,3.132-.518,4.672a.383.383,0,0,1-.377.323.339.339,0,0,1-.057-.007Zm-97.865-6.357q-.031-.9-.031-1.8c0-.966.027-1.943.083-2.9a.383.383,0,0,1,.766.011v.033c-.054.947-.083,1.909-.083,2.86,0,.588.011,1.183.032,1.769a.383.383,0,0,1-.365.4H922.9a.382.382,0,0,1-.378-.375Zm.865-8.94a.383.383,0,0,1-.32-.435h0c.237-1.544.552-3.1.935-4.608a.383.383,0,0,1,.742.188c-.377,1.49-.687,3.016-.921,4.536a.383.383,0,0,1-.379.324.309.309,0,0,1-.053,0Zm2.218-9.052a.384.384,0,0,1-.232-.489c.527-1.469,1.13-2.93,1.794-4.343a.383.383,0,0,1,.692.326c-.654,1.391-1.248,2.829-1.766,4.275a.382.382,0,0,1-.361.254.364.364,0,0,1-.122-.025Zm3.9-8.461a.382.382,0,0,1-.135-.523h0c.8-1.342,1.666-2.663,2.585-3.926a.382.382,0,1,1,.618.45h0c-.906,1.243-1.761,2.544-2.545,3.865a.383.383,0,0,1-.524.134Zm5.428-7.574a.382.382,0,0,1-.034-.539h0c1.035-1.169,2.137-2.3,3.278-3.37a.383.383,0,0,1,.523.559c-1.123,1.051-2.209,2.168-3.228,3.319a.382.382,0,0,1-.539.034h0Zm6.757-6.42a.383.383,0,0,1,.069-.537c1.236-.955,2.533-1.861,3.854-2.694a.382.382,0,1,1,.408.647h0c-1.3.82-2.577,1.713-3.795,2.653a.383.383,0,0,1-.536-.069Zm7.847-5.033a.382.382,0,0,1,.168-.513h0c1.4-.7,2.84-1.349,4.3-1.916a.382.382,0,0,1,.277.713c-1.433.559-2.855,1.193-4.229,1.887a.383.383,0,0,1-.514-.169Z" fill="#b5ac84"/>
            </g>
            <g id="Grupo_53570" data-name="Grupo 53570">
              <path id="Trazado_99966" data-name="Trazado 99966" d="M1021.036,477.9h.012a.382.382,0,0,0,.37-.394h0c-.024-.767-.067-1.544-.127-2.31a.383.383,0,0,0-.765.027l0,.033c.058.754.1,1.519.125,2.273A.38.38,0,0,0,1021.036,477.9Z" fill="#b5ac84"/>
            </g>
          </g>
          <g id="Grupo_53575" data-name="Grupo 53575">
            <g id="Grupo_53572" data-name="Grupo 53572">
              <path id="Trazado_99967" data-name="Trazado 99967" d="M1012.716,452.1a.38.38,0,0,0,.313-.6h0c-.429-.636-.879-1.272-1.337-1.888a.383.383,0,0,0-.614.457c.451.606.894,1.231,1.316,1.858A.384.384,0,0,0,1012.716,452.1Z" fill="#b5ac84"/>
            </g>
            <g id="Grupo_53573" data-name="Grupo 53573">
              <path id="Trazado_99968" data-name="Trazado 99968" d="M1008.5,446.887c-.9-1.02-1.856-2.015-2.839-2.956a.383.383,0,1,1,.505-.576l.024.023c1,.957,1.969,1.967,2.883,3a.382.382,0,1,1-.573.506h0Zm-5.914-5.665c-1.06-.857-2.167-1.679-3.292-2.442a.382.382,0,0,1,.429-.633c1.143.775,2.267,1.61,3.343,2.48a.383.383,0,0,1-.481.595Zm-6.776-4.6c-1.186-.668-2.416-1.292-3.653-1.856a.384.384,0,1,1,.317-.7c1.257.573,2.505,1.207,3.711,1.885a.383.383,0,0,1-.375.667Zm-7.451-3.4c-1.283-.458-2.6-.867-3.914-1.214a.383.383,0,0,1,.2-.74c1.335.352,2.673.767,3.976,1.233a.385.385,0,0,1-.263.724Z" fill="#b5ac84"/>
            </g>
            <g id="Grupo_53574" data-name="Grupo 53574">
              <path id="Trazado_99969" data-name="Trazado 99969" d="M980.5,431.138a.383.383,0,0,0,.066-.759c-.755-.133-1.525-.249-2.288-.346a.383.383,0,1,0-.1.759c.751.1,1.508.21,2.252.341A.324.324,0,0,0,980.5,431.138Z" fill="#b5ac84"/>
            </g>
          </g>
          <g id="Grupo_53576" data-name="Grupo 53576">
            <path id="Trazado_99970" data-name="Trazado 99970" d="M967.02,431.834l-6.07-4.411h7.5l2.319-7.136,2.319,7.136h7.5l-6.07,4.411,2.318,7.136-6.07-4.411-6.07,4.411Zm8.367,5.133-1.763-5.425,4.615-3.354h-5.7l-1.763-5.425-1.763,5.425h-5.7l4.615,3.354-1.763,5.425,4.615-3.353Z" fill="#b5ac84"/>
          </g>
          <g id="Grupo_53580" data-name="Grupo 53580">
            <g id="Grupo_53577" data-name="Grupo 53577">
              <path id="Trazado_99971" data-name="Trazado 99971" d="M1007.528,463.1a10.726,10.726,0,1,1,10.725,10.727A10.725,10.725,0,0,1,1007.528,463.1Zm1.129,0a9.6,9.6,0,1,0,9.6-9.6h0a9.607,9.607,0,0,0-9.6,9.6Z" fill="#b5ac84"/>
            </g>
            <g id="Grupo_53578" data-name="Grupo 53578">
              <path id="Trazado_99972" data-name="Trazado 99972" d="M1020.451,463.1a1.481,1.481,0,1,1,1.481,1.481h0A1.483,1.483,0,0,1,1020.451,463.1Zm.753,0a.728.728,0,1,0,.728-.728.727.727,0,0,0-.728.728Z" fill="#b5ac84"/>
            </g>
            <g id="Grupo_53579" data-name="Grupo 53579">
              <path id="Trazado_99973" data-name="Trazado 99973" d="M1013.3,463.1a1.481,1.481,0,1,1,1.481,1.481h0A1.483,1.483,0,0,1,1013.3,463.1Zm.753,0a.728.728,0,1,0,.728-.728.728.728,0,0,0-.728.728Z" fill="#b5ac84"/>
            </g>
          </g>
        </g>
      </g>
      <g id="Grupo_53589" data-name="Grupo 53589">
        <path id="Trazado_99984" data-name="Trazado 99984" d="M631.8,655.367c1.314.945,3.7,6.2,3.7,6.2s-5.807-.5-7.12-1.441a2.93,2.93,0,0,1,3.422-4.757Z" fill="#b3ae7f"/>
        <path id="Trazado_99985" data-name="Trazado 99985" d="M662.352,694.46a.27.27,0,0,1-.245-.156c-.087-.187-8.892-18.881-29.688-34.824a.27.27,0,0,1,.328-.428c20.906,16.029,29.762,34.838,29.849,35.026a.268.268,0,0,1-.132.358.258.258,0,0,1-.113.025Z" fill="#8f8b66"/>
        <g id="Grupo_53587" data-name="Grupo 53587">
          <path id="Trazado_99986" data-name="Trazado 99986" d="M635.164,666.411c1.591-.291,7.03,1.634,7.03,1.634s-4.385,3.839-5.976,4.13a2.93,2.93,0,0,1-1.054-5.764Z" fill="#b3ae7f"/>
          <path id="Trazado_99987" data-name="Trazado 99987" d="M635.747,669.583a.269.269,0,0,1-.052-.534c4.862-.955,6.918-1.4,6.939-1.406a.27.27,0,0,1,.114.527c-.02,0-2.081.451-6.949,1.407A.226.226,0,0,1,635.747,669.583Z" fill="#8f8b66"/>
        </g>
        <g id="Grupo_53588" data-name="Grupo 53588">
          <path id="Trazado_99988" data-name="Trazado 99988" d="M652.455,667.655c-.181,1.608-3.6,6.259-3.6,6.259s-2.409-5.306-2.228-6.915a2.93,2.93,0,0,1,5.823.656Z" fill="#b3ae7f"/>
          <path id="Trazado_99989" data-name="Trazado 99989" d="M648.848,674.7h-.022a.27.27,0,0,1-.247-.289h0c0-.02.169-2.122.659-7.059a.27.27,0,0,1,.537.053c-.49,4.931-.657,7.029-.659,7.049A.268.268,0,0,1,648.848,674.7Z" fill="#8f8b66"/>
        </g>
      </g>
      <g id="Grupo_53590" data-name="Grupo 53590">
        <path id="Trazado_99990" data-name="Trazado 99990" d="M634.159,676.1c-14.467-2.914-28.55,6.417-28.55,6.417s9.373,14.054,23.841,16.968S658,693.064,658,693.064,648.625,679.009,634.159,676.1Z" fill="#8f8b66"/>
        <path id="Trazado_99991" data-name="Trazado 99991" d="M680.284,707.295a.451.451,0,0,1-.565-.034,94.723,94.723,0,0,0-22.711-14.152,122.413,122.413,0,0,0-43.44-10.013.45.45,0,0,1,.034-.9,123.352,123.352,0,0,1,43.775,10.092,95.659,95.659,0,0,1,22.948,14.307.45.45,0,0,1,.029.635A.473.473,0,0,1,680.284,707.295Z" fill="#b3ae7f"/>
        <path id="Trazado_99992" data-name="Trazado 99992" d="M632.978,685.2a.451.451,0,0,1-.526,0l-8.69-6.324a.45.45,0,0,1,.529-.727l8.69,6.324a.449.449,0,0,1,.1.627h0A.439.439,0,0,1,632.978,685.2Z" fill="#b3ae7f"/>
        <path id="Trazado_99993" data-name="Trazado 99993" d="M641.289,687.472l-.032.021-10.819,6.427a.449.449,0,1,1-.48-.758l.022-.014L640.8,686.72a.449.449,0,1,1,.491.752h0Z" fill="#b3ae7f"/>
        <path id="Trazado_99994" data-name="Trazado 99994" d="M650.865,690.284a.449.449,0,0,1-.606-.079l-6.088-7.318a.449.449,0,1,1,.691-.574l6.088,7.318a.448.448,0,0,1-.056.631h0A.141.141,0,0,1,650.865,690.284Z" fill="#b3ae7f"/>
      </g>
      <g id="Grupo_53591" data-name="Grupo 53591">
        <path id="Trazado_99995" data-name="Trazado 99995" d="M926.615,553.1c21.791-4.269,42.906,9.882,42.906,9.882s-14.214,21.072-36.006,25.34-42.906-9.882-42.906-9.882S904.824,557.37,926.615,553.1Z" fill="#8f8b66"/>
        <path id="Trazado_99996" data-name="Trazado 99996" d="M857.165,600.082a.972.972,0,0,1-.462-1.673c.13-.117,13.24-11.841,34.72-21.4,19.612-8.723,43.69-14.141,66.058-14.862a.971.971,0,0,1,.127,1.938l-.065,0c-21.8.7-46.224,6.2-65.331,14.7-21.18,9.42-34.08,20.947-34.208,21.062A.97.97,0,0,1,857.165,600.082Z" fill="#b3ae7f"/>
        <path id="Trazado_99997" data-name="Trazado 99997" d="M928.527,567.21a.972.972,0,0,1-.38-1.741l13.126-9.446a.971.971,0,1,1,1.169,1.551l-.035.025-13.126,9.446A.972.972,0,0,1,928.527,567.21Z" fill="#b3ae7f"/>
        <path id="Trazado_99998" data-name="Trazado 99998" d="M932.151,580.266a.988.988,0,0,1-.313-.121l-16.228-9.757a.971.971,0,0,1,.96-1.689l.04.025,16.227,9.757a.971.971,0,0,1-.687,1.785Z" fill="#b3ae7f"/>
        <path id="Trazado_99999" data-name="Trazado 99999" d="M901.573,574.721a.973.973,0,0,1-.556-1.577l9.219-10.962a.971.971,0,0,1,1.486,1.25L902.5,574.394A.967.967,0,0,1,901.573,574.721Z" fill="#b3ae7f"/>
      </g>
      <g id="Grupo_53613" data-name="Grupo 53613">
        <path id="Trazado_100000" data-name="Trazado 100000" d="M979.162,492.334c-3.213,1.38-15.594-.053-15.594-.053s7.385-10.2,10.6-11.581,12.678,1.19,12.678,1.19S982.375,490.952,979.162,492.334Z" fill="#7d6871"/>
        <g id="Grupo_53593" data-name="Grupo 53593">
          <g id="Grupo_53592" data-name="Grupo 53592">
            <path id="Trazado_100001" data-name="Trazado 100001" d="M883.223,580.172l-.938-.249c18.2-68.631,85.812-89.863,86.473-90l.191.952C968.292,491.011,901.281,512.064,883.223,580.172Z" fill="#54464c"/>
          </g>
        </g>
        <g id="Grupo_53596" data-name="Grupo 53596">
          <path id="Trazado_100002" data-name="Trazado 100002" d="M963.97,513.619c-3.264-1.256-11.125-10.929-11.125-10.929s12.409-2.143,15.673-.887,8.243,9.706,8.243,9.706S967.233,514.875,963.97,513.619Z" fill="#7d6871"/>
          <g id="Grupo_53595" data-name="Grupo 53595">
            <g id="Grupo_53594" data-name="Grupo 53594">
              <path id="Trazado_100003" data-name="Trazado 100003" d="M969,508.338c-5.7-2.7-22.665-7.165-22.836-7.209l.246-.939c.7.184,17.222,4.534,23,7.271Z" fill="#54464c"/>
            </g>
          </g>
        </g>
        <g id="Grupo_53599" data-name="Grupo 53599">
          <path id="Trazado_100004" data-name="Trazado 100004" d="M943.838,527.294c-3.263-1.256-11.124-10.929-11.124-10.929s12.409-2.143,15.672-.887,8.242,9.707,8.242,9.707S947.1,528.55,943.838,527.294Z" fill="#7d6871"/>
          <g id="Grupo_53598" data-name="Grupo 53598">
            <g id="Grupo_53597" data-name="Grupo 53597">
              <path id="Trazado_100005" data-name="Trazado 100005" d="M948.873,522.012c-5.7-2.7-22.666-7.165-22.837-7.209l.246-.939c.7.184,17.222,4.534,23.006,7.271Z" fill="#54464c"/>
            </g>
          </g>
        </g>
        <g id="Grupo_53602" data-name="Grupo 53602">
          <path id="Trazado_100006" data-name="Trazado 100006" d="M927.314,543.627c-3.263-1.256-11.124-10.929-11.124-10.929s12.409-2.144,15.673-.887,8.242,9.706,8.242,9.706S930.578,544.883,927.314,543.627Z" fill="#7d6871"/>
          <g id="Grupo_53601" data-name="Grupo 53601">
            <g id="Grupo_53600" data-name="Grupo 53600">
              <path id="Trazado_100007" data-name="Trazado 100007" d="M932.349,538.345c-5.7-2.7-22.666-7.164-22.837-7.209l.246-.939c.7.184,17.222,4.533,23.006,7.271Z" fill="#54464c"/>
            </g>
          </g>
        </g>
        <g id="Grupo_53605" data-name="Grupo 53605">
          <path id="Trazado_100008" data-name="Trazado 100008" d="M914.843,560.024c-3.264-1.256-11.125-10.929-11.125-10.929s12.409-2.143,15.673-.887,8.242,9.706,8.242,9.706S918.106,561.28,914.843,560.024Z" fill="#7d6871"/>
          <g id="Grupo_53604" data-name="Grupo 53604">
            <g id="Grupo_53603" data-name="Grupo 53603">
              <path id="Trazado_100009" data-name="Trazado 100009" d="M919.877,554.742c-5.7-2.7-22.666-7.164-22.837-7.209l.247-.939c.7.184,17.221,4.534,23.005,7.271Z" fill="#54464c"/>
            </g>
          </g>
        </g>
        <g id="Grupo_53609" data-name="Grupo 53609">
          <g id="Grupo_53607" data-name="Grupo 53607">
            <g id="Grupo_53606" data-name="Grupo 53606">
              <path id="Trazado_100010" data-name="Trazado 100010" d="M948.1,487.171c-.9,3.379-9.673,12.232-9.673,12.232s-3.462-12.108-2.563-15.487,8.767-9.236,8.767-9.236S949,483.792,948.1,487.171Z" fill="#7d6871"/>
            </g>
          </g>
          <g id="Grupo_53608" data-name="Grupo 53608">
            <path id="Trazado_100011" data-name="Trazado 100011" d="M937.59,506.21l-.96-.144c.108-.717,2.661-17.609,4.762-23.652l.917.318C940.237,488.691,937.616,506.036,937.59,506.21Z" fill="#54464c"/>
          </g>
        </g>
        <g id="Grupo_53612" data-name="Grupo 53612">
          <path id="Trazado_100012" data-name="Trazado 100012" d="M923.221,502.977c-.266,3.486-7.276,13.794-7.276,13.794S910.33,505.5,910.6,502.013s6.932-10.682,6.932-10.682S923.487,499.491,923.221,502.977Z" fill="#7d6871"/>
          <g id="Grupo_53611" data-name="Grupo 53611">
            <g id="Grupo_53610" data-name="Grupo 53610">
              <path id="Trazado_100013" data-name="Trazado 100013" d="M915.4,523.649c-.025-.724-.6-17.8.36-24.124l.96.146c-.948,6.236-.355,23.768-.35,23.945Z" fill="#54464c"/>
            </g>
          </g>
        </g>
      </g>
      <g id="Grupo_53614" data-name="Grupo 53614">
        <path id="Trazado_100036" data-name="Trazado 100036" d="M557.684,650.3l-.006-.011c-.212-.426,1.709-1.859,1.79-1.92.252-.187.268-.249.268-.26a1.955,1.955,0,0,0-.582-.11,7.023,7.023,0,0,1-1.875-.422c-.155-.063-.625-.253-.53-.5.161-.425,2.253-.417,3.848.151l-.057.162c-1.649-.588-3.538-.5-3.63-.252-.007.02.044.126.434.283a6.933,6.933,0,0,0,1.831.411c.442.052.685.081.728.239.031.115-.062.238-.332.439-1.043.775-1.8,1.567-1.739,1.706,0,0,.061.057.437-.052a7.987,7.987,0,0,0,2.757-1.764l.121.121a8,8,0,0,1-2.83,1.807C558.07,650.4,557.776,650.462,557.684,650.3Z" fill="#c4c4c4"/>
      </g>
      <path id="Rectángulo_5070" data-name="Rectángulo 5070" d="M539.815,704.229H1014.7a11.016,11.016,0,0,1,11.016,11.016H528.8a11.016,11.016,0,0,1,11.014-11.016Z" fill="#d4c99b"/>
      <g id="Grupo_53658" data-name="Grupo 53658">
        <g id="Grupo_53657" data-name="Grupo 53657">
          <g id="Grupo_53654" data-name="Grupo 53654">
            <path id="Trazado_100090" data-name="Trazado 100090" d="M527.6,674.354a6.186,6.186,0,1,1,6.187,6.185h0A6.194,6.194,0,0,1,527.6,674.354Zm.651,0a5.535,5.535,0,1,0,5.537-5.534h0A5.541,5.541,0,0,0,528.251,674.354Z" fill="#b5ac84"/>
          </g>
          <g id="Grupo_53655" data-name="Grupo 53655">
            <path id="Trazado_100091" data-name="Trazado 100091" d="M535.489,674.354a.854.854,0,1,1,.854.854A.854.854,0,0,1,535.489,674.354Zm.434,0a.421.421,0,1,0,.421-.42h0A.421.421,0,0,0,535.923,674.354Z" fill="#b5ac84"/>
          </g>
          <g id="Grupo_53656" data-name="Grupo 53656">
            <path id="Trazado_100092" data-name="Trazado 100092" d="M530.5,674.354a.854.854,0,1,1,.854.854A.854.854,0,0,1,530.5,674.354Zm.434,0a.42.42,0,1,0,.421-.42h0A.421.421,0,0,0,530.931,674.354Z" fill="#b5ac84"/>
          </g>
        </g>
      </g>
      <g id="Grupo_53663" data-name="Grupo 53663">
        <g id="Grupo_53662" data-name="Grupo 53662">
          <g id="Grupo_53659" data-name="Grupo 53659">
            <path id="Trazado_100093" data-name="Trazado 100093" d="M904.943,659.059a6.186,6.186,0,1,1,6.187,6.186A6.187,6.187,0,0,1,904.943,659.059Zm.651,0a5.534,5.534,0,1,0,5.536-5.535A5.534,5.534,0,0,0,905.594,659.059Z" fill="#b5ac84"/>
          </g>
          <g id="Grupo_53660" data-name="Grupo 53660">
            <path id="Trazado_100094" data-name="Trazado 100094" d="M912.832,659.057a.854.854,0,1,1,.854.854A.854.854,0,0,1,912.832,659.057Zm.434,0a.42.42,0,1,0,.42-.42h0A.422.422,0,0,0,913.266,659.057Z" fill="#b5ac84"/>
          </g>
          <g id="Grupo_53661" data-name="Grupo 53661">
            <path id="Trazado_100095" data-name="Trazado 100095" d="M907.84,659.057a.854.854,0,1,1,.854.854.854.854,0,0,1-.854-.854Zm.434,0a.42.42,0,1,0,.42-.42h0A.422.422,0,0,0,908.274,659.057Z" fill="#b5ac84"/>
          </g>
        </g>
      </g>
      <g id="Grupo_53668" data-name="Grupo 53668">
        <g id="Grupo_53667" data-name="Grupo 53667">
          <g id="Grupo_53664" data-name="Grupo 53664">
            <path id="Trazado_100096" data-name="Trazado 100096" d="M904.943,428.3a6.186,6.186,0,1,1,6.187,6.186A6.187,6.187,0,0,1,904.943,428.3Zm.651,0a5.534,5.534,0,1,0,5.536-5.534A5.535,5.535,0,0,0,905.594,428.3Z" fill="#b5ac84"/>
          </g>
          <g id="Grupo_53665" data-name="Grupo 53665">
            <path id="Trazado_100097" data-name="Trazado 100097" d="M912.832,428.306a.854.854,0,1,1,.854.854A.854.854,0,0,1,912.832,428.306Zm.434,0a.42.42,0,1,0,.42-.42.421.421,0,0,0-.42.42Z" fill="#b5ac84"/>
          </g>
          <g id="Grupo_53666" data-name="Grupo 53666">
            <path id="Trazado_100098" data-name="Trazado 100098" d="M907.84,428.306a.854.854,0,1,1,.854.854A.854.854,0,0,1,907.84,428.306Zm.434,0a.42.42,0,1,0,.42-.42.421.421,0,0,0-.42.42Z" fill="#b5ac84"/>
          </g>
        </g>
      </g>
      <g id="Grupo_53677" data-name="Grupo 53677">
        <g id="Grupo_53676" data-name="Grupo 53676">
          <g id="Grupo_53669" data-name="Grupo 53669">
            <path id="Trazado_100099" data-name="Trazado 100099" d="M998.807,562.22h12.96v20.169h-12.96Zm11.974.987H999.795v18.2h10.986Z" fill="#b5ac84"/>
          </g>
          <g id="Grupo_53670" data-name="Grupo 53670">
            <path id="Trazado_100100" data-name="Trazado 100100" d="M1002.412,559.323h5.751v3.819h-5.751Zm4.763.987H1003.4v1.846h3.776Z" fill="#b5ac84"/>
          </g>
          <g id="Grupo_53671" data-name="Grupo 53671">
            <path id="Trazado_100101" data-name="Trazado 100101" d="M1002.412,581.431h5.751v3.819h-5.751Zm4.763.987H1003.4v1.846h3.776Z" fill="#b5ac84"/>
          </g>
          <g id="Grupo_53672" data-name="Grupo 53672">
            <path id="Trazado_100102" data-name="Trazado 100102" d="M1000.783,570.741a.52.52,0,0,0,.129-.017c1.788-.483,7.366-2.838,9.512-6.154a.494.494,0,0,0-.829-.536c-1.964,3.036-7.317,5.3-8.94,5.737a.494.494,0,0,0,.128.97Z" fill="#b5ac84"/>
          </g>
          <g id="Grupo_53673" data-name="Grupo 53673">
            <path id="Trazado_100103" data-name="Trazado 100103" d="M1000.783,573.894a.478.478,0,0,0,.129-.017c1.788-.482,7.366-2.837,9.512-6.154a.494.494,0,1,0-.807-.571c-.008.011-.015.023-.022.035-1.964,3.037-7.317,5.3-8.94,5.737a.493.493,0,0,0,.128.97Z" fill="#b5ac84"/>
          </g>
          <g id="Grupo_53674" data-name="Grupo 53674">
            <path id="Trazado_100104" data-name="Trazado 100104" d="M1000.783,577.049a.517.517,0,0,0,.129-.017c1.788-.483,7.366-2.838,9.512-6.155a.494.494,0,0,0-.829-.536c-1.964,3.037-7.317,5.3-8.94,5.737a.494.494,0,0,0,.128.97Z" fill="#b5ac84"/>
          </g>
          <g id="Grupo_53675" data-name="Grupo 53675">
            <path id="Trazado_100105" data-name="Trazado 100105" d="M1000.783,580.2a.52.52,0,0,0,.129-.017c1.788-.482,7.366-2.837,9.512-6.154a.494.494,0,0,0-.829-.536c-1.964,3.037-7.317,5.3-8.94,5.737a.493.493,0,0,0,.128.97Z" fill="#b5ac84"/>
          </g>
        </g>
      </g>
      <path id="Trazado_100106" data-name="Trazado 100106" d="M507.66,579.642a2.93,2.93,0,0,0,1.579,2.025c.993.563,3.2,1.26,6.83-.4,2.714-1.241,5.146-1.39,6.672-.409a2.971,2.971,0,0,1,1.012,1.083,1.614,1.614,0,0,0-.809,1.394c0,.895.726,21.493,1.62,21.493s1.62-20.6,1.62-21.493a1.619,1.619,0,0,0-1.619-1.62h0c-.026,0-.049.006-.075.007a3.708,3.708,0,0,0-1.342-1.5c-1.746-1.122-4.441-.991-7.392.358-3.325,1.52-5.278.921-6.147.429a2.227,2.227,0,0,1-1.2-1.454.376.376,0,1,0-.748.083h0Zm16.429,3.266a3.744,3.744,0,0,1,.065.668.376.376,0,0,0,.752,0,4.448,4.448,0,0,0-.07-.764.88.88,0,1,1-.747.1Z" fill="#b5ac84"/>
      <g id="Grupo_53682" data-name="Grupo 53682">
        <g id="Grupo_53681" data-name="Grupo 53681">
          <g id="Grupo_53678" data-name="Grupo 53678">
            <path id="Trazado_100107" data-name="Trazado 100107" d="M702.966,415.714c8.1-3.62,17.345-5.426,18.8-2.181s-6.061,8.929-14.161,12.549-17.345,5.426-18.8,2.181S694.866,419.335,702.966,415.714Zm.307.687c-9.447,4.222-14.752,9.383-13.781,11.555s8.355,1.661,17.8-2.561,14.752-9.383,13.781-11.555-8.354-1.66-17.8,2.561Z" fill="#b5ac84"/>
          </g>
          <g id="Grupo_53679" data-name="Grupo 53679">
            <path id="Trazado_100108" data-name="Trazado 100108" d="M692.544,422.953c2.857-1.277,5.689-.945,6.449.756s-.881,4.033-3.739,5.31-5.689.945-6.449-.756S689.686,424.23,692.544,422.953Zm.307.687c-2.39,1.068-3.927,3.044-3.359,4.316s3.066,1.444,5.454.375,3.927-3.043,3.359-4.315-3.066-1.444-5.451-.376Z" fill="#b5ac84"/>
          </g>
          <g id="Grupo_53680" data-name="Grupo 53680">
            <path id="Trazado_100109" data-name="Trazado 100109" d="M715.682,416.251a2.256,2.256,0,0,0-2.926-1.163,10.661,10.661,0,0,0-1.884-1.829c5.494-1.483,9.715-1.433,10.547.427s-1.924,5.012-6.655,8.1a10.252,10.252,0,0,0-.134-2.6A2.257,2.257,0,0,0,715.682,416.251Z" fill="#b5ac84"/>
          </g>
        </g>
      </g>
      <g id="Grupo_53684" data-name="Grupo 53684">
        <g id="Grupo_53683" data-name="Grupo 53683">
          <path id="Trazado_100110" data-name="Trazado 100110" d="M1024.087,680.167l-6.07-4.41h7.5l2.319-7.136,2.319,7.136h7.5l-6.07,4.41,2.319,7.136-6.07-4.41-6.069,4.41Zm8.368,5.133-1.762-5.425,4.614-3.354h-5.7l-1.763-5.425-1.763,5.425h-5.7l4.615,3.354-1.763,5.425,4.615-3.353Z" fill="#b5ac84"/>
        </g>
      </g>
      <g id="Grupo_53686" data-name="Grupo 53686">
        <g id="Grupo_53685" data-name="Grupo 53685">
          <path id="Trazado_100111" data-name="Trazado 100111" d="M561.852,496.8l-6.07-4.41h7.5l2.319-7.136,2.319,7.136h7.5l-6.07,4.41,2.319,7.136-6.07-4.411-6.07,4.411Zm8.367,5.133-1.763-5.425,4.615-3.353h-5.7l-1.763-5.425-1.763,5.425h-5.7l4.615,3.353L561,501.935l4.615-3.353Z" fill="#b5ac84"/>
        </g>
      </g>
      <g id="Grupo_53688" data-name="Grupo 53688">
        <g id="Grupo_53687" data-name="Grupo 53687">
          <path id="Trazado_100112" data-name="Trazado 100112" d="M844.479,403.64l-6.07-4.411h7.5l2.319-7.135,2.319,7.135h7.5l-6.07,4.411,2.318,7.136-6.07-4.41-6.07,4.41Zm8.366,5.133-1.762-5.425,4.615-3.354H850l-1.763-5.425-1.763,5.425h-5.7l4.615,3.354-1.763,5.425,4.615-3.353Z" fill="#b5ac84"/>
        </g>
      </g>
    </g>
    <g id="Grupo_53773" data-name="Grupo 53773">
      <rect id="Rectángulo_5077" data-name="Rectángulo 5077" width="74.795" height="53.963" transform="translate(915.205 615.82)" fill="#8c757e"/>
      <g id="Grupo_53734" data-name="Grupo 53734">
        <rect id="Rectángulo_5078" data-name="Rectángulo 5078" width="28.429" height="147.387" transform="translate(967.618 654.954) rotate(90)" fill="#ff9696"/>
        <g id="Grupo_53733-2" data-name="Grupo 53733">
          <path id="Trazado_100461" data-name="Trazado 100461" d="M1006.632,669.168l-9.754-3.554v7.107Z" fill="#ff9696"/>
          <path id="Trazado_100462" data-name="Trazado 100462" d="M996.879,665.615l-29.26-10.661v28.429l29.26-10.661Z" fill="#ffeace"/>
        </g>
        <rect id="Rectángulo_5079" data-name="Rectángulo 5079" width="7.107" height="147.387" transform="translate(967.618 665.615) rotate(90)" fill="#ea8686"/>
      </g>
      <rect id="Rectángulo_5080" data-name="Rectángulo 5080" width="80.652" height="37.691" transform="translate(786.954 652.16)" fill="#2e3992"/>
      <g id="Grupo_53743" data-name="Grupo 53743">
        <g id="Grupo_53735" data-name="Grupo 53735">
          <path id="Trazado_100463" data-name="Trazado 100463" d="M828.438,694.506H817.7l40.915-201.9h8.991Z" fill="#8c757e"/>
          <path id="Trazado_100464" data-name="Trazado 100464" d="M897.782,694.506h10.739L867.606,492.6h-8.991Z" fill="#8c757e"/>
        </g>
        <rect id="Rectángulo_5081" data-name="Rectángulo 5081" width="171.754" height="168.849" transform="translate(781.453 500.468)" fill="#f4f5fe"/>
        <g id="Grupo_53742" data-name="Grupo 53742">
          <rect id="Rectángulo_5082" data-name="Rectángulo 5082" width="2.754" height="158.984" transform="translate(792.699 500.468)" fill="#ff9696"/>
          <rect id="Rectángulo_5083" data-name="Rectángulo 5083" width="2.754" height="158.984" transform="translate(939.207 500.468)" fill="#ff9696"/>
          <g id="Grupo_53736" data-name="Grupo 53736">
            <rect id="Rectángulo_5084" data-name="Rectángulo 5084" width="159.188" height="155.933" transform="translate(787.865 506.926)" fill="#fce6e9"/>
            <rect id="Rectángulo_5085" data-name="Rectángulo 5085" width="159.447" height="6.508" transform="translate(787.606 506.926)" fill="#c46588"/>
          </g>
          <g id="Grupo_53741" data-name="Grupo 53741">
            <g id="Grupo_53738" data-name="Grupo 53738">
              <path id="Trazado_100465" data-name="Trazado 100465" d="M937.743,640.68h0c-15.573,0-33.178-18.159-34.242-35.762l4.035-17.578C926.8,561.784,937.743,640.68,937.743,640.68Z" fill="#ea8686"/>
              <g id="Grupo_53737" data-name="Grupo 53737">
                <path id="Trazado_100466" data-name="Trazado 100466" d="M918.9,530.113h-7.381s.461,6.305-10.917,10.917v8.3s5.46,10.148,5.46,20.911a8.947,8.947,0,0,0,2.548,1.672,15.753,15.753,0,0,0,13.2,0,8.947,8.947,0,0,0,2.548-1.672c0-10.763,5.46-20.911,5.46-20.911v-8.3C918.435,536.418,918.9,530.113,918.9,530.113Z" fill="#8c757e"/>
                <path id="Trazado_100467" data-name="Trazado 100467" d="M922.947,566.911H907.3s-10.8,9.622-8.353,38.007h0a47.308,47.308,0,0,0,32.352,0h0C933.742,576.533,922.947,566.911,922.947,566.911Z" fill="#8c757e"/>
              </g>
              <path id="Trazado_100468" data-name="Trazado 100468" d="M905.232,563.238s-11.525,20.822-4.634,38.52,37.145,38.922,37.145,38.922-.295-53.932-12.113-70.264C914.037,563.464,905.232,563.238,905.232,563.238Z" fill="#ff9696"/>
              <path id="Trazado_100469" data-name="Trazado 100469" d="M924.721,538.4s-4.975,7-15.042,20.23c3.388,7.466,15.951,1.857,15.951,1.857l2.28-6.94,1.9-12.518Z" fill="#ff9696"/>
              <path id="Trazado_100470" data-name="Trazado 100470" d="M909.289,535.27l-8.691,5.76s-5.821,33.855,25.032,29.386v-9.928S912.005,557.62,909.289,535.27Z" fill="#fca7a7"/>
            </g>
            <g id="Grupo_53740" data-name="Grupo 53740">
              <g id="Grupo_53739" data-name="Grupo 53739">
                <path id="Trazado_100471" data-name="Trazado 100471" d="M817.5,530.113h-20.58a40.917,40.917,0,0,0,40.287,40.71V550.174A22.693,22.693,0,0,1,817.5,530.113Z" fill="none" stroke="#de705f" stroke-miterlimit="10" stroke-width="0.501"/>
              </g>
              <path id="Trazado_100472" data-name="Trazado 100472" d="M796.916,586.457c0,53.286,35.779,56.344,35.779,56.344V586.457Z" fill="none" stroke="#de705f" stroke-miterlimit="10" stroke-width="0.501"/>
              <path id="Trazado_100473" data-name="Trazado 100473" d="M847.136,586.457c0,60,37.321,63.443,37.321,63.443V586.457Z" fill="none" stroke="#de705f" stroke-miterlimit="10" stroke-width="0.482"/>
              <path id="Trazado_100474" data-name="Trazado 100474" d="M852.551,570.823l14.729-40.709h17.176v40.709Z" fill="none" stroke="#de705f" stroke-miterlimit="10" stroke-width="0.501"/>
              <line id="Línea_137" data-name="Línea 137" x1="31.905" transform="translate(852.551 573.366)" fill="none" stroke="#de705f" stroke-miterlimit="10" stroke-width="0.251"/>
              <line id="Línea_138" data-name="Línea 138" x1="40.286" transform="translate(796.916 573.366)" fill="none" stroke="#de705f" stroke-miterlimit="10" stroke-width="0.251"/>
              <line id="Línea_139" data-name="Línea 139" y1="40.564" transform="translate(886.992 530.113)" fill="none" stroke="#de705f" stroke-miterlimit="10" stroke-width="0.251"/>
              <line id="Línea_140" data-name="Línea 140" y1="20.282" transform="translate(839.821 550.395)" fill="none" stroke="#de705f" stroke-miterlimit="10" stroke-width="0.251"/>
              <line id="Línea_141" data-name="Línea 141" y2="56.345" transform="translate(835.314 586.456)" fill="none" stroke="#de705f" stroke-miterlimit="10" stroke-width="0.251"/>
              <line id="Línea_142" data-name="Línea 142" x2="35.779" transform="translate(796.916 584.049)" fill="none" stroke="#de705f" stroke-miterlimit="10" stroke-width="0.251"/>
              <line id="Línea_143" data-name="Línea 143" y1="63.444" transform="translate(886.992 586.456)" fill="none" stroke="#de705f" stroke-miterlimit="10" stroke-width="0.251"/>
              <line id="Línea_144" data-name="Línea 144" x2="37.32" transform="translate(847.136 584.049)" fill="none" stroke="#de705f" stroke-miterlimit="10" stroke-width="0.251"/>
              <line id="Línea_145" data-name="Línea 145" x1="16.972" transform="translate(867.445 527.255)" fill="none" stroke="#de705f" stroke-miterlimit="10" stroke-width="0.251"/>
            </g>
          </g>
        </g>
      </g>
      <g id="Grupo_53753" data-name="Grupo 53753">
        <path id="Rectángulo_5086" data-name="Rectángulo 5086" d="M19.553,0h4.938a4.175,4.175,0,0,1,4.175,4.175V45.394a4.176,4.176,0,0,1-4.176,4.176H19.553A19.553,19.553,0,0,1,0,30.017V19.553A19.553,19.553,0,0,1,19.553,0Z" transform="translate(558.295 488.36)" fill="#8c757e"/>
        <g id="Grupo_53744" data-name="Grupo 53744">
          <path id="Trazado_100475" data-name="Trazado 100475" d="M796.8,584.4h0a5.806,5.806,0,0,0,5.806-5.806v-5.806H790.991v5.806A5.805,5.805,0,0,0,796.8,584.4Z" fill="#8c757e"/>
          <path id="Trazado_100476" data-name="Trazado 100476" d="M796.8,606.052h0a1.244,1.244,0,0,0,1.244-1.244v-21.15h-2.488v21.15A1.244,1.244,0,0,0,796.8,606.052Z" fill="#8c757e"/>
        </g>
        <g id="Grupo_53746" data-name="Grupo 53746">
          <path id="Trazado_100477" data-name="Trazado 100477" d="M860.252,612.879H683.7a6.919,6.919,0,0,1-6.919-6.919V572.005a23.605,23.605,0,0,1,23.606-23.6h33.955a11.114,11.114,0,0,1,11.114,11.114h0a19.076,19.076,0,0,0,19.076,19.076H824.25a19.077,19.077,0,0,0,19.076-19.076v-71A19.077,19.077,0,0,0,824.25,469.44H583.475a7.217,7.217,0,0,0-7.217,7.217V675.3a19.077,19.077,0,0,0,19.076,19.077H860.252a18.093,18.093,0,0,0,18.092-18.093v-45.31A18.093,18.093,0,0,0,860.252,612.879Z" fill="#ab8f9a"/>
          <g id="Grupo_53745" data-name="Grupo 53745" clip-path="url(#clip-path)">
            <path id="Trazado_100478" data-name="Trazado 100478" d="M880.533,634.243H661.919a12.038,12.038,0,0,1-12.039-12.038V560.438A12.038,12.038,0,0,1,661.919,548.4h47.444A12.038,12.038,0,0,1,721.4,560.438v21.557a12.038,12.038,0,0,0,9.031,11.656l62.539,16.134a12.01,12.01,0,0,0,3.007.382h84.555a12.037,12.037,0,0,1,12.011,11.23h0A12.037,12.037,0,0,1,880.533,634.243Z" fill="#8c757e"/>
          </g>
        </g>
        <path id="Rectángulo_5087" data-name="Rectángulo 5087" d="M0,0H106.827a0,0,0,0,1,0,0V9.109A23.736,23.736,0,0,1,83.092,32.845H23.735A23.735,23.735,0,0,1,0,9.109V0A0,0,0,0,1,0,0Z" transform="translate(657.705 469.44)" fill="#8c757e"/>
        <rect id="Rectángulo_5088" data-name="Rectángulo 5088" width="12.885" height="7.327" rx="2.45" transform="translate(770.934 548.4)" fill="#8c757e"/>
        <rect id="Rectángulo_5089" data-name="Rectángulo 5089" width="12.885" height="7.327" rx="2.45" transform="translate(753.958 548.4)" fill="#8c757e"/>
        <g id="Grupo_53747" data-name="Grupo 53747">
          <path id="Trazado_100480" data-name="Trazado 100480" d="M624.157,469.44h1.949V696.166h-1.949" fill="#8c757e"/>
        </g>
        <g id="Grupo_53748" data-name="Grupo 53748">
          <path id="Trazado_100481" data-name="Trazado 100481" d="M618.639,469.44h1.949V696.166h-1.949" fill="#8c757e"/>
        </g>
        <g id="Grupo_53749" data-name="Grupo 53749">
          <circle id="Elipse_3986" data-name="Elipse 3986" cx="23.116" cy="23.116" r="23.116" transform="matrix(0.913, -0.407, 0.407, 0.913, 591.897, 646.66)" fill="#8c757e"/>
          <path id="Trazado_100482" data-name="Trazado 100482" d="M610.115,658.372a12.3,12.3,0,1,0,12.3-12.3A12.3,12.3,0,0,0,610.115,658.372Z" fill="#726269"/>
          <rect id="Rectángulo_5090" data-name="Rectángulo 5090" width="48.469" height="48.469" rx="24.235" transform="translate(598.184 488.911)" fill="#8c757e"/>
        </g>
        <g id="Grupo_53752" data-name="Grupo 53752">
          <g id="Grupo_53751" data-name="Grupo 53751">
            <g id="Grupo_53750" data-name="Grupo 53750">
              <path id="Trazado_100483" data-name="Trazado 100483" d="M609.219,469.44h27.438l-6.986-8.332H616.2Z" fill="#8c757e"/>
              <path id="Trazado_100484" data-name="Trazado 100484" d="M636.657,426.432H609.219l6.986,8.332h13.466Z" fill="#8c757e"/>
            </g>
            <rect id="Rectángulo_5091" data-name="Rectángulo 5091" width="29.143" height="15.813" transform="translate(615.031 462.508) rotate(-90)" fill="#2e3992"/>
            <rect id="Rectángulo_5092" data-name="Rectángulo 5092" width="30.684" height="19.274" rx="1.787" transform="translate(613.301 463.278) rotate(-90)" fill="#c46588"/>
          </g>
          <path id="Trazado_100485" data-name="Trazado 100485" d="M613.3,432.595l19.274,5.245-19.274,5,19.274,4.035-19.274,7.64,19.274,3.9L613.3,463.278" fill="none" stroke="#af4f76" stroke-linecap="round" stroke-linejoin="round" stroke-width="0.749"/>
        </g>
        <path id="Trazado_100486" data-name="Trazado 100486" d="M632.575,462.613,613.3,460.007l19.274-7L613.3,449.621l19.274-7.666L613.3,435.338l19.274-2.744" fill="none" stroke="#af4f76" stroke-linecap="round" stroke-linejoin="round" stroke-width="0.749"/>
      </g>
      <g id="Grupo_53754" data-name="Grupo 53754">
        <rect id="Rectángulo_5093" data-name="Rectángulo 5093" width="155.935" height="52.714" transform="translate(647.106 646.068)" fill="#8c757e"/>
        <rect id="Rectángulo_5094" data-name="Rectángulo 5094" width="13.617" height="52.714" transform="translate(647.106 646.068)" fill="#ab8f9a"/>
        <rect id="Rectángulo_5095" data-name="Rectángulo 5095" width="13.617" height="52.714" transform="translate(670.844 646.068)" fill="#ab8f9a"/>
        <rect id="Rectángulo_5096" data-name="Rectángulo 5096" width="13.617" height="52.714" transform="translate(694.582 646.068)" fill="#ab8f9a"/>
        <rect id="Rectángulo_5097" data-name="Rectángulo 5097" width="13.617" height="52.714" transform="translate(718.32 646.068)" fill="#ab8f9a"/>
        <rect id="Rectángulo_5098" data-name="Rectángulo 5098" width="13.617" height="52.714" transform="translate(742.058 646.068)" fill="#ab8f9a"/>
        <rect id="Rectángulo_5099" data-name="Rectángulo 5099" width="13.617" height="52.714" transform="translate(765.796 646.068)" fill="#ab8f9a"/>
        <rect id="Rectángulo_5100" data-name="Rectángulo 5100" width="13.617" height="52.714" transform="translate(789.534 646.068)" fill="#ab8f9a"/>
      </g>
      <path id="Trazado_100487" data-name="Trazado 100487" d="M747.968,460.2a27.729,27.729,0,0,0,5.319.736c.817-.007,5.417-.7,5.092-1.884-.154-.562-4.048-.176-4.048-.176a67.653,67.653,0,0,1,5.182-4.568c2.768-2.172,1.747-2.142-1.115-2.549s-7.766,1.619-11.621,5.161" fill="#ffa178"/>
      <path id="Trazado_100488" data-name="Trazado 100488" d="M750.023,550s-.579,112.182,46.32,120.338c-14.42-40.558-15.011-115.228-15.011-115.228Z" fill="#ea8686"/>
      <g id="Grupo_53760" data-name="Grupo 53760">
        <path id="Trazado_100489" data-name="Trazado 100489" d="M774.3,443.715H761.751s.784,10.715-18.555,18.556v14.113s9.28,17.249,9.28,35.543a15.206,15.206,0,0,0,4.331,2.841,26.774,26.774,0,0,0,22.434,0,15.207,15.207,0,0,0,4.331-2.841c0-18.294,9.28-35.543,9.28-35.543V462.271C773.512,454.43,774.3,443.715,774.3,443.715Z" fill="#fff"/>
        <path id="Trazado_100490" data-name="Trazado 100490" d="M768,619.444c-12.381,0-19.482,1.8-19.482,4.934h1.058c0-1.439,3.88-3.876,18.424-3.876s18.424,2.437,18.424,3.876h1.058C787.486,621.243,780.385,619.444,768,619.444Z" fill="#fff"/>
        <path id="Trazado_100491" data-name="Trazado 100491" d="M781.421,505.9h-26.8s-18.487,16.48-14.3,65.091h0a81.022,81.022,0,0,0,55.406,0h0C799.908,522.381,781.421,505.9,781.421,505.9Z" fill="#fff"/>
        <rect id="Rectángulo_5101" data-name="Rectángulo 5101" width="2.352" height="141.24" transform="translate(766.848 554.005)" fill="#002043"/>
        <path id="Trazado_100492" data-name="Trazado 100492" d="M781.59,692.1c-5.782-9.724-13.566-10.677-13.566-10.677s-7.784.953-13.566,10.677-12.01,10.676-12.01,10.676v1.335s9.478.08,13.736-6.686a22.622,22.622,0,0,1,4.186-4.967c4.386-3.853,7.654-3.981,7.654-3.981s3.268.128,7.654,3.981a22.624,22.624,0,0,1,4.186,4.967c4.257,6.766,13.736,6.686,13.736,6.686v-1.335S787.372,701.822,781.59,692.1Z" fill="#002043"/>
        <path id="Trazado_100493" data-name="Trazado 100493" d="M763.973,666.285a4.051,4.051,0,1,0,4.051-4.051A4.051,4.051,0,0,0,763.973,666.285Z" fill="#002043"/>
        <path id="Trazado_100494" data-name="Trazado 100494" d="M763.973,696.008a4.051,4.051,0,1,0,4.051-4.051A4.051,4.051,0,0,0,763.973,696.008Z" fill="#002043"/>
        <circle id="Elipse_3987" data-name="Elipse 3987" cx="6.011" cy="6.011" r="6.011" transform="translate(762.013 670.336)" fill="#002043"/>
        <g id="Grupo_53755" data-name="Grupo 53755">
          <rect id="Rectángulo_5102" data-name="Rectángulo 5102" width="1.064" height="55.1" transform="translate(740.881 570.137) rotate(-8.018)" fill="#fff"/>
        </g>
        <g id="Grupo_53756" data-name="Grupo 53756">
          <rect id="Rectángulo_5103" data-name="Rectángulo 5103" width="1.065" height="59.582" transform="translate(754.185 568.841) rotate(-4.294)" fill="#fff"/>
        </g>
        <g id="Grupo_53757" data-name="Grupo 53757">
          <rect id="Rectángulo_5104" data-name="Rectángulo 5104" width="55.1" height="1.064" transform="matrix(0.139, -0.99, 0.99, 0.139, 786.449, 624.553)" fill="#fff"/>
        </g>
        <g id="Grupo_53758" data-name="Grupo 53758">
          <rect id="Rectángulo_5105" data-name="Rectángulo 5105" width="59.582" height="1.065" transform="translate(776.361 628.177) rotate(-85.746)" fill="#fff"/>
        </g>
        <path id="Trazado_100495" data-name="Trazado 100495" d="M768,629.313c12.382,0,19.483-1.8,19.483-4.935h-1.058c0,1.44-3.881,3.877-18.425,3.877s-18.423-2.437-18.423-3.877h-1.058C748.522,627.514,755.623,629.313,768,629.313Z" fill="#fff"/>
        <path id="Trazado_100496" data-name="Trazado 100496" d="M750.023,508.774s-9.9,14.137-9.9,37.712S775.659,603.82,780.35,633.6s15.993,36.738,15.993,36.738-5.77-32.863-1.7-68.352,4.678-56.7-1.788-73.634C766.152,531.409,750.023,508.774,750.023,508.774Z" fill="#ff9696"/>
        <g id="Grupo_53759" data-name="Grupo 53759">
          <path id="Trazado_100497" data-name="Trazado 100497" d="M784,504.921c-21.392-11.648-26.153-52.295-26.153-52.295L743.2,462.271s-.4,33.963,10.211,54.117a17.436,17.436,0,0,0,19.676,9.007,16.332,16.332,0,0,0,11.427-10.511A12.454,12.454,0,0,0,784,504.921Z" fill="#fca7a7"/>
          <path id="Trazado_100498" data-name="Trazado 100498" d="M756.067,520.789c-2.483-2.5,2.032,2.911,0,0Z" fill="#fca7a7"/>
        </g>
      </g>
      <g id="Grupo_53763" data-name="Grupo 53763">
        <g id="Grupo_53762" data-name="Grupo 53762">
          <g id="Grupo_53761" data-name="Grupo 53761">
            <path id="Trazado_100499" data-name="Trazado 100499" d="M586.38,627h-47.7l12.144,14.485h23.41Z" fill="#ff93a6"/>
            <path id="Trazado_100500" data-name="Trazado 100500" d="M538.681,701.768h47.7l-12.144-14.485H550.826Z" fill="#ff93a6"/>
          </g>
        </g>
        <rect id="Rectángulo_5106" data-name="Rectángulo 5106" width="50.663" height="27.49" transform="translate(576.276 639.053) rotate(90)" fill="#2e3992"/>
        <rect id="Rectángulo_5107" data-name="Rectángulo 5107" width="53.342" height="33.506" rx="3.106" transform="translate(579.284 637.714) rotate(90)" fill="#c46588"/>
        <path id="Trazado_100501" data-name="Trazado 100501" d="M545.778,642.431l33.506,7.667-33.506,7.313,33.506,5.9-33.506,11.168,33.506,5.7-33.506,7.105" fill="none" stroke="#ff93a6" stroke-linecap="round" stroke-linejoin="round" stroke-width="0.736"/>
        <path id="Trazado_100502" data-name="Trazado 100502" d="M579.284,686.311l-33.506-3.81,33.506-10.228-33.506-4.954,33.506-11.206-33.506-9.673,33.506-4.011" fill="none" stroke="#ff93a6" stroke-linecap="round" stroke-linejoin="round" stroke-width="0.736"/>
      </g>
      <rect id="Rectángulo_5108" data-name="Rectángulo 5108" width="83.553" height="50.664" transform="translate(657.622 596.841)" fill="#726269"/>
      <line id="Línea_146" data-name="Línea 146" x2="83.259" transform="translate(657.622 608.819)" fill="none" stroke="#8c757e" stroke-miterlimit="10" stroke-width="2"/>
      <line id="Línea_147" data-name="Línea 147" y1="38.685" transform="translate(700.319 608.819)" fill="none" stroke="#8c757e" stroke-miterlimit="10" stroke-width="2"/>
      <rect id="Rectángulo_5109" data-name="Rectángulo 5109" width="69.425" height="45.797" transform="translate(636.318 636.643)" fill="#8c757e"/>
      <line id="Línea_148" data-name="Línea 148" x2="69.425" transform="translate(636.318 642.76)" fill="none" stroke="#726269" stroke-miterlimit="10" stroke-width="2"/>
      <line id="Línea_149" data-name="Línea 149" x2="69.425" transform="translate(636.318 675.281)" fill="none" stroke="#726269" stroke-miterlimit="10" stroke-width="2"/>
      <line id="Línea_150" data-name="Línea 150" x2="69.425" transform="translate(636.318 659.021)" fill="none" stroke="#726269" stroke-miterlimit="10" stroke-width="2"/>
      <g id="Grupo_53764" data-name="Grupo 53764">
        <rect id="Rectángulo_5110" data-name="Rectángulo 5110" width="115.276" height="22.864" transform="translate(608.779 681.328)" fill="#8c757e"/>
        <rect id="Rectángulo_5111" data-name="Rectángulo 5111" width="116.295" height="8.523" transform="translate(608.269 681.328)" fill="#726269"/>
      </g>
      <g id="Grupo_53768" data-name="Grupo 53768">
        <path id="Trazado_100503" data-name="Trazado 100503" d="M708.034,450.606s-6.238.468-6.238,9.837,7.163,14.99,0,29.981a59.608,59.608,0,0,0,18.241,6.535s.475-13.094,2.554-22.228S727.444,463.254,708.034,450.606Z" fill="#162d75"/>
        <path id="Trazado_100504" data-name="Trazado 100504" d="M716.353,587.626c-4.9-10.026-8.781-21.489-5.124-43.9-17.33-33.494-8.822-54.637-8.822-54.637s14.87-12.014,17.18,4.147.463,34.288.463,39.675v53.78a57.078,57.078,0,0,0,4.767,5.908c2.054,2.054,6.922,1.685,6.041,4.244-3.815,0-16.141-.519-16.141-.519S712.656,591.323,716.353,587.626Z" fill="#ffa178"/>
        <path id="Trazado_100505" data-name="Trazado 100505" d="M703.9,453.047l3.922-13.063,7.822,4.813-2.722,10.581Z" fill="#ffa178"/>
        <g id="Grupo_53765" data-name="Grupo 53765">
          <path id="Trazado_100506" data-name="Trazado 100506" d="M727.735,477.155l-19.391-12.267a5.815,5.815,0,0,1-1.6-1.489c-3.357-4.59,2.4-10.6,7.176-7.513a12.368,12.368,0,0,1,2.164,1.819c4.376,4.537,13.8,10.752,13.8,10.752l17.794-12.081,2.348,1.4S738.03,474.838,727.735,477.155Z" fill="#ffa178"/>
          <path id="Trazado_100507" data-name="Trazado 100507" d="M715.647,456.288l12.236,9.09-6.118,8.4-8.84-8.747Z" fill="#689999"/>
        </g>
        <path id="Trazado_100508" data-name="Trazado 100508" d="M717.723,473.635l7.75-10.352,4.927,4.325-7.421,10.139Z" fill="#74a7aa"/>
        <path id="Trazado_100509" data-name="Trazado 100509" d="M715.793,500.1l-14-9.68a37.69,37.69,0,0,0-3.032,7.124,40.235,40.235,0,0,0-.5,22.632c1.317,5.079,2.827,9.845,3.6,24.158-8.9,12.385-12.475,30.139-13.616,37.314-4.527,1.554-5.241,6.472-5.241,6.472l13.9,8.2c2.059-1.757-1.8-3.666-2.531-6.479-.619-2.4-1.55-6.007-1.813-7.025,5.513-9.089,18.915-31.547,19.354-35.8C712.471,541.66,715.793,500.1,715.793,500.1Z" fill="#ffb38f"/>
        <g id="Grupo_53767" data-name="Grupo 53767">
          <path id="Trazado_100510" data-name="Trazado 100510" d="M717.342,457.68s-6.7,6.708-15.546,5.3c2.107,20.734-11.127,39.81-10.1,56.79.75,12.368,1.029,12.348,1.029,12.348a54.731,54.731,0,0,0,31.328,1.352C719.36,484.793,733.595,464.692,717.342,457.68Z" fill="#ffbbcf"/>
          <g id="Grupo_53766" data-name="Grupo 53766" clip-path="url(#clip-path-2)">
            <path id="Trazado_100511" data-name="Trazado 100511" d="M689.46,524a51.531,51.531,0,0,0,36.449,1.045" fill="none" stroke="#ff93a6" stroke-miterlimit="10" stroke-width="0.736"/>
            <path id="Trazado_100512" data-name="Trazado 100512" d="M689.46,527.153a51.534,51.534,0,0,0,36.449,1.046" fill="none" stroke="#ff93a6" stroke-miterlimit="10" stroke-width="0.736"/>
          </g>
        </g>
        <path id="Trazado_100514" data-name="Trazado 100514" d="M723.7,480.34l-16.271-16.178a5.8,5.8,0,0,1-1.239-1.8c-2.282-5.208,4.645-9.83,8.634-5.779a12.4,12.4,0,0,1,1.719,2.245c3.288,5.378,11.136,13.487,11.136,13.487a200.608,200.608,0,0,1,21.412,13.664l-2.171,4.446S731.033,485.238,723.7,480.34Z" fill="#ffb38f"/>
        <path id="Trazado_100515" data-name="Trazado 100515" d="M715.793,454.573v-2.058c-3.944-3.945-12.9-4.974-12.9-4.974l-1.1,3.065c-8.611,8.61.975,24.424-6.7,32.094a27.05,27.05,0,0,0-7.985,16.637s9.6,8.232,21.439,5.544a106.414,106.414,0,0,0,7.238-29.9l4.767,4.469,7.323-8.929Z" fill="#86bec4"/>
        <path id="Trazado_100516" data-name="Trazado 100516" d="M710.986,575.782l9.686-1.168v6.261a15.037,15.037,0,0,0,5.3,11.573,8.619,8.619,0,0,0,.714.542c1.93,1.278,4.98,1.417,4.98,3.851H714.009a13.218,13.218,0,0,1-.464-4.727,33.882,33.882,0,0,0-.937-9.444C711.751,579.012,710.986,575.782,710.986,575.782Z" fill="#002043"/>
        <path id="Trazado_100517" data-name="Trazado 100517" d="M690.489,568.15l8.91,3.975-3.217,5.371a15.039,15.039,0,0,0-1.4,12.65,8.324,8.324,0,0,0,.334.832c1,2.088,3.545,3.774,2.294,5.863l-15.146-9.071a13.227,13.227,0,0,1,2.031-4.294,33.828,33.828,0,0,0,4.048-8.583C689.485,571.315,690.489,568.15,690.489,568.15Z" fill="#002043"/>
        <path id="Trazado_100518" data-name="Trazado 100518" d="M703.887,435.185a10.26,10.26,0,0,1,1.482-6.024,7.871,7.871,0,0,1,7.018-3.767c7.475,0,7.775,5.445,8.054,10.4,1.464,2.718.457,6.243-1.537,9.628a2.711,2.711,0,0,1-2.753,1.291C712.447,446.142,706.266,445.178,703.887,435.185Z" fill="#ffb38f"/>
        <path id="Trazado_100519" data-name="Trazado 100519" d="M706.78,443.682s-10.023-2.737-6.157-15.638c-3.586,0-2.981-4.1-1.3-4.658-1.33-4.331,4.753-9.22,9.594-4.378a3.5,3.5,0,0,1,3.959,3.54s9.043-1.416,9.618,7.357c-5.665,2.3-13.2-.959-13.2-.959S711.541,438.315,706.78,443.682Z" fill="#002043"/>
        <path id="Trazado_100520" data-name="Trazado 100520" d="M710.062,440.256a5.22,5.22,0,0,0-1.892-4.047c-1.006-.86-2.274-1.513-3.1-.369-1.551,2.146,1.638,6.633,3.743,6.366C709.758,442.085,710.039,441.2,710.062,440.256Z" fill="#ffb38f"/>
        <path id="Trazado_100521" data-name="Trazado 100521" d="M714.789,436.2a.6.6,0,1,1-1.157,0c0-.426.259-.771.578-.771S714.789,435.773,714.789,436.2Z" fill="#221f20"/>
        <path id="Trazado_100522" data-name="Trazado 100522" d="M719.368,436.2a.6.6,0,1,1-1.157,0c0-.426.259-.771.579-.771S719.368,435.773,719.368,436.2Z" fill="#221f20"/>
        <path id="Trazado_100523" data-name="Trazado 100523" d="M713.058,434.439h0a.529.529,0,0,0,.793.226,2.731,2.731,0,0,1,.7-.38.548.548,0,0,0,.39-.513v-.119a.533.533,0,0,0-.644-.524,2,2,0,0,0-1.168.759A.547.547,0,0,0,713.058,434.439Z" fill="#002043"/>
        <path id="Trazado_100524" data-name="Trazado 100524" d="M719.8,434.513h0a.529.529,0,0,1-.793.226,2.7,2.7,0,0,0-.7-.38.548.548,0,0,1-.39-.513v-.12a.532.532,0,0,1,.644-.523,2,2,0,0,1,1.168.759A.547.547,0,0,1,719.8,434.513Z" fill="#002043"/>
        <path id="Trazado_100525" data-name="Trazado 100525" d="M716.825,435.691a12.922,12.922,0,0,0,1.346,3.031c.963,1.589-.605,1.226-.605,1.226" fill="none" stroke="#221f20" stroke-linecap="round" stroke-linejoin="round" stroke-width="0.348"/>
        <path id="Trazado_100526" data-name="Trazado 100526" d="M713.879,440.573s1.065.087,2.147.087a3.091,3.091,0,0,1,1.725.431.79.79,0,0,1,1.22,0C718.635,443.3,716.43,443.5,713.879,440.573Z" fill="#ff4f52"/>
        <path id="Trazado_100527" data-name="Trazado 100527" d="M716.972,476.481l8.406-9.827,4.636,4.636-8.064,9.636Z" fill="#74a7aa"/>
        <path id="Trazado_100528" data-name="Trazado 100528" d="M701.8,446.751l-.6,4.506s9.788-.26,15.778,4.871a15.68,15.68,0,0,1,.418-4.416S713.1,446.751,701.8,446.751Z" fill="#74a7aa"/>
        <path id="Trazado_100529" data-name="Trazado 100529" d="M708.45,483.863c-3.663,5.347-7.256,6.561-7.256,6.561l1.022,1.87a15.337,15.337,0,0,0,7.8-6.864Z" fill="#689999"/>
        <path id="Trazado_100530" data-name="Trazado 100530" d="M716.216,475.335l-6.953-6.322,5.99,10.708Z" fill="#689999"/>
        <path id="Trazado_100531" data-name="Trazado 100531" d="M713.979,440.573s3.409,1.513,4.9.611" fill="none" stroke="#221f20" stroke-linecap="round" stroke-linejoin="round" stroke-width="0.348"/>
        <path id="Trazado_100532" data-name="Trazado 100532" d="M705.994,436.97s1.353-.493,1.943,2.18a1.115,1.115,0,0,0,0,1.423" fill="none" stroke="#221f20" stroke-linecap="round" stroke-linejoin="round" stroke-width="0.348"/>
      </g>
      <path id="Trazado_100533" data-name="Trazado 100533" d="M759.692,489.193a70.979,70.979,0,0,1-6.507-3.185s4.045-.687,4.045-1.3c0-1.291-4.844-.714-5.672-.5a29.165,29.165,0,0,0-5.176,2.218l-.3,3.648c4.881,2.514,10.4,3.2,13.184,2S763.093,490.623,759.692,489.193Z" fill="#ffb38f"/>
      <g id="Grupo_53769" data-name="Grupo 53769">
        <path id="Trazado_100534" data-name="Trazado 100534" d="M587.7,668.622h0a11.711,11.711,0,0,0-11.711,11.711v22.111h23.422V680.333A11.711,11.711,0,0,0,587.7,668.622Z" fill="#c4cffd"/>
        <path id="Trazado_100535" data-name="Trazado 100535" d="M575.641,704.192h24.121a1.748,1.748,0,0,0,1.748-1.748h0a1.748,1.748,0,0,0-1.748-1.748H575.641a1.748,1.748,0,0,0-1.747,1.748h0A1.748,1.748,0,0,0,575.641,704.192Z" fill="#e2e6ff"/>
        <line id="Línea_151" data-name="Línea 151" y2="29.802" transform="translate(587.702 669.963)" fill="none" stroke="#e2e6ff" stroke-miterlimit="10" stroke-width="0.866" stroke-dasharray="0.866 2.598"/>
        <path id="Trazado_100536" data-name="Trazado 100536" d="M578.189,699.765V679.759a9.658,9.658,0,0,1,9.513-9.8h0a9.657,9.657,0,0,1,9.512,9.8v20.006" fill="none" stroke="#e2e6ff" stroke-miterlimit="10" stroke-width="0.866" stroke-dasharray="0.866 2.598"/>
        <path id="Trazado_100537" data-name="Trazado 100537" d="M582.816,699.765V675.107a5.071,5.071,0,0,1,4.994-5.144h0a5.071,5.071,0,0,1,4.995,5.144v24.658" fill="none" stroke="#e2e6ff" stroke-miterlimit="10" stroke-width="0.866" stroke-dasharray="0.866 2.598"/>
      </g>
      <g id="Grupo_53772" data-name="Grupo 53772">
        <g id="Grupo_53771" data-name="Grupo 53771">
          <g id="Grupo_53770" data-name="Grupo 53770">
            <path id="Trazado_100538" data-name="Trazado 100538" d="M940.584,704.229h28.55l-7.269-8.67H947.853Z" fill="#8c757e"/>
            <path id="Trazado_100539" data-name="Trazado 100539" d="M969.134,659.477h-28.55l7.269,8.67h14.012Z" fill="#8c757e"/>
          </g>
          <rect id="Rectángulo_5112" data-name="Rectángulo 5112" width="30.324" height="16.454" transform="translate(946.632 697.015) rotate(-90)" fill="#2e3992"/>
          <rect id="Rectángulo_5113" data-name="Rectángulo 5113" width="31.928" height="20.055" rx="1.787" transform="translate(944.831 697.817) rotate(-90)" fill="#c46588"/>
        </g>
        <path id="Trazado_100540" data-name="Trazado 100540" d="M944.831,665.889l20.055,5.458-20.055,5.206,20.055,4.2-20.055,7.95,20.055,4.057-20.055,5.058" fill="none" stroke="#af4f76" stroke-linecap="round" stroke-linejoin="round" stroke-width="0.749"/>
        <path id="Trazado_100541" data-name="Trazado 100541" d="M964.887,665.889l-20.055,5.458,20.055,5.206-20.055,4.2,20.055,7.95-20.055,4.057,20.055,5.058" fill="none" stroke="#af4f76" stroke-linecap="round" stroke-linejoin="round" stroke-width="0.749"/>
      </g>
    </g>
  </g>
</svg>
