<svg xmlns="http://www.w3.org/2000/svg" xmlns:xlink="http://www.w3.org/1999/xlink" width="1320" height="506.835" viewBox="0 0 1320 506.835">
  <defs>
    <linearGradient id="linear-gradient" x1="1" y1="0.5" x2="0.214" y2="0.5" gradientUnits="objectBoundingBox">
      <stop offset="0" stop-color="#92c1cf"/>
      <stop offset="1" stop-color="#68a3b3"/>
    </linearGradient>
    <clipPath id="clip-path">
      <path id="Rectangle_652" data-name="Rectangle 652" d="M1299.213,0H20.787C9.307,0,0,8.4,0,18.772V488.063c0,10.367,9.307,18.772,20.787,18.772H1299.213c11.48,0,20.787-8.4,20.787-18.772V18.772C1320,8.4,1310.693,0,1299.213,0Z" fill="url(#linear-gradient)" style="mix-blend-mode: multiply;isolation: isolate"/>
    </clipPath>
  </defs>
  <g id="Enmascarar_grupo_19" data-name="Enmascarar grupo 19" clip-path="url(#clip-path)">
    <g id="Grupo_53731" data-name="Grupo 53731" transform="translate(-3.084 -33.783)">
      <g id="Grupo_53717" data-name="Grupo 53717" transform="translate(0 0)" opacity="0.32">
        <g id="Grupo_53710" data-name="Grupo 53710" transform="translate(0.001 92.353)">
          <g id="Grupo_53690" data-name="Grupo 53690" transform="translate(0.55)">
            <path id="Trazado_100113" data-name="Trazado 100113" d="M361.386,605.346a3.044,3.044,0,0,1,0-4.418,3.321,3.321,0,0,1,4.577,0,3.044,3.044,0,0,1,0,4.418A3.315,3.315,0,0,1,361.386,605.346Z" transform="translate(-360.437 -600.013)" fill="#ede3b7"/>
            <path id="Trazado_100114" data-name="Trazado 100114" d="M357.242,609.491a3.052,3.052,0,0,1,0-4.421,3.321,3.321,0,0,1,4.577,0,3.05,3.05,0,0,1,0,4.421A3.325,3.325,0,0,1,357.242,609.491Z" transform="translate(-343.745 -592.044)" fill="#ede3b7"/>
            <path id="Trazado_100115" data-name="Trazado 100115" d="M353.1,613.632a3.049,3.049,0,0,1,0-4.418,3.319,3.319,0,0,1,4.58,0,3.049,3.049,0,0,1,0,4.418A3.325,3.325,0,0,1,353.1,613.632Z" transform="translate(-327.056 -584.075)" fill="#ede3b7"/>
            <path id="Trazado_100116" data-name="Trazado 100116" d="M348.959,617.773a3.044,3.044,0,0,1,0-4.418,3.321,3.321,0,0,1,4.577,0,3.044,3.044,0,0,1,0,4.418A3.315,3.315,0,0,1,348.959,617.773Z" transform="translate(-310.365 -576.104)" fill="#ede3b7"/>
            <path id="Trazado_100117" data-name="Trazado 100117" d="M344.815,621.918a3.052,3.052,0,0,1,0-4.421,3.325,3.325,0,0,1,4.58,0,3.052,3.052,0,0,1,0,4.421A3.325,3.325,0,0,1,344.815,621.918Z" transform="translate(-293.673 -568.135)" fill="#ede3b7"/>
            <path id="Trazado_100118" data-name="Trazado 100118" d="M340.675,626.059a3.044,3.044,0,0,1,0-4.418,3.315,3.315,0,0,1,4.577,0,3.049,3.049,0,0,1,0,4.418A3.316,3.316,0,0,1,340.675,626.059Z" transform="translate(-276.983 -560.165)" fill="#ede3b7"/>
            <path id="Trazado_100119" data-name="Trazado 100119" d="M336.53,630.2a3.053,3.053,0,0,1,0-4.421,3.321,3.321,0,0,1,4.577,0,3.048,3.048,0,0,1,0,4.421A3.321,3.321,0,0,1,336.53,630.2Z" transform="translate(-260.291 -552.195)" fill="#ede3b7"/>
            <path id="Trazado_100120" data-name="Trazado 100120" d="M332.388,634.345a3.053,3.053,0,0,1,0-4.421,3.325,3.325,0,0,1,4.58,0,3.053,3.053,0,0,1,0,4.421A3.325,3.325,0,0,1,332.388,634.345Z" transform="translate(-243.601 -544.225)" fill="#ede3b7"/>
            <path id="Trazado_100121" data-name="Trazado 100121" d="M328.248,638.487a3.044,3.044,0,0,1,0-4.418,3.315,3.315,0,0,1,4.577,0,3.047,3.047,0,0,1,0,4.418A3.316,3.316,0,0,1,328.248,638.487Z" transform="translate(-226.911 -536.256)" fill="#ede3b7"/>
            <path id="Trazado_100122" data-name="Trazado 100122" d="M324.1,642.63a3.053,3.053,0,0,1,0-4.421,3.321,3.321,0,0,1,4.577,0,3.05,3.05,0,0,1,0,4.421A3.325,3.325,0,0,1,324.1,642.63Z" transform="translate(-210.219 -528.285)" fill="#ede3b7"/>
            <path id="Trazado_100123" data-name="Trazado 100123" d="M319.961,646.771a3.049,3.049,0,0,1,0-4.418,3.319,3.319,0,0,1,4.58,0,3.049,3.049,0,0,1,0,4.418A3.325,3.325,0,0,1,319.961,646.771Z" transform="translate(-193.529 -520.316)" fill="#ede3b7"/>
            <path id="Trazado_100124" data-name="Trazado 100124" d="M315.82,650.912a3.044,3.044,0,0,1,0-4.418,3.321,3.321,0,0,1,4.577,0,3.044,3.044,0,0,1,0,4.418A3.316,3.316,0,0,1,315.82,650.912Z" transform="translate(-176.839 -512.345)" fill="#ede3b7"/>
            <path id="Trazado_100125" data-name="Trazado 100125" d="M311.676,655.057a3.053,3.053,0,0,1,0-4.421,3.325,3.325,0,0,1,4.58,0,3.053,3.053,0,0,1,0,4.421A3.325,3.325,0,0,1,311.676,655.057Z" transform="translate(-160.147 -504.376)" fill="#ede3b7"/>
            <path id="Trazado_100126" data-name="Trazado 100126" d="M307.536,659.2a3.044,3.044,0,0,1,0-4.418,3.315,3.315,0,0,1,4.577,0,3.049,3.049,0,0,1,0,4.418A3.315,3.315,0,0,1,307.536,659.2Z" transform="translate(-143.457 -496.407)" fill="#ede3b7"/>
            <path id="Trazado_100127" data-name="Trazado 100127" d="M303.391,663.342a3.053,3.053,0,0,1,0-4.421,3.321,3.321,0,0,1,4.577,0,3.048,3.048,0,0,1,0,4.421A3.321,3.321,0,0,1,303.391,663.342Z" transform="translate(-126.764 -488.436)" fill="#ede3b7"/>
            <path id="Trazado_100128" data-name="Trazado 100128" d="M299.249,667.484a3.053,3.053,0,0,1,0-4.421,3.325,3.325,0,0,1,4.58,0,3.053,3.053,0,0,1,0,4.421A3.325,3.325,0,0,1,299.249,667.484Z" transform="translate(-110.075 -480.467)" fill="#ede3b7"/>
            <path id="Trazado_100129" data-name="Trazado 100129" d="M295.109,671.625a3.044,3.044,0,0,1,0-4.418,3.315,3.315,0,0,1,4.577,0,3.049,3.049,0,0,1,0,4.418A3.315,3.315,0,0,1,295.109,671.625Z" transform="translate(-93.385 -472.497)" fill="#ede3b7"/>
            <path id="Trazado_100130" data-name="Trazado 100130" d="M290.964,675.769a3.053,3.053,0,0,1,0-4.421,3.321,3.321,0,0,1,4.577,0,3.05,3.05,0,0,1,0,4.421A3.325,3.325,0,0,1,290.964,675.769Z" transform="translate(-76.693 -464.527)" fill="#ede3b7"/>
            <path id="Trazado_100131" data-name="Trazado 100131" d="M286.822,679.91a3.049,3.049,0,0,1,0-4.418,3.319,3.319,0,0,1,4.58,0,3.049,3.049,0,0,1,0,4.418A3.325,3.325,0,0,1,286.822,679.91Z" transform="translate(-60.003 -456.557)" fill="#ede3b7"/>
            <path id="Trazado_100132" data-name="Trazado 100132" d="M282.681,684.051a3.044,3.044,0,0,1,0-4.418,3.321,3.321,0,0,1,4.577,0,3.044,3.044,0,0,1,0,4.418A3.315,3.315,0,0,1,282.681,684.051Z" transform="translate(-43.312 -448.587)" fill="#ede3b7"/>
            <path id="Trazado_100133" data-name="Trazado 100133" d="M278.537,688.2a3.053,3.053,0,0,1,0-4.421,3.325,3.325,0,0,1,4.58,0,3.053,3.053,0,0,1,0,4.421A3.325,3.325,0,0,1,278.537,688.2Z" transform="translate(-26.621 -440.617)" fill="#ede3b7"/>
          </g>
          <g id="Grupo_53691" data-name="Grupo 53691" transform="translate(0 14.716)">
            <path id="Trazado_100134" data-name="Trazado 100134" d="M361.325,605.233a3.313,3.313,0,0,1,3.384.722,3.044,3.044,0,0,1,0,4.418,3.307,3.307,0,0,1-3.384.722Z" transform="translate(-361.325 -605.046)" fill="#ede3b7"/>
            <path id="Trazado_100135" data-name="Trazado 100135" d="M358.131,614.522a3.052,3.052,0,0,1,0-4.421,3.325,3.325,0,0,1,4.58,0,3.052,3.052,0,0,1,0,4.421A3.325,3.325,0,0,1,358.131,614.522Z" transform="translate(-346.777 -597.081)" fill="#ede3b7"/>
            <ellipse id="Elipse_3973" data-name="Elipse 3973" cx="3.238" cy="3.125" rx="3.238" ry="3.125" transform="translate(22.955 24.218)" fill="#ede3b7"/>
            <path id="Trazado_100136" data-name="Trazado 100136" d="M349.846,622.807a3.052,3.052,0,0,1,0-4.421,3.325,3.325,0,0,1,4.58,0,3.053,3.053,0,0,1,0,4.421A3.325,3.325,0,0,1,349.846,622.807Z" transform="translate(-313.394 -581.141)" fill="#ede3b7"/>
            <path id="Trazado_100137" data-name="Trazado 100137" d="M345.7,626.949a3.053,3.053,0,0,1,0-4.421,3.325,3.325,0,0,1,4.58,0,3.053,3.053,0,0,1,0,4.421A3.325,3.325,0,0,1,345.7,626.949Z" transform="translate(-296.705 -573.171)" fill="#ede3b7"/>
            <path id="Trazado_100138" data-name="Trazado 100138" d="M341.563,631.09a3.044,3.044,0,0,1,0-4.418,3.315,3.315,0,0,1,4.577,0,3.044,3.044,0,0,1,0,4.418A3.315,3.315,0,0,1,341.563,631.09Z" transform="translate(-280.014 -565.202)" fill="#ede3b7"/>
            <path id="Trazado_100139" data-name="Trazado 100139" d="M337.419,635.234a3.052,3.052,0,0,1,0-4.421,3.325,3.325,0,0,1,4.58,0,3.053,3.053,0,0,1,0,4.421A3.325,3.325,0,0,1,337.419,635.234Z" transform="translate(-263.323 -557.231)" fill="#ede3b7"/>
            <path id="Trazado_100140" data-name="Trazado 100140" d="M333.279,639.375a3.044,3.044,0,0,1,0-4.418,3.315,3.315,0,0,1,4.577,0,3.049,3.049,0,0,1,0,4.418A3.321,3.321,0,0,1,333.279,639.375Z" transform="translate(-246.632 -549.262)" fill="#ede3b7"/>
            <path id="Trazado_100141" data-name="Trazado 100141" d="M329.134,643.516a3.049,3.049,0,0,1,0-4.418,3.321,3.321,0,0,1,4.577,0,3.044,3.044,0,0,1,0,4.418A3.316,3.316,0,0,1,329.134,643.516Z" transform="translate(-229.94 -541.291)" fill="#ede3b7"/>
            <path id="Trazado_100142" data-name="Trazado 100142" d="M324.992,647.661a3.053,3.053,0,0,1,0-4.421,3.325,3.325,0,0,1,4.58,0,3.053,3.053,0,0,1,0,4.421A3.325,3.325,0,0,1,324.992,647.661Z" transform="translate(-213.251 -533.322)" fill="#ede3b7"/>
            <path id="Trazado_100143" data-name="Trazado 100143" d="M320.851,651.8a3.044,3.044,0,0,1,0-4.418,3.315,3.315,0,0,1,4.577,0,3.044,3.044,0,0,1,0,4.418A3.315,3.315,0,0,1,320.851,651.8Z" transform="translate(-196.56 -525.352)" fill="#ede3b7"/>
            <path id="Trazado_100144" data-name="Trazado 100144" d="M316.707,655.943a3.049,3.049,0,0,1,0-4.418,3.321,3.321,0,0,1,4.577,0,3.048,3.048,0,0,1,0,4.421A3.318,3.318,0,0,1,316.707,655.943Z" transform="translate(-179.868 -517.382)" fill="#ede3b7"/>
            <path id="Trazado_100145" data-name="Trazado 100145" d="M312.565,660.088a3.053,3.053,0,0,1,0-4.421,3.325,3.325,0,0,1,4.58,0,3.053,3.053,0,0,1,0,4.421A3.325,3.325,0,0,1,312.565,660.088Z" transform="translate(-163.179 -509.413)" fill="#ede3b7"/>
            <path id="Trazado_100146" data-name="Trazado 100146" d="M308.424,664.229a3.044,3.044,0,0,1,0-4.418,3.315,3.315,0,0,1,4.577,0,3.044,3.044,0,0,1,0,4.418A3.315,3.315,0,0,1,308.424,664.229Z" transform="translate(-146.488 -501.443)" fill="#ede3b7"/>
            <path id="Trazado_100147" data-name="Trazado 100147" d="M304.28,668.373a3.053,3.053,0,0,1,0-4.421,3.325,3.325,0,0,1,4.58,0,3.053,3.053,0,0,1,0,4.421A3.325,3.325,0,0,1,304.28,668.373Z" transform="translate(-129.796 -493.473)" fill="#ede3b7"/>
            <path id="Trazado_100148" data-name="Trazado 100148" d="M300.14,672.514a3.044,3.044,0,0,1,0-4.418,3.316,3.316,0,0,1,4.577,0,3.049,3.049,0,0,1,0,4.418A3.321,3.321,0,0,1,300.14,672.514Z" transform="translate(-113.106 -485.503)" fill="#ede3b7"/>
            <path id="Trazado_100149" data-name="Trazado 100149" d="M295.995,676.655a3.049,3.049,0,0,1,0-4.418,3.321,3.321,0,0,1,4.577,0,3.044,3.044,0,0,1,0,4.418A3.315,3.315,0,0,1,295.995,676.655Z" transform="translate(-96.414 -477.533)" fill="#ede3b7"/>
            <path id="Trazado_100150" data-name="Trazado 100150" d="M291.853,680.8a3.052,3.052,0,0,1,0-4.421,3.325,3.325,0,0,1,4.58,0,3.052,3.052,0,0,1,0,4.421A3.325,3.325,0,0,1,291.853,680.8Z" transform="translate(-79.724 -469.564)" fill="#ede3b7"/>
            <path id="Trazado_100151" data-name="Trazado 100151" d="M287.713,684.941a3.044,3.044,0,0,1,0-4.418,3.316,3.316,0,0,1,4.577,0,3.049,3.049,0,0,1,0,4.418A3.321,3.321,0,0,1,287.713,684.941Z" transform="translate(-63.034 -461.594)" fill="#ede3b7"/>
            <path id="Trazado_100152" data-name="Trazado 100152" d="M283.568,689.085a3.053,3.053,0,0,1,0-4.421,3.321,3.321,0,0,1,4.577,0,3.048,3.048,0,0,1,0,4.421A3.321,3.321,0,0,1,283.568,689.085Z" transform="translate(-46.342 -453.623)" fill="#ede3b7"/>
          </g>
          <g id="Grupo_53692" data-name="Grupo 53692" transform="translate(0 29.841)">
            <path id="Trazado_100153" data-name="Trazado 100153" d="M362.214,610.219a3.268,3.268,0,0,1,.694.494,3.053,3.053,0,0,1,0,4.421,3.269,3.269,0,0,1-.694.494Z" transform="translate(-362.214 -610.219)" fill="#ede3b7"/>
            <path id="Trazado_100154" data-name="Trazado 100154" d="M359.022,619.553a3.047,3.047,0,0,1,0-4.421,3.321,3.321,0,0,1,4.577,0,3.052,3.052,0,0,1,0,4.421A3.321,3.321,0,0,1,359.022,619.553Z" transform="translate(-350.358 -602.526)" fill="#ede3b7"/>
            <path id="Trazado_100155" data-name="Trazado 100155" d="M354.877,623.694a3.049,3.049,0,0,1,0-4.418,3.316,3.316,0,0,1,4.577,0,3.044,3.044,0,0,1,0,4.418A3.316,3.316,0,0,1,354.877,623.694Z" transform="translate(-333.666 -594.557)" fill="#ede3b7"/>
            <path id="Trazado_100156" data-name="Trazado 100156" d="M350.735,627.838a3.053,3.053,0,0,1,0-4.421,3.325,3.325,0,0,1,4.58,0,3.053,3.053,0,0,1,0,4.421A3.325,3.325,0,0,1,350.735,627.838Z" transform="translate(-316.976 -586.586)" fill="#ede3b7"/>
            <path id="Trazado_100157" data-name="Trazado 100157" d="M346.594,631.979a3.044,3.044,0,0,1,0-4.418,3.315,3.315,0,0,1,4.577,0,3.044,3.044,0,0,1,0,4.418A3.321,3.321,0,0,1,346.594,631.979Z" transform="translate(-300.286 -578.617)" fill="#ede3b7"/>
            <path id="Trazado_100158" data-name="Trazado 100158" d="M342.45,636.12a3.049,3.049,0,0,1,0-4.418,3.325,3.325,0,0,1,4.58,0,3.049,3.049,0,0,1,0,4.418A3.319,3.319,0,0,1,342.45,636.12Z" transform="translate(-283.594 -570.646)" fill="#ede3b7"/>
            <path id="Trazado_100159" data-name="Trazado 100159" d="M338.308,640.265a3.053,3.053,0,0,1,0-4.421,3.325,3.325,0,0,1,4.58,0,3.053,3.053,0,0,1,0,4.421A3.325,3.325,0,0,1,338.308,640.265Z" transform="translate(-266.905 -562.677)" fill="#ede3b7"/>
            <path id="Trazado_100160" data-name="Trazado 100160" d="M334.167,644.406a3.044,3.044,0,0,1,0-4.418,3.315,3.315,0,0,1,4.577,0,3.044,3.044,0,0,1,0,4.418A3.321,3.321,0,0,1,334.167,644.406Z" transform="translate(-250.214 -554.708)" fill="#ede3b7"/>
            <path id="Trazado_100161" data-name="Trazado 100161" d="M330.023,648.55a3.053,3.053,0,0,1,0-4.421,3.325,3.325,0,0,1,4.58,0,3.053,3.053,0,0,1,0,4.421A3.325,3.325,0,0,1,330.023,648.55Z" transform="translate(-233.522 -546.737)" fill="#ede3b7"/>
            <path id="Trazado_100162" data-name="Trazado 100162" d="M325.883,652.692a3.048,3.048,0,0,1,0-4.421,3.321,3.321,0,0,1,4.577,0,3.053,3.053,0,0,1,0,4.421A3.321,3.321,0,0,1,325.883,652.692Z" transform="translate(-216.832 -538.768)" fill="#ede3b7"/>
            <path id="Trazado_100163" data-name="Trazado 100163" d="M321.738,656.833a3.049,3.049,0,0,1,0-4.418,3.315,3.315,0,0,1,4.577,0,3.044,3.044,0,0,1,0,4.418A3.315,3.315,0,0,1,321.738,656.833Z" transform="translate(-200.14 -530.798)" fill="#ede3b7"/>
            <path id="Trazado_100164" data-name="Trazado 100164" d="M317.6,660.977a3.052,3.052,0,0,1,0-4.421,3.325,3.325,0,0,1,4.58,0,3.053,3.053,0,0,1,0,4.421A3.325,3.325,0,0,1,317.6,660.977Z" transform="translate(-183.45 -522.827)" fill="#ede3b7"/>
            <path id="Trazado_100165" data-name="Trazado 100165" d="M313.455,665.118a3.044,3.044,0,0,1,0-4.418,3.315,3.315,0,0,1,4.577,0,3.044,3.044,0,0,1,0,4.418A3.321,3.321,0,0,1,313.455,665.118Z" transform="translate(-166.759 -514.858)" fill="#ede3b7"/>
            <path id="Trazado_100166" data-name="Trazado 100166" d="M309.311,669.259a3.049,3.049,0,0,1,0-4.418,3.325,3.325,0,0,1,4.58,0,3.047,3.047,0,0,1,0,4.418A3.315,3.315,0,0,1,309.311,669.259Z" transform="translate(-150.068 -506.887)" fill="#ede3b7"/>
            <path id="Trazado_100167" data-name="Trazado 100167" d="M305.169,673.4a3.052,3.052,0,0,1,0-4.421,3.325,3.325,0,0,1,4.58,0,3.053,3.053,0,0,1,0,4.421A3.325,3.325,0,0,1,305.169,673.4Z" transform="translate(-133.378 -498.918)" fill="#ede3b7"/>
            <path id="Trazado_100168" data-name="Trazado 100168" d="M301.028,677.545a3.044,3.044,0,0,1,0-4.418,3.316,3.316,0,0,1,4.577,0,3.044,3.044,0,0,1,0,4.418A3.321,3.321,0,0,1,301.028,677.545Z" transform="translate(-116.688 -490.949)" fill="#ede3b7"/>
            <path id="Trazado_100169" data-name="Trazado 100169" d="M296.884,681.686a3.049,3.049,0,0,1,0-4.418,3.325,3.325,0,0,1,4.58,0,3.053,3.053,0,0,1,0,4.421A3.322,3.322,0,0,1,296.884,681.686Z" transform="translate(-99.996 -482.978)" fill="#ede3b7"/>
            <path id="Trazado_100170" data-name="Trazado 100170" d="M292.744,685.831a3.048,3.048,0,0,1,0-4.421,3.321,3.321,0,0,1,4.577,0,3.053,3.053,0,0,1,0,4.421A3.321,3.321,0,0,1,292.744,685.831Z" transform="translate(-83.306 -475.009)" fill="#ede3b7"/>
            <path id="Trazado_100171" data-name="Trazado 100171" d="M288.6,689.972a3.049,3.049,0,0,1,0-4.418,3.316,3.316,0,0,1,4.577,0,3.044,3.044,0,0,1,0,4.418A3.315,3.315,0,0,1,288.6,689.972Z" transform="translate(-66.614 -467.04)" fill="#ede3b7"/>
            <path id="Trazado_100172" data-name="Trazado 100172" d="M284.457,694.116a3.052,3.052,0,0,1,0-4.421,3.325,3.325,0,0,1,4.58,0,3.052,3.052,0,0,1,0,4.421A3.325,3.325,0,0,1,284.457,694.116Z" transform="translate(-49.924 -459.069)" fill="#ede3b7"/>
          </g>
          <g id="Grupo_53693" data-name="Grupo 53693" transform="translate(5.021 56.243)">
            <path id="Trazado_100173" data-name="Trazado 100173" d="M359.91,624.583a3.044,3.044,0,0,1,0-4.418,3.315,3.315,0,0,1,4.577,0,3.044,3.044,0,0,1,0,4.418A3.321,3.321,0,0,1,359.91,624.583Z" transform="translate(-358.96 -619.249)" fill="#ede3b7"/>
            <path id="Trazado_100174" data-name="Trazado 100174" d="M355.766,628.724a3.049,3.049,0,0,1,0-4.418,3.325,3.325,0,0,1,4.58,0,3.049,3.049,0,0,1,0,4.418A3.319,3.319,0,0,1,355.766,628.724Z" transform="translate(-342.269 -611.278)" fill="#ede3b7"/>
            <path id="Trazado_100175" data-name="Trazado 100175" d="M351.626,632.869a3.047,3.047,0,0,1,0-4.421,3.321,3.321,0,0,1,4.577,0,3.052,3.052,0,0,1,0,4.421A3.32,3.32,0,0,1,351.626,632.869Z" transform="translate(-325.579 -603.309)" fill="#ede3b7"/>
            <path id="Trazado_100176" data-name="Trazado 100176" d="M347.481,637.01a3.049,3.049,0,0,1,0-4.418,3.315,3.315,0,0,1,4.577,0,3.044,3.044,0,0,1,0,4.418A3.315,3.315,0,0,1,347.481,637.01Z" transform="translate(-308.886 -595.339)" fill="#ede3b7"/>
            <path id="Trazado_100177" data-name="Trazado 100177" d="M343.339,641.154a3.053,3.053,0,0,1,0-4.421,3.325,3.325,0,0,1,4.58,0,3.053,3.053,0,0,1,0,4.421A3.325,3.325,0,0,1,343.339,641.154Z" transform="translate(-292.197 -587.369)" fill="#ede3b7"/>
            <path id="Trazado_100178" data-name="Trazado 100178" d="M339.2,645.3a3.047,3.047,0,0,1,0-4.421,3.321,3.321,0,0,1,4.577,0,3.047,3.047,0,0,1,0,4.421A3.321,3.321,0,0,1,339.2,645.3Z" transform="translate(-275.506 -579.4)" fill="#ede3b7"/>
            <path id="Trazado_100179" data-name="Trazado 100179" d="M335.054,649.437a3.049,3.049,0,0,1,0-4.418,3.319,3.319,0,0,1,4.58,0,3.049,3.049,0,0,1,0,4.418A3.319,3.319,0,0,1,335.054,649.437Z" transform="translate(-258.814 -571.43)" fill="#ede3b7"/>
            <path id="Trazado_100180" data-name="Trazado 100180" d="M330.912,653.581a3.053,3.053,0,0,1,0-4.421,3.325,3.325,0,0,1,4.58,0,3.053,3.053,0,0,1,0,4.421A3.325,3.325,0,0,1,330.912,653.581Z" transform="translate(-242.125 -563.459)" fill="#ede3b7"/>
            <path id="Trazado_100181" data-name="Trazado 100181" d="M326.771,657.722a3.044,3.044,0,0,1,0-4.418,3.315,3.315,0,0,1,4.577,0,3.044,3.044,0,0,1,0,4.418A3.321,3.321,0,0,1,326.771,657.722Z" transform="translate(-225.434 -555.49)" fill="#ede3b7"/>
            <path id="Trazado_100182" data-name="Trazado 100182" d="M322.627,661.863a3.049,3.049,0,0,1,0-4.418,3.325,3.325,0,0,1,4.58,0,3.049,3.049,0,0,1,0,4.418A3.319,3.319,0,0,1,322.627,661.863Z" transform="translate(-208.743 -547.519)" fill="#ede3b7"/>
            <path id="Trazado_100183" data-name="Trazado 100183" d="M318.487,666.008a3.048,3.048,0,0,1,0-4.421,3.321,3.321,0,0,1,4.577,0,3.053,3.053,0,0,1,0,4.421A3.321,3.321,0,0,1,318.487,666.008Z" transform="translate(-192.052 -539.55)" fill="#ede3b7"/>
            <path id="Trazado_100184" data-name="Trazado 100184" d="M314.342,670.149a3.049,3.049,0,0,1,0-4.418,3.315,3.315,0,0,1,4.577,0,3.044,3.044,0,0,1,0,4.418A3.315,3.315,0,0,1,314.342,670.149Z" transform="translate(-175.36 -531.581)" fill="#ede3b7"/>
            <path id="Trazado_100185" data-name="Trazado 100185" d="M310.2,674.293a3.053,3.053,0,0,1,0-4.421,3.325,3.325,0,0,1,4.58,0,3.049,3.049,0,0,1,0,4.418A3.322,3.322,0,0,1,310.2,674.293Z" transform="translate(-158.671 -523.61)" fill="#ede3b7"/>
            <path id="Trazado_100186" data-name="Trazado 100186" d="M306.059,678.435a3.048,3.048,0,0,1,0-4.421,3.321,3.321,0,0,1,4.577,0,3.048,3.048,0,0,1,0,4.421A3.321,3.321,0,0,1,306.059,678.435Z" transform="translate(-141.98 -515.641)" fill="#ede3b7"/>
            <path id="Trazado_100187" data-name="Trazado 100187" d="M301.915,682.576a3.049,3.049,0,0,1,0-4.418,3.319,3.319,0,0,1,4.58,0,3.049,3.049,0,0,1,0,4.418A3.319,3.319,0,0,1,301.915,682.576Z" transform="translate(-125.288 -507.671)" fill="#ede3b7"/>
            <path id="Trazado_100188" data-name="Trazado 100188" d="M297.773,686.72a3.052,3.052,0,0,1,0-4.421,3.325,3.325,0,0,1,4.58,0,3.052,3.052,0,0,1,0,4.421A3.325,3.325,0,0,1,297.773,686.72Z" transform="translate(-108.599 -499.701)" fill="#ede3b7"/>
            <path id="Trazado_100189" data-name="Trazado 100189" d="M293.632,690.861a3.044,3.044,0,0,1,0-4.418,3.315,3.315,0,0,1,4.577,0,3.044,3.044,0,0,1,0,4.418A3.321,3.321,0,0,1,293.632,690.861Z" transform="translate(-91.908 -491.731)" fill="#ede3b7"/>
            <path id="Trazado_100190" data-name="Trazado 100190" d="M289.488,695a3.049,3.049,0,0,1,0-4.418,3.322,3.322,0,0,1,4.58,0,3.049,3.049,0,0,1,0,4.418A3.319,3.319,0,0,1,289.488,695Z" transform="translate(-75.216 -483.761)" fill="#ede3b7"/>
          </g>
          <g id="Grupo_53694" data-name="Grupo 53694" transform="translate(2.33 70.954)">
            <path id="Trazado_100191" data-name="Trazado 100191" d="M360.8,629.614a3.049,3.049,0,0,1,0-4.418,3.319,3.319,0,0,1,4.58,0,3.049,3.049,0,0,1,0,4.418A3.319,3.319,0,0,1,360.8,629.614Z" transform="translate(-359.849 -624.279)" fill="#ede3b7"/>
            <path id="Trazado_100192" data-name="Trazado 100192" d="M356.655,633.758a3.053,3.053,0,0,1,0-4.421,3.325,3.325,0,0,1,4.58,0,3.053,3.053,0,0,1,0,4.421A3.325,3.325,0,0,1,356.655,633.758Z" transform="translate(-343.16 -616.309)" fill="#ede3b7"/>
            <path id="Trazado_100193" data-name="Trazado 100193" d="M352.514,637.9a3.047,3.047,0,0,1,0-4.421,3.321,3.321,0,0,1,4.577,0,3.047,3.047,0,0,1,0,4.421A3.321,3.321,0,0,1,352.514,637.9Z" transform="translate(-326.469 -608.34)" fill="#ede3b7"/>
            <path id="Trazado_100194" data-name="Trazado 100194" d="M348.37,642.041a3.049,3.049,0,0,1,0-4.418,3.319,3.319,0,0,1,4.58,0,3.049,3.049,0,0,1,0,4.418A3.319,3.319,0,0,1,348.37,642.041Z" transform="translate(-309.777 -600.37)" fill="#ede3b7"/>
            <path id="Trazado_100195" data-name="Trazado 100195" d="M344.23,646.185a3.048,3.048,0,0,1,0-4.421,3.321,3.321,0,0,1,4.577,0,3.053,3.053,0,0,1,0,4.421A3.321,3.321,0,0,1,344.23,646.185Z" transform="translate(-293.087 -592.399)" fill="#ede3b7"/>
            <path id="Trazado_100196" data-name="Trazado 100196" d="M340.085,650.326a3.049,3.049,0,0,1,0-4.418,3.316,3.316,0,0,1,4.577,0,3.044,3.044,0,0,1,0,4.418A3.321,3.321,0,0,1,340.085,650.326Z" transform="translate(-276.395 -584.43)" fill="#ede3b7"/>
            <path id="Trazado_100197" data-name="Trazado 100197" d="M335.943,654.467a3.049,3.049,0,0,1,0-4.418,3.325,3.325,0,0,1,4.58,0,3.049,3.049,0,0,1,0,4.418A3.319,3.319,0,0,1,335.943,654.467Z" transform="translate(-259.706 -576.459)" fill="#ede3b7"/>
            <path id="Trazado_100198" data-name="Trazado 100198" d="M331.8,658.612a3.048,3.048,0,0,1,0-4.421,3.321,3.321,0,0,1,4.577,0,3.048,3.048,0,0,1,0,4.421A3.321,3.321,0,0,1,331.8,658.612Z" transform="translate(-243.015 -568.49)" fill="#ede3b7"/>
            <path id="Trazado_100199" data-name="Trazado 100199" d="M327.658,662.753a3.049,3.049,0,0,1,0-4.418,3.319,3.319,0,0,1,4.58,0,3.049,3.049,0,0,1,0,4.418A3.319,3.319,0,0,1,327.658,662.753Z" transform="translate(-226.323 -560.521)" fill="#ede3b7"/>
            <path id="Trazado_100200" data-name="Trazado 100200" d="M323.516,666.9a3.053,3.053,0,0,1,0-4.421,3.325,3.325,0,0,1,4.58,0,3.052,3.052,0,0,1,0,4.421A3.325,3.325,0,0,1,323.516,666.9Z" transform="translate(-209.634 -552.55)" fill="#ede3b7"/>
            <path id="Trazado_100201" data-name="Trazado 100201" d="M319.375,671.039a3.048,3.048,0,0,1,0-4.421,3.321,3.321,0,0,1,4.577,0,3.048,3.048,0,0,1,0,4.421A3.321,3.321,0,0,1,319.375,671.039Z" transform="translate(-192.943 -544.581)" fill="#ede3b7"/>
            <path id="Trazado_100202" data-name="Trazado 100202" d="M315.231,675.18a3.049,3.049,0,0,1,0-4.418,3.319,3.319,0,0,1,4.58,0,3.049,3.049,0,0,1,0,4.418A3.319,3.319,0,0,1,315.231,675.18Z" transform="translate(-176.251 -536.611)" fill="#ede3b7"/>
            <path id="Trazado_100203" data-name="Trazado 100203" d="M311.091,679.324a3.047,3.047,0,0,1,0-4.421,3.321,3.321,0,0,1,4.577,0,3.052,3.052,0,0,1,0,4.421A3.321,3.321,0,0,1,311.091,679.324Z" transform="translate(-159.561 -528.641)" fill="#ede3b7"/>
            <path id="Trazado_100204" data-name="Trazado 100204" d="M306.946,683.465a3.049,3.049,0,0,1,0-4.418,3.315,3.315,0,0,1,4.577,0,3.044,3.044,0,0,1,0,4.418A3.321,3.321,0,0,1,306.946,683.465Z" transform="translate(-142.869 -520.671)" fill="#ede3b7"/>
            <path id="Trazado_100205" data-name="Trazado 100205" d="M302.8,687.606a3.049,3.049,0,0,1,0-4.418,3.325,3.325,0,0,1,4.58,0,3.049,3.049,0,0,1,0,4.418A3.319,3.319,0,0,1,302.8,687.606Z" transform="translate(-126.179 -512.701)" fill="#ede3b7"/>
            <path id="Trazado_100206" data-name="Trazado 100206" d="M298.664,691.751a3.047,3.047,0,0,1,0-4.421,3.32,3.32,0,0,1,4.577,0,3.05,3.05,0,0,1,0,4.421A3.321,3.321,0,0,1,298.664,691.751Z" transform="translate(-109.489 -504.732)" fill="#ede3b7"/>
            <path id="Trazado_100207" data-name="Trazado 100207" d="M294.519,695.892a3.049,3.049,0,0,1,0-4.418,3.319,3.319,0,0,1,4.58,0,3.049,3.049,0,0,1,0,4.418A3.322,3.322,0,0,1,294.519,695.892Z" transform="translate(-92.797 -496.762)" fill="#ede3b7"/>
            <path id="Trazado_100208" data-name="Trazado 100208" d="M290.377,700.033a3.049,3.049,0,0,1,0-4.418,3.325,3.325,0,0,1,4.58,0,3.049,3.049,0,0,1,0,4.418A3.319,3.319,0,0,1,290.377,700.033Z" transform="translate(-76.108 -488.791)" fill="#ede3b7"/>
          </g>
          <g id="Grupo_53695" data-name="Grupo 53695" transform="translate(0 85.664)">
            <path id="Trazado_100209" data-name="Trazado 100209" d="M360.738,631.034a3.03,3.03,0,0,1,.585-.807,3.319,3.319,0,0,1,4.58,0,3.049,3.049,0,0,1,0,4.418,3.319,3.319,0,0,1-4.58,0,3.032,3.032,0,0,1-.585-.807Z" transform="translate(-360.738 -629.31)" fill="#ede3b7"/>
            <path id="Trazado_100210" data-name="Trazado 100210" d="M357.545,638.789a3.048,3.048,0,0,1,0-4.421,3.321,3.321,0,0,1,4.577,0,3.048,3.048,0,0,1,0,4.421A3.321,3.321,0,0,1,357.545,638.789Z" transform="translate(-344.41 -621.34)" fill="#ede3b7"/>
            <path id="Trazado_100211" data-name="Trazado 100211" d="M353.4,642.93a3.049,3.049,0,0,1,0-4.418,3.319,3.319,0,0,1,4.58,0,3.049,3.049,0,0,1,0,4.418A3.325,3.325,0,0,1,353.4,642.93Z" transform="translate(-327.718 -613.37)" fill="#ede3b7"/>
            <path id="Trazado_100212" data-name="Trazado 100212" d="M349.259,647.071a3.049,3.049,0,0,1,0-4.418,3.324,3.324,0,0,1,4.58,0,3.049,3.049,0,0,1,0,4.418A3.319,3.319,0,0,1,349.259,647.071Z" transform="translate(-311.029 -605.4)" fill="#ede3b7"/>
            <path id="Trazado_100213" data-name="Trazado 100213" d="M345.118,651.216a3.048,3.048,0,0,1,0-4.421,3.321,3.321,0,0,1,4.577,0,3.048,3.048,0,0,1,0,4.421A3.321,3.321,0,0,1,345.118,651.216Z" transform="translate(-294.338 -597.431)" fill="#ede3b7"/>
            <path id="Trazado_100214" data-name="Trazado 100214" d="M340.974,655.357a3.049,3.049,0,0,1,0-4.418,3.319,3.319,0,0,1,4.58,0,3.049,3.049,0,0,1,0,4.418A3.322,3.322,0,0,1,340.974,655.357Z" transform="translate(-277.647 -589.461)" fill="#ede3b7"/>
            <path id="Trazado_100215" data-name="Trazado 100215" d="M336.834,659.5a3.044,3.044,0,0,1,0-4.418,3.321,3.321,0,0,1,4.577,0,3.049,3.049,0,0,1,0,4.418A3.316,3.316,0,0,1,336.834,659.5Z" transform="translate(-260.957 -581.49)" fill="#ede3b7"/>
            <path id="Trazado_100216" data-name="Trazado 100216" d="M332.689,663.643a3.053,3.053,0,0,1,0-4.421,3.321,3.321,0,0,1,4.577,0,3.048,3.048,0,0,1,0,4.421A3.321,3.321,0,0,1,332.689,663.643Z" transform="translate(-244.264 -573.521)" fill="#ede3b7"/>
            <path id="Trazado_100217" data-name="Trazado 100217" d="M328.547,667.784a3.049,3.049,0,0,1,0-4.418,3.319,3.319,0,0,1,4.58,0,3.049,3.049,0,0,1,0,4.418A3.319,3.319,0,0,1,328.547,667.784Z" transform="translate(-227.575 -565.552)" fill="#ede3b7"/>
            <path id="Trazado_100218" data-name="Trazado 100218" d="M324.406,671.928a3.047,3.047,0,0,1,0-4.421,3.321,3.321,0,0,1,4.577,0,3.047,3.047,0,0,1,0,4.421A3.321,3.321,0,0,1,324.406,671.928Z" transform="translate(-210.884 -557.581)" fill="#ede3b7"/>
            <path id="Trazado_100219" data-name="Trazado 100219" d="M320.262,676.07a3.053,3.053,0,0,1,0-4.421,3.322,3.322,0,0,1,4.58,0,3.049,3.049,0,0,1,0,4.418A3.325,3.325,0,0,1,320.262,676.07Z" transform="translate(-194.192 -549.612)" fill="#ede3b7"/>
            <path id="Trazado_100220" data-name="Trazado 100220" d="M316.12,680.21a3.049,3.049,0,0,1,0-4.418,3.325,3.325,0,0,1,4.58,0,3.049,3.049,0,0,1,0,4.418A3.319,3.319,0,0,1,316.12,680.21Z" transform="translate(-177.503 -541.641)" fill="#ede3b7"/>
            <path id="Trazado_100221" data-name="Trazado 100221" d="M311.979,684.355a3.048,3.048,0,0,1,0-4.421,3.321,3.321,0,0,1,4.577,0,3.048,3.048,0,0,1,0,4.421A3.321,3.321,0,0,1,311.979,684.355Z" transform="translate(-160.812 -533.672)" fill="#ede3b7"/>
            <path id="Trazado_100222" data-name="Trazado 100222" d="M307.835,688.5a3.049,3.049,0,0,1,0-4.418,3.319,3.319,0,0,1,4.58,0,3.049,3.049,0,0,1,0,4.418A3.325,3.325,0,0,1,307.835,688.5Z" transform="translate(-144.12 -525.702)" fill="#ede3b7"/>
            <path id="Trazado_100223" data-name="Trazado 100223" d="M303.695,692.64a3.048,3.048,0,0,1,0-4.421,3.321,3.321,0,0,1,4.577,0,3.049,3.049,0,0,1,0,4.418A3.318,3.318,0,0,1,303.695,692.64Z" transform="translate(-127.43 -517.732)" fill="#ede3b7"/>
            <path id="Trazado_100224" data-name="Trazado 100224" d="M299.55,696.782a3.053,3.053,0,0,1,0-4.421,3.321,3.321,0,0,1,4.577,0,3.048,3.048,0,0,1,0,4.421A3.321,3.321,0,0,1,299.55,696.782Z" transform="translate(-110.738 -509.763)" fill="#ede3b7"/>
            <path id="Trazado_100225" data-name="Trazado 100225" d="M295.408,700.923a3.049,3.049,0,0,1,0-4.418,3.319,3.319,0,0,1,4.58,0,3.049,3.049,0,0,1,0,4.418A3.319,3.319,0,0,1,295.408,700.923Z" transform="translate(-94.049 -501.793)" fill="#ede3b7"/>
          </g>
          <g id="Grupo_53696" data-name="Grupo 53696" transform="translate(0 100.389)">
            <path id="Trazado_100226" data-name="Trazado 100226" d="M361.627,634.352a3.279,3.279,0,0,1,2.472.9,3.049,3.049,0,0,1,0,4.418,3.282,3.282,0,0,1-2.472.9Z" transform="translate(-361.627 -634.346)" fill="#ede3b7"/>
            <path id="Trazado_100227" data-name="Trazado 100227" d="M358.432,643.82a3.053,3.053,0,0,1,0-4.421,3.325,3.325,0,0,1,4.58,0,3.05,3.05,0,0,1,0,4.421A3.321,3.321,0,0,1,358.432,643.82Z" transform="translate(-347.99 -626.385)" fill="#ede3b7"/>
            <path id="Trazado_100228" data-name="Trazado 100228" d="M354.29,647.961a3.049,3.049,0,0,1,0-4.418,3.319,3.319,0,0,1,4.58,0,3.049,3.049,0,0,1,0,4.418A3.322,3.322,0,0,1,354.29,647.961Z" transform="translate(-331.301 -618.415)" fill="#ede3b7"/>
            <path id="Trazado_100229" data-name="Trazado 100229" d="M350.149,652.1a3.048,3.048,0,0,1,0-4.421,3.321,3.321,0,0,1,4.577,0,3.048,3.048,0,0,1,0,4.421A3.321,3.321,0,0,1,350.149,652.1Z" transform="translate(-314.61 -610.445)" fill="#ede3b7"/>
            <path id="Trazado_100230" data-name="Trazado 100230" d="M346,656.247a3.053,3.053,0,0,1,0-4.421,3.325,3.325,0,0,1,4.58,0,3.053,3.053,0,0,1,0,4.421A3.325,3.325,0,0,1,346,656.247Z" transform="translate(-297.918 -602.475)" fill="#ede3b7"/>
            <path id="Trazado_100231" data-name="Trazado 100231" d="M341.863,660.388a3.049,3.049,0,0,1,0-4.418,3.319,3.319,0,0,1,4.58,0,3.049,3.049,0,0,1,0,4.418A3.319,3.319,0,0,1,341.863,660.388Z" transform="translate(-281.229 -594.506)" fill="#ede3b7"/>
            <path id="Trazado_100232" data-name="Trazado 100232" d="M337.722,664.532a3.048,3.048,0,0,1,0-4.421,3.321,3.321,0,0,1,4.577,0,3.048,3.048,0,0,1,0,4.421A3.321,3.321,0,0,1,337.722,664.532Z" transform="translate(-264.538 -586.535)" fill="#ede3b7"/>
            <path id="Trazado_100233" data-name="Trazado 100233" d="M333.578,668.673a3.049,3.049,0,0,1,0-4.418,3.319,3.319,0,0,1,4.58,0,3.049,3.049,0,0,1,0,4.418A3.325,3.325,0,0,1,333.578,668.673Z" transform="translate(-247.846 -578.565)" fill="#ede3b7"/>
            <path id="Trazado_100234" data-name="Trazado 100234" d="M329.438,672.814a3.044,3.044,0,0,1,0-4.418,3.321,3.321,0,0,1,4.577,0,3.049,3.049,0,0,1,0,4.418A3.315,3.315,0,0,1,329.438,672.814Z" transform="translate(-231.156 -570.595)" fill="#ede3b7"/>
            <path id="Trazado_100235" data-name="Trazado 100235" d="M325.293,676.959a3.053,3.053,0,0,1,0-4.421,3.321,3.321,0,0,1,4.577,0,3.048,3.048,0,0,1,0,4.421A3.321,3.321,0,0,1,325.293,676.959Z" transform="translate(-214.464 -562.626)" fill="#ede3b7"/>
            <path id="Trazado_100236" data-name="Trazado 100236" d="M321.151,681.1a3.049,3.049,0,0,1,0-4.418,3.319,3.319,0,0,1,4.58,0,3.049,3.049,0,0,1,0,4.418A3.325,3.325,0,0,1,321.151,681.1Z" transform="translate(-197.774 -554.656)" fill="#ede3b7"/>
            <path id="Trazado_100237" data-name="Trazado 100237" d="M317.01,685.241a3.044,3.044,0,0,1,0-4.418,3.321,3.321,0,0,1,4.577,0,3.044,3.044,0,0,1,0,4.418A3.315,3.315,0,0,1,317.01,685.241Z" transform="translate(-181.083 -546.686)" fill="#ede3b7"/>
            <path id="Trazado_100238" data-name="Trazado 100238" d="M312.866,689.386a3.053,3.053,0,0,1,0-4.421,3.325,3.325,0,0,1,4.58,0,3.05,3.05,0,0,1,0,4.421A3.321,3.321,0,0,1,312.866,689.386Z" transform="translate(-164.392 -538.717)" fill="#ede3b7"/>
            <path id="Trazado_100239" data-name="Trazado 100239" d="M308.724,693.527a3.049,3.049,0,0,1,0-4.418,3.319,3.319,0,0,1,4.58,0,3.049,3.049,0,0,1,0,4.418A3.319,3.319,0,0,1,308.724,693.527Z" transform="translate(-147.702 -530.747)" fill="#ede3b7"/>
            <path id="Trazado_100240" data-name="Trazado 100240" d="M304.583,697.671a3.047,3.047,0,0,1,0-4.421,3.321,3.321,0,0,1,4.577,0,3.047,3.047,0,0,1,0,4.421A3.321,3.321,0,0,1,304.583,697.671Z" transform="translate(-131.012 -522.777)" fill="#ede3b7"/>
            <path id="Trazado_100241" data-name="Trazado 100241" d="M300.439,701.812a3.049,3.049,0,0,1,0-4.418,3.319,3.319,0,0,1,4.58,0,3.049,3.049,0,0,1,0,4.418A3.325,3.325,0,0,1,300.439,701.812Z" transform="translate(-114.32 -514.807)" fill="#ede3b7"/>
            <path id="Trazado_100242" data-name="Trazado 100242" d="M296.3,705.953a3.044,3.044,0,0,1,0-4.418,3.321,3.321,0,0,1,4.577,0,3.049,3.049,0,0,1,0,4.418A3.315,3.315,0,0,1,296.3,705.953Z" transform="translate(-97.63 -506.836)" fill="#ede3b7"/>
          </g>
          <g id="Grupo_53697" data-name="Grupo 53697" transform="translate(0 116.259)">
            <path id="Trazado_100243" data-name="Trazado 100243" d="M362.52,639.774a3.026,3.026,0,0,1,0,3.9Z" transform="translate(-362.52 -639.774)" fill="#ede3b7"/>
            <path id="Trazado_100244" data-name="Trazado 100244" d="M359.321,648.851a3.053,3.053,0,0,1,0-4.421,3.325,3.325,0,0,1,4.58,0,3.053,3.053,0,0,1,0,4.421A3.325,3.325,0,0,1,359.321,648.851Z" transform="translate(-351.572 -632.576)" fill="#ede3b7"/>
            <path id="Trazado_100245" data-name="Trazado 100245" d="M355.181,652.993a3.044,3.044,0,0,1,0-4.418,3.315,3.315,0,0,1,4.577,0,3.049,3.049,0,0,1,0,4.418A3.315,3.315,0,0,1,355.181,652.993Z" transform="translate(-334.882 -624.606)" fill="#ede3b7"/>
            <path id="Trazado_100246" data-name="Trazado 100246" d="M351.036,657.136a3.053,3.053,0,0,1,0-4.421,3.321,3.321,0,0,1,4.577,0,3.048,3.048,0,0,1,0,4.421A3.321,3.321,0,0,1,351.036,657.136Z" transform="translate(-318.189 -616.636)" fill="#ede3b7"/>
            <path id="Trazado_100247" data-name="Trazado 100247" d="M346.894,661.277a3.049,3.049,0,0,1,0-4.418,3.319,3.319,0,0,1,4.58,0,3.049,3.049,0,0,1,0,4.418A3.325,3.325,0,0,1,346.894,661.277Z" transform="translate(-301.5 -608.666)" fill="#ede3b7"/>
            <ellipse id="Elipse_3974" data-name="Elipse 3974" cx="3.237" cy="3.125" rx="3.237" ry="3.125" transform="translate(56.995 59.389)" fill="#ede3b7"/>
            <path id="Trazado_100248" data-name="Trazado 100248" d="M338.609,669.563a3.053,3.053,0,0,1,0-4.421,3.325,3.325,0,0,1,4.58,0,3.053,3.053,0,0,1,0,4.421A3.325,3.325,0,0,1,338.609,669.563Z" transform="translate(-268.117 -592.726)" fill="#ede3b7"/>
            <path id="Trazado_100249" data-name="Trazado 100249" d="M334.467,673.7a3.049,3.049,0,0,1,0-4.418,3.319,3.319,0,0,1,4.58,0,3.049,3.049,0,0,1,0,4.418A3.322,3.322,0,0,1,334.467,673.7Z" transform="translate(-251.428 -584.757)" fill="#ede3b7"/>
            <path id="Trazado_100250" data-name="Trazado 100250" d="M330.326,677.845a3.044,3.044,0,0,1,0-4.418,3.321,3.321,0,0,1,4.577,0,3.044,3.044,0,0,1,0,4.418A3.315,3.315,0,0,1,330.326,677.845Z" transform="translate(-234.737 -576.786)" fill="#ede3b7"/>
            <path id="Trazado_100251" data-name="Trazado 100251" d="M326.182,681.99a3.052,3.052,0,0,1,0-4.421,3.325,3.325,0,0,1,4.58,0,3.053,3.053,0,0,1,0,4.421A3.325,3.325,0,0,1,326.182,681.99Z" transform="translate(-218.045 -568.817)" fill="#ede3b7"/>
            <path id="Trazado_100252" data-name="Trazado 100252" d="M322.042,686.131a3.044,3.044,0,0,1,0-4.418,3.315,3.315,0,0,1,4.577,0,3.049,3.049,0,0,1,0,4.418A3.315,3.315,0,0,1,322.042,686.131Z" transform="translate(-201.355 -560.848)" fill="#ede3b7"/>
            <path id="Trazado_100253" data-name="Trazado 100253" d="M317.9,690.275a3.052,3.052,0,0,1,0-4.421,3.321,3.321,0,0,1,4.577,0,3.047,3.047,0,0,1,0,4.421A3.321,3.321,0,0,1,317.9,690.275Z" transform="translate(-184.663 -552.877)" fill="#ede3b7"/>
            <path id="Trazado_100254" data-name="Trazado 100254" d="M313.755,694.416a3.049,3.049,0,0,1,0-4.418,3.319,3.319,0,0,1,4.58,0,3.049,3.049,0,0,1,0,4.418A3.325,3.325,0,0,1,313.755,694.416Z" transform="translate(-167.974 -544.908)" fill="#ede3b7"/>
            <path id="Trazado_100255" data-name="Trazado 100255" d="M309.614,698.557a3.044,3.044,0,0,1,0-4.418,3.321,3.321,0,0,1,4.577,0,3.044,3.044,0,0,1,0,4.418A3.315,3.315,0,0,1,309.614,698.557Z" transform="translate(-151.283 -536.937)" fill="#ede3b7"/>
            <ellipse id="Elipse_3975" data-name="Elipse 3975" cx="3.237" cy="3.125" rx="3.237" ry="3.125" transform="translate(169.931 168.399)" fill="#ede3b7"/>
            <path id="Trazado_100256" data-name="Trazado 100256" d="M301.328,706.843a3.049,3.049,0,0,1,0-4.418,3.319,3.319,0,0,1,4.58,0,3.049,3.049,0,0,1,0,4.418A3.325,3.325,0,0,1,301.328,706.843Z" transform="translate(-117.902 -520.998)" fill="#ede3b7"/>
          </g>
          <g id="Grupo_53698" data-name="Grupo 53698" transform="translate(4.109 141.91)">
            <path id="Trazado_100257" data-name="Trazado 100257" d="M360.212,653.881a3.044,3.044,0,0,1,0-4.418,3.315,3.315,0,0,1,4.577,0,3.049,3.049,0,0,1,0,4.418A3.32,3.32,0,0,1,360.212,653.881Z" transform="translate(-359.262 -648.547)" fill="#ede3b7"/>
            <path id="Trazado_100258" data-name="Trazado 100258" d="M356.068,658.022a3.047,3.047,0,0,1,0-4.418,3.321,3.321,0,0,1,4.577,0,3.044,3.044,0,0,1,0,4.418A3.315,3.315,0,0,1,356.068,658.022Z" transform="translate(-342.571 -640.576)" fill="#ede3b7"/>
            <path id="Trazado_100259" data-name="Trazado 100259" d="M351.925,662.167a3.053,3.053,0,0,1,0-4.421,3.325,3.325,0,0,1,4.58,0,3.052,3.052,0,0,1,0,4.421A3.325,3.325,0,0,1,351.925,662.167Z" transform="translate(-325.88 -632.607)" fill="#ede3b7"/>
            <path id="Trazado_100260" data-name="Trazado 100260" d="M347.785,666.308a3.044,3.044,0,0,1,0-4.418,3.315,3.315,0,0,1,4.577,0,3.049,3.049,0,0,1,0,4.418A3.315,3.315,0,0,1,347.785,666.308Z" transform="translate(-309.19 -624.637)" fill="#ede3b7"/>
            <path id="Trazado_100261" data-name="Trazado 100261" d="M343.64,670.452a3.052,3.052,0,0,1,0-4.421,3.321,3.321,0,0,1,4.577,0,3.047,3.047,0,0,1,0,4.421A3.321,3.321,0,0,1,343.64,670.452Z" transform="translate(-292.498 -616.666)" fill="#ede3b7"/>
            <path id="Trazado_100262" data-name="Trazado 100262" d="M339.5,674.594a3.053,3.053,0,0,1,0-4.421,3.325,3.325,0,0,1,4.58,0,3.053,3.053,0,0,1,0,4.421A3.325,3.325,0,0,1,339.5,674.594Z" transform="translate(-275.809 -608.698)" fill="#ede3b7"/>
            <path id="Trazado_100263" data-name="Trazado 100263" d="M335.357,678.735a3.044,3.044,0,0,1,0-4.418,3.315,3.315,0,0,1,4.577,0,3.044,3.044,0,0,1,0,4.418A3.315,3.315,0,0,1,335.357,678.735Z" transform="translate(-259.118 -600.728)" fill="#ede3b7"/>
            <path id="Trazado_100264" data-name="Trazado 100264" d="M331.213,682.879a3.052,3.052,0,0,1,0-4.421,3.325,3.325,0,0,1,4.58,0,3.052,3.052,0,0,1,0,4.421A3.325,3.325,0,0,1,331.213,682.879Z" transform="translate(-242.426 -592.757)" fill="#ede3b7"/>
            <path id="Trazado_100265" data-name="Trazado 100265" d="M327.07,687.02a3.047,3.047,0,0,1,0-4.418,3.315,3.315,0,0,1,4.577,0,3.049,3.049,0,0,1,0,4.418A3.325,3.325,0,0,1,327.07,687.02Z" transform="translate(-225.736 -584.788)" fill="#ede3b7"/>
            <path id="Trazado_100266" data-name="Trazado 100266" d="M322.93,691.161a3.044,3.044,0,0,1,0-4.418,3.318,3.318,0,0,1,4.577,0,3.044,3.044,0,0,1,0,4.418A3.315,3.315,0,0,1,322.93,691.161Z" transform="translate(-209.046 -576.818)" fill="#ede3b7"/>
            <path id="Trazado_100267" data-name="Trazado 100267" d="M318.786,695.305a3.052,3.052,0,0,1,0-4.421,3.325,3.325,0,0,1,4.58,0,3.052,3.052,0,0,1,0,4.421A3.325,3.325,0,0,1,318.786,695.305Z" transform="translate(-192.354 -568.848)" fill="#ede3b7"/>
            <path id="Trazado_100268" data-name="Trazado 100268" d="M314.646,699.447a3.044,3.044,0,0,1,0-4.418,3.315,3.315,0,0,1,4.577,0,3.049,3.049,0,0,1,0,4.418A3.321,3.321,0,0,1,314.646,699.447Z" transform="translate(-175.664 -560.879)" fill="#ede3b7"/>
            <path id="Trazado_100269" data-name="Trazado 100269" d="M310.5,703.588a3.049,3.049,0,0,1,0-4.418,3.321,3.321,0,0,1,4.577,0,3.044,3.044,0,0,1,0,4.418A3.316,3.316,0,0,1,310.5,703.588Z" transform="translate(-158.972 -552.908)" fill="#ede3b7"/>
            <path id="Trazado_100270" data-name="Trazado 100270" d="M306.359,707.733a3.053,3.053,0,0,1,0-4.421,3.325,3.325,0,0,1,4.58,0,3.053,3.053,0,0,1,0,4.421A3.325,3.325,0,0,1,306.359,707.733Z" transform="translate(-142.283 -544.939)" fill="#ede3b7"/>
            <path id="Trazado_100271" data-name="Trazado 100271" d="M302.219,711.875a3.044,3.044,0,0,1,0-4.418,3.315,3.315,0,0,1,4.577,0,3.047,3.047,0,0,1,0,4.418A3.315,3.315,0,0,1,302.219,711.875Z" transform="translate(-125.592 -536.969)" fill="#ede3b7"/>
          </g>
          <g id="Grupo_53699" data-name="Grupo 53699" transform="translate(1.416 156.621)">
            <path id="Trazado_100272" data-name="Trazado 100272" d="M361.1,658.912a3.044,3.044,0,0,1,0-4.418,3.315,3.315,0,0,1,4.577,0,3.044,3.044,0,0,1,0,4.418A3.318,3.318,0,0,1,361.1,658.912Z" transform="translate(-360.15 -653.577)" fill="#ede3b7"/>
            <path id="Trazado_100273" data-name="Trazado 100273" d="M356.956,663.053a3.049,3.049,0,0,1,0-4.418,3.325,3.325,0,0,1,4.58,0,3.049,3.049,0,0,1,0,4.418A3.319,3.319,0,0,1,356.956,663.053Z" transform="translate(-343.459 -645.607)" fill="#ede3b7"/>
            <path id="Trazado_100274" data-name="Trazado 100274" d="M352.813,667.2a3.05,3.05,0,0,1,0-4.421,3.321,3.321,0,0,1,4.577,0,3.053,3.053,0,0,1,0,4.421A3.325,3.325,0,0,1,352.813,667.2Z" transform="translate(-326.769 -637.638)" fill="#ede3b7"/>
            <path id="Trazado_100275" data-name="Trazado 100275" d="M348.671,671.339a3.049,3.049,0,0,1,0-4.418,3.316,3.316,0,0,1,4.577,0,3.044,3.044,0,0,1,0,4.418A3.315,3.315,0,0,1,348.671,671.339Z" transform="translate(-310.076 -629.668)" fill="#ede3b7"/>
            <path id="Trazado_100276" data-name="Trazado 100276" d="M344.529,675.483a3.052,3.052,0,0,1,0-4.421,3.325,3.325,0,0,1,4.58,0,3.052,3.052,0,0,1,0,4.421A3.325,3.325,0,0,1,344.529,675.483Z" transform="translate(-293.387 -621.698)" fill="#ede3b7"/>
            <path id="Trazado_100277" data-name="Trazado 100277" d="M340.389,679.625a3.047,3.047,0,0,1,0-4.421,3.321,3.321,0,0,1,4.577,0,3.052,3.052,0,0,1,0,4.421A3.321,3.321,0,0,1,340.389,679.625Z" transform="translate(-276.697 -613.728)" fill="#ede3b7"/>
            <path id="Trazado_100278" data-name="Trazado 100278" d="M336.244,683.765a3.049,3.049,0,0,1,0-4.418,3.321,3.321,0,0,1,4.577,0,3.044,3.044,0,0,1,0,4.418A3.315,3.315,0,0,1,336.244,683.765Z" transform="translate(-260.005 -605.758)" fill="#ede3b7"/>
            <path id="Trazado_100279" data-name="Trazado 100279" d="M332.1,687.91a3.052,3.052,0,0,1,0-4.421,3.324,3.324,0,0,1,4.58,0,3.052,3.052,0,0,1,0,4.421A3.325,3.325,0,0,1,332.1,687.91Z" transform="translate(-243.315 -597.788)" fill="#ede3b7"/>
            <path id="Trazado_100280" data-name="Trazado 100280" d="M327.961,692.051a3.044,3.044,0,0,1,0-4.418,3.315,3.315,0,0,1,4.577,0,3.044,3.044,0,0,1,0,4.418A3.321,3.321,0,0,1,327.961,692.051Z" transform="translate(-226.624 -589.819)" fill="#ede3b7"/>
            <path id="Trazado_100281" data-name="Trazado 100281" d="M323.817,696.192a3.049,3.049,0,0,1,0-4.418,3.325,3.325,0,0,1,4.58,0,3.049,3.049,0,0,1,0,4.418A3.319,3.319,0,0,1,323.817,696.192Z" transform="translate(-209.933 -581.848)" fill="#ede3b7"/>
            <path id="Trazado_100282" data-name="Trazado 100282" d="M319.675,700.337a3.053,3.053,0,0,1,0-4.421,3.325,3.325,0,0,1,4.58,0,3.052,3.052,0,0,1,0,4.421A3.325,3.325,0,0,1,319.675,700.337Z" transform="translate(-193.243 -573.879)" fill="#ede3b7"/>
            <path id="Trazado_100283" data-name="Trazado 100283" d="M315.534,704.478a3.044,3.044,0,0,1,0-4.418,3.315,3.315,0,0,1,4.577,0,3.044,3.044,0,0,1,0,4.418A3.315,3.315,0,0,1,315.534,704.478Z" transform="translate(-176.552 -565.91)" fill="#ede3b7"/>
            <path id="Trazado_100284" data-name="Trazado 100284" d="M311.39,708.622a3.053,3.053,0,0,1,0-4.421,3.325,3.325,0,0,1,4.58,0,3.053,3.053,0,0,1,0,4.421A3.325,3.325,0,0,1,311.39,708.622Z" transform="translate(-159.861 -557.939)" fill="#ede3b7"/>
            <path id="Trazado_100285" data-name="Trazado 100285" d="M307.25,712.763a3.044,3.044,0,0,1,0-4.418,3.315,3.315,0,0,1,4.577,0,3.049,3.049,0,0,1,0,4.418A3.321,3.321,0,0,1,307.25,712.763Z" transform="translate(-143.171 -549.97)" fill="#ede3b7"/>
          </g>
          <g id="Grupo_53700" data-name="Grupo 53700" transform="translate(0 171.34)">
            <path id="Trazado_100286" data-name="Trazado 100286" d="M361.04,659.262a3.312,3.312,0,0,1,4.25.257,3.044,3.044,0,0,1,0,4.418,3.311,3.311,0,0,1-4.25.257Z" transform="translate(-361.04 -658.612)" fill="#ede3b7"/>
            <path id="Trazado_100287" data-name="Trazado 100287" d="M357.845,668.087a3.052,3.052,0,0,1,0-4.421,3.325,3.325,0,0,1,4.58,0,3.052,3.052,0,0,1,0,4.421A3.325,3.325,0,0,1,357.845,668.087Z" transform="translate(-345.625 -650.647)" fill="#ede3b7"/>
            <path id="Trazado_100288" data-name="Trazado 100288" d="M353.7,672.228a3.044,3.044,0,0,1,0-4.418,3.316,3.316,0,0,1,4.577,0,3.044,3.044,0,0,1,0,4.418A3.321,3.321,0,0,1,353.7,672.228Z" transform="translate(-328.934 -642.677)" fill="#ede3b7"/>
            <path id="Trazado_100289" data-name="Trazado 100289" d="M349.56,676.369a3.049,3.049,0,0,1,0-4.418,3.325,3.325,0,0,1,4.58,0,3.049,3.049,0,0,1,0,4.418A3.319,3.319,0,0,1,349.56,676.369Z" transform="translate(-312.242 -634.707)" fill="#ede3b7"/>
            <path id="Trazado_100290" data-name="Trazado 100290" d="M345.42,680.514a3.05,3.05,0,0,1,0-4.421,3.325,3.325,0,0,1,4.58,0,3.053,3.053,0,0,1,0,4.421A3.321,3.321,0,0,1,345.42,680.514Z" transform="translate(-295.552 -626.738)" fill="#ede3b7"/>
            <path id="Trazado_100291" data-name="Trazado 100291" d="M341.277,684.655a3.044,3.044,0,0,1,0-4.418,3.315,3.315,0,0,1,4.577,0,3.044,3.044,0,0,1,0,4.418A3.321,3.321,0,0,1,341.277,684.655Z" transform="translate(-278.862 -618.768)" fill="#ede3b7"/>
            <path id="Trazado_100292" data-name="Trazado 100292" d="M337.133,688.8a3.049,3.049,0,0,1,0-4.418,3.325,3.325,0,0,1,4.58,0,3.049,3.049,0,0,1,0,4.418A3.319,3.319,0,0,1,337.133,688.8Z" transform="translate(-262.17 -610.797)" fill="#ede3b7"/>
            <path id="Trazado_100293" data-name="Trazado 100293" d="M332.993,692.941a3.048,3.048,0,0,1,0-4.421,3.321,3.321,0,0,1,4.577,0,3.053,3.053,0,0,1,0,4.421A3.321,3.321,0,0,1,332.993,692.941Z" transform="translate(-245.48 -602.828)" fill="#ede3b7"/>
            <path id="Trazado_100294" data-name="Trazado 100294" d="M328.848,697.082a3.049,3.049,0,0,1,0-4.418,3.316,3.316,0,0,1,4.577,0,3.044,3.044,0,0,1,0,4.418A3.316,3.316,0,0,1,328.848,697.082Z" transform="translate(-228.788 -594.859)" fill="#ede3b7"/>
            <path id="Trazado_100295" data-name="Trazado 100295" d="M324.706,701.226a3.053,3.053,0,0,1,0-4.421,3.325,3.325,0,0,1,4.58,0,3.053,3.053,0,0,1,0,4.421A3.325,3.325,0,0,1,324.706,701.226Z" transform="translate(-212.098 -586.888)" fill="#ede3b7"/>
            <path id="Trazado_100296" data-name="Trazado 100296" d="M320.565,705.367a3.044,3.044,0,0,1,0-4.418,3.315,3.315,0,0,1,4.577,0,3.044,3.044,0,0,1,0,4.418A3.321,3.321,0,0,1,320.565,705.367Z" transform="translate(-195.408 -578.919)" fill="#ede3b7"/>
            <path id="Trazado_100297" data-name="Trazado 100297" d="M316.421,709.509a3.049,3.049,0,0,1,0-4.418,3.322,3.322,0,0,1,4.58,0,3.049,3.049,0,0,1,0,4.418A3.319,3.319,0,0,1,316.421,709.509Z" transform="translate(-178.716 -570.949)" fill="#ede3b7"/>
            <ellipse id="Elipse_3976" data-name="Elipse 3976" cx="3.238" cy="3.125" rx="3.238" ry="3.125" transform="translate(149.305 145.339)" fill="#ede3b7"/>
            <path id="Trazado_100298" data-name="Trazado 100298" d="M308.137,717.794a3.047,3.047,0,0,1,0-4.418,3.315,3.315,0,0,1,4.577,0,3.044,3.044,0,0,1,0,4.418A3.321,3.321,0,0,1,308.137,717.794Z" transform="translate(-145.335 -555.009)" fill="#ede3b7"/>
          </g>
          <g id="Grupo_53701" data-name="Grupo 53701" transform="translate(0 186.131)">
            <path id="Trazado_100299" data-name="Trazado 100299" d="M361.928,663.67a3.267,3.267,0,0,1,1.56.828,3.049,3.049,0,0,1,0,4.418,3.242,3.242,0,0,1-1.56.828Z" transform="translate(-361.928 -663.67)" fill="#ede3b7"/>
            <path id="Trazado_100300" data-name="Trazado 100300" d="M358.736,673.118a3.047,3.047,0,0,1,0-4.421,3.321,3.321,0,0,1,4.577,0,3.053,3.053,0,0,1,0,4.421A3.321,3.321,0,0,1,358.736,673.118Z" transform="translate(-349.206 -655.758)" fill="#ede3b7"/>
            <path id="Trazado_100301" data-name="Trazado 100301" d="M354.591,677.259a3.049,3.049,0,0,1,0-4.418,3.315,3.315,0,0,1,4.577,0,3.044,3.044,0,0,1,0,4.418A3.321,3.321,0,0,1,354.591,677.259Z" transform="translate(-332.513 -647.789)" fill="#ede3b7"/>
            <path id="Trazado_100302" data-name="Trazado 100302" d="M350.449,681.4a3.049,3.049,0,0,1,0-4.418,3.325,3.325,0,0,1,4.58,0,3.049,3.049,0,0,1,0,4.418A3.319,3.319,0,0,1,350.449,681.4Z" transform="translate(-315.824 -639.818)" fill="#ede3b7"/>
            <path id="Trazado_100303" data-name="Trazado 100303" d="M346.308,685.545a3.048,3.048,0,0,1,0-4.421,3.321,3.321,0,0,1,4.577,0,3.048,3.048,0,0,1,0,4.421A3.321,3.321,0,0,1,346.308,685.545Z" transform="translate(-299.133 -631.849)" fill="#ede3b7"/>
            <path id="Trazado_100304" data-name="Trazado 100304" d="M342.164,689.686a3.049,3.049,0,0,1,0-4.418,3.319,3.319,0,0,1,4.58,0,3.049,3.049,0,0,1,0,4.418A3.319,3.319,0,0,1,342.164,689.686Z" transform="translate(-282.441 -623.879)" fill="#ede3b7"/>
            <path id="Trazado_100305" data-name="Trazado 100305" d="M338.024,693.83a3.05,3.05,0,0,1,0-4.421,3.325,3.325,0,0,1,4.58,0,3.052,3.052,0,0,1,0,4.421A3.321,3.321,0,0,1,338.024,693.83Z" transform="translate(-265.752 -615.909)" fill="#ede3b7"/>
            <path id="Trazado_100306" data-name="Trazado 100306" d="M333.88,697.971a3.047,3.047,0,0,1,0-4.418,3.315,3.315,0,0,1,4.577,0,3.044,3.044,0,0,1,0,4.418A3.321,3.321,0,0,1,333.88,697.971Z" transform="translate(-249.06 -607.939)" fill="#ede3b7"/>
            <path id="Trazado_100307" data-name="Trazado 100307" d="M329.737,702.113a3.049,3.049,0,0,1,0-4.418,3.319,3.319,0,0,1,4.58,0,3.049,3.049,0,0,1,0,4.418A3.319,3.319,0,0,1,329.737,702.113Z" transform="translate(-232.37 -599.97)" fill="#ede3b7"/>
            <path id="Trazado_100308" data-name="Trazado 100308" d="M325.6,706.257a3.047,3.047,0,0,1,0-4.421,3.321,3.321,0,0,1,4.577,0,3.052,3.052,0,0,1,0,4.421A3.321,3.321,0,0,1,325.6,706.257Z" transform="translate(-215.68 -591.999)" fill="#ede3b7"/>
            <path id="Trazado_100309" data-name="Trazado 100309" d="M321.452,710.4a3.049,3.049,0,0,1,0-4.418,3.315,3.315,0,0,1,4.577,0,3.044,3.044,0,0,1,0,4.418A3.321,3.321,0,0,1,321.452,710.4Z" transform="translate(-198.987 -584.03)" fill="#ede3b7"/>
            <ellipse id="Elipse_3977" data-name="Elipse 3977" cx="3.237" cy="3.125" rx="3.237" ry="3.125" transform="translate(134.065 133.146)" fill="#ede3b7"/>
            <path id="Trazado_100310" data-name="Trazado 100310" d="M313.169,718.684a3.048,3.048,0,0,1,0-4.421,3.321,3.321,0,0,1,4.577,0,3.048,3.048,0,0,1,0,4.421A3.321,3.321,0,0,1,313.169,718.684Z" transform="translate(-165.607 -568.09)" fill="#ede3b7"/>
          </g>
          <g id="Grupo_53702" data-name="Grupo 53702" transform="translate(5.89 212.866)">
            <path id="Trazado_100311" data-name="Trazado 100311" d="M359.622,678.149a3.053,3.053,0,0,1,0-4.421,3.321,3.321,0,0,1,4.577,0,3.048,3.048,0,0,1,0,4.421A3.321,3.321,0,0,1,359.622,678.149Z" transform="translate(-358.674 -672.813)" fill="#ede3b7"/>
            <path id="Trazado_100312" data-name="Trazado 100312" d="M355.48,682.29a3.049,3.049,0,0,1,0-4.418,3.319,3.319,0,0,1,4.58,0,3.049,3.049,0,0,1,0,4.418A3.319,3.319,0,0,1,355.48,682.29Z" transform="translate(-341.985 -664.844)" fill="#ede3b7"/>
            <path id="Trazado_100313" data-name="Trazado 100313" d="M351.34,686.434a3.047,3.047,0,0,1,0-4.421,3.321,3.321,0,0,1,4.577,0,3.052,3.052,0,0,1,0,4.421A3.321,3.321,0,0,1,351.34,686.434Z" transform="translate(-325.295 -656.873)" fill="#ede3b7"/>
            <path id="Trazado_100314" data-name="Trazado 100314" d="M347.2,690.576a3.052,3.052,0,0,1,0-4.421,3.318,3.318,0,0,1,4.577,0,3.044,3.044,0,0,1,0,4.418A3.321,3.321,0,0,1,347.2,690.576Z" transform="translate(-308.603 -648.904)" fill="#ede3b7"/>
            <path id="Trazado_100315" data-name="Trazado 100315" d="M343.053,694.716a3.049,3.049,0,0,1,0-4.418,3.325,3.325,0,0,1,4.58,0,3.049,3.049,0,0,1,0,4.418A3.319,3.319,0,0,1,343.053,694.716Z" transform="translate(-291.913 -640.933)" fill="#ede3b7"/>
            <path id="Trazado_100316" data-name="Trazado 100316" d="M338.912,698.861a3.047,3.047,0,0,1,0-4.421,3.321,3.321,0,0,1,4.577,0,3.047,3.047,0,0,1,0,4.421A3.32,3.32,0,0,1,338.912,698.861Z" transform="translate(-275.222 -632.964)" fill="#ede3b7"/>
            <path id="Trazado_100317" data-name="Trazado 100317" d="M334.768,703a3.049,3.049,0,0,1,0-4.418,3.319,3.319,0,0,1,4.58,0,3.049,3.049,0,0,1,0,4.418A3.325,3.325,0,0,1,334.768,703Z" transform="translate(-258.531 -624.994)" fill="#ede3b7"/>
            <ellipse id="Elipse_3978" data-name="Elipse 3978" cx="3.238" cy="3.125" rx="3.238" ry="3.125" transform="translate(87.838 84.786)" fill="#ede3b7"/>
            <path id="Trazado_100318" data-name="Trazado 100318" d="M326.484,711.288a3.05,3.05,0,0,1,0-4.421,3.321,3.321,0,0,1,4.577,0,3.048,3.048,0,0,1,0,4.421A3.321,3.321,0,0,1,326.484,711.288Z" transform="translate(-225.149 -609.054)" fill="#ede3b7"/>
            <path id="Trazado_100319" data-name="Trazado 100319" d="M322.341,715.429a3.049,3.049,0,0,1,0-4.418,3.319,3.319,0,0,1,4.58,0,3.049,3.049,0,0,1,0,4.418A3.319,3.319,0,0,1,322.341,715.429Z" transform="translate(-208.459 -601.085)" fill="#ede3b7"/>
            <path id="Trazado_100320" data-name="Trazado 100320" d="M318.2,719.573a3.048,3.048,0,0,1,0-4.421,3.321,3.321,0,0,1,4.577,0,3.053,3.053,0,0,1,0,4.421A3.321,3.321,0,0,1,318.2,719.573Z" transform="translate(-191.769 -593.114)" fill="#ede3b7"/>
            <path id="Trazado_100321" data-name="Trazado 100321" d="M314.056,723.715a3.052,3.052,0,0,1,0-4.421,3.321,3.321,0,0,1,4.577,0,3.047,3.047,0,0,1,0,4.421A3.321,3.321,0,0,1,314.056,723.715Z" transform="translate(-175.076 -585.145)" fill="#ede3b7"/>
          </g>
          <g id="Grupo_53703" data-name="Grupo 53703" transform="translate(3.197 227.576)">
            <path id="Trazado_100322" data-name="Trazado 100322" d="M360.511,683.18a3.053,3.053,0,0,1,0-4.421,3.322,3.322,0,0,1,4.58,0,3.049,3.049,0,0,1,0,4.418A3.325,3.325,0,0,1,360.511,683.18Z" transform="translate(-359.563 -677.844)" fill="#ede3b7"/>
            <path id="Trazado_100323" data-name="Trazado 100323" d="M356.368,687.32a3.047,3.047,0,0,1,0-4.418,3.321,3.321,0,0,1,4.577,0,3.049,3.049,0,0,1,0,4.418A3.319,3.319,0,0,1,356.368,687.32Z" transform="translate(-342.874 -669.874)" fill="#ede3b7"/>
            <path id="Trazado_100324" data-name="Trazado 100324" d="M352.226,691.465a3.053,3.053,0,0,1,0-4.421,3.321,3.321,0,0,1,4.577,0,3.047,3.047,0,0,1,0,4.421A3.321,3.321,0,0,1,352.226,691.465Z" transform="translate(-326.181 -661.904)" fill="#ede3b7"/>
            <path id="Trazado_100325" data-name="Trazado 100325" d="M348.084,695.606a3.049,3.049,0,0,1,0-4.418,3.319,3.319,0,0,1,4.58,0,3.049,3.049,0,0,1,0,4.418A3.324,3.324,0,0,1,348.084,695.606Z" transform="translate(-309.491 -653.935)" fill="#ede3b7"/>
            <path id="Trazado_100326" data-name="Trazado 100326" d="M343.944,699.747a3.044,3.044,0,0,1,0-4.418,3.321,3.321,0,0,1,4.577,0,3.049,3.049,0,0,1,0,4.418A3.315,3.315,0,0,1,343.944,699.747Z" transform="translate(-292.802 -645.964)" fill="#ede3b7"/>
            <path id="Trazado_100327" data-name="Trazado 100327" d="M339.8,703.892a3.053,3.053,0,0,1,0-4.421,3.321,3.321,0,0,1,4.577,0,3.047,3.047,0,0,1,0,4.421A3.321,3.321,0,0,1,339.8,703.892Z" transform="translate(-276.109 -637.995)" fill="#ede3b7"/>
            <path id="Trazado_100328" data-name="Trazado 100328" d="M335.657,708.033a3.049,3.049,0,0,1,0-4.418,3.319,3.319,0,0,1,4.58,0,3.049,3.049,0,0,1,0,4.418A3.319,3.319,0,0,1,335.657,708.033Z" transform="translate(-259.42 -630.026)" fill="#ede3b7"/>
            <path id="Trazado_100329" data-name="Trazado 100329" d="M331.516,712.177a3.048,3.048,0,0,1,0-4.421,3.321,3.321,0,0,1,4.577,0,3.048,3.048,0,0,1,0,4.421A3.321,3.321,0,0,1,331.516,712.177Z" transform="translate(-242.729 -622.055)" fill="#ede3b7"/>
            <path id="Trazado_100330" data-name="Trazado 100330" d="M327.372,716.318a3.052,3.052,0,0,1,0-4.421,3.322,3.322,0,0,1,4.58,0,3.049,3.049,0,0,1,0,4.418A3.325,3.325,0,0,1,327.372,716.318Z" transform="translate(-226.037 -614.086)" fill="#ede3b7"/>
            <path id="Trazado_100331" data-name="Trazado 100331" d="M323.229,720.459a3.047,3.047,0,0,1,0-4.418,3.321,3.321,0,0,1,4.577,0,3.049,3.049,0,0,1,0,4.418A3.319,3.319,0,0,1,323.229,720.459Z" transform="translate(-209.347 -606.115)" fill="#ede3b7"/>
            <path id="Trazado_100332" data-name="Trazado 100332" d="M319.088,724.6a3.05,3.05,0,0,1,0-4.421,3.321,3.321,0,0,1,4.577,0,3.048,3.048,0,0,1,0,4.421A3.321,3.321,0,0,1,319.088,724.6Z" transform="translate(-192.656 -598.146)" fill="#ede3b7"/>
          </g>
          <g id="Grupo_53704" data-name="Grupo 53704" transform="translate(0.504 242.287)">
            <path id="Trazado_100333" data-name="Trazado 100333" d="M361.4,688.21a3.049,3.049,0,0,1,0-4.418,3.319,3.319,0,0,1,4.58,0,3.049,3.049,0,0,1,0,4.418A3.325,3.325,0,0,1,361.4,688.21Z" transform="translate(-360.452 -682.876)" fill="#ede3b7"/>
            <path id="Trazado_100334" data-name="Trazado 100334" d="M357.259,692.351a3.044,3.044,0,0,1,0-4.418,3.321,3.321,0,0,1,4.577,0,3.044,3.044,0,0,1,0,4.418A3.315,3.315,0,0,1,357.259,692.351Z" transform="translate(-343.762 -674.905)" fill="#ede3b7"/>
            <path id="Trazado_100335" data-name="Trazado 100335" d="M353.115,696.5a3.052,3.052,0,0,1,0-4.421,3.325,3.325,0,0,1,4.58,0,3.052,3.052,0,0,1,0,4.421A3.325,3.325,0,0,1,353.115,696.5Z" transform="translate(-327.07 -666.936)" fill="#ede3b7"/>
            <path id="Trazado_100336" data-name="Trazado 100336" d="M348.975,700.637a3.044,3.044,0,0,1,0-4.418,3.315,3.315,0,0,1,4.577,0,3.049,3.049,0,0,1,0,4.418A3.315,3.315,0,0,1,348.975,700.637Z" transform="translate(-310.38 -658.966)" fill="#ede3b7"/>
            <path id="Trazado_100337" data-name="Trazado 100337" d="M344.831,704.781a3.05,3.05,0,0,1,0-4.421,3.321,3.321,0,0,1,4.577,0,3.048,3.048,0,0,1,0,4.421A3.321,3.321,0,0,1,344.831,704.781Z" transform="translate(-293.689 -650.996)" fill="#ede3b7"/>
            <path id="Trazado_100338" data-name="Trazado 100338" d="M340.688,708.922a3.049,3.049,0,0,1,0-4.418,3.319,3.319,0,0,1,4.58,0,3.049,3.049,0,0,1,0,4.418A3.325,3.325,0,0,1,340.688,708.922Z" transform="translate(-276.998 -643.026)" fill="#ede3b7"/>
            <path id="Trazado_100339" data-name="Trazado 100339" d="M336.548,713.063a3.044,3.044,0,0,1,0-4.418,3.321,3.321,0,0,1,4.577,0,3.049,3.049,0,0,1,0,4.418A3.316,3.316,0,0,1,336.548,713.063Z" transform="translate(-260.308 -635.056)" fill="#ede3b7"/>
            <path id="Trazado_100340" data-name="Trazado 100340" d="M332.4,717.208a3.053,3.053,0,0,1,0-4.421,3.321,3.321,0,0,1,4.577,0,3.048,3.048,0,0,1,0,4.421A3.321,3.321,0,0,1,332.4,717.208Z" transform="translate(-243.616 -627.086)" fill="#ede3b7"/>
            <path id="Trazado_100341" data-name="Trazado 100341" d="M328.261,721.349a3.049,3.049,0,0,1,0-4.418,3.319,3.319,0,0,1,4.58,0,3.049,3.049,0,0,1,0,4.418A3.325,3.325,0,0,1,328.261,721.349Z" transform="translate(-226.926 -619.117)" fill="#ede3b7"/>
            <path id="Trazado_100342" data-name="Trazado 100342" d="M324.12,725.49a3.044,3.044,0,0,1,0-4.418,3.321,3.321,0,0,1,4.577,0,3.044,3.044,0,0,1,0,4.418A3.315,3.315,0,0,1,324.12,725.49Z" transform="translate(-210.235 -611.146)" fill="#ede3b7"/>
            <path id="Trazado_100343" data-name="Trazado 100343" d="M319.976,729.635a3.053,3.053,0,0,1,0-4.421,3.325,3.325,0,0,1,4.58,0,3.053,3.053,0,0,1,0,4.421A3.325,3.325,0,0,1,319.976,729.635Z" transform="translate(-193.544 -603.177)" fill="#ede3b7"/>
          </g>
          <g id="Grupo_53705" data-name="Grupo 53705" transform="translate(0 257.008)">
            <path id="Trazado_100344" data-name="Trazado 100344" d="M361.34,688.083a3.3,3.3,0,0,1,3.338.734,3.044,3.044,0,0,1,0,4.418,3.3,3.3,0,0,1-3.338.734Z" transform="translate(-361.34 -687.91)" fill="#ede3b7"/>
            <path id="Trazado_100345" data-name="Trazado 100345" d="M358.146,697.385a3.053,3.053,0,0,1,0-4.421,3.321,3.321,0,0,1,4.577,0,3.048,3.048,0,0,1,0,4.421A3.321,3.321,0,0,1,358.146,697.385Z" transform="translate(-346.837 -679.945)" fill="#ede3b7"/>
            <path id="Trazado_100346" data-name="Trazado 100346" d="M354,701.527a3.052,3.052,0,0,1,0-4.421,3.322,3.322,0,0,1,4.58,0,3.049,3.049,0,0,1,0,4.418A3.325,3.325,0,0,1,354,701.527Z" transform="translate(-330.148 -671.976)" fill="#ede3b7"/>
            <path id="Trazado_100347" data-name="Trazado 100347" d="M349.863,705.668a3.044,3.044,0,0,1,0-4.418,3.316,3.316,0,0,1,4.577,0,3.044,3.044,0,0,1,0,4.418A3.316,3.316,0,0,1,349.863,705.668Z" transform="translate(-313.457 -664.007)" fill="#ede3b7"/>
            <path id="Trazado_100348" data-name="Trazado 100348" d="M345.719,709.812a3.053,3.053,0,0,1,0-4.421,3.325,3.325,0,0,1,4.58,0,3.053,3.053,0,0,1,0,4.421A3.325,3.325,0,0,1,345.719,709.812Z" transform="translate(-296.766 -656.036)" fill="#ede3b7"/>
            <path id="Trazado_100349" data-name="Trazado 100349" d="M341.579,713.953a3.044,3.044,0,0,1,0-4.418,3.315,3.315,0,0,1,4.577,0,3.049,3.049,0,0,1,0,4.418A3.321,3.321,0,0,1,341.579,713.953Z" transform="translate(-280.076 -648.067)" fill="#ede3b7"/>
            <path id="Trazado_100350" data-name="Trazado 100350" d="M337.435,718.094a3.047,3.047,0,0,1,0-4.418,3.321,3.321,0,0,1,4.577,0,3.044,3.044,0,0,1,0,4.418A3.316,3.316,0,0,1,337.435,718.094Z" transform="translate(-263.384 -640.096)" fill="#ede3b7"/>
            <path id="Trazado_100351" data-name="Trazado 100351" d="M333.292,722.239a3.053,3.053,0,0,1,0-4.421,3.325,3.325,0,0,1,4.58,0,3.052,3.052,0,0,1,0,4.421A3.325,3.325,0,0,1,333.292,722.239Z" transform="translate(-246.694 -632.127)" fill="#ede3b7"/>
            <path id="Trazado_100352" data-name="Trazado 100352" d="M329.152,726.381a3.044,3.044,0,0,1,0-4.418,3.316,3.316,0,0,1,4.577,0,3.049,3.049,0,0,1,0,4.418A3.315,3.315,0,0,1,329.152,726.381Z" transform="translate(-230.004 -624.158)" fill="#ede3b7"/>
            <path id="Trazado_100353" data-name="Trazado 100353" d="M325.007,730.524a3.053,3.053,0,0,1,0-4.421,3.321,3.321,0,0,1,4.577,0,3.048,3.048,0,0,1,0,4.421A3.321,3.321,0,0,1,325.007,730.524Z" transform="translate(-213.311 -616.187)" fill="#ede3b7"/>
          </g>
          <g id="Grupo_53706" data-name="Grupo 53706" transform="translate(0 272.154)">
            <path id="Trazado_100354" data-name="Trazado 100354" d="M362.23,693.09a3.157,3.157,0,0,1,.645.471,3.044,3.044,0,0,1,0,4.418,3.282,3.282,0,0,1-.645.474Z" transform="translate(-362.23 -693.09)" fill="#ede3b7"/>
            <path id="Trazado_100355" data-name="Trazado 100355" d="M359.035,702.416a3.052,3.052,0,0,1,0-4.421,3.325,3.325,0,0,1,4.58,0,3.053,3.053,0,0,1,0,4.421A3.325,3.325,0,0,1,359.035,702.416Z" transform="translate(-350.419 -685.413)" fill="#ede3b7"/>
            <ellipse id="Elipse_3979" data-name="Elipse 3979" cx="3.237" cy="3.125" rx="3.237" ry="3.125" transform="translate(20.216 23.78)" fill="#ede3b7"/>
            <path id="Trazado_100356" data-name="Trazado 100356" d="M350.75,710.7a3.049,3.049,0,0,1,0-4.418,3.321,3.321,0,0,1,4.577,0,3.044,3.044,0,0,1,0,4.418A3.315,3.315,0,0,1,350.75,710.7Z" transform="translate(-317.037 -669.473)" fill="#ede3b7"/>
            <ellipse id="Elipse_3980" data-name="Elipse 3980" cx="3.237" cy="3.125" rx="3.237" ry="3.125" transform="translate(45.313 48.004)" fill="#ede3b7"/>
            <ellipse id="Elipse_3981" data-name="Elipse 3981" cx="3.237" cy="3.125" rx="3.237" ry="3.125" transform="translate(57.861 60.116)" fill="#ede3b7"/>
            <path id="Trazado_100357" data-name="Trazado 100357" d="M338.323,723.125a3.049,3.049,0,0,1,0-4.418,3.325,3.325,0,0,1,4.58,0,3.053,3.053,0,0,1,0,4.421A3.322,3.322,0,0,1,338.323,723.125Z" transform="translate(-266.965 -645.564)" fill="#ede3b7"/>
            <path id="Trazado_100358" data-name="Trazado 100358" d="M334.183,727.27a3.047,3.047,0,0,1,0-4.421,3.321,3.321,0,0,1,4.577,0,3.052,3.052,0,0,1,0,4.421A3.321,3.321,0,0,1,334.183,727.27Z" transform="translate(-250.275 -637.594)" fill="#ede3b7"/>
            <path id="Trazado_100359" data-name="Trazado 100359" d="M330.039,731.411a3.047,3.047,0,0,1,0-4.418,3.315,3.315,0,0,1,4.577,0,3.044,3.044,0,0,1,0,4.418A3.316,3.316,0,0,1,330.039,731.411Z" transform="translate(-233.584 -629.625)" fill="#ede3b7"/>
            <path id="Trazado_100360" data-name="Trazado 100360" d="M325.9,735.555a3.053,3.053,0,0,1,0-4.421,3.325,3.325,0,0,1,4.58,0,3.053,3.053,0,0,1,0,4.421A3.325,3.325,0,0,1,325.9,735.555Z" transform="translate(-216.893 -621.654)" fill="#ede3b7"/>
          </g>
          <g id="Grupo_53707" data-name="Grupo 53707" transform="translate(4.975 298.532)">
            <path id="Trazado_100361" data-name="Trazado 100361" d="M359.926,707.447a3.05,3.05,0,0,1,0-4.421,3.325,3.325,0,0,1,4.58,0,3.052,3.052,0,0,1,0,4.421A3.32,3.32,0,0,1,359.926,707.447Z" transform="translate(-358.976 -702.112)" fill="#ede3b7"/>
            <path id="Trazado_100362" data-name="Trazado 100362" d="M355.781,711.589a3.049,3.049,0,0,1,0-4.418,3.315,3.315,0,0,1,4.577,0,3.044,3.044,0,0,1,0,4.418A3.315,3.315,0,0,1,355.781,711.589Z" transform="translate(-342.284 -694.142)" fill="#ede3b7"/>
            <path id="Trazado_100363" data-name="Trazado 100363" d="M351.639,715.732a3.052,3.052,0,0,1,0-4.421,3.325,3.325,0,0,1,4.58,0,3.053,3.053,0,0,1,0,4.421A3.325,3.325,0,0,1,351.639,715.732Z" transform="translate(-325.594 -686.171)" fill="#ede3b7"/>
            <path id="Trazado_100364" data-name="Trazado 100364" d="M347.5,719.873a3.044,3.044,0,0,1,0-4.418,3.316,3.316,0,0,1,4.577,0,3.049,3.049,0,0,1,0,4.418A3.321,3.321,0,0,1,347.5,719.873Z" transform="translate(-308.904 -678.202)" fill="#ede3b7"/>
            <path id="Trazado_100365" data-name="Trazado 100365" d="M343.354,724.015a3.049,3.049,0,0,1,0-4.418,3.318,3.318,0,0,1,4.577,0,3.044,3.044,0,0,1,0,4.418A3.316,3.316,0,0,1,343.354,724.015Z" transform="translate(-292.212 -670.232)" fill="#ede3b7"/>
            <path id="Trazado_100366" data-name="Trazado 100366" d="M339.212,728.159a3.053,3.053,0,0,1,0-4.421,3.325,3.325,0,0,1,4.58,0,3.053,3.053,0,0,1,0,4.421A3.325,3.325,0,0,1,339.212,728.159Z" transform="translate(-275.522 -662.262)" fill="#ede3b7"/>
            <path id="Trazado_100367" data-name="Trazado 100367" d="M335.071,732.3a3.044,3.044,0,0,1,0-4.418,3.316,3.316,0,0,1,4.577,0,3.044,3.044,0,0,1,0,4.418A3.321,3.321,0,0,1,335.071,732.3Z" transform="translate(-258.832 -654.292)" fill="#ede3b7"/>
            <path id="Trazado_100368" data-name="Trazado 100368" d="M330.927,736.441a3.049,3.049,0,0,1,0-4.418,3.325,3.325,0,0,1,4.58,0,3.049,3.049,0,0,1,0,4.418A3.319,3.319,0,0,1,330.927,736.441Z" transform="translate(-242.14 -646.322)" fill="#ede3b7"/>
          </g>
          <g id="Grupo_53708" data-name="Grupo 53708" transform="translate(2.283 313.244)">
            <path id="Trazado_100369" data-name="Trazado 100369" d="M360.814,712.477a3.044,3.044,0,0,1,0-4.418,3.316,3.316,0,0,1,4.577,0,3.044,3.044,0,0,1,0,4.418A3.321,3.321,0,0,1,360.814,712.477Z" transform="translate(-359.864 -707.143)" fill="#ede3b7"/>
            <path id="Trazado_100370" data-name="Trazado 100370" d="M356.67,716.618a3.049,3.049,0,0,1,0-4.418,3.322,3.322,0,0,1,4.58,0,3.049,3.049,0,0,1,0,4.418A3.319,3.319,0,0,1,356.67,716.618Z" transform="translate(-343.173 -699.172)" fill="#ede3b7"/>
            <path id="Trazado_100371" data-name="Trazado 100371" d="M352.53,720.763a3.048,3.048,0,0,1,0-4.421,3.321,3.321,0,0,1,4.577,0,3.053,3.053,0,0,1,0,4.421A3.321,3.321,0,0,1,352.53,720.763Z" transform="translate(-326.483 -691.203)" fill="#ede3b7"/>
            <path id="Trazado_100372" data-name="Trazado 100372" d="M348.386,724.9a3.047,3.047,0,0,1,0-4.418,3.315,3.315,0,0,1,4.577,0,3.044,3.044,0,0,1,0,4.418A3.321,3.321,0,0,1,348.386,724.9Z" transform="translate(-309.792 -683.233)" fill="#ede3b7"/>
            <path id="Trazado_100373" data-name="Trazado 100373" d="M344.243,729.045a3.049,3.049,0,0,1,0-4.418,3.324,3.324,0,0,1,4.58,0,3.049,3.049,0,0,1,0,4.418A3.319,3.319,0,0,1,344.243,729.045Z" transform="translate(-293.101 -675.263)" fill="#ede3b7"/>
            <path id="Trazado_100374" data-name="Trazado 100374" d="M340.1,733.19a3.048,3.048,0,0,1,0-4.421,3.321,3.321,0,0,1,4.577,0,3.053,3.053,0,0,1,0,4.421A3.321,3.321,0,0,1,340.1,733.19Z" transform="translate(-276.411 -667.294)" fill="#ede3b7"/>
            <path id="Trazado_100375" data-name="Trazado 100375" d="M335.958,737.331a3.049,3.049,0,0,1,0-4.418,3.315,3.315,0,0,1,4.577,0,3.044,3.044,0,0,1,0,4.418A3.315,3.315,0,0,1,335.958,737.331Z" transform="translate(-259.719 -659.324)" fill="#ede3b7"/>
            <ellipse id="Elipse_3982" data-name="Elipse 3982" cx="3.238" cy="3.125" rx="3.238" ry="3.125" transform="translate(87.839 84.785)" fill="#ede3b7"/>
          </g>
          <g id="Grupo_53709" data-name="Grupo 53709" transform="translate(0 327.954)">
            <path id="Trazado_100376" data-name="Trazado 100376" d="M360.753,713.81a3.012,3.012,0,0,1,.539-.719,3.315,3.315,0,0,1,4.577,0,3.044,3.044,0,0,1,0,4.418,3.321,3.321,0,0,1-4.577,0,3.016,3.016,0,0,1-.539-.722Z" transform="translate(-360.753 -712.174)" fill="#ede3b7"/>
            <ellipse id="Elipse_3983" data-name="Elipse 3983" cx="3.237" cy="3.125" rx="3.237" ry="3.125" transform="translate(12.14 12.112)" fill="#ede3b7"/>
            <path id="Trazado_100377" data-name="Trazado 100377" d="M353.418,725.794a3.048,3.048,0,0,1,0-4.421,3.321,3.321,0,0,1,4.577,0,3.048,3.048,0,0,1,0,4.421A3.321,3.321,0,0,1,353.418,725.794Z" transform="translate(-327.781 -696.234)" fill="#ede3b7"/>
            <path id="Trazado_100378" data-name="Trazado 100378" d="M349.274,729.935a3.049,3.049,0,0,1,0-4.418,3.319,3.319,0,0,1,4.58,0,3.049,3.049,0,0,1,0,4.418A3.319,3.319,0,0,1,349.274,729.935Z" transform="translate(-311.09 -688.264)" fill="#ede3b7"/>
            <path id="Trazado_100379" data-name="Trazado 100379" d="M345.134,734.079a3.048,3.048,0,0,1,0-4.421,3.321,3.321,0,0,1,4.577,0,3.052,3.052,0,0,1,0,4.421A3.321,3.321,0,0,1,345.134,734.079Z" transform="translate(-294.4 -680.294)" fill="#ede3b7"/>
            <path id="Trazado_100380" data-name="Trazado 100380" d="M340.989,738.221a3.053,3.053,0,0,1,0-4.421,3.321,3.321,0,0,1,4.577,0,3.048,3.048,0,0,1,0,4.421A3.321,3.321,0,0,1,340.989,738.221Z" transform="translate(-277.707 -672.325)" fill="#ede3b7"/>
            <path id="Trazado_100381" data-name="Trazado 100381" d="M336.847,742.362a3.049,3.049,0,0,1,0-4.418,3.319,3.319,0,0,1,4.58,0,3.049,3.049,0,0,1,0,4.418A3.319,3.319,0,0,1,336.847,742.362Z" transform="translate(-261.018 -664.355)" fill="#ede3b7"/>
          </g>
        </g>
        <path id="Trazado_100382" data-name="Trazado 100382" d="M213.3,906.682V891.788l226.726-211.06L682.75,906.682Z" transform="translate(-213.298 -356.987)" fill="#f7f1d7"/>
        <g id="Grupo_53711" data-name="Grupo 53711">
          <path id="Trazado_100383" data-name="Trazado 100383" d="M342.8,609.849l44.612-43.062H403.25L342.8,625.134Z" transform="translate(-342.802 -566.787)" fill="#fff"/>
          <path id="Trazado_100384" data-name="Trazado 100384" d="M333.863,635.985l71.69-69.2h15.836l-84.567,81.627-2.959-2.856Z" transform="translate(-333.863 -566.787)" fill="#fff"/>
          <path id="Trazado_100385" data-name="Trazado 100385" d="M430.948,566.787l-98.106,94.7-7.918-7.643,90.188-87.053Z" transform="translate(-316.344 -566.787)" fill="#fff"/>
          <path id="Trazado_100386" data-name="Trazado 100386" d="M435.548,566.787,323.9,674.551l-7.918-7.643L419.713,566.787Z" transform="translate(-293.866 -566.787)" fill="#fff"/>
          <path id="Trazado_100387" data-name="Trazado 100387" d="M440.148,566.787,314.965,687.62l-7.918-7.643,117.266-113.19Z" transform="translate(-271.389 -566.787)" fill="#fff"/>
          <path id="Trazado_100388" data-name="Trazado 100388" d="M444.749,566.787l-138.723,133.9-7.918-7.642,130.8-126.258Z" transform="translate(-248.911 -566.787)" fill="#fff"/>
        </g>
        <path id="Trazado_100460" data-name="Trazado 100460" d="M0,0,49.053.868l.868,49.053L.868,49.053Z" transform="translate(210.834 84.101) rotate(-45)" fill="#fff"/>
        <g id="Grupo_53716" data-name="Grupo 53716" transform="translate(71.83 97.29)" style="isolation: isolate">
          <g id="Grupo_53712" data-name="Grupo 53712" transform="translate(33.965)">
            <path id="Trazado_100389" data-name="Trazado 100389" d="M307.682,600.753v6.97h26.282v25.369h26.282v25.369h26.283v45.288h-6.634V664.865H353.613V639.5H327.331V614.127H301.048v-6.97Z" transform="translate(-301.048 -600.753)" fill="#fff"/>
          </g>
          <g id="Grupo_53713" data-name="Grupo 53713" transform="translate(22.643 10.928)">
            <path id="Trazado_100390" data-name="Trazado 100390" d="M311.42,604.491v6.97H337.7V636.83h26.282V662.2h26.283v45.287h-6.633V668.6H357.35V643.233H331.068V617.864H304.785v-6.97Z" transform="translate(-304.785 -604.491)" fill="#fff"/>
          </g>
          <g id="Grupo_53714" data-name="Grupo 53714" transform="translate(11.321 21.856)">
            <path id="Trazado_100391" data-name="Trazado 100391" d="M315.157,608.228v6.97h26.282v25.369h26.282v25.369H394v45.287H387.37V672.339H361.088V646.97H334.805V621.6H308.523v-6.97Z" transform="translate(-308.523 -608.228)" fill="#fff"/>
          </g>
          <g id="Grupo_53715" data-name="Grupo 53715" transform="translate(0 32.784)">
            <path id="Trazado_100392" data-name="Trazado 100392" d="M318.894,611.965v6.97h26.282V644.3h26.283v25.369h26.283V714.96h-6.633V676.077H364.825V650.708H338.543V625.339H312.26v-6.97Z" transform="translate(-312.26 -611.965)" fill="#fff"/>
          </g>
        </g>
      </g>
      <g id="Grupo_53730" data-name="Grupo 53730" transform="translate(1148.506 26.502)">
        <g id="Grupo_53729" data-name="Grupo 53729">
          <g id="Grupo_53727" data-name="Grupo 53727">
            <g id="Grupo_53718" data-name="Grupo 53718" transform="translate(172.251)">
              <path id="Trazado_100393" data-name="Trazado 100393" d="M181.393,566.787a3.577,3.577,0,0,1-.484,4.621,3.9,3.9,0,0,1-5.386,0,3.581,3.581,0,0,1-.484-4.621Z" transform="translate(-174.41 -566.787)" fill="#fffcef"/>
              <path id="Trazado_100394" data-name="Trazado 100394" d="M171.93,571.518a3.894,3.894,0,0,1,4.556-.585V577.3a3.9,3.9,0,0,1-4.556-.588A3.583,3.583,0,0,1,171.93,571.518Z" transform="translate(-156.06 -557.851)" fill="#fffcef"/>
            </g>
            <g id="Grupo_53719" data-name="Grupo 53719" transform="translate(154.33 1.405)">
              <path id="Trazado_100395" data-name="Trazado 100395" d="M180.555,573.468a3.586,3.586,0,0,1,0-5.2,3.9,3.9,0,0,1,5.386,0,3.586,3.586,0,0,1,0,5.2A3.9,3.9,0,0,1,180.555,573.468Z" transform="translate(-179.441 -567.195)" fill="#fffcef"/>
              <path id="Trazado_100396" data-name="Trazado 100396" d="M176.415,577.612a3.583,3.583,0,0,1,0-5.2,3.905,3.905,0,0,1,5.382,0,3.584,3.584,0,0,1,0,5.2A3.905,3.905,0,0,1,176.415,577.612Z" transform="translate(-160.544 -557.095)" fill="#fffcef"/>
              <path id="Trazado_100397" data-name="Trazado 100397" d="M172.27,581.753a3.585,3.585,0,0,1,0-5.195,3.9,3.9,0,0,1,5.386,0,3.585,3.585,0,0,1,0,5.195A3.909,3.909,0,0,1,172.27,581.753Z" transform="translate(-141.645 -546.995)" fill="#fffcef"/>
            </g>
            <g id="Grupo_53720" data-name="Grupo 53720" transform="translate(136.409 4.461)">
              <ellipse id="Elipse_3984" data-name="Elipse 3984" cx="3.807" cy="3.674" rx="3.807" ry="3.674" fill="#fffcef"/>
              <path id="Trazado_100398" data-name="Trazado 100398" d="M181.447,578.5a3.58,3.58,0,0,1,0-5.2,3.905,3.905,0,0,1,5.382,0,3.585,3.585,0,0,1,0,5.2A3.9,3.9,0,0,1,181.447,578.5Z" transform="translate(-165.575 -557.984)" fill="#fffcef"/>
              <path id="Trazado_100399" data-name="Trazado 100399" d="M177.3,582.643a3.589,3.589,0,0,1,0-5.2,3.905,3.905,0,0,1,5.382,0,3.583,3.583,0,0,1,0,5.2A3.9,3.9,0,0,1,177.3,582.643Z" transform="translate(-146.676 -547.885)" fill="#fffcef"/>
              <path id="Trazado_100400" data-name="Trazado 100400" d="M173.159,586.784a3.585,3.585,0,0,1,0-5.2,3.9,3.9,0,0,1,5.386,0,3.585,3.585,0,0,1,0,5.2A3.906,3.906,0,0,1,173.159,586.784Z" transform="translate(-127.781 -537.786)" fill="#fffcef"/>
            </g>
            <g id="Grupo_53721" data-name="Grupo 53721" transform="translate(105.423)">
              <path id="Trazado_100401" data-name="Trazado 100401" d="M198.355,566.787a3.918,3.918,0,0,1-4.235,0Z" transform="translate(-194.12 -566.787)" fill="#fffcef"/>
              <path id="Trazado_100402" data-name="Trazado 100402" d="M190.617,575.247a3.589,3.589,0,0,1,0-5.2,3.91,3.91,0,0,1,5.386,0,3.589,3.589,0,0,1,0,5.2A3.909,3.909,0,0,1,190.617,575.247Z" transform="translate(-176.437 -561.456)" fill="#fffcef"/>
              <path id="Trazado_100403" data-name="Trazado 100403" d="M186.478,579.388a3.582,3.582,0,0,1,0-5.2,3.9,3.9,0,0,1,5.386,0,3.585,3.585,0,0,1,0,5.2A3.905,3.905,0,0,1,186.478,579.388Z" transform="translate(-157.541 -551.357)" fill="#fffcef"/>
              <path id="Trazado_100404" data-name="Trazado 100404" d="M182.332,583.529a3.585,3.585,0,0,1,0-5.2,3.905,3.905,0,0,1,5.382,0,3.579,3.579,0,0,1,0,5.2A3.9,3.9,0,0,1,182.332,583.529Z" transform="translate(-138.642 -541.257)" fill="#fffcef"/>
              <path id="Trazado_100405" data-name="Trazado 100405" d="M178.19,587.674a3.589,3.589,0,0,1,0-5.2,3.909,3.909,0,0,1,5.386,0,3.589,3.589,0,0,1,0,5.2A3.909,3.909,0,0,1,178.19,587.674Z" transform="translate(-119.746 -531.158)" fill="#fffcef"/>
              <path id="Trazado_100406" data-name="Trazado 100406" d="M174.051,591.815a3.579,3.579,0,0,1,0-5.2,3.9,3.9,0,0,1,5.382,0,3.585,3.585,0,0,1,0,5.2A3.9,3.9,0,0,1,174.051,591.815Z" transform="translate(-100.849 -521.058)" fill="#fffcef"/>
            </g>
            <g id="Grupo_53722" data-name="Grupo 53722" transform="translate(85.815)">
              <path id="Trazado_100407" data-name="Trazado 100407" d="M206.289,566.787a3.6,3.6,0,0,1-1.115,2.6,3.905,3.905,0,0,1-5.382,0,3.589,3.589,0,0,1-1.115-2.6Z" transform="translate(-198.677 -566.787)" fill="#fffcef"/>
              <path id="Trazado_100408" data-name="Trazado 100408" d="M195.648,576.132a3.585,3.585,0,0,1,0-5.2,3.905,3.905,0,0,1,5.382,0,3.579,3.579,0,0,1,0,5.2A3.9,3.9,0,0,1,195.648,576.132Z" transform="translate(-179.78 -559.289)" fill="#fffcef"/>
              <path id="Trazado_100409" data-name="Trazado 100409" d="M191.506,580.278a3.589,3.589,0,0,1,0-5.2,3.91,3.91,0,0,1,5.386,0,3.589,3.589,0,0,1,0,5.2A3.909,3.909,0,0,1,191.506,580.278Z" transform="translate(-160.884 -549.19)" fill="#fffcef"/>
              <path id="Trazado_100410" data-name="Trazado 100410" d="M187.366,584.419a3.579,3.579,0,0,1,0-5.2,3.9,3.9,0,0,1,5.382,0,3.579,3.579,0,0,1,0,5.2A3.9,3.9,0,0,1,187.366,584.419Z" transform="translate(-141.987 -539.091)" fill="#fffcef"/>
              <path id="Trazado_100411" data-name="Trazado 100411" d="M183.221,588.563a3.59,3.59,0,0,1,0-5.2,3.91,3.91,0,0,1,5.386,0,3.59,3.59,0,0,1,0,5.2A3.91,3.91,0,0,1,183.221,588.563Z" transform="translate(-123.088 -528.99)" fill="#fffcef"/>
              <path id="Trazado_100412" data-name="Trazado 100412" d="M179.082,592.7a3.586,3.586,0,0,1,0-5.2,3.906,3.906,0,0,1,5.386,0,3.585,3.585,0,0,1,0,5.2A3.905,3.905,0,0,1,179.082,592.7Z" transform="translate(-104.192 -518.891)" fill="#fffcef"/>
              <path id="Trazado_100413" data-name="Trazado 100413" d="M174.939,596.845a3.579,3.579,0,0,1,0-5.2,3.9,3.9,0,0,1,5.382,0,3.579,3.579,0,0,1,0,5.2A3.9,3.9,0,0,1,174.939,596.845Z" transform="translate(-85.295 -508.79)" fill="#fffcef"/>
              <path id="Trazado_100414" data-name="Trazado 100414" d="M171.927,595.777a3.862,3.862,0,0,1,2.465-1.056v7.31a3.861,3.861,0,0,1-2.465-1.056A3.589,3.589,0,0,1,171.927,595.777Z" transform="translate(-67.53 -498.677)" fill="#fffcef"/>
            </g>
            <g id="Grupo_53723" data-name="Grupo 53723" transform="translate(67.892)">
              <path id="Trazado_100415" data-name="Trazado 100415" d="M205.41,566.787h4.214a3.878,3.878,0,0,1,.584.461,3.589,3.589,0,0,1,0,5.2,3.91,3.91,0,0,1-5.386,0,3.589,3.589,0,0,1,0-5.2A4.091,4.091,0,0,1,205.41,566.787Z" transform="translate(-203.708 -566.787)" fill="#fffcef"/>
              <path id="Trazado_100416" data-name="Trazado 100416" d="M200.681,577.023a3.582,3.582,0,0,1,0-5.2,3.9,3.9,0,0,1,5.382,0,3.579,3.579,0,0,1,0,5.2A3.9,3.9,0,0,1,200.681,577.023Z" transform="translate(-184.81 -557.123)" fill="#fffcef"/>
              <path id="Trazado_100417" data-name="Trazado 100417" d="M196.537,581.167a3.589,3.589,0,0,1,0-5.2,3.91,3.91,0,0,1,5.386,0,3.589,3.589,0,0,1,0,5.2A3.909,3.909,0,0,1,196.537,581.167Z" transform="translate(-165.912 -547.023)" fill="#fffcef"/>
              <path id="Trazado_100418" data-name="Trazado 100418" d="M192.4,585.309a3.583,3.583,0,0,1,0-5.2,3.9,3.9,0,0,1,5.382,0,3.585,3.585,0,0,1,0,5.2A3.9,3.9,0,0,1,192.4,585.309Z" transform="translate(-147.016 -536.924)" fill="#fffcef"/>
              <path id="Trazado_100419" data-name="Trazado 100419" d="M188.253,589.448a3.585,3.585,0,0,1,0-5.2,3.9,3.9,0,0,1,5.382,0,3.579,3.579,0,0,1,0,5.2A3.9,3.9,0,0,1,188.253,589.448Z" transform="translate(-128.117 -526.823)" fill="#fffcef"/>
              <path id="Trazado_100420" data-name="Trazado 100420" d="M184.11,593.594a3.589,3.589,0,0,1,0-5.2,3.91,3.91,0,0,1,5.386,0,3.589,3.589,0,0,1,0,5.2A3.91,3.91,0,0,1,184.11,593.594Z" transform="translate(-109.221 -516.724)" fill="#fffcef"/>
              <path id="Trazado_100421" data-name="Trazado 100421" d="M179.97,597.735a3.579,3.579,0,0,1,0-5.195,3.9,3.9,0,0,1,5.382,0,3.579,3.579,0,0,1,0,5.195A3.9,3.9,0,0,1,179.97,597.735Z" transform="translate(-90.324 -506.625)" fill="#fffcef"/>
              <path id="Trazado_100422" data-name="Trazado 100422" d="M175.825,601.876a3.585,3.585,0,0,1,0-5.2,3.909,3.909,0,0,1,5.386,0,3.585,3.585,0,0,1,0,5.2A3.9,3.9,0,0,1,175.825,601.876Z" transform="translate(-71.425 -496.524)" fill="#fffcef"/>
              <path id="Trazado_100423" data-name="Trazado 100423" d="M171.927,600.822a3.91,3.91,0,0,1,5.386,0c.093.093.164.2.246.292v4.614c-.082.1-.153.2-.246.292a3.91,3.91,0,0,1-5.386,0A3.59,3.59,0,0,1,171.927,600.822Z" transform="translate(-52.773 -486.425)" fill="#fffcef"/>
            </g>
            <g id="Grupo_53724" data-name="Grupo 53724" transform="translate(49.972 2.442)">
              <path id="Trazado_100424" data-name="Trazado 100424" d="M209.853,573.771a3.589,3.589,0,0,1,0-5.2,3.91,3.91,0,0,1,5.386,0,3.589,3.589,0,0,1,0,5.2A3.909,3.909,0,0,1,209.853,573.771Z" transform="translate(-208.739 -567.497)" fill="#fffcef"/>
              <path id="Trazado_100425" data-name="Trazado 100425" d="M205.713,577.912a3.579,3.579,0,0,1,0-5.2,3.9,3.9,0,0,1,5.382,0,3.579,3.579,0,0,1,0,5.2A3.905,3.905,0,0,1,205.713,577.912Z" transform="translate(-189.842 -557.398)" fill="#fffcef"/>
              <path id="Trazado_100426" data-name="Trazado 100426" d="M201.568,582.053a3.586,3.586,0,0,1,0-5.2,3.91,3.91,0,0,1,5.386,0,3.586,3.586,0,0,1,0,5.2A3.9,3.9,0,0,1,201.568,582.053Z" transform="translate(-170.943 -547.297)" fill="#fffcef"/>
              <path id="Trazado_100427" data-name="Trazado 100427" d="M197.429,586.2a3.583,3.583,0,0,1,0-5.2,3.9,3.9,0,0,1,5.382,0,3.589,3.589,0,0,1,0,5.2A3.905,3.905,0,0,1,197.429,586.2Z" transform="translate(-152.047 -537.198)" fill="#fffcef"/>
              <path id="Trazado_100428" data-name="Trazado 100428" d="M193.283,590.339a3.585,3.585,0,0,1,0-5.2,3.9,3.9,0,0,1,5.382,0,3.579,3.579,0,0,1,0,5.2A3.905,3.905,0,0,1,193.283,590.339Z" transform="translate(-133.148 -527.099)" fill="#fffcef"/>
              <path id="Trazado_100429" data-name="Trazado 100429" d="M189.141,594.48a3.585,3.585,0,0,1,0-5.2,3.91,3.91,0,0,1,5.386,0,3.586,3.586,0,0,1,0,5.2A3.9,3.9,0,0,1,189.141,594.48Z" transform="translate(-114.252 -516.999)" fill="#fffcef"/>
              <path id="Trazado_100430" data-name="Trazado 100430" d="M185,598.625a3.583,3.583,0,0,1,0-5.2,3.905,3.905,0,0,1,5.382,0,3.589,3.589,0,0,1,0,5.2A3.9,3.9,0,0,1,185,598.625Z" transform="translate(-95.355 -506.899)" fill="#fffcef"/>
              <path id="Trazado_100431" data-name="Trazado 100431" d="M180.857,602.766a3.585,3.585,0,0,1,0-5.195,3.9,3.9,0,0,1,5.382,0,3.579,3.579,0,0,1,0,5.195A3.9,3.9,0,0,1,180.857,602.766Z" transform="translate(-76.456 -496.8)" fill="#fffcef"/>
              <path id="Trazado_100432" data-name="Trazado 100432" d="M176.714,606.91a3.59,3.59,0,0,1,0-5.2,3.91,3.91,0,0,1,5.386,0,3.59,3.59,0,0,1,0,5.2A3.91,3.91,0,0,1,176.714,606.91Z" transform="translate(-57.561 -486.699)" fill="#fffcef"/>
              <path id="Trazado_100433" data-name="Trazado 100433" d="M172.574,611.051a3.58,3.58,0,0,1,0-5.2,3.9,3.9,0,0,1,5.382,0,3.58,3.58,0,0,1,0,5.2A3.905,3.905,0,0,1,172.574,611.051Z" transform="translate(-38.663 -476.6)" fill="#fffcef"/>
            </g>
            <g id="Grupo_53725" data-name="Grupo 53725" transform="translate(32.051 5.498)">
              <path id="Trazado_100434" data-name="Trazado 100434" d="M214.884,574.657a3.586,3.586,0,0,1,0-5.2,3.91,3.91,0,0,1,5.386,0,3.586,3.586,0,0,1,0,5.2A3.9,3.9,0,0,1,214.884,574.657Z" transform="translate(-213.77 -568.386)" fill="#fffcef"/>
              <path id="Trazado_100435" data-name="Trazado 100435" d="M210.745,578.8a3.584,3.584,0,0,1,0-5.2,3.905,3.905,0,0,1,5.382,0,3.59,3.59,0,0,1,0,5.2A3.905,3.905,0,0,1,210.745,578.8Z" transform="translate(-194.874 -558.287)" fill="#fffcef"/>
              <path id="Trazado_100436" data-name="Trazado 100436" d="M206.6,582.943a3.585,3.585,0,0,1,0-5.2,3.9,3.9,0,0,1,5.382,0,3.579,3.579,0,0,1,0,5.2A3.9,3.9,0,0,1,206.6,582.943Z" transform="translate(-175.975 -548.188)" fill="#fffcef"/>
              <path id="Trazado_100437" data-name="Trazado 100437" d="M202.457,587.083a3.585,3.585,0,0,1,0-5.2,3.909,3.909,0,0,1,5.386,0,3.585,3.585,0,0,1,0,5.2A3.9,3.9,0,0,1,202.457,587.083Z" transform="translate(-157.079 -538.087)" fill="#fffcef"/>
              <path id="Trazado_100438" data-name="Trazado 100438" d="M198.317,591.229a3.583,3.583,0,0,1,0-5.2,3.905,3.905,0,0,1,5.382,0,3.583,3.583,0,0,1,0,5.2A3.905,3.905,0,0,1,198.317,591.229Z" transform="translate(-138.182 -527.988)" fill="#fffcef"/>
              <path id="Trazado_100439" data-name="Trazado 100439" d="M194.172,595.37a3.585,3.585,0,0,1,0-5.195,3.9,3.9,0,0,1,5.386,0,3.585,3.585,0,0,1,0,5.195A3.9,3.9,0,0,1,194.172,595.37Z" transform="translate(-119.283 -517.889)" fill="#fffcef"/>
              <path id="Trazado_100440" data-name="Trazado 100440" d="M190.033,599.514a3.584,3.584,0,0,1,0-5.2,3.905,3.905,0,0,1,5.382,0,3.589,3.589,0,0,1,0,5.2A3.905,3.905,0,0,1,190.033,599.514Z" transform="translate(-100.387 -507.789)" fill="#fffcef"/>
              <path id="Trazado_100441" data-name="Trazado 100441" d="M185.887,603.656a3.589,3.589,0,0,1,0-5.2,3.9,3.9,0,0,1,5.382,0,3.583,3.583,0,0,1,0,5.2A3.9,3.9,0,0,1,185.887,603.656Z" transform="translate(-81.487 -497.69)" fill="#fffcef"/>
              <path id="Trazado_100442" data-name="Trazado 100442" d="M181.745,607.8a3.585,3.585,0,0,1,0-5.2,3.906,3.906,0,0,1,5.386,0,3.585,3.585,0,0,1,0,5.2A3.9,3.9,0,0,1,181.745,607.8Z" transform="translate(-62.592 -487.589)" fill="#fffcef"/>
              <ellipse id="Elipse_3985" data-name="Elipse 3985" cx="3.807" cy="3.674" rx="3.807" ry="3.674" transform="translate(132.794 128.177)" fill="#fffcef"/>
              <path id="Trazado_100443" data-name="Trazado 100443" d="M173.461,616.082a3.585,3.585,0,0,1,0-5.195,3.9,3.9,0,0,1,5.382,0,3.579,3.579,0,0,1,0,5.195A3.9,3.9,0,0,1,173.461,616.082Z" transform="translate(-24.796 -467.39)" fill="#fffcef"/>
            </g>
            <g id="Grupo_53726" data-name="Grupo 53726">
              <path id="Trazado_100444" data-name="Trazado 100444" d="M229.484,566.787a3.625,3.625,0,0,1-.492.584,3.9,3.9,0,0,1-5.382,0,3.624,3.624,0,0,1-.492-.584Z" transform="translate(-223.119 -566.787)" fill="#fffcef"/>
              <path id="Trazado_100445" data-name="Trazado 100445" d="M219.915,575.547a3.585,3.585,0,0,1,0-5.2,3.9,3.9,0,0,1,5.386,0,3.585,3.585,0,0,1,0,5.2A3.91,3.91,0,0,1,219.915,575.547Z" transform="translate(-204.67 -560.722)" fill="#fffcef"/>
              <path id="Trazado_100446" data-name="Trazado 100446" d="M215.776,579.688a3.58,3.58,0,0,1,0-5.2,3.905,3.905,0,0,1,5.382,0,3.586,3.586,0,0,1,0,5.2A3.9,3.9,0,0,1,215.776,579.688Z" transform="translate(-185.774 -550.621)" fill="#fffcef"/>
              <path id="Trazado_100447" data-name="Trazado 100447" d="M211.63,583.833a3.589,3.589,0,0,1,0-5.2,3.905,3.905,0,0,1,5.382,0,3.583,3.583,0,0,1,0,5.2A3.9,3.9,0,0,1,211.63,583.833Z" transform="translate(-166.875 -540.523)" fill="#fffcef"/>
              <path id="Trazado_100448" data-name="Trazado 100448" d="M207.488,587.974a3.585,3.585,0,0,1,0-5.195,3.9,3.9,0,0,1,5.386,0,3.585,3.585,0,0,1,0,5.195A3.9,3.9,0,0,1,207.488,587.974Z" transform="translate(-147.979 -530.423)" fill="#fffcef"/>
              <path id="Trazado_100449" data-name="Trazado 100449" d="M203.349,592.118a3.584,3.584,0,0,1,0-5.2,3.905,3.905,0,0,1,5.382,0,3.59,3.59,0,0,1,0,5.2A3.905,3.905,0,0,1,203.349,592.118Z" transform="translate(-129.082 -520.323)" fill="#fffcef"/>
              <path id="Trazado_100450" data-name="Trazado 100450" d="M199.2,596.26a3.589,3.589,0,0,1,0-5.2,3.905,3.905,0,0,1,5.382,0,3.583,3.583,0,0,1,0,5.2A3.9,3.9,0,0,1,199.2,596.26Z" transform="translate(-110.183 -510.224)" fill="#fffcef"/>
              <path id="Trazado_100451" data-name="Trazado 100451" d="M195.061,600.4a3.585,3.585,0,0,1,0-5.2,3.9,3.9,0,0,1,5.386,0,3.585,3.585,0,0,1,0,5.2A3.9,3.9,0,0,1,195.061,600.4Z" transform="translate(-91.287 -500.125)" fill="#fffcef"/>
              <path id="Trazado_100452" data-name="Trazado 100452" d="M190.921,604.545a3.583,3.583,0,0,1,0-5.2,3.9,3.9,0,0,1,5.382,0,3.583,3.583,0,0,1,0,5.2A3.9,3.9,0,0,1,190.921,604.545Z" transform="translate(-72.39 -490.024)" fill="#fffcef"/>
              <path id="Trazado_100453" data-name="Trazado 100453" d="M186.776,608.686a3.585,3.585,0,0,1,0-5.2,3.9,3.9,0,0,1,5.386,0,3.585,3.585,0,0,1,0,5.2A3.909,3.909,0,0,1,186.776,608.686Z" transform="translate(-53.491 -479.924)" fill="#fffcef"/>
              <path id="Trazado_100454" data-name="Trazado 100454" d="M182.637,612.826a3.579,3.579,0,0,1,0-5.2,3.905,3.905,0,0,1,5.382,0,3.585,3.585,0,0,1,0,5.2A3.9,3.9,0,0,1,182.637,612.826Z" transform="translate(-34.595 -469.824)" fill="#fffcef"/>
              <path id="Trazado_100455" data-name="Trazado 100455" d="M178.493,616.972a3.586,3.586,0,0,1,0-5.2,3.905,3.905,0,0,1,5.382,0,3.583,3.583,0,0,1,0,5.2A3.905,3.905,0,0,1,178.493,616.972Z" transform="translate(-15.697 -459.725)" fill="#fffcef"/>
              <path id="Trazado_100456" data-name="Trazado 100456" d="M174.349,621.113a3.585,3.585,0,0,1,0-5.2,3.9,3.9,0,0,1,5.386,0,3.585,3.585,0,0,1,0,5.2A3.9,3.9,0,0,1,174.349,621.113Z" transform="translate(3.2 -449.626)" fill="#fffcef"/>
              <path id="Trazado_100457" data-name="Trazado 100457" d="M171.93,619.505a3.721,3.721,0,0,1,.37-.3V625a3.281,3.281,0,0,1-.37-.3A3.579,3.579,0,0,1,171.93,619.505Z" transform="translate(20.377 -438.972)" fill="#fffcef"/>
            </g>
          </g>
          <g id="Grupo_53728" data-name="Grupo 53728" transform="translate(104.533 321.36)">
            <path id="Trazado_100458" data-name="Trazado 100458" d="M218.31,660.256l-51.883,50.077,51.883,50.08,51.883-50.08Zm-31.128,50.077,31.128-30.046,31.131,30.046L218.31,740.382Z" transform="translate(-166.427 -660.256)" fill="#fffcef"/>
          </g>
          <path id="Trazado_100459" data-name="Trazado 100459" d="M250.037,587.1V730.214L175.9,658.655Z" transform="translate(-75.487 -517.266)" fill="#ede3b7"/>
        </g>
      </g>
    </g>
  </g>
</svg>
