<svg xmlns="http://www.w3.org/2000/svg" width="127" height="127" viewBox="0 0 127 127">
  <g id="Grupo_1054980" data-name="Grupo 1054980" transform="translate(3662 8715)">
    <circle id="Elipse_4186" data-name="Elipse 4186" cx="63.5" cy="63.5" r="63.5" transform="translate(-3662 -8715)" fill="#f5947a"/>
    <circle id="Elipse_4185" data-name="Elipse 4185" cx="54.5" cy="54.5" r="54.5" transform="translate(-3653 -8706)" fill="#fff"/>
    <g id="modista_1_" data-name="modista (1)" transform="translate(-3631.051 -8684.335)">
      <path id="Trazado_774521" data-name="Trazado 774521" d="M37.039,23.094l21.2,8.832-.4,1.018H40.322V31.85L26.04,26.137,25,22H37.039Z" transform="translate(2.078 2.078)" fill="#efa53a"/>
      <path id="Trazado_774522" data-name="Trazado 774522" d="M49.094,15,48,16.094v6.567l1.094,1.094h3.283a2.2,2.2,0,0,0,2.189-2.189V17.189A2.2,2.2,0,0,0,52.378,15Z" transform="translate(4.25 1.417)" fill="#d3953b"/>
      <path id="Trazado_774523" data-name="Trazado 774523" d="M24.283,23.756H51.645V15H21Z" transform="translate(1.7 1.417)" fill="#fdc64e"/>
      <path id="Trazado_774524" data-name="Trazado 774524" d="M15.941,52.378H12.548a1.094,1.094,0,0,0-1.011.676L9.2,58.691a2.189,2.189,0,0,1-4.039-1.673L7.776,50.7A4.378,4.378,0,0,1,11.826,48h4.115Z" transform="translate(0.192 4.534)" fill="#8f5f4d"/>
      <path id="Trazado_774525" data-name="Trazado 774525" d="M17,52.378h3.393a1.094,1.094,0,0,1,1.011.676l2.336,5.638a2.189,2.189,0,0,0,4.039-1.673L25.165,50.7A4.378,4.378,0,0,0,21.115,48H17Z" transform="translate(1.322 4.534)" fill="#8f5f4d"/>
      <path id="Trazado_774526" data-name="Trazado 774526" d="M18.378,43V58.322a2.189,2.189,0,1,1-4.378,0V43Z" transform="translate(1.039 4.061)" fill="#824f40"/>
      <path id="Trazado_774527" data-name="Trazado 774527" d="M30.157,42.589c.044.471.077.9.1,1.27a2.72,2.72,0,0,1-1.818,2.758c-1.845.679-5.272,1.445-11.3,1.445S7.674,47.3,5.824,46.617a2.72,2.72,0,0,1-1.818-2.758c.351-5.428,2.182-22.086,7.655-30.82,0,0-2.189-4.465-2.189-7.5a4.6,4.6,0,0,1,7.661-3.371,4.6,4.6,0,0,1,7.661,3.371c0,3.032-2.189,7.5-2.189,7.5C26,18.446,27.993,26.895,29.1,33.834Z" transform="translate(0.094 0.094)" fill="#e8e8f2"/>
      <path id="Trazado_774528" data-name="Trazado 774528" d="M26.472,31l1.094,1.094v6.567l-1.094,1.094H23.189A2.2,2.2,0,0,1,21,37.567V33.189A2.2,2.2,0,0,1,23.189,31Z" transform="translate(1.7 2.928)" fill="#d3953b"/>
      <path id="Trazado_774529" data-name="Trazado 774529" d="M58.834,32.094v6.567a1.094,1.094,0,0,1-1.094,1.094H26V31H57.739A1.094,1.094,0,0,1,58.834,32.094Z" transform="translate(2.172 2.928)" fill="#fdc64e"/>
      <g id="Grupo_1054699" data-name="Grupo 1054699" transform="translate(3.002 0.002)">
        <path id="Trazado_774530" data-name="Trazado 774530" d="M56.628,41.589a1.094,1.094,0,0,0,0,2.189h3.283A2.189,2.189,0,0,0,62.1,41.589V35.022A2.189,2.189,0,0,0,60.732,33l-16.143-6.73H56.628a3.283,3.283,0,0,0,3.283-3.283V18.606a3.283,3.283,0,0,0-3.283-3.283H25.139c-.376-.789-.776-1.545-1.2-2.258a21.364,21.364,0,0,0,2.041-7.428A5.7,5.7,0,0,0,17.228.892,5.7,5.7,0,0,0,8.472,5.636a21.388,21.388,0,0,0,2.043,7.429c-6.125,10.347-7.451,29.973-7.5,30.809a3.824,3.824,0,0,0,2.53,3.863,29.243,29.243,0,0,0,8.4,1.429v2.272H12.013a5.455,5.455,0,0,0-5.055,3.379L4.344,61.133A3.283,3.283,0,0,0,10.4,63.643l2.336-5.638h1.2v4.378a3.283,3.283,0,0,0,6.567,0V58.006h1.2l2.334,5.636a3.28,3.28,0,1,0,6.061-2.511L27.5,54.82a5.454,5.454,0,0,0-5.055-3.381H20.511V49.167A29.242,29.242,0,0,0,28.9,47.744a3.824,3.824,0,0,0,2.542-3.857.516.516,0,0,0-.008-.109H52.25a1.094,1.094,0,0,0,0-2.189H29.267V35.022H32.55v2.189a1.094,1.094,0,1,0,2.189,0V35.022h3.283v2.189a1.094,1.094,0,1,0,2.189,0V35.022h3.283v2.189a1.094,1.094,0,0,0,2.189,0V35.022h3.283v2.189a1.094,1.094,0,1,0,2.189,0V35.022h3.283v2.189a1.094,1.094,0,1,0,2.189,0V35.022h3.283v6.567Zm-1.97-8.756H42.611L29.069,27.417c-.085-.382-.175-.766-.266-1.15H38.9Zm-24.535,0c-.153-.913-.328-1.861-.514-2.846l7.114,2.846Zm27.6-14.228v4.378a1.094,1.094,0,0,1-1.094,1.094H54.439V17.511h2.189A1.094,1.094,0,0,1,57.722,18.606ZM30.361,17.511V19.7a1.094,1.094,0,0,0,2.189,0V17.511h3.283V19.7a1.094,1.094,0,0,0,2.189,0V17.511h3.283V19.7a1.094,1.094,0,0,0,2.189,0V17.511h3.283V19.7a1.094,1.094,0,0,0,2.189,0V17.511H52.25v6.567h-24a57.7,57.7,0,0,0-2.156-6.567ZM12.74,55.817a2.179,2.179,0,0,0-2.021,1.351L8.381,62.808a1.094,1.094,0,0,1-1.423.586,1.078,1.078,0,0,1-.587-.587,1.1,1.1,0,0,1,0-.838l2.614-6.314a3.272,3.272,0,0,1,3.027-2.027h1.932v2.189Zm9.7-2.189a3.271,3.271,0,0,1,3.033,2.028l2.612,6.311a1.1,1.1,0,0,1,0,.841,1.078,1.078,0,0,1-.587.587,1.094,1.094,0,0,1-1.429-.588l-2.337-5.639a2.178,2.178,0,0,0-2.02-1.351h-1.2V53.628Zm-4.121,8.756a1.094,1.094,0,1,1-2.189,0V49.241c.356.005.719.009,1.094.009s.739,0,1.094-.009ZM29.267,44.032a1.619,1.619,0,0,1-1.1,1.652c-1.717.628-5,1.378-10.936,1.378s-9.219-.75-10.945-1.382a1.615,1.615,0,0,1-1.094-1.655c.489-7.6,2.617-22.538,7.487-30.31a1.094,1.094,0,0,0,.055-1.062c-.021-.044-2.079-4.278-2.079-7.017a3.5,3.5,0,0,1,5.835-2.559,1.094,1.094,0,0,0,1.469,0,3.5,3.5,0,0,1,5.84,2.559c0,2.736-2.056,6.973-2.079,7.017a1.094,1.094,0,0,0,.056,1.062c3.2,5.095,5.077,12.976,6.129,19.119H25.025a53.782,53.782,0,0,0-2.39-10.222,1.094,1.094,0,1,0-2.058.744,52.255,52.255,0,0,1,2.334,10.158,3.268,3.268,0,0,0-1.306,2.6v4.378a3.283,3.283,0,0,0,3.283,3.283h4.356c.005.084.013.174.022.254Zm-2.189-2.443H24.889a1.094,1.094,0,0,1-1.094-1.094V36.117a1.094,1.094,0,0,1,1.094-1.094h2.189Z" transform="translate(-3.002 -0.002)" fill="#373737"/>
        <path id="Trazado_774531" data-name="Trazado 774531" d="M12.749,20.066a1.088,1.088,0,0,0-1.4.657C10.134,24.1,8.569,30.305,8,40.734a1.094,1.094,0,0,0,1.034,1.155.572.572,0,0,0,.06,0,1.094,1.094,0,0,0,1.094-1.034c.553-10.165,2.056-16.155,3.22-19.389a1.094,1.094,0,0,0-.66-1.4Z" transform="translate(-2.53 1.887)" fill="#373737"/>
        <path id="Trazado_774532" data-name="Trazado 774532" d="M16.094,20A1.094,1.094,0,0,0,15,21.094v19.7a1.094,1.094,0,1,0,2.189,0v-19.7A1.094,1.094,0,0,0,16.094,20Z" transform="translate(-1.868 1.887)" fill="#373737"/>
      </g>
    </g>
  </g>
</svg>
