<svg xmlns="http://www.w3.org/2000/svg" xmlns:xlink="http://www.w3.org/1999/xlink" width="976.795" height="542.675" viewBox="0 0 976.795 542.675"><defs><linearGradient id="a" y1="0.5" x2="1" y2="0.5" gradientUnits="objectBoundingBox"><stop offset="0" stop-color="#ed938c"/><stop offset="0.089" stop-color="#ed938c" stop-opacity="0.98"/><stop offset="0.194" stop-color="#ee958e" stop-opacity="0.918"/><stop offset="0.307" stop-color="#f09891" stop-opacity="0.82"/><stop offset="0.426" stop-color="#f29d95" stop-opacity="0.678"/><stop offset="0.549" stop-color="#f6a39a" stop-opacity="0.498"/><stop offset="0.676" stop-color="#faaaa0" stop-opacity="0.278"/><stop offset="0.804" stop-color="#feb2a8" stop-opacity="0.02"/><stop offset="0.814" stop-color="#ffb3a9" stop-opacity="0"/></linearGradient><linearGradient id="b" x1="-0.001" y1="-0.53" x2="0.987" y2="1.502" xlink:href="#a"/><linearGradient id="c" x1="0.5" y1="-1.452" x2="0.5" y2="2.566" gradientUnits="objectBoundingBox"><stop offset="0" stop-color="#d4c99b"/><stop offset="0.077" stop-color="#d8cea4" stop-opacity="0.886"/><stop offset="0.345" stop-color="#e9e1c4" stop-opacity="0.51"/><stop offset="0.565" stop-color="#f4f0db" stop-opacity="0.235"/><stop offset="0.727" stop-color="#fcf8e9" stop-opacity="0.063"/><stop offset="0.814" stop-color="#fffcef" stop-opacity="0"/></linearGradient><clipPath id="d"><path d="M631.045,8510.447s58.638-211.751,66.231-223.575h50.413l.156.313a85.052,85.052,0,0,1,8.9,40.274l10.015,184.529H719.83l-4.738-166.938-18.086,165.4Z" fill="#f38bab"/></clipPath><linearGradient id="e" x1="0.854" y1="0.055" x2="0.057" y2="1.058" gradientUnits="objectBoundingBox"><stop offset="0" stop-color="#d4c99b"/><stop offset="0.748" stop-color="#d4c99b" stop-opacity="0"/></linearGradient><linearGradient id="f" x1="0.988" y1="0.023" x2="0.243" y2="1.074" xlink:href="#e"/><linearGradient id="g" x1="0.5" y1="-0.524" x2="0.5" y2="1.472" gradientUnits="objectBoundingBox"><stop offset="0.321" stop-color="#d57354" stop-opacity="0.8"/><stop offset="0.84" stop-color="#ffb89f" stop-opacity="0"/></linearGradient><linearGradient id="j" x1="0.002" y1="-1.677" x2="0.984" y2="2.618" xlink:href="#a"/></defs><g transform="translate(-227.929 -8033.054)"><rect width="976.795" height="542.675" transform="translate(227.929 8033.054)" fill="#fffcef"/><rect width="976.795" height="107.473" transform="translate(227.929 8468.256)" fill="#ffc4c0"/><ellipse cx="225.897" cy="14.22" rx="225.897" ry="14.22" transform="translate(582.971 8527.95)" fill="url(#a)"/><rect width="56.783" height="19.835" transform="translate(399.045 8069.614)" fill="#ede3b7"/><rect width="56.783" height="19.835" transform="translate(339.429 8069.614)" fill="#ede3b7"/><rect width="56.783" height="19.835" transform="translate(428.118 8092.732)" fill="#ede3b7"/><rect width="56.783" height="19.835" transform="translate(943.041 8399.204)" fill="#ede3b7"/><rect width="56.783" height="19.835" transform="translate(883.424 8399.204)" fill="#ede3b7"/><rect width="56.783" height="19.835" transform="translate(972.114 8422.322)" fill="#ede3b7"/><rect width="56.783" height="19.835" transform="translate(441.934 8369.909)" fill="#ede3b7"/><rect width="56.783" height="19.835" transform="translate(382.317 8369.909)" fill="#ede3b7"/><rect width="56.783" height="19.835" transform="translate(471.007 8393.027)" fill="#ede3b7"/><rect width="56.783" height="19.835" transform="translate(399.045 8169.861)" fill="#ede3b7"/><rect width="56.783" height="19.835" transform="translate(459.123 8169.861)" fill="#ede3b7"/><rect width="56.783" height="19.835" transform="translate(429.38 8193.41)" fill="#ede3b7"/><rect width="56.783" height="19.835" transform="translate(569.471 8169.861)" fill="#ede3b7"/><rect width="56.783" height="19.835" transform="translate(629.549 8169.861)" fill="#ede3b7"/><rect width="56.783" height="19.835" transform="translate(598.273 8147.076)" fill="#ede3b7"/><rect width="56.783" height="19.835" transform="translate(658.35 8147.076)" fill="#ede3b7"/><rect width="56.783" height="19.835" transform="translate(803.972 8145.572)" fill="#ede3b7"/><rect width="56.783" height="19.835" transform="translate(744.355 8145.572)" fill="#ede3b7"/><rect width="56.783" height="19.835" transform="translate(833.045 8168.691)" fill="#ede3b7"/><rect width="56.783" height="19.835" transform="translate(803.972 8245.819)" fill="#ede3b7"/><rect width="56.783" height="19.835" transform="translate(864.049 8245.819)" fill="#ede3b7"/><rect width="56.783" height="19.835" transform="translate(834.307 8269.368)" fill="#ede3b7"/><rect width="56.783" height="19.835" transform="translate(1071.547 8117.625) rotate(180)" fill="#ede3b7"/><rect width="56.783" height="19.835" transform="translate(1011.47 8117.625) rotate(180)" fill="#ede3b7"/><rect width="56.783" height="19.835" transform="translate(1041.213 8094.076) rotate(180)" fill="#ede3b7"/><rect width="56.783" height="19.835" transform="translate(776.041 8396.133) rotate(180)" fill="#ede3b7"/><rect width="56.783" height="19.835" transform="translate(715.964 8396.133) rotate(180)" fill="#ede3b7"/><rect width="56.783" height="19.835" transform="translate(745.706 8372.584) rotate(180)" fill="#ede3b7"/><rect width="56.783" height="19.835" transform="translate(582.162 8290.297) rotate(180)" fill="#ede3b7"/><rect width="56.783" height="19.835" transform="translate(522.085 8290.297) rotate(180)" fill="#ede3b7"/><rect width="56.783" height="19.835" transform="translate(551.827 8266.748) rotate(180)" fill="#ede3b7"/><rect width="56.783" height="19.835" transform="translate(974.398 8245.819)" fill="#ede3b7"/><rect width="56.783" height="19.835" transform="translate(1034.475 8245.819)" fill="#ede3b7"/><rect width="56.783" height="19.835" transform="translate(1003.2 8223.034)" fill="#ede3b7"/><rect width="56.783" height="19.835" transform="translate(1063.277 8223.034)" fill="#ede3b7"/><ellipse cx="54.547" cy="13.807" rx="54.547" ry="13.807" transform="translate(292.288 8474.048)" fill="url(#b)"/><path d="M362.943,8309.115a7.02,7.02,0,0,1,.072,2.264,47.357,47.357,0,0,0-4.548-2.273c-3.883.019-7.813.091-11.342.264a83.132,83.132,0,0,0-9.014.819c-2.355.4-4.775.837-7.14,1.445a27.78,27.78,0,0,0-9.168,3.911,30.293,30.293,0,0,1,5.2,4.793,54.073,54.073,0,0,1-8.768-1.382,1.2,1.2,0,0,0-.137.182c-5.284,7.158-2.465,18.382,4.885,23.412a20.868,20.868,0,0,0,13.152,3.348,25.552,25.552,0,0,0,12.015-3.947v-.009c.009,0,.009,0,.018-.011-1.71,4.63-2.765,9.679-1.673,14.49,1.073,4.757,4.666,9.187,9.45,10.1l.155.027c6.849,1.21,13.015-4.993,15.217-11.588a37.076,37.076,0,0,0,1.71-9.768c-.255-.392-.492-.8-.71-1.211a16.608,16.608,0,0,1-1.483-11.651q1.161,1.351,2.32,2.7c-.009-1.593.009-3.176.082-4.748.327-7.549,6.931-19.02,7.867-20.6v-.01c.073-.118.11-.172.11-.172S372.729,8309.16,362.943,8309.115Zm-26.514,23.594a45.024,45.024,0,0,1-9.423-1.156,7.056,7.056,0,0,1-2.856-1.246,2.459,2.459,0,0,1-.81-2.81c1.01-2.065,7.65-1.847,12.388-.582,2.274.609,4.112,1.464,4.676,2.428C341.923,8331.89,339.576,8332.663,336.429,8332.709Zm18.473-11.743a3.2,3.2,0,0,1-2.8,1.455,8.8,8.8,0,0,1-3.211-.754c-1.192-.455-2.511-1.083-2.856-2.311-.5-1.737,1.519-3.356,3.32-3.2s4.711,2.01,4.711,2.01A2,2,0,0,1,354.9,8320.966Zm10.323,32.99c-.145,1.291-.554,2.792-1.773,3.238a2.232,2.232,0,0,1-1.828-.183,4.712,4.712,0,0,1-1.647-1.546,9.363,9.363,0,0,1-1.582-5.2,3.333,3.333,0,0,1,4.711-3.129,2.363,2.363,0,0,1,.846.655,6.859,6.859,0,0,1,1.355,4.193A14.058,14.058,0,0,1,365.225,8353.956Z" fill="#41a0a3"/><path d="M373.03,8345.188a37.076,37.076,0,0,1-1.71,9.768c-2.2,6.595-8.368,12.8-15.217,11.588l-.155-.027a91.408,91.408,0,0,1,5.676-9.5,2.232,2.232,0,0,0,1.828.183c1.219-.446,1.628-1.947,1.773-3.238a14.058,14.058,0,0,0,.082-1.974,90.236,90.236,0,0,1,7.013-8C372.538,8344.387,372.775,8344.8,373.03,8345.188Z" fill="#11605e"/><path d="M324.273,8462.867l-.117-.617c9.811-1.858,9.768-52.332,9.754-68.918,0-1.647,0-2.993.005-3.971a92.556,92.556,0,0,1,13.969-47.58,93.494,93.494,0,0,1,33.071-32.383l.312.545a92.875,92.875,0,0,0-32.847,32.166,91.914,91.914,0,0,0-13.876,47.258c-.008.976-.007,2.319-.006,3.964C334.562,8422.343,333.525,8461.115,324.273,8462.867Z" fill="#11605e"/><path d="M336.631,8337.829a66.165,66.165,0,0,1-.489,8.065,20.812,20.812,0,0,1-13.155-3.349c-7.348-5.022-10.174-16.248-4.89-23.407.045-.065.089-.122.139-.183a53.76,53.76,0,0,0,8.772,1.385,30.128,30.128,0,0,0-5.2-4.795,27.814,27.814,0,0,1,9.167-3.916,57.84,57.84,0,0,1,4.75,15.286c-4.739-1.268-11.375-1.485-12.382.578a2.448,2.448,0,0,0,.807,2.809,7.054,7.054,0,0,0,2.859,1.246,44.359,44.359,0,0,0,9.423,1.157C336.564,8334.386,336.631,8336.1,336.631,8337.829Z" fill="#11605e"/><path d="M349.663,8405.365c.2-21.555,9.912-42.466,25.209-57.652,2.45-2.433,5.1-4.8,8.333-6.017s7.193-1.04,9.777,1.251c2.1,1.858,2.96,4.778,3.076,7.579.387,9.313-6.167,17.3-12.342,24.287l-6.3,1.276c2.381.142,3.785,3.059,3.235,5.379s-2.393,4.084-4.2,5.635C368.236,8394.144,358.925,8399.772,349.663,8405.365Z" fill="#41a0a3"/><path d="M338.6,8447.39l-.617-.115a223.205,223.205,0,0,1,42.67-95.224l.5.384A222.569,222.569,0,0,0,338.6,8447.39Z" fill="#11605e"/><path d="M314.771,8415.83c-.165-17.9-8.231-35.267-20.935-47.879a20.414,20.414,0,0,0-6.921-5c-2.685-1.006-5.973-.863-8.119,1.039a8.8,8.8,0,0,0-2.555,6.294c-.321,7.735,5.122,14.371,10.25,20.17l5.228,1.061c-1.977.117-3.143,2.539-2.687,4.468s1.987,3.391,3.491,4.68C299.347,8406.512,307.079,8411.185,314.771,8415.83Z" fill="#41a0a3"/><path d="M323.958,8450.731a184.842,184.842,0,0,0-35.336-78.859l.412-.318a185.346,185.346,0,0,1,35.437,79.082Z" fill="#11605e"/><path d="M332.008,8339.175a79.545,79.545,0,0,1-2.61,20.857c-.646,2.51-5.73,24.147-10.46,21.283a19.943,19.943,0,0,1-4.5-4.284c-1.556-1.847-3.029-3.829-4.4-5.239-1.464-1.51-2.983-3.1-4.538-4.766a17.568,17.568,0,0,0-1.883-11.843,17.976,17.976,0,0,0-14.18-8.6c-3.911-6.467-6.794-13.343-7.531-20.365a129.649,129.649,0,0,1,11.433-6.339,31.163,31.163,0,0,1-11.424-.537,31.075,31.075,0,0,1,3.538-11.36,22.4,22.4,0,0,1,21.238-11.987,18.148,18.148,0,0,1,7.2,2.037,8.234,8.234,0,0,0-.682,4.82,10.331,10.331,0,0,0,6.594,7.567,13.328,13.328,0,0,0,5.83.764,57.982,57.982,0,0,1,4.066,10.869A69.4,69.4,0,0,1,332.008,8339.175Z" fill="#41a0a3"/><path d="M332.008,8339.175a79.545,79.545,0,0,1-2.61,20.857c-.646,2.51-5.73,24.147-10.46,21.283a19.943,19.943,0,0,1-4.5-4.284l.027-.791a58.831,58.831,0,0,1,1.173-9.414,52.85,52.85,0,0,1,4.557-13.179,43.835,43.835,0,0,1,8.259-11.406A31.693,31.693,0,0,1,332.008,8339.175Z" fill="#11605e"/><path d="M306.057,8423.307l-.576-.252q.977-2.231,1.968-4.467c4.564-10.326,9.285-21,11.771-32.132a96.9,96.9,0,0,0,.782-36.835,116.462,116.462,0,0,0-8.5-27.816c-4.13-9.312-8.4-18.178-15.17-24.321l.422-.466c6.863,6.227,11.164,15.157,15.322,24.532a117.067,117.067,0,0,1,8.545,27.967,97.516,97.516,0,0,1-.787,37.076c-2.5,11.188-7.233,21.9-11.81,32.249Q307.035,8421.077,306.057,8423.307Z" fill="#11605e"/><path d="M354.393,8358.113c-.109.565-.232,1.125-.377,1.67-1.6,6.02-4.626,11.336-8,16.478q-1.308-.98-2.68-1.866c-1.082-.7-2.752-1.234-3.457-.159a2.607,2.607,0,0,0-.189,1.778q.545,3.987,1.1,7.988a96.639,96.639,0,0,0-5.759,9.42,43.091,43.091,0,0,0-3.493,8.627c-.588,2.135-.225,7.328-1.641,8.875a2.672,2.672,0,0,1-3.268.835c-2.658-1.147-5.069-5.948-5.716-7.894a70.551,70.551,0,0,1-3.493-25,55.363,55.363,0,0,1,1.09-8.729,49.11,49.11,0,0,1,4.226-12.208,40.584,40.584,0,0,1,7.647-10.573,22.331,22.331,0,0,1,9.318-5.89,12.267,12.267,0,0,1,10.632,1.612,9.59,9.59,0,0,1,.827.705C354.8,8347.227,355.381,8352.986,354.393,8358.113Z" fill="#41a0a3"/><path d="M354.44,8357.262c-.044.28-.092.567-.146.848-.108.566-.238,1.129-.383,1.674-.27,1.025-.589,2.03-.94,3.018-.086.055-.178.1-.264.142a33.13,33.13,0,0,1-9.422,2.521q-12.367,2.042-24.745,4.076c.049-.221.1-.448.151-.669a48.525,48.525,0,0,1,3.947-10.939,40.592,40.592,0,0,1,7.646-10.577,22.359,22.359,0,0,1,9.319-5.885,12.261,12.261,0,0,1,10.625,1.609,9.572,9.572,0,0,1,.832.707C354.5,8347.035,355.206,8352.359,354.44,8357.262Z" fill="#11605e"/><path d="M338.6,8439.294a71.278,71.278,0,0,1,11.038-96.5l.447.523a70.589,70.589,0,0,0-10.93,95.57Z" fill="#11605e"/><path d="M336.42,8359.406c6.582-2.388,13.419-4.208,20.01-6.578,3.785-1.36,7.858-3.252,9.115-6.657,1.284-3.478-1.1-7.426-4.716-9.266s-8.1-1.9-12.187-1.132a35.938,35.938,0,0,0-20.615,12.374,42.621,42.621,0,0,0-5.584,8.708c-1.379,2.833-3.809,12.716-3.809,12.716a15.014,15.014,0,0,1,2.814-2.777,47.37,47.37,0,0,1,4.741-2.907A76.084,76.084,0,0,1,336.42,8359.406Z" fill="#6fc9c9"/><path d="M319.125,8368.868l-.637-.267a45.339,45.339,0,0,1,46.354-27.613l-.068.686a44.649,44.649,0,0,0-45.649,27.194Z" fill="#11605e"/><path d="M367.183,8406.51V8465.6a25.332,25.332,0,0,1-25.331,25.331H316.221a25.344,25.344,0,0,1-25.332-25.331V8406.51Z" fill="#8c757e"/><path d="M349.62,8406.51v44.023a25.331,25.331,0,0,1-25.331,25.322H298.657a24.723,24.723,0,0,1-5.894-.7,25.07,25.07,0,0,1-1.874-9.552V8406.51Z" fill="#9b878f"/><path d="M738.181,8303.72H357.528l-36.019-46.155H702.162Z" fill="url(#c)"/><rect width="385.564" height="204.555" transform="translate(317.398 8051.843)" fill="#fff"/><path d="M703.77,8257.206H316.591v-206.17H703.77Zm-385.564-1.615H702.155v-202.94H318.206Z" fill="#2c2c2b"/><path d="M344.633,8101.4h-5.459v4.254h6.293v1.27h-7.906v-11.916h7.816v1.269h-6.2v3.854h5.459Z" fill="#8c757e"/><path d="M352.2,8104.565a1.1,1.1,0,0,0-.4-.875,3.789,3.789,0,0,0-1.535-.6,6.45,6.45,0,0,1-2.425-.952,1.928,1.928,0,0,1-.815-1.638,2.312,2.312,0,0,1,.916-1.838,4.164,4.164,0,0,1,4.849.033,2.348,2.348,0,0,1,.872,1.932l-.017.049H352.1a1.406,1.406,0,0,0-.487-1.043,1.79,1.79,0,0,0-1.289-.463,1.858,1.858,0,0,0-1.277.377,1.177,1.177,0,0,0-.417.908,1.01,1.01,0,0,0,.369.826,3.833,3.833,0,0,0,1.5.539,6.456,6.456,0,0,1,2.5.979,1.97,1.97,0,0,1,.818,1.658,2.287,2.287,0,0,1-.953,1.906,4.007,4.007,0,0,1-2.492.729,3.9,3.9,0,0,1-2.668-.86,2.452,2.452,0,0,1-.925-2.006l.017-.048h1.539a1.48,1.48,0,0,0,.637,1.25,2.488,2.488,0,0,0,1.4.394,2.279,2.279,0,0,0,1.347-.348A1.069,1.069,0,0,0,352.2,8104.565Z" fill="#8c757e"/><path d="M357.947,8095.932v2.135h1.678v1.2h-1.678v5.377a1.2,1.2,0,0,0,.258.875.931.931,0,0,0,.683.253,1.6,1.6,0,0,0,.307-.033,1.793,1.793,0,0,0,.3-.082l.213,1.106a1.473,1.473,0,0,1-.529.242,2.687,2.687,0,0,1-.7.094,2.086,2.086,0,0,1-1.563-.594,2.575,2.575,0,0,1-.581-1.861v-5.377h-1.408v-1.2h1.408v-2.135Z" fill="#8c757e"/><path d="M361.237,8102.413a4.879,4.879,0,0,1,1.063-3.236,3.94,3.94,0,0,1,5.8,0,4.859,4.859,0,0,1,1.069,3.24v.18a4.846,4.846,0,0,1-1.065,3.24,3.956,3.956,0,0,1-5.8,0,4.841,4.841,0,0,1-1.067-3.236Zm1.612.176a4.2,4.2,0,0,0,.593,2.322,2.147,2.147,0,0,0,3.515,0,4.177,4.177,0,0,0,.6-2.322v-.18a4.15,4.15,0,0,0-.6-2.312,1.972,1.972,0,0,0-1.764-.924,1.946,1.946,0,0,0-1.747.924,4.2,4.2,0,0,0-.593,2.312Z" fill="#8c757e"/><path d="M382.848,8102.831a4.869,4.869,0,0,1-.916,3.088,3.03,3.03,0,0,1-2.528,1.176,3.5,3.5,0,0,1-1.437-.276,2.728,2.728,0,0,1-1.051-.822v4.33H375.3v-12.26h1.237l.253,1.147a2.931,2.931,0,0,1,1.081-.975,3.231,3.231,0,0,1,1.505-.336,2.942,2.942,0,0,1,2.557,1.307,5.9,5.9,0,0,1,.912,3.449Zm-1.611-.176a4.66,4.66,0,0,0-.594-2.473,1.921,1.921,0,0,0-1.747-.968,2.156,2.156,0,0,0-1.186.314,2.36,2.36,0,0,0-.794.862v4.275a2.282,2.282,0,0,0,.794.853,2.213,2.213,0,0,0,1.2.307,1.983,1.983,0,0,0,1.734-.838,3.662,3.662,0,0,0,.59-2.16Z" fill="#8c757e"/><path d="M388.5,8107.1a3.734,3.734,0,0,1-2.943-1.233,4.64,4.64,0,0,1-1.092-3.195v-.36a4.535,4.535,0,0,1,1.125-3.146,3.467,3.467,0,0,1,2.664-1.258,3.358,3.358,0,0,1,2.709,1.082,4.3,4.3,0,0,1,.917,2.879v1.008h-5.746l-.024.041a3.482,3.482,0,0,0,.646,2.092,2.063,2.063,0,0,0,1.744.82,4.075,4.075,0,0,0,1.435-.232,3.307,3.307,0,0,0,1.069-.643l.629,1.049a3.71,3.71,0,0,1-1.252.781A5.028,5.028,0,0,1,388.5,8107.1Zm-.246-7.922a1.744,1.744,0,0,0-1.383.681,3.215,3.215,0,0,0-.7,1.707l.015.041h4.084v-.211a2.454,2.454,0,0,0-.508-1.582A1.812,1.812,0,0,0,388.258,8099.173Z" fill="#8c757e"/><path d="M397.882,8099.491l-.828-.049a1.855,1.855,0,0,0-1.076.3,1.96,1.96,0,0,0-.675.852v6.326h-1.612v-8.856h1.441l.155,1.293a3.09,3.09,0,0,1,.929-1.072,2.18,2.18,0,0,1,1.273-.385,2,2,0,0,1,.343.029,2.21,2.21,0,0,1,.27.063Z" fill="#8c757e"/><path d="M400.877,8098.067l.114,1.162a2.992,2.992,0,0,1,1.1-.976,3.3,3.3,0,0,1,1.551-.35,2.739,2.739,0,0,1,1.518.41,2.481,2.481,0,0,1,.953,1.227,3.281,3.281,0,0,1,1.1-1.193,2.9,2.9,0,0,1,1.6-.444,2.653,2.653,0,0,1,2.136.93,4.248,4.248,0,0,1,.786,2.795v5.295h-1.612v-5.311a2.949,2.949,0,0,0-.451-1.855,1.642,1.642,0,0,0-1.341-.543,1.711,1.711,0,0,0-1.339.572,2.5,2.5,0,0,0-.6,1.449v5.688H404.78v-5.311a2.908,2.908,0,0,0-.462-1.822,1.6,1.6,0,0,0-1.33-.576,2.219,2.219,0,0,0-1.211.3,1.954,1.954,0,0,0-.728.852v6.555h-1.613v-8.856Z" fill="#8c757e"/><path d="M415.828,8095.8h-1.612v-1.645h1.612Zm0,11.121h-1.612v-8.856h1.612Z" fill="#8c757e"/><path d="M420.435,8095.932v2.135h1.678v1.2h-1.678v5.377a1.2,1.2,0,0,0,.258.875.932.932,0,0,0,.684.253,1.6,1.6,0,0,0,.306-.033,1.767,1.767,0,0,0,.3-.082l.213,1.106a1.476,1.476,0,0,1-.528.242,2.7,2.7,0,0,1-.7.094,2.087,2.087,0,0,1-1.563-.594,2.575,2.575,0,0,1-.581-1.861v-5.377h-1.407v-1.2h1.407v-2.135Z" fill="#8c757e"/><path d="M425.844,8095.8h-1.612v-1.645h1.612Zm0,11.121h-1.612v-8.856h1.612Z" fill="#8c757e"/><path d="M432.514,8099.491l-.827-.049a1.852,1.852,0,0,0-1.076.3,1.953,1.953,0,0,0-.675.852v6.326h-1.612v-8.856h1.44l.156,1.293a3.1,3.1,0,0,1,.928-1.072,2.181,2.181,0,0,1,1.274-.385,2,2,0,0,1,.343.029,2.21,2.21,0,0,1,.27.063Z" fill="#8c757e"/><path d="M439.511,8106.923c-.054-.268-.1-.5-.127-.709a5.056,5.056,0,0,1-.052-.617,3.8,3.8,0,0,1-1.175,1.068,3.015,3.015,0,0,1-1.559.43,2.894,2.894,0,0,1-2.107-.709,2.6,2.6,0,0,1-.725-1.952,2.285,2.285,0,0,1,1.028-1.984,4.8,4.8,0,0,1,2.786-.717h1.752v-.875a1.626,1.626,0,0,0-.476-1.232,1.863,1.863,0,0,0-1.342-.453,1.943,1.943,0,0,0-1.263.4,1.193,1.193,0,0,0-.488.953h-1.538l-.016-.048a2.142,2.142,0,0,1,.912-1.768,3.743,3.743,0,0,1,2.483-.8,3.66,3.66,0,0,1,2.423.766,2.715,2.715,0,0,1,.916,2.205v4.264a8.263,8.263,0,0,0,.05.918,4.678,4.678,0,0,0,.18.867Zm-2.675-1.188a2.865,2.865,0,0,0,1.579-.449,2.142,2.142,0,0,0,.917-1.027v-1.436h-1.809a2.352,2.352,0,0,0-1.559.488,1.466,1.466,0,0,0-.585,1.151,1.211,1.211,0,0,0,.368.931A1.543,1.543,0,0,0,436.836,8105.735Zm1.382-11.088H440.1l.017.049-2.21,2.127h-1.2Z" fill="#8c757e"/><path d="M451.124,8107.1a3.734,3.734,0,0,1-2.943-1.233,4.64,4.64,0,0,1-1.091-3.195v-.36a4.535,4.535,0,0,1,1.125-3.146,3.465,3.465,0,0,1,2.663-1.258,3.358,3.358,0,0,1,2.709,1.082,4.3,4.3,0,0,1,.917,2.879v1.008h-5.745l-.025.041a3.483,3.483,0,0,0,.647,2.092,2.06,2.06,0,0,0,1.743.82,4.075,4.075,0,0,0,1.435-.232,3.307,3.307,0,0,0,1.069-.643l.63,1.049a3.73,3.73,0,0,1-1.252.781A5.037,5.037,0,0,1,451.124,8107.1Zm-.246-7.922a1.746,1.746,0,0,0-1.383.681,3.215,3.215,0,0,0-.7,1.707l.015.041h4.084v-.211a2.459,2.459,0,0,0-.507-1.582A1.814,1.814,0,0,0,450.878,8099.173Z" fill="#8c757e"/><path d="M457.752,8098.067l.114,1.319a3.212,3.212,0,0,1,1.109-1.092,2.953,2.953,0,0,1,1.518-.391,2.892,2.892,0,0,1,2.218.84,3.679,3.679,0,0,1,.786,2.59v5.59h-1.613v-5.557a2.4,2.4,0,0,0-.462-1.662,1.857,1.857,0,0,0-1.412-.49,2.263,2.263,0,0,0-1.231.336,2.438,2.438,0,0,0-.855.916v6.457h-1.613v-8.856Z" fill="#8c757e"/><path d="M467.965,8095.932v2.135h1.677v1.2h-1.677v5.377a1.2,1.2,0,0,0,.257.875.934.934,0,0,0,.684.253,1.613,1.613,0,0,0,.307-.033,1.754,1.754,0,0,0,.3-.082l.213,1.106a1.476,1.476,0,0,1-.528.242,2.693,2.693,0,0,1-.7.094,2.089,2.089,0,0,1-1.564-.594,2.58,2.58,0,0,1-.581-1.861v-5.377h-1.407v-1.2h1.407v-2.135Z" fill="#8c757e"/><path d="M475.3,8107.1a3.734,3.734,0,0,1-2.942-1.233,4.635,4.635,0,0,1-1.092-3.195v-.36a4.535,4.535,0,0,1,1.125-3.146,3.466,3.466,0,0,1,2.663-1.258,3.355,3.355,0,0,1,2.709,1.082,4.3,4.3,0,0,1,.917,2.879v1.008H472.94l-.024.041a3.476,3.476,0,0,0,.646,2.092,2.06,2.06,0,0,0,1.743.82,4.081,4.081,0,0,0,1.436-.232,3.3,3.3,0,0,0,1.068-.643l.63,1.049a3.71,3.71,0,0,1-1.252.781A5.03,5.03,0,0,1,475.3,8107.1Zm-.246-7.922a1.746,1.746,0,0,0-1.383.681,3.223,3.223,0,0,0-.7,1.707l.016.041h4.084v-.211a2.454,2.454,0,0,0-.508-1.582A1.814,1.814,0,0,0,475.059,8099.173Z" fill="#8c757e"/><path d="M481.933,8098.067l.115,1.319a3.2,3.2,0,0,1,1.109-1.092,2.951,2.951,0,0,1,1.518-.391,2.888,2.888,0,0,1,2.217.84,3.674,3.674,0,0,1,.786,2.59v5.59h-1.612v-5.557a2.393,2.393,0,0,0-.463-1.662,1.853,1.853,0,0,0-1.411-.49,2.261,2.261,0,0,0-1.231.336,2.441,2.441,0,0,0-.856.916v6.457h-1.612v-8.856Z" fill="#8c757e"/><path d="M489.65,8102.659a5.911,5.911,0,0,1,.913-3.445,2.94,2.94,0,0,1,2.557-1.311,3.173,3.173,0,0,1,1.379.287,2.844,2.844,0,0,1,1.027.834v-4.867h1.612v12.766h-1.317l-.188-1.09a2.861,2.861,0,0,1-1.065.941,3.2,3.2,0,0,1-1.465.321,3.037,3.037,0,0,1-2.536-1.176,4.876,4.876,0,0,1-.917-3.088Zm1.612.172a3.763,3.763,0,0,0,.548,2.148,1.916,1.916,0,0,0,1.7.805,2.131,2.131,0,0,0,1.212-.326,2.448,2.448,0,0,0,.8-.918v-4.131a2.482,2.482,0,0,0-.806-.873,2.133,2.133,0,0,0-1.191-.322,1.841,1.841,0,0,0-1.714.957,4.949,4.949,0,0,0-.553,2.488Z" fill="#8c757e"/><path d="M503.218,8107.1a3.734,3.734,0,0,1-2.942-1.233,4.64,4.64,0,0,1-1.092-3.195v-.36a4.535,4.535,0,0,1,1.125-3.146,3.466,3.466,0,0,1,2.663-1.258,3.355,3.355,0,0,1,2.709,1.082,4.3,4.3,0,0,1,.917,2.879v1.008h-5.745l-.024.041a3.475,3.475,0,0,0,.646,2.092,2.06,2.06,0,0,0,1.743.82,4.08,4.08,0,0,0,1.436-.232,3.291,3.291,0,0,0,1.068-.643l.63,1.049a3.71,3.71,0,0,1-1.252.781A5.03,5.03,0,0,1,503.218,8107.1Zm-.246-7.922a1.742,1.742,0,0,0-1.382.681,3.216,3.216,0,0,0-.7,1.707l.016.041h4.084v-.211a2.454,2.454,0,0,0-.508-1.582A1.814,1.814,0,0,0,502.972,8099.173Z" fill="#8c757e"/><path d="M512.6,8099.491l-.827-.049a1.852,1.852,0,0,0-1.076.3,1.953,1.953,0,0,0-.675.852v6.326h-1.612v-8.856h1.44l.156,1.293a3.1,3.1,0,0,1,.928-1.072,2.183,2.183,0,0,1,1.274-.385,2,2,0,0,1,.343.029,2.213,2.213,0,0,1,.27.063Z" fill="#8c757e"/><path d="M520.059,8106.923h-1.612v-12.766h1.612Z" fill="#8c757e"/><path d="M527.981,8106.923c-.055-.268-.1-.5-.127-.709a5.051,5.051,0,0,1-.053-.617,3.784,3.784,0,0,1-1.174,1.068,3.018,3.018,0,0,1-1.559.43,2.894,2.894,0,0,1-2.107-.709,2.6,2.6,0,0,1-.725-1.952,2.287,2.287,0,0,1,1.027-1.984,4.809,4.809,0,0,1,2.787-.717H527.8v-.875a1.629,1.629,0,0,0-.475-1.232,1.865,1.865,0,0,0-1.342-.453,1.948,1.948,0,0,0-1.264.4,1.194,1.194,0,0,0-.487.953H522.7l-.017-.048a2.146,2.146,0,0,1,.913-1.768,3.741,3.741,0,0,1,2.483-.8,3.662,3.662,0,0,1,2.423.766,2.715,2.715,0,0,1,.916,2.205v4.264a8.034,8.034,0,0,0,.05.918,4.673,4.673,0,0,0,.179.867Zm-2.676-1.188a2.862,2.862,0,0,0,1.579-.449,2.137,2.137,0,0,0,.917-1.027v-1.436h-1.808a2.354,2.354,0,0,0-1.56.488,1.469,1.469,0,0,0-.585,1.151,1.209,1.209,0,0,0,.369.931A1.542,1.542,0,0,0,525.3,8105.735Z" fill="#8c757e"/><path d="M337.929,8126.261V8118.6h-1.382v-1.2h1.382v-1.121a3.033,3.033,0,0,1,.742-2.189,2.728,2.728,0,0,1,2.066-.772,3.421,3.421,0,0,1,.561.045c.187.029.4.072.626.127l-.2,1.227a3.506,3.506,0,0,0-.356-.057,3.409,3.409,0,0,0-.438-.025,1.274,1.274,0,0,0-1.048.421,1.905,1.905,0,0,0-.343,1.223v1.121h1.842v1.2h-1.842v7.661Z" fill="#8c757e"/><path d="M344.788,8115.14h-1.613V8113.5h1.613Zm0,11.121h-1.613V8117.4h1.613Z" fill="#8c757e"/><path d="M346.916,8122a5.812,5.812,0,0,1,.932-3.445,3,3,0,0,1,2.578-1.311,3.1,3.1,0,0,1,1.482.34,2.918,2.918,0,0,1,1.063.978l.2-1.154h1.285v8.9a3.383,3.383,0,0,1-.99,2.616,4.076,4.076,0,0,1-2.857.912,6.026,6.026,0,0,1-1.379-.176,5.39,5.39,0,0,1-1.3-.479l.409-1.253a4.165,4.165,0,0,0,1.047.4,5.109,5.109,0,0,0,1.212.15,2.342,2.342,0,0,0,1.713-.535,2.219,2.219,0,0,0,.537-1.633v-1a2.807,2.807,0,0,1-1.04.838,3.234,3.234,0,0,1-1.391.283,3.086,3.086,0,0,1-2.562-1.179,4.82,4.82,0,0,1-.932-3.084Zm1.612.172a3.694,3.694,0,0,0,.564,2.144,1.955,1.955,0,0,0,1.719.809,2.126,2.126,0,0,0,1.219-.33,2.51,2.51,0,0,0,.811-.938v-4.076a2.5,2.5,0,0,0-.811-.894,2.108,2.108,0,0,0-1.2-.332,1.881,1.881,0,0,0-1.728.964,4.812,4.812,0,0,0-.572,2.481Z" fill="#8c757e"/><path d="M362.415,8124.95a3,3,0,0,1-1.073,1.1,2.928,2.928,0,0,1-1.513.384,2.843,2.843,0,0,1-2.259-.925,4.291,4.291,0,0,1-.81-2.881V8117.4h1.613v5.238a3.294,3.294,0,0,0,.417,1.948,1.55,1.55,0,0,0,1.3.531,2.637,2.637,0,0,0,1.419-.348,2.165,2.165,0,0,0,.848-.986V8117.4h1.611v8.856h-1.448Z" fill="#8c757e"/><path d="M370.509,8118.829l-.828-.049a1.855,1.855,0,0,0-1.076.3,1.963,1.963,0,0,0-.675.851v6.327h-1.612V8117.4h1.441l.155,1.293a3.1,3.1,0,0,1,.928-1.072,2.182,2.182,0,0,1,1.274-.385,2,2,0,0,1,.343.029,2.044,2.044,0,0,1,.27.063Z" fill="#8c757e"/><path d="M377.506,8126.261q-.083-.4-.127-.709a4.879,4.879,0,0,1-.053-.618,3.778,3.778,0,0,1-1.175,1.069,3.014,3.014,0,0,1-1.559.429,2.9,2.9,0,0,1-2.107-.708,2.6,2.6,0,0,1-.725-1.952,2.286,2.286,0,0,1,1.028-1.984,4.8,4.8,0,0,1,2.786-.717h1.752v-.875a1.626,1.626,0,0,0-.476-1.232,1.86,1.86,0,0,0-1.341-.453,1.936,1.936,0,0,0-1.264.4,1.193,1.193,0,0,0-.487.953h-1.539l-.016-.049a2.144,2.144,0,0,1,.912-1.767,3.745,3.745,0,0,1,2.483-.8,3.66,3.66,0,0,1,2.423.766,2.71,2.71,0,0,1,.916,2.205v4.263a8.244,8.244,0,0,0,.05.918,4.721,4.721,0,0,0,.18.868Zm-2.676-1.188a2.865,2.865,0,0,0,1.579-.449,2.141,2.141,0,0,0,.917-1.027v-1.436h-1.809a2.354,2.354,0,0,0-1.559.488,1.464,1.464,0,0,0-.585,1.151,1.211,1.211,0,0,0,.368.931A1.543,1.543,0,0,0,374.83,8125.073Z" fill="#8c757e"/><path d="M387.055,8118.593a3.257,3.257,0,0,1,1.125-.994,3.074,3.074,0,0,1,1.478-.358,2.861,2.861,0,0,1,2.205.852,3.751,3.751,0,0,1,.79,2.619v5.549h-1.612V8120.7a2.369,2.369,0,0,0-.471-1.621,1.785,1.785,0,0,0-1.4-.523,2.387,2.387,0,0,0-1.215.314,2.645,2.645,0,0,0-.9.856v6.539h-1.612V8113.5h1.612Z" fill="#8c757e"/><path d="M400.591,8124.95a3,3,0,0,1-1.073,1.1,2.928,2.928,0,0,1-1.513.384,2.843,2.843,0,0,1-2.259-.925,4.291,4.291,0,0,1-.81-2.881V8117.4h1.613v5.238a3.294,3.294,0,0,0,.417,1.948,1.548,1.548,0,0,0,1.3.531,2.638,2.638,0,0,0,1.42-.348,2.171,2.171,0,0,0,.848-.986V8117.4h1.611v8.856H400.7Z" fill="#8c757e"/><path d="M405.934,8117.4l.115,1.162a2.992,2.992,0,0,1,1.1-.976,3.292,3.292,0,0,1,1.551-.35,2.733,2.733,0,0,1,1.517.41,2.483,2.483,0,0,1,.954,1.227,3.292,3.292,0,0,1,1.105-1.194,2.9,2.9,0,0,1,1.6-.443,2.649,2.649,0,0,1,2.135.93,4.243,4.243,0,0,1,.786,2.795v5.3H415.19v-5.311a2.948,2.948,0,0,0-.45-1.855,1.643,1.643,0,0,0-1.342-.543,1.714,1.714,0,0,0-1.339.572,2.488,2.488,0,0,0-.6,1.449v5.688h-1.621v-5.311a2.916,2.916,0,0,0-.462-1.822,1.606,1.606,0,0,0-1.33-.576,2.217,2.217,0,0,0-1.211.3,1.959,1.959,0,0,0-.729.852v6.555h-1.612V8117.4Z" fill="#8c757e"/><path d="M424.585,8126.261q-.082-.4-.127-.709a4.879,4.879,0,0,1-.053-.618A3.778,3.778,0,0,1,423.23,8126a3.013,3.013,0,0,1-1.558.429,2.9,2.9,0,0,1-2.108-.708,2.6,2.6,0,0,1-.724-1.952,2.285,2.285,0,0,1,1.027-1.984,4.8,4.8,0,0,1,2.786-.717H424.4v-.875a1.625,1.625,0,0,0-.476-1.232,1.86,1.86,0,0,0-1.341-.453,1.936,1.936,0,0,0-1.264.4,1.193,1.193,0,0,0-.487.953H419.3l-.017-.049a2.144,2.144,0,0,1,.912-1.767,3.745,3.745,0,0,1,2.483-.8,3.66,3.66,0,0,1,2.423.766,2.71,2.71,0,0,1,.916,2.205v4.263a8.237,8.237,0,0,0,.05.918,4.718,4.718,0,0,0,.18.868Zm-2.676-1.188a2.865,2.865,0,0,0,1.579-.449,2.141,2.141,0,0,0,.917-1.027v-1.436H422.6a2.354,2.354,0,0,0-1.559.488,1.464,1.464,0,0,0-.585,1.151,1.211,1.211,0,0,0,.368.931A1.543,1.543,0,0,0,421.909,8125.073Z" fill="#8c757e"/><path d="M429.8,8117.4l.114,1.319a3.216,3.216,0,0,1,1.109-1.092,2.953,2.953,0,0,1,1.518-.391,2.892,2.892,0,0,1,2.218.84,3.679,3.679,0,0,1,.786,2.59v5.59H433.93V8120.7a2.393,2.393,0,0,0-.463-1.662,1.853,1.853,0,0,0-1.411-.49,2.257,2.257,0,0,0-1.231.336,2.434,2.434,0,0,0-.856.916v6.457h-1.612V8117.4Z" fill="#8c757e"/><path d="M443.325,8126.261q-.083-.4-.127-.709a5.073,5.073,0,0,1-.053-.618A3.778,3.778,0,0,1,441.97,8126a3.013,3.013,0,0,1-1.558.429,2.9,2.9,0,0,1-2.108-.708,2.6,2.6,0,0,1-.724-1.952,2.287,2.287,0,0,1,1.027-1.984,4.8,4.8,0,0,1,2.786-.717h1.752v-.875a1.629,1.629,0,0,0-.475-1.232,1.865,1.865,0,0,0-1.342-.453,1.936,1.936,0,0,0-1.264.4,1.193,1.193,0,0,0-.487.953h-1.538l-.017-.049a2.147,2.147,0,0,1,.912-1.767,3.746,3.746,0,0,1,2.484-.8,3.662,3.662,0,0,1,2.423.766,2.713,2.713,0,0,1,.916,2.205v4.263a8.249,8.249,0,0,0,.049.918,4.8,4.8,0,0,0,.18.868Zm-2.676-1.188a2.863,2.863,0,0,0,1.579-.449,2.136,2.136,0,0,0,.917-1.027v-1.436h-1.808a2.357,2.357,0,0,0-1.56.488,1.464,1.464,0,0,0-.585,1.151,1.211,1.211,0,0,0,.368.931A1.545,1.545,0,0,0,440.649,8125.073Z" fill="#8c757e"/><path d="M450.894,8122a5.912,5.912,0,0,1,.913-3.445,2.94,2.94,0,0,1,2.557-1.311,3.169,3.169,0,0,1,1.379.287,2.849,2.849,0,0,1,1.027.834V8113.5h1.613v12.766h-1.318l-.188-1.09a2.853,2.853,0,0,1-1.065.941,3.192,3.192,0,0,1-1.465.32,3.037,3.037,0,0,1-2.536-1.175,4.878,4.878,0,0,1-.917-3.088Zm1.613.172a3.763,3.763,0,0,0,.547,2.148,1.918,1.918,0,0,0,1.7.805,2.126,2.126,0,0,0,1.211-.326,2.435,2.435,0,0,0,.8-.918v-4.131a2.488,2.488,0,0,0-.8-.873,2.141,2.141,0,0,0-1.192-.322,1.841,1.841,0,0,0-1.714.957,4.947,4.947,0,0,0-.552,2.488Z" fill="#8c757e"/><path d="M464.463,8126.432a3.735,3.735,0,0,1-2.943-1.232,4.642,4.642,0,0,1-1.092-3.2v-.36a4.535,4.535,0,0,1,1.125-3.146,3.466,3.466,0,0,1,2.664-1.258,3.35,3.35,0,0,1,2.708,1.082,4.293,4.293,0,0,1,.917,2.879v1.008H462.1l-.024.041a3.482,3.482,0,0,0,.646,2.092,2.062,2.062,0,0,0,1.744.82,4.086,4.086,0,0,0,1.435-.232,3.335,3.335,0,0,0,1.069-.643l.629,1.049a3.718,3.718,0,0,1-1.252.781A5.029,5.029,0,0,1,464.463,8126.432Zm-.246-7.921a1.744,1.744,0,0,0-1.383.681,3.207,3.207,0,0,0-.7,1.707l.015.041h4.084v-.211a2.454,2.454,0,0,0-.508-1.582A1.811,1.811,0,0,0,464.217,8118.511Z" fill="#8c757e"/><path d="M474.8,8123.9a1.1,1.1,0,0,0-.406-.875,3.771,3.771,0,0,0-1.534-.6,6.463,6.463,0,0,1-2.426-.952,1.926,1.926,0,0,1-.814-1.638,2.312,2.312,0,0,1,.916-1.838,4.166,4.166,0,0,1,4.849.033,2.348,2.348,0,0,1,.872,1.932l-.017.048H474.7a1.405,1.405,0,0,0-.487-1.042,1.792,1.792,0,0,0-1.289-.463,1.854,1.854,0,0,0-1.277.377,1.176,1.176,0,0,0-.417.908,1.01,1.01,0,0,0,.368.826,3.825,3.825,0,0,0,1.5.539,6.432,6.432,0,0,1,2.5.979,1.971,1.971,0,0,1,.818,1.658,2.289,2.289,0,0,1-.953,1.906,4.007,4.007,0,0,1-2.492.728,3.9,3.9,0,0,1-2.668-.859,2.454,2.454,0,0,1-.925-2.006l.016-.049h1.539a1.48,1.48,0,0,0,.638,1.25,2.475,2.475,0,0,0,1.4.4,2.274,2.274,0,0,0,1.346-.348A1.07,1.07,0,0,0,474.8,8123.9Z" fill="#8c757e"/><path d="M478.047,8122a5.9,5.9,0,0,1,.913-3.445,2.939,2.939,0,0,1,2.556-1.311,3.166,3.166,0,0,1,1.379.287,2.853,2.853,0,0,1,1.028.834V8113.5h1.612v12.766h-1.318l-.188-1.09a2.858,2.858,0,0,1-1.064.941,3.2,3.2,0,0,1-1.465.32,3.036,3.036,0,0,1-2.536-1.175,4.872,4.872,0,0,1-.917-3.088Zm1.612.172a3.763,3.763,0,0,0,.548,2.148,1.915,1.915,0,0,0,1.7.805,2.129,2.129,0,0,0,1.212-.326,2.444,2.444,0,0,0,.8-.918v-4.131a2.491,2.491,0,0,0-.806-.873,2.141,2.141,0,0,0-1.192-.322,1.84,1.84,0,0,0-1.713.957,4.936,4.936,0,0,0-.553,2.488Z" fill="#8c757e"/><path d="M491.615,8126.432a3.733,3.733,0,0,1-2.942-1.232,4.638,4.638,0,0,1-1.092-3.2v-.36a4.535,4.535,0,0,1,1.125-3.146,3.464,3.464,0,0,1,2.663-1.258,3.352,3.352,0,0,1,2.709,1.082,4.3,4.3,0,0,1,.917,2.879v1.008H489.25l-.025.041a3.483,3.483,0,0,0,.647,2.092,2.059,2.059,0,0,0,1.743.82,4.086,4.086,0,0,0,1.435-.232,3.323,3.323,0,0,0,1.069-.643l.63,1.049a3.738,3.738,0,0,1-1.252.781A5.039,5.039,0,0,1,491.615,8126.432Zm-.246-7.921a1.745,1.745,0,0,0-1.383.681,3.215,3.215,0,0,0-.7,1.707l.016.041h4.084v-.211a2.454,2.454,0,0,0-.508-1.582A1.813,1.813,0,0,0,491.369,8118.511Z" fill="#8c757e"/><path d="M506.115,8123.9a1.1,1.1,0,0,0-.4-.875,3.783,3.783,0,0,0-1.535-.6,6.457,6.457,0,0,1-2.425-.952,1.927,1.927,0,0,1-.815-1.638,2.312,2.312,0,0,1,.916-1.838,4.166,4.166,0,0,1,4.849.033,2.348,2.348,0,0,1,.872,1.932l-.017.048h-1.538a1.405,1.405,0,0,0-.487-1.042,1.79,1.79,0,0,0-1.289-.463,1.853,1.853,0,0,0-1.276.377,1.173,1.173,0,0,0-.417.908,1.01,1.01,0,0,0,.368.826,3.825,3.825,0,0,0,1.5.539,6.432,6.432,0,0,1,2.5.979,1.969,1.969,0,0,1,.818,1.658,2.287,2.287,0,0,1-.953,1.906,4.007,4.007,0,0,1-2.492.728,3.9,3.9,0,0,1-2.668-.859,2.456,2.456,0,0,1-.925-2.006l.017-.049h1.539a1.475,1.475,0,0,0,.638,1.25,2.472,2.472,0,0,0,1.4.4,2.279,2.279,0,0,0,1.347-.348A1.069,1.069,0,0,0,506.115,8123.9Z" fill="#8c757e"/><path d="M515.354,8124.95a3,3,0,0,1-1.072,1.1,2.932,2.932,0,0,1-1.514.384,2.844,2.844,0,0,1-2.259-.925,4.291,4.291,0,0,1-.809-2.881V8117.4h1.612v5.238a3.3,3.3,0,0,0,.417,1.948,1.551,1.551,0,0,0,1.3.531,2.641,2.641,0,0,0,1.42-.348,2.171,2.171,0,0,0,.848-.986V8117.4h1.611v8.856h-1.448Z" fill="#8c757e"/><path d="M339.386,8134.608v2.135h1.678v1.195h-1.678v5.377a1.2,1.2,0,0,0,.258.875.93.93,0,0,0,.684.254,1.673,1.673,0,0,0,.306-.033,1.815,1.815,0,0,0,.3-.082l.213,1.1a1.459,1.459,0,0,1-.528.243,2.7,2.7,0,0,1-.7.093,2.085,2.085,0,0,1-1.564-.593,2.576,2.576,0,0,1-.581-1.862v-5.377h-1.407v-1.195h1.407v-2.135Z" fill="#8c757e"/><path d="M347.243,8138.167l-.827-.049a1.856,1.856,0,0,0-1.076.3,1.959,1.959,0,0,0-.675.851v6.327h-1.613v-8.856h1.441l.155,1.293a3.106,3.106,0,0,1,.929-1.072,2.179,2.179,0,0,1,1.273-.385,1.988,1.988,0,0,1,.343.029,2.1,2.1,0,0,1,.271.063Z" fill="#8c757e"/><path d="M350.541,8134.477h-1.613v-1.644h1.613Zm0,11.122h-1.613v-8.856h1.613Z" fill="#8c757e"/><path d="M352.652,8141.335a5.911,5.911,0,0,1,.913-3.445,2.937,2.937,0,0,1,2.557-1.311,3.166,3.166,0,0,1,1.379.287,2.83,2.83,0,0,1,1.027.834v-4.867h1.612V8145.6h-1.317l-.189-1.09a2.856,2.856,0,0,1-1.064.941,3.2,3.2,0,0,1-1.465.32,3.037,3.037,0,0,1-2.536-1.175,4.879,4.879,0,0,1-.917-3.088Zm1.612.172a3.762,3.762,0,0,0,.548,2.148,1.916,1.916,0,0,0,1.7.805,2.135,2.135,0,0,0,1.212-.326,2.444,2.444,0,0,0,.8-.918v-4.131a2.5,2.5,0,0,0-.806-.873,2.137,2.137,0,0,0-1.191-.322,1.841,1.841,0,0,0-1.714.957,4.944,4.944,0,0,0-.553,2.488Z" fill="#8c757e"/><path d="M364.289,8134.477h-1.613v-1.644h1.613Zm0,11.122h-1.613v-8.856h1.613Z" fill="#8c757e"/><path d="M368.209,8136.743l.114,1.162a2.986,2.986,0,0,1,1.1-.976,3.282,3.282,0,0,1,1.55-.35,2.739,2.739,0,0,1,1.518.41,2.484,2.484,0,0,1,.953,1.227,3.292,3.292,0,0,1,1.1-1.194,2.9,2.9,0,0,1,1.6-.443,2.654,2.654,0,0,1,2.136.93,4.247,4.247,0,0,1,.786,2.8v5.295h-1.612v-5.311a2.953,2.953,0,0,0-.451-1.856,1.643,1.643,0,0,0-1.341-.542,1.712,1.712,0,0,0-1.339.572,2.5,2.5,0,0,0-.6,1.449v5.688h-1.621v-5.311a2.908,2.908,0,0,0-.462-1.822,1.6,1.6,0,0,0-1.33-.576,2.224,2.224,0,0,0-1.211.3,1.96,1.96,0,0,0-.728.852v6.555h-1.613v-8.856Z" fill="#8c757e"/><path d="M385.092,8145.77a3.735,3.735,0,0,1-2.943-1.232,4.642,4.642,0,0,1-1.092-3.2v-.36a4.536,4.536,0,0,1,1.125-3.146,3.466,3.466,0,0,1,2.663-1.258,3.351,3.351,0,0,1,2.709,1.082,4.293,4.293,0,0,1,.917,2.879v1.008h-5.745l-.024.041a3.48,3.48,0,0,0,.646,2.092,2.063,2.063,0,0,0,1.744.82,4.067,4.067,0,0,0,1.435-.233,3.3,3.3,0,0,0,1.068-.642l.63,1.049a3.718,3.718,0,0,1-1.252.781A5.029,5.029,0,0,1,385.092,8145.77Zm-.247-7.921a1.743,1.743,0,0,0-1.382.681,3.218,3.218,0,0,0-.7,1.707l.016.041h4.084v-.211a2.453,2.453,0,0,0-.508-1.582A1.811,1.811,0,0,0,384.845,8137.849Z" fill="#8c757e"/><path d="M391.719,8136.743l.115,1.318a3.207,3.207,0,0,1,1.109-1.091,2.946,2.946,0,0,1,1.518-.391,2.888,2.888,0,0,1,2.217.84,3.673,3.673,0,0,1,.787,2.59v5.59h-1.613v-5.557a2.394,2.394,0,0,0-.463-1.662,1.855,1.855,0,0,0-1.411-.49,2.265,2.265,0,0,0-1.231.335,2.452,2.452,0,0,0-.856.916v6.458h-1.612v-8.856Z" fill="#8c757e"/><path d="M404.952,8143.241a1.1,1.1,0,0,0-.4-.875,3.78,3.78,0,0,0-1.535-.6,6.434,6.434,0,0,1-2.425-.951,1.927,1.927,0,0,1-.815-1.638,2.313,2.313,0,0,1,.916-1.838,4.166,4.166,0,0,1,4.849.033,2.348,2.348,0,0,1,.872,1.932l-.017.048h-1.538a1.41,1.41,0,0,0-.487-1.043,1.794,1.794,0,0,0-1.289-.462,1.863,1.863,0,0,0-1.277.376,1.178,1.178,0,0,0-.417.909,1.01,1.01,0,0,0,.369.826,3.825,3.825,0,0,0,1.5.539,6.448,6.448,0,0,1,2.5.978,1.973,1.973,0,0,1,.818,1.659,2.286,2.286,0,0,1-.953,1.906,4.007,4.007,0,0,1-2.492.728,3.9,3.9,0,0,1-2.668-.859,2.454,2.454,0,0,1-.925-2.006l.017-.049h1.539a1.477,1.477,0,0,0,.637,1.25,2.477,2.477,0,0,0,1.4.4,2.276,2.276,0,0,0,1.347-.348A1.068,1.068,0,0,0,404.952,8143.241Z" fill="#8c757e"/><path d="M410.312,8134.477H408.7v-1.644h1.612Zm0,11.122H408.7v-8.856h1.612Z" fill="#8c757e"/><path d="M412.416,8141.089a4.876,4.876,0,0,1,1.063-3.237,3.941,3.941,0,0,1,5.8,0,4.854,4.854,0,0,1,1.068,3.24v.179a4.846,4.846,0,0,1-1.064,3.241,3.958,3.958,0,0,1-5.8,0,4.841,4.841,0,0,1-1.067-3.237Zm1.612.176a4.193,4.193,0,0,0,.593,2.322,2.146,2.146,0,0,0,3.514,0,4.169,4.169,0,0,0,.6-2.322v-.18a4.158,4.158,0,0,0-.6-2.313,1.975,1.975,0,0,0-1.764-.923,1.946,1.946,0,0,0-1.747.923,4.2,4.2,0,0,0-.593,2.313Z" fill="#8c757e"/><path d="M423.758,8136.743l.114,1.318a3.207,3.207,0,0,1,1.109-1.091,2.946,2.946,0,0,1,1.518-.391,2.892,2.892,0,0,1,2.218.84,3.678,3.678,0,0,1,.786,2.59v5.59H427.89v-5.557a2.394,2.394,0,0,0-.463-1.662,1.855,1.855,0,0,0-1.411-.49,2.265,2.265,0,0,0-1.231.335,2.452,2.452,0,0,0-.856.916v6.458h-1.612v-8.856Z" fill="#8c757e"/><path d="M437.285,8145.6c-.055-.268-.1-.5-.127-.709a5.1,5.1,0,0,1-.053-.618,3.766,3.766,0,0,1-1.175,1.069,3.013,3.013,0,0,1-1.558.429,2.892,2.892,0,0,1-2.108-.709,2.6,2.6,0,0,1-.724-1.951,2.287,2.287,0,0,1,1.027-1.984,4.8,4.8,0,0,1,2.786-.717h1.752v-.875a1.627,1.627,0,0,0-.475-1.232,1.865,1.865,0,0,0-1.342-.453,1.936,1.936,0,0,0-1.264.4,1.194,1.194,0,0,0-.487.953H432l-.017-.049a2.147,2.147,0,0,1,.912-1.767,3.748,3.748,0,0,1,2.484-.8,3.655,3.655,0,0,1,2.422.766,2.709,2.709,0,0,1,.917,2.2v4.263a8.262,8.262,0,0,0,.049.918,4.805,4.805,0,0,0,.18.868Zm-2.676-1.188a2.861,2.861,0,0,0,1.579-.449,2.134,2.134,0,0,0,.917-1.028V8141.5H435.3a2.357,2.357,0,0,0-1.56.488,1.465,1.465,0,0,0-.585,1.151,1.211,1.211,0,0,0,.368.931A1.545,1.545,0,0,0,434.609,8144.411Z" fill="#8c757e"/><path d="M442.8,8145.6h-1.612v-12.766H442.8Z" fill="#8c757e"/><path d="M447.023,8134.477h-1.612v-1.644h1.612Zm0,11.122h-1.612v-8.856h1.612Z" fill="#8c757e"/><path d="M449.134,8141.335a5.9,5.9,0,0,1,.914-3.445,2.936,2.936,0,0,1,2.556-1.311,3.159,3.159,0,0,1,1.379.287,2.829,2.829,0,0,1,1.027.834v-4.867h1.613V8145.6H455.3l-.188-1.09a2.859,2.859,0,0,1-1.065.941,3.194,3.194,0,0,1-1.464.32,3.04,3.04,0,0,1-2.537-1.175,4.879,4.879,0,0,1-.917-3.088Zm1.613.172a3.754,3.754,0,0,0,.548,2.148,1.915,1.915,0,0,0,1.7.805,2.137,2.137,0,0,0,1.212-.326,2.442,2.442,0,0,0,.8-.918v-4.131a2.492,2.492,0,0,0-.805-.873,2.14,2.14,0,0,0-1.192-.322,1.839,1.839,0,0,0-1.713.957,4.933,4.933,0,0,0-.553,2.488Z" fill="#8c757e"/><path d="M464.47,8145.6c-.054-.268-.1-.5-.127-.709a5.1,5.1,0,0,1-.052-.618,3.777,3.777,0,0,1-1.175,1.069,3.014,3.014,0,0,1-1.559.429,2.888,2.888,0,0,1-2.107-.709,2.6,2.6,0,0,1-.725-1.951,2.285,2.285,0,0,1,1.028-1.984,4.8,4.8,0,0,1,2.786-.717h1.752v-.875a1.624,1.624,0,0,0-.476-1.232,1.863,1.863,0,0,0-1.342-.453,1.935,1.935,0,0,0-1.263.4,1.193,1.193,0,0,0-.488.953h-1.538l-.016-.049a2.141,2.141,0,0,1,.912-1.767,3.746,3.746,0,0,1,2.483-.8,3.657,3.657,0,0,1,2.423.766,2.711,2.711,0,0,1,.916,2.2v4.263a8.257,8.257,0,0,0,.05.918,4.723,4.723,0,0,0,.18.868Zm-2.675-1.188a2.861,2.861,0,0,0,1.579-.449,2.144,2.144,0,0,0,.917-1.028V8141.5h-1.809a2.354,2.354,0,0,0-1.559.488,1.465,1.465,0,0,0-.585,1.151,1.211,1.211,0,0,0,.368.931A1.543,1.543,0,0,0,461.8,8144.411Z" fill="#8c757e"/><path d="M467.875,8141.335a5.9,5.9,0,0,1,.913-3.445,2.936,2.936,0,0,1,2.556-1.311,3.159,3.159,0,0,1,1.379.287,2.824,2.824,0,0,1,1.028.834v-4.867h1.612V8145.6h-1.317l-.189-1.09a2.856,2.856,0,0,1-1.064.941,3.2,3.2,0,0,1-1.465.32,3.037,3.037,0,0,1-2.536-1.175,4.873,4.873,0,0,1-.917-3.088Zm1.612.172a3.762,3.762,0,0,0,.548,2.148,1.915,1.915,0,0,0,1.7.805,2.137,2.137,0,0,0,1.212-.326,2.444,2.444,0,0,0,.8-.918v-4.131a2.5,2.5,0,0,0-.806-.873,2.139,2.139,0,0,0-1.191-.322,1.839,1.839,0,0,0-1.714.957,4.944,4.944,0,0,0-.553,2.488Z" fill="#8c757e"/><path d="M484.642,8142.317l.286,1.112h.05l2.177-6.686h1.792l-3.724,10.213a4.568,4.568,0,0,1-.962,1.555,2.208,2.208,0,0,1-1.689.664,3.615,3.615,0,0,1-.5-.045c-.2-.031-.357-.059-.467-.086l.164-1.27a1.993,1.993,0,0,1,.29.018c.227.015.37.023.43.023a1,1,0,0,0,.843-.457,4.817,4.817,0,0,0,.549-1.015l.384-.924-3.29-8.676h1.8Z" fill="#8c757e"/><path d="M344.82,8160.845a4.868,4.868,0,0,1-.92,3.089,3.041,3.041,0,0,1-2.533,1.174,3.228,3.228,0,0,1-1.523-.34,2.826,2.826,0,0,1-1.071-1l-.2,1.17h-1.317v-12.765h1.612v4.959a2.791,2.791,0,0,1,1.035-.9,3.179,3.179,0,0,1,1.444-.31,2.943,2.943,0,0,1,2.554,1.308,5.9,5.9,0,0,1,.916,3.446Zm-1.612-.172a4.885,4.885,0,0,0-.561-2.483,1.843,1.843,0,0,0-1.706-.963,2.112,2.112,0,0,0-1.256.366,2.561,2.561,0,0,0-.814.978v3.838a2.625,2.625,0,0,0,.814,1.022,2.1,2.1,0,0,0,1.273.369,1.914,1.914,0,0,0,1.694-.811,3.722,3.722,0,0,0,.556-2.144Z" fill="#8c757e"/><path d="M348.527,8153.815h-1.612v-1.644h1.612Zm0,11.121h-1.612v-8.853h1.612Z" fill="#8c757e"/><path d="M350.638,8160.673a5.914,5.914,0,0,1,.913-3.446,2.937,2.937,0,0,1,2.557-1.308,3.166,3.166,0,0,1,1.379.287,2.81,2.81,0,0,1,1.027.834v-4.869h1.613v12.765h-1.318l-.188-1.087a2.87,2.87,0,0,1-1.065.941,3.2,3.2,0,0,1-1.464.318,3.035,3.035,0,0,1-2.537-1.174,4.88,4.88,0,0,1-.917-3.089Zm1.613.172a3.756,3.756,0,0,0,.548,2.148,1.917,1.917,0,0,0,1.7.807,2.144,2.144,0,0,0,1.212-.328,2.439,2.439,0,0,0,.8-.916v-4.133a2.474,2.474,0,0,0-.8-.871,2.142,2.142,0,0,0-1.192-.325,1.845,1.845,0,0,0-1.714.959,4.939,4.939,0,0,0-.552,2.487Z" fill="#8c757e"/><path d="M362.275,8153.815h-1.612v-1.644h1.612Zm0,11.121h-1.612v-8.853h1.612Z" fill="#8c757e"/><path d="M366.2,8156.083l.114,1.162a3.029,3.029,0,0,1,1.1-.979,3.3,3.3,0,0,1,1.551-.347,2.754,2.754,0,0,1,1.517.408,2.482,2.482,0,0,1,.953,1.229,3.3,3.3,0,0,1,1.106-1.2,2.894,2.894,0,0,1,1.6-.441,2.647,2.647,0,0,1,2.136.93,4.242,4.242,0,0,1,.786,2.792v5.295h-1.612v-5.31a2.954,2.954,0,0,0-.45-1.854,1.642,1.642,0,0,0-1.342-.545,1.709,1.709,0,0,0-1.339.575,2.485,2.485,0,0,0-.6,1.447v5.687H370.1v-5.31a2.9,2.9,0,0,0-.462-1.82,1.6,1.6,0,0,0-1.33-.579,2.226,2.226,0,0,0-1.211.3,1.966,1.966,0,0,0-.728.852v6.554h-1.612v-8.853Z" fill="#8c757e"/><path d="M383.078,8165.108a3.738,3.738,0,0,1-2.943-1.23,4.644,4.644,0,0,1-1.091-3.2v-.361a4.542,4.542,0,0,1,1.125-3.146,3.462,3.462,0,0,1,2.663-1.256,3.352,3.352,0,0,1,2.709,1.08,4.306,4.306,0,0,1,.917,2.881v1.006h-5.745l-.025.041a3.483,3.483,0,0,0,.647,2.093,2.06,2.06,0,0,0,1.743.821,4.008,4.008,0,0,0,1.435-.235,3.272,3.272,0,0,0,1.069-.642l.63,1.049a3.74,3.74,0,0,1-1.252.783A5.04,5.04,0,0,1,383.078,8165.108Zm-.246-7.922a1.752,1.752,0,0,0-1.383.682,3.218,3.218,0,0,0-.7,1.709l.015.041h4.084v-.213a2.456,2.456,0,0,0-.507-1.582A1.81,1.81,0,0,0,382.832,8157.186Z" fill="#8c757e"/><path d="M389.706,8156.083l.114,1.316a3.24,3.24,0,0,1,1.109-1.092,2.959,2.959,0,0,1,1.518-.388,2.892,2.892,0,0,1,2.218.838,3.688,3.688,0,0,1,.786,2.592v5.587h-1.612v-5.556a2.39,2.39,0,0,0-.463-1.66,1.846,1.846,0,0,0-1.411-.493,2.288,2.288,0,0,0-1.232.336,2.472,2.472,0,0,0-.855.916v6.457h-1.613v-8.853Z" fill="#8c757e"/><path d="M402.938,8162.581a1.1,1.1,0,0,0-.4-.877,3.817,3.817,0,0,0-1.534-.6,6.431,6.431,0,0,1-2.426-.951,1.926,1.926,0,0,1-.814-1.639,2.306,2.306,0,0,1,.916-1.837,4.172,4.172,0,0,1,4.848.033,2.345,2.345,0,0,1,.872,1.931l-.016.049h-1.538a1.415,1.415,0,0,0-.488-1.043,1.794,1.794,0,0,0-1.289-.463,1.863,1.863,0,0,0-1.276.377,1.181,1.181,0,0,0-.417.909,1.009,1.009,0,0,0,.368.826,3.78,3.78,0,0,0,1.5.541,6.456,6.456,0,0,1,2.5.978,1.968,1.968,0,0,1,.818,1.657,2.285,2.285,0,0,1-.953,1.906,3.988,3.988,0,0,1-2.492.728,3.887,3.887,0,0,1-2.668-.859,2.453,2.453,0,0,1-.925-2l.017-.049h1.539a1.478,1.478,0,0,0,.638,1.25,2.487,2.487,0,0,0,1.4.4,2.291,2.291,0,0,0,1.347-.348A1.074,1.074,0,0,0,402.938,8162.581Z" fill="#8c757e"/><path d="M408.3,8153.815h-1.613v-1.644H408.3Zm0,11.121h-1.613v-8.853H408.3Z" fill="#8c757e"/><path d="M410.4,8160.429a4.875,4.875,0,0,1,1.064-3.237,3.563,3.563,0,0,1,2.888-1.273,3.6,3.6,0,0,1,2.909,1.267,4.862,4.862,0,0,1,1.069,3.243v.179a4.848,4.848,0,0,1-1.065,3.241,3.963,3.963,0,0,1-5.8,0,4.852,4.852,0,0,1-1.067-3.237Zm1.612.175a4.191,4.191,0,0,0,.593,2.321,2.144,2.144,0,0,0,3.515,0,4.167,4.167,0,0,0,.6-2.321v-.179a4.162,4.162,0,0,0-.6-2.315,1.975,1.975,0,0,0-1.764-.924,1.949,1.949,0,0,0-1.747.924,4.211,4.211,0,0,0-.593,2.315Z" fill="#8c757e"/><path d="M421.744,8156.083l.114,1.316a3.24,3.24,0,0,1,1.109-1.092,2.959,2.959,0,0,1,1.518-.388,2.892,2.892,0,0,1,2.218.838,3.688,3.688,0,0,1,.786,2.592v5.587h-1.612v-5.556a2.39,2.39,0,0,0-.463-1.66,1.846,1.846,0,0,0-1.411-.493,2.288,2.288,0,0,0-1.232.336,2.472,2.472,0,0,0-.855.916v6.457H420.3v-8.853Z" fill="#8c757e"/><path d="M435.271,8164.936c-.054-.267-.1-.5-.127-.707a4.909,4.909,0,0,1-.052-.619,3.773,3.773,0,0,1-1.175,1.069,3,3,0,0,1-1.559.429,2.9,2.9,0,0,1-2.107-.707,2.6,2.6,0,0,1-.725-1.951,2.292,2.292,0,0,1,1.027-1.986,4.8,4.8,0,0,1,2.787-.715h1.752v-.875a1.627,1.627,0,0,0-.476-1.233,1.866,1.866,0,0,0-1.342-.455,1.93,1.93,0,0,0-1.264.4,1.192,1.192,0,0,0-.487.953h-1.538l-.017-.049a2.139,2.139,0,0,1,.913-1.767,3.736,3.736,0,0,1,2.483-.8,3.664,3.664,0,0,1,2.423.765,2.713,2.713,0,0,1,.916,2.206v4.263a7.981,7.981,0,0,0,.05.916,4.659,4.659,0,0,0,.179.867Zm-2.676-1.185a2.889,2.889,0,0,0,1.58-.449,2.145,2.145,0,0,0,.917-1.03v-1.435h-1.809a2.357,2.357,0,0,0-1.56.49,1.463,1.463,0,0,0-.585,1.15,1.2,1.2,0,0,0,.369.93A1.542,1.542,0,0,0,432.6,8163.751Z" fill="#8c757e"/><path d="M440.787,8164.936h-1.612v-12.765h1.612Z" fill="#8c757e"/><path d="M445.009,8153.815H443.4v-1.644h1.612Zm0,11.121H443.4v-8.853h1.612Z" fill="#8c757e"/><path d="M447.121,8160.673a5.906,5.906,0,0,1,.913-3.446,2.936,2.936,0,0,1,2.557-1.308,3.165,3.165,0,0,1,1.378.287,2.8,2.8,0,0,1,1.028.834v-4.869h1.612v12.765h-1.317l-.189-1.087a2.868,2.868,0,0,1-1.064.941,3.2,3.2,0,0,1-1.465.318,3.033,3.033,0,0,1-2.536-1.174,4.874,4.874,0,0,1-.917-3.089Zm1.612.172a3.764,3.764,0,0,0,.548,2.148,1.918,1.918,0,0,0,1.7.807,2.139,2.139,0,0,0,1.212-.328,2.441,2.441,0,0,0,.8-.916v-4.133a2.476,2.476,0,0,0-.806-.871,2.139,2.139,0,0,0-1.191-.325,1.843,1.843,0,0,0-1.714.959,4.938,4.938,0,0,0-.553,2.487Z" fill="#8c757e"/><path d="M462.457,8164.936c-.055-.267-.1-.5-.127-.707a5.105,5.105,0,0,1-.053-.619,3.762,3.762,0,0,1-1.175,1.069,3,3,0,0,1-1.558.429,2.9,2.9,0,0,1-2.108-.707,2.6,2.6,0,0,1-.724-1.951,2.289,2.289,0,0,1,1.027-1.986,4.8,4.8,0,0,1,2.786-.715h1.752v-.875a1.623,1.623,0,0,0-.476-1.233,1.863,1.863,0,0,0-1.341-.455,1.926,1.926,0,0,0-1.264.4,1.192,1.192,0,0,0-.487.953h-1.538l-.017-.049a2.138,2.138,0,0,1,.912-1.767,3.741,3.741,0,0,1,2.484-.8,3.661,3.661,0,0,1,2.422.765,2.71,2.71,0,0,1,.916,2.206v4.263a8.215,8.215,0,0,0,.05.916,4.661,4.661,0,0,0,.18.867Zm-2.676-1.185a2.885,2.885,0,0,0,1.579-.449,2.14,2.14,0,0,0,.917-1.03v-1.435h-1.809a2.354,2.354,0,0,0-1.559.49,1.46,1.46,0,0,0-.585,1.15,1.208,1.208,0,0,0,.368.93A1.543,1.543,0,0,0,459.781,8163.751Z" fill="#8c757e"/><path d="M465.861,8160.673a5.914,5.914,0,0,1,.913-3.446,2.937,2.937,0,0,1,2.557-1.308,3.173,3.173,0,0,1,1.379.287,2.81,2.81,0,0,1,1.027.834v-4.869h1.612v12.765h-1.317l-.189-1.087a2.867,2.867,0,0,1-1.064.941,3.2,3.2,0,0,1-1.465.318,3.033,3.033,0,0,1-2.536-1.174,4.879,4.879,0,0,1-.917-3.089Zm1.612.172a3.764,3.764,0,0,0,.548,2.148,1.918,1.918,0,0,0,1.7.807,2.139,2.139,0,0,0,1.212-.328,2.441,2.441,0,0,0,.8-.916v-4.133a2.476,2.476,0,0,0-.806-.871,2.138,2.138,0,0,0-1.191-.325,1.844,1.844,0,0,0-1.714.959,4.938,4.938,0,0,0-.553,2.487Z" fill="#8c757e"/><path d="M477.163,8164.544l-1.228,2.5h-.958l.573-2.586v-1.334h1.613Z" fill="#8c757e"/><path d="M490.77,8160.845a4.873,4.873,0,0,1-.916,3.089,3.027,3.027,0,0,1-2.528,1.174,3.543,3.543,0,0,1-1.437-.273,2.761,2.761,0,0,1-1.051-.822v4.328h-1.613v-12.258h1.237l.253,1.144a2.9,2.9,0,0,1,1.081-.972,3.2,3.2,0,0,1,1.5-.336,2.943,2.943,0,0,1,2.558,1.305,5.9,5.9,0,0,1,.912,3.449Zm-1.611-.176a4.671,4.671,0,0,0-.594-2.473,1.925,1.925,0,0,0-1.747-.969,2.156,2.156,0,0,0-1.186.315,2.364,2.364,0,0,0-.794.863v4.276a2.289,2.289,0,0,0,.794.853,2.243,2.243,0,0,0,1.2.307,1.986,1.986,0,0,0,1.734-.838,3.667,3.667,0,0,0,.59-2.162Z" fill="#8c757e"/><path d="M498.193,8164.936c-.055-.267-.1-.5-.127-.707a5.105,5.105,0,0,1-.053-.619,3.758,3.758,0,0,1-1.174,1.069,3,3,0,0,1-1.559.429,2.9,2.9,0,0,1-2.107-.707,2.6,2.6,0,0,1-.725-1.951,2.292,2.292,0,0,1,1.027-1.986,4.8,4.8,0,0,1,2.786-.715h1.752v-.875a1.626,1.626,0,0,0-.475-1.233,1.868,1.868,0,0,0-1.342-.455,1.928,1.928,0,0,0-1.264.4,1.192,1.192,0,0,0-.487.953h-1.538l-.017-.049a2.141,2.141,0,0,1,.912-1.767,3.741,3.741,0,0,1,2.484-.8,3.664,3.664,0,0,1,2.423.765,2.713,2.713,0,0,1,.916,2.206v4.263a7.981,7.981,0,0,0,.05.916,4.659,4.659,0,0,0,.179.867Zm-2.676-1.185a2.883,2.883,0,0,0,1.579-.449,2.135,2.135,0,0,0,.917-1.03v-1.435H496.2a2.355,2.355,0,0,0-1.56.49,1.463,1.463,0,0,0-.585,1.15,1.208,1.208,0,0,0,.368.93A1.546,1.546,0,0,0,495.517,8163.751Z" fill="#8c757e"/><path d="M506.156,8157.507l-.827-.049a1.831,1.831,0,0,0-1.076.3,1.937,1.937,0,0,0-.675.849v6.326h-1.612v-8.853h1.44l.155,1.293a3.056,3.056,0,0,1,.929-1.072,2.176,2.176,0,0,1,1.273-.385,1.978,1.978,0,0,1,.343.029,2.028,2.028,0,0,1,.271.061Z" fill="#8c757e"/><path d="M513.153,8164.936c-.055-.267-.1-.5-.127-.707a5.1,5.1,0,0,1-.053-.619,3.759,3.759,0,0,1-1.174,1.069,3,3,0,0,1-1.559.429,2.9,2.9,0,0,1-2.107-.707,2.6,2.6,0,0,1-.725-1.951,2.292,2.292,0,0,1,1.027-1.986,4.8,4.8,0,0,1,2.786-.715h1.752v-.875a1.626,1.626,0,0,0-.475-1.233,1.867,1.867,0,0,0-1.342-.455,1.928,1.928,0,0,0-1.264.4,1.192,1.192,0,0,0-.487.953h-1.538l-.017-.049a2.141,2.141,0,0,1,.912-1.767,3.741,3.741,0,0,1,2.484-.8,3.664,3.664,0,0,1,2.423.765,2.713,2.713,0,0,1,.916,2.206v4.263a8.227,8.227,0,0,0,.049.916,4.741,4.741,0,0,0,.18.867Zm-2.676-1.185a2.883,2.883,0,0,0,1.579-.449,2.135,2.135,0,0,0,.917-1.03v-1.435h-1.808a2.355,2.355,0,0,0-1.56.49,1.463,1.463,0,0,0-.585,1.15,1.208,1.208,0,0,0,.368.93A1.545,1.545,0,0,0,510.477,8163.751Z" fill="#8c757e"/><path d="M526.238,8162.581a1.1,1.1,0,0,0-.4-.877,3.824,3.824,0,0,0-1.534-.6,6.425,6.425,0,0,1-2.426-.951,1.927,1.927,0,0,1-.815-1.639,2.309,2.309,0,0,1,.916-1.837,4.173,4.173,0,0,1,4.849.033,2.351,2.351,0,0,1,.872,1.931l-.017.049H526.14a1.414,1.414,0,0,0-.487-1.043,1.794,1.794,0,0,0-1.289-.463,1.863,1.863,0,0,0-1.276.377,1.181,1.181,0,0,0-.417.909,1.009,1.009,0,0,0,.368.826,3.78,3.78,0,0,0,1.5.541,6.456,6.456,0,0,1,2.5.978,1.968,1.968,0,0,1,.818,1.657,2.285,2.285,0,0,1-.953,1.906,3.992,3.992,0,0,1-2.492.728,3.885,3.885,0,0,1-2.668-.859,2.453,2.453,0,0,1-.925-2l.017-.049h1.539a1.478,1.478,0,0,0,.638,1.25,2.487,2.487,0,0,0,1.4.4,2.293,2.293,0,0,0,1.347-.348A1.074,1.074,0,0,0,526.238,8162.581Z" fill="#8c757e"/><path d="M535.477,8163.628a3,3,0,0,1-1.072,1.1,2.927,2.927,0,0,1-1.514.384,2.844,2.844,0,0,1-2.258-.924,4.288,4.288,0,0,1-.81-2.88v-5.221h1.612v5.236a3.3,3.3,0,0,0,.417,1.949,1.554,1.554,0,0,0,1.3.532,2.649,2.649,0,0,0,1.42-.348,2.185,2.185,0,0,0,.848-.986v-6.383h1.611v8.853h-1.448Z" fill="#8c757e"/><path d="M342.7,8184.274c-.055-.267-.1-.5-.127-.707a5.1,5.1,0,0,1-.053-.619,3.751,3.751,0,0,1-1.175,1.068,2.986,2.986,0,0,1-1.558.43,2.9,2.9,0,0,1-2.108-.707,2.6,2.6,0,0,1-.724-1.951,2.292,2.292,0,0,1,1.027-1.986,4.8,4.8,0,0,1,2.786-.715h1.752v-.875a1.627,1.627,0,0,0-.475-1.233,1.868,1.868,0,0,0-1.342-.455,1.929,1.929,0,0,0-1.264.4,1.19,1.19,0,0,0-.487.953h-1.538l-.017-.049a2.143,2.143,0,0,1,.912-1.768,3.745,3.745,0,0,1,2.484-.8,3.667,3.667,0,0,1,2.423.765,2.712,2.712,0,0,1,.916,2.205v4.264a8.238,8.238,0,0,0,.049.916,4.728,4.728,0,0,0,.18.867Zm-2.676-1.185a2.889,2.889,0,0,0,1.579-.449,2.138,2.138,0,0,0,.917-1.03v-1.435h-1.808a2.355,2.355,0,0,0-1.56.49,1.461,1.461,0,0,0-.585,1.15,1.209,1.209,0,0,0,.368.93A1.545,1.545,0,0,0,340.025,8183.089Z" fill="#8c757e"/><path d="M354.018,8180.182a4.874,4.874,0,0,1-.916,3.09,3.026,3.026,0,0,1-2.528,1.174,3.546,3.546,0,0,1-1.437-.273,2.754,2.754,0,0,1-1.051-.823v4.329h-1.613v-12.258h1.237l.253,1.144a2.906,2.906,0,0,1,1.081-.972,3.207,3.207,0,0,1,1.505-.336,2.944,2.944,0,0,1,2.557,1.3,5.907,5.907,0,0,1,.912,3.45Zm-1.611-.175a4.669,4.669,0,0,0-.594-2.473,1.925,1.925,0,0,0-1.747-.969,2.156,2.156,0,0,0-1.186.315,2.362,2.362,0,0,0-.794.863v4.275a2.284,2.284,0,0,0,.794.854,2.238,2.238,0,0,0,1.2.307,1.985,1.985,0,0,0,1.734-.838,3.668,3.668,0,0,0,.59-2.162Z" fill="#8c757e"/><path d="M357.742,8184.274H356.13v-12.765h1.612Z" fill="#8c757e"/><path d="M361.965,8173.153h-1.613v-1.644h1.613Zm0,11.121h-1.613v-8.853h1.613Z" fill="#8c757e"/><path d="M368.045,8183.179a2.172,2.172,0,0,0,1.412-.5,1.509,1.509,0,0,0,.609-1.214h1.448l.017.048a2.5,2.5,0,0,1-1.019,2.04,3.724,3.724,0,0,1-2.467.89,3.585,3.585,0,0,1-2.954-1.26,4.859,4.859,0,0,1-1.023-3.166v-.343a4.844,4.844,0,0,1,1.027-3.157,4.033,4.033,0,0,1,5.491-.347,2.855,2.855,0,0,1,.954,2.25l-.017.051h-1.457a1.866,1.866,0,0,0-.572-1.379,1.973,1.973,0,0,0-1.449-.571,1.945,1.945,0,0,0-1.813.912,4.3,4.3,0,0,0-.544,2.237v.342a4.335,4.335,0,0,0,.54,2.259A1.946,1.946,0,0,0,368.045,8183.179Z" fill="#8c757e"/><path d="M378.782,8184.274c-.055-.267-.1-.5-.127-.707a5.1,5.1,0,0,1-.053-.619,3.751,3.751,0,0,1-1.175,1.068,2.983,2.983,0,0,1-1.558.43,2.9,2.9,0,0,1-2.108-.707,2.6,2.6,0,0,1-.724-1.951,2.292,2.292,0,0,1,1.027-1.986,4.8,4.8,0,0,1,2.786-.715H378.6v-.875a1.627,1.627,0,0,0-.475-1.233,1.868,1.868,0,0,0-1.342-.455,1.929,1.929,0,0,0-1.264.4,1.19,1.19,0,0,0-.487.953H373.5l-.017-.049a2.143,2.143,0,0,1,.912-1.768,3.745,3.745,0,0,1,2.484-.8,3.667,3.667,0,0,1,2.423.765,2.712,2.712,0,0,1,.916,2.205v4.264a8.245,8.245,0,0,0,.049.916,4.728,4.728,0,0,0,.18.867Zm-2.676-1.185a2.887,2.887,0,0,0,1.579-.449,2.138,2.138,0,0,0,.917-1.03v-1.435h-1.808a2.355,2.355,0,0,0-1.56.49,1.461,1.461,0,0,0-.585,1.15,1.209,1.209,0,0,0,.368.93A1.545,1.545,0,0,0,376.106,8183.089Z" fill="#8c757e"/><path d="M386.155,8183.179a2.17,2.17,0,0,0,1.412-.5,1.509,1.509,0,0,0,.609-1.214h1.449l.016.048a2.5,2.5,0,0,1-1.018,2.04,3.726,3.726,0,0,1-2.468.89,3.586,3.586,0,0,1-2.954-1.26,4.859,4.859,0,0,1-1.023-3.166v-.343a4.839,4.839,0,0,1,1.028-3.157,4.032,4.032,0,0,1,5.49-.347,2.852,2.852,0,0,1,.954,2.25l-.016.051h-1.458a1.866,1.866,0,0,0-.572-1.379,1.973,1.973,0,0,0-1.449-.571,1.946,1.946,0,0,0-1.813.912,4.3,4.3,0,0,0-.543,2.237v.342a4.326,4.326,0,0,0,.54,2.259A1.943,1.943,0,0,0,386.155,8183.179Z" fill="#8c757e"/><path d="M393.193,8173.153h-1.612v-1.644h1.612Zm0,11.121h-1.612v-8.853h1.612Z" fill="#8c757e"/><path d="M395.3,8179.766a4.873,4.873,0,0,1,1.063-3.236,3.567,3.567,0,0,1,2.889-1.273,3.6,3.6,0,0,1,2.909,1.267,4.862,4.862,0,0,1,1.068,3.242v.18a4.844,4.844,0,0,1-1.064,3.24,3.961,3.961,0,0,1-5.8,0,4.841,4.841,0,0,1-1.067-3.236Zm1.612.176a4.185,4.185,0,0,0,.593,2.321,2.143,2.143,0,0,0,3.514,0,4.161,4.161,0,0,0,.6-2.321v-.179a4.152,4.152,0,0,0-.6-2.315,1.972,1.972,0,0,0-1.763-.924,1.946,1.946,0,0,0-1.747.924,4.2,4.2,0,0,0-.593,2.315Zm3.134-7.943h1.882l.016.051-2.209,2.127h-1.2Z" fill="#8c757e"/><path d="M406.638,8175.421l.115,1.316a3.232,3.232,0,0,1,1.109-1.092,2.958,2.958,0,0,1,1.518-.388,2.887,2.887,0,0,1,2.217.838,3.678,3.678,0,0,1,.787,2.591v5.588h-1.613v-5.556a2.389,2.389,0,0,0-.463-1.661,1.846,1.846,0,0,0-1.411-.492,2.286,2.286,0,0,0-1.231.336,2.47,2.47,0,0,0-.856.916v6.457H405.2v-8.853Z" fill="#8c757e"/><path d="M422.563,8184.446a3.736,3.736,0,0,1-2.942-1.23,4.641,4.641,0,0,1-1.092-3.2v-.361a4.539,4.539,0,0,1,1.125-3.146,3.463,3.463,0,0,1,2.663-1.256,3.352,3.352,0,0,1,2.709,1.08,4.3,4.3,0,0,1,.917,2.881v1.006H420.2l-.024.041a3.477,3.477,0,0,0,.646,2.093,2.061,2.061,0,0,0,1.743.821,4.034,4.034,0,0,0,1.436-.235,3.259,3.259,0,0,0,1.068-.642l.63,1.048a3.706,3.706,0,0,1-1.252.784A5.037,5.037,0,0,1,422.563,8184.446Zm-.246-7.922a1.752,1.752,0,0,0-1.383.682,3.219,3.219,0,0,0-.7,1.709l.016.041h4.084v-.213a2.451,2.451,0,0,0-.508-1.582A1.81,1.81,0,0,0,422.317,8176.524Z" fill="#8c757e"/><path d="M429.191,8175.421l.114,1.316a3.226,3.226,0,0,1,1.11-1.092,2.957,2.957,0,0,1,1.517-.388,2.889,2.889,0,0,1,2.218.838,3.678,3.678,0,0,1,.786,2.591v5.588h-1.612v-5.556a2.389,2.389,0,0,0-.463-1.661,1.848,1.848,0,0,0-1.411-.492,2.292,2.292,0,0,0-1.232.336,2.475,2.475,0,0,0-.855.916v6.457h-1.612v-8.853Z" fill="#8c757e"/><path d="M443.184,8184.274h-1.612v-12.765h1.612Z" fill="#8c757e"/><path d="M451.106,8184.274c-.055-.267-.1-.5-.127-.707a5.1,5.1,0,0,1-.053-.619,3.748,3.748,0,0,1-1.174,1.068,2.99,2.99,0,0,1-1.559.43,2.9,2.9,0,0,1-2.107-.707,2.6,2.6,0,0,1-.725-1.951,2.292,2.292,0,0,1,1.027-1.986,4.805,4.805,0,0,1,2.787-.715h1.751v-.875a1.627,1.627,0,0,0-.475-1.233,1.868,1.868,0,0,0-1.342-.455,1.933,1.933,0,0,0-1.264.4,1.19,1.19,0,0,0-.487.953H445.82l-.017-.049a2.141,2.141,0,0,1,.913-1.768,3.741,3.741,0,0,1,2.483-.8,3.667,3.667,0,0,1,2.423.765,2.712,2.712,0,0,1,.916,2.205v4.264a8,8,0,0,0,.05.916,4.643,4.643,0,0,0,.179.867Zm-2.676-1.185a2.887,2.887,0,0,0,1.579-.449,2.138,2.138,0,0,0,.917-1.03v-1.435h-1.808a2.355,2.355,0,0,0-1.56.49,1.464,1.464,0,0,0-.585,1.15,1.206,1.206,0,0,0,.369.93A1.542,1.542,0,0,0,448.43,8183.089Z" fill="#8c757e"/><path d="M462.718,8184.446a3.738,3.738,0,0,1-2.942-1.23,4.646,4.646,0,0,1-1.092-3.2v-.361a4.539,4.539,0,0,1,1.125-3.146,3.463,3.463,0,0,1,2.663-1.256,3.351,3.351,0,0,1,2.709,1.08,4.3,4.3,0,0,1,.917,2.881v1.006h-5.745l-.024.041a3.477,3.477,0,0,0,.646,2.093,2.061,2.061,0,0,0,1.743.821,4.034,4.034,0,0,0,1.436-.235,3.248,3.248,0,0,0,1.068-.642l.63,1.048a3.706,3.706,0,0,1-1.252.784A5.033,5.033,0,0,1,462.718,8184.446Zm-.246-7.922a1.749,1.749,0,0,0-1.382.682,3.219,3.219,0,0,0-.7,1.709l.016.041h4.084v-.213a2.451,2.451,0,0,0-.508-1.582A1.81,1.81,0,0,0,462.472,8176.524Z" fill="#8c757e"/><path d="M469.649,8184.274h-1.612v-12.765h1.612Z" fill="#8c757e"/><path d="M477.571,8184.274c-.055-.267-.1-.5-.127-.707a5.1,5.1,0,0,1-.053-.619,3.748,3.748,0,0,1-1.174,1.068,2.99,2.99,0,0,1-1.559.43,2.9,2.9,0,0,1-2.108-.707,2.6,2.6,0,0,1-.724-1.951,2.292,2.292,0,0,1,1.027-1.986,4.8,4.8,0,0,1,2.786-.715h1.752v-.875a1.627,1.627,0,0,0-.475-1.233,1.868,1.868,0,0,0-1.342-.455,1.929,1.929,0,0,0-1.264.4,1.19,1.19,0,0,0-.487.953h-1.538l-.017-.049a2.143,2.143,0,0,1,.912-1.768,3.745,3.745,0,0,1,2.484-.8,3.667,3.667,0,0,1,2.423.765,2.712,2.712,0,0,1,.916,2.205v4.264a8.245,8.245,0,0,0,.049.916,4.728,4.728,0,0,0,.18.867Zm-2.676-1.185a2.887,2.887,0,0,0,1.579-.449,2.138,2.138,0,0,0,.917-1.03v-1.435h-1.808a2.355,2.355,0,0,0-1.56.49,1.464,1.464,0,0,0-.585,1.15,1.209,1.209,0,0,0,.368.93A1.545,1.545,0,0,0,474.895,8183.089Z" fill="#8c757e"/><path d="M488.9,8180.182a4.869,4.869,0,0,1-.92,3.09,3.039,3.039,0,0,1-2.533,1.174,3.228,3.228,0,0,1-1.523-.34,2.826,2.826,0,0,1-1.071-1l-.2,1.17h-1.318v-12.765h1.613v4.959a2.8,2.8,0,0,1,1.035-.9,3.176,3.176,0,0,1,1.444-.31,2.943,2.943,0,0,1,2.554,1.308,5.9,5.9,0,0,1,.916,3.446Zm-1.612-.171a4.885,4.885,0,0,0-.561-2.483,1.844,1.844,0,0,0-1.706-.963,2.109,2.109,0,0,0-1.256.366,2.554,2.554,0,0,0-.814.978v3.838a2.622,2.622,0,0,0,.814,1.021,2.089,2.089,0,0,0,1.273.37,1.916,1.916,0,0,0,1.694-.811,3.725,3.725,0,0,0,.556-2.145Z" fill="#8c757e"/><path d="M490.493,8179.766a4.873,4.873,0,0,1,1.063-3.236,3.567,3.567,0,0,1,2.889-1.273,3.6,3.6,0,0,1,2.909,1.267,4.862,4.862,0,0,1,1.069,3.242v.18a4.844,4.844,0,0,1-1.065,3.24,3.961,3.961,0,0,1-5.8,0,4.841,4.841,0,0,1-1.067-3.236Zm1.612.176a4.185,4.185,0,0,0,.593,2.321,2.144,2.144,0,0,0,3.515,0,4.169,4.169,0,0,0,.6-2.321v-.179a4.16,4.16,0,0,0-.6-2.315,1.975,1.975,0,0,0-1.764-.924,1.946,1.946,0,0,0-1.747.924,4.2,4.2,0,0,0-.593,2.315Z" fill="#8c757e"/><path d="M504.585,8176.845l-.827-.049a1.834,1.834,0,0,0-1.077.3,1.934,1.934,0,0,0-.674.849v6.326h-1.613v-8.853h1.441l.155,1.293a3.058,3.058,0,0,1,.929-1.073,2.186,2.186,0,0,1,1.273-.384,1.9,1.9,0,0,1,.343.029,2.076,2.076,0,0,1,.27.061Z" fill="#8c757e"/><path d="M511.582,8184.274c-.055-.267-.1-.5-.127-.707a5.1,5.1,0,0,1-.053-.619,3.752,3.752,0,0,1-1.175,1.068,2.986,2.986,0,0,1-1.558.43,2.9,2.9,0,0,1-2.108-.707,2.6,2.6,0,0,1-.724-1.951,2.289,2.289,0,0,1,1.027-1.986,4.8,4.8,0,0,1,2.786-.715H511.4v-.875a1.624,1.624,0,0,0-.476-1.233,1.863,1.863,0,0,0-1.341-.455,1.929,1.929,0,0,0-1.264.4,1.19,1.19,0,0,0-.487.953H506.3l-.017-.049a2.14,2.14,0,0,1,.912-1.768,3.745,3.745,0,0,1,2.484-.8,3.664,3.664,0,0,1,2.422.765,2.709,2.709,0,0,1,.916,2.205v4.264a8.249,8.249,0,0,0,.05.916,4.648,4.648,0,0,0,.18.867Zm-2.676-1.185a2.889,2.889,0,0,0,1.579-.449,2.143,2.143,0,0,0,.917-1.03v-1.435h-1.809a2.354,2.354,0,0,0-1.559.49,1.461,1.461,0,0,0-.585,1.15,1.209,1.209,0,0,0,.368.93A1.543,1.543,0,0,0,508.906,8183.089Z" fill="#8c757e"/><path d="M518.955,8183.179a2.17,2.17,0,0,0,1.412-.5,1.509,1.509,0,0,0,.609-1.214h1.449l.016.048a2.5,2.5,0,0,1-1.018,2.04,3.726,3.726,0,0,1-2.468.89,3.585,3.585,0,0,1-2.954-1.26,4.859,4.859,0,0,1-1.023-3.166v-.343a4.839,4.839,0,0,1,1.028-3.157,4.032,4.032,0,0,1,5.49-.347,2.855,2.855,0,0,1,.954,2.25l-.017.051h-1.457a1.866,1.866,0,0,0-.572-1.379,1.973,1.973,0,0,0-1.449-.571,1.946,1.946,0,0,0-1.813.912,4.3,4.3,0,0,0-.544,2.237v.342a4.335,4.335,0,0,0,.54,2.259A1.946,1.946,0,0,0,518.955,8183.179Z" fill="#8c757e"/><path d="M525.993,8173.153h-1.612v-1.644h1.612Zm0,11.121h-1.612v-8.853h1.612Z" fill="#8c757e"/><path d="M528.1,8179.766a4.874,4.874,0,0,1,1.064-3.236,3.567,3.567,0,0,1,2.889-1.273,3.6,3.6,0,0,1,2.909,1.267,4.862,4.862,0,0,1,1.068,3.242v.18a4.844,4.844,0,0,1-1.064,3.24,3.961,3.961,0,0,1-5.8,0,4.842,4.842,0,0,1-1.068-3.236Zm1.613.176a4.193,4.193,0,0,0,.592,2.321,2.144,2.144,0,0,0,3.515,0,4.161,4.161,0,0,0,.6-2.321v-.179a4.152,4.152,0,0,0-.6-2.315,1.973,1.973,0,0,0-1.763-.924,1.949,1.949,0,0,0-1.748.924,4.208,4.208,0,0,0-.592,2.315Zm3.133-7.943h1.882l.017.051-2.209,2.127h-1.2Z" fill="#8c757e"/><path d="M539.438,8175.421l.114,1.316a3.225,3.225,0,0,1,1.11-1.092,2.957,2.957,0,0,1,1.517-.388,2.889,2.889,0,0,1,2.218.838,3.678,3.678,0,0,1,.786,2.591v5.588h-1.612v-5.556a2.389,2.389,0,0,0-.463-1.661,1.847,1.847,0,0,0-1.411-.492,2.286,2.286,0,0,0-1.231.336,2.47,2.47,0,0,0-.856.916v6.457H538v-8.853Z" fill="#8c757e"/><path d="M336.89,8199.349a5.912,5.912,0,0,1,.913-3.445,2.938,2.938,0,0,1,2.557-1.309,3.16,3.16,0,0,1,1.379.287,2.8,2.8,0,0,1,1.027.834v-4.869h1.613v12.765h-1.318l-.188-1.088a2.872,2.872,0,0,1-1.065.941,3.2,3.2,0,0,1-1.465.318,3.039,3.039,0,0,1-2.536-1.174,4.883,4.883,0,0,1-.917-3.091Zm1.613.171a3.765,3.765,0,0,0,.547,2.149,1.918,1.918,0,0,0,1.7.806,2.136,2.136,0,0,0,1.212-.327,2.432,2.432,0,0,0,.8-.916V8197.1a2.493,2.493,0,0,0-.8-.872,2.149,2.149,0,0,0-1.192-.323,1.844,1.844,0,0,0-1.714.959,4.937,4.937,0,0,0-.552,2.486Z" fill="#8c757e"/><path d="M350.459,8203.784a3.739,3.739,0,0,1-2.943-1.23,4.644,4.644,0,0,1-1.091-3.2V8199a4.547,4.547,0,0,1,1.125-3.147,3.464,3.464,0,0,1,2.663-1.255,3.354,3.354,0,0,1,2.709,1.08,4.3,4.3,0,0,1,.917,2.881v1h-5.746l-.024.041a3.48,3.48,0,0,0,.647,2.095,2.059,2.059,0,0,0,1.743.819,4.03,4.03,0,0,0,1.435-.233,3.274,3.274,0,0,0,1.069-.643l.629,1.049a3.718,3.718,0,0,1-1.251.783A5.04,5.04,0,0,1,350.459,8203.784Zm-.246-7.922a1.752,1.752,0,0,0-1.383.682,3.22,3.22,0,0,0-.7,1.709l.015.041h4.084v-.213a2.452,2.452,0,0,0-.508-1.582A1.808,1.808,0,0,0,350.213,8195.862Z" fill="#8c757e"/><path d="M367.356,8199.52a4.882,4.882,0,0,1-.916,3.091,3.031,3.031,0,0,1-2.528,1.174,3.535,3.535,0,0,1-1.437-.273,2.753,2.753,0,0,1-1.051-.822v4.327h-1.613v-12.257h1.237l.252,1.145a2.906,2.906,0,0,1,1.082-.973,3.206,3.206,0,0,1,1.5-.336,2.945,2.945,0,0,1,2.558,1.3,5.91,5.91,0,0,1,.912,3.449Zm-1.611-.175a4.666,4.666,0,0,0-.594-2.473,1.922,1.922,0,0,0-1.747-.969,2.162,2.162,0,0,0-1.187.314,2.368,2.368,0,0,0-.793.863v4.275a2.292,2.292,0,0,0,.793.854,2.244,2.244,0,0,0,1.2.306,1.984,1.984,0,0,0,1.734-.837,3.669,3.669,0,0,0,.59-2.163Z" fill="#8c757e"/><path d="M373.527,8196.182l-.827-.048a1.845,1.845,0,0,0-1.076.3,1.949,1.949,0,0,0-.675.851v6.326h-1.612v-8.854h1.44l.155,1.293a3.079,3.079,0,0,1,.929-1.073,2.186,2.186,0,0,1,1.273-.384,1.844,1.844,0,0,1,.343.029,2.124,2.124,0,0,1,.271.06Z" fill="#8c757e"/><path d="M378.6,8203.784a3.737,3.737,0,0,1-2.942-1.23,4.64,4.64,0,0,1-1.092-3.2V8199a4.547,4.547,0,0,1,1.125-3.147,3.466,3.466,0,0,1,2.663-1.255,3.352,3.352,0,0,1,2.709,1.08,4.3,4.3,0,0,1,.917,2.881v1h-5.745l-.024.041a3.479,3.479,0,0,0,.646,2.095,2.059,2.059,0,0,0,1.743.819,4.036,4.036,0,0,0,1.436-.233,3.269,3.269,0,0,0,1.068-.643l.63,1.049a3.713,3.713,0,0,1-1.252.783A5.033,5.033,0,0,1,378.6,8203.784Zm-.246-7.922a1.752,1.752,0,0,0-1.383.682,3.228,3.228,0,0,0-.7,1.709l.016.041h4.084v-.213a2.452,2.452,0,0,0-.508-1.582A1.811,1.811,0,0,0,378.355,8195.862Z" fill="#8c757e"/><path d="M385.229,8194.759l.114,1.316a3.234,3.234,0,0,1,1.11-1.092,2.948,2.948,0,0,1,1.517-.389,2.894,2.894,0,0,1,2.218.837,3.687,3.687,0,0,1,.786,2.593v5.588h-1.612v-5.557a2.392,2.392,0,0,0-.463-1.661,1.849,1.849,0,0,0-1.411-.491,2.269,2.269,0,0,0-1.231.336,2.452,2.452,0,0,0-.856.916v6.457h-1.612v-8.854Z" fill="#8c757e"/><path d="M392.946,8199.349a5.912,5.912,0,0,1,.913-3.445,2.938,2.938,0,0,1,2.557-1.309,3.166,3.166,0,0,1,1.379.287,2.8,2.8,0,0,1,1.027.834v-4.869h1.612v12.765h-1.317l-.189-1.088a2.869,2.869,0,0,1-1.064.941,3.2,3.2,0,0,1-1.465.318,3.037,3.037,0,0,1-2.536-1.174,4.883,4.883,0,0,1-.917-3.091Zm1.612.171a3.765,3.765,0,0,0,.548,2.149,1.917,1.917,0,0,0,1.7.806,2.131,2.131,0,0,0,1.212-.327,2.434,2.434,0,0,0,.8-.916V8197.1a2.5,2.5,0,0,0-.806-.872,2.146,2.146,0,0,0-1.191-.323,1.842,1.842,0,0,0-1.714.959,4.937,4.937,0,0,0-.553,2.486Z" fill="#8c757e"/><path d="M408.282,8203.612c-.055-.268-.1-.5-.127-.707a5.105,5.105,0,0,1-.053-.619,3.738,3.738,0,0,1-1.175,1.067,2.994,2.994,0,0,1-1.558.431,2.9,2.9,0,0,1-2.108-.707,2.606,2.606,0,0,1-.724-1.951,2.293,2.293,0,0,1,1.027-1.986,4.8,4.8,0,0,1,2.786-.715H408.1v-.875a1.626,1.626,0,0,0-.475-1.232,1.866,1.866,0,0,0-1.342-.455,1.929,1.929,0,0,0-1.264.4,1.191,1.191,0,0,0-.487.953H403l-.017-.049a2.141,2.141,0,0,1,.912-1.768,3.746,3.746,0,0,1,2.484-.8,3.656,3.656,0,0,1,2.423.766,2.71,2.71,0,0,1,.916,2.205v4.264a8.245,8.245,0,0,0,.049.916,4.741,4.741,0,0,0,.18.867Zm-2.676-1.186a2.872,2.872,0,0,0,1.579-.45,2.13,2.13,0,0,0,.917-1.028v-1.436h-1.808a2.355,2.355,0,0,0-1.56.49,1.461,1.461,0,0,0-.585,1.15,1.21,1.21,0,0,0,.368.93A1.552,1.552,0,0,0,405.606,8202.427Z" fill="#8c757e"/><path d="M417.2,8201.257a1.1,1.1,0,0,0-.4-.877,3.831,3.831,0,0,0-1.535-.6,6.45,6.45,0,0,1-2.425-.951,1.928,1.928,0,0,1-.815-1.639,2.315,2.315,0,0,1,.916-1.839,4.177,4.177,0,0,1,4.849.034,2.35,2.35,0,0,1,.872,1.932l-.017.049H417.1a1.411,1.411,0,0,0-.487-1.043,1.788,1.788,0,0,0-1.289-.463,1.868,1.868,0,0,0-1.277.377,1.183,1.183,0,0,0-.417.908,1.01,1.01,0,0,0,.369.826,3.788,3.788,0,0,0,1.5.541,6.456,6.456,0,0,1,2.5.979,1.967,1.967,0,0,1,.818,1.656,2.286,2.286,0,0,1-.953,1.906,3.992,3.992,0,0,1-2.492.729,3.885,3.885,0,0,1-2.668-.859,2.452,2.452,0,0,1-.925-2l.017-.049h1.539a1.481,1.481,0,0,0,.637,1.25,2.5,2.5,0,0,0,1.4.394,2.3,2.3,0,0,0,1.347-.347A1.076,1.076,0,0,0,417.2,8201.257Z" fill="#8c757e"/><path d="M424.616,8199.349a5.912,5.912,0,0,1,.913-3.445,2.936,2.936,0,0,1,2.557-1.309,3.166,3.166,0,0,1,1.379.287,2.8,2.8,0,0,1,1.027.834v-4.869H432.1v12.765h-1.317l-.189-1.088a2.869,2.869,0,0,1-1.064.941,3.2,3.2,0,0,1-1.465.318,3.037,3.037,0,0,1-2.536-1.174,4.883,4.883,0,0,1-.917-3.091Zm1.612.171a3.765,3.765,0,0,0,.548,2.149,1.917,1.917,0,0,0,1.7.806,2.131,2.131,0,0,0,1.212-.327,2.434,2.434,0,0,0,.8-.916V8197.1a2.5,2.5,0,0,0-.806-.872,2.146,2.146,0,0,0-1.191-.323,1.842,1.842,0,0,0-1.714.959,4.936,4.936,0,0,0-.553,2.486Z" fill="#8c757e"/><path d="M438.184,8203.784a3.736,3.736,0,0,1-2.942-1.23,4.64,4.64,0,0,1-1.092-3.2V8199a4.547,4.547,0,0,1,1.125-3.147,3.466,3.466,0,0,1,2.663-1.255,3.351,3.351,0,0,1,2.709,1.08,4.3,4.3,0,0,1,.917,2.881v1h-5.745l-.024.041a3.479,3.479,0,0,0,.646,2.095,2.059,2.059,0,0,0,1.743.819,4.036,4.036,0,0,0,1.436-.233,3.268,3.268,0,0,0,1.068-.643l.63,1.049a3.713,3.713,0,0,1-1.252.783A5.033,5.033,0,0,1,438.184,8203.784Zm-.246-7.922a1.752,1.752,0,0,0-1.383.682,3.228,3.228,0,0,0-.7,1.709l.016.041h4.084v-.213a2.452,2.452,0,0,0-.508-1.582A1.811,1.811,0,0,0,437.938,8195.862Z" fill="#8c757e"/><path d="M450.491,8201l.14.621h.048l.156-.621,2.038-6.244h1.644l-3.257,8.854h-1.218l-3.3-8.854H448.4Z" fill="#8c757e"/><path d="M459.534,8203.784a3.735,3.735,0,0,1-2.942-1.23,4.64,4.64,0,0,1-1.092-3.2V8199a4.547,4.547,0,0,1,1.125-3.147,3.464,3.464,0,0,1,2.663-1.255,3.354,3.354,0,0,1,2.709,1.08,4.3,4.3,0,0,1,.917,2.881v1h-5.745l-.025.041a3.486,3.486,0,0,0,.647,2.095,2.059,2.059,0,0,0,1.743.819,4.03,4.03,0,0,0,1.435-.233,3.263,3.263,0,0,0,1.069-.643l.63,1.049a3.733,3.733,0,0,1-1.252.783A5.04,5.04,0,0,1,459.534,8203.784Zm-.246-7.922a1.752,1.752,0,0,0-1.383.682,3.22,3.22,0,0,0-.7,1.709l.015.041H461.3v-.213a2.452,2.452,0,0,0-.507-1.582A1.811,1.811,0,0,0,459.288,8195.862Z" fill="#8c757e"/><path d="M469.869,8201.257a1.1,1.1,0,0,0-.4-.877,3.831,3.831,0,0,0-1.535-.6,6.45,6.45,0,0,1-2.425-.951,1.928,1.928,0,0,1-.815-1.639,2.315,2.315,0,0,1,.916-1.839,4.177,4.177,0,0,1,4.849.034,2.35,2.35,0,0,1,.872,1.932l-.017.049h-1.538a1.411,1.411,0,0,0-.487-1.043,1.788,1.788,0,0,0-1.289-.463,1.868,1.868,0,0,0-1.277.377,1.183,1.183,0,0,0-.417.908,1.01,1.01,0,0,0,.369.826,3.787,3.787,0,0,0,1.5.541,6.456,6.456,0,0,1,2.5.979,1.967,1.967,0,0,1,.818,1.656,2.286,2.286,0,0,1-.953,1.906,3.992,3.992,0,0,1-2.492.729,3.885,3.885,0,0,1-2.668-.859,2.452,2.452,0,0,1-.925-2l.017-.049H466a1.481,1.481,0,0,0,.637,1.25,2.5,2.5,0,0,0,1.4.394,2.3,2.3,0,0,0,1.347-.347A1.076,1.076,0,0,0,469.869,8201.257Z" fill="#8c757e"/><path d="M475.614,8192.622v2.137h1.678v1.2h-1.678v5.375a1.206,1.206,0,0,0,.258.877.935.935,0,0,0,.683.252,1.631,1.631,0,0,0,.307-.031,1.843,1.843,0,0,0,.3-.082l.213,1.1a1.4,1.4,0,0,1-.529.242,2.665,2.665,0,0,1-.7.094,2.083,2.083,0,0,1-1.563-.594,2.571,2.571,0,0,1-.581-1.861v-5.375h-1.408v-1.2H474v-2.137Z" fill="#8c757e"/><path d="M481.023,8192.491h-1.612v-1.644h1.612Zm0,11.121h-1.612v-8.854h1.612Z" fill="#8c757e"/><path d="M487.693,8196.182l-.827-.048a1.845,1.845,0,0,0-1.076.3,1.949,1.949,0,0,0-.675.851v6.326H483.5v-8.854h1.44l.155,1.293a3.079,3.079,0,0,1,.929-1.073,2.186,2.186,0,0,1,1.273-.384,1.844,1.844,0,0,1,.343.029,2.125,2.125,0,0,1,.271.06Z" fill="#8c757e"/><path d="M489.6,8203.612h-1.612v-1.668H489.6Z" fill="#8c757e"/><path d="M747.134,8174.221c1.36,4.835.867,10.28,4.152,14.416,4,5.037,12.706,5.219,15.383,11.068,2.586,5.648-2.505,12.153-1.412,18.269.922,5.159,5.832,8.447,9.125,12.523a22.774,22.774,0,0,1,2.2,24.723,22.374,22.374,0,0,1-22.16,11.055c-11.2-1.613-21.62-11.853-32.248-7.961-6.873,2.516-10.506,10.091-16.687,14.012-6.81,4.319-16.291,3.379-22.643-1.59s-9.539-13.411-8.9-21.451,4.813-15.578,10.715-21.074c2.541-2.367,5.612-4.769,5.993-8.22.322-2.91-1.4-5.589-2.542-8.286a22.261,22.261,0,0,1,4.568-23.72c2.711-2.74,6.295-4.972,7.483-8.639,2.24-6.915,2.045-14.175,8.582-18.656,8.469-5.8,20.609-5.531,28.941.36a25.229,25.229,0,0,1,9.114,12.081C746.916,8173.489,747.03,8173.854,747.134,8174.221Z" fill="#2c2c2b"/><path d="M716.149,8217.691h0v-18.613h16.489v2.124A16.49,16.49,0,0,1,716.149,8217.691Z" fill="#aa4a1a"/><path d="M752.66,8298.975l-4.225-16.053,1.069-3.46,2.348-7.644h-55.22l2.348,7.644,1.048,3.46-7.294,16.938Z" fill="#be612b"/><path d="M721.929,8285.868a.122.122,0,0,1-.121-.121v-4.072a.121.121,0,1,1,.242,0v4.072A.121.121,0,0,1,721.929,8285.868Z" fill="#342d3a"/><path d="M661.067,8525.217l11.941-.229,5.9-17.405-11.941.229Z" fill="#be612b"/><path d="M681.357,8536.39l-51.527.987-.036-1.885a6.831,6.831,0,0,1,4.157-6.427l11-1.012,9.582-9.218,22.127-.424a4.374,4.374,0,0,1,4.442,4.306Z" fill="#2c2c2b"/><rect width="19.524" height="4.703" transform="matrix(-1, 0.019, -0.019, -1, 681.446, 8541.092)" fill="#2c2c2b"/><rect width="28.903" height="4.703" transform="matrix(-1, 0.019, -0.019, -1, 658.817, 8541.526)" fill="#2c2c2b"/><rect width="12.671" height="18.735" transform="translate(736.853 8511.324)" fill="#be612b"/><path d="M741.815,8531.037h4c5.751,0,15.238,4.663,15.238,10.414v1.007H731.4v-1.007A10.414,10.414,0,0,1,741.815,8531.037Z" fill="#2c2c2b"/><rect width="29.647" height="4.528" transform="translate(731.403 8542.458)" fill="#2c2c2b"/><path d="M752.995,8536.119H735v-13.584h16.3Z" fill="#2c2c2b"/><path d="M734.777,8533.8a23.673,23.673,0,0,1,11.431-1.992" fill="#2c2c2b"/><path d="M631.045,8510.447s58.638-211.751,66.231-223.575h50.413l.156.313a85.052,85.052,0,0,1,8.9,40.274l10.015,184.529H719.83l-4.738-166.938-18.086,165.4Z" fill="#f38bab"/><g clip-path="url(#d)"><path d="M766.766,8511.993H719.83l-1.847-65.115-1.09-38.64-1.8-63.187-.313,2.826-5.864,53.679-4.633,42.354-7.278,66.538H631.045s3.967-14.343,9.972-35.763c3.927-13.97,8.711-30.947,13.829-48.925,1.11-3.905,2.231-7.862,3.371-11.84,2.8-9.811,5.663-19.784,8.509-29.6,3.18-11.013,6.339-21.844,9.357-32.049,3.16-10.688,6.168-20.691,8.883-29.523,5.955-19.392,10.538-33.108,12.314-35.874h50.409l.151.313a85.282,85.282,0,0,1,8.913,40.274l.465,8.53,4.158,76.743.838,15.423.707,12.931.494,9.094,2.574,47.492Z" fill="#ede3b7"/><path d="M756.949,8336.367c-2.534-1.792-5.045-3.73-7.473-5.6-1.968-1.521-4.006-3.093-6.038-4.574a62.59,62.59,0,0,0-13.417-7.818,41.04,41.04,0,0,0-5.807-1.856c-12.156-2.962-26.015-.608-39.022,6.637l-.453-.812c13.212-7.36,27.309-9.747,39.693-6.729a42.005,42.005,0,0,1,5.938,1.9,65.145,65.145,0,0,1,13.615,7.928c2.044,1.49,4.085,3.066,6.06,4.591,2.42,1.867,4.922,3.8,7.441,5.581Z" fill="#8c757e"/><path d="M761.046,8413.057a72.437,72.437,0,0,1-8.159-9.875c-12.271-17.918-16.929-41.5-12.782-64.713a100.839,100.839,0,0,1,3.163-12.8,113.4,113.4,0,0,1,10.187-22.855l.8.469a112.467,112.467,0,0,0-10.1,22.667,99.74,99.74,0,0,0-3.134,12.68c-4.1,22.97.5,46.3,12.634,64.024a71.425,71.425,0,0,0,8.053,9.748Z" fill="#8c757e"/><path d="M692.657,8510.638a482.026,482.026,0,0,1-22.864-62.511c-2.89-9.982-6.716-19.545-15.075-21.918l.254-.895c8.794,2.5,12.749,12.315,15.713,22.555a481.311,481.311,0,0,0,22.822,62.39Z" fill="#8c757e"/><path d="M660.1,8510.468l-.93-.039c.021-.484.031-.979.021-1.465-.158-13.023-4.976-24.229-13.218-30.743a24.43,24.43,0,0,0-5.15-3.109l.379-.85a25.427,25.427,0,0,1,5.346,3.229c8.465,6.69,13.412,18.157,13.573,31.459C660.135,8509.449,660.126,8509.964,660.1,8510.468Z" fill="#8c757e"/><path d="M762,8428.619a56.642,56.642,0,0,1-22.813-4.755c-8.595-3.832-15.872-9.645-22.59-15.27q-1.431-1.2-2.86-2.405c-1.7-1.432-3.4-2.865-5.109-4.273q-1.664-1.377-3.354-2.71c-13.988-11.029-26.363-15.774-37.846-14.509-.211.021-.427.05-.632.079l-.131-.92c.219-.031.448-.062.667-.084,11.722-1.3,24.329,3.515,38.517,14.7q1.7,1.337,3.371,2.724c1.713,1.41,3.416,2.846,5.117,4.279q1.43,1.206,2.858,2.4c6.666,5.583,13.885,11.35,22.37,15.133A55.691,55.691,0,0,0,762,8427.688h.217l0,.93Z" fill="#8c757e"/><path d="M758.748,8499.207a17.272,17.272,0,0,1-8.249-1.944c-6.4-3.414-10.037-11.549-8.852-19.787.969-6.669,4.7-13.223,11.076-19.483a60.816,60.816,0,0,1,10.446-8.208l.492.789a59.917,59.917,0,0,0-10.286,8.082c-6.233,6.114-9.868,12.492-10.808,18.955-1.13,7.855,2.312,15.6,8.369,18.832,4.03,2.149,9.052,2.413,14.929.779l.248.9A27.607,27.607,0,0,1,758.748,8499.207Z" fill="#8c757e"/><path d="M676.213,8352.716l-.258-.895c1.424-.41,2.891-.768,4.311-1.113,1.124-.274,2.247-.547,3.357-.848a63.444,63.444,0,0,0,40.278-34,58.253,58.253,0,0,0,2.694-6.771,61.158,61.158,0,0,0,2.894-22.2l.93-.046a62.142,62.142,0,0,1-2.94,22.536,59.189,59.189,0,0,1-2.737,6.878,64.386,64.386,0,0,1-40.876,34.5c-1.117.3-2.248.578-3.38.854C679.076,8351.955,677.618,8352.31,676.213,8352.716Z" fill="#8c757e"/><path d="M729.6,8448.126a87.318,87.318,0,0,1-11.683-.787,90.108,90.108,0,0,1-42.769-17.839c-4.034-3.127-7.879-6.672-11.6-10.1-1.84-1.7-3.745-3.452-5.644-5.132l.615-.7c1.907,1.686,3.815,3.443,5.66,5.145,3.7,3.415,7.534,6.945,11.537,10.048a89.169,89.169,0,0,0,42.324,17.652,85.385,85.385,0,0,0,12.558.773,87.892,87.892,0,0,0,32.142-6.537l.349.861a88.794,88.794,0,0,1-32.479,6.605C730.279,8448.124,729.941,8448.126,729.6,8448.126Z" fill="#8c757e"/><path d="M753.574,8511.993H719.83l-5.37-177.2Z" fill="url(#e)"/><path d="M714.783,8347.877l-17.775,162.571h-25.7c17.18-56.5,32.8-118.007,43.151-175.652C714.712,8338.874,714.8,8343.274,714.783,8347.877Z" fill="url(#f)"/><path d="M738.8,8294.161c-.359,3.666,1.968,7.215,5.083,9.184s6.887,2.6,10.566,2.8" fill="#d4c99b"/><path d="M704.991,8294.161c.358,3.666-1.969,7.215-5.083,9.184s-6.888,2.6-10.566,2.8" fill="#d4c99b"/><path d="M750.694,8317.489a23.88,23.88,0,0,1-17.576-15.021l.875-.316a22.932,22.932,0,0,0,16.879,14.425Z" fill="#e55187"/><path d="M690.644,8314.638l-.148-.768a19.267,19.267,0,0,0,14.182-12.12l.735.267A20.07,20.07,0,0,1,690.644,8314.638Z" fill="#e55187"/></g><path d="M687.606,8242.421l9.027,29.4h55.22l9.027-29.4a16.472,16.472,0,0,0-16.481-17.194H704.077A16.457,16.457,0,0,0,687.606,8242.421Z" fill="#fff"/><path d="M735.985,8333.371h26.729l-9.434-47.955,9.434-44.612a16.709,16.709,0,0,0-16.709-16.709h-10.02Z" fill="#86bec4"/><path d="M697.463,8330.227l-19.654-3.145,18.868-41.666-9.434-44.612a16.709,16.709,0,0,1,16.709-16.709h10.021Z" fill="#86bec4"/><path d="M656.375,8298.9h0a12.021,12.021,0,0,1-3.292-16.678l35-52.218a12.02,12.02,0,0,1,16.677-3.292h0a12.02,12.02,0,0,1,3.292,16.678l-35,52.219A12.022,12.022,0,0,1,656.375,8298.9Z" fill="#86bec4"/><path d="M744.024,8227h0a12.02,12.02,0,0,0-5.406,16.117l28.006,56.28a12.021,12.021,0,0,0,16.117,5.405h0a12.019,12.019,0,0,0,5.406-16.115l-28.006-56.281A12.021,12.021,0,0,0,744.024,8227Z" fill="#86bec4"/><path d="M786.177,8302.045l13.137-18.971-14.687-13.417-15.717,18.118a11.2,11.2,0,0,0,17.267,14.27Z" fill="#86bec4"/><path d="M800.275,8242.408c1.54-3.155,4.073-5.634,6.434-8.369a2.5,2.5,0,0,1,.418-.382,2.453,2.453,0,0,1,1.212-.958l8.087-2.941a2.465,2.465,0,0,1,3.16,1.475l.038.105a2.465,2.465,0,0,1-1.474,3.16l-7.552,2.747c-.024.03-.046.061-.071.091l-1.907,2.209a10.866,10.866,0,0,1,1.58.043,10.607,10.607,0,0,1,2.712.645l5.549-5.034a5.861,5.861,0,0,1,2.639-.829l9.185.621a2.5,2.5,0,0,1,2.328,2.667l-.013.185a2.5,2.5,0,0,1-2.666,2.329l-8.587-.582-4.1,3.725a10.237,10.237,0,0,1-7.285,16.824l-12.281,24.517-13.852-12.595,15.79-18.134c.451-.651-.668-2.762-.756-3.554a14.856,14.856,0,0,1,.286-4.72A14.113,14.113,0,0,1,800.275,8242.408Z" fill="#be612b"/><path d="M809.388,8248.349l-.472-.165a10.839,10.839,0,0,0-.628-8.462l.443-.232A11.353,11.353,0,0,1,809.388,8248.349Z" fill="#93360d"/><path d="M821.334,8239.76a3.021,3.021,0,0,1-1.6-3.456l.484.123a2.52,2.52,0,0,0,1.334,2.883Z" fill="#93360d"/><path d="M803.759,8255.515a16.534,16.534,0,0,1-4.2-1.5l.231-.443a16.121,16.121,0,0,0,4.07,1.459Z" fill="#93360d"/><path d="M876.716,8357.141c-16.254-36.031-21.275-76.015-25.369-117.234-.691-6.958-2.116-14.414-7.45-16.96-4.692-2.24-10.57.581-13.716,4.373-3.72,4.487-5.318,10.72-6.728,16.218-.092.4-10.453,46.53,3.448,73.986l-4.461,2.258c-14.723-29.079-4.3-75.466-3.846-77.426,1.556-6.067,3.3-12.878,7.738-18.228,4.46-5.377,12.663-9.062,19.719-5.694,7.575,3.616,9.443,12.634,10.271,20.979,4.052,40.79,9.009,80.331,24.952,115.673Z" fill="#eaab40"/><path d="M814.8,8255.114a2.255,2.255,0,0,0-.253.477,2.408,2.408,0,0,0,3.062,3.145l7.8-2.837a2.407,2.407,0,0,0,1.444-3.07l-.005-.015a2.407,2.407,0,0,0-2.746-1.534,2.149,2.149,0,0,0-.34.095l-6.565,2.39-1.233.448A2.388,2.388,0,0,0,814.8,8255.114Z" fill="#be612b"/><path d="M814.8,8255.114a2.255,2.255,0,0,0-.253.477,2.408,2.408,0,0,0,3.062,3.145l7.8-2.837a2.407,2.407,0,0,0,1.444-3.07c-.585.371-1.242.986-1.586,1.193a18.433,18.433,0,0,1-5.2,2.146,5.069,5.069,0,0,1-3.49-.11A7.731,7.731,0,0,0,814.8,8255.114Z" fill="#aa4a1a"/><path d="M816.782,8259.132a2.66,2.66,0,0,1-2.188-4.16,2.66,2.66,0,0,1,1.286-1l7.8-2.837a2.386,2.386,0,0,1,.38-.105,2.658,2.658,0,0,1,3.027,1.693,2.67,2.67,0,0,1-1.588,3.406l-7.8,2.837A2.665,2.665,0,0,1,816.782,8259.132Zm7.809-7.653a2.136,2.136,0,0,0-.437.046,1.9,1.9,0,0,0-.3.084l-7.8,2.839a2.135,2.135,0,0,0-1.043.809h0a2,2,0,0,0-.226.425,2.16,2.16,0,0,0-.022,1.529,2.163,2.163,0,0,0,2.764,1.289l7.8-2.838a2.163,2.163,0,0,0,1.294-2.75,2.161,2.161,0,0,0-2.028-1.434Z" fill="#93360d"/><path d="M814.119,8245.319a2.3,2.3,0,0,0-.253.476,2.408,2.408,0,0,0,3.062,3.145l7.8-2.838a2.4,2.4,0,0,0,1.445-3.068l-.006-.017a2.406,2.406,0,0,0-2.745-1.532,2.193,2.193,0,0,0-.34.094l-6.566,2.391-1.233.447A2.4,2.4,0,0,0,814.119,8245.319Z" fill="#be612b"/><path d="M814.119,8245.319a2.3,2.3,0,0,0-.253.476,2.408,2.408,0,0,0,3.062,3.145l7.8-2.838a2.4,2.4,0,0,0,1.445-3.068c-.585.37-1.243.985-1.586,1.191a18.39,18.39,0,0,1-5.2,2.146,5.069,5.069,0,0,1-3.49-.11A7.753,7.753,0,0,0,814.119,8245.319Z" fill="#aa4a1a"/><path d="M816.1,8249.337a2.656,2.656,0,0,1-2.468-3.633,2.521,2.521,0,0,1,.28-.526,2.643,2.643,0,0,1,1.284-1l7.8-2.838a2.521,2.521,0,0,1,.38-.1,2.658,2.658,0,0,1,3.027,1.693,2.671,2.671,0,0,1-1.589,3.406l-7.8,2.837A2.661,2.661,0,0,1,816.1,8249.337Zm7.807-7.653a2.205,2.205,0,0,0-.437.045,2.094,2.094,0,0,0-.3.085l-7.8,2.838a2.147,2.147,0,0,0-1.043.809v0a2.021,2.021,0,0,0-.226.425,2.153,2.153,0,0,0,.826,2.6,2.139,2.139,0,0,0,1.917.223l7.8-2.838a2.162,2.162,0,0,0,1.294-2.75,2.161,2.161,0,0,0-2.028-1.434Z" fill="#93360d"/><path d="M815.328,8249.932a2.332,2.332,0,0,0-.254.477,2.407,2.407,0,0,0,3.062,3.144l7.8-2.837a2.4,2.4,0,0,0,1.444-3.068l-.006-.017a2.406,2.406,0,0,0-2.745-1.533,2.121,2.121,0,0,0-.34.095l-6.565,2.39-1.233.448A2.389,2.389,0,0,0,815.328,8249.932Z" fill="#be612b"/><path d="M815.328,8249.932a2.332,2.332,0,0,0-.254.477,2.407,2.407,0,0,0,3.062,3.144l7.8-2.837a2.4,2.4,0,0,0,1.444-3.068c-.585.369-1.242.985-1.586,1.191a18.419,18.419,0,0,1-5.2,2.146,5.075,5.075,0,0,1-3.49-.11A7.751,7.751,0,0,0,815.328,8249.932Z" fill="#aa4a1a"/><path d="M817.309,8253.949a2.658,2.658,0,0,1-2.467-3.633,2.6,2.6,0,0,1,.28-.526,2.637,2.637,0,0,1,1.285-1l7.8-2.838a2.688,2.688,0,0,1,.38-.106,2.657,2.657,0,0,1,1.438,5.1l-7.8,2.837A2.68,2.68,0,0,1,817.309,8253.949Zm7.807-7.652a2.059,2.059,0,0,0-.436.045,1.86,1.86,0,0,0-.3.084l-7.8,2.839a2.138,2.138,0,0,0-1.044.808h0a2.038,2.038,0,0,0-.227.426,2.155,2.155,0,0,0-.02,1.529,2.159,2.159,0,0,0,2.763,1.289l7.8-2.837a2.162,2.162,0,0,0,1.294-2.752,2.159,2.159,0,0,0-2.029-1.432Z" fill="#93360d"/><rect width="23.888" height="9.53" transform="matrix(-0.755, -0.656, 0.656, -0.755, 797.378, 8289.1)" fill="#c0dee1"/><rect width="16.797" height="26.148" transform="translate(716.149 8199.078)" fill="#be612b"/><circle cx="6.641" cy="6.641" r="6.641" transform="translate(694.643 8185.624)" fill="#be612b"/><path d="M703.13,8194.489a5.169,5.169,0,0,0-4.2-2.453l.014-.5a5.681,5.681,0,0,1,4.613,2.7Z" fill="#93360d"/><path d="M698.752,8195.448a5.087,5.087,0,0,1,3.663-6.834l.105.488a4.589,4.589,0,0,0-3.3,6.163Z" fill="#93360d"/><path d="M708.589,8206.285h-9.923a.266.266,0,0,1-.231-.4l4.961-8.624a.277.277,0,0,1,.461,0l4.962,8.624a.266.266,0,0,1-.23.4Zm-9.463-.531h9l-4.5-7.825Z" fill="#eaab40"/><path d="M743.888,8181.854a23.633,23.633,0,0,1-.559,5.156l-.123,1.151-.942,8.692c-.538,6.518-14.058,14.745-14.058,14.745a9.563,9.563,0,0,1-3.055,1.546,14.117,14.117,0,0,1-3.364.7,8.533,8.533,0,0,1-5.773-1.843c-.411-.324-.843-.62-1.274-.916-2.714-1.859-10.654-7.714-11.39-12.879l-1.324-12.985a21.828,21.828,0,0,1-.255-2.508c-.012-.284-.017-.568-.017-.855a21.067,21.067,0,1,1,42.134,0Z" fill="#be612b"/><path d="M724.357,8189.274s2.694-5.22,6.25-5.359,6.878,4.513,6.878,4.513-3.014,3.236-6.57,3.375S724.357,8189.274,724.357,8189.274Z" fill="#aa4a1a"/><path d="M724.357,8189.274a10.621,10.621,0,0,0,6.551,2.476c3.542-.134,6.316-3,6.316-3a10.632,10.632,0,0,0-6.551-2.477c-.045.013-.074,0-.118.01a9.677,9.677,0,0,0-4.958,1.925s.029.016.006.022A10.907,10.907,0,0,0,724.357,8189.274Z" fill="#fcfcfc"/><path d="M724.334,8187.415l-.41-.287a7.583,7.583,0,0,1,2.5-2.264l.244.438A7.036,7.036,0,0,0,724.334,8187.415Z" fill="#93360d"/><path d="M728.036,8187.86a2.777,2.777,0,1,0,5.542.361,2.63,2.63,0,0,0-.141-1.057,9.663,9.663,0,0,0-5.317.119s.021.025,0,.024A4.548,4.548,0,0,0,728.036,8187.86Z" fill="#839ddd"/><path d="M729.3,8187.286a1.534,1.534,0,1,1,.919,1.965A1.535,1.535,0,0,1,729.3,8187.286Z" fill="#2c2c2b"/><path d="M724.353,8189.266a8.554,8.554,0,0,1,2.669-2.534,7.485,7.485,0,0,1,7.4-.423,9.761,9.761,0,0,1,3.051,2.171l-.408-.057c.671-.2,1.34-.407,2.039-.548-.553.451-1.137.836-1.717,1.228l-.152.1-.258-.16a16.33,16.33,0,0,0-3.071-1.455,8.6,8.6,0,0,0-6.4.115A19.9,19.9,0,0,0,724.353,8189.266Z" fill="#071321"/><path d="M715.568,8189.274s-2.445-5.059-5.668-5.2-6.2,4.682-6.2,4.682,2.7,2.905,5.925,3.046S715.568,8189.274,715.568,8189.274Z" fill="#aa4a1a"/><path d="M715.568,8189.274s-2.707,2.617-5.938,2.476c-3.212-.134-5.726-3-5.726-3s2.707-2.617,5.939-2.477c.04.013.066,0,.107.01a8.329,8.329,0,0,1,4.494,1.925s-.026.016-.006.022A10.162,10.162,0,0,1,715.568,8189.274Z" fill="#fcfcfc"/><path d="M715.564,8187.4a6.65,6.65,0,0,0-2.112-2.109l.262-.426a7.147,7.147,0,0,1,2.272,2.268Z" fill="#93360d"/><path d="M706.746,8187.823a2.777,2.777,0,1,0,5.536.441,2.655,2.655,0,0,0-.125-1.059,9.673,9.673,0,0,0-5.319.042s.022.025,0,.023A4.37,4.37,0,0,0,706.746,8187.823Z" fill="#839ddd"/><circle cx="1.534" cy="1.534" r="1.534" transform="translate(707.916 8186.277)" fill="#2c2c2b"/><path d="M715.572,8189.266a19.148,19.148,0,0,0-2.856-1.547,10.739,10.739,0,0,0-1.45-.49,7.59,7.59,0,0,0-1.45-.2,7.93,7.93,0,0,0-2.884.56,14.826,14.826,0,0,0-2.771,1.442l-.3.2-.169-.154c-.479-.437-.962-.868-1.406-1.36.63.2,1.221.469,1.816.728l-.466.045a8.72,8.72,0,0,1,2.728-2.162,6.379,6.379,0,0,1,6.876.438A7.738,7.738,0,0,1,715.572,8189.266Z" fill="#071321"/><path d="M743.888,8181.854a23.633,23.633,0,0,1-.559,5.156l-.123,1.151a39.222,39.222,0,0,1-14.577-19.823c-5.567,4.437-15.3-.942-20.592,3.82-2.146,1.928-2.853,4.946-4.165,7.512a14.694,14.694,0,0,1-2.1,3.039c-.012-.284-.017-.568-.017-.855a21.067,21.067,0,1,1,42.134,0Z" fill="#2c2c2b"/><path d="M751.344,8192.266a6.641,6.641,0,1,0-6.641,6.642A6.642,6.642,0,0,0,751.344,8192.266Z" fill="#be612b"/><path d="M742.858,8194.489l-.43-.258a5.684,5.684,0,0,1,4.614-2.7l.013.5A5.168,5.168,0,0,0,742.858,8194.489Z" fill="#93360d"/><path d="M747.236,8195.448l-.465-.184a4.589,4.589,0,0,0-3.3-6.163l.106-.488a5.087,5.087,0,0,1,3.663,6.834Z" fill="#93360d"/><path d="M747.7,8206.285h-9.924a.266.266,0,0,1-.23-.4l4.961-8.624a.277.277,0,0,1,.461,0l4.962,8.624a.266.266,0,0,1-.23.4Zm-9.464-.531h9l-4.5-7.825Z" fill="#eaab40"/><path d="M723.421,8197.045h-.5a3.228,3.228,0,0,0-6.447,0h-.5a3.728,3.728,0,0,1,7.447,0Z" fill="#93360d"/><path d="M714.453,8201.82a4.969,4.969,0,0,0,.13,1.16,5.232,5.232,0,0,0,3.167,3.688,1.174,1.174,0,0,0,.2.065,4.7,4.7,0,0,0,1.759.324,5.2,5.2,0,0,0,3.753-1.6,3.068,3.068,0,0,0,.287-.312,5.056,5.056,0,0,0,1.069-2.162,4.814,4.814,0,0,0,.13-1.16v-.039l-5.239.039Z" fill="#091227"/><path d="M717.945,8206.733a4.7,4.7,0,0,0,1.759.324,5.2,5.2,0,0,0,3.753-1.6,3.485,3.485,0,0,0-2.241-.794A3.636,3.636,0,0,0,717.945,8206.733Z" fill="#ef7265"/><path d="M714.453,8201.82a4.969,4.969,0,0,0,.13,1.16h10.23a4.814,4.814,0,0,0,.13-1.16v-.039l-5.239.039Z" fill="#fcfcfc"/><path d="M655.54,8303.219l22.954,8.044,9.527-18.678-22.808-10.905a11.806,11.806,0,0,0-9.673,21.539Z" fill="#86bec4"/><path d="M678.494,8311.264l36.027,9.752,9.754-12.614-36.254-15.816Z" fill="#be612b"/><rect width="30.83" height="9.53" transform="translate(670.969 8315.234) rotate(-66.657)" fill="#c0dee1"/><path d="M714.62,8181.618a24.393,24.393,0,0,1-2.692.278c-.795.044-1.532.071-2.27.084s-1.476.009-2.271-.01a26.2,26.2,0,0,1-2.7-.189,4.673,4.673,0,0,1,2.086-2.111,6.348,6.348,0,0,1,5.69-.085A4.784,4.784,0,0,1,714.62,8181.618Z" fill="#2c2c2b"/><path d="M725.658,8181.618a4.784,4.784,0,0,1,2.156-2.033,6.348,6.348,0,0,1,5.69.085,4.673,4.673,0,0,1,2.086,2.111,26.2,26.2,0,0,1-2.7.189c-.8.019-1.534.024-2.272.01s-1.475-.04-2.27-.084A24.392,24.392,0,0,1,725.658,8181.618Z" fill="#2c2c2b"/><path d="M709.324,8197.208a8.195,8.195,0,1,1,8.194-8.194A8.2,8.2,0,0,1,709.324,8197.208Zm0-15.781a7.586,7.586,0,1,0,7.587,7.587A7.6,7.6,0,0,0,709.324,8181.427Z" fill="#fefefe"/><path d="M730.456,8197.208a8.195,8.195,0,1,1,8.194-8.194A8.2,8.2,0,0,1,730.456,8197.208Zm0-15.781a7.586,7.586,0,1,0,7.587,7.587A7.6,7.6,0,0,0,730.456,8181.427Z" fill="#fefefe"/><rect width="5.96" height="0.607" transform="translate(717.23 8186.116)" fill="#fefefe"/><rect width="6.14" height="0.607" transform="matrix(0.82, -0.572, 0.572, 0.82, 738.682, 8187.36)" fill="#fefefe"/><path d="M742.845,8324.745l5.2-3.512-4.79-4.041,1.336-2.687,5.6,4.708,2.729.916-.206,3.749-2.672-.021-6.138,4.692Z" fill="#bababa"/><path d="M734.714,8321.618c-4.947.316-8.764,3.6-8.524,7.34s4.444,6.509,9.392,6.191,8.764-3.6,8.524-7.341S739.662,8321.3,734.714,8321.618Zm.154,2.392c3.2-.205,5.917,1.587,6.071,4s-2.312,4.54-5.51,4.746-5.917-1.587-6.072-4S731.669,8324.215,734.868,8324.01Z" fill="#d83939"/><path d="M737.938,8306.553c-4.749-1.424-9.471.328-10.546,3.915s1.9,7.648,6.651,9.073,9.47-.329,10.546-3.916S742.687,8307.977,737.938,8306.553Zm-.689,2.295c3.07.921,4.995,3.547,4.3,5.866s-3.748,3.451-6.818,2.531-4.995-3.547-4.3-5.865S734.179,8307.928,737.249,8308.848Z" fill="#d83939"/><path d="M752.921,8320.13l25.65-11.535.806.905-26.661,14.379Z" fill="#555a5e"/><path d="M752.714,8323.886l24.233,14.274.9-.811-24.927-17.212Z" fill="#555a5e"/><path d="M750.6,8322.9a1.13,1.13,0,1,0-1.067-1.19A1.131,1.131,0,0,0,750.6,8322.9Z" fill="#858789"/><path d="M718.372,8309.04s15.126-2.156,16.6-.51,1.493,1.9.966,3.275a13.23,13.23,0,0,0-.576,1.658s5.171,8.726,3.952,13.969c-.8,3.441-4.285.688-4.285.688s.133,2.656-2.25,2.78a3.527,3.527,0,0,1-3.24-1.215s-1.418,2.391-3.219,1.7a5,5,0,0,1-2.438-1.724s.01,2.781-1.843,1.776-9.244-12.865-9.244-12.865Z" fill="#be612b"/><path d="M639.07,8082.751h-.807v-1.212h-1.212v-.807h2.019Z" fill="#474646"/><path d="M639.07,8238.24h-.807V8235h.807Zm0-6.479h-.807v-3.239h.807Zm0-6.479h-.807v-3.239h.807Zm0-6.479h-.807v-3.239h.807Zm0-6.479h-.807v-3.239h.807Zm0-6.479h-.807v-3.239h.807Zm0-6.479h-.807v-3.239h.807Zm0-6.479h-.807v-3.24h.807Zm0-6.479h-.807v-3.239h.807Zm0-6.478h-.807v-3.24h.807Zm0-6.48h-.807v-3.239h.807Zm0-6.478h-.807v-3.24h.807Zm0-6.479h-.807v-3.239h.807Zm0-6.479h-.807v-3.239h.807Zm0-6.479h-.807V8144.3h.807Zm0-6.479h-.807v-3.239h.807Zm0-6.478h-.807v-3.239h.807Zm0-6.479h-.807v-3.239h.807Zm0-6.479h-.807v-3.239h.807Zm0-6.479h-.807V8111.9h.807Zm0-6.478h-.807v-3.239h.807Zm0-6.479h-.807v-3.239h.807Zm0-6.479h-.807v-3.239h.807Zm0-6.479h-.807v-3.239h.807Z" fill="#474646"/><path d="M639.07,8243.5h-2.019v-.807h1.212v-1.211h.807Z" fill="#474646"/><path d="M633.594,8243.5h-3.457v-.807h3.457Zm-6.914,0h-3.457v-.807h3.457Zm-6.914,0h-3.457v-.807h3.457Zm-6.914,0H609.4v-.807h3.457Zm-6.913,0h-3.457v-.807h3.457Z" fill="#474646"/><path d="M599.024,8243.5h-1.978l-.038-.361c-.012-.113-.025-.405-.01-1.659l.806.011c-.005.59-.006.965,0,1.2h1.224Z" fill="#474646"/><path d="M597.859,8238.246l-.807-.019.073-3.254.806.02Zm.151-6.506-.806-.02.082-3.252.806.02Zm.169-6.5-.806-.021.087-3.252.806.021Zm.175-6.5-.806-.021.087-3.253.807.021Zm.175-6.509-.807-.021c.026-1.021.042-1.68.041-1.856q0-.7.021-1.4l.807.023q-.021.684-.021,1.376C598.571,8210.523,598.556,8211.193,598.529,8212.226Zm.277-6.464-.8-.084c.112-1.087.269-2.179.464-3.246l.795.147C599.071,8203.624,598.918,8204.7,598.806,8205.762Zm1.166-6.317-.779-.211c.288-1.065.621-2.119.989-3.133l.76.278C600.581,8197.369,600.255,8198.4,599.972,8199.444Zm2.2-6.035-.733-.342c.464-.993.976-1.972,1.52-2.912l.7.406C603.122,8191.479,602.622,8192.437,602.169,8193.409Zm3.221-5.549-.658-.467c.627-.885,1.3-1.757,2.015-2.59l.615.523C606.668,8186.141,606,8186.994,605.39,8187.86Zm4.161-4.878-.566-.576c.772-.757,1.592-1.495,2.439-2.193l.513.623C611.108,8181.519,610.3,8182.241,609.551,8182.982Z" fill="#474646"/><path d="M614.473,8178.915l-.461-.664q.535-.371,1.083-.727l-.433-1.221.762-.27.615,1.734-.234.262C615.352,8178.316,614.91,8178.611,614.473,8178.915Z" fill="#474646"/><path d="M613.575,8173.241l-1.087-3.062.762-.27,1.087,3.063Zm-2.174-6.124-1.088-3.061.762-.27,1.088,3.062Zm-2.175-6.124-1.088-3.061.762-.27,1.088,3.062Zm-2.179-6.115-1.125-3.049.757-.279,1.125,3.047Zm-2.246-6.1-1.121-3.05.758-.279,1.121,3.05Zm-2.247-6.1-.492-1.33.012-.048-.634-1.661.754-.289.726,1.9-.014.053.406,1.094Zm-2.273-6.074-1.16-3.035.754-.289,1.16,3.035Zm-2.32-6.07L596.8,8127.5l.754-.289,1.161,3.034Zm-2.321-6.069-1.161-3.036.754-.289,1.161,3.036Zm-2.321-6.081a13.8,13.8,0,0,1-.729-3.26l.8-.078a12.956,12.956,0,0,0,.687,3.068Zm.158-6.478-.8-.121a13.753,13.753,0,0,1,.9-3.216l.746.311A12.926,12.926,0,0,0,593.477,8111.91Zm2.4-5.76-.649-.48a13.863,13.863,0,0,1,2.295-2.424l.516.621A13.1,13.1,0,0,0,595.878,8106.15Zm4.809-3.97-.347-.729a13.583,13.583,0,0,1,3.169-1.051l.159.793A12.689,12.689,0,0,0,600.687,8102.18Zm14.308-1.237h-1.676v-.806h1.676a11.247,11.247,0,0,0,1.514-.1l.11.8A11.988,11.988,0,0,1,614.995,8100.943Zm-4.926,0H606.82v-.806h3.249Zm9.773-1.03-.33-.736a11.093,11.093,0,0,0,2.644-1.666l.523.615A11.855,11.855,0,0,1,619.842,8099.913Zm5.066-4.289-.672-.447a11.056,11.056,0,0,0,1.346-2.82l.771.242A11.859,11.859,0,0,1,624.908,8095.624Zm1.978-6.342h-.806v-3.249h.806Z" fill="#474646"/><path d="M626.886,8082.751h-.807v-2.019H628.1v.807h-1.212Z" fill="#474646"/><rect width="2.984" height="0.807" transform="translate(631.083 8080.732)" fill="#474646"/><path d="M583.779,8155.016a58.917,58.917,0,0,1-5.876-79.654l.633.5a58.111,58.111,0,0,0,5.8,78.565Z" fill="#474646"/><path d="M579.485,8077.368l.59-3.982-3.745,1.479Z" fill="#474646"/><path d="M683.9,8105.764H665.55l-1.739-2.918,18.511-18.511Z" fill="url(#g)"/><rect width="18.511" height="18.511" transform="translate(663.811 8084.334)" fill="#f38bab"/><rect width="12.599" height="0.404" transform="translate(666.767 8097.896)" fill="#fff"/><rect width="12.599" height="0.404" transform="translate(666.767 8094.847)" fill="#fff"/><rect width="5.733" height="0.404" transform="translate(666.767 8090.586)" fill="#fff"/><path d="M683.9,8191.794H665.55l-1.739-2.918,18.511-18.511Z" fill="url(#g)"/><rect width="18.511" height="18.511" transform="translate(663.811 8170.365)" fill="#f38bab"/><rect width="12.599" height="0.404" transform="translate(667.556 8184.533)" fill="#fff"/><rect width="12.599" height="0.404" transform="translate(667.556 8181.484)" fill="#fff"/><rect width="5.733" height="0.404" transform="translate(667.556 8177.223)" fill="#fff"/><path d="M683.9,8150.963H665.55l-1.739-2.918,18.511-18.511Z" fill="url(#g)"/><rect width="18.511" height="18.511" transform="translate(663.811 8129.534)" fill="#41a0a3"/><rect width="12.599" height="0.404" transform="translate(667.556 8143.096)" fill="#fff"/><rect width="12.599" height="0.404" transform="translate(667.556 8140.047)" fill="#fff"/><rect width="5.733" height="0.404" transform="translate(667.556 8135.785)" fill="#fff"/><ellipse cx="63.884" cy="7.601" rx="63.884" ry="7.601" transform="translate(1031.788 8525.529)" fill="url(#j)"/><path d="M1091.224,8158.24V8335.4h-30.477a8.426,8.426,0,0,1-8.595-8.715c.528-9.6,2.018-25.295,6.221-37.427,6.511-18.8,14.5-19.937,14.5-38.735s-13.022-18.514-14.206-32.186.592-16.8,2.072-18.229,18.645-7.69,21.013-16.52.888-23.356.888-23.356S1085.009,8158.24,1091.224,8158.24Z" fill="#8c757e"/><path d="M1091.224,8158.24V8335.4H1121.7a8.428,8.428,0,0,0,8.6-8.715c-.529-9.6-2.019-25.295-6.221-37.427-6.511-18.8-14.5-19.937-14.5-38.735s13.022-18.514,14.206-32.186-.592-16.8-2.072-18.229-18.645-7.69-21.013-16.52-.888-23.356-.888-23.356S1097.439,8158.24,1091.224,8158.24Z" fill="#9b878f"/><path d="M1091.224,8335.4v179.35s-8.879,1.184-13.318,6.511-5.919,12.208-12.209,12.208-5.1-2.885-3.477-3.772,6.659-1.924,7.547-7.1,4.291-11.542,8.731-14.206a24.667,24.667,0,0,1,9.322-3.107s-5.623-1.479-5.327-9.322,5.919-10.211,5.919-10.211-3.4-.74-3.4-3.255a3.487,3.487,0,0,1,2.367-3.256,4.243,4.243,0,0,1-.425-2.793c.333-1.5,2.164-1.609,2.164-1.609V8339.544s-3.274-.444-3.607-.888a3.272,3.272,0,0,1-.333-1.5h-4.051s-4.162,0-3.995-2.22S1091.224,8335.4,1091.224,8335.4Z" fill="#8c757e"/><path d="M1091.224,8335.4v179.35s8.878,1.184,13.318,6.511,5.919,12.208,12.208,12.208,5.1-2.885,3.477-3.772-6.659-1.924-7.546-7.1-4.292-11.542-8.731-14.206a24.674,24.674,0,0,0-9.323-3.107s5.623-1.479,5.327-9.322-5.919-10.211-5.919-10.211,3.4-.74,3.4-3.255a3.487,3.487,0,0,0-2.368-3.256,4.24,4.24,0,0,0,.426-2.793c-.333-1.5-2.165-1.609-2.165-1.609V8339.544s3.274-.444,3.607-.888a3.272,3.272,0,0,0,.333-1.5h4.051s4.162,0,4-2.22S1091.224,8335.4,1091.224,8335.4Z" fill="#9b878f"/><path d="M799.9,8343.447v12.931H610.448l37.627-12.931Z" fill="#9b878f"/><path d="M610.448,8356.378H799.9v59.258H634.928L618.919,8539.88h-8.472Z" fill="#8c757e"/><path d="M799.9,8343.447v12.931H989.361l-37.627-12.931Z" fill="#9b878f"/><path d="M989.361,8356.378H799.9v59.258H964.881l16.008,124.244h8.472Z" fill="#8c757e"/><path d="M736.819,8343.448s29.194,11.01,31.619,12.93,2.02,69.5,0,103.441a157.313,157.313,0,0,0,9.293,61.821s18.183-4.849,27.073-3.232-6.061,7.678,0,8.89,36.366-5.657,41.214,0-5.253,7.727-1.616,10.732,15.759,7.562,33.538,1.85,42.831,1.156,65.458,2.772,29.093,3.637,43.64.808,40.406-2.828,46.467-.808-10.91-17.779-26.264-22.627-26.264-153.547-31.517-163.647-44.448-12.93-54.953-12.93-56.57-2.627-73.54-3.638-61.621.606-68.692.606S736.819,8343.448,736.819,8343.448Z" fill="#ffad54"/><path d="M807.691,8520.067s-12.45-38.238-13.259-71.938,1.886-79.5,1.886-79.5.649,72.8,4.668,92.2,24.829,63.907,24.829,63.907l.4.861s-16.059,2.912-20.352,2.255-3.434-1.564-1.667-3.687S807.3,8521.625,807.691,8520.067Z" fill="#e59a4e"/><path d="M847.231,8529.4s-16.7-51.395-19.4-73.483-3.771-41.215-3.771-41.215,8.352,56.3,23.167,85.123,27.538,40.985,27.538,40.985-10.164,4.606-21.41,2.317-11.718-5.253-10.169-7.61S846.9,8532.235,847.231,8529.4Z" fill="#e59a4e"/><path d="M978.148,8388.838s2.424,85.123-19.4,103.71-66.267-32.864-66.267-32.864,40.676,31.248,56.03,22.9S978.148,8388.838,978.148,8388.838Z" fill="#e59a4e"/><path d="M844.267,8394.225S869.589,8478.54,917,8506.556s74.887,7.813,74.887,7.813-15.893,23.436-67.344,12.391S844.267,8394.225,844.267,8394.225Z" fill="#e59a4e"/><path d="M754.169,8350.162l163.908-.25.808,1.213-163.587-.514Z" fill="#fff"/><path d="M1109.377,8189.768s-.942,13.2-5.387,18.856-11.583,5.388-11.583,5.388-.809,44.716,1.346,61.688,11.584,43.5,10.91,43.37,8.082-2.426,8.082-2.426a59.769,59.769,0,0,1,7.273-12.525c4.175-5.118,11.179-9.7,11.179-9.7s-12.257-16.836-14.681-33.134-3.042-17.7.673-26.129,8.082-11.181,8.082-11.181-6.957-6.153-6.6-15.758,6.869-18.452,6.869-18.452Z" fill="#ffe3c2"/><path d="M1094.157,8215.358l-1.9-5.859h.95Z" fill="#9b938a"/><path d="M1119.008,8200.341l5.118-4.714.606.605Z" fill="#9b938a"/><path d="M1109.512,8195.627l-2.088-7-.741.4Z" fill="#9b938a"/><path d="M1107.492,8248.021l8.081-5.455.4.741Z" fill="#9b938a"/><path d="M1109.849,8261.826l9.63-1.414v.942Z" fill="#9b938a"/><path d="M1102.239,8303.714l-7-4.579-.539.809Z" fill="#9b938a"/><path d="M1125.338,8295.027l3.973-8.284,1,.4Z" fill="#9b938a"/><circle cx="0.96" cy="0.96" r="0.96" transform="translate(1091.733 8207.9)" fill="#d83939"/><circle cx="0.96" cy="0.96" r="0.96" transform="translate(1115.017 8241.942)" fill="#d83939"/><circle cx="0.96" cy="0.96" r="0.96" transform="translate(1118.519 8259.957)" fill="#d83939"/><circle cx="0.96" cy="0.96" r="0.96" transform="translate(1128.924 8285.784)" fill="#d83939"/><circle cx="0.96" cy="0.96" r="0.96" transform="translate(1093.737 8298.479)" fill="#d83939"/><circle cx="0.96" cy="0.96" r="0.96" transform="translate(1106.002 8187.52)" fill="#d83939"/><circle cx="0.96" cy="0.96" r="0.96" transform="translate(1123.772 8194.768)" fill="#d83939"/></g></svg>