<svg xmlns="http://www.w3.org/2000/svg" width="44.398" height="76.463" viewBox="0 0 44.398 76.463">
  <g id="modista_2_" data-name="modista (2)" transform="translate(-112.001 -8)">
    <path id="Trazado_774612" data-name="Trazado 774612" d="M160.7,112.13H121.233c0-20.144,4.933-25.9,4.933-25.9L120,62.8l13.566-4.933L136.033,48H145.9l2.467,9.866L161.931,62.8l-6.166,23.432S160.7,91.987,160.7,112.13Z" transform="translate(-6.766 -33.834)" fill="#efdece"/>
    <path id="Trazado_774613" data-name="Trazado 774613" d="M232,464h7.4v4.933H232Z" transform="translate(-101.5 -385.703)" fill="#c2856c"/>
    <path id="Trazado_774614" data-name="Trazado 774614" d="M240,16h4.933v4.933H240Z" transform="translate(-108.267 -6.767)" fill="#c2856c"/>
    <path id="Trazado_774615" data-name="Trazado 774615" d="M182.166,80l-1.233,4.933V131.8H176V82.467l4.933-1.973Z" transform="translate(-54.133 -60.901)" fill="#faa2c5"/>
    <path id="Trazado_774616" data-name="Trazado 774616" d="M176,384h4.933v4.933H176Z" transform="translate(-54.133 -318.036)" fill="#fc6c9f"/>
    <path id="Trazado_774617" data-name="Trazado 774617" d="M302.166,124.4h-4.933V84.933L296,80l6.166,2.467Z" transform="translate(-155.634 -60.901)" fill="#faa2c5"/>
    <path id="Trazado_774618" data-name="Trazado 774618" d="M155.587,27.807l-7.821-2.844v-3.4a1.233,1.233,0,0,0-.775-1.145l-5.581-2.232-1.081-4.321a1.233,1.233,0,0,0-1.2-.934H137.9v-3.7A1.233,1.233,0,0,0,136.666,8h-4.933A1.233,1.233,0,0,0,130.5,9.233v3.7h-1.233a1.233,1.233,0,0,0-1.2.934l-1.08,4.321-5.581,2.232a1.233,1.233,0,0,0-.776,1.145v3.4l-7.821,2.844a1.233,1.233,0,0,0-.771,1.473l6.019,22.875c-1.234,1.9-4.827,8.907-4.827,26.142a1.233,1.233,0,0,0,1.233,1.233h14.8v3.7a1.233,1.233,0,0,0,1.233,1.233h7.4a1.233,1.233,0,0,0,1.233-1.233v-3.7h14.8a1.233,1.233,0,0,0,1.233-1.233c0-17.235-3.593-24.244-4.827-26.142l6.02-22.875A1.233,1.233,0,0,0,155.587,27.807ZM145.3,22.4v.4a1.233,1.233,0,1,0,0,2.467v2.467a1.233,1.233,0,1,0,0,2.467v2.467a1.233,1.233,0,1,0,0,2.467V37.6a1.233,1.233,0,1,0,0,2.467v2.467a1.233,1.233,0,1,0,0,2.467v2.467a1.233,1.233,0,1,0,0,2.467V52.4a1.233,1.233,0,1,0,0,2.467v2.467a1.233,1.233,0,1,0,0,2.467v2.467h-2.467V24.033a1.23,1.23,0,0,0-.037-.3l-.648-2.593ZM132.966,10.467h2.467v2.467h-2.467ZM123.1,67.2h2.467v2.467H123.1Zm0-44.8,3.152-1.261-.647,2.593a1.229,1.229,0,0,0-.038.3v40.7H123.1V59.8a1.233,1.233,0,1,0,0-2.467V54.864a1.233,1.233,0,1,0,0-2.467V49.931a1.233,1.233,0,1,0,0-2.467V45a1.233,1.233,0,1,0,0-2.467V40.065a1.233,1.233,0,1,0,0-2.467V35.132a1.233,1.233,0,1,0,0-2.467V30.2a1.233,1.233,0,1,0,0-2.467V25.266a1.233,1.233,0,1,0,0-2.467ZM136.666,82h-4.933V79.53h4.933Zm16.026-4.933H115.707c.191-18.255,4.592-23.818,4.63-23.863a1.233,1.233,0,0,0,.256-1.116l-5.88-22.344,5.921-2.153V70.9a1.233,1.233,0,0,0,1.233,1.233H126.8a1.233,1.233,0,0,0,1.233-1.233V24.184l2.2-8.785h7.94l2.2,8.785V63.5a1.233,1.233,0,0,0,1.233,1.233h4.933a1.233,1.233,0,0,0,1.233-1.233V52.41a1.2,1.2,0,0,0,.289.781C148.1,53.246,152.5,58.808,152.692,77.063Zm-4.887-24.979a1.265,1.265,0,0,0-.041.281V27.587l5.921,2.153Z"/>
  </g>
</svg>
