<svg xmlns="http://www.w3.org/2000/svg" width="1015.313" height="585.283" viewBox="0 0 1015.313 585.283">
  <g id="Grupo_1055090" data-name="Grupo 1055090" transform="translate(-284 -3989.217)">
    <path id="Trazado_101665" data-name="Trazado 101665" d="M702.312,495.322h-413v29.665h413c4.284,0,7.757-1.29,7.757-2.882V498.2C710.068,496.612,706.595,495.322,702.312,495.322Z" transform="translate(283.688 3989.678)" fill="#73d8c0"/>
    <path id="Trazado_101666" data-name="Trazado 101666" d="M312.312,558.56l5,2.12,10.262,4.076,14.022,5.413,12.913,5.152,5.837,2.739,1.6,1.468.326,1.761-1.044,1.369-2.967.652-8.185.815-6.489.424-4.957-.391-13.3.163-26.087-.391-10.337-.163-5.544-.424-2.184-.815-2.9-1.6-1.892-2.968-.717-3.587.587-4.6,1.206-4.337,2.381-11.674.652-8.087-1.011-7.859-2.641-11.967L271.29,505.9l-3-12.782-1.239-11.935V469.473l2.152-12.424,1.533-7.956,3.88-14.067,3.816-11.5,4.5-14.935,1.4-4.565L284.3,396.1l-.782-42.489.847-27.913.261-7.435-2.391-1.935-3.131-3.174-4.369-4.891-3.891-9.109-1.131-8.674.239-6.848L271.04,273.2l3.435-11.544,1.87-5.152,4.3-9.391,2.739-10.174.326-4.761-.261-8.968.979-1.619,41.739,7.478L346.953,278.2l11.74,26.782-12.609,32.261.859,15.044.355,3.037-1.823,2.441-8.348,22.261-5.217,12.434-.957,2.435L330,405.412l-3.044,6.181-2.608,6-1.3,6.869-3.565,5.913-3.3,7.3L314,445.941l-1.913,23.913-2.174,21.739-3.826,19.826-2.174,17.043-.87,12.609.7,8.609.609,4.348,1.945,2.087,2.142,1.043Z" transform="translate(284 3989.217)" fill="#fff"/>
    <path id="Trazado_101667" data-name="Trazado 101667" d="M675.837,22.636H330.466V52.3H675.837c3.583,0,6.487-1.29,6.487-2.882v-23.9C682.324,23.927,679.42,22.636,675.837,22.636Z" transform="translate(283.534 3989.364)" fill="#73d8c0"/>
    <path id="Trazado_101674" data-name="Trazado 101674" d="M969.006,48.836H819.3a2.569,2.569,0,0,0-2.569,2.569V75.931A2.569,2.569,0,0,0,819.3,78.5H969.006a2.871,2.871,0,0,0,2.86-2.882v-23.9A2.871,2.871,0,0,0,969.006,48.836Z" transform="translate(284.272 3989.164)" fill="#73d8c0"/>
    <path id="Trazado_101678" data-name="Trazado 101678" d="M1010.68,436.816H779.741c-2.189,0-3.963,1.15-3.963,2.569v24.526c0,1.419,1.774,2.569,3.963,2.569h230.937c2.437,0,4.412-1.29,4.412-2.882V439.7C1015.09,438.107,1013.11,436.816,1010.68,436.816Z" transform="translate(284.223 3989.184)" fill="#73d8c0"/>
    <path id="Trazado_101696" data-name="Trazado 101696" d="M193.228,436.816H43.519a2.569,2.569,0,0,0-2.569,2.569v24.526a2.569,2.569,0,0,0,2.569,2.569H193.228a2.871,2.871,0,0,0,2.86-2.882V439.7A2.872,2.872,0,0,0,193.228,436.816Z" transform="translate(284.05 3989.184)" fill="#73d8c0"/>
    <path id="Trazado_101703" data-name="Trazado 101703" d="M246.778,45.64H4.164C1.864,45.64,0,46.79,0,48.209V72.735C0,74.154,1.864,75.3,4.164,75.3H246.778c2.56,0,4.635-1.29,4.635-2.882v-23.9C251.413,46.93,249.337,45.64,246.778,45.64Z" transform="translate(284 3989.217)" fill="#73d8c0"/>
    <path id="Trazado_101721" data-name="Trazado 101721" d="M675.837,178.084H330.466v29.665H675.837c3.583,0,6.487-1.29,6.487-2.882v-23.9C682.324,179.374,679.42,178.084,675.837,178.084Z" transform="translate(283.534 3988.916)" fill="#73d8c0"/>
    <path id="Trazado_101728" data-name="Trazado 101728" d="M675.94,270.868H336.06v29.664H675.941c3.526,0,6.383-1.29,6.383-2.882v-23.9C682.324,272.159,679.466,270.868,675.94,270.868Z" transform="translate(283.94 3989.132)" fill="#73d8c0"/>
    <g id="Grupo_53906" data-name="Grupo 53906" transform="translate(284 3989.217)">
      <g id="Grupo_53905" data-name="Grupo 53905">
        <path id="Trazado_101777" data-name="Trazado 101777" d="M695.848,105.105c.883,4.835,1.987,9.592,2.565,14.412a15.681,15.681,0,0,1-4.075,12.88c-9.072,9.812-18.286,19.492-27.38,29.283-2.868,3.088-6.079,6.039-8.193,9.61-5.8,9.8-2.211,21.363,8.2,26.005,3.517,1.568,4.393,3.777,4.455,6.908.219,11.118.614,22.243.413,33.356-.146,8.063-1.641,16.113-1.609,24.166.037,9.5,1.015,19.009,1.688,28.506.833,11.745,2.521,23.484,2.49,35.223a159.366,159.366,0,0,0,7.749,50.008,110.688,110.688,0,0,1,5.593,35.071c-.043,9.64,2.981,19.27,4.336,28.947,2.68,19.144,5.329,38.3,7.635,57.487,1.422,11.831,2.076,23.751,3.292,35.609.628,6.129-1.059,11.416-5.384,15.568-8.978,8.617-19.263,14.834-32.044,15.9a16.152,16.152,0,0,0-1.965.276c-2.516.528-4.655,1.6-4.648,4.555a4.547,4.547,0,0,0,4.485,4.737c7.114.5,14.289,1.213,21.375.781,9.779-.6,19.408-1.763,29.274-.058,10.158,1.755,17.653-8.232,12.538-17.136-5.333-9.285-4.989-18.552-3.811-28.43,2.6-21.829,5.091-43.677,7.183-65.56a83.333,83.333,0,0,0-3.406-33.436c-4.091-12.722-3.1-25.249-1.593-38.082,2.737-23.267,5-46.589,7.536-69.88.13-1.192.552-2.789,1.407-3.4,10.228-7.291,11.851-17.493,10.268-28.964-1.446-10.472-5.875-19.724-11.242-28.628-1.367-2.268-2.732-4.547-4.242-6.719-4.547-6.541-6.109-13.194-5.967-21.652.225-13.36,3.487-25.6,7.753-37.8,6.153-17.605,5.418-35.43,2.473-53.383-.77-4.7-2.085-9.3-2.914-13.989a3.8,3.8,0,0,1,1.131-3.151c12.26-8.519,17.141-21.055,18.134-35.108.524-7.411-.755-15.006-1.737-22.45-.845-6.405-2.375-12.724-3.688-19.062a40.469,40.469,0,0,0-9.172-18.689C723.832,16.285,709.681,13.762,695,21.524a106.325,106.325,0,0,1-13.295,6.126c-9.576,3.475-12.479,8.826-9.885,18.8a20.6,20.6,0,0,1,.606,6.575,20.8,20.8,0,0,0,2.128,11.9c.881,1.643.67,4.285.072,6.2-.646,2.065-2.31,3.818-3.557,5.688-2.681,4.017-2.467,5.031,1.52,7.916a2.884,2.884,0,0,1,1.134,1.793c.225,2.444.227,4.907.382,7.359.031.488.259,1.282.576,1.386,3.712,1.213,3.6,3.788,3.3,7.1-.276,3.088,2.6,4.295,5.213,4.207C687.113,106.44,691.006,105.7,695.848,105.105ZM677.922,54.151c-.692-1.115-1.39-2.227-2.075-3.346-5.941-9.7-2.782-18.118,7.819-21.554a64.3,64.3,0,0,0,10.039-4.7c7.016-3.719,14.19-6.916,22.351-4.894,12.861,3.186,20.829,11.822,24.654,24.1,2.067,6.637,2.491,13.771,4.326,20.5,3.971,14.563,3.849,28.81-2.179,42.776a36.545,36.545,0,0,1-11.362,15.058c-2.776,2.109-4.922,2.325-6.523-1.268-1.4-3.133-3.313-6.1-4.259-9.352-1.513-5.2-2.412-10.585-3.632-16.167-2.88,6.326-5.548,12.633-11.86,17.108.1-1.719.166-2.785.3-5l-2.729,7.061c6.606-2.22,9.68-7.394,12.773-11.409,2.971,6.2,5.979,12.432,8.942,18.684a104.736,104.736,0,0,1,4.475,9.951,51.257,51.257,0,0,1,1.8,8.527c2.69,16.041,4.337,32.085-.514,48.042-2.079,6.84-4.262,13.649-6.4,20.472l-.806-.186-2.631-49.492-1.025-.04a53.959,53.959,0,0,0-.677,7.731c.4,7.938,1.372,15.856,1.577,23.8.535,20.737,2.964,41.526-2.435,62.09-4.677,17.813-8.982,35.7-18.341,51.845a28.607,28.607,0,0,0-3.712,16.426,22.613,22.613,0,0,1-.336,7.49,28.454,28.454,0,0,0-.193,16.427c.317,1.082-.68,2.548-1.071,3.837l-2.162-.608c3.5,3.755.2,5.115-1.5,5.564-1.771.468-4.3.616-5.762-2.25-4.575-8.951-4.63-18.162-1.883-27.429,1.943-6.557,5.291-12.723,6.967-19.328,3.221-12.694,6.058-25.511,8.387-38.4,2.266-12.536,6.157-24.788,4.369-38.005-2.324-17.185-3.37-34.541-5.077-51.812-.18-1.824-1.1-3.575-1.848-5.874-.59.921-.84,1.129-.823,1.311,2.035,21.629,4.122,43.253,6.1,64.887a25.848,25.848,0,0,1-.409,7.075c-2,10.534-3.967,21.08-6.3,31.543-3.445,15.448-5.929,31.048-12.4,45.841-4.4,10.06-4.527,21.277,1.565,31.414a7.234,7.234,0,0,0,4.36,3.3c6.3.886,10.733-4.846,9.623-11.556a63.382,63.382,0,0,1-.786-11.348,77.6,77.6,0,0,1,1.129-12.187c.909-5.136,1.3-10.718,3.678-15.171a175.731,175.731,0,0,0,13.867-35.416c2.16-7.689,4.021-15.462,6.069-23.406.581.463.974.64,1.156.943,4.3,7.146,8.7,14.235,12.82,21.484a59.849,59.849,0,0,1,7.42,24.534c1.116,12.446-5.322,22.638-16.2,25.477-1.939.506-3.971.656-5.96.97l.088.97,9.233-.454c0,4.757.468,9.672-.08,14.472-2.449,21.446-5.244,42.852-7.793,64.286-.938,7.89-1.624,15.743.85,23.622,4.041,12.868,6.089,26.152,4.954,39.609-1.57,18.6-3.912,37.143-5.773,55.725-1.369,13.667-5.15,27.31,3.058,40.609,3.474,5.628-.71,12.095-7.2,13.066-2.905.435-6-.5-9.016-.684-4.328-.267-8.674-.714-12.993-.559-8.436.3-16.854,1.2-25.29,1.379-3.5.073-7.2-.707-9.761-4.661,1.639-.554,2.918-1.284,4.246-1.387,12.461-.968,22.71-6.779,31.93-14.668,6-5.131,8.85-11.642,7.971-19.759-1.569-14.483-2.625-29.025-4.368-43.485-2.059-17.085-4.472-34.132-7.015-51.153-1.482-9.922-5.152-19.61-3.906-29.806,1-8.158-.59-15.9-3.111-23.4a195.448,195.448,0,0,1-10.341-69.16,95.362,95.362,0,0,0-1.386-17.808,199.34,199.34,0,0,1-1.849-48.295c1.17-13.808.582-27.768.654-41.661a65.8,65.8,0,0,0-.813-7.649l4.9-1.493a4.843,4.843,0,0,0-2.927-.772c-14.012-.756-21.179-14.29-13.689-26.087a46.924,46.924,0,0,1,6.174-7.207c8.112-8.359,16.19-16.756,24.5-24.918,8.747-8.594,10.394-18.624,6.868-29.946-.613-1.969-1.108-3.975-1.573-5.66l5.369-3.938c-.725.3-1.434.64-2.178.879-4.758,1.524-9.448,3.365-14.308,4.432-4.454.978-6.048-.837-5.777-5.14.076-1.209-.033-3.1-.768-3.575-3.881-2.487-3.789-6.192-3.817-10.054-.011-1.516.783-4.151-2.6-3.483-.068.013-1.193-2.579-.8-3.524a30.141,30.141,0,0,1,3.754-6.017c2.338-3.167,1.985-6,.308-9.538-1.526-3.215-1.664-7.088-2.414-10.671l1.223-.354Z"/>
        <path id="Trazado_101778" data-name="Trazado 101778" d="M702.53,99.347l-5.369,3.938c.466,1.686.96,3.692,1.573,5.66,3.526,11.322,1.878,21.352-6.868,29.946-8.307,8.163-16.385,16.559-24.5,24.918a46.934,46.934,0,0,0-6.174,7.207c-7.491,11.8-.323,25.33,13.689,26.087a4.842,4.842,0,0,1,2.927.772l-4.9,1.493a65.8,65.8,0,0,1,.813,7.649c-.072,13.893.516,27.854-.654,41.661a199.334,199.334,0,0,0,1.849,48.295,95.356,95.356,0,0,1,1.386,17.808,195.449,195.449,0,0,0,10.341,69.16c2.521,7.5,4.108,15.238,3.111,23.4-1.246,10.2,2.424,19.884,3.906,29.806,2.543,17.021,4.956,34.068,7.015,51.153,1.742,14.46,2.8,29,4.368,43.485.879,8.117-1.974,14.627-7.971,19.759-9.22,7.889-19.469,13.7-31.93,14.668-1.328.1-2.607.834-4.246,1.387,2.562,3.954,6.261,4.735,9.761,4.661,8.436-.177,16.854-1.075,25.29-1.379,4.319-.156,8.665.291,12.993.559,3.016.186,6.112,1.119,9.016.684,6.486-.971,10.67-7.437,7.2-13.066-8.208-13.3-4.427-26.942-3.058-40.609,1.861-18.582,4.2-37.12,5.773-55.725,1.135-13.458-.913-26.741-4.954-39.609-2.474-7.878-1.789-15.732-.85-23.622,2.549-21.435,5.344-42.84,7.793-64.286.548-4.8.08-9.715.08-14.472l-9.233.454-.088-.97c1.989-.314,4.021-.464,5.96-.97,10.873-2.839,17.312-13.03,16.2-25.477a59.849,59.849,0,0,0-7.42-24.534c-4.12-7.248-8.521-14.337-12.82-21.484-.182-.3-.576-.479-1.156-.943-2.049,7.943-3.909,15.716-6.069,23.405a175.735,175.735,0,0,1-13.867,35.416c-2.373,4.453-2.769,10.035-3.678,15.171a77.6,77.6,0,0,0-1.129,12.187,63.371,63.371,0,0,0,.786,11.348c1.11,6.71-3.32,12.443-9.623,11.556a7.233,7.233,0,0,1-4.36-3.3c-6.091-10.137-5.966-21.353-1.565-31.414,6.472-14.793,8.956-30.393,12.4-45.84,2.333-10.463,4.3-21.009,6.3-31.543a25.851,25.851,0,0,0,.409-7.075c-1.974-21.634-4.061-43.258-6.1-64.887-.017-.182.233-.39.823-1.311.745,2.3,1.668,4.049,1.848,5.874,1.707,17.271,2.753,34.628,5.077,51.813,1.787,13.217-2.1,25.47-4.369,38.005-2.329,12.887-5.165,25.7-8.387,38.4-1.676,6.605-5.024,12.771-6.967,19.328-2.746,9.266-2.691,18.478,1.883,27.429,1.465,2.867,3.991,2.719,5.762,2.25,1.7-.449,5-1.809,1.5-5.564l2.162.608c.391-1.289,1.388-2.756,1.071-3.837a28.454,28.454,0,0,1,.193-16.427,22.617,22.617,0,0,0,.336-7.49,28.608,28.608,0,0,1,3.712-16.426c9.36-16.143,13.664-34.033,18.341-51.845,5.4-20.564,2.97-41.353,2.435-62.09-.2-7.939-1.173-15.857-1.577-23.8a53.984,53.984,0,0,1,.677-7.731l1.025.04,2.631,49.492.806.186c2.136-6.823,4.318-13.632,6.4-20.472,4.851-15.957,3.2-32,.514-48.042a51.259,51.259,0,0,0-1.8-8.527,104.726,104.726,0,0,0-4.475-9.951c-2.962-6.252-5.971-12.482-8.942-18.684-3.093,4.015-6.167,9.189-12.773,11.409l2.729-7.061-.3,5c6.312-4.475,8.98-10.783,11.86-17.108,1.219,5.582,2.119,10.964,3.632,16.167.946,3.254,2.863,6.219,4.259,9.352,1.6,3.593,3.747,3.377,6.523,1.268a36.546,36.546,0,0,0,11.362-15.058c6.028-13.966,6.15-28.213,2.179-42.776-1.834-6.727-2.259-13.861-4.326-20.5-3.824-12.279-11.792-20.915-24.654-24.1-8.161-2.022-15.335,1.176-22.351,4.895a64.28,64.28,0,0,1-10.039,4.7c-10.6,3.436-13.76,11.852-7.819,21.554.685,1.119,1.383,2.231,2.075,3.346l-.15-.148,6.05,4.229,1.009-3.857,7.773,9.293,1.1,1.883c6,7.531,7.239,16.339,6.532,26.307,5.029-4.374,5.572-10.054,7.178-15.1v23.632l-.725-.012-.535-2.9-3.75,2Z" fill="#fff"/>
        <path id="Trazado_101779" data-name="Trazado 101779" d="M693.705,65.552l-1.1-1.883-5.489-4.85c-1.168.506-2.518,1.462-2.864,1.181-2.28-1.85-4.344-3.967-6.479-6l.15.148-2.767-1.85-1.223.354c.75,3.583.888,7.456,2.414,10.671,1.677,3.533,2.031,6.371-.308,9.538a30.146,30.146,0,0,0-3.754,6.017c-.4.945.729,3.538.8,3.524,3.386-.669,2.592,1.966,2.6,3.483.028,3.861-.065,7.567,3.817,10.054.735.471.844,2.367.768,3.575-.271,4.3,1.322,6.118,5.777,5.14,4.86-1.067,9.55-2.908,14.308-4.432.743-.238,1.453-.583,2.178-.879l-.124.128c4.319-3.58,5.606-8.036,3.961-13.234l-7.876,10c0-6.65.618-12.079-.186-17.288C697.6,74.355,695.3,70.007,693.705,65.552Z" fill="#fff"/>
        <path id="Trazado_101780" data-name="Trazado 101780" d="M693.705,65.552c1.6,4.456,3.892,8.8,4.6,13.4.8,5.209.186,10.638.186,17.288l7.876-10c1.645,5.2.358,9.655-3.961,13.234l3.75-2,.535,2.9.725.012V76.759c-1.607,5.046-2.149,10.726-7.178,15.1C700.944,81.891,699.7,73.083,693.705,65.552Z"/>
        <path id="Trazado_101781" data-name="Trazado 101781" d="M677.772,54c2.134,2.03,4.2,4.147,6.479,6,.346.281,1.7-.675,2.864-1.181l5.489,4.85-7.773-9.293-1.009,3.857Z"/>
      </g>
      <path id="Trazado_101782" data-name="Trazado 101782" d="M694.639,33.386a25.006,25.006,0,0,1,5.07,2.437,31.791,31.791,0,0,1,4.461,3.47,33.9,33.9,0,0,1,6.781,9.032,40.284,40.284,0,0,1,2.066,5.276l.422,1.352a9.135,9.135,0,0,1,.363,1.367c.191.924.369,1.85.54,2.777a20.075,20.075,0,0,1,.345,2.8l.239,2.81c0,1.878-.056,3.757-.118,5.624-.122-1.873-.142-3.742-.28-5.6l-.351-2.773a19.673,19.673,0,0,0-.451-2.75c-.211-.905-.416-1.81-.607-2.718a8.871,8.871,0,0,0-.374-1.338l-.432-1.322a40.01,40.01,0,0,0-2.087-5.14,35.03,35.03,0,0,0-6.487-8.948A30.448,30.448,0,0,0,694.639,33.386Z"/>
      <path id="Trazado_101783" data-name="Trazado 101783" d="M702.849,24.822a24.788,24.788,0,0,1,10.438,2.871,26,26,0,0,1,8.369,6.993,30.025,30.025,0,0,1,4.868,9.76,41.435,41.435,0,0,1,1.167,5.324c.115.9.2,1.8.3,2.7.054.9.094,1.809.129,2.711l-.344-2.687c-.159-.888-.3-1.778-.474-2.66a41.714,41.714,0,0,0-1.371-5.2,36.849,36.849,0,0,0-2.044-4.951,30.157,30.157,0,0,0-2.87-4.5,26.419,26.419,0,0,0-8.024-6.944,27.348,27.348,0,0,0-4.894-2.187A25.375,25.375,0,0,0,702.849,24.822Z"/>
      <path id="Trazado_101784" data-name="Trazado 101784" d="M734.133,64.244A62.493,62.493,0,0,1,739.081,89.3a44.734,44.734,0,0,1-2.086,12.69,36.726,36.726,0,0,1-2.533,5.918,35.3,35.3,0,0,1-3.584,5.319A39.238,39.238,0,0,0,736.4,101.8a46.512,46.512,0,0,0,1.871-12.521,64.511,64.511,0,0,0-.985-12.669c-.349-2.1-.8-4.177-1.322-6.239S734.842,66.258,734.133,64.244Z"/>
      <path id="Trazado_101785" data-name="Trazado 101785" d="M717.287,77.692a32.512,32.512,0,0,1-.166,6.414,38.671,38.671,0,0,1-1.28,6.309,32.625,32.625,0,0,1-2.369,5.991,27.494,27.494,0,0,1-3.545,5.351c.505-.948,1.141-1.8,1.584-2.771l.746-1.4.65-1.448a46.145,46.145,0,0,0,2.153-5.949,59.467,59.467,0,0,0,1.445-6.171c.183-1.043.345-2.091.466-3.146C717.121,79.816,717.208,78.758,717.287,77.692Z"/>
      <path id="Trazado_101786" data-name="Trazado 101786" d="M682.324,35.651c.552,1.022,1.092,2.044,1.685,3.038q.847,1.512,1.761,2.983c1.22,1.959,2.478,3.889,3.826,5.754s2.8,3.648,4.313,5.382c.785.839,1.557,1.7,2.414,2.467.795.844,1.722,1.53,2.582,2.317a31.135,31.135,0,0,1-5.45-4.353,45.628,45.628,0,0,1-4.519-5.337,56.164,56.164,0,0,1-3.707-5.919A46.979,46.979,0,0,1,682.324,35.651Z"/>
      <path id="Trazado_101787" data-name="Trazado 101787" d="M689.844,65.7s-4.724-4.406-8.387-3.928a12.994,12.994,0,0,0-3.026.69c-.8.425-1.221.265-1.38-.319s.159-1.062,1.433-1.327S684.589,59.007,689.844,65.7Z"/>
      <path id="Trazado_101788" data-name="Trazado 101788" d="M679.36,65.032a14.54,14.54,0,0,1,4.293.719,16.312,16.312,0,0,1,3.966,1.867l.348.224-.309.253a7.549,7.549,0,0,1-1.7,1.039,9.605,9.605,0,0,1-1.851.632,11.279,11.279,0,0,1-1.922.275,11.59,11.59,0,0,1-1.924-.073,17.238,17.238,0,0,0,1.894-.207,12.539,12.539,0,0,0,1.833-.427,13,13,0,0,0,1.726-.706,8.178,8.178,0,0,0,1.537-.98l.038.477a20.777,20.777,0,0,0-1.85-1.047,21.215,21.215,0,0,0-1.949-.866,18.362,18.362,0,0,0-2.031-.681A19.041,19.041,0,0,0,679.36,65.032Z"/>
      <ellipse id="Elipse_4002" data-name="Elipse 4002" cx="1.003" cy="2.467" rx="1.003" ry="2.467" transform="translate(678.96 65.271) rotate(-10.696)"/>
      <path id="Trazado_101789" data-name="Trazado 101789" d="M678.245,80.4a1.866,1.866,0,0,1,.821,1.636,1.8,1.8,0,0,1-.286.926,1.661,1.661,0,0,1-.7.623,5,5,0,0,0,.371-1.569A6.137,6.137,0,0,0,678.245,80.4Z"/>
      <path id="Trazado_101790" data-name="Trazado 101790" d="M675.5,94.795a.584.584,0,0,1-.261-.06c-.451-.22-.648-.982-.621-2.4a.307.307,0,0,1,.2-.281c.04-.014.56-.208,1.314-.423-.708-.129-1.329-.382-1.5-.862a2.488,2.488,0,0,1,.01-1.873,1.2,1.2,0,0,1,1.309-.842c.085.006.176.008.273.01.84.023,2.245.061,4.273,2.04l.865.971a.308.308,0,0,1,.075.244c0,.033-.514,3.358-5.631,3.4A.681.681,0,0,1,675.5,94.795Zm-.274-2.236c0,1.459.277,1.626.281,1.627a.374.374,0,0,1,.213-.078c4.12,0,4.941-2.17,5.085-2.738l-.748-.841c-1.842-1.8-3.049-1.829-3.848-1.85-.106,0-.2-.006-.3-.012a.641.641,0,0,0-.705.455,1.921,1.921,0,0,0,0,1.45c.159.455,1.86.647,3.338.548a.305.305,0,0,1,.061.607A18.5,18.5,0,0,0,675.23,92.559Z"/>
      <path id="Trazado_101791" data-name="Trazado 101791" d="M710.068,137.286a15.526,15.526,0,0,0-4.162-.557,10.79,10.79,0,0,0-4.011.776,5.083,5.083,0,0,0-.927.424,5.722,5.722,0,0,0-.883.513l-.846.584-.769.691-.389.346-.342.393-.7.786c-.449.541-.817,1.144-1.27,1.706.289-.649.595-1.3.943-1.935l.613-.9.316-.445.373-.4a9.357,9.357,0,0,1,3.578-2.523,9.621,9.621,0,0,1,4.332-.652A10.421,10.421,0,0,1,710.068,137.286Z"/>
      <path id="Trazado_101792" data-name="Trazado 101792" d="M690.534,334.682c-.022,1.416.023,2.82.12,4.207a17.07,17.07,0,0,0,.731,4.041,8.9,8.9,0,0,0,.363.935l.466.935c.306.627.645,1.237.974,1.855.679,1.224,1.366,2.45,2.088,3.669a24.164,24.164,0,0,1-2.631-3.341c-.4-.588-.759-1.2-1.111-1.821-.178-.309-.334-.63-.5-.946a9.374,9.374,0,0,1-.42-1.026,13.439,13.439,0,0,1-.593-4.278A18.439,18.439,0,0,1,690.534,334.682Z"/>
      <path id="Trazado_101793" data-name="Trazado 101793" d="M687.7,335.5a31.583,31.583,0,0,0,.06,4.912,20.075,20.075,0,0,0,.986,4.727,15.755,15.755,0,0,0,.984,2.2l1.139,2.192,2.245,4.411a41.679,41.679,0,0,1-2.8-4.1,26.06,26.06,0,0,1-2.337-4.429,16.284,16.284,0,0,1-.851-4.961A17.769,17.769,0,0,1,687.7,335.5Z"/>
      <path id="Trazado_101794" data-name="Trazado 101794" d="M683.81,335.5a17.562,17.562,0,0,0,.045,2.578,20.851,20.851,0,0,0,.333,2.537,25.578,25.578,0,0,0,1.429,4.879c.641,1.565,1.4,3.138,2.075,4.716l1.059,2.359c.34.794.708,1.573,1.074,2.359a37.823,37.823,0,0,1-2.7-4.443c-.817-1.535-1.581-3.064-2.267-4.687a19.273,19.273,0,0,1-1.291-5.091A14.908,14.908,0,0,1,683.81,335.5Z"/>
    </g>
    <g id="Grupo_53908" data-name="Grupo 53908" transform="translate(284 3989.217)">
      <g id="Grupo_53907" data-name="Grupo 53907">
        <path id="Trazado_101795" data-name="Trazado 101795" d="M285.663,226.854l2.4,4.743c3.3,5.9,6.124,12.13,9.985,17.635,12.447,17.746,25.291,35.212,37.922,52.829a7.394,7.394,0,0,1,1.621,4.007c-.179,7.994,2.621,15.227,5.879,22.2,2.883,6.172,5.049,11.993,1,18.437a3.1,3.1,0,0,0,.283,2.959c.5.509,1.949.206,2.95.06a14.281,14.281,0,0,0,2.687-1.1l-2.394,2.283a4.582,4.582,0,0,0,3.563.123c2.225-.924,4.271-2.39,6.559-3.035,5.888-1.66,6.268-2,6.544-7.963.123-2.652.483-5.293.736-7.939l.906.075-.958,11.117c1.669-2.675,2.093-5.626,3.224-8.276,2.01-4.712,1.344-8.8-1.551-12.9-9.942-14.075-15.886-30.091-22.168-45.949-8.676-21.9-17.02-43.951-28.745-64.506a8.125,8.125,0,0,1-.681-5.76c3.3-10.8,2.428-21.7,1.467-32.665-.627-7.154-1.132-14.331-1.328-21.508-.229-8.39,4.138-14.929,9.06-21.139a41.409,41.409,0,0,1-3.769,7.977A26.3,26.3,0,0,0,316.8,155.63q.834,9.523,1.572,19.055c.772,10.123,1.978,20.239-1.292,30.242a8.43,8.43,0,0,0,.523,6.157c9.9,16.907,17.024,35.059,24.313,53.144,1.634,4.054,3.223,8.125,4.833,12.189a11.372,11.372,0,0,0,1.667-4.922c1.376-11.163,2.987-22.305,3.994-33.5,1.066-11.849,2.318-23.772,1.98-35.62-.19-6.644.047-12.846,2.04-19.122,2.18-6.866,2.043-13.8.582-20.881a27.234,27.234,0,0,1-.125-10.748c1.641-7.911.49-14.832-5.4-20.584-10.318-10.078-18.2-22.6-30.916-30.308a7.152,7.152,0,0,1-3.258-9.147A62.441,62.441,0,0,0,319.9,81.037c.609-3.625,2.376-5.241,6.077-4.875a74.924,74.924,0,0,0,8.521.455c5.407-.085,6.133-1.74,4.592-6.807-.855-2.811-1.262-6.665.04-8.967,1.263-2.233,1.184-3.272.292-5.27-.369-.827.688-3.324,1.2-3.355,5.776-.348,3.453-3.292,2.029-5.915-.775-1.426-1.68-2.786-2.589-4.134-1.639-2.43-1.676-4.951-1.8-7.9-.233-5.692-1.1-11.817-3.64-16.766-1.31-2.549-6.775-2.99-10.39-4.309a12.276,12.276,0,0,0-2.414-.309c-3.046-.441-4.182.508-4.293,3.922a60.388,60.388,0,0,1-2.169,14.316c-1.074,3.81-3.355,7.279-5.426,11.574a13.148,13.148,0,0,1-3.314-1.437c-2.081-1.494-3.721-3.731-5.951-4.848-1.847-.924-4.648-1.474-6.324-.689-1.2.56-1.975,3.761-1.611,5.506.585,2.8,2.27,5.37,3.312,7.65-.664,1.972-1.614,3.761-1.83,5.635-.578,5.018-2.9,8.025-8.2,8.248-.478.02-.94.4-.609.25.194,5.689,1.434,11.127.293,16.009-1.6,6.865-4.03,13.916-7.781,19.823-8.055,12.682-11.623,26.278-12.2,41.093-.672,17.272,3.634,33.51,8.863,49.691,2.44,7.55,4.16,15.333,6.207,23.01l-.064-.192,2.941,7.513a31.859,31.859,0,0,0-.411-8.066c-2.036-10.357-4.461-20.644-6.27-31.039-1.7-9.792-.541-20.131-5.782-29.233-.147-.255.079-.724.215-1.69,2.786,4.927,5.145,9.244,5.432,14.686.37,7.011,1.468,14,2.49,20.956C281.365,199.348,283.547,213.1,285.663,226.854Zm30.969,42.771-.9.8-14.315-20.158.819-.572ZM300.7,100.421c-9.238-3.461-16.4.851-23.24,6.392C283.873,99.651,291.244,96.043,300.7,100.421Zm33.222,49.424c4.521,3.669,9.68,3.228,16.054,1.718C343.479,155.162,338.336,154.464,333.92,149.845Zm5.609,80.526c2.675,5.231,3.544,9.648,1.419,14.377C340.5,240.194,340.06,235.749,339.529,230.371Z" fill="#fff"/>
        <path id="Trazado_101796" data-name="Trazado 101796" d="M280.793,212.639c-2.046-7.677-3.767-15.46-6.207-23.01-5.229-16.181-9.535-32.419-8.863-49.691.577-14.814,4.145-28.411,12.2-41.093,3.752-5.906,6.178-12.958,7.781-19.823,1.14-4.882-.1-10.32-.293-16.009-.332.15.131-.23.609-.25,5.3-.222,7.621-3.229,8.2-8.248.216-1.874,1.166-3.663,1.83-5.635-1.043-2.28-2.728-4.85-3.312-7.65-.364-1.745.415-4.947,1.611-5.506,1.677-.784,4.477-.235,6.324.689,2.23,1.116,3.87,3.354,5.951,4.848a13.147,13.147,0,0,0,3.314,1.438c2.071-4.294,4.351-7.764,5.426-11.574a60.391,60.391,0,0,0,2.169-14.316c.111-3.414,1.247-4.363,4.293-3.922a12.278,12.278,0,0,1,2.414.309c3.615,1.319,9.081,1.759,10.39,4.309,2.542,4.949,3.408,11.074,3.64,16.766.121,2.948.157,5.469,1.8,7.9.909,1.347,1.814,2.708,2.589,4.134,1.424,2.623,3.748,5.567-2.029,5.915-.512.031-1.569,2.527-1.2,3.355.892,2,.971,3.037-.292,5.27-1.3,2.3-.9,6.156-.04,8.967,1.54,5.067.814,6.722-4.592,6.807a74.923,74.923,0,0,1-8.521-.455c-3.7-.366-5.468,1.25-6.077,4.875a62.446,62.446,0,0,1-2.592,10.544,7.152,7.152,0,0,0,3.258,9.147c12.713,7.706,20.6,20.23,30.916,30.308,5.888,5.752,7.039,12.673,5.4,20.584a27.233,27.233,0,0,0,.125,10.748c1.461,7.077,1.6,14.015-.582,20.881-1.992,6.276-2.229,12.478-2.04,19.122.338,11.848-.914,23.771-1.98,35.62-1.007,11.2-2.617,22.34-3.994,33.5a11.372,11.372,0,0,1-1.667,4.922c-1.61-4.064-3.2-8.135-4.833-12.189-7.289-18.085-14.417-36.237-24.313-53.144a8.43,8.43,0,0,1-.523-6.157c3.27-10,2.064-20.118,1.292-30.242q-.727-9.532-1.572-19.055a26.3,26.3,0,0,1,4.051-17.063,41.4,41.4,0,0,0,3.769-7.977c-4.922,6.209-9.289,12.748-9.06,21.139.2,7.177.7,14.354,1.328,21.508.961,10.963,1.833,21.866-1.467,32.665a8.125,8.125,0,0,0,.681,5.76c11.726,20.555,20.069,42.606,28.745,64.506,6.283,15.858,12.227,31.874,22.168,45.949,2.895,4.1,3.561,8.183,1.551,12.9-1.13,2.65-1.555,5.6-3.224,8.276l.958-11.117-.906-.075c-.253,2.646-.613,5.287-.736,7.939-.275,5.958-.655,6.3-6.544,7.963-2.288.645-4.333,2.11-6.559,3.035a4.582,4.582,0,0,1-3.563-.123l2.394-2.283a14.288,14.288,0,0,1-2.687,1.1c-1,.146-2.446.449-2.95-.06a3.1,3.1,0,0,1-.283-2.959c4.05-6.444,1.884-12.265-1-18.437-3.258-6.975-6.057-14.208-5.879-22.2a7.394,7.394,0,0,0-1.621-4.007c-12.631-17.617-25.475-35.084-37.922-52.829-3.861-5.5-6.686-11.736-9.985-17.635,3.555,7.256,6.326,15.044,10.821,21.662,11.109,16.355,23.07,32.13,34.512,48.263,1.466,2.066,1.971,4.849,2.767,7.349,2.536,7.967,4.726,16.058,7.6,23.9,1.516,4.136,1.7,7.774-.2,11.706-2.293,4.73-1.9,5.681,3.4,8.564-3.533,8.638-7.037,17.385-10.689,26.07-2.043,4.858-4.414,9.58-6.439,14.445-.372.894.474,2.228.292,3.279-.678,3.931-.921,8.112-2.522,11.659-1.628,3.6-3.93,6.7-4.323,10.967-.506,5.492-3.357,9.94-6.809,14.48-2.572,3.383-2.53,8.973-3.065,13.647-1.835,16-2.648,32.162-5.293,48.021-2.858,17.134-6.049,34.124-5.332,51.6.319,7.776.753,8.64,7.933,11.477q21.3,8.419,42.609,16.83c1.24.489,2.493.945,3.74,1.417l.448-1.074c-3.123-1.294-6.225-2.64-9.371-3.874q-15.67-6.143-31.364-12.224c-.252-.1-.479-.261-.732-.355-12.975-4.823-11.865-4.82-12.086-18.809-.284-17.9,4.019-35.172,6.845-52.671,1.853-11.473,2.458-23.162,3.305-34.777.61-8.367,1.851-16.4,6.935-23.43a17.842,17.842,0,0,0,2.554-5.923c1.525-5.889,2.795-11.827,6.4-16.946a6.327,6.327,0,0,0,1.172-3.833c-.919-10.606,4.956-19.211,8.3-28.535,2.328-6.489,5.058-12.842,7.836-19.155a6.5,6.5,0,0,1,3.245-2.642c1.186-.54,2.657-.427,3.986-.686,6.958-1.357,13.113-3.473,13.818-12.156.236-2.9,1.863-5.683,2.2-8.6a13.094,13.094,0,0,0-.886-6.961c-6.237-12.6-12.944-24.97-19.047-37.632a19.656,19.656,0,0,1-1.5-10.177c2.059-18.86,4.62-37.665,6.731-56.52a56.256,56.256,0,0,0,.046-15.393,40.749,40.749,0,0,1,1.439-20.365c2.569-7.628,2.4-15.354.47-23.228a21.866,21.866,0,0,1,.331-9.993c1.831-7.51.258-14.02-4.782-19.643-7.5-8.371-15.1-16.669-22.874-24.783-2.109-2.2-5.013-3.645-7.572-5.408-5.143-3.543-5.67-5.868-3.417-11.546a31.026,31.026,0,0,0,1.7-8.283c.293-2.908,1.582-4.061,4.466-3.9,3.381.184,6.778.255,10.162.166,5.069-.134,6.823-3.009,4.565-7.495-.908-1.8-.776-3.015-.035-5.072,1.186-3.292.8-7.15,1.085-10.769l-1.152-.367c.85-.266,1.691-.572,2.554-.789,2.485-.624,3.428-2.022,2.3-4.477a20.312,20.312,0,0,0-1.293-2.528c-2.855-4.448-5.449-8.731-4.526-14.616.492-3.134-1.1-6.6-1.782-9.912-.66-3.227-1.8-6.277.149-9.676,1.38-2.4.321-4.834-2.624-5.739-13.94-4.282-28.119-7.9-42.745-5.215-14.25,2.619-25.762,18.362-21.328,33.391,2.853,9.668,7.145,18.95,11.268,28.192,2.572,5.764,4.527,11.509,2.278,17.587-2.564,6.931-4.993,14.117-8.887,20.306C267.75,112.944,265,126.543,264.561,141c-.451,14.984,2.551,29.337,7.167,43.461C274.794,193.839,277.775,203.245,280.793,212.639Z"/>
        <path id="Trazado_101797" data-name="Trazado 101797" d="M344.309,584.179c-2.693.009-5.386-.291-8.081-.411-7.442-.331-14.883-.783-22.329-.9-7.7-.12-15.41.2-23.114.122a38.227,38.227,0,0,1-8.819-1.018c-4.648-1.16-6.675-5.326-5.663-10.024,1.984-9.217,5.235-18.18,4.517-27.91-.917-12.427-4.762-24.12-8.444-35.833-5.846-18.6-5.944-37.284-1.764-56.121,1.249-5.63,2.953-11.159,4.448-16.735l-1.315-.322c-1.953,8.379-4.229,16.7-5.78,25.151a89.638,89.638,0,0,0-.019,33.513c1.735,8.861,4.508,17.514,6.675,26.295,1.681,6.813,3.37,13.638,4.638,20.534,1.662,9.04-.594,17.75-2.992,26.392-3.357,12.1.556,17.189,12.992,17.337,12.984.154,25.964.634,38.948.814,3.764.052,7.538-.647,11.3-.618,3.259.025,6.538,1,9.765.815a56.924,56.924,0,0,0,11.773-2.062c1.021-.282,1.838-2.408,2.1-3.81.1-.505-2.96-2.006-4.945-3.234a7.6,7.6,0,0,0-1.294-.537.915.915,0,0,0,.137,1.317c1.394,1.444,4.587,3.623,4.763,4.2a14,14,0,0,1-3.665.9C356.1,581.983,345.025,584.176,344.309,584.179Z"/>
        <path id="Trazado_101798" data-name="Trazado 101798" d="M285.663,226.854c-2.115-13.758-4.3-27.507-6.318-41.279-1.021-6.961-2.119-13.946-2.49-20.956-.287-5.443-2.646-9.759-5.432-14.686-.136.966-.362,1.435-.215,1.69,5.241,9.1,4.078,19.441,5.782,29.233,1.809,10.4,4.234,20.682,6.27,31.039a31.854,31.854,0,0,1,.411,8.066l-2.941-7.513c.714,3.562,1.51,7.111,2.126,10.69,1.616,9.379-.124,18.22-4.218,26.743-6.463,13.452-10.5,27.452-9.246,42.611.788,9.544,4.049,17.712,12.109,23.425l.384-.16c-.835-.827-1.183-1.244-1.694-1.743-9.124-8.918-10.609-20.046-9.686-32.132.892-11.68,5.033-22.3,9.8-32.79,2.7-5.954,4.823-12.039,3.546-18.805a11.245,11.245,0,0,1,.645-5.761Z"/>
        <path id="Trazado_101799" data-name="Trazado 101799" d="M281.5,315.915c2.542,2.319,2.671,5.2,2.45,8.38a437.38,437.38,0,0,0,.307,65.839c.41,5.06.06,10.182.413,15.279,0-9.136-.039-18.273.008-27.409.094-18.019-.14-35.611.1-53.628a18.529,18.529,0,0,0-.348-5.739c-1.3-1.8-1.051-1.891-2.548-2.881Z"/>
        <path id="Trazado_101800" data-name="Trazado 101800" d="M317.3,579.005h-22.03q.01.33.02.661h22.022Q317.305,579.335,317.3,579.005Z"/>
        <path id="Trazado_101801" data-name="Trazado 101801" d="M284.517,543.662q-1.226,6.95-2.45,13.9c-.656,3.768.525,5.061,5.109,5.159-4-.833-3.809-3.468-3.385-6.474.58-4.117.826-8.28,1.216-12.424Z"/>
        <path id="Trazado_101802" data-name="Trazado 101802" d="M287.194,362.3v21.973l.459-.023V362.271Z"/>
        <path id="Trazado_101803" data-name="Trazado 101803" d="M316.632,269.625l-14.395-19.93-.819.572,14.315,20.158Z"/>
        <path id="Trazado_101804" data-name="Trazado 101804" d="M300.7,100.421c-9.454-4.378-16.825-.77-23.24,6.392C284.3,101.272,291.46,96.959,300.7,100.421Z"/>
        <path id="Trazado_101805" data-name="Trazado 101805" d="M333.92,149.845c4.416,4.619,9.558,5.318,16.054,1.718C343.6,153.072,338.442,153.514,333.92,149.845Z"/>
        <path id="Trazado_101806" data-name="Trazado 101806" d="M339.529,230.371l1.419,14.377C343.072,240.019,342.2,235.6,339.529,230.371Z"/>
      </g>
      <path id="Trazado_101807" data-name="Trazado 101807" d="M347.259,351.265l-.316-.75c6.008-2.537,5.284-7.721,5.276-7.773l-.008-.05,0-.049,1.133-12.173.811.075-1.129,12.13C353.1,343.284,353.495,348.632,347.259,351.265Z"/>
      <path id="Trazado_101808" data-name="Trazado 101808" d="M355.037,351.267l-.3-.755c3.983-1.594,5.258-9.1,5.271-9.173L360,328.665h.814v12.74C360.755,341.8,359.447,349.5,355.037,351.267Z"/>
      <path id="Trazado_101809" data-name="Trazado 101809" d="M364.053,348.032l-.78-.229,2.106-7.164a57.061,57.061,0,0,1,.715-8.649,14.556,14.556,0,0,0-.685-7.136l.755-.3a15.113,15.113,0,0,1,.73,7.586,56.7,56.7,0,0,0-.7,8.561l-.017.115Z"/>
      <path id="Trazado_101810" data-name="Trazado 101810" d="M274.44,436.816l-.762-.289c1.5-3.958,9.859-31.021,10.307-32.474v-21.03h.814l-.018,21.211C284.694,404.519,275.984,432.746,274.44,436.816Z"/>
      <path id="Trazado_101811" data-name="Trazado 101811" d="M336.06,204.241a7.19,7.19,0,0,0,2.847-1.8,9.388,9.388,0,0,0,1.936-2.721,14.387,14.387,0,0,0,1.094-3.167l.418-1.685c.162-.561.345-1.117.535-1.668a31.806,31.806,0,0,1,3.184-6.179c.644-.961,1.311-1.9,2.014-2.818.729-.895,1.457-1.789,2.269-2.607q-2.018,2.8-3.75,5.754a41.922,41.922,0,0,0-2.954,6.132c-.19.531-.373,1.066-.535,1.6l-.435,1.652a12.993,12.993,0,0,1-1.29,3.275A8.088,8.088,0,0,1,336.06,204.241Z"/>
      <path id="Trazado_101812" data-name="Trazado 101812" d="M342.093,143.3a5.052,5.052,0,0,0,2.227,2,4.07,4.07,0,0,0,1.423.262c.253.016.512-.022.781-.019.266-.026.533-.065.825-.067a5.738,5.738,0,0,1-.722.453,4.471,4.471,0,0,1-.824.266,3.183,3.183,0,0,1-1.782-.137,2.991,2.991,0,0,1-1.4-1.131A3.024,3.024,0,0,1,342.093,143.3Z"/>
      <path id="Trazado_101813" data-name="Trazado 101813" d="M289.488,223.032a7.692,7.692,0,0,0,2.387,5.1,13.978,13.978,0,0,0,2.255,1.8l1.264.759c.437.231.879.462,1.313.729-.494-.1-.982-.23-1.474-.363-.474-.174-.95-.361-1.415-.572a9.593,9.593,0,0,1-2.52-1.779,6.982,6.982,0,0,1-1.672-2.626A5.033,5.033,0,0,1,289.488,223.032Z"/>
      <path id="Trazado_101814" data-name="Trazado 101814" d="M323.107,141.957a12.326,12.326,0,0,0,3.592,2.892,6.414,6.414,0,0,0,2.135.646,10.616,10.616,0,0,0,2.341,0,5.068,5.068,0,0,1-2.374.634,5.189,5.189,0,0,1-2.458-.549,6.551,6.551,0,0,1-1.98-1.523A6.143,6.143,0,0,1,323.107,141.957Z"/>
      <path id="Trazado_101815" data-name="Trazado 101815" d="M314.391,86.817c-4.8-3.942-13.137-22.3-13.489-23.078l.741-.335c.086.189,8.615,18.961,13.265,22.785Z"/>
      <path id="Trazado_101816" data-name="Trazado 101816" d="M305.342,54.123c.286,1.487.521,2.98.783,4.47l.35,2.24a3.747,3.747,0,0,0,.883,1.883,35.207,35.207,0,0,0,3.452,2.812q1.816,1.327,3.735,2.5a61.621,61.621,0,0,0,8,4.116l2.092.841,2.13.748,2.155.688q1.092.292,2.184.611a43.324,43.324,0,0,1-8.792-2.306,48.333,48.333,0,0,1-8.193-4.005,39.027,39.027,0,0,1-7.239-5.611,4.314,4.314,0,0,1-.912-2.215l-.236-2.256C305.6,57.138,305.447,55.634,305.342,54.123Z"/>
      <path id="Trazado_101817" data-name="Trazado 101817" d="M329.375,62.96c-.743-2.19,1.516-4.593,1.612-4.694l.59.561c-.021.021-2.016,2.148-1.431,3.87Z"/>
      <path id="Trazado_101818" data-name="Trazado 101818" d="M335.7,52.051a3.821,3.821,0,0,1,2.562-4.833l.2.789c-.109.029-2.652.738-1.97,3.872Z"/>
      <ellipse id="Elipse_4003" data-name="Elipse 4003" cx="1.716" cy="0.513" rx="1.716" ry="0.513" transform="translate(338.36 50.938)"/>
      <path id="Trazado_101819" data-name="Trazado 101819" d="M338.757,65.4a1.341,1.341,0,0,1-.7-.168,3.421,3.421,0,0,1-.61-.61,10.953,10.953,0,0,0-3.671-2.909.2.2,0,0,1-.01-.364A27.853,27.853,0,0,0,337.544,59a2.975,2.975,0,0,1,3.143-1.008.9.9,0,0,1,.633.6,3.369,3.369,0,0,1-.583,2.543,1.085,1.085,0,0,1-.817.343c-.056.006-.112.013-.165.021-.111.018-.239.033-.383.049a1.948,1.948,0,0,1,1,.408,1.9,1.9,0,0,1,.391,1.431,1.829,1.829,0,0,1-2,2.021Zm-3.925-3.587a11.9,11.9,0,0,1,2.923,2.54,3.838,3.838,0,0,0,.517.533,1.8,1.8,0,0,0,1.649-.276,2.094,2.094,0,0,0,.43-1.257,1.542,1.542,0,0,0-.281-1.128C339.6,61.728,336.757,61.7,334.832,61.812Zm4.983-3.541a2.752,2.752,0,0,0-1.984,1.013,21.786,21.786,0,0,1-3.352,2.141c.485-.039,1.188-.072,1.93-.108,1.227-.059,2.616-.126,3.282-.229.059-.009.119-.016.181-.023.227-.026.441-.05.534-.178a3.059,3.059,0,0,0,.529-2.168.488.488,0,0,0-.354-.338A2.943,2.943,0,0,0,339.815,58.271Z"/>
      <path id="Trazado_101820" data-name="Trazado 101820" d="M326.062,34.483s1.911-4.087,5.574-2.389,4.332,2.07,4.332,2.07,1.3.372,1.563-.212.755-1.221-.367-1.8-4.307-1.858-4.307-1.858-3.663-1.274-5.733,1.274l-1.752,1.964s-.425.637,0,.956A.479.479,0,0,0,326.062,34.483Z"/>
      <path id="Trazado_101821" data-name="Trazado 101821" d="M302.189,47.912a1.011,1.011,0,0,1-.46-.118,25.411,25.411,0,0,1-3.032-2.328c-.006,0-2.759-1.861-1.593-4.638a2.723,2.723,0,0,1,1.6-1.683,2.621,2.621,0,0,1,1.99.26.2.2,0,0,1-.211.348,2.242,2.242,0,0,0-1.656-.219,2.339,2.339,0,0,0-1.342,1.451c-1.035,2.464,1.362,4.09,1.464,4.158a26.4,26.4,0,0,0,2.97,2.288.46.46,0,0,0,.664-.162.567.567,0,0,0-.244-.776,2.173,2.173,0,0,1-1.021-1.655c-.061-.238-.132-.517-.234-.847a2.151,2.151,0,0,1,1.271-2.419.207.207,0,0,1,.273.091.2.2,0,0,1-.091.273c-.059.029-1.432.738-1.064,1.936.1.337.176.622.238.866.189.743.268,1.051.843,1.41a.97.97,0,0,1,.382,1.322A.858.858,0,0,1,302.189,47.912Z"/>
      <path id="Trazado_101822" data-name="Trazado 101822" d="M298.512,49.549a.2.2,0,0,1-.166-.086l-.9-1.273c-.162-.18-4.288-4.88-3.806-9.429a2.964,2.964,0,0,1,1.408-2.516c1.678-.88,4.148.443,4.253.5a.2.2,0,0,1-.194.358c-.023-.012-2.384-1.277-3.871-.5a2.589,2.589,0,0,0-1.191,2.2c-.463,4.372,3.677,9.086,3.718,9.133l.917,1.291a.2.2,0,0,1-.166.321Z"/>
      <path id="Trazado_101823" data-name="Trazado 101823" d="M335.043,41.236A33.115,33.115,0,0,1,328,39.809a.2.2,0,0,1-.02-.382l1.982-.85a8.368,8.368,0,0,1,3.888-1.36,3.418,3.418,0,0,0,2.673-1.177.208.208,0,0,1,.281-.063.2.2,0,0,1,.064.28,3.723,3.723,0,0,1-2.99,1.366,8.2,8.2,0,0,0-3.717,1.307l-1.5.648a28.629,28.629,0,0,0,6.545,1.248h.006a.2.2,0,0,1,.006.407Z"/>
      <path id="Trazado_101824" data-name="Trazado 101824" d="M334.038,41.227c-.572,0-.872-1.009-.872-2.005s.3-2,.872-2,.873,1.009.873,2S334.612,41.227,334.038,41.227Zm0-3.6c-.139,0-.465.544-.465,1.6s.326,1.6.465,1.6c.164,0,.466-.607.466-1.6S334.2,37.624,334.038,37.624Z"/>
      <path id="Trazado_101825" data-name="Trazado 101825" d="M327.424,38.4a.2.2,0,0,1-.129-.362c.143-.115,3.524-2.819,6.818-1.517a.2.2,0,0,1-.149.378c-3.074-1.213-6.378,1.428-6.41,1.455A.205.205,0,0,1,327.424,38.4Z"/>
      <path id="Trazado_101826" data-name="Trazado 101826" d="M330.539,42.437a.2.2,0,0,1-.072-.393,17.6,17.6,0,0,1,3.257-.97.2.2,0,0,1,0,.407,17.423,17.423,0,0,0-3.113.943A.2.2,0,0,1,330.539,42.437Z"/>
    </g>
    <path id="Trazado_101827" data-name="Trazado 101827" d="M265.655,225.332a72.565,72.565,0,0,0,24.593,21.631,68.858,68.858,0,0,0,15.112,5.782,71.151,71.151,0,0,0,16.028,2.059c2.7.147,5.415-.082,8.124-.185,2.7-.31,5.419-.48,8.1-1a129.485,129.485,0,0,0,16.019-3.7,235.441,235.441,0,0,0,30.972-12.361,129.311,129.311,0,0,1-29.72,16.056l-4.028,1.408-2.023.687c-.677.22-1.373.385-2.059.58l-4.136,1.117c-1.384.354-2.8.582-4.2.879-2.8.64-5.671.866-8.518,1.255-2.876.142-5.75.4-8.642.26a67.881,67.881,0,0,1-17.14-2.486,62.243,62.243,0,0,1-15.829-6.984C278.564,244.214,270.38,235.575,265.655,225.332Z" transform="translate(284 3989.217)" fill="#025157"/>
    <path id="Trazado_101828" data-name="Trazado 101828" d="M359.562,227.225a36.05,36.05,0,0,0,3.529,2.213c.589.341,1.2.648,1.794.959l1.832.834a31.333,31.333,0,0,0,7.487,2.237,28.5,28.5,0,0,0,7.6.342,29.77,29.77,0,0,0,3.778-.5c1.259-.21,2.482-.643,3.742-.906l.313-.065a2.42,2.42,0,0,1,2.4,3.853l-7.3,9.389-7.44,9.492a38.454,38.454,0,0,1,1.895-5.846c.75-1.907,1.64-3.743,2.568-5.557s1.944-3.574,3-5.306,2.162-3.42,3.36-5.106l2.718,3.788c-.71.216-1.422.427-2.139.623a18.068,18.068,0,0,1-2.166.54,28.887,28.887,0,0,1-4.463.518,25.706,25.706,0,0,1-8.891-1.133,24.891,24.891,0,0,1-7.856-4.011A21.574,21.574,0,0,1,359.562,227.225Z" transform="translate(284 3989.217)" fill="#025157"/>
    <path id="Trazado_101829" data-name="Trazado 101829" d="M640.748,215.021a72.569,72.569,0,0,0,24.593,21.631,68.859,68.859,0,0,0,15.112,5.782,71.156,71.156,0,0,0,16.028,2.059c2.7.147,5.415-.082,8.124-.185,2.7-.31,5.419-.48,8.1-1a129.488,129.488,0,0,0,16.019-3.7A235.454,235.454,0,0,0,759.7,227.248a129.31,129.31,0,0,1-29.72,16.056l-4.028,1.408-2.023.687c-.677.22-1.373.385-2.059.58l-4.136,1.117c-1.385.354-2.8.582-4.2.879-2.8.64-5.671.866-8.518,1.255-2.876.143-5.75.4-8.642.261A67.878,67.878,0,0,1,679.23,247,62.241,62.241,0,0,1,663.4,240.02C653.658,233.9,645.474,225.264,640.748,215.021Z" transform="translate(284 3989.217)" fill="#ec4011"/>
    <path id="Trazado_101830" data-name="Trazado 101830" d="M734.656,216.915a36.014,36.014,0,0,0,3.529,2.213c.589.341,1.2.648,1.794.959l1.832.834a31.333,31.333,0,0,0,7.487,2.237,28.5,28.5,0,0,0,7.6.342,29.77,29.77,0,0,0,3.778-.5c1.259-.21,2.482-.643,3.742-.906l.313-.065a2.42,2.42,0,0,1,2.4,3.853l-7.3,9.389-7.439,9.492a38.468,38.468,0,0,1,1.894-5.846c.75-1.907,1.64-3.743,2.568-5.557s1.944-3.574,3-5.306,2.162-3.42,3.36-5.106l2.718,3.788c-.709.216-1.422.427-2.139.623a18.069,18.069,0,0,1-2.166.54,28.887,28.887,0,0,1-4.463.518,25.706,25.706,0,0,1-8.891-1.133,24.891,24.891,0,0,1-7.856-4.011A21.574,21.574,0,0,1,734.656,216.915Z" transform="translate(284 3989.217)" fill="#ec4011"/>
    <path id="Trazado_774843" data-name="Trazado 774843" d="M12.822-9.385a4.554,4.554,0,0,1-.728,2.549A4.741,4.741,0,0,1,10.02-5.112a7.533,7.533,0,0,1-3.135.61H5.6V0H1.377V-14H7.119a6.8,6.8,0,0,1,4.331,1.123A4.256,4.256,0,0,1,12.822-9.385Zm-4.463.146a1.641,1.641,0,0,0-.5-1.3A2.152,2.152,0,0,0,6.4-10.977H5.6V-7.52h.947Q8.359-7.52,8.359-9.238Zm13.271,2.8a3.233,3.233,0,0,0-.635-.2,3.212,3.212,0,0,0-.664-.088q-2.061,0-2.061,2.383V0h-4.16V-10h4.16v1.758h.039a3.123,3.123,0,0,1,1.084-1.44,2.785,2.785,0,0,1,1.641-.493,1.409,1.409,0,0,1,.6.117Zm4.785,2.617a1.405,1.405,0,0,0,.742,1.011,3.347,3.347,0,0,0,1.68.366A6.917,6.917,0,0,0,31.592-3V-.361A9.9,9.9,0,0,1,27.92.244a5.794,5.794,0,0,1-4.072-1.338,4.753,4.753,0,0,1-1.455-3.682,6.074,6.074,0,0,1,.64-2.842,4.6,4.6,0,0,1,1.895-1.929,5.6,5.6,0,0,1,2.769-.7,5.447,5.447,0,0,1,2.656.605,4.033,4.033,0,0,1,1.675,1.7A5.452,5.452,0,0,1,32.6-5.381v1.563ZM28.916-6q0-1.729-1.24-1.729a1.049,1.049,0,0,0-.869.474A2.364,2.364,0,0,0,26.4-6Zm11.6,6V-5.459a2.427,2.427,0,0,0-.278-1.333,1.017,1.017,0,0,0-.9-.405.978.978,0,0,0-.84.42,1.792,1.792,0,0,0-.3,1.074V0h-4.16V-10h4.16v1.563h.039A3.53,3.53,0,0,1,39.57-9.771a3.655,3.655,0,0,1,1.826-.474q3.281,0,3.281,4.141V0ZM53.232,0V-1.162h-.039a3.433,3.433,0,0,1-1.3,1.03,3.7,3.7,0,0,1-1.582.376,4.07,4.07,0,0,1-2.256-.63A3.825,3.825,0,0,1,46.6-2.148a6.784,6.784,0,0,1-.483-2.676,6.583,6.583,0,0,1,.576-2.822,4.51,4.51,0,0,1,1.621-1.914,4.188,4.188,0,0,1,2.344-.684,3.547,3.547,0,0,1,1.138.176,3.078,3.078,0,0,1,.908.474A1.414,1.414,0,0,1,53.193-9h.039v-5.8h4.16V0Zm.088-5.3a2.194,2.194,0,0,0-.4-1.4,1.294,1.294,0,0,0-1.069-.5,1.283,1.283,0,0,0-1.1.62,2.881,2.881,0,0,0-.425,1.655Q50.332-2.8,51.8-2.8a1.3,1.3,0,0,0,1.108-.571,2.812,2.812,0,0,0,.415-1.665ZM64.941,0V-1.523H64.9A3.272,3.272,0,0,1,61.855.244,2.917,2.917,0,0,1,59.639-.6a3.12,3.12,0,0,1-.8-2.246q0-2.949,3.623-3.418l2.48-.322a.946.946,0,0,0-.439-.8A2,2,0,0,0,63.32-7.7a7.783,7.783,0,0,0-3.545.957V-9.443a9.484,9.484,0,0,1,2.031-.576,11.822,11.822,0,0,1,2.09-.225,5.247,5.247,0,0,1,3.7,1.089A4.853,4.853,0,0,1,68.74-5.518V0ZM62.48-3.4a.922.922,0,0,0,.259.674.987.987,0,0,0,.737.264,1.311,1.311,0,0,0,1.06-.488,1.892,1.892,0,0,0,.405-1.25V-4.58l-1.406.2Q62.48-4.209,62.48-3.4Zm16.26.078A3.054,3.054,0,0,1,77.446-.688a6.082,6.082,0,0,1-3.608.933A12.546,12.546,0,0,1,72.173.107a10.286,10.286,0,0,1-1.616-.332v-2.92a7.958,7.958,0,0,0,3.086.82q1.221,0,1.221-.635a.5.5,0,0,0-.283-.435A10.01,10.01,0,0,0,73.1-3.965a4.192,4.192,0,0,1-1.934-1.113,2.647,2.647,0,0,1-.605-1.807,2.883,2.883,0,0,1,1.235-2.456,5.8,5.8,0,0,1,3.472-.9,11.035,11.035,0,0,1,2.773.381v2.8A8.387,8.387,0,0,0,76.689-7.5a5.443,5.443,0,0,0-1.23-.176,1.339,1.339,0,0,0-.654.137.421.421,0,0,0-.244.381.531.531,0,0,0,.264.459,4.664,4.664,0,0,0,1.055.42,4.894,4.894,0,0,1,2.2,1.152A2.525,2.525,0,0,1,78.74-3.32Zm15.215,0A3.054,3.054,0,0,1,92.661-.688a6.082,6.082,0,0,1-3.608.933A12.546,12.546,0,0,1,87.388.107a10.286,10.286,0,0,1-1.616-.332v-2.92a7.958,7.958,0,0,0,3.086.82q1.221,0,1.221-.635a.5.5,0,0,0-.283-.435,10.01,10.01,0,0,0-1.484-.571,4.192,4.192,0,0,1-1.934-1.113,2.647,2.647,0,0,1-.605-1.807,2.883,2.883,0,0,1,1.235-2.456,5.8,5.8,0,0,1,3.472-.9,11.035,11.035,0,0,1,2.773.381v2.8A8.387,8.387,0,0,0,91.9-7.5a5.443,5.443,0,0,0-1.23-.176,1.339,1.339,0,0,0-.654.137.421.421,0,0,0-.244.381.531.531,0,0,0,.264.459,4.664,4.664,0,0,0,1.055.42,4.894,4.894,0,0,1,2.2,1.152A2.525,2.525,0,0,1,93.955-3.32Zm7.9,3.32V-1.543h-.039A5.473,5.473,0,0,1,100.884-.5a3.589,3.589,0,0,1-.937.537A3.315,3.315,0,0,1,98.73.244,3.025,3.025,0,0,1,96.23-.82a4.921,4.921,0,0,1-.859-3.145V-10h4.16v5.723q0,1.475,1.1,1.475a1.08,1.08,0,0,0,.913-.4,1.825,1.825,0,0,0,.308-1.133V-10h4.16V0Zm17.432-5.3a7.115,7.115,0,0,1-.557,2.9,4.5,4.5,0,0,1-1.572,1.953,3.96,3.96,0,0,1-2.285.693,3.061,3.061,0,0,1-2.666-1.279h-.039V4.6h-4.16V-10h4.16v1.357h.039A3.524,3.524,0,0,1,113.5-9.819a3.738,3.738,0,0,1,1.8-.425,3.572,3.572,0,0,1,2.964,1.289A5.719,5.719,0,0,1,119.287-5.3Zm-4.219.127A2.607,2.607,0,0,0,114.7-6.66a1.271,1.271,0,0,0-1.128-.537,1.268,1.268,0,0,0-1.074.566,2.6,2.6,0,0,0-.41,1.553v.2a2.847,2.847,0,0,0,.352,1.514A1.16,1.16,0,0,0,113.5-2.8a1.314,1.314,0,0,0,1.162-.62A3.166,3.166,0,0,0,115.068-5.176Zm9.365,1.357a1.405,1.405,0,0,0,.742,1.011,3.347,3.347,0,0,0,1.68.366A6.917,6.917,0,0,0,129.609-3V-.361a9.9,9.9,0,0,1-3.672.605,5.794,5.794,0,0,1-4.072-1.338,4.753,4.753,0,0,1-1.455-3.682,6.074,6.074,0,0,1,.64-2.842,4.6,4.6,0,0,1,1.895-1.929,5.6,5.6,0,0,1,2.769-.7,5.447,5.447,0,0,1,2.656.605,4.033,4.033,0,0,1,1.675,1.7,5.452,5.452,0,0,1,.571,2.559v1.563ZM126.934-6q0-1.729-1.24-1.729a1.049,1.049,0,0,0-.869.474A2.364,2.364,0,0,0,124.414-6Zm12.637-.439a3.233,3.233,0,0,0-.635-.2,3.212,3.212,0,0,0-.664-.088q-2.061,0-2.061,2.383V0h-4.16V-10h4.16v1.758h.039a3.123,3.123,0,0,1,1.084-1.44,2.785,2.785,0,0,1,1.641-.493,1.409,1.409,0,0,1,.6.117Zm5.605-6.26a1.787,1.787,0,0,1-.64,1.426,2.5,2.5,0,0,1-1.685.547,2.441,2.441,0,0,1-1.665-.566,1.791,1.791,0,0,1-.649-1.406,1.734,1.734,0,0,1,.63-1.392,2.524,2.524,0,0,1,1.685-.532,2.548,2.548,0,0,1,1.685.532A1.723,1.723,0,0,1,145.176-12.7ZM140.771,0V-10h4.16V0Zm17.285-5.176A5.207,5.207,0,0,1,156.528-1.2,5.972,5.972,0,0,1,152.256.244a6,6,0,0,1-4.243-1.411,5.051,5.051,0,0,1-1.519-3.892,5.214,5.214,0,0,1,.713-2.764,4.636,4.636,0,0,1,2.031-1.8,7.012,7.012,0,0,1,3.037-.625,6.792,6.792,0,0,1,3.081.654,4.763,4.763,0,0,1,2,1.816A4.946,4.946,0,0,1,158.057-5.176Zm-4.219.02q0-2.041-1.562-2.041t-1.562,2.139q0,2.256,1.582,2.256Q153.838-2.8,153.838-5.156Zm13.291-1.279a3.233,3.233,0,0,0-.635-.2,3.212,3.212,0,0,0-.664-.088q-2.061,0-2.061,2.383V0h-4.16V-10h4.16v1.758h.039a3.123,3.123,0,0,1,1.084-1.44,2.785,2.785,0,0,1,1.641-.493,1.409,1.409,0,0,1,.6.117Zm4.785,2.617a1.405,1.405,0,0,0,.742,1.011,3.347,3.347,0,0,0,1.68.366A6.917,6.917,0,0,0,177.09-3V-.361a9.9,9.9,0,0,1-3.672.605,5.794,5.794,0,0,1-4.072-1.338,4.753,4.753,0,0,1-1.455-3.682,6.074,6.074,0,0,1,.64-2.842,4.6,4.6,0,0,1,1.895-1.929,5.6,5.6,0,0,1,2.769-.7,5.447,5.447,0,0,1,2.656.605,4.033,4.033,0,0,1,1.675,1.7,5.452,5.452,0,0,1,.571,2.559v1.563ZM174.414-6q0-1.729-1.24-1.729a1.049,1.049,0,0,0-.869.474A2.364,2.364,0,0,0,171.895-6ZM187.656-3.32a3.054,3.054,0,0,1-1.294,2.632,6.082,6.082,0,0,1-3.608.933,12.546,12.546,0,0,1-1.665-.137,10.286,10.286,0,0,1-1.616-.332v-2.92a7.958,7.958,0,0,0,3.086.82q1.221,0,1.221-.635a.5.5,0,0,0-.283-.435,10.01,10.01,0,0,0-1.484-.571,4.192,4.192,0,0,1-1.934-1.113,2.647,2.647,0,0,1-.605-1.807,2.883,2.883,0,0,1,1.235-2.456,5.8,5.8,0,0,1,3.472-.9,11.035,11.035,0,0,1,2.773.381v2.8a8.387,8.387,0,0,0-1.348-.439,5.443,5.443,0,0,0-1.23-.176,1.339,1.339,0,0,0-.654.137.421.421,0,0,0-.244.381.531.531,0,0,0,.264.459,4.664,4.664,0,0,0,1.055.42,4.894,4.894,0,0,1,2.2,1.152A2.525,2.525,0,0,1,187.656-3.32Z" transform="translate(315 4057)" fill="#12263f"/>
    <path id="Trazado_774844" data-name="Trazado 774844" d="M8.457-10.7V0H4.219V-10.7H.3V-14H12.422v3.3ZM24.844-5.176A5.207,5.207,0,0,1,23.315-1.2,5.972,5.972,0,0,1,19.043.244,6,6,0,0,1,14.8-1.167a5.051,5.051,0,0,1-1.519-3.892,5.214,5.214,0,0,1,.713-2.764,4.636,4.636,0,0,1,2.031-1.8,7.012,7.012,0,0,1,3.037-.625,6.792,6.792,0,0,1,3.081.654,4.763,4.763,0,0,1,2,1.816A4.946,4.946,0,0,1,24.844-5.176Zm-4.219.02q0-2.041-1.562-2.041T17.5-5.059Q17.5-2.8,19.082-2.8,20.625-2.8,20.625-5.156ZM37.676-5.3a7.115,7.115,0,0,1-.557,2.9A4.5,4.5,0,0,1,35.547-.449a3.96,3.96,0,0,1-2.285.693A3.061,3.061,0,0,1,30.6-1.035h-.039V4.6H26.4V-10h4.16v1.357H30.6a3.524,3.524,0,0,1,1.289-1.177,3.738,3.738,0,0,1,1.8-.425,3.572,3.572,0,0,1,2.964,1.289A5.719,5.719,0,0,1,37.676-5.3Zm-4.219.127a2.607,2.607,0,0,0-.366-1.484A1.271,1.271,0,0,0,31.963-7.2a1.268,1.268,0,0,0-1.074.566,2.6,2.6,0,0,0-.41,1.553v.2a2.847,2.847,0,0,0,.352,1.514,1.16,1.16,0,0,0,1.055.566,1.314,1.314,0,0,0,1.162-.62A3.166,3.166,0,0,0,33.457-5.176Z" transform="translate(1162 4060)" fill="#12263f"/>
    <path id="Trazado_774845" data-name="Trazado 774845" d="M11.8-.381A11.837,11.837,0,0,1,7.783.244,8.168,8.168,0,0,1,3.926-.61,5.85,5.85,0,0,1,1.45-3.042,7.516,7.516,0,0,1,.6-6.68a8.008,8.008,0,0,1,.957-3.945A6.619,6.619,0,0,1,4.258-13.3a8.346,8.346,0,0,1,4.023-.942A13.984,13.984,0,0,1,11.8-13.8v3.9a4.962,4.962,0,0,0-1.4-.547,6.979,6.979,0,0,0-1.641-.2,3.672,3.672,0,0,0-2.71.986,3.606,3.606,0,0,0-.991,2.676A3.543,3.543,0,0,0,6.05-4.331,3.624,3.624,0,0,0,8.7-3.359a6.879,6.879,0,0,0,3.1-.781ZM19.141,0V-1.523H19.1A3.272,3.272,0,0,1,16.055.244,2.917,2.917,0,0,1,13.838-.6a3.12,3.12,0,0,1-.8-2.246q0-2.949,3.623-3.418l2.48-.322a.946.946,0,0,0-.439-.8A2,2,0,0,0,17.52-7.7a7.783,7.783,0,0,0-3.545.957V-9.443a9.484,9.484,0,0,1,2.031-.576,11.822,11.822,0,0,1,2.09-.225,5.247,5.247,0,0,1,3.7,1.089,4.853,4.853,0,0,1,1.147,3.638V0ZM16.68-3.4a.922.922,0,0,0,.259.674.987.987,0,0,0,.737.264,1.311,1.311,0,0,0,1.06-.488,1.892,1.892,0,0,0,.405-1.25V-4.58l-1.406.2Q16.68-4.209,16.68-3.4ZM36.094-5.3A7.318,7.318,0,0,1,35.552-2.4,4.417,4.417,0,0,1,34.014-.444a3.873,3.873,0,0,1-2.256.688A3.561,3.561,0,0,1,30.1-.112a2.981,2.981,0,0,1-1.089-.923h-.039V0h-4.16V-14.8h4.16v6.162h.039a3.425,3.425,0,0,1,1.323-1.172,3.963,3.963,0,0,1,1.841-.43,3.508,3.508,0,0,1,2.905,1.26A5.777,5.777,0,0,1,36.094-5.3Zm-4.219.127a2.482,2.482,0,0,0-.386-1.514A1.308,1.308,0,0,0,30.381-7.2a1.3,1.3,0,0,0-1.06.532A2.148,2.148,0,0,0,28.9-5.283v.605a2.227,2.227,0,0,0,.381,1.367A1.216,1.216,0,0,0,30.3-2.8a1.314,1.314,0,0,0,1.162-.62A3.166,3.166,0,0,0,31.875-5.176ZM41.24-3.818a1.405,1.405,0,0,0,.742,1.011,3.347,3.347,0,0,0,1.68.366A6.917,6.917,0,0,0,46.416-3V-.361a9.9,9.9,0,0,1-3.672.605,5.794,5.794,0,0,1-4.072-1.338,4.753,4.753,0,0,1-1.455-3.682,6.074,6.074,0,0,1,.64-2.842,4.6,4.6,0,0,1,1.895-1.929,5.6,5.6,0,0,1,2.769-.7,5.447,5.447,0,0,1,2.656.605,4.033,4.033,0,0,1,1.675,1.7,5.452,5.452,0,0,1,.571,2.559v1.563ZM43.74-6q0-1.729-1.24-1.729a1.049,1.049,0,0,0-.869.474A2.364,2.364,0,0,0,41.221-6Zm9.824,3.115h4.121V0h-9.58V-1.924l4.492-5.2H48.525V-10H57.6v2.363ZM64.58,0V-1.523h-.039A3.272,3.272,0,0,1,61.494.244,2.917,2.917,0,0,1,59.277-.6a3.12,3.12,0,0,1-.8-2.246q0-2.949,3.623-3.418l2.48-.322a.946.946,0,0,0-.439-.8A2,2,0,0,0,62.959-7.7a7.783,7.783,0,0,0-3.545.957V-9.443a9.484,9.484,0,0,1,2.031-.576,11.822,11.822,0,0,1,2.09-.225,5.247,5.247,0,0,1,3.7,1.089,4.853,4.853,0,0,1,1.147,3.638V0ZM62.119-3.4a.922.922,0,0,0,.259.674.987.987,0,0,0,.737.264,1.311,1.311,0,0,0,1.06-.488A1.892,1.892,0,0,0,64.58-4.2V-4.58l-1.406.2Q62.119-4.209,62.119-3.4Z" transform="translate(756 4035)" fill="#12263f"/>
    <path id="Trazado_774846" data-name="Trazado 774846" d="M8.457-10.7V0H4.219V-10.7H.3V-14H12.422v3.3ZM21.24-6.436a3.233,3.233,0,0,0-.635-.2,3.212,3.212,0,0,0-.664-.088q-2.061,0-2.061,2.383V0h-4.16V-10h4.16v1.758h.039A3.123,3.123,0,0,1,19-9.683a2.785,2.785,0,0,1,1.641-.493,1.409,1.409,0,0,1,.6.117Zm12.324,1.26A5.207,5.207,0,0,1,32.036-1.2,5.972,5.972,0,0,1,27.764.244a6,6,0,0,1-4.243-1.411A5.051,5.051,0,0,1,22-5.059a5.214,5.214,0,0,1,.713-2.764,4.636,4.636,0,0,1,2.031-1.8,7.012,7.012,0,0,1,3.037-.625,6.792,6.792,0,0,1,3.081.654,4.763,4.763,0,0,1,2,1.816A4.946,4.946,0,0,1,33.564-5.176Zm-4.219.02q0-2.041-1.562-2.041T26.221-5.059Q26.221-2.8,27.8-2.8,29.346-2.8,29.346-5.156ZM41.6,0V-5.459a2.427,2.427,0,0,0-.278-1.333,1.017,1.017,0,0,0-.9-.405.978.978,0,0,0-.84.42,1.792,1.792,0,0,0-.3,1.074V0h-4.16V-10h4.16v1.563h.039a3.53,3.53,0,0,1,1.338-1.333,3.655,3.655,0,0,1,1.826-.474q3.281,0,3.281,4.141V0ZM55.879-.283A3.922,3.922,0,0,1,54.619.1a11.91,11.91,0,0,1-1.982.146A6.1,6.1,0,0,1,49.81-.4a4.667,4.667,0,0,1-1.929-1.792A4.975,4.975,0,0,1,47.2-4.775a5.667,5.667,0,0,1,.728-2.944A4.743,4.743,0,0,1,50-9.595a7.119,7.119,0,0,1,3.125-.649,10.933,10.933,0,0,1,1.753.127,2.678,2.678,0,0,1,1,.293v3.242a2.889,2.889,0,0,0-.9-.43A3.609,3.609,0,0,0,53.9-7.2a2.639,2.639,0,0,0-1.851.581,2.114,2.114,0,0,0-.63,1.636,2.075,2.075,0,0,0,.62,1.606,2.419,2.419,0,0,0,1.7.571,4.244,4.244,0,0,0,2.139-.557ZM68.662-5.176A5.207,5.207,0,0,1,67.134-1.2,5.972,5.972,0,0,1,62.861.244a6,6,0,0,1-4.243-1.411A5.051,5.051,0,0,1,57.1-5.059a5.214,5.214,0,0,1,.713-2.764,4.636,4.636,0,0,1,2.031-1.8,7.012,7.012,0,0,1,3.037-.625,6.792,6.792,0,0,1,3.081.654,4.763,4.763,0,0,1,2,1.816A4.946,4.946,0,0,1,68.662-5.176Zm-4.219.02q0-2.041-1.562-2.041T61.318-5.059Q61.318-2.8,62.9-2.8,64.443-2.8,64.443-5.156Z" transform="translate(756 4188)" fill="#12263f"/>
    <path id="Trazado_774847" data-name="Trazado 774847" d="M14.2,0V-7.676q0-1.084.068-2.383L14.3-10.7H14.18q-.312,1.65-.479,2.285L11.641,0H7.676L5.518-8.32Q5.43-8.633,5.059-10.7H4.941q.137,3.281.137,4.1V0h-3.7V-14H7.7L9.619-6.4a9.39,9.39,0,0,1,.181.952q.112.718.142,1.108H10q.107-.889.342-2.1L12.139-14h6.221V0ZM25.137-12.7a1.787,1.787,0,0,1-.64,1.426,2.5,2.5,0,0,1-1.685.547,2.441,2.441,0,0,1-1.665-.566A1.791,1.791,0,0,1,20.5-12.7a1.734,1.734,0,0,1,.63-1.392,2.524,2.524,0,0,1,1.685-.532,2.548,2.548,0,0,1,1.685.532A1.723,1.723,0,0,1,25.137-12.7ZM20.732,0V-10h4.16V0Zm9.746-3.818a1.405,1.405,0,0,0,.742,1.011,3.347,3.347,0,0,0,1.68.366A6.917,6.917,0,0,0,35.654-3V-.361a9.9,9.9,0,0,1-3.672.605A5.794,5.794,0,0,1,27.91-1.094a4.753,4.753,0,0,1-1.455-3.682,6.074,6.074,0,0,1,.64-2.842,4.6,4.6,0,0,1,1.895-1.929,5.6,5.6,0,0,1,2.769-.7,5.447,5.447,0,0,1,2.656.605,4.033,4.033,0,0,1,1.675,1.7,5.452,5.452,0,0,1,.571,2.559v1.563ZM32.979-6q0-1.729-1.24-1.729a1.049,1.049,0,0,0-.869.474A2.364,2.364,0,0,0,30.459-6ZM51.064,0V-5.762a1.838,1.838,0,0,0-.259-1.079.973.973,0,0,0-.845-.356,1.055,1.055,0,0,0-.9.435,1.989,1.989,0,0,0-.322,1.206V0H44.58V-5.664q0-1.533-1.045-1.533a1.106,1.106,0,0,0-.957.444,2.148,2.148,0,0,0-.322,1.274V0H38.1V-10h4.16v1.582h.039a3.224,3.224,0,0,1,.747-.854,4.385,4.385,0,0,1,1.157-.7,3.594,3.594,0,0,1,1.4-.269,3.535,3.535,0,0,1,1.792.42A3.256,3.256,0,0,1,48.6-8.5,3.564,3.564,0,0,1,50.01-9.79a4.191,4.191,0,0,1,1.953-.454,2.939,2.939,0,0,1,2.412,1.025,4.566,4.566,0,0,1,.84,2.959V0ZM68.379-5.3A7.318,7.318,0,0,1,67.837-2.4,4.417,4.417,0,0,1,66.3-.444a3.873,3.873,0,0,1-2.256.688,3.561,3.561,0,0,1-1.655-.356A2.981,2.981,0,0,1,61.3-1.035H61.26V0H57.1V-14.8h4.16v6.162H61.3a3.425,3.425,0,0,1,1.323-1.172,3.963,3.963,0,0,1,1.841-.43,3.507,3.507,0,0,1,2.905,1.26A5.777,5.777,0,0,1,68.379-5.3Zm-4.219.127a2.482,2.482,0,0,0-.386-1.514A1.308,1.308,0,0,0,62.666-7.2a1.3,1.3,0,0,0-1.06.532,2.148,2.148,0,0,0-.425,1.382v.605a2.227,2.227,0,0,0,.381,1.367,1.216,1.216,0,0,0,1.025.508,1.314,1.314,0,0,0,1.162-.62A3.166,3.166,0,0,0,64.16-5.176Zm13.3-1.26a3.233,3.233,0,0,0-.635-.2,3.212,3.212,0,0,0-.664-.088q-2.061,0-2.061,2.383V0h-4.16V-10H74.1v1.758h.039a3.123,3.123,0,0,1,1.084-1.44,2.785,2.785,0,0,1,1.641-.493,1.409,1.409,0,0,1,.6.117Zm12.324,1.26A5.207,5.207,0,0,1,88.257-1.2,5.972,5.972,0,0,1,83.984.244a6,6,0,0,1-4.243-1.411,5.051,5.051,0,0,1-1.519-3.892,5.214,5.214,0,0,1,.713-2.764,4.636,4.636,0,0,1,2.031-1.8A7.012,7.012,0,0,1,84-10.244a6.792,6.792,0,0,1,3.081.654,4.763,4.763,0,0,1,2,1.816A4.946,4.946,0,0,1,89.785-5.176Zm-4.219.02Q85.566-7.2,84-7.2T82.441-5.059q0,2.256,1.582,2.256Q85.566-2.8,85.566-5.156Zm13.9,1.836A3.054,3.054,0,0,1,98.169-.688a6.082,6.082,0,0,1-3.608.933A12.546,12.546,0,0,1,92.9.107a10.286,10.286,0,0,1-1.616-.332v-2.92a7.958,7.958,0,0,0,3.086.82q1.221,0,1.221-.635a.5.5,0,0,0-.283-.435,10.01,10.01,0,0,0-1.484-.571,4.192,4.192,0,0,1-1.934-1.113,2.647,2.647,0,0,1-.605-1.807,2.883,2.883,0,0,1,1.235-2.456,5.8,5.8,0,0,1,3.472-.9,11.035,11.035,0,0,1,2.773.381v2.8A8.387,8.387,0,0,0,97.412-7.5a5.443,5.443,0,0,0-1.23-.176,1.339,1.339,0,0,0-.654.137.421.421,0,0,0-.244.381.531.531,0,0,0,.264.459,4.664,4.664,0,0,0,1.055.42,4.894,4.894,0,0,1,2.2,1.152A2.525,2.525,0,0,1,99.463-3.32Zm15.215,0a3.054,3.054,0,0,1-1.294,2.632,6.082,6.082,0,0,1-3.608.933A12.546,12.546,0,0,1,108.11.107a10.286,10.286,0,0,1-1.616-.332v-2.92a7.958,7.958,0,0,0,3.086.82q1.221,0,1.221-.635a.5.5,0,0,0-.283-.435,10.01,10.01,0,0,0-1.484-.571A4.192,4.192,0,0,1,107.1-5.078a2.647,2.647,0,0,1-.605-1.807,2.883,2.883,0,0,1,1.235-2.456,5.8,5.8,0,0,1,3.472-.9,11.035,11.035,0,0,1,2.773.381v2.8a8.387,8.387,0,0,0-1.348-.439,5.443,5.443,0,0,0-1.23-.176,1.339,1.339,0,0,0-.654.137.421.421,0,0,0-.244.381.531.531,0,0,0,.264.459,4.664,4.664,0,0,0,1.055.42,4.894,4.894,0,0,1,2.2,1.152A2.525,2.525,0,0,1,114.678-3.32Zm7.9,3.32V-1.543h-.039A5.473,5.473,0,0,1,121.606-.5a3.589,3.589,0,0,1-.937.537,3.315,3.315,0,0,1-1.216.205,3.025,3.025,0,0,1-2.5-1.064,4.921,4.921,0,0,1-.859-3.145V-10h4.16v5.723q0,1.475,1.1,1.475a1.08,1.08,0,0,0,.913-.4,1.825,1.825,0,0,0,.308-1.133V-10h4.16V0ZM140.01-5.3a7.115,7.115,0,0,1-.557,2.9,4.5,4.5,0,0,1-1.572,1.953A3.96,3.96,0,0,1,135.6.244a3.061,3.061,0,0,1-2.666-1.279h-.039V4.6h-4.16V-10h4.16v1.357h.039a3.524,3.524,0,0,1,1.289-1.177,3.738,3.738,0,0,1,1.8-.425,3.572,3.572,0,0,1,2.964,1.289A5.719,5.719,0,0,1,140.01-5.3Zm-4.219.127a2.607,2.607,0,0,0-.366-1.484A1.271,1.271,0,0,0,134.3-7.2a1.268,1.268,0,0,0-1.074.566,2.6,2.6,0,0,0-.41,1.553v.2a2.847,2.847,0,0,0,.352,1.514,1.16,1.16,0,0,0,1.055.566,1.314,1.314,0,0,0,1.162-.62A3.166,3.166,0,0,0,135.791-5.176Zm9.365,1.357a1.405,1.405,0,0,0,.742,1.011,3.347,3.347,0,0,0,1.68.366A6.917,6.917,0,0,0,150.332-3V-.361a9.9,9.9,0,0,1-3.672.605,5.794,5.794,0,0,1-4.072-1.338,4.753,4.753,0,0,1-1.455-3.682,6.074,6.074,0,0,1,.64-2.842,4.6,4.6,0,0,1,1.895-1.929,5.6,5.6,0,0,1,2.769-.7,5.447,5.447,0,0,1,2.656.605,4.033,4.033,0,0,1,1.675,1.7,5.452,5.452,0,0,1,.571,2.559v1.563ZM147.656-6q0-1.729-1.24-1.729a1.049,1.049,0,0,0-.869.474A2.364,2.364,0,0,0,145.137-6Zm12.637-.439a3.233,3.233,0,0,0-.635-.2,3.212,3.212,0,0,0-.664-.088q-2.061,0-2.061,2.383V0h-4.16V-10h4.16v1.758h.039a3.123,3.123,0,0,1,1.084-1.44,2.785,2.785,0,0,1,1.641-.493,1.409,1.409,0,0,1,.6.117ZM165.9-12.7a1.787,1.787,0,0,1-.64,1.426,2.5,2.5,0,0,1-1.685.547,2.441,2.441,0,0,1-1.665-.566,1.791,1.791,0,0,1-.649-1.406,1.734,1.734,0,0,1,.63-1.392,2.524,2.524,0,0,1,1.685-.532,2.548,2.548,0,0,1,1.685.532A1.723,1.723,0,0,1,165.9-12.7ZM161.494,0V-10h4.16V0Zm17.285-5.176A5.207,5.207,0,0,1,177.251-1.2,5.972,5.972,0,0,1,172.979.244a6,6,0,0,1-4.243-1.411,5.051,5.051,0,0,1-1.519-3.892,5.214,5.214,0,0,1,.713-2.764,4.636,4.636,0,0,1,2.031-1.8A7.012,7.012,0,0,1,173-10.244a6.792,6.792,0,0,1,3.081.654,4.763,4.763,0,0,1,2,1.816A4.946,4.946,0,0,1,178.779-5.176Zm-4.219.02Q174.561-7.2,173-7.2t-1.562,2.139q0,2.256,1.582,2.256Q174.561-2.8,174.561-5.156Zm13.291-1.279a3.233,3.233,0,0,0-.635-.2,3.212,3.212,0,0,0-.664-.088q-2.061,0-2.061,2.383V0h-4.16V-10h4.16v1.758h.039a3.123,3.123,0,0,1,1.084-1.44,2.785,2.785,0,0,1,1.641-.493,1.409,1.409,0,0,1,.6.117Zm4.785,2.617a1.405,1.405,0,0,0,.742,1.011,3.347,3.347,0,0,0,1.68.366A6.917,6.917,0,0,0,197.813-3V-.361a9.9,9.9,0,0,1-3.672.605,5.794,5.794,0,0,1-4.072-1.338,4.753,4.753,0,0,1-1.455-3.682,6.074,6.074,0,0,1,.64-2.842,4.6,4.6,0,0,1,1.895-1.929,5.6,5.6,0,0,1,2.769-.7,5.447,5.447,0,0,1,2.656.605,4.033,4.033,0,0,1,1.675,1.7,5.452,5.452,0,0,1,.571,2.559v1.563ZM195.137-6q0-1.729-1.24-1.729a1.049,1.049,0,0,0-.869.474A2.364,2.364,0,0,0,192.617-6ZM208.379-3.32a3.054,3.054,0,0,1-1.294,2.632,6.082,6.082,0,0,1-3.608.933,12.546,12.546,0,0,1-1.665-.137A10.286,10.286,0,0,1,200.2-.225v-2.92a7.958,7.958,0,0,0,3.086.82q1.221,0,1.221-.635a.5.5,0,0,0-.283-.435,10.01,10.01,0,0,0-1.484-.571A4.192,4.192,0,0,1,200.8-5.078a2.647,2.647,0,0,1-.605-1.807,2.883,2.883,0,0,1,1.235-2.456,5.8,5.8,0,0,1,3.472-.9,11.035,11.035,0,0,1,2.773.381v2.8a8.387,8.387,0,0,0-1.348-.439,5.443,5.443,0,0,0-1.23-.176,1.339,1.339,0,0,0-.654.137.421.421,0,0,0-.244.381.531.531,0,0,0,.264.459,4.664,4.664,0,0,0,1.055.42,4.894,4.894,0,0,1,2.2,1.152A2.525,2.525,0,0,1,208.379-3.32Z" transform="translate(685 4281)" fill="#12263f"/>
    <path id="Trazado_774848" data-name="Trazado 774848" d="M1.377,0V-14H10.1v3.3H5.6v2.041H9.824v3.3H5.6V-3.3H10.42V0ZM20.254-5.322,23.477,0H18.691L17.617-2.275A10.361,10.361,0,0,1,17.2-3.32h-.039q-.205.664-.264.815T15.752,0H11l3.32-5.039L11.191-10H16L17.07-7.676a6.372,6.372,0,0,1,.43,1.094h.039q.283-.85.4-1.113L18.955-10H23.5ZM31.494-.137a4.053,4.053,0,0,1-.928.259,8.482,8.482,0,0,1-1.553.122,3.73,3.73,0,0,1-2.72-.957,3.632,3.632,0,0,1-.981-2.725V-7.119H23.74V-10h1.572v-1.963l4.1-1.133V-10h2.08v2.881h-2.08v3q0,1.318,1.045,1.318a2.835,2.835,0,0,0,1.035-.215Zm8.818-6.3a3.233,3.233,0,0,0-.635-.2,3.212,3.212,0,0,0-.664-.088q-2.061,0-2.061,2.383V0h-4.16V-10h4.16v1.758h.039a3.123,3.123,0,0,1,1.084-1.44,2.785,2.785,0,0,1,1.641-.493,1.409,1.409,0,0,1,.6.117ZM45.1-3.818a1.405,1.405,0,0,0,.742,1.011,3.347,3.347,0,0,0,1.68.366A6.917,6.917,0,0,0,50.273-3V-.361A9.9,9.9,0,0,1,46.6.244a5.794,5.794,0,0,1-4.072-1.338,4.753,4.753,0,0,1-1.455-3.682,6.074,6.074,0,0,1,.64-2.842,4.6,4.6,0,0,1,1.895-1.929,5.6,5.6,0,0,1,2.769-.7,5.447,5.447,0,0,1,2.656.605,4.033,4.033,0,0,1,1.675,1.7,5.452,5.452,0,0,1,.571,2.559v1.563ZM47.6-6q0-1.729-1.24-1.729a1.049,1.049,0,0,0-.869.474A2.364,2.364,0,0,0,45.078-6ZM65.684,0V-5.762a1.838,1.838,0,0,0-.259-1.079A.973.973,0,0,0,64.58-7.2a1.055,1.055,0,0,0-.9.435,1.989,1.989,0,0,0-.322,1.206V0H59.2V-5.664Q59.2-7.2,58.154-7.2a1.106,1.106,0,0,0-.957.444,2.148,2.148,0,0,0-.322,1.274V0h-4.16V-10h4.16v1.582h.039a3.224,3.224,0,0,1,.747-.854,4.385,4.385,0,0,1,1.157-.7,3.594,3.594,0,0,1,1.4-.269,3.535,3.535,0,0,1,1.792.42A3.256,3.256,0,0,1,63.223-8.5,3.564,3.564,0,0,1,64.629-9.79a4.191,4.191,0,0,1,1.953-.454,2.939,2.939,0,0,1,2.412,1.025,4.566,4.566,0,0,1,.84,2.959V0ZM76.123-12.7a1.787,1.787,0,0,1-.64,1.426,2.5,2.5,0,0,1-1.685.547,2.441,2.441,0,0,1-1.665-.566,1.791,1.791,0,0,1-.649-1.406,1.734,1.734,0,0,1,.63-1.392,2.524,2.524,0,0,1,1.685-.532,2.548,2.548,0,0,1,1.685.532A1.723,1.723,0,0,1,76.123-12.7ZM71.719,0V-10h4.16V0ZM84.561,0V-1.162h-.039a3.433,3.433,0,0,1-1.3,1.03,3.7,3.7,0,0,1-1.582.376,4.07,4.07,0,0,1-2.256-.63,3.825,3.825,0,0,1-1.46-1.763,6.784,6.784,0,0,1-.483-2.676,6.583,6.583,0,0,1,.576-2.822,4.51,4.51,0,0,1,1.621-1.914,4.188,4.188,0,0,1,2.344-.684,3.547,3.547,0,0,1,1.138.176,3.078,3.078,0,0,1,.908.474A1.414,1.414,0,0,1,84.521-9h.039v-5.8h4.16V0Zm.088-5.3a2.194,2.194,0,0,0-.4-1.4,1.294,1.294,0,0,0-1.069-.5,1.283,1.283,0,0,0-1.1.62,2.881,2.881,0,0,0-.425,1.655q0,2.119,1.465,2.119a1.3,1.3,0,0,0,1.108-.571,2.812,2.812,0,0,0,.415-1.665ZM96.27,0V-1.523H96.23A3.272,3.272,0,0,1,93.184.244,2.917,2.917,0,0,1,90.967-.6a3.12,3.12,0,0,1-.8-2.246q0-2.949,3.623-3.418l2.48-.322a.946.946,0,0,0-.439-.8A2,2,0,0,0,94.648-7.7a7.783,7.783,0,0,0-3.545.957V-9.443a9.484,9.484,0,0,1,2.031-.576,11.822,11.822,0,0,1,2.09-.225,5.247,5.247,0,0,1,3.7,1.089,4.853,4.853,0,0,1,1.147,3.638V0ZM93.809-3.4a.922.922,0,0,0,.259.674.987.987,0,0,0,.737.264,1.311,1.311,0,0,0,1.06-.488A1.892,1.892,0,0,0,96.27-4.2V-4.58l-1.406.2Q93.809-4.209,93.809-3.4ZM108.623,0V-1.162h-.039a3.433,3.433,0,0,1-1.3,1.03A3.7,3.7,0,0,1,105.7.244a4.07,4.07,0,0,1-2.256-.63,3.825,3.825,0,0,1-1.46-1.763,6.784,6.784,0,0,1-.483-2.676,6.583,6.583,0,0,1,.576-2.822A4.51,4.51,0,0,1,103.7-9.561a4.188,4.188,0,0,1,2.344-.684,3.547,3.547,0,0,1,1.138.176,3.078,3.078,0,0,1,.908.474,1.414,1.414,0,0,1,.493.591h.039v-5.8h4.16V0Zm.088-5.3a2.194,2.194,0,0,0-.4-1.4,1.294,1.294,0,0,0-1.069-.5,1.283,1.283,0,0,0-1.1.62,2.881,2.881,0,0,0-.425,1.655q0,2.119,1.465,2.119a1.3,1.3,0,0,0,1.108-.571,2.812,2.812,0,0,0,.415-1.665Zm9.658,1.484a1.405,1.405,0,0,0,.742,1.011,3.347,3.347,0,0,0,1.68.366A6.917,6.917,0,0,0,123.545-3V-.361a9.9,9.9,0,0,1-3.672.605A5.794,5.794,0,0,1,115.8-1.094a4.753,4.753,0,0,1-1.455-3.682,6.074,6.074,0,0,1,.64-2.842,4.6,4.6,0,0,1,1.895-1.929,5.6,5.6,0,0,1,2.769-.7,5.447,5.447,0,0,1,2.656.605,4.033,4.033,0,0,1,1.675,1.7,5.452,5.452,0,0,1,.571,2.559v1.563ZM120.869-6q0-1.729-1.24-1.729a1.049,1.049,0,0,0-.869.474A2.364,2.364,0,0,0,118.35-6ZM134.111-3.32a3.054,3.054,0,0,1-1.294,2.632,6.082,6.082,0,0,1-3.608.933,12.546,12.546,0,0,1-1.665-.137,10.286,10.286,0,0,1-1.616-.332v-2.92a7.958,7.958,0,0,0,3.086.82q1.221,0,1.221-.635a.5.5,0,0,0-.283-.435,10.01,10.01,0,0,0-1.484-.571,4.192,4.192,0,0,1-1.934-1.113,2.647,2.647,0,0,1-.605-1.807,2.883,2.883,0,0,1,1.235-2.456,5.8,5.8,0,0,1,3.472-.9,11.035,11.035,0,0,1,2.773.381v2.8a8.387,8.387,0,0,0-1.348-.439,5.443,5.443,0,0,0-1.23-.176,1.339,1.339,0,0,0-.654.137.421.421,0,0,0-.244.381.531.531,0,0,0,.264.459,4.664,4.664,0,0,0,1.055.42,4.894,4.894,0,0,1,2.2,1.152A2.525,2.525,0,0,1,134.111-3.32Z" transform="translate(726 4363)" fill="#12263f"/>
    <path id="Trazado_774849" data-name="Trazado 774849" d="M14.2,0V-7.676q0-1.084.068-2.383L14.3-10.7H14.18q-.312,1.65-.479,2.285L11.641,0H7.676L5.518-8.32Q5.43-8.633,5.059-10.7H4.941q.137,3.281.137,4.1V0h-3.7V-14H7.7L9.619-6.4a9.39,9.39,0,0,1,.181.952q.112.718.142,1.108H10q.107-.889.342-2.1L12.139-14h6.221V0ZM25.137-12.7a1.787,1.787,0,0,1-.64,1.426,2.5,2.5,0,0,1-1.685.547,2.441,2.441,0,0,1-1.665-.566A1.791,1.791,0,0,1,20.5-12.7a1.734,1.734,0,0,1,.63-1.392,2.524,2.524,0,0,1,1.685-.532,2.548,2.548,0,0,1,1.685.532A1.723,1.723,0,0,1,25.137-12.7ZM20.732,0V-10h4.16V0Zm9.746-3.818a1.405,1.405,0,0,0,.742,1.011,3.347,3.347,0,0,0,1.68.366A6.917,6.917,0,0,0,35.654-3V-.361a9.9,9.9,0,0,1-3.672.605A5.794,5.794,0,0,1,27.91-1.094a4.753,4.753,0,0,1-1.455-3.682,6.074,6.074,0,0,1,.64-2.842,4.6,4.6,0,0,1,1.895-1.929,5.6,5.6,0,0,1,2.769-.7,5.447,5.447,0,0,1,2.656.605,4.033,4.033,0,0,1,1.675,1.7,5.452,5.452,0,0,1,.571,2.559v1.563ZM32.979-6q0-1.729-1.24-1.729a1.049,1.049,0,0,0-.869.474A2.364,2.364,0,0,0,30.459-6ZM51.064,0V-5.762a1.838,1.838,0,0,0-.259-1.079.973.973,0,0,0-.845-.356,1.055,1.055,0,0,0-.9.435,1.989,1.989,0,0,0-.322,1.206V0H44.58V-5.664q0-1.533-1.045-1.533a1.106,1.106,0,0,0-.957.444,2.148,2.148,0,0,0-.322,1.274V0H38.1V-10h4.16v1.582h.039a3.224,3.224,0,0,1,.747-.854,4.385,4.385,0,0,1,1.157-.7,3.594,3.594,0,0,1,1.4-.269,3.535,3.535,0,0,1,1.792.42A3.256,3.256,0,0,1,48.6-8.5,3.564,3.564,0,0,1,50.01-9.79a4.191,4.191,0,0,1,1.953-.454,2.939,2.939,0,0,1,2.412,1.025,4.566,4.566,0,0,1,.84,2.959V0ZM68.379-5.3A7.318,7.318,0,0,1,67.837-2.4,4.417,4.417,0,0,1,66.3-.444a3.873,3.873,0,0,1-2.256.688,3.561,3.561,0,0,1-1.655-.356A2.981,2.981,0,0,1,61.3-1.035H61.26V0H57.1V-14.8h4.16v6.162H61.3a3.425,3.425,0,0,1,1.323-1.172,3.963,3.963,0,0,1,1.841-.43,3.507,3.507,0,0,1,2.905,1.26A5.777,5.777,0,0,1,68.379-5.3Zm-4.219.127a2.482,2.482,0,0,0-.386-1.514A1.308,1.308,0,0,0,62.666-7.2a1.3,1.3,0,0,0-1.06.532,2.148,2.148,0,0,0-.425,1.382v.605a2.227,2.227,0,0,0,.381,1.367,1.216,1.216,0,0,0,1.025.508,1.314,1.314,0,0,0,1.162-.62A3.166,3.166,0,0,0,64.16-5.176Zm13.3-1.26a3.233,3.233,0,0,0-.635-.2,3.212,3.212,0,0,0-.664-.088q-2.061,0-2.061,2.383V0h-4.16V-10H74.1v1.758h.039a3.123,3.123,0,0,1,1.084-1.44,2.785,2.785,0,0,1,1.641-.493,1.409,1.409,0,0,1,.6.117Zm12.324,1.26A5.207,5.207,0,0,1,88.257-1.2,5.972,5.972,0,0,1,83.984.244a6,6,0,0,1-4.243-1.411,5.051,5.051,0,0,1-1.519-3.892,5.214,5.214,0,0,1,.713-2.764,4.636,4.636,0,0,1,2.031-1.8A7.012,7.012,0,0,1,84-10.244a6.792,6.792,0,0,1,3.081.654,4.763,4.763,0,0,1,2,1.816A4.946,4.946,0,0,1,89.785-5.176Zm-4.219.02Q85.566-7.2,84-7.2T82.441-5.059q0,2.256,1.582,2.256Q85.566-2.8,85.566-5.156Zm13.9,1.836A3.054,3.054,0,0,1,98.169-.688a6.082,6.082,0,0,1-3.608.933A12.546,12.546,0,0,1,92.9.107a10.286,10.286,0,0,1-1.616-.332v-2.92a7.958,7.958,0,0,0,3.086.82q1.221,0,1.221-.635a.5.5,0,0,0-.283-.435,10.01,10.01,0,0,0-1.484-.571,4.192,4.192,0,0,1-1.934-1.113,2.647,2.647,0,0,1-.605-1.807,2.883,2.883,0,0,1,1.235-2.456,5.8,5.8,0,0,1,3.472-.9,11.035,11.035,0,0,1,2.773.381v2.8A8.387,8.387,0,0,0,97.412-7.5a5.443,5.443,0,0,0-1.23-.176,1.339,1.339,0,0,0-.654.137.421.421,0,0,0-.244.381.531.531,0,0,0,.264.459,4.664,4.664,0,0,0,1.055.42,4.894,4.894,0,0,1,2.2,1.152A2.525,2.525,0,0,1,99.463-3.32ZM110.957-12.7a1.787,1.787,0,0,1-.64,1.426,2.5,2.5,0,0,1-1.685.547,2.441,2.441,0,0,1-1.665-.566,1.791,1.791,0,0,1-.649-1.406,1.734,1.734,0,0,1,.63-1.392,2.524,2.524,0,0,1,1.685-.532,2.548,2.548,0,0,1,1.685.532A1.723,1.723,0,0,1,110.957-12.7ZM106.553,0V-10h4.16V0ZM119.2,0V-5.459a2.427,2.427,0,0,0-.278-1.333,1.017,1.017,0,0,0-.9-.405.978.978,0,0,0-.84.42,1.792,1.792,0,0,0-.3,1.074V0h-4.16V-10h4.16v1.563h.039a3.53,3.53,0,0,1,1.338-1.333,3.655,3.655,0,0,1,1.826-.474q3.281,0,3.281,4.141V0Zm13.74-11.777a3.665,3.665,0,0,0-1.2-.225,1.338,1.338,0,0,0-1.025.356,1.355,1.355,0,0,0-.332.962V-10H132.7v2.881h-2.314V0h-4.16V-7.119h-1.68V-10h1.68v-.918a4.065,4.065,0,0,1,.566-2.153,3.778,3.778,0,0,1,1.646-1.45,6.025,6.025,0,0,1,2.622-.518,7.118,7.118,0,0,1,1.885.215Zm4.5,7.959a1.405,1.405,0,0,0,.742,1.011,3.347,3.347,0,0,0,1.68.366A6.917,6.917,0,0,0,142.617-3V-.361a9.9,9.9,0,0,1-3.672.605,5.794,5.794,0,0,1-4.072-1.338,4.753,4.753,0,0,1-1.455-3.682,6.074,6.074,0,0,1,.64-2.842,4.6,4.6,0,0,1,1.895-1.929,5.6,5.6,0,0,1,2.769-.7,5.447,5.447,0,0,1,2.656.605,4.033,4.033,0,0,1,1.675,1.7,5.452,5.452,0,0,1,.571,2.559v1.563ZM139.941-6q0-1.729-1.24-1.729a1.049,1.049,0,0,0-.869.474A2.364,2.364,0,0,0,137.422-6Zm12.637-.439a3.233,3.233,0,0,0-.635-.2,3.212,3.212,0,0,0-.664-.088q-2.061,0-2.061,2.383V0h-4.16V-10h4.16v1.758h.039a3.123,3.123,0,0,1,1.084-1.44,2.785,2.785,0,0,1,1.641-.493,1.409,1.409,0,0,1,.6.117Zm5.605-6.26a1.787,1.787,0,0,1-.64,1.426,2.5,2.5,0,0,1-1.685.547,2.441,2.441,0,0,1-1.665-.566,1.791,1.791,0,0,1-.649-1.406,1.734,1.734,0,0,1,.63-1.392,2.524,2.524,0,0,1,1.685-.532,2.548,2.548,0,0,1,1.685.532A1.723,1.723,0,0,1,158.184-12.7ZM153.779,0V-10h4.16V0Zm17.285-5.176A5.207,5.207,0,0,1,169.536-1.2,5.972,5.972,0,0,1,165.264.244a6,6,0,0,1-4.243-1.411A5.051,5.051,0,0,1,159.5-5.059a5.214,5.214,0,0,1,.713-2.764,4.636,4.636,0,0,1,2.031-1.8,7.012,7.012,0,0,1,3.037-.625,6.792,6.792,0,0,1,3.081.654,4.763,4.763,0,0,1,2,1.816A4.946,4.946,0,0,1,171.064-5.176Zm-4.219.02q0-2.041-1.562-2.041t-1.562,2.139q0,2.256,1.582,2.256Q166.846-2.8,166.846-5.156Zm13.291-1.279a3.233,3.233,0,0,0-.635-.2,3.212,3.212,0,0,0-.664-.088q-2.061,0-2.061,2.383V0h-4.16V-10h4.16v1.758h.039a3.123,3.123,0,0,1,1.084-1.44,2.785,2.785,0,0,1,1.641-.493,1.409,1.409,0,0,1,.6.117Zm4.785,2.617a1.405,1.405,0,0,0,.742,1.011,3.347,3.347,0,0,0,1.68.366A6.917,6.917,0,0,0,190.1-3V-.361a9.9,9.9,0,0,1-3.672.605,5.794,5.794,0,0,1-4.072-1.338A4.753,4.753,0,0,1,180.9-4.775a6.074,6.074,0,0,1,.64-2.842,4.6,4.6,0,0,1,1.895-1.929,5.6,5.6,0,0,1,2.769-.7,5.447,5.447,0,0,1,2.656.605,4.033,4.033,0,0,1,1.675,1.7,5.452,5.452,0,0,1,.571,2.559v1.563ZM187.422-6q0-1.729-1.24-1.729a1.049,1.049,0,0,0-.869.474A2.364,2.364,0,0,0,184.9-6ZM200.664-3.32A3.054,3.054,0,0,1,199.37-.688a6.082,6.082,0,0,1-3.608.933A12.546,12.546,0,0,1,194.1.107a10.286,10.286,0,0,1-1.616-.332v-2.92a7.958,7.958,0,0,0,3.086.82q1.221,0,1.221-.635a.5.5,0,0,0-.283-.435,10.01,10.01,0,0,0-1.484-.571,4.192,4.192,0,0,1-1.934-1.113,2.647,2.647,0,0,1-.605-1.807,2.883,2.883,0,0,1,1.235-2.456,5.8,5.8,0,0,1,3.472-.9,11.035,11.035,0,0,1,2.773.381v2.8a8.387,8.387,0,0,0-1.348-.439,5.443,5.443,0,0,0-1.23-.176,1.339,1.339,0,0,0-.654.137.421.421,0,0,0-.244.381.531.531,0,0,0,.264.459,4.664,4.664,0,0,0,1.055.42A4.894,4.894,0,0,1,200-5.127,2.525,2.525,0,0,1,200.664-3.32Z" transform="translate(685 4507)" fill="#12263f"/>
    <path id="Trazado_774850" data-name="Trazado 774850" d="M-22.9-10.723a2.863,2.863,0,0,1-.933,2.188A5.009,5.009,0,0,1-26.4-7.363v.039a3.267,3.267,0,0,1,2.061.962,2.854,2.854,0,0,1,.742,2.026,3.712,3.712,0,0,1-.732,2.3,4.65,4.65,0,0,1-2.153,1.5A9.911,9.911,0,0,1-29.941,0h-6.553l2.959-14h5.762a6.708,6.708,0,0,1,3.672.8A2.772,2.772,0,0,1-22.9-10.723Zm-4.473.82a1.146,1.146,0,0,0-.4-.991,2.421,2.421,0,0,0-1.372-.288h-.771l-.566,2.646h1.318a2,2,0,0,0,1.284-.4A1.2,1.2,0,0,0-27.373-9.9Zm-.7,5.479a1.219,1.219,0,0,0-.371-.928A1.431,1.431,0,0,0-29.473-5.7h-1.582L-31.7-2.842h1.484a2.571,2.571,0,0,0,1.572-.425A1.369,1.369,0,0,0-28.076-4.424ZM-11.162-5.84a6.6,6.6,0,0,1-.786,3.2A5.087,5.087,0,0,1-14.141-.474a7.171,7.171,0,0,1-3.3.718A5.1,5.1,0,0,1-21.021-.918,4.208,4.208,0,0,1-22.285-4.18a6.737,6.737,0,0,1,.449-2.412,5.6,5.6,0,0,1,1.25-1.987,5.321,5.321,0,0,1,1.968-1.235,7.7,7.7,0,0,1,2.671-.43A5.039,5.039,0,0,1-12.412-9.1,4.2,4.2,0,0,1-11.162-5.84Zm-4.141,0a1.565,1.565,0,0,0-.283-1.011.933.933,0,0,0-.762-.347,1.263,1.263,0,0,0-.937.415,2.855,2.855,0,0,0-.63,1.143,4.954,4.954,0,0,0-.229,1.5,1.505,1.505,0,0,0,.288,1,.969.969,0,0,0,.776.337,1.456,1.456,0,0,0,1.289-.859A4.365,4.365,0,0,0-15.3-5.84ZM-2.51-7.119H-4.756L-5.332-4.4A5.069,5.069,0,0,0-5.469-3.4q0,.6.693.6a3.978,3.978,0,0,0,1.338-.273L-4.033-.2a6.72,6.72,0,0,1-1.3.308A9.946,9.946,0,0,1-6.855.244q-2.881,0-2.881-2.725A6.134,6.134,0,0,1-9.6-3.525q.132-.693.747-3.594h-1.514L-9.678-10h1.426l.479-2.3,4.336-1L-4.131-10h2.314Zm8.223,0H3.467L2.891-4.4A5.069,5.069,0,0,0,2.754-3.4q0,.6.693.6a3.978,3.978,0,0,0,1.338-.273L4.189-.2a6.72,6.72,0,0,1-1.3.308A9.946,9.946,0,0,1,1.367.244q-2.881,0-2.881-2.725a6.134,6.134,0,0,1,.132-1.045q.132-.693.747-3.594H-2.148L-1.455-10H-.029l.479-2.3,4.336-1L4.092-10H6.406ZM17.363-5.84a6.6,6.6,0,0,1-.786,3.2A5.087,5.087,0,0,1,14.385-.474a7.171,7.171,0,0,1-3.3.718A5.1,5.1,0,0,1,7.5-.918,4.208,4.208,0,0,1,6.24-4.18a6.737,6.737,0,0,1,.449-2.412,5.6,5.6,0,0,1,1.25-1.987A5.321,5.321,0,0,1,9.907-9.814a7.7,7.7,0,0,1,2.671-.43A5.039,5.039,0,0,1,16.113-9.1,4.2,4.2,0,0,1,17.363-5.84Zm-4.141,0a1.565,1.565,0,0,0-.283-1.011.933.933,0,0,0-.762-.347,1.263,1.263,0,0,0-.937.415,2.855,2.855,0,0,0-.63,1.143,4.954,4.954,0,0,0-.229,1.5,1.505,1.505,0,0,0,.288,1,.969.969,0,0,0,.776.337,1.456,1.456,0,0,0,1.289-.859A4.365,4.365,0,0,0,13.223-5.84ZM36.309-7.783a7.96,7.96,0,0,1-.215,1.7L34.814,0h-4.16l1.182-5.537a4.371,4.371,0,0,0,.156-1.006.583.583,0,0,0-.664-.654,1.3,1.3,0,0,0-.747.327,3.081,3.081,0,0,0-.747.859,3.482,3.482,0,0,0-.439,1.089L28.389,0h-4.18l1.182-5.537a4.549,4.549,0,0,0,.166-1.006.583.583,0,0,0-.664-.654,1.659,1.659,0,0,0-1.143.7,3.423,3.423,0,0,0-.8,1.577L21.914,0h-4.18L19.15-6.641q.342-1.621.586-3.359h4.092a11.268,11.268,0,0,1-.2,1.719h.039a6.145,6.145,0,0,1,1.841-1.436,4.349,4.349,0,0,1,1.958-.527,2.115,2.115,0,0,1,2.383,2.207,5.8,5.8,0,0,1,1.86-1.606,4.554,4.554,0,0,1,2.2-.6A2.145,2.145,0,0,1,36.309-7.783Z" transform="translate(403 4447)" fill="#12263f"/>
    <path id="Trazado_774851" data-name="Trazado 774851" d="M12.822-9.385a4.554,4.554,0,0,1-.728,2.549A4.741,4.741,0,0,1,10.02-5.112a7.533,7.533,0,0,1-3.135.61H5.6V0H1.377V-14H7.119a6.8,6.8,0,0,1,4.331,1.123A4.256,4.256,0,0,1,12.822-9.385Zm-4.463.146a1.641,1.641,0,0,0-.5-1.3A2.152,2.152,0,0,0,6.4-10.977H5.6V-7.52h.947Q8.359-7.52,8.359-9.238Zm13.271,2.8a3.233,3.233,0,0,0-.635-.2,3.212,3.212,0,0,0-.664-.088q-2.061,0-2.061,2.383V0h-4.16V-10h4.16v1.758h.039a3.123,3.123,0,0,1,1.084-1.44,2.785,2.785,0,0,1,1.641-.493,1.409,1.409,0,0,1,.6.117Zm4.785,2.617a1.405,1.405,0,0,0,.742,1.011,3.347,3.347,0,0,0,1.68.366A6.917,6.917,0,0,0,31.592-3V-.361A9.9,9.9,0,0,1,27.92.244a5.794,5.794,0,0,1-4.072-1.338,4.753,4.753,0,0,1-1.455-3.682,6.074,6.074,0,0,1,.64-2.842,4.6,4.6,0,0,1,1.895-1.929,5.6,5.6,0,0,1,2.769-.7,5.447,5.447,0,0,1,2.656.605,4.033,4.033,0,0,1,1.675,1.7A5.452,5.452,0,0,1,32.6-5.381v1.563ZM28.916-6q0-1.729-1.24-1.729a1.049,1.049,0,0,0-.869.474A2.364,2.364,0,0,0,26.4-6Zm11.6,6V-5.459a2.427,2.427,0,0,0-.278-1.333,1.017,1.017,0,0,0-.9-.405.978.978,0,0,0-.84.42,1.792,1.792,0,0,0-.3,1.074V0h-4.16V-10h4.16v1.563h.039A3.53,3.53,0,0,1,39.57-9.771a3.655,3.655,0,0,1,1.826-.474q3.281,0,3.281,4.141V0ZM53.232,0V-1.162h-.039a3.433,3.433,0,0,1-1.3,1.03,3.7,3.7,0,0,1-1.582.376,4.07,4.07,0,0,1-2.256-.63A3.825,3.825,0,0,1,46.6-2.148a6.784,6.784,0,0,1-.483-2.676,6.583,6.583,0,0,1,.576-2.822,4.51,4.51,0,0,1,1.621-1.914,4.188,4.188,0,0,1,2.344-.684,3.547,3.547,0,0,1,1.138.176,3.078,3.078,0,0,1,.908.474A1.414,1.414,0,0,1,53.193-9h.039v-5.8h4.16V0Zm.088-5.3a2.194,2.194,0,0,0-.4-1.4,1.294,1.294,0,0,0-1.069-.5,1.283,1.283,0,0,0-1.1.62,2.881,2.881,0,0,0-.425,1.655Q50.332-2.8,51.8-2.8a1.3,1.3,0,0,0,1.108-.571,2.812,2.812,0,0,0,.415-1.665ZM64.941,0V-1.523H64.9A3.272,3.272,0,0,1,61.855.244,2.917,2.917,0,0,1,59.639-.6a3.12,3.12,0,0,1-.8-2.246q0-2.949,3.623-3.418l2.48-.322a.946.946,0,0,0-.439-.8A2,2,0,0,0,63.32-7.7a7.783,7.783,0,0,0-3.545.957V-9.443a9.484,9.484,0,0,1,2.031-.576,11.822,11.822,0,0,1,2.09-.225,5.247,5.247,0,0,1,3.7,1.089A4.853,4.853,0,0,1,68.74-5.518V0ZM62.48-3.4a.922.922,0,0,0,.259.674.987.987,0,0,0,.737.264,1.311,1.311,0,0,0,1.06-.488,1.892,1.892,0,0,0,.405-1.25V-4.58l-1.406.2Q62.48-4.209,62.48-3.4Zm16.26.078A3.054,3.054,0,0,1,77.446-.688a6.082,6.082,0,0,1-3.608.933A12.546,12.546,0,0,1,72.173.107a10.286,10.286,0,0,1-1.616-.332v-2.92a7.958,7.958,0,0,0,3.086.82q1.221,0,1.221-.635a.5.5,0,0,0-.283-.435A10.01,10.01,0,0,0,73.1-3.965a4.192,4.192,0,0,1-1.934-1.113,2.647,2.647,0,0,1-.605-1.807,2.883,2.883,0,0,1,1.235-2.456,5.8,5.8,0,0,1,3.472-.9,11.035,11.035,0,0,1,2.773.381v2.8A8.387,8.387,0,0,0,76.689-7.5a5.443,5.443,0,0,0-1.23-.176,1.339,1.339,0,0,0-.654.137.421.421,0,0,0-.244.381.531.531,0,0,0,.264.459,4.664,4.664,0,0,0,1.055.42,4.894,4.894,0,0,1,2.2,1.152A2.525,2.525,0,0,1,78.74-3.32ZM90.234-12.7a1.787,1.787,0,0,1-.64,1.426,2.5,2.5,0,0,1-1.685.547,2.441,2.441,0,0,1-1.665-.566A1.791,1.791,0,0,1,85.6-12.7a1.734,1.734,0,0,1,.63-1.392,2.524,2.524,0,0,1,1.685-.532,2.548,2.548,0,0,1,1.685.532A1.723,1.723,0,0,1,90.234-12.7ZM85.83,0V-10h4.16V0ZM98.477,0V-5.459A2.427,2.427,0,0,0,98.2-6.792a1.017,1.017,0,0,0-.9-.405.978.978,0,0,0-.84.42,1.792,1.792,0,0,0-.3,1.074V0h-4.16V-10h4.16v1.563h.039a3.53,3.53,0,0,1,1.338-1.333,3.655,3.655,0,0,1,1.826-.474q3.281,0,3.281,4.141V0Zm13.74-11.777a3.665,3.665,0,0,0-1.2-.225,1.338,1.338,0,0,0-1.025.356,1.355,1.355,0,0,0-.332.962V-10h2.314v2.881h-2.314V0H105.5V-7.119h-1.68V-10h1.68v-.918a4.065,4.065,0,0,1,.566-2.153,3.778,3.778,0,0,1,1.646-1.45,6.025,6.025,0,0,1,2.622-.518,7.118,7.118,0,0,1,1.885.215Zm4.5,7.959a1.405,1.405,0,0,0,.742,1.011,3.347,3.347,0,0,0,1.68.366A6.917,6.917,0,0,0,121.895-3V-.361a9.9,9.9,0,0,1-3.672.605,5.794,5.794,0,0,1-4.072-1.338A4.753,4.753,0,0,1,112.7-4.775a6.074,6.074,0,0,1,.64-2.842,4.6,4.6,0,0,1,1.895-1.929,5.6,5.6,0,0,1,2.769-.7,5.447,5.447,0,0,1,2.656.605,4.033,4.033,0,0,1,1.675,1.7,5.452,5.452,0,0,1,.571,2.559v1.563ZM119.219-6q0-1.729-1.24-1.729a1.049,1.049,0,0,0-.869.474A2.364,2.364,0,0,0,116.7-6Zm12.637-.439a3.233,3.233,0,0,0-.635-.2,3.212,3.212,0,0,0-.664-.088q-2.061,0-2.061,2.383V0h-4.16V-10h4.16v1.758h.039a3.123,3.123,0,0,1,1.084-1.44,2.785,2.785,0,0,1,1.641-.493,1.409,1.409,0,0,1,.6.117Zm5.605-6.26a1.787,1.787,0,0,1-.64,1.426,2.5,2.5,0,0,1-1.685.547,2.441,2.441,0,0,1-1.665-.566,1.791,1.791,0,0,1-.649-1.406,1.734,1.734,0,0,1,.63-1.392,2.524,2.524,0,0,1,1.685-.532,2.548,2.548,0,0,1,1.685.532A1.723,1.723,0,0,1,137.461-12.7ZM133.057,0V-10h4.16V0Zm17.285-5.176A5.207,5.207,0,0,1,148.813-1.2,5.972,5.972,0,0,1,144.541.244,6,6,0,0,1,140.3-1.167a5.051,5.051,0,0,1-1.519-3.892,5.214,5.214,0,0,1,.713-2.764,4.636,4.636,0,0,1,2.031-1.8,7.012,7.012,0,0,1,3.037-.625,6.792,6.792,0,0,1,3.081.654,4.763,4.763,0,0,1,2,1.816A4.946,4.946,0,0,1,150.342-5.176Zm-4.219.02q0-2.041-1.562-2.041T143-5.059Q143-2.8,144.58-2.8,146.123-2.8,146.123-5.156Zm13.291-1.279a3.233,3.233,0,0,0-.635-.2,3.212,3.212,0,0,0-.664-.088q-2.061,0-2.061,2.383V0h-4.16V-10h4.16v1.758h.039a3.123,3.123,0,0,1,1.084-1.44,2.785,2.785,0,0,1,1.641-.493,1.409,1.409,0,0,1,.6.117ZM164.2-3.818a1.405,1.405,0,0,0,.742,1.011,3.347,3.347,0,0,0,1.68.366A6.917,6.917,0,0,0,169.375-3V-.361A9.9,9.9,0,0,1,165.7.244a5.794,5.794,0,0,1-4.072-1.338,4.753,4.753,0,0,1-1.455-3.682,6.074,6.074,0,0,1,.64-2.842,4.6,4.6,0,0,1,1.895-1.929,5.6,5.6,0,0,1,2.769-.7,5.447,5.447,0,0,1,2.656.605,4.033,4.033,0,0,1,1.675,1.7,5.452,5.452,0,0,1,.571,2.559v1.563ZM166.7-6q0-1.729-1.24-1.729a1.049,1.049,0,0,0-.869.474A2.364,2.364,0,0,0,164.18-6ZM179.941-3.32a3.054,3.054,0,0,1-1.294,2.632,6.082,6.082,0,0,1-3.608.933,12.546,12.546,0,0,1-1.665-.137,10.286,10.286,0,0,1-1.616-.332v-2.92a7.958,7.958,0,0,0,3.086.82q1.221,0,1.221-.635a.5.5,0,0,0-.283-.435,10.01,10.01,0,0,0-1.484-.571,4.192,4.192,0,0,1-1.934-1.113,2.647,2.647,0,0,1-.605-1.807,2.883,2.883,0,0,1,1.235-2.456,5.8,5.8,0,0,1,3.472-.9,11.035,11.035,0,0,1,2.773.381v2.8a8.387,8.387,0,0,0-1.348-.439,5.443,5.443,0,0,0-1.23-.176,1.339,1.339,0,0,0-.654.137.421.421,0,0,0-.244.381.531.531,0,0,0,.264.459,4.664,4.664,0,0,0,1.055.42,4.894,4.894,0,0,1,2.2,1.152A2.525,2.525,0,0,1,179.941-3.32Z" transform="translate(1095 4449)" fill="#12263f"/>
  </g>
</svg>
