<svg xmlns="http://www.w3.org/2000/svg" xmlns:xlink="http://www.w3.org/1999/xlink" width="616" height="219.257" viewBox="0 0 616 219.257">
  <defs>
    <clipPath id="clip-path">
      <rect id="Rectángulo_5138" data-name="Rectángulo 5138" width="378.994" height="97.544" fill="none"/>
    </clipPath>
  </defs>
  <g id="Grupo_54077" data-name="Grupo 54077" transform="translate(-487.872 -4218.569)">
    <rect id="Rectángulo_5136" data-name="Rectángulo 5136" width="236.894" height="67.558" transform="translate(866.979 4218.569)" fill="#86bec4"/>
    <g id="Grupo_53912" data-name="Grupo 53912" transform="translate(888.712 4224.715)">
      <path id="Trazado_101831" data-name="Trazado 101831" d="M878.558,4357.94a2.24,2.24,0,0,0-.788-1.79,7.984,7.984,0,0,0-2.761-1.27,15.675,15.675,0,0,1-5.2-2.358,4.463,4.463,0,0,1-1.762-3.734,4.624,4.624,0,0,1,2.02-3.873,8.408,8.408,0,0,1,5.159-1.5,7.75,7.75,0,0,1,5.177,1.688,5.058,5.058,0,0,1,1.934,4.165l-.026.08h-3.748a2.81,2.81,0,0,0-.894-2.164,3.555,3.555,0,0,0-2.51-.828,3.716,3.716,0,0,0-2.4.688,2.173,2.173,0,0,0-.848,1.762,1.891,1.891,0,0,0,.907,1.608,12.475,12.475,0,0,0,3.133,1.33,12.191,12.191,0,0,1,4.833,2.344,4.874,4.874,0,0,1,1.643,3.828,4.588,4.588,0,0,1-1.953,3.908,8.551,8.551,0,0,1-5.159,1.43,9.431,9.431,0,0,1-5.5-1.622,5.067,5.067,0,0,1-2.277-4.549l.026-.08h3.762a2.967,2.967,0,0,0,1.052,2.521,4.749,4.749,0,0,0,2.934.8,3.849,3.849,0,0,0,2.41-.65A2.082,2.082,0,0,0,878.558,4357.94Z" transform="translate(-867.538 -4343.411)" fill="#fff"/>
      <path id="Trazado_101832" data-name="Trazado 101832" d="M889.031,4362.966h-3.867v-19.284h3.867Z" transform="translate(-867.112 -4343.405)" fill="#fff"/>
      <path id="Trazado_101833" data-name="Trazado 101833" d="M903.126,4357.94a2.24,2.24,0,0,0-.788-1.79,7.974,7.974,0,0,0-2.761-1.27,15.685,15.685,0,0,1-5.2-2.358,4.465,4.465,0,0,1-1.762-3.734,4.626,4.626,0,0,1,2.02-3.873,8.408,8.408,0,0,1,5.159-1.5,7.754,7.754,0,0,1,5.178,1.688,5.06,5.06,0,0,1,1.933,4.165l-.026.08h-3.748a2.813,2.813,0,0,0-.893-2.164,3.557,3.557,0,0,0-2.51-.828,3.716,3.716,0,0,0-2.4.688,2.17,2.17,0,0,0-.848,1.762,1.892,1.892,0,0,0,.906,1.608,12.493,12.493,0,0,0,3.133,1.33,12.2,12.2,0,0,1,4.834,2.344,4.877,4.877,0,0,1,1.642,3.828,4.585,4.585,0,0,1-1.953,3.908,8.546,8.546,0,0,1-5.159,1.43,9.426,9.426,0,0,1-5.5-1.622,5.066,5.066,0,0,1-2.278-4.549l.026-.08H895.9a2.964,2.964,0,0,0,1.053,2.521,4.744,4.744,0,0,0,2.933.8,3.85,3.85,0,0,0,2.41-.65A2.082,2.082,0,0,0,903.126,4357.94Z" transform="translate(-866.944 -4343.411)" fill="#fff"/>
      <path id="Trazado_101834" data-name="Trazado 101834" d="M922.856,4346.663H917.4v16.3h-3.866v-16.3H908.1v-2.981h14.752Z" transform="translate(-866.558 -4343.405)" fill="#fff"/>
      <path id="Trazado_101835" data-name="Trazado 101835" d="M936.47,4354.49h-7.986v5.5h9.336v2.981h-13.2v-19.284h13.177v2.981h-9.311v4.847h7.986Z" transform="translate(-866.159 -4343.405)" fill="#fff"/>
      <path id="Trazado_101836" data-name="Trazado 101836" d="M944.869,4343.682l4.913,14.21h.08l4.953-14.21h5.058v19.284h-3.866v-5.75l.37-8.515-.079-.013-5.165,14.277h-2.6l-5.139-14.225-.08.014.371,8.46v5.75h-3.866v-19.284Z" transform="translate(-865.792 -4343.405)" fill="#fff"/>
      <path id="Trazado_101837" data-name="Trazado 101837" d="M973.312,4358.807h-6.767l-1.312,4.159h-3.906l6.635-19.284h3.96l6.608,19.284h-3.907Zm-5.814-3.033h4.861l-2.384-7.575H969.9Z" transform="translate(-865.272 -4343.405)" fill="#fff"/>
      <path id="Trazado_101838" data-name="Trazado 101838" d="M872.234,4394.745h-3.867v-19.283h3.867Z" transform="translate(-867.518 -4342.637)" fill="#fff"/>
      <path id="Trazado_101839" data-name="Trazado 101839" d="M891.494,4394.745H887.64l-7.788-13.178-.08.013v13.165h-3.866v-19.283h3.866l7.788,13.164.08-.014v-13.15h3.854Z" transform="translate(-867.336 -4342.637)" fill="#fff"/>
      <path id="Trazado_101840" data-name="Trazado 101840" d="M908.012,4378.442h-5.456v16.3h-3.867v-16.3h-5.43v-2.98h14.753Z" transform="translate(-866.917 -4342.637)" fill="#fff"/>
      <path id="Trazado_101841" data-name="Trazado 101841" d="M921.625,4386.27h-7.985v5.494h9.336v2.98h-13.2v-19.283h13.177v2.98h-9.31v4.846h7.985Z" transform="translate(-866.518 -4342.637)" fill="#fff"/>
      <path id="Trazado_101842" data-name="Trazado 101842" d="M928.845,4387.038v7.707h-3.867v-19.283h7.271a8,8,0,0,1,5.159,1.5,5.084,5.084,0,0,1,1.86,4.19,4.24,4.24,0,0,1-.78,2.568,5.459,5.459,0,0,1-2.292,1.736,4.14,4.14,0,0,1,2.457,1.683,5.327,5.327,0,0,1,.749,2.913v1.417a7.03,7.03,0,0,0,.218,1.69,2.327,2.327,0,0,0,.749,1.3v.278h-3.986a2.176,2.176,0,0,1-.689-1.418,11.958,11.958,0,0,1-.159-1.88v-1.364a3.063,3.063,0,0,0-.789-2.244,2.965,2.965,0,0,0-2.218-.8Zm0-2.981h3.337a3.655,3.655,0,0,0,2.43-.688,2.545,2.545,0,0,0,.8-2.041,2.81,2.81,0,0,0-.8-2.106,3.258,3.258,0,0,0-2.364-.78h-3.4Z" transform="translate(-866.15 -4342.637)" fill="#fff"/>
      <path id="Trazado_101843" data-name="Trazado 101843" d="M958.075,4394.745h-3.854l-7.788-13.178-.08.013v13.165h-3.866v-19.283h3.866l7.788,13.164.08-.014v-13.15h3.854Z" transform="translate(-865.727 -4342.637)" fill="#fff"/>
      <path id="Trazado_101844" data-name="Trazado 101844" d="M971.619,4390.586h-6.768l-1.311,4.159h-3.907l6.636-19.283h3.959l6.608,19.283H972.93Zm-5.814-3.033h4.861l-2.384-7.575H968.2Z" transform="translate(-865.313 -4342.637)" fill="#fff"/>
      <path id="Trazado_101845" data-name="Trazado 101845" d="M992.757,4388.182l.026.08a6.276,6.276,0,0,1-1.9,4.938,7.627,7.627,0,0,1-5.423,1.828,7.525,7.525,0,0,1-5.654-2.238,7.928,7.928,0,0,1-2.173-5.761V4383.2a8.065,8.065,0,0,1,2.12-5.761,7.215,7.215,0,0,1,5.509-2.253,8,8,0,0,1,5.589,1.834,6.276,6.276,0,0,1,1.96,5l-.028.08h-3.76a4.218,4.218,0,0,0-.915-2.92,3.658,3.658,0,0,0-2.847-1.013,3.231,3.231,0,0,0-2.755,1.408,5.975,5.975,0,0,0-1.019,3.593v3.851a5.811,5.811,0,0,0,1.072,3.618,3.458,3.458,0,0,0,2.9,1.408,3.414,3.414,0,0,0,2.681-.972,4.233,4.233,0,0,0,.869-2.895Z" transform="translate(-864.878 -4342.643)" fill="#fff"/>
      <path id="Trazado_101846" data-name="Trazado 101846" d="M999.216,4394.745h-3.868v-19.283h3.868Z" transform="translate(-864.45 -4342.637)" fill="#fff"/>
      <path id="Trazado_101847" data-name="Trazado 101847" d="M1018.409,4386.843a8.089,8.089,0,0,1-2.244,5.868,7.758,7.758,0,0,1-5.835,2.318,7.656,7.656,0,0,1-5.786-2.318,8.13,8.13,0,0,1-2.226-5.868v-3.468a8.15,8.15,0,0,1,2.218-5.86,7.625,7.625,0,0,1,5.781-2.325,7.764,7.764,0,0,1,5.84,2.325,8.081,8.081,0,0,1,2.251,5.86Zm-3.866-3.486a5.848,5.848,0,0,0-1.127-3.7,3.708,3.708,0,0,0-3.1-1.446,3.61,3.61,0,0,0-3.06,1.438,5.99,5.99,0,0,0-1.086,3.708v3.5a6.013,6.013,0,0,0,1.1,3.74,3.624,3.624,0,0,0,3.059,1.446,3.689,3.689,0,0,0,3.1-1.446,5.967,5.967,0,0,0,1.112-3.74Z" transform="translate(-864.281 -4342.643)" fill="#fff"/>
      <path id="Trazado_101848" data-name="Trazado 101848" d="M1036.565,4394.745h-3.854l-7.786-13.178-.08.013v13.165h-3.867v-19.283h3.867l7.787,13.164.08-.014v-13.15h3.854Z" transform="translate(-863.83 -4342.637)" fill="#fff"/>
      <path id="Trazado_101849" data-name="Trazado 101849" d="M1050.109,4390.586h-6.768l-1.311,4.159h-3.906l6.635-19.283h3.959l6.609,19.283h-3.907Zm-5.814-3.033h4.861l-2.384-7.575h-.079Z" transform="translate(-863.416 -4342.637)" fill="#fff"/>
      <path id="Trazado_101850" data-name="Trazado 101850" d="M1060.546,4391.764h8.583v2.98h-12.45v-19.283h3.867Z" transform="translate(-862.968 -4342.637)" fill="#fff"/>
    </g>
    <g id="Grupo_53962" data-name="Grupo 53962" transform="translate(487.872 4340.282)">
      <g id="Grupo_53961" data-name="Grupo 53961" clip-path="url(#clip-path)">
        <g id="Grupo_53960" data-name="Grupo 53960" transform="translate(0 -0.484)">
          <rect id="Rectángulo_5137" data-name="Rectángulo 5137" width="527.41" height="97.544" transform="translate(0 0.484)" fill="#f7f1d7"/>
          <g id="Grupo_53959" data-name="Grupo 53959" transform="translate(11.296)">
            <g id="Grupo_53954" data-name="Grupo 53954" transform="translate(3.297)">
              <g id="Grupo_53913" data-name="Grupo 53913">
                <path id="Trazado_101851" data-name="Trazado 101851" d="M503.351,4400.885a1.23,1.23,0,0,1-1.23-1.23v-61.488a1.23,1.23,0,0,1,2.46,0v61.488A1.23,1.23,0,0,1,503.351,4400.885Z" transform="translate(-502.121 -4336.938)" fill="#8c757e"/>
              </g>
              <g id="Grupo_53914" data-name="Grupo 53914" transform="translate(245.954)">
                <path id="Trazado_101852" data-name="Trazado 101852" d="M743.5,4400.885a1.23,1.23,0,0,1-1.23-1.23v-61.488a1.229,1.229,0,1,1,2.459,0v61.488A1.229,1.229,0,0,1,743.5,4400.885Z" transform="translate(-742.272 -4336.938)" fill="#8c757e"/>
              </g>
              <g id="Grupo_53915" data-name="Grupo 53915" transform="translate(123.285 0.307)">
                <path id="Trazado_101853" data-name="Trazado 101853" d="M623.419,4382.124a.922.922,0,0,1-.922-.922V4338.16a.922.922,0,1,1,1.844,0V4381.2A.923.923,0,0,1,623.419,4382.124Z" transform="translate(-622.497 -4337.238)" fill="#8c757e"/>
              </g>
              <g id="Grupo_53916" data-name="Grupo 53916" transform="translate(99.15 0.768)">
                <path id="Trazado_101854" data-name="Trazado 101854" d="M599.393,4363.206a.462.462,0,0,1-.461-.462v-24.595a.461.461,0,1,1,.922,0v24.595A.461.461,0,0,1,599.393,4363.206Z" transform="translate(-598.932 -4337.688)" fill="#8c757e"/>
              </g>
              <g id="Grupo_53917" data-name="Grupo 53917" transform="translate(74.555 0.768)">
                <path id="Trazado_101855" data-name="Trazado 101855" d="M575.378,4363.206a.462.462,0,0,1-.461-.462v-24.595a.461.461,0,1,1,.922,0v24.595A.461.461,0,0,1,575.378,4363.206Z" transform="translate(-574.917 -4337.688)" fill="#8c757e"/>
              </g>
              <g id="Grupo_53918" data-name="Grupo 53918" transform="translate(49.96 0.768)">
                <path id="Trazado_101856" data-name="Trazado 101856" d="M551.363,4363.206a.461.461,0,0,1-.461-.462v-24.595a.461.461,0,1,1,.922,0v24.595A.461.461,0,0,1,551.363,4363.206Z" transform="translate(-550.902 -4337.688)" fill="#8c757e"/>
              </g>
              <g id="Grupo_53919" data-name="Grupo 53919" transform="translate(25.364 0.768)">
                <path id="Trazado_101857" data-name="Trazado 101857" d="M527.348,4363.206a.461.461,0,0,1-.461-.462v-24.595a.461.461,0,1,1,.922,0v24.595A.462.462,0,0,1,527.348,4363.206Z" transform="translate(-526.887 -4337.688)" fill="#8c757e"/>
              </g>
              <g id="Grupo_53920" data-name="Grupo 53920" transform="translate(86.852 0.768)">
                <path id="Trazado_101858" data-name="Trazado 101858" d="M587.386,4353.368a.462.462,0,0,1-.462-.462v-14.757a.461.461,0,1,1,.923,0v14.757A.462.462,0,0,1,587.386,4353.368Z" transform="translate(-586.924 -4337.688)" fill="#8c757e"/>
              </g>
              <g id="Grupo_53921" data-name="Grupo 53921" transform="translate(111.447 0.768)">
                <path id="Trazado_101859" data-name="Trazado 101859" d="M611.4,4353.368a.462.462,0,0,1-.462-.462v-14.757a.461.461,0,1,1,.923,0v14.757A.462.462,0,0,1,611.4,4353.368Z" transform="translate(-610.939 -4337.688)" fill="#8c757e"/>
              </g>
              <g id="Grupo_53922" data-name="Grupo 53922" transform="translate(62.257 0.768)">
                <path id="Trazado_101860" data-name="Trazado 101860" d="M563.371,4353.368a.462.462,0,0,1-.462-.462v-14.757a.461.461,0,1,1,.923,0v14.757A.462.462,0,0,1,563.371,4353.368Z" transform="translate(-562.909 -4337.688)" fill="#8c757e"/>
              </g>
              <g id="Grupo_53923" data-name="Grupo 53923" transform="translate(37.662 0.768)">
                <path id="Trazado_101861" data-name="Trazado 101861" d="M539.355,4353.368a.462.462,0,0,1-.461-.462v-14.757a.461.461,0,1,1,.923,0v14.757A.462.462,0,0,1,539.355,4353.368Z" transform="translate(-538.894 -4337.688)" fill="#8c757e"/>
              </g>
              <g id="Grupo_53924" data-name="Grupo 53924" transform="translate(13.066 0.768)">
                <path id="Trazado_101862" data-name="Trazado 101862" d="M515.34,4353.368a.462.462,0,0,1-.461-.462v-14.757a.461.461,0,1,1,.923,0v14.757A.462.462,0,0,1,515.34,4353.368Z" transform="translate(-514.879 -4337.688)" fill="#8c757e"/>
              </g>
              <g id="Grupo_53925" data-name="Grupo 53925" transform="translate(222.127 0.768)">
                <path id="Trazado_101863" data-name="Trazado 101863" d="M719.469,4363.206a.462.462,0,0,1-.462-.462v-24.595a.461.461,0,1,1,.923,0v24.595A.462.462,0,0,1,719.469,4363.206Z" transform="translate(-719.007 -4337.688)" fill="#8c757e"/>
              </g>
              <g id="Grupo_53926" data-name="Grupo 53926" transform="translate(197.531 0.768)">
                <path id="Trazado_101864" data-name="Trazado 101864" d="M695.453,4363.206a.462.462,0,0,1-.461-.462v-24.595a.461.461,0,1,1,.923,0v24.595A.462.462,0,0,1,695.453,4363.206Z" transform="translate(-694.992 -4337.688)" fill="#8c757e"/>
              </g>
              <g id="Grupo_53927" data-name="Grupo 53927" transform="translate(172.936 0.768)">
                <path id="Trazado_101865" data-name="Trazado 101865" d="M671.438,4363.206a.462.462,0,0,1-.461-.462v-24.595a.461.461,0,1,1,.923,0v24.595A.462.462,0,0,1,671.438,4363.206Z" transform="translate(-670.977 -4337.688)" fill="#8c757e"/>
              </g>
              <g id="Grupo_53928" data-name="Grupo 53928" transform="translate(148.341 0.768)">
                <path id="Trazado_101866" data-name="Trazado 101866" d="M647.423,4363.206a.462.462,0,0,1-.461-.462v-24.595a.461.461,0,1,1,.923,0v24.595A.462.462,0,0,1,647.423,4363.206Z" transform="translate(-646.962 -4337.688)" fill="#8c757e"/>
              </g>
              <g id="Grupo_53929" data-name="Grupo 53929" transform="translate(209.83 0.768)">
                <path id="Trazado_101867" data-name="Trazado 101867" d="M707.461,4353.368a.461.461,0,0,1-.461-.462v-14.757a.461.461,0,1,1,.922,0v14.757A.461.461,0,0,1,707.461,4353.368Z" transform="translate(-707 -4337.688)" fill="#8c757e"/>
              </g>
              <g id="Grupo_53930" data-name="Grupo 53930" transform="translate(234.425 0.768)">
                <path id="Trazado_101868" data-name="Trazado 101868" d="M731.476,4353.368a.462.462,0,0,1-.461-.462v-14.757a.461.461,0,1,1,.922,0v14.757A.461.461,0,0,1,731.476,4353.368Z" transform="translate(-731.015 -4337.688)" fill="#8c757e"/>
              </g>
              <g id="Grupo_53931" data-name="Grupo 53931" transform="translate(185.234 0.768)">
                <path id="Trazado_101869" data-name="Trazado 101869" d="M683.446,4353.368a.461.461,0,0,1-.461-.462v-14.757a.461.461,0,1,1,.922,0v14.757A.462.462,0,0,1,683.446,4353.368Z" transform="translate(-682.985 -4337.688)" fill="#8c757e"/>
              </g>
              <g id="Grupo_53932" data-name="Grupo 53932" transform="translate(160.639 0.768)">
                <path id="Trazado_101870" data-name="Trazado 101870" d="M659.431,4353.368a.461.461,0,0,1-.461-.462v-14.757a.461.461,0,1,1,.922,0v14.757A.462.462,0,0,1,659.431,4353.368Z" transform="translate(-658.97 -4337.688)" fill="#8c757e"/>
              </g>
              <g id="Grupo_53933" data-name="Grupo 53933" transform="translate(136.043 0.768)">
                <path id="Trazado_101871" data-name="Trazado 101871" d="M635.416,4353.368a.462.462,0,0,1-.462-.462v-14.757a.461.461,0,1,1,.923,0v14.757A.462.462,0,0,1,635.416,4353.368Z" transform="translate(-634.954 -4337.688)" fill="#8c757e"/>
              </g>
              <g id="Grupo_53934" data-name="Grupo 53934" transform="translate(491.908)">
                <path id="Trazado_101872" data-name="Trazado 101872" d="M983.652,4400.885a1.229,1.229,0,0,1-1.229-1.23v-61.488a1.229,1.229,0,1,1,2.459,0v61.488A1.23,1.23,0,0,1,983.652,4400.885Z" transform="translate(-982.423 -4336.938)" fill="#8c757e"/>
              </g>
              <g id="Grupo_53935" data-name="Grupo 53935" transform="translate(369.238 0.307)">
                <path id="Trazado_101873" data-name="Trazado 101873" d="M863.57,4382.124a.923.923,0,0,1-.923-.922V4338.16a.923.923,0,0,1,1.846,0V4381.2A.923.923,0,0,1,863.57,4382.124Z" transform="translate(-862.647 -4337.238)" fill="#8c757e"/>
              </g>
              <g id="Grupo_53936" data-name="Grupo 53936" transform="translate(345.104 0.768)">
                <path id="Trazado_101874" data-name="Trazado 101874" d="M839.544,4363.206a.461.461,0,0,1-.461-.462v-24.595a.461.461,0,1,1,.922,0v24.595A.462.462,0,0,1,839.544,4363.206Z" transform="translate(-839.083 -4337.688)" fill="#8c757e"/>
              </g>
              <g id="Grupo_53937" data-name="Grupo 53937" transform="translate(320.509 0.768)">
                <path id="Trazado_101875" data-name="Trazado 101875" d="M815.529,4363.206a.461.461,0,0,1-.461-.462v-24.595a.461.461,0,1,1,.922,0v24.595A.462.462,0,0,1,815.529,4363.206Z" transform="translate(-815.068 -4337.688)" fill="#8c757e"/>
              </g>
              <g id="Grupo_53938" data-name="Grupo 53938" transform="translate(295.913 0.768)">
                <path id="Trazado_101876" data-name="Trazado 101876" d="M791.514,4363.206a.462.462,0,0,1-.462-.462v-24.595a.461.461,0,1,1,.923,0v24.595A.462.462,0,0,1,791.514,4363.206Z" transform="translate(-791.052 -4337.688)" fill="#8c757e"/>
              </g>
              <g id="Grupo_53939" data-name="Grupo 53939" transform="translate(271.317 0.768)">
                <path id="Trazado_101877" data-name="Trazado 101877" d="M767.5,4363.206a.462.462,0,0,1-.462-.462v-24.595a.461.461,0,1,1,.923,0v24.595A.462.462,0,0,1,767.5,4363.206Z" transform="translate(-767.037 -4337.688)" fill="#8c757e"/>
              </g>
              <g id="Grupo_53940" data-name="Grupo 53940" transform="translate(332.806 0.768)">
                <path id="Trazado_101878" data-name="Trazado 101878" d="M827.536,4353.368a.462.462,0,0,1-.461-.462v-14.757a.461.461,0,1,1,.923,0v14.757A.462.462,0,0,1,827.536,4353.368Z" transform="translate(-827.075 -4337.688)" fill="#8c757e"/>
              </g>
              <g id="Grupo_53941" data-name="Grupo 53941" transform="translate(357.401 0.768)">
                <path id="Trazado_101879" data-name="Trazado 101879" d="M851.551,4353.368a.462.462,0,0,1-.461-.462v-14.757a.461.461,0,1,1,.923,0v14.757A.462.462,0,0,1,851.551,4353.368Z" transform="translate(-851.09 -4337.688)" fill="#8c757e"/>
              </g>
              <g id="Grupo_53942" data-name="Grupo 53942" transform="translate(308.211 0.768)">
                <path id="Trazado_101880" data-name="Trazado 101880" d="M803.521,4353.368a.462.462,0,0,1-.461-.462v-14.757a.461.461,0,1,1,.923,0v14.757A.462.462,0,0,1,803.521,4353.368Z" transform="translate(-803.06 -4337.688)" fill="#8c757e"/>
              </g>
              <g id="Grupo_53943" data-name="Grupo 53943" transform="translate(283.615 0.768)">
                <path id="Trazado_101881" data-name="Trazado 101881" d="M779.506,4353.368a.462.462,0,0,1-.461-.462v-14.757a.461.461,0,1,1,.923,0v14.757A.462.462,0,0,1,779.506,4353.368Z" transform="translate(-779.045 -4337.688)" fill="#8c757e"/>
              </g>
              <g id="Grupo_53944" data-name="Grupo 53944" transform="translate(259.02 0.768)">
                <path id="Trazado_101882" data-name="Trazado 101882" d="M755.491,4353.368a.462.462,0,0,1-.461-.462v-14.757a.461.461,0,1,1,.922,0v14.757A.461.461,0,0,1,755.491,4353.368Z" transform="translate(-755.03 -4337.688)" fill="#8c757e"/>
              </g>
              <g id="Grupo_53945" data-name="Grupo 53945" transform="translate(468.081 0.768)">
                <path id="Trazado_101883" data-name="Trazado 101883" d="M959.619,4363.206a.462.462,0,0,1-.461-.462v-24.595a.461.461,0,1,1,.923,0v24.595A.462.462,0,0,1,959.619,4363.206Z" transform="translate(-959.158 -4337.688)" fill="#8c757e"/>
              </g>
              <g id="Grupo_53946" data-name="Grupo 53946" transform="translate(443.485 0.768)">
                <path id="Trazado_101884" data-name="Trazado 101884" d="M935.6,4363.206a.462.462,0,0,1-.461-.462v-24.595a.461.461,0,1,1,.923,0v24.595A.462.462,0,0,1,935.6,4363.206Z" transform="translate(-935.143 -4337.688)" fill="#8c757e"/>
              </g>
              <g id="Grupo_53947" data-name="Grupo 53947" transform="translate(418.89 0.768)">
                <path id="Trazado_101885" data-name="Trazado 101885" d="M911.589,4363.206a.462.462,0,0,1-.461-.462v-24.595a.461.461,0,1,1,.922,0v24.595A.461.461,0,0,1,911.589,4363.206Z" transform="translate(-911.128 -4337.688)" fill="#8c757e"/>
              </g>
              <g id="Grupo_53948" data-name="Grupo 53948" transform="translate(394.295 0.768)">
                <path id="Trazado_101886" data-name="Trazado 101886" d="M887.574,4363.206a.462.462,0,0,1-.461-.462v-24.595a.461.461,0,1,1,.922,0v24.595A.461.461,0,0,1,887.574,4363.206Z" transform="translate(-887.113 -4337.688)" fill="#8c757e"/>
              </g>
              <g id="Grupo_53949" data-name="Grupo 53949" transform="translate(455.784 0.768)">
                <path id="Trazado_101887" data-name="Trazado 101887" d="M947.612,4353.368a.461.461,0,0,1-.461-.462v-14.757a.461.461,0,1,1,.922,0v14.757A.462.462,0,0,1,947.612,4353.368Z" transform="translate(-947.151 -4337.688)" fill="#8c757e"/>
              </g>
              <g id="Grupo_53950" data-name="Grupo 53950" transform="translate(480.379 0.768)">
                <path id="Trazado_101888" data-name="Trazado 101888" d="M971.627,4353.368a.461.461,0,0,1-.461-.462v-14.757a.461.461,0,1,1,.922,0v14.757A.462.462,0,0,1,971.627,4353.368Z" transform="translate(-971.166 -4337.688)" fill="#8c757e"/>
              </g>
              <g id="Grupo_53951" data-name="Grupo 53951" transform="translate(431.187 0.768)">
                <path id="Trazado_101889" data-name="Trazado 101889" d="M923.6,4353.368a.462.462,0,0,1-.462-.462v-14.757a.461.461,0,1,1,.923,0v14.757A.462.462,0,0,1,923.6,4353.368Z" transform="translate(-923.135 -4337.688)" fill="#8c757e"/>
              </g>
              <g id="Grupo_53952" data-name="Grupo 53952" transform="translate(406.592 0.768)">
                <path id="Trazado_101890" data-name="Trazado 101890" d="M899.582,4353.368a.462.462,0,0,1-.462-.462v-14.757a.461.461,0,1,1,.923,0v14.757A.462.462,0,0,1,899.582,4353.368Z" transform="translate(-899.12 -4337.688)" fill="#8c757e"/>
              </g>
              <g id="Grupo_53953" data-name="Grupo 53953" transform="translate(381.997 0.768)">
                <path id="Trazado_101891" data-name="Trazado 101891" d="M875.567,4353.368a.462.462,0,0,1-.462-.462v-14.757a.461.461,0,1,1,.923,0v14.757A.462.462,0,0,1,875.567,4353.368Z" transform="translate(-875.105 -4337.688)" fill="#8c757e"/>
              </g>
            </g>
            <g id="Grupo_53955" data-name="Grupo 53955" transform="translate(0 66.572)">
              <path id="Trazado_101892" data-name="Trazado 101892" d="M498.9,4409.224c0-4.738,1.705-7.285,4.54-7.285,2.811,0,4.517,2.547,4.517,7.285s-1.705,7.373-4.517,7.373C500.607,4416.6,498.9,4413.963,498.9,4409.224Zm7.285,0c0-4.141-1.107-5.823-2.745-5.823-1.661,0-2.768,1.682-2.768,5.823s1.107,5.913,2.768,5.913C505.08,4415.137,506.187,4413.365,506.187,4409.224Z" transform="translate(-498.902 -4401.939)" fill="#8c757e"/>
            </g>
            <g id="Grupo_53956" data-name="Grupo 53956" transform="translate(99.016 48.182)">
              <path id="Trazado_101893" data-name="Trazado 101893" d="M595.582,4385.59a1.266,1.266,0,0,1,2.525,0,1.266,1.266,0,0,1-2.525,0Zm.333,3.388h1.815v10.761h-1.815Z" transform="translate(-595.582 -4383.973)" fill="#8c757e"/>
              <path id="Trazado_101894" data-name="Trazado 101894" d="M601.223,4388.876h1.506l.155,1.549h.066a5.078,5.078,0,0,1,3.609-1.816c2.259,0,3.277,1.462,3.277,4.208v6.82H608.02v-6.576c0-2.016-.62-2.879-2.037-2.879-1.107,0-1.86.576-2.944,1.662v7.793h-1.816Z" transform="translate(-595.446 -4383.871)" fill="#8c757e"/>
              <path id="Trazado_101895" data-name="Trazado 101895" d="M617.447,4388.609a4.445,4.445,0,0,1,3.146,1.284l-.908,1.174a3.258,3.258,0,0,0-2.17-.952c-1.949,0-3.366,1.683-3.366,4.163,0,2.457,1.351,4.118,3.322,4.118a3.836,3.836,0,0,0,2.523-1.084l.819,1.2a5.324,5.324,0,0,1-3.5,1.4c-2.856,0-5.048-2.059-5.048-5.624C612.267,4390.669,614.681,4388.609,617.447,4388.609Z" transform="translate(-595.179 -4383.871)" fill="#8c757e"/>
              <path id="Trazado_101896" data-name="Trazado 101896" d="M622.9,4383.982h1.816v4.3l-.067,2.214a5.149,5.149,0,0,1,3.587-1.772c2.259,0,3.277,1.462,3.277,4.208v6.82H629.7v-6.576c0-2.016-.62-2.879-2.037-2.879-1.107,0-1.86.576-2.944,1.662v7.793H622.9Z" transform="translate(-594.922 -4383.982)" fill="#8c757e"/>
              <path id="Trazado_101897" data-name="Trazado 101897" d="M638.708,4388.609c2.746,0,4.294,1.971,4.294,5.049a6.446,6.446,0,0,1-.065,1h-7.262c.132,2.326,1.528,3.786,3.587,3.786a4.868,4.868,0,0,0,2.679-.84l.642,1.2a6.406,6.406,0,0,1-3.543,1.107c-2.879,0-5.16-2.1-5.16-5.624S636.25,4388.609,638.708,4388.609Zm2.7,4.85c0-2.193-.974-3.411-2.658-3.411-1.5,0-2.877,1.24-3.1,3.411Z" transform="translate(-594.657 -4383.871)" fill="#8c757e"/>
              <path id="Trazado_101898" data-name="Trazado 101898" d="M645.119,4397.2a4.839,4.839,0,0,0,3.167,1.283c1.416,0,2.125-.752,2.125-1.683,0-1.107-1.284-1.593-2.458-2.036-1.528-.554-3.21-1.284-3.21-3.1,0-1.728,1.372-3.057,3.7-3.057a5.379,5.379,0,0,1,3.344,1.218l-.864,1.152a3.994,3.994,0,0,0-2.458-.952c-1.35,0-1.97.73-1.97,1.549,0,1.019,1.174,1.4,2.392,1.86,1.549.577,3.276,1.217,3.276,3.255,0,1.748-1.395,3.21-3.942,3.21a6.481,6.481,0,0,1-4.008-1.483Z" transform="translate(-594.407 -4383.871)" fill="#8c757e"/>
            </g>
            <g id="Grupo_53957" data-name="Grupo 53957" transform="translate(246.73 66.838)">
              <path id="Trazado_101899" data-name="Trazado 101899" d="M739.811,4414.82h3.231v-10.408h-2.568v-1.173a8.44,8.44,0,0,0,2.99-1.04h1.394v12.621h2.923v1.505h-7.97Z" transform="translate(-739.811 -4402.199)" fill="#8c757e"/>
            </g>
            <g id="Grupo_53958" data-name="Grupo 53958" transform="translate(491.733 66.572)">
              <path id="Trazado_101900" data-name="Trazado 101900" d="M979.121,4415.247c4.251-4.229,6.643-6.776,6.643-9.057a2.5,2.5,0,0,0-2.679-2.767,4.166,4.166,0,0,0-3.012,1.7l-1.039-1.04a5.543,5.543,0,0,1,4.273-2.148,3.925,3.925,0,0,1,4.23,4.163c0,2.657-2.414,5.292-5.758,8.791.775-.066,1.639-.133,2.37-.133h4.1v1.572h-9.123Z" transform="translate(-979.033 -4401.939)" fill="#8c757e"/>
            </g>
          </g>
        </g>
      </g>
    </g>
    <rect id="Rectángulo_5139" data-name="Rectángulo 5139" width="168.853" height="67.558" transform="translate(866.866 4340.282)" fill="#ff9696"/>
    <g id="Grupo_53963" data-name="Grupo 53963" transform="translate(890.648 4348.683)">
      <path id="Trazado_101901" data-name="Trazado 101901" d="M880.558,4241.3a2.236,2.236,0,0,0-.788-1.787,7.956,7.956,0,0,0-2.761-1.271,15.7,15.7,0,0,1-5.2-2.358,4.467,4.467,0,0,1-1.762-3.735,4.626,4.626,0,0,1,2.02-3.874,8.417,8.417,0,0,1,5.159-1.5,7.745,7.745,0,0,1,5.177,1.689,5.053,5.053,0,0,1,1.934,4.164l-.026.08h-3.748a2.81,2.81,0,0,0-.894-2.165,3.555,3.555,0,0,0-2.51-.829,3.713,3.713,0,0,0-2.4.689,2.174,2.174,0,0,0-.848,1.762,1.892,1.892,0,0,0,.907,1.609,12.493,12.493,0,0,0,3.133,1.33,12.172,12.172,0,0,1,4.833,2.344,4.874,4.874,0,0,1,1.643,3.829,4.584,4.584,0,0,1-1.953,3.906,8.538,8.538,0,0,1-5.159,1.43,9.424,9.424,0,0,1-5.5-1.622,5.064,5.064,0,0,1-2.277-4.548l.026-.08h3.762a2.971,2.971,0,0,0,1.052,2.523,4.756,4.756,0,0,0,2.934.8,3.853,3.853,0,0,0,2.41-.65A2.086,2.086,0,0,0,880.558,4241.3Z" transform="translate(-869.538 -4226.771)" fill="#fff"/>
      <path id="Trazado_101902" data-name="Trazado 101902" d="M891.031,4246.325h-3.867v-19.282h3.867Z" transform="translate(-869.112 -4226.765)" fill="#fff"/>
      <path id="Trazado_101903" data-name="Trazado 101903" d="M905.126,4241.3a2.236,2.236,0,0,0-.788-1.787,7.946,7.946,0,0,0-2.761-1.271,15.715,15.715,0,0,1-5.2-2.358,4.47,4.47,0,0,1-1.762-3.735,4.629,4.629,0,0,1,2.02-3.874,8.417,8.417,0,0,1,5.159-1.5,7.75,7.75,0,0,1,5.178,1.689,5.055,5.055,0,0,1,1.933,4.164l-.026.08h-3.748a2.813,2.813,0,0,0-.893-2.165,3.557,3.557,0,0,0-2.51-.829,3.713,3.713,0,0,0-2.4.689,2.171,2.171,0,0,0-.848,1.762,1.894,1.894,0,0,0,.906,1.609,12.511,12.511,0,0,0,3.133,1.33,12.185,12.185,0,0,1,4.834,2.344,4.877,4.877,0,0,1,1.642,3.829,4.581,4.581,0,0,1-1.953,3.906,8.533,8.533,0,0,1-5.159,1.43,9.419,9.419,0,0,1-5.5-1.622,5.063,5.063,0,0,1-2.278-4.548l.026-.08H897.9a2.969,2.969,0,0,0,1.053,2.523,4.75,4.75,0,0,0,2.933.8,3.853,3.853,0,0,0,2.41-.65A2.086,2.086,0,0,0,905.126,4241.3Z" transform="translate(-868.944 -4226.771)" fill="#fff"/>
      <path id="Trazado_101904" data-name="Trazado 101904" d="M924.856,4230.022H919.4v16.3h-3.866v-16.3H910.1v-2.979h14.752Z" transform="translate(-868.558 -4226.765)" fill="#fff"/>
      <path id="Trazado_101905" data-name="Trazado 101905" d="M938.47,4237.85h-7.986v5.5h9.336v2.979h-13.2v-19.282h13.177v2.979h-9.311v4.846h7.986Z" transform="translate(-868.159 -4226.765)" fill="#fff"/>
      <path id="Trazado_101906" data-name="Trazado 101906" d="M946.869,4227.043l4.913,14.21h.08l4.953-14.21h5.058v19.282h-3.866v-5.748l.37-8.516-.079-.012-5.165,14.276h-2.6L945.4,4232.1l-.08.014.371,8.462v5.748h-3.866v-19.282Z" transform="translate(-867.791 -4226.765)" fill="#fff"/>
      <path id="Trazado_101907" data-name="Trazado 101907" d="M975.312,4242.166h-6.767l-1.312,4.159h-3.906l6.634-19.282h3.96l6.608,19.282h-3.907Zm-5.814-3.032h4.861l-2.384-7.576H971.9Z" transform="translate(-867.272 -4226.765)" fill="#fff"/>
      <path id="Trazado_101908" data-name="Trazado 101908" d="M874.234,4278.1h-3.867v-19.282h3.867Z" transform="translate(-869.518 -4225.997)" fill="#fff"/>
      <path id="Trazado_101909" data-name="Trazado 101909" d="M893.494,4278.1H889.64l-7.788-13.176-.08.013V4278.1h-3.866v-19.282h3.866l7.788,13.165.08-.014v-13.15h3.854Z" transform="translate(-869.336 -4225.997)" fill="#fff"/>
      <path id="Trazado_101910" data-name="Trazado 101910" d="M911.474,4275.476a7.309,7.309,0,0,1-2.682,2.027,10.511,10.511,0,0,1-4.6.887,7.889,7.889,0,0,1-5.774-2.2,7.645,7.645,0,0,1-2.239-5.707v-4.026a7.82,7.82,0,0,1,2.153-5.7,7.4,7.4,0,0,1,5.542-2.2,7.723,7.723,0,0,1,5.4,1.714,5.953,5.953,0,0,1,1.913,4.51l-.027.08h-3.642a3.717,3.717,0,0,0-.979-2.431,3.422,3.422,0,0,0-2.556-.894,3.47,3.47,0,0,0-2.861,1.369,5.5,5.5,0,0,0-1.087,3.525v4.049a5.429,5.429,0,0,0,1.127,3.566,3.721,3.721,0,0,0,3.033,1.37,6.948,6.948,0,0,0,2.171-.278,3.3,3.3,0,0,0,1.245-.687v-3.565H904.19v-2.675h7.284Z" transform="translate(-868.894 -4226.003)" fill="#fff"/>
      <path id="Trazado_101911" data-name="Trazado 101911" d="M918.224,4275.125h8.582v2.979H914.358v-19.282h3.866Z" transform="translate(-868.455 -4225.997)" fill="#fff"/>
      <path id="Trazado_101912" data-name="Trazado 101912" d="M940.538,4269.745h-7.985v5.5h9.336v2.979h-13.2v-19.282h13.177v2.979h-9.31v4.847h7.985Zm-4.979-15.707h4.093l.027.079-3.669,3.443h-3.086Z" transform="translate(-868.109 -4226.112)" fill="#fff"/>
      <path id="Trazado_101913" data-name="Trazado 101913" d="M954.315,4273.078a2.24,2.24,0,0,0-.787-1.787,8,8,0,0,0-2.762-1.271,15.726,15.726,0,0,1-5.2-2.358,4.466,4.466,0,0,1-1.76-3.734,4.628,4.628,0,0,1,2.019-3.874,8.416,8.416,0,0,1,5.16-1.5,7.744,7.744,0,0,1,5.177,1.688,5.052,5.052,0,0,1,1.934,4.164l-.027.081h-3.748a2.819,2.819,0,0,0-.893-2.167,3.557,3.557,0,0,0-2.51-.828,3.7,3.7,0,0,0-2.4.69,2.167,2.167,0,0,0-.848,1.76,1.892,1.892,0,0,0,.907,1.609,12.536,12.536,0,0,0,3.132,1.33,12.158,12.158,0,0,1,4.834,2.345,4.869,4.869,0,0,1,1.643,3.827,4.58,4.58,0,0,1-1.954,3.906,8.53,8.53,0,0,1-5.159,1.431,9.424,9.424,0,0,1-5.5-1.623,5.065,5.065,0,0,1-2.277-4.549l.026-.08h3.762a2.97,2.97,0,0,0,1.052,2.523,4.748,4.748,0,0,0,2.933.8,3.864,3.864,0,0,0,2.411-.648A2.088,2.088,0,0,0,954.315,4273.078Z" transform="translate(-867.756 -4226.003)" fill="#fff"/>
    </g>
    <g id="Grupo_54076" data-name="Grupo 54076" transform="translate(487.872 4218.569)">
      <g id="Grupo_54075" data-name="Grupo 54075" clip-path="url(#clip-path)">
        <g id="Grupo_54074" data-name="Grupo 54074">
          <rect id="Rectángulo_5140" data-name="Rectángulo 5140" width="527.41" height="97.544" fill="#f7f1d7"/>
          <g id="Grupo_54073" data-name="Grupo 54073" transform="translate(11.296 0.033)">
            <g id="Grupo_54065" data-name="Grupo 54065" transform="translate(2.886)">
              <g id="Grupo_53964" data-name="Grupo 53964">
                <path id="Trazado_101914" data-name="Trazado 101914" d="M502.95,4282.549a1.229,1.229,0,0,1-1.23-1.229v-61.489a1.23,1.23,0,0,1,2.46,0v61.489A1.229,1.229,0,0,1,502.95,4282.549Z" transform="translate(-501.72 -4218.601)" fill="#8c757e"/>
              </g>
              <g id="Grupo_53965" data-name="Grupo 53965" transform="translate(96.833)">
                <path id="Trazado_101915" data-name="Trazado 101915" d="M597.5,4282.549a1.229,1.229,0,0,1-1.229-1.229v-61.489a1.23,1.23,0,1,1,2.459,0v61.489A1.229,1.229,0,0,1,597.5,4282.549Z" transform="translate(-596.268 -4218.601)" fill="#8c757e"/>
              </g>
              <g id="Grupo_53966" data-name="Grupo 53966" transform="translate(48.724 0.307)">
                <path id="Trazado_101916" data-name="Trazado 101916" d="M550.217,4263.788a.922.922,0,0,1-.923-.923v-43.042a.922.922,0,1,1,1.844,0v43.042A.922.922,0,0,1,550.217,4263.788Z" transform="translate(-549.294 -4218.901)" fill="#8c757e"/>
              </g>
              <g id="Grupo_53967" data-name="Grupo 53967" transform="translate(39.502 0.769)">
                <path id="Trazado_101917" data-name="Trazado 101917" d="M540.751,4244.869a.46.46,0,0,1-.461-.461v-24.6a.461.461,0,1,1,.922,0v24.6A.461.461,0,0,1,540.751,4244.869Z" transform="translate(-540.29 -4219.352)" fill="#8c757e"/>
              </g>
              <g id="Grupo_53968" data-name="Grupo 53968" transform="translate(29.819 0.769)">
                <path id="Trazado_101918" data-name="Trazado 101918" d="M531.3,4244.869a.461.461,0,0,1-.461-.461v-24.6a.461.461,0,1,1,.922,0v24.6A.46.46,0,0,1,531.3,4244.869Z" transform="translate(-530.835 -4219.352)" fill="#8c757e"/>
              </g>
              <g id="Grupo_53969" data-name="Grupo 53969" transform="translate(20.135 0.769)">
                <path id="Trazado_101919" data-name="Trazado 101919" d="M521.841,4244.869a.461.461,0,0,1-.461-.461v-24.6a.461.461,0,0,1,.923,0v24.6A.461.461,0,0,1,521.841,4244.869Z" transform="translate(-521.38 -4219.352)" fill="#8c757e"/>
              </g>
              <g id="Grupo_53970" data-name="Grupo 53970" transform="translate(10.452 0.769)">
                <path id="Trazado_101920" data-name="Trazado 101920" d="M512.387,4244.869a.461.461,0,0,1-.462-.461v-24.6a.461.461,0,0,1,.923,0v24.6A.461.461,0,0,1,512.387,4244.869Z" transform="translate(-511.925 -4219.352)" fill="#8c757e"/>
              </g>
              <g id="Grupo_53971" data-name="Grupo 53971" transform="translate(34.66 0.769)">
                <path id="Trazado_101921" data-name="Trazado 101921" d="M536.023,4235.031a.461.461,0,0,1-.461-.461v-14.757a.461.461,0,0,1,.923,0v14.757A.461.461,0,0,1,536.023,4235.031Z" transform="translate(-535.562 -4219.352)" fill="#8c757e"/>
              </g>
              <g id="Grupo_53972" data-name="Grupo 53972" transform="translate(44.343 0.769)">
                <path id="Trazado_101922" data-name="Trazado 101922" d="M545.478,4235.031a.461.461,0,0,1-.461-.461v-14.757a.461.461,0,0,1,.923,0v14.757A.461.461,0,0,1,545.478,4235.031Z" transform="translate(-545.017 -4219.352)" fill="#8c757e"/>
              </g>
              <g id="Grupo_53973" data-name="Grupo 53973" transform="translate(24.976 0.769)">
                <path id="Trazado_101923" data-name="Trazado 101923" d="M526.569,4235.031a.461.461,0,0,1-.462-.461v-14.757a.461.461,0,0,1,.923,0v14.757A.461.461,0,0,1,526.569,4235.031Z" transform="translate(-526.107 -4219.352)" fill="#8c757e"/>
              </g>
              <g id="Grupo_53974" data-name="Grupo 53974" transform="translate(15.294 0.769)">
                <path id="Trazado_101924" data-name="Trazado 101924" d="M517.114,4235.031a.46.46,0,0,1-.461-.461v-14.757a.461.461,0,1,1,.922,0v14.757A.46.46,0,0,1,517.114,4235.031Z" transform="translate(-516.653 -4219.352)" fill="#8c757e"/>
              </g>
              <g id="Grupo_53975" data-name="Grupo 53975" transform="translate(5.61 0.769)">
                <path id="Trazado_101925" data-name="Trazado 101925" d="M507.659,4235.031a.461.461,0,0,1-.461-.461v-14.757a.461.461,0,1,1,.922,0v14.757A.46.46,0,0,1,507.659,4235.031Z" transform="translate(-507.198 -4219.352)" fill="#8c757e"/>
              </g>
              <g id="Grupo_53976" data-name="Grupo 53976" transform="translate(87.917 0.769)">
                <path id="Trazado_101926" data-name="Trazado 101926" d="M588.025,4244.869a.461.461,0,0,1-.462-.461v-24.6a.461.461,0,0,1,.923,0v24.6A.461.461,0,0,1,588.025,4244.869Z" transform="translate(-587.563 -4219.352)" fill="#8c757e"/>
              </g>
              <g id="Grupo_53977" data-name="Grupo 53977" transform="translate(78.235 0.769)">
                <path id="Trazado_101927" data-name="Trazado 101927" d="M578.57,4244.869a.46.46,0,0,1-.461-.461v-24.6a.461.461,0,1,1,.922,0v24.6A.461.461,0,0,1,578.57,4244.869Z" transform="translate(-578.109 -4219.352)" fill="#8c757e"/>
              </g>
              <g id="Grupo_53978" data-name="Grupo 53978" transform="translate(68.551 0.769)">
                <path id="Trazado_101928" data-name="Trazado 101928" d="M569.115,4244.869a.461.461,0,0,1-.461-.461v-24.6a.461.461,0,1,1,.922,0v24.6A.46.46,0,0,1,569.115,4244.869Z" transform="translate(-568.654 -4219.352)" fill="#8c757e"/>
              </g>
              <g id="Grupo_53979" data-name="Grupo 53979" transform="translate(58.868 0.769)">
                <path id="Trazado_101929" data-name="Trazado 101929" d="M559.66,4244.869a.461.461,0,0,1-.461-.461v-24.6a.461.461,0,0,1,.923,0v24.6A.461.461,0,0,1,559.66,4244.869Z" transform="translate(-559.199 -4219.352)" fill="#8c757e"/>
              </g>
              <g id="Grupo_53980" data-name="Grupo 53980" transform="translate(83.076 0.769)">
                <path id="Trazado_101930" data-name="Trazado 101930" d="M583.3,4235.031a.461.461,0,0,1-.461-.461v-14.757a.461.461,0,0,1,.923,0v14.757A.461.461,0,0,1,583.3,4235.031Z" transform="translate(-582.836 -4219.352)" fill="#8c757e"/>
              </g>
              <g id="Grupo_53981" data-name="Grupo 53981" transform="translate(92.76 0.769)">
                <path id="Trazado_101931" data-name="Trazado 101931" d="M592.752,4235.031a.46.46,0,0,1-.461-.461v-14.757a.461.461,0,1,1,.922,0v14.757A.46.46,0,0,1,592.752,4235.031Z" transform="translate(-592.291 -4219.352)" fill="#8c757e"/>
              </g>
              <g id="Grupo_53982" data-name="Grupo 53982" transform="translate(73.393 0.769)">
                <path id="Trazado_101932" data-name="Trazado 101932" d="M573.843,4235.031a.461.461,0,0,1-.462-.461v-14.757a.461.461,0,0,1,.923,0v14.757A.461.461,0,0,1,573.843,4235.031Z" transform="translate(-573.381 -4219.352)" fill="#8c757e"/>
              </g>
              <g id="Grupo_53983" data-name="Grupo 53983" transform="translate(63.71 0.769)">
                <path id="Trazado_101933" data-name="Trazado 101933" d="M564.388,4235.031a.46.46,0,0,1-.461-.461v-14.757a.461.461,0,1,1,.922,0v14.757A.461.461,0,0,1,564.388,4235.031Z" transform="translate(-563.927 -4219.352)" fill="#8c757e"/>
              </g>
              <g id="Grupo_53984" data-name="Grupo 53984" transform="translate(54.027 0.769)">
                <path id="Trazado_101934" data-name="Trazado 101934" d="M554.933,4235.031a.46.46,0,0,1-.461-.461v-14.757a.461.461,0,1,1,.922,0v14.757A.46.46,0,0,1,554.933,4235.031Z" transform="translate(-554.472 -4219.352)" fill="#8c757e"/>
              </g>
              <g id="Grupo_53985" data-name="Grupo 53985" transform="translate(193.664)">
                <path id="Trazado_101935" data-name="Trazado 101935" d="M692.045,4282.549a1.229,1.229,0,0,1-1.23-1.229v-61.489a1.23,1.23,0,0,1,2.46,0v61.489A1.229,1.229,0,0,1,692.045,4282.549Z" transform="translate(-690.815 -4218.601)" fill="#8c757e"/>
              </g>
              <g id="Grupo_53986" data-name="Grupo 53986" transform="translate(145.556 0.307)">
                <path id="Trazado_101936" data-name="Trazado 101936" d="M644.764,4263.788a.922.922,0,0,1-.922-.923v-43.042a.922.922,0,1,1,1.845,0v43.042A.923.923,0,0,1,644.764,4263.788Z" transform="translate(-643.842 -4218.901)" fill="#8c757e"/>
              </g>
              <g id="Grupo_53987" data-name="Grupo 53987" transform="translate(136.334 0.769)">
                <path id="Trazado_101937" data-name="Trazado 101937" d="M635.3,4244.869a.461.461,0,0,1-.461-.461v-24.6a.461.461,0,0,1,.923,0v24.6A.461.461,0,0,1,635.3,4244.869Z" transform="translate(-634.837 -4219.352)" fill="#8c757e"/>
              </g>
              <g id="Grupo_53988" data-name="Grupo 53988" transform="translate(126.65 0.769)">
                <path id="Trazado_101938" data-name="Trazado 101938" d="M625.844,4244.869a.461.461,0,0,1-.462-.461v-24.6a.461.461,0,0,1,.923,0v24.6A.461.461,0,0,1,625.844,4244.869Z" transform="translate(-625.382 -4219.352)" fill="#8c757e"/>
              </g>
              <g id="Grupo_53989" data-name="Grupo 53989" transform="translate(116.968 0.769)">
                <path id="Trazado_101939" data-name="Trazado 101939" d="M616.389,4244.869a.46.46,0,0,1-.461-.461v-24.6a.461.461,0,1,1,.922,0v24.6A.46.46,0,0,1,616.389,4244.869Z" transform="translate(-615.928 -4219.352)" fill="#8c757e"/>
              </g>
              <g id="Grupo_53990" data-name="Grupo 53990" transform="translate(107.284 0.769)">
                <path id="Trazado_101940" data-name="Trazado 101940" d="M606.934,4244.869a.461.461,0,0,1-.461-.461v-24.6a.461.461,0,0,1,.923,0v24.6A.461.461,0,0,1,606.934,4244.869Z" transform="translate(-606.473 -4219.352)" fill="#8c757e"/>
              </g>
              <g id="Grupo_53991" data-name="Grupo 53991" transform="translate(131.492 0.769)">
                <path id="Trazado_101941" data-name="Trazado 101941" d="M630.571,4235.031a.461.461,0,0,1-.461-.461v-14.757a.461.461,0,1,1,.922,0v14.757A.46.46,0,0,1,630.571,4235.031Z" transform="translate(-630.11 -4219.352)" fill="#8c757e"/>
              </g>
              <g id="Grupo_53992" data-name="Grupo 53992" transform="translate(141.176 0.769)">
                <path id="Trazado_101942" data-name="Trazado 101942" d="M640.026,4235.031a.46.46,0,0,1-.461-.461v-14.757a.461.461,0,1,1,.922,0v14.757A.461.461,0,0,1,640.026,4235.031Z" transform="translate(-639.565 -4219.352)" fill="#8c757e"/>
              </g>
              <g id="Grupo_53993" data-name="Grupo 53993" transform="translate(121.809 0.769)">
                <path id="Trazado_101943" data-name="Trazado 101943" d="M621.116,4235.031a.461.461,0,0,1-.461-.461v-14.757a.461.461,0,0,1,.923,0v14.757A.461.461,0,0,1,621.116,4235.031Z" transform="translate(-620.655 -4219.352)" fill="#8c757e"/>
              </g>
              <g id="Grupo_53994" data-name="Grupo 53994" transform="translate(112.125 0.769)">
                <path id="Trazado_101944" data-name="Trazado 101944" d="M611.662,4235.031a.461.461,0,0,1-.462-.461v-14.757a.461.461,0,0,1,.923,0v14.757A.461.461,0,0,1,611.662,4235.031Z" transform="translate(-611.2 -4219.352)" fill="#8c757e"/>
              </g>
              <g id="Grupo_53995" data-name="Grupo 53995" transform="translate(102.443 0.769)">
                <path id="Trazado_101945" data-name="Trazado 101945" d="M602.207,4235.031a.46.46,0,0,1-.461-.461v-14.757a.461.461,0,1,1,.922,0v14.757A.461.461,0,0,1,602.207,4235.031Z" transform="translate(-601.746 -4219.352)" fill="#8c757e"/>
              </g>
              <g id="Grupo_53996" data-name="Grupo 53996" transform="translate(184.75 0.769)">
                <path id="Trazado_101946" data-name="Trazado 101946" d="M682.572,4244.869a.461.461,0,0,1-.461-.461v-24.6a.461.461,0,0,1,.923,0v24.6A.461.461,0,0,1,682.572,4244.869Z" transform="translate(-682.111 -4219.352)" fill="#8c757e"/>
              </g>
              <g id="Grupo_53997" data-name="Grupo 53997" transform="translate(175.066 0.769)">
                <path id="Trazado_101947" data-name="Trazado 101947" d="M673.118,4244.869a.461.461,0,0,1-.462-.461v-24.6a.461.461,0,0,1,.923,0v24.6A.461.461,0,0,1,673.118,4244.869Z" transform="translate(-672.656 -4219.352)" fill="#8c757e"/>
              </g>
              <g id="Grupo_53998" data-name="Grupo 53998" transform="translate(165.383 0.769)">
                <path id="Trazado_101948" data-name="Trazado 101948" d="M663.663,4244.869a.461.461,0,0,1-.462-.461v-24.6a.461.461,0,0,1,.923,0v24.6A.461.461,0,0,1,663.663,4244.869Z" transform="translate(-663.201 -4219.352)" fill="#8c757e"/>
              </g>
              <g id="Grupo_53999" data-name="Grupo 53999" transform="translate(155.701 0.769)">
                <path id="Trazado_101949" data-name="Trazado 101949" d="M654.208,4244.869a.46.46,0,0,1-.461-.461v-24.6a.461.461,0,1,1,.922,0v24.6A.46.46,0,0,1,654.208,4244.869Z" transform="translate(-653.747 -4219.352)" fill="#8c757e"/>
              </g>
              <g id="Grupo_54000" data-name="Grupo 54000" transform="translate(179.909 0.769)">
                <path id="Trazado_101950" data-name="Trazado 101950" d="M677.845,4235.031a.46.46,0,0,1-.461-.461v-14.757a.461.461,0,1,1,.922,0v14.757A.46.46,0,0,1,677.845,4235.031Z" transform="translate(-677.384 -4219.352)" fill="#8c757e"/>
              </g>
              <g id="Grupo_54001" data-name="Grupo 54001" transform="translate(189.591 0.769)">
                <path id="Trazado_101951" data-name="Trazado 101951" d="M687.3,4235.031a.461.461,0,0,1-.462-.461v-14.757a.461.461,0,0,1,.923,0v14.757A.461.461,0,0,1,687.3,4235.031Z" transform="translate(-686.838 -4219.352)" fill="#8c757e"/>
              </g>
              <g id="Grupo_54002" data-name="Grupo 54002" transform="translate(170.225 0.769)">
                <path id="Trazado_101952" data-name="Trazado 101952" d="M668.39,4235.031a.461.461,0,0,1-.461-.461v-14.757a.461.461,0,1,1,.922,0v14.757A.46.46,0,0,1,668.39,4235.031Z" transform="translate(-667.929 -4219.352)" fill="#8c757e"/>
              </g>
              <g id="Grupo_54003" data-name="Grupo 54003" transform="translate(160.542 0.769)">
                <path id="Trazado_101953" data-name="Trazado 101953" d="M658.935,4235.031a.461.461,0,0,1-.461-.461v-14.757a.461.461,0,0,1,.923,0v14.757A.461.461,0,0,1,658.935,4235.031Z" transform="translate(-658.474 -4219.352)" fill="#8c757e"/>
              </g>
              <g id="Grupo_54004" data-name="Grupo 54004" transform="translate(150.858 0.769)">
                <path id="Trazado_101954" data-name="Trazado 101954" d="M649.481,4235.031a.461.461,0,0,1-.462-.461v-14.757a.461.461,0,0,1,.923,0v14.757A.461.461,0,0,1,649.481,4235.031Z" transform="translate(-649.019 -4219.352)" fill="#8c757e"/>
              </g>
              <g id="Grupo_54005" data-name="Grupo 54005" transform="translate(290.497)">
                <path id="Trazado_101955" data-name="Trazado 101955" d="M786.593,4282.549a1.229,1.229,0,0,1-1.23-1.229v-61.489a1.23,1.23,0,1,1,2.459,0v61.489A1.229,1.229,0,0,1,786.593,4282.549Z" transform="translate(-785.363 -4218.601)" fill="#8c757e"/>
              </g>
              <g id="Grupo_54006" data-name="Grupo 54006" transform="translate(242.388 0.307)">
                <path id="Trazado_101956" data-name="Trazado 101956" d="M739.312,4263.788a.923.923,0,0,1-.923-.923v-43.042a.922.922,0,1,1,1.845,0v43.042A.922.922,0,0,1,739.312,4263.788Z" transform="translate(-738.389 -4218.901)" fill="#8c757e"/>
              </g>
              <g id="Grupo_54007" data-name="Grupo 54007" transform="translate(233.166 0.769)">
                <path id="Trazado_101957" data-name="Trazado 101957" d="M729.846,4244.869a.46.46,0,0,1-.461-.461v-24.6a.461.461,0,1,1,.922,0v24.6A.46.46,0,0,1,729.846,4244.869Z" transform="translate(-729.385 -4219.352)" fill="#8c757e"/>
              </g>
              <g id="Grupo_54008" data-name="Grupo 54008" transform="translate(223.483 0.769)">
                <path id="Trazado_101958" data-name="Trazado 101958" d="M720.391,4244.869a.461.461,0,0,1-.461-.461v-24.6a.461.461,0,0,1,.923,0v24.6A.461.461,0,0,1,720.391,4244.869Z" transform="translate(-719.93 -4219.352)" fill="#8c757e"/>
              </g>
              <g id="Grupo_54009" data-name="Grupo 54009" transform="translate(213.799 0.769)">
                <path id="Trazado_101959" data-name="Trazado 101959" d="M710.937,4244.869a.461.461,0,0,1-.462-.461v-24.6a.461.461,0,0,1,.923,0v24.6A.461.461,0,0,1,710.937,4244.869Z" transform="translate(-710.475 -4219.352)" fill="#8c757e"/>
              </g>
              <g id="Grupo_54010" data-name="Grupo 54010" transform="translate(204.117 0.769)">
                <path id="Trazado_101960" data-name="Trazado 101960" d="M701.482,4244.869a.46.46,0,0,1-.461-.461v-24.6a.461.461,0,1,1,.922,0v24.6A.461.461,0,0,1,701.482,4244.869Z" transform="translate(-701.021 -4219.352)" fill="#8c757e"/>
              </g>
              <g id="Grupo_54011" data-name="Grupo 54011" transform="translate(228.325 0.769)">
                <path id="Trazado_101961" data-name="Trazado 101961" d="M725.119,4235.031a.46.46,0,0,1-.461-.461v-14.757a.461.461,0,1,1,.922,0v14.757A.461.461,0,0,1,725.119,4235.031Z" transform="translate(-724.658 -4219.352)" fill="#8c757e"/>
              </g>
              <g id="Grupo_54012" data-name="Grupo 54012" transform="translate(238.007 0.769)">
                <path id="Trazado_101962" data-name="Trazado 101962" d="M734.574,4235.031a.461.461,0,0,1-.462-.461v-14.757a.461.461,0,0,1,.923,0v14.757A.461.461,0,0,1,734.574,4235.031Z" transform="translate(-734.112 -4219.352)" fill="#8c757e"/>
              </g>
              <g id="Grupo_54013" data-name="Grupo 54013" transform="translate(218.642 0.769)">
                <path id="Trazado_101963" data-name="Trazado 101963" d="M715.664,4235.031a.46.46,0,0,1-.461-.461v-14.757a.461.461,0,1,1,.922,0v14.757A.46.46,0,0,1,715.664,4235.031Z" transform="translate(-715.203 -4219.352)" fill="#8c757e"/>
              </g>
              <g id="Grupo_54014" data-name="Grupo 54014" transform="translate(208.958 0.769)">
                <path id="Trazado_101964" data-name="Trazado 101964" d="M706.209,4235.031a.461.461,0,0,1-.461-.461v-14.757a.461.461,0,1,1,.922,0v14.757A.46.46,0,0,1,706.209,4235.031Z" transform="translate(-705.748 -4219.352)" fill="#8c757e"/>
              </g>
              <g id="Grupo_54015" data-name="Grupo 54015" transform="translate(199.275 0.769)">
                <path id="Trazado_101965" data-name="Trazado 101965" d="M696.754,4235.031a.461.461,0,0,1-.461-.461v-14.757a.461.461,0,0,1,.923,0v14.757A.461.461,0,0,1,696.754,4235.031Z" transform="translate(-696.293 -4219.352)" fill="#8c757e"/>
              </g>
              <g id="Grupo_54016" data-name="Grupo 54016" transform="translate(281.583 0.769)">
                <path id="Trazado_101966" data-name="Trazado 101966" d="M777.12,4244.869a.46.46,0,0,1-.461-.461v-24.6a.461.461,0,1,1,.922,0v24.6A.46.46,0,0,1,777.12,4244.869Z" transform="translate(-776.659 -4219.352)" fill="#8c757e"/>
              </g>
              <g id="Grupo_54017" data-name="Grupo 54017" transform="translate(271.899 0.769)">
                <path id="Trazado_101967" data-name="Trazado 101967" d="M767.665,4244.869a.461.461,0,0,1-.461-.461v-24.6a.461.461,0,0,1,.923,0v24.6A.461.461,0,0,1,767.665,4244.869Z" transform="translate(-767.204 -4219.352)" fill="#8c757e"/>
              </g>
              <g id="Grupo_54018" data-name="Grupo 54018" transform="translate(262.216 0.769)">
                <path id="Trazado_101968" data-name="Trazado 101968" d="M758.21,4244.869a.461.461,0,0,1-.461-.461v-24.6a.461.461,0,0,1,.923,0v24.6A.461.461,0,0,1,758.21,4244.869Z" transform="translate(-757.749 -4219.352)" fill="#8c757e"/>
              </g>
              <g id="Grupo_54019" data-name="Grupo 54019" transform="translate(252.532 0.769)">
                <path id="Trazado_101969" data-name="Trazado 101969" d="M748.756,4244.869a.461.461,0,0,1-.462-.461v-24.6a.461.461,0,0,1,.923,0v24.6A.461.461,0,0,1,748.756,4244.869Z" transform="translate(-748.294 -4219.352)" fill="#8c757e"/>
              </g>
              <g id="Grupo_54020" data-name="Grupo 54020" transform="translate(276.741 0.769)">
                <path id="Trazado_101970" data-name="Trazado 101970" d="M772.393,4235.031a.461.461,0,0,1-.461-.461v-14.757a.461.461,0,1,1,.922,0v14.757A.46.46,0,0,1,772.393,4235.031Z" transform="translate(-771.932 -4219.352)" fill="#8c757e"/>
              </g>
              <g id="Grupo_54021" data-name="Grupo 54021" transform="translate(286.423 0.769)">
                <path id="Trazado_101971" data-name="Trazado 101971" d="M781.847,4235.031a.461.461,0,0,1-.462-.461v-14.757a.461.461,0,0,1,.923,0v14.757A.461.461,0,0,1,781.847,4235.031Z" transform="translate(-781.385 -4219.352)" fill="#8c757e"/>
              </g>
              <g id="Grupo_54022" data-name="Grupo 54022" transform="translate(267.057 0.769)">
                <path id="Trazado_101972" data-name="Trazado 101972" d="M762.937,4235.031a.461.461,0,0,1-.461-.461v-14.757a.461.461,0,0,1,.923,0v14.757A.461.461,0,0,1,762.937,4235.031Z" transform="translate(-762.476 -4219.352)" fill="#8c757e"/>
              </g>
              <g id="Grupo_54023" data-name="Grupo 54023" transform="translate(257.373 0.769)">
                <path id="Trazado_101973" data-name="Trazado 101973" d="M753.482,4235.031a.461.461,0,0,1-.461-.461v-14.757a.461.461,0,0,1,.923,0v14.757A.461.461,0,0,1,753.482,4235.031Z" transform="translate(-753.021 -4219.352)" fill="#8c757e"/>
              </g>
              <g id="Grupo_54024" data-name="Grupo 54024" transform="translate(247.692 0.769)">
                <path id="Trazado_101974" data-name="Trazado 101974" d="M744.029,4235.031a.46.46,0,0,1-.461-.461v-14.757a.461.461,0,1,1,.922,0v14.757A.461.461,0,0,1,744.029,4235.031Z" transform="translate(-743.568 -4219.352)" fill="#8c757e"/>
              </g>
              <g id="Grupo_54025" data-name="Grupo 54025" transform="translate(387.329)">
                <path id="Trazado_101975" data-name="Trazado 101975" d="M881.14,4282.549a1.229,1.229,0,0,1-1.229-1.229v-61.489a1.229,1.229,0,1,1,2.459,0v61.489A1.229,1.229,0,0,1,881.14,4282.549Z" transform="translate(-879.911 -4218.601)" fill="#8c757e"/>
              </g>
              <g id="Grupo_54026" data-name="Grupo 54026" transform="translate(339.22 0.307)">
                <path id="Trazado_101976" data-name="Trazado 101976" d="M833.86,4263.788a.922.922,0,0,1-.923-.923v-43.042a.922.922,0,1,1,1.844,0v43.042A.922.922,0,0,1,833.86,4263.788Z" transform="translate(-832.937 -4218.901)" fill="#8c757e"/>
              </g>
              <g id="Grupo_54027" data-name="Grupo 54027" transform="translate(329.998 0.769)">
                <path id="Trazado_101977" data-name="Trazado 101977" d="M824.394,4244.869a.461.461,0,0,1-.462-.461v-24.6a.461.461,0,0,1,.923,0v24.6A.461.461,0,0,1,824.394,4244.869Z" transform="translate(-823.932 -4219.352)" fill="#8c757e"/>
              </g>
              <g id="Grupo_54028" data-name="Grupo 54028" transform="translate(320.315 0.769)">
                <path id="Trazado_101978" data-name="Trazado 101978" d="M814.939,4244.869a.46.46,0,0,1-.461-.461v-24.6a.461.461,0,1,1,.922,0v24.6A.46.46,0,0,1,814.939,4244.869Z" transform="translate(-814.478 -4219.352)" fill="#8c757e"/>
              </g>
              <g id="Grupo_54029" data-name="Grupo 54029" transform="translate(310.632 0.769)">
                <path id="Trazado_101979" data-name="Trazado 101979" d="M805.484,4244.869a.461.461,0,0,1-.461-.461v-24.6a.461.461,0,0,1,.923,0v24.6A.461.461,0,0,1,805.484,4244.869Z" transform="translate(-805.023 -4219.352)" fill="#8c757e"/>
              </g>
              <g id="Grupo_54030" data-name="Grupo 54030" transform="translate(300.948 0.769)">
                <path id="Trazado_101980" data-name="Trazado 101980" d="M796.029,4244.869a.461.461,0,0,1-.461-.461v-24.6a.461.461,0,0,1,.923,0v24.6A.461.461,0,0,1,796.029,4244.869Z" transform="translate(-795.568 -4219.352)" fill="#8c757e"/>
              </g>
              <g id="Grupo_54031" data-name="Grupo 54031" transform="translate(325.157 0.769)">
                <path id="Trazado_101981" data-name="Trazado 101981" d="M819.666,4235.031a.46.46,0,0,1-.461-.461v-14.757a.461.461,0,1,1,.922,0v14.757A.461.461,0,0,1,819.666,4235.031Z" transform="translate(-819.205 -4219.352)" fill="#8c757e"/>
              </g>
              <g id="Grupo_54032" data-name="Grupo 54032" transform="translate(334.84 0.769)">
                <path id="Trazado_101982" data-name="Trazado 101982" d="M829.122,4235.031a.461.461,0,0,1-.462-.461v-14.757a.461.461,0,0,1,.923,0v14.757A.461.461,0,0,1,829.122,4235.031Z" transform="translate(-828.66 -4219.352)" fill="#8c757e"/>
              </g>
              <g id="Grupo_54033" data-name="Grupo 54033" transform="translate(315.474 0.769)">
                <path id="Trazado_101983" data-name="Trazado 101983" d="M810.212,4235.031a.461.461,0,0,1-.461-.461v-14.757a.461.461,0,0,1,.923,0v14.757A.461.461,0,0,1,810.212,4235.031Z" transform="translate(-809.751 -4219.352)" fill="#8c757e"/>
              </g>
              <g id="Grupo_54034" data-name="Grupo 54034" transform="translate(305.79 0.769)">
                <path id="Trazado_101984" data-name="Trazado 101984" d="M800.756,4235.031a.461.461,0,0,1-.461-.461v-14.757a.461.461,0,0,1,.923,0v14.757A.461.461,0,0,1,800.756,4235.031Z" transform="translate(-800.295 -4219.352)" fill="#8c757e"/>
              </g>
              <g id="Grupo_54035" data-name="Grupo 54035" transform="translate(296.107 0.769)">
                <path id="Trazado_101985" data-name="Trazado 101985" d="M791.3,4235.031a.461.461,0,0,1-.462-.461v-14.757a.461.461,0,0,1,.923,0v14.757A.461.461,0,0,1,791.3,4235.031Z" transform="translate(-790.841 -4219.352)" fill="#8c757e"/>
              </g>
              <g id="Grupo_54036" data-name="Grupo 54036" transform="translate(378.414 0.769)">
                <path id="Trazado_101986" data-name="Trazado 101986" d="M871.668,4244.869a.461.461,0,0,1-.462-.461v-24.6a.461.461,0,0,1,.923,0v24.6A.461.461,0,0,1,871.668,4244.869Z" transform="translate(-871.206 -4219.352)" fill="#8c757e"/>
              </g>
              <g id="Grupo_54037" data-name="Grupo 54037" transform="translate(368.732 0.769)">
                <path id="Trazado_101987" data-name="Trazado 101987" d="M862.213,4244.869a.46.46,0,0,1-.461-.461v-24.6a.461.461,0,1,1,.922,0v24.6A.461.461,0,0,1,862.213,4244.869Z" transform="translate(-861.752 -4219.352)" fill="#8c757e"/>
              </g>
              <g id="Grupo_54038" data-name="Grupo 54038" transform="translate(359.048 0.769)">
                <path id="Trazado_101988" data-name="Trazado 101988" d="M852.758,4244.869a.461.461,0,0,1-.461-.461v-24.6a.461.461,0,1,1,.922,0v24.6A.46.46,0,0,1,852.758,4244.869Z" transform="translate(-852.297 -4219.352)" fill="#8c757e"/>
              </g>
              <g id="Grupo_54039" data-name="Grupo 54039" transform="translate(349.365 0.769)">
                <path id="Trazado_101989" data-name="Trazado 101989" d="M843.3,4244.869a.461.461,0,0,1-.461-.461v-24.6a.461.461,0,0,1,.923,0v24.6A.461.461,0,0,1,843.3,4244.869Z" transform="translate(-842.842 -4219.352)" fill="#8c757e"/>
              </g>
              <g id="Grupo_54040" data-name="Grupo 54040" transform="translate(373.574 0.769)">
                <path id="Trazado_101990" data-name="Trazado 101990" d="M866.941,4235.031a.46.46,0,0,1-.461-.461v-14.757a.461.461,0,1,1,.922,0v14.757A.461.461,0,0,1,866.941,4235.031Z" transform="translate(-866.48 -4219.352)" fill="#8c757e"/>
              </g>
              <g id="Grupo_54041" data-name="Grupo 54041" transform="translate(383.255 0.769)">
                <path id="Trazado_101991" data-name="Trazado 101991" d="M876.394,4235.031a.461.461,0,0,1-.461-.461v-14.757a.461.461,0,0,1,.923,0v14.757A.461.461,0,0,1,876.394,4235.031Z" transform="translate(-875.933 -4219.352)" fill="#8c757e"/>
              </g>
              <g id="Grupo_54042" data-name="Grupo 54042" transform="translate(363.889 0.769)">
                <path id="Trazado_101992" data-name="Trazado 101992" d="M857.485,4235.031a.46.46,0,0,1-.461-.461v-14.757a.461.461,0,1,1,.922,0v14.757A.461.461,0,0,1,857.485,4235.031Z" transform="translate(-857.024 -4219.352)" fill="#8c757e"/>
              </g>
              <g id="Grupo_54043" data-name="Grupo 54043" transform="translate(354.207 0.769)">
                <path id="Trazado_101993" data-name="Trazado 101993" d="M848.031,4235.031a.461.461,0,0,1-.461-.461v-14.757a.461.461,0,0,1,.923,0v14.757A.461.461,0,0,1,848.031,4235.031Z" transform="translate(-847.57 -4219.352)" fill="#8c757e"/>
              </g>
              <g id="Grupo_54044" data-name="Grupo 54044" transform="translate(344.523 0.769)">
                <path id="Trazado_101994" data-name="Trazado 101994" d="M838.575,4235.031a.461.461,0,0,1-.461-.461v-14.757a.461.461,0,0,1,.923,0v14.757A.461.461,0,0,1,838.575,4235.031Z" transform="translate(-838.114 -4219.352)" fill="#8c757e"/>
              </g>
              <g id="Grupo_54045" data-name="Grupo 54045" transform="translate(484.161)">
                <path id="Trazado_101995" data-name="Trazado 101995" d="M975.688,4282.549a1.229,1.229,0,0,1-1.23-1.229v-61.489a1.23,1.23,0,0,1,2.46,0v61.489A1.229,1.229,0,0,1,975.688,4282.549Z" transform="translate(-974.458 -4218.601)" fill="#8c757e"/>
              </g>
              <g id="Grupo_54046" data-name="Grupo 54046" transform="translate(436.053 0.307)">
                <path id="Trazado_101996" data-name="Trazado 101996" d="M928.407,4263.788a.922.922,0,0,1-.922-.923v-43.042a.922.922,0,1,1,1.845,0v43.042A.923.923,0,0,1,928.407,4263.788Z" transform="translate(-927.485 -4218.901)" fill="#8c757e"/>
              </g>
              <g id="Grupo_54047" data-name="Grupo 54047" transform="translate(426.83 0.769)">
                <path id="Trazado_101997" data-name="Trazado 101997" d="M918.941,4244.869a.461.461,0,0,1-.461-.461v-24.6a.461.461,0,0,1,.923,0v24.6A.461.461,0,0,1,918.941,4244.869Z" transform="translate(-918.48 -4219.352)" fill="#8c757e"/>
              </g>
              <g id="Grupo_54048" data-name="Grupo 54048" transform="translate(417.147 0.769)">
                <path id="Trazado_101998" data-name="Trazado 101998" d="M909.487,4244.869a.461.461,0,0,1-.462-.461v-24.6a.461.461,0,0,1,.923,0v24.6A.461.461,0,0,1,909.487,4244.869Z" transform="translate(-909.025 -4219.352)" fill="#8c757e"/>
              </g>
              <g id="Grupo_54049" data-name="Grupo 54049" transform="translate(407.465 0.769)">
                <path id="Trazado_101999" data-name="Trazado 101999" d="M900.032,4244.869a.46.46,0,0,1-.461-.461v-24.6a.461.461,0,1,1,.922,0v24.6A.461.461,0,0,1,900.032,4244.869Z" transform="translate(-899.571 -4219.352)" fill="#8c757e"/>
              </g>
              <g id="Grupo_54050" data-name="Grupo 54050" transform="translate(397.781 0.769)">
                <path id="Trazado_102000" data-name="Trazado 102000" d="M890.577,4244.869a.46.46,0,0,1-.461-.461v-24.6a.461.461,0,1,1,.922,0v24.6A.46.46,0,0,1,890.577,4244.869Z" transform="translate(-890.116 -4219.352)" fill="#8c757e"/>
              </g>
              <g id="Grupo_54051" data-name="Grupo 54051" transform="translate(421.988 0.769)">
                <path id="Trazado_102001" data-name="Trazado 102001" d="M914.213,4235.031a.461.461,0,0,1-.461-.461v-14.757a.461.461,0,0,1,.923,0v14.757A.461.461,0,0,1,914.213,4235.031Z" transform="translate(-913.752 -4219.352)" fill="#8c757e"/>
              </g>
              <g id="Grupo_54052" data-name="Grupo 54052" transform="translate(431.673 0.769)">
                <path id="Trazado_102002" data-name="Trazado 102002" d="M923.669,4235.031a.461.461,0,0,1-.461-.461v-14.757a.461.461,0,0,1,.923,0v14.757A.461.461,0,0,1,923.669,4235.031Z" transform="translate(-923.208 -4219.352)" fill="#8c757e"/>
              </g>
              <g id="Grupo_54053" data-name="Grupo 54053" transform="translate(412.307 0.769)">
                <path id="Trazado_102003" data-name="Trazado 102003" d="M904.76,4235.031a.46.46,0,0,1-.461-.461v-14.757a.461.461,0,1,1,.922,0v14.757A.461.461,0,0,1,904.76,4235.031Z" transform="translate(-904.299 -4219.352)" fill="#8c757e"/>
              </g>
              <g id="Grupo_54054" data-name="Grupo 54054" transform="translate(402.622 0.769)">
                <path id="Trazado_102004" data-name="Trazado 102004" d="M895.3,4235.031a.46.46,0,0,1-.461-.461v-14.757a.461.461,0,1,1,.922,0v14.757A.461.461,0,0,1,895.3,4235.031Z" transform="translate(-894.843 -4219.352)" fill="#8c757e"/>
              </g>
              <g id="Grupo_54055" data-name="Grupo 54055" transform="translate(392.94 0.769)">
                <path id="Trazado_102005" data-name="Trazado 102005" d="M885.85,4235.031a.461.461,0,0,1-.461-.461v-14.757a.461.461,0,0,1,.923,0v14.757A.461.461,0,0,1,885.85,4235.031Z" transform="translate(-885.389 -4219.352)" fill="#8c757e"/>
              </g>
              <g id="Grupo_54056" data-name="Grupo 54056" transform="translate(475.247 0.769)">
                <path id="Trazado_102006" data-name="Trazado 102006" d="M966.215,4244.869a.461.461,0,0,1-.461-.461v-24.6a.461.461,0,0,1,.923,0v24.6A.461.461,0,0,1,966.215,4244.869Z" transform="translate(-965.754 -4219.352)" fill="#8c757e"/>
              </g>
              <g id="Grupo_54057" data-name="Grupo 54057" transform="translate(465.563 0.769)">
                <path id="Trazado_102007" data-name="Trazado 102007" d="M956.76,4244.869a.461.461,0,0,1-.461-.461v-24.6a.461.461,0,0,1,.923,0v24.6A.461.461,0,0,1,956.76,4244.869Z" transform="translate(-956.299 -4219.352)" fill="#8c757e"/>
              </g>
              <g id="Grupo_54058" data-name="Grupo 54058" transform="translate(455.88 0.769)">
                <path id="Trazado_102008" data-name="Trazado 102008" d="M947.306,4244.869a.461.461,0,0,1-.462-.461v-24.6a.461.461,0,0,1,.923,0v24.6A.461.461,0,0,1,947.306,4244.869Z" transform="translate(-946.844 -4219.352)" fill="#8c757e"/>
              </g>
              <g id="Grupo_54059" data-name="Grupo 54059" transform="translate(446.197 0.769)">
                <path id="Trazado_102009" data-name="Trazado 102009" d="M937.851,4244.869a.46.46,0,0,1-.461-.461v-24.6a.461.461,0,1,1,.922,0v24.6A.46.46,0,0,1,937.851,4244.869Z" transform="translate(-937.39 -4219.352)" fill="#8c757e"/>
              </g>
              <g id="Grupo_54060" data-name="Grupo 54060" transform="translate(470.405 0.769)">
                <path id="Trazado_102010" data-name="Trazado 102010" d="M961.488,4235.031a.461.461,0,0,1-.461-.461v-14.757a.461.461,0,0,1,.923,0v14.757A.461.461,0,0,1,961.488,4235.031Z" transform="translate(-961.027 -4219.352)" fill="#8c757e"/>
              </g>
              <g id="Grupo_54061" data-name="Grupo 54061" transform="translate(480.088 0.769)">
                <path id="Trazado_102011" data-name="Trazado 102011" d="M970.942,4235.031a.461.461,0,0,1-.461-.461v-14.757a.461.461,0,1,1,.922,0v14.757A.46.46,0,0,1,970.942,4235.031Z" transform="translate(-970.481 -4219.352)" fill="#8c757e"/>
              </g>
              <g id="Grupo_54062" data-name="Grupo 54062" transform="translate(460.721 0.769)">
                <path id="Trazado_102012" data-name="Trazado 102012" d="M952.032,4235.031a.461.461,0,0,1-.461-.461v-14.757a.461.461,0,0,1,.923,0v14.757A.461.461,0,0,1,952.032,4235.031Z" transform="translate(-951.571 -4219.352)" fill="#8c757e"/>
              </g>
              <g id="Grupo_54063" data-name="Grupo 54063" transform="translate(451.04 0.769)">
                <path id="Trazado_102013" data-name="Trazado 102013" d="M942.579,4235.031a.46.46,0,0,1-.461-.461v-14.757a.461.461,0,1,1,.922,0v14.757A.46.46,0,0,1,942.579,4235.031Z" transform="translate(-942.118 -4219.352)" fill="#8c757e"/>
              </g>
              <g id="Grupo_54064" data-name="Grupo 54064" transform="translate(441.355 0.769)">
                <path id="Trazado_102014" data-name="Trazado 102014" d="M933.123,4235.031a.46.46,0,0,1-.461-.461v-14.757a.461.461,0,1,1,.922,0v14.757A.46.46,0,0,1,933.123,4235.031Z" transform="translate(-932.662 -4219.352)" fill="#8c757e"/>
              </g>
            </g>
            <g id="Grupo_54066" data-name="Grupo 54066" transform="translate(39.329 53.012)">
              <path id="Trazado_102015" data-name="Trazado 102015" d="M542.484,4270.363a4.441,4.441,0,0,1,3.145,1.285l-.908,1.173a3.257,3.257,0,0,0-2.17-.951c-1.949,0-3.366,1.683-3.366,4.162,0,2.458,1.352,4.118,3.322,4.118a3.842,3.842,0,0,0,2.525-1.085l.818,1.2a5.321,5.321,0,0,1-3.5,1.4c-2.857,0-5.049-2.059-5.049-5.624C537.3,4272.422,539.717,4270.363,542.484,4270.363Z" transform="translate(-537.303 -4270.363)" fill="#8c757e"/>
              <path id="Trazado_102016" data-name="Trazado 102016" d="M547.937,4270.629h1.507l.155,1.549h.067a4.729,4.729,0,0,1,3.343-1.816,2.826,2.826,0,0,1,2.968,2.06c1.129-1.218,2.236-2.06,3.543-2.06,2.213,0,3.276,1.461,3.276,4.208v6.82H560.98v-6.576c0-2.016-.642-2.879-1.994-2.879-.84,0-1.7.554-2.7,1.661v7.794h-1.816v-6.576c0-2.016-.642-2.879-2.014-2.879a4.034,4.034,0,0,0-2.7,1.661v7.794h-1.816Z" transform="translate(-537.046 -4270.363)" fill="#8c757e"/>
            </g>
            <g id="Grupo_54067" data-name="Grupo 54067" transform="translate(0 68.412)">
              <path id="Trazado_102017" data-name="Trazado 102017" d="M498.9,4292.684c0-4.738,1.705-7.285,4.54-7.285,2.811,0,4.517,2.547,4.517,7.285s-1.705,7.373-4.517,7.373C500.607,4300.057,498.9,4297.423,498.9,4292.684Zm7.285,0c0-4.14-1.107-5.824-2.745-5.824-1.661,0-2.768,1.684-2.768,5.824s1.107,5.912,2.768,5.912C505.08,4298.6,506.187,4296.825,506.187,4292.684Z" transform="translate(-498.902 -4285.399)" fill="#8c757e"/>
            </g>
            <g id="Grupo_54068" data-name="Grupo 54068" transform="translate(97.487 68.678)">
              <path id="Trazado_102018" data-name="Trazado 102018" d="M594.089,4298.279h3.231v-10.406h-2.568V4286.7a8.433,8.433,0,0,0,2.99-1.04h1.394v12.62h2.924v1.506h-7.971Z" transform="translate(-594.089 -4285.659)" fill="#8c757e"/>
            </g>
            <g id="Grupo_54069" data-name="Grupo 54069" transform="translate(193.245 68.412)">
              <path id="Trazado_102019" data-name="Trazado 102019" d="M687.677,4298.707c4.251-4.23,6.643-6.776,6.643-9.057a2.5,2.5,0,0,0-2.679-2.767,4.165,4.165,0,0,0-3.012,1.7l-1.041-1.041a5.545,5.545,0,0,1,4.273-2.148,3.924,3.924,0,0,1,4.23,4.163c0,2.657-2.413,5.292-5.757,8.791.774-.067,1.638-.133,2.37-.133h4.1v1.572h-9.122Z" transform="translate(-687.588 -4285.399)" fill="#8c757e"/>
            </g>
            <g id="Grupo_54070" data-name="Grupo 54070" transform="translate(289.735 68.412)">
              <path id="Trazado_102020" data-name="Trazado 102020" d="M782.731,4296.869a4.794,4.794,0,0,0,3.609,1.683,2.633,2.633,0,0,0,2.923-2.59c0-1.683-1.151-2.812-4.517-2.812v-1.395c3.011,0,4.008-1.151,4.008-2.635a2.174,2.174,0,0,0-2.435-2.235,4.285,4.285,0,0,0-3.012,1.438l-.974-1.151a5.814,5.814,0,0,1,4.052-1.771c2.458,0,4.23,1.307,4.23,3.587a3.5,3.5,0,0,1-2.569,3.366v.089a3.644,3.644,0,0,1,3.055,3.586c0,2.5-2.06,4.029-4.65,4.029a6,6,0,0,1-4.65-1.992Z" transform="translate(-781.801 -4285.399)" fill="#8c757e"/>
            </g>
            <g id="Grupo_54071" data-name="Grupo 54071" transform="translate(386.246 68.678)">
              <path id="Trazado_102021" data-name="Trazado 102021" d="M886.044,4295.888h-1.926v3.9h-1.727v-3.9h-6.356v-1.2l6.046-9.034h2.037v8.768h1.926Zm-3.653-1.461v-4.1c0-.752.065-1.971.11-2.723h-.088c-.354.687-.752,1.307-1.151,1.993l-3.3,4.827Z" transform="translate(-876.035 -4285.659)" fill="#8c757e"/>
            </g>
            <g id="Grupo_54072" data-name="Grupo 54072" transform="translate(483.135 68.678)">
              <path id="Trazado_102022" data-name="Trazado 102022" d="M971.523,4296.929a4.807,4.807,0,0,0,3.566,1.616,3.048,3.048,0,0,0,3.1-3.232,2.839,2.839,0,0,0-3.011-3.1,3.977,3.977,0,0,0-2.414.863l-.974-.62.465-6.8h7.063v1.572h-5.469l-.376,4.185a4.344,4.344,0,0,1,2.17-.577,4.067,4.067,0,0,1,4.383,4.43,4.618,4.618,0,0,1-4.76,4.782,6.188,6.188,0,0,1-4.627-1.926Z" transform="translate(-970.638 -4285.659)" fill="#8c757e"/>
            </g>
          </g>
        </g>
      </g>
    </g>
  </g>
</svg>
