<svg xmlns="http://www.w3.org/2000/svg" xmlns:xlink="http://www.w3.org/1999/xlink" width="595" height="405.493" viewBox="0 0 595 405.493">
  <defs>
    <clipPath id="clip-path">
      <path id="Trazado_106773" data-name="Trazado 106773" d="M514.439,5810.785a24.019,24.019,0,0,1-.669-9.323c2.822-22.3-5.037-31.86-3.051-43.141,2.566-14.567,1.965-65.4-4.58-73.716-6.488-8.244-29.656-13.04-37.84-16.376-8.156-3.324-11.5-15.729-11.5-15.729l-9.779.017s-3.312,12.417-11.458,15.767c-8.175,3.363-31.331,8.236-37.8,16.5-6.521,8.338-6.969,59.18-4.36,73.739,2.021,11.273-5.811,20.858-2.921,43.155a24.036,24.036,0,0,1-.641,9.326c-1.772,6.575-4.527,17.607-3.119,17.777,2.015.242,9.075-16.633,9.715-19.487,1.186-5.291,14.86-76.833,20.115-104.365,3.6,11.909,8.275,43.569,8.712,60.225.82,31.264-21.63,47.714,4.465,107.522,7.622,17.47-2.055,22.294-1.641,43.986.015-.388.022-.623.025-.735-.033,1.489-.478,32.248,10.169,60.972a5.122,5.122,0,0,1-.951,5.6l-12.1,10.935a2.143,2.143,0,0,0,.438,3.453c2.942,1.153,8.147,1.583,11.1,1.74a4.679,4.679,0,0,0,3.84-1.809c2.908-3.509,6.317-9.879,6.406-16.027l3.425-185.638,3.348-.006,4.01,185.624c.107,6.147,3.535,12.5,6.453,16a4.672,4.672,0,0,0,3.845,1.794c2.949-.167,8.152-.618,11.091-1.782a2.145,2.145,0,0,0,.428-3.456l-12.136-10.887a5.123,5.123,0,0,1-.968-5.6c10.559-28.764,10.023-59.519,9.986-61.008,0,.112.011.347.026.735.35-21.694-9.078-26.351-1.819-43.978,24.014-58.308,3.421-75.678,4.161-107.529.387-16.657,4.993-48.335,8.561-60.256,5.337,27.513,19.222,99,20.424,104.287.648,2.851,7.757,19.7,9.771,19.45C519.018,5828.374,516.231,5817.352,514.439,5810.785Z" transform="translate(-386.333 -5652.499)" fill="#fff"/>
    </clipPath>
    <clipPath id="clip-path-2">
      <path id="Trazado_106781" data-name="Trazado 106781" d="M503.5,5598.845c1.01-15.289-.661-28.959-19.024-28.929s-19.989,13.705-18.929,28.991c.956,13.782,3.8,24,19.015,23.971S502.591,5612.63,503.5,5598.845Z" transform="translate(-465.3 -5569.916)" fill="#fff"/>
    </clipPath>
    <clipPath id="clip-path-3">
      <path id="Trazado_106786" data-name="Trazado 106786" d="M1114.122,5812.539l-7.486-6.7a6.137,6.137,0,0,1-1.934-5.729c4.9-25.475-2.6-48.619-5.1-53.931a5.824,5.824,0,0,1-.541-2.7c1.158-31-1.453-53.969-4.487-62.5-3.3-9.287-26.576-17.717-29.775-20.67s-3.015-14.519-3.015-14.519h-10.729s.183,11.565-3.015,14.519-26.472,11.383-29.775,20.67c-3.034,8.531-5.645,31.5-4.487,62.5a5.832,5.832,0,0,1-.541,2.7c-2.495,5.313-10,28.456-5.1,53.931a6.137,6.137,0,0,1-1.935,5.729l-7.486,6.7a1.222,1.222,0,0,0,1.144,2.089,11.3,11.3,0,0,0,2.717-1.2c4.06-2.4,8.49-6.459,10.15-9.6,1.491-2.816,15.321-86.062,18.138-103.083,2.342,9.348,5.128,20.816,3.794,30.922-2.3,17.458-23.286,60.6,6.031,129.425a21.56,21.56,0,0,1,1.333,12.716c-7.738,38.246-9.252,41.917,6.138,92.982,0,0,1.693,12.45-10.232,25.3a1.031,1.031,0,0,0,.555,1.7c3.076.647,9.562,1.622,14.9-.178a1.031,1.031,0,0,0,.687-.976l1.165-208.559h2.365l1.165,208.559a1.03,1.03,0,0,0,.687.976c5.338,1.8,11.823.826,14.9.178a1.031,1.031,0,0,0,.555-1.7c-11.925-12.849-10.232-25.3-10.232-25.3,15.39-51.065,13.876-54.736,6.138-92.982a21.55,21.55,0,0,1,1.333-12.716c29.318-68.825,8.334-111.967,6.031-129.425-1.333-10.105,1.453-21.574,3.794-30.922,2.817,17.021,16.647,100.267,18.138,103.083,1.661,3.138,6.091,7.2,10.15,9.6a11.313,11.313,0,0,0,2.718,1.2A1.222,1.222,0,0,0,1114.122,5812.539Z" transform="translate(-998.302 -5645.79)" fill="#fff"/>
    </clipPath>
    <clipPath id="clip-path-4">
      <path id="Trazado_106796" data-name="Trazado 106796" d="M1083.973,5573.158a39.212,39.212,0,0,0-16.669,5.948,65.268,65.268,0,0,0-1.048,11.985c0,20.221,12.286,27.789,17.716,27.789s17.717-7.568,17.717-27.789a65.212,65.212,0,0,0-1.048-11.985C1100.62,5579.114,1095.113,5573.906,1083.973,5573.158Z" transform="translate(-1066.257 -5573.158)" fill="#fff"/>
    </clipPath>
    <clipPath id="clip-path-5">
      <path id="Trazado_106790" data-name="Trazado 106790" d="M1092.6,5629.853c2.968-.05,5.729-4.237,5.5-4.07-.155.174-2.89-1.137-3.272-1.2-.465.217-2.175,2.057-2.224,2.017a17.4,17.4,0,0,0-2.224-2.019c-.53.008-3.13,1.353-3.275,1.2C1086.869,5625.611,1089.629,5629.8,1092.6,5629.853Z" transform="translate(-1087.086 -5624.581)" fill="#f45656"/>
    </clipPath>
  </defs>
  <g id="Grupo_55645" data-name="Grupo 55645" transform="translate(-181.181 -5551.19)">
    <g id="Grupo_55622" data-name="Grupo 55622" transform="translate(181.181 5558.747)">
      <circle id="Elipse_4039" data-name="Elipse 4039" cx="10.788" cy="10.788" r="10.788" transform="translate(80.587 75.671)" fill="#e7b048"/>
      <circle id="Elipse_4040" data-name="Elipse 4040" cx="8.989" cy="8.989" r="8.989" transform="translate(89.174 141.072)" fill="#e7b048"/>
      <path id="Trazado_106704" data-name="Trazado 106704" d="M273.832,5777.953a83.822,83.822,0,0,0-13.907-.866,81.41,81.41,0,0,0-13.935.881c-3.509.635-3.986,1.415-4.029,1.531a2.385,2.385,0,0,0,1.863,1.242l.014.015a18.532,18.532,0,0,1,1.155-1.632c.26-.1,4.173-1.5,14.932-1.5s14.673,1.4,14.918,1.5a18.117,18.117,0,0,1,1.285,1.834l.015-.015s1.834-.014,2.195-1.387C278.337,5779.556,277.918,5778.661,273.832,5777.953Z" transform="translate(-206.349 -5652.287)" fill="#d69a3a"/>
      <path id="Trazado_106705" data-name="Trazado 106705" d="M331.309,5775.189a7.555,7.555,0,0,0,1.685.319,30.881,30.881,0,0,0,4.384.046,22.139,22.139,0,0,0,6.81-1.2c1.021-.387,1.57-.822,1.54-1.148-.043-.8.931-23.084.479-28.771-.452-5.708-3.982-21.787-4.388-23.8a8.21,8.21,0,0,0-.846-2.346c-.293.458-2.712,2.955-8.211,3.817a15.161,15.161,0,0,1-9.069-1.408,3.94,3.94,0,0,0-.224,1.248c-.026,1.2.2,20.2.86,24.36.527,3.355,3.223,18.049,4.554,24.467a29.028,29.028,0,0,0,.688,2.932A2.479,2.479,0,0,0,331.309,5775.189Z" transform="translate(-240.099 -5627.94)" fill="#f3c75d"/>
      <path id="Trazado_106706" data-name="Trazado 106706" d="M305.614,6228.146s-6.686.477-7.163,7.394c0,0,10.354.188,20.521,0s18.109-.418,18.109-.418-.837-5.6-4.274-8a11.932,11.932,0,0,0-8.362-2.224c-.809.072-4.867.779-9.011,1.5-2.57.447-5.184.924-7.061,1.256C306.711,6227.943,305.614,6228.146,305.614,6228.146Z" transform="translate(-229.74 -5837.687)" fill="#f1cc5f"/>
      <g id="Grupo_55620" data-name="Grupo 55620" transform="translate(90.905 152.729)">
        <path id="Trazado_106707" data-name="Trazado 106707" d="M340.478,5825.632c-2.577.712-4.481-.011-4.1,4.745-.032,3.985-.124,17.517.17,21.944.358,5.213,3.667,23.875,4,25.206a2.1,2.1,0,0,0,1.027,1.375c.054-.227.131-.437.2-.656.333-.048,8.677-1.417,12.576-.935a5.967,5.967,0,0,1,.485,1.118,3.592,3.592,0,0,0,1.03-1.464s.885-21.009.4-25.764-3.356-23.991-3.8-25.24c-.3-.849-.545-1.108-1.833-1.184-.6-.031-1.394-.027-2.552-.013A48.382,48.382,0,0,0,340.478,5825.632Z" transform="translate(-336.331 -5824.754)" fill="#f1cc5f"/>
        <path id="Trazado_106708" data-name="Trazado 106708" d="M345.389,5914.975c-.066.218-.143.429-.2.656a6.879,6.879,0,0,0,2.328,7.006,11.366,11.366,0,0,1,3.456-1.825,6.98,6.98,0,0,1,6.116,1.02,5.732,5.732,0,0,0,.466-.537,6.891,6.891,0,0,0,.892-6.136,5.91,5.91,0,0,0-.485-1.118C354.066,5913.559,345.723,5914.928,345.389,5914.975Z" transform="translate(-339.915 -5861.684)" fill="#e7b048"/>
        <path id="Trazado_106709" data-name="Trazado 106709" d="M353.8,5921.737a11.359,11.359,0,0,0-3.907-.028c-6.606,1.26-5.608,9.983-5.128,12.328a29.354,29.354,0,0,0,1.335,4.273c1.334,3.467,3.534,7.339,6.052,6.724,3.765-.934,7.722-7.959,7.787-13.758a11.866,11.866,0,0,0-1.233-5.747A6.978,6.978,0,0,0,353.8,5921.737Z" transform="translate(-339.677 -5864.837)" fill="#fcd268"/>
      </g>
      <circle id="Elipse_4041" data-name="Elipse 4041" cx="10.788" cy="10.788" r="10.788" transform="translate(5.876 75.671)" fill="#e7b048"/>
      <circle id="Elipse_4042" data-name="Elipse 4042" cx="8.989" cy="8.989" r="8.989" transform="translate(3.109 142.117)" fill="#e7b048"/>
      <path id="Trazado_106710" data-name="Trazado 106710" d="M202.3,5776.836a7.566,7.566,0,0,1-1.673.372,30.948,30.948,0,0,1-4.38.187,22.163,22.163,0,0,1-6.845-.983c-1.032-.354-1.595-.772-1.576-1.1.019-.8-1.666-23.043-1.4-28.741.271-5.72,3.286-21.9,3.628-23.926a8.216,8.216,0,0,1,.77-2.372c.308.449,2.805,2.868,8.328,3.553a15.152,15.152,0,0,0,9.02-1.7,3.967,3.967,0,0,1,.264,1.241c.065,1.2.446,20.2-.083,24.375-.42,3.371-2.647,18.143-3.773,24.6a28.971,28.971,0,0,1-.595,2.953A2.479,2.479,0,0,1,202.3,5776.836Z" transform="translate(-183.343 -5628.762)" fill="#f3c75d"/>
      <g id="Grupo_55621" data-name="Grupo 55621" transform="translate(0.307 153.923)">
        <path id="Trazado_106711" data-name="Trazado 106711" d="M196.718,5827.421c2.6.629,4.478-.154,4.247,4.611.159,3.982.681,17.5.529,21.938-.191,5.222-2.9,23.979-3.2,25.32a2.1,2.1,0,0,1-.983,1.408c-.061-.225-.145-.433-.217-.649-.335-.038-8.718-1.14-12.6-.534a5.947,5.947,0,0,0-.449,1.133,3.6,3.6,0,0,1-1.076-1.431s-1.553-20.969-1.219-25.738,2.59-24.085,3-25.348c.276-.858.509-1.125,1.795-1.242.595-.05,1.392-.071,2.55-.093A48.3,48.3,0,0,1,196.718,5827.421Z" transform="translate(-181.706 -5826.792)" fill="#f1cc5f"/>
        <path id="Trazado_106712" data-name="Trazado 106712" d="M198.49,5916.842c.072.216.156.424.217.649a6.879,6.879,0,0,1-2.1,7.077,11.337,11.337,0,0,0-3.512-1.713,6.979,6.979,0,0,0-6.081,1.214,5.7,5.7,0,0,1-.483-.522,6.892,6.892,0,0,1-1.086-6.1,5.941,5.941,0,0,1,.449-1.133C189.772,5915.7,198.155,5916.805,198.49,5916.842Z" transform="translate(-183.134 -5863.784)" fill="#e7b048"/>
        <path id="Trazado_106713" data-name="Trazado 106713" d="M189.222,5923.791a11.328,11.328,0,0,1,3.9-.153c6.642,1.049,5.923,9.8,5.518,12.158a29.364,29.364,0,0,1-1.2,4.314c-1.223,3.507-3.3,7.448-5.835,6.913-3.792-.814-7.972-7.708-8.222-13.5a11.872,11.872,0,0,1,1.049-5.783A6.978,6.978,0,0,1,189.222,5923.791Z" transform="translate(-182.396 -5866.851)" fill="#fcd268"/>
      </g>
      <path id="Trazado_106714" data-name="Trazado 106714" d="M317.348,6069.4c-.115.058-5.632,2.643-13.113-.015a6.457,6.457,0,0,1-.736-1.213,2.19,2.19,0,0,0-1.2,1.819c-.173,1.82-2.7,38.645-2.816,41.952s4.39,41.215,4.39,41.215-.231.707.852,1.328c.925.534,2.8,1.025,6.6.967,2.253-.029,5.155-.187,6.628-.852a1.437,1.437,0,0,0,.9-.837c.361-1.387,3.668-38.154,3.8-42.11.116-3.985-3.437-41.764-3.437-41.764a2.417,2.417,0,0,0-1.126-1.719,7.839,7.839,0,0,1-.722,1.213Z" transform="translate(-230.167 -5772.818)" fill="#f1cc5f"/>
      <path id="Trazado_106715" data-name="Trazado 106715" d="M295.164,5921.636a45.825,45.825,0,0,0-8.376,1.43c-1.358.478-2.079,1.069-2.094,1.936-.072,1.992.534,31.178,1.141,37.547s9.618,36.464,9.618,36.464a2.791,2.791,0,0,0,1.661,1.762,7.866,7.866,0,0,1,.462-1,39.466,39.466,0,0,1,13.156-1.43,6.752,6.752,0,0,1,.563.708,2.148,2.148,0,0,0,1.256-1.849c.116-1.978,1.2-32.969.953-38.326s-7.22-35.626-7.394-36.767c-.087-.491-.9-.794-2.325-.91A47.418,47.418,0,0,0,295.164,5921.636Z" transform="translate(-224.041 -5711.937)" fill="#f3c75d"/>
      <path id="Trazado_106716" data-name="Trazado 106716" d="M305.958,6054.285a7.871,7.871,0,0,0-.462,1,8.005,8.005,0,0,0-.564,2.961,8.178,8.178,0,0,0,.823,3.552,6.441,6.441,0,0,0,.736,1.213c7.481,2.657,13,.072,13.113.015l.014-.015a7.817,7.817,0,0,0,.722-1.213,7.94,7.94,0,0,0,.837-3.552,8.035,8.035,0,0,0-1.5-4.68,6.756,6.756,0,0,0-.563-.708A39.466,39.466,0,0,0,305.958,6054.285Z" transform="translate(-232.425 -5766.444)" fill="#e7b048"/>
      <path id="Trazado_106717" data-name="Trazado 106717" d="M308.229,6215.483a6.792,6.792,0,0,0,4.073,8.3c1.877-.332,4.491-.808,7.061-1.256a6.84,6.84,0,0,0,2.354-5.141,7.357,7.357,0,0,0-.26-1.791c-1.473.664-4.376.823-6.629.852C311.031,6216.508,309.153,6216.018,308.229,6215.483Z" transform="translate(-233.67 -5833.819)" fill="#e7b048"/>
      <path id="Trazado_106718" data-name="Trazado 106718" d="M318.783,5702.726h-3.6a33.34,33.34,0,0,1,.809,10.282h2.643a10.587,10.587,0,0,1-1.242-5A10.718,10.718,0,0,1,318.783,5702.726Z" transform="translate(-236.671 -5621.495)" fill="#d69a3a"/>
      <path id="Trazado_106719" data-name="Trazado 106719" d="M282.505,5903.212a11.067,11.067,0,0,0,3.379,7.957,45.825,45.825,0,0,1,8.376-1.43,47.428,47.428,0,0,1,8.622-.433,11.077,11.077,0,0,0-6.745-16.9h-5.054A11.1,11.1,0,0,0,282.505,5903.212Z" transform="translate(-223.137 -5700.04)" fill="#e7b048"/>
      <path id="Trazado_106720" data-name="Trazado 106720" d="M279.883,5689.969a24.2,24.2,0,0,0-4.015-8.722,21.7,21.7,0,0,0-10.3-7.886,29.049,29.049,0,0,0-9.849-1.443,32.01,32.01,0,0,0-10.527,1.487,20.941,20.941,0,0,0-10.716,8.448,25.859,25.859,0,0,0-3.624,8.115,31.1,31.1,0,0,0-.809,10.282c.1,1.213.246,2.167.346,2.715.419,2.469,6.253,31.886,6.426,32.608.043.13.1.246.159.376.043-.116.52-.9,4.029-1.531a81.41,81.41,0,0,1,13.935-.881,83.822,83.822,0,0,1,13.907.866c4.087.708,4.506,1.6,4.506,1.6.361-1.386,6.975-32.984,7.221-34.659.029-.231.072-.606.115-1.1A33.342,33.342,0,0,0,279.883,5689.969Zm-13.7,18.528c-3.076,8.665-6.889,17.82-10.513,17.82-3.64,0-7.452-9.155-10.513-17.82s-4.737-12.636-2.831-18.773,9.1-9.314,13.344-9.314c4.231,0,11.437,3.177,13.343,9.314S269.254,5699.832,266.178,5708.5Z" transform="translate(-201.366 -5608.738)" fill="#f1cc5f"/>
      <path id="Trazado_106721" data-name="Trazado 106721" d="M234.7,5818.272a69.808,69.808,0,0,0-5.415,20.3,116.85,116.85,0,0,0,.087,17.214c.274,3.538.563,5.921.563,5.921h5.358s-1.069-12.217,2.542-20.882c2.931-6.975,7.033-12.435,12.52-14.3a12.964,12.964,0,0,1,4.2-.693,11.515,11.515,0,0,1,3.986.752c5.935,2.194,10.946,8.924,13.6,16.043,3.25,8.665,2.079,19.077,2.079,19.077h5.2s.462-2.759.78-6.946a87.841,87.841,0,0,0-.2-15.466,80.526,80.526,0,0,0-5.5-21.026H234.7Z" transform="translate(-200.983 -5669.34)" fill="#f1cc5f"/>
      <path id="Trazado_106722" data-name="Trazado 106722" d="M276.491,5847.982c-2.657-7.12-7.668-13.849-13.6-16.043a11.515,11.515,0,0,0-3.986-.751,12.951,12.951,0,0,0-4.2.693c-5.488,1.862-9.589,7.322-12.52,14.3-3.61,8.665-2.542,20.882-2.542,20.882h38.933S279.741,5856.646,276.491,5847.982Z" transform="translate(-205.326 -5674.688)" fill="#fce272"/>
      <path id="Trazado_106723" data-name="Trazado 106723" d="M279.494,5584.82c-.606-3.032-2.311-7.177-6.441-9.011-6.079-2.715-10.051,1.068-10.051,1.068s-3.437-4.679-11.178-.9a10.475,10.475,0,0,0-4.751,4.506,14.1,14.1,0,0,0-1.285,8.376l6.44,28.521,3.033-.4,7.047-.925,6.34,1.068,3.682.621s7.163-27.986,7.394-29.734A11.6,11.6,0,0,0,279.494,5584.82Z" transform="translate(-207.866 -5568.401)" fill="#fce272"/>
      <path id="Trazado_106724" data-name="Trazado 106724" d="M259.16,5778c-10.759,0-14.672,1.4-14.932,1.5a18.605,18.605,0,0,0-1.155,1.632,18.8,18.8,0,0,0-2.96,10.167,19.012,19.012,0,0,0,3.033,10.3H275.16a18.976,18.976,0,0,0,.2-20.261,18.11,18.11,0,0,0-1.285-1.833C273.832,5779.4,269.918,5778,259.16,5778Z" transform="translate(-205.583 -5652.664)" fill="#e7b048"/>
      <path id="Trazado_106725" data-name="Trazado 106725" d="M263.85,5686.41c-4.246,0-11.438,3.177-13.344,9.314s-.246,10.108,2.831,18.773,6.873,17.82,10.513,17.82c3.624,0,7.437-9.155,10.513-17.82s4.737-12.636,2.83-18.773S268.081,5686.41,263.85,5686.41Z" transform="translate(-209.552 -5614.739)" fill="#fce272"/>
      <path id="Trazado_106726" data-name="Trazado 106726" d="M253.714,5649.813c.318-.376,2.8-3.062,10.312-3.062,6.975,0,9.17,2.325,9.632,2.946a1.414,1.414,0,0,1,.1.159,11.632,11.632,0,0,1,1.473,3.379,6.626,6.626,0,0,0,2.512-2.642c-.13-1.921-3.552-3.48-3.552-3.48l-3.682-.621-6.34-1.069-7.047.925-3.033.4a15.389,15.389,0,0,0-2.83,1.545,3.225,3.225,0,0,0-1.141,2.21v.014a4.783,4.783,0,0,0,2.224,2.224,11.988,11.988,0,0,1,1.343-2.888A.176.176,0,0,0,253.714,5649.813Z" transform="translate(-209.727 -5597.766)" fill="#d69a3a"/>
      <path id="Trazado_106727" data-name="Trazado 106727" d="M275.126,5663.329a11.924,11.924,0,0,0,1.7-6.123,12.29,12.29,0,0,0-.4-3.032,11.634,11.634,0,0,0-1.473-3.379,1.414,1.414,0,0,0-.1-.159c-.462-.621-2.657-2.946-9.632-2.946-7.51,0-9.993,2.686-10.312,3.061a.162.162,0,0,1-.029.043,12,12,0,0,0-1.343,2.888,11.8,11.8,0,0,0,1.213,9.69,32.022,32.022,0,0,1,10.527-1.487A29.049,29.049,0,0,1,275.126,5663.329Z" transform="translate(-210.921 -5598.706)" fill="#e7b048"/>
      <path id="Trazado_106728" data-name="Trazado 106728" d="M233.7,5892.41a11.1,11.1,0,0,0-6.729,16.9,47.614,47.614,0,0,1,8.635.433,45.854,45.854,0,0,1,8.362,1.43,11.082,11.082,0,0,0-5.184-18.759H233.7Z" transform="translate(-199.388 -5700.04)" fill="#e7b048"/>
      <path id="Trazado_106729" data-name="Trazado 106729" d="M221.365,5921.2c-1.43.115-2.239.419-2.311.91-.187,1.141-7.163,31.41-7.408,36.767s.852,36.349.967,38.326a2.138,2.138,0,0,0,1.242,1.849,6.75,6.75,0,0,1,.563-.708,39.557,39.557,0,0,1,13.17,1.43,7.789,7.789,0,0,1,.462,1,2.742,2.742,0,0,0,1.646-1.762s9.025-30.081,9.632-36.464,1.2-35.555,1.141-37.547c-.029-.867-.751-1.458-2.109-1.936a45.854,45.854,0,0,0-8.362-1.43A47.6,47.6,0,0,0,221.365,5921.2Z" transform="translate(-193.783 -5711.937)" fill="#f3c75d"/>
      <path id="Trazado_106730" data-name="Trazado 106730" d="M246.74,5614.617a15.372,15.372,0,0,1,2.83-1.545l-6.44-28.521a14.1,14.1,0,0,1,1.285-8.376,10.472,10.472,0,0,1,4.751-4.505c7.741-3.784,11.178.9,11.178.9s3.971-3.784,10.051-1.069c4.13,1.834,5.835,5.979,6.441,9.012a11.6,11.6,0,0,1,.231,3.191c-.231,1.747-7.394,29.734-7.394,29.734s3.422,1.56,3.552,3.48c0,0,5.531-22.139,6.5-27.193a23.507,23.507,0,0,0-.289-9.777c-.289-1.343-.678-2.672-1.1-4-1.386-4.389-9.574-11.856-17.936-11.856s-14.5,3.8-18.167,9.994c-.3.52-.578,1.025-.838,1.53a20.154,20.154,0,0,0-1.935,12.549c.361,3.178,5.3,25.937,5.892,28.016a3.207,3.207,0,0,0,.245.65A3.224,3.224,0,0,1,246.74,5614.617Z" transform="translate(-205.207 -5564.087)" fill="#f1cc5f"/>
      <path id="Trazado_106731" data-name="Trazado 106731" d="M211.84,6069.4a.014.014,0,0,1-.015-.015,7.882,7.882,0,0,1-.722-1.213,2.458,2.458,0,0,0-1.141,1.719s-3.538,37.778-3.423,41.764c.116,3.956,3.423,40.724,3.8,42.11a1.4,1.4,0,0,0,.9.837c1.458.665,4.361.823,6.628.852,3.8.058,5.675-.433,6.585-.967,1.083-.621.867-1.328.867-1.328s4.52-37.894,4.39-41.215-2.643-40.132-2.83-41.952a2.212,2.212,0,0,0-1.184-1.819,8.433,8.433,0,0,1-.737,1.213C217.472,6072.038,211.956,6069.453,211.84,6069.4Z" transform="translate(-191.681 -5772.818)" fill="#f1cc5f"/>
      <path id="Trazado_106732" data-name="Trazado 106732" d="M193.817,6224.9a11.932,11.932,0,0,0-8.362,2.224c-3.437,2.4-4.274,8-4.274,8s7.943.231,18.109.418,20.521,0,20.521,0c-.477-6.917-7.163-7.394-7.163-7.394s-1.1-.2-2.758-.491c-1.877-.332-4.491-.809-7.076-1.256C198.669,6225.676,194.611,6224.968,193.817,6224.9Z" transform="translate(-181.181 -5837.687)" fill="#f1cc5f"/>
      <path id="Trazado_106733" data-name="Trazado 106733" d="M214.952,6052.855a6.752,6.752,0,0,0-.563.708,8.129,8.129,0,0,0-1.487,4.68,7.94,7.94,0,0,0,.837,3.552,7.86,7.86,0,0,0,.722,1.213.015.015,0,0,0,.015.015c.115.057,5.632,2.642,13.112-.015a8.407,8.407,0,0,0,.737-1.213,8.177,8.177,0,0,0,.823-3.552,8,8,0,0,0-.563-2.961,7.791,7.791,0,0,0-.462-1A39.557,39.557,0,0,0,214.952,6052.855Z" transform="translate(-194.316 -5766.444)" fill="#e7b048"/>
      <path id="Trazado_106734" data-name="Trazado 106734" d="M214.369,6215.6a7.329,7.329,0,0,0-.26,1.791,6.878,6.878,0,0,0,2.34,5.141c2.585.448,5.2.924,7.076,1.256a6.882,6.882,0,0,0,4.361-6.4,6.431,6.431,0,0,0-.3-1.907c-.91.535-2.787,1.025-6.585.967C218.73,6216.422,215.827,6216.263,214.369,6215.6Z" transform="translate(-194.816 -5833.819)" fill="#e7b048"/>
      <path id="Trazado_106735" data-name="Trazado 106735" d="M228.632,5702.726H224.56a10.725,10.725,0,0,1,1.386,5.286,10.581,10.581,0,0,1-1.242,5h3.119A31.1,31.1,0,0,1,228.632,5702.726Z" transform="translate(-199.143 -5621.495)" fill="#d69a3a"/>
    </g>
    <g id="Grupo_55625" data-name="Grupo 55625" transform="translate(527.173 5558.747)">
      <circle id="Elipse_4043" data-name="Elipse 4043" cx="10.788" cy="10.788" r="10.788" transform="translate(80.587 75.671)" fill="#e7b048"/>
      <circle id="Elipse_4044" data-name="Elipse 4044" cx="8.989" cy="8.989" r="8.989" transform="translate(89.175 141.072)" fill="#e7b048"/>
      <path id="Trazado_106736" data-name="Trazado 106736" d="M864.346,5777.953a83.833,83.833,0,0,0-13.907-.866,81.418,81.418,0,0,0-13.936.881c-3.509.635-3.985,1.415-4.029,1.531a2.383,2.383,0,0,0,1.863,1.242l.015.015a18.4,18.4,0,0,1,1.155-1.632c.26-.1,4.173-1.5,14.932-1.5s14.672,1.4,14.917,1.5a18.117,18.117,0,0,1,1.286,1.834l.014-.015s1.835-.014,2.2-1.387C868.851,5779.556,868.432,5778.661,864.346,5777.953Z" transform="translate(-796.862 -5652.287)" fill="#d69a3a"/>
      <path id="Trazado_106737" data-name="Trazado 106737" d="M921.822,5775.189a7.56,7.56,0,0,0,1.685.319,30.878,30.878,0,0,0,4.384.046,22.142,22.142,0,0,0,6.81-1.2c1.021-.387,1.57-.822,1.54-1.148-.044-.8.931-23.084.479-28.771-.452-5.708-3.982-21.787-4.388-23.8a8.214,8.214,0,0,0-.846-2.346c-.293.458-2.713,2.955-8.211,3.817a15.164,15.164,0,0,1-9.069-1.408,3.957,3.957,0,0,0-.224,1.248c-.026,1.2.2,20.2.86,24.36.527,3.355,3.223,18.049,4.554,24.467a29.25,29.25,0,0,0,.688,2.932A2.48,2.48,0,0,0,921.822,5775.189Z" transform="translate(-830.611 -5627.94)" fill="#f3c75d"/>
      <path id="Trazado_106738" data-name="Trazado 106738" d="M896.128,6228.146s-6.686.477-7.163,7.394c0,0,10.354.188,20.521,0s18.109-.418,18.109-.418-.838-5.6-4.275-8a11.931,11.931,0,0,0-8.362-2.224c-.809.072-4.867.779-9.011,1.5-2.57.447-5.185.924-7.062,1.256C897.225,6227.943,896.128,6228.146,896.128,6228.146Z" transform="translate(-820.254 -5837.687)" fill="#f1cc5f"/>
      <g id="Grupo_55623" data-name="Grupo 55623" transform="translate(90.906 152.729)">
        <path id="Trazado_106739" data-name="Trazado 106739" d="M930.992,5825.632c-2.577.712-4.48-.011-4.1,4.745-.032,3.985-.124,17.517.17,21.944.357,5.213,3.667,23.875,4,25.206a2.1,2.1,0,0,0,1.027,1.375c.054-.227.131-.437.2-.656.334-.048,8.678-1.417,12.576-.935a5.925,5.925,0,0,1,.485,1.118,3.6,3.6,0,0,0,1.031-1.464s.884-21.009.4-25.764-3.356-23.991-3.8-25.24c-.3-.849-.545-1.108-1.833-1.184-.6-.031-1.393-.027-2.552-.013A48.392,48.392,0,0,0,930.992,5825.632Z" transform="translate(-926.845 -5824.754)" fill="#f1cc5f"/>
        <path id="Trazado_106740" data-name="Trazado 106740" d="M935.9,5914.975c-.065.218-.143.429-.2.656a6.88,6.88,0,0,0,2.328,7.006,11.354,11.354,0,0,1,3.455-1.825,6.98,6.98,0,0,1,6.116,1.02,5.732,5.732,0,0,0,.466-.537,6.889,6.889,0,0,0,.891-6.136,5.871,5.871,0,0,0-.485-1.118C944.58,5913.559,936.236,5914.928,935.9,5914.975Z" transform="translate(-930.428 -5861.684)" fill="#e7b048"/>
        <path id="Trazado_106741" data-name="Trazado 106741" d="M944.313,5921.737a11.362,11.362,0,0,0-3.907-.028c-6.605,1.26-5.608,9.983-5.128,12.328a29.361,29.361,0,0,0,1.335,4.273c1.334,3.467,3.534,7.339,6.052,6.724,3.764-.934,7.722-7.959,7.787-13.758a11.873,11.873,0,0,0-1.233-5.747A6.979,6.979,0,0,0,944.313,5921.737Z" transform="translate(-930.191 -5864.837)" fill="#fcd268"/>
      </g>
      <circle id="Elipse_4045" data-name="Elipse 4045" cx="10.788" cy="10.788" r="10.788" transform="translate(5.876 75.671)" fill="#e7b048"/>
      <circle id="Elipse_4046" data-name="Elipse 4046" cx="8.989" cy="8.989" r="8.989" transform="translate(3.109 142.117)" fill="#e7b048"/>
      <path id="Trazado_106742" data-name="Trazado 106742" d="M792.814,5776.836a7.572,7.572,0,0,1-1.674.372,30.94,30.94,0,0,1-4.38.187,22.159,22.159,0,0,1-6.844-.983c-1.032-.354-1.595-.772-1.576-1.1.018-.8-1.666-23.043-1.4-28.741.27-5.72,3.286-21.9,3.627-23.926a8.237,8.237,0,0,1,.77-2.372c.308.449,2.805,2.868,8.329,3.553a15.15,15.15,0,0,0,9.02-1.7,3.972,3.972,0,0,1,.264,1.241c.064,1.2.446,20.2-.084,24.375-.42,3.371-2.647,18.143-3.773,24.6a29.226,29.226,0,0,1-.594,2.953A2.482,2.482,0,0,1,792.814,5776.836Z" transform="translate(-773.856 -5628.762)" fill="#f3c75d"/>
      <g id="Grupo_55624" data-name="Grupo 55624" transform="translate(0.308 153.923)">
        <path id="Trazado_106743" data-name="Trazado 106743" d="M787.232,5827.421c2.6.629,4.478-.154,4.247,4.611.159,3.982.681,17.5.529,21.938-.192,5.222-2.9,23.979-3.2,25.32a2.1,2.1,0,0,1-.983,1.408c-.061-.225-.145-.433-.218-.649-.335-.038-8.719-1.14-12.6-.534a5.87,5.87,0,0,0-.449,1.133,3.6,3.6,0,0,1-1.077-1.431s-1.553-20.969-1.219-25.738,2.59-24.085,3-25.348c.276-.858.51-1.125,1.795-1.242.595-.05,1.392-.071,2.55-.093A48.3,48.3,0,0,1,787.232,5827.421Z" transform="translate(-772.219 -5826.792)" fill="#f1cc5f"/>
        <path id="Trazado_106744" data-name="Trazado 106744" d="M789,5916.842c.073.216.157.424.218.649a6.879,6.879,0,0,1-2.1,7.077,11.334,11.334,0,0,0-3.511-1.713,6.98,6.98,0,0,0-6.081,1.214,5.782,5.782,0,0,1-.483-.522,6.892,6.892,0,0,1-1.086-6.1,5.858,5.858,0,0,1,.449-1.133C780.286,5915.7,788.668,5916.805,789,5916.842Z" transform="translate(-773.648 -5863.784)" fill="#e7b048"/>
        <path id="Trazado_106745" data-name="Trazado 106745" d="M779.736,5923.791a11.325,11.325,0,0,1,3.9-.153c6.643,1.049,5.924,9.8,5.518,12.158a29.368,29.368,0,0,1-1.2,4.314c-1.223,3.507-3.3,7.448-5.835,6.913-3.792-.814-7.972-7.708-8.222-13.5a11.872,11.872,0,0,1,1.049-5.783A6.977,6.977,0,0,1,779.736,5923.791Z" transform="translate(-772.909 -5866.851)" fill="#fcd268"/>
      </g>
      <path id="Trazado_106746" data-name="Trazado 106746" d="M907.862,6069.4c-.115.058-5.632,2.643-13.112-.015a6.455,6.455,0,0,1-.737-1.213,2.191,2.191,0,0,0-1.2,1.819c-.173,1.82-2.7,38.645-2.816,41.952s4.39,41.215,4.39,41.215-.231.707.852,1.328c.924.534,2.8,1.025,6.6.967,2.253-.029,5.156-.187,6.629-.852a1.437,1.437,0,0,0,.9-.837c.361-1.387,3.668-38.154,3.8-42.11.115-3.985-3.437-41.764-3.437-41.764a2.417,2.417,0,0,0-1.127-1.719,7.882,7.882,0,0,1-.722,1.213Z" transform="translate(-820.68 -5772.818)" fill="#f1cc5f"/>
      <path id="Trazado_106747" data-name="Trazado 106747" d="M885.677,5921.636a45.815,45.815,0,0,0-8.376,1.43c-1.358.478-2.08,1.069-2.094,1.936-.073,1.992.534,31.178,1.141,37.547s9.618,36.464,9.618,36.464a2.789,2.789,0,0,0,1.661,1.762,7.777,7.777,0,0,1,.462-1,39.462,39.462,0,0,1,13.156-1.43,6.762,6.762,0,0,1,.564.708,2.15,2.15,0,0,0,1.256-1.849c.115-1.978,1.2-32.969.953-38.326s-7.221-35.626-7.394-36.767c-.087-.491-.9-.794-2.325-.91A47.413,47.413,0,0,0,885.677,5921.636Z" transform="translate(-814.555 -5711.937)" fill="#f3c75d"/>
      <path id="Trazado_106748" data-name="Trazado 106748" d="M896.472,6054.285a7.777,7.777,0,0,0-.462,1,8,8,0,0,0-.563,2.961,8.177,8.177,0,0,0,.823,3.552,6.442,6.442,0,0,0,.736,1.213c7.48,2.657,13,.072,13.112.015l.015-.015a8.344,8.344,0,0,0,1.56-4.765,8.036,8.036,0,0,0-1.5-4.68,6.762,6.762,0,0,0-.564-.708A39.462,39.462,0,0,0,896.472,6054.285Z" transform="translate(-822.938 -5766.444)" fill="#e7b048"/>
      <path id="Trazado_106749" data-name="Trazado 106749" d="M898.743,6215.483a6.793,6.793,0,0,0,4.072,8.3c1.877-.332,4.492-.808,7.062-1.256a6.84,6.84,0,0,0,2.354-5.141,7.355,7.355,0,0,0-.26-1.791c-1.473.664-4.376.823-6.629.852C901.544,6216.508,899.667,6216.018,898.743,6215.483Z" transform="translate(-824.183 -5833.819)" fill="#e7b048"/>
      <path id="Trazado_106750" data-name="Trazado 106750" d="M909.3,5702.726h-3.6a33.308,33.308,0,0,1,.809,10.282h2.643a10.58,10.58,0,0,1-1.242-5A10.725,10.725,0,0,1,909.3,5702.726Z" transform="translate(-827.184 -5621.495)" fill="#d69a3a"/>
      <path id="Trazado_106751" data-name="Trazado 106751" d="M873.018,5903.212a11.066,11.066,0,0,0,3.38,7.957,45.815,45.815,0,0,1,8.376-1.43,47.423,47.423,0,0,1,8.621-.433,11.077,11.077,0,0,0-6.744-16.9H881.6A11.1,11.1,0,0,0,873.018,5903.212Z" transform="translate(-813.651 -5700.04)" fill="#e7b048"/>
      <path id="Trazado_106752" data-name="Trazado 106752" d="M870.4,5689.969a24.191,24.191,0,0,0-4.015-8.722,21.7,21.7,0,0,0-10.3-7.886,29.051,29.051,0,0,0-9.849-1.443,32.014,32.014,0,0,0-10.528,1.487,20.942,20.942,0,0,0-10.715,8.448,25.846,25.846,0,0,0-3.625,8.115,31.109,31.109,0,0,0-.809,10.282c.1,1.213.245,2.167.347,2.715.418,2.469,6.253,31.886,6.426,32.608.043.13.1.246.159.376.043-.116.52-.9,4.029-1.531a81.419,81.419,0,0,1,13.936-.881,83.833,83.833,0,0,1,13.907.866c4.087.708,4.506,1.6,4.506,1.6.361-1.386,6.975-32.984,7.22-34.659.029-.231.072-.606.115-1.1A33.308,33.308,0,0,0,870.4,5689.969Zm-13.7,18.528c-3.076,8.665-6.888,17.82-10.513,17.82s-7.452-9.155-10.513-17.82-4.737-12.636-2.831-18.773,9.1-9.314,13.344-9.314,11.437,3.177,13.344,9.314S859.768,5699.832,856.691,5708.5Z" transform="translate(-791.88 -5608.738)" fill="#f1cc5f"/>
      <path id="Trazado_106753" data-name="Trazado 106753" d="M825.216,5818.272a69.818,69.818,0,0,0-5.416,20.3,116.834,116.834,0,0,0,.087,17.214c.275,3.538.564,5.921.564,5.921h5.358s-1.069-12.217,2.541-20.882c2.932-6.975,7.033-12.435,12.521-14.3a12.959,12.959,0,0,1,4.2-.693,11.513,11.513,0,0,1,3.985.752c5.935,2.194,10.947,8.924,13.6,16.043,3.249,8.665,2.079,19.077,2.079,19.077h5.2s.462-2.759.78-6.946a87.894,87.894,0,0,0-.2-15.466,80.513,80.513,0,0,0-5.5-21.026h-39.8Z" transform="translate(-791.496 -5669.34)" fill="#f1cc5f"/>
      <path id="Trazado_106754" data-name="Trazado 106754" d="M867.005,5847.982c-2.657-7.12-7.668-13.849-13.6-16.043a11.512,11.512,0,0,0-3.985-.751,12.946,12.946,0,0,0-4.2.693c-5.488,1.862-9.589,7.322-12.521,14.3-3.61,8.665-2.541,20.882-2.541,20.882h38.933S870.254,5856.646,867.005,5847.982Z" transform="translate(-795.839 -5674.688)" fill="#fce272"/>
      <path id="Trazado_106755" data-name="Trazado 106755" d="M870.008,5584.82c-.607-3.032-2.311-7.177-6.441-9.011-6.079-2.715-10.051,1.068-10.051,1.068s-3.437-4.679-11.178-.9a10.47,10.47,0,0,0-4.751,4.506,14.107,14.107,0,0,0-1.286,8.376l6.441,28.521,3.033-.4,7.047-.925,6.34,1.068,3.682.621s7.163-27.986,7.394-29.734A11.626,11.626,0,0,0,870.008,5584.82Z" transform="translate(-798.38 -5568.401)" fill="#fce272"/>
      <path id="Trazado_106756" data-name="Trazado 106756" d="M849.673,5778c-10.759,0-14.673,1.4-14.932,1.5a18.471,18.471,0,0,0-1.155,1.632,18.8,18.8,0,0,0-2.961,10.167,19.016,19.016,0,0,0,3.033,10.3h32.016a18.978,18.978,0,0,0,.2-20.261,18.1,18.1,0,0,0-1.286-1.833C864.345,5779.4,860.432,5778,849.673,5778Z" transform="translate(-796.096 -5652.664)" fill="#e7b048"/>
      <path id="Trazado_106757" data-name="Trazado 106757" d="M854.364,5686.41c-4.246,0-11.437,3.177-13.344,9.314s-.245,10.108,2.831,18.773,6.874,17.82,10.513,17.82,7.437-9.155,10.513-17.82,4.737-12.636,2.831-18.773S858.6,5686.41,854.364,5686.41Z" transform="translate(-800.065 -5614.739)" fill="#fce272"/>
      <path id="Trazado_106758" data-name="Trazado 106758" d="M844.228,5649.813c.318-.376,2.8-3.062,10.311-3.062,6.975,0,9.17,2.325,9.633,2.946a1.339,1.339,0,0,1,.1.159,11.6,11.6,0,0,1,1.473,3.379,6.626,6.626,0,0,0,2.513-2.642c-.13-1.921-3.552-3.48-3.552-3.48l-3.682-.621-6.34-1.069-7.047.925-3.033.4a15.406,15.406,0,0,0-2.831,1.545,3.226,3.226,0,0,0-1.141,2.21v.014a4.784,4.784,0,0,0,2.224,2.224,11.986,11.986,0,0,1,1.343-2.888A.2.2,0,0,0,844.228,5649.813Z" transform="translate(-800.24 -5597.766)" fill="#d69a3a"/>
      <path id="Trazado_106759" data-name="Trazado 106759" d="M865.64,5663.329a11.923,11.923,0,0,0,1.7-6.123,12.29,12.29,0,0,0-.4-3.032,11.6,11.6,0,0,0-1.473-3.379,1.339,1.339,0,0,0-.1-.159c-.462-.621-2.657-2.946-9.633-2.946-7.509,0-9.993,2.686-10.311,3.061a.181.181,0,0,1-.029.043,12,12,0,0,0-1.343,2.888,11.8,11.8,0,0,0,1.213,9.69,32.026,32.026,0,0,1,10.528-1.487A29.051,29.051,0,0,1,865.64,5663.329Z" transform="translate(-801.434 -5598.706)" fill="#e7b048"/>
      <path id="Trazado_106760" data-name="Trazado 106760" d="M824.214,5892.41a11.1,11.1,0,0,0-6.73,16.9,47.62,47.62,0,0,1,8.636.433,45.855,45.855,0,0,1,8.362,1.43,11.082,11.082,0,0,0-5.185-18.759h-5.083Z" transform="translate(-789.902 -5700.04)" fill="#e7b048"/>
      <path id="Trazado_106761" data-name="Trazado 106761" d="M811.879,5921.2c-1.43.115-2.238.419-2.31.91-.188,1.141-7.163,31.41-7.408,36.767s.852,36.349.967,38.326a2.137,2.137,0,0,0,1.242,1.849,6.678,6.678,0,0,1,.563-.708,39.557,39.557,0,0,1,13.17,1.43,7.794,7.794,0,0,1,.462,1,2.743,2.743,0,0,0,1.646-1.762s9.026-30.081,9.633-36.464,1.2-35.555,1.141-37.547c-.029-.867-.751-1.458-2.108-1.936a45.854,45.854,0,0,0-8.362-1.43A47.609,47.609,0,0,0,811.879,5921.2Z" transform="translate(-784.296 -5711.937)" fill="#f3c75d"/>
      <path id="Trazado_106762" data-name="Trazado 106762" d="M837.253,5614.617a15.389,15.389,0,0,1,2.831-1.545l-6.441-28.521a14.107,14.107,0,0,1,1.286-8.376,10.466,10.466,0,0,1,4.751-4.505c7.741-3.784,11.178.9,11.178.9s3.971-3.784,10.051-1.069c4.13,1.834,5.834,5.979,6.441,9.012a11.622,11.622,0,0,1,.231,3.191c-.231,1.747-7.394,29.734-7.394,29.734s3.422,1.56,3.552,3.48c0,0,5.531-22.139,6.5-27.193a23.517,23.517,0,0,0-.289-9.777c-.289-1.343-.678-2.672-1.1-4-1.386-4.389-9.574-11.856-17.936-11.856s-14.5,3.8-18.167,9.994c-.3.52-.578,1.025-.837,1.53a20.151,20.151,0,0,0-1.935,12.549c.361,3.178,5.3,25.937,5.892,28.016a3.171,3.171,0,0,0,.246.65A3.225,3.225,0,0,1,837.253,5614.617Z" transform="translate(-795.72 -5564.087)" fill="#f1cc5f"/>
      <path id="Trazado_106763" data-name="Trazado 106763" d="M802.354,6069.4a.014.014,0,0,1-.014-.015,7.837,7.837,0,0,1-.722-1.213,2.46,2.46,0,0,0-1.141,1.719s-3.538,37.778-3.422,41.764c.115,3.956,3.422,40.724,3.8,42.11a1.4,1.4,0,0,0,.9.837c1.459.665,4.362.823,6.629.852,3.8.058,5.676-.433,6.585-.967,1.083-.621.867-1.328.867-1.328s4.52-37.894,4.39-41.215-2.643-40.132-2.831-41.952a2.209,2.209,0,0,0-1.184-1.819,8.488,8.488,0,0,1-.736,1.213C807.986,6072.038,802.47,6069.453,802.354,6069.4Z" transform="translate(-782.194 -5772.818)" fill="#f1cc5f"/>
      <path id="Trazado_106764" data-name="Trazado 106764" d="M784.33,6224.9a11.93,11.93,0,0,0-8.361,2.224c-3.437,2.4-4.275,8-4.275,8s7.943.231,18.109.418,20.521,0,20.521,0c-.476-6.917-7.163-7.394-7.163-7.394s-1.1-.2-2.758-.491c-1.878-.332-4.492-.809-7.076-1.256C789.182,6225.676,785.124,6224.968,784.33,6224.9Z" transform="translate(-771.694 -5837.687)" fill="#f1cc5f"/>
      <path id="Trazado_106765" data-name="Trazado 106765" d="M805.466,6052.855a6.685,6.685,0,0,0-.563.708,8.125,8.125,0,0,0-1.488,4.68,7.939,7.939,0,0,0,.837,3.552,7.814,7.814,0,0,0,.722,1.213s0,.015.014.015c.116.057,5.632,2.642,13.113-.015a8.462,8.462,0,0,0,.737-1.213,8.179,8.179,0,0,0,.823-3.552,8.005,8.005,0,0,0-.563-2.961,7.785,7.785,0,0,0-.462-1A39.558,39.558,0,0,0,805.466,6052.855Z" transform="translate(-784.829 -5766.444)" fill="#e7b048"/>
      <path id="Trazado_106766" data-name="Trazado 106766" d="M804.883,6215.6a7.355,7.355,0,0,0-.26,1.791,6.876,6.876,0,0,0,2.34,5.141c2.584.448,5.2.924,7.076,1.256a6.882,6.882,0,0,0,4.361-6.4,6.411,6.411,0,0,0-.3-1.907c-.909.535-2.787,1.025-6.585.967C809.244,6216.422,806.342,6216.263,804.883,6215.6Z" transform="translate(-785.329 -5833.819)" fill="#e7b048"/>
      <path id="Trazado_106767" data-name="Trazado 106767" d="M819.146,5702.726h-4.073a10.725,10.725,0,0,1,1.386,5.286,10.581,10.581,0,0,1-1.242,5h3.119A31.107,31.107,0,0,1,819.146,5702.726Z" transform="translate(-789.656 -5621.495)" fill="#d69a3a"/>
    </g>
    <g id="Grupo_55633" data-name="Grupo 55633" transform="translate(301.383 5558.747)">
      <g id="Grupo_55632" data-name="Grupo 55632" transform="translate(0 3.415)">
        <g id="Grupo_55631" data-name="Grupo 55631">
          <g id="Grupo_55627" data-name="Grupo 55627" transform="translate(0 48.387)">
            <path id="Trazado_106768" data-name="Trazado 106768" d="M514.439,5810.785a24.019,24.019,0,0,1-.669-9.323c2.822-22.3-5.037-31.86-3.051-43.141,2.566-14.567,1.965-65.4-4.58-73.716-6.488-8.244-29.656-13.04-37.84-16.376-8.156-3.324-11.5-15.729-11.5-15.729l-9.779.017s-3.312,12.417-11.458,15.767c-8.175,3.363-31.331,8.236-37.8,16.5-6.521,8.338-6.969,59.18-4.36,73.739,2.021,11.273-5.811,20.858-2.921,43.155a24.036,24.036,0,0,1-.641,9.326c-1.772,6.575-4.527,17.607-3.119,17.777,2.015.242,9.075-16.633,9.715-19.487,1.186-5.291,14.86-76.833,20.115-104.365,3.6,11.909,8.275,43.569,8.712,60.225.82,31.264-21.63,47.714,4.465,107.522,7.622,17.47-2.055,22.294-1.641,43.986.015-.388.022-.623.025-.735-.033,1.489-.478,32.248,10.169,60.972a5.122,5.122,0,0,1-.951,5.6l-12.1,10.935a2.143,2.143,0,0,0,.438,3.453c2.942,1.153,8.147,1.583,11.1,1.74a4.679,4.679,0,0,0,3.84-1.809c2.908-3.509,6.317-9.879,6.406-16.027l3.425-185.638,3.348-.006,4.01,185.624c.107,6.147,3.535,12.5,6.453,16a4.672,4.672,0,0,0,3.845,1.794c2.949-.167,8.152-.618,11.091-1.782a2.145,2.145,0,0,0,.428-3.456l-12.136-10.887a5.123,5.123,0,0,1-.968-5.6c10.559-28.764,10.023-59.519,9.986-61.008,0,.112.011.347.026.735.35-21.694-9.078-26.351-1.819-43.978,24.014-58.308,3.421-75.678,4.161-107.529.387-16.657,4.993-48.335,8.561-60.256,5.337,27.513,19.222,99,20.424,104.287.648,2.851,7.757,19.7,9.771,19.45C519.018,5828.374,516.231,5817.352,514.439,5810.785Z" transform="translate(-386.333 -5652.499)" fill="#fff"/>
            <g id="Grupo_55626" data-name="Grupo 55626" clip-path="url(#clip-path)">
              <path id="Trazado_106769" data-name="Trazado 106769" d="M430.486,5726.532s1.4,4.033,3.274,10.307l-6.777,45Z" transform="translate(-403.166 -5683.155)" fill="#999" opacity="0.2"/>
              <path id="Trazado_106770" data-name="Trazado 106770" d="M561.5,5726.313s-1.363,3.958-3.189,10.131l7.325,42.435Z" transform="translate(-457.546 -5683.064)" fill="#999" opacity="0.2"/>
              <path id="Trazado_106771" data-name="Trazado 106771" d="M507.087,5862.272c-1.22-5.063-3.549-14.438-3.9-19.455-25.617,7.523-56.059.2-56.059.2-.347,4.976-3.828,13.2-5.024,18.227,12.98,6.369,31.422,12.719,31.422,12.719l3.348-.006h.018S494.133,5868.683,507.087,5862.272Z" transform="translate(-409.426 -5731.307)" fill="#222221"/>
              <path id="Trazado_106772" data-name="Trazado 106772" d="M461.993,5656.52a52.849,52.849,0,0,0,39.851-12.664" transform="translate(-417.663 -5648.92)" fill="none" stroke="#999" stroke-miterlimit="10" stroke-width="1.028" opacity="0.2"/>
            </g>
          </g>
          <g id="Grupo_55630" data-name="Grupo 55630" transform="translate(46.268)">
            <path id="Trazado_106774" data-name="Trazado 106774" d="M503.5,5598.845c1.01-15.289-.661-28.959-19.024-28.929s-19.989,13.705-18.929,28.991c.956,13.782,3.8,24,19.015,23.971S502.591,5612.63,503.5,5598.845Z" transform="translate(-465.3 -5569.916)" fill="#fff"/>
            <g id="Grupo_55629" data-name="Grupo 55629" clip-path="url(#clip-path-2)">
              <g id="Grupo_55628" data-name="Grupo 55628" transform="translate(7.889 22.216)">
                <path id="Trazado_106775" data-name="Trazado 106775" d="M503.447,5622.871c0-.785,1.834-1.425,4.1-1.428s4.1.63,4.1,1.416-1.835,1.425-4.1,1.429S503.448,5623.657,503.447,5622.871Z" transform="translate(-488.985 -5613.469)" fill="#ecc9d9"/>
                <path id="Trazado_106776" data-name="Trazado 106776" d="M478.79,5622.912c0-.786,1.834-1.426,4.1-1.429s4.1.63,4.1,1.416-1.835,1.426-4.1,1.429S478.791,5623.7,478.79,5622.912Z" transform="translate(-478.775 -5613.485)" fill="#ecc9d9"/>
                <path id="Trazado_106777" data-name="Trazado 106777" d="M478.764,5607.888s3.628,11.122,8.2-.014" transform="translate(-478.764 -5607.85)" fill="none" stroke="#222221" stroke-linecap="round" stroke-linejoin="round" stroke-width="1.056"/>
                <path id="Trazado_106778" data-name="Trazado 106778" d="M511.624,5607.833s-3.592,11.135-8.2.014" transform="translate(-488.974 -5607.833)" fill="none" stroke="#222221" stroke-linecap="round" stroke-linejoin="round" stroke-width="1.056"/>
                <path id="Trazado_106779" data-name="Trazado 106779" d="M499.139,5634.676a7.492,7.492,0,0,1-10.869.014" transform="translate(-482.7 -5618.948)" fill="none" stroke="#222221" stroke-linecap="round" stroke-linejoin="round" stroke-width="0.603"/>
                <path id="Trazado_106780" data-name="Trazado 106780" d="M496.872,5607.866l-.614,9.236,2.19-.005" transform="translate(-486.008 -5607.847)" fill="none" stroke="#222221" stroke-linecap="round" stroke-linejoin="round" stroke-width="0.603"/>
              </g>
            </g>
          </g>
        </g>
      </g>
      <path id="Trazado_106782" data-name="Trazado 106782" d="M501.237,5568.545a3.31,3.31,0,0,0-1.445-1.152c-18.611-7.61-28.922.3-28.922.3s-7.42,4.727-5.324,22.726l9.971-15.24c4.685,2.822,11.2,3.71,11.2,3.71a14.293,14.293,0,0,1-4.966,3.784,13.974,13.974,0,0,0,13.9-4.976l8.323,12.722C505.589,5576.55,502.663,5570.562,501.237,5568.545Z" transform="translate(-418.979 -5564.087)" fill="#f15a24"/>
    </g>
    <g id="Grupo_55644" data-name="Grupo 55644" transform="translate(659.946 5551.19)">
      <g id="Grupo_55643" data-name="Grupo 55643">
        <g id="Grupo_55642" data-name="Grupo 55642">
          <g id="Grupo_55635" data-name="Grupo 55635" transform="translate(0 55.428)">
            <path id="Trazado_106783" data-name="Trazado 106783" d="M1114.122,5812.539l-7.486-6.7a6.137,6.137,0,0,1-1.934-5.729c4.9-25.475-2.6-48.619-5.1-53.931a5.824,5.824,0,0,1-.541-2.7c1.158-31-1.453-53.969-4.487-62.5-3.3-9.287-26.576-17.717-29.775-20.67s-3.015-14.519-3.015-14.519h-10.729s.183,11.565-3.015,14.519-26.472,11.383-29.775,20.67c-3.034,8.531-5.645,31.5-4.487,62.5a5.832,5.832,0,0,1-.541,2.7c-2.495,5.313-10,28.456-5.1,53.931a6.137,6.137,0,0,1-1.935,5.729l-7.486,6.7a1.222,1.222,0,0,0,1.144,2.089,11.3,11.3,0,0,0,2.717-1.2c4.06-2.4,8.49-6.459,10.15-9.6,1.491-2.816,15.321-86.062,18.138-103.083,2.342,9.348,5.128,20.816,3.794,30.922-2.3,17.458-23.286,60.6,6.031,129.425a21.56,21.56,0,0,1,1.333,12.716c-7.738,38.246-9.252,41.917,6.138,92.982,0,0,1.693,12.45-10.232,25.3a1.031,1.031,0,0,0,.555,1.7c3.076.647,9.562,1.622,14.9-.178a1.031,1.031,0,0,0,.687-.976l1.165-208.559h2.365l1.165,208.559a1.03,1.03,0,0,0,.687.976c5.338,1.8,11.823.826,14.9.178a1.031,1.031,0,0,0,.555-1.7c-11.925-12.849-10.232-25.3-10.232-25.3,15.39-51.065,13.876-54.736,6.138-92.982a21.55,21.55,0,0,1,1.333-12.716c29.318-68.825,8.334-111.967,6.031-129.425-1.333-10.105,1.453-21.574,3.794-30.922,2.817,17.021,16.647,100.267,18.138,103.083,1.661,3.138,6.091,7.2,10.15,9.6a11.313,11.313,0,0,0,2.718,1.2A1.222,1.222,0,0,0,1114.122,5812.539Z" transform="translate(-998.302 -5645.79)" fill="#fff"/>
            <g id="Grupo_55634" data-name="Grupo 55634" clip-path="url(#clip-path-3)">
              <path id="Trazado_106784" data-name="Trazado 106784" d="M1104.961,5710.052c1.969,7.013-8.677,29.283-6.307,47.246.945,7.166,5.037,18.658,7.507,34.477-14.656-1.863-28.083,17.937-28.083,17.937h-2.364a43.477,43.477,0,0,0-28.084-17.937c2.47-15.819,6.562-27.312,7.507-34.477,2.37-17.963-8.276-40.233-6.307-47.246,0,0,18.677-8.693,27.43,4.041C1076.26,5714.093,1085.968,5702.873,1104.961,5710.052Z" transform="translate(-1018.727 -5671.2)" fill="#222221"/>
              <path id="Trazado_106785" data-name="Trazado 106785" d="M1081.38,5643.392a22.1,22.1,0,0,0,23.191-12.253" transform="translate(-1032.703 -5639.723)" fill="none" stroke="#999" stroke-miterlimit="10" stroke-width="1.026" opacity="0.2"/>
            </g>
          </g>
          <g id="Grupo_55641" data-name="Grupo 55641" transform="translate(39.816 12.871)">
            <path id="Trazado_106787" data-name="Trazado 106787" d="M1083.973,5573.158a39.212,39.212,0,0,0-16.669,5.948,65.268,65.268,0,0,0-1.048,11.985c0,20.221,12.286,27.789,17.716,27.789s17.717-7.568,17.717-27.789a65.212,65.212,0,0,0-1.048-11.985C1100.62,5579.114,1095.113,5573.906,1083.973,5573.158Z" transform="translate(-1066.257 -5573.158)" fill="#fff"/>
            <g id="Grupo_55640" data-name="Grupo 55640" clip-path="url(#clip-path-4)">
              <g id="Grupo_55639" data-name="Grupo 55639" transform="translate(4.6 12.029)">
                <g id="Grupo_55638" data-name="Grupo 55638" transform="translate(7.604 18.1)">
                  <g id="Grupo_55637" data-name="Grupo 55637">
                    <path id="Trazado_106788" data-name="Trazado 106788" d="M1092.6,5629.853c2.968-.05,5.729-4.237,5.5-4.07-.155.174-2.89-1.137-3.272-1.2-.465.217-2.175,2.057-2.224,2.017a17.4,17.4,0,0,0-2.224-2.019c-.53.008-3.13,1.353-3.275,1.2C1086.869,5625.611,1089.629,5629.8,1092.6,5629.853Z" transform="translate(-1087.086 -5624.581)" fill="#f45656"/>
                    <g id="Grupo_55636" data-name="Grupo 55636" clip-path="url(#clip-path-5)">
                      <path id="Trazado_106789" data-name="Trazado 106789" d="M1098.105,5626.6a7.58,7.58,0,0,1-11,0" transform="translate(-1087.095 -5625.416)" fill="none" stroke="#7c2727" stroke-linecap="round" stroke-linejoin="round" stroke-width="0.301"/>
                    </g>
                  </g>
                </g>
                <path id="Trazado_106791" data-name="Trazado 106791" d="M1102.558,5608.886c0-.794,1.858-1.439,4.151-1.439s4.15.645,4.15,1.439-1.858,1.439-4.15,1.439S1102.558,5609.681,1102.558,5608.886Z" transform="translate(-1085.889 -5599.386)" fill="#ecc9d9"/>
                <path id="Trazado_106792" data-name="Trazado 106792" d="M1076.264,5608.886c0-.794,1.858-1.439,4.15-1.439s4.15.645,4.15,1.439-1.858,1.439-4.15,1.439S1076.264,5609.681,1076.264,5608.886Z" transform="translate(-1075.001 -5599.386)" fill="#ecc9d9"/>
                <path id="Trazado_106793" data-name="Trazado 106793" d="M1074.108,5593.689s4.764,11.26,10.827,0" transform="translate(-1074.108 -5593.689)" fill="none" stroke="#222221" stroke-linecap="round" stroke-linejoin="round" stroke-width="1.204"/>
                <path id="Trazado_106794" data-name="Trazado 106794" d="M1111.229,5593.689s-4.764,11.26-10.827,0" transform="translate(-1084.996 -5593.689)" fill="none" stroke="#222221" stroke-linecap="round" stroke-linejoin="round" stroke-width="1.204"/>
                <path id="Trazado_106795" data-name="Trazado 106795" d="M1095.076,5609.717l-2.49-1.423,2.49-10.334" transform="translate(-1081.76 -5595.458)" fill="none" stroke="#222221" stroke-linecap="round" stroke-linejoin="round" stroke-width="0.602"/>
              </g>
            </g>
          </g>
          <path id="Trazado_106797" data-name="Trazado 106797" d="M1098.3,5563.05s-.452-14.91-17.562-11.295c-30.479,8.584-17.226,34.036-17.226,34.036,2.259.468,6.807-13.705,6.807-13.705,5.917,1.822,12.775.312,17.6-1.334a46.051,46.051,0,0,1-6.946,3.142c6.166-.151,13.111-5.723,13.111-5.723s1.807,13.253,5.12,16.115C1099.207,5584.285,1104.478,5565.46,1098.3,5563.05Z" transform="translate(-1024.118 -5551.19)" fill="#ff9696"/>
        </g>
      </g>
    </g>
  </g>
</svg>
