<svg xmlns="http://www.w3.org/2000/svg" xmlns:xlink="http://www.w3.org/1999/xlink" width="332.567" height="381.754" viewBox="0 0 332.567 381.754">
  <defs>
    <linearGradient id="linear-gradient" x1="0.493" y1="1.437" x2="0.505" y2="-0.295" gradientUnits="objectBoundingBox">
      <stop offset="0" stop-color="#515da6"/>
      <stop offset="0.121" stop-color="#4c5ba5"/>
      <stop offset="0.225" stop-color="#849dd0"/>
      <stop offset="0.332" stop-color="#4b82c2"/>
      <stop offset="0.401" stop-color="#5293ce"/>
      <stop offset="0.43" stop-color="#5493cf"/>
      <stop offset="0.469" stop-color="#4479bc"/>
      <stop offset="0.517" stop-color="#3b64ac"/>
      <stop offset="0.547" stop-color="#4b74b8"/>
      <stop offset="0.585" stop-color="#6b9bd2"/>
      <stop offset="0.663" stop-color="#4b62aa"/>
      <stop offset="0.749" stop-color="#4f72b6"/>
      <stop offset="0.781" stop-color="#366498"/>
      <stop offset="0.798" stop-color="#356194"/>
      <stop offset="0.812" stop-color="#32588a"/>
      <stop offset="0.825" stop-color="#2e4a78"/>
      <stop offset="0.838" stop-color="#273760"/>
      <stop offset="0.846" stop-color="#23274d"/>
      <stop offset="0.858" stop-color="#23274c"/>
      <stop offset="0.884" stop-color="#23274c"/>
      <stop offset="0.9" stop-color="#24284e"/>
      <stop offset="0.995" stop-color="#22264b"/>
    </linearGradient>
    <linearGradient id="linear-gradient-2" x1="0.507" y1="-0.025" x2="0.498" y2="0.991" gradientUnits="objectBoundingBox">
      <stop offset="0" stop-color="#607bbb"/>
      <stop offset="0.059" stop-color="#6d94cd"/>
      <stop offset="0.109" stop-color="#849dd0"/>
      <stop offset="0.183" stop-color="#6b84c1"/>
      <stop offset="0.251" stop-color="#5973b6"/>
      <stop offset="0.615" stop-color="#4d60a8"/>
      <stop offset="0.765" stop-color="#4c509c"/>
      <stop offset="0.865" stop-color="#4c4f9c"/>
      <stop offset="0.89" stop-color="#464891"/>
      <stop offset="0.934" stop-color="#373576"/>
      <stop offset="0.977" stop-color="#252055"/>
      <stop offset="0.987" stop-color="#1f1949"/>
      <stop offset="0.999" stop-color="#1c1543"/>
    </linearGradient>
    <radialGradient id="radial-gradient" cx="0.5" cy="0.5" r="0.187" gradientTransform="translate(-454.718 3.857) scale(2.68 2.68)" gradientUnits="objectBoundingBox">
      <stop offset="0" stop-color="#d5d3d5"/>
      <stop offset="0.041" stop-color="#d5d2d4"/>
      <stop offset="0.08" stop-color="#d5d3d5"/>
      <stop offset="0.114" stop-color="#d5d3d5"/>
      <stop offset="0.152" stop-color="#d5d3d5"/>
      <stop offset="0.175" stop-color="#d4d2d4"/>
      <stop offset="0.223" stop-color="#d5d3d5"/>
      <stop offset="0.25" stop-color="#d5d2d4"/>
      <stop offset="0.267" stop-color="#d2cfd0"/>
      <stop offset="0.289" stop-color="#d5d2d4"/>
      <stop offset="0.307" stop-color="#d4d2d5"/>
      <stop offset="0.348" stop-color="#d5d3d5"/>
      <stop offset="0.378" stop-color="#d4d2d5"/>
      <stop offset="0.414" stop-color="#d5d3d5"/>
      <stop offset="0.46" stop-color="#d1ced2"/>
      <stop offset="0.497" stop-color="#d5d2d4"/>
      <stop offset="0.524" stop-color="#d5d3d6"/>
      <stop offset="0.56" stop-color="#d1cfd2"/>
      <stop offset="0.611" stop-color="#d4d2d5"/>
      <stop offset="0.642" stop-color="#d4d2d4"/>
      <stop offset="0.679" stop-color="#d5d3d5"/>
      <stop offset="0.711" stop-color="#d6d4d7"/>
      <stop offset="0.777" stop-color="#d2d0d3"/>
      <stop offset="0.809" stop-color="#d1ced1"/>
      <stop offset="0.831" stop-color="#d5d3d6"/>
      <stop offset="0.877" stop-color="#d5d2d5"/>
      <stop offset="0.947" stop-color="#d3d1d3"/>
      <stop offset="0.984" stop-color="#d6d4d7"/>
    </radialGradient>
    <radialGradient id="radial-gradient-2" cx="-1.197" cy="0.482" r="1.116" gradientTransform="translate(-5.306 -0.005) scale(2.744 1.009)" gradientUnits="objectBoundingBox">
      <stop offset="0" stop-color="#12100b"/>
      <stop offset="0.519" stop-color="#312117"/>
      <stop offset="0.661" stop-color="#48301c"/>
      <stop offset="0.802" stop-color="#523520"/>
      <stop offset="0.986" stop-color="#6e4527"/>
    </radialGradient>
  </defs>
  <g id="Grupo_54616" data-name="Grupo 54616" transform="translate(-930.463 -5832.087)">
    <g id="Grupo_54602" data-name="Grupo 54602" transform="translate(930.463 6108.907)">
      <g id="Grupo_54598" data-name="Grupo 54598" transform="translate(172.304 49.034)" style="mix-blend-mode: multiply;isolation: isolate">
        <path id="Trazado_103504" data-name="Trazado 103504" d="M1215.176,6102.649a.458.458,0,0,1,.285.815c-1.744,1.39-7.693,4.667-27.97,10.627-5.976,2.041-15.72,5.55-19.908,4.917a5.7,5.7,0,0,0-2.99.453c-3.22,1.674-2.933,2.957-7.591,5.08-.4.183-1.8,1.013-2.223,1.129-10.369,4.016-9.314,4.226-15.366,6.48a310.81,310.81,0,0,0-62.189,26.386c-1.237.081-3.2-.285-3.676-.014.032-2.464.049-6.756.057-11.854s.006-11,0-16.686c-.013-11.371-.045-21.868-.057-23.31,0-.255,65.448-3.967,65.7-3.968l37.965-.029Z" transform="translate(-1073.527 -6102.649)" fill="#fff" opacity="0"/>
        <path id="Trazado_103505" data-name="Trazado 103505" d="M1073.547,6106.545c0-.245,65.586-3.8,65.828-3.8l37.831-.02,37.833-.021a.439.439,0,0,1,.238.8c-1.678,1.3-7.127,4.29-24.284,9.492q-1.749.533-3.666,1.088c-4.69,1.568-11.606,3.939-16.391,4.695a13.389,13.389,0,0,1-3.49.19,5.831,5.831,0,0,0-2.959.508c-2.42,1.287-2.87,2.34-5.028,3.7-.4.258-.908.543-1.464.824-.336.17-.7.344-1.1.524-.418.187-1.791.993-2.227,1.114-9.28,3.574-9.323,4.143-13.729,5.878-.468.186-1,.394-1.607.613-.344.124-9.242,2.613-21.619,7.371-6.54,2.512-13.365,5.345-20.9,8.864-6.049,2.811-12.924,6.32-19.609,10.082-1.263.115-3.2-.215-3.658.038.03-2.49.047-6.8.054-11.911v-.609c.006-4.986,0-10.676,0-16.158C1073.588,6118.42,1073.558,6107.931,1073.547,6106.545Z" transform="translate(-1073.527 -6102.64)" fill="#f9f9f8" opacity="0.038"/>
        <path id="Trazado_103506" data-name="Trazado 103506" d="M1073.547,6106.415c0-.234,65.723-3.633,65.955-3.633l37.7-.012,37.7-.012a.423.423,0,0,1,.191.787c-1.72,1.3-7.293,4.319-24.264,9.452q-1.747.535-3.664,1.082c-4.732,1.546-11.638,3.813-16.386,4.6a14.632,14.632,0,0,1-3.469.25,5.987,5.987,0,0,0-2.929.565c-2.37,1.287-2.866,2.334-5.026,3.694-.4.25-.925.542-1.467.814-.339.168-.706.34-1.107.515-.435.19-1.784.973-2.23,1.1-9.219,3.533-9.235,4.139-13.7,5.892-.456.181-.985.389-1.6.611-.532.19-9.687,2.771-21.6,7.345-6.917,2.653-13.436,5.363-20.875,8.837-5.8,2.675-12.919,6.33-19.584,10.066-1.291.149-3.2-.144-3.641.091.029-2.52.045-6.848.051-11.97v-.614c.006-5.016,0-10.732,0-16.234C1073.586,6118.226,1073.558,6107.746,1073.547,6106.415Z" transform="translate(-1073.527 -6102.628)" fill="#f2f2f2" opacity="0.077"/>
        <path id="Trazado_103507" data-name="Trazado 103507" d="M1073.547,6106.285c0-.226,65.86-3.466,66.083-3.466l37.566,0,37.566,0c.38,0,.514.5.143.774-1.762,1.3-7.46,4.348-24.246,9.41q-1.745.538-3.66,1.076a145.083,145.083,0,0,1-16.383,4.508,16.142,16.142,0,0,1-3.446.31,6.14,6.14,0,0,0-2.9.623c-2.322,1.286-2.863,2.333-5.025,3.683-.388.242-.942.545-1.471.8-.341.168-.709.336-1.109.509-.452.192-1.778.952-2.235,1.08-9.157,3.491-9.145,4.136-13.671,5.906-.446.177-.976.386-1.6.607-.721.256-10.131,2.93-21.578,7.323-7.295,2.792-13.509,5.378-20.857,8.807-5.553,2.542-12.912,6.343-19.558,10.051-1.319.184-3.2-.074-3.624.143.028-2.546.042-6.894.048-12.028v-.619c0-5.045,0-10.791,0-16.311C1073.584,6118.032,1073.557,6107.56,1073.547,6106.285Z" transform="translate(-1073.527 -6102.617)" fill="#ececeb" opacity="0.115"/>
        <path id="Trazado_103508" data-name="Trazado 103508" d="M1073.547,6106.156c0-.215,66-3.3,66.211-3.3l37.434,0,37.433,0c.365,0,.478.488.1.759-1.8,1.3-7.627,4.378-24.227,9.371-1.162.36-2.382.714-3.656,1.069a161.088,161.088,0,0,1-16.379,4.416,18.2,18.2,0,0,1-3.424.37,6.31,6.31,0,0,0-2.866.679c-2.274,1.286-2.858,2.332-5.023,3.673-.379.235-.959.543-1.474.793-.343.167-.712.334-1.112.5-.469.2-1.77.932-2.239,1.064-9.1,3.448-9.057,4.132-13.642,5.92-.436.172-.966.381-1.6.6-.909.322-10.575,3.088-21.558,7.3-7.672,2.935-13.582,5.4-20.837,8.777-5.305,2.409-12.906,6.355-19.532,10.039-1.347.217-3.206,0-3.607.193.025-2.573.04-6.937.046-12.084v-.625c.006-5.074,0-10.848,0-16.387C1073.582,6117.839,1073.557,6107.375,1073.547,6106.156Z" transform="translate(-1073.527 -6102.607)" fill="#e5e5e5" opacity="0.154"/>
        <path id="Trazado_103509" data-name="Trazado 103509" d="M1073.547,6106.028c0-.2,66.136-3.132,66.339-3.132l37.3.013,37.3.012c.348,0,.441.471.048.746-1.85,1.292-7.794,4.406-24.209,9.332q-1.74.541-3.653,1.061c-4.859,1.486-11.733,3.439-16.376,4.323a20.584,20.584,0,0,1-3.4.43,6.508,6.508,0,0,0-2.835.736c-2.226,1.284-2.854,2.33-5.022,3.662-.371.228-.977.544-1.476.783-.346.165-.717.329-1.115.493-.486.2-1.763.912-2.242,1.049-9.034,3.4-8.969,4.127-13.613,5.934-.425.169-.955.376-1.594.6-1.1.387-11.019,3.247-21.537,7.272-8.049,3.076-13.654,5.413-20.816,8.749-5.058,2.273-12.9,6.367-19.507,10.023-1.374.252-3.207.066-3.59.247.024-2.6.036-6.985.042-12.144v-.629c0-5.1,0-10.9,0-16.463C1073.579,6117.648,1073.557,6107.193,1073.547,6106.028Z" transform="translate(-1073.527 -6102.6)" fill="#dfdfde" opacity="0.192"/>
        <path id="Trazado_103510" data-name="Trazado 103510" d="M1073.547,6105.9c0-.2,66.273-2.965,66.466-2.965l37.168.021,37.168.022c.331,0,.4.456,0,.731-1.893,1.29-7.961,4.435-24.192,9.291-1.157.364-2.376.711-3.649,1.054-4.9,1.468-11.764,3.316-16.372,4.232a24.236,24.236,0,0,1-3.378.49,6.755,6.755,0,0,0-2.8.791c-2.177,1.286-2.849,2.331-5.022,3.652-.361.221-.992.545-1.479.773-.348.164-.72.324-1.118.486-.5.2-1.757.89-2.246,1.032-8.974,3.363-8.88,4.124-13.585,5.947-.413.164-.944.37-1.591.6-1.286.452-11.463,3.4-21.516,7.248-8.427,3.215-13.727,5.431-20.8,8.719-4.81,2.139-12.894,6.38-19.48,10.008-1.4.286-3.208.137-3.573.3.023-2.628.034-7.03.04-12.2v-.634c0-5.132,0-10.961,0-16.54C1073.577,6117.456,1073.555,6107.01,1073.547,6105.9Z" transform="translate(-1073.527 -6102.591)" fill="#d8d8d8" opacity="0.231"/>
        <path id="Trazado_103511" data-name="Trazado 103511" d="M1073.547,6105.775c0-.187,66.411-2.8,66.594-2.8l37.035.029,37.035.029c.314,0,.367.442-.046.717-1.936,1.29-8.127,4.466-24.173,9.252-1.157.365-2.375.71-3.647,1.047-4.943,1.446-11.8,3.19-16.367,4.137a28.925,28.925,0,0,1-3.357.551,7.024,7.024,0,0,0-2.772.849c-2.129,1.282-2.844,2.33-5.021,3.642-.353.213-1.01.545-1.483.763-.35.162-.723.319-1.12.477-.52.208-1.75.871-2.251,1.017-8.911,3.32-8.791,4.12-13.555,5.961-.4.161-.935.365-1.589.594-1.474.517-11.906,3.564-21.5,7.224-8.8,3.357-13.8,5.447-20.777,8.69-4.562,2.005-12.888,6.392-19.455,9.993-1.428.322-3.209.208-3.556.351.02-2.655.031-7.076.036-12.258v-.641c0-5.162,0-11.017,0-16.616C1073.576,6117.264,1073.555,6106.828,1073.547,6105.775Z" transform="translate(-1073.527 -6102.583)" fill="#d2d2d1" opacity="0.269"/>
        <path id="Trazado_103512" data-name="Trazado 103512" d="M1073.547,6105.648c0-.176,66.548-2.631,66.723-2.631l36.9.037,36.9.038c.3,0,.331.426-.094.7-1.977,1.289-8.294,4.5-24.155,9.213-1.155.365-2.373.708-3.642,1.039-4.986,1.427-11.829,3.067-16.365,4.045-1.318.286-2.435.508-3.334.61a7.349,7.349,0,0,0-2.742.905c-2.081,1.28-2.839,2.33-5.019,3.632-.344.206-1.027.544-1.485.752-.353.161-.727.315-1.124.47-.537.21-1.744.85-2.255,1-8.85,3.277-8.7,4.115-13.526,5.975-.392.156-.925.362-1.586.591-1.662.581-12.351,3.722-21.474,7.2-9.182,3.5-13.872,5.465-20.759,8.661-4.314,1.871-12.882,6.405-19.429,9.979-1.456.355-3.211.278-3.54.4.019-2.684.029-7.122.034-12.317v-.646c0-5.191,0-11.074,0-16.691C1073.573,6117.073,1073.555,6106.645,1073.547,6105.648Z" transform="translate(-1073.527 -6102.576)" fill="#cbcbcb" opacity="0.308"/>
        <path id="Trazado_103513" data-name="Trazado 103513" d="M1073.547,6105.521c0-.167,66.685-2.464,66.85-2.466l36.769.045,36.769.047c.282,0,.3.411-.141.688-2.02,1.286-8.461,4.524-24.135,9.173-1.154.366-2.371.708-3.64,1.032-5.028,1.407-11.861,2.941-16.36,3.952-1.31.3-2.417.539-3.312.671a7.692,7.692,0,0,0-2.711.962c-2.034,1.277-2.834,2.329-5.017,3.621-.335.2-1.045.543-1.489.743-.355.159-.731.311-1.126.46-.554.213-1.737.83-2.258.986-8.788,3.235-8.614,4.111-13.5,5.988-.382.152-.915.356-1.583.589-1.852.644-12.8,3.881-21.454,7.174-9.559,3.638-13.944,5.481-20.739,8.632-4.066,1.736-12.876,6.417-19.4,9.965a30.769,30.769,0,0,1-3.523.454c.017-2.711.026-7.167.03-12.375v-.65c0-5.22,0-11.132,0-16.767C1073.571,6116.883,1073.554,6106.463,1073.547,6105.521Z" transform="translate(-1073.527 -6102.567)" fill="#c5c5c4" opacity="0.346"/>
        <path id="Trazado_103514" data-name="Trazado 103514" d="M1073.547,6105.393c0-.156,66.823-2.3,66.978-2.3l36.636.054,36.637.054c.264,0,.258.4-.188.675-2.063,1.284-8.628,4.553-24.118,9.133-1.151.368-2.368.705-3.636,1.025-5.07,1.386-11.892,2.816-16.356,3.858-1.3.306-2.4.568-3.289.732a8.042,8.042,0,0,0-2.68,1.019c-1.987,1.273-2.829,2.328-5.016,3.61-.326.192-1.062.543-1.492.732-.358.159-.735.3-1.129.454-.572.216-1.731.809-2.262.968-8.728,3.192-8.526,4.108-13.469,6-.371.148-.9.352-1.579.586-2.04.708-13.239,4.04-21.434,7.149-9.936,3.779-14.016,5.5-20.719,8.6-3.819,1.6-12.87,6.429-19.378,9.951a24.617,24.617,0,0,1-3.506.505c.016-2.737.024-7.212.028-12.431v-.658c0-5.249,0-11.187,0-16.844C1073.569,6116.691,1073.554,6106.281,1073.547,6105.393Z" transform="translate(-1073.527 -6102.56)" fill="#bebebe" opacity="0.385"/>
        <path id="Trazado_103515" data-name="Trazado 103515" d="M1073.547,6105.266c0-.147,66.96-2.131,67.106-2.131l36.5.063,36.5.063c.248,0,.223.381-.235.66-2.105,1.284-8.8,4.584-24.1,9.094-1.15.369-2.365.7-3.632,1.02-5.111,1.364-11.923,2.692-16.351,3.765-1.3.314-2.38.6-3.267.791a8.475,8.475,0,0,0-2.648,1.075c-1.941,1.27-2.824,2.329-5.016,3.6-.317.184-1.079.542-1.493.721-.361.157-.74.3-1.132.447-.589.218-1.723.789-2.266.951-8.666,3.151-8.437,4.1-13.44,6.016-.36.144-.894.347-1.577.583-2.229.773-13.683,4.2-21.412,7.125-10.314,3.921-14.09,5.518-20.7,8.576-3.571,1.467-12.864,6.442-19.352,9.936a21.008,21.008,0,0,1-3.489.558c.015-2.764.022-7.257.025-12.489v-.662c0-5.278,0-11.245,0-16.919C1073.567,6116.5,1073.554,6106.1,1073.547,6105.266Z" transform="translate(-1073.527 -6102.551)" fill="#b8b8b7" opacity="0.423"/>
        <path id="Trazado_103516" data-name="Trazado 103516" d="M1073.547,6105.139c0-.136,67.1-1.963,67.233-1.963l36.37.07,36.372.071c.231,0,.186.368-.283.647-2.147,1.281-8.962,4.612-24.081,9.054-1.149.369-2.364.7-3.63,1.011-5.153,1.346-11.954,2.566-16.348,3.672-1.287.324-2.362.626-3.244.852a8.959,8.959,0,0,0-2.617,1.131c-1.895,1.266-2.818,2.329-5.015,3.59-.308.177-1.1.542-1.5.712-.364.155-.743.3-1.135.438-.607.222-1.717.769-2.27.937-8.6,3.108-8.347,4.1-13.411,6.03-.349.14-.884.341-1.574.58-2.418.835-14.127,4.357-21.392,7.1-10.691,4.061-14.161,5.533-20.68,8.546-3.323,1.333-12.858,6.453-19.326,9.92a18.433,18.433,0,0,1-3.472.611c.012-2.793.019-7.3.022-12.548v-.667c0-5.308,0-11.3,0-17C1073.565,6116.309,1073.553,6105.916,1073.547,6105.139Z" transform="translate(-1073.527 -6102.543)" fill="#b1b1b1" opacity="0.462"/>
        <path id="Trazado_103517" data-name="Trazado 103517" d="M1073.547,6105.012c0-.126,67.236-1.8,67.361-1.8l36.238.079,36.238.08c.215,0,.149.352-.33.632-2.19,1.28-9.128,4.642-24.063,9.015-1.147.371-2.362.7-3.625,1-5.2,1.325-11.987,2.441-16.345,3.579-1.279.333-2.342.657-3.222.91a9.614,9.614,0,0,0-2.586,1.188,59.338,59.338,0,0,1-5.014,3.58c-.3.171-1.114.541-1.5.7-.367.153-.748.291-1.138.431-.624.223-1.71.747-2.274.919-8.544,3.065-8.259,4.1-13.382,6.044-.34.135-.874.335-1.572.577-2.606.9-14.57,4.515-21.37,7.075-11.069,4.2-14.234,5.551-20.661,8.517-3.076,1.2-12.852,6.466-19.3,9.906a16.4,16.4,0,0,1-3.455.662c.011-2.819.017-7.349.019-12.6v-.672c0-5.337,0-11.358,0-17.071C1073.563,6116.116,1073.553,6105.733,1073.547,6105.012Z" transform="translate(-1073.527 -6102.535)" fill="#ababab" opacity="0.5"/>
        <path id="Trazado_103518" data-name="Trazado 103518" d="M1073.547,6104.885c0-.118,67.373-1.631,67.489-1.631l36.105.088,36.105.087c.2,0,.113.337-.377.619-2.233,1.279-9.3,4.671-24.045,8.975-1.145.372-2.359.7-3.623,1-5.239,1.306-12.018,2.318-16.341,3.487-1.273.344-2.324.686-3.2.971a10.224,10.224,0,0,0-2.556,1.246,51.444,51.444,0,0,1-5.011,3.569c-.29.163-1.132.539-1.5.691s-.752.286-1.141.423c-.641.225-1.7.727-2.279.9-8.481,3.023-8.17,4.092-13.353,6.057-.328.13-.863.331-1.568.575-2.8.962-15.015,4.672-21.35,7.049-11.446,4.345-14.307,5.569-20.641,8.489-2.827,1.063-12.846,6.478-19.275,9.891a14.862,14.862,0,0,1-3.438.714c.01-2.847.015-7.4.016-12.663v-.677c0-5.367,0-11.415,0-17.149C1073.562,6115.925,1073.553,6105.55,1073.547,6104.885Z" transform="translate(-1073.527 -6102.526)" fill="#a5a5a4" opacity="0.538"/>
        <path id="Trazado_103519" data-name="Trazado 103519" d="M1073.547,6104.757c0-.106,67.51-1.462,67.616-1.462l35.973.1,35.972.1c.182,0,.077.323-.424.6-2.275,1.28-9.463,4.7-24.027,8.937-1.144.373-2.357.7-3.619.99-5.281,1.286-12.05,2.194-16.337,3.395-1.265.353-2.306.715-3.177,1.031a10.93,10.93,0,0,0-2.524,1.3,44.844,44.844,0,0,1-5.011,3.559c-.281.157-1.149.539-1.505.681-.372.149-.755.282-1.143.416-.659.228-1.7.707-2.282.888-8.42,2.98-8.081,4.086-13.324,6.069-.318.128-.854.328-1.566.57-2.984,1.027-15.458,4.833-21.328,7.028-11.824,4.483-14.38,5.584-20.622,8.459-2.58.928-12.84,6.491-19.25,9.877a13.761,13.761,0,0,1-3.42.767c.007-2.875.011-7.441.013-12.722v-.681c0-5.4,0-11.474,0-17.226C1073.559,6115.734,1073.552,6105.367,1073.547,6104.757Z" transform="translate(-1073.527 -6102.519)" fill="#9e9e9e" opacity="0.577"/>
        <path id="Trazado_103520" data-name="Trazado 103520" d="M1073.547,6104.631c0-.1,67.648-1.3,67.744-1.3l35.839.1,35.841.1c.165,0,.04.309-.472.59-2.317,1.278-9.629,4.731-24.009,8.9-1.142.376-2.354.7-3.615.984-5.322,1.265-12.081,2.069-16.332,3.3a33.019,33.019,0,0,0-3.155,1.092,11.749,11.749,0,0,0-2.493,1.358,40.084,40.084,0,0,1-5.01,3.548c-.272.149-1.167.538-1.508.67-.376.147-.76.276-1.146.409-.676.23-1.69.685-2.286.871-8.358,2.937-7.993,4.083-13.295,6.084-.307.123-.843.322-1.562.567-3.175,1.088-15.9,4.991-21.309,7-12.2,4.624-14.451,5.6-20.6,8.431-2.332.794-12.832,6.5-19.224,9.862a12.711,12.711,0,0,1-3.4.818c.006-2.9.008-7.487.011-12.779v-.686c0-5.426,0-11.53,0-17.3C1073.557,6115.543,1073.552,6105.184,1073.547,6104.631Z" transform="translate(-1073.527 -6102.51)" fill="#989897" opacity="0.615"/>
        <path id="Trazado_103521" data-name="Trazado 103521" d="M1073.547,6104.5c0-.087,67.785-1.128,67.873-1.128l35.706.112,35.707.112c.149,0,0,.293-.519.576-2.359,1.276-9.795,4.759-23.99,8.855-1.141.377-2.352.7-3.613.978-5.364,1.244-12.112,1.943-16.329,3.208a26.971,26.971,0,0,0-3.133,1.15,12.806,12.806,0,0,0-2.462,1.417,36.072,36.072,0,0,1-5.009,3.538c-.262.143-1.185.535-1.511.661-.378.145-.763.271-1.149.4-.694.232-1.684.666-2.289.855-8.3,2.9-7.905,4.081-13.266,6.1-.3.12-.833.318-1.559.565-3.364,1.151-16.347,5.15-21.288,6.977-12.578,4.767-14.523,5.62-20.583,8.4-2.084.661-12.828,6.515-19.2,9.847a11.976,11.976,0,0,1-3.387.87c0-2.929.006-7.531.007-12.836v-.691c0-5.456,0-11.587,0-17.378C1073.554,6115.351,1073.552,6105,1073.547,6104.5Z" transform="translate(-1073.527 -6102.502)" fill="#919191" opacity="0.654"/>
        <path id="Trazado_103522" data-name="Trazado 103522" d="M1073.547,6104.376c0-.079,67.922-.961,68-.963l35.573.121,35.574.121c.131,0-.031.278-.566.562-2.4,1.28-9.964,4.789-23.973,8.815a35.986,35.986,0,0,1-3.608.97c-5.408,1.225-12.145,1.819-16.326,3.115a22.911,22.911,0,0,0-3.11,1.211,14.072,14.072,0,0,0-2.43,1.472,32.727,32.727,0,0,1-5.008,3.527c-.254.136-1.2.535-1.515.651-.381.142-.767.265-1.153.392-.709.235-1.675.645-2.293.84-8.235,2.851-7.815,4.075-13.237,6.11-.285.116-.823.313-1.556.562-3.553,1.213-16.791,5.308-21.266,6.953-12.956,4.907-14.6,5.636-20.563,8.372-1.837.526-12.822,6.527-19.173,9.833a11.337,11.337,0,0,1-3.37.922c0-2.957,0-7.578,0-12.895v-.7c0-5.484,0-11.644,0-17.454C1073.553,6115.161,1073.551,6104.82,1073.547,6104.376Z" transform="translate(-1073.527 -6102.494)" fill="#8b8b8a" opacity="0.692"/>
        <path id="Trazado_103523" data-name="Trazado 103523" d="M1073.547,6104.248c0-.067,68.061-.794,68.128-.794l35.441.129,35.441.129c.116,0-.068.265-.613.548-2.442,1.279-10.13,4.818-23.953,8.776a34.4,34.4,0,0,1-3.606.962c-5.45,1.206-12.176,1.695-16.321,3.023a19.864,19.864,0,0,0-3.088,1.271,15.445,15.445,0,0,0-2.4,1.529,30.1,30.1,0,0,1-5.006,3.518c-.245.128-1.221.532-1.517.639-.384.141-.772.26-1.156.386-.727.235-1.669.624-2.3.822-8.174,2.81-7.727,4.072-13.208,6.125-.275.111-.813.307-1.554.56-3.742,1.275-17.234,5.465-21.246,6.927-13.334,5.048-14.669,5.655-20.544,8.344-1.587.392-12.814,6.538-19.147,9.817a10.793,10.793,0,0,1-3.353.975c0-2.984,0-7.623,0-12.951v-.7c0-5.514,0-11.7,0-17.531C1073.551,6114.97,1073.551,6104.637,1073.547,6104.248Z" transform="translate(-1073.527 -6102.486)" fill="#848484" opacity="0.731"/>
        <path id="Trazado_103524" data-name="Trazado 103524" d="M1073.547,6104.122c0-.06,68.2-.629,68.256-.629l35.308.137,35.308.138c.1,0-.1.249-.661.533-2.485,1.278-10.3,4.848-23.936,8.737a32.557,32.557,0,0,1-3.6.955c-5.492,1.185-12.207,1.571-16.318,2.931a17.659,17.659,0,0,0-3.065,1.331,17.093,17.093,0,0,0-2.369,1.585,27.764,27.764,0,0,1-5.005,3.508c-.235.122-1.238.529-1.52.629-.387.137-.776.255-1.159.376-.746.237-1.662.6-2.3.806-8.112,2.769-7.639,4.068-13.179,6.14-.264.105-.8.3-1.551.555-3.931,1.338-17.679,5.626-21.224,6.9-13.712,5.189-14.743,5.671-20.525,8.314-1.34.259-12.81,6.553-19.122,9.806a10.4,10.4,0,0,1-3.336,1.025c0-3.011,0-7.669,0-13.009v-.708c0-5.542,0-11.757,0-17.606C1073.548,6114.777,1073.551,6104.455,1073.547,6104.122Z" transform="translate(-1073.527 -6102.478)" fill="#7e7e7d" opacity="0.769"/>
        <path id="Trazado_103525" data-name="Trazado 103525" d="M1073.548,6103.994c0-.049,68.335-.46,68.383-.46l35.176.144,35.174.146c.083,0-.14.235-.708.521-2.527,1.277-10.464,4.876-23.917,8.7a31.232,31.232,0,0,1-3.6.948c-5.534,1.165-12.239,1.446-16.313,2.837a15.9,15.9,0,0,0-3.043,1.391,19.028,19.028,0,0,0-2.338,1.641,25.691,25.691,0,0,1-5,3.5c-.226.116-1.256.529-1.523.621-.39.134-.779.249-1.161.368-.762.24-1.656.583-2.3.79-8.051,2.726-7.55,4.065-13.149,6.154-.254.1-.794.3-1.549.553-4.12,1.4-18.122,5.783-21.2,6.879-14.089,5.329-14.814,5.688-20.505,8.284-1.092.123-12.8,6.564-19.095,9.791a10.064,10.064,0,0,1-3.319,1.078c0-3.04,0-7.715,0-13.068v-.711c0-5.573,0-11.815,0-17.683C1073.547,6114.586,1073.55,6104.271,1073.548,6103.994Z" transform="translate(-1073.527 -6102.47)" fill="#777" opacity="0.808"/>
        <path id="Trazado_103526" data-name="Trazado 103526" d="M1073.548,6103.867c0-.04,68.473-.294,68.511-.294l35.042.153,35.043.154c.066,0-.177.219-.756.5-2.569,1.277-10.63,4.907-23.9,8.658a29.8,29.8,0,0,1-3.595.94c-5.576,1.146-12.272,1.321-16.311,2.746a14.556,14.556,0,0,0-3.021,1.45,21.362,21.362,0,0,0-2.307,1.7,23.977,23.977,0,0,1-5,3.485c-.217.11-1.274.527-1.526.611-.394.13-.784.243-1.165.361-.781.24-1.649.562-2.309.773-7.99,2.683-7.461,4.06-13.12,6.167-.243.1-.784.291-1.545.55-4.313,1.453-18.568,5.941-21.183,6.854-14.467,5.47-14.887,5.705-20.486,8.257-.844-.013-12.8,6.576-19.07,9.774a9.775,9.775,0,0,1-3.3,1.129c0-3.066-.006-7.759-.007-13.125V6144c0-5.6,0-11.872,0-17.76C1073.546,6114.395,1073.551,6104.089,1073.548,6103.867Z" transform="translate(-1073.528 -6102.461)" fill="#717170" opacity="0.846"/>
        <path id="Trazado_103527" data-name="Trazado 103527" d="M1073.549,6103.74c0-.029,68.61-.127,68.639-.127l34.91.163,34.91.162c.049,0-.213.206-.8.492a150.132,150.132,0,0,1-23.881,8.618,28.443,28.443,0,0,1-3.591.934c-5.618,1.125-12.3,1.2-16.306,2.652a13.435,13.435,0,0,0-3,1.51,24.5,24.5,0,0,0-2.275,1.754,22.484,22.484,0,0,1-5,3.478c-.208.1-1.293.524-1.53.6-.4.128-.788.238-1.167.354-.8.243-1.643.543-2.312.757-7.928,2.641-7.373,4.057-13.093,6.18-.231.1-.773.286-1.542.548-4.5,1.516-19.011,6.1-21.163,6.829-14.844,5.613-14.959,5.724-20.466,8.229-.6-.145-12.791,6.588-19.044,9.76-1.868.869-3.23,1.331-3.286,1.181-.006-3.092-.008-7.805-.01-13.183v-.722c0-5.63,0-11.928,0-17.836C1073.544,6114.2,1073.551,6103.906,1073.549,6103.74Z" transform="translate(-1073.528 -6102.454)" fill="#6a6a6a" opacity="0.885"/>
        <path id="Trazado_103528" data-name="Trazado 103528" d="M1073.549,6103.62c0-.02,68.747.04,68.766.04l34.777.17,34.777.171a3.8,3.8,0,0,1-.85.477,153.64,153.64,0,0,1-23.862,8.579,27.366,27.366,0,0,1-3.589.926c-5.661,1.1-12.335,1.072-16.3,2.56a12.572,12.572,0,0,0-2.976,1.57,28.321,28.321,0,0,0-2.244,1.812,21.1,21.1,0,0,1-5,3.466c-.2.1-1.312.521-1.532.589-.4.123-.792.233-1.171.346-.815.244-1.635.523-2.316.741-7.867,2.6-7.285,4.053-13.064,6.195-.222.09-.762.28-1.539.543-4.691,1.58-19.455,6.258-21.142,6.805-15.221,5.752-15.032,5.739-20.447,8.2-.348-.28-12.784,6.6-19.018,9.746-1.894.9-3.231,1.4-3.269,1.234-.007-3.122-.012-7.851-.013-13.242v-.727c0-5.662,0-11.985,0-17.912C1073.542,6114.02,1073.551,6103.73,1073.549,6103.62Z" transform="translate(-1073.529 -6102.453)" fill="#646463" opacity="0.923"/>
        <path id="Trazado_103529" data-name="Trazado 103529" d="M1073.55,6103.52c0-.009,68.885.208,68.894.208l34.645.178,34.643.178a7.623,7.623,0,0,1-.9.464,157.338,157.338,0,0,1-23.844,8.539,26.254,26.254,0,0,1-3.585.919c-5.7,1.085-12.366.948-16.3,2.466a11.828,11.828,0,0,0-2.953,1.631c-.766.569-1.472,1.208-2.212,1.868a19.8,19.8,0,0,1-5,3.454c-.189.091-1.328.52-1.534.58-.4.117-.8.227-1.173.339-.833.242-1.629.5-2.321.725-7.806,2.556-7.195,4.048-13.034,6.207-.211.087-.753.276-1.537.541-4.88,1.643-19.9,6.417-21.121,6.781-15.6,5.893-15.105,5.756-20.427,8.17-.1-.416-12.778,6.612-18.993,9.729-1.922.94-3.233,1.472-3.252,1.286-.008-3.148-.014-7.9-.016-13.3v-.733c0-5.689,0-12.041,0-17.986C1073.54,6113.856,1073.551,6103.576,1073.55,6103.52Z" transform="translate(-1073.53 -6102.472)" fill="#5d5d5d" opacity="0.962"/>
        <path id="Trazado_103530" data-name="Trazado 103530" d="M1211.6,6104.168a151.864,151.864,0,0,1-24.771,8.949c-6.3,2.167-15.132,1.4-19.875,3.286-4.15,1.613-5.072,4.716-10.112,7.059-.18.084-1.347.517-1.538.569-11.522,3.164-9.836,4.8-16.5,7.261-1.479.609-21.758,7.086-22.635,7.294-15.976,6.035-15.176,5.775-20.408,8.141.194-.723-22.2,11.905-22.2,11.053-.011-3.319-.017-8.376-.019-14.094s0-12.1,0-18.064c.006-11.93.017-22.2.017-22.2l69.023.374Z" transform="translate(-1073.53 -6102.492)" fill="#575756"/>
      </g>
      <path id="Trazado_103531" data-name="Trazado 103531" d="M1212.235,6104.731a152.944,152.944,0,0,1-25.414,9.319c-6.3,2.167-15.132,1.4-19.875,3.285-4.15,1.614-5.072,4.717-10.112,7.061-.18.083-1.347.517-1.538.568-11.522,3.164-9.836,4.8-16.5,7.261-17.868,6.565-22.065,6.021-39.976,14.056-14.313,6.421-23.525,13.194-25.267,12.745v-58.833Z" transform="translate(-901.222 -6054.119)" fill="#2d2e82"/>
      <g id="Grupo_54599" data-name="Grupo 54599" transform="translate(280.404 21.992)" style="mix-blend-mode: multiply;isolation: isolate">
        <path id="Trazado_103532" data-name="Trazado 103532" d="M1212.446,6099.814c-2.173,5.359-9.116,10.485-20.361,10.485s-20.361-4.695-20.361-10.485,12.636-19.617,23.88-19.617S1217.469,6087.421,1212.446,6099.814Z" transform="translate(-1161.564 -6080.197)" fill="#fff" opacity="0"/>
        <path id="Trazado_103533" data-name="Trazado 103533" d="M1211.724,6099.811c-2.105,5.306-9.027,10.37-20.162,10.37s-20.163-4.643-20.163-10.37,12.412-19.149,23.548-19.149S1216.519,6087.721,1211.724,6099.811Z" transform="translate(-1161.63 -6080.102)" fill="#f9f9f9" opacity="0.038"/>
        <path id="Trazado_103534" data-name="Trazado 103534" d="M1211,6099.808c-2.037,5.254-8.939,10.255-19.965,10.255s-19.964-4.591-19.964-10.255,12.187-18.682,23.213-18.682S1215.571,6088.024,1211,6099.808Z" transform="translate(-1161.696 -6080.008)" fill="#f4f4f4" opacity="0.077"/>
        <path id="Trazado_103535" data-name="Trazado 103535" d="M1210.282,6099.805c-1.968,5.2-8.85,10.139-19.766,10.139s-19.766-4.54-19.766-10.139,11.964-18.216,22.88-18.216S1214.625,6088.327,1210.282,6099.805Z" transform="translate(-1161.763 -6079.913)" fill="#eee" opacity="0.115"/>
        <path id="Trazado_103536" data-name="Trazado 103536" d="M1209.56,6099.8c-1.9,5.148-8.76,10.024-19.567,10.024s-19.567-4.487-19.567-10.024,11.739-17.748,22.546-17.748S1213.68,6088.631,1209.56,6099.8Z" transform="translate(-1161.829 -6079.818)" fill="#e9e9e9" opacity="0.154"/>
        <path id="Trazado_103537" data-name="Trazado 103537" d="M1208.839,6099.8c-1.829,5.1-8.671,9.908-19.368,9.908s-19.37-4.435-19.37-9.908,11.515-17.282,22.212-17.282S1212.738,6088.937,1208.839,6099.8Z" transform="translate(-1161.895 -6079.722)" fill="#e3e3e3" opacity="0.192"/>
        <path id="Trazado_103538" data-name="Trazado 103538" d="M1208.118,6099.8c-1.76,5.046-8.584,9.792-19.171,9.792s-19.17-4.384-19.17-9.792,11.291-16.815,21.878-16.815S1211.8,6089.245,1208.118,6099.8Z" transform="translate(-1161.961 -6079.628)" fill="#dedede" opacity="0.231"/>
        <path id="Trazado_103539" data-name="Trazado 103539" d="M1207.4,6099.794c-1.689,5-8.494,9.677-18.972,9.677s-18.971-4.332-18.971-9.677,11.066-16.349,21.543-16.349S1210.86,6089.553,1207.4,6099.794Z" transform="translate(-1162.028 -6079.534)" fill="#d8d8d8" opacity="0.269"/>
        <path id="Trazado_103540" data-name="Trazado 103540" d="M1206.675,6099.79c-1.619,4.947-8.405,9.562-18.774,9.562s-18.773-4.28-18.773-9.562,10.842-15.88,21.21-15.88S1209.924,6089.862,1206.675,6099.79Z" transform="translate(-1162.094 -6079.438)" fill="#d3d3d2" opacity="0.308"/>
        <path id="Trazado_103541" data-name="Trazado 103541" d="M1205.954,6099.788c-1.548,4.9-8.316,9.445-18.575,9.445s-18.575-4.229-18.575-9.445,10.618-15.415,20.876-15.415S1208.992,6090.174,1205.954,6099.788Z" transform="translate(-1162.16 -6079.344)" fill="#cdcdcd" opacity="0.346"/>
        <path id="Trazado_103542" data-name="Trazado 103542" d="M1205.232,6099.785c-1.475,4.847-8.227,9.33-18.376,9.33s-18.377-4.177-18.377-9.33,10.394-14.949,20.543-14.949S1208.061,6090.486,1205.232,6099.785Z" transform="translate(-1162.227 -6079.249)" fill="#c8c8c7" opacity="0.385"/>
        <path id="Trazado_103543" data-name="Trazado 103543" d="M1204.511,6099.783c-1.4,4.8-8.139,9.213-18.179,9.213s-18.177-4.125-18.177-9.213,10.168-14.482,20.208-14.482S1207.134,6090.8,1204.511,6099.783Z" transform="translate(-1162.293 -6079.155)" fill="#c2c2c2" opacity="0.423"/>
        <path id="Trazado_103544" data-name="Trazado 103544" d="M1203.79,6099.779c-1.327,4.751-8.05,9.1-17.98,9.1s-17.98-4.074-17.98-9.1,9.946-14.015,19.876-14.015S1206.211,6091.115,1203.79,6099.779Z" transform="translate(-1162.359 -6079.059)" fill="#bdbdbc" opacity="0.462"/>
        <path id="Trazado_103545" data-name="Trazado 103545" d="M1203.068,6099.776c-1.253,4.7-7.961,8.983-17.781,8.983s-17.781-4.021-17.781-8.983,9.72-13.548,19.541-13.548S1205.289,6091.431,1203.068,6099.776Z" transform="translate(-1162.426 -6078.965)" fill="#b7b7b7" opacity="0.5"/>
        <path id="Trazado_103546" data-name="Trazado 103546" d="M1202.347,6099.774c-1.175,4.657-7.872,8.866-17.583,8.866s-17.584-3.97-17.584-8.866,9.5-13.083,19.207-13.083S1204.372,6091.749,1202.347,6099.774Z" transform="translate(-1162.492 -6078.869)" fill="#b1b1b1" opacity="0.538"/>
        <path id="Trazado_103547" data-name="Trazado 103547" d="M1201.625,6099.771c-1.1,4.613-7.784,8.752-17.385,8.752s-17.384-3.919-17.384-8.752,9.272-12.615,18.873-12.615S1203.457,6092.069,1201.625,6099.771Z" transform="translate(-1162.558 -6078.775)" fill="#acacab" opacity="0.577"/>
        <path id="Trazado_103548" data-name="Trazado 103548" d="M1200.9,6099.768c-1.016,4.566-7.695,8.636-17.186,8.636s-17.186-3.866-17.186-8.636,9.048-12.147,18.54-12.147S1202.547,6092.388,1200.9,6099.768Z" transform="translate(-1162.625 -6078.68)" fill="#a6a6a6" opacity="0.615"/>
        <path id="Trazado_103549" data-name="Trazado 103549" d="M1200.183,6099.766c-.935,4.522-7.606,8.519-16.987,8.519s-16.988-3.814-16.988-8.519,8.824-11.682,18.206-11.682S1201.64,6092.709,1200.183,6099.766Z" transform="translate(-1162.691 -6078.585)" fill="#a1a1a0" opacity="0.654"/>
        <path id="Trazado_103550" data-name="Trazado 103550" d="M1199.462,6099.762c-.849,4.479-7.516,8.405-16.789,8.405s-16.79-3.764-16.79-8.405,8.6-11.214,17.873-11.214S1200.737,6093.032,1199.462,6099.762Z" transform="translate(-1162.757 -6078.49)" fill="#9b9b9b" opacity="0.692"/>
        <path id="Trazado_103551" data-name="Trazado 103551" d="M1198.74,6099.759c-.761,4.435-7.428,8.289-16.591,8.289s-16.59-3.711-16.59-8.289,8.375-10.747,17.538-10.747S1199.84,6093.355,1198.74,6099.759Z" transform="translate(-1162.823 -6078.395)" fill="#969695" opacity="0.731"/>
        <path id="Trazado_103552" data-name="Trazado 103552" d="M1198.019,6099.757c-.671,4.393-7.339,8.173-16.393,8.173s-16.392-3.659-16.392-8.173,8.152-10.28,17.205-10.28S1198.946,6093.678,1198.019,6099.757Z" transform="translate(-1162.89 -6078.301)" fill="#90908f" opacity="0.769"/>
        <path id="Trazado_103553" data-name="Trazado 103553" d="M1197.3,6099.753c-.574,4.349-7.25,8.058-16.194,8.058s-16.194-3.607-16.194-8.058,7.927-9.814,16.871-9.814S1198.058,6094,1197.3,6099.753Z" transform="translate(-1162.956 -6078.206)" fill="#8b8b8a" opacity="0.808"/>
        <path id="Trazado_103554" data-name="Trazado 103554" d="M1196.576,6099.75c-.474,4.308-7.161,7.942-16,7.942s-16-3.555-16-7.942,7.7-9.347,16.537-9.347S1197.174,6094.326,1196.576,6099.75Z" transform="translate(-1163.022 -6078.112)" fill="#858584" opacity="0.846"/>
        <path id="Trazado_103555" data-name="Trazado 103555" d="M1195.855,6099.749c-.369,4.263-7.073,7.826-15.8,7.826s-15.8-3.5-15.8-7.826,7.479-8.881,16.2-8.881S1196.295,6094.649,1195.855,6099.749Z" transform="translate(-1163.089 -6078.016)" fill="#80807f" opacity="0.885"/>
        <path id="Trazado_103556" data-name="Trazado 103556" d="M1195.134,6099.744c-.255,4.222-6.984,7.712-15.6,7.712s-15.6-3.453-15.6-7.712,7.254-8.413,15.869-8.413S1195.421,6094.971,1195.134,6099.744Z" transform="translate(-1163.155 -6077.921)" fill="#7a7a79" opacity="0.923"/>
        <path id="Trazado_103557" data-name="Trazado 103557" d="M1194.412,6099.742c-.132,4.178-6.895,7.6-15.4,7.6s-15.4-3.4-15.4-7.6,7.03-7.946,15.535-7.946S1194.553,6095.292,1194.412,6099.742Z" transform="translate(-1163.221 -6077.827)" fill="#757574" opacity="0.962"/>
        <ellipse id="Elipse_4007" data-name="Elipse 4007" cx="15.201" cy="7.48" rx="15.201" ry="7.48" transform="translate(0 14.527)" fill="#6f6f6e"/>
      </g>
      <path id="Trazado_103558" data-name="Trazado 103558" d="M1240.913,6104.641a153.555,153.555,0,0,1-24.852,8.971c-6.3,2.167-15.132,1.4-19.875,3.286-4.15,1.614-5.072,4.716-10.112,7.059-.18.085-1.346.517-1.538.569-11.522,3.164-9.836,4.8-16.5,7.261-17.868,6.566-22.065,6.021-39.976,14.056-14.313,6.421-24.49,13.74-25.267,12.609-97.976.435-155.027-9.5-170.415-6.262-20.427,4.3,129.8-51.188,129.8-51.188Z" transform="translate(-930.463 -6053.953)" fill="url(#linear-gradient)"/>
      <path id="Trazado_103559" data-name="Trazado 103559" d="M1127.72,6126.563" transform="translate(-890.152 -6048.729)" fill="#fff"/>
      <g id="Grupo_54601" data-name="Grupo 54601" transform="translate(123.862)">
        <path id="Trazado_103560" data-name="Trazado 103560" d="M1219.444,6062.8c-.607,0-179.519-.863-179.519-.863s-6.557,5.909-6.617,24.229a61.272,61.272,0,0,0,4.656,24.184l181.636,2.309Z" transform="translate(-1033.308 -6061.936)" fill="url(#linear-gradient-2)"/>
        <ellipse id="Elipse_4008" data-name="Elipse 4008" cx="9.333" cy="25.012" rx="9.333" ry="25.012" transform="translate(176.737 0.698)" fill="url(#radial-gradient)"/>
        <g id="Grupo_54600" data-name="Grupo 54600" transform="translate(181.501 15.294)" style="mix-blend-mode: multiply;isolation: isolate">
          <path id="Trazado_103561" data-name="Trazado 103561" d="M1184.012,6084.852c.106-6.12,2.782-10.227,5.028-10.216s3.9,4.746,3.871,10.594-1.657,10.646-3.9,10.635S1183.962,6091.354,1184.012,6084.852Z" transform="translate(-1184.011 -6074.635)" fill="#fff" opacity="0"/>
          <path id="Trazado_103562" data-name="Trazado 103562" d="M1184.048,6084.857c.1-6.116,2.752-10.227,4.992-10.216s3.891,4.743,3.865,10.584-1.66,10.635-3.9,10.624S1184,6091.336,1184.048,6084.857Z" transform="translate(-1184.004 -6074.633)" fill="#f9f9f8" opacity="0.038"/>
          <path id="Trazado_103563" data-name="Trazado 103563" d="M1184.084,6084.864c.1-6.11,2.722-10.225,4.956-10.214s3.885,4.738,3.857,10.574-1.662,10.623-3.9,10.612S1184.035,6091.319,1184.084,6084.864Z" transform="translate(-1183.997 -6074.632)" fill="#f2f2f2" opacity="0.077"/>
          <path id="Trazado_103564" data-name="Trazado 103564" d="M1184.12,6084.871c.093-6.106,2.693-10.224,4.92-10.212s3.879,4.734,3.852,10.565-1.666,10.609-3.892,10.6S1184.071,6091.3,1184.12,6084.871Z" transform="translate(-1183.989 -6074.631)" fill="#ececeb" opacity="0.115"/>
          <path id="Trazado_103565" data-name="Trazado 103565" d="M1184.155,6084.876c.089-6.1,2.664-10.222,4.884-10.211s3.874,4.731,3.847,10.556-1.668,10.6-3.889,10.586S1184.108,6091.282,1184.155,6084.876Z" transform="translate(-1183.982 -6074.628)" fill="#e5e5e5" opacity="0.154"/>
          <path id="Trazado_103566" data-name="Trazado 103566" d="M1184.191,6084.883c.084-6.1,2.634-10.22,4.848-10.211s3.867,4.728,3.841,10.547-1.672,10.583-3.885,10.573S1184.144,6091.264,1184.191,6084.883Z" transform="translate(-1183.975 -6074.627)" fill="#dfdfde" opacity="0.192"/>
          <path id="Trazado_103567" data-name="Trazado 103567" d="M1184.227,6084.887c.081-6.09,2.6-10.218,4.812-10.208s3.861,4.723,3.834,10.538-1.675,10.57-3.883,10.561S1184.181,6091.246,1184.227,6084.887Z" transform="translate(-1183.967 -6074.625)" fill="#d8d8d8" opacity="0.231"/>
          <path id="Trazado_103568" data-name="Trazado 103568" d="M1184.262,6084.894c.077-6.087,2.575-10.216,4.775-10.208s3.856,4.719,3.829,10.528-1.676,10.56-3.878,10.549S1184.219,6091.228,1184.262,6084.894Z" transform="translate(-1183.96 -6074.624)" fill="#d2d2d1" opacity="0.269"/>
          <path id="Trazado_103569" data-name="Trazado 103569" d="M1184.3,6084.9c.073-6.082,2.545-10.217,4.739-10.206s3.85,4.715,3.823,10.518-1.68,10.546-3.875,10.536S1184.255,6091.21,1184.3,6084.9Z" transform="translate(-1183.953 -6074.623)" fill="#cbcbcb" opacity="0.308"/>
          <path id="Trazado_103570" data-name="Trazado 103570" d="M1184.334,6084.906c.069-6.077,2.515-10.215,4.7-10.2s3.843,4.71,3.817,10.508-1.684,10.533-3.872,10.522S1184.292,6091.191,1184.334,6084.906Z" transform="translate(-1183.946 -6074.621)" fill="#c5c5c4" opacity="0.346"/>
          <path id="Trazado_103571" data-name="Trazado 103571" d="M1184.37,6084.913c.064-6.072,2.484-10.211,4.667-10.2s3.837,4.707,3.811,10.5-1.686,10.522-3.868,10.512S1184.328,6091.172,1184.37,6084.913Z" transform="translate(-1183.938 -6074.62)" fill="#bebebe" opacity="0.385"/>
          <path id="Trazado_103572" data-name="Trazado 103572" d="M1184.405,6084.919c.062-6.068,2.456-10.211,4.631-10.2s3.832,4.7,3.8,10.489-1.689,10.508-3.864,10.5S1184.365,6091.155,1184.405,6084.919Z" transform="translate(-1183.931 -6074.618)" fill="#b8b8b7" opacity="0.423"/>
          <path id="Trazado_103573" data-name="Trazado 103573" d="M1184.441,6084.925c.057-6.062,2.425-10.209,4.595-10.2s3.826,4.7,3.8,10.479-1.692,10.5-3.86,10.486S1184.4,6091.138,1184.441,6084.925Z" transform="translate(-1183.924 -6074.617)" fill="#b1b1b1" opacity="0.462"/>
          <path id="Trazado_103574" data-name="Trazado 103574" d="M1184.477,6084.932c.052-6.06,2.4-10.209,4.558-10.2s3.819,4.694,3.793,10.47-1.695,10.483-3.858,10.473S1184.438,6091.119,1184.477,6084.932Z" transform="translate(-1183.916 -6074.615)" fill="#ababab" opacity="0.5"/>
          <path id="Trazado_103575" data-name="Trazado 103575" d="M1184.512,6084.938c.049-6.053,2.368-10.208,4.523-10.2s3.813,4.69,3.786,10.461-1.7,10.471-3.854,10.459S1184.476,6091.1,1184.512,6084.938Z" transform="translate(-1183.909 -6074.613)" fill="#a5a5a4" opacity="0.538"/>
          <path id="Trazado_103576" data-name="Trazado 103576" d="M1184.548,6084.942c.044-6.048,2.338-10.206,4.486-10.194s3.808,4.687,3.782,10.45-1.7,10.458-3.85,10.45S1184.512,6091.082,1184.548,6084.942Z" transform="translate(-1183.902 -6074.612)" fill="#9e9e9e" opacity="0.577"/>
          <path id="Trazado_103577" data-name="Trazado 103577" d="M1184.584,6084.95c.04-6.045,2.308-10.205,4.45-10.2s3.8,4.683,3.774,10.441-1.7,10.446-3.847,10.436S1184.549,6091.063,1184.584,6084.95Z" transform="translate(-1183.894 -6074.61)" fill="#989897" opacity="0.615"/>
          <path id="Trazado_103578" data-name="Trazado 103578" d="M1184.62,6084.956c.036-6.039,2.277-10.2,4.414-10.193s3.795,4.677,3.768,10.432-1.707,10.434-3.843,10.423S1184.585,6091.046,1184.62,6084.956Z" transform="translate(-1183.887 -6074.608)" fill="#919191" opacity="0.654"/>
          <path id="Trazado_103579" data-name="Trazado 103579" d="M1184.655,6084.961c.032-6.033,2.249-10.2,4.379-10.189s3.789,4.673,3.762,10.421-1.71,10.422-3.839,10.41S1184.623,6091.028,1184.655,6084.961Z" transform="translate(-1183.88 -6074.607)" fill="#8b8b8a" opacity="0.692"/>
          <path id="Trazado_103580" data-name="Trazado 103580" d="M1184.691,6084.968c.028-6.03,2.218-10.2,4.342-10.189s3.784,4.67,3.758,10.413-1.713,10.408-3.836,10.4S1184.66,6091.009,1184.691,6084.968Z" transform="translate(-1183.873 -6074.606)" fill="#848484" opacity="0.731"/>
          <path id="Trazado_103581" data-name="Trazado 103581" d="M1184.727,6084.975c.024-6.024,2.188-10.2,4.305-10.188s3.778,4.666,3.752,10.4-1.716,10.4-3.833,10.385S1184.7,6090.991,1184.727,6084.975Z" transform="translate(-1183.865 -6074.604)" fill="#7e7e7d" opacity="0.769"/>
          <path id="Trazado_103582" data-name="Trazado 103582" d="M1184.762,6084.979c.021-6.02,2.159-10.2,4.271-10.187s3.771,4.662,3.744,10.393-1.717,10.383-3.829,10.374S1184.733,6090.972,1184.762,6084.979Z" transform="translate(-1183.858 -6074.603)" fill="#777" opacity="0.808"/>
          <path id="Trazado_103583" data-name="Trazado 103583" d="M1184.8,6084.986c.017-6.016,2.129-10.194,4.235-10.186s3.765,4.658,3.738,10.384-1.721,10.372-3.825,10.36S1184.769,6090.955,1184.8,6084.986Z" transform="translate(-1183.851 -6074.601)" fill="#717170" opacity="0.846"/>
          <path id="Trazado_103584" data-name="Trazado 103584" d="M1184.834,6084.993c.012-6.01,2.1-10.194,4.2-10.185s3.76,4.654,3.733,10.375-1.724,10.358-3.823,10.349S1184.806,6090.938,1184.834,6084.993Z" transform="translate(-1183.843 -6074.6)" fill="#6a6a6a" opacity="0.885"/>
          <path id="Trazado_103585" data-name="Trazado 103585" d="M1184.87,6085c.007-6,2.07-10.191,4.161-10.182s3.754,4.65,3.728,10.365-1.727,10.346-3.819,10.335S1184.842,6090.918,1184.87,6085Z" transform="translate(-1183.836 -6074.597)" fill="#646463" opacity="0.923"/>
          <path id="Trazado_103586" data-name="Trazado 103586" d="M1184.905,6085c0-6,2.041-10.191,4.126-10.182s3.748,4.646,3.72,10.356-1.729,10.332-3.814,10.323S1184.88,6090.9,1184.905,6085Z" transform="translate(-1183.829 -6074.596)" fill="#5d5d5d" opacity="0.962"/>
          <path id="Trazado_103587" data-name="Trazado 103587" d="M1184.941,6085.011c0-6,2.011-10.188,4.089-10.179s3.742,4.641,3.715,10.345-1.733,10.32-3.811,10.311S1184.917,6090.882,1184.941,6085.011Z" transform="translate(-1183.822 -6074.596)" fill="#575756"/>
        </g>
        <path id="Trazado_103588" data-name="Trazado 103588" d="M1184.941,6085.011c0-6,2.011-10.188,4.089-10.179s3.742,4.641,3.715,10.345-1.733,10.32-3.811,10.311S1184.917,6090.882,1184.941,6085.011Z" transform="translate(-1002.321 -6059.302)" fill="#875541"/>
        <path id="Trazado_103589" data-name="Trazado 103589" d="M1185.391,6084.9c.024-5.3,1.611-9.6,3.544-9.588s3.479,4.316,3.454,9.62-1.611,9.6-3.544,9.588S1185.366,6090.2,1185.391,6084.9Z" transform="translate(-1002.229 -6059.204)" fill="url(#radial-gradient-2)"/>
      </g>
    </g>
    <g id="Grupo_54611" data-name="Grupo 54611" transform="translate(1047.311 5832.087)">
      <g id="Grupo_54603" data-name="Grupo 54603">
        <rect id="Rectángulo_5214" data-name="Rectángulo 5214" width="213.538" height="14.243" transform="translate(0)" fill="#f2f2f2"/>
        <rect id="Rectángulo_5215" data-name="Rectángulo 5215" width="213.538" height="0.602" transform="translate(0 2.317)" fill="#b3b3b3"/>
        <rect id="Rectángulo_5216" data-name="Rectángulo 5216" width="213.538" height="0.602" transform="translate(0 5.302)" fill="#b3b3b3"/>
        <rect id="Rectángulo_5217" data-name="Rectángulo 5217" width="213.538" height="0.602" transform="translate(0 8.601)" fill="#b3b3b3"/>
        <rect id="Rectángulo_5218" data-name="Rectángulo 5218" width="213.538" height="0.602" transform="translate(0 11.9)" fill="#b3b3b3"/>
      </g>
      <g id="Grupo_54604" data-name="Grupo 54604" transform="translate(0 37.178)">
        <rect id="Rectángulo_5219" data-name="Rectángulo 5219" width="213.538" height="24.14" transform="translate(0)" fill="#f2f2f2"/>
        <rect id="Rectángulo_5220" data-name="Rectángulo 5220" width="213.538" height="0.602" transform="translate(0 12.214)" fill="#b3b3b3"/>
        <rect id="Rectángulo_5221" data-name="Rectángulo 5221" width="213.538" height="0.602" transform="translate(0 15.199)" fill="#b3b3b3"/>
        <rect id="Rectángulo_5222" data-name="Rectángulo 5222" width="213.538" height="0.602" transform="translate(0 18.498)" fill="#b3b3b3"/>
        <rect id="Rectángulo_5223" data-name="Rectángulo 5223" width="213.538" height="0.602" transform="translate(0 21.797)" fill="#b3b3b3"/>
        <rect id="Rectángulo_5224" data-name="Rectángulo 5224" width="213.538" height="0.602" transform="translate(0 2.592)" fill="#b3b3b3"/>
        <rect id="Rectángulo_5225" data-name="Rectángulo 5225" width="213.538" height="0.602" transform="translate(0 5.577)" fill="#b3b3b3"/>
        <rect id="Rectángulo_5226" data-name="Rectángulo 5226" width="213.538" height="0.602" transform="translate(0 8.876)" fill="#b3b3b3"/>
      </g>
      <g id="Grupo_54605" data-name="Grupo 54605" transform="translate(0 88.389)">
        <rect id="Rectángulo_5227" data-name="Rectángulo 5227" width="213.538" height="27.386" transform="translate(0)" fill="#f2f2f2"/>
        <rect id="Rectángulo_5228" data-name="Rectángulo 5228" width="213.538" height="0.602" transform="translate(0 15.461)" fill="#b3b3b3"/>
        <rect id="Rectángulo_5229" data-name="Rectángulo 5229" width="213.538" height="0.602" transform="translate(0 18.446)" fill="#b3b3b3"/>
        <rect id="Rectángulo_5230" data-name="Rectángulo 5230" width="213.538" height="0.602" transform="translate(0 21.745)" fill="#b3b3b3"/>
        <rect id="Rectángulo_5231" data-name="Rectángulo 5231" width="213.538" height="0.602" transform="translate(0 25.043)" fill="#b3b3b3"/>
        <rect id="Rectángulo_5232" data-name="Rectángulo 5232" width="213.538" height="0.602" transform="translate(0 5.839)" fill="#b3b3b3"/>
        <rect id="Rectángulo_5233" data-name="Rectángulo 5233" width="213.538" height="0.602" transform="translate(0 2.736)" fill="#b3b3b3"/>
        <rect id="Rectángulo_5234" data-name="Rectángulo 5234" width="213.538" height="0.602" transform="translate(0 8.824)" fill="#b3b3b3"/>
        <rect id="Rectángulo_5235" data-name="Rectángulo 5235" width="213.538" height="0.602" transform="translate(0 12.123)" fill="#b3b3b3"/>
      </g>
      <g id="Grupo_54606" data-name="Grupo 54606" transform="translate(0 140.857)">
        <rect id="Rectángulo_5236" data-name="Rectángulo 5236" width="213.538" height="56.491" transform="translate(0)" fill="#f2f2f2"/>
        <rect id="Rectángulo_5237" data-name="Rectángulo 5237" width="213.538" height="0.602" transform="translate(0 44.565)" fill="#b3b3b3"/>
        <rect id="Rectángulo_5238" data-name="Rectángulo 5238" width="213.538" height="0.602" transform="translate(0 47.55)" fill="#b3b3b3"/>
        <rect id="Rectángulo_5239" data-name="Rectángulo 5239" width="213.538" height="0.602" transform="translate(0 50.849)" fill="#b3b3b3"/>
        <rect id="Rectángulo_5240" data-name="Rectángulo 5240" width="213.538" height="0.602" transform="translate(0 54.148)" fill="#b3b3b3"/>
        <rect id="Rectángulo_5241" data-name="Rectángulo 5241" width="213.538" height="0.602" transform="translate(0 34.945)" fill="#b3b3b3"/>
        <rect id="Rectángulo_5242" data-name="Rectángulo 5242" width="213.538" height="0.602" transform="translate(0 31.842)" fill="#b3b3b3"/>
        <rect id="Rectángulo_5243" data-name="Rectángulo 5243" width="213.538" height="0.602" transform="translate(0 37.928)" fill="#b3b3b3"/>
        <rect id="Rectángulo_5244" data-name="Rectángulo 5244" width="213.538" height="0.602" transform="translate(0 41.227)" fill="#b3b3b3"/>
        <rect id="Rectángulo_5245" data-name="Rectángulo 5245" width="213.538" height="0.602" transform="translate(0 18.96)" fill="#b3b3b3"/>
        <rect id="Rectángulo_5246" data-name="Rectángulo 5246" width="213.538" height="0.602" transform="translate(0 21.945)" fill="#b3b3b3"/>
        <rect id="Rectángulo_5247" data-name="Rectángulo 5247" width="213.538" height="0.602" transform="translate(0 25.244)" fill="#b3b3b3"/>
        <rect id="Rectángulo_5248" data-name="Rectángulo 5248" width="213.538" height="0.602" transform="translate(0 28.543)" fill="#b3b3b3"/>
        <rect id="Rectángulo_5249" data-name="Rectángulo 5249" width="213.538" height="0.602" transform="translate(0 9.338)" fill="#b3b3b3"/>
        <rect id="Rectángulo_5250" data-name="Rectángulo 5250" width="213.538" height="0.602" transform="translate(0 6.235)" fill="#b3b3b3"/>
        <rect id="Rectángulo_5251" data-name="Rectángulo 5251" width="213.538" height="0.602" transform="translate(0 3.364)" fill="#b3b3b3"/>
        <rect id="Rectángulo_5252" data-name="Rectángulo 5252" width="213.538" height="0.602" transform="translate(0 12.323)" fill="#b3b3b3"/>
        <rect id="Rectángulo_5253" data-name="Rectángulo 5253" width="213.538" height="0.602" transform="translate(0 15.622)" fill="#b3b3b3"/>
      </g>
      <g id="Componente" transform="translate(72.673 19.233)" style="isolation: isolate">
        <g id="Grupo_54607" data-name="Grupo 54607" style="isolation: isolate">
          <path id="Trazado_103590" data-name="Trazado 103590" d="M1090.831,5853.85h1.521a1.846,1.846,0,0,0,1.427-.505,2,2,0,0,0,.464-1.4,1.835,1.835,0,0,0-.464-1.308,1.765,1.765,0,0,0-1.344-.491,1.9,1.9,0,0,0-1.28.446,1.459,1.459,0,0,0-.519,1.168h-2.624l-.018-.056a3.07,3.07,0,0,1,1.214-2.614,4.841,4.841,0,0,1,3.153-1.028,5.186,5.186,0,0,1,3.342,1,3.451,3.451,0,0,1,1.248,2.855,2.858,2.858,0,0,1-.557,1.672,3.694,3.694,0,0,1-1.529,1.239,3.432,3.432,0,0,1,1.71,1.224,3.219,3.219,0,0,1,.589,1.919,3.509,3.509,0,0,1-1.349,2.917,5.417,5.417,0,0,1-3.454,1.062,5.29,5.29,0,0,1-3.231-1,3.179,3.179,0,0,1-1.3-2.813l.018-.057h2.623a1.638,1.638,0,0,0,.556,1.276,2.022,2.022,0,0,0,1.41.5,2.055,2.055,0,0,0,1.479-.517,1.859,1.859,0,0,0,.542-1.407,2.034,2.034,0,0,0-.534-1.559,2.228,2.228,0,0,0-1.57-.494h-1.521Z" transform="translate(-1087.826 -5848.057)" fill="#00104e"/>
          <path id="Trazado_103591" data-name="Trazado 103591" d="M1103.634,5851.129l.111,1.324a3.378,3.378,0,0,1,1.21-1.118,3.491,3.491,0,0,1,1.682-.394,3.061,3.061,0,0,1,1.65.428,2.629,2.629,0,0,1,1.038,1.288,3.5,3.5,0,0,1,1.206-1.261,3.28,3.28,0,0,1,1.743-.454,2.894,2.894,0,0,1,2.343,1.025,4.789,4.789,0,0,1,.857,3.12v6.073h-2.707v-6.1a2.55,2.55,0,0,0-.371-1.589,1.355,1.355,0,0,0-1.1-.445,1.879,1.879,0,0,0-1,.256,1.854,1.854,0,0,0-.672.709c0,.119,0,.219.01.3s.009.17.009.255v6.608h-2.7v-6.1a2.55,2.55,0,0,0-.371-1.574,1.339,1.339,0,0,0-1.113-.46,2.093,2.093,0,0,0-.96.209,1.83,1.83,0,0,0-.68.589v7.333h-2.7v-10.031Z" transform="translate(-1085.109 -5847.466)" fill="#00104e"/>
          <path id="Trazado_103592" data-name="Trazado 103592" d="M1117.275,5851.129l.112,1.324a3.379,3.379,0,0,1,1.21-1.118,3.483,3.483,0,0,1,1.681-.394,3.062,3.062,0,0,1,1.651.428,2.636,2.636,0,0,1,1.038,1.288,3.5,3.5,0,0,1,1.206-1.261,3.277,3.277,0,0,1,1.743-.454,2.891,2.891,0,0,1,2.341,1.025,4.782,4.782,0,0,1,.858,3.12v6.073h-2.707v-6.1a2.552,2.552,0,0,0-.37-1.589,1.355,1.355,0,0,0-1.1-.445,1.875,1.875,0,0,0-1,.256,1.845,1.845,0,0,0-.672.709c0,.119,0,.219.01.3s.008.17.008.255v6.608h-2.7v-6.1a2.551,2.551,0,0,0-.37-1.574,1.34,1.34,0,0,0-1.113-.46,2.089,2.089,0,0,0-.96.209,1.822,1.822,0,0,0-.68.589v7.333h-2.7v-10.031Z" transform="translate(-1082.321 -5847.466)" fill="#00104e"/>
        </g>
      </g>
      <g id="Componente-2" data-name="Componente" transform="translate(73.043 69.695)" style="isolation: isolate">
        <g id="Grupo_54608" data-name="Grupo 54608" style="isolation: isolate">
          <path id="Trazado_103593" data-name="Trazado 103593" d="M1088.376,5897.476l.778-7.52h7.529v2.17h-5.312l-.371,3.116a3.182,3.182,0,0,1,.9-.46,4.238,4.238,0,0,1,4.186.988,4.875,4.875,0,0,1,1.071,3.356,4.63,4.63,0,0,1-1.173,3.236,4.337,4.337,0,0,1-3.38,1.289,5.07,5.07,0,0,1-3.189-1.02,3.227,3.227,0,0,1-1.28-2.8l.019-.046,2.6-.13a1.889,1.889,0,0,0,.511,1.4,1.81,1.81,0,0,0,1.334.506,1.562,1.562,0,0,0,1.4-.672,3.094,3.094,0,0,0,.449-1.754,3.249,3.249,0,0,0-.482-1.869,1.62,1.62,0,0,0-1.427-.7,2.081,2.081,0,0,0-1.192.286,1.581,1.581,0,0,0-.589.78Z" transform="translate(-1088.133 -5889.956)" fill="#00104e"/>
          <path id="Trazado_103594" data-name="Trazado 103594" d="M1103.634,5892.868l.111,1.325a3.367,3.367,0,0,1,1.21-1.117,3.48,3.48,0,0,1,1.682-.394,3.06,3.06,0,0,1,1.65.426,2.622,2.622,0,0,1,1.038,1.287,3.5,3.5,0,0,1,1.206-1.26,3.279,3.279,0,0,1,1.743-.453,2.892,2.892,0,0,1,2.343,1.023,4.79,4.79,0,0,1,.857,3.121v6.072h-2.707v-6.1a2.549,2.549,0,0,0-.371-1.588,1.355,1.355,0,0,0-1.1-.445,1.806,1.806,0,0,0-1.669.966c0,.117,0,.217.01.3s.009.168.009.255v6.607h-2.7v-6.1a2.554,2.554,0,0,0-.371-1.574,1.342,1.342,0,0,0-1.113-.459,2.112,2.112,0,0,0-.96.208,1.833,1.833,0,0,0-.68.59v7.332h-2.7v-10.031Z" transform="translate(-1085.478 -5889.399)" fill="#00104e"/>
          <path id="Trazado_103595" data-name="Trazado 103595" d="M1117.275,5892.868l.112,1.325a3.367,3.367,0,0,1,1.21-1.117,3.472,3.472,0,0,1,1.681-.394,3.061,3.061,0,0,1,1.651.426,2.629,2.629,0,0,1,1.038,1.287,3.5,3.5,0,0,1,1.206-1.26,3.276,3.276,0,0,1,1.743-.453,2.89,2.89,0,0,1,2.341,1.023,4.782,4.782,0,0,1,.858,3.121v6.072h-2.707v-6.1a2.551,2.551,0,0,0-.37-1.588,1.355,1.355,0,0,0-1.1-.445,1.875,1.875,0,0,0-1,.255,1.854,1.854,0,0,0-.672.711c0,.117,0,.217.01.3s.008.168.008.255v6.607h-2.7v-6.1a2.555,2.555,0,0,0-.37-1.574,1.342,1.342,0,0,0-1.113-.459,2.108,2.108,0,0,0-.96.208,1.824,1.824,0,0,0-.68.59v7.332h-2.7v-10.031Z" transform="translate(-1082.691 -5889.399)" fill="#00104e"/>
        </g>
      </g>
      <g id="Componente-3" data-name="Componente" transform="translate(72.942 122.597)" style="isolation: isolate">
        <g id="Grupo_54609" data-name="Grupo 54609" style="isolation: isolate">
          <path id="Trazado_103596" data-name="Trazado 103596" d="M1093.474,5933.883a6.481,6.481,0,0,1,1.4.143,7.423,7.423,0,0,1,1.295.422l-.483,1.984a10.063,10.063,0,0,0-1.089-.32,5.116,5.116,0,0,0-1.108-.107,2.418,2.418,0,0,0-1.98.923,3.745,3.745,0,0,0-.692,2.554l.029.047a3.112,3.112,0,0,1,1.15-.742,4.337,4.337,0,0,1,1.567-.27,3.422,3.422,0,0,1,2.832,1.285,5.094,5.094,0,0,1,1.025,3.277,4.676,4.676,0,0,1-1.266,3.365,4.326,4.326,0,0,1-3.278,1.327,4.536,4.536,0,0,1-3.485-1.451,5.69,5.69,0,0,1-1.345-4.019v-2.634a5.78,5.78,0,0,1,1.531-4.218A5.209,5.209,0,0,1,1093.474,5933.883Zm-.62,6.684a3.082,3.082,0,0,0-1.28.241,1.929,1.929,0,0,0-.815.658v.9a4.391,4.391,0,0,0,.579,2.461,1.779,1.779,0,0,0,1.543.862,1.544,1.544,0,0,0,1.341-.764,3.278,3.278,0,0,0,.5-1.846,2.991,2.991,0,0,0-.508-1.815A1.611,1.611,0,0,0,1092.853,5940.566Z" transform="translate(-1088.049 -5933.883)" fill="#00104e"/>
          <path id="Trazado_103597" data-name="Trazado 103597" d="M1103.634,5936.955l.111,1.325a3.37,3.37,0,0,1,1.21-1.116,3.481,3.481,0,0,1,1.682-.4,3.065,3.065,0,0,1,1.65.428,2.617,2.617,0,0,1,1.038,1.287,3.5,3.5,0,0,1,1.206-1.261,3.28,3.28,0,0,1,1.743-.454,2.894,2.894,0,0,1,2.343,1.025,4.787,4.787,0,0,1,.857,3.12v6.072h-2.707v-6.1a2.547,2.547,0,0,0-.371-1.588,1.352,1.352,0,0,0-1.1-.445,1.806,1.806,0,0,0-1.669.966c0,.117,0,.218.01.3s.009.168.009.254v6.607h-2.7v-6.1a2.554,2.554,0,0,0-.371-1.574,1.342,1.342,0,0,0-1.113-.459,2.111,2.111,0,0,0-.96.208,1.838,1.838,0,0,0-.68.591v7.332h-2.7v-10.031Z" transform="translate(-1085.377 -5933.292)" fill="#00104e"/>
          <path id="Trazado_103598" data-name="Trazado 103598" d="M1117.275,5936.955l.112,1.325a3.37,3.37,0,0,1,1.21-1.116,3.473,3.473,0,0,1,1.681-.4,3.066,3.066,0,0,1,1.651.428,2.623,2.623,0,0,1,1.038,1.287,3.5,3.5,0,0,1,1.206-1.261,3.277,3.277,0,0,1,1.743-.454,2.891,2.891,0,0,1,2.341,1.025,4.78,4.78,0,0,1,.858,3.12v6.072h-2.707v-6.1a2.549,2.549,0,0,0-.37-1.588,1.353,1.353,0,0,0-1.1-.445,1.875,1.875,0,0,0-1,.255,1.854,1.854,0,0,0-.672.711c0,.117,0,.218.01.3s.008.168.008.254v6.607h-2.7v-6.1a2.555,2.555,0,0,0-.37-1.574,1.342,1.342,0,0,0-1.113-.459,2.108,2.108,0,0,0-.96.208,1.83,1.83,0,0,0-.68.591v7.332h-2.7v-10.031Z" transform="translate(-1082.59 -5933.292)" fill="#00104e"/>
        </g>
      </g>
      <g id="Componente-4" data-name="Componente" transform="translate(73.61 206.798)" style="isolation: isolate">
        <g id="Grupo_54610" data-name="Grupo 54610" style="isolation: isolate">
          <path id="Trazado_103599" data-name="Trazado 103599" d="M1094.056,6017.456h-2.709v-11.107H1088.6v-1.911l5.452-.481Z" transform="translate(-1088.604 -6003.762)" fill="#00104e"/>
          <path id="Trazado_103600" data-name="Trazado 103600" d="M1106.348,6017.489h-9.217v-1.772l4.367-4.681a10.6,10.6,0,0,0,1.345-1.831,2.979,2.979,0,0,0,.4-1.386,2.088,2.088,0,0,0-.459-1.4,1.613,1.613,0,0,0-1.3-.543,1.685,1.685,0,0,0-1.424.636,2.713,2.713,0,0,0-.487,1.692h-2.634l-.018-.055a4.074,4.074,0,0,1,1.2-3.092,4.494,4.494,0,0,1,3.361-1.267,4.688,4.688,0,0,1,3.276,1.084,3.724,3.724,0,0,1,1.192,2.894,4.066,4.066,0,0,1-.672,2.257,22.429,22.429,0,0,1-2.221,2.712l-2.4,2.613.019.046h5.674Z" transform="translate(-1086.905 -6003.795)" fill="#00104e"/>
          <path id="Trazado_103601" data-name="Trazado 103601" d="M1112.679,6006.868l.111,1.325a3.369,3.369,0,0,1,1.21-1.117,3.488,3.488,0,0,1,1.682-.393,3.064,3.064,0,0,1,1.65.426,2.62,2.62,0,0,1,1.038,1.288,3.5,3.5,0,0,1,1.205-1.261,3.275,3.275,0,0,1,1.743-.453,2.894,2.894,0,0,1,2.343,1.023,4.788,4.788,0,0,1,.858,3.12v6.073h-2.707v-6.1a2.551,2.551,0,0,0-.371-1.589,1.355,1.355,0,0,0-1.1-.445,1.886,1.886,0,0,0-1,.255,1.855,1.855,0,0,0-.672.711c0,.117,0,.218.01.3s.008.169.008.256v6.607h-2.7v-6.1a2.551,2.551,0,0,0-.371-1.574,1.342,1.342,0,0,0-1.113-.46,2.113,2.113,0,0,0-.96.208,1.847,1.847,0,0,0-.681.59v7.333h-2.7v-10.031Z" transform="translate(-1084.197 -6003.206)" fill="#00104e"/>
          <path id="Trazado_103602" data-name="Trazado 103602" d="M1126.32,6006.868l.112,1.325a3.367,3.367,0,0,1,1.21-1.117,3.484,3.484,0,0,1,1.681-.393,3.059,3.059,0,0,1,1.65.426,2.628,2.628,0,0,1,1.039,1.288,3.5,3.5,0,0,1,1.206-1.261,3.272,3.272,0,0,1,1.743-.453,2.891,2.891,0,0,1,2.341,1.023,4.78,4.78,0,0,1,.858,3.12v6.073h-2.707v-6.1a2.553,2.553,0,0,0-.37-1.589,1.355,1.355,0,0,0-1.1-.445,1.891,1.891,0,0,0-1,.255,1.861,1.861,0,0,0-.671.711c0,.117,0,.218.01.3s.007.169.007.256v6.607h-2.7v-6.1a2.551,2.551,0,0,0-.37-1.574,1.342,1.342,0,0,0-1.113-.46,2.111,2.111,0,0,0-.96.208,1.838,1.838,0,0,0-.681.59v7.333h-2.7v-10.031Z" transform="translate(-1081.41 -6003.206)" fill="#00104e"/>
        </g>
      </g>
    </g>
    <g id="Componente-5" data-name="Componente" transform="translate(1121.054 6066.008)" style="isolation: isolate">
      <g id="Grupo_54612" data-name="Grupo 54612" style="isolation: isolate">
        <path id="Trazado_103603" data-name="Trazado 103603" d="M1094.165,6039.977h-2.708V6028.87h-2.744v-1.91l5.451-.483Z" transform="translate(-1088.714 -6026.283)" fill="#8c757e"/>
        <path id="Trazado_103604" data-name="Trazado 103604" d="M1105.208,6034.961h1.529v2.087h-1.529v2.929h-2.7v-2.929H1097l-.121-1.624,5.6-8.947h2.726Zm-5.8,0h3.1v-4.867l-.055-.018-.212.38Z" transform="translate(-1087.045 -6026.283)" fill="#8c757e"/>
        <path id="Trazado_103605" data-name="Trazado 103605" d="M1115.352,6034.753a5.95,5.95,0,0,1-1.229,4.066,4.7,4.7,0,0,1-6.671,0,5.933,5.933,0,0,1-1.233-4.066v-2.976a5.978,5.978,0,0,1,1.229-4.066,4.68,4.68,0,0,1,6.666,0,5.944,5.944,0,0,1,1.238,4.066Zm-2.7-3.256a4.45,4.45,0,0,0-.482-2.349,1.673,1.673,0,0,0-2.782,0,4.5,4.5,0,0,0-.472,2.354v3.51a4.505,4.505,0,0,0,.477,2.371,1.565,1.565,0,0,0,1.4.741,1.54,1.54,0,0,0,1.383-.741,4.56,4.56,0,0,0,.472-2.371Z" transform="translate(-1085.137 -6026.316)" fill="#8c757e"/>
        <path id="Trazado_103606" data-name="Trazado 103606" d="M1123.61,6037.529a1.6,1.6,0,0,0,1.159-.42,1.482,1.482,0,0,0,.436-1.12h2.457l.028.057a3.128,3.128,0,0,1-1.144,2.545,4.826,4.826,0,0,1-6.394-.4,5.4,5.4,0,0,1-1.214-3.644v-.276a5.44,5.44,0,0,1,1.209-3.644,4.28,4.28,0,0,1,3.454-1.428,4.207,4.207,0,0,1,2.99,1.057,3.509,3.509,0,0,1,1.1,2.781l-.018.056H1125.2a1.964,1.964,0,0,0-.426-1.295,1.451,1.451,0,0,0-1.178-.514,1.574,1.574,0,0,0-1.516.833,4.583,4.583,0,0,0-.44,2.148v.276a4.561,4.561,0,0,0,.44,2.162A1.585,1.585,0,0,0,1123.61,6037.529Z" transform="translate(-1082.538 -6025.727)" fill="#8c757e"/>
        <path id="Trazado_103607" data-name="Trazado 103607" d="M1129.994,6029.389l.112,1.326a3.351,3.351,0,0,1,1.21-1.118,3.472,3.472,0,0,1,1.681-.393,3.056,3.056,0,0,1,1.65.426,2.632,2.632,0,0,1,1.039,1.288,3.487,3.487,0,0,1,1.206-1.261,3.272,3.272,0,0,1,1.743-.453,2.888,2.888,0,0,1,2.341,1.024,4.777,4.777,0,0,1,.858,3.119v6.072h-2.708v-6.1a2.538,2.538,0,0,0-.371-1.588,1.349,1.349,0,0,0-1.1-.447,1.9,1.9,0,0,0-1,.256,1.851,1.851,0,0,0-.671.71c0,.118,0,.22.008.3s.009.17.009.255v6.607h-2.7v-6.1a2.548,2.548,0,0,0-.371-1.575,1.341,1.341,0,0,0-1.112-.46,2.1,2.1,0,0,0-.96.209,1.842,1.842,0,0,0-.682.591v7.331h-2.7v-10.031Z" transform="translate(-1080.791 -6025.727)" fill="#8c757e"/>
      </g>
    </g>
    <g id="Grupo_54615" data-name="Grupo 54615" transform="translate(1064.722 6075.671)" opacity="0.8">
      <rect id="Rectángulo_5254" data-name="Rectángulo 5254" width="170.879" height="3.613" transform="translate(3.919 12.97)" fill="#8c757e"/>
      <g id="Grupo_54613" data-name="Grupo 54613" transform="translate(160.361)">
        <path id="Trazado_103608" data-name="Trazado 103608" d="M1177.556,6034.34l-2.465,2.646,13.05,12.127-13.05,12.13,2.465,2.646,15.891-14.776Z" transform="translate(-1175.091 -6034.34)" fill="#8c757e"/>
      </g>
      <g id="Grupo_54614" data-name="Grupo 54614">
        <path id="Trazado_103609" data-name="Trazado 103609" d="M1057.831,6034.34l2.465,2.646-13.05,12.127,13.05,12.13-2.465,2.646-15.89-14.776Z" transform="translate(-1041.941 -6034.34)" fill="#8c757e"/>
      </g>
    </g>
  </g>
</svg>
