<svg xmlns="http://www.w3.org/2000/svg" width="1015.09" height="585.283" viewBox="0 0 1015.09 585.283">
  <g id="Grupo_53909" data-name="Grupo 53909" transform="translate(0 0)">
    <path id="Trazado_101665" data-name="Trazado 101665" d="M702.312,495.322h-413v29.665h413c4.284,0,7.757-1.29,7.757-2.882V498.2C710.068,496.612,706.595,495.322,702.312,495.322Z" fill="#86bec4"/>
    <path id="Trazado_101666" data-name="Trazado 101666" d="M312.312,558.56l5,2.12,10.262,4.076,14.022,5.413,12.913,5.152,5.837,2.739,1.6,1.468.326,1.761-1.044,1.369-2.967.652-8.185.815-6.489.424-4.957-.391-13.3.163-26.087-.391-10.337-.163-5.544-.424-2.184-.815-2.9-1.6-1.892-2.968-.717-3.587.587-4.6,1.206-4.337,2.381-11.674.652-8.087-1.011-7.859-2.641-11.967L271.29,505.9l-3-12.782-1.239-11.935V469.473l2.152-12.424,1.533-7.956,3.88-14.067,3.816-11.5,4.5-14.935,1.4-4.565L284.3,396.1l-.782-42.489.847-27.913.261-7.435-2.391-1.935-3.131-3.174-4.369-4.891-3.891-9.109-1.131-8.674.239-6.848L271.04,273.2l3.435-11.544,1.87-5.152,4.3-9.391,2.739-10.174.326-4.761-.261-8.968.979-1.619,41.739,7.478L346.953,278.2l11.74,26.782-12.609,32.261.859,15.044.355,3.037-1.823,2.441-8.348,22.261-5.217,12.434-.957,2.435L330,405.412l-3.044,6.181-2.608,6-1.3,6.869-3.565,5.913-3.3,7.3L314,445.941l-1.913,23.913-2.174,21.739-3.826,19.826-2.174,17.043-.87,12.609.7,8.609.609,4.348,1.945,2.087,2.142,1.043Z" fill="#fff"/>
    <path id="Trazado_101667" data-name="Trazado 101667" d="M675.837,22.636H330.466V52.3H675.837c3.583,0,6.487-1.29,6.487-2.882v-23.9C682.324,23.927,679.42,22.636,675.837,22.636Z" fill="#86bec4"/>
    <g id="Grupo_53892" data-name="Grupo 53892">
      <path id="Trazado_101668" data-name="Trazado 101668" d="M478.433,38.794l.025.078a6.132,6.132,0,0,1-1.855,4.823,7.448,7.448,0,0,1-5.295,1.784,7.35,7.35,0,0,1-5.522-2.186,7.737,7.737,0,0,1-2.121-5.625V33.932a7.879,7.879,0,0,1,2.069-5.625,7.047,7.047,0,0,1,5.379-2.2,7.8,7.8,0,0,1,5.457,1.791,6.125,6.125,0,0,1,1.914,4.881l-.026.078h-3.672a4.118,4.118,0,0,0-.893-2.852,3.566,3.566,0,0,0-2.78-.989,3.152,3.152,0,0,0-2.69,1.376,5.829,5.829,0,0,0-1,3.507v3.76a5.669,5.669,0,0,0,1.047,3.533,3.374,3.374,0,0,0,2.832,1.376,3.335,3.335,0,0,0,2.618-.95,4.133,4.133,0,0,0,.848-2.826h3.659Z" fill="#fff"/>
      <path id="Trazado_101669" data-name="Trazado 101669" d="M489.049,45.208a7.879,7.879,0,0,1-.355-1.009,6.936,6.936,0,0,1-.213-1.086,5.225,5.225,0,0,1-1.532,1.694,3.835,3.835,0,0,1-2.27.672,4.726,4.726,0,0,1-3.389-1.132,4.053,4.053,0,0,1-1.19-3.084,3.692,3.692,0,0,1,1.584-3.187,7.917,7.917,0,0,1,4.623-1.131h2.107V35.833a2.178,2.178,0,0,0-.53-1.564,2.477,2.477,0,0,0-2.98-.11,1.575,1.575,0,0,0-.5,1.235l-3.647-.013-.014-.078a3.552,3.552,0,0,1,1.539-3.058,6.7,6.7,0,0,1,4.28-1.287,6.251,6.251,0,0,1,4.073,1.273,4.412,4.412,0,0,1,1.565,3.628v5.779a10.989,10.989,0,0,0,.148,1.85,9.306,9.306,0,0,0,.473,1.72h-3.776ZM485.6,42.686a3.247,3.247,0,0,0,1.772-.491,2.563,2.563,0,0,0,1.047-1.138V39.079h-2.107a2.522,2.522,0,0,0-1.823.6,1.951,1.951,0,0,0-.621,1.455,1.453,1.453,0,0,0,.466,1.125A1.8,1.8,0,0,0,485.6,42.686Z" fill="#fff"/>
      <path id="Trazado_101670" data-name="Trazado 101670" d="M507.682,38.6a8.179,8.179,0,0,1-1.4,5,4.722,4.722,0,0,1-4.034,1.875,4.275,4.275,0,0,1-2.127-.511,4.4,4.4,0,0,1-1.545-1.493l-.285,1.732h-3.232V25.036h3.763V32.7a4.277,4.277,0,0,1,1.455-1.293,4.064,4.064,0,0,1,1.946-.453,4.635,4.635,0,0,1,4.06,2.011,9.227,9.227,0,0,1,1.4,5.36Zm-3.763-.271a7.369,7.369,0,0,0-.6-3.258,2.11,2.11,0,0,0-2.05-1.2,2.805,2.805,0,0,0-1.487.371,2.567,2.567,0,0,0-.957,1.061v5.957a2.4,2.4,0,0,0,.964.976,3.082,3.082,0,0,0,1.506.339,2.143,2.143,0,0,0,2.043-1.034,6.045,6.045,0,0,0,.582-2.934v-.273Z" fill="#fff"/>
      <path id="Trazado_101671" data-name="Trazado 101671" d="M516.2,45.479a6.3,6.3,0,0,1-4.837-1.939,6.935,6.935,0,0,1-1.81-4.927V38.1a7.65,7.65,0,0,1,1.713-5.133,6.387,6.387,0,0,1,8.993-.3,6.568,6.568,0,0,1,1.565,4.616v2.056h-8.354l-.026.078a3.631,3.631,0,0,0,.925,2.267,2.89,2.89,0,0,0,2.231.889,7.271,7.271,0,0,0,2.082-.252,9.611,9.611,0,0,0,1.81-.8l1.021,2.333a6.977,6.977,0,0,1-2.237,1.163A9.683,9.683,0,0,1,516.2,45.479Zm-.337-11.612a1.967,1.967,0,0,0-1.655.8,4.176,4.176,0,0,0-.75,2.108l.039.064h4.63v-.336a3.031,3.031,0,0,0-.562-1.921A2.029,2.029,0,0,0,515.867,33.867Z" fill="#fff"/>
      <path id="Trazado_101672" data-name="Trazado 101672" d="M528.243,42.3h6.931v2.909H523.549V42.973l6.659-8.848h-6.452V31.216h11.2v2.15Z" fill="#fff"/>
      <path id="Trazado_101673" data-name="Trazado 101673" d="M545.764,45.208a7.888,7.888,0,0,1-.356-1.009,6.933,6.933,0,0,1-.213-1.086,5.224,5.224,0,0,1-1.532,1.694,3.835,3.835,0,0,1-2.269.672,4.725,4.725,0,0,1-3.389-1.132,4.053,4.053,0,0,1-1.19-3.084,3.692,3.692,0,0,1,1.584-3.187,7.917,7.917,0,0,1,4.623-1.131h2.107V35.833a2.178,2.178,0,0,0-.53-1.564,2.477,2.477,0,0,0-2.981-.11,1.575,1.575,0,0,0-.5,1.235l-3.646-.013-.014-.078A3.552,3.552,0,0,1,539,32.245a6.7,6.7,0,0,1,4.28-1.287,6.251,6.251,0,0,1,4.073,1.273,4.411,4.411,0,0,1,1.565,3.628v5.779a10.992,10.992,0,0,0,.148,1.85,9.3,9.3,0,0,0,.473,1.72h-3.776Zm-3.452-2.521a3.246,3.246,0,0,0,1.771-.491,2.562,2.562,0,0,0,1.047-1.138V39.079h-2.107a2.522,2.522,0,0,0-1.823.6,1.951,1.951,0,0,0-.621,1.455,1.452,1.452,0,0,0,.466,1.125A1.8,1.8,0,0,0,542.312,42.686Z" fill="#fff"/>
    </g>
    <g id="Grupo_53894" data-name="Grupo 53894">
      <path id="Trazado_101674" data-name="Trazado 101674" d="M969.006,48.836H819.3a2.569,2.569,0,0,0-2.569,2.569V75.931A2.569,2.569,0,0,0,819.3,78.5H969.006a2.871,2.871,0,0,0,2.86-2.882v-23.9A2.871,2.871,0,0,0,969.006,48.836Z" fill="#86bec4"/>
      <g id="Grupo_53893" data-name="Grupo 53893">
        <path id="Trazado_101675" data-name="Trazado 101675" d="M887.158,55.49h-5.327V71.408h-3.775V55.49h-5.3V52.581h14.4Z" fill="#fff"/>
        <path id="Trazado_101676" data-name="Trazado 101676" d="M887.172,64.283a7.507,7.507,0,0,1,1.746-5.127,6.083,6.083,0,0,1,4.836-2,6.152,6.152,0,0,1,4.862,1.991,7.472,7.472,0,0,1,1.758,5.134v.271a7.481,7.481,0,0,1-1.752,5.141,6.917,6.917,0,0,1-9.7,0,7.481,7.481,0,0,1-1.752-5.141v-.272Zm3.763.265a6.072,6.072,0,0,0,.673,3.067,2.586,2.586,0,0,0,4.313-.007,6.035,6.035,0,0,0,.679-3.061v-.271a5.968,5.968,0,0,0-.685-3.034,2.32,2.32,0,0,0-2.159-1.176,2.29,2.29,0,0,0-2.14,1.182,6.019,6.019,0,0,0-.68,3.028v.271Z" fill="#fff"/>
        <path id="Trazado_101677" data-name="Trazado 101677" d="M915.321,64.8a8.035,8.035,0,0,1-1.435,4.991,4.749,4.749,0,0,1-4.009,1.888,4.483,4.483,0,0,1-1.953-.407,4.008,4.008,0,0,1-1.461-1.2v6.711H902.7V57.417h3.4l.221,1.655a4.472,4.472,0,0,1,1.493-1.416,4.039,4.039,0,0,1,2.036-.5,4.657,4.657,0,0,1,4.035,2.03,9.06,9.06,0,0,1,1.435,5.341V64.8Zm-3.775-.291a6.79,6.79,0,0,0-.659-3.212,2.151,2.151,0,0,0-2.018-1.23,2.847,2.847,0,0,0-1.455.351,2.5,2.5,0,0,0-.95,1v6.138a2.327,2.327,0,0,0,.95.907,3.2,3.2,0,0,0,1.481.311,2.172,2.172,0,0,0,2.011-1.075,5.682,5.682,0,0,0,.64-2.914v-.271Z" fill="#fff"/>
      </g>
    </g>
    <g id="Grupo_53896" data-name="Grupo 53896">
      <path id="Trazado_101678" data-name="Trazado 101678" d="M1010.68,436.816H779.741c-2.189,0-3.963,1.15-3.963,2.569v24.526c0,1.419,1.774,2.569,3.963,2.569h230.937c2.437,0,4.412-1.29,4.412-2.882V439.7C1015.09,438.107,1013.11,436.816,1010.68,436.816Z" fill="#86bec4"/>
      <g id="Grupo_53895" data-name="Grupo 53895">
        <path id="Trazado_101679" data-name="Trazado 101679" d="M790.019,452.56v6.827h-3.775V440.56h7.5a7.415,7.415,0,0,1,5.107,1.655,6.014,6.014,0,0,1,0,8.7,7.454,7.454,0,0,1-5.107,1.643Zm0-2.91h3.725a3.139,3.139,0,0,0,2.392-.859,3.06,3.06,0,0,0,.815-2.192,3.2,3.2,0,0,0-.809-2.243,3.088,3.088,0,0,0-2.4-.886h-3.725v6.181Z" fill="#fff"/>
        <path id="Trazado_101680" data-name="Trazado 101680" d="M810.541,448.642l-1.384-.039a2.515,2.515,0,0,0-1.383.349,2.214,2.214,0,0,0-.828.983v9.452h-3.763V445.4h3.5l.169,2.069a4.405,4.405,0,0,1,1.273-1.714,2.841,2.841,0,0,1,1.8-.614,2.9,2.9,0,0,1,.523.045c.159.031.321.067.485.11Z" fill="#fff"/>
        <path id="Trazado_101681" data-name="Trazado 101681" d="M818.649,459.659a6.3,6.3,0,0,1-4.837-1.94,6.935,6.935,0,0,1-1.81-4.927v-.518a7.65,7.65,0,0,1,1.713-5.133,6.387,6.387,0,0,1,8.993-.3,6.569,6.569,0,0,1,1.565,4.616v2.056H815.92l-.026.078a3.631,3.631,0,0,0,.925,2.267,2.89,2.89,0,0,0,2.231.889,7.271,7.271,0,0,0,2.082-.252,9.611,9.611,0,0,0,1.81-.8l1.021,2.333a6.976,6.976,0,0,1-2.237,1.163A9.7,9.7,0,0,1,818.649,459.659Zm-.336-11.612a1.967,1.967,0,0,0-1.655.8,4.176,4.176,0,0,0-.75,2.108l.039.065h4.63v-.336a3.031,3.031,0,0,0-.562-1.921A2.03,2.03,0,0,0,818.313,448.047Z" fill="#fff"/>
        <path id="Trazado_101682" data-name="Trazado 101682" d="M829.924,445.4l.169,2a5.111,5.111,0,0,1,1.72-1.668,4.462,4.462,0,0,1,2.288-.595,4.21,4.21,0,0,1,3.31,1.332,6.15,6.15,0,0,1,1.19,4.177v8.741h-3.788v-8.748a2.844,2.844,0,0,0-.569-2,2.291,2.291,0,0,0-1.72-.59,2.919,2.919,0,0,0-1.345.3,2.777,2.777,0,0,0-1,.862v10.174h-3.775V445.4h3.517Z" fill="#fff"/>
        <path id="Trazado_101683" data-name="Trazado 101683" d="M840.838,452.508a9.1,9.1,0,0,1,1.429-5.341,4.641,4.641,0,0,1,4.028-2.03,3.918,3.918,0,0,1,1.888.453,4.541,4.541,0,0,1,1.475,1.293v-7.668h3.788v20.172H850.2l-.31-1.707a4.64,4.64,0,0,1-1.559,1.475,4.142,4.142,0,0,1-2.062.5,4.732,4.732,0,0,1-4-1.888,8.066,8.066,0,0,1-1.429-4.991Zm3.763.274a5.758,5.758,0,0,0,.621,2.907,2.158,2.158,0,0,0,2.018,1.06,2.917,2.917,0,0,0,1.422-.332,2.635,2.635,0,0,0,1-.969v-6a2.92,2.92,0,0,0-.989-1.034,2.622,2.622,0,0,0-1.4-.371,2.129,2.129,0,0,0-2.023,1.236,7.02,7.02,0,0,0-.641,3.226Z" fill="#fff"/>
        <path id="Trazado_101684" data-name="Trazado 101684" d="M864.579,459.387a7.888,7.888,0,0,1-.356-1.009,6.933,6.933,0,0,1-.213-1.086,5.225,5.225,0,0,1-1.532,1.694,3.835,3.835,0,0,1-2.269.672,4.726,4.726,0,0,1-3.389-1.132,4.053,4.053,0,0,1-1.19-3.084,3.692,3.692,0,0,1,1.584-3.187,7.917,7.917,0,0,1,4.623-1.131h2.107v-1.112a2.178,2.178,0,0,0-.53-1.565,2.477,2.477,0,0,0-2.981-.11,1.575,1.575,0,0,0-.5,1.235l-3.646-.013-.014-.078a3.552,3.552,0,0,1,1.539-3.058,6.7,6.7,0,0,1,4.28-1.287,6.251,6.251,0,0,1,4.073,1.273,4.411,4.411,0,0,1,1.565,3.628v5.779a10.993,10.993,0,0,0,.148,1.85,9.3,9.3,0,0,0,.473,1.72h-3.776Zm-3.452-2.521a3.246,3.246,0,0,0,1.771-.491,2.562,2.562,0,0,0,1.047-1.138v-1.978h-2.107a2.522,2.522,0,0,0-1.823.6,1.951,1.951,0,0,0-.621,1.455,1.452,1.452,0,0,0,.466,1.125A1.8,1.8,0,0,0,861.127,456.866Z" fill="#fff"/>
        <path id="Trazado_101685" data-name="Trazado 101685" d="M878.156,455.534a1.318,1.318,0,0,0-.6-1.073,6.112,6.112,0,0,0-2.231-.8,8.983,8.983,0,0,1-3.743-1.493,3.243,3.243,0,0,1-1.261-2.7,3.853,3.853,0,0,1,1.519-3.071,6.165,6.165,0,0,1,4.066-1.261,6.671,6.671,0,0,1,4.261,1.255,3.7,3.7,0,0,1,1.519,3.168l-.025.077h-3.648a1.842,1.842,0,0,0-.536-1.37,2.575,2.575,0,0,0-3.013-.085,1.41,1.41,0,0,0-.524,1.119,1.274,1.274,0,0,0,.55,1.06,6.009,6.009,0,0,0,2.231.736,9.048,9.048,0,0,1,3.841,1.52,3.341,3.341,0,0,1,1.254,2.761,3.674,3.674,0,0,1-1.616,3.084,7,7,0,0,1-4.267,1.2,6.482,6.482,0,0,1-4.416-1.416,3.958,3.958,0,0,1-1.546-3.227l.026-.077h3.452a1.962,1.962,0,0,0,.737,1.629,3.038,3.038,0,0,0,1.823.5,2.618,2.618,0,0,0,1.6-.414A1.332,1.332,0,0,0,878.156,455.534Z" fill="#fff"/>
        <path id="Trazado_101686" data-name="Trazado 101686" d="M894.812,442.047h-3.775v-2.832h3.775Zm0,17.34h-3.775V445.4h3.775Z" fill="#fff"/>
        <path id="Trazado_101687" data-name="Trazado 101687" d="M901.367,445.4l.169,2a5.111,5.111,0,0,1,1.72-1.668,4.462,4.462,0,0,1,2.288-.595,4.21,4.21,0,0,1,3.31,1.332,6.15,6.15,0,0,1,1.19,4.177v8.741h-3.788v-8.748a2.844,2.844,0,0,0-.569-2,2.291,2.291,0,0,0-1.72-.59,2.919,2.919,0,0,0-1.345.3,2.777,2.777,0,0,0-1,.862v10.174H897.85V445.4h3.517Z" fill="#fff"/>
        <path id="Trazado_101688" data-name="Trazado 101688" d="M913.846,459.387V448.046h-2.081V445.4h2.081v-1.552a4.73,4.73,0,0,1,1.358-3.627,5.359,5.359,0,0,1,3.815-1.273,6.985,6.985,0,0,1,.977.07q.5.072,1.092.2l-.323,2.806c-.206-.034-.407-.065-.6-.091a5.308,5.308,0,0,0-.679-.038,1.815,1.815,0,0,0-1.391.5,2.043,2.043,0,0,0-.472,1.448V445.4h2.78v2.65h-2.78v11.341h-3.777Z" fill="#fff"/>
        <path id="Trazado_101689" data-name="Trazado 101689" d="M928.523,459.659a6.3,6.3,0,0,1-4.837-1.94,6.935,6.935,0,0,1-1.81-4.927v-.518a7.65,7.65,0,0,1,1.713-5.133,6.387,6.387,0,0,1,8.993-.3,6.569,6.569,0,0,1,1.565,4.616v2.056h-8.354l-.026.078a3.631,3.631,0,0,0,.925,2.267,2.89,2.89,0,0,0,2.231.889,7.271,7.271,0,0,0,2.082-.252,9.611,9.611,0,0,0,1.81-.8l1.021,2.333A6.976,6.976,0,0,1,931.6,459.2,9.7,9.7,0,0,1,928.523,459.659Zm-.336-11.612a1.967,1.967,0,0,0-1.655.8,4.176,4.176,0,0,0-.75,2.108l.039.065h4.63v-.336a3.031,3.031,0,0,0-.562-1.921A2.03,2.03,0,0,0,928.187,448.047Z" fill="#fff"/>
        <path id="Trazado_101690" data-name="Trazado 101690" d="M943.7,448.642l-1.384-.039a2.515,2.515,0,0,0-1.383.349,2.214,2.214,0,0,0-.828.983v9.452h-3.763V445.4h3.5l.169,2.069a4.405,4.405,0,0,1,1.273-1.714,2.841,2.841,0,0,1,1.8-.614,2.9,2.9,0,0,1,.523.045c.159.031.321.067.485.11Z" fill="#fff"/>
        <path id="Trazado_101691" data-name="Trazado 101691" d="M949.587,442.047h-3.775v-2.832h3.775Zm0,17.34h-3.775V445.4h3.775Z" fill="#fff"/>
        <path id="Trazado_101692" data-name="Trazado 101692" d="M952.108,452.262a7.508,7.508,0,0,1,1.746-5.127,6.083,6.083,0,0,1,4.836-2,6.152,6.152,0,0,1,4.862,1.991,7.472,7.472,0,0,1,1.758,5.134v.272a7.481,7.481,0,0,1-1.752,5.141,6.917,6.917,0,0,1-9.7,0,7.481,7.481,0,0,1-1.752-5.141v-.272Zm3.763.265a6.072,6.072,0,0,0,.673,3.067,2.586,2.586,0,0,0,4.313-.007,6.035,6.035,0,0,0,.679-3.06v-.271a5.968,5.968,0,0,0-.685-3.034,2.32,2.32,0,0,0-2.159-1.176,2.29,2.29,0,0,0-2.14,1.182,6.019,6.019,0,0,0-.68,3.028v.271Z" fill="#fff"/>
        <path id="Trazado_101693" data-name="Trazado 101693" d="M975,448.642l-1.384-.039a2.515,2.515,0,0,0-1.383.349,2.214,2.214,0,0,0-.828.983v9.452h-3.763V445.4h3.5l.169,2.069a4.405,4.405,0,0,1,1.273-1.714,2.841,2.841,0,0,1,1.8-.614,2.9,2.9,0,0,1,.523.045c.159.031.321.067.485.11Z" fill="#fff"/>
        <path id="Trazado_101694" data-name="Trazado 101694" d="M983.1,459.659a6.3,6.3,0,0,1-4.837-1.94,6.935,6.935,0,0,1-1.81-4.927v-.518a7.65,7.65,0,0,1,1.713-5.133,6.387,6.387,0,0,1,8.993-.3,6.569,6.569,0,0,1,1.565,4.616v2.056h-8.354l-.026.078a3.631,3.631,0,0,0,.925,2.267,2.89,2.89,0,0,0,2.231.889,7.271,7.271,0,0,0,2.082-.252,9.611,9.611,0,0,0,1.81-.8l1.021,2.333a6.976,6.976,0,0,1-2.237,1.163A9.7,9.7,0,0,1,983.1,459.659Zm-.336-11.612a1.967,1.967,0,0,0-1.655.8,4.176,4.176,0,0,0-.75,2.108l.039.065h4.63v-.336a3.031,3.031,0,0,0-.562-1.921A2.03,2.03,0,0,0,982.768,448.047Z" fill="#fff"/>
        <path id="Trazado_101695" data-name="Trazado 101695" d="M998.491,455.534a1.318,1.318,0,0,0-.6-1.073,6.112,6.112,0,0,0-2.231-.8,8.983,8.983,0,0,1-3.743-1.493,3.243,3.243,0,0,1-1.261-2.7,3.853,3.853,0,0,1,1.519-3.071,6.165,6.165,0,0,1,4.066-1.261,6.671,6.671,0,0,1,4.261,1.255,3.7,3.7,0,0,1,1.519,3.168l-.025.077h-3.648a1.842,1.842,0,0,0-.536-1.37,2.575,2.575,0,0,0-3.013-.085,1.41,1.41,0,0,0-.524,1.119,1.274,1.274,0,0,0,.55,1.06,6.009,6.009,0,0,0,2.231.736,9.048,9.048,0,0,1,3.841,1.52,3.341,3.341,0,0,1,1.254,2.761,3.674,3.674,0,0,1-1.616,3.084,7,7,0,0,1-4.267,1.2,6.482,6.482,0,0,1-4.416-1.416,3.958,3.958,0,0,1-1.546-3.227l.026-.077h3.452a1.962,1.962,0,0,0,.737,1.629,3.038,3.038,0,0,0,1.823.5,2.618,2.618,0,0,0,1.6-.414A1.332,1.332,0,0,0,998.491,455.534Z" fill="#fff"/>
      </g>
    </g>
    <g id="Grupo_53898" data-name="Grupo 53898">
      <path id="Trazado_101696" data-name="Trazado 101696" d="M193.228,436.816H43.519a2.569,2.569,0,0,0-2.569,2.569v24.526a2.569,2.569,0,0,0,2.569,2.569H193.228a2.871,2.871,0,0,0,2.86-2.882V439.7A2.872,2.872,0,0,0,193.228,436.816Z" fill="#86bec4"/>
      <g id="Grupo_53897" data-name="Grupo 53897">
        <path id="Trazado_101697" data-name="Trazado 101697" d="M75.765,459.387V440.56h6.361a8.987,8.987,0,0,1,5.186,1.293,4.4,4.4,0,0,1,1.862,3.866,4.086,4.086,0,0,1-.691,2.334,4.181,4.181,0,0,1-2.011,1.545,4,4,0,0,1,2.54,1.552,4.627,4.627,0,0,1,.848,2.755A4.87,4.87,0,0,1,88.074,458a8.064,8.064,0,0,1-5.056,1.39H75.765Zm3.775-10.939h2.716a3.774,3.774,0,0,0,2.327-.621,2.135,2.135,0,0,0,.815-1.81,2.26,2.26,0,0,0-.821-1.927,4.034,4.034,0,0,0-2.451-.621H79.54Zm0,2.612v5.418h3.479a3.514,3.514,0,0,0,2.289-.651A2.359,2.359,0,0,0,86.1,453.9a3,3,0,0,0-.673-2.109,2.761,2.761,0,0,0-2.121-.728Z" fill="#fff"/>
        <path id="Trazado_101698" data-name="Trazado 101698" d="M91.863,452.262a7.508,7.508,0,0,1,1.746-5.127,6.083,6.083,0,0,1,4.836-2,6.152,6.152,0,0,1,4.862,1.991,7.472,7.472,0,0,1,1.758,5.134v.272a7.481,7.481,0,0,1-1.752,5.141,6.917,6.917,0,0,1-9.7,0,7.482,7.482,0,0,1-1.752-5.141v-.272Zm3.763.265a6.072,6.072,0,0,0,.673,3.067,2.586,2.586,0,0,0,4.313-.007,6.035,6.035,0,0,0,.679-3.06v-.271a5.968,5.968,0,0,0-.686-3.034,2.32,2.32,0,0,0-2.159-1.176,2.29,2.29,0,0,0-2.14,1.182,6.019,6.019,0,0,0-.68,3.028v.271Z" fill="#fff"/>
        <path id="Trazado_101699" data-name="Trazado 101699" d="M111.881,441.969V445.4h2.354v2.65h-2.354v7.125a1.645,1.645,0,0,0,.336,1.164,1.2,1.2,0,0,0,.905.35,3.334,3.334,0,0,0,.511-.033,4.241,4.241,0,0,0,.5-.109l.323,2.728a7.61,7.61,0,0,1-1.112.291,6.735,6.735,0,0,1-1.177.1,4.025,4.025,0,0,1-3.007-1.073,4.707,4.707,0,0,1-1.054-3.4v-7.139h-2.043V445.4H108.1v-3.427h3.777Z" fill="#fff"/>
        <path id="Trazado_101700" data-name="Trazado 101700" d="M121.126,441.969V445.4h2.354v2.65h-2.354v7.125a1.645,1.645,0,0,0,.336,1.164,1.2,1.2,0,0,0,.905.35,3.334,3.334,0,0,0,.511-.033,4.241,4.241,0,0,0,.5-.109l.323,2.728a7.61,7.61,0,0,1-1.112.291,6.735,6.735,0,0,1-1.177.1,4.025,4.025,0,0,1-3.007-1.073,4.707,4.707,0,0,1-1.054-3.4v-7.139h-2.043V445.4h2.043v-3.427h3.777Z" fill="#fff"/>
        <path id="Trazado_101701" data-name="Trazado 101701" d="M125.3,452.262a7.508,7.508,0,0,1,1.746-5.127,6.083,6.083,0,0,1,4.836-2,6.152,6.152,0,0,1,4.862,1.991,7.472,7.472,0,0,1,1.758,5.134v.272a7.481,7.481,0,0,1-1.752,5.141,6.917,6.917,0,0,1-9.7,0,7.481,7.481,0,0,1-1.752-5.141v-.272Zm3.762.265a6.072,6.072,0,0,0,.673,3.067,2.586,2.586,0,0,0,4.313-.007,6.035,6.035,0,0,0,.679-3.06v-.271a5.968,5.968,0,0,0-.686-3.034,2.32,2.32,0,0,0-2.159-1.176,2.29,2.29,0,0,0-2.14,1.182,6.019,6.019,0,0,0-.68,3.028v.271Z" fill="#fff"/>
        <path id="Trazado_101702" data-name="Trazado 101702" d="M144.337,445.4l.155,1.849a4.7,4.7,0,0,1,1.688-1.558,4.856,4.856,0,0,1,2.348-.55,4.271,4.271,0,0,1,2.3.595,3.67,3.67,0,0,1,1.449,1.8,4.851,4.851,0,0,1,1.681-1.759,4.565,4.565,0,0,1,2.431-.634,4.036,4.036,0,0,1,3.266,1.429,6.675,6.675,0,0,1,1.2,4.352v8.47h-3.775v-8.5a3.555,3.555,0,0,0-.518-2.217,1.887,1.887,0,0,0-1.538-.622,2.635,2.635,0,0,0-1.391.356,2.6,2.6,0,0,0-.937.992c0,.164,0,.3.013.421s.014.235.014.356v9.215h-3.763v-8.5a3.565,3.565,0,0,0-.518-2.2,1.877,1.877,0,0,0-1.552-.642,2.927,2.927,0,0,0-1.339.292,2.572,2.572,0,0,0-.95.823v10.226h-3.763V445.4h3.5Z" fill="#fff"/>
      </g>
    </g>
    <g id="Grupo_53900" data-name="Grupo 53900">
      <path id="Trazado_101703" data-name="Trazado 101703" d="M246.778,45.64H4.164C1.864,45.64,0,46.79,0,48.209V72.735C0,74.154,1.864,75.3,4.164,75.3H246.778c2.56,0,4.635-1.29,4.635-2.882v-23.9C251.413,46.93,249.337,45.64,246.778,45.64Z" fill="#86bec4"/>
      <g id="Grupo_53899" data-name="Grupo 53899">
        <path id="Trazado_101704" data-name="Trazado 101704" d="M14.242,61.384v6.827H10.467V49.384h7.5a7.415,7.415,0,0,1,5.107,1.655,6.014,6.014,0,0,1,0,8.7,7.454,7.454,0,0,1-5.107,1.643Zm0-2.91h3.725a3.139,3.139,0,0,0,2.392-.859,3.06,3.06,0,0,0,.815-2.192,3.2,3.2,0,0,0-.809-2.243,3.088,3.088,0,0,0-2.4-.886H14.242v6.181Z" fill="#fff"/>
        <path id="Trazado_101705" data-name="Trazado 101705" d="M34.764,57.466l-1.384-.039A2.515,2.515,0,0,0,32,57.776a2.213,2.213,0,0,0-.828.983v9.452H27.406V54.22h3.5l.169,2.069a4.405,4.405,0,0,1,1.273-1.714,2.841,2.841,0,0,1,1.8-.614,2.9,2.9,0,0,1,.523.045c.159.031.321.067.485.11Z" fill="#fff"/>
        <path id="Trazado_101706" data-name="Trazado 101706" d="M42.872,68.483a6.3,6.3,0,0,1-4.837-1.939,6.935,6.935,0,0,1-1.81-4.927V61.1a7.65,7.65,0,0,1,1.713-5.133,5.686,5.686,0,0,1,4.6-2,5.664,5.664,0,0,1,4.4,1.707A6.569,6.569,0,0,1,48.5,60.285V62.34H40.144l-.026.078a3.632,3.632,0,0,0,.925,2.267,2.89,2.89,0,0,0,2.23.889,7.271,7.271,0,0,0,2.082-.252,9.611,9.611,0,0,0,1.811-.8l1.021,2.333a6.977,6.977,0,0,1-2.237,1.163A9.684,9.684,0,0,1,42.872,68.483Zm-.337-11.612a1.967,1.967,0,0,0-1.655.8,4.175,4.175,0,0,0-.75,2.108l.039.064H44.8v-.336a3.031,3.031,0,0,0-.562-1.921A2.029,2.029,0,0,0,42.535,56.871Z" fill="#fff"/>
        <path id="Trazado_101707" data-name="Trazado 101707" d="M54.146,54.22l.169,2a5.111,5.111,0,0,1,1.72-1.668,4.462,4.462,0,0,1,2.288-.595,4.21,4.21,0,0,1,3.311,1.332,6.15,6.15,0,0,1,1.189,4.177v8.741H59.035V59.464a2.844,2.844,0,0,0-.569-2,2.291,2.291,0,0,0-1.72-.59,2.918,2.918,0,0,0-1.345.3,2.777,2.777,0,0,0-1,.862V68.212H50.63V54.22Z" fill="#fff"/>
        <path id="Trazado_101708" data-name="Trazado 101708" d="M65.061,61.333a9.1,9.1,0,0,1,1.429-5.341,4.641,4.641,0,0,1,4.028-2.03,3.918,3.918,0,0,1,1.888.453,4.541,4.541,0,0,1,1.475,1.293V48.04h3.788V68.212H74.423L74.112,66.5a4.639,4.639,0,0,1-1.559,1.475,4.142,4.142,0,0,1-2.062.5,4.732,4.732,0,0,1-4-1.888A8.066,8.066,0,0,1,65.061,61.6Zm3.763.273a5.758,5.758,0,0,0,.621,2.907,2.158,2.158,0,0,0,2.018,1.061,2.917,2.917,0,0,0,1.422-.332,2.635,2.635,0,0,0,1-.969v-6a2.92,2.92,0,0,0-.989-1.034,2.622,2.622,0,0,0-1.4-.371,2.129,2.129,0,0,0-2.023,1.236,7.02,7.02,0,0,0-.641,3.226v.273Z" fill="#fff"/>
        <path id="Trazado_101709" data-name="Trazado 101709" d="M88.8,68.212a7.878,7.878,0,0,1-.355-1.009,6.937,6.937,0,0,1-.213-1.086A5.225,5.225,0,0,1,86.7,67.811a3.835,3.835,0,0,1-2.27.672,4.726,4.726,0,0,1-3.389-1.132,4.053,4.053,0,0,1-1.189-3.084,3.692,3.692,0,0,1,1.584-3.187,7.917,7.917,0,0,1,4.623-1.131h2.107V58.837a2.178,2.178,0,0,0-.53-1.564,2.477,2.477,0,0,0-2.98-.11,1.575,1.575,0,0,0-.5,1.235l-3.646-.013-.014-.078a3.552,3.552,0,0,1,1.539-3.058,6.7,6.7,0,0,1,4.28-1.287,6.251,6.251,0,0,1,4.073,1.273,4.412,4.412,0,0,1,1.564,3.628v5.779a10.989,10.989,0,0,0,.148,1.85,9.3,9.3,0,0,0,.473,1.72H88.8ZM85.35,65.69a3.246,3.246,0,0,0,1.771-.491,2.563,2.563,0,0,0,1.047-1.138V62.083H86.061a2.522,2.522,0,0,0-1.823.6,1.951,1.951,0,0,0-.621,1.455,1.452,1.452,0,0,0,.466,1.125A1.8,1.8,0,0,0,85.35,65.69Z" fill="#fff"/>
        <path id="Trazado_101710" data-name="Trazado 101710" d="M102.379,64.358a1.318,1.318,0,0,0-.6-1.073,6.112,6.112,0,0,0-2.23-.8A8.982,8.982,0,0,1,95.8,60.99a3.243,3.243,0,0,1-1.261-2.7,3.853,3.853,0,0,1,1.52-3.071,6.165,6.165,0,0,1,4.066-1.261,6.671,6.671,0,0,1,4.261,1.255,3.7,3.7,0,0,1,1.52,3.168l-.025.077h-3.647a1.842,1.842,0,0,0-.536-1.37,2.575,2.575,0,0,0-3.013-.085,1.41,1.41,0,0,0-.524,1.119,1.274,1.274,0,0,0,.55,1.061,6.009,6.009,0,0,0,2.23.736,9.048,9.048,0,0,1,3.841,1.52,3.341,3.341,0,0,1,1.254,2.761,3.674,3.674,0,0,1-1.616,3.084,7,7,0,0,1-4.267,1.2,6.482,6.482,0,0,1-4.416-1.416,3.958,3.958,0,0,1-1.546-3.227l.026-.077h3.452a1.962,1.962,0,0,0,.737,1.629,3.039,3.039,0,0,0,1.823.5,2.618,2.618,0,0,0,1.6-.414A1.333,1.333,0,0,0,102.379,64.358Z" fill="#fff"/>
        <path id="Trazado_101711" data-name="Trazado 101711" d="M125.538,63.3a2.185,2.185,0,0,0-.769-1.745,7.794,7.794,0,0,0-2.7-1.241,15.348,15.348,0,0,1-5.082-2.3,4.361,4.361,0,0,1-1.72-3.646,4.517,4.517,0,0,1,1.972-3.782,8.212,8.212,0,0,1,5.037-1.468,7.566,7.566,0,0,1,5.056,1.648,4.935,4.935,0,0,1,1.888,4.066l-.025.078h-3.66a2.749,2.749,0,0,0-.872-2.114,3.472,3.472,0,0,0-2.451-.809,3.621,3.621,0,0,0-2.34.673,2.119,2.119,0,0,0-.828,1.72,1.848,1.848,0,0,0,.886,1.571,12.243,12.243,0,0,0,3.059,1.3,11.881,11.881,0,0,1,4.72,2.289,4.758,4.758,0,0,1,1.6,3.737,4.474,4.474,0,0,1-1.907,3.814,8.333,8.333,0,0,1-5.037,1.4A9.2,9.2,0,0,1,117,66.9a4.945,4.945,0,0,1-2.224-4.441l.025-.078h3.673a2.9,2.9,0,0,0,1.027,2.464,4.638,4.638,0,0,0,2.864.782,3.766,3.766,0,0,0,2.354-.634A2.035,2.035,0,0,0,125.538,63.3Z" fill="#fff"/>
        <path id="Trazado_101712" data-name="Trazado 101712" d="M140.409,66.194a4.694,4.694,0,0,1-1.642,1.694,4.844,4.844,0,0,1-5.748-.821,6.53,6.53,0,0,1-1.248-4.4V54.22h3.764V62.71a3.631,3.631,0,0,0,.517,2.2,1.812,1.812,0,0,0,1.526.668,3.762,3.762,0,0,0,1.552-.292,2.614,2.614,0,0,0,1.06-.861V54.22h3.776V68.212h-3.22Z" fill="#fff"/>
        <path id="Trazado_101713" data-name="Trazado 101713" d="M159.43,61.6A8.035,8.035,0,0,1,158,66.6a4.749,4.749,0,0,1-4.009,1.888,4.483,4.483,0,0,1-1.953-.407,4.009,4.009,0,0,1-1.461-1.2V73.59H146.81V54.22h3.4l.221,1.655a4.473,4.473,0,0,1,1.493-1.416,4.039,4.039,0,0,1,2.036-.5A4.657,4.657,0,0,1,158,55.992a9.06,9.06,0,0,1,1.435,5.341V61.6Zm-3.776-.291a6.79,6.79,0,0,0-.659-3.212,2.151,2.151,0,0,0-2.018-1.23,2.847,2.847,0,0,0-1.455.351,2.5,2.5,0,0,0-.95,1v6.138a2.327,2.327,0,0,0,.95.907,3.2,3.2,0,0,0,1.481.311,2.172,2.172,0,0,0,2.011-1.075,5.681,5.681,0,0,0,.64-2.914v-.271Z" fill="#fff"/>
        <path id="Trazado_101714" data-name="Trazado 101714" d="M167.952,68.483a6.3,6.3,0,0,1-4.837-1.939,6.935,6.935,0,0,1-1.81-4.927V61.1a7.65,7.65,0,0,1,1.713-5.133,6.387,6.387,0,0,1,8.993-.3,6.569,6.569,0,0,1,1.565,4.616V62.34h-8.354l-.026.078a3.632,3.632,0,0,0,.925,2.267,2.89,2.89,0,0,0,2.23.889,7.271,7.271,0,0,0,2.082-.252,9.611,9.611,0,0,0,1.811-.8l1.021,2.333a6.977,6.977,0,0,1-2.237,1.163A9.685,9.685,0,0,1,167.952,68.483Zm-.337-11.612a1.967,1.967,0,0,0-1.655.8,4.175,4.175,0,0,0-.75,2.108l.039.064h4.63v-.336a3.031,3.031,0,0,0-.562-1.921A2.028,2.028,0,0,0,167.615,56.871Z" fill="#fff"/>
        <path id="Trazado_101715" data-name="Trazado 101715" d="M183.133,57.466l-1.384-.039a2.515,2.515,0,0,0-1.383.349,2.213,2.213,0,0,0-.828.983v9.452h-3.763V54.22h3.5l.169,2.069a4.405,4.405,0,0,1,1.273-1.714,2.841,2.841,0,0,1,1.8-.614,2.9,2.9,0,0,1,.523.045c.159.031.321.067.485.11Z" fill="#fff"/>
        <path id="Trazado_101716" data-name="Trazado 101716" d="M189.017,50.872h-3.775V48.04h3.775Zm0,17.34h-3.775V54.22h3.775Z" fill="#fff"/>
        <path id="Trazado_101717" data-name="Trazado 101717" d="M191.538,61.087a7.508,7.508,0,0,1,1.746-5.127,6.083,6.083,0,0,1,4.836-2,6.152,6.152,0,0,1,4.862,1.991,7.472,7.472,0,0,1,1.758,5.134v.271a7.481,7.481,0,0,1-1.752,5.141,6.917,6.917,0,0,1-9.7,0,7.482,7.482,0,0,1-1.752-5.141v-.271Zm3.763.265a6.072,6.072,0,0,0,.673,3.067,2.586,2.586,0,0,0,4.313-.007,6.035,6.035,0,0,0,.679-3.061v-.271a5.968,5.968,0,0,0-.686-3.034,2.32,2.32,0,0,0-2.159-1.176,2.29,2.29,0,0,0-2.14,1.182,6.019,6.019,0,0,0-.68,3.028v.271Z" fill="#fff"/>
        <path id="Trazado_101718" data-name="Trazado 101718" d="M214.426,57.466l-1.384-.039a2.515,2.515,0,0,0-1.383.349,2.213,2.213,0,0,0-.828.983v9.452h-3.763V54.22h3.5l.169,2.069a4.405,4.405,0,0,1,1.273-1.714,2.841,2.841,0,0,1,1.8-.614,2.9,2.9,0,0,1,.523.045c.159.031.321.067.485.11Z" fill="#fff"/>
        <path id="Trazado_101719" data-name="Trazado 101719" d="M222.534,68.483a6.3,6.3,0,0,1-4.837-1.939,6.935,6.935,0,0,1-1.81-4.927V61.1a7.65,7.65,0,0,1,1.713-5.133,6.387,6.387,0,0,1,8.993-.3,6.569,6.569,0,0,1,1.565,4.616V62.34h-8.354l-.026.078a3.632,3.632,0,0,0,.925,2.267,2.89,2.89,0,0,0,2.23.889,7.271,7.271,0,0,0,2.082-.252,9.611,9.611,0,0,0,1.811-.8l1.021,2.333a6.977,6.977,0,0,1-2.237,1.163A9.68,9.68,0,0,1,222.534,68.483ZM222.2,56.871a1.967,1.967,0,0,0-1.655.8,4.175,4.175,0,0,0-.75,2.108l.039.064h4.63v-.336a3.031,3.031,0,0,0-.562-1.921A2.028,2.028,0,0,0,222.2,56.871Z" fill="#fff"/>
        <path id="Trazado_101720" data-name="Trazado 101720" d="M237.921,64.358a1.318,1.318,0,0,0-.6-1.073,6.112,6.112,0,0,0-2.23-.8,8.982,8.982,0,0,1-3.743-1.493,3.243,3.243,0,0,1-1.261-2.7,3.853,3.853,0,0,1,1.52-3.071,6.165,6.165,0,0,1,4.066-1.261,6.671,6.671,0,0,1,4.261,1.255,3.7,3.7,0,0,1,1.52,3.168l-.025.077h-3.648a1.842,1.842,0,0,0-.536-1.37,2.575,2.575,0,0,0-3.013-.085,1.41,1.41,0,0,0-.524,1.119,1.274,1.274,0,0,0,.55,1.061,6.009,6.009,0,0,0,2.23.736,9.048,9.048,0,0,1,3.841,1.52A3.341,3.341,0,0,1,241.58,64.2a3.674,3.674,0,0,1-1.616,3.084,7,7,0,0,1-4.267,1.2,6.482,6.482,0,0,1-4.416-1.416,3.958,3.958,0,0,1-1.546-3.227l.026-.077h3.452a1.962,1.962,0,0,0,.737,1.629,3.039,3.039,0,0,0,1.823.5,2.618,2.618,0,0,0,1.6-.414A1.333,1.333,0,0,0,237.921,64.358Z" fill="#fff"/>
      </g>
    </g>
    <path id="Trazado_101721" data-name="Trazado 101721" d="M675.837,178.084H330.466v29.665H675.837c3.583,0,6.487-1.29,6.487-2.882v-23.9C682.324,179.374,679.42,178.084,675.837,178.084Z" fill="#86bec4"/>
    <g id="Grupo_53901" data-name="Grupo 53901">
      <path id="Trazado_101722" data-name="Trazado 101722" d="M477.229,184.738H471.9v15.918h-3.775V184.738h-5.3v-2.909h14.4v2.909Z" fill="#fff"/>
      <path id="Trazado_101723" data-name="Trazado 101723" d="M485.389,189.911l-1.384-.039a2.515,2.515,0,0,0-1.383.349,2.213,2.213,0,0,0-.828.983v9.452h-3.763V186.665h3.5l.169,2.069a4.405,4.405,0,0,1,1.273-1.714,2.841,2.841,0,0,1,1.8-.614,2.894,2.894,0,0,1,.523.045c.159.031.321.067.485.11Z" fill="#fff"/>
      <path id="Trazado_101724" data-name="Trazado 101724" d="M486.721,193.531a7.508,7.508,0,0,1,1.746-5.127,6.083,6.083,0,0,1,4.836-2,6.152,6.152,0,0,1,4.862,1.991,7.472,7.472,0,0,1,1.758,5.134v.271a7.481,7.481,0,0,1-1.752,5.141,6.917,6.917,0,0,1-9.7,0,7.482,7.482,0,0,1-1.752-5.141v-.271Zm3.762.265a6.072,6.072,0,0,0,.673,3.067,2.586,2.586,0,0,0,4.313-.007,6.035,6.035,0,0,0,.679-3.061v-.27a5.967,5.967,0,0,0-.685-3.034,2.32,2.32,0,0,0-2.159-1.176,2.29,2.29,0,0,0-2.14,1.182,6.019,6.019,0,0,0-.68,3.028v.27Z" fill="#fff"/>
      <path id="Trazado_101725" data-name="Trazado 101725" d="M505.7,186.665l.169,2a5.111,5.111,0,0,1,1.72-1.668,4.462,4.462,0,0,1,2.288-.595,4.21,4.21,0,0,1,3.31,1.332,6.15,6.15,0,0,1,1.19,4.177v8.741h-3.788v-8.748a2.844,2.844,0,0,0-.569-2,2.291,2.291,0,0,0-1.72-.59,2.918,2.918,0,0,0-1.345.3,2.776,2.776,0,0,0-1,.862v10.174h-3.775V186.665H505.7Z" fill="#fff"/>
      <path id="Trazado_101726" data-name="Trazado 101726" d="M523.07,198.018a2.235,2.235,0,0,0,1.616-.585,2.065,2.065,0,0,0,.607-1.561h3.427l.039.077a4.357,4.357,0,0,1-1.6,3.55,6.733,6.733,0,0,1-8.915-.55,7.534,7.534,0,0,1-1.694-5.082v-.388a7.589,7.589,0,0,1,1.688-5.082,5.965,5.965,0,0,1,4.816-1.991,5.875,5.875,0,0,1,4.171,1.475,4.9,4.9,0,0,1,1.532,3.879l-.026.077h-3.44a2.733,2.733,0,0,0-.595-1.8,2.018,2.018,0,0,0-1.643-.718,2.193,2.193,0,0,0-2.114,1.162,6.4,6.4,0,0,0-.614,3v.388a6.371,6.371,0,0,0,.614,3.015A2.213,2.213,0,0,0,523.07,198.018Z" fill="#fff"/>
      <path id="Trazado_101727" data-name="Trazado 101727" d="M530.324,193.531a7.507,7.507,0,0,1,1.746-5.127,6.083,6.083,0,0,1,4.836-2,6.152,6.152,0,0,1,4.862,1.991,7.472,7.472,0,0,1,1.758,5.134v.271a7.481,7.481,0,0,1-1.752,5.141,6.917,6.917,0,0,1-9.7,0,7.481,7.481,0,0,1-1.752-5.141v-.271Zm3.763.265a6.072,6.072,0,0,0,.673,3.067,2.586,2.586,0,0,0,4.313-.007,6.035,6.035,0,0,0,.679-3.061v-.27a5.968,5.968,0,0,0-.685-3.034,2.32,2.32,0,0,0-2.159-1.176,2.29,2.29,0,0,0-2.14,1.182,6.019,6.019,0,0,0-.68,3.028v.27Z" fill="#fff"/>
    </g>
    <path id="Trazado_101728" data-name="Trazado 101728" d="M675.94,270.868H336.06v29.664H675.941c3.526,0,6.383-1.29,6.383-2.882v-23.9C682.324,272.159,679.466,270.868,675.94,270.868Z" fill="#86bec4"/>
    <g id="Grupo_53902" data-name="Grupo 53902">
      <path id="Trazado_101729" data-name="Trazado 101729" d="M395.583,274.613l4.8,13.875h.078l4.836-13.875h4.94V293.44h-3.775v-5.612l.361-8.315-.077-.013L401.7,293.44h-2.534l-5.018-13.888-.078.013.362,8.263v5.612h-3.775V274.613Z" fill="#fff"/>
      <path id="Trazado_101730" data-name="Trazado 101730" d="M417.423,276.1h-3.775v-2.832h3.775Zm0,17.34h-3.775V279.449h3.775Z" fill="#fff"/>
      <path id="Trazado_101731" data-name="Trazado 101731" d="M426.721,293.711a6.3,6.3,0,0,1-4.837-1.94,6.935,6.935,0,0,1-1.81-4.927v-.518a7.65,7.65,0,0,1,1.713-5.133,6.387,6.387,0,0,1,8.993-.3,6.568,6.568,0,0,1,1.565,4.616v2.056h-8.354l-.026.078a3.632,3.632,0,0,0,.925,2.267,2.89,2.89,0,0,0,2.23.889,7.271,7.271,0,0,0,2.082-.252,9.611,9.611,0,0,0,1.81-.8l1.022,2.333a6.976,6.976,0,0,1-2.237,1.163A9.674,9.674,0,0,1,426.721,293.711Zm-.337-11.612a1.967,1.967,0,0,0-1.655.8,4.175,4.175,0,0,0-.75,2.108l.039.065h4.63v-.336a3.031,3.031,0,0,0-.562-1.921A2.028,2.028,0,0,0,426.384,282.1Z" fill="#fff"/>
      <path id="Trazado_101732" data-name="Trazado 101732" d="M438.048,279.449l.155,1.849a4.7,4.7,0,0,1,1.688-1.558,4.856,4.856,0,0,1,2.348-.55,4.271,4.271,0,0,1,2.3.595,3.67,3.67,0,0,1,1.449,1.8,4.851,4.851,0,0,1,1.681-1.759,4.565,4.565,0,0,1,2.431-.634,4.036,4.036,0,0,1,3.266,1.429,6.675,6.675,0,0,1,1.2,4.352v8.47h-3.775v-8.5a3.555,3.555,0,0,0-.518-2.217,1.887,1.887,0,0,0-1.538-.622,2.635,2.635,0,0,0-1.391.356,2.6,2.6,0,0,0-.937.992c0,.164,0,.3.013.421s.014.235.014.356v9.215h-3.763v-8.5a3.565,3.565,0,0,0-.518-2.2,1.877,1.877,0,0,0-1.552-.642,2.927,2.927,0,0,0-1.339.292,2.572,2.572,0,0,0-.95.823V293.44h-3.763V279.449h3.5Z" fill="#fff"/>
      <path id="Trazado_101733" data-name="Trazado 101733" d="M470.077,286.833a8.179,8.179,0,0,1-1.4,5,4.722,4.722,0,0,1-4.034,1.875,4.275,4.275,0,0,1-2.127-.511,4.4,4.4,0,0,1-1.545-1.493l-.285,1.732h-3.232V273.268h3.763v7.668a4.277,4.277,0,0,1,1.455-1.293,4.064,4.064,0,0,1,1.946-.453,4.635,4.635,0,0,1,4.06,2.011,9.228,9.228,0,0,1,1.4,5.36Zm-3.762-.272a7.369,7.369,0,0,0-.6-3.258,2.11,2.11,0,0,0-2.05-1.2,2.805,2.805,0,0,0-1.487.371,2.567,2.567,0,0,0-.957,1.06v5.957a2.4,2.4,0,0,0,.964.976,3.082,3.082,0,0,0,1.506.339,2.142,2.142,0,0,0,2.043-1.034,6.045,6.045,0,0,0,.582-2.934v-.273Z" fill="#fff"/>
      <path id="Trazado_101734" data-name="Trazado 101734" d="M479.763,282.7l-1.384-.039A2.515,2.515,0,0,0,477,283a2.213,2.213,0,0,0-.828.983v9.452h-3.763V279.449h3.5l.169,2.069a4.405,4.405,0,0,1,1.273-1.714,2.841,2.841,0,0,1,1.8-.614,2.9,2.9,0,0,1,.523.045c.159.031.321.067.485.11Z" fill="#fff"/>
      <path id="Trazado_101735" data-name="Trazado 101735" d="M481.1,286.315a7.508,7.508,0,0,1,1.746-5.127,6.083,6.083,0,0,1,4.836-2,6.152,6.152,0,0,1,4.862,1.991,7.472,7.472,0,0,1,1.758,5.134v.272a7.481,7.481,0,0,1-1.752,5.141,6.917,6.917,0,0,1-9.7,0,7.482,7.482,0,0,1-1.752-5.141v-.272Zm3.762.265a6.072,6.072,0,0,0,.673,3.067,2.586,2.586,0,0,0,4.313-.007,6.035,6.035,0,0,0,.679-3.06v-.271a5.968,5.968,0,0,0-.685-3.034,2.32,2.32,0,0,0-2.159-1.176,2.29,2.29,0,0,0-2.14,1.182,6.019,6.019,0,0,0-.68,3.028v.271Z" fill="#fff"/>
      <path id="Trazado_101736" data-name="Trazado 101736" d="M504.19,289.586a1.318,1.318,0,0,0-.6-1.073,6.112,6.112,0,0,0-2.23-.8,8.982,8.982,0,0,1-3.743-1.493,3.243,3.243,0,0,1-1.261-2.7,3.853,3.853,0,0,1,1.52-3.071,6.165,6.165,0,0,1,4.066-1.261,6.671,6.671,0,0,1,4.261,1.255,3.7,3.7,0,0,1,1.52,3.168l-.025.077h-3.647a1.842,1.842,0,0,0-.536-1.37,2.575,2.575,0,0,0-3.013-.085,1.41,1.41,0,0,0-.524,1.119,1.274,1.274,0,0,0,.55,1.06,6.009,6.009,0,0,0,2.23.736,9.048,9.048,0,0,1,3.841,1.52,3.341,3.341,0,0,1,1.254,2.761,3.674,3.674,0,0,1-1.616,3.084,7,7,0,0,1-4.267,1.2,6.482,6.482,0,0,1-4.416-1.416A3.958,3.958,0,0,1,496,289.068l.026-.077h3.452a1.962,1.962,0,0,0,.737,1.629,3.039,3.039,0,0,0,1.823.5,2.618,2.618,0,0,0,1.6-.414A1.332,1.332,0,0,0,504.19,289.586Z" fill="#fff"/>
      <path id="Trazado_101737" data-name="Trazado 101737" d="M524.44,289.586a1.318,1.318,0,0,0-.6-1.073,6.112,6.112,0,0,0-2.231-.8,8.983,8.983,0,0,1-3.743-1.493,3.243,3.243,0,0,1-1.261-2.7,3.853,3.853,0,0,1,1.519-3.071,6.165,6.165,0,0,1,4.066-1.261,6.671,6.671,0,0,1,4.261,1.255,3.7,3.7,0,0,1,1.519,3.168l-.025.077H524.3a1.842,1.842,0,0,0-.536-1.37,2.575,2.575,0,0,0-3.013-.085,1.41,1.41,0,0,0-.524,1.119,1.274,1.274,0,0,0,.55,1.06,6.009,6.009,0,0,0,2.231.736,9.048,9.048,0,0,1,3.841,1.52,3.341,3.341,0,0,1,1.254,2.761,3.674,3.674,0,0,1-1.616,3.084,7,7,0,0,1-4.267,1.2,6.482,6.482,0,0,1-4.416-1.416,3.958,3.958,0,0,1-1.546-3.227l.026-.077h3.452a1.962,1.962,0,0,0,.737,1.629,3.038,3.038,0,0,0,1.823.5,2.618,2.618,0,0,0,1.6-.414A1.332,1.332,0,0,0,524.44,289.586Z" fill="#fff"/>
      <path id="Trazado_101738" data-name="Trazado 101738" d="M539.076,291.422a4.694,4.694,0,0,1-1.642,1.694,4.844,4.844,0,0,1-5.748-.821,6.53,6.53,0,0,1-1.248-4.4v-8.444H534.2v8.489a3.631,3.631,0,0,0,.517,2.2,1.812,1.812,0,0,0,1.526.668,3.762,3.762,0,0,0,1.552-.292,2.614,2.614,0,0,0,1.06-.861v-10.2h3.776V293.44h-3.22Z" fill="#fff"/>
      <path id="Trazado_101739" data-name="Trazado 101739" d="M558.1,286.833a8.035,8.035,0,0,1-1.435,4.991,4.749,4.749,0,0,1-4.009,1.888,4.483,4.483,0,0,1-1.953-.407,4.009,4.009,0,0,1-1.461-1.2v6.711h-3.763v-19.37h3.4l.221,1.655a4.472,4.472,0,0,1,1.493-1.416,4.039,4.039,0,0,1,2.036-.5,4.657,4.657,0,0,1,4.035,2.03,9.06,9.06,0,0,1,1.435,5.341v.271Zm-3.776-.291a6.79,6.79,0,0,0-.659-3.212,2.151,2.151,0,0,0-2.018-1.23,2.847,2.847,0,0,0-1.455.351,2.5,2.5,0,0,0-.95,1v6.138a2.327,2.327,0,0,0,.95.907,3.2,3.2,0,0,0,1.481.31,2.172,2.172,0,0,0,2.011-1.075,5.682,5.682,0,0,0,.64-2.914v-.271Z" fill="#fff"/>
      <path id="Trazado_101740" data-name="Trazado 101740" d="M566.62,293.711a6.3,6.3,0,0,1-4.837-1.94,6.935,6.935,0,0,1-1.81-4.927v-.518a7.65,7.65,0,0,1,1.713-5.133,6.387,6.387,0,0,1,8.993-.3,6.569,6.569,0,0,1,1.565,4.616v2.056h-8.354l-.026.078a3.631,3.631,0,0,0,.925,2.267,2.89,2.89,0,0,0,2.231.889,7.271,7.271,0,0,0,2.082-.252,9.611,9.611,0,0,0,1.81-.8l1.021,2.333a6.976,6.976,0,0,1-2.237,1.163A9.673,9.673,0,0,1,566.62,293.711Zm-.337-11.612a1.967,1.967,0,0,0-1.655.8,4.176,4.176,0,0,0-.75,2.108l.039.065h4.63v-.336a3.031,3.031,0,0,0-.562-1.921A2.029,2.029,0,0,0,566.283,282.1Z" fill="#fff"/>
      <path id="Trazado_101741" data-name="Trazado 101741" d="M581.8,282.7l-1.384-.039a2.515,2.515,0,0,0-1.383.349,2.214,2.214,0,0,0-.828.983v9.452h-3.763V279.449h3.5l.169,2.069a4.405,4.405,0,0,1,1.273-1.714,2.841,2.841,0,0,1,1.8-.614,2.9,2.9,0,0,1,.523.045c.159.031.321.067.485.11Z" fill="#fff"/>
      <path id="Trazado_101742" data-name="Trazado 101742" d="M587.684,276.1h-3.775v-2.832h3.775Zm0,17.34h-3.775V279.449h3.775Z" fill="#fff"/>
      <path id="Trazado_101743" data-name="Trazado 101743" d="M590.205,286.315a7.508,7.508,0,0,1,1.746-5.127,6.083,6.083,0,0,1,4.836-2,6.152,6.152,0,0,1,4.862,1.991,7.472,7.472,0,0,1,1.758,5.134v.272a7.481,7.481,0,0,1-1.752,5.141,6.917,6.917,0,0,1-9.7,0,7.481,7.481,0,0,1-1.752-5.141v-.272Zm3.763.265a6.072,6.072,0,0,0,.673,3.067,2.586,2.586,0,0,0,4.313-.007,6.035,6.035,0,0,0,.679-3.06v-.271a5.968,5.968,0,0,0-.685-3.034,2.32,2.32,0,0,0-2.159-1.176,2.29,2.29,0,0,0-2.14,1.182,6.019,6.019,0,0,0-.68,3.028v.271Z" fill="#fff"/>
      <path id="Trazado_101744" data-name="Trazado 101744" d="M613.093,282.7l-1.384-.039a2.515,2.515,0,0,0-1.383.349,2.214,2.214,0,0,0-.828.983v9.452h-3.763V279.449h3.5l.169,2.069a4.405,4.405,0,0,1,1.273-1.714,2.841,2.841,0,0,1,1.8-.614,2.9,2.9,0,0,1,.523.045c.159.031.321.067.485.11Z" fill="#fff"/>
      <path id="Trazado_101745" data-name="Trazado 101745" d="M621.2,293.711a6.3,6.3,0,0,1-4.837-1.94,6.935,6.935,0,0,1-1.81-4.927v-.518a7.65,7.65,0,0,1,1.713-5.133,6.387,6.387,0,0,1,8.993-.3,6.569,6.569,0,0,1,1.565,4.616v2.056h-8.354l-.026.078a3.631,3.631,0,0,0,.925,2.267,2.89,2.89,0,0,0,2.231.889,7.271,7.271,0,0,0,2.082-.252,9.611,9.611,0,0,0,1.81-.8l1.021,2.333a6.976,6.976,0,0,1-2.237,1.163A9.669,9.669,0,0,1,621.2,293.711Zm-.337-11.612a1.967,1.967,0,0,0-1.655.8,4.176,4.176,0,0,0-.75,2.108l.039.065h4.63v-.336a3.031,3.031,0,0,0-.562-1.921A2.029,2.029,0,0,0,620.864,282.1Z" fill="#fff"/>
      <path id="Trazado_101746" data-name="Trazado 101746" d="M636.589,289.586a1.318,1.318,0,0,0-.6-1.073,6.112,6.112,0,0,0-2.231-.8,8.983,8.983,0,0,1-3.743-1.493,3.243,3.243,0,0,1-1.261-2.7,3.853,3.853,0,0,1,1.519-3.071,6.165,6.165,0,0,1,4.066-1.261,6.671,6.671,0,0,1,4.261,1.255,3.7,3.7,0,0,1,1.519,3.168l-.025.077h-3.648a1.842,1.842,0,0,0-.536-1.37,2.575,2.575,0,0,0-3.013-.085,1.41,1.41,0,0,0-.524,1.119,1.274,1.274,0,0,0,.55,1.06,6.009,6.009,0,0,0,2.231.736,9.048,9.048,0,0,1,3.841,1.52,3.341,3.341,0,0,1,1.254,2.761,3.674,3.674,0,0,1-1.616,3.084,7,7,0,0,1-4.267,1.2,6.482,6.482,0,0,1-4.416-1.416,3.958,3.958,0,0,1-1.546-3.227l.026-.077h3.452a1.962,1.962,0,0,0,.737,1.629,3.038,3.038,0,0,0,1.823.5,2.618,2.618,0,0,0,1.6-.414A1.332,1.332,0,0,0,636.589,289.586Z" fill="#fff"/>
    </g>
    <g id="Grupo_53903" data-name="Grupo 53903">
      <path id="Trazado_101747" data-name="Trazado 101747" d="M395.583,499.066l4.8,13.875h.078l4.836-13.875h4.94v18.828h-3.775v-5.613l.361-8.315-.077-.012L401.7,517.894h-2.534l-5.018-13.889-.078.014.362,8.262v5.613h-3.775V499.066Z" fill="#fff"/>
      <path id="Trazado_101748" data-name="Trazado 101748" d="M417.423,500.554h-3.775v-2.832h3.775Zm0,17.34h-3.775V503.9h3.775Z" fill="#fff"/>
      <path id="Trazado_101749" data-name="Trazado 101749" d="M426.721,518.166a6.3,6.3,0,0,1-4.837-1.94,6.935,6.935,0,0,1-1.81-4.928v-.518a7.654,7.654,0,0,1,1.713-5.133,6.388,6.388,0,0,1,8.993-.3,6.564,6.564,0,0,1,1.565,4.615v2.057h-8.354l-.026.078a3.626,3.626,0,0,0,.925,2.266,2.89,2.89,0,0,0,2.23.889A7.27,7.27,0,0,0,429.2,515a9.611,9.611,0,0,0,1.81-.795l1.022,2.332A6.977,6.977,0,0,1,429.8,517.7,9.731,9.731,0,0,1,426.721,518.166Zm-.337-11.614a1.966,1.966,0,0,0-1.655.8,4.171,4.171,0,0,0-.75,2.107l.039.065h4.63v-.336a3.03,3.03,0,0,0-.562-1.92A2.029,2.029,0,0,0,426.384,506.552Z" fill="#fff"/>
      <path id="Trazado_101750" data-name="Trazado 101750" d="M438.048,503.9l.155,1.85a4.712,4.712,0,0,1,1.688-1.559,4.867,4.867,0,0,1,2.348-.549,4.27,4.27,0,0,1,2.3.594,3.669,3.669,0,0,1,1.449,1.8,4.862,4.862,0,0,1,1.681-1.76,4.565,4.565,0,0,1,2.431-.633,4.038,4.038,0,0,1,3.266,1.428,6.677,6.677,0,0,1,1.2,4.352v8.471h-3.775v-8.5a3.554,3.554,0,0,0-.518-2.217,1.888,1.888,0,0,0-1.538-.623,2.626,2.626,0,0,0-1.391.357,2.6,2.6,0,0,0-.937.992c0,.164,0,.3.013.42s.014.236.014.357v9.215h-3.763v-8.5a3.565,3.565,0,0,0-.518-2.2,1.875,1.875,0,0,0-1.552-.643,2.914,2.914,0,0,0-1.339.293,2.57,2.57,0,0,0-.95.822v10.227h-3.763V503.9Z" fill="#fff"/>
      <path id="Trazado_101751" data-name="Trazado 101751" d="M470.077,511.287a8.179,8.179,0,0,1-1.4,5,4.722,4.722,0,0,1-4.034,1.875,4.265,4.265,0,0,1-2.127-.512,4.394,4.394,0,0,1-1.545-1.492l-.285,1.732h-3.232V497.723h3.763v7.668a4.267,4.267,0,0,1,1.455-1.293,4.053,4.053,0,0,1,1.946-.453,4.634,4.634,0,0,1,4.06,2.01,9.231,9.231,0,0,1,1.4,5.361Zm-3.762-.272a7.364,7.364,0,0,0-.6-3.258,2.11,2.11,0,0,0-2.05-1.205,2.815,2.815,0,0,0-1.487.371,2.578,2.578,0,0,0-.957,1.06v5.957a2.4,2.4,0,0,0,.964.977,3.093,3.093,0,0,0,1.506.338,2.142,2.142,0,0,0,2.043-1.033,6.048,6.048,0,0,0,.582-2.934v-.273Z" fill="#fff"/>
      <path id="Trazado_101752" data-name="Trazado 101752" d="M479.763,507.148l-1.384-.039a2.515,2.515,0,0,0-1.383.35,2.21,2.21,0,0,0-.828.982v9.453h-3.763V503.9h3.5l.169,2.07a4.408,4.408,0,0,1,1.273-1.715,2.846,2.846,0,0,1,1.8-.613,2.9,2.9,0,0,1,.523.045c.159.031.321.066.485.109Z" fill="#fff"/>
      <path id="Trazado_101753" data-name="Trazado 101753" d="M481.1,510.769a7.508,7.508,0,0,1,1.746-5.127,6.083,6.083,0,0,1,4.836-2,6.154,6.154,0,0,1,4.862,1.99,7.473,7.473,0,0,1,1.758,5.135v.272a7.483,7.483,0,0,1-1.752,5.141,6.917,6.917,0,0,1-9.7,0,7.483,7.483,0,0,1-1.752-5.141v-.272Zm3.762.264a6.076,6.076,0,0,0,.673,3.068,2.322,2.322,0,0,0,2.172,1.154,2.3,2.3,0,0,0,2.141-1.162,6.033,6.033,0,0,0,.679-3.06v-.27a5.969,5.969,0,0,0-.685-3.035,2.32,2.32,0,0,0-2.159-1.176,2.29,2.29,0,0,0-2.14,1.182,6.023,6.023,0,0,0-.68,3.029v.27Z" fill="#fff"/>
      <path id="Trazado_101754" data-name="Trazado 101754" d="M504.19,514.041a1.321,1.321,0,0,0-.6-1.074,6.131,6.131,0,0,0-2.23-.8,8.97,8.97,0,0,1-3.743-1.494,3.242,3.242,0,0,1-1.261-2.7,3.857,3.857,0,0,1,1.52-3.072,6.17,6.17,0,0,1,4.066-1.26A6.677,6.677,0,0,1,506.2,504.9a3.706,3.706,0,0,1,1.52,3.168l-.025.078h-3.647a1.845,1.845,0,0,0-.536-1.371,2.577,2.577,0,0,0-3.013-.084,1.407,1.407,0,0,0-.524,1.119,1.277,1.277,0,0,0,.55,1.06,6.009,6.009,0,0,0,2.23.736,9.048,9.048,0,0,1,3.841,1.52,3.339,3.339,0,0,1,1.254,2.76,3.673,3.673,0,0,1-1.616,3.084,6.993,6.993,0,0,1-4.267,1.2,6.487,6.487,0,0,1-4.416-1.416A3.958,3.958,0,0,1,496,513.523l.026-.078h3.452a1.962,1.962,0,0,0,.737,1.629,3.032,3.032,0,0,0,1.823.506,2.625,2.625,0,0,0,1.6-.414A1.334,1.334,0,0,0,504.19,514.041Z" fill="#fff"/>
      <path id="Trazado_101755" data-name="Trazado 101755" d="M520.845,500.554H517.07v-2.832h3.775Zm0,17.34H517.07V503.9h3.775Z" fill="#fff"/>
      <path id="Trazado_101756" data-name="Trazado 101756" d="M527.4,503.9l.169,2a5.111,5.111,0,0,1,1.72-1.668,4.461,4.461,0,0,1,2.288-.594,4.207,4.207,0,0,1,3.31,1.332,6.145,6.145,0,0,1,1.19,4.176v8.742h-3.788v-8.748a2.847,2.847,0,0,0-.569-2,2.291,2.291,0,0,0-1.72-.59,2.931,2.931,0,0,0-1.345.3,2.779,2.779,0,0,0-1,.863v10.174h-3.775V503.9Z" fill="#fff"/>
      <path id="Trazado_101757" data-name="Trazado 101757" d="M539.878,517.894V506.552H537.8V503.9h2.081v-1.551a4.727,4.727,0,0,1,1.358-3.627,5.359,5.359,0,0,1,3.815-1.273,6.985,6.985,0,0,1,.977.07c.331.047.7.115,1.092.2l-.323,2.8c-.206-.033-.407-.065-.6-.09a5.293,5.293,0,0,0-.679-.039,1.815,1.815,0,0,0-1.391.5,2.045,2.045,0,0,0-.472,1.449V503.9h2.78v2.65h-2.78v11.342Z" fill="#fff"/>
      <path id="Trazado_101758" data-name="Trazado 101758" d="M554.556,518.166a6.3,6.3,0,0,1-4.837-1.94,6.935,6.935,0,0,1-1.81-4.928v-.518a7.654,7.654,0,0,1,1.713-5.133,6.388,6.388,0,0,1,8.993-.3,6.564,6.564,0,0,1,1.565,4.615v2.057h-8.354l-.026.078a3.626,3.626,0,0,0,.925,2.266,2.89,2.89,0,0,0,2.231.889,7.269,7.269,0,0,0,2.082-.252,9.611,9.611,0,0,0,1.81-.795l1.021,2.332a6.977,6.977,0,0,1-2.237,1.164A9.73,9.73,0,0,1,554.556,518.166Zm-.337-11.614a1.966,1.966,0,0,0-1.655.8,4.172,4.172,0,0,0-.75,2.107l.039.065h4.63v-.336a3.03,3.03,0,0,0-.562-1.92A2.03,2.03,0,0,0,554.219,506.552Z" fill="#fff"/>
      <path id="Trazado_101759" data-name="Trazado 101759" d="M569.735,507.148l-1.384-.039a2.515,2.515,0,0,0-1.383.35,2.211,2.211,0,0,0-.828.982v9.453h-3.763V503.9h3.5l.169,2.07a4.408,4.408,0,0,1,1.273-1.715,2.846,2.846,0,0,1,1.8-.613,2.9,2.9,0,0,1,.523.045c.159.031.321.066.485.109Z" fill="#fff"/>
      <path id="Trazado_101760" data-name="Trazado 101760" d="M575.619,500.554h-3.775v-2.832h3.775Zm0,17.34h-3.775V503.9h3.775Z" fill="#fff"/>
      <path id="Trazado_101761" data-name="Trazado 101761" d="M578.141,510.769a7.508,7.508,0,0,1,1.746-5.127,6.083,6.083,0,0,1,4.836-2,6.154,6.154,0,0,1,4.862,1.99,7.473,7.473,0,0,1,1.758,5.135v.272a7.483,7.483,0,0,1-1.752,5.141,6.917,6.917,0,0,1-9.7,0,7.483,7.483,0,0,1-1.752-5.141v-.272Zm3.762.264a6.076,6.076,0,0,0,.673,3.068,2.586,2.586,0,0,0,4.313-.008,6.033,6.033,0,0,0,.679-3.06v-.27a5.969,5.969,0,0,0-.685-3.035,2.32,2.32,0,0,0-2.159-1.176,2.29,2.29,0,0,0-2.14,1.182,6.023,6.023,0,0,0-.68,3.029v.27Z" fill="#fff"/>
      <path id="Trazado_101762" data-name="Trazado 101762" d="M601.028,507.148l-1.384-.039a2.515,2.515,0,0,0-1.383.35,2.211,2.211,0,0,0-.828.982v9.453h-3.763V503.9h3.5l.169,2.07a4.408,4.408,0,0,1,1.273-1.715,2.846,2.846,0,0,1,1.8-.613,2.9,2.9,0,0,1,.523.045c.159.031.321.066.485.109Z" fill="#fff"/>
      <path id="Trazado_101763" data-name="Trazado 101763" d="M609.137,518.166a6.3,6.3,0,0,1-4.837-1.94,6.935,6.935,0,0,1-1.81-4.928v-.518a7.654,7.654,0,0,1,1.713-5.133,6.388,6.388,0,0,1,8.993-.3,6.564,6.564,0,0,1,1.565,4.615v2.057h-8.354l-.026.078a3.626,3.626,0,0,0,.925,2.266,2.89,2.89,0,0,0,2.231.889,7.269,7.269,0,0,0,2.082-.252,9.611,9.611,0,0,0,1.81-.795l1.021,2.332a6.977,6.977,0,0,1-2.237,1.164A9.73,9.73,0,0,1,609.137,518.166Zm-.337-11.614a1.966,1.966,0,0,0-1.655.8,4.172,4.172,0,0,0-.75,2.107l.039.065h4.63v-.336a3.03,3.03,0,0,0-.562-1.92A2.029,2.029,0,0,0,608.8,506.552Z" fill="#fff"/>
      <path id="Trazado_101764" data-name="Trazado 101764" d="M624.524,514.041a1.321,1.321,0,0,0-.6-1.074,6.131,6.131,0,0,0-2.231-.8,8.97,8.97,0,0,1-3.743-1.494,3.242,3.242,0,0,1-1.261-2.7,3.857,3.857,0,0,1,1.519-3.072,6.17,6.17,0,0,1,4.066-1.26,6.677,6.677,0,0,1,4.261,1.254,3.706,3.706,0,0,1,1.519,3.168l-.025.078h-3.648a1.845,1.845,0,0,0-.536-1.371,2.577,2.577,0,0,0-3.013-.084,1.407,1.407,0,0,0-.524,1.119,1.277,1.277,0,0,0,.55,1.06,6.009,6.009,0,0,0,2.231.736,9.048,9.048,0,0,1,3.841,1.52,3.339,3.339,0,0,1,1.254,2.76,3.673,3.673,0,0,1-1.616,3.084,6.993,6.993,0,0,1-4.267,1.2,6.487,6.487,0,0,1-4.416-1.416,3.958,3.958,0,0,1-1.546-3.227l.026-.078h3.452a1.962,1.962,0,0,0,.737,1.629,3.032,3.032,0,0,0,1.823.506,2.625,2.625,0,0,0,1.6-.414A1.334,1.334,0,0,0,624.524,514.041Z" fill="#fff"/>
    </g>
    <g id="Grupo_53904" data-name="Grupo 53904">
      <path id="Trazado_101765" data-name="Trazado 101765" d="M439.061,376h-7.8v5.366h9.116v2.909H427.488V365.444h12.866v2.909h-9.091v4.732h7.8V376Z" fill="#8c757e"/>
      <path id="Trazado_101766" data-name="Trazado 101766" d="M447.647,374.728h.078l2.147-4.448h4.267l-4.215,6.918,4.357,7.073h-4.254l-2.289-4.643-2.289,4.643h-4.267l4.357-7.073-4.228-6.918h4.241Z" fill="#8c757e"/>
      <path id="Trazado_101767" data-name="Trazado 101767" d="M460.4,366.853v3.427h2.353v2.65H460.4v7.125a1.645,1.645,0,0,0,.336,1.164,1.2,1.2,0,0,0,.905.35,3.335,3.335,0,0,0,.511-.033,4.241,4.241,0,0,0,.5-.109l.323,2.728a7.61,7.61,0,0,1-1.112.291,6.735,6.735,0,0,1-1.177.1,4.025,4.025,0,0,1-3.007-1.073,4.707,4.707,0,0,1-1.054-3.4V372.93h-2.043v-2.65h2.043v-3.427H460.4Z" fill="#8c757e"/>
      <path id="Trazado_101768" data-name="Trazado 101768" d="M472.514,373.526l-1.384-.039a2.515,2.515,0,0,0-1.383.349,2.213,2.213,0,0,0-.828.983v9.452h-3.763V370.28h3.5l.169,2.069a4.405,4.405,0,0,1,1.273-1.714,2.841,2.841,0,0,1,1.8-.614,2.9,2.9,0,0,1,.523.045c.159.031.321.067.485.11Z" fill="#8c757e"/>
      <path id="Trazado_101769" data-name="Trazado 101769" d="M480.621,384.543a6.3,6.3,0,0,1-4.837-1.94,6.935,6.935,0,0,1-1.81-4.927v-.518a7.65,7.65,0,0,1,1.713-5.133,6.387,6.387,0,0,1,8.993-.3,6.568,6.568,0,0,1,1.565,4.616V378.4h-8.353l-.026.078a3.632,3.632,0,0,0,.925,2.267,2.89,2.89,0,0,0,2.23.889,7.271,7.271,0,0,0,2.082-.252,9.611,9.611,0,0,0,1.81-.8l1.022,2.333a6.976,6.976,0,0,1-2.237,1.163A9.7,9.7,0,0,1,480.621,384.543Zm-.337-11.613a1.967,1.967,0,0,0-1.655.8,4.175,4.175,0,0,0-.75,2.108l.039.065h4.63v-.336a3.031,3.031,0,0,0-.562-1.921A2.028,2.028,0,0,0,480.284,372.93Z" fill="#8c757e"/>
      <path id="Trazado_101770" data-name="Trazado 101770" d="M491.948,370.28l.155,1.849a4.7,4.7,0,0,1,1.688-1.558,4.856,4.856,0,0,1,2.348-.55,4.271,4.271,0,0,1,2.3.595,3.67,3.67,0,0,1,1.449,1.8,4.851,4.851,0,0,1,1.681-1.759,4.565,4.565,0,0,1,2.431-.634,4.036,4.036,0,0,1,3.266,1.429,6.675,6.675,0,0,1,1.2,4.352v8.47h-3.775v-8.5a3.555,3.555,0,0,0-.518-2.217,1.887,1.887,0,0,0-1.538-.622,2.635,2.635,0,0,0-1.391.356,2.6,2.6,0,0,0-.937.992c0,.164,0,.3.013.421s.014.235.014.356v9.215h-3.763v-8.5a3.565,3.565,0,0,0-.518-2.2,1.877,1.877,0,0,0-1.552-.642,2.927,2.927,0,0,0-1.339.292,2.572,2.572,0,0,0-.95.823v10.226h-3.763V370.28h3.5Z" fill="#8c757e"/>
      <path id="Trazado_101771" data-name="Trazado 101771" d="M515.327,366.931h-3.775V364.1h3.775Zm0,17.34h-3.775V370.28h3.775Z" fill="#8c757e"/>
      <path id="Trazado_101772" data-name="Trazado 101772" d="M517.849,377.392a9.1,9.1,0,0,1,1.429-5.341,4.641,4.641,0,0,1,4.028-2.03,3.918,3.918,0,0,1,1.888.453,4.541,4.541,0,0,1,1.475,1.293V364.1h3.788v20.172h-3.245l-.31-1.707a4.64,4.64,0,0,1-1.559,1.475,4.142,4.142,0,0,1-2.062.5,4.732,4.732,0,0,1-4-1.888,8.066,8.066,0,0,1-1.429-4.991Zm3.762.274a5.758,5.758,0,0,0,.621,2.907,2.158,2.158,0,0,0,2.018,1.06,2.917,2.917,0,0,0,1.422-.332,2.635,2.635,0,0,0,1-.969v-6a2.92,2.92,0,0,0-.989-1.034,2.622,2.622,0,0,0-1.4-.371,2.129,2.129,0,0,0-2.023,1.236,7.02,7.02,0,0,0-.641,3.226Z" fill="#8c757e"/>
      <path id="Trazado_101773" data-name="Trazado 101773" d="M541.59,384.271a7.888,7.888,0,0,1-.356-1.009,6.933,6.933,0,0,1-.213-1.086,5.225,5.225,0,0,1-1.532,1.694,3.835,3.835,0,0,1-2.269.672,4.726,4.726,0,0,1-3.389-1.132,4.053,4.053,0,0,1-1.19-3.084,3.692,3.692,0,0,1,1.584-3.187,7.917,7.917,0,0,1,4.623-1.131h2.107V374.9a2.178,2.178,0,0,0-.53-1.565,2.477,2.477,0,0,0-2.981-.11,1.575,1.575,0,0,0-.5,1.235l-3.646-.013-.014-.078a3.552,3.552,0,0,1,1.539-3.058,6.7,6.7,0,0,1,4.28-1.287,6.251,6.251,0,0,1,4.073,1.273,4.411,4.411,0,0,1,1.565,3.628V380.7a10.993,10.993,0,0,0,.148,1.85,9.3,9.3,0,0,0,.473,1.72H541.59Zm-3.452-2.521a3.246,3.246,0,0,0,1.771-.491,2.562,2.562,0,0,0,1.047-1.138v-1.978h-2.107a2.522,2.522,0,0,0-1.823.6,1.951,1.951,0,0,0-.621,1.455,1.452,1.452,0,0,0,.466,1.125A1.8,1.8,0,0,0,538.138,381.75Z" fill="#8c757e"/>
      <path id="Trazado_101774" data-name="Trazado 101774" d="M547.021,377.392a9.1,9.1,0,0,1,1.429-5.341,4.641,4.641,0,0,1,4.028-2.03,3.918,3.918,0,0,1,1.888.453,4.541,4.541,0,0,1,1.475,1.293V364.1h3.788v20.172h-3.245l-.31-1.707a4.64,4.64,0,0,1-1.559,1.475,4.142,4.142,0,0,1-2.062.5,4.732,4.732,0,0,1-4-1.888,8.066,8.066,0,0,1-1.429-4.991Zm3.763.274a5.758,5.758,0,0,0,.621,2.907,2.158,2.158,0,0,0,2.018,1.06,2.917,2.917,0,0,0,1.422-.332,2.635,2.635,0,0,0,1-.969v-6a2.92,2.92,0,0,0-.989-1.034,2.622,2.622,0,0,0-1.4-.371,2.129,2.129,0,0,0-2.023,1.236,7.02,7.02,0,0,0-.641,3.226Z" fill="#8c757e"/>
      <path id="Trazado_101775" data-name="Trazado 101775" d="M568.745,384.543a6.3,6.3,0,0,1-4.837-1.94,6.935,6.935,0,0,1-1.81-4.927v-.518a7.65,7.65,0,0,1,1.713-5.133,6.387,6.387,0,0,1,8.993-.3,6.569,6.569,0,0,1,1.565,4.616V378.4h-8.354l-.026.078a3.631,3.631,0,0,0,.925,2.267,2.89,2.89,0,0,0,2.231.889,7.271,7.271,0,0,0,2.082-.252,9.611,9.611,0,0,0,1.81-.8l1.021,2.333a6.976,6.976,0,0,1-2.237,1.163A9.694,9.694,0,0,1,568.745,384.543Zm-.337-11.613a1.967,1.967,0,0,0-1.655.8,4.176,4.176,0,0,0-.75,2.108l.039.065h4.63v-.336a3.031,3.031,0,0,0-.562-1.921A2.029,2.029,0,0,0,568.408,372.93Z" fill="#8c757e"/>
      <path id="Trazado_101776" data-name="Trazado 101776" d="M584.133,380.418a1.318,1.318,0,0,0-.6-1.073,6.112,6.112,0,0,0-2.231-.8,8.983,8.983,0,0,1-3.743-1.493,3.243,3.243,0,0,1-1.261-2.7,3.853,3.853,0,0,1,1.519-3.071,6.165,6.165,0,0,1,4.066-1.261,6.671,6.671,0,0,1,4.261,1.255,3.7,3.7,0,0,1,1.519,3.168l-.025.077H583.99a1.842,1.842,0,0,0-.536-1.37,2.575,2.575,0,0,0-3.013-.085,1.41,1.41,0,0,0-.524,1.119,1.274,1.274,0,0,0,.55,1.06,6.009,6.009,0,0,0,2.231.736,9.048,9.048,0,0,1,3.841,1.52,3.341,3.341,0,0,1,1.254,2.761,3.674,3.674,0,0,1-1.616,3.084,7,7,0,0,1-4.267,1.2,6.482,6.482,0,0,1-4.416-1.416,3.958,3.958,0,0,1-1.546-3.227l.026-.077h3.452a1.962,1.962,0,0,0,.737,1.629,3.038,3.038,0,0,0,1.823.5,2.618,2.618,0,0,0,1.6-.414A1.335,1.335,0,0,0,584.133,380.418Z" fill="#8c757e"/>
    </g>
    <g id="Grupo_53906" data-name="Grupo 53906">
      <g id="Grupo_53905" data-name="Grupo 53905">
        <path id="Trazado_101777" data-name="Trazado 101777" d="M695.848,105.105c.883,4.835,1.987,9.592,2.565,14.412a15.681,15.681,0,0,1-4.075,12.88c-9.072,9.812-18.286,19.492-27.38,29.283-2.868,3.088-6.079,6.039-8.193,9.61-5.8,9.8-2.211,21.363,8.2,26.005,3.517,1.568,4.393,3.777,4.455,6.908.219,11.118.614,22.243.413,33.356-.146,8.063-1.641,16.113-1.609,24.166.037,9.5,1.015,19.009,1.688,28.506.833,11.745,2.521,23.484,2.49,35.223a159.366,159.366,0,0,0,7.749,50.008,110.688,110.688,0,0,1,5.593,35.071c-.043,9.64,2.981,19.27,4.336,28.947,2.68,19.144,5.329,38.3,7.635,57.487,1.422,11.831,2.076,23.751,3.292,35.609.628,6.129-1.059,11.416-5.384,15.568-8.978,8.617-19.263,14.834-32.044,15.9a16.152,16.152,0,0,0-1.965.276c-2.516.528-4.655,1.6-4.648,4.555a4.547,4.547,0,0,0,4.485,4.737c7.114.5,14.289,1.213,21.375.781,9.779-.6,19.408-1.763,29.274-.058,10.158,1.755,17.653-8.232,12.538-17.136-5.333-9.285-4.989-18.552-3.811-28.43,2.6-21.829,5.091-43.677,7.183-65.56a83.333,83.333,0,0,0-3.406-33.436c-4.091-12.722-3.1-25.249-1.593-38.082,2.737-23.267,5-46.589,7.536-69.88.13-1.192.552-2.789,1.407-3.4,10.228-7.291,11.851-17.493,10.268-28.964-1.446-10.472-5.875-19.724-11.242-28.628-1.367-2.268-2.732-4.547-4.242-6.719-4.547-6.541-6.109-13.194-5.967-21.652.225-13.36,3.487-25.6,7.753-37.8,6.153-17.605,5.418-35.43,2.473-53.383-.77-4.7-2.085-9.3-2.914-13.989a3.8,3.8,0,0,1,1.131-3.151c12.26-8.519,17.141-21.055,18.134-35.108.524-7.411-.755-15.006-1.737-22.45-.845-6.405-2.375-12.724-3.688-19.062a40.469,40.469,0,0,0-9.172-18.689C723.832,16.285,709.681,13.762,695,21.524a106.325,106.325,0,0,1-13.295,6.126c-9.576,3.475-12.479,8.826-9.885,18.8a20.6,20.6,0,0,1,.606,6.575,20.8,20.8,0,0,0,2.128,11.9c.881,1.643.67,4.285.072,6.2-.646,2.065-2.31,3.818-3.557,5.688-2.681,4.017-2.467,5.031,1.52,7.916a2.884,2.884,0,0,1,1.134,1.793c.225,2.444.227,4.907.382,7.359.031.488.259,1.282.576,1.386,3.712,1.213,3.6,3.788,3.3,7.1-.276,3.088,2.6,4.295,5.213,4.207C687.113,106.44,691.006,105.7,695.848,105.105ZM677.922,54.151c-.692-1.115-1.39-2.227-2.075-3.346-5.941-9.7-2.782-18.118,7.819-21.554a64.3,64.3,0,0,0,10.039-4.7c7.016-3.719,14.19-6.916,22.351-4.894,12.861,3.186,20.829,11.822,24.654,24.1,2.067,6.637,2.491,13.771,4.326,20.5,3.971,14.563,3.849,28.81-2.179,42.776a36.545,36.545,0,0,1-11.362,15.058c-2.776,2.109-4.922,2.325-6.523-1.268-1.4-3.133-3.313-6.1-4.259-9.352-1.513-5.2-2.412-10.585-3.632-16.167-2.88,6.326-5.548,12.633-11.86,17.108.1-1.719.166-2.785.3-5l-2.729,7.061c6.606-2.22,9.68-7.394,12.773-11.409,2.971,6.2,5.979,12.432,8.942,18.684a104.736,104.736,0,0,1,4.475,9.951,51.257,51.257,0,0,1,1.8,8.527c2.69,16.041,4.337,32.085-.514,48.042-2.079,6.84-4.262,13.649-6.4,20.472l-.806-.186-2.631-49.492-1.025-.04a53.959,53.959,0,0,0-.677,7.731c.4,7.938,1.372,15.856,1.577,23.8.535,20.737,2.964,41.526-2.435,62.09-4.677,17.813-8.982,35.7-18.341,51.845a28.607,28.607,0,0,0-3.712,16.426,22.613,22.613,0,0,1-.336,7.49,28.454,28.454,0,0,0-.193,16.427c.317,1.082-.68,2.548-1.071,3.837l-2.162-.608c3.5,3.755.2,5.115-1.5,5.564-1.771.468-4.3.616-5.762-2.25-4.575-8.951-4.63-18.162-1.883-27.429,1.943-6.557,5.291-12.723,6.967-19.328,3.221-12.694,6.058-25.511,8.387-38.4,2.266-12.536,6.157-24.788,4.369-38.005-2.324-17.185-3.37-34.541-5.077-51.812-.18-1.824-1.1-3.575-1.848-5.874-.59.921-.84,1.129-.823,1.311,2.035,21.629,4.122,43.253,6.1,64.887a25.848,25.848,0,0,1-.409,7.075c-2,10.534-3.967,21.08-6.3,31.543-3.445,15.448-5.929,31.048-12.4,45.841-4.4,10.06-4.527,21.277,1.565,31.414a7.234,7.234,0,0,0,4.36,3.3c6.3.886,10.733-4.846,9.623-11.556a63.382,63.382,0,0,1-.786-11.348,77.6,77.6,0,0,1,1.129-12.187c.909-5.136,1.3-10.718,3.678-15.171a175.731,175.731,0,0,0,13.867-35.416c2.16-7.689,4.021-15.462,6.069-23.406.581.463.974.64,1.156.943,4.3,7.146,8.7,14.235,12.82,21.484a59.849,59.849,0,0,1,7.42,24.534c1.116,12.446-5.322,22.638-16.2,25.477-1.939.506-3.971.656-5.96.97l.088.97,9.233-.454c0,4.757.468,9.672-.08,14.472-2.449,21.446-5.244,42.852-7.793,64.286-.938,7.89-1.624,15.743.85,23.622,4.041,12.868,6.089,26.152,4.954,39.609-1.57,18.6-3.912,37.143-5.773,55.725-1.369,13.667-5.15,27.31,3.058,40.609,3.474,5.628-.71,12.095-7.2,13.066-2.905.435-6-.5-9.016-.684-4.328-.267-8.674-.714-12.993-.559-8.436.3-16.854,1.2-25.29,1.379-3.5.073-7.2-.707-9.761-4.661,1.639-.554,2.918-1.284,4.246-1.387,12.461-.968,22.71-6.779,31.93-14.668,6-5.131,8.85-11.642,7.971-19.759-1.569-14.483-2.625-29.025-4.368-43.485-2.059-17.085-4.472-34.132-7.015-51.153-1.482-9.922-5.152-19.61-3.906-29.806,1-8.158-.59-15.9-3.111-23.4a195.448,195.448,0,0,1-10.341-69.16,95.362,95.362,0,0,0-1.386-17.808,199.34,199.34,0,0,1-1.849-48.295c1.17-13.808.582-27.768.654-41.661a65.8,65.8,0,0,0-.813-7.649l4.9-1.493a4.843,4.843,0,0,0-2.927-.772c-14.012-.756-21.179-14.29-13.689-26.087a46.924,46.924,0,0,1,6.174-7.207c8.112-8.359,16.19-16.756,24.5-24.918,8.747-8.594,10.394-18.624,6.868-29.946-.613-1.969-1.108-3.975-1.573-5.66l5.369-3.938c-.725.3-1.434.64-2.178.879-4.758,1.524-9.448,3.365-14.308,4.432-4.454.978-6.048-.837-5.777-5.14.076-1.209-.033-3.1-.768-3.575-3.881-2.487-3.789-6.192-3.817-10.054-.011-1.516.783-4.151-2.6-3.483-.068.013-1.193-2.579-.8-3.524a30.141,30.141,0,0,1,3.754-6.017c2.338-3.167,1.985-6,.308-9.538-1.526-3.215-1.664-7.088-2.414-10.671l1.223-.354Z"/>
        <path id="Trazado_101778" data-name="Trazado 101778" d="M702.53,99.347l-5.369,3.938c.466,1.686.96,3.692,1.573,5.66,3.526,11.322,1.878,21.352-6.868,29.946-8.307,8.163-16.385,16.559-24.5,24.918a46.934,46.934,0,0,0-6.174,7.207c-7.491,11.8-.323,25.33,13.689,26.087a4.842,4.842,0,0,1,2.927.772l-4.9,1.493a65.8,65.8,0,0,1,.813,7.649c-.072,13.893.516,27.854-.654,41.661a199.334,199.334,0,0,0,1.849,48.295,95.356,95.356,0,0,1,1.386,17.808,195.449,195.449,0,0,0,10.341,69.16c2.521,7.5,4.108,15.238,3.111,23.4-1.246,10.2,2.424,19.884,3.906,29.806,2.543,17.021,4.956,34.068,7.015,51.153,1.742,14.46,2.8,29,4.368,43.485.879,8.117-1.974,14.627-7.971,19.759-9.22,7.889-19.469,13.7-31.93,14.668-1.328.1-2.607.834-4.246,1.387,2.562,3.954,6.261,4.735,9.761,4.661,8.436-.177,16.854-1.075,25.29-1.379,4.319-.156,8.665.291,12.993.559,3.016.186,6.112,1.119,9.016.684,6.486-.971,10.67-7.437,7.2-13.066-8.208-13.3-4.427-26.942-3.058-40.609,1.861-18.582,4.2-37.12,5.773-55.725,1.135-13.458-.913-26.741-4.954-39.609-2.474-7.878-1.789-15.732-.85-23.622,2.549-21.435,5.344-42.84,7.793-64.286.548-4.8.08-9.715.08-14.472l-9.233.454-.088-.97c1.989-.314,4.021-.464,5.96-.97,10.873-2.839,17.312-13.03,16.2-25.477a59.849,59.849,0,0,0-7.42-24.534c-4.12-7.248-8.521-14.337-12.82-21.484-.182-.3-.576-.479-1.156-.943-2.049,7.943-3.909,15.716-6.069,23.405a175.735,175.735,0,0,1-13.867,35.416c-2.373,4.453-2.769,10.035-3.678,15.171a77.6,77.6,0,0,0-1.129,12.187,63.371,63.371,0,0,0,.786,11.348c1.11,6.71-3.32,12.443-9.623,11.556a7.233,7.233,0,0,1-4.36-3.3c-6.091-10.137-5.966-21.353-1.565-31.414,6.472-14.793,8.956-30.393,12.4-45.84,2.333-10.463,4.3-21.009,6.3-31.543a25.851,25.851,0,0,0,.409-7.075c-1.974-21.634-4.061-43.258-6.1-64.887-.017-.182.233-.39.823-1.311.745,2.3,1.668,4.049,1.848,5.874,1.707,17.271,2.753,34.628,5.077,51.813,1.787,13.217-2.1,25.47-4.369,38.005-2.329,12.887-5.165,25.7-8.387,38.4-1.676,6.605-5.024,12.771-6.967,19.328-2.746,9.266-2.691,18.478,1.883,27.429,1.465,2.867,3.991,2.719,5.762,2.25,1.7-.449,5-1.809,1.5-5.564l2.162.608c.391-1.289,1.388-2.756,1.071-3.837a28.454,28.454,0,0,1,.193-16.427,22.617,22.617,0,0,0,.336-7.49,28.608,28.608,0,0,1,3.712-16.426c9.36-16.143,13.664-34.033,18.341-51.845,5.4-20.564,2.97-41.353,2.435-62.09-.2-7.939-1.173-15.857-1.577-23.8a53.984,53.984,0,0,1,.677-7.731l1.025.04,2.631,49.492.806.186c2.136-6.823,4.318-13.632,6.4-20.472,4.851-15.957,3.2-32,.514-48.042a51.259,51.259,0,0,0-1.8-8.527,104.726,104.726,0,0,0-4.475-9.951c-2.962-6.252-5.971-12.482-8.942-18.684-3.093,4.015-6.167,9.189-12.773,11.409l2.729-7.061-.3,5c6.312-4.475,8.98-10.783,11.86-17.108,1.219,5.582,2.119,10.964,3.632,16.167.946,3.254,2.863,6.219,4.259,9.352,1.6,3.593,3.747,3.377,6.523,1.268a36.546,36.546,0,0,0,11.362-15.058c6.028-13.966,6.15-28.213,2.179-42.776-1.834-6.727-2.259-13.861-4.326-20.5-3.824-12.279-11.792-20.915-24.654-24.1-8.161-2.022-15.335,1.176-22.351,4.895a64.28,64.28,0,0,1-10.039,4.7c-10.6,3.436-13.76,11.852-7.819,21.554.685,1.119,1.383,2.231,2.075,3.346l-.15-.148,6.05,4.229,1.009-3.857,7.773,9.293,1.1,1.883c6,7.531,7.239,16.339,6.532,26.307,5.029-4.374,5.572-10.054,7.178-15.1v23.632l-.725-.012-.535-2.9-3.75,2Z" fill="#fff"/>
        <path id="Trazado_101779" data-name="Trazado 101779" d="M693.705,65.552l-1.1-1.883-5.489-4.85c-1.168.506-2.518,1.462-2.864,1.181-2.28-1.85-4.344-3.967-6.479-6l.15.148-2.767-1.85-1.223.354c.75,3.583.888,7.456,2.414,10.671,1.677,3.533,2.031,6.371-.308,9.538a30.146,30.146,0,0,0-3.754,6.017c-.4.945.729,3.538.8,3.524,3.386-.669,2.592,1.966,2.6,3.483.028,3.861-.065,7.567,3.817,10.054.735.471.844,2.367.768,3.575-.271,4.3,1.322,6.118,5.777,5.14,4.86-1.067,9.55-2.908,14.308-4.432.743-.238,1.453-.583,2.178-.879l-.124.128c4.319-3.58,5.606-8.036,3.961-13.234l-7.876,10c0-6.65.618-12.079-.186-17.288C697.6,74.355,695.3,70.007,693.705,65.552Z" fill="#fff"/>
        <path id="Trazado_101780" data-name="Trazado 101780" d="M693.705,65.552c1.6,4.456,3.892,8.8,4.6,13.4.8,5.209.186,10.638.186,17.288l7.876-10c1.645,5.2.358,9.655-3.961,13.234l3.75-2,.535,2.9.725.012V76.759c-1.607,5.046-2.149,10.726-7.178,15.1C700.944,81.891,699.7,73.083,693.705,65.552Z"/>
        <path id="Trazado_101781" data-name="Trazado 101781" d="M677.772,54c2.134,2.03,4.2,4.147,6.479,6,.346.281,1.7-.675,2.864-1.181l5.489,4.85-7.773-9.293-1.009,3.857Z"/>
      </g>
      <path id="Trazado_101782" data-name="Trazado 101782" d="M694.639,33.386a25.006,25.006,0,0,1,5.07,2.437,31.791,31.791,0,0,1,4.461,3.47,33.9,33.9,0,0,1,6.781,9.032,40.284,40.284,0,0,1,2.066,5.276l.422,1.352a9.135,9.135,0,0,1,.363,1.367c.191.924.369,1.85.54,2.777a20.075,20.075,0,0,1,.345,2.8l.239,2.81c0,1.878-.056,3.757-.118,5.624-.122-1.873-.142-3.742-.28-5.6l-.351-2.773a19.673,19.673,0,0,0-.451-2.75c-.211-.905-.416-1.81-.607-2.718a8.871,8.871,0,0,0-.374-1.338l-.432-1.322a40.01,40.01,0,0,0-2.087-5.14,35.03,35.03,0,0,0-6.487-8.948A30.448,30.448,0,0,0,694.639,33.386Z"/>
      <path id="Trazado_101783" data-name="Trazado 101783" d="M702.849,24.822a24.788,24.788,0,0,1,10.438,2.871,26,26,0,0,1,8.369,6.993,30.025,30.025,0,0,1,4.868,9.76,41.435,41.435,0,0,1,1.167,5.324c.115.9.2,1.8.3,2.7.054.9.094,1.809.129,2.711l-.344-2.687c-.159-.888-.3-1.778-.474-2.66a41.714,41.714,0,0,0-1.371-5.2,36.849,36.849,0,0,0-2.044-4.951,30.157,30.157,0,0,0-2.87-4.5,26.419,26.419,0,0,0-8.024-6.944,27.348,27.348,0,0,0-4.894-2.187A25.375,25.375,0,0,0,702.849,24.822Z"/>
      <path id="Trazado_101784" data-name="Trazado 101784" d="M734.133,64.244A62.493,62.493,0,0,1,739.081,89.3a44.734,44.734,0,0,1-2.086,12.69,36.726,36.726,0,0,1-2.533,5.918,35.3,35.3,0,0,1-3.584,5.319A39.238,39.238,0,0,0,736.4,101.8a46.512,46.512,0,0,0,1.871-12.521,64.511,64.511,0,0,0-.985-12.669c-.349-2.1-.8-4.177-1.322-6.239S734.842,66.258,734.133,64.244Z"/>
      <path id="Trazado_101785" data-name="Trazado 101785" d="M717.287,77.692a32.512,32.512,0,0,1-.166,6.414,38.671,38.671,0,0,1-1.28,6.309,32.625,32.625,0,0,1-2.369,5.991,27.494,27.494,0,0,1-3.545,5.351c.505-.948,1.141-1.8,1.584-2.771l.746-1.4.65-1.448a46.145,46.145,0,0,0,2.153-5.949,59.467,59.467,0,0,0,1.445-6.171c.183-1.043.345-2.091.466-3.146C717.121,79.816,717.208,78.758,717.287,77.692Z"/>
      <path id="Trazado_101786" data-name="Trazado 101786" d="M682.324,35.651c.552,1.022,1.092,2.044,1.685,3.038q.847,1.512,1.761,2.983c1.22,1.959,2.478,3.889,3.826,5.754s2.8,3.648,4.313,5.382c.785.839,1.557,1.7,2.414,2.467.795.844,1.722,1.53,2.582,2.317a31.135,31.135,0,0,1-5.45-4.353,45.628,45.628,0,0,1-4.519-5.337,56.164,56.164,0,0,1-3.707-5.919A46.979,46.979,0,0,1,682.324,35.651Z"/>
      <path id="Trazado_101787" data-name="Trazado 101787" d="M689.844,65.7s-4.724-4.406-8.387-3.928a12.994,12.994,0,0,0-3.026.69c-.8.425-1.221.265-1.38-.319s.159-1.062,1.433-1.327S684.589,59.007,689.844,65.7Z"/>
      <path id="Trazado_101788" data-name="Trazado 101788" d="M679.36,65.032a14.54,14.54,0,0,1,4.293.719,16.312,16.312,0,0,1,3.966,1.867l.348.224-.309.253a7.549,7.549,0,0,1-1.7,1.039,9.605,9.605,0,0,1-1.851.632,11.279,11.279,0,0,1-1.922.275,11.59,11.59,0,0,1-1.924-.073,17.238,17.238,0,0,0,1.894-.207,12.539,12.539,0,0,0,1.833-.427,13,13,0,0,0,1.726-.706,8.178,8.178,0,0,0,1.537-.98l.038.477a20.777,20.777,0,0,0-1.85-1.047,21.215,21.215,0,0,0-1.949-.866,18.362,18.362,0,0,0-2.031-.681A19.041,19.041,0,0,0,679.36,65.032Z"/>
      <ellipse id="Elipse_4002" data-name="Elipse 4002" cx="1.003" cy="2.467" rx="1.003" ry="2.467" transform="translate(678.96 65.271) rotate(-10.696)"/>
      <path id="Trazado_101789" data-name="Trazado 101789" d="M678.245,80.4a1.866,1.866,0,0,1,.821,1.636,1.8,1.8,0,0,1-.286.926,1.661,1.661,0,0,1-.7.623,5,5,0,0,0,.371-1.569A6.137,6.137,0,0,0,678.245,80.4Z"/>
      <path id="Trazado_101790" data-name="Trazado 101790" d="M675.5,94.795a.584.584,0,0,1-.261-.06c-.451-.22-.648-.982-.621-2.4a.307.307,0,0,1,.2-.281c.04-.014.56-.208,1.314-.423-.708-.129-1.329-.382-1.5-.862a2.488,2.488,0,0,1,.01-1.873,1.2,1.2,0,0,1,1.309-.842c.085.006.176.008.273.01.84.023,2.245.061,4.273,2.04l.865.971a.308.308,0,0,1,.075.244c0,.033-.514,3.358-5.631,3.4A.681.681,0,0,1,675.5,94.795Zm-.274-2.236c0,1.459.277,1.626.281,1.627a.374.374,0,0,1,.213-.078c4.12,0,4.941-2.17,5.085-2.738l-.748-.841c-1.842-1.8-3.049-1.829-3.848-1.85-.106,0-.2-.006-.3-.012a.641.641,0,0,0-.705.455,1.921,1.921,0,0,0,0,1.45c.159.455,1.86.647,3.338.548a.305.305,0,0,1,.061.607A18.5,18.5,0,0,0,675.23,92.559Z"/>
      <path id="Trazado_101791" data-name="Trazado 101791" d="M710.068,137.286a15.526,15.526,0,0,0-4.162-.557,10.79,10.79,0,0,0-4.011.776,5.083,5.083,0,0,0-.927.424,5.722,5.722,0,0,0-.883.513l-.846.584-.769.691-.389.346-.342.393-.7.786c-.449.541-.817,1.144-1.27,1.706.289-.649.595-1.3.943-1.935l.613-.9.316-.445.373-.4a9.357,9.357,0,0,1,3.578-2.523,9.621,9.621,0,0,1,4.332-.652A10.421,10.421,0,0,1,710.068,137.286Z"/>
      <path id="Trazado_101792" data-name="Trazado 101792" d="M690.534,334.682c-.022,1.416.023,2.82.12,4.207a17.07,17.07,0,0,0,.731,4.041,8.9,8.9,0,0,0,.363.935l.466.935c.306.627.645,1.237.974,1.855.679,1.224,1.366,2.45,2.088,3.669a24.164,24.164,0,0,1-2.631-3.341c-.4-.588-.759-1.2-1.111-1.821-.178-.309-.334-.63-.5-.946a9.374,9.374,0,0,1-.42-1.026,13.439,13.439,0,0,1-.593-4.278A18.439,18.439,0,0,1,690.534,334.682Z"/>
      <path id="Trazado_101793" data-name="Trazado 101793" d="M687.7,335.5a31.583,31.583,0,0,0,.06,4.912,20.075,20.075,0,0,0,.986,4.727,15.755,15.755,0,0,0,.984,2.2l1.139,2.192,2.245,4.411a41.679,41.679,0,0,1-2.8-4.1,26.06,26.06,0,0,1-2.337-4.429,16.284,16.284,0,0,1-.851-4.961A17.769,17.769,0,0,1,687.7,335.5Z"/>
      <path id="Trazado_101794" data-name="Trazado 101794" d="M683.81,335.5a17.562,17.562,0,0,0,.045,2.578,20.851,20.851,0,0,0,.333,2.537,25.578,25.578,0,0,0,1.429,4.879c.641,1.565,1.4,3.138,2.075,4.716l1.059,2.359c.34.794.708,1.573,1.074,2.359a37.823,37.823,0,0,1-2.7-4.443c-.817-1.535-1.581-3.064-2.267-4.687a19.273,19.273,0,0,1-1.291-5.091A14.908,14.908,0,0,1,683.81,335.5Z"/>
    </g>
    <g id="Grupo_53908" data-name="Grupo 53908">
      <g id="Grupo_53907" data-name="Grupo 53907">
        <path id="Trazado_101795" data-name="Trazado 101795" d="M285.663,226.854l2.4,4.743c3.3,5.9,6.124,12.13,9.985,17.635,12.447,17.746,25.291,35.212,37.922,52.829a7.394,7.394,0,0,1,1.621,4.007c-.179,7.994,2.621,15.227,5.879,22.2,2.883,6.172,5.049,11.993,1,18.437a3.1,3.1,0,0,0,.283,2.959c.5.509,1.949.206,2.95.06a14.281,14.281,0,0,0,2.687-1.1l-2.394,2.283a4.582,4.582,0,0,0,3.563.123c2.225-.924,4.271-2.39,6.559-3.035,5.888-1.66,6.268-2,6.544-7.963.123-2.652.483-5.293.736-7.939l.906.075-.958,11.117c1.669-2.675,2.093-5.626,3.224-8.276,2.01-4.712,1.344-8.8-1.551-12.9-9.942-14.075-15.886-30.091-22.168-45.949-8.676-21.9-17.02-43.951-28.745-64.506a8.125,8.125,0,0,1-.681-5.76c3.3-10.8,2.428-21.7,1.467-32.665-.627-7.154-1.132-14.331-1.328-21.508-.229-8.39,4.138-14.929,9.06-21.139a41.409,41.409,0,0,1-3.769,7.977A26.3,26.3,0,0,0,316.8,155.63q.834,9.523,1.572,19.055c.772,10.123,1.978,20.239-1.292,30.242a8.43,8.43,0,0,0,.523,6.157c9.9,16.907,17.024,35.059,24.313,53.144,1.634,4.054,3.223,8.125,4.833,12.189a11.372,11.372,0,0,0,1.667-4.922c1.376-11.163,2.987-22.305,3.994-33.5,1.066-11.849,2.318-23.772,1.98-35.62-.19-6.644.047-12.846,2.04-19.122,2.18-6.866,2.043-13.8.582-20.881a27.234,27.234,0,0,1-.125-10.748c1.641-7.911.49-14.832-5.4-20.584-10.318-10.078-18.2-22.6-30.916-30.308a7.152,7.152,0,0,1-3.258-9.147A62.441,62.441,0,0,0,319.9,81.037c.609-3.625,2.376-5.241,6.077-4.875a74.924,74.924,0,0,0,8.521.455c5.407-.085,6.133-1.74,4.592-6.807-.855-2.811-1.262-6.665.04-8.967,1.263-2.233,1.184-3.272.292-5.27-.369-.827.688-3.324,1.2-3.355,5.776-.348,3.453-3.292,2.029-5.915-.775-1.426-1.68-2.786-2.589-4.134-1.639-2.43-1.676-4.951-1.8-7.9-.233-5.692-1.1-11.817-3.64-16.766-1.31-2.549-6.775-2.99-10.39-4.309a12.276,12.276,0,0,0-2.414-.309c-3.046-.441-4.182.508-4.293,3.922a60.388,60.388,0,0,1-2.169,14.316c-1.074,3.81-3.355,7.279-5.426,11.574a13.148,13.148,0,0,1-3.314-1.437c-2.081-1.494-3.721-3.731-5.951-4.848-1.847-.924-4.648-1.474-6.324-.689-1.2.56-1.975,3.761-1.611,5.506.585,2.8,2.27,5.37,3.312,7.65-.664,1.972-1.614,3.761-1.83,5.635-.578,5.018-2.9,8.025-8.2,8.248-.478.02-.94.4-.609.25.194,5.689,1.434,11.127.293,16.009-1.6,6.865-4.03,13.916-7.781,19.823-8.055,12.682-11.623,26.278-12.2,41.093-.672,17.272,3.634,33.51,8.863,49.691,2.44,7.55,4.16,15.333,6.207,23.01l-.064-.192,2.941,7.513a31.859,31.859,0,0,0-.411-8.066c-2.036-10.357-4.461-20.644-6.27-31.039-1.7-9.792-.541-20.131-5.782-29.233-.147-.255.079-.724.215-1.69,2.786,4.927,5.145,9.244,5.432,14.686.37,7.011,1.468,14,2.49,20.956C281.365,199.348,283.547,213.1,285.663,226.854Zm30.969,42.771-.9.8-14.315-20.158.819-.572ZM300.7,100.421c-9.238-3.461-16.4.851-23.24,6.392C283.873,99.651,291.244,96.043,300.7,100.421Zm33.222,49.424c4.521,3.669,9.68,3.228,16.054,1.718C343.479,155.162,338.336,154.464,333.92,149.845Zm5.609,80.526c2.675,5.231,3.544,9.648,1.419,14.377C340.5,240.194,340.06,235.749,339.529,230.371Z" fill="#fff"/>
        <path id="Trazado_101796" data-name="Trazado 101796" d="M280.793,212.639c-2.046-7.677-3.767-15.46-6.207-23.01-5.229-16.181-9.535-32.419-8.863-49.691.577-14.814,4.145-28.411,12.2-41.093,3.752-5.906,6.178-12.958,7.781-19.823,1.14-4.882-.1-10.32-.293-16.009-.332.15.131-.23.609-.25,5.3-.222,7.621-3.229,8.2-8.248.216-1.874,1.166-3.663,1.83-5.635-1.043-2.28-2.728-4.85-3.312-7.65-.364-1.745.415-4.947,1.611-5.506,1.677-.784,4.477-.235,6.324.689,2.23,1.116,3.87,3.354,5.951,4.848a13.147,13.147,0,0,0,3.314,1.438c2.071-4.294,4.351-7.764,5.426-11.574a60.391,60.391,0,0,0,2.169-14.316c.111-3.414,1.247-4.363,4.293-3.922a12.278,12.278,0,0,1,2.414.309c3.615,1.319,9.081,1.759,10.39,4.309,2.542,4.949,3.408,11.074,3.64,16.766.121,2.948.157,5.469,1.8,7.9.909,1.347,1.814,2.708,2.589,4.134,1.424,2.623,3.748,5.567-2.029,5.915-.512.031-1.569,2.527-1.2,3.355.892,2,.971,3.037-.292,5.27-1.3,2.3-.9,6.156-.04,8.967,1.54,5.067.814,6.722-4.592,6.807a74.923,74.923,0,0,1-8.521-.455c-3.7-.366-5.468,1.25-6.077,4.875a62.446,62.446,0,0,1-2.592,10.544,7.152,7.152,0,0,0,3.258,9.147c12.713,7.706,20.6,20.23,30.916,30.308,5.888,5.752,7.039,12.673,5.4,20.584a27.233,27.233,0,0,0,.125,10.748c1.461,7.077,1.6,14.015-.582,20.881-1.992,6.276-2.229,12.478-2.04,19.122.338,11.848-.914,23.771-1.98,35.62-1.007,11.2-2.617,22.34-3.994,33.5a11.372,11.372,0,0,1-1.667,4.922c-1.61-4.064-3.2-8.135-4.833-12.189-7.289-18.085-14.417-36.237-24.313-53.144a8.43,8.43,0,0,1-.523-6.157c3.27-10,2.064-20.118,1.292-30.242q-.727-9.532-1.572-19.055a26.3,26.3,0,0,1,4.051-17.063,41.4,41.4,0,0,0,3.769-7.977c-4.922,6.209-9.289,12.748-9.06,21.139.2,7.177.7,14.354,1.328,21.508.961,10.963,1.833,21.866-1.467,32.665a8.125,8.125,0,0,0,.681,5.76c11.726,20.555,20.069,42.606,28.745,64.506,6.283,15.858,12.227,31.874,22.168,45.949,2.895,4.1,3.561,8.183,1.551,12.9-1.13,2.65-1.555,5.6-3.224,8.276l.958-11.117-.906-.075c-.253,2.646-.613,5.287-.736,7.939-.275,5.958-.655,6.3-6.544,7.963-2.288.645-4.333,2.11-6.559,3.035a4.582,4.582,0,0,1-3.563-.123l2.394-2.283a14.288,14.288,0,0,1-2.687,1.1c-1,.146-2.446.449-2.95-.06a3.1,3.1,0,0,1-.283-2.959c4.05-6.444,1.884-12.265-1-18.437-3.258-6.975-6.057-14.208-5.879-22.2a7.394,7.394,0,0,0-1.621-4.007c-12.631-17.617-25.475-35.084-37.922-52.829-3.861-5.5-6.686-11.736-9.985-17.635,3.555,7.256,6.326,15.044,10.821,21.662,11.109,16.355,23.07,32.13,34.512,48.263,1.466,2.066,1.971,4.849,2.767,7.349,2.536,7.967,4.726,16.058,7.6,23.9,1.516,4.136,1.7,7.774-.2,11.706-2.293,4.73-1.9,5.681,3.4,8.564-3.533,8.638-7.037,17.385-10.689,26.07-2.043,4.858-4.414,9.58-6.439,14.445-.372.894.474,2.228.292,3.279-.678,3.931-.921,8.112-2.522,11.659-1.628,3.6-3.93,6.7-4.323,10.967-.506,5.492-3.357,9.94-6.809,14.48-2.572,3.383-2.53,8.973-3.065,13.647-1.835,16-2.648,32.162-5.293,48.021-2.858,17.134-6.049,34.124-5.332,51.6.319,7.776.753,8.64,7.933,11.477q21.3,8.419,42.609,16.83c1.24.489,2.493.945,3.74,1.417l.448-1.074c-3.123-1.294-6.225-2.64-9.371-3.874q-15.67-6.143-31.364-12.224c-.252-.1-.479-.261-.732-.355-12.975-4.823-11.865-4.82-12.086-18.809-.284-17.9,4.019-35.172,6.845-52.671,1.853-11.473,2.458-23.162,3.305-34.777.61-8.367,1.851-16.4,6.935-23.43a17.842,17.842,0,0,0,2.554-5.923c1.525-5.889,2.795-11.827,6.4-16.946a6.327,6.327,0,0,0,1.172-3.833c-.919-10.606,4.956-19.211,8.3-28.535,2.328-6.489,5.058-12.842,7.836-19.155a6.5,6.5,0,0,1,3.245-2.642c1.186-.54,2.657-.427,3.986-.686,6.958-1.357,13.113-3.473,13.818-12.156.236-2.9,1.863-5.683,2.2-8.6a13.094,13.094,0,0,0-.886-6.961c-6.237-12.6-12.944-24.97-19.047-37.632a19.656,19.656,0,0,1-1.5-10.177c2.059-18.86,4.62-37.665,6.731-56.52a56.256,56.256,0,0,0,.046-15.393,40.749,40.749,0,0,1,1.439-20.365c2.569-7.628,2.4-15.354.47-23.228a21.866,21.866,0,0,1,.331-9.993c1.831-7.51.258-14.02-4.782-19.643-7.5-8.371-15.1-16.669-22.874-24.783-2.109-2.2-5.013-3.645-7.572-5.408-5.143-3.543-5.67-5.868-3.417-11.546a31.026,31.026,0,0,0,1.7-8.283c.293-2.908,1.582-4.061,4.466-3.9,3.381.184,6.778.255,10.162.166,5.069-.134,6.823-3.009,4.565-7.495-.908-1.8-.776-3.015-.035-5.072,1.186-3.292.8-7.15,1.085-10.769l-1.152-.367c.85-.266,1.691-.572,2.554-.789,2.485-.624,3.428-2.022,2.3-4.477a20.312,20.312,0,0,0-1.293-2.528c-2.855-4.448-5.449-8.731-4.526-14.616.492-3.134-1.1-6.6-1.782-9.912-.66-3.227-1.8-6.277.149-9.676,1.38-2.4.321-4.834-2.624-5.739-13.94-4.282-28.119-7.9-42.745-5.215-14.25,2.619-25.762,18.362-21.328,33.391,2.853,9.668,7.145,18.95,11.268,28.192,2.572,5.764,4.527,11.509,2.278,17.587-2.564,6.931-4.993,14.117-8.887,20.306C267.75,112.944,265,126.543,264.561,141c-.451,14.984,2.551,29.337,7.167,43.461C274.794,193.839,277.775,203.245,280.793,212.639Z"/>
        <path id="Trazado_101797" data-name="Trazado 101797" d="M344.309,584.179c-2.693.009-5.386-.291-8.081-.411-7.442-.331-14.883-.783-22.329-.9-7.7-.12-15.41.2-23.114.122a38.227,38.227,0,0,1-8.819-1.018c-4.648-1.16-6.675-5.326-5.663-10.024,1.984-9.217,5.235-18.18,4.517-27.91-.917-12.427-4.762-24.12-8.444-35.833-5.846-18.6-5.944-37.284-1.764-56.121,1.249-5.63,2.953-11.159,4.448-16.735l-1.315-.322c-1.953,8.379-4.229,16.7-5.78,25.151a89.638,89.638,0,0,0-.019,33.513c1.735,8.861,4.508,17.514,6.675,26.295,1.681,6.813,3.37,13.638,4.638,20.534,1.662,9.04-.594,17.75-2.992,26.392-3.357,12.1.556,17.189,12.992,17.337,12.984.154,25.964.634,38.948.814,3.764.052,7.538-.647,11.3-.618,3.259.025,6.538,1,9.765.815a56.924,56.924,0,0,0,11.773-2.062c1.021-.282,1.838-2.408,2.1-3.81.1-.505-2.96-2.006-4.945-3.234a7.6,7.6,0,0,0-1.294-.537.915.915,0,0,0,.137,1.317c1.394,1.444,4.587,3.623,4.763,4.2a14,14,0,0,1-3.665.9C356.1,581.983,345.025,584.176,344.309,584.179Z"/>
        <path id="Trazado_101798" data-name="Trazado 101798" d="M285.663,226.854c-2.115-13.758-4.3-27.507-6.318-41.279-1.021-6.961-2.119-13.946-2.49-20.956-.287-5.443-2.646-9.759-5.432-14.686-.136.966-.362,1.435-.215,1.69,5.241,9.1,4.078,19.441,5.782,29.233,1.809,10.4,4.234,20.682,6.27,31.039a31.854,31.854,0,0,1,.411,8.066l-2.941-7.513c.714,3.562,1.51,7.111,2.126,10.69,1.616,9.379-.124,18.22-4.218,26.743-6.463,13.452-10.5,27.452-9.246,42.611.788,9.544,4.049,17.712,12.109,23.425l.384-.16c-.835-.827-1.183-1.244-1.694-1.743-9.124-8.918-10.609-20.046-9.686-32.132.892-11.68,5.033-22.3,9.8-32.79,2.7-5.954,4.823-12.039,3.546-18.805a11.245,11.245,0,0,1,.645-5.761Z"/>
        <path id="Trazado_101799" data-name="Trazado 101799" d="M281.5,315.915c2.542,2.319,2.671,5.2,2.45,8.38a437.38,437.38,0,0,0,.307,65.839c.41,5.06.06,10.182.413,15.279,0-9.136-.039-18.273.008-27.409.094-18.019-.14-35.611.1-53.628a18.529,18.529,0,0,0-.348-5.739c-1.3-1.8-1.051-1.891-2.548-2.881Z"/>
        <path id="Trazado_101800" data-name="Trazado 101800" d="M317.3,579.005h-22.03q.01.33.02.661h22.022Q317.305,579.335,317.3,579.005Z"/>
        <path id="Trazado_101801" data-name="Trazado 101801" d="M284.517,543.662q-1.226,6.95-2.45,13.9c-.656,3.768.525,5.061,5.109,5.159-4-.833-3.809-3.468-3.385-6.474.58-4.117.826-8.28,1.216-12.424Z"/>
        <path id="Trazado_101802" data-name="Trazado 101802" d="M287.194,362.3v21.973l.459-.023V362.271Z"/>
        <path id="Trazado_101803" data-name="Trazado 101803" d="M316.632,269.625l-14.395-19.93-.819.572,14.315,20.158Z"/>
        <path id="Trazado_101804" data-name="Trazado 101804" d="M300.7,100.421c-9.454-4.378-16.825-.77-23.24,6.392C284.3,101.272,291.46,96.959,300.7,100.421Z"/>
        <path id="Trazado_101805" data-name="Trazado 101805" d="M333.92,149.845c4.416,4.619,9.558,5.318,16.054,1.718C343.6,153.072,338.442,153.514,333.92,149.845Z"/>
        <path id="Trazado_101806" data-name="Trazado 101806" d="M339.529,230.371l1.419,14.377C343.072,240.019,342.2,235.6,339.529,230.371Z"/>
      </g>
      <path id="Trazado_101807" data-name="Trazado 101807" d="M347.259,351.265l-.316-.75c6.008-2.537,5.284-7.721,5.276-7.773l-.008-.05,0-.049,1.133-12.173.811.075-1.129,12.13C353.1,343.284,353.495,348.632,347.259,351.265Z"/>
      <path id="Trazado_101808" data-name="Trazado 101808" d="M355.037,351.267l-.3-.755c3.983-1.594,5.258-9.1,5.271-9.173L360,328.665h.814v12.74C360.755,341.8,359.447,349.5,355.037,351.267Z"/>
      <path id="Trazado_101809" data-name="Trazado 101809" d="M364.053,348.032l-.78-.229,2.106-7.164a57.061,57.061,0,0,1,.715-8.649,14.556,14.556,0,0,0-.685-7.136l.755-.3a15.113,15.113,0,0,1,.73,7.586,56.7,56.7,0,0,0-.7,8.561l-.017.115Z"/>
      <path id="Trazado_101810" data-name="Trazado 101810" d="M274.44,436.816l-.762-.289c1.5-3.958,9.859-31.021,10.307-32.474v-21.03h.814l-.018,21.211C284.694,404.519,275.984,432.746,274.44,436.816Z"/>
      <path id="Trazado_101811" data-name="Trazado 101811" d="M336.06,204.241a7.19,7.19,0,0,0,2.847-1.8,9.388,9.388,0,0,0,1.936-2.721,14.387,14.387,0,0,0,1.094-3.167l.418-1.685c.162-.561.345-1.117.535-1.668a31.806,31.806,0,0,1,3.184-6.179c.644-.961,1.311-1.9,2.014-2.818.729-.895,1.457-1.789,2.269-2.607q-2.018,2.8-3.75,5.754a41.922,41.922,0,0,0-2.954,6.132c-.19.531-.373,1.066-.535,1.6l-.435,1.652a12.993,12.993,0,0,1-1.29,3.275A8.088,8.088,0,0,1,336.06,204.241Z"/>
      <path id="Trazado_101812" data-name="Trazado 101812" d="M342.093,143.3a5.052,5.052,0,0,0,2.227,2,4.07,4.07,0,0,0,1.423.262c.253.016.512-.022.781-.019.266-.026.533-.065.825-.067a5.738,5.738,0,0,1-.722.453,4.471,4.471,0,0,1-.824.266,3.183,3.183,0,0,1-1.782-.137,2.991,2.991,0,0,1-1.4-1.131A3.024,3.024,0,0,1,342.093,143.3Z"/>
      <path id="Trazado_101813" data-name="Trazado 101813" d="M289.488,223.032a7.692,7.692,0,0,0,2.387,5.1,13.978,13.978,0,0,0,2.255,1.8l1.264.759c.437.231.879.462,1.313.729-.494-.1-.982-.23-1.474-.363-.474-.174-.95-.361-1.415-.572a9.593,9.593,0,0,1-2.52-1.779,6.982,6.982,0,0,1-1.672-2.626A5.033,5.033,0,0,1,289.488,223.032Z"/>
      <path id="Trazado_101814" data-name="Trazado 101814" d="M323.107,141.957a12.326,12.326,0,0,0,3.592,2.892,6.414,6.414,0,0,0,2.135.646,10.616,10.616,0,0,0,2.341,0,5.068,5.068,0,0,1-2.374.634,5.189,5.189,0,0,1-2.458-.549,6.551,6.551,0,0,1-1.98-1.523A6.143,6.143,0,0,1,323.107,141.957Z"/>
      <path id="Trazado_101815" data-name="Trazado 101815" d="M314.391,86.817c-4.8-3.942-13.137-22.3-13.489-23.078l.741-.335c.086.189,8.615,18.961,13.265,22.785Z"/>
      <path id="Trazado_101816" data-name="Trazado 101816" d="M305.342,54.123c.286,1.487.521,2.98.783,4.47l.35,2.24a3.747,3.747,0,0,0,.883,1.883,35.207,35.207,0,0,0,3.452,2.812q1.816,1.327,3.735,2.5a61.621,61.621,0,0,0,8,4.116l2.092.841,2.13.748,2.155.688q1.092.292,2.184.611a43.324,43.324,0,0,1-8.792-2.306,48.333,48.333,0,0,1-8.193-4.005,39.027,39.027,0,0,1-7.239-5.611,4.314,4.314,0,0,1-.912-2.215l-.236-2.256C305.6,57.138,305.447,55.634,305.342,54.123Z"/>
      <path id="Trazado_101817" data-name="Trazado 101817" d="M329.375,62.96c-.743-2.19,1.516-4.593,1.612-4.694l.59.561c-.021.021-2.016,2.148-1.431,3.87Z"/>
      <path id="Trazado_101818" data-name="Trazado 101818" d="M335.7,52.051a3.821,3.821,0,0,1,2.562-4.833l.2.789c-.109.029-2.652.738-1.97,3.872Z"/>
      <ellipse id="Elipse_4003" data-name="Elipse 4003" cx="1.716" cy="0.513" rx="1.716" ry="0.513" transform="translate(338.36 50.938)"/>
      <path id="Trazado_101819" data-name="Trazado 101819" d="M338.757,65.4a1.341,1.341,0,0,1-.7-.168,3.421,3.421,0,0,1-.61-.61,10.953,10.953,0,0,0-3.671-2.909.2.2,0,0,1-.01-.364A27.853,27.853,0,0,0,337.544,59a2.975,2.975,0,0,1,3.143-1.008.9.9,0,0,1,.633.6,3.369,3.369,0,0,1-.583,2.543,1.085,1.085,0,0,1-.817.343c-.056.006-.112.013-.165.021-.111.018-.239.033-.383.049a1.948,1.948,0,0,1,1,.408,1.9,1.9,0,0,1,.391,1.431,1.829,1.829,0,0,1-2,2.021Zm-3.925-3.587a11.9,11.9,0,0,1,2.923,2.54,3.838,3.838,0,0,0,.517.533,1.8,1.8,0,0,0,1.649-.276,2.094,2.094,0,0,0,.43-1.257,1.542,1.542,0,0,0-.281-1.128C339.6,61.728,336.757,61.7,334.832,61.812Zm4.983-3.541a2.752,2.752,0,0,0-1.984,1.013,21.786,21.786,0,0,1-3.352,2.141c.485-.039,1.188-.072,1.93-.108,1.227-.059,2.616-.126,3.282-.229.059-.009.119-.016.181-.023.227-.026.441-.05.534-.178a3.059,3.059,0,0,0,.529-2.168.488.488,0,0,0-.354-.338A2.943,2.943,0,0,0,339.815,58.271Z"/>
      <path id="Trazado_101820" data-name="Trazado 101820" d="M326.062,34.483s1.911-4.087,5.574-2.389,4.332,2.07,4.332,2.07,1.3.372,1.563-.212.755-1.221-.367-1.8-4.307-1.858-4.307-1.858-3.663-1.274-5.733,1.274l-1.752,1.964s-.425.637,0,.956A.479.479,0,0,0,326.062,34.483Z"/>
      <path id="Trazado_101821" data-name="Trazado 101821" d="M302.189,47.912a1.011,1.011,0,0,1-.46-.118,25.411,25.411,0,0,1-3.032-2.328c-.006,0-2.759-1.861-1.593-4.638a2.723,2.723,0,0,1,1.6-1.683,2.621,2.621,0,0,1,1.99.26.2.2,0,0,1-.211.348,2.242,2.242,0,0,0-1.656-.219,2.339,2.339,0,0,0-1.342,1.451c-1.035,2.464,1.362,4.09,1.464,4.158a26.4,26.4,0,0,0,2.97,2.288.46.46,0,0,0,.664-.162.567.567,0,0,0-.244-.776,2.173,2.173,0,0,1-1.021-1.655c-.061-.238-.132-.517-.234-.847a2.151,2.151,0,0,1,1.271-2.419.207.207,0,0,1,.273.091.2.2,0,0,1-.091.273c-.059.029-1.432.738-1.064,1.936.1.337.176.622.238.866.189.743.268,1.051.843,1.41a.97.97,0,0,1,.382,1.322A.858.858,0,0,1,302.189,47.912Z"/>
      <path id="Trazado_101822" data-name="Trazado 101822" d="M298.512,49.549a.2.2,0,0,1-.166-.086l-.9-1.273c-.162-.18-4.288-4.88-3.806-9.429a2.964,2.964,0,0,1,1.408-2.516c1.678-.88,4.148.443,4.253.5a.2.2,0,0,1-.194.358c-.023-.012-2.384-1.277-3.871-.5a2.589,2.589,0,0,0-1.191,2.2c-.463,4.372,3.677,9.086,3.718,9.133l.917,1.291a.2.2,0,0,1-.166.321Z"/>
      <path id="Trazado_101823" data-name="Trazado 101823" d="M335.043,41.236A33.115,33.115,0,0,1,328,39.809a.2.2,0,0,1-.02-.382l1.982-.85a8.368,8.368,0,0,1,3.888-1.36,3.418,3.418,0,0,0,2.673-1.177.208.208,0,0,1,.281-.063.2.2,0,0,1,.064.28,3.723,3.723,0,0,1-2.99,1.366,8.2,8.2,0,0,0-3.717,1.307l-1.5.648a28.629,28.629,0,0,0,6.545,1.248h.006a.2.2,0,0,1,.006.407Z"/>
      <path id="Trazado_101824" data-name="Trazado 101824" d="M334.038,41.227c-.572,0-.872-1.009-.872-2.005s.3-2,.872-2,.873,1.009.873,2S334.612,41.227,334.038,41.227Zm0-3.6c-.139,0-.465.544-.465,1.6s.326,1.6.465,1.6c.164,0,.466-.607.466-1.6S334.2,37.624,334.038,37.624Z"/>
      <path id="Trazado_101825" data-name="Trazado 101825" d="M327.424,38.4a.2.2,0,0,1-.129-.362c.143-.115,3.524-2.819,6.818-1.517a.2.2,0,0,1-.149.378c-3.074-1.213-6.378,1.428-6.41,1.455A.205.205,0,0,1,327.424,38.4Z"/>
      <path id="Trazado_101826" data-name="Trazado 101826" d="M330.539,42.437a.2.2,0,0,1-.072-.393,17.6,17.6,0,0,1,3.257-.97.2.2,0,0,1,0,.407,17.423,17.423,0,0,0-3.113.943A.2.2,0,0,1,330.539,42.437Z"/>
    </g>
    <path id="Trazado_101827" data-name="Trazado 101827" d="M265.655,225.332a72.565,72.565,0,0,0,24.593,21.631,68.858,68.858,0,0,0,15.112,5.782,71.151,71.151,0,0,0,16.028,2.059c2.7.147,5.415-.082,8.124-.185,2.7-.31,5.419-.48,8.1-1a129.485,129.485,0,0,0,16.019-3.7,235.441,235.441,0,0,0,30.972-12.361,129.311,129.311,0,0,1-29.72,16.056l-4.028,1.408-2.023.687c-.677.22-1.373.385-2.059.58l-4.136,1.117c-1.384.354-2.8.582-4.2.879-2.8.64-5.671.866-8.518,1.255-2.876.142-5.75.4-8.642.26a67.881,67.881,0,0,1-17.14-2.486,62.243,62.243,0,0,1-15.829-6.984C278.564,244.214,270.38,235.575,265.655,225.332Z" fill="#00e1e6"/>
    <path id="Trazado_101828" data-name="Trazado 101828" d="M359.562,227.225a36.05,36.05,0,0,0,3.529,2.213c.589.341,1.2.648,1.794.959l1.832.834a31.333,31.333,0,0,0,7.487,2.237,28.5,28.5,0,0,0,7.6.342,29.77,29.77,0,0,0,3.778-.5c1.259-.21,2.482-.643,3.742-.906l.313-.065a2.42,2.42,0,0,1,2.4,3.853l-7.3,9.389-7.44,9.492a38.454,38.454,0,0,1,1.895-5.846c.75-1.907,1.64-3.743,2.568-5.557s1.944-3.574,3-5.306,2.162-3.42,3.36-5.106l2.718,3.788c-.71.216-1.422.427-2.139.623a18.068,18.068,0,0,1-2.166.54,28.887,28.887,0,0,1-4.463.518,25.706,25.706,0,0,1-8.891-1.133,24.891,24.891,0,0,1-7.856-4.011A21.574,21.574,0,0,1,359.562,227.225Z" fill="#00e1e6"/>
    <path id="Trazado_101829" data-name="Trazado 101829" d="M640.748,215.021a72.569,72.569,0,0,0,24.593,21.631,68.859,68.859,0,0,0,15.112,5.782,71.156,71.156,0,0,0,16.028,2.059c2.7.147,5.415-.082,8.124-.185,2.7-.31,5.419-.48,8.1-1a129.488,129.488,0,0,0,16.019-3.7A235.454,235.454,0,0,0,759.7,227.248a129.31,129.31,0,0,1-29.72,16.056l-4.028,1.408-2.023.687c-.677.22-1.373.385-2.059.58l-4.136,1.117c-1.385.354-2.8.582-4.2.879-2.8.64-5.671.866-8.518,1.255-2.876.143-5.75.4-8.642.261A67.878,67.878,0,0,1,679.23,247,62.241,62.241,0,0,1,663.4,240.02C653.658,233.9,645.474,225.264,640.748,215.021Z" fill="#ea47cb"/>
    <path id="Trazado_101830" data-name="Trazado 101830" d="M734.656,216.915a36.014,36.014,0,0,0,3.529,2.213c.589.341,1.2.648,1.794.959l1.832.834a31.333,31.333,0,0,0,7.487,2.237,28.5,28.5,0,0,0,7.6.342,29.77,29.77,0,0,0,3.778-.5c1.259-.21,2.482-.643,3.742-.906l.313-.065a2.42,2.42,0,0,1,2.4,3.853l-7.3,9.389-7.439,9.492a38.468,38.468,0,0,1,1.894-5.846c.75-1.907,1.64-3.743,2.568-5.557s1.944-3.574,3-5.306,2.162-3.42,3.36-5.106l2.718,3.788c-.709.216-1.422.427-2.139.623a18.069,18.069,0,0,1-2.166.54,28.887,28.887,0,0,1-4.463.518,25.706,25.706,0,0,1-8.891-1.133,24.891,24.891,0,0,1-7.856-4.011A21.574,21.574,0,0,1,734.656,216.915Z" fill="#ea47cb"/>
  </g>
</svg>
