<svg xmlns="http://www.w3.org/2000/svg" width="604" height="289.631" viewBox="0 0 604 289.631">
  <g id="Grupo_56583" data-name="Grupo 56583" transform="translate(-180 -15070.513)">
    <g id="Grupo_56501" data-name="Grupo 56501" transform="translate(0 52.329)">
      <g id="Grupo_55961" data-name="Grupo 55961" transform="translate(58.082 5621.14)">
        <rect id="Rectángulo_5463" data-name="Rectángulo 5463" width="604" height="289.63" transform="translate(121.918 9397.044)" fill="#f4f9fa"/>
      </g>
      <g id="Grupo_55280" data-name="Grupo 55280" transform="translate(-275.243 12177.511)">
        <g id="Grupo_55168" data-name="Grupo 55168" transform="translate(887.983 2958.271)">
          <path id="Trazado_104473" data-name="Trazado 104473" d="M2409.914,3043.5c16.5-3.311,32.554,7.342,32.554,7.342s-10.7,16.02-27.2,19.331-32.554-7.342-32.554-7.342S2393.413,3046.807,2409.914,3043.5Z" transform="translate(-2356.842 -3042.858)" fill="#8f8b66"/>
          <path id="Trazado_104474" data-name="Trazado 104474" d="M2298.074,3096.3a.736.736,0,0,1-.356-1.266,109.332,109.332,0,0,1,26.242-16.336,138.884,138.884,0,0,1,50.016-11.492.736.736,0,1,1,.054,1.47,139.38,139.38,0,0,0-49.466,11.363,107.826,107.826,0,0,0-25.854,16.082A.736.736,0,0,1,2298.074,3096.3Z" transform="translate(-2297.478 -3059.818)" fill="#b3ae7f"/>
          <path id="Trazado_104475" data-name="Trazado 104475" d="M2475.9,3060.29a.735.735,0,0,1-.294-1.317l9.917-7.205a.736.736,0,1,1,.865,1.191l-9.917,7.2A.734.734,0,0,1,2475.9,3060.29Z" transform="translate(-2421.331 -3048.965)" fill="#b3ae7f"/>
          <path id="Trazado_104476" data-name="Trazado 104476" d="M2456.8,3092.543a.722.722,0,0,1-.238-.09l-12.333-7.339a.736.736,0,0,1,.752-1.265l12.333,7.339a.736.736,0,0,1-.515,1.355Z" transform="translate(-2399.437 -3071.335)" fill="#b3ae7f"/>
          <path id="Trazado_104477" data-name="Trazado 104477" d="M2408.677,3076.747a.735.735,0,0,1-.426-1.193l6.949-8.341a.736.736,0,1,1,1.13.942l-6.949,8.34A.735.735,0,0,1,2408.677,3076.747Z" transform="translate(-2374.511 -3059.637)" fill="#b3ae7f"/>
        </g>
        <g id="Grupo_55190" data-name="Grupo 55190" transform="translate(887.983 2876.828)">
          <path id="Trazado_104478" data-name="Trazado 104478" d="M2476.624,2874.8c-2.94,1.263-14.272-.049-14.272-.049s6.759-9.335,9.7-10.6,11.6,1.09,11.6,1.09S2479.564,2873.54,2476.624,2874.8Z" transform="translate(-2387.965 -2858.646)" fill="#7d6871"/>
          <g id="Grupo_55170" data-name="Grupo 55170" transform="translate(0 13.954)">
            <g id="Grupo_55169" data-name="Grupo 55169">
              <path id="Trazado_104479" data-name="Trazado 104479" d="M2218.126,2975.421l-.859-.228c16.654-62.809,78.532-82.24,79.137-82.361l.175.871C2295.979,2893.823,2234.653,2913.09,2218.126,2975.421Z" transform="translate(-2217.267 -2892.832)" fill="#54464c"/>
            </g>
          </g>
          <g id="Grupo_55173" data-name="Grupo 55173" transform="translate(58.465 23.345)">
            <path id="Trazado_104480" data-name="Trazado 104480" d="M2440.206,2938.624c-2.986-1.149-10.181-10-10.181-10s11.357-1.962,14.343-.812,7.543,8.883,7.543,8.883S2443.192,2939.772,2440.206,2938.624Z" transform="translate(-2423.914 -2926.333)" fill="#7d6871"/>
            <g id="Grupo_55172" data-name="Grupo 55172">
              <g id="Grupo_55171" data-name="Grupo 55171">
                <path id="Trazado_104481" data-name="Trazado 104481" d="M2430.79,2931.23c-5.218-2.47-20.743-6.557-20.9-6.6l.225-.859c.641.168,15.761,4.149,21.053,6.654Z" transform="translate(-2409.891 -2923.773)" fill="#54464c"/>
              </g>
            </g>
          </g>
          <g id="Grupo_55176" data-name="Grupo 55176" transform="translate(40.04 35.859)">
            <path id="Trazado_104482" data-name="Trazado 104482" d="M2379.5,2979.855c-2.986-1.149-10.181-10-10.181-10s11.356-1.961,14.343-.812,7.543,8.883,7.543,8.883S2382.49,2981,2379.5,2979.855Z" transform="translate(-2363.212 -2967.565)" fill="#7d6871"/>
            <g id="Grupo_55175" data-name="Grupo 55175">
              <g id="Grupo_55174" data-name="Grupo 55174">
                <path id="Trazado_104483" data-name="Trazado 104483" d="M2370.087,2972.462c-5.218-2.47-20.743-6.557-20.9-6.6l.226-.859c.641.168,15.761,4.149,21.054,6.654Z" transform="translate(-2349.188 -2965.005)" fill="#54464c"/>
              </g>
            </g>
          </g>
          <g id="Grupo_55179" data-name="Grupo 55179" transform="translate(24.918 50.807)">
            <path id="Trazado_104484" data-name="Trazado 104484" d="M2329.682,3029.1c-2.987-1.149-10.181-10-10.181-10s11.357-1.961,14.343-.812,7.543,8.883,7.543,8.883S2332.668,3030.254,2329.682,3029.1Z" transform="translate(-2313.39 -3016.814)" fill="#7d6871"/>
            <g id="Grupo_55178" data-name="Grupo 55178">
              <g id="Grupo_55177" data-name="Grupo 55177">
                <path id="Trazado_104485" data-name="Trazado 104485" d="M2320.265,3021.711c-5.219-2.47-20.743-6.557-20.9-6.6l.225-.859c.641.168,15.761,4.149,21.054,6.654Z" transform="translate(-2299.366 -3014.254)" fill="#54464c"/>
              </g>
            </g>
          </g>
          <g id="Grupo_55182" data-name="Grupo 55182" transform="translate(13.505 65.813)">
            <path id="Trazado_104486" data-name="Trazado 104486" d="M2292.078,3078.544c-2.986-1.149-10.181-10-10.181-10s11.356-1.961,14.343-.812,7.543,8.883,7.543,8.883S2295.064,3079.694,2292.078,3078.544Z" transform="translate(-2275.785 -3066.254)" fill="#7d6871"/>
            <g id="Grupo_55181" data-name="Grupo 55181">
              <g id="Grupo_55180" data-name="Grupo 55180">
                <path id="Trazado_104487" data-name="Trazado 104487" d="M2282.661,3071.151c-5.218-2.47-20.743-6.557-20.9-6.6l.226-.859c.641.168,15.761,4.149,21.054,6.654Z" transform="translate(-2261.761 -3063.694)" fill="#54464c"/>
              </g>
            </g>
          </g>
          <g id="Grupo_55186" data-name="Grupo 55186" transform="translate(48.898)">
            <g id="Grupo_55184" data-name="Grupo 55184">
              <g id="Grupo_55183" data-name="Grupo 55183">
                <path id="Trazado_104488" data-name="Trazado 104488" d="M2389.706,2858.29c-.822,3.093-8.853,11.195-8.853,11.195s-3.168-11.081-2.345-14.173,8.022-8.452,8.022-8.452S2390.529,2855.2,2389.706,2858.29Z" transform="translate(-2378.372 -2846.859)" fill="#7d6871"/>
              </g>
            </g>
            <g id="Grupo_55185" data-name="Grupo 55185" transform="translate(0.837 7.077)">
              <path id="Trazado_104489" data-name="Trazado 104489" d="M2382.009,2891.954l-.879-.133c.1-.655,2.435-16.115,4.359-21.646l.839.292C2384.432,2875.92,2382.033,2891.793,2382.009,2891.954Z" transform="translate(-2381.13 -2870.175)" fill="#54464c"/>
            </g>
          </g>
          <g id="Grupo_55189" data-name="Grupo 55189" transform="translate(25.902 15.238)">
            <path id="Trazado_104490" data-name="Trazado 104490" d="M2314.169,2907.721c-.243,3.191-6.658,12.624-6.658,12.624s-5.139-10.315-4.9-13.506,6.344-9.776,6.344-9.776S2314.412,2904.531,2314.169,2907.721Z" transform="translate(-2302.606 -2897.063)" fill="#7d6871"/>
            <g id="Grupo_55188" data-name="Grupo 55188" transform="translate(4.224 7.499)">
              <g id="Grupo_55187" data-name="Grupo 55187">
                <path id="Trazado_104491" data-name="Trazado 104491" d="M2316.7,2943.848c-.023-.662-.551-16.289.33-22.078l.878.134c-.868,5.707-.325,21.752-.32,21.913Z" transform="translate(-2316.524 -2921.77)" fill="#54464c"/>
              </g>
            </g>
          </g>
        </g>
        <g id="Grupo_55192" data-name="Grupo 55192" transform="translate(965.536 2975.087)">
          <g id="Grupo_55191" data-name="Grupo 55191">
            <path id="Trazado_104492" data-name="Trazado 104492" d="M2455.377,3236.455q-.4,0-.8-.01a.351.351,0,0,1-.342-.359.359.359,0,0,1,.359-.341,32.309,32.309,0,0,0,4.148-.167.35.35,0,0,1,.074.7A32.93,32.93,0,0,1,2455.377,3236.455Zm-4.973-.384a.373.373,0,0,1-.054,0,32.305,32.305,0,0,1-4.14-.928.35.35,0,1,1,.2-.672,31.569,31.569,0,0,0,4.05.907.35.35,0,0,1-.053.7Zm12.508-.507a.35.35,0,0,1-.082-.69,31.523,31.523,0,0,0,3.961-1.236.35.35,0,1,1,.252.653,32.246,32.246,0,0,1-4.049,1.263A.352.352,0,0,1,2462.912,3235.564Zm-20.545-1.859a.346.346,0,0,1-.142-.031,32.423,32.423,0,0,1-3.756-1.975.35.35,0,1,1,.366-.6,31.747,31.747,0,0,0,3.675,1.933.35.35,0,0,1-.142.67Zm28.356-1.156a.35.35,0,0,1-.168-.657,31.86,31.86,0,0,0,3.5-2.225.35.35,0,0,1,.413.565,32.475,32.475,0,0,1-3.582,2.273A.345.345,0,0,1,2470.723,3232.549Zm-35.5-3.222a.351.351,0,0,1-.22-.078,32.7,32.7,0,0,1-3.117-2.879.35.35,0,1,1,.508-.482,31.974,31.974,0,0,0,3.05,2.817.35.35,0,0,1-.22.622Zm42.264-1.719a.35.35,0,0,1-.242-.6,32.023,32.023,0,0,0,2.813-3.053.35.35,0,1,1,.545.439,32.666,32.666,0,0,1-2.874,3.121A.349.349,0,0,1,2477.487,3227.608Zm-48.033-4.351a.35.35,0,0,1-.283-.145,32.618,32.618,0,0,1-2.268-3.583.35.35,0,0,1,.615-.335,31.808,31.808,0,0,0,2.219,3.506.35.35,0,0,1-.282.556Zm53.294-2.167a.35.35,0,0,1-.3-.533,31.735,31.735,0,0,0,1.928-3.677.35.35,0,0,1,.64.283,32.285,32.285,0,0,1-1.97,3.759A.35.35,0,0,1,2482.748,3221.09Zm-57.3-5.183a.35.35,0,0,1-.327-.224,32.254,32.254,0,0,1-1.259-4.052.35.35,0,1,1,.681-.163,31.594,31.594,0,0,0,1.231,3.963.351.351,0,0,1-.326.476Zm-1.953-8.144a.35.35,0,0,1-.348-.314,32.93,32.93,0,0,1-.176-3.4q0-.422.011-.841a.35.35,0,1,1,.7.017q-.01.411-.01.824a32.274,32.274,0,0,0,.172,3.324.35.35,0,0,1-.312.384Zm.217-8.372a.319.319,0,0,1-.055,0,.35.35,0,0,1-.292-.4,32.25,32.25,0,0,1,.932-4.139.35.35,0,0,1,.671.2,31.56,31.56,0,0,0-.912,4.049A.35.35,0,0,1,2423.714,3199.39Zm2.375-8.033a.35.35,0,0,1-.32-.493,32.407,32.407,0,0,1,1.98-3.754.35.35,0,1,1,.6.367,31.781,31.781,0,0,0-1.937,3.672A.35.35,0,0,1,2426.09,3191.358Zm57.492-2.2a.35.35,0,0,1-.308-.184,31.891,31.891,0,0,0-2.212-3.513.35.35,0,0,1,.567-.411,32.466,32.466,0,0,1,2.261,3.591.35.35,0,0,1-.307.517Zm-53.107-4.942a.35.35,0,0,1-.272-.57,32.79,32.79,0,0,1,2.882-3.113.35.35,0,1,1,.482.508,32.094,32.094,0,0,0-2.82,3.046A.349.349,0,0,1,2430.475,3184.219Zm48.191-1.84a.35.35,0,0,1-.254-.11,32.016,32.016,0,0,0-3.043-2.824.35.35,0,1,1,.442-.543,32.77,32.77,0,0,1,3.11,2.886.35.35,0,0,1-.254.591Zm-42.113-3.922a.35.35,0,0,1-.206-.634,32.454,32.454,0,0,1,3.586-2.263.35.35,0,1,1,.334.615,31.786,31.786,0,0,0-3.508,2.215A.347.347,0,0,1,2436.553,3178.456Zm35.614-1.363a.349.349,0,0,1-.183-.052,31.7,31.7,0,0,0-3.67-1.941.35.35,0,0,1,.286-.639,32.5,32.5,0,0,1,3.75,1.984.35.35,0,0,1-.184.648Zm-28.259-2.631a.35.35,0,0,1-.125-.677,32.314,32.314,0,0,1,4.053-1.254.35.35,0,0,1,.163.681,31.5,31.5,0,0,0-3.965,1.227A.349.349,0,0,1,2443.908,3174.462Zm20.613-.79a.354.354,0,0,1-.1-.015,31.646,31.646,0,0,0-4.049-.917.35.35,0,1,1,.11-.691,32.327,32.327,0,0,1,4.139.938.35.35,0,0,1-.1.686Zm-12.467-1.152a.35.35,0,0,1-.035-.7,32.829,32.829,0,0,1,4.239-.16.35.35,0,0,1-.019.7,32.577,32.577,0,0,0-4.148.157Z" transform="translate(-2422.974 -3171.649)" fill="#b5ac84"/>
          </g>
        </g>
        <g id="Grupo_55199" data-name="Grupo 55199" transform="translate(1027.61 2965.27)">
          <g id="Grupo_55198" data-name="Grupo 55198">
            <g id="Grupo_55193" data-name="Grupo 55193">
              <path id="Trazado_104493" data-name="Trazado 104493" d="M2617.034,3256.625a9.817,9.817,0,1,1,9.817-9.817A9.828,9.828,0,0,1,2617.034,3256.625Zm0-18.6a8.783,8.783,0,1,0,8.783,8.784A8.794,8.794,0,0,0,2617.034,3238.024Z" transform="translate(-2607.217 -3236.991)" fill="#b5ac84"/>
            </g>
            <g id="Grupo_55194" data-name="Grupo 55194" transform="translate(4.403 8.461)">
              <path id="Trazado_104494" data-name="Trazado 104494" d="M2623.078,3267.58a1.355,1.355,0,1,1,1.355-1.356A1.357,1.357,0,0,1,2623.078,3267.58Zm0-2.022a.667.667,0,1,0,.667.667A.667.667,0,0,0,2623.078,3265.558Z" transform="translate(-2621.723 -3264.869)" fill="#b5ac84"/>
            </g>
            <g id="Grupo_55195" data-name="Grupo 55195" transform="translate(12.325 8.461)">
              <path id="Trazado_104495" data-name="Trazado 104495" d="M2649.18,3267.58a1.355,1.355,0,1,1,1.355-1.356A1.357,1.357,0,0,1,2649.18,3267.58Zm0-2.022a.667.667,0,1,0,.667.667A.667.667,0,0,0,2649.18,3265.558Z" transform="translate(-2647.825 -3264.869)" fill="#b5ac84"/>
            </g>
            <g id="Grupo_55196" data-name="Grupo 55196" transform="translate(8.364 4.5)">
              <path id="Trazado_104496" data-name="Trazado 104496" d="M2634.774,3253.173a1.355,1.355,0,1,1,1.356,1.355A1.357,1.357,0,0,1,2634.774,3253.173Zm2.022,0a.667.667,0,1,0-.666.667A.667.667,0,0,0,2636.8,3253.173Z" transform="translate(-2634.774 -3251.818)" fill="#b5ac84"/>
            </g>
            <g id="Grupo_55197" data-name="Grupo 55197" transform="translate(8.364 12.423)">
              <path id="Trazado_104497" data-name="Trazado 104497" d="M2634.774,3279.275a1.355,1.355,0,1,1,1.356,1.355A1.357,1.357,0,0,1,2634.774,3279.275Zm2.022,0a.667.667,0,1,0-.666.667A.667.667,0,0,0,2636.8,3279.275Z" transform="translate(-2634.774 -3277.92)" fill="#b5ac84"/>
            </g>
          </g>
        </g>
        <g id="Grupo_55218" data-name="Grupo 55218" transform="translate(495.904 2863.655)">
          <g id="Grupo_55217" data-name="Grupo 55217" transform="translate(0 0)">
            <g id="Grupo_55203" data-name="Grupo 55203" transform="translate(14.536 8.915)">
              <g id="Grupo_55200" data-name="Grupo 55200" transform="translate(0 17.782)">
                <path id="Trazado_104498" data-name="Trazado 104498" d="M387.486,2939.16a.35.35,0,0,1-.29-.546c.392-.582.8-1.163,1.223-1.727a.35.35,0,0,1,.562.418c-.413.554-.818,1.127-1.2,1.7A.35.35,0,0,1,387.486,2939.16Z" transform="translate(-387.136 -2936.747)" fill="#b5ac84"/>
              </g>
              <g id="Grupo_55201" data-name="Grupo 55201" transform="translate(3.595 1.125)">
                <path id="Trazado_104499" data-name="Trazado 104499" d="M399.329,2896.288a.35.35,0,0,1-.262-.582c.837-.947,1.725-1.873,2.638-2.748a.35.35,0,0,1,.484.505c-.9.862-1.774,1.773-2.6,2.706A.348.348,0,0,1,399.329,2896.288Zm5.455-5.225a.35.35,0,0,1-.22-.622c.985-.8,2.014-1.561,3.059-2.27a.35.35,0,1,1,.393.579c-1.029.7-2.042,1.45-3.012,2.235A.347.347,0,0,1,404.784,2891.063Zm6.25-4.243a.35.35,0,0,1-.172-.655c1.1-.62,2.246-1.2,3.4-1.725a.35.35,0,0,1,.291.637c-1.132.516-2.258,1.088-3.344,1.7A.345.345,0,0,1,411.034,2886.82Zm6.873-3.133a.35.35,0,0,1-.118-.68c1.193-.426,2.417-.806,3.639-1.128a.35.35,0,1,1,.179.677c-1.2.318-2.408.691-3.582,1.11A.348.348,0,0,1,417.907,2883.688Z" transform="translate(-398.979 -2881.868)" fill="#b5ac84"/>
              </g>
              <g id="Grupo_55202" data-name="Grupo 55202" transform="translate(29.481)">
                <path id="Trazado_104500" data-name="Trazado 104500" d="M484.618,2879.175a.35.35,0,0,1-.06-.695c.691-.121,1.4-.228,2.093-.317a.35.35,0,0,1,.088.7c-.687.087-1.38.192-2.061.311A.342.342,0,0,1,484.618,2879.175Z" transform="translate(-484.268 -2878.161)" fill="#b5ac84"/>
              </g>
            </g>
            <g id="Grupo_55207" data-name="Grupo 55207" transform="translate(6.919 9.723)">
              <g id="Grupo_55204" data-name="Grupo 55204" transform="translate(55.137)">
                <path id="Trazado_104501" data-name="Trazado 104501" d="M546.085,2882.048a.349.349,0,0,1-.1-.013c-.667-.189-1.346-.364-2.018-.52a.35.35,0,0,1,.158-.682c.683.159,1.372.337,2.05.528a.35.35,0,0,1-.1.687Z" transform="translate(-543.701 -2880.824)" fill="#b5ac84"/>
              </g>
              <g id="Grupo_55205" data-name="Grupo 55205" transform="translate(0.067 1.883)">
                <path id="Trazado_104502" data-name="Trazado 104502" d="M408.071,2974.529a.35.35,0,0,1,0-.7c1.41-.019,2.833-.105,4.228-.256a.35.35,0,1,1,.075.7c-1.417.153-2.861.24-4.293.26Zm-4.266-.141h-.029c-1.427-.114-2.863-.3-4.267-.547a.35.35,0,1,1,.122-.689c1.382.244,2.8.426,4.2.538a.35.35,0,0,1-.028.7Zm12.743-.776a.35.35,0,0,1-.07-.693c1.379-.284,2.759-.637,4.1-1.051a.35.35,0,0,1,.206.669c-1.365.42-2.767.78-4.168,1.068A.355.355,0,0,1,416.549,2973.612Zm-21.14-.71a.349.349,0,0,1-.094-.012c-1.377-.382-2.752-.836-4.086-1.347a.35.35,0,0,1,.251-.654c1.313.5,2.666.95,4.022,1.327a.35.35,0,0,1-.094.687Zm29.291-1.8a.35.35,0,0,1-.134-.674c1.3-.539,2.585-1.149,3.828-1.812a.35.35,0,0,1,.329.618c-1.263.673-2.571,1.292-3.888,1.84A.345.345,0,0,1,424.7,2971.1Zm-37.254-1.257a.346.346,0,0,1-.156-.037c-1.278-.636-2.542-1.343-3.756-2.1a.35.35,0,1,1,.37-.594c1.2.745,2.439,1.44,3.7,2.067a.35.35,0,0,1-.156.663Zm44.78-2.755a.35.35,0,0,1-.194-.642c1.172-.777,2.323-1.619,3.417-2.5a.35.35,0,1,1,.44.545c-1.112.9-2.279,1.754-3.47,2.543A.35.35,0,0,1,432.225,2967.091Zm-52.018-1.755a.348.348,0,0,1-.212-.072c-1.135-.866-2.242-1.8-3.292-2.77a.35.35,0,1,1,.475-.514c1.034.957,2.125,1.875,3.242,2.728a.35.35,0,0,1-.212.628Zm58.652-3.606a.35.35,0,0,1-.245-.6c1.006-.984,1.977-2.028,2.886-3.1a.35.35,0,1,1,.535.452c-.923,1.091-1.909,2.15-2.931,3.15A.348.348,0,0,1,438.859,2961.73Zm-64.912-2.188a.349.349,0,0,1-.261-.116c-.954-1.066-1.866-2.19-2.713-3.34a.35.35,0,0,1,.564-.415c.834,1.132,1.732,2.238,2.672,3.288a.35.35,0,0,1-.261.583Zm70.42-4.324a.35.35,0,0,1-.287-.55c.8-1.155,1.56-2.363,2.25-3.589a.35.35,0,1,1,.61.343c-.7,1.246-1.469,2.472-2.285,3.646A.349.349,0,0,1,444.367,2955.218Zm-75.479-2.542a.351.351,0,0,1-.3-.17c-.735-1.226-1.419-2.5-2.034-3.791a.35.35,0,0,1,.632-.3c.605,1.27,1.279,2.526,2,3.732a.35.35,0,0,1-.12.48A.345.345,0,0,1,368.888,2952.675Zm79.66-4.892a.341.341,0,0,1-.142-.031.349.349,0,0,1-.178-.461c.57-1.288,1.084-2.617,1.528-3.951a.35.35,0,1,1,.664.221c-.451,1.355-.973,2.706-1.553,4.013A.35.35,0,0,1,448.548,2947.783Zm-83.33-2.807a.35.35,0,0,1-.329-.23c-.489-1.343-.918-2.725-1.277-4.109a.35.35,0,0,1,.678-.175c.352,1.362.775,2.723,1.257,4.044a.351.351,0,0,1-.329.47Zm86.023-5.286a.35.35,0,0,1-.341-.428c.314-1.369.566-2.772.749-4.168a.35.35,0,0,1,.694.09c-.185,1.419-.441,2.844-.761,4.235A.35.35,0,0,1,451.242,2939.691Zm-88.161-2.97a.35.35,0,0,1-.345-.295c-.224-1.409-.384-2.848-.474-4.276a.35.35,0,0,1,.7-.044c.089,1.406.246,2.823.467,4.21a.35.35,0,0,1-.291.4A.328.328,0,0,1,363.08,2936.721Zm89.269-5.485h-.012a.351.351,0,0,1-.337-.363c.019-.536.029-1.081.029-1.618,0-.87-.025-1.751-.076-2.618a.35.35,0,1,1,.7-.041c.051.88.076,1.775.076,2.658,0,.546-.01,1.1-.029,1.643A.35.35,0,0,1,452.349,2931.236Zm-.5-8.515a.35.35,0,0,1-.345-.3c-.214-1.391-.5-2.788-.843-4.151a.35.35,0,1,1,.678-.172c.351,1.385.639,2.8.856,4.217a.35.35,0,0,1-.293.4A.4.4,0,0,1,451.853,2922.721Zm-2.094-8.268a.351.351,0,0,1-.33-.232c-.474-1.324-1.018-2.64-1.617-3.913a.35.35,0,1,1,.634-.3c.608,1.293,1.16,2.63,1.642,3.974a.351.351,0,0,1-.33.469Zm-3.627-7.715a.35.35,0,0,1-.3-.172c-.716-1.209-1.5-2.4-2.329-3.537a.35.35,0,1,1,.566-.412c.842,1.155,1.638,2.364,2.366,3.592a.35.35,0,0,1-.3.529Zm-5.022-6.893a.349.349,0,0,1-.262-.118c-.932-1.053-1.926-2.075-2.954-3.037a.35.35,0,0,1,.478-.512c1.044.977,2.053,2.015,3,3.084a.35.35,0,0,1-.262.582Zm-6.23-5.827a.349.349,0,0,1-.214-.073c-1.114-.86-2.283-1.677-3.473-2.427a.35.35,0,1,1,.373-.592c1.209.762,2.4,1.591,3.527,2.465a.35.35,0,0,1-.214.627Zm-7.217-4.55a.346.346,0,0,1-.157-.038c-1.257-.635-2.559-1.215-3.87-1.727a.35.35,0,0,1,.254-.652c1.332.52,2.655,1.109,3.931,1.754a.35.35,0,0,1-.158.663Z" transform="translate(-362.261 -2887.029)" fill="#b5ac84"/>
              </g>
              <g id="Grupo_55206" data-name="Grupo 55206" transform="translate(0 40.201)">
                <path id="Trazado_104503" data-name="Trazado 104503" d="M362.39,3016.073h-.011a.35.35,0,0,1-.339-.361c.022-.7.062-1.413.116-2.114a.35.35,0,0,1,.7.055c-.054.69-.092,1.39-.114,2.081A.35.35,0,0,1,362.39,3016.073Z" transform="translate(-362.039 -3013.276)" fill="#b5ac84"/>
              </g>
            </g>
            <g id="Grupo_55211" data-name="Grupo 55211" transform="translate(14.536 8.915)">
              <g id="Grupo_55208" data-name="Grupo 55208" transform="translate(0 17.782)">
                <path id="Trazado_104504" data-name="Trazado 104504" d="M387.486,2939.16a.35.35,0,0,1-.29-.546c.392-.582.8-1.163,1.223-1.727a.35.35,0,0,1,.562.418c-.413.554-.818,1.127-1.2,1.7A.35.35,0,0,1,387.486,2939.16Z" transform="translate(-387.136 -2936.747)" fill="#b5ac84"/>
              </g>
              <g id="Grupo_55209" data-name="Grupo 55209" transform="translate(3.595 1.125)">
                <path id="Trazado_104505" data-name="Trazado 104505" d="M399.329,2896.288a.35.35,0,0,1-.262-.582c.837-.947,1.725-1.873,2.638-2.748a.35.35,0,0,1,.484.505c-.9.862-1.774,1.773-2.6,2.706A.348.348,0,0,1,399.329,2896.288Zm5.455-5.225a.35.35,0,0,1-.22-.622c.985-.8,2.014-1.561,3.059-2.27a.35.35,0,1,1,.393.579c-1.029.7-2.042,1.45-3.012,2.235A.347.347,0,0,1,404.784,2891.063Zm6.25-4.243a.35.35,0,0,1-.172-.655c1.1-.62,2.246-1.2,3.4-1.725a.35.35,0,0,1,.291.637c-1.132.516-2.258,1.088-3.344,1.7A.345.345,0,0,1,411.034,2886.82Zm6.873-3.133a.35.35,0,0,1-.118-.68c1.193-.426,2.417-.806,3.639-1.128a.35.35,0,1,1,.179.677c-1.2.318-2.408.691-3.582,1.11A.348.348,0,0,1,417.907,2883.688Z" transform="translate(-398.979 -2881.868)" fill="#b5ac84"/>
              </g>
              <g id="Grupo_55210" data-name="Grupo 55210" transform="translate(29.481)">
                <path id="Trazado_104506" data-name="Trazado 104506" d="M484.618,2879.175a.35.35,0,0,1-.06-.695c.691-.121,1.4-.228,2.093-.317a.35.35,0,0,1,.088.7c-.687.087-1.38.192-2.061.311A.342.342,0,0,1,484.618,2879.175Z" transform="translate(-484.268 -2878.161)" fill="#b5ac84"/>
              </g>
            </g>
            <g id="Grupo_55212" data-name="Grupo 55212" transform="translate(44.282)">
              <path id="Trazado_104507" data-name="Trazado 104507" d="M499.683,2865.886l-5.555-4.036-5.555,4.036,2.122-6.531-5.555-4.036h6.867l2.122-6.531,2.122,6.531h6.867l-5.555,4.036Zm-5.555-4.9,4.224,3.069-1.613-4.965,4.224-3.069h-5.221l-1.613-4.965-1.613,4.965h-5.221l4.224,3.069-1.614,4.965Z" transform="translate(-485.139 -2848.788)" fill="#b5ac84"/>
            </g>
            <g id="Grupo_55216" data-name="Grupo 55216" transform="translate(0 29.359)">
              <g id="Grupo_55213" data-name="Grupo 55213">
                <path id="Trazado_104508" data-name="Trazado 104508" d="M349.06,2965.149a9.817,9.817,0,1,1,9.817-9.816A9.828,9.828,0,0,1,349.06,2965.149Zm0-18.6a8.784,8.784,0,1,0,8.783,8.784A8.794,8.794,0,0,0,349.06,2946.549Z" transform="translate(-339.243 -2945.516)" fill="#b5ac84"/>
              </g>
              <g id="Grupo_55214" data-name="Grupo 55214" transform="translate(5.092 8.461)">
                <path id="Trazado_104509" data-name="Trazado 104509" d="M357.375,2976.1a1.355,1.355,0,1,1,1.355-1.355A1.357,1.357,0,0,1,357.375,2976.1Zm0-2.022a.666.666,0,1,0,.666.666A.667.667,0,0,0,357.375,2974.083Z" transform="translate(-356.019 -2973.394)" fill="#b5ac84"/>
              </g>
              <g id="Grupo_55215" data-name="Grupo 55215" transform="translate(11.637 8.461)">
                <path id="Trazado_104510" data-name="Trazado 104510" d="M378.937,2976.1a1.355,1.355,0,1,1,1.355-1.355A1.357,1.357,0,0,1,378.937,2976.1Zm0-2.022a.666.666,0,1,0,.666.666A.667.667,0,0,0,378.937,2974.083Z" transform="translate(-377.582 -2973.394)" fill="#b5ac84"/>
              </g>
            </g>
          </g>
        </g>
        <g id="Grupo_55246" data-name="Grupo 55246" transform="translate(887.746 3027.036)">
          <path id="Trazado_104511" data-name="Trazado 104511" d="M2480.875,3468.973c-2.326,1-11.289-.039-11.289-.039s5.346-7.384,7.671-8.383,9.177.862,9.177.862S2483.2,3467.974,2480.875,3468.973Z" transform="translate(-2410.746 -3456.194)" fill="#8f8b66"/>
          <g id="Grupo_55220" data-name="Grupo 55220" transform="translate(0 11.037)">
            <g id="Grupo_55219" data-name="Grupo 55219">
              <path id="Trazado_104512" data-name="Trazado 104512" d="M2276.406,3548.56l-.68-.18c13.173-49.681,62.118-65.051,62.6-65.147l.138.689C2337.986,3484.017,2289.478,3499.257,2276.406,3548.56Z" transform="translate(-2275.726 -3483.233)" fill="#b3ae7f"/>
            </g>
          </g>
          <g id="Grupo_55224" data-name="Grupo 55224" transform="translate(46.245 18.465)">
            <path id="Trazado_104513" data-name="Trazado 104513" d="M2452.069,3519.454c-2.362-.909-8.053-7.911-8.053-7.911s8.983-1.552,11.345-.643,5.967,7.026,5.967,7.026S2454.431,3520.363,2452.069,3519.454Z" transform="translate(-2439.182 -3509.732)" fill="#8f8b66"/>
            <g id="Grupo_55223" data-name="Grupo 55223">
              <g id="Grupo_55222" data-name="Grupo 55222">
                <g id="Grupo_55221" data-name="Grupo 55221">
                  <path id="Trazado_104514" data-name="Trazado 104514" d="M2444.62,3513.606c-4.127-1.954-16.407-5.186-16.531-5.219l.178-.68c.507.133,12.467,3.283,16.653,5.264Z" transform="translate(-2428.089 -3507.707)" fill="#b3ae7f"/>
                </g>
              </g>
            </g>
          </g>
          <g id="Grupo_55228" data-name="Grupo 55228" transform="translate(31.671 28.364)">
            <path id="Trazado_104515" data-name="Trazado 104515" d="M2404.054,3552.068c-2.362-.909-8.053-7.911-8.053-7.911s8.983-1.552,11.345-.643,5.967,7.026,5.967,7.026S2406.416,3552.977,2404.054,3552.068Z" transform="translate(-2391.167 -3542.346)" fill="#8f8b66"/>
            <g id="Grupo_55227" data-name="Grupo 55227">
              <g id="Grupo_55226" data-name="Grupo 55226">
                <g id="Grupo_55225" data-name="Grupo 55225">
                  <path id="Trazado_104516" data-name="Trazado 104516" d="M2396.605,3546.22c-4.128-1.953-16.407-5.186-16.531-5.219l.178-.68c.507.133,12.467,3.282,16.653,5.264Z" transform="translate(-2380.074 -3540.321)" fill="#b3ae7f"/>
                </g>
              </g>
            </g>
          </g>
          <g id="Grupo_55232" data-name="Grupo 55232" transform="translate(19.71 40.188)">
            <path id="Trazado_104517" data-name="Trazado 104517" d="M2364.646,3591.023c-2.362-.909-8.053-7.912-8.053-7.912s8.982-1.552,11.345-.643,5.966,7.026,5.966,7.026S2367.008,3591.932,2364.646,3591.023Z" transform="translate(-2351.759 -3581.302)" fill="#8f8b66"/>
            <g id="Grupo_55231" data-name="Grupo 55231">
              <g id="Grupo_55230" data-name="Grupo 55230">
                <g id="Grupo_55229" data-name="Grupo 55229">
                  <path id="Trazado_104518" data-name="Trazado 104518" d="M2357.2,3585.176c-4.128-1.953-16.408-5.186-16.531-5.219l.179-.679c.507.133,12.467,3.282,16.653,5.263Z" transform="translate(-2340.665 -3579.277)" fill="#b3ae7f"/>
                </g>
              </g>
            </g>
          </g>
          <g id="Grupo_55236" data-name="Grupo 55236" transform="translate(10.682 52.057)">
            <path id="Trazado_104519" data-name="Trazado 104519" d="M2334.9,3630.13c-2.362-.909-8.053-7.912-8.053-7.912s8.983-1.551,11.345-.642,5.967,7.026,5.967,7.026S2337.263,3631.039,2334.9,3630.13Z" transform="translate(-2322.014 -3620.408)" fill="#8f8b66"/>
            <g id="Grupo_55235" data-name="Grupo 55235">
              <g id="Grupo_55234" data-name="Grupo 55234">
                <g id="Grupo_55233" data-name="Grupo 55233">
                  <path id="Trazado_104520" data-name="Trazado 104520" d="M2327.452,3624.281c-4.127-1.953-16.407-5.186-16.531-5.218l.178-.68c.507.133,12.467,3.282,16.653,5.263Z" transform="translate(-2310.921 -3618.383)" fill="#b3ae7f"/>
                </g>
              </g>
            </g>
          </g>
          <g id="Grupo_55241" data-name="Grupo 55241" transform="translate(38.678)">
            <g id="Grupo_55239" data-name="Grupo 55239">
              <g id="Grupo_55238" data-name="Grupo 55238">
                <g id="Grupo_55237" data-name="Grupo 55237">
                  <path id="Trazado_104521" data-name="Trazado 104521" d="M2412.124,3455.912c-.651,2.446-7,8.855-7,8.855s-2.506-8.765-1.855-11.211,6.346-6.686,6.346-6.686S2412.774,3453.466,2412.124,3455.912Z" transform="translate(-2403.158 -3446.87)" fill="#8f8b66"/>
                </g>
              </g>
            </g>
            <g id="Grupo_55240" data-name="Grupo 55240" transform="translate(0.662 5.597)">
              <path id="Trazado_104522" data-name="Trazado 104522" d="M2406.035,3482.538l-.7-.1c.078-.518,1.926-12.747,3.448-17.122l.663.231C2407.952,3469.856,2406.054,3482.412,2406.035,3482.538Z" transform="translate(-2405.34 -3465.312)" fill="#b3ae7f"/>
            </g>
          </g>
          <g id="Grupo_55245" data-name="Grupo 55245" transform="translate(20.488 12.053)">
            <path id="Trazado_104523" data-name="Trazado 104523" d="M2352.375,3495.011c-.193,2.524-5.267,9.985-5.267,9.985s-4.065-8.16-3.872-10.683,5.018-7.732,5.018-7.732S2352.568,3492.487,2352.375,3495.011Z" transform="translate(-2343.229 -3486.581)" fill="#8f8b66"/>
            <g id="Grupo_55244" data-name="Grupo 55244" transform="translate(3.341 5.932)">
              <g id="Grupo_55243" data-name="Grupo 55243">
                <g id="Grupo_55242" data-name="Grupo 55242">
                  <path id="Trazado_104524" data-name="Trazado 104524" d="M2354.378,3523.586c-.018-.524-.435-12.884.261-17.463l.695.105c-.686,4.515-.258,17.206-.253,17.333Z" transform="translate(-2354.238 -3506.124)" fill="#b3ae7f"/>
                </g>
              </g>
            </g>
          </g>
        </g>
        <g id="Grupo_55249" data-name="Grupo 55249" transform="translate(563.939 2973.338)">
          <path id="Trazado_104525" data-name="Trazado 104525" d="M641.845,3271.538c2.6,1.869,7.313,12.256,7.313,12.256s-11.483-.981-14.08-2.85a5.794,5.794,0,1,1,6.767-9.406Z" transform="translate(-632.667 -3270.447)" fill="#7d6871"/>
          <path id="Trazado_104526" data-name="Trazado 104526" d="M725.652,3367.8a.533.533,0,0,1-.484-.309c-.171-.37-17.584-37.336-58.705-68.862a.533.533,0,0,1,.649-.847c41.341,31.7,58.852,68.889,59.024,69.261a.533.533,0,0,1-.483.757Z" transform="translate(-656.06 -3289.406)" fill="#54464c"/>
          <g id="Grupo_55247" data-name="Grupo 55247" transform="translate(11.075 22.87)">
            <path id="Trazado_104527" data-name="Trazado 104527" d="M673.909,3345.856c3.148-.575,13.9,3.23,13.9,3.23s-8.67,7.593-11.818,8.168a5.794,5.794,0,0,1-2.084-11.4Z" transform="translate(-669.156 -3345.797)" fill="#7d6871"/>
            <path id="Trazado_104528" data-name="Trazado 104528" d="M687.4,3357.827a.533.533,0,0,1-.1-1.056c9.615-1.889,13.681-2.771,13.721-2.779a.533.533,0,1,1,.226,1.042c-.04.009-4.114.892-13.742,2.783A.5.5,0,0,1,687.4,3357.827Z" transform="translate(-681.493 -3351.496)" fill="#54464c"/>
          </g>
          <g id="Grupo_55248" data-name="Grupo 55248" transform="translate(38.489 18.946)">
            <path id="Trazado_104529" data-name="Trazado 104529" d="M771.01,3339.312c-.358,3.18-7.108,12.376-7.108,12.376s-4.765-10.494-4.407-13.673a5.794,5.794,0,0,1,11.515,1.3Z" transform="translate(-759.476 -3332.869)" fill="#7d6871"/>
            <path id="Trazado_104530" data-name="Trazado 104530" d="M772.76,3365.541h-.043a.533.533,0,0,1-.489-.573c0-.041.334-4.2,1.3-13.96a.533.533,0,0,1,1.061.105c-.969,9.75-1.3,13.9-1.3,13.939A.533.533,0,0,1,772.76,3365.541Z" transform="translate(-768.356 -3345.166)" fill="#54464c"/>
          </g>
        </g>
        <g id="Grupo_55250" data-name="Grupo 55250" transform="translate(539.243 3001.804)">
          <path id="Trazado_104531" data-name="Trazado 104531" d="M589.962,3393.719c37.694-.939,63.225,26.588,65.815,50.087,0,0-22.636-.077-28.8-3.023s-14.233-21.831-15.76-24.954-8.367-13.631-8.367-13.631Z" transform="translate(-589.962 -3393.695)" fill="#8f8b66"/>
          <path id="Trazado_104532" data-name="Trazado 104532" d="M589.962,3393.772c26.112,7.819,21.776,26.81,31.689,37.906s34.126,12.182,34.126,12.182c-41.926,8.271-43.154-15.558-48.459-29.784A39.653,39.653,0,0,0,589.962,3393.772Z" transform="translate(-589.962 -3393.749)" fill="#54464c"/>
          <path id="Trazado_104533" data-name="Trazado 104533" d="M752.151,3511.488q-4.8-6.431-8.956-12.04c-10.592-14.259-18.469-24.862-25.409-33.187l.631-6.7a.888.888,0,1,0-1.769-.166l-.467,4.965a123.446,123.446,0,0,0-13.855-14.139.879.879,0,0,0,0-.385l-2.62-11.295a.888.888,0,0,0-1.73.4l2.2,9.505a95.087,95.087,0,0,0-11.907-8.1.888.888,0,0,0-.891,1.537A91.548,91.548,0,0,1,709,3458.959L691.328,3458a.888.888,0,0,0-.324,1.731.849.849,0,0,0,.228.042l19.439,1.059c.023,0,.044-.009.067-.01,1.7,1.853,3.431,3.844,5.234,6a.88.88,0,0,0,.6.8c.026.009.055.011.083.018,6.744,8.141,14.521,18.607,25.117,32.871q4.176,5.622,8.958,12.042a.888.888,0,0,0,1.424-1.062Z" transform="translate(-657.507 -3424.449)" fill="#b3ae7f"/>
        </g>
        <g id="Grupo_55251" data-name="Grupo 55251" transform="translate(557.411 3075.794)">
          <path id="Trazado_104534" data-name="Trazado 104534" d="M655.576,3597.989c-14.812-2.983-29.23,6.57-29.23,6.57s9.6,14.389,24.409,17.372,29.23-6.57,29.23-6.57S670.389,3600.972,655.576,3597.989Z" transform="translate(-626.346 -3597.412)" fill="#8f8b66"/>
          <path id="Trazado_104535" data-name="Trazado 104535" d="M720.5,3645.592a.461.461,0,0,1-.577-.035,97,97,0,0,0-23.253-14.489,125.331,125.331,0,0,0-44.475-10.252.46.46,0,0,1,.035-.919,126.312,126.312,0,0,1,44.819,10.333,97.951,97.951,0,0,1,23.5,14.648.46.46,0,0,1,.029.65A.467.467,0,0,1,720.5,3645.592Z" transform="translate(-644.042 -3613.072)" fill="#b3ae7f"/>
          <path id="Trazado_104536" data-name="Trazado 104536" d="M696.586,3613.244a.461.461,0,0,1-.538,0l-8.9-6.475a.46.46,0,0,1,.541-.744l8.9,6.475a.46.46,0,0,1,.1.642A.467.467,0,0,1,696.586,3613.244Z" transform="translate(-668.563 -3603.347)" fill="#b3ae7f"/>
          <path id="Trazado_104537" data-name="Trazado 104537" d="M719.617,3635.774a.353.353,0,0,1-.033.021l-11.077,6.581a.46.46,0,1,1-.47-.791L719.115,3635a.46.46,0,0,1,.5.77Z" transform="translate(-683.085 -3623.55)" fill="#b3ae7f"/>
          <path id="Trazado_104538" data-name="Trazado 104538" d="M763.036,3628.069a.46.46,0,0,1-.62-.081l-6.233-7.492a.46.46,0,1,1,.707-.588l6.233,7.492a.46.46,0,0,1-.059.647Z" transform="translate(-716.701 -3612.966)" fill="#b3ae7f"/>
        </g>
        <g id="Grupo_55256" data-name="Grupo 55256" transform="translate(578.064 2867.934)">
          <g id="Grupo_55255" data-name="Grupo 55255" transform="translate(0 0)">
            <g id="Grupo_55252" data-name="Grupo 55252">
              <path id="Trazado_104539" data-name="Trazado 104539" d="M677.16,2901.26a5.661,5.661,0,1,1,5.661-5.661A5.667,5.667,0,0,1,677.16,2901.26Zm0-10.726a5.065,5.065,0,1,0,5.065,5.065A5.071,5.071,0,0,0,677.16,2890.534Z" transform="translate(-671.499 -2889.938)" fill="#b5ac84"/>
            </g>
            <g id="Grupo_55253" data-name="Grupo 55253" transform="translate(2.539 4.879)">
              <path id="Trazado_104540" data-name="Trazado 104540" d="M680.646,2907.577a.782.782,0,1,1,.782-.781A.782.782,0,0,1,680.646,2907.577Zm0-1.166a.384.384,0,1,0,.384.384A.385.385,0,0,0,680.646,2906.412Z" transform="translate(-679.864 -2906.014)" fill="#b5ac84"/>
            </g>
            <g id="Grupo_55254" data-name="Grupo 55254" transform="translate(7.107 4.879)">
              <path id="Trazado_104541" data-name="Trazado 104541" d="M695.7,2907.577a.782.782,0,1,1,.781-.781A.782.782,0,0,1,695.7,2907.577Zm0-1.166a.384.384,0,1,0,.384.384A.385.385,0,0,0,695.7,2906.412Z" transform="translate(-694.916 -2906.014)" fill="#b5ac84"/>
            </g>
          </g>
        </g>
        <g id="Grupo_55261" data-name="Grupo 55261" transform="translate(983.672 2887.486)">
          <g id="Grupo_55260" data-name="Grupo 55260" transform="translate(0 0)">
            <g id="Grupo_55257" data-name="Grupo 55257">
              <path id="Trazado_104542" data-name="Trazado 104542" d="M2522.479,2992.035a5.661,5.661,0,1,1,5.661-5.661A5.667,5.667,0,0,1,2522.479,2992.035Zm0-10.726a5.065,5.065,0,1,0,5.065,5.065A5.07,5.07,0,0,0,2522.479,2981.309Z" transform="translate(-2516.818 -2980.713)" fill="#b5ac84"/>
            </g>
            <g id="Grupo_55258" data-name="Grupo 55258" transform="translate(2.539 4.88)">
              <path id="Trazado_104543" data-name="Trazado 104543" d="M2525.966,2998.353a.781.781,0,1,1,.781-.781A.783.783,0,0,1,2525.966,2998.353Zm0-1.166a.384.384,0,1,0,.384.384A.385.385,0,0,0,2525.966,2997.187Z" transform="translate(-2525.184 -2996.79)" fill="#b5ac84"/>
            </g>
            <g id="Grupo_55259" data-name="Grupo 55259" transform="translate(7.107 4.88)">
              <path id="Trazado_104544" data-name="Trazado 104544" d="M2541.017,2998.353a.781.781,0,1,1,.781-.781A.782.782,0,0,1,2541.017,2998.353Zm0-1.166a.384.384,0,1,0,.384.384A.385.385,0,0,0,2541.017,2997.187Z" transform="translate(-2540.235 -2996.79)" fill="#b5ac84"/>
            </g>
          </g>
        </g>
        <g id="Grupo_55270" data-name="Grupo 55270" transform="translate(882.053 2913.234)">
          <g id="Grupo_55269" data-name="Grupo 55269">
            <g id="Grupo_55262" data-name="Grupo 55262" transform="translate(0 2.651)">
              <path id="Trazado_104545" data-name="Trazado 104545" d="M2253.84,2893.055h-11.861V2874.6h11.861Zm-10.957-.9h10.054V2875.5h-10.054Z" transform="translate(-2241.979 -2874.597)" fill="#b5ac84"/>
            </g>
            <g id="Grupo_55263" data-name="Grupo 55263" transform="translate(3.299)">
              <path id="Trazado_104546" data-name="Trazado 104546" d="M2258.111,2869.358h-5.263v-3.5h5.263Zm-4.359-.9h3.456v-1.689h-3.456Z" transform="translate(-2252.848 -2865.862)" fill="#b5ac84"/>
            </g>
            <g id="Grupo_55264" data-name="Grupo 55264" transform="translate(3.299 20.232)">
              <path id="Trazado_104547" data-name="Trazado 104547" d="M2258.111,2936.017h-5.263v-3.5h5.263Zm-4.359-.9h3.456v-1.688h-3.456Z" transform="translate(-2252.848 -2932.521)" fill="#b5ac84"/>
            </g>
            <g id="Grupo_55265" data-name="Grupo 55265" transform="translate(1.158 4.104)">
              <path id="Trazado_104548" data-name="Trazado 104548" d="M2254.692,2885.729a.469.469,0,0,1-.118-.016c-1.637-.442-6.742-2.6-8.705-5.632a.452.452,0,0,1,.759-.491c1.8,2.779,6.7,4.85,8.182,5.25a.452.452,0,0,1-.117.888Z" transform="translate(-2245.796 -2879.385)" fill="#b5ac84"/>
            </g>
            <g id="Grupo_55266" data-name="Grupo 55266" transform="translate(1.158 6.99)">
              <path id="Trazado_104549" data-name="Trazado 104549" d="M2254.692,2895.237a.458.458,0,0,1-.118-.016c-1.637-.442-6.742-2.6-8.705-5.632a.452.452,0,1,1,.759-.49c1.8,2.779,6.7,4.849,8.182,5.25a.452.452,0,0,1-.117.888Z" transform="translate(-2245.796 -2888.893)" fill="#b5ac84"/>
            </g>
            <g id="Grupo_55267" data-name="Grupo 55267" transform="translate(1.158 9.876)">
              <path id="Trazado_104550" data-name="Trazado 104550" d="M2254.692,2904.745a.448.448,0,0,1-.118-.016c-1.637-.442-6.742-2.6-8.705-5.632a.452.452,0,1,1,.759-.49c1.8,2.779,6.7,4.85,8.182,5.25a.452.452,0,0,1-.117.888Z" transform="translate(-2245.796 -2898.401)" fill="#b5ac84"/>
            </g>
            <g id="Grupo_55268" data-name="Grupo 55268" transform="translate(1.158 12.762)">
              <path id="Trazado_104551" data-name="Trazado 104551" d="M2254.692,2914.254a.438.438,0,0,1-.118-.016c-1.637-.441-6.742-2.6-8.705-5.632a.452.452,0,0,1,.759-.49c1.8,2.779,6.7,4.85,8.182,5.25a.452.452,0,0,1-.117.888Z" transform="translate(-2245.796 -2907.909)" fill="#b5ac84"/>
            </g>
          </g>
        </g>
        <path id="Trazado_104552" data-name="Trazado 104552" d="M2535.051,3256.976a.343.343,0,0,0-.381.3,2.033,2.033,0,0,1-1.1,1.33c-.794.451-2.582,1-5.625-.393-2.7-1.234-5.167-1.354-6.765-.327a3.4,3.4,0,0,0-1.228,1.371c-.023,0-.045-.007-.069-.007a1.483,1.483,0,0,0-1.483,1.482c0,.819.664,19.669,1.483,19.669s1.483-18.851,1.483-19.669a1.476,1.476,0,0,0-.74-1.276,2.724,2.724,0,0,1,.927-.991c1.4-.9,3.622-.761,6.106.374,3.321,1.519,5.342.881,6.251.366a2.682,2.682,0,0,0,1.445-1.854A.344.344,0,0,0,2535.051,3256.976Zm-14.359,4.049a.809.809,0,1,1-1.056-.766,4.22,4.22,0,0,0-.064.7.344.344,0,0,0,.689,0,3.41,3.41,0,0,1,.059-.612A.807.807,0,0,1,2520.693,3261.025Z" transform="translate(-1523.901 -255.989)" fill="#b5ac84"/>
        <g id="Grupo_55275" data-name="Grupo 55275" transform="translate(593.358 2954.551)">
          <g id="Grupo_55274" data-name="Grupo 55274" transform="translate(0)">
            <g id="Grupo_55271" data-name="Grupo 55271">
              <path id="Trazado_104553" data-name="Trazado 104553" d="M722.623,3247.1c-2.379-1.776.785-8.979,5.217-14.917s10.439-11.019,12.817-9.243-.785,8.979-5.217,14.916S725,3248.875,722.623,3247.1Zm17.658-23.656c-1.592-1.188-6.768,2.191-11.937,9.115s-6.937,12.848-5.345,14.037,6.768-2.19,11.937-9.115S741.872,3224.633,740.281,3223.444Z" transform="translate(-721.808 -3222.582)" fill="#b5ac84"/>
            </g>
            <g id="Grupo_55272" data-name="Grupo 55272" transform="translate(0.021 16.685)">
              <path id="Trazado_104554" data-name="Trazado 104554" d="M722.67,3285.388c-1.247-.931-1-3.3.565-5.394s3.764-3.006,5.011-2.075,1,3.3-.565,5.394S723.917,3286.318,722.67,3285.388Zm5.2-6.965c-.932-.7-2.824.2-4.131,1.947s-1.624,3.818-.692,4.514,2.824-.2,4.131-1.947S728.8,3279.118,727.87,3278.423Z" transform="translate(-721.877 -3277.555)" fill="#b5ac84"/>
            </g>
            <g id="Grupo_55273" data-name="Grupo 55273" transform="translate(10.839 0.316)">
              <path id="Trazado_104555" data-name="Trazado 104555" d="M762.2,3228.122a1.886,1.886,0,0,1,.412,2.6,8.886,8.886,0,0,1,1.145,1.869c2.214-4.2,2.946-7.654,1.582-8.672s-4.436.65-7.821,3.939a8.616,8.616,0,0,1,2.095.585A1.885,1.885,0,0,1,762.2,3228.122Z" transform="translate(-757.521 -3223.622)" fill="#b5ac84"/>
            </g>
          </g>
        </g>
        <g id="Grupo_55277" data-name="Grupo 55277" transform="translate(516.001 3048.12)">
          <g id="Grupo_55276" data-name="Grupo 55276" transform="translate(0 0)">
            <path id="Trazado_104556" data-name="Trazado 104556" d="M590.21,3527.056l-5.555-4.036-5.555,4.036,2.122-6.531-5.555-4.036h6.867l2.122-6.531,2.122,6.531h6.867l-5.555,4.036Zm-5.555-4.9,4.224,3.069-1.613-4.965,4.223-3.069h-5.221l-1.613-4.965-1.613,4.965h-5.221l4.224,3.069-1.614,4.965Z" transform="translate(-575.666 -3509.958)" fill="#b5ac84"/>
          </g>
        </g>
        <g id="Grupo_55279" data-name="Grupo 55279" transform="translate(980.344 3066.115)">
          <g id="Grupo_55278" data-name="Grupo 55278">
            <path id="Trazado_104557" data-name="Trazado 104557" d="M2446.089,3637.253l-5.555-4.036-5.555,4.036,2.122-6.531-5.556-4.036h6.867l2.122-6.531,2.122,6.531h6.867l-5.555,4.036Zm-5.555-4.9,4.223,3.068-1.613-4.965,4.224-3.069h-5.221l-1.614-4.965-1.614,4.965H2433.7l4.224,3.069-1.614,4.965Z" transform="translate(-2431.545 -3620.155)" fill="#b5ac84"/>
          </g>
        </g>
      </g>
    </g>
    <g id="Grupo_56582" data-name="Grupo 56582" transform="translate(-666.032 10563.121)">
      <g id="Grupo_56572" data-name="Grupo 56572" transform="translate(1099.734 4554.265)">
        <path id="Trazado_125114" data-name="Trazado 125114" d="M1190.941,4638.916s-.1-22.218-1.318-29.828-2.537-10.246-2.537-10.246c-1.319-7.812-6.7-12.175-17.755-15.32s-10.753-10.146-10.753-10.146v-9.333l-19.175,8.319c-.913,4.769-5.478,11.261-14.711,11.77a15.127,15.127,0,0,0-12.682,7.507c-4.058,5.782-2.029,18.972-2.029,18.972l-.71,1.014c-1.318,1.928-1.623,7.71-1.623,7.71s-.2,18.16-.507,21.407a12.75,12.75,0,0,0,.3,4.971l3.653,7.2,8.218,16.334v4.769l-1.826,5.174c-4.362,7.507-4.565,18.566-4.565,18.566l-1.928,5.58c-3.551,10.247-4.869,29.727-4.869,29.727s.2,25.464.507,27.291a30.977,30.977,0,0,1,.1,5.174l-1.521,5.377c-6.189,9.233-4.87,20.392-4.87,20.392v11.363h16.841l2.232-6.367c2.841-4.032,1.623-23.968,1.623-23.968a87.771,87.771,0,0,1,5.783-12.478c4.059-7.407,3.856-18.871,3.856-18.871,3.652-4.667,7.3-16.334,8.117-25.973a56.789,56.789,0,0,1,3.246-15.522l2.029-2.232s2.841,30.437,2.638,39.668,2.537,15.116,2.537,15.116c.608,8.117,1.623,8.522,1.623,8.522v2.029s.3.609-2.029,8.624.913,20.291.913,20.291l.71,10.146h15.624l.912-5.352s.406-.025,2.131-8.851-.1-21.61-1.522-25.972-1.826-19.784-1.826-19.784a39.091,39.091,0,0,0,2.739-6.6c5.377-15.826,3.45-35.813,3.45-35.813l-.609-26.581s9.842-8.927,15.015-18.87S1190.941,4638.916,1190.941,4638.916Zm-67.332,14.374s-2.434-9.943-4.937-12.784c0,0,3.856-2.3,3.856-11.228,0,0,.947,3.45,1.556,5.545S1123.609,4653.29,1123.609,4653.29Zm48.089-1.083c-1.556,5.884-3.787,7-3.787,7l-.812-13.291s.507-10.449,3.45-14.2c2.271-2.9,2.486-4.218,2.466-4.672-.021-.125-.032-.2-.032-.2a.637.637,0,0,1,.032.2c.23,1.409,1.8,10.221,5.345,12.18C1178.36,4639.221,1173.254,4646.323,1171.7,4652.207Z" transform="translate(-1099.843 -4563.451)" fill="#fff"/>
        <path id="Trazado_125115" data-name="Trazado 125115" d="M1117.351,4802.883h-17.506v-11.751c-.011-.067-1.258-11.321,4.9-20.557l1.494-5.277a30.071,30.071,0,0,0-.1-5.046c-.306-1.835-.5-26.311-.513-27.352.015-.225,1.365-19.677,4.891-29.855l1.908-5.523c.027-.917.425-11.478,4.617-18.691l1.773-5.046v-4.609l-11.828-23.454a12.824,12.824,0,0,1-.345-5.185c.3-3.193.5-21.193.505-21.374.013-.257.327-5.931,1.691-7.926l.625-.892c-.228-1.577-1.791-13.529,2.118-19.1a15.633,15.633,0,0,1,12.979-7.672c8.442-.465,13.357-6.263,14.35-11.454l.039-.2,19.907-8.637v9.926c-.011.29-.13,6.756,10.471,9.771,11.458,3.259,16.685,7.773,18.023,15.574.2.425,1.412,3.219,2.547,10.3,1.191,7.45,1.318,29.072,1.323,29.867.046.436.432,5.429-4.61,15.116-4.822,9.266-13.775,17.75-14.967,18.857l.605,26.405c.017.173,1.872,20.223-3.47,35.948a39.9,39.9,0,0,1-2.716,6.561c.039,1.342.478,15.5,1.8,19.573,1.449,4.452,3.254,17.363,1.532,26.166-1.23,6.3-1.8,8.259-2.134,8.876l-.962,5.642h-16.315l-.736-10.507c-.121-.434-3.235-12.4-.9-20.427,1.966-6.753,2.038-8.161,2.028-8.4l-.013-.027v-1.954c-.68-.818-1.26-3.875-1.617-8.591a37.3,37.3,0,0,1-2.543-15.223c.181-8.225-2.092-33.681-2.554-38.745l-1.388,1.526a57.9,57.9,0,0,0-3.194,15.346c-.811,9.63-4.438,21.269-8.113,26.07.011,1.386-.036,11.865-3.9,18.926a90.02,90.02,0,0,0-5.732,12.347c.093,1.558,1.118,19.991-1.667,24.092Zm-16.729-.778H1116.8l2.189-6.2c2.731-3.875,1.566-23.523,1.553-23.721l0-.076.024-.073a89.26,89.26,0,0,1,5.811-12.541c3.962-7.232,3.81-18.562,3.807-18.676l0-.138.085-.108c3.625-4.631,7.229-16.19,8.035-25.765a57.858,57.858,0,0,1,3.275-15.64l.072-.112,2.623-2.884.083.877c.028.3,2.84,30.564,2.638,39.713a36.9,36.9,0,0,0,2.5,14.944l.036.136c.51,6.813,1.3,8.05,1.437,8.214l.188.074v2.292c.1,1.118-1.214,5.875-2.045,8.731-2.277,7.818.884,19.961.916,20.083l.7,9.856h14.933l.909-5.331.1-.007c.171-.413.716-2.082,1.98-8.552,1.695-8.673-.082-21.391-1.51-25.776-1.422-4.367-1.829-19.263-1.845-19.9l0-.1.047-.09a39.087,39.087,0,0,0,2.709-6.521c5.292-15.58,3.455-35.468,3.436-35.667l-.615-26.787.131-.119c.1-.089,9.851-9,14.932-18.762,5.039-9.683,4.53-14.639,4.525-14.688l0-.044c0-.223-.115-22.276-1.314-29.769-1.189-7.432-2.487-10.108-2.5-10.135l-.036-.109c-1.264-7.49-6.328-11.839-17.478-15.01-11.224-3.191-11.049-10.237-11.036-10.536v-8.724l-18.445,8c-1.136,5.425-6.281,11.4-15.031,11.881a14.832,14.832,0,0,0-12.355,7.291c-3.951,5.638-2.013,18.61-1.994,18.74l.024.154-.8,1.143c-1.238,1.812-1.55,7.451-1.553,7.508-.007.726-.205,18.2-.508,21.423a12.61,12.61,0,0,0,.284,4.807l3.632,7.155,8.26,16.417-.022,4.99-1.826,5.175c-4.29,7.4-4.542,18.334-4.543,18.443l-.022.12-1.927,5.581c-3.493,10.081-4.836,29.431-4.85,29.625.071,8.768.266,25.78.5,27.2a30.819,30.819,0,0,1,.106,5.262l-.013.083-1.574,5.487c-6.037,9.009-4.819,20.021-4.806,20.131Zm66.827-142.455-.848-13.879c.02-.474.548-10.659,3.531-14.467,2.264-2.89,2.4-4.11,2.383-4.417l-.027-.158-.468-3.218,1.214,3.018a.961.961,0,0,1,.058.325c.163.973,1.726,9.967,5.147,11.857l.383.211-.255.355c-.051.071-5.084,7.112-6.6,12.858h0c-1.582,5.985-3.891,7.2-3.989,7.249Zm5.378-31.082a16.976,16.976,0,0,1-2.082,3.216c-2.833,3.615-3.362,13.879-3.367,13.983l.766,12.5c.717-.7,2.042-2.448,3.069-6.331l.376.1-.376-.1c1.381-5.226,5.442-11.277,6.483-12.775C1174.959,4637.25,1173.454,4631.58,1172.828,4628.568Zm-49.106,27.091-.6-2.448c-.024-.1-2.44-9.882-4.851-12.618l-.31-.352.4-.24c.035-.021,3.665-2.339,3.665-10.893v-2.885l.765,2.781s.946,3.446,1.554,5.541c.62,2.137-.415,17.927-.459,18.6Zm-4.6-15.253c1.7,2.247,3.3,7.313,4.14,10.3.321-5.434.754-14.52.339-15.945-.27-.932-.607-2.13-.9-3.174C1122.194,4637.306,1120,4639.677,1119.121,4640.406Z" transform="translate(-1099.734 -4563.282)"/>
      </g>
      <path id="Trazado_125116" data-name="Trazado 125116" d="M1179.786,4600.317c-.061-.083-6.305-8.151-19.459-4.123l-.228-.744c13.7-4.191,20.246,4.314,20.31,4.4Z" transform="translate(-13.412 -15.907)"/>
      <path id="Trazado_125117" data-name="Trazado 125117" d="M1123.571,4605.858l-.667-.4a33.945,33.945,0,0,1,10.164-9.765c7.2-4.692,12.319.82,12.371.875l-.576.523c-.191-.208-4.741-5.071-11.369-.747A33.88,33.88,0,0,0,1123.571,4605.858Z" transform="translate(-5.148 -15.798)"/>
      <path id="Trazado_125118" data-name="Trazado 125118" d="M1157.791,4591.479l-.432-.647c7.41-4.94,11.775-18.327,11.817-18.462l.742.237C1169.737,4573.167,1165.425,4586.389,1157.791,4591.479Z" transform="translate(-12.804 -11.036)"/>
      <path id="Trazado_125119" data-name="Trazado 125119" d="M1153.009,4591.69a13.5,13.5,0,0,1-3.121-11.936l.747.216a12.97,12.97,0,0,0,2.967,11.217Z" transform="translate(-11.07 -12.677)"/>
      <path id="Trazado_125120" data-name="Trazado 125120" d="M1154.981,4599.4a.9.9,0,0,1-.135-.011c-.676-.11-.928-.993-.954-1.095l.752-.2c.068.25.229.509.326.526.057,0,.288-.087.646-.638l.652.424C1156.1,4598.663,1155.623,4599.4,1154.981,4599.4Z" transform="translate(-12.033 -16.728)"/>
      <path id="Trazado_125121" data-name="Trazado 125121" d="M1153.267,4620.731c-1.11-6.058,1.423-16.213,1.449-16.314l.376.1c-.025.1-2.538,10.174-1.442,16.15Z" transform="translate(-11.832 -18.157)"/>
      <path id="Trazado_125122" data-name="Trazado 125122" d="M1168.476,4631.57a40.635,40.635,0,0,1-10.917-1.746l.12-.369c.1.033,9.989,3.2,16.48.881,6.433-2.3,7.305-6.973,7.313-7.02.016-.145.446-3.84,2.9-4.682l.126.367c-2.221.762-2.639,4.333-2.643,4.369-.01.06-.908,4.954-7.567,7.331A17.5,17.5,0,0,1,1168.476,4631.57Z" transform="translate(-12.848 -21.315)"/>
      <ellipse id="Elipse_4122" data-name="Elipse 4122" cx="1.285" cy="0.72" rx="1.285" ry="0.72" transform="translate(1158.13 4605.913)"/>
      <ellipse id="Elipse_4123" data-name="Elipse 4123" cx="1.285" cy="0.72" rx="1.285" ry="0.72" transform="translate(1122.824 4604.474)"/>
      <path id="Trazado_125123" data-name="Trazado 125123" d="M1136.994,4630.121c-5.616,0-9.881-1.418-12.713-4.236a13.615,13.615,0,0,1-3.641-10.172l.387.041a13.2,13.2,0,0,0,3.531,9.859c3.445,3.426,9.1,4.723,16.814,3.86l.044.386A39.612,39.612,0,0,1,1136.994,4630.121Z" transform="translate(-4.639 -20.666)"/>
      <path id="Trazado_125124" data-name="Trazado 125124" d="M1180,4593.894l-.162-.761a29.548,29.548,0,0,0,5.834-2.335l.364.687A29.664,29.664,0,0,1,1180,4593.894Z" transform="translate(-17.798 -15.131)"/>
      <ellipse id="Elipse_4124" data-name="Elipse 4124" cx="1.598" cy="0.837" rx="1.598" ry="0.837" transform="translate(1137.568 4643.629)"/>
      <path id="Trazado_125125" data-name="Trazado 125125" d="M1167.595,4693.521l-.673-.389c2.284-3.961,14.222-15.234,14.729-15.713l.534.566C1182.061,4678.1,1169.823,4689.658,1167.595,4693.521Z" transform="translate(-14.928 -34.377)"/>
      <path id="Trazado_125126" data-name="Trazado 125126" d="M1136.445,4691.5a75.881,75.881,0,0,0-7.01-14.233l.652-.424a76.7,76.7,0,0,1,7.093,14.4Z" transform="translate(-6.599 -34.248)"/>
      <path id="Trazado_125127" data-name="Trazado 125127" d="M1125.4,4694.431l-.667-.4c.034-.058,3.448-5.9,3.6-17.56l.778.01C1128.953,4688.371,1125.542,4694.19,1125.4,4694.431Z" transform="translate(-5.554 -34.166)"/>
      <path id="Trazado_125128" data-name="Trazado 125128" d="M1147.895,4725.984c-4.578,0-9.2-9.313-9.41-9.737-.049-.121-3.654-9.284-5.977-11.091-2.348-1.826-7.529-3.368-7.582-3.383l-.319-.094.479-3.479,1.636-3.7.4.355c.065.059,6.713,5.811,20.619,5.077,14.26-.743,22.429-2.593,26.487-6l.108-.064a.986.986,0,0,1,.89.157c1,.694,1.471,3.064,1.4,7.044l-.005.283-.271.082c-.1.031-10.248,3.125-13.865,6.149s-6.691,10.395-6.721,10.469c-.079.237-2.207,6.406-6.946,7.8A3.248,3.248,0,0,1,1147.895,4725.984Zm-22.429-24.859c1.195.373,5.375,1.75,7.52,3.417,2.49,1.938,6.06,11.008,6.211,11.393.038.076,5.174,10.422,9.4,9.17,4.348-1.278,6.416-7.265,6.436-7.326.138-.334,3.2-7.657,6.951-10.793,3.442-2.878,12.174-5.687,13.865-6.212.053-4.668-.7-5.806-1.03-6.079a.387.387,0,0,0-.183-.093c-4.276,3.52-12.323,5.348-26.858,6.1-12.471.653-19.11-3.677-20.769-4.941l-1.192,2.7Z" transform="translate(-5.526 -38.021)"/>
      <path id="Trazado_125129" data-name="Trazado 125129" d="M1157.021,4655.593c-3.6,0-4.513-3.584-4.522-3.623l.755-.184a3.948,3.948,0,0,0,4.632,2.955c3.968-.65,8.283-4.467,8.326-4.506l.518.581c-.184.163-4.53,4.007-8.718,4.693A6.125,6.125,0,0,1,1157.021,4655.593Z" transform="translate(-11.724 -28.337)"/>
      <path id="Trazado_125130" data-name="Trazado 125130" d="M1151.345,4672.5c-.112,0-.182,0-.2,0l.029-.778c.054.006,5.186.15,7.9-3.235,1.033-1.289,1.971-2.667,2.878-4,1.612-2.367,3-4.411,4.388-5.1l.348.7c-1.2.6-2.542,2.568-4.093,4.845-.916,1.344-1.861,2.733-2.914,4.046C1157,4672.3,1152.384,4672.5,1151.345,4672.5Z" transform="translate(-11.422 -30.368)"/>
      <path id="Trazado_125131" data-name="Trazado 125131" d="M1145.6,4673.657c-.212-.128-5.211-3.193-6.458-6.974a5.5,5.5,0,0,0-4.784-3.623l.04-.776c.043,0,4.2.261,5.482,4.156,1.158,3.51,6.072,6.523,6.122,6.552Z" transform="translate(-7.693 -31.014)"/>
      <path id="Trazado_125132" data-name="Trazado 125132" d="M1141.819,4655.53a10.419,10.419,0,0,1-1.692-.148,20.645,20.645,0,0,1-10.634-5.538l.562-.537a20.242,20.242,0,0,0,10.2,5.307c2,.328,3.515.07,4.5-.772a3.764,3.764,0,0,0,1.2-2.638l.778-.01a4.5,4.5,0,0,1-1.467,3.232A5.121,5.121,0,0,1,1141.819,4655.53Z" transform="translate(-6.612 -28.131)"/>
      <path id="Trazado_125133" data-name="Trazado 125133" d="M1130.531,4644.067a5.523,5.523,0,0,1-3.67-2.146,5.674,5.674,0,0,1-.449-4.837l.75.206a4.951,4.951,0,0,0,.344,4.195,4.779,4.779,0,0,0,3.112,1.809Z" transform="translate(-5.857 -25.415)"/>
      <path id="Trazado_125134" data-name="Trazado 125134" d="M1128.628,4636.528c-.047-.007-4.626-.729-3.984-6.583l.773.086c-.559,5.087,3.163,5.7,3.321,5.727Z" transform="translate(-5.521 -23.829)"/>
      <path id="Trazado_125135" data-name="Trazado 125135" d="M1179.474,4653.9a3.992,3.992,0,0,1-1.065-.123l.219-.746-.109.374.107-.374c.159.044,3.987,1.048,7.82-4.739l.649.43C1184.112,4653.23,1181.045,4653.9,1179.474,4653.9Z" transform="translate(-17.481 -27.906)"/>
      <path id="Trazado_125136" data-name="Trazado 125136" d="M1185.213,4638.461l-.152-.763c.043-.008,4.346-.9,5.6-3.905l.717.3C1189.964,4637.481,1185.406,4638.423,1185.213,4638.461Z" transform="translate(-18.959 -24.684)"/>
      <path id="Trazado_125137" data-name="Trazado 125137" d="M1173.821,4647.2l-.394-.671a15.04,15.04,0,0,1,8.082-1.748c6.249-1.462,5.883-5.283,5.865-5.446l.771-.094c.006.047.5,4.7-6.52,6.311l-.062.014-.063-.005A14.531,14.531,0,0,0,1173.821,4647.2Z" transform="translate(-16.374 -25.895)"/>
      <path id="Trazado_125138" data-name="Trazado 125138" d="M1164.421,4641.431c-4.974-3.23-11.031-1-11.092-.977l-.276-.728c.263-.1,6.48-2.4,11.792,1.053Z" transform="translate(-11.847 -25.815)"/>
      <path id="Trazado_125139" data-name="Trazado 125139" d="M1143.823,4640.533l-.4-.668c3.653-2.18,6.246.019,6.272.04l-.51.588C1149.1,4640.417,1146.976,4638.65,1143.823,4640.533Z" transform="translate(-9.707 -25.819)"/>
      <path id="Trazado_125140" data-name="Trazado 125140" d="M1125.268,4800.427l-.306-.714c13.294-5.712,11.552-49.605,11.533-50.049l.778-.033C1137.351,4751.46,1139.053,4794.506,1125.268,4800.427Z" transform="translate(-5.605 -50.421)"/>
      <path id="Trazado_125141" data-name="Trazado 125141" d="M1120.946,4823.167l-.623-.466c5.857-7.809,2.138-14.932,2.1-15l.684-.37C1123.148,4807.4,1127.111,4814.946,1120.946,4823.167Z" transform="translate(-4.575 -63.241)"/>
      <path id="Trazado_125142" data-name="Trazado 125142" d="M1121.784,4847.861l-.776-.039c0-.107.6-10.744,4.787-17.889l.671.394C1122.371,4837.306,1121.789,4847.757,1121.784,4847.861Z" transform="translate(-4.727 -68.263)"/>
      <path id="Trazado_125143" data-name="Trazado 125143" d="M1167.4,4842.522l-.778-.031c.006-.146.572-14.635-2.251-19.752l.681-.376C1167.98,4827.67,1167.427,4841.918,1167.4,4842.522Z" transform="translate(-14.362 -66.581)"/>
      <path id="Trazado_125144" data-name="Trazado 125144" d="M1168.041,4821.539a13.34,13.34,0,0,0-2.612-3.855l.526-.574a13.9,13.9,0,0,1,2.8,4.12Z" transform="translate(-14.597 -65.414)"/>
      <path id="Trazado_125145" data-name="Trazado 125145" d="M1179.229,4811.454l-.682-.375c2.138-3.887,1.185-9.5,1.174-9.552l.766-.135C1180.53,4801.631,1181.5,4807.323,1179.229,4811.454Z" transform="translate(-17.511 -61.922)"/>
      <path id="Trazado_125146" data-name="Trazado 125146" d="M1179.131,4798.236l-.423-.653c.052-.036,1.332-.978,4.915-7.308l.677.383C1180.606,4797.184,1179.271,4798.147,1179.131,4798.236Z" transform="translate(-17.547 -59.452)"/>
      <path id="Trazado_125147" data-name="Trazado 125147" d="M1160.161,4770.663l-.744-.225c3.124-10.37,2.6-33.331,2.589-33.561l.778-.02C1162.79,4737.089,1163.322,4760.173,1160.161,4770.663Z" transform="translate(-13.261 -47.583)"/>
      <g id="Grupo_56573" data-name="Grupo 56573" transform="translate(1128.454 4522.699)">
        <path id="Trazado_125148" data-name="Trazado 125148" d="M1142.695,4542.279s-2.232,15.726,6.24,22.727a7.529,7.529,0,0,0,4.21,2.284c2.536.354,7-2.689,10.855-7.356,0,0,3.044-3.754,3.856-6.7,0,0,2.029-2.942,2.232-4.768s2.841-6.9,1.928-12.377l-.406-3.957-1.116-3.552a7.638,7.638,0,0,0-7-3.957,9.444,9.444,0,0,0-2.874,0s-6.29-4.17-13.156,1.584a18.145,18.145,0,0,1-5.034,3.895c-2.778,1.319-3.995.3-3.995.3l1.014,2.232-2.029,1.116,1.623,2.028s-1.927.406-.3,1.42,3.348.71,3.754,2.436A6.534,6.534,0,0,1,1142.695,4542.279Z" transform="translate(-1136.827 -4522.803)" fill="#fff"/>
        <path id="Trazado_125149" data-name="Trazado 125149" d="M1153.391,4567.6a3.414,3.414,0,0,1-.47-.031,7.874,7.874,0,0,1-4.45-2.415c-8.495-7.013-6.423-22.384-6.331-23.035l.005-.028a6.421,6.421,0,0,0-.2-2.466c-.2-.862-.756-1.08-1.8-1.423a7.841,7.841,0,0,1-1.784-.771c-.231-.144-.932-.583-.821-1.2a1.1,1.1,0,0,1,.682-.735l-1.566-1.957,2.119-1.166-1.571-3.454,1.308,1.091s1.1.817,3.579-.357a17.888,17.888,0,0,0,4.91-3.8c6.461-5.424,12.5-2.328,13.515-1.741a10.239,10.239,0,0,1,2.865.029h.009a7.914,7.914,0,0,1,7.287,4.178l1.15,3.674.406,3.957c.674,4.042-.544,7.841-1.349,10.355a13.47,13.47,0,0,0-.578,2.1c-.2,1.784-1.972,4.464-2.262,4.892-.847,2.974-3.785,6.62-3.91,6.774C1160.343,4564.661,1156.117,4567.6,1153.391,4567.6Zm-10.482-25.363c-.064.476-2.011,15.656,6.1,22.361a7.266,7.266,0,0,0,4.016,2.2c2.359.327,6.776-2.708,10.5-7.22.028-.034,3-3.723,3.779-6.552l.055-.117c.02-.028,1.976-2.883,2.166-4.59a13.7,13.7,0,0,1,.611-2.257c.783-2.442,1.966-6.133,1.32-10.013l-.405-3.942-1.1-3.513a7.214,7.214,0,0,0-6.63-3.685,9.329,9.329,0,0,0-2.779-.012l-.166.042-.143-.094c-.247-.163-6.141-3.935-12.691,1.557a18.12,18.12,0,0,1-5.117,3.948,5.589,5.589,0,0,1-3.418.653l.773,1.7-1.94,1.067,1.727,2.16-.616.132a1.263,1.263,0,0,0-.648.306h0a1.261,1.261,0,0,0,.469.4,7.116,7.116,0,0,0,1.616.691c.982.324,2,.659,2.309,1.984A7.068,7.068,0,0,1,1142.909,4542.24Z" transform="translate(-1136.658 -4522.699)"/>
      </g>
      <path id="Trazado_125150" data-name="Trazado 125150" d="M1171.168,4550.472a.389.389,0,0,1-.38-.474,3.669,3.669,0,0,0-.45-2.966,1.617,1.617,0,0,0-1.328-.608c-1.6,0-1.707,3.3-1.708,3.337a.389.389,0,0,1-.389.382h-.676a.389.389,0,0,1-.387-.352l-.3-3.247a33.145,33.145,0,0,0-1.982-9.83c-2.271,3.1-3.978,3.129-6.489,3.168a26,26,0,0,0-3.065.181,79.243,79.243,0,0,1-12.559,0,.388.388,0,0,1-.357-.417.414.414,0,0,1,.419-.357,78.312,78.312,0,0,0,12.4,0,26.834,26.834,0,0,1,3.152-.187c2.591-.041,4.018-.062,6.281-3.432a.367.367,0,0,1,.362-.17.389.389,0,0,1,.321.239,33.849,33.849,0,0,1,2.294,10.759l.247,2.625c.127-1.15.608-3.479,2.442-3.479a2.388,2.388,0,0,1,1.935.9,4.457,4.457,0,0,1,.6,3.622A.39.39,0,0,1,1171.168,4550.472Z" transform="translate(-9.19 -2.844)"/>
      <path id="Trazado_125151" data-name="Trazado 125151" d="M1168.961,4562.026a.393.393,0,0,1-.174-.041.389.389,0,0,1-.173-.522,45.888,45.888,0,0,1,3.422-5.814.389.389,0,1,1,.614.478,46.384,46.384,0,0,0-3.341,5.684A.388.388,0,0,1,1168.961,4562.026Z" transform="translate(-15.295 -7.288)"/>
      <path id="Trazado_125152" data-name="Trazado 125152" d="M1174.439,4559.364a.389.389,0,0,1-.194-.726c.015-.009,1.479-.88,1.073-1.6a.389.389,0,1,1,.677-.381c.631,1.118-.559,2.2-1.362,2.658A.389.389,0,0,1,1174.439,4559.364Z" transform="translate(-16.512 -7.501)"/>
      <g id="Grupo_56574" data-name="Grupo 56574" transform="translate(1167.38 4649.441)">
        <path id="Trazado_125153" data-name="Trazado 125153" d="M1188.961,4692.573s-1.43-1.526-1.759-6.9" transform="translate(-1186.814 -4685.653)" fill="#fff"/>
        <path id="Trazado_125154" data-name="Trazado 125154" d="M1188.566,4692.832c-.062-.066-1.53-1.691-1.863-7.139l.776-.047c.312,5.105,1.644,6.642,1.658,6.657Z" transform="translate(-1186.703 -4685.646)"/>
      </g>
      <g id="Grupo_56581" data-name="Grupo 56581" transform="translate(1115.15 4590.218)">
        <g id="Grupo_56576" data-name="Grupo 56576" transform="translate(1.013 37.221)">
          <path id="Trazado_125155" data-name="Trazado 125155" d="M1150.759,4673.643a38.184,38.184,0,0,1-15.528-3.145,33.776,33.776,0,0,1-14.194-11.359,1.158,1.158,0,0,1,1.952-1.247h0a32.079,32.079,0,0,0,13.292,10.537c11.868,5.182,26.6,3.4,42.6-5.155a1.157,1.157,0,1,1,1.091,2.041C1168.353,4671.528,1158.62,4673.643,1150.759,4673.643Z" transform="translate(-1120.855 -4657.358)" fill="#5c9bcf"/>
          <g id="Grupo_56575" data-name="Grupo 56575" transform="translate(46.756 1.918)">
            <path id="Trazado_125156" data-name="Trazado 125156" d="M1190.214,4676.7l-2.178-.792,3.916-10.727-10.985-3.123.636-2.229,13.378,3.806Z" transform="translate(-1180.967 -4659.825)" fill="#5c9bcf"/>
          </g>
        </g>
        <g id="Grupo_56578" data-name="Grupo 56578" transform="translate(0 6.633)">
          <path id="Trazado_125157" data-name="Trazado 125157" d="M1178.562,4637.245a1.14,1.14,0,0,1-.961-.526h0a31.619,31.619,0,0,0-13.092-10.378c-11.691-5.105-26.2-3.35-41.957,5.077a1.14,1.14,0,1,1-1.075-2.01c20.785-11.117,35.435-8.912,44.065-5.1a33.275,33.275,0,0,1,13.98,11.188,1.14,1.14,0,0,1-.961,1.754Z" transform="translate(-1119.847 -4618.737)" fill="#5c9bcf"/>
          <g id="Grupo_56577" data-name="Grupo 56577">
            <path id="Trazado_125158" data-name="Trazado 125158" d="M1124.249,4618.033l2.145.781-3.858,10.565,10.82,3.076-.626,2.2-13.177-3.749Z" transform="translate(-1119.554 -4618.033)" fill="#5c9bcf"/>
          </g>
        </g>
        <g id="Grupo_56580" data-name="Grupo 56580" transform="translate(62.538 0)">
          <path id="Trazado_125159" data-name="Trazado 125159" d="M1215.323,4663.782a1.141,1.141,0,0,1-.848-.94c-.047-.312-4.6-31.508-3.92-50.526a1.14,1.14,0,0,1,2.278.08c-.669,18.814,3.851,49.8,3.9,50.115a1.14,1.14,0,0,1-1.407,1.271Z" transform="translate(-1202.296 -4609.885)" fill="#d4145a"/>
          <g id="Grupo_56579" data-name="Grupo 56579">
            <path id="Trazado_125160" data-name="Trazado 125160" d="M1218.6,4619.716l-1.7,1.522-7.485-8.386-7.817,8.079-1.639-1.588,9.523-9.837Z" transform="translate(-1199.956 -4609.505)" fill="#d4145a"/>
          </g>
        </g>
      </g>
    </g>
  </g>
</svg>
