<svg xmlns="http://www.w3.org/2000/svg" width="291.655" height="299.536" viewBox="0 0 291.655 299.536">
  <g id="Grupo_55680" data-name="Grupo 55680" transform="translate(-126.025 -6782.178)">
    <g id="Grupo_55671" data-name="Grupo 55671" transform="translate(184.797 6785.18)">
      <path id="Trazado_106832" data-name="Trazado 106832" d="M314.5,6799.147c6.979-.376,11.762,3.093,14.583,10.025a13.907,13.907,0,0,1,0,10.025c1.756-.317,3.013,1.207,3.191,3.187.021,2.42-.725,5.159-3.191,6.382l-1.6.454c-2.2,4.69-3.447,6.46-3.732,10.866.746,8.014,5.273,8.98,10.12,7.522,16.346-2.04,26.246,9.5,28.9,25.605,5.614,6.767,8.087,11.972,8.308,22.6.135,6.5-3.895,9.97-11.158,7.245-11.727-4.4-15.422-15.233-15.585-13.265-.029.249-.086,1.076-.221,2.761-.739,6.474-1.784,12.792-4.555,18.227-1.684,2.1-.917,8.19-.8,10.784.305,6.932-16.609,11.019-24.263,12.706Z" transform="translate(-253.477 -6791.354)" fill="#e0ac7e" fill-rule="evenodd"/>
      <path id="Trazado_106833" data-name="Trazado 106833" d="M345.5,6923.981a.683.683,0,0,0-1.073-.845c-2.253,2.856-4.342,5.451-7.42,6.485s-7.185.522-11.3-.58c-.362-.1-1.933-.5-2.438.946-.276,1.414,1.735,1.933,2.1,2.032a24.378,24.378,0,0,0,12.38-.195A14.916,14.916,0,0,0,345.5,6923.981Z" transform="translate(-256.665 -6836.453)" fill="#e0ac7e" fill-rule="evenodd"/>
      <path id="Trazado_106834" data-name="Trazado 106834" d="M282.052,6799.147c-6.979-.376-11.769,3.093-14.583,10.025a13.9,13.9,0,0,0,0,10.025c-1.755-.317-3.013,1.207-3.191,3.187-.021,2.42.725,5.159,3.191,6.382l1.6.454c2.2,4.69,3.447,6.46,3.739,10.866-.746,8.014-5.273,8.98-10.128,7.522-16.346-2.04-26.238,9.5-28.9,25.605-5.607,6.767-8.087,11.972-8.308,22.6-.135,6.5,3.894,9.97,11.158,7.245,11.727-4.4,15.422-15.233,15.592-13.265.611,7.345-.54,8.109,3.355,17.761,3.141,7.223,2.366,9.974,1.819,14.011-.981,7.234,16.609,10.976,24.661,12.752Z" transform="translate(-221.033 -6791.354)" fill="#ebb688" fill-rule="evenodd"/>
      <path id="Trazado_106835" data-name="Trazado 106835" d="M321.031,6819.09c.512-6.7,2.779-13.713,1.152-19.924-3.8-8.876-21.768-13.062-30.4-11.489-5.394,9.08-3.17,20.279-2.175,30.63Z" transform="translate(-243.93 -6787.066)" fill="#6e4823" fill-rule="evenodd"/>
      <path id="Trazado_106836" data-name="Trazado 106836" d="M314.932,6819.359v-30.187c7.363,1.73,14.683,5.359,16.957,10.658,1.627,6.21-.64,13.228-1.152,19.923Z" transform="translate(-253.636 -6787.729)" fill="#59301d" fill-rule="evenodd"/>
      <path id="Trazado_106837" data-name="Trazado 106837" d="M295.952,6808.561c-2.85-.557-5.579,2.359-6.09,5.217a61.179,61.179,0,0,0-.917,8.006c-.079-.011.341-.019-.235-.019a2.5,2.5,0,0,0-2.359,2.915c.071,1.866,1.691,7.295,3.831,6.4,3.092,8.287,7.249,12.957,14.057,14.616.114-.221.17-.054.277-.121v-36.142A43.227,43.227,0,0,1,295.952,6808.561Z" transform="translate(-243.22 -6794.77)" fill="#f2c196" fill-rule="evenodd"/>
      <path id="Trazado_106838" data-name="Trazado 106838" d="M323.053,6808.561c2.856-.557,5.586,2.359,6.1,5.217a61.194,61.194,0,0,1,.916,8.006c.079-.011-.341-.019.235-.019a2.5,2.5,0,0,1,2.36,2.915c-.071,1.866-1.692,7.295-3.831,6.4-3.127,8.4-7.356,13.02-14.334,14.616v-36.263A43.107,43.107,0,0,0,323.053,6808.561Z" transform="translate(-253.477 -6794.77)" fill="#ebb688" fill-rule="evenodd"/>
      <path id="Trazado_106839" data-name="Trazado 106839" d="M344.488,6922.039a.667.667,0,1,0-1.052-.82c-2.2,2.786-4.243,5.323-7.256,6.335s-7.021.508-11.044-.568c-.355-.093-1.883-.487-2.381.924-.27,1.381,1.7,1.89,2.054,1.983a23.778,23.778,0,0,0,12.1-.185A14.575,14.575,0,0,0,344.488,6922.039Z" transform="translate(-256.478 -6835.755)" fill="#d49e6f" fill-rule="evenodd"/>
      <path id="Trazado_106840" data-name="Trazado 106840" d="M337.465,6996.936c13.084,24.955,19.508,47.91,9.9,66.055-2.544,5.479-3.887,10.4-3.973,14.746l1.279,11.414a46.067,46.067,0,0,1-1.564,20.912l-8.507,27.22c-.9,3.553-.611,5.855.569,7.23l11.342,7.943c3.233,1.907,7.014.6,8.649,1.591,1.513.916,2.573,2.416.668,3.756H327.857c-2.807-.115-5.11-.167-6.439-.1-2.786-1.688-3.163-4.175-1.415-7.374l3.4-11.346a47.86,47.86,0,0,0-1.13-14.743c-1.89-5.745-2.317-15.006-2.694-21.125a37.6,37.6,0,0,1,4.818-19.707c1.265-5.234.32-8.688.071-12.409.192-3.55-9.082-23.1-9.146-31.4l-1.137-18.5,1.741-1.471C322.071,7003.63,330.628,7000.158,337.465,6996.936Z" transform="translate(-253.363 -6863.441)" fill="#e0ac7e" fill-rule="evenodd"/>
      <path id="Trazado_106841" data-name="Trazado 106841" d="M338.629,6991.774l.817,7.178c-4.6,1.265-11.4,3.249-13.119,9.332-3.6,10.279-8.4,14.778-12.188,15.04l.029-20.524C324.82,7001.739,332.14,6997.193,338.629,6991.774Z" transform="translate(-253.347 -6861.559)" fill="#4e9485" fill-rule="evenodd"/>
      <path id="Trazado_106842" data-name="Trazado 106842" d="M320.572,6819.506c.5-6.542,2.722-13.4,1.13-19.473-3.724-8.677-21.278-12.767-29.721-11.232-5.273,8.879-3.1,19.828-2.125,29.945Z" transform="translate(-244.032 -6787.479)" fill="#6e4823" fill-rule="evenodd"/>
      <path id="Trazado_106843" data-name="Trazado 106843" d="M314.608,6819.772v-29.5c7.2,1.688,14.355,5.234,16.58,10.415,1.592,6.073-.632,12.931-1.13,19.473Z" transform="translate(-253.518 -6788.129)" fill="#59301d" fill-rule="evenodd"/>
      <path id="Trazado_106844" data-name="Trazado 106844" d="M296.063,6809.221c-2.793-.547-5.458,2.3-5.956,5.1a58.425,58.425,0,0,0-.9,7.824c-.078-.015.334-.019-.234-.019a2.441,2.441,0,0,0-2.3,2.848c.064,1.826,1.649,7.131,3.738,6.26,3.02,8.095,7.093,12.667,13.745,14.285.114-.213.163-.05.27-.117V6810.07A41.938,41.938,0,0,1,296.063,6809.221Z" transform="translate(-243.338 -6795.01)" fill="#f2c196" fill-rule="evenodd"/>
      <path id="Trazado_106845" data-name="Trazado 106845" d="M322.547,6809.221c2.793-.547,5.458,2.3,5.956,5.1a59.7,59.7,0,0,1,.9,7.824c.071-.015-.334-.019.228-.019a2.437,2.437,0,0,1,2.3,2.848c-.064,1.826-1.649,7.131-3.738,6.26-3.063,8.209-7.192,12.725-14.015,14.285V6810.07A41.931,41.931,0,0,0,322.547,6809.221Z" transform="translate(-253.363 -6795.01)" fill="#ebb688" fill-rule="evenodd"/>
      <path id="Trazado_106846" data-name="Trazado 106846" d="M271.33,6922.039a.664.664,0,1,1,1.044-.82c2.2,2.786,4.243,5.323,7.257,6.335s7.021.508,11.044-.568c.355-.093,1.883-.487,2.38.924.27,1.381-1.7,1.89-2.047,1.983a23.844,23.844,0,0,1-12.1-.185A14.526,14.526,0,0,1,271.33,6922.039Z" transform="translate(-237.694 -6835.755)" fill="#e0ac7e" fill-rule="evenodd"/>
      <path id="Trazado_106847" data-name="Trazado 106847" d="M266.44,6996.936c-13.084,24.955-19.509,47.91-9.893,66.055,2.537,5.479,3.88,10.4,3.965,14.746l-1.272,11.414a46.063,46.063,0,0,0,1.556,20.912l8.507,27.22c.9,3.553.611,5.855-.569,7.23l-11.343,7.943c-3.233,1.907-7.007.6-8.648,1.591-1.507.916-2.566,2.416-.662,3.756h27.973c2.8-.115,5.11-.167,6.432-.1,2.786-1.688,3.17-4.175,1.421-7.374l-3.4-11.346a47.667,47.667,0,0,1,1.13-14.743c1.891-5.745,2.324-15.006,2.7-21.125a37.663,37.663,0,0,0-4.825-19.707c-1.265-5.234-.32-8.688-.071-12.409-.192-3.55,9.083-23.1,9.147-31.4l1.137-18.5-1.742-1.471C281.84,7003.63,273.283,7000.158,266.44,6996.936Z" transform="translate(-228.902 -6863.441)" fill="#ebb688" fill-rule="evenodd"/>
      <path id="Trazado_106848" data-name="Trazado 106848" d="M275.227,6991.774l-.817,7.178c4.605,1.265,11.4,3.249,13.119,9.332,3.6,10.279,8.408,14.778,12.2,15.04l-.036-20.524C289.036,7001.739,281.716,6997.193,275.227,6991.774Z" transform="translate(-238.87 -6861.559)" fill="#59a393" fill-rule="evenodd"/>
      <path id="Trazado_106849" data-name="Trazado 106849" d="M388.221,6947.032c-3.993,2.921-5.635,5.572-6.645,8.536-.76-2.647-1.428-3.621,1.216-6.769Z" transform="translate(-277.675 -6845.255)" fill="#e0ac7e" fill-rule="evenodd"/>
      <path id="Trazado_106850" data-name="Trazado 106850" d="M381.964,6953.438c1.187,9.4,10.867,28.268,10.292,33.165l.049-.007a65.469,65.469,0,0,1-3.212,6.3l-1.728,3.518c-2.693,3.848-3.624,6.783-2.544,8.674a2.272,2.272,0,0,0,3.283.093,2.073,2.073,0,0,0,3.355.1c.313,1.021,2.551,1.173,3.163.1.931.9,2.139.917,3.568.01,3.383-5.231,1.9-2.338,2.793-9.942l-.753-13.2c2.068-11.754.9-24.361-4.293-37.413-.163-2-1.826-3.43-4.534-3.639-1.081.021-2.153.064-3.227.135Z" transform="translate(-278.063 -6843.126)" fill="#e0ac7e" fill-rule="evenodd"/>
      <path id="Trazado_106851" data-name="Trazado 106851" d="M237.73,6953.438c-1.194,9.4-10.873,28.268-10.291,33.165l-.057-.007a65.624,65.624,0,0,0,3.212,6.3l1.734,3.518c2.075,3.108,3.02,6.016,2.537,8.674a2.273,2.273,0,0,1-3.283.093,2.073,2.073,0,0,1-3.355.1c-.312,1.021-2.551,1.173-3.162.1-.931.9-2.139.917-3.568.01-3.376-5.231-1.9-2.338-2.793-9.942l.753-13.2c-2.068-11.754-.9-24.361,4.292-37.413.163-2,1.827-3.43,4.534-3.639,1.08.021,2.153.064,3.226.135Z" transform="translate(-218.493 -6843.126)" fill="#ebb688" fill-rule="evenodd"/>
      <path id="Trazado_106852" data-name="Trazado 106852" d="M502.668,6831.7c-2.549-1.41-4.267-7.552-2.837-13.1,3.587-6.188,5.745-12.365,2.848-18.5a16.738,16.738,0,0,0-28.067-4.611c-3.185,5.133-1.8,7.168-2.745,10.762-1.989,2.7-5.87,3.517-6.44,5.989-.174,2.273,2.6,2.058,4.37,3.819a6.017,6.017,0,0,1-1.142,2.867c-.022.522.381.889,1.207,1.193-.832.063-1.5.533-1.555,1.02-.087.586,1.278,1.092,1.2,2.051a5.354,5.354,0,0,1-.8,2.405,1.763,1.763,0,0,0,1.468,2.568,37.219,37.219,0,0,0,9.864.886c2.88,1.48,5.261,6.353,5.473,9.145l.016.432c-9.234,9.22-19.974,20.232-9.854,45.609,2.924,7.331,1.082,20.666,3.5,31.436l34.214-4.75c-4.473-7.227-8.435-15-5.772-29.931C511.586,6858.737,510.956,6838.519,502.668,6831.7Z" transform="translate(-308.475 -6787.938)" fill="#ebb688" fill-rule="evenodd"/>
      <path id="Trazado_106853" data-name="Trazado 106853" d="M472.263,6794.219c-.011,6.976,13.909,2.092,16.006,16.615l1.077.2c1.027-3.074,6.7-2.53,6.136,1.234a12.312,12.312,0,0,0,1.642,6.548,3.421,3.421,0,0,0,4.87.674c4.581-8.375,8.68-16.408,3.973-24.028C497.781,6784.6,479.111,6783.95,472.263,6794.219Z" transform="translate(-310.969 -6786.902)" fill="#6e4823" fill-rule="evenodd"/>
      <path id="Trazado_106854" data-name="Trazado 106854" d="M482.211,6978.513c-14.425,20.2-9.617,30.3-9.3,61.461.646,8.988,1.717,21.6,4.653,29.393l15.972-5.289c.4-2.505,3.782-3.339,4.244-5.6-2.781-7.444,5.766-18.786,6.824-35.636l6.881-32.971C515.172,6972.194,485.823,6976.249,482.211,6978.513Z" transform="translate(-310.834 -6855.973)" fill="#ebb688" fill-rule="evenodd"/>
      <path id="Trazado_106855" data-name="Trazado 106855" d="M472.04,7115.268q.039.57.046,1.127c-1.119,9.181,7.53,45.956,9.409,59.765.972,3.566.653,5.876-.622,7.254l-12.292,7.947c-3.5,1.907-7.583.595-9.357,1.581-1.637.917-2.786,2.422-.723,3.766l30.262.053c3.033-.1,5.528-.157,6.963-.086,3.019-1.687,3.431-4.185,1.545-7.4l-3.66-11.39a44.361,44.361,0,0,1,1.253-14.792c2.054-5.758,2.537-15.052,2.949-21.192a35.6,35.6,0,0,0-5.178-19.785,20.834,20.834,0,0,1-.64-6.816l-.568-11.292C478.518,7103.05,471.284,7106.236,472.04,7115.268Z" transform="translate(-305.55 -6902.4)" fill="#ebb688" fill-rule="evenodd"/>
      <path id="Trazado_106856" data-name="Trazado 106856" d="M485.172,6967.923c13.234-5.006,23.327-2.035,31.518.215,8.5,8.012,1.971,27.734-3.14,30.173,2.625-12.987-10.823-36.239-28.8-29.17Z" transform="translate(-315.519 -6851.871)" fill="#59a393" fill-rule="evenodd"/>
      <path id="Trazado_106857" data-name="Trazado 106857" d="M506.723,6877.375c7.011,7.015,10.443,15.1,6.416,26.078,1.435,8.023,1.052,13.356-3.629,22.037-2.863,5.31-7.7,6.267-12.32.743-7.452-8.91-5.689-18.787-5.589-20.616l.542-9.8C484.774,6881,492.2,6867.97,506.723,6877.375Z" transform="translate(-317.162 -6818.711)" fill="#e0ac7e" fill-rule="evenodd"/>
      <g id="Grupo_55670" data-name="Grupo 55670" transform="translate(157.341 98.813)">
        <path id="Trazado_106858" data-name="Trazado 106858" d="M487.355,6949.638c-2.5,8.834-.524,31.055-2.9,35.208l.046.015a63.059,63.059,0,0,1-5.252,4.4l-2.88,2.486c-1.611-.423-3.169.6-4.689,2.826l-4.836.3c-1.845.167-.114,2.528,1.24,3.262l2.726.388c-.822.758-.673.677-.417,2.285.887,1.875,3.055,2.725,7.461,3.467a7.686,7.686,0,0,0,4.607-.3c5.113-3.467,2.727-1.447,6.433-7.929l4.337-12.058c6.305-9.7,9.6-19.54,9.922-33.152-1.044-6.3-1.039-7.547-2.667-8.385-.973-.393-1.5.794-2.481.452Z" transform="translate(-466.043 -6942.368)" fill="#e0ac7e" fill-rule="evenodd"/>
      </g>
    </g>
    <line id="Línea_164" data-name="Línea 164" x2="247.383" transform="translate(170.297 7042.436)" fill="none" stroke="#8c757e" stroke-miterlimit="10" stroke-width="2"/>
    <line id="Línea_165" data-name="Línea 165" x2="247.383" transform="translate(170.297 7005.295)" fill="none" stroke="#8c757e" stroke-miterlimit="10" stroke-width="2"/>
    <line id="Línea_166" data-name="Línea 166" x2="247.383" transform="translate(170.297 6968.155)" fill="none" stroke="#8c757e" stroke-miterlimit="10" stroke-width="2"/>
    <line id="Línea_167" data-name="Línea 167" x2="247.383" transform="translate(170.297 6931.621)" fill="none" stroke="#8c757e" stroke-miterlimit="10" stroke-width="2"/>
    <line id="Línea_168" data-name="Línea 168" x2="247.383" transform="translate(170.297 6895.493)" fill="none" stroke="#8c757e" stroke-miterlimit="10" stroke-width="2"/>
    <line id="Línea_169" data-name="Línea 169" x2="247.383" transform="translate(170.297 6856.733)" fill="none" stroke="#8c757e" stroke-miterlimit="10" stroke-width="2"/>
    <line id="Línea_170" data-name="Línea 170" x2="247.383" transform="translate(167.99 6825.562)" fill="none" stroke="#8c757e" stroke-miterlimit="10" stroke-width="2"/>
    <g id="Grupo_55672" data-name="Grupo 55672" transform="translate(126.076 6782.178)">
      <path id="Trazado_106859" data-name="Trazado 106859" d="M147.876,6805.168v-22.989c5.607,1.316,11.183,4.081,12.915,8.115,1.239,4.731-.488,10.076-.877,15.174Z" transform="translate(-134.039 -6782.179)" fill="#59301d" fill-rule="evenodd"/>
      <path id="Trazado_106860" data-name="Trazado 106860" d="M140.219,6805.168v-22.989c-5.608,1.316-11.183,4.081-12.915,8.115-1.24,4.731.487,10.076.877,15.174Z" transform="translate(-126.382 -6782.179)" fill="#59301d" fill-rule="evenodd"/>
      <path id="Trazado_106861" data-name="Trazado 106861" d="M133.42,6796.944c-2.171-.425-4.25,1.8-4.639,3.973a46.628,46.628,0,0,0-.7,6.1c-.06-.009.26-.014-.179-.014a1.9,1.9,0,0,0-1.8,2.219c.054,1.421,1.288,5.556,2.917,4.877,2.354,6.312,5.521,9.867,10.706,11.131.087-.167.13-.04.212-.092v-27.526A32.886,32.886,0,0,1,133.42,6796.944Z" transform="translate(-126.106 -6787.54)" fill="#f2c196" fill-rule="evenodd"/>
      <path id="Trazado_106862" data-name="Trazado 106862" d="M154.06,6796.944c2.176-.425,4.254,1.8,4.644,3.973a46.626,46.626,0,0,1,.7,6.1c.06-.009-.26-.014.179-.014a1.9,1.9,0,0,1,1.8,2.219c-.054,1.421-1.288,5.556-2.917,4.877-2.382,6.4-5.6,9.916-10.918,11.131v-27.618A32.8,32.8,0,0,0,154.06,6796.944Z" transform="translate(-133.918 -6787.54)" fill="#ebb688" fill-rule="evenodd"/>
      <path id="Trazado_106863" data-name="Trazado 106863" d="M133.5,6797.448c-2.127-.417-4.157,1.753-4.536,3.883a44.473,44.473,0,0,0-.682,5.96c-.06-.011.254-.013-.179-.013a1.856,1.856,0,0,0-1.754,2.167c.048,1.391,1.255,5.432,2.847,4.768,2.3,6.166,5.4,9.649,10.468,10.88.086-.163.125-.038.206-.089v-26.91A31.926,31.926,0,0,1,133.5,6797.448Z" transform="translate(-126.196 -6787.724)" fill="#f2c196" fill-rule="evenodd"/>
      <path id="Trazado_106864" data-name="Trazado 106864" d="M153.676,6797.448c2.127-.417,4.157,1.753,4.536,3.883a45.438,45.438,0,0,1,.687,5.96c.054-.011-.254-.013.174-.013a1.854,1.854,0,0,1,1.754,2.167c-.049,1.391-1.256,5.432-2.847,4.768-2.333,6.252-5.478,9.692-10.674,10.88v-27A31.92,31.92,0,0,0,153.676,6797.448Z" transform="translate(-133.831 -6787.724)" fill="#ebb688" fill-rule="evenodd"/>
    </g>
    <g id="Grupo_55673" data-name="Grupo 55673" transform="translate(126.025 6820.586)">
      <path id="Trazado_106865" data-name="Trazado 106865" d="M147.795,6865.6v-22.991c5.607,1.318,11.183,4.082,12.915,8.116,1.239,4.731-.487,10.077-.877,15.175Z" transform="translate(-133.958 -6842.608)" fill="#59301d" fill-rule="evenodd"/>
      <path id="Trazado_106866" data-name="Trazado 106866" d="M140.138,6865.6v-22.991c-5.608,1.318-11.183,4.082-12.915,8.116-1.24,4.731.487,10.077.876,15.175Z" transform="translate(-126.301 -6842.608)" fill="#59301d" fill-rule="evenodd"/>
      <path id="Trazado_106867" data-name="Trazado 106867" d="M133.339,6857.374c-2.17-.424-4.249,1.8-4.639,3.974a46.65,46.65,0,0,0-.7,6.1c-.06-.007.26-.013-.179-.013a1.9,1.9,0,0,0-1.8,2.218c.054,1.422,1.288,5.557,2.917,4.878,2.354,6.31,5.521,9.867,10.706,11.131.086-.168.13-.042.212-.093v-27.525A33.016,33.016,0,0,1,133.339,6857.374Z" transform="translate(-126.025 -6847.969)" fill="#f2c196" fill-rule="evenodd"/>
      <path id="Trazado_106868" data-name="Trazado 106868" d="M153.979,6857.374c2.176-.424,4.254,1.8,4.644,3.974a46.649,46.649,0,0,1,.7,6.1c.06-.007-.26-.013.179-.013a1.9,1.9,0,0,1,1.8,2.218c-.054,1.422-1.288,5.557-2.917,4.878-2.382,6.4-5.6,9.916-10.918,11.131v-27.619A32.918,32.918,0,0,0,153.979,6857.374Z" transform="translate(-133.837 -6847.969)" fill="#ebb688" fill-rule="evenodd"/>
      <path id="Trazado_106869" data-name="Trazado 106869" d="M133.423,6857.877c-2.127-.417-4.157,1.753-4.536,3.883a44.451,44.451,0,0,0-.682,5.96c-.06-.011.254-.015-.179-.015a1.859,1.859,0,0,0-1.754,2.169c.049,1.391,1.256,5.431,2.847,4.769,2.3,6.165,5.4,9.648,10.468,10.879.086-.162.125-.038.205-.09v-26.909A31.962,31.962,0,0,1,133.423,6857.877Z" transform="translate(-126.114 -6848.153)" fill="#f2c196" fill-rule="evenodd"/>
      <path id="Trazado_106870" data-name="Trazado 106870" d="M153.595,6857.877c2.127-.417,4.157,1.753,4.536,3.883a45.518,45.518,0,0,1,.687,5.96c.054-.011-.254-.015.174-.015a1.856,1.856,0,0,1,1.754,2.169c-.049,1.391-1.256,5.431-2.847,4.769-2.333,6.251-5.478,9.691-10.674,10.879v-27A31.957,31.957,0,0,0,153.595,6857.877Z" transform="translate(-133.75 -6848.153)" fill="#ebb688" fill-rule="evenodd"/>
    </g>
    <g id="Grupo_55674" data-name="Grupo 55674" transform="translate(126.025 6858.36)">
      <path id="Trazado_106871" data-name="Trazado 106871" d="M147.795,6925.028v-22.99c5.607,1.318,11.183,4.081,12.915,8.116,1.239,4.73-.487,10.076-.877,15.174Z" transform="translate(-133.958 -6902.038)" fill="#59301d" fill-rule="evenodd"/>
      <path id="Trazado_106872" data-name="Trazado 106872" d="M140.138,6925.028v-22.99c-5.608,1.318-11.183,4.081-12.915,8.116-1.24,4.73.487,10.076.876,15.174Z" transform="translate(-126.301 -6902.038)" fill="#59301d" fill-rule="evenodd"/>
      <path id="Trazado_106873" data-name="Trazado 106873" d="M133.339,6916.805c-2.17-.425-4.249,1.8-4.639,3.973a46.616,46.616,0,0,0-.7,6.1c-.06-.008.26-.014-.179-.014a1.9,1.9,0,0,0-1.8,2.219c.054,1.42,1.288,5.556,2.917,4.877,2.354,6.311,5.521,9.867,10.706,11.131.086-.167.13-.041.212-.092V6917.47A33.007,33.007,0,0,1,133.339,6916.805Z" transform="translate(-126.025 -6907.4)" fill="#f2c196" fill-rule="evenodd"/>
      <path id="Trazado_106874" data-name="Trazado 106874" d="M153.979,6916.805c2.176-.425,4.254,1.8,4.644,3.973a46.614,46.614,0,0,1,.7,6.1c.06-.008-.26-.014.179-.014a1.9,1.9,0,0,1,1.8,2.219c-.054,1.42-1.288,5.556-2.917,4.877-2.382,6.395-5.6,9.916-10.918,11.131V6917.47A32.91,32.91,0,0,0,153.979,6916.805Z" transform="translate(-133.837 -6907.4)" fill="#ebb688" fill-rule="evenodd"/>
      <path id="Trazado_106875" data-name="Trazado 106875" d="M133.423,6917.307c-2.127-.417-4.157,1.754-4.536,3.883a44.46,44.46,0,0,0-.682,5.96c-.06-.011.254-.014-.179-.014a1.859,1.859,0,0,0-1.754,2.168c.049,1.391,1.256,5.432,2.847,4.768,2.3,6.165,5.4,9.649,10.468,10.88.086-.163.125-.038.205-.089v-26.909A31.966,31.966,0,0,1,133.423,6917.307Z" transform="translate(-126.114 -6907.583)" fill="#f2c196" fill-rule="evenodd"/>
      <path id="Trazado_106876" data-name="Trazado 106876" d="M153.595,6917.307c2.127-.417,4.157,1.754,4.536,3.883a45.528,45.528,0,0,1,.687,5.96c.054-.011-.254-.014.174-.014a1.856,1.856,0,0,1,1.754,2.168c-.049,1.391-1.256,5.432-2.847,4.768-2.333,6.251-5.478,9.692-10.674,10.88v-27A31.961,31.961,0,0,0,153.595,6917.307Z" transform="translate(-133.75 -6907.583)" fill="#ebb688" fill-rule="evenodd"/>
    </g>
    <g id="Grupo_55675" data-name="Grupo 55675" transform="translate(126.025 6895.493)">
      <path id="Trazado_106877" data-name="Trazado 106877" d="M147.795,6983.452v-22.991c5.607,1.318,11.183,4.081,12.915,8.117,1.239,4.73-.487,10.076-.877,15.174Z" transform="translate(-133.958 -6960.461)" fill="#59301d" fill-rule="evenodd"/>
      <path id="Trazado_106878" data-name="Trazado 106878" d="M140.138,6983.452v-22.991c-5.608,1.318-11.183,4.081-12.915,8.117-1.24,4.73.487,10.076.876,15.174Z" transform="translate(-126.301 -6960.461)" fill="#59301d" fill-rule="evenodd"/>
      <path id="Trazado_106879" data-name="Trazado 106879" d="M133.339,6975.228c-2.17-.425-4.249,1.8-4.639,3.972a46.684,46.684,0,0,0-.7,6.1c-.06-.009.26-.015-.179-.015a1.9,1.9,0,0,0-1.8,2.22c.054,1.421,1.288,5.555,2.917,4.877,2.354,6.312,5.521,9.867,10.706,11.131.086-.168.13-.041.212-.093v-27.526A32.971,32.971,0,0,1,133.339,6975.228Z" transform="translate(-126.025 -6965.823)" fill="#f2c196" fill-rule="evenodd"/>
      <path id="Trazado_106880" data-name="Trazado 106880" d="M153.979,6975.228c2.176-.425,4.254,1.8,4.644,3.972a46.683,46.683,0,0,1,.7,6.1c.06-.009-.26-.015.179-.015a1.9,1.9,0,0,1,1.8,2.22c-.054,1.421-1.288,5.555-2.917,4.877-2.382,6.394-5.6,9.917-10.918,11.131v-27.619A32.873,32.873,0,0,0,153.979,6975.228Z" transform="translate(-133.837 -6965.823)" fill="#ebb688" fill-rule="evenodd"/>
      <path id="Trazado_106881" data-name="Trazado 106881" d="M133.423,6975.731c-2.127-.417-4.157,1.753-4.536,3.884a44.418,44.418,0,0,0-.682,5.959c-.06-.011.254-.014-.179-.014a1.859,1.859,0,0,0-1.754,2.168c.049,1.391,1.256,5.431,2.847,4.768,2.3,6.165,5.4,9.647,10.468,10.88.086-.163.125-.038.205-.089v-26.91A31.962,31.962,0,0,1,133.423,6975.731Z" transform="translate(-126.114 -6966.007)" fill="#f2c196" fill-rule="evenodd"/>
      <path id="Trazado_106882" data-name="Trazado 106882" d="M153.595,6975.731c2.127-.417,4.157,1.753,4.536,3.884a45.484,45.484,0,0,1,.687,5.959c.054-.011-.254-.014.174-.014a1.855,1.855,0,0,1,1.754,2.168c-.049,1.391-1.256,5.431-2.847,4.768-2.333,6.251-5.478,9.691-10.674,10.88v-27A31.957,31.957,0,0,0,153.595,6975.731Z" transform="translate(-133.75 -6966.007)" fill="#ebb688" fill-rule="evenodd"/>
    </g>
    <g id="Grupo_55676" data-name="Grupo 55676" transform="translate(126.025 6932.626)">
      <path id="Trazado_106883" data-name="Trazado 106883" d="M147.795,7041.874v-22.99c5.607,1.317,11.183,4.081,12.915,8.116,1.239,4.73-.487,10.075-.877,15.174Z" transform="translate(-133.958 -7018.884)" fill="#59301d" fill-rule="evenodd"/>
      <path id="Trazado_106884" data-name="Trazado 106884" d="M140.138,7041.874v-22.99c-5.608,1.317-11.183,4.081-12.915,8.116-1.24,4.73.487,10.075.876,15.174Z" transform="translate(-126.301 -7018.884)" fill="#59301d" fill-rule="evenodd"/>
      <path id="Trazado_106885" data-name="Trazado 106885" d="M133.339,7033.651c-2.17-.425-4.249,1.8-4.639,3.972a46.672,46.672,0,0,0-.7,6.1c-.06-.007.26-.013-.179-.013a1.9,1.9,0,0,0-1.8,2.219c.054,1.42,1.288,5.556,2.917,4.877,2.354,6.312,5.521,9.868,10.706,11.131.086-.167.13-.041.212-.093v-27.526A32.971,32.971,0,0,1,133.339,7033.651Z" transform="translate(-126.025 -7024.246)" fill="#f2c196" fill-rule="evenodd"/>
      <path id="Trazado_106886" data-name="Trazado 106886" d="M153.979,7033.651c2.176-.425,4.254,1.8,4.644,3.972a46.67,46.67,0,0,1,.7,6.1c.06-.007-.26-.013.179-.013a1.9,1.9,0,0,1,1.8,2.219c-.054,1.42-1.288,5.556-2.917,4.877-2.382,6.395-5.6,9.916-10.918,11.131v-27.619A32.873,32.873,0,0,0,153.979,7033.651Z" transform="translate(-133.837 -7024.246)" fill="#ebb688" fill-rule="evenodd"/>
      <path id="Trazado_106887" data-name="Trazado 106887" d="M133.423,7034.154c-2.127-.418-4.157,1.753-4.536,3.883a44.462,44.462,0,0,0-.682,5.959c-.06-.011.254-.013-.179-.013a1.858,1.858,0,0,0-1.754,2.167c.049,1.391,1.256,5.432,2.847,4.768,2.3,6.166,5.4,9.649,10.468,10.88.086-.163.125-.038.205-.089V7034.8A32,32,0,0,1,133.423,7034.154Z" transform="translate(-126.114 -7024.43)" fill="#f2c196" fill-rule="evenodd"/>
      <path id="Trazado_106888" data-name="Trazado 106888" d="M153.595,7034.154c2.127-.418,4.157,1.753,4.536,3.883a45.53,45.53,0,0,1,.687,5.959c.054-.011-.254-.013.174-.013a1.854,1.854,0,0,1,1.754,2.167c-.049,1.391-1.256,5.432-2.847,4.768-2.333,6.252-5.478,9.691-10.674,10.88v-27A31.991,31.991,0,0,0,153.595,7034.154Z" transform="translate(-133.75 -7024.43)" fill="#ebb688" fill-rule="evenodd"/>
    </g>
    <g id="Grupo_55677" data-name="Grupo 55677" transform="translate(126.025 6969.759)">
      <path id="Trazado_106889" data-name="Trazado 106889" d="M147.795,7100.3v-22.991c5.607,1.317,11.183,4.081,12.915,8.117,1.239,4.729-.487,10.075-.877,15.174Z" transform="translate(-133.958 -7077.308)" fill="#59301d" fill-rule="evenodd"/>
      <path id="Trazado_106890" data-name="Trazado 106890" d="M140.138,7100.3v-22.991c-5.608,1.317-11.183,4.081-12.915,8.117-1.24,4.729.487,10.075.876,15.174Z" transform="translate(-126.301 -7077.308)" fill="#59301d" fill-rule="evenodd"/>
      <path id="Trazado_106891" data-name="Trazado 106891" d="M133.339,7092.073c-2.17-.425-4.249,1.8-4.639,3.973a46.662,46.662,0,0,0-.7,6.1c-.06-.008.26-.014-.179-.014a1.9,1.9,0,0,0-1.8,2.219c.054,1.421,1.288,5.556,2.917,4.876,2.354,6.312,5.521,9.868,10.706,11.132.086-.168.13-.041.212-.093v-27.526A32.9,32.9,0,0,1,133.339,7092.073Z" transform="translate(-126.025 -7082.668)" fill="#f2c196" fill-rule="evenodd"/>
      <path id="Trazado_106892" data-name="Trazado 106892" d="M153.979,7092.073c2.176-.425,4.254,1.8,4.644,3.973a46.66,46.66,0,0,1,.7,6.1c.06-.008-.26-.014.179-.014a1.9,1.9,0,0,1,1.8,2.219c-.054,1.421-1.288,5.556-2.917,4.876-2.382,6.4-5.6,9.917-10.918,11.132v-27.619A32.8,32.8,0,0,0,153.979,7092.073Z" transform="translate(-133.837 -7082.668)" fill="#ebb688" fill-rule="evenodd"/>
      <path id="Trazado_106893" data-name="Trazado 106893" d="M133.423,7092.576c-2.127-.416-4.157,1.754-4.536,3.883a44.48,44.48,0,0,0-.682,5.959c-.06-.011.254-.013-.179-.013a1.858,1.858,0,0,0-1.754,2.168c.049,1.39,1.256,5.432,2.847,4.768,2.3,6.166,5.4,9.648,10.468,10.88.086-.162.125-.038.205-.09v-26.909A31.928,31.928,0,0,1,133.423,7092.576Z" transform="translate(-126.114 -7082.852)" fill="#f2c196" fill-rule="evenodd"/>
      <path id="Trazado_106894" data-name="Trazado 106894" d="M153.595,7092.576c2.127-.416,4.157,1.754,4.536,3.883a45.549,45.549,0,0,1,.687,5.959c.054-.011-.254-.013.174-.013a1.855,1.855,0,0,1,1.754,2.168c-.049,1.39-1.256,5.432-2.847,4.768-2.333,6.252-5.478,9.691-10.674,10.88v-27A31.923,31.923,0,0,0,153.595,7092.576Z" transform="translate(-133.75 -7082.852)" fill="#ebb688" fill-rule="evenodd"/>
    </g>
    <g id="Grupo_55678" data-name="Grupo 55678" transform="translate(126.025 7006.892)">
      <path id="Trazado_106895" data-name="Trazado 106895" d="M147.795,7158.72v-22.99c5.607,1.319,11.183,4.082,12.915,8.117,1.239,4.73-.487,10.076-.877,15.174Z" transform="translate(-133.958 -7135.729)" fill="#59301d" fill-rule="evenodd"/>
      <path id="Trazado_106896" data-name="Trazado 106896" d="M140.138,7158.72v-22.99c-5.608,1.319-11.183,4.082-12.915,8.117-1.24,4.73.487,10.076.876,15.174Z" transform="translate(-126.301 -7135.729)" fill="#59301d" fill-rule="evenodd"/>
      <path id="Trazado_106897" data-name="Trazado 106897" d="M133.339,7150.5c-2.17-.424-4.249,1.8-4.639,3.973a46.67,46.67,0,0,0-.7,6.1c-.06-.008.26-.013-.179-.013a1.9,1.9,0,0,0-1.8,2.218c.054,1.422,1.288,5.557,2.917,4.877,2.354,6.312,5.521,9.868,10.706,11.131.086-.167.13-.041.212-.092v-27.526A32.9,32.9,0,0,1,133.339,7150.5Z" transform="translate(-126.025 -7141.091)" fill="#f2c196" fill-rule="evenodd"/>
      <path id="Trazado_106898" data-name="Trazado 106898" d="M153.979,7150.5c2.176-.424,4.254,1.8,4.644,3.973a46.668,46.668,0,0,1,.7,6.1c.06-.008-.26-.013.179-.013a1.9,1.9,0,0,1,1.8,2.218c-.054,1.422-1.288,5.557-2.917,4.877-2.382,6.4-5.6,9.917-10.918,11.131v-27.618A32.806,32.806,0,0,0,153.979,7150.5Z" transform="translate(-133.837 -7141.091)" fill="#ebb688" fill-rule="evenodd"/>
      <path id="Trazado_106899" data-name="Trazado 106899" d="M133.423,7151c-2.127-.417-4.157,1.754-4.536,3.884a44.454,44.454,0,0,0-.682,5.959c-.06-.011.254-.013-.179-.013a1.857,1.857,0,0,0-1.754,2.167c.049,1.392,1.256,5.432,2.847,4.77,2.3,6.165,5.4,9.648,10.468,10.878.086-.161.125-.037.205-.088v-26.91A31.854,31.854,0,0,1,133.423,7151Z" transform="translate(-126.114 -7141.275)" fill="#f2c196" fill-rule="evenodd"/>
      <path id="Trazado_106900" data-name="Trazado 106900" d="M153.595,7151c2.127-.417,4.157,1.754,4.536,3.884a45.523,45.523,0,0,1,.687,5.959c.054-.011-.254-.013.174-.013a1.854,1.854,0,0,1,1.754,2.167c-.049,1.392-1.256,5.432-2.847,4.77-2.333,6.251-5.478,9.691-10.674,10.878v-27A31.849,31.849,0,0,0,153.595,7151Z" transform="translate(-133.75 -7141.275)" fill="#ebb688" fill-rule="evenodd"/>
    </g>
    <g id="Grupo_55679" data-name="Grupo 55679" transform="translate(126.025 7044.025)">
      <path id="Trazado_106901" data-name="Trazado 106901" d="M147.795,7217.144v-22.991c5.607,1.318,11.183,4.082,12.915,8.116,1.239,4.731-.487,10.077-.877,15.175Z" transform="translate(-133.958 -7194.153)" fill="#59301d" fill-rule="evenodd"/>
      <path id="Trazado_106902" data-name="Trazado 106902" d="M140.138,7217.144v-22.991c-5.608,1.318-11.183,4.082-12.915,8.116-1.24,4.731.487,10.077.876,15.175Z" transform="translate(-126.301 -7194.153)" fill="#59301d" fill-rule="evenodd"/>
      <path id="Trazado_106903" data-name="Trazado 106903" d="M133.339,7208.919c-2.17-.425-4.249,1.8-4.639,3.973a46.681,46.681,0,0,0-.7,6.1c-.06-.008.26-.013-.179-.013a1.9,1.9,0,0,0-1.8,2.218c.054,1.422,1.288,5.557,2.917,4.877,2.354,6.312,5.521,9.868,10.706,11.132.086-.168.13-.041.212-.092v-27.526A33.014,33.014,0,0,1,133.339,7208.919Z" transform="translate(-126.025 -7199.515)" fill="#f2c196" fill-rule="evenodd"/>
      <path id="Trazado_106904" data-name="Trazado 106904" d="M153.979,7208.919c2.176-.425,4.254,1.8,4.644,3.973a46.68,46.68,0,0,1,.7,6.1c.06-.008-.26-.013.179-.013a1.9,1.9,0,0,1,1.8,2.218c-.054,1.422-1.288,5.557-2.917,4.877-2.382,6.4-5.6,9.917-10.918,11.132v-27.618A32.916,32.916,0,0,0,153.979,7208.919Z" transform="translate(-133.837 -7199.515)" fill="#ebb688" fill-rule="evenodd"/>
      <path id="Trazado_106905" data-name="Trazado 106905" d="M133.423,7209.423c-2.127-.418-4.157,1.753-4.536,3.883a44.46,44.46,0,0,0-.682,5.96c-.06-.011.254-.014-.179-.014a1.858,1.858,0,0,0-1.754,2.167c.049,1.391,1.256,5.432,2.847,4.769,2.3,6.165,5.4,9.648,10.468,10.879.086-.163.125-.037.205-.088v-26.91A32,32,0,0,1,133.423,7209.423Z" transform="translate(-126.114 -7199.698)" fill="#f2c196" fill-rule="evenodd"/>
      <path id="Trazado_106906" data-name="Trazado 106906" d="M153.595,7209.423c2.127-.418,4.157,1.753,4.536,3.883a45.528,45.528,0,0,1,.687,5.96c.054-.011-.254-.014.174-.014a1.854,1.854,0,0,1,1.754,2.167c-.049,1.391-1.256,5.432-2.847,4.769-2.333,6.252-5.478,9.692-10.674,10.879v-27A32,32,0,0,0,153.595,7209.423Z" transform="translate(-133.75 -7199.698)" fill="#ebb688" fill-rule="evenodd"/>
    </g>
  </g>
</svg>
