<svg xmlns="http://www.w3.org/2000/svg" width="247.193" height="246.107" viewBox="0 0 247.193 246.107">
  <g id="Grupo_56467" data-name="Grupo 56467" transform="translate(-669.237 -1133.114)">
    <g id="Grupo_53775" data-name="Grupo 53775" transform="translate(673.389 1278.125)">
      <path id="Trazado_100542" data-name="Trazado 100542" d="M660.5,1014.072a120.555,120.555,0,0,1-86.842-36.843,126.187,126.187,0,0,1-33.348-63,1.046,1.046,0,0,1,2.049-.419,124.084,124.084,0,0,0,32.794,61.955,118.675,118.675,0,0,0,170.692,0,124.572,124.572,0,0,0,30.593-52.918,1.046,1.046,0,1,1,2.012.57,126.665,126.665,0,0,1-31.109,53.81A120.56,120.56,0,0,1,660.5,1014.072Z" transform="translate(-540.287 -912.975)" fill="#d4c99b"/>
    </g>
    <g id="Grupo_53776" data-name="Grupo 53776" transform="translate(669.237 1133.114)">
      <path id="Trazado_100543" data-name="Trazado 100543" d="M782.2,883.156a1.045,1.045,0,0,1-1.044-1.005c-.142-3.668-.464-7.37-.958-11a1.045,1.045,0,0,1,2.072-.281c.5,3.7.832,7.47.976,11.2a1.045,1.045,0,0,1-1,1.086ZM537.1,879a1.133,1.133,0,0,1-.126-.007,1.046,1.046,0,0,1-.913-1.164c.466-3.863,1.02-7.592,1.646-11.086a1.046,1.046,0,1,1,2.058.369c-.619,3.453-1.166,7.143-1.627,10.967A1.047,1.047,0,0,1,537.1,879Zm242.1-17.907a1.047,1.047,0,0,1-1.018-.806c-.841-3.57-1.866-7.143-3.048-10.619a1.046,1.046,0,0,1,1.98-.673c1.2,3.539,2.247,7.177,3.1,10.812a1.045,1.045,0,0,1-.778,1.258A1.013,1.013,0,0,1,779.2,861.092Zm-238.112-4.013a1.048,1.048,0,0,1-1.014-1.306c.956-3.727,2.059-7.343,3.278-10.752a1.046,1.046,0,1,1,1.969.7c-1.2,3.347-2.281,6.9-3.221,10.566A1.048,1.048,0,0,1,541.085,857.079ZM772.032,840a1.044,1.044,0,0,1-.953-.616c-1.509-3.345-3.2-6.657-5.021-9.843a1.046,1.046,0,0,1,1.815-1.038c1.856,3.245,3.576,6.616,5.111,10.022a1.047,1.047,0,0,1-.952,1.476Zm-223.411-3.872a1.046,1.046,0,0,1-.941-1.5,106.252,106.252,0,0,1,5.4-9.865,1.045,1.045,0,1,1,1.779,1.1,104.428,104.428,0,0,0-5.3,9.673A1.046,1.046,0,0,1,548.622,836.132Zm212.35-15.461a1.046,1.046,0,0,1-.855-.441c-2.125-3-4.417-5.928-6.813-8.7a1.046,1.046,0,1,1,1.58-1.37c2.441,2.819,4.776,5.8,6.941,8.856a1.045,1.045,0,0,1-.852,1.65Zm-200.708-3.506a1.046,1.046,0,0,1-.836-1.674c2.141-2.852,4.449-5.7,7.056-8.722a1.046,1.046,0,0,1,1.582,1.368c-2.575,2.981-4.854,5.8-6.966,8.61A1.044,1.044,0,0,1,560.264,817.166Zm186.118-13.325a1.039,1.039,0,0,1-.717-.285c-2.482-2.341-5.371-4.866-8.352-7.3a1.046,1.046,0,0,1,1.323-1.619c3.018,2.465,5.945,5.024,8.463,7.4a1.046,1.046,0,0,1-.717,1.806Zm-171.449-3.432a1.045,1.045,0,0,1-.686-1.836c2.745-2.375,5.725-4.709,8.86-6.937a1.046,1.046,0,1,1,1.212,1.7c-3.081,2.19-6.009,4.482-8.7,6.813A1.036,1.036,0,0,1,574.933,800.409ZM729.114,789.7a1.047,1.047,0,0,1-.61-.2c-3.047-2.191-6.146-4.271-9.212-6.182a1.046,1.046,0,0,1,1.107-1.775c3.1,1.935,6.241,4.041,9.326,6.258a1.047,1.047,0,0,1-.611,1.9ZM593.07,787.463a1.046,1.046,0,0,1-.534-1.946c3.176-1.883,6.5-3.684,9.875-5.356a1.046,1.046,0,0,1,.928,1.875c-3.33,1.648-6.6,3.424-9.736,5.279A1.035,1.035,0,0,1,593.07,787.463Zm117.092-9.532a1.036,1.036,0,0,1-.483-.12c-3.382-1.764-6.757-3.336-10.029-4.669a1.046,1.046,0,0,1,.79-1.937c3.333,1.358,6.767,2.957,10.207,4.752a1.046,1.046,0,0,1-.485,1.973Zm-97.118-.366a1.046,1.046,0,0,1-.4-2.014c3.467-1.414,7.015-2.713,10.547-3.86a1.046,1.046,0,1,1,.647,1.989c-3.483,1.132-6.983,2.414-10.4,3.808A1.037,1.037,0,0,1,613.044,777.565Zm21.205-6.882a1.046,1.046,0,0,1-.247-2.062c3.688-.9,7.4-1.64,11.026-2.21a1.046,1.046,0,0,1,.324,2.066c-3.572.561-7.224,1.293-10.855,2.176A1.034,1.034,0,0,1,634.249,770.683Zm55.247-1.07a1.039,1.039,0,0,1-.276-.037,70.335,70.335,0,0,0-10.778-2.1,1.046,1.046,0,0,1,.229-2.079,72.584,72.584,0,0,1,11.1,2.156,1.046,1.046,0,0,1-.275,2.055Zm-33.223-2.354a1.046,1.046,0,0,1-.066-2.09,106.177,106.177,0,0,1,11.261-.125,1.046,1.046,0,1,1-.091,2.09,103.808,103.808,0,0,0-11.038.123Z" transform="translate(-536.049 -764.95)" fill="#d4c99b"/>
    </g>
    <g id="Grupo_53797" data-name="Grupo 53797" transform="translate(702.762 1166.633)">
      <g id="Grupo_53794" data-name="Grupo 53794" transform="translate(143.429 15.79)">
        <path id="Trazado_100563" data-name="Trazado 100563" d="M754.7,877.377a1.146,1.146,0,0,1-1.13-.97,88.78,88.78,0,0,0-2.105-9.868,1.144,1.144,0,0,1,2.207-.6,91.451,91.451,0,0,1,2.16,10.124,1.144,1.144,0,0,1-.956,1.3A1.2,1.2,0,0,1,754.7,877.377Zm-5.423-19.768a1.144,1.144,0,0,1-1.062-.718,89.089,89.089,0,0,0-4.337-9.211,1.144,1.144,0,0,1,2.011-1.091,91.371,91.371,0,0,1,4.449,9.45,1.146,1.146,0,0,1-1.061,1.571Zm-9.818-18.1a1.142,1.142,0,0,1-.937-.488c-1.249-1.786-2.581-3.55-3.958-5.245-.76-.936-1.547-1.865-2.337-2.764a1.144,1.144,0,0,1,1.716-1.513c.811.922,1.618,1.875,2.4,2.834,1.411,1.736,2.775,3.544,4.057,5.375a1.144,1.144,0,0,1-.937,1.8Zm-13.612-15.455a1.141,1.141,0,0,1-.768-.3,89.7,89.7,0,0,0-7.92-6.4,1.143,1.143,0,1,1,1.332-1.858,91.587,91.587,0,0,1,8.125,6.562,1.144,1.144,0,0,1-.769,1.992Z" transform="translate(-716.681 -815.284)" fill="#86bec4"/>
      </g>
      <g id="Grupo_53795" data-name="Grupo 53795">
        <path id="Trazado_100564" data-name="Trazado 100564" d="M571.559,896.36a1.144,1.144,0,0,1-1.141-1.079c-.1-1.721-.147-3.473-.147-5.207s.05-3.5.148-5.235a1.144,1.144,0,0,1,2.284.128c-.1,1.695-.145,3.413-.145,5.107s.049,3.4.144,5.077a1.145,1.145,0,0,1-1.078,1.207Zm1.157-20.564a1.171,1.171,0,0,1-.193-.016,1.145,1.145,0,0,1-.937-1.32,92.443,92.443,0,0,1,2.333-10.18,1.144,1.144,0,0,1,2.2.638,89.728,89.728,0,0,0-2.275,9.926A1.144,1.144,0,0,1,572.716,875.8Zm5.732-19.778a1.132,1.132,0,0,1-.441-.089,1.144,1.144,0,0,1-.613-1.5,91.855,91.855,0,0,1,4.573-9.388,1.144,1.144,0,1,1,2,1.118,89.772,89.772,0,0,0-4.458,9.153A1.143,1.143,0,0,1,578.448,856.018Zm10.06-17.966a1.144,1.144,0,0,1-.928-1.813,92.227,92.227,0,0,1,6.578-8.109,1.144,1.144,0,0,1,1.692,1.541,89.4,89.4,0,0,0-6.414,7.906A1.144,1.144,0,0,1,588.508,838.053Zm13.861-15.229a1.144,1.144,0,0,1-.754-2,92.732,92.732,0,0,1,8.234-6.424,1.144,1.144,0,1,1,1.3,1.88,90.479,90.479,0,0,0-8.029,6.265A1.141,1.141,0,0,1,602.369,822.824ZM619.3,811.1a1.144,1.144,0,0,1-.541-2.152,91.924,91.924,0,0,1,9.469-4.4,1.144,1.144,0,1,1,.845,2.126,89.82,89.82,0,0,0-9.234,4.294A1.129,1.129,0,0,1,619.3,811.1Zm19.134-7.6a1.144,1.144,0,0,1-.3-2.248,91.758,91.758,0,0,1,9.7-2.065,1.144,1.144,0,0,1,.354,2.26,89.714,89.714,0,0,0-9.459,2.013A1.136,1.136,0,0,1,638.43,803.493Z" transform="translate(-570.271 -799.166)" fill="#86bec4"/>
      </g>
      <g id="Grupo_53796" data-name="Grupo 53796" transform="translate(16.045 141.084)">
        <path id="Trazado_100565" data-name="Trazado 100565" d="M662.52,984.651c-2.6,0-5.233-.112-7.842-.333a1.144,1.144,0,0,1,.193-2.281,90.124,90.124,0,0,0,10.18.29,1.144,1.144,0,0,1,.065,2.288Q663.82,984.651,662.52,984.651Zm12.837-.915a1.144,1.144,0,0,1-.161-2.277,89.184,89.184,0,0,0,9.979-2.019,1.144,1.144,0,1,1,.581,2.213,91.6,91.6,0,0,1-10.236,2.071A1.14,1.14,0,0,1,675.357,983.736Zm-30.793-.859a1.1,1.1,0,0,1-.224-.023,92.4,92.4,0,0,1-10.112-2.616,1.144,1.144,0,0,1,.7-2.179,90.409,90.409,0,0,0,9.859,2.551,1.144,1.144,0,0,1-.221,2.266Zm50.709-4.37a1.144,1.144,0,0,1-.414-2.21,89.819,89.819,0,0,0,9.264-4.227,1.144,1.144,0,0,1,1.067,2.024,91.908,91.908,0,0,1-9.5,4.336A1.139,1.139,0,0,1,695.273,978.507Zm-70.32-1.917a1.15,1.15,0,0,1-.471-.1,91.12,91.12,0,0,1-9.251-4.846,1.144,1.144,0,1,1,1.177-1.962,88.854,88.854,0,0,0,9.018,4.724,1.144,1.144,0,0,1-.472,2.186ZM607.3,966a1.138,1.138,0,0,1-.7-.237,92.106,92.106,0,0,1-7.9-6.822,1.144,1.144,0,0,1,1.592-1.645,89.473,89.473,0,0,0,7.7,6.653,1.144,1.144,0,0,1-.7,2.051Zm-14.8-14.314a1.14,1.14,0,0,1-.884-.417l-.4-.494q-2.328-2.864-4.358-5.8a1.144,1.144,0,0,1,1.882-1.3c1.32,1.908,2.737,3.8,4.209,5.607l.438.534a1.145,1.145,0,0,1-.883,1.872Z" transform="translate(-586.65 -943.182)" fill="#86bec4"/>
      </g>
      <circle id="Elipse_3989" data-name="Elipse 3989" cx="67.023" cy="67.023" r="67.023" transform="translate(24.803 23.71)" fill="#86bec4"/>
    </g>
    <g id="Grupo_53824" data-name="Grupo 53824" transform="translate(747.001 1210.604)">
      <path id="Trazado_101285" data-name="Trazado 101285" d="M688.07,933.735a15.693,15.693,0,0,0-7.308-9.108h-35.64a15.7,15.7,0,0,0-7.308,9.108Z" transform="translate(-615.886 -845.691)" fill="#ff9696"/>
      <path id="Trazado_101286" data-name="Trazado 101286" d="M673.4,893.359l1.787,2.455a19.082,19.082,0,0,0,7.649-11.127l-2.951-.712A16.119,16.119,0,0,1,673.4,893.359Z" transform="translate(-616.61 -844.863)" fill="#8c757e"/>
      <path id="Trazado_101287" data-name="Trazado 101287" d="M680.509,879.658q0,.716-.051,1.408l3.028.221q.059-.8.059-1.629v-1.517h-3.036Z" transform="translate(-616.754 -844.745)" fill="#8c757e"/>
      <path id="Trazado_101288" data-name="Trazado 101288" d="M667.988,873.24V870.2a3.036,3.036,0,1,1,3.036-3.036h3.036a6.072,6.072,0,1,0-6.072,6.072Z" transform="translate(-616.377 -844.397)" fill="#8c757e"/>
      <path id="Trazado_101289" data-name="Trazado 101289" d="M655.529,864.1a4.56,4.56,0,0,0-4.554-4.554v3.037a1.518,1.518,0,1,1-1.517,1.518h-3.036a4.554,4.554,0,1,0,9.108,0Z" transform="translate(-616.061 -844.366)" fill="#8c757e"/>
      <path id="Trazado_101290" data-name="Trazado 101290" d="M657.172,868.844v3.036a1.518,1.518,0,1,1-1.518,1.518h-3.036a4.554,4.554,0,1,0,4.553-4.553Z" transform="translate(-616.187 -844.555)" fill="#8c757e"/>
      <path id="Trazado_101291" data-name="Trazado 101291" d="M703.6,892.626v-15.18a4.56,4.56,0,0,0-4.554-4.554H688.388c-.345-15.417-12.651-28.286-27.759-28.823a28.815,28.815,0,0,0-27.857,18.2h-6.589a1.521,1.521,0,0,1-1.518-1.518v-3.036h-3.036v3.036a4.56,4.56,0,0,0,4.554,4.554h5.587a29.044,29.044,0,0,0-1.034,7.589v16.275l4.649,1.55.59,6.464h-9.792a4.56,4.56,0,0,0-4.554,4.553v3.037h3.036v-3.037a1.52,1.52,0,0,1,1.518-1.518h10.067l.691,7.59h15.048v3.545l-16.72,7.041a19.764,19.764,0,0,0-12.122,18.256v1.517h78.935v-1.517a19.763,19.763,0,0,0-12.121-18.256l-16.721-7.041v-8.724c9.8-4.961,15.18-13.329,15.18-23.664v-3.036h10.625a1.521,1.521,0,0,1,1.518,1.518v15.18ZM655.25,880.018c-7.284-1.6-12.371-7.027-12.371-13.2,0-7.532,7.491-13.662,16.7-13.662s16.7,6.13,16.7,13.662c0,4.743-2.957,9.076-7.909,11.595a7.622,7.622,0,0,0-4.235,6.8V912.8a7.555,7.555,0,0,0,4.771,7.048l9.087,3.635a14.075,14.075,0,0,1,8.8,11.645H638.44a14.076,14.076,0,0,1,8.8-11.645l9.085-3.635A7.554,7.554,0,0,0,661.1,912.8V887.4a7.556,7.556,0,0,0-5.846-7.379Zm30.133-1.054c0,9.4-5.081,16.977-14.312,21.344l-.868.411v12.648l18.579,7.822a16.733,16.733,0,0,1,10.2,13.939h-9.113a17.119,17.119,0,0,0-10.75-14.463l-9.086-3.635a4.531,4.531,0,0,1-2.862-4.227V885.212a4.6,4.6,0,0,1,2.574-4.091c5.993-3.045,9.569-8.392,9.569-14.3,0-9.207-8.853-16.7-19.734-16.7s-19.734,7.491-19.734,16.7c0,7.61,6.068,14.256,14.756,16.162a4.5,4.5,0,0,1,3.46,4.414V912.8a4.53,4.53,0,0,1-2.864,4.227l-9.086,3.635a17.118,17.118,0,0,0-10.749,14.463H626.25a16.733,16.733,0,0,1,10.2-13.939l18.579-7.822v-8.6H639.712l-1.483-16.307-4.457-1.486V872.892a25.8,25.8,0,0,1,26.747-25.787c13.71.486,24.864,12.348,24.864,26.443Z" transform="translate(-615.556 -844.05)" fill="#8c757e"/>
      <g id="Grupo_53823" data-name="Grupo 53823" transform="translate(0 0.001)">
        <path id="Trazado_101292" data-name="Trazado 101292" d="M623.019,859.231a7.59,7.59,0,1,1,7.59-7.589A7.6,7.6,0,0,1,623.019,859.231Z" transform="translate(-615.43 -844.051)" fill="#ff9696"/>
        <path id="Trazado_101293" data-name="Trazado 101293" d="M623.019,919.663a7.59,7.59,0,1,1,7.59-7.589A7.6,7.6,0,0,1,623.019,919.663Z" transform="translate(-615.43 -845.282)" fill="#ff9696"/>
        <path id="Trazado_101294" data-name="Trazado 101294" d="M703.6,907.266a7.59,7.59,0,1,1,7.59-7.59A7.6,7.6,0,0,1,703.6,907.266Z" transform="translate(-617.071 -845.029)" fill="#ff9696"/>
      </g>
      <path id="Trazado_101295" data-name="Trazado 101295" d="M655.635,880.207c-7.284-1.6-12.37-7.027-12.37-13.2,0-7.532,7.491-13.662,16.7-13.662s16.7,6.13,16.7,13.662c0,4.743-2.958,9.076-7.909,11.595a7.623,7.623,0,0,0-4.236,6.8v27.592a7.556,7.556,0,0,0,4.772,7.047l9.086,3.635a14.073,14.073,0,0,1,8.8,11.645H638.825a14.074,14.074,0,0,1,8.8-11.645l9.085-3.635a7.554,7.554,0,0,0,4.772-7.047V887.585a7.556,7.556,0,0,0-5.846-7.379Z" transform="translate(-615.906 -844.24)" fill="#fff"/>
      <path id="Trazado_101296" data-name="Trazado 101296" d="M685.515,879.026c0,9.4-5.082,16.977-14.311,21.345l-.868.41V913.43l18.578,7.822a16.73,16.73,0,0,1,10.2,13.939H690a17.118,17.118,0,0,0-10.749-14.463l-9.087-3.635a4.529,4.529,0,0,1-2.861-4.227V885.275a4.6,4.6,0,0,1,2.574-4.091c5.992-3.045,9.569-8.391,9.569-14.3,0-9.207-8.853-16.7-19.734-16.7s-19.734,7.491-19.734,16.7c0,7.61,6.067,14.256,14.756,16.162a4.5,4.5,0,0,1,3.459,4.414v25.407a4.528,4.528,0,0,1-2.862,4.227l-9.087,3.635a17.121,17.121,0,0,0-10.749,14.463h-9.111a16.733,16.733,0,0,1,10.2-13.939l18.578-7.822v-8.6H639.843l-1.483-16.307L633.9,887.04V872.955a25.8,25.8,0,0,1,26.747-25.787c13.71.486,24.864,12.348,24.864,26.443Z" transform="translate(-615.653 -844.113)" fill="#fff"/>
    </g>
  </g>
</svg>
