<svg xmlns="http://www.w3.org/2000/svg" width="46.727" height="48.931" viewBox="0 0 46.727 48.931">
  <g id="Grupo_54907" data-name="Grupo 54907" transform="translate(-231.986 -5833.079)">
    <path id="Trazado_103614" data-name="Trazado 103614" d="M231.986,5877.673a4.478,4.478,0,0,0,4.58,4.337h26.883a4.5,4.5,0,0,0,4.482-3.61,4.411,4.411,0,0,0,3.812-4.281v-19.534h2.185a.784.784,0,0,0,.43-.119l4-2.6a.786.786,0,0,0,0-1.32l-4-2.622a.8.8,0,0,0-.43-.15h-2.185v-4.305a.983.983,0,0,0-.351-.68l-9.1-9.269a.8.8,0,0,0-.186-.188l-.024-.023a.787.787,0,0,0-.563-.233H240.313a4.513,4.513,0,0,0-4.5,3.609,4.426,4.426,0,0,0-3.829,4.281Zm13.417-24.667v-3.65h27.721v3.65Zm29.3-.649v-2.291l1.761,1.145Zm-12.232-16.436,6.544,6.727h-5.489a1.031,1.031,0,0,1-1.055-1.011Zm-22.157-1.265h20.578v6.98a2.611,2.611,0,0,0,2.633,2.589h6.64v3.551H244.653a.863.863,0,0,0-.829.834v.1l-2.348-.046h-.008a.81.81,0,0,0-.789.813l.025,3.435a.788.788,0,0,0,.789.782h2.331v.117a.809.809,0,0,0,.829.771h1.667l-.011,1.184a1.74,1.74,0,0,0,.471,1.216,1.458,1.458,0,0,0,1.023.46h9.583a.789.789,0,1,0,0-1.578h-9.495c0-.1,0-.049,0-.062l.011-1.221h22.265v19.534a2.873,2.873,0,0,1-2.969,2.761H240.313a2.9,2.9,0,0,1-3-2.761v-36.578c0-.04.026-.081.026-.122a.7.7,0,0,0,0-.1A2.889,2.889,0,0,1,240.313,5834.657Zm3.512,17.461h-1.547l-.033-1.846,1.581.019Zm-10.26-11.149a2.883,2.883,0,0,1,2.17-2.659v35.809a4.478,4.478,0,0,0,4.578,4.339h25.981a2.9,2.9,0,0,1-2.845,1.974H236.566a2.9,2.9,0,0,1-3-2.759Z" fill="#ff9696"/>
    <path id="Trazado_103615" data-name="Trazado 103615" d="M243.2,5866.248h12.976a.789.789,0,0,0,0-1.579H243.2a.789.789,0,0,0,0,1.579Z" transform="translate(-1.7 -5.152)" fill="#ff9696"/>
    <path id="Trazado_103616" data-name="Trazado 103616" d="M243.2,5870.844h22.583a.789.789,0,0,0,0-1.578H243.2a.789.789,0,1,0,0,1.578Z" transform="translate(-1.7 -5.901)" fill="#ff9696"/>
    <path id="Trazado_103617" data-name="Trazado 103617" d="M243.2,5875.441h22.583a.789.789,0,0,0,0-1.579H243.2a.789.789,0,0,0,0,1.579Z" transform="translate(-1.7 -6.651)" fill="#ff9696"/>
    <path id="Trazado_103618" data-name="Trazado 103618" d="M243.2,5880.039h22.583a.789.789,0,0,0,0-1.579H243.2a.789.789,0,0,0,0,1.579Z" transform="translate(-1.7 -7.401)" fill="#ff9696"/>
  </g>
</svg>
