<svg xmlns="http://www.w3.org/2000/svg" width="526.921" height="687.304" viewBox="0 0 526.921 687.304"><g transform="translate(590.088 -7103.545)"><path d="M-374.3,7790.087c3.016.063,2.911.272,4.87.261a9.444,9.444,0,0,0,4.782-1.043,8.639,8.639,0,0,0,2.174-2.435c1.562-2.121,2.332-3.19,3.3-4.7a78.045,78.045,0,0,1,4.782-6.348,62.349,62.349,0,0,1,6.435-7.391,49.586,49.586,0,0,1,6.87-5.218c2.317-1.54,4.409-2.738,7.826-4.695,3.025-1.733,4.68-2.6,6.7-4.522a12.539,12.539,0,0,0,2.87-3.739,12.25,12.25,0,0,0,1.13-4.435,15.589,15.589,0,0,0-.26-4.174,41.518,41.518,0,0,0-1.566-5.565,31.6,31.6,0,0,1-.869-6.522,98.116,98.116,0,0,1-.174-11.217c.472-10.65,1.217-17.392,1.217-17.392,1.582-14.307,2.154-16.731,3.739-30.347,1.031-8.861,1.546-14.336,2.348-22.87.16-1.7.585-6.26.957-12.261.313-5.052.487-7.964.434-11.913a97.357,97.357,0,0,0-.7-10.956c-.573-4.639-1.657-8.919-3.826-17.479-1.121-4.422-1.5-5.622-3.218-12.434-1.668-6.6-1.94-7.942-2.087-8.7a128.6,128.6,0,0,1-1.565-13.217c-.646-7.183-.989-11.094-1.043-16.609-.017-1.7.018-1.108.087-7.3,0-.329.081-7.463.086-15.479.007-8.544-.076-8.026-.086-16.608-.005-4.028.025-8.889.086-18.609.061-9.635.083-10.626.088-14.7.009-8.628.031-12.942-.088-15.565-.08-1.778-.269-5.387-.26-9.3.01-4.538.274-4.382.087-5.739a6.721,6.721,0,0,1,.087-2.609,6.386,6.386,0,0,1,.608-1.565,9.821,9.821,0,0,1,2.174-2.435,13.292,13.292,0,0,0,2.087-2.87,29.9,29.9,0,0,0,2.174-5.217c.744-2.009,1.117-3.014,1.3-3.565a55.462,55.462,0,0,0,1.914-6.522,50.585,50.585,0,0,0,.869-6.957,40.316,40.316,0,0,0,.261-6.869,30.038,30.038,0,0,0-1.217-6.174,53.258,53.258,0,0,0-3.131-8.174c-1.151-2.481-3.044-5.8-6.782-12.348-1.41-2.467-2.137-3.738-3.218-5.565-1.763-2.98-2.256-3.7-4.348-7.217-2.222-3.736-3.15-5.416-3.565-6.174a34.457,34.457,0,0,1-3.13-6.522c-.378-1.332-.162-1.115-1.131-5.652a30.193,30.193,0,0,1-.7-3.652,19.367,19.367,0,0,1,.26-5.044,52.68,52.68,0,0,1,2.435-8.783c.86-2.52.858-2.261,2-5.565,1.2-3.476,1.292-4.013,2.087-6.174.828-2.25,1.191-2.915,2.609-6.261,1.514-3.571,2.564-6.265,3.478-8.608,1.781-4.567,2.672-6.851,3.565-9.739.274-.886.027-.132,1.913-6.783a56.289,56.289,0,0,0,1.479-5.652c.338-1.877.242-2.212.695-6,.159-1.324.338-2.593.7-5.131.841-5.961.912-5.861,1.13-7.826a58.027,58.027,0,0,0,.435-7.739,82.254,82.254,0,0,0-.956-9.043c-.572-4.264-1.117-7.568-1.479-9.652-.438-2.531-.758-4.378-1.3-6.87-.716-3.27-1.2-4.814-1.913-7.565-.626-2.413-1.287-5.58-2.609-11.913-.813-3.9-1.568-7.518-2.521-12.522-1.756-9.222-1.41-8.583-2.174-12.174-.391-1.836-.312-3.773-.87-5.565a5.52,5.52,0,0,1-.174-2.609,2.9,2.9,0,0,1,.435-1.13,3.181,3.181,0,0,1,1.3-1.044,11.992,11.992,0,0,0,2.348-2.261A33.544,33.544,0,0,0-328.3,7164c1.513-2.4,2.494-4.3,2.7-4.695a54.661,54.661,0,0,0,3.043-7.131,33.093,33.093,0,0,0,1.479-5.218,34.965,34.965,0,0,0,.261-8.521,47,47,0,0,0-.609-7.13,32.919,32.919,0,0,0-3.478-9.479,31.464,31.464,0,0,0-5.131-7.3,32.608,32.608,0,0,0-8.348-6.174,35.878,35.878,0,0,0-10.956-3.565,34.355,34.355,0,0,0-14.609,0,31.985,31.985,0,0,0-8.435,3.3,33.087,33.087,0,0,0-6.609,4.956,34.229,34.229,0,0,0-6.173,8.087c-1.618,2.938-2.441,5.93-4.087,11.913-1.163,4.226-2.029,8.1-2.7,11.653a77.026,77.026,0,0,0-1.478,10.174c-.106,1.625-.129,4.011-.174,8.782-.03,3.123-.044,4.717,0,6.348a49.883,49.883,0,0,0,.869,9.217c.7,3.328,1.458,4.735,2.435,5.826a6.8,6.8,0,0,0,2.7,2c1.219.464,1.765.193,6.261-.26,3.464-.35,3.187-.193,4.522-.435a13.57,13.57,0,0,1,3.391-.435,7.009,7.009,0,0,1,2.869.609,6.645,6.645,0,0,1,2.261,1.739,7.941,7.941,0,0,1,1.565,2.956,39.655,39.655,0,0,1,1.479,6.088c.837,5.981,1.26,8.994,1.478,10.086.66,3.316.99,4.974,1.3,6.174a17.5,17.5,0,0,1,.609,2.87,13.862,13.862,0,0,1-.261,4.608,13.021,13.021,0,0,1-2.7,5.131c-2.28,2.92-4.333,6.017-6.7,8.869-1.429,1.725-3.909,5.179-8.87,12.087-4.943,6.884-4.207,6.129-7.391,10.435-2.406,3.254-4.633,6.642-7.13,9.826a43.814,43.814,0,0,0-3.479,5.392,11.672,11.672,0,0,0-1.739,4.434,13.124,13.124,0,0,0,.522,4.609,23.58,23.58,0,0,0,1.3,4.435,22.262,22.262,0,0,0,4,6.261c1.5,1.729,2.257,2.594,2.957,2.869a1.531,1.531,0,0,1,.782.609,1.455,1.455,0,0,1,.174.87c-.191,2.659.152,5.337,0,8-.08,1.418-.057,2.84-.087,4.26-.1,4.631-.034,8.006,0,10.783.034,2.686.022,7.414,0,16.87-.022,9.478-.07,8.433-.087,16.608-.029,14.577.113,12.617,0,16.7-.083,3.034-.192,5.2,0,8.609a83.519,83.519,0,0,0,1.131,9.652c.559,3.186.8,3.489,1.739,8.174.065.323.867,4.34,1.391,7.739.8,5.207.79,7.909,1.218,14.522.3,4.593.27,2.767,1.217,14.347,1.127,13.777.97,13.971,1.478,18.609.84,7.667,1.948,13.337,2.957,18.435.777,3.929,1.726,8.255,7.913,31.217,3.4,12.632,5.105,18.947,5.3,19.652,2.019,7.137,3.642,14.38,5.478,21.566a36.875,36.875,0,0,1,.87,4.347,54.617,54.617,0,0,1,.261,8.261c.014,4.959.031,7.481.522,9.566a32.173,32.173,0,0,0,2.434,6.26c2.4,5.241,3.6,6.459,5.044,9.653.94,2.078,1.613,4.178,2.783,10.782,1.71,9.66,2.421,17.324,2.521,18.435,1.335,14.746,2,22.119,2.261,26.522.425,7.26.882,17.734.87,30.348-.006,5.995-.108,2.509-1.044,32.608-.2,6.3-1.107,12.568-1.3,18.87a40.515,40.515,0,0,1-1.391,9.652,31.912,31.912,0,0,1-2.435,6.348c-.844,1.62-1.278,2.081-2.783,4.435-1.966,3.075-2.274,3.927-4.174,7.13-2.565,4.327-2.666,3.891-5.217,8.087-2.094,3.444-3.894,6.81-5.739,10.261,0,0-1.336,2.5-4.435,7.217a14.777,14.777,0,0,1-2.348,2.87,16.7,16.7,0,0,1-3.739,2.522,21.328,21.328,0,0,1-6.7,2.434,10.658,10.658,0,0,0-4.434,1.218,3.291,3.291,0,0,0-1.566,1.652,3.329,3.329,0,0,0,.348,2.7c.358.624.811.977,2.609,2a26.555,26.555,0,0,0,3.826,2c1.769.54,1.724-.008,4.435.608a21.48,21.48,0,0,0,3.13.609C-375.4,7790.073-374.936,7790.073-374.3,7790.087Z" fill="#fff" stroke="#ccc" stroke-miterlimit="10" stroke-width="1"/><ellipse cx="34.783" cy="3.304" rx="34.783" ry="3.304" transform="translate(-391.863 7260)" fill="none" stroke="#0e4c7a" stroke-miterlimit="10" stroke-width="1"/><ellipse cx="16.522" cy="2.246" rx="16.522" ry="2.246" transform="translate(-361.964 7216.547) rotate(-7.836)" fill="none" stroke="#00a99d" stroke-miterlimit="10" stroke-width="1"/><ellipse cx="38.174" cy="3.13" rx="38.174" ry="3.13" transform="translate(-400.906 7272.87)" fill="none" stroke="#00a99d" stroke-miterlimit="10" stroke-width="1"/><ellipse cx="23.043" cy="2.087" rx="23.043" ry="2.087" transform="translate(-390.124 7337.217)" fill="none" stroke="#0e4c7a" stroke-miterlimit="10" stroke-width="1"/><ellipse cx="34" cy="1.652" rx="34" ry="1.652" transform="translate(-387.167 7397.217)" fill="none" stroke="#9e005d" stroke-miterlimit="10" stroke-width="1"/><ellipse cx="15.913" cy="2.348" rx="15.913" ry="2.348" transform="translate(-358.124 7565.043)" fill="none" stroke="#9e005d" stroke-miterlimit="10" stroke-width="1"/><path d="M-312.037,7330.087c-.645-2.319-1.592-5.855-2.609-10.217-1.04-4.467-1.189-5.661-2.217-10.305-1.681-7.593-2.05-7.869-3.522-14.478-1.267-5.69-2.022-10.107-2.609-13.565-.7-4.117-1.2-7.7-2.217-14.87-.654-4.632-.856-6.258-1.565-11.087-.587-4-1.1-7.306-1.957-11.478a62.482,62.482,0,0,0-2-7.652,29.377,29.377,0,0,0-2.521-5.826,22.681,22.681,0,0,0-2.783-3.826,10.341,10.341,0,0,0-3.217-2.783,10.224,10.224,0,0,0-4.609-.783,11.533,11.533,0,0,0-4.435.435,11.175,11.175,0,0,0-4.435,3.218,18.143,18.143,0,0,0-3.217,4.435,17.976,17.976,0,0,0-1.826,6.782,31.292,31.292,0,0,0,.435,6.956c.286,2.288.513,4.1,1.13,7.044,1.414,6.749,3.647,13.6,4.957,17.826,1.739,5.606,2.985,10.4,5.478,20,2.505,9.643,1.976,8.468,4.087,16.348,3.025,11.295,4.142,13.82,4.87,18.261a43.116,43.116,0,0,0,1.739,7.391,26.324,26.324,0,0,1,1.13,3.217c.115.407.172.612.217.826a8.079,8.079,0,0,1-.391,4.7,7.271,7.271,0,0,1-.956,1.609c-1.445,1.924-2.713,3.984-4.261,5.826-1.048,1.246-2.829,4.12-6.392,9.869-3.574,5.768-5.361,8.653-6.608,11-2.374,4.469-2.312,5.1-5.7,11.7-1.686,3.289-3.059,5.781-4.043,7.565-2.468,4.472-4.4,7.715-6.305,10.913-6.553,10.993-5.182,7.792-8.521,13.653-1.631,2.862-2.654,4.847-5,6.913-1.592,1.4-2.284,1.511-5.174,3.826-2.1,1.684-3.574,3.1-4.87,4.348a45.348,45.348,0,0,0-5.435,5.826,36.68,36.68,0,0,0-3.478,5.652c-.833,1.678-.751,1.844-2.174,5.043-1.194,2.686-1.791,4.028-2.522,5.3-1.805,3.153-2.708,4.729-3.347,5.565-.577.754-1.372,1.712-1.174,2.826a1.959,1.959,0,0,0,1.086,1.478,2.584,2.584,0,0,0,2.175-.522,6.448,6.448,0,0,0,1.869-1.652c2.056-2.637,2.066-1.993,3.7-4.261a52.284,52.284,0,0,0,3.521-6.174,16.545,16.545,0,0,0,1.087-2.3,2.4,2.4,0,0,1,.261-.652,10.929,10.929,0,0,1-.217,1.87c-.665,3.881-3.406,6.323-5.652,11.608a12.772,12.772,0,0,1-2.479,3.827,5.706,5.706,0,0,1-1.739,1.3,6.5,6.5,0,0,1-2.478.521,15.091,15.091,0,0,1-3.217-.13c-1.85-.233-2.783-.391-2.783-.391-1.011-.172-1.458-.281-1.826,0-.569.434-.459,1.429-.435,1.652a3.767,3.767,0,0,0,1.392,2.348c1.272,1.107,2.685,1.282,4.956,1.565a9.538,9.538,0,0,0,4.391-.087,20.979,20.979,0,0,0,2.348-1.044c.288-.138,1.8-.862,2.565-1.3,1.569-.9,2.647-2.3,4.74-5.043,2.113-2.776,1.631-2.59,2.913-4.044,1.1-1.251,2.328-2.375,2.565-3.478a2.227,2.227,0,0,1,.522-1.044c.287-.313.715-.573.825-.478.161.138-.374,1.007-.782,1.653-3.514,5.559-5.271,8.338-7,9.695-2.386,1.872-4.541,2.518-4.435,3.87a2.193,2.193,0,0,0,1,1.478,3.147,3.147,0,0,0,2.7.13A5.517,5.517,0,0,0-396.3,7467c2.226-2.12,3.826-3.778,3.957-3.913a41.521,41.521,0,0,0,3.174-3.478c.527-.682.791-1.023,1.043-1.392.411-.6.883-1.16,1.261-1.782.223-.366.409-.709.652-.7s.4.364.435.435c.505,1.1-2.531,6.05-7.87,9.217-1.189.706-3.214,1.751-3.13,3a1.874,1.874,0,0,0,.565,1.087,3.146,3.146,0,0,0,2.478.652,14.331,14.331,0,0,0,5.566-1.391,16.247,16.247,0,0,0,4.608-3.869,32.193,32.193,0,0,0,4.174-5.87,58.228,58.228,0,0,0,4.305-9.435c2.114-5.789,2.177-7.475,3.565-11.652a73.129,73.129,0,0,1,6.521-13.826c3.662-6.525,6.637-10.418,11.218-16.7,3.172-4.346,10.023-13.736,16.174-22.956,10.193-15.28,9.817-17.136,15.391-24.261,3.7-4.73,6.544-10.085,10.174-14.869a7.48,7.48,0,0,0,.978-1.7,9.473,9.473,0,0,0,.522-4.239,37.9,37.9,0,0,0-.782-5.935C-311.59,7332.025-311.851,7330.87-312.037,7330.087Z" fill="#fff" stroke="#ccc" stroke-miterlimit="10" stroke-width="1"/><ellipse cx="11.55" cy="2.783" rx="11.55" ry="2.783" transform="translate(-347.658 7722.087)" fill="none" stroke="#9e005d" stroke-miterlimit="10" stroke-width="1"/><path d="M-355.994,7155.261a36.308,36.308,0,0,1,9.783,4.3,21.151,21.151,0,0,1,2.087,1.565,24.646,24.646,0,0,1,4.174,4.957,39.964,39.964,0,0,1,2.478,3.913c.5.917.89,1.723,1.174,2.348" fill="none" stroke="#ccc" stroke-miterlimit="10" stroke-width="1"/><path d="M-362.95,7104.913a26.512,26.512,0,0,1,3.7,4.3,22.552,22.552,0,0,1,3.13,6.174,26.973,26.973,0,0,1,1.044,6.914c.094,1.361.106,2.994.13,6.26.008,1.044.017,2.415,0,4.174-.029,2.947-.109,4.486-.174,6.739-.127,4.391.007,4.416-.087,7.957-.185,7-.692,6.367-.739,12-.01,1.138-.151,3.309-.435,7.652a10.251,10.251,0,0,1-.609,3.391c-.4,1.014-.971,1.915-3.173,4.218a47.966,47.966,0,0,1-4.087,3.956c-1.237,1.047-1.856,1.457-5.87,4.348-1.554,1.119-2.813,2.031-3.609,2.609" fill="none" stroke="#ccc" stroke-miterlimit="10" stroke-width="1"/><path d="M-369.254,7286.783a51.482,51.482,0,0,1-4.174,4.695,19.9,19.9,0,0,1-4.087,3.392,12.1,12.1,0,0,1-4.087,1.565,27.954,27.954,0,0,1-4.7.087c-.5-.011-1.409,0-2.608-.087-.528-.041-.967-.088-1.278-.125" fill="none" stroke="#ccc" stroke-miterlimit="10" stroke-width="1"/><path d="M-385.211,7409.348a17.26,17.26,0,0,1,5.348-1.435c.483-.046,1.59-.053,3.783-.065,2.127-.011,3.19-.017,4.695,0,1.965.022,3.444.039,5.283.13a47.238,47.238,0,0,1,6.065.522,34.259,34.259,0,0,1,6.718,1.956,34.266,34.266,0,0,1,6.26,2.935,34.716,34.716,0,0,1,5.544,4.3,40.744,40.744,0,0,1,4.7,4.891,32.967,32.967,0,0,1,4.369,6.718c.549,1.15.99,2.279,2.087,4.369.627,1.194,1.182,2.158,1.565,2.8" fill="none" stroke="#ccc" stroke-miterlimit="10" stroke-width="1"/><ellipse cx="1.978" cy="11.152" rx="1.978" ry="11.152" transform="translate(-333.947 7341.356) rotate(-85.157)" fill="none" stroke="#ccc" stroke-miterlimit="10" stroke-width="1"/><path d="M-366.486,7423.994c-.292.7-3.649-.045-7.5-1.656s-6.735-3.48-6.444-4.176,3.648.045,7.5,1.656S-366.2,7423.3-366.486,7423.994Z" fill="none" stroke="#ccc" stroke-miterlimit="10" stroke-width="1"/><path d="M-362.055,7215.229a27.962,27.962,0,0,0,2.409-6.49c.525-2.25.487-3.394.913-12.783.178-3.909.233-4.79.261-5.217.243-3.746.451-5.093.653-8.087.213-3.179.02-3.941.26-7.174.127-1.7.282-3.083.392-3.978" fill="none" stroke="#ccc" stroke-miterlimit="10" stroke-width="1"/><rect width="187.092" height="36.617" rx="6.645" transform="translate(-300.694 7188.058)" fill="#00a99d"/><path d="M-275.746,7207.493l.017.053a4.169,4.169,0,0,1-1.261,3.278,5.064,5.064,0,0,1-3.6,1.213,5,5,0,0,1-3.753-1.485,5.262,5.262,0,0,1-1.442-3.824v-2.54a5.353,5.353,0,0,1,1.407-3.823,4.791,4.791,0,0,1,3.656-1.494,5.3,5.3,0,0,1,3.709,1.218,4.162,4.162,0,0,1,1.3,3.317l-.018.053h-2.5a2.806,2.806,0,0,0-.606-1.939,2.43,2.43,0,0,0-1.89-.671,2.139,2.139,0,0,0-1.828.935,3.965,3.965,0,0,0-.677,2.384v2.555a3.85,3.85,0,0,0,.712,2.4,2.291,2.291,0,0,0,1.925.935,2.258,2.258,0,0,0,1.779-.646,2.8,2.8,0,0,0,.576-1.92Z" fill="#fff"/><path d="M-274.507,7207.01a5.109,5.109,0,0,1,1.186-3.486,4.14,4.14,0,0,1,3.287-1.357,4.181,4.181,0,0,1,3.3,1.353,5.077,5.077,0,0,1,1.2,3.49v.184a5.083,5.083,0,0,1-1.191,3.494,4.16,4.16,0,0,1-3.291,1.349,4.173,4.173,0,0,1-3.3-1.349,5.083,5.083,0,0,1-1.19-3.494Zm2.557.179a4.131,4.131,0,0,0,.457,2.085,1.578,1.578,0,0,0,1.477.785,1.564,1.564,0,0,0,1.455-.79,4.1,4.1,0,0,0,.461-2.08v-.183a4.053,4.053,0,0,0-.466-2.063,1.578,1.578,0,0,0-1.468-.8,1.56,1.56,0,0,0-1.455.8,4.116,4.116,0,0,0-.461,2.059Z" fill="#fff"/><path d="M-261.605,7202.343l.114,1.362a3.493,3.493,0,0,1,1.169-1.134,3.041,3.041,0,0,1,1.556-.4,2.864,2.864,0,0,1,2.25.9,4.182,4.182,0,0,1,.809,2.839v5.941h-2.576v-5.946a1.93,1.93,0,0,0-.386-1.361,1.556,1.556,0,0,0-1.169-.4,1.984,1.984,0,0,0-.914.207,1.873,1.873,0,0,0-.677.586v6.915h-2.566v-9.509Z" fill="#fff"/><path d="M-250.742,7200.014v2.329h1.6v1.8h-1.6v4.843a1.12,1.12,0,0,0,.229.791.813.813,0,0,0,.615.237,2.22,2.22,0,0,0,.347-.022,2.879,2.879,0,0,0,.339-.074l.219,1.854a5.316,5.316,0,0,1-.755.2,4.657,4.657,0,0,1-.8.065,2.734,2.734,0,0,1-2.044-.73,3.2,3.2,0,0,1-.716-2.311v-4.852H-254.7v-1.8h1.389v-2.329Z" fill="#fff"/><path d="M-247.9,7207.01a5.11,5.11,0,0,1,1.187-3.486,4.14,4.14,0,0,1,3.287-1.357,4.182,4.182,0,0,1,3.305,1.353,5.077,5.077,0,0,1,1.195,3.49v.184a5.083,5.083,0,0,1-1.191,3.494,4.16,4.16,0,0,1-3.291,1.349,4.172,4.172,0,0,1-3.3-1.349,5.083,5.083,0,0,1-1.191-3.494Zm2.558.179a4.12,4.12,0,0,0,.457,2.085,1.578,1.578,0,0,0,1.477.785,1.565,1.565,0,0,0,1.455-.79,4.112,4.112,0,0,0,.461-2.08v-.183a4.064,4.064,0,0,0-.466-2.063,1.579,1.579,0,0,0-1.468-.8,1.559,1.559,0,0,0-1.455.8,4.106,4.106,0,0,0-.461,2.059Z" fill="#fff"/><path d="M-232.346,7204.549l-.94-.027a1.707,1.707,0,0,0-.941.238,1.5,1.5,0,0,0-.562.668v6.424h-2.558v-9.509h2.382l.114,1.406a3,3,0,0,1,.865-1.164,1.936,1.936,0,0,1,1.227-.418,1.944,1.944,0,0,1,.355.031c.109.021.219.045.33.074Z" fill="#fff"/><path d="M-228.7,7202.343l.115,1.362a3.484,3.484,0,0,1,1.169-1.134,3.037,3.037,0,0,1,1.555-.4,2.864,2.864,0,0,1,2.25.9,4.182,4.182,0,0,1,.809,2.839v5.941h-2.575v-5.946a1.93,1.93,0,0,0-.387-1.361,1.555,1.555,0,0,0-1.169-.4,1.987,1.987,0,0,0-.914.207,1.873,1.873,0,0,0-.677.586v6.915h-2.566v-9.509Z" fill="#fff"/><path d="M-221.281,7207.01a5.11,5.11,0,0,1,1.187-3.486,4.14,4.14,0,0,1,3.287-1.357,4.182,4.182,0,0,1,3.305,1.353,5.077,5.077,0,0,1,1.195,3.49v.184a5.083,5.083,0,0,1-1.191,3.494,4.16,4.16,0,0,1-3.291,1.349,4.172,4.172,0,0,1-3.3-1.349,5.083,5.083,0,0,1-1.191-3.494Zm2.558.179a4.12,4.12,0,0,0,.457,2.085,1.578,1.578,0,0,0,1.477.785,1.565,1.565,0,0,0,1.455-.79,4.112,4.112,0,0,0,.461-2.08v-.183a4.064,4.064,0,0,0-.466-2.063,1.579,1.579,0,0,0-1.468-.8,1.56,1.56,0,0,0-1.455.8,4.106,4.106,0,0,0-.461,2.059Z" fill="#fff"/><path d="M-206.638,7207.177a6.168,6.168,0,0,1,.972-3.63,3.15,3.15,0,0,1,2.737-1.38,2.661,2.661,0,0,1,1.283.307,3.108,3.108,0,0,1,1,.879v-5.212h2.575v13.711h-2.206l-.211-1.16a3.144,3.144,0,0,1-1.059,1,2.809,2.809,0,0,1-1.4.343,3.213,3.213,0,0,1-2.719-1.283,5.472,5.472,0,0,1-.972-3.393Zm2.558.186a3.919,3.919,0,0,0,.421,1.976,1.469,1.469,0,0,0,1.372.72,1.988,1.988,0,0,0,.966-.225,1.8,1.8,0,0,0,.677-.658V7205.1a1.975,1.975,0,0,0-.673-.7,1.775,1.775,0,0,0-.953-.252,1.447,1.447,0,0,0-1.375.84,4.762,4.762,0,0,0-.435,2.193Z" fill="#fff"/><path d="M-191.872,7212.037a4.285,4.285,0,0,1-3.288-1.318,4.716,4.716,0,0,1-1.23-3.349v-.352a5.2,5.2,0,0,1,1.165-3.489,3.864,3.864,0,0,1,3.124-1.362,3.851,3.851,0,0,1,2.988,1.16,4.463,4.463,0,0,1,1.064,3.138v1.4h-5.678l-.017.053a2.459,2.459,0,0,0,.628,1.541,1.964,1.964,0,0,0,1.516.6,4.923,4.923,0,0,0,1.415-.171,6.522,6.522,0,0,0,1.231-.54l.694,1.585a4.741,4.741,0,0,1-1.521.791A6.613,6.613,0,0,1-191.872,7212.037Zm-.229-7.893a1.336,1.336,0,0,0-1.125.545,2.849,2.849,0,0,0-.51,1.433l.027.044h3.146v-.229a2.054,2.054,0,0,0-.383-1.305A1.376,1.376,0,0,0-192.1,7204.144Z" fill="#fff"/><path d="M-178.082,7210.059a1.517,1.517,0,0,0,1.1-.4,1.4,1.4,0,0,0,.413-1.062h2.329l.027.053a2.958,2.958,0,0,1-1.086,2.412,4.087,4.087,0,0,1-2.781.972,4.081,4.081,0,0,1-3.279-1.345,5.125,5.125,0,0,1-1.151-3.454v-.264a5.167,5.167,0,0,1,1.146-3.454,4.059,4.059,0,0,1,3.275-1.353,4,4,0,0,1,2.835,1,3.332,3.332,0,0,1,1.041,2.637l-.018.052h-2.338a1.857,1.857,0,0,0-.4-1.226,1.372,1.372,0,0,0-1.116-.488,1.49,1.49,0,0,0-1.437.79,4.341,4.341,0,0,0-.418,2.037v.262a4.324,4.324,0,0,0,.418,2.05A1.5,1.5,0,0,0-178.082,7210.059Z" fill="#fff"/><path d="M-166.947,7210.481a3.2,3.2,0,0,1-1.116,1.152,2.979,2.979,0,0,1-1.555.4,2.971,2.971,0,0,1-2.351-.962,4.442,4.442,0,0,1-.849-2.993v-5.739h2.558v5.769a2.471,2.471,0,0,0,.351,1.494,1.234,1.234,0,0,0,1.038.453,2.546,2.546,0,0,0,1.054-.2,1.773,1.773,0,0,0,.721-.586v-6.932h2.566v9.509h-2.188Z" fill="#fff"/><path d="M-158.386,7212.037a4.281,4.281,0,0,1-3.287-1.318,4.717,4.717,0,0,1-1.231-3.349v-.352a5.2,5.2,0,0,1,1.165-3.489,3.866,3.866,0,0,1,3.124-1.362,3.852,3.852,0,0,1,2.989,1.16,4.462,4.462,0,0,1,1.063,3.138v1.4h-5.678l-.017.053a2.465,2.465,0,0,0,.629,1.541,1.962,1.962,0,0,0,1.515.6,4.919,4.919,0,0,0,1.415-.171,6.494,6.494,0,0,0,1.231-.54l.694,1.585a4.724,4.724,0,0,1-1.52.791A6.615,6.615,0,0,1-158.386,7212.037Zm-.229-7.893a1.339,1.339,0,0,0-1.125.545,2.84,2.84,0,0,0-.509,1.433l.026.044h3.147v-.229a2.054,2.054,0,0,0-.383-1.305A1.378,1.378,0,0,0-158.615,7204.144Z" fill="#fff"/><path d="M-150.37,7211.852h-2.567v-13.711h2.567Z" fill="#fff"/><path d="M-145.563,7211.852h-2.566v-13.711h2.566Z" fill="#fff"/><path d="M-143.849,7207.01a5.11,5.11,0,0,1,1.187-3.486,4.139,4.139,0,0,1,3.287-1.357,4.18,4.18,0,0,1,3.3,1.353,5.078,5.078,0,0,1,1.2,3.49v.184a5.084,5.084,0,0,1-1.192,3.494,4.159,4.159,0,0,1-3.291,1.349,4.173,4.173,0,0,1-3.3-1.349,5.088,5.088,0,0,1-1.19-3.494Zm2.558.179a4.12,4.12,0,0,0,.457,2.085,1.577,1.577,0,0,0,1.476.785,1.564,1.564,0,0,0,1.455-.79,4.1,4.1,0,0,0,.461-2.08v-.183a4.053,4.053,0,0,0-.466-2.063,1.576,1.576,0,0,0-1.467-.8,1.559,1.559,0,0,0-1.455.8,4.106,4.106,0,0,0-.461,2.059Z" fill="#fff"/><rect width="237.527" height="37.015" rx="6.645" transform="translate(-300.694 7247.325)" fill="#0e4c7a"/><rect width="187.465" height="37.015" rx="6.645" transform="translate(-590.088 7318.986)" fill="#0e4c7a"/><path d="M-275.591,7267.019l.017.053a4.169,4.169,0,0,1-1.26,3.278,5.066,5.066,0,0,1-3.6,1.213,5,5,0,0,1-3.753-1.485,5.261,5.261,0,0,1-1.441-3.823v-2.54a5.355,5.355,0,0,1,1.406-3.824,4.791,4.791,0,0,1,3.656-1.494,5.306,5.306,0,0,1,3.709,1.218,4.163,4.163,0,0,1,1.3,3.317l-.018.053h-2.5a2.8,2.8,0,0,0-.606-1.938,2.424,2.424,0,0,0-1.89-.672,2.14,2.14,0,0,0-1.828.935,3.965,3.965,0,0,0-.677,2.384v2.555a3.857,3.857,0,0,0,.712,2.4,2.292,2.292,0,0,0,1.925.936,2.257,2.257,0,0,0,1.779-.647,2.8,2.8,0,0,0,.577-1.92Z" fill="#fff"/><path d="M-274.352,7266.536a5.107,5.107,0,0,1,1.187-3.485,4.136,4.136,0,0,1,3.287-1.358,4.176,4.176,0,0,1,3.3,1.354,5.075,5.075,0,0,1,1.2,3.489v.185a5.087,5.087,0,0,1-1.192,3.494,4.161,4.161,0,0,1-3.291,1.348,4.172,4.172,0,0,1-3.3-1.348,5.086,5.086,0,0,1-1.191-3.494Zm2.558.18a4.125,4.125,0,0,0,.457,2.085,1.578,1.578,0,0,0,1.476.785,1.565,1.565,0,0,0,1.455-.79,4.106,4.106,0,0,0,.461-2.08v-.184a4.058,4.058,0,0,0-.465-2.062,1.576,1.576,0,0,0-1.468-.8,1.557,1.557,0,0,0-1.455.8,4.1,4.1,0,0,0-.461,2.058Z" fill="#fff"/><path d="M-261.45,7261.869l.115,1.362a3.47,3.47,0,0,1,1.169-1.133,3.029,3.029,0,0,1,1.555-.405,2.86,2.86,0,0,1,2.25.906,4.176,4.176,0,0,1,.809,2.838v5.942h-2.575v-5.947a1.934,1.934,0,0,0-.387-1.361,1.56,1.56,0,0,0-1.169-.4,1.981,1.981,0,0,0-.914.207,1.868,1.868,0,0,0-.677.586v6.915h-2.566v-9.51Z" fill="#fff"/><path d="M-250.586,7259.54v2.329h1.6v1.8h-1.6v4.843a1.124,1.124,0,0,0,.228.791.818.818,0,0,0,.615.237,2.151,2.151,0,0,0,.347-.023,2.694,2.694,0,0,0,.339-.074l.22,1.855a5.226,5.226,0,0,1-.756.2,4.657,4.657,0,0,1-.8.065,2.739,2.739,0,0,1-2.044-.729,3.2,3.2,0,0,1-.716-2.312v-4.851h-1.388v-1.8h1.388v-2.329Z" fill="#fff"/><path d="M-247.747,7266.536a5.106,5.106,0,0,1,1.186-3.485,4.138,4.138,0,0,1,3.287-1.358,4.18,4.18,0,0,1,3.305,1.354,5.074,5.074,0,0,1,1.195,3.489v.185a5.086,5.086,0,0,1-1.191,3.494,4.163,4.163,0,0,1-3.291,1.348,4.176,4.176,0,0,1-3.3-1.348,5.086,5.086,0,0,1-1.19-3.494Zm2.557.18a4.136,4.136,0,0,0,.457,2.085,1.579,1.579,0,0,0,1.477.785,1.566,1.566,0,0,0,1.455-.79,4.106,4.106,0,0,0,.461-2.08v-.184a4.047,4.047,0,0,0-.466-2.062,1.576,1.576,0,0,0-1.468-.8,1.558,1.558,0,0,0-1.455.8,4.11,4.11,0,0,0-.461,2.058Z" fill="#fff"/><path d="M-232.191,7264.075l-.94-.026a1.711,1.711,0,0,0-.941.237,1.5,1.5,0,0,0-.562.668v6.425h-2.558v-9.51h2.382l.114,1.406a3,3,0,0,1,.866-1.164,1.932,1.932,0,0,1,1.226-.418,1.964,1.964,0,0,1,.356.031c.108.021.218.045.33.075Z" fill="#fff"/><path d="M-228.543,7261.869l.114,1.362a3.47,3.47,0,0,1,1.169-1.133,3.03,3.03,0,0,1,1.556-.405,2.86,2.86,0,0,1,2.25.906,4.176,4.176,0,0,1,.808,2.838v5.942h-2.575v-5.947a1.934,1.934,0,0,0-.387-1.361,1.56,1.56,0,0,0-1.169-.4,1.981,1.981,0,0,0-.914.207,1.877,1.877,0,0,0-.677.586v6.915h-2.566v-9.51Z" fill="#fff"/><path d="M-221.125,7266.536a5.106,5.106,0,0,1,1.186-3.485,4.138,4.138,0,0,1,3.287-1.358,4.178,4.178,0,0,1,3.3,1.354,5.075,5.075,0,0,1,1.2,3.489v.185a5.086,5.086,0,0,1-1.191,3.494,4.163,4.163,0,0,1-3.291,1.348,4.176,4.176,0,0,1-3.3-1.348,5.086,5.086,0,0,1-1.19-3.494Zm2.557.18a4.136,4.136,0,0,0,.457,2.085,1.579,1.579,0,0,0,1.477.785,1.566,1.566,0,0,0,1.455-.79,4.106,4.106,0,0,0,.461-2.08v-.184a4.047,4.047,0,0,0-.466-2.062,1.575,1.575,0,0,0-1.468-.8,1.558,1.558,0,0,0-1.455.8,4.11,4.11,0,0,0-.461,2.058Z" fill="#fff"/><path d="M-206.483,7266.7a6.168,6.168,0,0,1,.972-3.63,3.151,3.151,0,0,1,2.737-1.38,2.659,2.659,0,0,1,1.283.308,3.085,3.085,0,0,1,1,.879v-5.212h2.576v13.711h-2.206l-.211-1.16a3.166,3.166,0,0,1-1.06,1,2.817,2.817,0,0,1-1.4.342,3.211,3.211,0,0,1-2.72-1.283,5.467,5.467,0,0,1-.972-3.392Zm2.558.187a3.907,3.907,0,0,0,.422,1.975,1.465,1.465,0,0,0,1.371.721,1.978,1.978,0,0,0,.967-.226,1.788,1.788,0,0,0,.676-.658v-4.076a1.969,1.969,0,0,0-.672-.7,1.779,1.779,0,0,0-.954-.252,1.446,1.446,0,0,0-1.375.84,4.755,4.755,0,0,0-.435,2.192Z" fill="#fff"/><path d="M-191.717,7271.563a4.281,4.281,0,0,1-3.287-1.318,4.712,4.712,0,0,1-1.231-3.349v-.351a5.2,5.2,0,0,1,1.165-3.489,3.863,3.863,0,0,1,3.124-1.363,3.852,3.852,0,0,1,2.989,1.16,4.466,4.466,0,0,1,1.063,3.138v1.4h-5.678l-.017.052a2.465,2.465,0,0,0,.629,1.541,1.96,1.96,0,0,0,1.515.6,4.915,4.915,0,0,0,1.415-.172,6.432,6.432,0,0,0,1.231-.54l.694,1.586a4.754,4.754,0,0,1-1.52.79A6.592,6.592,0,0,1-191.717,7271.563Zm-.229-7.892a1.336,1.336,0,0,0-1.125.545,2.838,2.838,0,0,0-.509,1.432l.026.044h3.146v-.228a2.06,2.06,0,0,0-.382-1.306A1.379,1.379,0,0,0-191.946,7263.671Z" fill="#fff"/><path d="M-173.339,7266.888a5.455,5.455,0,0,1-.976,3.392,3.223,3.223,0,0,1-2.724,1.283,3.057,3.057,0,0,1-1.328-.276,2.756,2.756,0,0,1-.993-.813v4.561h-2.557v-13.166h2.311l.15,1.125a3.057,3.057,0,0,1,1.015-.963,2.764,2.764,0,0,1,1.384-.338,3.163,3.163,0,0,1,2.742,1.38,6.154,6.154,0,0,1,.976,3.63Zm-2.567-.2a4.611,4.611,0,0,0-.448-2.183,1.462,1.462,0,0,0-1.371-.836,1.939,1.939,0,0,0-.989.237,1.708,1.708,0,0,0-.646.678v4.173a1.6,1.6,0,0,0,.646.616,2.185,2.185,0,0,0,1.007.211,1.473,1.473,0,0,0,1.366-.731,3.85,3.85,0,0,0,.435-1.98Z" fill="#fff"/><path d="M-167.547,7271.563a4.281,4.281,0,0,1-3.287-1.318,4.712,4.712,0,0,1-1.231-3.349v-.351a5.2,5.2,0,0,1,1.165-3.489,3.863,3.863,0,0,1,3.124-1.363,3.854,3.854,0,0,1,2.989,1.16,4.466,4.466,0,0,1,1.063,3.138v1.4H-169.4l-.017.052a2.465,2.465,0,0,0,.629,1.541,1.959,1.959,0,0,0,1.515.6,4.915,4.915,0,0,0,1.415-.172,6.459,6.459,0,0,0,1.231-.54l.694,1.586a4.754,4.754,0,0,1-1.52.79A6.592,6.592,0,0,1-167.547,7271.563Zm-.229-7.892a1.336,1.336,0,0,0-1.125.545,2.838,2.838,0,0,0-.509,1.432l.026.044h3.146v-.228a2.06,2.06,0,0,0-.382-1.306A1.379,1.379,0,0,0-167.776,7263.671Z" fill="#fff"/><path d="M-158.24,7269.586a1.518,1.518,0,0,0,1.1-.4,1.405,1.405,0,0,0,.413-1.061h2.329l.027.053a2.96,2.96,0,0,1-1.086,2.412,4.09,4.09,0,0,1-2.782.971,4.081,4.081,0,0,1-3.278-1.344,5.129,5.129,0,0,1-1.151-3.454v-.264a5.164,5.164,0,0,1,1.146-3.454,4.057,4.057,0,0,1,3.275-1.354,4,4,0,0,1,2.835,1,3.336,3.336,0,0,1,1.041,2.637l-.018.053h-2.338a1.861,1.861,0,0,0-.4-1.227,1.375,1.375,0,0,0-1.116-.487,1.487,1.487,0,0,0-1.437.79,4.334,4.334,0,0,0-.418,2.036v.263a4.319,4.319,0,0,0,.418,2.049A1.5,1.5,0,0,0-158.24,7269.586Z" fill="#fff"/><path d="M-150.409,7263.073a3.285,3.285,0,0,1,1.1-1.015,2.9,2.9,0,0,1,1.442-.365,2.912,2.912,0,0,1,2.333.989,4.615,4.615,0,0,1,.848,3.054v5.643h-2.566v-5.673a2.455,2.455,0,0,0-.391-1.572,1.441,1.441,0,0,0-1.165-.463,2.182,2.182,0,0,0-.932.189,1.784,1.784,0,0,0-.668.533v6.986h-2.566v-13.711h2.566Z" fill="#fff"/><path d="M-143.149,7266.536a5.107,5.107,0,0,1,1.187-3.485,4.136,4.136,0,0,1,3.287-1.358,4.18,4.18,0,0,1,3.305,1.354,5.079,5.079,0,0,1,1.195,3.489v.185a5.087,5.087,0,0,1-1.192,3.494,4.16,4.16,0,0,1-3.291,1.348,4.174,4.174,0,0,1-3.3-1.348,5.086,5.086,0,0,1-1.191-3.494Zm2.558.18a4.125,4.125,0,0,0,.457,2.085,1.579,1.579,0,0,0,1.476.785,1.567,1.567,0,0,0,1.456-.79,4.116,4.116,0,0,0,.46-2.08v-.184a4.058,4.058,0,0,0-.465-2.062,1.576,1.576,0,0,0-1.468-.8,1.557,1.557,0,0,0-1.455.8,4.1,4.1,0,0,0-.461,2.058Z" fill="#fff"/><path d="M-131.2,7272.477h-2.5l4.694-13.9h2.5Z" fill="#fff"/><path d="M-116.764,7266.888a5.561,5.561,0,0,1-.949,3.4,3.209,3.209,0,0,1-2.742,1.274,2.922,2.922,0,0,1-1.446-.346,2.99,2.99,0,0,1-1.05-1.016l-.194,1.178h-2.2v-13.711h2.557v5.212a2.9,2.9,0,0,1,.99-.879,2.759,2.759,0,0,1,1.322-.308,3.151,3.151,0,0,1,2.76,1.367,6.274,6.274,0,0,1,.949,3.643Zm-2.558-.185a4.984,4.984,0,0,0-.409-2.214,1.429,1.429,0,0,0-1.392-.818,1.906,1.906,0,0,0-1.011.252,1.747,1.747,0,0,0-.651.72v4.05a1.635,1.635,0,0,0,.656.663,2.085,2.085,0,0,0,1.023.23,1.459,1.459,0,0,0,1.389-.7,4.109,4.109,0,0,0,.4-1.993Z" fill="#fff"/><path d="M-109.372,7270.008a3.185,3.185,0,0,1-1.117,1.151,2.967,2.967,0,0,1-1.555.4,2.971,2.971,0,0,1-2.351-.962,4.439,4.439,0,0,1-.848-2.993v-5.739h2.557v5.77a2.467,2.467,0,0,0,.352,1.494,1.234,1.234,0,0,0,1.037.453,2.567,2.567,0,0,0,1.054-.2,1.78,1.78,0,0,0,.721-.586v-6.933h2.567v9.51h-2.189Z" fill="#fff"/><path d="M-99.88,7268.76a.9.9,0,0,0-.409-.73,4.172,4.172,0,0,0-1.516-.545,6.126,6.126,0,0,1-2.545-1.014,2.211,2.211,0,0,1-.856-1.833,2.615,2.615,0,0,1,1.032-2.087,4.184,4.184,0,0,1,2.764-.858,4.535,4.535,0,0,1,2.9.853,2.515,2.515,0,0,1,1.033,2.153l-.017.053h-2.479a1.254,1.254,0,0,0-.365-.932,1.459,1.459,0,0,0-1.068-.36,1.449,1.449,0,0,0-.979.3.952.952,0,0,0-.356.759.863.863,0,0,0,.374.721,4.049,4.049,0,0,0,1.515.5,6.162,6.162,0,0,1,2.611,1.032,2.273,2.273,0,0,1,.852,1.877,2.5,2.5,0,0,1-1.1,2.1,4.752,4.752,0,0,1-2.9.813,4.406,4.406,0,0,1-3-.962,2.691,2.691,0,0,1-1.051-2.193l.018-.053h2.347a1.332,1.332,0,0,0,.5,1.108,2.07,2.07,0,0,0,1.239.343,1.779,1.779,0,0,0,1.085-.282A.905.905,0,0,0-99.88,7268.76Z" fill="#fff"/><path d="M-92.691,7259.54v2.329h1.6v1.8h-1.6v4.843a1.119,1.119,0,0,0,.229.791.814.814,0,0,0,.615.237,2.15,2.15,0,0,0,.347-.023,2.732,2.732,0,0,0,.339-.074l.219,1.855a5.193,5.193,0,0,1-.756.2,4.645,4.645,0,0,1-.8.065,2.737,2.737,0,0,1-2.044-.729,3.2,3.2,0,0,1-.716-2.312v-4.851h-1.389v-1.8h1.389v-2.329Z" fill="#fff"/><path d="M-89.852,7266.536a5.107,5.107,0,0,1,1.187-3.485,4.136,4.136,0,0,1,3.287-1.358,4.176,4.176,0,0,1,3.3,1.354,5.075,5.075,0,0,1,1.2,3.489v.185a5.087,5.087,0,0,1-1.192,3.494,4.161,4.161,0,0,1-3.291,1.348,4.172,4.172,0,0,1-3.3-1.348,5.086,5.086,0,0,1-1.191-3.494Zm2.558.18a4.125,4.125,0,0,0,.457,2.085,1.578,1.578,0,0,0,1.476.785,1.565,1.565,0,0,0,1.455-.79,4.106,4.106,0,0,0,.461-2.08v-.184a4.058,4.058,0,0,0-.465-2.062,1.576,1.576,0,0,0-1.468-.8,1.557,1.557,0,0,0-1.455.8,4.1,4.1,0,0,0-.461,2.058Z" fill="#fff"/><path d="M-565.622,7338.394l.017.053a4.167,4.167,0,0,1-1.261,3.278,5.061,5.061,0,0,1-3.6,1.213,5,5,0,0,1-3.753-1.485,5.262,5.262,0,0,1-1.442-3.823v-2.54a5.356,5.356,0,0,1,1.407-3.824,4.791,4.791,0,0,1,3.656-1.494,5.308,5.308,0,0,1,3.709,1.218,4.163,4.163,0,0,1,1.3,3.317l-.018.053h-2.5a2.8,2.8,0,0,0-.606-1.938,2.427,2.427,0,0,0-1.89-.672,2.139,2.139,0,0,0-1.828.935,3.965,3.965,0,0,0-.677,2.384v2.555a3.85,3.85,0,0,0,.712,2.4,2.292,2.292,0,0,0,1.925.936,2.259,2.259,0,0,0,1.779-.647,2.8,2.8,0,0,0,.576-1.92Z" fill="#fff"/><path d="M-564.383,7337.911a5.106,5.106,0,0,1,1.186-3.485,4.138,4.138,0,0,1,3.287-1.358,4.178,4.178,0,0,1,3.3,1.354,5.075,5.075,0,0,1,1.2,3.489v.185a5.086,5.086,0,0,1-1.191,3.494,4.163,4.163,0,0,1-3.291,1.348,4.176,4.176,0,0,1-3.3-1.348,5.086,5.086,0,0,1-1.19-3.494Zm2.557.18a4.125,4.125,0,0,0,.458,2.085,1.577,1.577,0,0,0,1.476.785,1.565,1.565,0,0,0,1.455-.79,4.106,4.106,0,0,0,.461-2.08v-.184a4.047,4.047,0,0,0-.466-2.062,1.575,1.575,0,0,0-1.468-.8,1.558,1.558,0,0,0-1.455.8,4.11,4.11,0,0,0-.461,2.058Z" fill="#fff"/><path d="M-551.481,7333.244l.114,1.362a3.489,3.489,0,0,1,1.169-1.133,3.032,3.032,0,0,1,1.556-.405,2.86,2.86,0,0,1,2.25.906,4.176,4.176,0,0,1,.809,2.838v5.942h-2.576v-5.947a1.934,1.934,0,0,0-.386-1.361,1.562,1.562,0,0,0-1.169-.4,1.978,1.978,0,0,0-.914.207,1.869,1.869,0,0,0-.677.586v6.915h-2.566v-9.51Z" fill="#fff"/><path d="M-540.618,7330.915v2.329h1.6v1.8h-1.6v4.843a1.123,1.123,0,0,0,.229.791.814.814,0,0,0,.615.237,2.15,2.15,0,0,0,.347-.023,2.691,2.691,0,0,0,.339-.074l.22,1.855a5.226,5.226,0,0,1-.756.2,4.656,4.656,0,0,1-.8.065,2.737,2.737,0,0,1-2.044-.729,3.2,3.2,0,0,1-.716-2.312v-4.851h-1.389v-1.8h1.389v-2.329Z" fill="#fff"/><path d="M-537.779,7337.911a5.107,5.107,0,0,1,1.187-3.485,4.138,4.138,0,0,1,3.287-1.358,4.18,4.18,0,0,1,3.3,1.354,5.075,5.075,0,0,1,1.2,3.489v.185A5.087,5.087,0,0,1-530,7341.59a4.163,4.163,0,0,1-3.291,1.348,4.175,4.175,0,0,1-3.3-1.348,5.086,5.086,0,0,1-1.191-3.494Zm2.558.18a4.125,4.125,0,0,0,.457,2.085,1.579,1.579,0,0,0,1.477.785,1.566,1.566,0,0,0,1.455-.79,4.116,4.116,0,0,0,.461-2.08v-.184a4.057,4.057,0,0,0-.466-2.062,1.576,1.576,0,0,0-1.468-.8,1.558,1.558,0,0,0-1.455.8,4.1,4.1,0,0,0-.461,2.058Z" fill="#fff"/><path d="M-522.222,7335.45l-.94-.026a1.711,1.711,0,0,0-.941.237,1.5,1.5,0,0,0-.562.668v6.425h-2.558v-9.51h2.382l.114,1.406a3.012,3.012,0,0,1,.865-1.164,1.936,1.936,0,0,1,1.227-.418,1.944,1.944,0,0,1,.355.031c.109.021.219.045.33.075Z" fill="#fff"/><path d="M-518.575,7333.244l.115,1.362a3.471,3.471,0,0,1,1.169-1.133,3.029,3.029,0,0,1,1.555-.405,2.86,2.86,0,0,1,2.25.906,4.176,4.176,0,0,1,.809,2.838v5.942h-2.575v-5.947a1.934,1.934,0,0,0-.387-1.361,1.56,1.56,0,0,0-1.169-.4,1.981,1.981,0,0,0-.914.207,1.869,1.869,0,0,0-.677.586v6.915h-2.566v-9.51Z" fill="#fff"/><path d="M-511.157,7337.911a5.107,5.107,0,0,1,1.187-3.485,4.138,4.138,0,0,1,3.287-1.358,4.18,4.18,0,0,1,3.305,1.354,5.074,5.074,0,0,1,1.195,3.489v.185a5.086,5.086,0,0,1-1.191,3.494,4.163,4.163,0,0,1-3.291,1.348,4.174,4.174,0,0,1-3.3-1.348,5.086,5.086,0,0,1-1.191-3.494Zm2.558.18a4.125,4.125,0,0,0,.457,2.085,1.579,1.579,0,0,0,1.477.785,1.566,1.566,0,0,0,1.455-.79,4.116,4.116,0,0,0,.461-2.08v-.184a4.057,4.057,0,0,0-.466-2.062,1.576,1.576,0,0,0-1.468-.8,1.558,1.558,0,0,0-1.455.8,4.1,4.1,0,0,0-.461,2.058Z" fill="#fff"/><path d="M-496.514,7338.078a6.168,6.168,0,0,1,.972-3.63,3.15,3.15,0,0,1,2.737-1.38,2.662,2.662,0,0,1,1.283.308,3.085,3.085,0,0,1,1,.879v-5.212h2.575v13.711h-2.206l-.211-1.16a3.155,3.155,0,0,1-1.059,1,2.818,2.818,0,0,1-1.4.342,3.209,3.209,0,0,1-2.719-1.283,5.467,5.467,0,0,1-.972-3.392Zm2.558.187a3.918,3.918,0,0,0,.421,1.975,1.468,1.468,0,0,0,1.372.721,1.972,1.972,0,0,0,.966-.226,1.791,1.791,0,0,0,.677-.658V7336a1.972,1.972,0,0,0-.673-.7,1.775,1.775,0,0,0-.953-.252,1.446,1.446,0,0,0-1.375.84,4.755,4.755,0,0,0-.435,2.192Z" fill="#fff"/><path d="M-481.748,7342.938a4.281,4.281,0,0,1-3.287-1.318,4.712,4.712,0,0,1-1.231-3.349v-.351a5.2,5.2,0,0,1,1.165-3.489,3.86,3.86,0,0,1,3.124-1.363,3.851,3.851,0,0,1,2.988,1.16,4.467,4.467,0,0,1,1.064,3.138v1.4H-483.6l-.017.052a2.459,2.459,0,0,0,.628,1.541,1.962,1.962,0,0,0,1.516.6,4.92,4.92,0,0,0,1.415-.172,6.46,6.46,0,0,0,1.231-.54l.694,1.586a4.76,4.76,0,0,1-1.521.79A6.585,6.585,0,0,1-481.748,7342.938Zm-.229-7.892a1.336,1.336,0,0,0-1.125.545,2.847,2.847,0,0,0-.51,1.432l.027.044h3.146v-.228a2.055,2.055,0,0,0-.383-1.306A1.377,1.377,0,0,0-481.977,7335.046Z" fill="#fff"/><path d="M-467.958,7340.961a1.515,1.515,0,0,0,1.1-.4,1.4,1.4,0,0,0,.413-1.061h2.329l.027.053a2.96,2.96,0,0,1-1.086,2.412,4.089,4.089,0,0,1-2.781.971,4.083,4.083,0,0,1-3.279-1.344,5.129,5.129,0,0,1-1.151-3.454v-.264a5.164,5.164,0,0,1,1.146-3.454,4.057,4.057,0,0,1,3.275-1.354,4,4,0,0,1,2.835,1,3.333,3.333,0,0,1,1.041,2.637l-.018.053h-2.338a1.855,1.855,0,0,0-.4-1.227,1.373,1.373,0,0,0-1.116-.487,1.488,1.488,0,0,0-1.437.79,4.334,4.334,0,0,0-.418,2.036v.263a4.319,4.319,0,0,0,.418,2.049A1.5,1.5,0,0,0-467.958,7340.961Z" fill="#fff"/><path d="M-459.934,7330.968H-462.5v-1.925h2.566Zm0,11.786H-462.5v-9.51h2.566Z" fill="#fff"/><path d="M-455.478,7333.244l.114,1.362a3.48,3.48,0,0,1,1.169-1.133,3.032,3.032,0,0,1,1.556-.405,2.86,2.86,0,0,1,2.25.906,4.176,4.176,0,0,1,.809,2.838v5.942h-2.576v-5.947a1.939,1.939,0,0,0-.386-1.361,1.562,1.562,0,0,0-1.169-.4,1.978,1.978,0,0,0-.914.207,1.869,1.869,0,0,0-.677.586v6.915h-2.566v-9.51Z" fill="#fff"/><path d="M-444.615,7330.915v2.329h1.6v1.8h-1.6v4.843a1.123,1.123,0,0,0,.229.791.814.814,0,0,0,.615.237,2.15,2.15,0,0,0,.347-.023,2.693,2.693,0,0,0,.339-.074l.219,1.855a5.181,5.181,0,0,1-.755.2,4.665,4.665,0,0,1-.8.065,2.737,2.737,0,0,1-2.044-.729,3.2,3.2,0,0,1-.716-2.312v-4.851h-1.389v-1.8h1.389v-2.329Z" fill="#fff"/><path d="M-435.571,7341.383a3.19,3.19,0,0,1-1.116,1.151,2.97,2.97,0,0,1-1.556.4,2.969,2.969,0,0,1-2.35-.962,4.434,4.434,0,0,1-.849-2.993v-5.739h2.558v5.77a2.475,2.475,0,0,0,.351,1.494,1.237,1.237,0,0,0,1.038.453,2.57,2.57,0,0,0,1.054-.2,1.786,1.786,0,0,0,.721-.586v-6.933h2.566v9.51h-2.188Z" fill="#fff"/><path d="M-426.219,7335.45l-.941-.026a1.71,1.71,0,0,0-.94.237,1.5,1.5,0,0,0-.562.668v6.425h-2.558v-9.51h2.382l.114,1.406a3.012,3.012,0,0,1,.865-1.164,1.936,1.936,0,0,1,1.227-.418,1.944,1.944,0,0,1,.355.031c.109.021.219.045.33.075Z" fill="#fff"/><path d="M-419.337,7342.754a5.163,5.163,0,0,1-.241-.686,4.538,4.538,0,0,1-.146-.738,3.521,3.521,0,0,1-1.042,1.151,2.594,2.594,0,0,1-1.542.457,3.214,3.214,0,0,1-2.3-.768,2.756,2.756,0,0,1-.808-2.1,2.508,2.508,0,0,1,1.077-2.167,5.382,5.382,0,0,1,3.141-.768h1.433v-.756a1.482,1.482,0,0,0-.36-1.064,1.4,1.4,0,0,0-1.064-.378,1.392,1.392,0,0,0-.963.3,1.067,1.067,0,0,0-.338.839l-2.478-.009-.009-.053a2.416,2.416,0,0,1,1.046-2.078,4.557,4.557,0,0,1,2.909-.875,4.253,4.253,0,0,1,2.769.865,3,3,0,0,1,1.063,2.466v3.929a7.376,7.376,0,0,0,.1,1.257,6.328,6.328,0,0,0,.321,1.169Zm-2.347-1.714a2.2,2.2,0,0,0,1.2-.334,1.74,1.74,0,0,0,.712-.774v-1.344H-421.2a1.715,1.715,0,0,0-1.239.408,1.329,1.329,0,0,0-.422.989.988.988,0,0,0,.317.765A1.228,1.228,0,0,0-421.684,7341.04Z" fill="#fff"/><rect width="161.282" height="28.87" rx="6.645" transform="translate(-296.906 7317.798)" fill="#8c757e"/><path d="M-280.082,7333.134l.017.052a4.17,4.17,0,0,1-1.261,3.279,5.066,5.066,0,0,1-3.6,1.213,5,5,0,0,1-3.753-1.486,5.258,5.258,0,0,1-1.441-3.823v-2.54a5.351,5.351,0,0,1,1.406-3.823,4.79,4.79,0,0,1,3.656-1.494,5.307,5.307,0,0,1,3.709,1.217,4.164,4.164,0,0,1,1.3,3.318l-.018.052h-2.5a2.8,2.8,0,0,0-.606-1.938,2.428,2.428,0,0,0-1.89-.672,2.14,2.14,0,0,0-1.828.936,3.965,3.965,0,0,0-.677,2.383v2.555a3.855,3.855,0,0,0,.712,2.4,2.291,2.291,0,0,0,1.925.935,2.263,2.263,0,0,0,1.779-.646,2.806,2.806,0,0,0,.576-1.92Z" fill="#fff"/><path d="M-278.843,7332.65a5.1,5.1,0,0,1,1.186-3.485,4.142,4.142,0,0,1,3.288-1.358,4.179,4.179,0,0,1,3.3,1.354,5.074,5.074,0,0,1,1.2,3.489v.185a5.084,5.084,0,0,1-1.192,3.494,4.162,4.162,0,0,1-3.291,1.349,4.177,4.177,0,0,1-3.3-1.349,5.083,5.083,0,0,1-1.19-3.494Zm2.558.18a4.127,4.127,0,0,0,.457,2.085,1.578,1.578,0,0,0,1.476.785,1.565,1.565,0,0,0,1.455-.79,4.106,4.106,0,0,0,.461-2.08v-.184a4.052,4.052,0,0,0-.466-2.062,1.575,1.575,0,0,0-1.467-.8,1.561,1.561,0,0,0-1.456.8,4.113,4.113,0,0,0-.46,2.058Z" fill="#fff"/><path d="M-265.941,7327.983l.115,1.363a3.468,3.468,0,0,1,1.168-1.134,3.032,3.032,0,0,1,1.556-.4,2.86,2.86,0,0,1,2.25.906,4.18,4.18,0,0,1,.809,2.839v5.941h-2.575v-5.946a1.935,1.935,0,0,0-.387-1.362,1.56,1.56,0,0,0-1.169-.4,1.972,1.972,0,0,0-.914.207,1.874,1.874,0,0,0-.677.586v6.915h-2.566v-9.51Z" fill="#fff"/><path d="M-255.077,7325.654v2.329h1.6v1.8h-1.6v4.843a1.12,1.12,0,0,0,.228.791.813.813,0,0,0,.615.237,2.281,2.281,0,0,0,.347-.022,2.62,2.62,0,0,0,.339-.075l.22,1.855a5.287,5.287,0,0,1-.756.2,4.651,4.651,0,0,1-.8.066,2.738,2.738,0,0,1-2.044-.73,3.2,3.2,0,0,1-.716-2.311v-4.852h-1.389v-1.8h1.389v-2.329Z" fill="#fff"/><path d="M-252.239,7332.65a5.1,5.1,0,0,1,1.187-3.485,4.141,4.141,0,0,1,3.287-1.358,4.181,4.181,0,0,1,3.3,1.354,5.073,5.073,0,0,1,1.2,3.489v.185a5.083,5.083,0,0,1-1.191,3.494,4.164,4.164,0,0,1-3.291,1.349,4.175,4.175,0,0,1-3.3-1.349,5.083,5.083,0,0,1-1.191-3.494Zm2.558.18a4.126,4.126,0,0,0,.457,2.085,1.58,1.58,0,0,0,1.477.785,1.566,1.566,0,0,0,1.455-.79,4.116,4.116,0,0,0,.461-2.08v-.184a4.062,4.062,0,0,0-.466-2.062,1.578,1.578,0,0,0-1.468-.8,1.56,1.56,0,0,0-1.455.8,4.1,4.1,0,0,0-.461,2.058Z" fill="#fff"/><path d="M-236.682,7330.189l-.94-.026a1.715,1.715,0,0,0-.941.237,1.5,1.5,0,0,0-.562.668v6.425h-2.558v-9.51h2.382l.114,1.407a3.005,3.005,0,0,1,.865-1.165,1.934,1.934,0,0,1,1.227-.418,1.86,1.86,0,0,1,.355.032q.164.03.33.074Z" fill="#fff"/><path d="M-233.035,7327.983l.115,1.363a3.461,3.461,0,0,1,1.169-1.134,3.028,3.028,0,0,1,1.555-.4,2.86,2.86,0,0,1,2.25.906,4.18,4.18,0,0,1,.809,2.839v5.941h-2.575v-5.946a1.935,1.935,0,0,0-.387-1.362,1.558,1.558,0,0,0-1.169-.4,1.975,1.975,0,0,0-.914.207,1.882,1.882,0,0,0-.677.586v6.915h-2.566v-9.51Z" fill="#fff"/><path d="M-225.617,7332.65a5.1,5.1,0,0,1,1.187-3.485,4.141,4.141,0,0,1,3.287-1.358,4.181,4.181,0,0,1,3.305,1.354,5.073,5.073,0,0,1,1.195,3.489v.185a5.083,5.083,0,0,1-1.191,3.494,4.164,4.164,0,0,1-3.291,1.349,4.175,4.175,0,0,1-3.3-1.349,5.083,5.083,0,0,1-1.191-3.494Zm2.558.18a4.127,4.127,0,0,0,.457,2.085,1.58,1.58,0,0,0,1.477.785,1.566,1.566,0,0,0,1.455-.79,4.116,4.116,0,0,0,.461-2.08v-.184a4.062,4.062,0,0,0-.466-2.062,1.578,1.578,0,0,0-1.468-.8,1.56,1.56,0,0,0-1.455.8,4.1,4.1,0,0,0-.461,2.058Z" fill="#fff"/><path d="M-210.974,7332.817a6.168,6.168,0,0,1,.972-3.63,3.15,3.15,0,0,1,2.737-1.38,2.662,2.662,0,0,1,1.283.308,3.073,3.073,0,0,1,1,.879v-5.212h2.575v13.711h-2.206l-.211-1.16a3.154,3.154,0,0,1-1.059,1,2.819,2.819,0,0,1-1.4.343,3.211,3.211,0,0,1-2.719-1.284,5.467,5.467,0,0,1-.972-3.392Zm2.558.187a3.9,3.9,0,0,0,.422,1.975,1.465,1.465,0,0,0,1.371.721,1.977,1.977,0,0,0,.966-.226,1.792,1.792,0,0,0,.677-.658v-4.076a1.967,1.967,0,0,0-.673-.7,1.775,1.775,0,0,0-.953-.252,1.445,1.445,0,0,0-1.375.84,4.758,4.758,0,0,0-.435,2.192Z" fill="#fff"/><path d="M-196.208,7337.678a4.282,4.282,0,0,1-3.287-1.319,4.711,4.711,0,0,1-1.231-3.348v-.352a5.2,5.2,0,0,1,1.165-3.489,3.867,3.867,0,0,1,3.124-1.363,3.848,3.848,0,0,1,2.988,1.161,4.464,4.464,0,0,1,1.064,3.137v1.4h-5.678l-.017.053a2.458,2.458,0,0,0,.629,1.541,1.961,1.961,0,0,0,1.515.6,4.9,4.9,0,0,0,1.415-.172,6.428,6.428,0,0,0,1.231-.54l.694,1.586a4.759,4.759,0,0,1-1.521.79A6.567,6.567,0,0,1-196.208,7337.678Zm-.229-7.893a1.338,1.338,0,0,0-1.125.545,2.844,2.844,0,0,0-.51,1.433l.027.044h3.146v-.229a2.059,2.059,0,0,0-.383-1.306A1.377,1.377,0,0,0-196.437,7329.785Z" fill="#fff"/><path d="M-182.418,7335.7a1.521,1.521,0,0,0,1.1-.4,1.405,1.405,0,0,0,.413-1.062h2.33l.026.053a2.96,2.96,0,0,1-1.086,2.412,4.092,4.092,0,0,1-2.781.972,4.084,4.084,0,0,1-3.279-1.345,5.127,5.127,0,0,1-1.151-3.454v-.264a5.16,5.16,0,0,1,1.147-3.454,4.055,4.055,0,0,1,3.274-1.354,4,4,0,0,1,2.835,1,3.332,3.332,0,0,1,1.041,2.637l-.018.053h-2.338a1.86,1.86,0,0,0-.4-1.227,1.373,1.373,0,0,0-1.116-.487,1.489,1.489,0,0,0-1.437.79,4.332,4.332,0,0,0-.418,2.036v.263a4.322,4.322,0,0,0,.418,2.05A1.5,1.5,0,0,0-182.418,7335.7Z" fill="#fff"/><path d="M-177.488,7332.65a5.1,5.1,0,0,1,1.187-3.485,4.141,4.141,0,0,1,3.287-1.358,4.181,4.181,0,0,1,3.305,1.354,5.073,5.073,0,0,1,1.195,3.489v.185a5.083,5.083,0,0,1-1.191,3.494,4.164,4.164,0,0,1-3.291,1.349,4.175,4.175,0,0,1-3.3-1.349,5.083,5.083,0,0,1-1.191-3.494Zm2.558.18a4.127,4.127,0,0,0,.457,2.085,1.58,1.58,0,0,0,1.477.785,1.566,1.566,0,0,0,1.455-.79,4.116,4.116,0,0,0,.461-2.08v-.184a4.062,4.062,0,0,0-.466-2.062,1.578,1.578,0,0,0-1.468-.8,1.56,1.56,0,0,0-1.455.8,4.1,4.1,0,0,0-.461,2.058Z" fill="#fff"/><path d="M-167.327,7332.817a6.176,6.176,0,0,1,.971-3.63,3.153,3.153,0,0,1,2.738-1.38,2.664,2.664,0,0,1,1.283.308,3.073,3.073,0,0,1,1,.879v-5.212h2.575v13.711h-2.206l-.211-1.16a3.157,3.157,0,0,1-1.06,1,2.818,2.818,0,0,1-1.4.343,3.214,3.214,0,0,1-2.72-1.284,5.474,5.474,0,0,1-.971-3.392Zm2.557.187a3.914,3.914,0,0,0,.422,1.975,1.465,1.465,0,0,0,1.371.721,1.981,1.981,0,0,0,.967-.226,1.8,1.8,0,0,0,.677-.658v-4.076a1.976,1.976,0,0,0-.673-.7,1.778,1.778,0,0,0-.953-.252,1.445,1.445,0,0,0-1.375.84,4.757,4.757,0,0,0-.436,2.192Z" fill="#fff"/><path d="M-157.167,7332.65a5.1,5.1,0,0,1,1.186-3.485,4.141,4.141,0,0,1,3.287-1.358,4.18,4.18,0,0,1,3.3,1.354,5.073,5.073,0,0,1,1.2,3.489v.185a5.083,5.083,0,0,1-1.191,3.494,4.164,4.164,0,0,1-3.291,1.349,4.177,4.177,0,0,1-3.3-1.349,5.083,5.083,0,0,1-1.19-3.494Zm2.557.18a4.137,4.137,0,0,0,.457,2.085,1.58,1.58,0,0,0,1.477.785,1.566,1.566,0,0,0,1.455-.79,4.106,4.106,0,0,0,.461-2.08v-.184a4.052,4.052,0,0,0-.466-2.062,1.577,1.577,0,0,0-1.468-.8,1.56,1.56,0,0,0-1.455.8,4.112,4.112,0,0,0-.461,2.058Z" fill="#fff"/><rect width="168.831" height="29.565" rx="6.645" transform="translate(-296.906 7353.913)" fill="#8c757e"/><rect width="168.831" height="29.565" rx="6.645" transform="translate(-572.925 7396.953)" fill="#8c757e"/><path d="M-276.067,7369.6l.018.052a4.178,4.178,0,0,1-1.261,3.279,5.069,5.069,0,0,1-3.6,1.212,4.994,4.994,0,0,1-3.752-1.485,5.26,5.26,0,0,1-1.442-3.823v-2.54a5.354,5.354,0,0,1,1.406-3.823,4.8,4.8,0,0,1,3.657-1.5,5.307,5.307,0,0,1,3.709,1.218,4.164,4.164,0,0,1,1.3,3.318l-.017.052h-2.5a2.8,2.8,0,0,0-.607-1.938,2.425,2.425,0,0,0-1.889-.672,2.14,2.14,0,0,0-1.828.936,3.957,3.957,0,0,0-.677,2.383v2.555a3.849,3.849,0,0,0,.712,2.4,2.29,2.29,0,0,0,1.924.936,2.261,2.261,0,0,0,1.78-.647,2.8,2.8,0,0,0,.576-1.919Z" fill="#fff"/><path d="M-274.827,7369.113a5.1,5.1,0,0,1,1.186-3.485,4.141,4.141,0,0,1,3.287-1.358,4.183,4.183,0,0,1,3.3,1.354,5.073,5.073,0,0,1,1.2,3.489v.185a5.087,5.087,0,0,1-1.191,3.494,4.163,4.163,0,0,1-3.291,1.348,4.174,4.174,0,0,1-3.3-1.348,5.086,5.086,0,0,1-1.19-3.494Zm2.557.18a4.125,4.125,0,0,0,.457,2.085,1.58,1.58,0,0,0,1.477.785,1.566,1.566,0,0,0,1.455-.79,4.115,4.115,0,0,0,.461-2.08v-.184a4.06,4.06,0,0,0-.466-2.062,1.579,1.579,0,0,0-1.468-.8,1.559,1.559,0,0,0-1.455.8,4.1,4.1,0,0,0-.461,2.058Z" fill="#fff"/><path d="M-261.925,7364.446l.114,1.362a3.477,3.477,0,0,1,1.169-1.133,3.032,3.032,0,0,1,1.556-.4,2.86,2.86,0,0,1,2.25.906,4.179,4.179,0,0,1,.808,2.839v5.941H-258.6v-5.946a1.935,1.935,0,0,0-.387-1.362,1.557,1.557,0,0,0-1.169-.4,1.978,1.978,0,0,0-.914.207,1.87,1.87,0,0,0-.676.586v6.915h-2.567v-9.51Z" fill="#fff"/><path d="M-251.062,7362.117v2.329h1.6v1.8h-1.6v4.843a1.115,1.115,0,0,0,.229.791.813.813,0,0,0,.615.237,2.346,2.346,0,0,0,.347-.022,2.89,2.89,0,0,0,.338-.075l.22,1.855a5.356,5.356,0,0,1-.756.2,4.645,4.645,0,0,1-.8.065,2.737,2.737,0,0,1-2.044-.729,3.2,3.2,0,0,1-.716-2.312v-4.851h-1.389v-1.8h1.389v-2.329Z" fill="#fff"/><path d="M-248.223,7369.113a5.105,5.105,0,0,1,1.187-3.485,4.139,4.139,0,0,1,3.287-1.358,4.181,4.181,0,0,1,3.3,1.354,5.074,5.074,0,0,1,1.2,3.489v.185a5.087,5.087,0,0,1-1.192,3.494,4.161,4.161,0,0,1-3.291,1.348,4.176,4.176,0,0,1-3.3-1.348,5.091,5.091,0,0,1-1.19-3.494Zm2.558.18a4.125,4.125,0,0,0,.457,2.085,1.579,1.579,0,0,0,1.476.785,1.565,1.565,0,0,0,1.455-.79,4.1,4.1,0,0,0,.461-2.08v-.184a4.05,4.05,0,0,0-.466-2.062,1.576,1.576,0,0,0-1.467-.8,1.558,1.558,0,0,0-1.455.8,4.1,4.1,0,0,0-.461,2.058Z" fill="#fff"/><path d="M-232.666,7366.652l-.941-.026a1.711,1.711,0,0,0-.94.237,1.509,1.509,0,0,0-.563.668v6.425h-2.557v-9.51h2.382l.114,1.406a3,3,0,0,1,.865-1.164,1.936,1.936,0,0,1,1.227-.418,1.868,1.868,0,0,1,.355.032c.108.02.219.045.33.074Z" fill="#fff"/><path d="M-229.019,7364.446l.114,1.362a3.477,3.477,0,0,1,1.169-1.133,3.032,3.032,0,0,1,1.556-.4,2.86,2.86,0,0,1,2.25.906,4.179,4.179,0,0,1,.809,2.839v5.941H-225.7v-5.946a1.94,1.94,0,0,0-.386-1.362,1.56,1.56,0,0,0-1.169-.4,1.972,1.972,0,0,0-.914.207,1.873,1.873,0,0,0-.677.586v6.915h-2.567v-9.51Z" fill="#fff"/><path d="M-221.6,7369.113a5.105,5.105,0,0,1,1.187-3.485,4.139,4.139,0,0,1,3.287-1.358,4.179,4.179,0,0,1,3.3,1.354,5.074,5.074,0,0,1,1.2,3.489v.185a5.087,5.087,0,0,1-1.192,3.494,4.161,4.161,0,0,1-3.291,1.348,4.172,4.172,0,0,1-3.3-1.348,5.087,5.087,0,0,1-1.191-3.494Zm2.558.18a4.125,4.125,0,0,0,.457,2.085,1.579,1.579,0,0,0,1.476.785,1.565,1.565,0,0,0,1.455-.79,4.1,4.1,0,0,0,.461-2.08v-.184a4.05,4.05,0,0,0-.466-2.062,1.576,1.576,0,0,0-1.467-.8,1.558,1.558,0,0,0-1.455.8,4.1,4.1,0,0,0-.461,2.058Z" fill="#fff"/><path d="M-206.958,7369.28a6.176,6.176,0,0,1,.971-3.63,3.153,3.153,0,0,1,2.738-1.38,2.664,2.664,0,0,1,1.283.308,3.085,3.085,0,0,1,1,.879v-5.212h2.575v13.711H-200.6l-.211-1.16a3.157,3.157,0,0,1-1.06,1,2.817,2.817,0,0,1-1.4.342,3.213,3.213,0,0,1-2.72-1.283,5.474,5.474,0,0,1-.971-3.392Zm2.557.187a3.912,3.912,0,0,0,.422,1.975,1.465,1.465,0,0,0,1.371.721,1.981,1.981,0,0,0,.967-.226,1.8,1.8,0,0,0,.677-.658V7367.2a1.976,1.976,0,0,0-.673-.7,1.778,1.778,0,0,0-.953-.252,1.445,1.445,0,0,0-1.375.84,4.757,4.757,0,0,0-.436,2.192Z" fill="#fff"/><path d="M-192.193,7374.14a4.279,4.279,0,0,1-3.287-1.318,4.713,4.713,0,0,1-1.23-3.348v-.352a5.194,5.194,0,0,1,1.165-3.489,3.867,3.867,0,0,1,3.124-1.363,3.848,3.848,0,0,1,2.988,1.161,4.462,4.462,0,0,1,1.064,3.137v1.4h-5.678l-.018.052a2.466,2.466,0,0,0,.629,1.541,1.96,1.96,0,0,0,1.516.6,4.92,4.92,0,0,0,1.415-.172,6.457,6.457,0,0,0,1.23-.54l.695,1.586a4.759,4.759,0,0,1-1.521.79A6.588,6.588,0,0,1-192.193,7374.14Zm-.228-7.892a1.336,1.336,0,0,0-1.125.545,2.826,2.826,0,0,0-.51,1.432l.026.044h3.147v-.228a2.057,2.057,0,0,0-.383-1.306A1.38,1.38,0,0,0-192.421,7366.248Z" fill="#fff"/><path d="M-173.815,7369.465a5.562,5.562,0,0,1-.949,3.4,3.21,3.21,0,0,1-2.742,1.274,2.918,2.918,0,0,1-1.445-.346,2.974,2.974,0,0,1-1.051-1.016l-.194,1.178h-2.2v-13.711h2.558v5.212a2.891,2.891,0,0,1,.989-.879,2.759,2.759,0,0,1,1.322-.308,3.149,3.149,0,0,1,2.76,1.368,6.269,6.269,0,0,1,.949,3.642Zm-2.557-.185a4.98,4.98,0,0,0-.41-2.214,1.429,1.429,0,0,0-1.392-.818,1.905,1.905,0,0,0-1.011.252,1.741,1.741,0,0,0-.65.721v4.049a1.635,1.635,0,0,0,.655.663,2.085,2.085,0,0,0,1.023.23,1.456,1.456,0,0,0,1.389-.7,4.109,4.109,0,0,0,.4-1.993Z" fill="#fff"/><path d="M-167.232,7366.652l-.94-.026a1.715,1.715,0,0,0-.941.237,1.507,1.507,0,0,0-.562.668v6.425h-2.558v-9.51h2.382l.114,1.406a3,3,0,0,1,.866-1.164,1.932,1.932,0,0,1,1.226-.418,1.878,1.878,0,0,1,.356.032c.108.02.218.045.33.074Z" fill="#fff"/><path d="M-160.35,7373.956a5.139,5.139,0,0,1-.241-.686,4.659,4.659,0,0,1-.146-.738,3.51,3.51,0,0,1-1.042,1.151,2.6,2.6,0,0,1-1.542.457,3.209,3.209,0,0,1-2.3-.768,2.758,2.758,0,0,1-.809-2.1,2.509,2.509,0,0,1,1.077-2.167,5.39,5.39,0,0,1,3.142-.768h1.432v-.756a1.482,1.482,0,0,0-.36-1.064,1.4,1.4,0,0,0-1.063-.378,1.392,1.392,0,0,0-.963.3,1.067,1.067,0,0,0-.338.839l-2.479-.009-.009-.052a2.416,2.416,0,0,1,1.046-2.079,4.561,4.561,0,0,1,2.91-.875,4.247,4.247,0,0,1,2.768.866,3,3,0,0,1,1.064,2.465v3.929a7.483,7.483,0,0,0,.1,1.257,6.394,6.394,0,0,0,.321,1.169Zm-2.347-1.714a2.2,2.2,0,0,0,1.2-.334,1.736,1.736,0,0,0,.712-.773v-1.345h-1.432a1.716,1.716,0,0,0-1.239.408,1.326,1.326,0,0,0-.422.989.988.988,0,0,0,.316.765A1.228,1.228,0,0,0-162.7,7372.242Z" fill="#fff"/><path d="M-153.4,7371.978h4.711v1.978h-7.9v-1.519l4.526-6.013h-4.386v-1.978h7.612v1.461Z" fill="#fff"/><path d="M-147.632,7369.113a5.1,5.1,0,0,1,1.186-3.485,4.141,4.141,0,0,1,3.287-1.358,4.182,4.182,0,0,1,3.3,1.354,5.073,5.073,0,0,1,1.2,3.489v.185a5.087,5.087,0,0,1-1.191,3.494,4.163,4.163,0,0,1-3.291,1.348,4.176,4.176,0,0,1-3.3-1.348,5.086,5.086,0,0,1-1.19-3.494Zm2.557.18a4.136,4.136,0,0,0,.457,2.085,1.58,1.58,0,0,0,1.477.785,1.565,1.565,0,0,0,1.455-.79,4.1,4.1,0,0,0,.461-2.08v-.184a4.05,4.05,0,0,0-.466-2.062,1.578,1.578,0,0,0-1.468-.8,1.559,1.559,0,0,0-1.455.8,4.112,4.112,0,0,0-.461,2.058Z" fill="#fff"/><path d="M-549.747,7412.637l.017.052a4.169,4.169,0,0,1-1.261,3.279,5.066,5.066,0,0,1-3.6,1.213,5,5,0,0,1-3.753-1.486,5.258,5.258,0,0,1-1.442-3.823v-2.54a5.352,5.352,0,0,1,1.407-3.823,4.792,4.792,0,0,1,3.656-1.494,5.307,5.307,0,0,1,3.709,1.217,4.165,4.165,0,0,1,1.3,3.318l-.018.052h-2.5a2.8,2.8,0,0,0-.606-1.938,2.429,2.429,0,0,0-1.89-.672,2.14,2.14,0,0,0-1.828.936,3.963,3.963,0,0,0-.677,2.383v2.555a3.849,3.849,0,0,0,.712,2.4,2.292,2.292,0,0,0,1.925.936,2.264,2.264,0,0,0,1.779-.646,2.806,2.806,0,0,0,.576-1.92Z" fill="#fff"/><path d="M-548.508,7412.153a5.105,5.105,0,0,1,1.186-3.485,4.141,4.141,0,0,1,3.287-1.358,4.182,4.182,0,0,1,3.3,1.354,5.073,5.073,0,0,1,1.2,3.489v.185a5.087,5.087,0,0,1-1.191,3.494,4.164,4.164,0,0,1-3.291,1.349,4.177,4.177,0,0,1-3.3-1.349,5.086,5.086,0,0,1-1.19-3.494Zm2.557.18a4.125,4.125,0,0,0,.458,2.085,1.577,1.577,0,0,0,1.476.785,1.565,1.565,0,0,0,1.455-.79,4.1,4.1,0,0,0,.461-2.08v-.184a4.052,4.052,0,0,0-.466-2.062,1.578,1.578,0,0,0-1.468-.8,1.56,1.56,0,0,0-1.455.8,4.112,4.112,0,0,0-.461,2.058Z" fill="#fff"/><path d="M-535.606,7407.486l.114,1.363a3.48,3.48,0,0,1,1.169-1.134,3.032,3.032,0,0,1,1.556-.4,2.86,2.86,0,0,1,2.25.906,4.179,4.179,0,0,1,.809,2.839V7417h-2.576v-5.946a1.935,1.935,0,0,0-.386-1.362,1.56,1.56,0,0,0-1.169-.4,1.972,1.972,0,0,0-.914.207,1.873,1.873,0,0,0-.677.586V7417H-538v-9.51Z" fill="#fff"/><path d="M-524.743,7405.157v2.329h1.6v1.8h-1.6v4.843a1.12,1.12,0,0,0,.229.791.813.813,0,0,0,.615.237,2.346,2.346,0,0,0,.347-.022,2.712,2.712,0,0,0,.339-.075l.22,1.855a5.355,5.355,0,0,1-.756.2,4.653,4.653,0,0,1-.8.066,2.738,2.738,0,0,1-2.044-.73,3.2,3.2,0,0,1-.716-2.311v-4.852H-528.7v-1.8h1.389v-2.329Z" fill="#fff"/><path d="M-521.9,7412.153a5.105,5.105,0,0,1,1.187-3.485,4.141,4.141,0,0,1,3.287-1.358,4.183,4.183,0,0,1,3.3,1.354,5.073,5.073,0,0,1,1.2,3.489v.185a5.087,5.087,0,0,1-1.191,3.494,4.164,4.164,0,0,1-3.291,1.349,4.175,4.175,0,0,1-3.3-1.349,5.087,5.087,0,0,1-1.191-3.494Zm2.558.18a4.125,4.125,0,0,0,.457,2.085,1.58,1.58,0,0,0,1.477.785,1.566,1.566,0,0,0,1.455-.79,4.115,4.115,0,0,0,.461-2.08v-.184a4.062,4.062,0,0,0-.466-2.062,1.579,1.579,0,0,0-1.468-.8,1.56,1.56,0,0,0-1.455.8,4.1,4.1,0,0,0-.461,2.058Z" fill="#fff"/><path d="M-506.347,7409.692l-.94-.026a1.715,1.715,0,0,0-.941.237,1.507,1.507,0,0,0-.562.668V7417h-2.558v-9.51h2.382l.114,1.406a3.009,3.009,0,0,1,.865-1.164,1.936,1.936,0,0,1,1.227-.418,1.86,1.86,0,0,1,.355.032c.109.02.219.045.33.074Z" fill="#fff"/><path d="M-502.7,7407.486l.115,1.363a3.461,3.461,0,0,1,1.169-1.134,3.028,3.028,0,0,1,1.555-.4,2.86,2.86,0,0,1,2.25.906,4.179,4.179,0,0,1,.809,2.839V7417h-2.575v-5.946a1.935,1.935,0,0,0-.387-1.362,1.558,1.558,0,0,0-1.169-.4,1.975,1.975,0,0,0-.914.207,1.873,1.873,0,0,0-.677.586V7417h-2.566v-9.51Z" fill="#fff"/><path d="M-495.282,7412.153a5.106,5.106,0,0,1,1.187-3.485,4.141,4.141,0,0,1,3.287-1.358,4.183,4.183,0,0,1,3.305,1.354,5.073,5.073,0,0,1,1.195,3.489v.185a5.087,5.087,0,0,1-1.191,3.494,4.164,4.164,0,0,1-3.291,1.349,4.175,4.175,0,0,1-3.3-1.349,5.087,5.087,0,0,1-1.191-3.494Zm2.558.18a4.125,4.125,0,0,0,.457,2.085,1.58,1.58,0,0,0,1.477.785,1.566,1.566,0,0,0,1.455-.79,4.115,4.115,0,0,0,.461-2.08v-.184a4.062,4.062,0,0,0-.466-2.062,1.579,1.579,0,0,0-1.468-.8,1.56,1.56,0,0,0-1.455.8,4.1,4.1,0,0,0-.461,2.058Z" fill="#fff"/><path d="M-480.639,7412.32a6.168,6.168,0,0,1,.972-3.63,3.15,3.15,0,0,1,2.737-1.38,2.662,2.662,0,0,1,1.283.308,3.085,3.085,0,0,1,1,.879v-5.212h2.575V7417h-2.206l-.211-1.16a3.155,3.155,0,0,1-1.059,1,2.819,2.819,0,0,1-1.4.343,3.211,3.211,0,0,1-2.719-1.284,5.467,5.467,0,0,1-.972-3.392Zm2.558.187a3.913,3.913,0,0,0,.421,1.975,1.468,1.468,0,0,0,1.372.721,1.977,1.977,0,0,0,.966-.226,1.792,1.792,0,0,0,.677-.658v-4.076a1.968,1.968,0,0,0-.673-.7,1.775,1.775,0,0,0-.953-.252,1.445,1.445,0,0,0-1.375.84,4.758,4.758,0,0,0-.435,2.192Z" fill="#fff"/><path d="M-465.873,7417.181a4.28,4.28,0,0,1-3.287-1.319,4.71,4.71,0,0,1-1.231-3.348v-.352a5.2,5.2,0,0,1,1.165-3.489,3.866,3.866,0,0,1,3.124-1.363,3.847,3.847,0,0,1,2.988,1.161,4.462,4.462,0,0,1,1.064,3.137v1.4h-5.678l-.017.052a2.46,2.46,0,0,0,.628,1.541,1.962,1.962,0,0,0,1.516.6,4.9,4.9,0,0,0,1.415-.172,6.455,6.455,0,0,0,1.231-.54l.694,1.586a4.76,4.76,0,0,1-1.521.79A6.585,6.585,0,0,1-465.873,7417.181Zm-.229-7.893a1.339,1.339,0,0,0-1.125.545,2.844,2.844,0,0,0-.51,1.432l.027.044h3.146v-.228a2.057,2.057,0,0,0-.383-1.306A1.378,1.378,0,0,0-466.1,7409.288Z" fill="#fff"/><path d="M-447.495,7412.5a5.462,5.462,0,0,1-.976,3.392,3.227,3.227,0,0,1-2.725,1.284,3.053,3.053,0,0,1-1.327-.277,2.72,2.72,0,0,1-.993-.813v4.561h-2.558v-13.166h2.312l.149,1.125a3.068,3.068,0,0,1,1.016-.963,2.757,2.757,0,0,1,1.384-.338,3.164,3.164,0,0,1,2.742,1.38,6.162,6.162,0,0,1,.976,3.63Zm-2.567-.2a4.613,4.613,0,0,0-.448-2.183,1.461,1.461,0,0,0-1.371-.836,1.944,1.944,0,0,0-.989.237,1.705,1.705,0,0,0-.646.678v4.173a1.59,1.59,0,0,0,.646.616,2.178,2.178,0,0,0,1.006.211,1.475,1.475,0,0,0,1.367-.73,3.857,3.857,0,0,0,.435-1.981Z" fill="#fff"/><path d="M-440.1,7415.625a3.189,3.189,0,0,1-1.116,1.151,2.971,2.971,0,0,1-1.556.405,2.972,2.972,0,0,1-2.35-.962,4.438,4.438,0,0,1-.849-2.994v-5.739h2.558v5.77a2.477,2.477,0,0,0,.351,1.494,1.234,1.234,0,0,0,1.037.453,2.548,2.548,0,0,0,1.055-.2,1.774,1.774,0,0,0,.721-.586v-6.933h2.566V7417h-2.188Z" fill="#fff"/><path d="M-433.407,7407.486l.115,1.363a3.461,3.461,0,0,1,1.169-1.134,3.028,3.028,0,0,1,1.555-.4,2.86,2.86,0,0,1,2.25.906,4.179,4.179,0,0,1,.809,2.839V7417h-2.575v-5.946a1.935,1.935,0,0,0-.387-1.362,1.558,1.558,0,0,0-1.169-.4,1.972,1.972,0,0,0-.914.207,1.873,1.873,0,0,0-.677.586V7417H-435.8v-9.51Zm5.028-3.972a2.1,2.1,0,0,1-.523,1.437,1.689,1.689,0,0,1-1.323.593,3.234,3.234,0,0,1-1.393-.382,3.023,3.023,0,0,0-1.235-.383.635.635,0,0,0-.527.285,1.117,1.117,0,0,0-.211.682l-1.371-.369a2.144,2.144,0,0,1,.523-1.438,1.659,1.659,0,0,1,1.314-.61,3.528,3.528,0,0,1,1.336.382,3.474,3.474,0,0,0,1.3.383.669.669,0,0,0,.528-.282,1.066,1.066,0,0,0,.228-.694Z" fill="#fff"/><path d="M-425.989,7412.153a5.106,5.106,0,0,1,1.187-3.485,4.141,4.141,0,0,1,3.287-1.358,4.183,4.183,0,0,1,3.305,1.354,5.073,5.073,0,0,1,1.195,3.489v.185a5.087,5.087,0,0,1-1.191,3.494,4.164,4.164,0,0,1-3.291,1.349,4.175,4.175,0,0,1-3.3-1.349,5.087,5.087,0,0,1-1.191-3.494Zm2.558.18a4.125,4.125,0,0,0,.457,2.085,1.58,1.58,0,0,0,1.477.785,1.566,1.566,0,0,0,1.455-.79,4.115,4.115,0,0,0,.461-2.08v-.184a4.062,4.062,0,0,0-.466-2.062,1.579,1.579,0,0,0-1.468-.8,1.56,1.56,0,0,0-1.455.8,4.1,4.1,0,0,0-.461,2.058Z" fill="#fff"/><rect width="169.527" height="30.936" rx="6.645" transform="translate(-300.694 7387.846)" fill="#9e005d"/><rect width="169.527" height="30.936" rx="6.645" transform="translate(-530.594 7705.157)" fill="#9e005d"/><path d="M-284.168,7404.216l.017.052a4.173,4.173,0,0,1-1.261,3.279,5.07,5.07,0,0,1-3.6,1.213,4.99,4.99,0,0,1-3.752-1.486,5.258,5.258,0,0,1-1.441-3.823v-2.54a5.351,5.351,0,0,1,1.406-3.823,4.79,4.79,0,0,1,3.656-1.494,5.307,5.307,0,0,1,3.709,1.217,4.164,4.164,0,0,1,1.3,3.318l-.018.053h-2.5a2.8,2.8,0,0,0-.607-1.939,2.425,2.425,0,0,0-1.889-.672,2.141,2.141,0,0,0-1.828.936,3.965,3.965,0,0,0-.678,2.383v2.555a3.859,3.859,0,0,0,.713,2.4,2.289,2.289,0,0,0,1.924.935,2.262,2.262,0,0,0,1.779-.646,2.8,2.8,0,0,0,.576-1.92Z" fill="#fff"/><path d="M-282.93,7403.732a5.1,5.1,0,0,1,1.187-3.485,4.141,4.141,0,0,1,3.288-1.357,4.179,4.179,0,0,1,3.3,1.353,5.074,5.074,0,0,1,1.2,3.489v.185a5.089,5.089,0,0,1-1.192,3.494,4.163,4.163,0,0,1-3.291,1.349,4.175,4.175,0,0,1-3.3-1.349,5.079,5.079,0,0,1-1.191-3.494Zm2.559.18a4.124,4.124,0,0,0,.457,2.085,1.578,1.578,0,0,0,1.476.785,1.565,1.565,0,0,0,1.455-.79,4.106,4.106,0,0,0,.461-2.08v-.184a4.052,4.052,0,0,0-.467-2.062,1.574,1.574,0,0,0-1.466-.8,1.557,1.557,0,0,0-1.455.8,4.1,4.1,0,0,0-.461,2.058Z" fill="#fff"/><path d="M-270.028,7399.065l.116,1.363a3.458,3.458,0,0,1,1.168-1.134,3.029,3.029,0,0,1,1.556-.4,2.859,2.859,0,0,1,2.25.9,4.18,4.18,0,0,1,.809,2.839v5.941H-266.7v-5.946a1.934,1.934,0,0,0-.387-1.362,1.557,1.557,0,0,0-1.168-.4,1.972,1.972,0,0,0-.914.207,1.876,1.876,0,0,0-.678.586v6.915h-2.566v-9.51Z" fill="#fff"/><path d="M-259.164,7396.736v2.329h1.6v1.8h-1.6v4.843a1.121,1.121,0,0,0,.228.791.814.814,0,0,0,.615.237,2.3,2.3,0,0,0,.348-.022,2.693,2.693,0,0,0,.338-.075l.221,1.855a5.287,5.287,0,0,1-.756.2,4.664,4.664,0,0,1-.8.066,2.733,2.733,0,0,1-2.043-.73,3.19,3.19,0,0,1-.717-2.311v-4.852h-1.388v-1.8h1.388v-2.329Z" fill="#fff"/><path d="M-256.325,7403.732a5.1,5.1,0,0,1,1.186-3.485,4.139,4.139,0,0,1,3.287-1.357,4.181,4.181,0,0,1,3.305,1.353,5.073,5.073,0,0,1,1.195,3.489v.185a5.078,5.078,0,0,1-1.191,3.494,4.162,4.162,0,0,1-3.291,1.349,4.176,4.176,0,0,1-3.3-1.349,5.088,5.088,0,0,1-1.19-3.494Zm2.557.18a4.124,4.124,0,0,0,.457,2.085,1.58,1.58,0,0,0,1.477.785,1.566,1.566,0,0,0,1.455-.79,4.116,4.116,0,0,0,.461-2.08v-.184a4.063,4.063,0,0,0-.465-2.062,1.579,1.579,0,0,0-1.469-.8,1.559,1.559,0,0,0-1.455.8,4.1,4.1,0,0,0-.461,2.058Z" fill="#fff"/><path d="M-240.768,7401.271l-.941-.026a1.711,1.711,0,0,0-.94.237,1.5,1.5,0,0,0-.562.668v6.425h-2.559v-9.51h2.383l.113,1.407a3.022,3.022,0,0,1,.865-1.165,1.935,1.935,0,0,1,1.227-.417,1.874,1.874,0,0,1,.356.031c.109.02.218.045.33.074Z" fill="#fff"/><path d="M-237.121,7399.065l.115,1.363a3.459,3.459,0,0,1,1.168-1.134,3.031,3.031,0,0,1,1.556-.4,2.859,2.859,0,0,1,2.25.9,4.18,4.18,0,0,1,.809,2.839v5.941H-233.8v-5.946a1.934,1.934,0,0,0-.387-1.362,1.556,1.556,0,0,0-1.168-.4,1.975,1.975,0,0,0-.914.207,1.885,1.885,0,0,0-.678.586v6.915h-2.566v-9.51Z" fill="#fff"/><path d="M-229.7,7403.732a5.1,5.1,0,0,1,1.187-3.485,4.139,4.139,0,0,1,3.287-1.357,4.181,4.181,0,0,1,3.305,1.353,5.073,5.073,0,0,1,1.195,3.489v.185a5.088,5.088,0,0,1-1.191,3.494,4.165,4.165,0,0,1-3.291,1.349,4.173,4.173,0,0,1-3.3-1.349,5.078,5.078,0,0,1-1.191-3.494Zm2.558.18a4.124,4.124,0,0,0,.457,2.085,1.58,1.58,0,0,0,1.477.785,1.566,1.566,0,0,0,1.455-.79,4.116,4.116,0,0,0,.461-2.08v-.184a4.052,4.052,0,0,0-.467-2.062,1.576,1.576,0,0,0-1.467-.8,1.559,1.559,0,0,0-1.455.8,4.1,4.1,0,0,0-.461,2.058Z" fill="#fff"/><path d="M-215.061,7403.9a6.169,6.169,0,0,1,.973-3.63,3.148,3.148,0,0,1,2.736-1.379,2.666,2.666,0,0,1,1.283.307,3.081,3.081,0,0,1,1,.879v-5.212h2.576v13.711H-208.7l-.211-1.16a3.161,3.161,0,0,1-1.058,1,2.824,2.824,0,0,1-1.4.343,3.211,3.211,0,0,1-2.719-1.284,5.468,5.468,0,0,1-.973-3.392Zm2.559.187a3.9,3.9,0,0,0,.422,1.975,1.465,1.465,0,0,0,1.371.721,1.988,1.988,0,0,0,.966-.225,1.8,1.8,0,0,0,.676-.659v-4.076a1.967,1.967,0,0,0-.672-.7,1.773,1.773,0,0,0-.953-.252,1.445,1.445,0,0,0-1.375.84,4.758,4.758,0,0,0-.435,2.192Z" fill="#fff"/><path d="M-200.295,7408.76a4.281,4.281,0,0,1-3.287-1.319,4.711,4.711,0,0,1-1.231-3.348v-.352a5.2,5.2,0,0,1,1.166-3.489,3.861,3.861,0,0,1,3.123-1.362,3.85,3.85,0,0,1,2.989,1.16,4.464,4.464,0,0,1,1.064,3.137v1.4h-5.678l-.017.053a2.469,2.469,0,0,0,.629,1.541,1.962,1.962,0,0,0,1.515.6,4.889,4.889,0,0,0,1.414-.172,6.428,6.428,0,0,0,1.231-.54l.695,1.586a4.73,4.73,0,0,1-1.521.79A6.592,6.592,0,0,1-200.295,7408.76Zm-.229-7.893a1.338,1.338,0,0,0-1.125.545,2.845,2.845,0,0,0-.51,1.433l.028.044h3.146v-.229a2.059,2.059,0,0,0-.383-1.306A1.378,1.378,0,0,0-200.524,7400.867Z" fill="#fff"/><path d="M-186.5,7406.782a1.517,1.517,0,0,0,1.1-.4,1.4,1.4,0,0,0,.414-1.062h2.329l.027.053a2.96,2.96,0,0,1-1.086,2.412,4.092,4.092,0,0,1-2.781.972,4.085,4.085,0,0,1-3.28-1.345,5.127,5.127,0,0,1-1.15-3.454v-.264a5.159,5.159,0,0,1,1.147-3.454,4.052,4.052,0,0,1,3.273-1.353,4,4,0,0,1,2.836,1,3.332,3.332,0,0,1,1.041,2.637l-.018.053h-2.338a1.86,1.86,0,0,0-.4-1.227,1.374,1.374,0,0,0-1.117-.487,1.488,1.488,0,0,0-1.436.79,4.332,4.332,0,0,0-.418,2.036v.263a4.322,4.322,0,0,0,.418,2.05A1.5,1.5,0,0,0-186.5,7406.782Z" fill="#fff"/><path d="M-175.6,7408.575a5.194,5.194,0,0,1-.24-.685,4.7,4.7,0,0,1-.147-.739,3.521,3.521,0,0,1-1.041,1.152,2.605,2.605,0,0,1-1.543.457,3.209,3.209,0,0,1-2.3-.769,2.759,2.759,0,0,1-.809-2.1,2.509,2.509,0,0,1,1.078-2.167,5.383,5.383,0,0,1,3.141-.768h1.433v-.756a1.478,1.478,0,0,0-.361-1.063,1.4,1.4,0,0,0-1.062-.378,1.386,1.386,0,0,0-.963.3,1.063,1.063,0,0,0-.338.839l-2.479-.009-.01-.052a2.415,2.415,0,0,1,1.047-2.078,4.557,4.557,0,0,1,2.909-.875,4.257,4.257,0,0,1,2.769.865,3,3,0,0,1,1.063,2.466v3.928a7.352,7.352,0,0,0,.1,1.257,6.317,6.317,0,0,0,.32,1.169Zm-2.346-1.714a2.193,2.193,0,0,0,1.2-.334,1.733,1.733,0,0,0,.713-.773v-1.345h-1.433a1.72,1.72,0,0,0-1.239.408,1.331,1.331,0,0,0-.421.99.985.985,0,0,0,.316.764A1.221,1.221,0,0,0-177.944,7406.861Z" fill="#fff"/><path d="M-171.907,7403.9a6.176,6.176,0,0,1,.973-3.63,3.15,3.15,0,0,1,2.736-1.379,2.67,2.67,0,0,1,1.284.307,3.1,3.1,0,0,1,1,.879v-5.212h2.576v13.711h-2.207l-.211-1.16a3.173,3.173,0,0,1-1.059,1,2.824,2.824,0,0,1-1.4.343,3.212,3.212,0,0,1-2.719-1.284,5.474,5.474,0,0,1-.973-3.392Zm2.559.187a3.913,3.913,0,0,0,.422,1.975,1.465,1.465,0,0,0,1.371.721,1.994,1.994,0,0,0,.967-.225,1.81,1.81,0,0,0,.676-.659v-4.076a1.976,1.976,0,0,0-.672-.7,1.778,1.778,0,0,0-.953-.252,1.445,1.445,0,0,0-1.375.84,4.757,4.757,0,0,0-.436,2.192Z" fill="#fff"/><path d="M-157.141,7408.76a4.281,4.281,0,0,1-3.287-1.319,4.715,4.715,0,0,1-1.231-3.348v-.352a5.2,5.2,0,0,1,1.166-3.489,3.862,3.862,0,0,1,3.124-1.362,3.848,3.848,0,0,1,2.988,1.16,4.464,4.464,0,0,1,1.064,3.137v1.4h-5.677l-.018.053a2.469,2.469,0,0,0,.629,1.541,1.962,1.962,0,0,0,1.515.6,4.9,4.9,0,0,0,1.415-.172,6.4,6.4,0,0,0,1.23-.54l.7,1.586a4.72,4.72,0,0,1-1.521.79A6.587,6.587,0,0,1-157.141,7408.76Zm-.228-7.893a1.335,1.335,0,0,0-1.125.545,2.826,2.826,0,0,0-.51,1.433l.027.044h3.147v-.229a2.059,2.059,0,0,0-.383-1.306A1.38,1.38,0,0,0-157.369,7400.867Z" fill="#fff"/><path d="M-146.823,7401.271l-.939-.026a1.715,1.715,0,0,0-.941.237,1.5,1.5,0,0,0-.563.668v6.425h-2.557v-9.51h2.381l.116,1.407a2.983,2.983,0,0,1,.865-1.165,1.926,1.926,0,0,1,1.226-.417,1.889,1.889,0,0,1,.356.031c.107.02.219.045.33.074Z" fill="#fff"/><path d="M-139.94,7408.575a5.2,5.2,0,0,1-.242-.685,4.7,4.7,0,0,1-.144-.739,3.549,3.549,0,0,1-1.043,1.152,2.6,2.6,0,0,1-1.541.457,3.21,3.21,0,0,1-2.3-.769,2.759,2.759,0,0,1-.809-2.1,2.51,2.51,0,0,1,1.076-2.167,5.39,5.39,0,0,1,3.143-.768h1.432v-.756a1.478,1.478,0,0,0-.36-1.063,1.4,1.4,0,0,0-1.064-.378,1.392,1.392,0,0,0-.963.3,1.069,1.069,0,0,0-.338.839l-2.479-.009-.007-.052a2.41,2.41,0,0,1,1.045-2.078,4.56,4.56,0,0,1,2.91-.875,4.251,4.251,0,0,1,2.767.865,3,3,0,0,1,1.065,2.466v3.928a7.566,7.566,0,0,0,.1,1.257,6.407,6.407,0,0,0,.323,1.169Zm-2.347-1.714a2.2,2.2,0,0,0,1.205-.334,1.734,1.734,0,0,0,.711-.773v-1.345H-141.8a1.721,1.721,0,0,0-1.24.408,1.328,1.328,0,0,0-.422.99.985.985,0,0,0,.316.764A1.222,1.222,0,0,0-142.287,7406.861Z" fill="#fff"/><rect width="168.471" height="29.458" rx="6.645" transform="translate(-301.479 7551.201)" fill="#9e005d"/><path d="M-283.517,7566.831l.018.053a4.175,4.175,0,0,1-1.261,3.278,5.064,5.064,0,0,1-3.6,1.213,5,5,0,0,1-3.753-1.485,5.264,5.264,0,0,1-1.441-3.824v-2.54a5.357,5.357,0,0,1,1.406-3.823,4.792,4.792,0,0,1,3.656-1.494,5.3,5.3,0,0,1,3.709,1.218,4.16,4.16,0,0,1,1.3,3.317l-.017.053h-2.5a2.805,2.805,0,0,0-.607-1.939,2.428,2.428,0,0,0-1.89-.672,2.142,2.142,0,0,0-1.828.936,3.965,3.965,0,0,0-.676,2.384v2.554a3.857,3.857,0,0,0,.711,2.4,2.292,2.292,0,0,0,1.925.935,2.264,2.264,0,0,0,1.78-.646,2.808,2.808,0,0,0,.576-1.92Z" fill="#fff"/><path d="M-282.278,7566.348a5.109,5.109,0,0,1,1.187-3.486,4.14,4.14,0,0,1,3.287-1.357,4.182,4.182,0,0,1,3.3,1.353,5.079,5.079,0,0,1,1.2,3.49v.184a5.083,5.083,0,0,1-1.191,3.494,4.16,4.16,0,0,1-3.291,1.349,4.172,4.172,0,0,1-3.3-1.349,5.083,5.083,0,0,1-1.191-3.494Zm2.558.179a4.123,4.123,0,0,0,.457,2.085,1.577,1.577,0,0,0,1.477.785,1.565,1.565,0,0,0,1.455-.79,4.111,4.111,0,0,0,.461-2.08v-.183a4.064,4.064,0,0,0-.466-2.063,1.579,1.579,0,0,0-1.468-.8,1.559,1.559,0,0,0-1.455.8,4.1,4.1,0,0,0-.461,2.059Z" fill="#fff"/><path d="M-269.375,7561.681l.114,1.362a3.483,3.483,0,0,1,1.169-1.134,3.039,3.039,0,0,1,1.556-.4,2.865,2.865,0,0,1,2.25.905,4.181,4.181,0,0,1,.808,2.839v5.941h-2.575v-5.946a1.931,1.931,0,0,0-.387-1.361,1.557,1.557,0,0,0-1.169-.4,1.987,1.987,0,0,0-.914.207,1.887,1.887,0,0,0-.677.586v6.915h-2.566v-9.509Z" fill="#fff"/><path d="M-258.512,7559.351v2.33h1.6v1.8h-1.6v4.843a1.122,1.122,0,0,0,.228.791.818.818,0,0,0,.616.237,2.149,2.149,0,0,0,.346-.022,2.879,2.879,0,0,0,.339-.074l.22,1.854a5.1,5.1,0,0,1-.756.2,4.653,4.653,0,0,1-.8.066,2.737,2.737,0,0,1-2.044-.73,3.2,3.2,0,0,1-.715-2.311v-4.852h-1.389v-1.8h1.389v-2.33Z" fill="#fff"/><path d="M-255.673,7566.348a5.109,5.109,0,0,1,1.186-3.486,4.14,4.14,0,0,1,3.287-1.357,4.181,4.181,0,0,1,3.3,1.353,5.079,5.079,0,0,1,1.2,3.49v.184a5.083,5.083,0,0,1-1.191,3.494,4.16,4.16,0,0,1-3.291,1.349,4.173,4.173,0,0,1-3.3-1.349,5.082,5.082,0,0,1-1.19-3.494Zm2.557.179a4.133,4.133,0,0,0,.457,2.085,1.577,1.577,0,0,0,1.477.785,1.564,1.564,0,0,0,1.455-.79,4.1,4.1,0,0,0,.461-2.08v-.183a4.054,4.054,0,0,0-.466-2.063,1.578,1.578,0,0,0-1.468-.8,1.56,1.56,0,0,0-1.455.8,4.114,4.114,0,0,0-.461,2.059Z" fill="#fff"/><path d="M-240.117,7563.887l-.94-.027a1.7,1.7,0,0,0-.94.238,1.5,1.5,0,0,0-.563.667v6.425h-2.558v-9.509h2.382l.115,1.406a2.986,2.986,0,0,1,.865-1.164,1.926,1.926,0,0,1,1.226-.418,1.88,1.88,0,0,1,.356.031c.108.021.219.045.33.074Z" fill="#fff"/><path d="M-236.469,7561.681l.114,1.362a3.492,3.492,0,0,1,1.169-1.134,3.041,3.041,0,0,1,1.556-.4,2.863,2.863,0,0,1,2.25.905,4.181,4.181,0,0,1,.808,2.839v5.941h-2.575v-5.946a1.931,1.931,0,0,0-.387-1.361,1.554,1.554,0,0,0-1.168-.4,1.992,1.992,0,0,0-.915.207,1.875,1.875,0,0,0-.676.586v6.915h-2.567v-9.509Z" fill="#fff"/><path d="M-229.051,7566.348a5.109,5.109,0,0,1,1.186-3.486,4.141,4.141,0,0,1,3.288-1.357,4.18,4.18,0,0,1,3.3,1.353,5.079,5.079,0,0,1,1.2,3.49v.184a5.083,5.083,0,0,1-1.192,3.494,4.16,4.16,0,0,1-3.291,1.349,4.173,4.173,0,0,1-3.3-1.349,5.082,5.082,0,0,1-1.19-3.494Zm2.558.179a4.123,4.123,0,0,0,.457,2.085,1.575,1.575,0,0,0,1.476.785,1.564,1.564,0,0,0,1.455-.79,4.1,4.1,0,0,0,.461-2.08v-.183a4.054,4.054,0,0,0-.466-2.063,1.577,1.577,0,0,0-1.467-.8,1.56,1.56,0,0,0-1.456.8,4.114,4.114,0,0,0-.46,2.059Z" fill="#fff"/><path d="M-214.409,7566.515a6.178,6.178,0,0,1,.972-3.63,3.153,3.153,0,0,1,2.737-1.38,2.665,2.665,0,0,1,1.284.307,3.085,3.085,0,0,1,1,.879v-5.212h2.575v13.711h-2.206l-.211-1.16a3.144,3.144,0,0,1-1.06,1,2.807,2.807,0,0,1-1.4.343,3.216,3.216,0,0,1-2.72-1.283,5.478,5.478,0,0,1-.972-3.393Zm2.558.186a3.918,3.918,0,0,0,.422,1.976,1.466,1.466,0,0,0,1.371.72,1.994,1.994,0,0,0,.967-.225,1.808,1.808,0,0,0,.677-.658v-4.077a1.988,1.988,0,0,0-.673-.7,1.777,1.777,0,0,0-.953-.252,1.448,1.448,0,0,0-1.375.84,4.762,4.762,0,0,0-.436,2.193Z" fill="#fff"/><path d="M-199.643,7571.375a4.284,4.284,0,0,1-3.287-1.318,4.717,4.717,0,0,1-1.23-3.349v-.352a5.192,5.192,0,0,1,1.165-3.489,3.863,3.863,0,0,1,3.124-1.362,3.848,3.848,0,0,1,2.988,1.16,4.463,4.463,0,0,1,1.063,3.138v1.4H-201.5l-.018.053a2.467,2.467,0,0,0,.629,1.541,1.963,1.963,0,0,0,1.516.6,4.886,4.886,0,0,0,1.415-.172,6.365,6.365,0,0,0,1.23-.54l.694,1.586a4.723,4.723,0,0,1-1.52.79A6.587,6.587,0,0,1-199.643,7571.375Zm-.228-7.893a1.336,1.336,0,0,0-1.125.545,2.829,2.829,0,0,0-.51,1.433l.026.044h3.147v-.229a2.052,2.052,0,0,0-.383-1.3A1.376,1.376,0,0,0-199.871,7563.482Z" fill="#fff"/><path d="M-184.842,7563.887l-.941-.027a1.7,1.7,0,0,0-.94.238,1.493,1.493,0,0,0-.562.667v6.425h-2.558v-9.509h2.382l.114,1.406a3.005,3.005,0,0,1,.865-1.164,1.931,1.931,0,0,1,1.227-.418,1.862,1.862,0,0,1,.355.031c.109.021.219.045.33.074Z" fill="#fff"/><path d="M-183.937,7566.348a5.109,5.109,0,0,1,1.187-3.486,4.139,4.139,0,0,1,3.287-1.357,4.179,4.179,0,0,1,3.3,1.353,5.079,5.079,0,0,1,1.2,3.49v.184a5.083,5.083,0,0,1-1.192,3.494,4.159,4.159,0,0,1-3.291,1.349,4.171,4.171,0,0,1-3.3-1.349,5.083,5.083,0,0,1-1.191-3.494Zm2.558.179a4.123,4.123,0,0,0,.457,2.085,1.576,1.576,0,0,0,1.476.785,1.564,1.564,0,0,0,1.455-.79,4.1,4.1,0,0,0,.461-2.08v-.183a4.065,4.065,0,0,0-.465-2.063,1.579,1.579,0,0,0-1.468-.8,1.559,1.559,0,0,0-1.455.8,4.1,4.1,0,0,0-.461,2.059Z" fill="#fff"/><path d="M-173.777,7566.515a6.178,6.178,0,0,1,.972-3.63,3.151,3.151,0,0,1,2.737-1.38,2.658,2.658,0,0,1,1.283.307,3.085,3.085,0,0,1,1,.879v-5.212h2.576v13.711h-2.206l-.211-1.16a3.144,3.144,0,0,1-1.06,1,2.807,2.807,0,0,1-1.4.343,3.214,3.214,0,0,1-2.72-1.283,5.478,5.478,0,0,1-.972-3.393Zm2.558.186a3.918,3.918,0,0,0,.422,1.976,1.466,1.466,0,0,0,1.371.72,1.994,1.994,0,0,0,.967-.225,1.8,1.8,0,0,0,.676-.658v-4.077a1.977,1.977,0,0,0-.672-.7,1.779,1.779,0,0,0-.954-.252,1.45,1.45,0,0,0-1.375.84,4.763,4.763,0,0,0-.435,2.193Z" fill="#fff"/><path d="M-160.523,7559.4h-2.566v-1.925h2.566Zm0,11.786h-2.566v-9.509h2.566Z" fill="#fff"/><path d="M-155.715,7571.19h-2.567v-13.711h2.567Z" fill="#fff"/><path d="M-150.908,7571.19h-2.566v-13.711h2.566Z" fill="#fff"/><path d="M-143.217,7571.19a5.1,5.1,0,0,1-.241-.685,4.552,4.552,0,0,1-.146-.739,3.534,3.534,0,0,1-1.042,1.152,2.594,2.594,0,0,1-1.542.457,3.212,3.212,0,0,1-2.3-.769,2.754,2.754,0,0,1-.808-2.1,2.506,2.506,0,0,1,1.077-2.167,5.382,5.382,0,0,1,3.142-.769h1.432v-.756a1.479,1.479,0,0,0-.36-1.063,1.4,1.4,0,0,0-1.064-.378,1.387,1.387,0,0,0-.963.3,1.066,1.066,0,0,0-.337.838l-2.479-.008-.009-.053a2.414,2.414,0,0,1,1.046-2.078,4.557,4.557,0,0,1,2.909-.875,4.253,4.253,0,0,1,2.769.865,3,3,0,0,1,1.063,2.466v3.929a7.459,7.459,0,0,0,.1,1.256,6.285,6.285,0,0,0,.321,1.169Zm-2.347-1.714a2.2,2.2,0,0,0,1.2-.334,1.733,1.733,0,0,0,.712-.773v-1.345h-1.432a1.722,1.722,0,0,0-1.24.408,1.332,1.332,0,0,0-.422.99.987.987,0,0,0,.317.764A1.223,1.223,0,0,0-145.564,7569.476Z" fill="#fff"/><path d="M-504.884,7721.526l.017.053a4.169,4.169,0,0,1-1.26,3.278,5.066,5.066,0,0,1-3.6,1.213,5,5,0,0,1-3.753-1.485,5.26,5.26,0,0,1-1.441-3.823v-2.54a5.358,5.358,0,0,1,1.406-3.824,4.792,4.792,0,0,1,3.656-1.494,5.3,5.3,0,0,1,3.709,1.218,4.162,4.162,0,0,1,1.3,3.317l-.018.053h-2.5a2.8,2.8,0,0,0-.606-1.938,2.423,2.423,0,0,0-1.89-.672,2.14,2.14,0,0,0-1.828.935,3.966,3.966,0,0,0-.677,2.384v2.555a3.858,3.858,0,0,0,.712,2.4,2.294,2.294,0,0,0,1.925.936,2.257,2.257,0,0,0,1.779-.647,2.8,2.8,0,0,0,.577-1.92Z" fill="#fff"/><path d="M-503.645,7721.043a5.109,5.109,0,0,1,1.187-3.486,4.137,4.137,0,0,1,3.287-1.357,4.175,4.175,0,0,1,3.3,1.354,5.074,5.074,0,0,1,1.2,3.489v.184a5.089,5.089,0,0,1-1.192,3.5,4.161,4.161,0,0,1-3.291,1.348,4.173,4.173,0,0,1-3.3-1.348,5.089,5.089,0,0,1-1.191-3.5Zm2.558.18a4.12,4.12,0,0,0,.457,2.084,1.577,1.577,0,0,0,1.476.786,1.565,1.565,0,0,0,1.455-.79,4.108,4.108,0,0,0,.461-2.08v-.184a4.064,4.064,0,0,0-.465-2.063,1.577,1.577,0,0,0-1.468-.8,1.558,1.558,0,0,0-1.455.8,4.106,4.106,0,0,0-.461,2.059Z" fill="#fff"/><path d="M-490.743,7716.376l.115,1.362a3.483,3.483,0,0,1,1.169-1.134,3.037,3.037,0,0,1,1.555-.4,2.862,2.862,0,0,1,2.25.9,4.181,4.181,0,0,1,.809,2.839v5.942h-2.575v-5.947a1.933,1.933,0,0,0-.387-1.361,1.555,1.555,0,0,0-1.169-.4,1.981,1.981,0,0,0-.914.207,1.865,1.865,0,0,0-.677.586v6.915h-2.566v-9.51Z" fill="#fff"/><path d="M-479.879,7714.047v2.329h1.6v1.8h-1.6v4.842a1.119,1.119,0,0,0,.228.791.813.813,0,0,0,.616.238,2.146,2.146,0,0,0,.346-.023,2.683,2.683,0,0,0,.339-.074l.22,1.855a5.42,5.42,0,0,1-.756.2,4.657,4.657,0,0,1-.8.065,2.737,2.737,0,0,1-2.044-.729,3.2,3.2,0,0,1-.716-2.312v-4.851h-1.388v-1.8h1.388v-2.329Z" fill="#fff"/><path d="M-477.04,7721.043a5.108,5.108,0,0,1,1.186-3.486,4.139,4.139,0,0,1,3.287-1.357,4.177,4.177,0,0,1,3.3,1.354,5.073,5.073,0,0,1,1.2,3.489v.184a5.088,5.088,0,0,1-1.191,3.5,4.163,4.163,0,0,1-3.291,1.348,4.176,4.176,0,0,1-3.3-1.348,5.088,5.088,0,0,1-1.19-3.5Zm2.557.18a4.131,4.131,0,0,0,.457,2.084,1.579,1.579,0,0,0,1.477.786,1.566,1.566,0,0,0,1.455-.79,4.108,4.108,0,0,0,.461-2.08v-.184a4.053,4.053,0,0,0-.466-2.063,1.577,1.577,0,0,0-1.468-.8,1.559,1.559,0,0,0-1.455.8,4.116,4.116,0,0,0-.461,2.059Z" fill="#fff"/><path d="M-461.484,7718.582l-.94-.026a1.713,1.713,0,0,0-.941.237,1.5,1.5,0,0,0-.562.668v6.425h-2.558v-9.51h2.382l.114,1.406a2.994,2.994,0,0,1,.866-1.164,1.929,1.929,0,0,1,1.226-.418,1.966,1.966,0,0,1,.356.031c.108.021.218.045.33.075Z" fill="#fff"/><path d="M-457.836,7716.376l.114,1.362a3.483,3.483,0,0,1,1.169-1.134,3.038,3.038,0,0,1,1.556-.4,2.862,2.862,0,0,1,2.25.9,4.181,4.181,0,0,1,.808,2.839v5.942h-2.575v-5.947a1.933,1.933,0,0,0-.387-1.361,1.555,1.555,0,0,0-1.169-.4,1.981,1.981,0,0,0-.914.207,1.863,1.863,0,0,0-.676.586v6.915h-2.567v-9.51Z" fill="#fff"/><path d="M-450.418,7721.043a5.108,5.108,0,0,1,1.186-3.486,4.139,4.139,0,0,1,3.287-1.357,4.177,4.177,0,0,1,3.3,1.354,5.073,5.073,0,0,1,1.2,3.489v.184a5.089,5.089,0,0,1-1.191,3.5,4.163,4.163,0,0,1-3.291,1.348,4.176,4.176,0,0,1-3.3-1.348,5.088,5.088,0,0,1-1.19-3.5Zm2.557.18a4.13,4.13,0,0,0,.457,2.084,1.579,1.579,0,0,0,1.477.786,1.566,1.566,0,0,0,1.455-.79,4.108,4.108,0,0,0,.461-2.08v-.184a4.053,4.053,0,0,0-.466-2.063,1.576,1.576,0,0,0-1.468-.8,1.559,1.559,0,0,0-1.455.8,4.116,4.116,0,0,0-.461,2.059Z" fill="#fff"/><path d="M-435.776,7721.21a6.176,6.176,0,0,1,.972-3.63,3.151,3.151,0,0,1,2.737-1.38,2.664,2.664,0,0,1,1.283.308,3.081,3.081,0,0,1,1,.879v-5.212h2.576v13.711h-2.206l-.211-1.161a3.147,3.147,0,0,1-1.06,1,2.807,2.807,0,0,1-1.4.343,3.214,3.214,0,0,1-2.72-1.283,5.476,5.476,0,0,1-.972-3.393Zm2.558.186a3.92,3.92,0,0,0,.422,1.976,1.467,1.467,0,0,0,1.371.721,2,2,0,0,0,.967-.226,1.793,1.793,0,0,0,.676-.658v-4.076a1.967,1.967,0,0,0-.672-.7,1.779,1.779,0,0,0-.954-.252,1.447,1.447,0,0,0-1.375.839,4.762,4.762,0,0,0-.435,2.193Z" fill="#fff"/><path d="M-421.01,7726.07a4.281,4.281,0,0,1-3.287-1.318,4.712,4.712,0,0,1-1.231-3.349v-.351a5.2,5.2,0,0,1,1.165-3.49,3.863,3.863,0,0,1,3.124-1.362,3.852,3.852,0,0,1,2.989,1.16,4.467,4.467,0,0,1,1.063,3.138v1.4h-5.678l-.017.053a2.465,2.465,0,0,0,.629,1.541,1.961,1.961,0,0,0,1.515.6,4.9,4.9,0,0,0,1.415-.172,6.462,6.462,0,0,0,1.231-.54l.694,1.586a4.743,4.743,0,0,1-1.52.79A6.592,6.592,0,0,1-421.01,7726.07Zm-.229-7.892a1.335,1.335,0,0,0-1.125.545,2.831,2.831,0,0,0-.509,1.432l.026.044h3.146v-.228a2.056,2.056,0,0,0-.382-1.306A1.379,1.379,0,0,0-421.239,7718.178Z" fill="#fff"/><path d="M-402.632,7721.394a5.571,5.571,0,0,1-.949,3.4,3.212,3.212,0,0,1-2.743,1.274,2.92,2.92,0,0,1-1.445-.346,3,3,0,0,1-1.051-1.016l-.193,1.178h-2.2v-13.711h2.557v5.212a2.9,2.9,0,0,1,.99-.879,2.761,2.761,0,0,1,1.322-.308,3.151,3.151,0,0,1,2.76,1.367,6.279,6.279,0,0,1,.949,3.643Zm-2.558-.184A4.994,4.994,0,0,0-405.6,7719a1.43,1.43,0,0,0-1.393-.818,1.9,1.9,0,0,0-1.01.252,1.746,1.746,0,0,0-.651.72v4.05a1.637,1.637,0,0,0,.656.663,2.09,2.09,0,0,0,1.023.23,1.459,1.459,0,0,0,1.389-.7,4.126,4.126,0,0,0,.395-1.994Z" fill="#fff"/><path d="M-401.446,7721.043a5.109,5.109,0,0,1,1.187-3.486,4.139,4.139,0,0,1,3.287-1.357,4.178,4.178,0,0,1,3.3,1.354,5.073,5.073,0,0,1,1.2,3.489v.184a5.088,5.088,0,0,1-1.191,3.5,4.163,4.163,0,0,1-3.291,1.348,4.174,4.174,0,0,1-3.3-1.348,5.088,5.088,0,0,1-1.191-3.5Zm2.558.18a4.12,4.12,0,0,0,.457,2.084,1.579,1.579,0,0,0,1.477.786,1.566,1.566,0,0,0,1.455-.79,4.119,4.119,0,0,0,.461-2.08v-.184a4.064,4.064,0,0,0-.466-2.063,1.577,1.577,0,0,0-1.468-.8,1.559,1.559,0,0,0-1.455.8,4.106,4.106,0,0,0-.461,2.059Z" fill="#fff"/><path d="M-387.84,7714.047v2.329h1.6v1.8h-1.6v4.842a1.119,1.119,0,0,0,.228.791.813.813,0,0,0,.616.238,2.137,2.137,0,0,0,.346-.023,2.683,2.683,0,0,0,.339-.074l.22,1.855a5.42,5.42,0,0,1-.756.2,4.657,4.657,0,0,1-.8.065,2.737,2.737,0,0,1-2.044-.729,3.2,3.2,0,0,1-.716-2.312v-4.851H-391.8v-1.8h1.388v-2.329Z" fill="#fff"/><path d="M-379.025,7725.886a5.353,5.353,0,0,1-.241-.686,4.663,4.663,0,0,1-.145-.738,3.536,3.536,0,0,1-1.042,1.151,2.6,2.6,0,0,1-1.542.457,3.212,3.212,0,0,1-2.3-.768,2.757,2.757,0,0,1-.809-2.1,2.509,2.509,0,0,1,1.077-2.167,5.379,5.379,0,0,1,3.142-.769h1.433v-.755a1.482,1.482,0,0,0-.361-1.064,1.4,1.4,0,0,0-1.063-.378,1.39,1.39,0,0,0-.963.3,1.065,1.065,0,0,0-.338.839l-2.479-.009-.008-.053a2.411,2.411,0,0,1,1.046-2.078,4.558,4.558,0,0,1,2.909-.875,4.251,4.251,0,0,1,2.768.865,3,3,0,0,1,1.064,2.466v3.929a7.479,7.479,0,0,0,.1,1.257,6.344,6.344,0,0,0,.322,1.169Zm-2.346-1.714a2.208,2.208,0,0,0,1.2-.334,1.743,1.743,0,0,0,.712-.774v-1.344h-1.433a1.714,1.714,0,0,0-1.239.408,1.325,1.325,0,0,0-.422.989.989.989,0,0,0,.316.765A1.226,1.226,0,0,0-381.371,7724.172Z" fill="#fff"/></g></svg>