<svg xmlns="http://www.w3.org/2000/svg" width="516.926" height="677.916" viewBox="0 0 516.926 677.916">
  <g id="Grupo_55322" data-name="Grupo 55322" transform="translate(-81.771 -1484.171)">
    <g id="Grupo_55307" data-name="Grupo 55307">
      <path id="Trazado_104953" data-name="Trazado 104953" d="M356.727,1573.217l241.391,32.7-3.478,20.87-165.217-9.043-24,16H287.51l-26.435-15.3L98.64,1628.522l-5.565-23.652,246.261-31.652Z" fill="#fff"/>
      <path id="Trazado_104954" data-name="Trazado 104954" d="M400.484,1634.239h-8v-1h8Zm-16,0h-8v-1h8Zm-16,0h-8v-1h8Zm-16,0h-8v-1h8Zm-16,0h-8v-1h8Zm-16,0h-8v-1h8Zm-16,0h-8v-1h8Zm-16,0h-1.108l-6.2-3.587.5-.866,5.964,3.453h.839Zm119.764-1.782-.555-.832,6.657-4.438.554.832Zm-310-3.41-1.41-5.99.972-.23L99.03,1628l1.842-.114.063,1Zm10.669-.662-.063-1,7.985-.5.062,1Zm15.969-.992-.063-1,7.985-.5.062,1Zm462.487-.507-7.987-.438.054-1,7.988.438Zm-313.12-.243-6.924-4.008.5-.865,6.923,4.008Zm-133.4-.242-.062-1,7.984-.5.063,1Zm454.4-.278-.987-.164,1.315-7.892.986.164Zm-23.858-.112-7.988-.437.055-1,7.988.437Zm-414.573-.6-.062-1,7.984-.495.063,1Zm398.6-.273-7.988-.438.054-1,7.989.438Zm-382.627-.719-.063-1,7.985-.5.062,1Zm366.651-.155-7.988-.438.055-1,7.988.437Zm-117.887-.682-.555-.832,6.656-4.437.555.832Zm-232.795-.155-.063-1,7.985-.5.062,1Zm334.706-.038-7.989-.437.055-1,7.988.437Zm-15.976-.875-7.988-.437.055-1,7.988.437Zm-302.761-.079-.062-1,7.984-.495.063,1Zm286.785-.795-7.989-.437.055-1,7.988.437Zm-270.816-.2-.062-1,7.984-.5.062,1Zm254.84-.679-7.988-.437.054-1,7.989.437Zm-238.87-.313-.063-1,7.985-.5.062,1Zm222.893-.561-7.988-.437.055-1,7.988.437Zm-206.924-.431-.063-1,7.984-.5.063,1Zm190.949-.444-7.988-.437.054-1,7.988.438Zm-348.583-3.746-1.832-7.787.972-.229,1.832,7.786Zm502.879-4.929-.987-.164.639-3.837-3.052-.413.135-.991,4.073.552Zm-11.327-5.488-7.927-1.073.135-.992,7.926,1.074Zm-488.033-.179-.127-.992,7.936-1.02.127.992Zm472.178-1.968-7.928-1.074.135-.991,7.928,1.074Zm-456.308-.072-.127-.992,7.935-1.02.127.992Zm15.87-2.04-.127-.992,7.934-1.02.127.993Zm424.583-.036-7.928-1.074.135-.991,7.927,1.074Zm-408.714-2-.127-.993,7.934-1.02.127.993Zm392.858-.144-7.928-1.074.135-.991,7.928,1.073Zm-376.988-1.9-.127-.992,7.934-1.02.127.992Zm361.133-.252-7.928-1.074.135-.991,7.927,1.074Zm-345.264-1.788-.127-.992,7.935-1.02.127.992Zm329.409-.359-7.928-1.074.135-.991,7.928,1.073Zm-313.54-1.681-.127-.992,7.935-1.02.127.992Zm297.685-.467-7.928-1.074.135-.991,7.927,1.074ZM209.615,1590.4l-.127-.992,7.935-1.02.127.992Zm265.959-.576-7.928-1.074.135-.991,7.928,1.074Zm-250.09-1.464-.127-.992,7.935-1.02.127.992Zm234.235-.683-7.928-1.074.135-.991,7.928,1.074Zm-218.365-1.357-.127-.992,7.934-1.02.127.992Zm202.51-.791-7.927-1.073.134-.992,7.928,1.074Zm-186.64-1.249-.127-.992,7.934-1.019.127.992Zm170.785-.9-7.928-1.074.135-.991,7.928,1.074Zm-154.916-1.141-.127-.992,7.934-1.02.127.992Zm139.06-1.007-7.927-1.073.134-.992,7.928,1.074ZM288.962,1580.2l-.127-.992,7.935-1.02.126.992Zm107.336-1.115-7.928-1.073.135-.992,7.928,1.074Zm-91.466-.925-.127-.992,7.935-1.02.127.993Zm75.611-1.222-7.927-1.074.134-.991,7.928,1.074Zm-59.742-.817-.127-.993,7.935-1.02.127.993Zm43.887-1.331-7.928-1.073-4.177,0v-1h4.245l7.995,1.078Zm-28.018-.709-.127-.992,2.829-.364,5.211,0v1h-5.147Z" fill="#1a1a1a"/>
    </g>
    <path id="Trazado_104955" data-name="Trazado 104955" d="M370.719,1509.23c-1.385,11.049-2.473,22.146-4.254,33.131-1.3,8.036-13.23,17.233-21.31,17.227-6.23,0-18.969-9.52-19.82-15.9-1.765-13.228-3.271-26.537-3.874-39.858-.421-9.3,11.114-18.053,22.966-18.392a29.629,29.629,0,0,1,19.707,6.8C369.768,1496.7,370.824,1502.56,370.719,1509.23Z" fill="#fff"/>
    <g id="Grupo_55308" data-name="Grupo 55308">
      <path id="Trazado_104956" data-name="Trazado 104956" d="M414.119,1658.087,532.032,1768.7l17.739-18.783L415.183,1600.6l-22.977,6.355Z" fill="#fff"/>
      <path id="Trazado_104957" data-name="Trazado 104957" d="M532.053,1769.4l-1.583-1.485.683-.729.857.8,4-4.238.726.686Zm-7.417-6.958-5.835-5.473.683-.729,5.835,5.473Zm17.6-3.821-.726-.686L547,1752.12l.727.686Zm-29.266-7.125-5.835-5.474.683-.729,5.835,5.473Zm33.426-4.586-5.357-5.942.742-.67,5.357,5.942Zm-45.1-6.361-5.835-5.473.684-.729,5.834,5.473Zm34.382-5.524-5.357-5.942.742-.67,5.357,5.942Zm-46.052-5.422-5.834-5.473.684-.73,5.834,5.473Zm35.339-6.462-5.356-5.942.743-.67,5.355,5.942Zm-47.008-4.485-5.835-5.473.684-.73,5.835,5.474Zm36.3-7.4-5.357-5.943.743-.67,5.356,5.943Zm-47.966-3.547-5.834-5.473.684-.73,5.834,5.473Zm37.253-8.338-5.356-5.942.742-.67,5.356,5.942Zm-48.922-2.608-5.835-5.474.684-.73,5.835,5.474Zm38.209-9.276-5.355-5.943.742-.67,5.355,5.943Zm-49.878-1.671-5.835-5.473.684-.73,5.835,5.473Zm39.166-10.214-5.356-5.942.742-.67,5.356,5.942Zm-50.836-.733-5.835-5.473.684-.73,5.835,5.474Zm-11.669-10.946-5.953-5.641-1.572-3.669.92-.393,1.53,3.572,5.759,5.4Zm51.792-.205-5.356-5.943.742-.67,5.357,5.943Zm-10.713-11.885-5.355-5.942.742-.67,5.356,5.942Zm-51.755-4.573-3.152-7.353.92-.394,3.152,7.354Zm41.044-7.311-5.357-5.943.742-.67,5.357,5.943Zm-47.346-7.4-3.152-7.353.92-.394,3.152,7.353Zm36.633-4.49-5.357-5.942.742-.67,5.357,5.942Zm-42.936-10.217-3.151-7.353.92-.394,3.151,7.354Zm32.223-1.667-5.356-5.942.742-.67,5.356,5.942Zm-32.009-9.907-.266-.964,7.711-2.132.266.964Zm21.3-1.978-2.822-3.131-3.054.845-.266-.964,3.648-1.01,3.236,3.59Z" fill="#1a1a1a"/>
    </g>
    <g id="Grupo_55309" data-name="Grupo 55309">
      <path id="Trazado_104958" data-name="Trazado 104958" d="M276.206,1660.964,158.293,1771.572l-17.739-18.783,134.588-149.311,22.977,6.355Z" fill="#fff"/>
      <path id="Trazado_104959" data-name="Trazado 104959" d="M158.271,1772.278l-4.686-4.963.727-.687,4,4.239.856-.8.684.729Zm7.417-6.958-.683-.729,5.835-5.474.683.73Zm-17.6-3.822-5.493-5.816.726-.686,5.493,5.816Zm29.266-7.125-.683-.729,5.834-5.473.683.729Zm-33.425-4.586-.743-.67,5.357-5.942.742.67Zm45.094-6.36-.683-.729,5.835-5.474.683.73Zm-34.381-5.524-.743-.67,5.357-5.943.742.67Zm46.051-5.423-.683-.729,5.834-5.473.683.729Zm-35.339-6.462-.742-.669,5.357-5.943.742.67Zm47.008-4.484-.683-.729,5.835-5.474.683.73Zm-36.3-7.4-.742-.67,5.357-5.942.742.67Zm47.965-3.546-.683-.73,5.835-5.473.683.73Zm-37.252-8.339-.742-.67,5.356-5.942.743.67Zm48.922-2.608-.684-.73,5.835-5.473.684.73Zm-38.209-9.276-.742-.67,5.356-5.942.743.67Zm49.878-1.67-.684-.73,5.835-5.473.684.73Zm-39.166-10.215-.742-.67,5.356-5.942.742.67Zm50.836-.732-.684-.729,5.835-5.474.684.73Zm11.669-10.946-.684-.73,5.759-5.4,1.53-3.572.92.393-1.69,3.836Zm-51.792-.206-.742-.67,5.356-5.942.742.67Zm10.713-11.885-.742-.67,5.356-5.942.742.67Zm51.756-4.572-.92-.394,3.151-7.353.92.394Zm-41.044-7.312-.742-.67,5.356-5.942.742.67Zm47.345-7.4-.92-.393,3.152-7.354.92.394Zm-36.632-4.49-.743-.67,5.357-5.942.742.67Zm42.935-10.216-.92-.394,3.152-7.353.92.394Zm-32.223-1.668-.742-.67,5.357-5.942.742.67Zm32.009-9.906-7.71-2.133.266-.963,7.71,2.132Zm-21.3-1.978-.742-.67,3.235-3.59,3.648,1.009-.266.964-3.053-.844Z" fill="#1a1a1a"/>
    </g>
    <g id="Grupo_55310" data-name="Grupo 55310">
      <path id="Trazado_104960" data-name="Trazado 104960" d="M455.671,1807.609c1.214-.4,3.367.233,2.926,1-1,1.739-5.207,2.664-6.01,2.928-5.181,1.7-10.593,2.691-15.843,4.2-3.759,1.082-4.824-.429-5.676-3.939q-17.611-72.565-35.533-145.055a6.951,6.951,0,0,0-2.826-4.282c-1.5,19-3.1,37.985-4.382,57-.148,2.2,1.126,4.668,2.236,6.747a142.53,142.53,0,0,1,16.845,67.349c.153,53.2-1,106.41-1.441,159.616q-.741,88.667-1.021,177.337c-.012,5.3-1.493,6.68-6.414,6.568a93.94,93.94,0,0,0-15.184,1c-4.365.616-5.64-1.056-6.05-5.163q-5.471-54.867-11.244-109.7-8.158-78.166-16.408-156.323c-1.411-13.48-2.728-26.969-4.932-40.443-1.29,13.007-2.641,26.007-3.855,39.02-2.244,24.053-4.22,48.132-6.646,72.165-5.059,50.113-10.329,100.2-15.532,150.3-1.552,14.949-3.33,29.878-4.655,44.847-.409,4.627-2.162,5.849-6.567,5.261a121.906,121.906,0,0,0-15.8-1c-4.2-.01-5.642-1.565-5.608-5.811.289-35.962.739-71.929.468-107.889-.317-42.038-1.33-84.07-2.007-126.106-.523-32.5-1.836-65.018-1.218-97.5.485-25.458,4.938-50.469,17.328-73.41a19.048,19.048,0,0,0,2.1-9.755c-1.128-18.01-2.664-35.995-4.061-53.988l-1.708-.111c-2.349,9.359-4.734,18.71-7.041,28.079-9.96,40.443-19.964,80.876-29.744,121.363-1.008,4.17-2.624,4.742-6.338,3.584a112.143,112.143,0,0,0-14.734-3.633c-4.673-.786-5.912-2.649-4.867-7.431,4.555-20.84,8.753-41.758,13.028-62.658q13.553-66.263,27.047-132.536a24.772,24.772,0,0,0,.9-5.4c-.17-6.822,3.857-10.108,9.561-12.543,11.733-5.009,23.427-10.129,34.977-15.545,9.206-4.316,11.251-8.265,10.427-18.136-.1-1.178-.1-2.852-.828-3.415-8.19-6.329-7.558-15.771-8.683-24.492-.934-7.241-1.148-14.572-1.873-21.843-1.008-10.1,4.035-16.555,12.362-21.136,1.585-.872,3.189-1.711,4.784-2.566h19.525c1.962,1.04,3.99,1.972,5.874,3.137,7.143,4.417,12.209,10.058,11.252,19.263-1.257,12.094-2.249,24.218-3.766,36.278a16.855,16.855,0,0,1-3.7,8.122c-6.716,8.132-6.436,17.028,2.7,22.232,11.378,6.48,23.483,11.8,35.618,16.789,7.578,3.113,11.56,7,13.214,15.809,8.083,43.069,17.217,85.942,26.005,128.879,4.11,20.078,8.362,40.127,12.355,60.228.823,4.142,3.239,9.5,3.587,13.7-2.848,1.848-4.048-4.372-4.424-6.111q-3.668-16.979-7.13-34-10.865-53.4-21.672-106.812c-3.8-18.645-7.964-37.219-11.35-55.936-1.22-6.745-4.474-10.607-10.555-13.022-9.443-3.75-18.964-7.4-28.08-11.852-9.272-4.529-18.91-9.368-17.018-22.58.015-.1-.287-.245-.939-.772-7.695,6.041-15.883,6.225-24.4-.956-.16,2.641-.507,4.048-.279,5.355.975,5.581-1.444,9.377-6.041,12.121-5.041,3.008-9.9,6.418-15.19,8.89-7.91,3.693-16.135,6.712-24.221,10.03-4.983,2.044-8.6,5.02-9.734,10.844-4.8,24.645-9.833,49.244-14.863,73.843q-10.137,49.578-20.382,99.134c-2.143,10.463-4.146,20.954-6.279,31.767l21.124,5.232,40.267-163.619c.98,3.353,2.268,6.1,2.538,8.948q2.877,30.335,5.335,60.708A9.64,9.64,0,0,1,304.2,1725c-14.059,25.275-18.5,52.8-18.239,81.166.612,66.023,1.714,132.042,2.563,198.063.246,19.11.423,38.223.423,57.335,0,22.366-.293,44.732-.242,67.1.005,1.929,1.431,5.377,2.553,5.532,6.528.9,13.163,1.026,19.991,1.427,2.541-24.345,4.99-47.772,7.43-71.2,4.8-46.082,9.834-92.141,14.315-138.253,3.57-36.738,6.439-73.544,9.751-110.308.125-1.389,1.632-2.653,2.495-3.976.726,1.276,1.953,2.5,2.094,3.838.806,7.638,1.229,15.317,2.008,22.959q6.369,62.454,12.848,124.9,6.468,62.761,12.948,125.523c1.59,15.311,3.3,30.609,5.031,46.567,6.887-.425,13.342-.625,19.726-1.406,1.123-.137,2.754-2.7,2.778-4.156.127-7.92-.329-15.847-.3-23.771q.129-41.783.448-83.564c.152-23.047.27-46.1.564-69.142.633-49.6,1.61-99.2,1.963-148.8.177-25-3.466-49.451-14.438-72.32-2.691-5.612-5.839-10.748-5.025-17.684,2.131-18.153,3.4-36.4,5.264-54.592.319-3.12,1.844-6.117,2.9-9.46,13.466,54.761,26.718,108.654,40.194,163.455ZM370.719,1509.23c.105-6.67-.951-12.525-6.585-16.984a29.629,29.629,0,0,0-19.707-6.8c-11.852.339-23.387,9.091-22.966,18.392.6,13.321,2.109,26.63,3.874,39.858.851,6.377,13.59,15.893,19.82,15.9,8.08.006,20.008-9.191,21.31-17.227C368.246,1531.376,369.334,1520.279,370.719,1509.23Z"/>
      <path id="Trazado_104961" data-name="Trazado 104961" d="M455.671,1807.609l-21.434,6.624c-13.476-54.8-26.728-108.694-40.194-163.455-1.059,3.343-2.584,6.34-2.9,9.46-1.86,18.187-3.133,36.439-5.264,54.592-.814,6.936,2.334,12.072,5.025,17.684,10.972,22.869,14.615,47.323,14.438,72.32-.353,49.6-1.33,99.2-1.963,148.8-.294,23.046-.412,46.095-.564,69.142q-.276,41.782-.448,83.564c-.024,7.924.432,15.851.3,23.771-.024,1.461-1.655,4.019-2.778,4.156-6.384.781-12.839.981-19.726,1.406-1.727-15.958-3.441-31.256-5.031-46.567q-6.516-62.757-12.948-125.523-6.435-62.448-12.848-124.9c-.779-7.642-1.2-15.321-2.008-22.959-.141-1.338-1.368-2.562-2.094-3.838-.863,1.323-2.37,2.587-2.495,3.976-3.312,36.764-6.181,73.57-9.751,110.308-4.481,46.112-9.515,92.171-14.315,138.253-2.44,23.428-4.889,46.855-7.43,71.2-6.828-.4-13.463-.527-19.991-1.427-1.122-.155-2.548-3.6-2.553-5.532-.051-22.366.242-44.732.242-67.1,0-19.112-.177-38.225-.423-57.335-.849-66.021-1.951-132.04-2.563-198.063-.262-28.368,4.18-55.891,18.239-81.166a9.64,9.64,0,0,0,1.109-5.184q-2.5-30.367-5.335-60.708c-.27-2.846-1.558-5.595-2.538-8.948l-40.267,163.619-21.124-5.232c2.133-10.813,4.136-21.3,6.279-31.767q10.153-49.575,20.382-99.134c5.03-24.6,10.063-49.2,14.863-73.843,1.134-5.824,4.751-8.8,9.734-10.844,8.086-3.318,16.311-6.337,24.221-10.03,5.293-2.472,10.149-5.882,15.19-8.89,4.6-2.744,7.016-6.54,6.041-12.121-.228-1.307.119-2.714.279-5.355,8.516,7.181,16.7,7,24.4.956.652.527.954.672.939.772-1.892,13.212,7.746,18.051,17.018,22.58,9.116,4.453,18.637,8.1,28.08,11.852,6.081,2.415,9.335,6.277,10.555,13.022,3.386,18.717,7.555,37.291,11.35,55.936q10.867,53.4,21.672,106.812,3.463,17.022,7.13,34a21.573,21.573,0,0,0,1.228,4.17C455.409,1806.7,455.671,1807.609,455.671,1807.609Z" fill="#fff"/>
    </g>
    <rect id="Rectángulo_5366" data-name="Rectángulo 5366" width="511.305" height="1" transform="translate(81.771 1565.239)" fill="#ff9696"/>
    <rect id="Rectángulo_5367" data-name="Rectángulo 5367" width="511.305" height="1" transform="translate(81.771 1648.891)" fill="#ff9696"/>
    <rect id="Rectángulo_5368" data-name="Rectángulo 5368" width="511.305" height="1" transform="translate(81.771 1734.674)" fill="#ff9696"/>
    <rect id="Rectángulo_5369" data-name="Rectángulo 5369" width="511.305" height="1" transform="translate(81.771 1814.109)" fill="#ff9696"/>
    <rect id="Rectángulo_5370" data-name="Rectángulo 5370" width="511.305" height="1" transform="translate(81.771 1902.543)" fill="#ff9696"/>
    <rect id="Rectángulo_5371" data-name="Rectángulo 5371" width="511.305" height="1" transform="translate(81.771 1980.37)" fill="#ff9696"/>
    <rect id="Rectángulo_5372" data-name="Rectángulo 5372" width="511.305" height="1" transform="translate(81.771 2066.978)" fill="#ff9696"/>
    <rect id="Rectángulo_5373" data-name="Rectángulo 5373" width="511.305" height="1" transform="translate(81.771 2147.326)" fill="#ff9696"/>
    <rect id="Rectángulo_5374" data-name="Rectángulo 5374" width="1" height="346.362" transform="translate(344.206 1815.724)" fill="#ff9696"/>
    <rect id="Rectángulo_5375" data-name="Rectángulo 5375" width="1" height="92" transform="translate(344.206 1722.609)" fill="#1a1a1a"/>
    <rect id="Rectángulo_5376" data-name="Rectángulo 5376" width="82.261" height="1" transform="translate(304.728 1722.109)" fill="#95bb84"/>
    <rect id="Rectángulo_5377" data-name="Rectángulo 5377" width="334.957" height="1" transform="translate(177.944 1958.109)" fill="#95bb84"/>
    <g id="Grupo_55311" data-name="Grupo 55311">
      <rect id="Rectángulo_5378" data-name="Rectángulo 5378" width="0.999" height="4" transform="matrix(0.983, -0.184, 0.184, 0.983, 405.628, 1781.309)" fill="#1a1a1a"/>
      <path id="Trazado_104962" data-name="Trazado 104962" d="M466.759,2108.464l-1.439-7.7.983-.183,1.438,7.7Zm-2.876-15.391-1.439-7.7.983-.184,1.438,7.7Zm-2.876-15.392-1.439-7.7.983-.183,1.438,7.7Zm-2.876-15.392-1.439-7.7.983-.184,1.438,7.7Zm-2.877-15.391-1.438-7.7.983-.184,1.437,7.7Zm-2.876-15.392-1.438-7.7.983-.183,1.437,7.7Zm-2.876-15.391-1.438-7.7.983-.184,1.437,7.7Zm-2.876-15.392-1.438-7.7.983-.183,1.437,7.695Zm-2.876-15.392-1.437-7.7.982-.184,1.437,7.7Zm-2.876-15.391-1.437-7.7.982-.184,1.437,7.7ZM438,1954.548l-1.437-7.7.982-.183,1.437,7.7Zm-2.876-15.391-1.437-7.7.982-.184,1.438,7.7Zm-2.876-15.392-1.438-7.7.982-.184,1.439,7.7Zm-2.876-15.391-1.438-7.7.982-.183,1.439,7.695Zm-2.876-15.392-1.438-7.7.982-.183,1.439,7.7Zm-2.876-15.391-1.438-7.7.982-.184,1.439,7.7Zm-2.876-15.392-1.438-7.7.982-.183,1.439,7.7Zm-2.876-15.392-1.438-7.695.982-.184,1.439,7.7Zm-2.876-15.391-1.438-7.7.982-.184,1.439,7.7Zm-2.876-15.392-1.438-7.7.982-.183,1.439,7.7Zm-2.876-15.391-1.438-7.7.982-.184,1.439,7.7Z" fill="#1a1a1a"/>
      <path id="Trazado_104963" data-name="Trazado 104963" d="M465.762,2121.687l-.3-.953,3.392-1.077-.653-3.5.982-.184.815,4.366Z" fill="#1a1a1a"/>
      <rect id="Rectángulo_5379" data-name="Rectángulo 5379" width="4.997" height="1" transform="matrix(0.953, -0.303, 0.303, 0.953, 455.934, 2123.758)" fill="#1a1a1a"/>
      <path id="Trazado_104964" data-name="Trazado 104964" d="M447.187,2127.584l-1.378-4.282.951-.307,1.073,3.333,3.338-1.06.3.953Z" fill="#1a1a1a"/>
      <path id="Trazado_104965" data-name="Trazado 104965" d="M443.3,2115.517l-2.506-7.785.951-.307,2.506,7.785Zm-5.012-15.57-2.506-7.785.951-.307,2.506,7.785Zm-5.012-15.57-2.506-7.785.952-.307,2.505,7.785Zm-5.011-15.57-2.506-7.785.951-.307,2.506,7.785Zm-5.012-15.57-2.506-7.785.951-.307,2.506,7.785Zm-5.012-15.571-2.506-7.784.951-.307,2.506,7.785Zm-5.012-15.569-2.505-7.786.951-.306,2.506,7.785Zm-5.011-15.571-2.506-7.784.951-.307,2.506,7.785Zm-5.012-15.57-2.506-7.785.951-.306,2.506,7.785Zm-5.012-15.57-2.506-7.785.952-.306,2.505,7.784Zm-5.011-15.57-2.506-7.785.951-.307,2.506,7.786Zm-5.012-15.57-2.506-7.785.951-.307,2.506,7.785Zm-5.012-15.57-2.506-7.785.951-.307,2.506,7.786Zm-5.012-15.57-2.505-7.785.951-.307,2.506,7.785Zm-5.011-15.57-2.506-7.785.951-.307,2.506,7.785Zm-5.012-15.57-2.506-7.785.951-.307,2.506,7.785Zm-5.012-15.571-2.506-7.784.952-.307,2.505,7.785Zm-5.011-15.569-2.506-7.786.951-.306,2.506,7.785Zm-5.012-15.571-2.506-7.785.951-.307,2.506,7.786Z" fill="#1a1a1a"/>
      <path id="Trazado_104966" data-name="Trazado 104966" d="M342.016,1819.829l-.953-.3,1.308-4.155,5.32-.161,1.341,4.166-.951.307-1.11-3.45-3.859.117Z" fill="#1a1a1a"/>
      <path id="Trazado_104967" data-name="Trazado 104967" d="M248.857,2115.511l-.953-.3,2.452-7.781.954.3Zm4.9-15.563-.953-.3,2.451-7.781.953.3Zm4.9-15.562-.953-.3,2.451-7.781.953.3Zm4.9-15.562-.953-.3,2.451-7.781.954.3Zm4.9-15.562-.953-.3,2.452-7.781.953.3Zm4.9-15.562-.953-.3,2.451-7.781.953.3Zm4.9-15.563-.953-.3,2.451-7.78.954.3Zm4.9-15.562-.953-.3,2.452-7.781.953.3Zm4.9-15.562-.953-.3,2.452-7.781.953.3Zm4.9-15.562-.953-.3,2.451-7.781.954.3Zm4.9-15.562-.953-.3,2.451-7.781.953.3Zm4.9-15.563-.953-.3,2.452-7.78.953.3Zm4.9-15.562-.953-.3,2.452-7.781.953.3Zm4.9-15.562-.953-.3,2.451-7.781.953.3Zm4.9-15.562-.953-.3,2.451-7.781.953.3Zm4.9-15.562-.953-.3,2.452-7.782.953.3Zm4.9-15.563-.953-.3,2.452-7.781.953.3Zm4.9-15.562-.953-.3,2.451-7.781.953.3Zm4.9-15.562-.953-.3,2.451-7.781.953.3Z" fill="#1a1a1a"/>
      <path id="Trazado_104968" data-name="Trazado 104968" d="M245.054,2127.585l-4.289-1.367.3-.953,3.334,1.063,1.052-3.336.953.3Z" fill="#1a1a1a"/>
      <rect id="Rectángulo_5380" data-name="Rectángulo 5380" width="1.001" height="5.73" transform="matrix(0.304, -0.953, 0.953, 0.304, 229.846, 2122.737)" fill="#1a1a1a"/>
      <path id="Trazado_104969" data-name="Trazado 104969" d="M224.386,2121l-4.234-1.35.849-4.363.982.19-.679,3.49,3.387,1.08Z" fill="#1a1a1a"/>
      <path id="Trazado_104970" data-name="Trazado 104970" d="M223.529,2107.522l-.982-.191,1.547-7.952.982.191Zm3.094-15.9-.982-.192,1.547-7.952.982.191Zm3.094-15.9-.983-.192,1.547-7.951.983.191Zm3.094-15.9-.983-.191,1.547-7.952.982.192Zm3.093-15.9-.982-.191,1.547-7.952.982.191ZM239,2028l-.982-.191,1.547-7.952.982.192Zm3.094-15.9-.983-.191,1.547-7.952.983.191Zm3.094-15.9-.983-.191,1.547-7.952.982.191Zm3.093-15.9-.982-.192,1.547-7.951.982.191Zm3.094-15.9-.982-.191,1.547-7.952.982.192Zm3.094-15.9-.983-.19,1.546-7.952.983.191Zm3.093-15.9-.983-.191,1.547-7.952.982.192Zm3.093-15.9-.982-.191,1.547-7.952.982.191Zm3.094-15.9-.982-.191,1.547-7.952.982.192Zm3.094-15.9-.983-.191,1.547-7.952.983.191Zm3.094-15.9-.983-.191,1.547-7.952.982.191Zm3.093-15.9-.982-.192,1.547-7.951.982.191Zm3.094-15.9-.982-.19,1.547-7.953.982.192Zm3.094-15.9-.983-.191,1.547-7.952.983.191Zm3.094-15.9-.983-.191,1.547-7.952.982.191Z" fill="#1a1a1a"/>
      <path id="Trazado_104971" data-name="Trazado 104971" d="M285.4,1789.452l-.98-.191.163-.834.341-3.09.994.11-.348,3.13Z" fill="#1a1a1a"/>
    </g>
    <g id="Grupo_55312" data-name="Grupo 55312">
      <path id="Trazado_104972" data-name="Trazado 104972" d="M93.834,1561.361H91.8v-8.334h-2.06v-1.433l4.091-.362Z"/>
    </g>
    <g id="Grupo_55313" data-name="Grupo 55313">
      <path id="Trazado_104973" data-name="Trazado 104973" d="M96.157,1646.143H89.242v-1.328l3.277-3.513a7.923,7.923,0,0,0,1.008-1.374,2.222,2.222,0,0,0,.3-1.04,1.562,1.562,0,0,0-.345-1.047,1.209,1.209,0,0,0-.977-.407,1.26,1.26,0,0,0-1.067.477,2.021,2.021,0,0,0-.366,1.269H89.1l-.015-.041a3.069,3.069,0,0,1,.9-2.321,3.38,3.38,0,0,1,2.522-.949,3.518,3.518,0,0,1,2.459.813,2.8,2.8,0,0,1,.894,2.171,3.056,3.056,0,0,1-.5,1.694,16.729,16.729,0,0,1-1.666,2.035l-1.8,1.961.013.035h4.258Z"/>
    </g>
    <g id="Grupo_55314" data-name="Grupo 55314">
      <path id="Trazado_104974" data-name="Trazado 104974" d="M91.295,1725.086h1.141a1.386,1.386,0,0,0,1.071-.379,1.506,1.506,0,0,0,.348-1.054,1.376,1.376,0,0,0-.348-.981,1.327,1.327,0,0,0-1.009-.368,1.424,1.424,0,0,0-.96.334,1.1,1.1,0,0,0-.39.876H89.18l-.014-.041a2.3,2.3,0,0,1,.911-1.962,3.636,3.636,0,0,1,2.365-.772,3.891,3.891,0,0,1,2.508.751,2.588,2.588,0,0,1,.936,2.142,2.151,2.151,0,0,1-.417,1.256,2.776,2.776,0,0,1-1.149.929,2.581,2.581,0,0,1,1.285.918,2.426,2.426,0,0,1,.441,1.44,2.633,2.633,0,0,1-1.013,2.188,4.063,4.063,0,0,1-2.591.8,3.962,3.962,0,0,1-2.424-.748,2.39,2.39,0,0,1-.977-2.111l.014-.042h1.968a1.237,1.237,0,0,0,.417.959,1.724,1.724,0,0,0,2.167-.012,1.386,1.386,0,0,0,.408-1.055,1.525,1.525,0,0,0-.4-1.169,1.67,1.67,0,0,0-1.178-.371H91.295Z"/>
    </g>
    <g id="Grupo_55315" data-name="Grupo 55315">
      <path id="Trazado_104975" data-name="Trazado 104975" d="M95.2,1808.6h1.148v1.564H95.2v2.2H93.173v-2.2H89.041l-.091-1.217,4.2-6.713H95.2Zm-4.354,0h2.33v-3.653l-.042-.014-.16.286Z"/>
    </g>
    <g id="Grupo_55316" data-name="Grupo 55316">
      <path id="Trazado_104976" data-name="Trazado 104976" d="M89.5,1895.309l.584-5.642h5.648v1.628H91.747l-.278,2.337a2.406,2.406,0,0,1,.675-.344,3.169,3.169,0,0,1,3.14.741,3.664,3.664,0,0,1,.8,2.518,3.474,3.474,0,0,1-.88,2.428,3.256,3.256,0,0,1-2.536.967,3.809,3.809,0,0,1-2.393-.765,2.418,2.418,0,0,1-.96-2.1l.014-.035,1.954-.1A1.415,1.415,0,0,0,91.67,1898a1.361,1.361,0,0,0,1,.38,1.172,1.172,0,0,0,1.047-.5,2.331,2.331,0,0,0,.338-1.316,2.431,2.431,0,0,0-.363-1.4,1.212,1.212,0,0,0-1.071-.528,1.549,1.549,0,0,0-.893.216,1.178,1.178,0,0,0-.443.584Z"/>
    </g>
    <g id="Grupo_55317" data-name="Grupo 55317">
      <path id="Trazado_104977" data-name="Trazado 104977" d="M93.312,1967.478a4.911,4.911,0,0,1,1.054.107,5.6,5.6,0,0,1,.97.317l-.361,1.488a7.585,7.585,0,0,0-.818-.239,3.86,3.86,0,0,0-.831-.08,1.815,1.815,0,0,0-1.485.692,2.808,2.808,0,0,0-.519,1.917l.021.034a2.337,2.337,0,0,1,.863-.556,3.227,3.227,0,0,1,1.176-.2,2.57,2.57,0,0,1,2.125.963,3.824,3.824,0,0,1,.768,2.459,3.51,3.51,0,0,1-.949,2.526,3.25,3.25,0,0,1-2.46.994,3.4,3.4,0,0,1-2.615-1.088,4.266,4.266,0,0,1-1.009-3.016v-1.975a4.335,4.335,0,0,1,1.149-3.166A3.907,3.907,0,0,1,93.312,1967.478Zm-.466,5.015a2.31,2.31,0,0,0-.96.181,1.446,1.446,0,0,0-.613.493v.673a3.3,3.3,0,0,0,.435,1.847,1.336,1.336,0,0,0,1.158.646,1.158,1.158,0,0,0,1.006-.572,2.455,2.455,0,0,0,.379-1.386,2.243,2.243,0,0,0-.383-1.361A1.206,1.206,0,0,0,92.846,1972.493Z"/>
    </g>
    <g id="Grupo_55318" data-name="Grupo 55318">
      <path id="Trazado_104978" data-name="Trazado 104978" d="M197.966,1950.038v4.049h-2.031v-10.128h3.819a4.2,4.2,0,0,1,2.709.789,2.676,2.676,0,0,1,.977,2.2,2.23,2.23,0,0,1-.41,1.35,2.878,2.878,0,0,1-1.2.911,2.18,2.18,0,0,1,1.291.883,2.8,2.8,0,0,1,.393,1.531v.744a3.656,3.656,0,0,0,.115.887,1.214,1.214,0,0,0,.393.685v.146h-2.094a1.137,1.137,0,0,1-.361-.744,6.227,6.227,0,0,1-.084-.988v-.716a1.608,1.608,0,0,0-.415-1.18,1.56,1.56,0,0,0-1.165-.421Zm0-1.564h1.753a1.918,1.918,0,0,0,1.276-.362,1.339,1.339,0,0,0,.421-1.072,1.478,1.478,0,0,0-.421-1.106,1.71,1.71,0,0,0-1.241-.41h-1.788Z" fill="#95bb84"/>
      <path id="Trazado_104979" data-name="Trazado 104979" d="M204.873,1950.254a4.041,4.041,0,0,1,.94-2.758,3.273,3.273,0,0,1,2.6-1.075,3.307,3.307,0,0,1,2.615,1.072,4.014,4.014,0,0,1,.947,2.761v.146a4.025,4.025,0,0,1-.943,2.765,3.721,3.721,0,0,1-5.218,0,4.029,4.029,0,0,1-.942-2.765Zm2.024.143a3.27,3.27,0,0,0,.363,1.65,1.39,1.39,0,0,0,2.319,0,3.237,3.237,0,0,0,.365-1.646v-.146a3.216,3.216,0,0,0-.368-1.632,1.248,1.248,0,0,0-1.162-.632,1.232,1.232,0,0,0-1.151.635,3.247,3.247,0,0,0-.366,1.629Z" fill="#95bb84"/>
      <path id="Trazado_104980" data-name="Trazado 104980" d="M212.915,1950.387a4.892,4.892,0,0,1,.769-2.873,2.5,2.5,0,0,1,2.167-1.093,2.1,2.1,0,0,1,1.015.244,2.424,2.424,0,0,1,.793.695v-4.125H219.7v10.852h-1.746l-.167-.918a2.494,2.494,0,0,1-.839.793,2.226,2.226,0,0,1-1.109.271,2.544,2.544,0,0,1-2.153-1.015,4.341,4.341,0,0,1-.769-2.685Zm2.024.147a3.106,3.106,0,0,0,.334,1.564,1.161,1.161,0,0,0,1.085.57,1.573,1.573,0,0,0,.766-.178,1.413,1.413,0,0,0,.535-.521v-3.227a1.554,1.554,0,0,0-.532-.556,1.4,1.4,0,0,0-.754-.2,1.145,1.145,0,0,0-1.089.664,3.786,3.786,0,0,0-.345,1.736Z" fill="#95bb84"/>
      <path id="Trazado_104981" data-name="Trazado 104981" d="M223.4,1944.759h-2.031v-1.524H223.4Zm0,9.328h-2.031v-7.527H223.4Z" fill="#95bb84"/>
      <path id="Trazado_104982" data-name="Trazado 104982" d="M227.211,1954.087H225.18v-10.852h2.031Z" fill="#95bb84"/>
      <path id="Trazado_104983" data-name="Trazado 104983" d="M231.016,1954.087h-2.032v-10.852h2.032Z" fill="#95bb84"/>
      <path id="Trazado_104984" data-name="Trazado 104984" d="M237.1,1954.087a4.225,4.225,0,0,1-.192-.542,3.69,3.69,0,0,1-.114-.585,2.792,2.792,0,0,1-.824.911,2.055,2.055,0,0,1-1.222.362,2.539,2.539,0,0,1-1.822-.608,2.18,2.18,0,0,1-.64-1.659,1.985,1.985,0,0,1,.852-1.715,4.254,4.254,0,0,1,2.487-.609h1.134v-.6a1.173,1.173,0,0,0-.285-.842,1.332,1.332,0,0,0-1.6-.059.846.846,0,0,0-.268.664l-1.961-.007-.007-.041a1.909,1.909,0,0,1,.828-1.645,3.6,3.6,0,0,1,2.3-.693,3.364,3.364,0,0,1,2.191.685,2.372,2.372,0,0,1,.842,1.952v3.109a5.915,5.915,0,0,0,.08.995,5.031,5.031,0,0,0,.254.925Zm-1.858-1.356a1.743,1.743,0,0,0,.953-.264,1.382,1.382,0,0,0,.564-.613v-1.064h-1.134a1.354,1.354,0,0,0-.981.324,1.05,1.05,0,0,0-.334.782.782.782,0,0,0,.25.6A.972.972,0,0,0,235.245,1952.731Z" fill="#95bb84"/>
    </g>
    <g id="Grupo_55319" data-name="Grupo 55319">
      <path id="Trazado_104985" data-name="Trazado 104985" d="M329.753,1711.854l.015.042a3.3,3.3,0,0,1-1,2.595,4.006,4.006,0,0,1-2.849.96,3.951,3.951,0,0,1-2.97-1.176,4.162,4.162,0,0,1-1.141-3.026v-2.01a4.237,4.237,0,0,1,1.113-3.026,3.791,3.791,0,0,1,2.894-1.183,4.2,4.2,0,0,1,2.936.964,3.3,3.3,0,0,1,1.029,2.626l-.013.041h-1.976a2.218,2.218,0,0,0-.48-1.534,1.919,1.919,0,0,0-1.5-.532,1.7,1.7,0,0,0-1.447.74,3.142,3.142,0,0,0-.536,1.887v2.023a3.053,3.053,0,0,0,.563,1.9,1.815,1.815,0,0,0,1.524.741,1.793,1.793,0,0,0,1.409-.512,2.22,2.22,0,0,0,.455-1.52Z" fill="#95bb84"/>
      <path id="Trazado_104986" data-name="Trazado 104986" d="M333.183,1705.976h-2.032v-1.523h2.032Zm0,9.329h-2.032v-7.527h2.032Z" fill="#95bb84"/>
      <path id="Trazado_104987" data-name="Trazado 104987" d="M336.71,1707.778l.09,1.078a2.762,2.762,0,0,1,.926-.9,2.4,2.4,0,0,1,1.231-.319,2.261,2.261,0,0,1,1.78.716,3.308,3.308,0,0,1,.641,2.247v4.7h-2.039V1710.6a1.53,1.53,0,0,0-.306-1.077,1.227,1.227,0,0,0-.925-.317,1.564,1.564,0,0,0-.723.164,1.481,1.481,0,0,0-.536.463v5.474h-2.032v-7.527Z" fill="#95bb84"/>
      <path id="Trazado_104988" data-name="Trazado 104988" d="M345.309,1705.934v1.844h1.265v1.426h-1.265v3.833a.885.885,0,0,0,.18.626.643.643,0,0,0,.487.187,1.826,1.826,0,0,0,.275-.017,2.274,2.274,0,0,0,.268-.059l.173,1.468a4.034,4.034,0,0,1-.6.156,3.6,3.6,0,0,1-.634.053,2.164,2.164,0,0,1-1.617-.578,2.532,2.532,0,0,1-.567-1.829v-3.84h-1.1v-1.426h1.1v-1.844Z" fill="#95bb84"/>
      <path id="Trazado_104989" data-name="Trazado 104989" d="M352.466,1714.22a2.542,2.542,0,0,1-.883.911,2.606,2.606,0,0,1-3.093-.442,3.519,3.519,0,0,1-.671-2.369v-4.542h2.025v4.567a1.956,1.956,0,0,0,.278,1.181.974.974,0,0,0,.82.36,2.007,2.007,0,0,0,.835-.158,1.4,1.4,0,0,0,.571-.463v-5.487h2.031v7.527h-1.732Z" fill="#95bb84"/>
      <path id="Trazado_104990" data-name="Trazado 104990" d="M359.867,1709.524l-.744-.021a1.341,1.341,0,0,0-.744.188,1.177,1.177,0,0,0-.445.529v5.085h-2.025v-7.527h1.885l.091,1.113a2.36,2.36,0,0,1,.685-.922,1.607,1.607,0,0,1,1.252-.306c.086.016.173.036.261.059Z" fill="#95bb84"/>
      <path id="Trazado_104991" data-name="Trazado 104991" d="M365.314,1715.305a4.449,4.449,0,0,1-.191-.543,3.679,3.679,0,0,1-.114-.584,2.813,2.813,0,0,1-.824.911,2.062,2.062,0,0,1-1.222.362,2.539,2.539,0,0,1-1.822-.609,2.18,2.18,0,0,1-.64-1.659,1.986,1.986,0,0,1,.852-1.715,4.254,4.254,0,0,1,2.487-.609h1.134v-.6a1.169,1.169,0,0,0-.286-.842,1.331,1.331,0,0,0-1.6-.059.846.846,0,0,0-.268.665l-1.962-.008-.006-.041a1.908,1.908,0,0,1,.828-1.645,3.607,3.607,0,0,1,2.3-.692,3.358,3.358,0,0,1,2.191.685,2.373,2.373,0,0,1,.842,1.951v3.11a5.9,5.9,0,0,0,.08.994,5.063,5.063,0,0,0,.254.926Zm-1.857-1.357a1.744,1.744,0,0,0,.953-.264,1.38,1.38,0,0,0,.564-.612v-1.065H363.84a1.354,1.354,0,0,0-.981.324,1.049,1.049,0,0,0-.334.782.784.784,0,0,0,.25.606A.977.977,0,0,0,363.457,1713.948Z" fill="#95bb84"/>
    </g>
    <g id="Grupo_55320" data-name="Grupo 55320">
      <path id="Trazado_104992" data-name="Trazado 104992" d="M96.129,2055.8a11.9,11.9,0,0,0-2.223,3.555,17.486,17.486,0,0,0-.851,3.979l-.1,1.03H90.926l.1-1.03a14.621,14.621,0,0,1,1.016-4.1,12.688,12.688,0,0,1,2.136-3.433h-5.2v-1.565h7.158Z"/>
    </g>
    <g id="Grupo_55321" data-name="Grupo 55321">
      <path id="Trazado_104993" data-name="Trazado 104993" d="M95.858,2138.657a2.315,2.315,0,0,1-.4,1.342,2.666,2.666,0,0,1-1.1.912,2.969,2.969,0,0,1,1.273.973,2.379,2.379,0,0,1,.467,1.447,2.6,2.6,0,0,1-.953,2.16,4.513,4.513,0,0,1-5,0,2.589,2.589,0,0,1-.957-2.16,2.386,2.386,0,0,1,.462-1.45,3.006,3.006,0,0,1,1.277-.977,2.652,2.652,0,0,1-1.107-.909,2.323,2.323,0,0,1-.4-1.338,2.579,2.579,0,0,1,.884-2.091,4.04,4.04,0,0,1,4.661,0A2.568,2.568,0,0,1,95.858,2138.657Zm-1.795,4.532a1.5,1.5,0,0,0-.4-1.09,1.37,1.37,0,0,0-1.03-.409,1.342,1.342,0,0,0-1.026.409,1.525,1.525,0,0,0-.386,1.09,1.5,1.5,0,0,0,.389,1.093,1.384,1.384,0,0,0,1.037.4,1.358,1.358,0,0,0,1.023-.4A1.5,1.5,0,0,0,94.063,2143.189Zm-.229-4.442a1.445,1.445,0,0,0-.324-.984,1.1,1.1,0,0,0-.873-.373,1.082,1.082,0,0,0-.869.366,1.469,1.469,0,0,0-.314.991,1.5,1.5,0,0,0,.317,1,1.093,1.093,0,0,0,.88.372,1.079,1.079,0,0,0,.867-.372A1.5,1.5,0,0,0,93.834,2138.747Z"/>
    </g>
  </g>
</svg>
