<svg xmlns="http://www.w3.org/2000/svg" width="534.839" height="325.231" viewBox="0 0 534.839 325.231">
  <g id="Grupo_55952" data-name="Grupo 55952" transform="translate(-550.212 -8723.237)">
    <g id="Grupo_55951" data-name="Grupo 55951" transform="translate(550.212 8723.237)">
      <g id="Grupo_55830" data-name="Grupo 55830" transform="translate(0 0)">
        <ellipse id="Elipse_4047" data-name="Elipse 4047" cx="45.126" cy="17.2" rx="45.126" ry="17.2" transform="translate(10.438 290.831)" fill="#efd0bc"/>
        <g id="Grupo_55829" data-name="Grupo 55829">
          <path id="Trazado_107062" data-name="Trazado 107062" d="M653.984,8767.255c-1.663-12.156-5.91-24.951-14.908-31.464a17.574,17.574,0,0,0-20.292.09c-8.884,6.55-11.223,16.9-13.251,27.2-.891,4.524-1.782,9.051-2.507,13.608-.542,3.4-.976,6.982.2,10.224,2.56,7.07,12.714,7.545,18.923,8.072a102.812,102.812,0,0,0,18.777-.123c4.67-.46,10.569-.594,12.786-5.545a17.338,17.338,0,0,0,1.148-6.762A99.238,99.238,0,0,0,653.984,8767.255Z" transform="translate(-575.806 -8732.611)" fill="#4c2016"/>
          <g id="Grupo_55775" data-name="Grupo 55775" transform="translate(47.442 148.991)">
            <path id="Trazado_107063" data-name="Trazado 107063" d="M660.876,9079.761a2.16,2.16,0,0,1-1.785,1.64,6.314,6.314,0,0,1-2.56-.19q-7.828-1.671-15.655-3.349l-.461-.1-3.508-.75c-1.642-.351-3.47-.83-4.321-2.279a4.855,4.855,0,0,1-.449-2.982c.036-.356.085-.71.138-1.055l.058-.386c.646-4.1,1.771-8.45,1.87-12.577a59.555,59.555,0,0,0-1.106-11.851c-1.634-8.973-4.624-17.832-4.306-26.945.3-8.626,3.552-16.854,4.976-25.367,1.645-9.841.831-19.907.01-29.852q-.71-8.618-1.42-17.234-.544-6.579-1.086-13.162c-.4-4.893,1.851-8.107,6.2-10.38s9.629-2.086,14.352-.748c3.688,1.046,7.435,2.991,9.106,6.441,1.31,2.706,1.125,5.868.892,8.864A621.425,621.425,0,0,1,653,9004.716q-3.495,18.567-6.987,37.13c-.554,2.947-1.1,5.9-1.473,8.878-.378,3.02-.6,6.14-.708,9.174-.088,2.584,1.691,4.867,3.142,6.912a39,39,0,0,0,2.518,3.19,39.4,39.4,0,0,0,4.554,4.427C655.266,9075.435,661.1,9078.233,660.876,9079.761Z" transform="translate(-628.769 -8921.204)" fill="#f59883"/>
          </g>
          <g id="Grupo_55776" data-name="Grupo 55776" transform="translate(22.352 38.577)">
            <path id="Trazado_107064" data-name="Trazado 107064" d="M654.26,8888.978c1.291,6.241,1.8,12.819-.049,18.915a20.316,20.316,0,0,1-9.626,12.181c-4.562,2.387-8.783,5.228-13.891,6.534-8.853,2.263-20.113,2.346-26.483-5.13a30.464,30.464,0,0,1-6.021-13.076c-2-8.7-1.246-16.652.658-24.536.829-3.439,1.879-6.865,3.013-10.333.725-2.211,1.484-4.44,2.243-6.7,2.677-7.969,5.389-16.4,3.7-24.631-1.184-5.772-4.431-10.871-6.814-16.264-1.974-4.468-4.088-10.933-2-15.744,1.737-4.01,6.592-5.956,10.412-7.426,7.726-2.974,13.465-3.624,15.1-12.514a18.293,18.293,0,0,0-.4-8.452c.211.657,3.632.137,4.113.1,2.014-.161,4.14-.109,6.1-.458a37.672,37.672,0,0,0-.769,9.106c.449,6.651,4.65,9.937,10.908,11.7,5.495,1.551,12.847,3.582,14.161,10.083,1.467,7.262-7.846,14.046-10.2,20.705-3.083,8.729-2.359,17.669-1.654,26.9.325,4.242,2.955,10.875,3.972,14.954.717,2.876,1.511,5.733,2.241,8.606C653.441,8885.316,653.88,8887.139,654.26,8888.978Z" transform="translate(-597.01 -8781.442)" fill="#f59883"/>
          </g>
          <g id="Grupo_55777" data-name="Grupo 55777" transform="translate(23.394 151.393)">
            <path id="Trazado_107065" data-name="Trazado 107065" d="M641.229,9085.161q-9.807-1.835-19.539-4.046a4.747,4.747,0,0,1-2.568-1.168c-1.16-1.274-.626-3.274-.153-4.934.169-.591.318-1.185.446-1.777,1.752-7.976.1-16.02-2.495-23.663-2.927-8.638-7.181-16.965-8.2-26.028-.962-8.576,1.049-17.191,1.212-25.819.19-9.978-2.088-19.815-4.353-29.533l-6.923-29.706c-1.115-4.779.645-8.29,4.618-11.172s9.221-3.471,14.089-2.841c3.8.5,7.793,1.871,9.949,5.042,1.692,2.485,1.97,5.637,2.179,8.638a621.561,621.561,0,0,1,1.1,67.785q-.743,18.877-1.483,37.754c-.148,3.768.115,7.613.043,11.391a58.562,58.562,0,0,0-.009,8.227,20.637,20.637,0,0,0,2.283,7.4,23.653,23.653,0,0,0,3.753,5.141,40.452,40.452,0,0,0,6.477,5.4C644.176,9082.98,645.747,9086.01,641.229,9085.161Z" transform="translate(-598.329 -8924.245)" fill="#f59883"/>
          </g>
          <g id="Grupo_55778" data-name="Grupo 55778" transform="translate(49.445 38.577)">
            <path id="Trazado_107066" data-name="Trazado 107066" d="M641.519,8781.442a37.631,37.631,0,0,0-.769,9.106c-.454.1-.914.179-1.372.243a17.069,17.069,0,0,1-7.676-.538,18.314,18.314,0,0,0-.4-8.452c.21.657,3.632.137,4.112.1C637.431,8781.739,639.557,8781.791,641.519,8781.442Z" transform="translate(-631.305 -8781.442)" fill="#f0836e"/>
          </g>
          <g id="Grupo_55779" data-name="Grupo 55779" transform="translate(35.663 25.738)">
            <ellipse id="Elipse_4048" data-name="Elipse 4048" cx="2.978" cy="3.588" rx="2.978" ry="3.588" transform="translate(0 0.974) rotate(-9.407)" fill="#f0836e"/>
          </g>
          <g id="Grupo_55780" data-name="Grupo 55780" transform="translate(66.621 25.975)">
            <path id="Trazado_107067" data-name="Trazado 107067" d="M653.1,8768.579c-.324,1.953.728,3.758,2.352,4.025s3.2-1.1,3.524-3.052-.728-3.76-2.351-4.029S653.428,8766.624,653.1,8768.579Z" transform="translate(-653.046 -8765.49)" fill="#f0836e"/>
          </g>
          <g id="Grupo_55781" data-name="Grupo 55781" transform="translate(38.529 6.353)">
            <path id="Trazado_107068" data-name="Trazado 107068" d="M649.175,8760.58c-.085,9.239-7.695,19.925-15.844,19.925-7.865,0-15.814-11.334-15.844-19.925-.039-11,7.094-19.927,15.844-19.927S649.275,8749.576,649.175,8760.58Z" transform="translate(-617.487 -8740.653)" fill="#f59883"/>
          </g>
          <g id="Grupo_55782" data-name="Grupo 55782" transform="translate(51.865 26.636)">
            <path id="Trazado_107069" data-name="Trazado 107069" d="M636.721,8774.664c-5.005,0-.555-8.327,0-8.338C637.3,8766.314,641.884,8774.664,636.721,8774.664Z" transform="translate(-634.367 -8766.326)" fill="#f0836e"/>
          </g>
          <g id="Grupo_55784" data-name="Grupo 55784" transform="translate(41.311 19.63)">
            <g id="Grupo_55783" data-name="Grupo 55783">
              <path id="Trazado_107070" data-name="Trazado 107070" d="M630.806,8760.338a1.313,1.313,0,0,1-.57-.158,24.625,24.625,0,0,0-3.229-1.3,7.042,7.042,0,0,0-3.192-.267,4.406,4.406,0,0,0-1.286.455c-.4.218-.735.545-1.133.763a.343.343,0,0,1-.214.061c-.156-.023-.186-.152-.17-.308.021-.209.156-.3.29-.419a6.6,6.6,0,0,1,1.034-.76,7.389,7.389,0,0,1,4.568-.9,11.825,11.825,0,0,1,4.033,1.275c.542.274.506,1.509-.115,1.554Z" transform="translate(-621.008 -8757.458)" fill="#4c2016"/>
            </g>
          </g>
          <g id="Grupo_55786" data-name="Grupo 55786" transform="translate(56.956 19.63)">
            <g id="Grupo_55785" data-name="Grupo 55785">
              <path id="Trazado_107071" data-name="Trazado 107071" d="M641.323,8760.338a1.31,1.31,0,0,0,.57-.158,24.6,24.6,0,0,1,3.23-1.3,7.052,7.052,0,0,1,3.191-.267,4.418,4.418,0,0,1,1.287.455c.4.218.734.547,1.132.763a.339.339,0,0,0,.214.061c.157-.023.186-.151.171-.308-.022-.209-.156-.3-.29-.419a6.54,6.54,0,0,0-1.034-.758,7.379,7.379,0,0,0-4.568-.9,11.836,11.836,0,0,0-4.034,1.275c-.542.274-.506,1.509.115,1.554Z" transform="translate(-640.812 -8757.458)" fill="#4c2016"/>
            </g>
          </g>
          <g id="Grupo_55787" data-name="Grupo 55787" transform="translate(38.028 23.416)">
            <path id="Trazado_107072" data-name="Trazado 107072" d="M616.853,8762.251" transform="translate(-616.853 -8762.251)" fill="#835c3e"/>
          </g>
          <g id="Grupo_55788" data-name="Grupo 55788" transform="translate(49.071 37.151)">
            <path id="Trazado_107073" data-name="Trazado 107073" d="M641.122,8780.045a4.772,4.772,0,0,1-.623.075,5.793,5.793,0,0,1-.938-.027,5.534,5.534,0,0,1-1.24-.261,2.6,2.6,0,0,0-1.87-.036.391.391,0,0,1-.753,0,2.591,2.591,0,0,0-1.87.036,5.543,5.543,0,0,1-1.239.261,5.794,5.794,0,0,1-.939.027,4.913,4.913,0,0,1-.623-.075.154.154,0,0,0-.187.194h0a2.518,2.518,0,0,0,.164.328,4.984,4.984,0,0,0,.516.751,5.9,5.9,0,0,0,1.218,1.094,6.261,6.261,0,0,0,3.275,1.08v.006l.06,0,.06,0v-.006a6.253,6.253,0,0,0,3.276-1.08,5.9,5.9,0,0,0,1.217-1.094,4.913,4.913,0,0,0,.515-.751,2.427,2.427,0,0,0,.165-.328h0A.155.155,0,0,0,641.122,8780.045Z" transform="translate(-630.831 -8779.636)" fill="#ef4c44"/>
          </g>
          <g id="Grupo_55790" data-name="Grupo 55790" transform="translate(42.439 24.808)">
            <g id="Grupo_55789" data-name="Grupo 55789">
              <path id="Trazado_107074" data-name="Trazado 107074" d="M622.44,8765.316c-.1,1.19,1.757,2.891,3.591,3.05s3.665-.686,4.074-1.8c.32-.874-1.865-2.351-3.7-2.508S622.543,8764.128,622.44,8765.316Z" transform="translate(-622.436 -8764.014)" fill="#fff"/>
            </g>
          </g>
          <g id="Grupo_55795" data-name="Grupo 55795" transform="translate(43.818 23.547)">
            <g id="Grupo_55792" data-name="Grupo 55792" transform="translate(0 0)">
              <g id="Grupo_55791" data-name="Grupo 55791" transform="translate(0)">
                <circle id="Elipse_4049" data-name="Elipse 4049" cx="2.309" cy="2.309" r="2.309" transform="matrix(0.992, -0.126, 0.126, 0.992, 0, 0.582)" fill="#87c1c0"/>
              </g>
            </g>
            <g id="Grupo_55794" data-name="Grupo 55794" transform="translate(1.356 1.354)">
              <g id="Grupo_55793" data-name="Grupo 55793">
                <path id="Trazado_107075" data-name="Trazado 107075" d="M625.9,8765.25a1.225,1.225,0,1,0,1.326-1.114A1.226,1.226,0,0,0,625.9,8765.25Z" transform="translate(-625.899 -8764.131)" fill="#161619"/>
              </g>
            </g>
          </g>
          <g id="Grupo_55796" data-name="Grupo 55796" transform="translate(42.272 23.145)">
            <path id="Trazado_107076" data-name="Trazado 107076" d="M626.516,8761.922a4.04,4.04,0,0,0-4.291,2.885l.117-.044c.092-.034.184-.068.274-.108.045-.021.09-.043.134-.066a.509.509,0,0,0,.055-.036,6.6,6.6,0,0,1,.838-.585,1.791,1.791,0,0,1,.724-.2,4.289,4.289,0,0,1,4.35.566,7.146,7.146,0,0,1,1.451,2.23,2.513,2.513,0,0,0,.034-.25A3.972,3.972,0,0,0,626.516,8761.922Z" transform="translate(-622.225 -8761.908)" fill="#f0836e"/>
          </g>
          <g id="Grupo_55797" data-name="Grupo 55797" transform="translate(40.604 24.159)">
            <path id="Trazado_107077" data-name="Trazado 107077" d="M629.716,8766.755a3.678,3.678,0,0,1-.089-.518,3.959,3.959,0,0,0-.181-.573,3.615,3.615,0,0,0-.6-1,4.337,4.337,0,0,0-2.156-1.332,4.424,4.424,0,0,0-3.1.328c-.57.289-1.07.7-1.638.993a2.3,2.3,0,0,1-1.844.234,2.639,2.639,0,0,0,2.014.376,16.542,16.542,0,0,0,2.2-.985,4.485,4.485,0,0,1,5.153,1.989A4.846,4.846,0,0,1,629.716,8766.755Z" transform="translate(-620.113 -8763.192)" fill="#161619"/>
          </g>
          <g id="Grupo_55799" data-name="Grupo 55799" transform="translate(58.358 24.808)">
            <g id="Grupo_55798" data-name="Grupo 55798">
              <path id="Trazado_107078" data-name="Trazado 107078" d="M650.282,8765.318c.1,1.188-1.757,2.889-3.591,3.048s-3.666-.686-4.074-1.8c-.321-.874,1.865-2.351,3.7-2.508S650.178,8764.128,650.282,8765.318Z" transform="translate(-642.586 -8764.014)" fill="#fff"/>
            </g>
          </g>
          <g id="Grupo_55804" data-name="Grupo 55804" transform="translate(59.926 23.883)">
            <g id="Grupo_55801" data-name="Grupo 55801">
              <g id="Grupo_55800" data-name="Grupo 55800">
                <path id="Trazado_107079" data-name="Trazado 107079" d="M649.179,8764.951a2.308,2.308,0,1,1-2.5-2.1A2.306,2.306,0,0,1,649.179,8764.951Z" transform="translate(-644.571 -8762.842)" fill="#87c1c0"/>
              </g>
            </g>
            <g id="Grupo_55803" data-name="Grupo 55803" transform="translate(1.084 1.084)">
              <g id="Grupo_55802" data-name="Grupo 55802">
                <path id="Trazado_107080" data-name="Trazado 107080" d="M648.388,8765.332a1.225,1.225,0,1,1-1.326-1.113A1.226,1.226,0,0,1,648.388,8765.332Z" transform="translate(-645.943 -8764.214)" fill="#161619"/>
              </g>
            </g>
          </g>
          <g id="Grupo_55805" data-name="Grupo 55805" transform="translate(58.232 23.146)">
            <path id="Trazado_107081" data-name="Trazado 107081" d="M646.129,8761.923a4.04,4.04,0,0,1,4.291,2.884c-.043-.017-.095-.035-.117-.042-.092-.036-.185-.07-.274-.11-.045-.021-.09-.042-.134-.066a.363.363,0,0,1-.055-.036,6.75,6.75,0,0,0-.838-.585,1.808,1.808,0,0,0-.724-.2,4.287,4.287,0,0,0-4.351.567,7.134,7.134,0,0,0-1.451,2.229,2.49,2.49,0,0,1-.035-.25A3.972,3.972,0,0,1,646.129,8761.923Z" transform="translate(-642.427 -8761.909)" fill="#f0836e"/>
          </g>
          <g id="Grupo_55806" data-name="Grupo 55806" transform="translate(58.29 24.159)">
            <path id="Trazado_107082" data-name="Trazado 107082" d="M642.5,8766.755a3.651,3.651,0,0,0,.088-.518,4.057,4.057,0,0,1,.18-.573,3.6,3.6,0,0,1,.6-.994,4.315,4.315,0,0,1,2.156-1.335,4.421,4.421,0,0,1,3.1.328c.57.289,1.071.7,1.639.993a2.3,2.3,0,0,0,1.844.234,2.64,2.64,0,0,1-2.014.376,16.536,16.536,0,0,1-2.2-.985,4.485,4.485,0,0,0-5.153,1.989A4.835,4.835,0,0,0,642.5,8766.755Z" transform="translate(-642.501 -8763.192)" fill="#161619"/>
          </g>
          <g id="Grupo_55816" data-name="Grupo 55816" transform="translate(70.522 63.835)">
            <g id="Grupo_55807" data-name="Grupo 55807">
              <path id="Trazado_107083" data-name="Trazado 107083" d="M677.976,8869.826q-.932-3.652-1.636-7.354c-1.216-6.4-2.782-13.223-2.744-19.729a134.968,134.968,0,0,0-1.03-19.313c-.51-3.679-1.551-9.708-6.507-10.008a7.465,7.465,0,0,0-6.714,4.248,16.615,16.615,0,0,0-1.354,7.96,83.429,83.429,0,0,0,2.64,19.624c1.572,5.979,1.749,12.3,3.4,18.338a114.238,114.238,0,0,0,7.4,19.59c1.541,3.181,3.248,6.275,5.028,9.338,1.589,2.732,3.271,4.932,3.121,8.26a14.744,14.744,0,0,0,8.05.921,2.044,2.044,0,0,0,1.618-3.52A127.93,127.93,0,0,1,677.976,8869.826Z" transform="translate(-657.984 -8813.412)" fill="#f59883"/>
            </g>
            <g id="Grupo_55815" data-name="Grupo 55815" transform="translate(20.322 81.296)">
              <g id="Grupo_55808" data-name="Grupo 55808" transform="translate(13.325 8.524)">
                <path id="Trazado_107084" data-name="Trazado 107084" d="M707.469,8936.316a.919.919,0,0,1,.043.5c-.121.409-.759.473-1.116.217a2.264,2.264,0,0,1-.666-1.089,10.628,10.628,0,0,0-2.353-3.58,16.675,16.675,0,0,1-2.23-2.3,2.646,2.646,0,0,1-.207-2.954A17.308,17.308,0,0,1,707.469,8936.316Z" transform="translate(-700.574 -8927.108)" fill="#f59883"/>
              </g>
              <g id="Grupo_55809" data-name="Grupo 55809" transform="translate(1.702)">
                <path id="Trazado_107085" data-name="Trazado 107085" d="M687.86,8926.866a8.8,8.8,0,0,1-1.878-3.113,5.7,5.7,0,0,1,.423-3.479c.47-1.166,1.4-3.113,2.571-3.719,1.108-.577,2.741,0,3.655.658,2.172,1.563,3.52,4.472,5.024,6.589a24.405,24.405,0,0,1,3.623,7.623c.615,2.224,1.088,4.506.292,6.737a5.279,5.279,0,0,1-1.333,2.1c-.3.276-.356.317-.426.684a3.746,3.746,0,0,1-.088.716,1.594,1.594,0,0,1-.739.816c-.785.417-1.563-.383-1.887-.992-.265-.5-.161-.646-.811-.757a1.723,1.723,0,0,1-1.25-.673,11.381,11.381,0,0,1-1.528-3.361A39.279,39.279,0,0,0,687.86,8926.866Z" transform="translate(-685.862 -8916.319)" fill="#f59883"/>
              </g>
              <g id="Grupo_55810" data-name="Grupo 55810" transform="translate(0 2.476)">
                <path id="Trazado_107086" data-name="Trazado 107086" d="M687.523,8929.567c.518-1.219,1.507-2.2,2.138-3.372a6.5,6.5,0,0,0,.61-4.563c-.237-1-.9-2.076-1.973-2.173a2.811,2.811,0,0,0-2.305,1.386,9.7,9.7,0,0,0-1.808,7.2c.213,1.38.719,2.836.144,4.117a12.23,12.23,0,0,0-.551,1.1,1.023,1.023,0,0,0,.236,1.13,1.23,1.23,0,0,0,1.373-.1C686.9,8933.3,686.833,8931.191,687.523,8929.567Z" transform="translate(-683.708 -8919.452)" fill="#f59883"/>
              </g>
              <g id="Grupo_55812" data-name="Grupo 55812" transform="translate(12.774 13.299)">
                <g id="Grupo_55811" data-name="Grupo 55811">
                  <path id="Trazado_107087" data-name="Trazado 107087" d="M702.85,8944.225h-.162a23.559,23.559,0,0,0-2.811-11l.144-.069A23.709,23.709,0,0,1,702.85,8944.225Z" transform="translate(-699.877 -8933.153)" fill="#f0836e"/>
                </g>
              </g>
              <g id="Grupo_55814" data-name="Grupo 55814" transform="translate(9.255 13.92)">
                <g id="Grupo_55813" data-name="Grupo 55813">
                  <path id="Trazado_107088" data-name="Trazado 107088" d="M698.987,8944.751l-.194-.142.021-.027-.018,0A38.241,38.241,0,0,0,695.423,8934l.147-.062a38.346,38.346,0,0,1,3.387,10.623Z" transform="translate(-695.423 -8933.938)" fill="#f0836e"/>
                </g>
              </g>
            </g>
          </g>
          <path id="Trazado_107089" data-name="Trazado 107089" d="M654.048,8842.547v0a10.431,10.431,0,0,1-.792,2.6,12.667,12.667,0,0,1-5.01,5.532c-2.422,1.472-5.836.94-8.905-.173a22.624,22.624,0,0,0-14.784-.192c-5.055,1.662-10.129.707-15.22-.393-.36-.079-.38.179-.713-.079-.231-.179-.419-.911-.547-1.187q-.5-1.072-1.008-2.149-1.014-2.165-2.03-4.329c-.025-.055-.051-.11-.077-.163,0,.009.02.013.044.011a12.758,12.758,0,0,0,2.036-1c.11-.064.189-.11.219-.13a8.511,8.511,0,0,0,1.735-1.91c.1-.129.2-.262.3-.391,2.032-2.615,4.095-5.395,7.417-6.283a12.792,12.792,0,0,1,10.041,1.757,12.935,12.935,0,0,1,4.289,4.439,1.289,1.289,0,0,0,2.219.027,12.914,12.914,0,0,1,4.336-4.259c5.47-3.327,12.287-2.353,15.227,2.176A8.534,8.534,0,0,1,654.048,8842.547Z" transform="translate(-576.328 -8753.469)" fill="#c0dee1"/>
          <path id="Trazado_107090" data-name="Trazado 107090" d="M653.256,8847.565a12.682,12.682,0,0,1-5.01,5.532c-2.422,1.473-5.836.94-8.905-.173a22.642,22.642,0,0,0-14.784-.193c-5.055,1.663-10.129.708-15.22-.392-.36-.079-.38.179-.713-.079-.231-.179-.419-.911-.547-1.186q-.5-1.075-1.008-2.15l-2.03-4.329c-.025-.054-.051-.11-.077-.163,0,.01.02.013.044.011a12.824,12.824,0,0,0,2.036-.994,36.986,36.986,0,0,0,6.623,4.234c4.266,2.055,9.312,2.937,13.769,1.337,1.8-.648,3.543-1.7,5.455-1.628,1.792.062,3.377,1.095,5.015,1.821a15.614,15.614,0,0,0,11.428.434A15.317,15.317,0,0,0,653.256,8847.565Z" transform="translate(-576.328 -8755.887)" fill="#86bec4"/>
          <g id="Grupo_55826" data-name="Grupo 55826" transform="translate(0 63.107)">
            <g id="Grupo_55817" data-name="Grupo 55817" transform="translate(9.319)">
              <path id="Trazado_107091" data-name="Trazado 107091" d="M594.179,8863.347a141.581,141.581,0,0,1,4.652-16.447c1.763-4.884,9.422-19.621,9.963-22.653a11.37,11.37,0,0,0-1.687-8.815c-1.856-2.458-5.408-3.733-8.183-2.4-1.9.912-3.119,2.795-4.159,4.628-5.131,9.047-8.271,19.118-10.205,29.338-3.079,16.264-4.836,32.844-3.7,49.408.19,2.767,1.018,6.2,3.739,6.744a4.449,4.449,0,0,0,4.354-2.221c1.452-2.271.869-5.635,1.018-8.228q.29-5.041.872-10.058a175.656,175.656,0,0,1,3.168-18.571C594.068,8863.828,594.123,8863.589,594.179,8863.347Z" transform="translate(-580.513 -8812.492)" fill="#f59883"/>
            </g>
            <g id="Grupo_55825" data-name="Grupo 55825" transform="translate(0 75.291)">
              <g id="Grupo_55818" data-name="Grupo 55818" transform="translate(0 17.521)">
                <path id="Trazado_107092" data-name="Trazado 107092" d="M568.792,8939.677a1.036,1.036,0,0,0-.058.538c.111.444.762.533,1.135.269a2.438,2.438,0,0,0,.715-1.149,11.481,11.481,0,0,1,2.52-3.779,17.485,17.485,0,0,0,2.354-2.41,2.963,2.963,0,0,0,.3-3.17A18.6,18.6,0,0,0,568.792,8939.677Z" transform="translate(-568.717 -8929.975)" fill="#f59883"/>
              </g>
              <g id="Grupo_55819" data-name="Grupo 55819" transform="translate(2.97)">
                <path id="Trazado_107093" data-name="Trazado 107093" d="M586.756,8927.2a10.975,10.975,0,0,0,1.638-2.668,7.691,7.691,0,0,0,.156-3.32,50.6,50.6,0,0,1-.186-6.554c.027-1.144.074-2.288.1-3.434a3.849,3.849,0,0,0-.473-2.595,3.369,3.369,0,0,0-2.666-.835,10.8,10.8,0,0,0-3.5.378,4.01,4.01,0,0,0-2.574,2.249,6.015,6.015,0,0,0-.191,2.489q.11,1.75.221,3.5a8.968,8.968,0,0,1,.053,2.922,19.4,19.4,0,0,1-2.681,4.758,26.865,26.865,0,0,0-3.542,8.274c-.581,2.4-1.015,4.866-.151,7.252a5.757,5.757,0,0,0,1.413,2.233c.309.295.371.334.451.728a4.208,4.208,0,0,0,.105.767,1.691,1.691,0,0,0,.776.866c.814.433,1.593-.442,1.91-1.105.26-.542.151-.7.814-.827a1.75,1.75,0,0,0,1.265-.75,12.5,12.5,0,0,0,1.491-3.645A42.72,42.72,0,0,1,586.756,8927.2Z" transform="translate(-572.476 -8907.797)" fill="#f59883"/>
              </g>
              <g id="Grupo_55820" data-name="Grupo 55820" transform="translate(14.297 11.083)">
                <path id="Trazado_107094" data-name="Trazado 107094" d="M588.757,8932.692c-.316-1.38-1.147-2.587-1.588-3.932a7.312,7.312,0,0,1,.161-4.947c.411-1.022,1.266-2.06,2.367-1.985.974.064,1.665.971,2.094,1.847a10.854,10.854,0,0,1,.6,7.946c-.449,1.432-1.209,2.9-.846,4.351.106.425.307.826.37,1.26a1.135,1.135,0,0,1-.431,1.16,1.206,1.206,0,0,1-1.371-.331C588.749,8936.761,589.179,8934.529,588.757,8932.692Z" transform="translate(-586.814 -8921.824)" fill="#f59883"/>
              </g>
              <g id="Grupo_55822" data-name="Grupo 55822" transform="translate(5.22 22.548)">
                <g id="Grupo_55821" data-name="Grupo 55821">
                  <path id="Trazado_107095" data-name="Trazado 107095" d="M575.328,8948.3a26.489,26.489,0,0,1,2.652-11.959l.135.066a26.339,26.339,0,0,0-2.637,11.891Z" transform="translate(-575.325 -8936.339)" fill="#f0836e"/>
                </g>
              </g>
              <g id="Grupo_55824" data-name="Grupo 55824" transform="translate(8.233 23.147)">
                <g id="Grupo_55823" data-name="Grupo 55823">
                  <path id="Trazado_107096" data-name="Trazado 107096" d="M579.138,8948.772l.024-.185A42.744,42.744,0,0,1,582.4,8937.1l.138.061a42.521,42.521,0,0,0-3.222,11.451H579.3l.018.022Z" transform="translate(-579.138 -8937.096)" fill="#f0836e"/>
                </g>
              </g>
            </g>
          </g>
          <g id="Grupo_55827" data-name="Grupo 55827" transform="translate(53.256 159.036)">
            <path id="Trazado_107097" data-name="Trazado 107097" d="M647.987,9082.156a.435.435,0,0,1-.269-.094l-3.832-3.022a10.877,10.877,0,0,1-2.247-2.4,32.217,32.217,0,0,1-5.141-13.647c-.675-4.925.052-21.65.894-41.019.366-8.431.745-17.151,1.047-25.717.99-28.1-2.275-61.527-2.308-61.861a.434.434,0,1,1,.864-.086c.033.334,3.3,33.819,2.312,61.979-.3,8.57-.68,17.29-1.047,25.723-.84,19.326-1.565,36.017-.9,40.863a31.331,31.331,0,0,0,5,13.275,10.028,10.028,0,0,0,2.069,2.207l3.832,3.022a.435.435,0,0,1-.269.775Z" transform="translate(-636.128 -8933.92)" fill="#f0836e"/>
          </g>
          <path id="Trazado_107098" data-name="Trazado 107098" d="M653.467,8907.977a42.3,42.3,0,0,0-16.791,8.991,34.288,34.288,0,0,0-7.839,9.844c-4.109-4.974-7.374-10-12.672-13.682-4.9-3.405-10.957-5.555-16.827-4.785.829-3.44,1.879-6.866,3.013-10.335q3.176.781,6.393,1.377a116.293,116.293,0,0,0,42.482-.018C651.943,8902.246,652.736,8905.1,653.467,8907.977Z" transform="translate(-575.147 -8767.342)" fill="#c0dee1"/>
          <path id="Trazado_107099" data-name="Trazado 107099" d="M636.676,8916.968a34.288,34.288,0,0,0-7.839,9.844c-4.109-4.974-7.374-10-12.672-13.682-4.9-3.405-10.957-5.555-16.827-4.785.829-3.44,1.879-6.866,3.013-10.335q3.176.781,6.393,1.377a31.8,31.8,0,0,0,27.932,17.581Z" transform="translate(-575.147 -8767.342)" fill="#86bec4"/>
          <g id="Grupo_55828" data-name="Grupo 55828" transform="translate(52.803 126.252)">
            <path id="Trazado_107100" data-name="Trazado 107100" d="M637.54,8894.3c-.03,0-.061,0-.091,0a2.192,2.192,0,0,1-1.856-1.26.434.434,0,1,1,.792-.355,1.275,1.275,0,0,0,2.271.1.435.435,0,0,1,.756.43A2.2,2.2,0,0,1,637.54,8894.3Z" transform="translate(-635.555 -8892.421)" fill="#f0836e"/>
          </g>
          <path id="Trazado_107101" data-name="Trazado 107101" d="M612.7,8769.78c-.178-6.066.043-12.261,2.073-17.979s6.115-10.958,11.781-13.132,12.9-.6,16.236,4.472c-4.241,5.352-10.6,8.471-16.453,12S614.633,8763.229,612.7,8769.78Z" transform="translate(-577.942 -8733.685)" fill="#4c2016"/>
          <path id="Trazado_107102" data-name="Trazado 107102" d="M641.078,8742.213a43.519,43.519,0,0,1,13.123,17.345,23.164,23.164,0,0,0-10.035-21.864,6.2,6.2,0,0,0-2.832-1.166,2.576,2.576,0,0,0-2.581,1.329,2.676,2.676,0,0,0,.393,2.527A8.97,8.97,0,0,0,641.078,8742.213Z" transform="translate(-583.388 -8733.431)" fill="#4c2016"/>
        </g>
      </g>
      <g id="Grupo_55887" data-name="Grupo 55887" transform="translate(321.148 0)">
        <ellipse id="Elipse_4050" data-name="Elipse 4050" cx="45.126" cy="17.2" rx="45.126" ry="17.2" transform="translate(58.198 290.831)" fill="#efd0bc"/>
        <g id="Grupo_55886" data-name="Grupo 55886">
          <path id="Trazado_107103" data-name="Trazado 107103" d="M1105.344,8767.255c-1.663-12.156-5.911-24.951-14.908-31.464a17.573,17.573,0,0,0-20.292.09c-8.884,6.55-11.224,16.9-13.251,27.2-.891,4.524-1.782,9.051-2.507,13.608-.542,3.4-.976,6.982.2,10.224,2.561,7.07,12.715,7.545,18.923,8.072a102.821,102.821,0,0,0,18.778-.123c4.67-.46,10.569-.594,12.786-5.545a17.329,17.329,0,0,0,1.148-6.762A99.2,99.2,0,0,0,1105.344,8767.255Z" transform="translate(-991.736 -8732.611)" fill="#4c2016"/>
          <g id="Grupo_55831" data-name="Grupo 55831" transform="translate(86.687 152.591)">
            <path id="Trazado_107104" data-name="Trazado 107104" d="M1154.16,9074.875a2.161,2.161,0,0,1-1.27,2.066,6.307,6.307,0,0,1-2.515.516q-7.987.527-15.974,1.051c-.156.012-.314.021-.47.031q-1.789.12-3.579.234c-1.675.111-3.565.148-4.778-1.012a4.864,4.864,0,0,1-1.246-2.75c-.062-.35-.112-.705-.155-1.051l-.048-.387c-.5-4.121-.6-8.613-1.634-12.609a59.451,59.451,0,0,0-4.3-11.1c-4.02-8.187-9.314-15.893-11.5-24.748-2.063-8.381-1.182-17.184-2.135-25.762-1.1-9.914-4.634-19.377-8.137-28.719q-3.036-8.1-6.07-16.2-2.319-6.182-4.637-12.367c-1.722-4.594-.432-8.3,3.133-11.678s8.7-4.635,13.6-4.635c3.833,0,7.969.848,10.518,3.711,2,2.246,2.684,5.338,3.278,8.285a621.177,621.177,0,0,1,9.856,67.072q1.705,18.814,3.412,37.627c.272,2.986.552,5.977,1.006,8.943.461,3.006,1.095,6.072,1.823,9.02.621,2.51,2.955,4.219,4.909,5.791a38.373,38.373,0,0,0,3.293,2.381,39.3,39.3,0,0,0,5.589,3.018C1147.582,9072.244,1153.955,9073.348,1154.16,9074.875Z" transform="translate(-1084.957 -8925.762)" fill="#f59883"/>
          </g>
          <g id="Grupo_55832" data-name="Grupo 55832" transform="translate(57.783 38.577)">
            <path id="Trazado_107105" data-name="Trazado 107105" d="M1108.7,8908.149c1.291,6.239-1.283-6.353-3.131-.257a20.316,20.316,0,0,1-9.626,12.181c-4.561,2.387-12.008-7.357-17.115-6.053-8.854,2.263-16.889,14.933-23.259,7.457a30.457,30.457,0,0,1-6.021-13.076c-2-8.7-1.247-16.652.657-24.536.83-3.439,1.88-6.865,3.014-10.333.724-2.211,1.484-4.44,2.243-6.7,2.677-7.969,5.389-16.4,3.7-24.631-1.183-5.772-4.431-10.871-6.813-16.264-1.974-4.468-4.088-10.933-2-15.744,1.737-4.01,6.592-5.956,10.412-7.426,7.726-2.974,13.464-3.624,15.1-12.514a18.3,18.3,0,0,0-.4-8.452c.211.657,3.633.137,4.113.1,2.014-.161,4.14-.109,6.1-.458a37.708,37.708,0,0,0-.77,9.106c.45,6.651,4.651,9.937,10.908,11.7,5.5,1.551,12.848,3.582,14.161,10.083,1.467,7.262-7.846,14.046-10.2,20.705-3.083,8.729-2.36,17.669-1.654,26.9.324,4.242,2.954,10.875,3.972,14.954.717,2.876,1.51,5.733,2.241,8.606C1104.8,8885.316,1108.323,8906.312,1108.7,8908.149Z" transform="translate(-1048.371 -8781.442)" fill="#f59883"/>
          </g>
          <g id="Grupo_55833" data-name="Grupo 55833" transform="translate(84.877 38.577)">
            <path id="Trazado_107106" data-name="Trazado 107106" d="M1092.88,8781.442a37.708,37.708,0,0,0-.77,9.106c-.453.1-.913.179-1.371.243a17.069,17.069,0,0,1-7.676-.538,18.313,18.313,0,0,0-.4-8.452c.21.657,3.632.137,4.112.1C1088.792,8781.739,1090.919,8781.791,1092.88,8781.442Z" transform="translate(-1082.666 -8781.442)" fill="#f0836e"/>
          </g>
          <g id="Grupo_55834" data-name="Grupo 55834" transform="translate(71.094 25.738)">
            <ellipse id="Elipse_4051" data-name="Elipse 4051" cx="2.978" cy="3.588" rx="2.978" ry="3.588" transform="translate(0 0.974) rotate(-9.407)" fill="#f0836e"/>
          </g>
          <g id="Grupo_55835" data-name="Grupo 55835" transform="translate(102.051 25.975)">
            <path id="Trazado_107107" data-name="Trazado 107107" d="M1104.464,8768.579c-.324,1.953.729,3.758,2.352,4.025s3.2-1.1,3.525-3.052-.729-3.76-2.352-4.029S1104.788,8766.624,1104.464,8768.579Z" transform="translate(-1104.406 -8765.49)" fill="#f0836e"/>
          </g>
          <g id="Grupo_55836" data-name="Grupo 55836" transform="translate(73.96 6.353)">
            <path id="Trazado_107108" data-name="Trazado 107108" d="M1100.535,8760.58c-.084,9.239-7.694,19.925-15.844,19.925-7.865,0-15.814-11.334-15.844-19.925-.039-11,7.094-19.927,15.844-19.927S1100.636,8749.576,1100.535,8760.58Z" transform="translate(-1068.848 -8740.653)" fill="#f59883"/>
          </g>
          <g id="Grupo_55837" data-name="Grupo 55837" transform="translate(87.296 26.636)">
            <path id="Trazado_107109" data-name="Trazado 107109" d="M1088.082,8774.664c-5.006,0-.555-8.327,0-8.338C1088.659,8766.314,1093.244,8774.664,1088.082,8774.664Z" transform="translate(-1085.729 -8766.326)" fill="#f0836e"/>
          </g>
          <g id="Grupo_55839" data-name="Grupo 55839" transform="translate(76.741 19.63)">
            <g id="Grupo_55838" data-name="Grupo 55838">
              <path id="Trazado_107110" data-name="Trazado 107110" d="M1082.167,8760.338a1.309,1.309,0,0,1-.569-.158,24.627,24.627,0,0,0-3.23-1.3,7.044,7.044,0,0,0-3.192-.267,4.42,4.42,0,0,0-1.287.455c-.4.218-.734.545-1.132.763a.345.345,0,0,1-.214.061c-.157-.023-.187-.152-.171-.308.022-.209.156-.3.291-.419a6.6,6.6,0,0,1,1.034-.76,7.388,7.388,0,0,1,4.568-.9,11.838,11.838,0,0,1,4.033,1.275c.542.274.506,1.509-.115,1.554Z" transform="translate(-1072.368 -8757.458)" fill="#4c2016"/>
            </g>
          </g>
          <g id="Grupo_55841" data-name="Grupo 55841" transform="translate(92.387 19.63)">
            <g id="Grupo_55840" data-name="Grupo 55840">
              <path id="Trazado_107111" data-name="Trazado 107111" d="M1092.684,8760.338a1.313,1.313,0,0,0,.57-.158,24.629,24.629,0,0,1,3.23-1.3,7.054,7.054,0,0,1,3.191-.267,4.405,4.405,0,0,1,1.286.455c.4.218.735.547,1.133.763a.338.338,0,0,0,.214.061c.156-.023.187-.151.17-.308-.021-.209-.156-.3-.29-.419a6.468,6.468,0,0,0-1.034-.758,7.377,7.377,0,0,0-4.568-.9,11.831,11.831,0,0,0-4.033,1.275c-.542.274-.506,1.509.115,1.554Z" transform="translate(-1092.173 -8757.458)" fill="#4c2016"/>
            </g>
          </g>
          <g id="Grupo_55842" data-name="Grupo 55842" transform="translate(73.459 23.416)">
            <path id="Trazado_107112" data-name="Trazado 107112" d="M1068.214,8762.251" transform="translate(-1068.214 -8762.251)" fill="#835c3e"/>
          </g>
          <g id="Grupo_55843" data-name="Grupo 55843" transform="translate(84.502 37.151)">
            <path id="Trazado_107113" data-name="Trazado 107113" d="M1092.483,8780.045a4.777,4.777,0,0,1-.623.075,5.807,5.807,0,0,1-.939-.027,5.536,5.536,0,0,1-1.239-.261,2.6,2.6,0,0,0-1.87-.036,1.986,1.986,0,0,0-.377.286,1.964,1.964,0,0,0-.376-.286,2.591,2.591,0,0,0-1.87.036,5.553,5.553,0,0,1-1.24.261,5.8,5.8,0,0,1-.939.027,4.914,4.914,0,0,1-.622-.075.154.154,0,0,0-.187.194h0a2.427,2.427,0,0,0,.165.328,4.972,4.972,0,0,0,.516.751,5.91,5.91,0,0,0,1.217,1.094,6.263,6.263,0,0,0,3.276,1.08v.006l.06,0,.06,0v-.006a6.255,6.255,0,0,0,3.276-1.08,5.944,5.944,0,0,0,1.218-1.094,4.921,4.921,0,0,0,.515-.751,2.427,2.427,0,0,0,.165-.328h0A.155.155,0,0,0,1092.483,8780.045Z" transform="translate(-1082.193 -8779.636)" fill="#ef4c44"/>
          </g>
          <g id="Grupo_55845" data-name="Grupo 55845" transform="translate(77.87 24.808)">
            <g id="Grupo_55844" data-name="Grupo 55844">
              <path id="Trazado_107114" data-name="Trazado 107114" d="M1073.8,8765.316c-.1,1.19,1.756,2.891,3.59,3.05s3.666-.686,4.075-1.8c.32-.874-1.865-2.351-3.7-2.508S1073.9,8764.128,1073.8,8765.316Z" transform="translate(-1073.797 -8764.014)" fill="#fff"/>
            </g>
          </g>
          <g id="Grupo_55850" data-name="Grupo 55850" transform="translate(79.249 23.547)">
            <g id="Grupo_55847" data-name="Grupo 55847" transform="translate(0 0)">
              <g id="Grupo_55846" data-name="Grupo 55846">
                <circle id="Elipse_4052" data-name="Elipse 4052" cx="2.309" cy="2.309" r="2.309" transform="translate(0 0.582) rotate(-7.239)" fill="#87c1c0"/>
              </g>
            </g>
            <g id="Grupo_55849" data-name="Grupo 55849" transform="translate(1.356 1.354)">
              <g id="Grupo_55848" data-name="Grupo 55848">
                <path id="Trazado_107115" data-name="Trazado 107115" d="M1077.265,8765.25a1.225,1.225,0,1,0,1.326-1.114A1.226,1.226,0,0,0,1077.265,8765.25Z" transform="translate(-1077.26 -8764.131)" fill="#161619"/>
              </g>
            </g>
          </g>
          <g id="Grupo_55851" data-name="Grupo 55851" transform="translate(77.703 23.145)">
            <path id="Trazado_107116" data-name="Trazado 107116" d="M1077.877,8761.922a4.04,4.04,0,0,0-4.291,2.885l.116-.044c.092-.034.185-.068.274-.108.045-.021.091-.043.135-.066a.514.514,0,0,0,.055-.036,6.542,6.542,0,0,1,.838-.585,1.791,1.791,0,0,1,.724-.2,4.288,4.288,0,0,1,4.35.566,7.12,7.12,0,0,1,1.45,2.23,2.269,2.269,0,0,0,.035-.25A3.972,3.972,0,0,0,1077.877,8761.922Z" transform="translate(-1073.586 -8761.908)" fill="#f0836e"/>
          </g>
          <g id="Grupo_55852" data-name="Grupo 55852" transform="translate(76.034 24.159)">
            <path id="Trazado_107117" data-name="Trazado 107117" d="M1081.076,8766.755a3.872,3.872,0,0,1-.089-.518,3.911,3.911,0,0,0-.18-.573,3.594,3.594,0,0,0-.6-1,4.331,4.331,0,0,0-2.155-1.332,4.423,4.423,0,0,0-3.1.328c-.569.289-1.07.7-1.638.993a2.306,2.306,0,0,1-1.845.234,2.642,2.642,0,0,0,2.014.376,16.583,16.583,0,0,0,2.2-.985,4.483,4.483,0,0,1,5.152,1.989A4.575,4.575,0,0,1,1081.076,8766.755Z" transform="translate(-1071.473 -8763.192)" fill="#161619"/>
          </g>
          <g id="Grupo_55854" data-name="Grupo 55854" transform="translate(93.788 24.808)">
            <g id="Grupo_55853" data-name="Grupo 55853">
              <path id="Trazado_107118" data-name="Trazado 107118" d="M1101.642,8765.318c.1,1.188-1.756,2.889-3.59,3.048s-3.666-.686-4.075-1.8c-.32-.874,1.865-2.351,3.7-2.508S1101.539,8764.128,1101.642,8765.318Z" transform="translate(-1093.946 -8764.014)" fill="#fff"/>
            </g>
          </g>
          <g id="Grupo_55859" data-name="Grupo 55859" transform="translate(95.357 23.883)">
            <g id="Grupo_55856" data-name="Grupo 55856">
              <g id="Grupo_55855" data-name="Grupo 55855">
                <path id="Trazado_107119" data-name="Trazado 107119" d="M1100.54,8764.951a2.308,2.308,0,1,1-2.5-2.1A2.307,2.307,0,0,1,1100.54,8764.951Z" transform="translate(-1095.932 -8762.842)" fill="#87c1c0"/>
              </g>
            </g>
            <g id="Grupo_55858" data-name="Grupo 55858" transform="translate(1.083 1.084)">
              <g id="Grupo_55857" data-name="Grupo 55857">
                <path id="Trazado_107120" data-name="Trazado 107120" d="M1099.748,8765.332a1.225,1.225,0,1,1-1.326-1.113A1.225,1.225,0,0,1,1099.748,8765.332Z" transform="translate(-1097.303 -8764.214)" fill="#161619"/>
              </g>
            </g>
          </g>
          <g id="Grupo_55860" data-name="Grupo 55860" transform="translate(93.663 23.146)">
            <path id="Trazado_107121" data-name="Trazado 107121" d="M1097.489,8761.923a4.038,4.038,0,0,1,4.29,2.884c-.043-.017-.095-.035-.116-.042-.092-.036-.185-.07-.274-.11-.045-.021-.091-.042-.134-.066a.329.329,0,0,1-.055-.036,6.709,6.709,0,0,0-.839-.585,1.808,1.808,0,0,0-.725-.2,4.285,4.285,0,0,0-4.35.567,7.132,7.132,0,0,0-1.45,2.229,2.266,2.266,0,0,1-.035-.25A3.971,3.971,0,0,1,1097.489,8761.923Z" transform="translate(-1093.788 -8761.909)" fill="#f0836e"/>
          </g>
          <g id="Grupo_55861" data-name="Grupo 55861" transform="translate(93.722 24.159)">
            <path id="Trazado_107122" data-name="Trazado 107122" d="M1093.862,8766.755a3.669,3.669,0,0,0,.089-.518,4.049,4.049,0,0,1,.18-.573,3.6,3.6,0,0,1,.6-.994,4.317,4.317,0,0,1,2.155-1.335,4.423,4.423,0,0,1,3.1.328c.57.289,1.071.7,1.638.993a2.3,2.3,0,0,0,1.844.234,2.641,2.641,0,0,1-2.014.376,16.582,16.582,0,0,1-2.2-.985,4.383,4.383,0,0,0-5.393,2.474Z" transform="translate(-1093.862 -8763.192)" fill="#161619"/>
          </g>
          <g id="Grupo_55871" data-name="Grupo 55871" transform="translate(105.642 63.104)">
            <g id="Grupo_55862" data-name="Grupo 55862">
              <path id="Trazado_107123" data-name="Trazado 107123" d="M1165.005,8831.91q-3.649-.955-7.227-2.132c-6.183-2.037-12.914-3.975-18.587-7.161a135.295,135.295,0,0,0-17.394-8.455c-3.465-1.336-9.244-3.349-11.905.841a7.46,7.46,0,0,0,.461,7.933,16.631,16.631,0,0,0,6.308,5.042,83.384,83.384,0,0,0,18.445,7.2c5.991,1.523,11.608,4.432,17.691,5.906a114.361,114.361,0,0,0,20.724,3.022c3.528.191,7.062.2,10.6.125,3.16-.066,5.9-.473,8.738,1.271a14.724,14.724,0,0,0,4.7-6.6,2.043,2.043,0,0,0-2.294-3.12A128,128,0,0,1,1165.005,8831.91Z" transform="translate(-1108.951 -8812.488)" fill="#f59883"/>
            </g>
            <g id="Grupo_55870" data-name="Grupo 55870" transform="translate(80.52 21.667)">
              <g id="Grupo_55863" data-name="Grupo 55863" transform="translate(11.551)">
                <path id="Trazado_107124" data-name="Trazado 107124" d="M1236.715,8840.341a.9.9,0,0,1,.458.2c.3.307.048.894-.35,1.082a2.264,2.264,0,0,1-1.273.056,10.563,10.563,0,0,0-4.273.324,16.9,16.9,0,0,1-3.1.833,2.642,2.642,0,0,1-2.684-1.25A17.3,17.3,0,0,1,1236.715,8840.341Z" transform="translate(-1225.495 -8839.913)" fill="#f59883"/>
              </g>
              <g id="Grupo_55864" data-name="Grupo 55864" transform="translate(0 1.192)">
                <path id="Trazado_107125" data-name="Trazado 107125" d="M1219.354,8851.628a8.855,8.855,0,0,1-3.633.134,5.713,5.713,0,0,1-2.839-2.057c-.792-.977-2.043-2.732-2.007-4.051.034-1.248,1.329-2.4,2.347-2.877,2.42-1.143,5.618-.913,8.2-1.2a24.432,24.432,0,0,1,8.426.524c2.241.539,4.468,1.231,6.035,3.008a5.32,5.32,0,0,1,1.193,2.186c.1.394.1.467.391.7a3.921,3.921,0,0,1,.583.422,1.6,1.6,0,0,1,.356,1.045c-.015.888-1.091,1.182-1.782,1.17-.564-.011-.644-.174-1.054.343a1.724,1.724,0,0,1-1.194.768,11.413,11.413,0,0,1-3.68-.291A39.171,39.171,0,0,0,1219.354,8851.628Z" transform="translate(-1210.874 -8841.422)" fill="#f59883"/>
              </g>
              <g id="Grupo_55865" data-name="Grupo 55865" transform="translate(1.549 5.89)">
                <path id="Trazado_107126" data-name="Trazado 107126" d="M1221.609,8853.764c-.816-1.043-1.2-2.383-1.914-3.5a6.491,6.491,0,0,0-3.7-2.744,2.573,2.573,0,0,0-2.857.673,2.81,2.81,0,0,0,.093,2.687,9.7,9.7,0,0,0,5.423,5.07c1.31.484,2.829.747,3.67,1.87a11.95,11.95,0,0,0,.7,1.016,1.021,1.021,0,0,0,1.1.341,1.231,1.231,0,0,0,.577-1.25C1224.574,8856.115,1222.7,8855.154,1221.609,8853.764Z" transform="translate(-1212.835 -8847.369)" fill="#f59883"/>
              </g>
              <g id="Grupo_55867" data-name="Grupo 55867" transform="translate(15.344 4.666)">
                <g id="Grupo_55866" data-name="Grupo 55866">
                  <path id="Trazado_107127" data-name="Trazado 107127" d="M1241.361,8848.708l-.078.144a23.582,23.582,0,0,0-10.986-2.873l.009-.159A23.734,23.734,0,0,1,1241.361,8848.708Z" transform="translate(-1230.297 -8845.819)" fill="#f0836e"/>
                </g>
              </g>
              <g id="Grupo_55869" data-name="Grupo 55869" transform="translate(14.177 8.042)">
                <g id="Grupo_55868" data-name="Grupo 55868">
                  <path id="Trazado_107128" data-name="Trazado 107128" d="M1239.948,8852.345l-.216.1-.013-.031-.006.018a38.2,38.2,0,0,0-10.892-2.178l.015-.159a38.352,38.352,0,0,1,10.935,2.186Z" transform="translate(-1228.82 -8850.094)" fill="#f0836e"/>
                </g>
              </g>
            </g>
          </g>
          <path id="Trazado_107129" data-name="Trazado 107129" d="M1105.409,8842.547v0a10.478,10.478,0,0,1-.792,2.6,12.665,12.665,0,0,1-5.01,5.532c-2.422,1.472-5.836.94-8.905-.173a22.624,22.624,0,0,0-14.784-.192c-5.055,1.662-10.129.707-15.22-.393-.36-.079-.381.179-.712-.079-.231-.179-.419-.911-.548-1.187q-.5-1.072-1.008-2.149-1.014-2.165-2.031-4.329c-.025-.055-.05-.11-.076-.163,0,.009.019.013.043.011a12.676,12.676,0,0,0,2.036-1c.111-.064.19-.11.22-.13a8.49,8.49,0,0,0,1.734-1.91c.1-.129.2-.262.306-.391,2.032-2.615,4.095-5.395,7.416-6.283a12.793,12.793,0,0,1,10.042,1.757,12.945,12.945,0,0,1,4.289,4.439,1.289,1.289,0,0,0,2.219.027,12.915,12.915,0,0,1,4.336-4.259c5.47-3.327,12.286-2.353,15.226,2.176A8.533,8.533,0,0,1,1105.409,8842.547Z" transform="translate(-992.258 -8753.469)" fill="#c0dee1"/>
          <path id="Trazado_107130" data-name="Trazado 107130" d="M1104.617,8847.565a12.681,12.681,0,0,1-5.01,5.532c-2.422,1.473-5.836.94-8.905-.173a22.643,22.643,0,0,0-14.784-.193c-5.055,1.663-10.129.708-15.22-.392-.36-.079-.381.179-.712-.079-.231-.179-.419-.911-.548-1.186q-.5-1.075-1.008-2.15-1.014-2.164-2.031-4.329c-.025-.054-.05-.11-.076-.163,0,.01.019.013.043.011a12.741,12.741,0,0,0,2.036-.994,37.019,37.019,0,0,0,6.624,4.234c4.266,2.055,9.312,2.937,13.769,1.337,1.8-.648,3.543-1.7,5.455-1.628,1.791.062,3.377,1.095,5.015,1.821a15.615,15.615,0,0,0,11.428.434A15.316,15.316,0,0,0,1104.617,8847.565Z" transform="translate(-992.258 -8755.887)" fill="#86bec4"/>
          <g id="Grupo_55881" data-name="Grupo 55881" transform="translate(0 64.443)">
            <g id="Grupo_55872" data-name="Grupo 55872" transform="translate(11.434)">
              <path id="Trazado_107131" data-name="Trazado 107131" d="M1014.436,8855.782a141.8,141.8,0,0,0,9.16-14.429c2.465-4.569,8.347-20.1,10.246-22.527a11.382,11.382,0,0,1,7.7-4.62c3.068-.253,6.388,1.545,7.243,4.5.586,2.024,0,4.188-.677,6.185-3.325,9.854-8.74,18.91-15.069,27.163-10.073,13.136-21.261,25.5-34.368,35.688-2.19,1.7-5.3,3.375-7.519,1.708a4.45,4.45,0,0,1-1.248-4.725c.726-2.6,3.622-4.4,5.456-6.244q3.563-3.579,6.917-7.355a175.566,175.566,0,0,0,11.732-14.738Z" transform="translate(-989.702 -8814.183)" fill="#f59883"/>
            </g>
            <g id="Grupo_55880" data-name="Grupo 55880" transform="translate(0 61.797)">
              <g id="Grupo_55873" data-name="Grupo 55873" transform="translate(11.6 19.653)">
                <path id="Trazado_107132" data-name="Trazado 107132" d="M991.237,8928.946a1.012,1.012,0,0,1-.361.4c-.405.215-.905-.211-.957-.666a2.436,2.436,0,0,1,.38-1.3,11.471,11.471,0,0,0,1.138-4.4,17.572,17.572,0,0,1,.228-3.362,2.961,2.961,0,0,1,2.163-2.338A18.6,18.6,0,0,1,991.237,8928.946Z" transform="translate(-989.912 -8917.284)" fill="#f59883"/>
              </g>
              <g id="Grupo_55874" data-name="Grupo 55874" transform="translate(1.28)">
                <path id="Trazado_107133" data-name="Trazado 107133" d="M982.874,8905.707a10.949,10.949,0,0,1,.9-3,7.68,7.68,0,0,1,2.371-2.331,50.378,50.378,0,0,0,5.01-4.229c.835-.782,1.656-1.581,2.49-2.363a3.841,3.841,0,0,1,2.25-1.377,3.359,3.359,0,0,1,2.4,1.428,10.891,10.891,0,0,1,2.051,2.861,4.012,4.012,0,0,1,.039,3.418,6.036,6.036,0,0,1-1.728,1.8q-1.38,1.085-2.759,2.171a8.957,8.957,0,0,0-2.214,1.907,19.439,19.439,0,0,0-1.76,5.17,26.808,26.808,0,0,1-3.805,8.153c-1.4,2.036-2.952,4-5.306,4.948a5.794,5.794,0,0,1-2.608.438,1.034,1.034,0,0,0-.842.146,4.051,4.051,0,0,1-.642.435,1.678,1.678,0,0,1-1.161,0c-.866-.317-.733-1.479-.45-2.161.231-.555.421-.578.074-1.158a1.738,1.738,0,0,1-.284-1.442,12.533,12.533,0,0,1,1.722-3.541A42.725,42.725,0,0,0,982.874,8905.707Z" transform="translate(-976.848 -8892.407)" fill="#f59883"/>
              </g>
              <g id="Grupo_55875" data-name="Grupo 55875" transform="translate(0 7.283)">
                <path id="Trazado_107134" data-name="Trazado 107134" d="M981.311,8910.092c1.24-.685,2.693-.868,3.99-1.437a7.3,7.3,0,0,0,3.58-3.416c.49-.989.691-2.317-.1-3.087a2.87,2.87,0,0,0-2.774-.333,10.867,10.867,0,0,0-6.324,4.849c-.767,1.29-1.352,2.832-2.678,3.531-.388.205-.821.321-1.186.563a1.138,1.138,0,0,0-.578,1.1,1.213,1.213,0,0,0,1.161.8C978.285,8912.809,979.66,8911,981.311,8910.092Z" transform="translate(-975.229 -8901.625)" fill="#f59883"/>
              </g>
              <g id="Grupo_55877" data-name="Grupo 55877" transform="translate(3.965 22.326)">
                <g id="Grupo_55876" data-name="Grupo 55876">
                  <path id="Trazado_107135" data-name="Trazado 107135" d="M980.346,8930.675a26.5,26.5,0,0,0,7.148-9.949l-.139-.059a26.331,26.331,0,0,1-7.107,9.895Z" transform="translate(-980.248 -8920.667)" fill="#f0836e"/>
                </g>
              </g>
              <g id="Grupo_55879" data-name="Grupo 55879" transform="translate(1.809 20.025)">
                <g id="Grupo_55878" data-name="Grupo 55878">
                  <path id="Trazado_107136" data-name="Trazado 107136" d="M977.534,8928.026l.12-.139a42.681,42.681,0,0,0,6.411-10.071l-.137-.062a42.548,42.548,0,0,1-6.389,10.035l.009.008h-.029Z" transform="translate(-977.519 -8917.754)" fill="#f0836e"/>
                </g>
              </g>
            </g>
          </g>
          <g id="Grupo_55884" data-name="Grupo 55884" transform="translate(58.469 149.784)">
            <g id="Grupo_55882" data-name="Grupo 55882">
              <path id="Trazado_107137" data-name="Trazado 107137" d="M1074.158,9085.41q-9.518-2.993-18.915-6.353a4.743,4.743,0,0,1-2.411-1.467c-1-1.4-.231-3.327.437-4.915.239-.568.457-1.137.655-1.712,2.693-7.707,2.01-15.893.349-23.793-1.875-8.926-5.1-17.7-5.032-26.82.069-8.629,3.095-16.943,4.287-25.491,1.38-9.882.292-19.923-.8-29.839q-1.662-15.158-3.327-30.32c-.536-4.879,1.631-8.153,5.919-10.542s9.57-2.346,14.328-1.137c3.715.943,7.513,2.789,9.276,6.193,1.383,2.67,1.283,5.834,1.132,8.837a621.779,621.779,0,0,1-7.005,67.43q-2.991,18.655-5.979,37.308c-.6,3.723-.8,7.573-1.318,11.315a58.732,58.732,0,0,0-.991,8.165,20.647,20.647,0,0,0,1.382,7.619,23.564,23.564,0,0,0,3.114,5.553,40.489,40.489,0,0,0,5.786,6.132C1077.344,9083.6,1078.542,9086.79,1074.158,9085.41Z" transform="translate(-1049.24 -8922.209)" fill="#f59883"/>
            </g>
            <g id="Grupo_55883" data-name="Grupo 55883" transform="translate(15.228 9.516)">
              <path id="Trazado_107138" data-name="Trazado 107138" d="M1077.636,9082.8a.426.426,0,0,1-.255-.125l-3.445-3.458a10.89,10.89,0,0,1-1.946-2.651,32.2,32.2,0,0,1-3.473-14.162c-.082-4.97,2.636-21.489,5.785-40.617,1.37-8.327,2.787-16.937,4.111-25.409,4.338-27.78,5.088-61.359,5.095-61.7a.434.434,0,0,1,.868.019c-.007.336-.758,33.973-5.1,61.812-1.323,8.473-2.741,17.085-4.112,25.414-3.141,19.088-5.855,35.572-5.773,40.464a31.326,31.326,0,0,0,3.375,13.776,10.044,10.044,0,0,0,1.791,2.438l3.444,3.458a.433.433,0,0,1-.359.737Z" transform="translate(-1068.516 -8934.254)" fill="#f0836e"/>
            </g>
          </g>
          <path id="Trazado_107139" data-name="Trazado 107139" d="M1104.828,8907.977a42.3,42.3,0,0,0-16.791,8.991,34.274,34.274,0,0,0-7.84,9.844c-4.109-4.974-7.374-10-12.672-13.682-4.9-3.405-10.957-5.555-16.828-4.785.83-3.44,1.88-6.866,3.014-10.335q3.176.781,6.393,1.377a116.292,116.292,0,0,0,42.482-.018C1103.3,8902.246,1104.1,8905.1,1104.828,8907.977Z" transform="translate(-991.076 -8767.342)" fill="#c0dee1"/>
          <path id="Trazado_107140" data-name="Trazado 107140" d="M1088.037,8916.968a34.274,34.274,0,0,0-7.84,9.844c-4.109-4.974-7.374-10-12.672-13.682-4.9-3.405-10.957-5.555-16.828-4.785.83-3.44,1.88-6.866,3.014-10.335q3.176.781,6.393,1.377a31.8,31.8,0,0,0,27.932,17.581Z" transform="translate(-991.076 -8767.342)" fill="#86bec4"/>
          <g id="Grupo_55885" data-name="Grupo 55885" transform="translate(88.234 126.252)">
            <path id="Trazado_107141" data-name="Trazado 107141" d="M1088.9,8894.3c-.031,0-.061,0-.091,0a2.191,2.191,0,0,1-1.856-1.26.434.434,0,1,1,.792-.355,1.275,1.275,0,0,0,2.271.1.435.435,0,0,1,.756.43A2.2,2.2,0,0,1,1088.9,8894.3Z" transform="translate(-1086.915 -8892.421)" fill="#f0836e"/>
          </g>
          <path id="Trazado_107142" data-name="Trazado 107142" d="M1064.059,8769.78c-.178-6.066.042-12.261,2.074-17.979s6.115-10.958,11.781-13.132,12.9-.6,16.236,4.472c-4.241,5.352-10.605,8.471-16.453,12S1065.994,8763.229,1064.059,8769.78Z" transform="translate(-993.872 -8733.685)" fill="#4c2016"/>
          <path id="Trazado_107143" data-name="Trazado 107143" d="M1092.438,8742.213a43.519,43.519,0,0,1,13.123,17.345,23.164,23.164,0,0,0-10.036-21.864,6.189,6.189,0,0,0-2.832-1.166,2.576,2.576,0,0,0-2.58,1.329,2.674,2.674,0,0,0,.393,2.527A8.981,8.981,0,0,0,1092.438,8742.213Z" transform="translate(-999.317 -8733.431)" fill="#4c2016"/>
        </g>
      </g>
      <g id="Grupo_55943" data-name="Grupo 55943" transform="translate(171.836 0)">
        <g id="Grupo_55897" data-name="Grupo 55897" transform="translate(83.596 63.835)">
          <g id="Grupo_55888" data-name="Grupo 55888">
            <path id="Trazado_107144" data-name="Trazado 107144" d="M911.511,8863.188a141.732,141.732,0,0,0-6.454-15.827c-2.3-4.654-11.549-18.448-12.424-21.4a11.376,11.376,0,0,1,.695-8.949c1.57-2.646,4.958-4.311,7.865-3.295,1.989.7,3.411,2.43,4.648,4.136,6.107,8.419,10.349,18.078,13.41,28.021,4.87,15.819,8.463,32.1,9.176,48.687.119,2.772-.321,6.278-2.964,7.118a4.445,4.445,0,0,1-4.573-1.719c-1.7-2.1-1.491-5.5-1.929-8.064q-.85-4.976-1.987-9.9a175.728,175.728,0,0,0-5.216-18.1C911.674,8863.656,911.593,8863.425,911.511,8863.188Z" transform="translate(-892.045 -8813.413)" fill="#f59883"/>
          </g>
          <g id="Grupo_55896" data-name="Grupo 55896" transform="translate(26.428 73.111)">
            <g id="Grupo_55889" data-name="Grupo 55889" transform="translate(13.336 16.587)">
              <path id="Trazado_107145" data-name="Trazado 107145" d="M950.6,8935.821a1.022,1.022,0,0,1,.118.526c-.062.454-.7.616-1.1.395a2.46,2.46,0,0,1-.838-1.062,11.437,11.437,0,0,0-2.925-3.476,17.676,17.676,0,0,1-2.608-2.132,2.97,2.97,0,0,1-.653-3.12A18.6,18.6,0,0,1,950.6,8935.821Z" transform="translate(-942.378 -8926.953)" fill="#f59883"/>
            </g>
            <g id="Grupo_55890" data-name="Grupo 55890">
              <path id="Trazado_107146" data-name="Trazado 107146" d="M929.117,8925.557a11.032,11.032,0,0,1-1.924-2.469,7.7,7.7,0,0,1-.526-3.283,50.446,50.446,0,0,0-.544-6.534c-.154-1.133-.329-2.265-.484-3.4a3.849,3.849,0,0,1,.18-2.631,3.36,3.36,0,0,1,2.557-1.128,10.859,10.859,0,0,1,3.519-.015,4.013,4.013,0,0,1,2.809,1.95,6.011,6.011,0,0,1,.468,2.45q.086,1.753.171,3.5a8.971,8.971,0,0,0,.273,2.911,19.4,19.4,0,0,0,3.194,4.43,26.828,26.828,0,0,1,4.441,7.828c.844,2.321,1.552,4.723.958,7.189a5.757,5.757,0,0,1-1.155,2.378,1.033,1.033,0,0,0-.367.772,4.233,4.233,0,0,1-.019.775,1.685,1.685,0,0,1-.675.945c-.76.521-1.631-.262-2.021-.885-.318-.51-.228-.679-.9-.733a1.738,1.738,0,0,1-1.341-.6,12.522,12.522,0,0,1-1.887-3.456A42.715,42.715,0,0,0,929.117,8925.557Z" transform="translate(-925.497 -8905.957)" fill="#f59883"/>
            </g>
            <g id="Grupo_55891" data-name="Grupo 55891" transform="translate(0.268 11.295)">
              <path id="Trazado_107147" data-name="Trazado 107147" d="M930.476,8930.975c.16-1.407.853-2.7,1.141-4.084a7.311,7.311,0,0,0-.711-4.9c-.521-.972-1.488-1.9-2.572-1.709-.961.174-1.547,1.151-1.876,2.069a10.853,10.853,0,0,0,.287,7.963c.606,1.371,1.525,2.741,1.326,4.227-.059.437-.213.857-.228,1.295a1.136,1.136,0,0,0,.558,1.105,1.207,1.207,0,0,0,1.326-.48C930.937,8935.016,930.262,8932.848,930.476,8930.975Z" transform="translate(-925.836 -8920.256)" fill="#f59883"/>
            </g>
            <g id="Grupo_55893" data-name="Grupo 55893" transform="translate(13.159 21.676)">
              <g id="Grupo_55892" data-name="Grupo 55892">
                <path id="Trazado_107148" data-name="Trazado 107148" d="M946.249,8944.987a26.5,26.5,0,0,0-3.968-11.593l-.126.082A26.339,26.339,0,0,1,946.1,8945Z" transform="translate(-942.154 -8933.395)" fill="#f0836e"/>
              </g>
            </g>
            <g id="Grupo_55895" data-name="Grupo 55895" transform="translate(9.63 22.675)">
              <g id="Grupo_55894" data-name="Grupo 55894">
                <path id="Trazado_107149" data-name="Trazado 107149" d="M942.354,8945.9l-.044-.178a42.7,42.7,0,0,0-4.493-11.06l-.13.075a42.565,42.565,0,0,1,4.477,11.021l.011,0-.015.025Z" transform="translate(-937.687 -8934.659)" fill="#f0836e"/>
              </g>
            </g>
          </g>
        </g>
        <ellipse id="Elipse_4053" data-name="Elipse 4053" cx="45.126" cy="17.2" rx="45.126" ry="17.2" transform="translate(7.927 290.831)" fill="#efd0bc"/>
        <path id="Trazado_107150" data-name="Trazado 107150" d="M840.126,8767.255c1.663-12.156,5.911-24.951,14.909-31.464a17.572,17.572,0,0,1,20.291.09c8.884,6.55,11.224,16.9,13.252,27.2.89,4.524,1.781,9.051,2.507,13.608.542,3.4.977,6.982-.2,10.224-2.56,7.07-12.715,7.545-18.923,8.072a102.814,102.814,0,0,1-18.777-.123c-4.67-.46-10.57-.594-12.786-5.545a17.333,17.333,0,0,1-1.149-6.762A99.322,99.322,0,0,1,840.126,8767.255Z" transform="translate(-797.358 -8732.611)" fill="#4c2016"/>
        <g id="Grupo_55898" data-name="Grupo 55898" transform="translate(0.474 152.591)">
          <path id="Trazado_107151" data-name="Trazado 107151" d="M786.841,9074.875a2.162,2.162,0,0,0,1.27,2.066,6.31,6.31,0,0,0,2.516.516q7.987.527,15.975,1.051c.156.012.314.021.469.031q1.789.12,3.579.234c1.676.111,3.565.148,4.778-1.012a4.866,4.866,0,0,0,1.247-2.75c.063-.35.111-.705.155-1.051l.049-.387c.5-4.121.6-8.613,1.633-12.609a59.443,59.443,0,0,1,4.3-11.1c4.02-8.187,9.315-15.893,11.5-24.748,2.064-8.381,1.183-17.184,2.136-25.762,1.1-9.914,4.634-19.377,8.137-28.719q3.036-8.1,6.07-16.2,2.319-6.182,4.636-12.367c1.723-4.594.432-8.3-3.133-11.678s-8.695-4.635-13.6-4.635c-3.833,0-7.969.848-10.518,3.711-2,2.246-2.684,5.338-3.278,8.285a621.42,621.42,0,0,0-9.856,67.072q-1.705,18.814-3.412,37.627c-.272,2.986-.552,5.977-1.005,8.943-.461,3.006-1.1,6.072-1.823,9.02-.621,2.51-2.956,4.219-4.91,5.791a38.238,38.238,0,0,1-3.293,2.381,39.289,39.289,0,0,1-5.589,3.018C793.419,9072.244,787.047,9073.348,786.841,9074.875Z" transform="translate(-786.827 -8925.762)" fill="#f59883"/>
        </g>
        <g id="Grupo_55899" data-name="Grupo 55899" transform="translate(36.832 38.577)">
          <path id="Trazado_107152" data-name="Trazado 107152" d="M834.279,8908.149c-1.291,6.239,1.282-6.353,3.132-.257a20.315,20.315,0,0,0,9.625,12.181c4.562,2.387,12.008-7.357,17.116-6.053,8.853,2.263,16.888,14.933,23.258,7.457a30.466,30.466,0,0,0,6.021-13.076c2-8.7,1.246-16.652-.658-24.536-.829-3.439-1.879-6.865-3.014-10.333-.724-2.211-1.484-4.44-2.243-6.7-2.677-7.969-5.389-16.4-3.7-24.631,1.184-5.772,4.431-10.871,6.813-16.264,1.974-4.468,4.088-10.933,2-15.744-1.736-4.01-6.591-5.956-10.412-7.426-7.726-2.974-13.464-3.624-15.1-12.514a18.3,18.3,0,0,1,.4-8.452c-.21.657-3.632.137-4.112.1-2.014-.161-4.141-.109-6.1-.458a37.632,37.632,0,0,1,.769,9.106c-.45,6.651-4.651,9.937-10.908,11.7-5.494,1.551-12.847,3.582-14.161,10.083-1.467,7.262,7.846,14.046,10.2,20.705,3.083,8.729,2.36,17.669,1.654,26.9-.324,4.242-2.954,10.875-3.971,14.954-.717,2.876-1.51,5.733-2.242,8.606C838.18,8885.316,834.659,8906.312,834.279,8908.149Z" transform="translate(-832.85 -8781.442)" fill="#f59883"/>
        </g>
        <g id="Grupo_55900" data-name="Grupo 55900" transform="translate(61.287 38.577)">
          <path id="Trazado_107153" data-name="Trazado 107153" d="M863.805,8781.442a37.674,37.674,0,0,1,.769,9.106c.453.1.913.179,1.371.243a17.069,17.069,0,0,0,7.676-.538,18.3,18.3,0,0,1,.4-8.452c-.21.657-3.632.137-4.113.1C867.892,8781.739,865.767,8781.791,863.805,8781.442Z" transform="translate(-863.805 -8781.442)" fill="#f0836e"/>
        </g>
        <g id="Grupo_55901" data-name="Grupo 55901" transform="translate(78.233 25.737)">
          <ellipse id="Elipse_4054" data-name="Elipse 4054" cx="3.588" cy="2.978" rx="3.588" ry="2.978" transform="translate(0 7.08) rotate(-80.593)" fill="#f0836e"/>
        </g>
        <g id="Grupo_55902" data-name="Grupo 55902" transform="translate(48.331 25.975)">
          <path id="Trazado_107154" data-name="Trazado 107154" d="M853.341,8768.579c.324,1.953-.729,3.758-2.352,4.025s-3.2-1.1-3.525-3.052.729-3.76,2.352-4.029S853.017,8766.624,853.341,8768.579Z" transform="translate(-847.406 -8765.49)" fill="#f0836e"/>
        </g>
        <g id="Grupo_55903" data-name="Grupo 55903" transform="translate(50.728 6.353)">
          <path id="Trazado_107155" data-name="Trazado 107155" d="M850.441,8760.58c.085,9.239,7.694,19.925,15.844,19.925,7.866,0,15.814-11.334,15.844-19.925.039-11-7.093-19.927-15.844-19.927S850.34,8749.576,850.441,8760.58Z" transform="translate(-850.44 -8740.653)" fill="#f59883"/>
        </g>
        <g id="Grupo_55904" data-name="Grupo 55904" transform="translate(64.299 26.636)">
          <path id="Trazado_107156" data-name="Trazado 107156" d="M870.047,8774.664c5.006,0,.555-8.327,0-8.338C869.469,8766.314,864.884,8774.664,870.047,8774.664Z" transform="translate(-867.618 -8766.326)" fill="#f0836e"/>
        </g>
        <g id="Grupo_55906" data-name="Grupo 55906" transform="translate(69.326 19.63)">
          <g id="Grupo_55905" data-name="Grupo 55905">
            <path id="Trazado_107157" data-name="Trazado 107157" d="M874.493,8760.338a1.316,1.316,0,0,0,.57-.158,24.58,24.58,0,0,1,3.23-1.3,7.039,7.039,0,0,1,3.191-.267,4.42,4.42,0,0,1,1.287.455c.4.218.734.545,1.132.763a.346.346,0,0,0,.215.061c.156-.023.186-.152.17-.308-.021-.209-.156-.3-.29-.419a6.638,6.638,0,0,0-1.034-.76,7.39,7.39,0,0,0-4.568-.9,11.826,11.826,0,0,0-4.033,1.275c-.542.274-.506,1.509.115,1.554Z" transform="translate(-873.981 -8757.458)" fill="#4c2016"/>
          </g>
        </g>
        <g id="Grupo_55908" data-name="Grupo 55908" transform="translate(53.681 19.63)">
          <g id="Grupo_55907" data-name="Grupo 55907">
            <path id="Trazado_107158" data-name="Trazado 107158" d="M863.975,8760.338a1.313,1.313,0,0,1-.57-.158,24.632,24.632,0,0,0-3.229-1.3,7.053,7.053,0,0,0-3.191-.267,4.4,4.4,0,0,0-1.287.455c-.4.218-.734.547-1.132.763a.341.341,0,0,1-.215.061c-.156-.023-.186-.151-.17-.308.021-.209.156-.3.29-.419a6.466,6.466,0,0,1,1.034-.758,7.378,7.378,0,0,1,4.568-.9,11.825,11.825,0,0,1,4.033,1.275c.542.274.506,1.509-.115,1.554Z" transform="translate(-854.177 -8757.458)" fill="#4c2016"/>
          </g>
        </g>
        <g id="Grupo_55909" data-name="Grupo 55909" transform="translate(82.917 23.416)">
          <path id="Trazado_107159" data-name="Trazado 107159" d="M891.185,8762.251" transform="translate(-891.185 -8762.251)" fill="#835c3e"/>
        </g>
        <g id="Grupo_55910" data-name="Grupo 55910" transform="translate(61.388 37.151)">
          <path id="Trazado_107160" data-name="Trazado 107160" d="M864.13,8780.045a4.744,4.744,0,0,0,.622.075,5.8,5.8,0,0,0,.939-.027,5.554,5.554,0,0,0,1.24-.261,2.6,2.6,0,0,1,1.87-.036.391.391,0,0,0,.753,0,2.591,2.591,0,0,1,1.87.036,5.538,5.538,0,0,0,1.239.261,5.807,5.807,0,0,0,.939.027,4.946,4.946,0,0,0,.623-.075.155.155,0,0,1,.187.194h0a2.441,2.441,0,0,1-.165.328,4.918,4.918,0,0,1-.515.751,5.9,5.9,0,0,1-1.217,1.094,6.262,6.262,0,0,1-3.276,1.08v.006l-.06,0-.06,0v-.006a6.255,6.255,0,0,1-3.276-1.08,5.909,5.909,0,0,1-1.217-1.094,4.975,4.975,0,0,1-.516-.751,2.427,2.427,0,0,1-.165-.328h0A.154.154,0,0,1,864.13,8780.045Z" transform="translate(-863.933 -8779.636)" fill="#ef4c44"/>
        </g>
        <g id="Grupo_55912" data-name="Grupo 55912" transform="translate(70.807 24.808)">
          <g id="Grupo_55911" data-name="Grupo 55911">
            <path id="Trazado_107161" data-name="Trazado 107161" d="M883.552,8765.316c.1,1.19-1.756,2.891-3.59,3.05s-3.666-.686-4.074-1.8c-.321-.874,1.864-2.351,3.7-2.508S883.448,8764.128,883.552,8765.316Z" transform="translate(-875.856 -8764.014)" fill="#fff"/>
          </g>
        </g>
        <g id="Grupo_55917" data-name="Grupo 55917" transform="translate(71.965 23.548)">
          <g id="Grupo_55914" data-name="Grupo 55914" transform="translate(0 0)">
            <g id="Grupo_55913" data-name="Grupo 55913" transform="translate(0)">
              <circle id="Elipse_4055" data-name="Elipse 4055" cx="2.309" cy="2.309" r="2.309" transform="translate(0 4.58) rotate(-82.761)" fill="#87c1c0"/>
            </g>
          </g>
          <g id="Grupo_55916" data-name="Grupo 55916" transform="translate(1.357 1.354)">
            <g id="Grupo_55915" data-name="Grupo 55915">
              <path id="Trazado_107162" data-name="Trazado 107162" d="M881.484,8765.25a1.225,1.225,0,1,1-1.326-1.114A1.226,1.226,0,0,1,881.484,8765.25Z" transform="translate(-879.039 -8764.131)" fill="#161619"/>
            </g>
          </g>
        </g>
        <g id="Grupo_55918" data-name="Grupo 55918" transform="translate(70.682 23.145)">
          <path id="Trazado_107163" data-name="Trazado 107163" d="M879.4,8761.922a4.042,4.042,0,0,1,4.291,2.885l-.117-.044c-.093-.034-.185-.068-.274-.108-.045-.021-.09-.043-.133-.066a.457.457,0,0,1-.055-.036,6.657,6.657,0,0,0-.838-.585,1.8,1.8,0,0,0-.724-.2,4.289,4.289,0,0,0-4.351.566,7.15,7.15,0,0,0-1.45,2.23,2.329,2.329,0,0,1-.035-.25A3.973,3.973,0,0,1,879.4,8761.922Z" transform="translate(-875.697 -8761.908)" fill="#f0836e"/>
        </g>
        <g id="Grupo_55919" data-name="Grupo 55919" transform="translate(70.74 24.159)">
          <path id="Trazado_107164" data-name="Trazado 107164" d="M875.771,8766.755a3.7,3.7,0,0,0,.089-.518,4.024,4.024,0,0,1,.18-.573,3.62,3.62,0,0,1,.6-1,4.331,4.331,0,0,1,2.155-1.332,4.424,4.424,0,0,1,3.1.328c.57.289,1.071.7,1.638.993a2.3,2.3,0,0,0,1.844.234,2.64,2.64,0,0,1-2.014.376,16.541,16.541,0,0,1-2.2-.985,4.485,4.485,0,0,0-5.153,1.989A4.681,4.681,0,0,0,875.771,8766.755Z" transform="translate(-875.771 -8763.192)" fill="#161619"/>
        </g>
        <g id="Grupo_55921" data-name="Grupo 55921" transform="translate(54.888 24.808)">
          <g id="Grupo_55920" data-name="Grupo 55920">
            <path id="Trazado_107165" data-name="Trazado 107165" d="M855.71,8765.318c-.1,1.188,1.757,2.889,3.591,3.048s3.665-.686,4.074-1.8c.32-.874-1.865-2.351-3.7-2.508S855.814,8764.128,855.71,8765.318Z" transform="translate(-855.706 -8764.014)" fill="#fff"/>
          </g>
        </g>
        <g id="Grupo_55926" data-name="Grupo 55926" transform="translate(56.403 23.883)">
          <g id="Grupo_55923" data-name="Grupo 55923">
            <g id="Grupo_55922" data-name="Grupo 55922">
              <path id="Trazado_107166" data-name="Trazado 107166" d="M857.632,8764.951a2.309,2.309,0,1,0,2.5-2.1A2.307,2.307,0,0,0,857.632,8764.951Z" transform="translate(-857.623 -8762.842)" fill="#87c1c0"/>
            </g>
          </g>
          <g id="Grupo_55925" data-name="Grupo 55925" transform="translate(1.084 1.084)">
            <g id="Grupo_55924" data-name="Grupo 55924">
              <path id="Trazado_107167" data-name="Trazado 107167" d="M859,8765.332a1.225,1.225,0,1,0,1.326-1.113A1.226,1.226,0,0,0,859,8765.332Z" transform="translate(-858.995 -8764.214)" fill="#161619"/>
            </g>
          </g>
        </g>
        <g id="Grupo_55927" data-name="Grupo 55927" transform="translate(54.722 23.146)">
          <path id="Trazado_107168" data-name="Trazado 107168" d="M859.786,8761.923a4.039,4.039,0,0,0-4.291,2.884c.043-.017.095-.035.117-.042.092-.036.184-.07.274-.11.045-.021.09-.042.133-.066a.4.4,0,0,0,.055-.036,6.7,6.7,0,0,1,.838-.585,1.807,1.807,0,0,1,.725-.2,4.287,4.287,0,0,1,4.35.567,7.116,7.116,0,0,1,1.45,2.229,2.311,2.311,0,0,0,.035-.25A3.97,3.97,0,0,0,859.786,8761.923Z" transform="translate(-855.495 -8761.909)" fill="#f0836e"/>
        </g>
        <g id="Grupo_55928" data-name="Grupo 55928" transform="translate(53.053 24.159)">
          <path id="Trazado_107169" data-name="Trazado 107169" d="M862.985,8766.755a3.643,3.643,0,0,1-.088-.518,4.083,4.083,0,0,0-.181-.573,3.585,3.585,0,0,0-.6-.994,4.316,4.316,0,0,0-2.155-1.335,4.424,4.424,0,0,0-3.1.328c-.57.289-1.07.7-1.638.993a2.3,2.3,0,0,1-1.845.234,2.642,2.642,0,0,0,2.014.376,16.541,16.541,0,0,0,2.2-.985,4.485,4.485,0,0,1,5.153,1.989A4.808,4.808,0,0,1,862.985,8766.755Z" transform="translate(-853.382 -8763.192)" fill="#161619"/>
        </g>
        <g id="Grupo_55938" data-name="Grupo 55938" transform="translate(0 63.308)">
          <g id="Grupo_55929" data-name="Grupo 55929" transform="translate(10.275)">
            <path id="Trazado_107170" data-name="Trazado 107170" d="M814.725,8867.258q1.377-3.51,2.532-7.1c2-6.2,4.394-12.778,5.159-19.238a135.048,135.048,0,0,1,3.407-19.037c.961-3.589,2.738-9.442,7.692-9.128,2.846.182,5.2,2.469,6.139,5.043a16.618,16.618,0,0,1,.36,8.067,83.407,83.407,0,0,1-5.044,19.146c-2.3,5.739-3.255,11.992-5.644,17.777a114.305,114.305,0,0,1-9.761,18.527c-1.922,2.964-4,5.824-6.143,8.645-1.914,2.515-3.855,4.488-4.117,7.812a14.752,14.752,0,0,1-8.1-.081,2.043,2.043,0,0,1-1.171-3.691A128.045,128.045,0,0,0,814.725,8867.258Z" transform="translate(-799.234 -8812.747)" fill="#f59883"/>
          </g>
          <g id="Grupo_55937" data-name="Grupo 55937" transform="translate(0 78.413)">
            <g id="Grupo_55930" data-name="Grupo 55930" transform="translate(0 7.517)">
              <path id="Trazado_107171" data-name="Trazado 107171" d="M786.338,8929.853a.9.9,0,0,0-.1.491c.07.421.694.563,1.08.354a2.273,2.273,0,0,0,.795-1,10.612,10.612,0,0,1,2.778-3.262,16.868,16.868,0,0,0,2.5-2.011,2.65,2.65,0,0,0,.57-2.909A17.326,17.326,0,0,0,786.338,8929.853Z" transform="translate(-786.228 -8921.518)" fill="#f59883"/>
            </g>
            <g id="Grupo_55931" data-name="Grupo 55931" transform="translate(2.223)">
              <path id="Trazado_107172" data-name="Trazado 107172" d="M804.209,8922.763a8.812,8.812,0,0,0,2.248-2.858,5.715,5.715,0,0,0,.009-3.506c-.322-1.215-1.005-3.257-2.091-4.006-1.029-.709-2.72-.337-3.708.2-2.348,1.284-4.046,4-5.8,5.917a24.442,24.442,0,0,0-4.537,7.119c-.885,2.13-1.636,4.336-1.123,6.65a5.31,5.31,0,0,0,1.064,2.251c.259.312.314.357.338.73a3.717,3.717,0,0,0,0,.721,1.592,1.592,0,0,0,.633.9c.728.51,1.6-.187,1.995-.752.324-.462.239-.623.9-.65a1.719,1.719,0,0,0,1.323-.514,11.35,11.35,0,0,0,1.931-3.146A39.257,39.257,0,0,1,804.209,8922.763Z" transform="translate(-789.042 -8912.002)" fill="#f59883"/>
            </g>
            <g id="Grupo_55932" data-name="Grupo 55932" transform="translate(14.876 2.646)">
              <path id="Trazado_107173" data-name="Trazado 107173" d="M807.206,8925.478c-.363-1.272-1.222-2.372-1.706-3.609a6.5,6.5,0,0,1-.042-4.6,2.572,2.572,0,0,1,2.227-1.913,2.809,2.809,0,0,1,2.116,1.658,9.71,9.71,0,0,1,.905,7.368c-.382,1.344-1.064,2.726-.652,4.067a11.849,11.849,0,0,1,.412,1.162,1.023,1.023,0,0,1-.374,1.092,1.231,1.231,0,0,1-1.35-.269C807.361,8929.261,807.69,8927.175,807.206,8925.478Z" transform="translate(-805.058 -8915.352)" fill="#f59883"/>
            </g>
            <g id="Grupo_55934" data-name="Grupo 55934" transform="translate(3.729 12.352)">
              <g id="Grupo_55933" data-name="Grupo 55933">
                <path id="Trazado_107174" data-name="Trazado 107174" d="M790.948,8938.274l.161.021a23.55,23.55,0,0,1,4.148-10.569l-.134-.087A23.711,23.711,0,0,0,790.948,8938.274Z" transform="translate(-790.948 -8927.639)" fill="#f0836e"/>
              </g>
            </g>
            <g id="Grupo_55936" data-name="Grupo 55936" transform="translate(6.59 13.402)">
              <g id="Grupo_55935" data-name="Grupo 55935">
                <path id="Trazado_107175" data-name="Trazado 107175" d="M794.57,8939.272l.209-.113-.018-.031.017,0a38.2,38.2,0,0,1,4.655-10.084l-.138-.082a38.35,38.35,0,0,0-4.672,10.125Z" transform="translate(-794.57 -8928.967)" fill="#f0836e"/>
              </g>
            </g>
          </g>
        </g>
        <path id="Trazado_107176" data-name="Trazado 107176" d="M840.911,8842.547v0a10.435,10.435,0,0,0,.791,2.6,12.667,12.667,0,0,0,5.011,5.532c2.421,1.472,5.835.94,8.9-.173a22.621,22.621,0,0,1,14.783-.192c5.055,1.662,10.129.707,15.22-.393.36-.079.381.179.713-.079.231-.179.419-.911.547-1.187q.5-1.072,1.008-2.149,1.014-2.165,2.031-4.329c.025-.055.051-.11.077-.163-.006.009-.02.013-.044.011a12.718,12.718,0,0,1-2.036-1c-.112-.064-.19-.11-.219-.13a8.471,8.471,0,0,1-1.735-1.91c-.1-.129-.2-.262-.306-.391-2.032-2.615-4.095-5.395-7.416-6.283a12.791,12.791,0,0,0-10.041,1.757,12.931,12.931,0,0,0-4.289,4.439,1.289,1.289,0,0,1-2.219.027,12.921,12.921,0,0,0-4.336-4.259c-5.471-3.327-12.287-2.353-15.227,2.176A8.531,8.531,0,0,0,840.911,8842.547Z" transform="translate(-797.685 -8753.469)" fill="#c0dee1"/>
        <path id="Trazado_107177" data-name="Trazado 107177" d="M841.945,8847.565a12.684,12.684,0,0,0,5.011,5.532c2.421,1.473,5.835.94,8.9-.173a22.64,22.64,0,0,1,14.783-.193c5.055,1.663,10.129.708,15.22-.392.36-.079.381.179.713-.079.231-.179.419-.911.547-1.186q.5-1.075,1.008-2.15,1.014-2.164,2.031-4.329c.025-.054.051-.11.077-.163-.006.01-.02.013-.044.011a12.792,12.792,0,0,1-2.036-.994,36.992,36.992,0,0,1-6.624,4.234c-4.265,2.055-9.312,2.937-13.768,1.337-1.8-.648-3.544-1.7-5.455-1.628-1.792.062-3.377,1.095-5.016,1.821a15.614,15.614,0,0,1-11.428.434A15.33,15.33,0,0,1,841.945,8847.565Z" transform="translate(-797.928 -8755.887)" fill="#86bec4"/>
        <g id="Grupo_55941" data-name="Grupo 55941" transform="translate(68.052 145.132)">
          <g id="Grupo_55939" data-name="Grupo 55939" transform="translate(0.184)">
            <path id="Trazado_107178" data-name="Trazado 107178" d="M878.589,9079.52q9.518-2.991,18.915-6.352a4.739,4.739,0,0,0,2.41-1.466c1-1.4.232-3.326-.436-4.915q-.358-.851-.656-1.714c-2.692-7.705-2.009-15.892-.349-23.792,1.875-8.924,5.1-17.7,5.032-26.82-.069-8.63-3.094-16.943-4.286-25.492-1.38-9.879-.293-19.92.795-29.839q1.664-15.158,3.327-30.319c.536-4.879-1.631-8.154-5.919-10.543s-9.57-2.344-14.327-1.137c-3.716.945-7.514,2.789-9.277,6.194-1.383,2.671-1.282,5.834-1.131,8.837a621.566,621.566,0,0,0,7,67.431q2.991,18.655,5.98,37.306c.6,3.724.8,7.574,1.317,11.317a58.778,58.778,0,0,1,.991,8.164A20.665,20.665,0,0,1,886.6,9064a23.58,23.58,0,0,1-3.113,5.551,40.374,40.374,0,0,1-5.785,6.131C875.4,9077.705,874.2,9080.9,878.589,9079.52Z" transform="translate(-872.602 -8916.319)" fill="#f59883"/>
          </g>
          <g id="Grupo_55940" data-name="Grupo 55940" transform="translate(0 9.515)">
            <path id="Trazado_107179" data-name="Trazado 107179" d="M879.109,9076.907a.425.425,0,0,0,.256-.123l3.445-3.46a10.878,10.878,0,0,0,1.945-2.648,32.213,32.213,0,0,0,3.474-14.165c.082-4.969-2.637-21.489-5.785-40.616-1.371-8.328-2.788-16.939-4.11-25.408-4.338-27.782-5.088-61.36-5.1-61.7a.434.434,0,0,0-.867.018c.006.336.758,33.975,5.105,61.812,1.323,8.473,2.741,17.086,4.111,25.416,3.142,19.086,5.855,35.571,5.774,40.461a31.313,31.313,0,0,1-3.376,13.777,9.993,9.993,0,0,1-1.79,2.439l-3.444,3.458a.433.433,0,0,0,.359.736Z" transform="translate(-872.369 -8928.365)" fill="#f0836e"/>
          </g>
        </g>
        <path id="Trazado_107180" data-name="Trazado 107180" d="M840.183,8907.977a42.307,42.307,0,0,1,16.792,8.991,34.288,34.288,0,0,1,7.839,9.844c4.109-4.974,7.374-10,12.672-13.682,4.9-3.405,10.956-5.555,16.827-4.785-.829-3.44-1.879-6.866-3.014-10.335q-3.176.781-6.392,1.377a116.292,116.292,0,0,1-42.482-.018C841.708,8902.246,840.915,8905.1,840.183,8907.977Z" transform="translate(-797.558 -8767.342)" fill="#c0dee1"/>
        <path id="Trazado_107181" data-name="Trazado 107181" d="M861.438,8916.968a34.287,34.287,0,0,1,7.839,9.844c4.109-4.974,7.374-10,12.672-13.682,4.9-3.405,10.956-5.555,16.827-4.785-.83-3.44-1.879-6.866-3.014-10.335q-3.176.781-6.392,1.377a31.8,31.8,0,0,1-27.932,17.581Z" transform="translate(-802.021 -8767.342)" fill="#86bec4"/>
        <g id="Grupo_55942" data-name="Grupo 55942" transform="translate(64.23 126.252)">
          <path id="Trazado_107182" data-name="Trazado 107182" d="M869.459,8894.3c.03,0,.06,0,.09,0a2.19,2.19,0,0,0,1.856-1.26.434.434,0,1,0-.792-.355,1.275,1.275,0,0,1-2.271.1.434.434,0,0,0-.755.43A2.2,2.2,0,0,0,869.459,8894.3Z" transform="translate(-867.53 -8892.421)" fill="#f0836e"/>
        </g>
        <path id="Trazado_107183" data-name="Trazado 107183" d="M887.329,8769.78c.178-6.066-.043-12.261-2.074-17.979s-6.116-10.958-11.781-13.132-12.9-.6-16.235,4.472c4.241,5.352,10.605,8.471,16.453,12S885.394,8763.229,887.329,8769.78Z" transform="translate(-801.14 -8733.685)" fill="#4c2016"/>
        <path id="Trazado_107184" data-name="Trazado 107184" d="M862.762,8742.213a43.52,43.52,0,0,0-13.123,17.345,23.165,23.165,0,0,1,10.036-21.864,6.193,6.193,0,0,1,2.832-1.166,2.577,2.577,0,0,1,2.581,1.329,2.675,2.675,0,0,1-.394,2.527A8.937,8.937,0,0,1,862.762,8742.213Z" transform="translate(-799.506 -8733.431)" fill="#4c2016"/>
      </g>
      <g id="Grupo_55950" data-name="Grupo 55950" transform="translate(201.011 83.47)">
        <g id="Grupo_55945" data-name="Grupo 55945" transform="translate(12.377 43.945)">
          <path id="Trazado_107185" data-name="Trazado 107185" d="M869.427,8910.56a39.065,39.065,0,0,1-15.891-3.22,34.544,34.544,0,0,1-14.524-11.624,1.185,1.185,0,0,1,2-1.276h0a32.841,32.841,0,0,0,13.6,10.783c12.146,5.3,27.219,3.479,43.591-5.275a1.184,1.184,0,1,1,1.117,2.089C887.432,8908.395,877.471,8910.56,869.427,8910.56Z" transform="translate(-838.825 -8893.894)" fill="#5c9bcf"/>
          <g id="Grupo_55944" data-name="Grupo 55944" transform="translate(47.847 1.964)">
            <path id="Trazado_107186" data-name="Trazado 107186" d="M908.854,8913.645l-2.229-.812,4.008-10.976-11.242-3.2.651-2.281,13.691,3.895Z" transform="translate(-899.391 -8896.38)" fill="#5c9bcf"/>
          </g>
        </g>
        <g id="Grupo_55947" data-name="Grupo 55947">
          <path id="Trazado_107187" data-name="Trazado 107187" d="M884.446,8858.177a1.182,1.182,0,0,1-1-.545h0a32.856,32.856,0,0,0-13.6-10.785c-12.146-5.3-27.22-3.479-43.593,5.277a1.184,1.184,0,1,1-1.117-2.088c21.595-11.55,36.816-9.259,45.783-5.3a34.561,34.561,0,0,1,14.526,11.625,1.184,1.184,0,0,1-1,1.82Z" transform="translate(-823.442 -8838.951)" fill="#5c9bcf"/>
          <g id="Grupo_55946" data-name="Grupo 55946">
            <path id="Trazado_107188" data-name="Trazado 107188" d="M828.037,8838.269l2.229.811-4.008,10.977,11.242,3.2-.651,2.279-13.69-3.895Z" transform="translate(-823.158 -8838.269)" fill="#5c9bcf"/>
          </g>
        </g>
        <g id="Grupo_55949" data-name="Grupo 55949" transform="translate(64.738 0.066)">
          <path id="Trazado_107189" data-name="Trazado 107189" d="M931.2,8892.119a1.184,1.184,0,0,1-1.095-.729c-.126-.3-12.687-30.575-16.867-49.911a1.185,1.185,0,0,1,2.316-.5c4.136,19.133,16.613,49.205,16.739,49.506a1.184,1.184,0,0,1-1.093,1.64Z" transform="translate(-906.806 -8838.705)" fill="#d4145a"/>
          <g id="Grupo_55948" data-name="Grupo 55948">
            <path id="Trazado_107190" data-name="Trazado 107190" d="M923.984,8846.309l-1.325,1.969-9.687-6.538-5.812,10.141L905.1,8850.7l7.081-12.346Z" transform="translate(-905.104 -8838.352)" fill="#d4145a"/>
          </g>
        </g>
      </g>
    </g>
  </g>
</svg>
