<svg xmlns="http://www.w3.org/2000/svg" width="663.94" height="629.374" viewBox="0 0 663.94 629.374">
  <g id="Grupo_55293" data-name="Grupo 55293" transform="translate(-357.804 -102.287)">
    <path id="Trazado_104947" data-name="Trazado 104947" d="M400.935,294.673q-3.025,13.539-6.058,27.075c-.658,2.915-1.252,5.855-2.121,8.709-2.988,9.824-4.492,19.707-3.115,30.053,2.016,15.14-.68,29.843-4.885,44.386a167.385,167.385,0,0,0-3.851,18.048,17.911,17.911,0,0,0,2.9,13.729c2.212,3.284,3.051,7.553,4.21,11.47a99.713,99.713,0,0,1,3.153,13.049c.269,1.755-.951,3.739-1.493,5.618-1.925-.9-4.675-1.306-5.586-2.818-1.484-2.463-1.609-5.709-2.636-8.5-.416-1.131-1.693-1.945-2.578-2.9-.639,1.042-1.783,2.06-1.834,3.13-.322,6.883.893,13.216,6.61,18.013a26.752,26.752,0,0,1,4.978,6.093,2.554,2.554,0,0,1-3.453,3.531c-3.954-1.68-7.781-3.655-11.691-5.443-7.256-3.317-10.3-9.249-11.386-16.881-.692-4.835-2.712-9.468-3.645-14.287a18.892,18.892,0,0,1,.49-7.226c1.084-5.155,3.479-10.244,3.5-15.369.054-11.137-.822-22.3-1.757-33.412-.506-6.021-2.469-11.936-2.778-17.951a65.529,65.529,0,0,1,2.719-23.482c3.105-9.892,3.345-20.439,2.7-31.121-.716-11.832.395-23.907,1.97-35.709,1.468-11,4.819-21.74,6.93-32.673,2.932-15.188,12.082-24.152,26.587-28.635,9.673-2.99,19.4-6.121,28.539-10.39,4.7-2.2,8.779-6.557,12.023-10.794,2.876-3.758,1.919-7.792-.5-12.705-4.36-8.837-10.874-16.648-13.255-26.48-.927-3.826-1-7.086,2.422-9.935.963-.8,1-3.02,1.025-4.6.138-7.813-.946-15.835.5-23.381,1.273-6.632,5.861-12.469,11.877-16.237,8.049-5.041,17.3-4.916,26.068-3.545,10.218,1.6,24.746,12.042,23.2,25.233-.745,6.37-.092,12.91.029,19.371a6.1,6.1,0,0,0,.9,3.24,15.364,15.364,0,0,1-2.117,20.277,16.278,16.278,0,0,0-3.091,4.369c-2.448,4.836-5.248,9.591-6.876,14.706a13.264,13.264,0,0,0,.777,9.281c3.353,6.353,8.782,10.433,15.892,12.732,10.9,3.526,21.71,7.469,32.277,11.9,12.445,5.221,17.544,16.013,20.013,28.532,2.349,11.912,5.555,23.691,7.222,35.69,1.34,9.644.891,19.532,1.334,29.307.449,9.928.091,20.01,1.76,29.738a146.567,146.567,0,0,1,1.148,39.274c-1.244,12.908-1.823,25.887-2.384,38.848-.134,3.079,1.207,6.194,1.444,9.325a133.8,133.8,0,0,1,.508,15.3c-.134,3.456-1.725,6.872-1.752,10.313-.076,9.528-5.526,14.9-13.412,18.614-3.152,1.484-6.345,2.9-9.6,4.121a3.568,3.568,0,0,1-3.114-.326,3.22,3.22,0,0,1-.327-3.085,29.033,29.033,0,0,1,4.912-6.156c5.48-4.882,7.166-11.075,6.63-18.034-.088-1.148-1.478-2.195-2.267-3.289-.851,1.045-2.068,1.964-2.48,3.161-1.013,2.938-1.131,6.314-2.657,8.894-.817,1.382-3.8,1.483-5.807,2.162-.336-1.781-1.2-3.654-.91-5.325.909-5.224,2.21-10.383,3.45-15.545.537-2.239.669-4.991,2.063-6.537,6.344-7.032,5.455-14.9,3.5-23.065-1.9-7.931-3.411-15.966-5.613-23.809-3.18-11.327-2.758-22.78-1.8-34.243a72.772,72.772,0,0,0-2.672-25.656c-2.634-9.622-4.321-19.5-6.537-29.24-.6-2.647-1.624-5.2-2.454-7.793l-1.394-.007a20.8,20.8,0,0,0-1.486,3.813c-2.824,15.73-6.112,31.421-4.141,47.582a30.652,30.652,0,0,1-.138,6.489c-1.031,11.049.487,21.478,3.521,32.381,3.974,14.277,5.686,29.426,6.433,44.3a505.74,505.74,0,0,1-.411,57.421c-.9,14.043-3.518,28.1-6.718,41.839a125.877,125.877,0,0,0-1.833,50.578c3.149,18.187.69,35.678-3.757,53.358-4.864,19.341-8.57,38.981-12.505,58.546-1.945,9.674-.169,18.471,7.454,25.611a20.417,20.417,0,0,1,4.514,7.089,4.972,4.972,0,0,1-4.7,6.912c-8.99.172-17.984.048-26.974.218-3.943.075-4.626-2.868-5.269-5.5a33.542,33.542,0,0,1-.824-8.429c.147-8.778-.081-17.62.906-26.315a209.966,209.966,0,0,0-1.487-56.766c-1.78-11.274-2.342-22.517.717-33.715.919-3.365,1.183-6.907,2.055-10.289,3.226-12.521,3.735-24.639-1.192-37.18-2.65-6.745-2.691-14.645-3.21-22.072-1.4-20.072-2.423-40.171-3.6-60.258-.313-5.32-.344-10.687-1.159-15.931-.3-1.929-2.493-3.563-3.823-5.332-1.226,1.854-3.354,3.624-3.537,5.576q-2.488,26.6-4.334,53.256a151.3,151.3,0,0,0,.1,15.487c.372,11.578-.255,23.123-4.6,33.924-4.053,10.081-2.916,19.847-.525,29.876,1.465,6.146,3.339,12.344,3.636,18.584.464,9.757.631,19.687-.656,29.333a243.885,243.885,0,0,0-.836,58.78c1.045,9.686.524,19.6.046,29.37-.327,6.693-2.208,7.622-8.926,7.445-7.156-.19-14.329.173-21.477-.124-2.149-.09-5.4-1.057-6.073-2.553-.893-1.994-.439-5.263.666-7.325a46.5,46.5,0,0,1,6.963-9.069c3.718-4.06,4.291-8.954,4.042-13.993-.932-18.926-5.51-37.22-10.518-55.348-6.272-22.7-10.25-45.287-5.57-68.976,3.382-17.12.188-34.182-3.879-50.963-7.506-30.964-7.357-62.442-5.853-93.933.753-15.767,1.435-31.747,7.289-46.694,2.9-7.395,3.542-14.8,3.234-22.512-.214-5.326-.813-10.715-.274-15.977,1.611-15.735-2.311-30.8-4.914-46.032a17.009,17.009,0,0,0-1.2-3.148Z" fill="#8c757e"/>
    <path id="Trazado_104948" data-name="Trazado 104948" d="M880.027,292.594c-.807,2.949-1.483,4.427-1.584,5.943-.888,13.291-2.152,26.582-2.352,39.887-.2,12.942-4.146,24.88-7.925,36.938-4.322,13.789-9.409,27.381-12.877,41.378a33.512,33.512,0,0,0,3.643,25.1c2.019,3.553,2.006,8.589,1.9,12.927-.1,4.264-1.327,8.54-2.412,12.72-.336,1.292-1.827,2.283-2.789,3.412-.723-1.318-1.889-2.583-2.057-3.969-.214-1.758.527-3.61.584-5.43a35.734,35.734,0,0,0-.554-4.917c-4.478,3.8-5.268,12.538-2.03,17.3,1.391,2.045,3.317,3.722,4.748,5.745a15.645,15.645,0,0,1,1.43,3.8c-1.412.206-2.966.9-4.212.535a18.6,18.6,0,0,1-12.23-10.21c-4.708-10.2-4.538-21.014-3.67-31.877,1.34-16.765,2.491-33.55,4.131-50.286q2.6-26.557,5.993-53.036c3.484-27.565,9.623-54.808,9.031-82.853-.257-12.123,7.744-20.581,19.555-23.856a299.2,299.2,0,0,0,29.586-10.237c7.883-3.107,10.162-15.184,4.826-21.71-2.506-3.066-4.284-6.716-6.523-10.013-2.49-3.666-5.469-7.044-7.592-10.9-1.634-2.969-2.246-6.495-3.364-9.755-1.31-3.825-.362-6.564,3.086-9,1.194-.843,1.35-3.614,1.415-5.524a44,44,0,0,1,7.6-22.9,12.281,12.281,0,0,1,2.889-3.386c5.112-3.629,9.554-7.372,11.964-13.779.976-2.592,6.427-4.8,9.875-4.848,4.808-.07,8.3,3.5,10.168,8.312.846,2.174,2,4.914,3.825,5.907,8.91,4.848,12.433,13.108,14.852,22.112.9,3.354,1.07,6.9,1.665,10.343a12.125,12.125,0,0,0,1.115,3.747c1.053,1.921,3.519,3.775,3.382,5.5-.323,4.059-1.059,8.458-3.021,11.934a242.094,242.094,0,0,1-13.612,20.655c-7.272,10.263-4.747,20.074,7.14,24.707,9.1,3.549,18.452,6.561,27.851,9.252,10.2,2.92,18.09,12.131,17.741,22.652-.636,19.113,2.157,37.865,5.288,56.6,6.073,36.328,10.428,72.826,11.919,109.663.386,9.547,2.222,19.028,3.1,28.565.825,8.936-.634,17.628-5.579,25.184-2.175,3.322-5.62,6.03-8.992,8.252-1.489.98-4.231.058-6.4,0,.783-1.692,1.124-3.93,2.424-4.987,7.166-5.825,5.522-13.251,4.161-20.665-.091-.5-.853-.868-2.323-2.272-.334,2.939-.719,4.878-.73,6.818-.012,2.154.521,4.322.4,6.46a3.11,3.11,0,0,1-1.886,2.334,3.029,3.029,0,0,1-2.4-1.794c-1.487-10.258-6.235-20.067.458-30.864,6.045-9.752,3.636-20.974.12-31.513q-7.105-21.3-14.27-42.578c-3.136-9.266-3.924-18.769-4.2-28.522-.37-13.288-1.833-26.547-2.9-39.813-.069-.854-.729-1.659-1.847-4.066-2.254,5.83-4.352,10.23-5.672,14.851-5.458,19.115-8.193,38.665-3.257,58.124,2.41,9.5,7.683,18.358,12.187,27.24,10.125,19.967,13.828,41.065,10.362,63.032-2.33,14.764-6.5,29.228-9.5,43.9-2.868,14.025-5.224,28.154-7.917,42.215-2.15,11.232,1.735,21.839,3.484,32.6,3.055,18.777,1.023,37.139-2.263,55.607-3.936,22.127-7.5,44.323-10.977,66.528-1.6,10.241,3.248,18.336,9.7,25.708a12.771,12.771,0,0,1,2.49,3.682c1.248,3.321-.539,6.13-3.966,6.187-7.829.13-15.67.28-23.484-.076-1.412-.064-3.785-2.421-3.889-3.852-.493-6.76-1.614-13.844-.192-20.3,3.756-17.061,1.969-33.833-.649-50.655-1.588-10.2-3.855-20.294-5.573-30.476-2.263-13.406-.366-26.579,2.989-39.566A83.433,83.433,0,0,0,942.75,552.7c-1.656-10.84-4.394-21.519-6.753-32.247-3.806-17.315-6.6-34.715-4.255-52.5.519-3.945,1.775-7.79,2.391-11.728.163-1.038-.709-3.179-1.25-3.228a34.213,34.213,0,0,0-8.231.282c-.463.071-1.158,2.422-.812,3.385,5.206,14.486,3.844,29.413,1.881,44.016-2.012,14.967-5.954,29.675-9.064,44.494-3.531,16.819-2.3,33.353,1.928,49.965,3.206,12.594,1.948,25.449-.06,38.216-2.534,16.109-5.352,32.211-6.862,48.426-.74,7.958,1.346,16.156,1.872,24.264a180.036,180.036,0,0,1,.47,19.413c-.167,3.87-1.965,6.544-7.07,6.074-6.607-.607-13.321.04-19.976-.21-1.672-.062-4.058-1.091-4.723-2.389s-.081-3.783.785-5.261a70.853,70.853,0,0,1,5.941-8c5.229-6.58,6.593-14.091,5.208-22.166-4.164-24.286-8.7-48.513-12.553-72.847-3.041-19.2-3.387-38.472,1.373-57.558,2.681-10.748,1.941-21.607-.046-32.264-2.96-15.867-6.727-31.582-10.012-47.391-2.3-11.055-4.99-22.079-6.393-33.257-2.715-21.64,2.111-41.973,12.238-61.21a227.245,227.245,0,0,0,10.53-22.567c4.025-10.237,2.3-21.068,1.994-31.682a106.087,106.087,0,0,0-7.833-36.432C882.841,296.716,881.711,295.344,880.027,292.594Z" fill="#8c757e"/>
    <path id="Trazado_104949" data-name="Trazado 104949" d="M661.406,731.369a82.672,82.672,0,0,1-9.488-.072,87.955,87.955,0,0,1-11.992-2.272c-7.121-1.859-13.74-1.994-20.859,1.19-3.578,1.6-9.063.885-12.959-.64-5.435-2.128-6.01-7.279-4.358-12.694,4.4-14.44,3.455-28.925.106-43.4-2.85-12.322-6.249-24.553-8.363-37-3.45-20.313-2.792-40.473,4.953-59.99.888-2.239.685-4.9,1.064-7.355.883-5.721,2.021-11.413,2.641-17.161a28.391,28.391,0,0,0-.427-9.3c-3.444-14.818-6.449-29.714-4.841-44.99a129.453,129.453,0,0,1,4.492-22.976c2.379-8.063.4-15.031-2.982-22.1-4.606-9.633-8.609-19.415-9.147-30.345-.554-11.256,4.286-20.784,9.439-30.06a38.335,38.335,0,0,0,5.205-18.867c.3-26.97-6.171-52.414-16.389-77.115-7.313-17.68-11.669-35.873-7.477-55.036a52.132,52.132,0,0,1,6.047-14.578c3.9-6.752,8.532-13.089,12.911-19.562,7.1-10.489,5.578-24.9-1.831-35.092-8.35-11.487-11.885-24.706-9.521-39.217,2.375-14.576,11.952-21.98,24.628-27.453a35.072,35.072,0,0,1,21.893-2.093c8.742,2.006,18.886,5.8,21.594,14.908,2.527,8.5,7.157,16.282,8.375,25.1a15.962,15.962,0,0,1-.9,8.28c-1.99,4.474-.908,8.026,1.687,11.614,1.167,1.613,2.254,3.287,3.314,4.973,1.443,2.3,1.132,4.238-1.588,5.135-3.32,1.1-3.466,3.185-3.031,6.262.345,2.445-.55,5.068-.908,7.61a70.256,70.256,0,0,0-1.06,7.734c-.112,4.034-1.69,6.493-5.961,6.142a56.517,56.517,0,0,1-10.291-1.6c-5.323-1.46-5.788-1.307-5.9,4.015a6.036,6.036,0,0,1-.194,2.469c-3.414,6.628.006,10.374,4.909,14.634,15.5,13.47,28.41,29.143,35.471,48.7,1.6,4.437.412,9.909.372,14.9-.024,2.916-.529,5.836-.442,8.742.212,7.1,1.55,14.283.8,21.256-1.553,14.38-4.22,28.637-6.314,42.961a28.141,28.141,0,0,0-.152,7.457c1.848,14.914,1.072,29.725-3.328,44.027-3.037,9.87-3.112,19.741-2.257,29.649,1.5,17.37-1.062,34.225-5.416,50.871-3.829,14.638-8.212,29.13-12.35,43.686a2.658,2.658,0,0,1-.119.484,42.439,42.439,0,0,0-4.113,28.177c.923,5.022-2.924,10.889-4.472,16.414a45.34,45.34,0,0,0-1.949,8.995c-.728,10.764-.559,21.622-1.86,32.307-1.87,15.357-5.02,30.553-7.105,45.889-3.509,25.819,7.014,42.778,29.474,52.3,5.236,2.22,11.233,2.681,16.907,3.818,2.87.574,7.32.29,6.658,4.049-.429,2.431-4.358,5.448-7.151,5.994-4.974.974-10.276.274-15.441.274Z" fill="#8c757e"/>
    <path id="Trazado_104950" data-name="Trazado 104950" d="M747.283,204.325c-1.833,0-3.666-.011-5.5,0-4.406.031-6.524-1.652-5.525-6.468.326-1.573-.688-3.395-.948-5.125-.5-3.32-.8-6.674-1.387-9.977-.233-1.308-.667-3.046-1.617-3.681-3.958-2.647-3.712-5.053-.759-8.479,4.511-5.238,6.382-11.077,6.75-18.506.4-8.117,4.386-16.181,7.575-23.953.869-2.117,4.33-3.529,6.889-4.528,10.532-4.111,21.361-6.507,32.692-3.814,3.235.768,4.927.26,6.495-3.194,2.138-4.709,6.18-8.043,11.857-7.571,5.091.424,8.634,3.4,10.261,8.265,1.77,5.293.264,9.622-3.862,13.465-1.35,1.256-2.613,4.4-1.965,5.731,7.349,15.109,2.067,27.79-7.123,39.8a24.263,24.263,0,0,1-5.521,5.735c-12.794,8.383-10.115,19.529-5.4,29.438,3.551,7.457,9.153,13.957,12.529,21.472,8.611,19.165,10.615,38.982,3.874,59.329-3.08,9.3-6.14,18.654-8.346,28.183-3.789,16.358-4.785,33.159-1.815,49.593,1.61,8.909,6.934,17.137,10.5,25.705,3.249,7.8,7.529,15.389,9.334,23.519,3.308,14.892-2.729,27.82-11.741,39.333a19.74,19.74,0,0,0-4.573,14.714c2.168,25.239,1.777,50.505-5.987,74.741-4.249,13.263-1.425,24.7,3.243,36.552,3.994,10.142,4.668,20.6,3.923,31.419a212.21,212.21,0,0,1-10.41,53.29c-5.567,16.544-4.318,32.308,2.222,48.145,3.323,8.048-1.509,14.568-9.86,13.9-.662-.053-1.484.073-1.956-.266-10.923-7.85-21.968-2.409-33.157-.768a120.384,120.384,0,0,1-24.327.6c-2.095-.122-3.986-3.76-5.971-5.783,2.016-1.463,3.832-3.565,6.085-4.27,7.134-2.23,14.444-3.89,21.661-5.858,8.644-2.357,17.753-13,18.451-23.631a432.406,432.406,0,0,0-2.824-82.75,39.269,39.269,0,0,1-.386-6.98c.371-6.866-1.052-13.061-5.24-18.738a18.805,18.805,0,0,1-2.178-17.76c2.772-7.521.032-13.707-2.13-20.219C739.479,509.858,732.937,474.346,741,437.4c.8-3.692.666-7.6.916-11.4.967-14.765,1.473-29.577,2.988-44.285,1.593-15.465,3.349-30.707-1.337-46.059-1.655-5.424-1.32-11.528-1.417-17.329-.07-4.212-1.389-5.914-5.867-5.846-10.7.163-18.647-6.9-18.48-16.069a10.062,10.062,0,0,1,1.48-5.118q14.706-22.254,29.7-44.318a33.991,33.991,0,0,1,6.711-7.318c7.393-5.917,9.1-13.5,7.394-22.342C760.87,205.85,758.761,204.082,747.283,204.325Z" fill="#8c757e"/>
  </g>
</svg>
