<svg xmlns="http://www.w3.org/2000/svg" width="142.984" height="142.984" viewBox="0 0 142.984 142.984">
  <g id="Grupo_56511" data-name="Grupo 56511" transform="translate(-682.675 -2337.46)">
    <g id="Grupo_56432" data-name="Grupo 56432" transform="translate(682.675 2337.46)">
      <g id="BULINE">
        <circle id="Elipse_4085" data-name="Elipse 4085" cx="71.492" cy="71.492" r="71.492" fill="#86bec4"/>
      </g>
    </g>
    <g id="Grupo_56434" data-name="Grupo 56434" transform="translate(706.937 2346.948)">
      <g id="Grupo_56433" data-name="Grupo 56433">
        <path id="Trazado_124826" data-name="Trazado 124826" d="M621.231,2375.783h49.813v49.812H621.231Z" transform="translate(-621.231 -2331.135)" fill="#7ed8f6"/>
        <path id="Trazado_124827" data-name="Trazado 124827" d="M671.044,2375.783l-49.813,49.812h49.813Z" transform="translate(-621.231 -2331.135)" fill="#6aa9ff"/>
        <path id="Trazado_124828" data-name="Trazado 124828" d="M640.339,2337.881H712.29v71.952H640.339Z" transform="translate(-617.83 -2337.881)" fill="#ff8fb8"/>
        <path id="Trazado_124829" data-name="Trazado 124829" d="M712.29,2337.881l-71.951,71.952H712.29Z" transform="translate(-617.83 -2337.881)" fill="#ff5f96"/>
        <path id="Trazado_124830" data-name="Trazado 124830" d="M694.15,2349.923l-1.957-1.956L664.52,2375.64l1.957,1.957,1.955,1.957,27.674-27.674Z" transform="translate(-613.526 -2336.086)" fill="#6e61b7"/>
        <path id="Trazado_124831" data-name="Trazado 124831" d="M666.174,2377.3l27.67-27.67,1.957,1.957-27.669,27.669Z" transform="translate(-613.232 -2335.789)" fill="#54469d"/>
        <path id="Trazado_124832" data-name="Trazado 124832" d="M673.228,2347.278v5.535h16.6v16.6h5.534v-22.139Z" transform="translate(-611.977 -2336.208)" fill="#6e61b7"/>
        <path id="Trazado_124833" data-name="Trazado 124833" d="M692.858,2369.417v-22.139l-5.534,5.535v16.6Z" transform="translate(-609.468 -2336.208)" fill="#54469d"/>
      </g>
    </g>
  </g>
</svg>
