<svg xmlns="http://www.w3.org/2000/svg" width="510.495" height="682.366" viewBox="0 0 510.495 682.366"><g transform="translate(-743.039 -7841.506)"><rect width="112.15" height="30.936" rx="6.645" transform="translate(754.169 7930.461)" fill="#9e005d"/><rect width="112.15" height="30.936" rx="6.645" transform="translate(754.08 8012.325)" fill="#9e005d"/><rect width="112.15" height="30.936" rx="6.645" transform="translate(754.169 7973.812)" fill="#9e005d"/><rect width="96.019" height="30.936" rx="6.645" transform="translate(766.206 8061.347)" fill="#9e005d"/><rect width="119.886" height="30.936" rx="6.645" transform="translate(743.039 8128.793)" fill="#9e005d"/><rect width="116.305" height="30.936" rx="6.645" transform="translate(1107.347 7927.679)" fill="#9e005d"/><rect width="105.278" height="30.936" rx="6.645" transform="translate(1107.635 8025.825)" fill="#9e005d"/><rect width="116.305" height="30.936" rx="6.645" transform="translate(1109.529 7989.026)" fill="#9e005d"/><rect width="130.648" height="30.936" rx="6.645" transform="translate(1107.577 8121.867)" fill="#9e005d"/><rect width="145.957" height="30.936" rx="6.645" transform="translate(1107.577 8073.115)" fill="#9e005d"/><rect width="145.842" height="30.936" rx="6.645" transform="translate(1087.353 8221.867)" fill="#9e005d"/><rect width="169.527" height="30.936" rx="6.645" transform="translate(1066.885 8395.708)" fill="#9e005d"/><path d="M1079.986,8199.456c-.341,2.855-.1,3.173-.392,5.674a19.217,19.217,0,0,1-.652,3.718c-.342,1.105-.774,1.958-3.326,5.608a61.487,61.487,0,0,0-3.913,6,8.839,8.839,0,0,0-1.174,3.131,7.224,7.224,0,0,0,.587,3.913c.365.781.6.882.717.913.877.24,2.063-1.538,2.609-2.348,4.131-6.121,3.593-4.134,6.261-8.675a45.016,45.016,0,0,0,6-14.543,57.878,57.878,0,0,0,.978-5.738,87.739,87.739,0,0,0,.587-10.631c.013-.964.01-1.376-.065-9.065-.04-4.161-.061-6.242-.065-6.652-.057-5.478-.067-10.818-.065-17.739.005-16.515.008-24.773.065-27.066.247-9.878.561-9.905,1.174-26.934.259-7.2.4-10.988.456-16.044.12-9.879-.164-17.248-.456-25.3-.206-5.682-.442-12.024-1.044-20.413-.055-.773-.341-4.364-.913-11.544-1.159-14.557-1.193-14.808-1.3-16.826-.454-8.273-.136-8.8-.718-14.217a73.544,73.544,0,0,0-2.152-12.131,37.806,37.806,0,0,0-3.913-10.043,35.545,35.545,0,0,0-6-7.5,38.363,38.363,0,0,0-5.152-4.109c-2.5-1.68-4.49-2.651-12.587-6-7.9-3.265-9.789-3.907-13.369-5.869-4.855-2.66-2.705-2.011-5.87-3.587a6.2,6.2,0,0,1-4.3-4.7,13.417,13.417,0,0,1-.457-4.043c.054-2.13-.114-4.262-.065-6.391.119-5.217.179-7.825,0-10.827-.136-2.278.158-4.57,0-6.848a4.175,4.175,0,0,1,.13-1.434,4.8,4.8,0,0,1,1.5-2.283c1.027-.938,2.2-3.769,4.5-9.391,1.632-3.986,2.448-5.978,2.935-7.566a56.491,56.491,0,0,0,1.957-9,67.28,67.28,0,0,0,.652-9.195,43.252,43.252,0,0,0-.587-10.044,26.1,26.1,0,0,0-2.674-7.891,28.216,28.216,0,0,0-7.044-8.087,21.285,21.285,0,0,0-5.673-3.913,20.923,20.923,0,0,0-5.805-1.565,30.585,30.585,0,0,0-7.174-.131,23.3,23.3,0,0,0-5.543.783,19.307,19.307,0,0,0-6.913,3.848,28.457,28.457,0,0,0-4.826,5.348,29.407,29.407,0,0,0-5.609,10.826,35.368,35.368,0,0,0-1.3,8.021,41.3,41.3,0,0,0,.717,9.327,81.958,81.958,0,0,0,2.544,10.5c1.222,4.283,2.054,6.529,3.717,11.022,1.474,3.981,2.3,5.786,3.587,6.782a4.609,4.609,0,0,1,1.435,1.7,4.756,4.756,0,0,1,.391,2.478c-.192,2.384.066,4.786-.065,7.174-.051.929-.056,3.336-.065,8.152-.008,3.9-.012,5.844,0,6.065.141,2.709.427,4.474-.2,6.978a8.252,8.252,0,0,1-3.913,5.413,58.976,58.976,0,0,1-8.674,4.109c-4.834,2.12-4.523,2.706-8.674,4.239-1.863.688-2.765.88-5.543,1.957-1.63.631-3.311,1.283-5.218,2.217a34.51,34.51,0,0,0-8.021,5.087,29.26,29.26,0,0,0-5.218,5.935c-1.434,2.2-2.367,4.841-4.174,10.043a89.187,89.187,0,0,0-3.2,10.305,73.047,73.047,0,0,0-1.369,9.652c-.537,5.9-.462,8.932-.652,16.174-.128,4.872-.3,8.531-.652,15.848-.277,5.777-.362,6.466-.979,17.347-.64,11.3-.96,16.948-1.108,21.457-.249,7.555-.283,13.894-.261,18.457.033,7.063.2,7,.587,21.652.5,18.959.21,18.206.652,25.826.233,4.022.471,6.922.456,11.674-.015,5.279-.323,6.4-.391,12.913-.031,3.018.04,2.232.13,11.282.075,7.447.112,11.171.066,12.457-.082,2.279-.243,5.206-.066,9.392.062,1.458.107,2.459.261,3.848a43.706,43.706,0,0,0,4.761,15.521c2.539,4.8,3.457,4.308,5.8,8.739.934,1.765,2.5,3.138,3.456,4.892.169.31.574,1.077,1.174,1.108s1.105-.713,1.37-1.108a5.789,5.789,0,0,0,.913-2.936,9.614,9.614,0,0,0-.848-4.3c-.668-1.585-1.166-2-3.717-5.543a45.816,45.816,0,0,1-2.87-4.24,15.388,15.388,0,0,1-2.087-5.217c-.136-.817.024-.4.065-4.7.039-4.07.059-6.1,0-6.325-.1-.383-.383-1.342,0-1.631.291-.22.825.053.848.065.929.486.913,2.122.978,3.913,0,0,.113,3.1.652,6.978a18.593,18.593,0,0,0,1.109,4.631c.521,1.3,1.381,3.442,2.609,3.456.808.009,1.427-.908,1.7-1.3a6.674,6.674,0,0,0,.847-4.3c-.135-2.608-.183-5.22-.326-7.826-.132-2.413-.131-4.236-.13-6.392,0-1.478.023-4.24.065-7.174a23.08,23.08,0,0,0-.2-4.956,31.3,31.3,0,0,0-3.326-8.544,11.951,11.951,0,0,1-1.956-3.652,9.6,9.6,0,0,1-.261-1.239,33.328,33.328,0,0,1,.391-10.565c.148-.663.9-5.007,2.413-13.7.916-5.271.6-5.127,1.891-15.065,1.515-11.684,1.8-10.768,2.413-16.957a113.524,113.524,0,0,0,.653-19.043c-.436-7.435-1.109-12.978-1.109-12.978a50.87,50.87,0,0,1-.652-6.717c-.013-4.024.705-6.114,1.63-10.892.516-2.665.108-1.061,1.761-12.522.937-6.5,1.406-9.743,1.957-13.043,1.339-8.018,1.69-8.509,1.826-11.413.107-2.293.578-4.557.717-6.848.071-1.17.142-2.8.587-2.87.3-.048.635.615.783.913a40.478,40.478,0,0,1,3.065,8.675c.647,3.121.693,1.846,2.087,7.3,1.248,4.886,1.233,5.994,2.674,12.652,1.32,6.1,1.361,5.3,2.282,9.913.84,4.2.522,3.442,1.957,11.413a42.07,42.07,0,0,1,.848,5.935,34.709,34.709,0,0,1-.457,7.369c-.359,2.166-.792,3.593-2.934,9.914-1.332,3.926-2.022,5.9-2.544,7.434-2.164,6.343-2,6.649-4.174,13.3-2.843,8.722-3.485,9.322-4.957,15-.642,2.479-.463,2.148-1.891,8.087-1.9,7.913-2.231,8.553-2.674,11.022-.242,1.351-.549,3.422-.456,13.239.072,7.7.122,12.986.717,20.479.354,4.443.45,4.022,1.435,13.5s1.074,11.694,1.826,19.3c1.188,12.03,2.424,21.275,2.739,23.609,1.392,10.295,2.275,16.828,3.848,25.173.595,3.161,1.482,7.6,2.217,13.827.273,2.306.487,4.537.914,9,.389,4.072.718,7.5.912,10.107.41,5.478.386,9.411.327,16.5-.184,21.935-.217,20.382-.2,22.175.046,4.068.224,13.1,1.174,24.587.235,2.842.849,9.848,2.087,18.978,1.352,9.973,1.933,11.312,3.848,23.675,1.206,7.791.772,5.946,3.26,23.8,2.149,15.419,2.646,18.034,3,24.391.617,11.049-.135,16.564-.456,18.652-.353,2.3-1.279,6.053-3.131,13.564-2.672,10.841-3.466,12.586-3.978,13.631-1.754,3.584-3.035,4.779-5.543,10.108a37.942,37.942,0,0,1-2.544,5.021c-1.637,2.581-2.475,2.988-2.869,4.7a8.048,8.048,0,0,0,.913,5.479c1,1.838,2.39,2.73,4.435,4.044a19.942,19.942,0,0,0,5.543,2.478c2.274.612,4.122,1.11,6.326.456a9.221,9.221,0,0,0,3.783-2.347c1.605-1.509,2.331-3.092,3.717-6.2a25.782,25.782,0,0,0,2.217-6.261c.477-2.546.009-2.77.522-6.13a24.635,24.635,0,0,1,1.37-5.544,30.8,30.8,0,0,1,2.543-4.762c1.589-2.635,1.964-3,3.979-6.194,2.4-3.8,2.991-5.058,3.326-6.719a9.7,9.7,0,0,0,.13-3.587c-.316-1.777-1.033-2.354-2.152-4.435a26.24,26.24,0,0,1-3-11.934c-.2-7.74-.032-15.457,0-17.088.037-1.89-.006-.737,0-10.369.009-15.431.014-23.146.13-26.8.328-10.308.794-10.508,1.3-24.848.252-7.086.13-6.81.391-13.108.368-8.882.681-11.148,1.239-22.37.616-12.388.495-14.864.392-16.435-.306-4.642-.644-4.256-1.5-13.435-.541-5.8-.535-7.335-1.175-13.369-.155-1.471-.4-3.71-.717-7.044-.285-3.03-.48-5.4-.522-5.936-.471-5.983-.1-12.6.392-20.412.443-7.1.665-10.652,1.043-15.849.816-11.214,1.224-16.821,1.7-21.391,1.15-11.146,1.782-12.349,2.869-24,.8-8.6.906-12.742.914-15.652.021-8.234-.7-14.882-1.566-17.283-.471-1.3-.515-2.737-.978-4.043-.177-.5-.508-1.361-.131-1.761.173-.183.447-.221.914-.2a8.207,8.207,0,0,1,2.413.587,6.255,6.255,0,0,0,3.782,0c.706-.265,1.166-.416,2.087-.717.531-.174.785-.25.913-.13.214.2-.24.795-.717,2.086,0,0-.161.434-.392,1.24a11.265,11.265,0,0,0-.391,3.326c.033,3.153-.341,6.3-.261,9.456.263,10.309-.1,9.625.261,17.413.256,5.6.619,9.826.848,12.457.681,7.824,1.514,14.183,1.826,16.5.557,4.129.815,5.474,1.37,10.043.109.9.52,4.319.978,9.065.522,5.415.845,8.761,1.044,12.914.234,4.91-.014,4.477.13,14.607.109,7.687.257,8.255.13,11.87-.078,2.249-.358,5.313-.913,11.349-.9,9.726-1.344,14.605-1.435,15.456-1.07,10.032-1.344,9.634-1.7,14.8a150.885,150.885,0,0,0-.2,15.131c.128,3.662.271,4.119,1.174,15.13.663,8.076.994,12.113,1.305,17.349.235,3.978.544,9.182.652,15.718.167,10.178-.368,10.475-.261,20.151.072,6.541.3,5.144.782,20.152,0,0,.195,6.082.066,17.087a55.522,55.522,0,0,1-.587,8.936,38.562,38.562,0,0,1-2.609,10.174c-1.009,2.32-1.947,3.691-2.283,6.391a9.817,9.817,0,0,0,.326,4.761c.661,1.839,1.633,2.395,3.522,4.7a39.826,39.826,0,0,1,3.457,5.087,32.234,32.234,0,0,1,3.326,9.2c.106.526.1.557.782,6.457.757,6.529.816,6.925,1.109,7.76a13.785,13.785,0,0,0,5.022,6.979,11.6,11.6,0,0,0,5.869,2.151,12.292,12.292,0,0,0,5.609-1.044,21.4,21.4,0,0,0,4.5-2.674,16.8,16.8,0,0,0,3.718-3.065,7.362,7.362,0,0,0,2.086-3.848c.206-1.943-1-3.425-2.152-5.021-.193-.268-1.955-3.266-5.478-9.262a76.217,76.217,0,0,1-4.761-9.651,70.4,70.4,0,0,1-3.652-10.826,74.013,74.013,0,0,1-1.7-10.109c-.34-3.021-.461-5.309-.652-10.956-.317-9.385-.476-14.078-.391-15.849.186-3.916.439-3.309,2.282-16.5.533-3.813.334-2.59,2.087-15.782.911-6.854,1.367-10.281,1.7-12.651,1.307-9.414,1.547-10.186,2.8-19.239.911-6.555,1.463-11.065,2.152-16.7,1.266-10.337,1.525-13.454,1.7-16.109.164-2.531.3-5.43.391-11.478.177-11.672-.13-13.881-.065-22.826.077-10.49.583-18.749.978-25.044.435-6.922.659-10.491,1.24-15.717.712-6.41,1.131-7.83,3.326-22.7,1.012-6.857,1.519-10.287,2.087-14.739.168-1.315.43-3.413,1.956-16.761,1.2-10.526,1.1-9.744,1.3-11.412,1.455-11.873,1.893-12.263,2.608-19.175.591-5.7.742-10.02,1.044-18.652.28-8.015.413-12.109.065-16.369a107.154,107.154,0,0,0-2.478-15c-.668-3.117-2.2-9.94-5.218-19.761-3.178-10.353-4.922-16.035-7.956-23.739-1.544-3.921-2.886-7-3.587-11.8a57.912,57.912,0,0,1-.2-12.066,111.242,111.242,0,0,1,1.435-12.978c.638-3.79,1.426-6.94,3-13.239,3.152-12.613,3.6-11.941,4.761-17.348.656-3.059,2.5-5.828,2.869-8.935a1.907,1.907,0,0,1,.587-1.239,1.12,1.12,0,0,1,1.109-.261c.437.227.449.992.457,1.3.061,2.641.519,5.258.717,7.892.069.916.14,1.263.587,3.978.209,1.272,1.717,10.438,2.413,15.326.782,5.494.279,3.756,1.7,16.3.466,4.129.763,6.464,1.108,10.566.205,2.428.448,5.36.587,9.261a66.49,66.49,0,0,1-.261,12.326c-.326,2.418-.505,2.406-.717,4.565a46.791,46.791,0,0,0,.131,9.261c.319,3.584.589,4.8,1.043,8.413.713,5.672.429,5.713,1.239,13.761.325,3.232.687,6.823,1.37,11.609.607,4.253.819,4.9,1.5,9.912.452,3.33.812,6.385,1.043,8.348.1.835.235,2.018.391,3.522.142,1.365.225,2.164.261,2.674a18.466,18.466,0,0,1-.717,6.195c-.881,3.254-1.838,3.471-3.261,6.979a29.215,29.215,0,0,0-1.826,7.108c-.4,2.637-.329,5.214-.2,10.37.122,4.693.308,4.475.261,7.37-.033,2.043.291,4.1.065,6.13-.141,1.27-.374,2.451.327,3.13a2.323,2.323,0,0,0,2.347.327c1.613-.636,2.063-2.983,2.478-5.153.5-2.605.026-2.847.653-5.607a30.222,30.222,0,0,1,1.63-4.109c.214-.491.534-1.209.848-1.174.263.03.405.576.522,1.044a8.22,8.22,0,0,1,.2,2.607C1080.106,8198.17,1080.068,8198.766,1079.986,8199.456Z" fill="#fff" stroke="#ccc" stroke-miterlimit="10" stroke-width="1"/><path d="M1133.582,7937.588h-3.621v10.819h-2.567v-10.819h-3.6v-1.978h9.791Z" fill="#fff"/><path d="M1139.523,7948.407a5.2,5.2,0,0,1-.241-.685,4.82,4.82,0,0,1-.146-.739,3.517,3.517,0,0,1-1.042,1.152,2.6,2.6,0,0,1-1.542.457,3.209,3.209,0,0,1-2.3-.769,2.759,2.759,0,0,1-.809-2.1,2.508,2.508,0,0,1,1.077-2.167,5.387,5.387,0,0,1,3.142-.768h1.432v-.756a1.479,1.479,0,0,0-.36-1.063,1.683,1.683,0,0,0-2.026-.075,1.067,1.067,0,0,0-.338.839l-2.479-.009-.008-.052a2.413,2.413,0,0,1,1.045-2.078,4.561,4.561,0,0,1,2.91-.875,4.254,4.254,0,0,1,2.768.865,3,3,0,0,1,1.064,2.466v3.928a7.472,7.472,0,0,0,.1,1.257,6.335,6.335,0,0,0,.322,1.169Zm-2.347-1.714a2.2,2.2,0,0,0,1.2-.334,1.734,1.734,0,0,0,.711-.773v-1.345h-1.432a1.718,1.718,0,0,0-1.239.408,1.328,1.328,0,0,0-.422.99.986.986,0,0,0,.316.764A1.221,1.221,0,0,0,1137.176,7946.693Z" fill="#fff"/><path d="M1146.308,7948.407h-2.566V7934.7h2.566Z" fill="#fff"/><path d="M1151.116,7948.407h-2.567V7934.7h2.567Z" fill="#fff"/><path d="M1157.435,7948.592a4.282,4.282,0,0,1-3.287-1.319,4.715,4.715,0,0,1-1.23-3.348v-.352a5.194,5.194,0,0,1,1.165-3.489,4.342,4.342,0,0,1,6.112-.2,4.462,4.462,0,0,1,1.063,3.137v1.4h-5.677l-.018.053a2.468,2.468,0,0,0,.629,1.541,1.963,1.963,0,0,0,1.516.6,4.9,4.9,0,0,0,1.415-.172,6.4,6.4,0,0,0,1.23-.54l.695,1.586a4.729,4.729,0,0,1-1.521.79A6.587,6.587,0,0,1,1157.435,7948.592Zm-.228-7.893a1.335,1.335,0,0,0-1.125.545,2.825,2.825,0,0,0-.51,1.433l.026.044h3.147v-.229a2.058,2.058,0,0,0-.383-1.306A1.378,1.378,0,0,0,1157.207,7940.7Z" fill="#fff"/><path d="M1172.816,7948.407a5.2,5.2,0,0,1-.241-.685,4.82,4.82,0,0,1-.146-.739,3.517,3.517,0,0,1-1.042,1.152,2.6,2.6,0,0,1-1.542.457,3.209,3.209,0,0,1-2.3-.769,2.759,2.759,0,0,1-.809-2.1,2.508,2.508,0,0,1,1.077-2.167,5.386,5.386,0,0,1,3.142-.768h1.432v-.756a1.479,1.479,0,0,0-.36-1.063,1.683,1.683,0,0,0-2.026-.075,1.067,1.067,0,0,0-.338.839l-2.479-.009-.008-.052a2.41,2.41,0,0,1,1.045-2.078,4.561,4.561,0,0,1,2.91-.875,4.254,4.254,0,0,1,2.768.865,3,3,0,0,1,1.064,2.466v3.928a7.459,7.459,0,0,0,.1,1.257,6.4,6.4,0,0,0,.321,1.169Zm-2.347-1.714a2.2,2.2,0,0,0,1.2-.334,1.734,1.734,0,0,0,.711-.773v-1.345h-1.432a1.718,1.718,0,0,0-1.239.408,1.328,1.328,0,0,0-.422.99.985.985,0,0,0,.316.764A1.221,1.221,0,0,0,1170.469,7946.693Z" fill="#fff"/><path d="M1179.953,7936.568v2.329h1.6v1.8h-1.6v4.843a1.121,1.121,0,0,0,.228.791.816.816,0,0,0,.616.237,2.266,2.266,0,0,0,.346-.022,2.868,2.868,0,0,0,.339-.074l.22,1.854a5.29,5.29,0,0,1-.756.2,4.654,4.654,0,0,1-.8.066,2.733,2.733,0,0,1-2.044-.73,3.2,3.2,0,0,1-.716-2.311V7940.7H1176v-1.8h1.388v-2.329Z" fill="#fff"/><path d="M1188.188,7941.1l-.94-.026a1.711,1.711,0,0,0-.941.237,1.51,1.51,0,0,0-.562.668v6.425h-2.558v-9.51h2.382l.114,1.407a2.994,2.994,0,0,1,.866-1.164,1.923,1.923,0,0,1,1.226-.418,1.881,1.881,0,0,1,.356.031q.162.03.33.074Z" fill="#fff"/><path d="M1195.07,7948.407a5.2,5.2,0,0,1-.241-.685,4.706,4.706,0,0,1-.146-.739,3.517,3.517,0,0,1-1.042,1.152,2.6,2.6,0,0,1-1.542.457,3.209,3.209,0,0,1-2.3-.769,2.755,2.755,0,0,1-.809-2.1,2.508,2.508,0,0,1,1.077-2.167,5.387,5.387,0,0,1,3.142-.768h1.432v-.756a1.479,1.479,0,0,0-.36-1.063,1.4,1.4,0,0,0-1.064-.378,1.387,1.387,0,0,0-.962.3,1.067,1.067,0,0,0-.338.839l-2.479-.009-.009-.052a2.414,2.414,0,0,1,1.046-2.078,4.559,4.559,0,0,1,2.909-.875,4.255,4.255,0,0,1,2.769.865,3,3,0,0,1,1.064,2.466v3.928a7.472,7.472,0,0,0,.1,1.257,6.322,6.322,0,0,0,.321,1.169Zm-2.347-1.714a2.2,2.2,0,0,0,1.2-.334,1.731,1.731,0,0,0,.712-.773v-1.345h-1.432a1.722,1.722,0,0,0-1.24.408,1.331,1.331,0,0,0-.421.99.985.985,0,0,0,.316.764A1.221,1.221,0,0,0,1192.723,7946.693Zm1.011-11.452h2.716l.017.053-2.434,2.285h-2.048Z" fill="#fff"/><path d="M1204.3,7945.788a.9.9,0,0,0-.41-.73,4.142,4.142,0,0,0-1.515-.544,6.139,6.139,0,0,1-2.545-1.015,2.208,2.208,0,0,1-.857-1.833,2.616,2.616,0,0,1,1.033-2.087,4.186,4.186,0,0,1,2.764-.857,4.538,4.538,0,0,1,2.9.852,2.519,2.519,0,0,1,1.033,2.153l-.018.053H1204.2a1.251,1.251,0,0,0-.365-.931,1.744,1.744,0,0,0-2.047-.057.951.951,0,0,0-.357.76.861.861,0,0,0,.374.72,4.056,4.056,0,0,0,1.516.5,6.144,6.144,0,0,1,2.61,1.033,2.27,2.27,0,0,1,.853,1.876,2.5,2.5,0,0,1-1.1,2.1,4.753,4.753,0,0,1-2.9.814,4.411,4.411,0,0,1-3-.962,2.69,2.69,0,0,1-1.051-2.194l.018-.052h2.346a1.336,1.336,0,0,0,.5,1.107,2.068,2.068,0,0,0,1.24.343,1.783,1.783,0,0,0,1.084-.281A.907.907,0,0,0,1204.3,7945.788Z" fill="#fff"/><path d="M774.811,7940.37H771.19v10.82h-2.566v-10.82h-3.6v-1.977h9.791Z" fill="#fff"/><path d="M780.753,7951.19a5.247,5.247,0,0,1-.242-.685,4.658,4.658,0,0,1-.145-.739,3.531,3.531,0,0,1-1.042,1.151,2.594,2.594,0,0,1-1.542.457,3.214,3.214,0,0,1-2.3-.768,2.759,2.759,0,0,1-.808-2.1,2.5,2.5,0,0,1,1.077-2.166,5.379,5.379,0,0,1,3.141-.77h1.433v-.756a1.477,1.477,0,0,0-.36-1.062,1.4,1.4,0,0,0-1.064-.379,1.387,1.387,0,0,0-.963.305,1.064,1.064,0,0,0-.338.837l-2.478-.007-.009-.053a2.413,2.413,0,0,1,1.046-2.078,4.552,4.552,0,0,1,2.909-.875,4.252,4.252,0,0,1,2.769.865,3,3,0,0,1,1.063,2.465v3.93a7.345,7.345,0,0,0,.1,1.255,6.3,6.3,0,0,0,.321,1.17Zm-2.347-1.715a2.2,2.2,0,0,0,1.2-.334,1.733,1.733,0,0,0,.712-.773v-1.344h-1.433a1.718,1.718,0,0,0-1.239.408,1.329,1.329,0,0,0-.422.989.989.989,0,0,0,.317.765A1.223,1.223,0,0,0,778.406,7949.475Z" fill="#fff"/><path d="M787.538,7951.19h-2.567v-13.711h2.567Z" fill="#fff"/><path d="M792.345,7951.19h-2.566v-13.711h2.566Z" fill="#fff"/><path d="M798.665,7951.374a4.284,4.284,0,0,1-3.287-1.318,4.712,4.712,0,0,1-1.231-3.348v-.352a5.2,5.2,0,0,1,1.165-3.49,4.342,4.342,0,0,1,6.112-.2,4.46,4.46,0,0,1,1.064,3.137v1.4H796.81l-.017.053a2.47,2.47,0,0,0,.629,1.541,1.962,1.962,0,0,0,1.515.6,4.881,4.881,0,0,0,1.415-.172,6.407,6.407,0,0,0,1.231-.541l.694,1.586a4.726,4.726,0,0,1-1.52.791A6.592,6.592,0,0,1,798.665,7951.374Zm-.229-7.893a1.339,1.339,0,0,0-1.125.545,2.855,2.855,0,0,0-.51,1.434l.027.043h3.146v-.229a2.049,2.049,0,0,0-.383-1.3A1.374,1.374,0,0,0,798.436,7943.481Z" fill="#fff"/><path d="M809.132,7951.19v-7.709h-1.415v-1.8h1.415v-1.055a3.213,3.213,0,0,1,.923-2.465,3.642,3.642,0,0,1,2.593-.867,4.773,4.773,0,0,1,.664.049c.225.033.473.078.742.136l-.219,1.907c-.141-.024-.277-.043-.41-.061a3.4,3.4,0,0,0-.46-.027,1.237,1.237,0,0,0-.946.343,1.389,1.389,0,0,0-.32.985v1.055h1.89v1.8H811.7v7.709Z" fill="#fff"/><path d="M819.9,7943.886l-.94-.026a1.7,1.7,0,0,0-.941.237,1.5,1.5,0,0,0-.562.668v6.425H814.9v-9.509h2.382l.114,1.406a3,3,0,0,1,.865-1.164,1.925,1.925,0,0,1,1.227-.418,1.862,1.862,0,0,1,.355.031c.109.02.219.045.331.074Z" fill="#fff"/><path d="M825.41,7951.374a4.284,4.284,0,0,1-3.287-1.318,4.712,4.712,0,0,1-1.231-3.348v-.352a5.2,5.2,0,0,1,1.165-3.49,4.343,4.343,0,0,1,6.113-.2,4.46,4.46,0,0,1,1.063,3.137v1.4h-5.678l-.017.053a2.47,2.47,0,0,0,.629,1.541,1.962,1.962,0,0,0,1.515.6,4.881,4.881,0,0,0,1.415-.172,6.407,6.407,0,0,0,1.231-.541l.694,1.586a4.715,4.715,0,0,1-1.52.791A6.592,6.592,0,0,1,825.41,7951.374Zm-.229-7.893a1.339,1.339,0,0,0-1.125.545,2.845,2.845,0,0,0-.509,1.434l.026.043h3.146v-.229a2.054,2.054,0,0,0-.382-1.3A1.378,1.378,0,0,0,825.181,7943.481Z" fill="#fff"/><path d="M833.074,7941.681l.114,1.361a3.489,3.489,0,0,1,1.169-1.133,3.041,3.041,0,0,1,1.556-.4,2.862,2.862,0,0,1,2.25.9,4.184,4.184,0,0,1,.808,2.84v5.941H836.4v-5.947a1.932,1.932,0,0,0-.387-1.361,1.559,1.559,0,0,0-1.169-.4,2,2,0,0,0-.914.207,1.894,1.894,0,0,0-.676.586v6.916h-2.567v-9.509Z" fill="#fff"/><path d="M843.937,7939.35v2.331h1.6v1.8h-1.6v4.844a1.117,1.117,0,0,0,.229.791.814.814,0,0,0,.615.236,2.173,2.173,0,0,0,.347-.021,2.867,2.867,0,0,0,.338-.074l.22,1.853a5.109,5.109,0,0,1-.756.2,4.644,4.644,0,0,1-.8.065,2.733,2.733,0,0,1-2.044-.729,3.2,3.2,0,0,1-.716-2.312v-4.852h-1.389v-1.8h1.389v-2.331Z" fill="#fff"/><path d="M851.382,7951.374a4.286,4.286,0,0,1-3.288-1.318,4.715,4.715,0,0,1-1.23-3.348v-.352a5.2,5.2,0,0,1,1.165-3.49,4.342,4.342,0,0,1,6.112-.2,4.46,4.46,0,0,1,1.064,3.137v1.4h-5.678l-.018.053a2.47,2.47,0,0,0,.629,1.541,1.963,1.963,0,0,0,1.516.6,4.886,4.886,0,0,0,1.415-.172,6.374,6.374,0,0,0,1.23-.541l.7,1.586a4.722,4.722,0,0,1-1.521.791A6.586,6.586,0,0,1,851.382,7951.374Zm-.229-7.893a1.336,1.336,0,0,0-1.125.545,2.855,2.855,0,0,0-.51,1.434l.027.043h3.146v-.229a2.048,2.048,0,0,0-.383-1.3A1.376,1.376,0,0,0,851.153,7943.481Z" fill="#fff"/><path d="M767.77,7990.181l.018.052a4.178,4.178,0,0,1-1.261,3.279,5.068,5.068,0,0,1-3.6,1.212,5,5,0,0,1-3.753-1.485,5.263,5.263,0,0,1-1.441-3.823v-2.54a5.355,5.355,0,0,1,1.406-3.823,4.8,4.8,0,0,1,3.657-1.5,5.307,5.307,0,0,1,3.709,1.218,4.164,4.164,0,0,1,1.3,3.318l-.017.052h-2.5a2.8,2.8,0,0,0-.607-1.938,2.427,2.427,0,0,0-1.889-.672,2.143,2.143,0,0,0-1.829.936,3.964,3.964,0,0,0-.676,2.383v2.555a3.849,3.849,0,0,0,.712,2.4,2.29,2.29,0,0,0,1.924.936,2.261,2.261,0,0,0,1.78-.647,2.806,2.806,0,0,0,.576-1.919Z" fill="#fff"/><path d="M773.615,7994.724a4.279,4.279,0,0,1-3.287-1.318,4.711,4.711,0,0,1-1.231-3.349v-.351a5.2,5.2,0,0,1,1.165-3.489,4.34,4.34,0,0,1,6.113-.2,4.462,4.462,0,0,1,1.063,3.137v1.4H771.76l-.017.052a2.465,2.465,0,0,0,.629,1.541,1.959,1.959,0,0,0,1.515.6,4.915,4.915,0,0,0,1.415-.172,6.463,6.463,0,0,0,1.231-.54l.694,1.586a4.753,4.753,0,0,1-1.52.79A6.592,6.592,0,0,1,773.615,7994.724Zm-.229-7.892a1.339,1.339,0,0,0-1.125.545,2.836,2.836,0,0,0-.509,1.432l.026.044h3.146v-.228a2.057,2.057,0,0,0-.382-1.306A1.38,1.38,0,0,0,773.386,7986.832Z" fill="#fff"/><path d="M781.279,7985.03l.114,1.362a3.477,3.477,0,0,1,1.169-1.133,3.032,3.032,0,0,1,1.556-.4,2.86,2.86,0,0,1,2.25.906,4.179,4.179,0,0,1,.808,2.839v5.941H784.6v-5.946a1.941,1.941,0,0,0-.386-1.362,1.56,1.56,0,0,0-1.169-.4,1.972,1.972,0,0,0-.914.207,1.865,1.865,0,0,0-.677.586v6.915h-2.567v-9.51Z" fill="#fff"/><path d="M792.142,7982.7v2.329h1.6v1.8h-1.6v4.843a1.117,1.117,0,0,0,.229.791.813.813,0,0,0,.615.237,2.347,2.347,0,0,0,.347-.022,2.946,2.946,0,0,0,.339-.075l.219,1.855a5.32,5.32,0,0,1-.756.2,4.645,4.645,0,0,1-.8.065,2.737,2.737,0,0,1-2.044-.729,3.2,3.2,0,0,1-.716-2.312v-4.851h-1.389v-1.8h1.389V7982.7Z" fill="#fff"/><path d="M800.378,7987.236l-.941-.026a1.711,1.711,0,0,0-.94.237,1.507,1.507,0,0,0-.563.668v6.425h-2.557v-9.51h2.381l.115,1.406a2.989,2.989,0,0,1,.865-1.164,1.934,1.934,0,0,1,1.227-.418,1.866,1.866,0,0,1,.355.032c.108.02.219.045.33.074Z" fill="#fff"/><path d="M801.283,7989.7a5.1,5.1,0,0,1,1.186-3.485,4.139,4.139,0,0,1,3.288-1.358,4.181,4.181,0,0,1,3.3,1.354,5.074,5.074,0,0,1,1.2,3.489v.185a5.087,5.087,0,0,1-1.192,3.494,4.7,4.7,0,0,1-6.592,0,5.086,5.086,0,0,1-1.19-3.494Zm2.557.18a4.125,4.125,0,0,0,.458,2.085,1.757,1.757,0,0,0,2.931,0,4.1,4.1,0,0,0,.461-2.08v-.184a4.05,4.05,0,0,0-.466-2.062,1.577,1.577,0,0,0-1.467-.8,1.559,1.559,0,0,0-1.456.8,4.112,4.112,0,0,0-.461,2.058Z" fill="#fff"/><path d="M816.989,7994.54v-7.708h-1.415v-1.8h1.415v-1.055a3.214,3.214,0,0,1,.923-2.464,3.639,3.639,0,0,1,2.593-.867,4.947,4.947,0,0,1,.664.048c.224.033.472.078.742.137l-.22,1.907c-.141-.023-.276-.044-.409-.061a3.51,3.51,0,0,0-.461-.027,1.235,1.235,0,0,0-.945.343,1.388,1.388,0,0,0-.321.984v1.055h1.89v1.8h-1.89v7.708Z" fill="#fff"/><path d="M827.756,7987.236l-.941-.026a1.711,1.711,0,0,0-.94.237,1.507,1.507,0,0,0-.563.668v6.425h-2.557v-9.51h2.381l.115,1.406a2.989,2.989,0,0,1,.865-1.164,1.933,1.933,0,0,1,1.226-.418,1.869,1.869,0,0,1,.356.032c.108.02.219.045.33.074Z" fill="#fff"/><path d="M833.266,7994.724a4.279,4.279,0,0,1-3.287-1.318,4.714,4.714,0,0,1-1.23-3.349v-.351a5.194,5.194,0,0,1,1.165-3.489,4.339,4.339,0,0,1,6.112-.2,4.462,4.462,0,0,1,1.064,3.137v1.4h-5.678l-.018.052a2.465,2.465,0,0,0,.629,1.541,1.96,1.96,0,0,0,1.516.6,4.92,4.92,0,0,0,1.415-.172,6.457,6.457,0,0,0,1.23-.54l.7,1.586a4.76,4.76,0,0,1-1.521.79A6.587,6.587,0,0,1,833.266,7994.724Zm-.228-7.892a1.336,1.336,0,0,0-1.125.545,2.827,2.827,0,0,0-.51,1.432l.026.044h3.147v-.228a2.057,2.057,0,0,0-.383-1.306A1.38,1.38,0,0,0,833.038,7986.832Z" fill="#fff"/><path d="M840.93,7985.03l.115,1.362a3.468,3.468,0,0,1,1.169-1.133,3.026,3.026,0,0,1,1.555-.4,2.86,2.86,0,0,1,2.25.906,4.179,4.179,0,0,1,.809,2.839v5.941h-2.575v-5.946a1.935,1.935,0,0,0-.387-1.362,1.56,1.56,0,0,0-1.169-.4,1.972,1.972,0,0,0-.914.207,1.873,1.873,0,0,0-.677.586v6.915H838.54v-9.51Z" fill="#fff"/><path d="M851.794,7982.7v2.329h1.6v1.8h-1.6v4.843a1.122,1.122,0,0,0,.228.791.815.815,0,0,0,.615.237,2.347,2.347,0,0,0,.347-.022,2.9,2.9,0,0,0,.339-.075l.22,1.855a5.358,5.358,0,0,1-.756.2,4.656,4.656,0,0,1-.8.065,2.739,2.739,0,0,1-2.044-.729,3.2,3.2,0,0,1-.716-2.312v-4.851h-1.388v-1.8h1.388V7982.7Z" fill="#fff"/><path d="M859.238,7994.724a4.279,4.279,0,0,1-3.287-1.318,4.715,4.715,0,0,1-1.231-3.349v-.351a5.2,5.2,0,0,1,1.165-3.489,4.34,4.34,0,0,1,6.113-.2,4.462,4.462,0,0,1,1.063,3.137v1.4h-5.678l-.017.052a2.465,2.465,0,0,0,.629,1.541,1.96,1.96,0,0,0,1.515.6,4.915,4.915,0,0,0,1.415-.172,6.463,6.463,0,0,0,1.231-.54l.694,1.586a4.743,4.743,0,0,1-1.52.79A6.588,6.588,0,0,1,859.238,7994.724Zm-.229-7.892a1.339,1.339,0,0,0-1.125.545,2.837,2.837,0,0,0-.509,1.432l.026.044h3.147v-.228a2.057,2.057,0,0,0-.383-1.306A1.38,1.38,0,0,0,859.009,7986.832Z" fill="#fff"/><path d="M768.578,8030.294h-4.491l-.871,2.76h-2.592l4.4-12.8h2.628l4.386,12.8h-2.593Zm-3.859-2.013h3.226l-1.582-5.027h-.053Z" fill="#fff"/><path d="M775.723,8033.054h-2.566v-13.711h2.566Z" fill="#fff"/><path d="M780.882,8021.215v2.329h1.6v1.8h-1.6v4.842a1.121,1.121,0,0,0,.229.791.81.81,0,0,0,.615.238,2.15,2.15,0,0,0,.347-.023,2.681,2.681,0,0,0,.339-.074l.22,1.854a5.293,5.293,0,0,1-.756.2,4.656,4.656,0,0,1-.8.065,2.735,2.735,0,0,1-2.044-.729,3.2,3.2,0,0,1-.716-2.312v-4.851h-1.389v-1.8h1.389v-2.329Z" fill="#fff"/><path d="M789.926,8031.682a3.192,3.192,0,0,1-1.116,1.152,3.293,3.293,0,0,1-3.906-.558,4.438,4.438,0,0,1-.849-2.993v-5.739h2.558v5.769a2.465,2.465,0,0,0,.352,1.494,1.233,1.233,0,0,0,1.037.454,2.554,2.554,0,0,0,1.054-.2,1.763,1.763,0,0,0,.721-.586v-6.932h2.566v9.51h-2.188Z" fill="#fff"/><path d="M799.278,8025.75l-.94-.026a1.715,1.715,0,0,0-.941.237,1.5,1.5,0,0,0-.562.668v6.425h-2.558v-9.51h2.382l.114,1.406a3,3,0,0,1,.865-1.164,2.021,2.021,0,0,1,1.582-.387c.109.021.219.045.33.075Z" fill="#fff"/><path d="M806.16,8033.054a5.208,5.208,0,0,1-.241-.686,4.551,4.551,0,0,1-.146-.738,3.526,3.526,0,0,1-1.042,1.151,2.594,2.594,0,0,1-1.542.457,3.216,3.216,0,0,1-2.3-.768,2.758,2.758,0,0,1-.808-2.1,2.507,2.507,0,0,1,1.077-2.167,5.378,5.378,0,0,1,3.142-.769h1.432v-.755a1.48,1.48,0,0,0-.36-1.064,1.683,1.683,0,0,0-2.027-.074,1.067,1.067,0,0,0-.337.839l-2.479-.009-.009-.053a2.414,2.414,0,0,1,1.046-2.078,4.558,4.558,0,0,1,2.909-.875,4.255,4.255,0,0,1,2.769.865,3,3,0,0,1,1.063,2.466v3.929a7.469,7.469,0,0,0,.1,1.257,6.338,6.338,0,0,0,.321,1.169Zm-2.347-1.714a2.205,2.205,0,0,0,1.2-.334,1.737,1.737,0,0,0,.712-.774v-1.344H804.3a1.718,1.718,0,0,0-1.24.408,1.328,1.328,0,0,0-.422.989.99.99,0,0,0,.317.765A1.225,1.225,0,0,0,803.813,8031.34Z" fill="#fff"/><path d="M823.307,8028.562a5.564,5.564,0,0,1-.949,3.4,3.211,3.211,0,0,1-2.742,1.274,2.907,2.907,0,0,1-1.445-.347,2.983,2.983,0,0,1-1.051-1.015l-.194,1.178h-2.2v-13.711h2.558v5.212a2.888,2.888,0,0,1,.989-.879,2.764,2.764,0,0,1,1.322-.308,3.152,3.152,0,0,1,2.76,1.367,6.271,6.271,0,0,1,.949,3.643Zm-2.557-.184a4.979,4.979,0,0,0-.41-2.214,1.429,1.429,0,0,0-1.392-.818,1.908,1.908,0,0,0-1.011.252,1.737,1.737,0,0,0-.65.72v4.05a1.634,1.634,0,0,0,.655.663,2.09,2.09,0,0,0,1.023.23,1.457,1.457,0,0,0,1.389-.7,4.106,4.106,0,0,0,.4-1.993Z" fill="#fff"/><path d="M830.7,8031.682a3.192,3.192,0,0,1-1.116,1.152,3.294,3.294,0,0,1-3.907-.558,4.437,4.437,0,0,1-.848-2.993v-5.739h2.557v5.769a2.473,2.473,0,0,0,.352,1.494,1.233,1.233,0,0,0,1.037.454,2.558,2.558,0,0,0,1.055-.2,1.76,1.76,0,0,0,.72-.586v-6.932h2.567v9.51h-2.189Z" fill="#fff"/><path d="M840.191,8030.434a.9.9,0,0,0-.409-.729,4.146,4.146,0,0,0-1.516-.545,6.118,6.118,0,0,1-2.545-1.015,2.208,2.208,0,0,1-.856-1.833,2.62,2.62,0,0,1,1.032-2.087,4.189,4.189,0,0,1,2.765-.857,4.527,4.527,0,0,1,2.9.853,2.514,2.514,0,0,1,1.033,2.153l-.017.053h-2.479a1.253,1.253,0,0,0-.365-.932,1.748,1.748,0,0,0-2.047-.057.955.955,0,0,0-.356.76.864.864,0,0,0,.374.721,4.092,4.092,0,0,0,1.515.5,6.155,6.155,0,0,1,2.611,1.032,2.273,2.273,0,0,1,.852,1.877,2.5,2.5,0,0,1-1.1,2.1,4.756,4.756,0,0,1-2.9.813,4.41,4.41,0,0,1-3-.962,2.687,2.687,0,0,1-1.05-2.193l.017-.053h2.347a1.333,1.333,0,0,0,.5,1.108,2.069,2.069,0,0,0,1.239.342,1.778,1.778,0,0,0,1.085-.281A.906.906,0,0,0,840.191,8030.434Z" fill="#fff"/><path d="M847.381,8021.215v2.329h1.6v1.8h-1.6v4.842a1.121,1.121,0,0,0,.228.791.81.81,0,0,0,.615.238,2.15,2.15,0,0,0,.347-.023,2.681,2.681,0,0,0,.339-.074l.22,1.854a5.3,5.3,0,0,1-.756.2,4.657,4.657,0,0,1-.8.065,2.735,2.735,0,0,1-2.044-.729,3.2,3.2,0,0,1-.716-2.312v-4.851h-1.389v-1.8h1.389v-2.329Z" fill="#fff"/><path d="M850.219,8028.211a5.109,5.109,0,0,1,1.187-3.486,4.685,4.685,0,0,1,6.592,0,5.073,5.073,0,0,1,1.2,3.489v.184a5.088,5.088,0,0,1-1.191,3.5,4.7,4.7,0,0,1-6.592,0,5.088,5.088,0,0,1-1.191-3.5Zm2.558.179a4.122,4.122,0,0,0,.457,2.085,1.758,1.758,0,0,0,2.932,0,4.12,4.12,0,0,0,.461-2.081v-.183a4.064,4.064,0,0,0-.466-2.063,1.577,1.577,0,0,0-1.468-.8,1.559,1.559,0,0,0-1.455.8,4.106,4.106,0,0,0-.461,2.059Z" fill="#fff"/><path d="M791.461,8077.716l.017.052a4.172,4.172,0,0,1-1.261,3.28,5.066,5.066,0,0,1-3.6,1.213,4.994,4.994,0,0,1-3.753-1.487,5.255,5.255,0,0,1-1.441-3.822v-2.541a5.349,5.349,0,0,1,1.406-3.822,4.79,4.79,0,0,1,3.656-1.494,5.311,5.311,0,0,1,3.709,1.216,4.168,4.168,0,0,1,1.3,3.319l-.018.052h-2.5a2.8,2.8,0,0,0-.606-1.939,2.429,2.429,0,0,0-1.89-.672,2.142,2.142,0,0,0-1.828.936,3.965,3.965,0,0,0-.677,2.384v2.555a3.852,3.852,0,0,0,.712,2.4,2.289,2.289,0,0,0,1.925.935,2.263,2.263,0,0,0,1.779-.646,2.806,2.806,0,0,0,.576-1.92Z" fill="#fff"/><path d="M792.7,8077.233a5.107,5.107,0,0,1,1.186-3.486,4.686,4.686,0,0,1,6.592,0,5.076,5.076,0,0,1,1.2,3.49v.184a5.082,5.082,0,0,1-1.192,3.494,4.7,4.7,0,0,1-6.592,0,5.081,5.081,0,0,1-1.19-3.494Zm2.557.18a4.122,4.122,0,0,0,.458,2.084,1.758,1.758,0,0,0,2.931,0,4.111,4.111,0,0,0,.461-2.08v-.184a4.047,4.047,0,0,0-.466-2.062,1.734,1.734,0,0,0-2.923,0,4.107,4.107,0,0,0-.461,2.058Z" fill="#fff"/><path d="M808.4,8079.456a.9.9,0,0,0-.409-.729,4.164,4.164,0,0,0-1.516-.545,6.131,6.131,0,0,1-2.545-1.015,2.208,2.208,0,0,1-.856-1.832,2.62,2.62,0,0,1,1.032-2.088,4.191,4.191,0,0,1,2.765-.857,4.533,4.533,0,0,1,2.9.853,2.516,2.516,0,0,1,1.034,2.152l-.018.053H808.3a1.255,1.255,0,0,0-.365-.932,1.752,1.752,0,0,0-2.047-.056.953.953,0,0,0-.356.76.861.861,0,0,0,.374.72,4.052,4.052,0,0,0,1.516.5,6.15,6.15,0,0,1,2.61,1.032,2.272,2.272,0,0,1,.852,1.876,2.5,2.5,0,0,1-1.1,2.1,4.756,4.756,0,0,1-2.9.815,4.415,4.415,0,0,1-3-.963,2.692,2.692,0,0,1-1.05-2.194l.017-.052H805.2a1.331,1.331,0,0,0,.5,1.107,2.063,2.063,0,0,0,1.239.344,1.784,1.784,0,0,0,1.085-.281A.911.911,0,0,0,808.4,8079.456Z" fill="#fff"/><path d="M815.587,8070.237v2.328h1.6v1.8h-1.6v4.842a1.121,1.121,0,0,0,.228.791.815.815,0,0,0,.615.238,2.268,2.268,0,0,0,.347-.023,2.7,2.7,0,0,0,.339-.075l.22,1.856a5.281,5.281,0,0,1-.756.2,4.648,4.648,0,0,1-.8.067,2.738,2.738,0,0,1-2.044-.731,3.192,3.192,0,0,1-.716-2.31v-4.852h-1.388v-1.8h1.388v-2.328Z" fill="#fff"/><path d="M824.4,8082.075a5.194,5.194,0,0,1-.241-.685,4.692,4.692,0,0,1-.146-.739,3.527,3.527,0,0,1-1.042,1.153,2.6,2.6,0,0,1-1.542.457,3.205,3.205,0,0,1-2.3-.77,2.755,2.755,0,0,1-.809-2.1,2.51,2.51,0,0,1,1.077-2.168,5.387,5.387,0,0,1,3.142-.767h1.432v-.756a1.48,1.48,0,0,0-.36-1.064,1.687,1.687,0,0,0-2.026-.075,1.068,1.068,0,0,0-.338.84l-2.479-.01-.009-.052a2.415,2.415,0,0,1,1.046-2.078,4.561,4.561,0,0,1,2.91-.875,4.254,4.254,0,0,1,2.768.865,3,3,0,0,1,1.064,2.467v3.927a7.483,7.483,0,0,0,.1,1.258,6.4,6.4,0,0,0,.321,1.168Zm-2.347-1.713a2.194,2.194,0,0,0,1.2-.334,1.73,1.73,0,0,0,.712-.773v-1.346h-1.432a1.722,1.722,0,0,0-1.24.408,1.332,1.332,0,0,0-.421.99.984.984,0,0,0,.316.764A1.222,1.222,0,0,0,822.055,8080.362Z" fill="#fff"/><path d="M828.093,8077.4a6.172,6.172,0,0,1,.972-3.629,3.153,3.153,0,0,1,2.737-1.38,2.666,2.666,0,0,1,1.284.308,3.094,3.094,0,0,1,1,.879v-5.213h2.575v13.711h-2.206l-.211-1.16a3.165,3.165,0,0,1-1.06,1,2.818,2.818,0,0,1-1.4.344,3.214,3.214,0,0,1-2.72-1.284,5.474,5.474,0,0,1-.972-3.392Zm2.558.188a3.912,3.912,0,0,0,.422,1.974,1.465,1.465,0,0,0,1.371.721,1.984,1.984,0,0,0,.967-.225,1.807,1.807,0,0,0,.677-.658v-4.076a1.976,1.976,0,0,0-.673-.7,1.777,1.777,0,0,0-.953-.252,1.444,1.444,0,0,0-1.375.84,4.756,4.756,0,0,0-.436,2.191Z" fill="#fff"/><path d="M838.254,8077.233a5.107,5.107,0,0,1,1.186-3.486,4.139,4.139,0,0,1,3.287-1.357,4.181,4.181,0,0,1,3.3,1.353,5.076,5.076,0,0,1,1.2,3.49v.184a5.082,5.082,0,0,1-1.191,3.494,4.7,4.7,0,0,1-6.592,0,5.081,5.081,0,0,1-1.19-3.494Zm2.557.18a4.133,4.133,0,0,0,.457,2.084,1.759,1.759,0,0,0,2.932,0,4.111,4.111,0,0,0,.461-2.08v-.184a4.047,4.047,0,0,0-.466-2.062,1.734,1.734,0,0,0-2.923,0,4.1,4.1,0,0,0-.461,2.058Z" fill="#fff"/><path d="M770.651,8146.762H766.16l-.87,2.759H762.7l4.4-12.8h2.628l4.386,12.8h-2.593Zm-3.858-2.013h3.225l-1.582-5.027h-.053Z" fill="#fff"/><path d="M777.8,8149.521H775.23V8135.81H777.8Z" fill="#fff"/><path d="M782.956,8137.682v2.33h1.6v1.8h-1.6v4.843a1.12,1.12,0,0,0,.228.791.816.816,0,0,0,.615.237,2.162,2.162,0,0,0,.347-.022,2.876,2.876,0,0,0,.339-.074l.22,1.854a5.164,5.164,0,0,1-.756.2,4.653,4.653,0,0,1-.8.066,2.735,2.735,0,0,1-2.044-.73,3.2,3.2,0,0,1-.716-2.311v-4.852H779v-1.8h1.388v-2.33Z" fill="#fff"/><path d="M792,8148.15a3.19,3.19,0,0,1-1.117,1.152,3.291,3.291,0,0,1-3.906-.558,4.443,4.443,0,0,1-.848-2.993v-5.739h2.557v5.769a2.465,2.465,0,0,0,.352,1.494,1.231,1.231,0,0,0,1.037.453,2.551,2.551,0,0,0,1.055-.2,1.764,1.764,0,0,0,.72-.586v-6.932h2.567v9.509h-2.189Z" fill="#fff"/><path d="M801.351,8142.218l-.94-.027a1.7,1.7,0,0,0-.941.238,1.5,1.5,0,0,0-.562.668v6.424H796.35v-9.509h2.382l.114,1.406a3,3,0,0,1,.866-1.164,1.926,1.926,0,0,1,1.226-.418,1.964,1.964,0,0,1,.356.031c.108.021.218.045.33.074Z" fill="#fff"/><path d="M808.233,8149.521a5.1,5.1,0,0,1-.241-.685,4.783,4.783,0,0,1-.146-.738,3.529,3.529,0,0,1-1.042,1.151,2.592,2.592,0,0,1-1.542.457,3.207,3.207,0,0,1-2.3-.769,2.756,2.756,0,0,1-.809-2.1,2.506,2.506,0,0,1,1.077-2.167,5.382,5.382,0,0,1,3.142-.769H807.8v-.756a1.479,1.479,0,0,0-.36-1.063,1.4,1.4,0,0,0-1.063-.378,1.385,1.385,0,0,0-.963.3,1.063,1.063,0,0,0-.338.838l-2.479-.008-.009-.053a2.414,2.414,0,0,1,1.046-2.078,4.561,4.561,0,0,1,2.91-.875,4.252,4.252,0,0,1,2.768.865,3,3,0,0,1,1.064,2.466v3.929a7.46,7.46,0,0,0,.1,1.256,6.373,6.373,0,0,0,.321,1.169Zm-2.347-1.714a2.206,2.206,0,0,0,1.2-.333,1.74,1.74,0,0,0,.712-.774v-1.345H806.37a1.714,1.714,0,0,0-1.239.409,1.324,1.324,0,0,0-.422.989.986.986,0,0,0,.316.764A1.223,1.223,0,0,0,805.886,8147.807Z" fill="#fff"/><path d="M819.852,8137.682v2.33h1.6v1.8h-1.6v4.843a1.115,1.115,0,0,0,.229.791.813.813,0,0,0,.615.237,2.162,2.162,0,0,0,.347-.022,2.924,2.924,0,0,0,.339-.074l.219,1.854a5.164,5.164,0,0,1-.756.2,4.64,4.64,0,0,1-.8.066,2.734,2.734,0,0,1-2.044-.73,3.194,3.194,0,0,1-.716-2.311v-4.852H815.9v-1.8h1.389v-2.33Z" fill="#fff"/><path d="M825.785,8137.735h-2.567v-1.925h2.567Zm0,11.786h-2.567v-9.509h2.567Z" fill="#fff"/><path d="M832.9,8142.218l-.94-.027a1.7,1.7,0,0,0-.941.238,1.5,1.5,0,0,0-.562.668v6.424h-2.558v-9.509h2.382l.114,1.406a3,3,0,0,1,.866-1.164,1.926,1.926,0,0,1,1.226-.418,1.964,1.964,0,0,1,.356.031c.108.021.218.045.33.074Z" fill="#fff"/><path d="M833.8,8144.679a5.109,5.109,0,0,1,1.187-3.486,4.14,4.14,0,0,1,3.287-1.357,4.182,4.182,0,0,1,3.3,1.353,5.078,5.078,0,0,1,1.2,3.49v.184a5.083,5.083,0,0,1-1.191,3.494,4.7,4.7,0,0,1-6.592,0,5.083,5.083,0,0,1-1.191-3.494Zm2.558.179a4.123,4.123,0,0,0,.457,2.085,1.758,1.758,0,0,0,2.932,0,4.111,4.111,0,0,0,.461-2.08v-.183a4.064,4.064,0,0,0-.466-2.063,1.579,1.579,0,0,0-1.468-.8,1.56,1.56,0,0,0-1.455.8,4.1,4.1,0,0,0-.461,2.059Z" fill="#fff"/><path d="M1128.724,8005.4l.018.053a4.173,4.173,0,0,1-1.261,3.278,5.061,5.061,0,0,1-3.6,1.213,5,5,0,0,1-3.753-1.485,5.262,5.262,0,0,1-1.442-3.823v-2.54a5.359,5.359,0,0,1,1.406-3.824,4.794,4.794,0,0,1,3.657-1.494,5.308,5.308,0,0,1,3.709,1.218,4.163,4.163,0,0,1,1.3,3.317l-.017.053h-2.5a2.8,2.8,0,0,0-.607-1.938,2.424,2.424,0,0,0-1.889-.672,2.139,2.139,0,0,0-1.828.935,3.958,3.958,0,0,0-.677,2.384v2.555a3.85,3.85,0,0,0,.712,2.4,2.291,2.291,0,0,0,1.925.936,2.26,2.26,0,0,0,1.779-.647,2.8,2.8,0,0,0,.576-1.92Z" fill="#fff"/><path d="M1134.569,8009.939a4.281,4.281,0,0,1-3.287-1.318,4.716,4.716,0,0,1-1.231-3.349v-.351a5.2,5.2,0,0,1,1.165-3.489,4.341,4.341,0,0,1,6.113-.2,4.466,4.466,0,0,1,1.063,3.138v1.4h-5.677l-.018.052a2.465,2.465,0,0,0,.629,1.541,1.958,1.958,0,0,0,1.515.6,4.922,4.922,0,0,0,1.416-.172,6.428,6.428,0,0,0,1.23-.54l.694,1.586a4.743,4.743,0,0,1-1.52.79A6.587,6.587,0,0,1,1134.569,8009.939Zm-.229-7.892a1.336,1.336,0,0,0-1.125.545,2.834,2.834,0,0,0-.509,1.432l.026.044h3.147v-.228a2.055,2.055,0,0,0-.383-1.306A1.379,1.379,0,0,0,1134.34,8002.047Z" fill="#fff"/><path d="M1142.233,8000.245l.114,1.362a3.478,3.478,0,0,1,1.169-1.133,3.033,3.033,0,0,1,1.556-.405,2.863,2.863,0,0,1,2.25.905,4.181,4.181,0,0,1,.809,2.839v5.942h-2.576v-5.947a1.939,1.939,0,0,0-.386-1.361,1.562,1.562,0,0,0-1.169-.4,1.978,1.978,0,0,0-.914.207,1.86,1.86,0,0,0-.677.586v6.915h-2.567v-9.51Z" fill="#fff"/><path d="M1153.1,7997.916v2.329h1.6v1.8h-1.6v4.843a1.123,1.123,0,0,0,.229.791.815.815,0,0,0,.615.237,2.151,2.151,0,0,0,.347-.023,2.731,2.731,0,0,0,.339-.074l.219,1.855a5.177,5.177,0,0,1-.755.2,4.664,4.664,0,0,1-.8.065,2.737,2.737,0,0,1-2.044-.729,3.2,3.2,0,0,1-.716-2.312v-4.851h-1.389v-1.8h1.389v-2.329Z" fill="#fff"/><path d="M1161.332,8002.451l-.941-.026a1.707,1.707,0,0,0-.94.237,1.5,1.5,0,0,0-.563.668v6.425h-2.557v-9.51h2.382l.114,1.406a2.994,2.994,0,0,1,.865-1.164,2.015,2.015,0,0,1,1.582-.387c.108.021.219.045.33.075Z" fill="#fff"/><path d="M1162.237,8004.912a5.1,5.1,0,0,1,1.187-3.485,4.683,4.683,0,0,1,6.591,0,5.075,5.075,0,0,1,1.2,3.489v.185a5.087,5.087,0,0,1-1.192,3.494,4.7,4.7,0,0,1-6.592,0,5.086,5.086,0,0,1-1.19-3.494Zm2.558.18a4.126,4.126,0,0,0,.457,2.085,1.757,1.757,0,0,0,2.931,0,4.106,4.106,0,0,0,.461-2.08v-.184a4.047,4.047,0,0,0-.466-2.062,1.733,1.733,0,0,0-2.922,0,4.107,4.107,0,0,0-.461,2.059Z" fill="#fff"/><path d="M1182.856,8009.755a5.167,5.167,0,0,1-.241-.686,4.767,4.767,0,0,1-.146-.738,3.5,3.5,0,0,1-1.042,1.151,2.592,2.592,0,0,1-1.542.457,3.211,3.211,0,0,1-2.3-.768,2.757,2.757,0,0,1-.809-2.1,2.506,2.506,0,0,1,1.077-2.167,5.379,5.379,0,0,1,3.142-.768h1.432v-.756a1.481,1.481,0,0,0-.36-1.064,1.68,1.68,0,0,0-2.026-.074,1.064,1.064,0,0,0-.338.839l-2.479-.009-.008-.053a2.415,2.415,0,0,1,1.045-2.078,4.56,4.56,0,0,1,2.91-.875,4.252,4.252,0,0,1,2.768.865A3,3,0,0,1,1185,8003.4v3.929a7.493,7.493,0,0,0,.1,1.257,6.331,6.331,0,0,0,.322,1.169Zm-2.347-1.714a2.2,2.2,0,0,0,1.2-.334,1.744,1.744,0,0,0,.711-.774v-1.344h-1.432a1.714,1.714,0,0,0-1.239.408,1.324,1.324,0,0,0-.422.989.988.988,0,0,0,.316.765A1.228,1.228,0,0,0,1180.509,8008.041Z" fill="#fff"/><path d="M1189.993,7997.916v2.329h1.6v1.8h-1.6v4.843a1.124,1.124,0,0,0,.228.791.819.819,0,0,0,.616.237,2.137,2.137,0,0,0,.346-.023,2.694,2.694,0,0,0,.339-.074l.22,1.855a5.221,5.221,0,0,1-.756.2,4.656,4.656,0,0,1-.8.065,2.739,2.739,0,0,1-2.044-.729,3.2,3.2,0,0,1-.716-2.312v-4.851h-1.388v-1.8h1.388v-2.329Z" fill="#fff"/><path d="M1198.228,8002.451l-.94-.026a1.711,1.711,0,0,0-.941.237,1.5,1.5,0,0,0-.562.668v6.425h-2.558v-9.51h2.382l.114,1.406a3,3,0,0,1,.866-1.164,1.932,1.932,0,0,1,1.226-.418,1.964,1.964,0,0,1,.356.031c.108.021.218.045.33.075Z" fill="#fff"/><path d="M1205.11,8009.755a5.167,5.167,0,0,1-.241-.686,4.655,4.655,0,0,1-.146-.738,3.505,3.505,0,0,1-1.042,1.151,2.592,2.592,0,0,1-1.542.457,3.211,3.211,0,0,1-2.3-.768,2.757,2.757,0,0,1-.809-2.1,2.507,2.507,0,0,1,1.077-2.167,5.379,5.379,0,0,1,3.142-.768h1.432v-.756a1.482,1.482,0,0,0-.36-1.064,1.68,1.68,0,0,0-2.026-.074,1.064,1.064,0,0,0-.338.839l-2.479-.009-.009-.053a2.416,2.416,0,0,1,1.046-2.078,4.561,4.561,0,0,1,2.91-.875,4.252,4.252,0,0,1,2.768.865,3,3,0,0,1,1.064,2.466v3.929a7.48,7.48,0,0,0,.1,1.257,6.405,6.405,0,0,0,.321,1.169Zm-2.347-1.714a2.195,2.195,0,0,0,1.2-.334,1.739,1.739,0,0,0,.712-.774v-1.344h-1.432a1.718,1.718,0,0,0-1.24.408,1.327,1.327,0,0,0-.421.989.988.988,0,0,0,.316.765A1.228,1.228,0,0,0,1202.763,8008.041Zm1.011-11.452h2.716l.017.052-2.434,2.286h-2.048Z" fill="#fff"/><path d="M1214.339,8007.136a.894.894,0,0,0-.41-.73,4.157,4.157,0,0,0-1.515-.545,6.126,6.126,0,0,1-2.545-1.014,2.212,2.212,0,0,1-.857-1.833,2.616,2.616,0,0,1,1.033-2.087,4.184,4.184,0,0,1,2.764-.858,4.535,4.535,0,0,1,2.9.853,2.519,2.519,0,0,1,1.033,2.153l-.018.053h-2.478a1.254,1.254,0,0,0-.365-.932,1.747,1.747,0,0,0-2.047-.056.95.95,0,0,0-.357.759.864.864,0,0,0,.374.721,4.091,4.091,0,0,0,1.516.5,6.151,6.151,0,0,1,2.61,1.032,2.271,2.271,0,0,1,.853,1.877,2.5,2.5,0,0,1-1.1,2.1,4.753,4.753,0,0,1-2.9.813,4.406,4.406,0,0,1-3-.962,2.691,2.691,0,0,1-1.051-2.193l.018-.053h2.346a1.337,1.337,0,0,0,.5,1.108,2.075,2.075,0,0,0,1.24.343,1.781,1.781,0,0,0,1.085-.282A.9.9,0,0,0,1214.339,8007.136Z" fill="#fff"/><path d="M1139.264,8046.553h-2.557v-5.318h-5.221v5.318h-2.566v-12.8h2.566v5.5h5.221v-5.5h2.557Z" fill="#fff"/><path d="M1141.057,8041.71a5.109,5.109,0,0,1,1.187-3.486,4.685,4.685,0,0,1,6.592,0,5.078,5.078,0,0,1,1.195,3.489v.184a5.093,5.093,0,0,1-1.191,3.5,4.7,4.7,0,0,1-6.592,0,5.088,5.088,0,0,1-1.191-3.5Zm2.558.18a4.12,4.12,0,0,0,.457,2.084,1.758,1.758,0,0,0,2.932,0,4.118,4.118,0,0,0,.461-2.08v-.184a4.064,4.064,0,0,0-.466-2.063,1.577,1.577,0,0,0-1.468-.8,1.558,1.558,0,0,0-1.455.8,4.106,4.106,0,0,0-.461,2.059Z" fill="#fff"/><path d="M1153.995,8037.043l.1,1.257a3.2,3.2,0,0,1,1.148-1.06,3.3,3.3,0,0,1,1.594-.373,2.91,2.91,0,0,1,1.565.4,2.5,2.5,0,0,1,.984,1.222,3.29,3.29,0,0,1,1.143-1.2,3.1,3.1,0,0,1,1.652-.431,2.744,2.744,0,0,1,2.22.971,4.543,4.543,0,0,1,.812,2.958v5.757h-2.566v-5.78a2.412,2.412,0,0,0-.352-1.506,1.279,1.279,0,0,0-1.045-.422,1.789,1.789,0,0,0-.945.242,1.755,1.755,0,0,0-.637.674c0,.111,0,.207.008.286s.009.16.009.242v6.264h-2.558v-5.78a2.426,2.426,0,0,0-.351-1.493,1.277,1.277,0,0,0-1.055-.435,1.994,1.994,0,0,0-.91.2,1.726,1.726,0,0,0-.645.559v6.951h-2.558v-9.51Z" fill="#fff"/><path d="M1175.765,8042.061a5.564,5.564,0,0,1-.949,3.4,3.211,3.211,0,0,1-2.742,1.274,2.907,2.907,0,0,1-1.445-.347,2.983,2.983,0,0,1-1.051-1.015l-.194,1.178h-2.2v-13.711h2.558v5.212a2.888,2.888,0,0,1,.989-.879,2.764,2.764,0,0,1,1.322-.308,3.152,3.152,0,0,1,2.76,1.367,6.272,6.272,0,0,1,.949,3.643Zm-2.557-.184a4.993,4.993,0,0,0-.409-2.214,1.432,1.432,0,0,0-1.393-.818,1.908,1.908,0,0,0-1.011.252,1.743,1.743,0,0,0-.65.72v4.05a1.634,1.634,0,0,0,.655.663,2.091,2.091,0,0,0,1.024.23,1.457,1.457,0,0,0,1.388-.7,4.113,4.113,0,0,0,.4-1.994Z" fill="#fff"/><path d="M1182.348,8039.249l-.94-.026a1.713,1.713,0,0,0-.941.237,1.5,1.5,0,0,0-.562.668v6.425h-2.558v-9.51h2.382l.114,1.406a2.994,2.994,0,0,1,.866-1.164,1.929,1.929,0,0,1,1.226-.418,1.966,1.966,0,0,1,.356.031c.108.021.218.045.33.075Z" fill="#fff"/><path d="M1183.254,8041.71a5.109,5.109,0,0,1,1.186-3.486,4.685,4.685,0,0,1,6.592,0,5.073,5.073,0,0,1,1.2,3.489v.184a5.089,5.089,0,0,1-1.191,3.5,4.7,4.7,0,0,1-6.592,0,5.088,5.088,0,0,1-1.19-3.5Zm2.557.18a4.131,4.131,0,0,0,.457,2.084,1.758,1.758,0,0,0,2.932,0,4.108,4.108,0,0,0,.461-2.08v-.184a4.053,4.053,0,0,0-.466-2.063,1.577,1.577,0,0,0-1.468-.8,1.559,1.559,0,0,0-1.455.8,4.106,4.106,0,0,0-.461,2.059Z" fill="#fff"/><path d="M1122.6,8091.084H1118.1l-.87,2.76h-2.593l4.4-12.8h2.628l4.385,12.8h-2.593Zm-3.858-2.013h3.226l-1.582-5.027h-.053Z" fill="#fff"/><path d="M1129.742,8093.844h-2.567v-13.711h2.567Z" fill="#fff"/><path d="M1134.9,8082v2.329h1.6v1.8h-1.6v4.842a1.115,1.115,0,0,0,.229.791.81.81,0,0,0,.615.238,2.128,2.128,0,0,0,.346-.023,2.685,2.685,0,0,0,.339-.074l.22,1.855a5.423,5.423,0,0,1-.756.2,4.65,4.65,0,0,1-.8.065,2.738,2.738,0,0,1-2.044-.729,3.2,3.2,0,0,1-.715-2.312v-4.851h-1.389v-1.8h1.389V8082Z" fill="#fff"/><path d="M1143.945,8092.473a3.2,3.2,0,0,1-1.116,1.151,3.293,3.293,0,0,1-3.906-.558,4.433,4.433,0,0,1-.849-2.993v-5.739h2.558v5.769a2.479,2.479,0,0,0,.351,1.5,1.235,1.235,0,0,0,1.037.453,2.558,2.558,0,0,0,1.055-.2,1.769,1.769,0,0,0,.721-.586v-6.932h2.566v9.51h-2.188Z" fill="#fff"/><path d="M1153.3,8086.54l-.941-.026a1.707,1.707,0,0,0-.94.237,1.506,1.506,0,0,0-.563.668v6.425H1148.3v-9.51h2.381l.115,1.406a2.983,2.983,0,0,1,.865-1.164,1.931,1.931,0,0,1,1.226-.418,1.958,1.958,0,0,1,.356.031c.108.021.219.045.33.075Z" fill="#fff"/><path d="M1160.178,8093.844a5.517,5.517,0,0,1-.241-.686,4.67,4.67,0,0,1-.145-.738,3.537,3.537,0,0,1-1.042,1.151,2.6,2.6,0,0,1-1.542.457,3.214,3.214,0,0,1-2.3-.768,2.757,2.757,0,0,1-.809-2.1,2.507,2.507,0,0,1,1.078-2.167,5.373,5.373,0,0,1,3.141-.769h1.433v-.755a1.477,1.477,0,0,0-.361-1.064,1.679,1.679,0,0,0-2.026-.074,1.065,1.065,0,0,0-.338.839l-2.478-.009-.009-.053a2.411,2.411,0,0,1,1.046-2.078,4.557,4.557,0,0,1,2.909-.875,4.25,4.25,0,0,1,2.768.865,3,3,0,0,1,1.064,2.466v3.929a7.372,7.372,0,0,0,.1,1.257,6.267,6.267,0,0,0,.321,1.169Zm-2.346-1.714a2.208,2.208,0,0,0,1.2-.334,1.744,1.744,0,0,0,.712-.774v-1.344h-1.433a1.714,1.714,0,0,0-1.239.408,1.328,1.328,0,0,0-.422.989.989.989,0,0,0,.316.765A1.227,1.227,0,0,0,1157.832,8092.13Z" fill="#fff"/><path d="M1168.352,8089.168a6.169,6.169,0,0,1,.972-3.63,3.15,3.15,0,0,1,2.737-1.38,2.664,2.664,0,0,1,1.283.308,3.081,3.081,0,0,1,1,.879v-5.212h2.576v13.711h-2.207l-.21-1.161a3.146,3.146,0,0,1-1.06,1,2.807,2.807,0,0,1-1.4.343,3.214,3.214,0,0,1-2.72-1.283,5.47,5.47,0,0,1-.972-3.393Zm2.558.186a3.91,3.91,0,0,0,.422,1.976,1.467,1.467,0,0,0,1.371.721,2,2,0,0,0,.967-.226,1.793,1.793,0,0,0,.676-.658v-4.076a1.966,1.966,0,0,0-.672-.7,1.778,1.778,0,0,0-.954-.252,1.446,1.446,0,0,0-1.375.839,4.762,4.762,0,0,0-.435,2.193Z" fill="#fff"/><path d="M1183.118,8094.028a4.281,4.281,0,0,1-3.287-1.318,4.712,4.712,0,0,1-1.231-3.349v-.351a5.2,5.2,0,0,1,1.165-3.49,4.343,4.343,0,0,1,6.113-.2,4.467,4.467,0,0,1,1.063,3.138v1.4h-5.678l-.017.053a2.465,2.465,0,0,0,.629,1.541,1.961,1.961,0,0,0,1.515.6,4.9,4.9,0,0,0,1.415-.172,6.491,6.491,0,0,0,1.231-.54l.694,1.586a4.743,4.743,0,0,1-1.52.79A6.591,6.591,0,0,1,1183.118,8094.028Zm-.229-7.892a1.335,1.335,0,0,0-1.125.545,2.83,2.83,0,0,0-.509,1.432l.026.044h3.146v-.228a2.062,2.062,0,0,0-.382-1.306A1.379,1.379,0,0,0,1182.889,8086.136Z" fill="#fff"/><path d="M1196.908,8092.051a1.519,1.519,0,0,0,1.1-.4,1.4,1.4,0,0,0,.413-1.061h2.329l.026.052a2.959,2.959,0,0,1-1.086,2.413,4.576,4.576,0,0,1-6.059-.374,5.12,5.12,0,0,1-1.152-3.454v-.263a5.157,5.157,0,0,1,1.147-3.454,4.052,4.052,0,0,1,3.274-1.354,4,4,0,0,1,2.835,1,3.329,3.329,0,0,1,1.041,2.637l-.018.052h-2.337a1.857,1.857,0,0,0-.405-1.226,1.372,1.372,0,0,0-1.116-.487,1.486,1.486,0,0,0-1.436.79,4.323,4.323,0,0,0-.418,2.036v.262a4.307,4.307,0,0,0,.418,2.05A1.5,1.5,0,0,0,1196.908,8092.051Z" fill="#fff"/><path d="M1207.815,8093.844a5.217,5.217,0,0,1-.241-.686,4.785,4.785,0,0,1-.146-.738,3.514,3.514,0,0,1-1.042,1.151,2.592,2.592,0,0,1-1.542.457,3.211,3.211,0,0,1-2.3-.768,2.757,2.757,0,0,1-.809-2.1,2.506,2.506,0,0,1,1.077-2.167,5.378,5.378,0,0,1,3.142-.769h1.432v-.755a1.482,1.482,0,0,0-.36-1.064,1.679,1.679,0,0,0-2.026-.074,1.064,1.064,0,0,0-.338.839l-2.479-.009-.008-.053a2.413,2.413,0,0,1,1.045-2.078,4.561,4.561,0,0,1,2.91-.875,4.251,4.251,0,0,1,2.768.865,3,3,0,0,1,1.064,2.466v3.929a7.476,7.476,0,0,0,.1,1.257,6.346,6.346,0,0,0,.322,1.169Zm-2.347-1.714a2.208,2.208,0,0,0,1.2-.334,1.74,1.74,0,0,0,.711-.774v-1.344h-1.432a1.714,1.714,0,0,0-1.239.408,1.325,1.325,0,0,0-.422.989.989.989,0,0,0,.316.765A1.225,1.225,0,0,0,1205.468,8092.13Z" fill="#fff"/><path d="M1211.507,8089.168a6.175,6.175,0,0,1,.971-3.63,3.152,3.152,0,0,1,2.737-1.38,2.671,2.671,0,0,1,1.284.308,3.081,3.081,0,0,1,1,.879v-5.212h2.575v13.711h-2.206l-.211-1.161a3.139,3.139,0,0,1-1.06,1,2.807,2.807,0,0,1-1.4.343,3.215,3.215,0,0,1-2.72-1.283,5.475,5.475,0,0,1-.971-3.393Zm2.557.186a3.92,3.92,0,0,0,.422,1.976,1.467,1.467,0,0,0,1.371.721,1.992,1.992,0,0,0,.967-.226,1.8,1.8,0,0,0,.677-.658v-4.076a1.979,1.979,0,0,0-.673-.7,1.777,1.777,0,0,0-.953-.252,1.446,1.446,0,0,0-1.375.839,4.761,4.761,0,0,0-.436,2.193Z" fill="#fff"/><path d="M1226.272,8094.028a4.281,4.281,0,0,1-3.287-1.318,4.716,4.716,0,0,1-1.23-3.349v-.351a5.2,5.2,0,0,1,1.165-3.49,4.342,4.342,0,0,1,6.112-.2,4.467,4.467,0,0,1,1.063,3.138v1.4h-5.677l-.018.053a2.465,2.465,0,0,0,.629,1.541,1.962,1.962,0,0,0,1.516.6,4.9,4.9,0,0,0,1.415-.172,6.455,6.455,0,0,0,1.23-.54l.694,1.586a4.734,4.734,0,0,1-1.52.79A6.587,6.587,0,0,1,1226.272,8094.028Zm-.228-7.892a1.333,1.333,0,0,0-1.125.545,2.822,2.822,0,0,0-.51,1.432l.026.044h3.147v-.228a2.056,2.056,0,0,0-.383-1.306A1.378,1.378,0,0,0,1226.044,8086.136Z" fill="#fff"/><path d="M1236.59,8086.54l-.94-.026a1.708,1.708,0,0,0-.94.237,1.506,1.506,0,0,0-.563.668v6.425h-2.557v-9.51h2.381l.115,1.406a2.98,2.98,0,0,1,.865-1.164,1.931,1.931,0,0,1,1.226-.418,1.965,1.965,0,0,1,.356.031c.108.021.219.045.33.075Z" fill="#fff"/><path d="M1243.472,8093.844a5.517,5.517,0,0,1-.241-.686,4.656,4.656,0,0,1-.145-.738,3.537,3.537,0,0,1-1.042,1.151,2.6,2.6,0,0,1-1.542.457,3.214,3.214,0,0,1-2.3-.768,2.757,2.757,0,0,1-.809-2.1,2.509,2.509,0,0,1,1.077-2.167,5.378,5.378,0,0,1,3.142-.769h1.433v-.755a1.478,1.478,0,0,0-.361-1.064,1.679,1.679,0,0,0-2.026-.074,1.064,1.064,0,0,0-.338.839l-2.478-.009-.009-.053a2.411,2.411,0,0,1,1.046-2.078,4.558,4.558,0,0,1,2.909-.875,4.249,4.249,0,0,1,2.768.865,3,3,0,0,1,1.064,2.466v3.929a7.476,7.476,0,0,0,.1,1.257,6.346,6.346,0,0,0,.322,1.169Zm-2.346-1.714a2.207,2.207,0,0,0,1.2-.334,1.743,1.743,0,0,0,.712-.774v-1.344h-1.433a1.714,1.714,0,0,0-1.239.408,1.328,1.328,0,0,0-.422.989.989.989,0,0,0,.316.765A1.226,1.226,0,0,0,1241.126,8092.13Z" fill="#fff"/><path d="M1123.726,8140.618h5.7v1.978h-8.262v-12.8h2.566Z" fill="#fff"/><path d="M1136.268,8142.6a5.217,5.217,0,0,1-.241-.686,4.67,4.67,0,0,1-.145-.738,3.542,3.542,0,0,1-1.042,1.151,2.6,2.6,0,0,1-1.542.457,3.214,3.214,0,0,1-2.3-.768,2.759,2.759,0,0,1-.809-2.1,2.51,2.51,0,0,1,1.077-2.167,5.379,5.379,0,0,1,3.142-.769h1.433v-.755a1.481,1.481,0,0,0-.361-1.064,1.681,1.681,0,0,0-2.026-.074,1.064,1.064,0,0,0-.338.839l-2.479-.009-.008-.053a2.411,2.411,0,0,1,1.046-2.078,4.558,4.558,0,0,1,2.909-.875,4.254,4.254,0,0,1,2.768.865,3,3,0,0,1,1.064,2.466v3.929a7.485,7.485,0,0,0,.1,1.257,6.356,6.356,0,0,0,.322,1.169Zm-2.346-1.714a2.207,2.207,0,0,0,1.2-.334,1.743,1.743,0,0,0,.712-.774v-1.344h-1.433a1.714,1.714,0,0,0-1.239.408,1.325,1.325,0,0,0-.422.989.989.989,0,0,0,.316.765A1.226,1.226,0,0,0,1133.922,8140.882Z" fill="#fff"/><path d="M1145.356,8135.292l-.94-.027a1.715,1.715,0,0,0-.941.238,1.5,1.5,0,0,0-.562.668v6.425h-2.558v-9.51h2.382l.114,1.406a3,3,0,0,1,.865-1.164,1.934,1.934,0,0,1,1.227-.418,1.965,1.965,0,0,1,.356.031c.108.021.218.045.33.074Z" fill="#fff"/><path d="M1146.261,8137.92a6.141,6.141,0,0,1,.98-3.63,3.176,3.176,0,0,1,2.747-1.38,2.7,2.7,0,0,1,1.406.36,3.156,3.156,0,0,1,1.037,1.029l.2-1.213h2.215v9.466a3.534,3.534,0,0,1-1.216,2.87,5.147,5.147,0,0,1-3.389,1.014,6.368,6.368,0,0,1-1.529-.2,7.034,7.034,0,0,1-1.495-.54l.475-1.916a6.061,6.061,0,0,0,1.2.427,5.8,5.8,0,0,0,1.332.144,2.3,2.3,0,0,0,1.551-.439,1.74,1.74,0,0,0,.5-1.371v-.861a2.876,2.876,0,0,1-.993.817,2.934,2.934,0,0,1-1.31.281,3.234,3.234,0,0,1-2.729-1.288,5.448,5.448,0,0,1-.98-3.388Zm2.567.186a3.91,3.91,0,0,0,.422,1.976,1.467,1.467,0,0,0,1.371.721,2.111,2.111,0,0,0,1-.217,1.65,1.65,0,0,0,.655-.632V8135.8a1.775,1.775,0,0,0-.655-.671,1.909,1.909,0,0,0-.98-.239,1.45,1.45,0,0,0-1.376.839,4.79,4.79,0,0,0-.434,2.193Z" fill="#fff"/><path d="M1156.422,8137.753a5.108,5.108,0,0,1,1.186-3.486,4.685,4.685,0,0,1,6.592,0,5.073,5.073,0,0,1,1.2,3.489v.184a5.087,5.087,0,0,1-1.191,3.5,4.7,4.7,0,0,1-6.592,0,5.087,5.087,0,0,1-1.19-3.5Zm2.557.179a4.131,4.131,0,0,0,.457,2.085,1.758,1.758,0,0,0,2.932,0,4.121,4.121,0,0,0,.461-2.081v-.183a4.056,4.056,0,0,0-.466-2.063,1.577,1.577,0,0,0-1.468-.8,1.559,1.559,0,0,0-1.455.8,4.107,4.107,0,0,0-.461,2.059Z" fill="#fff"/><path d="M1175.019,8129.8l3.261,9.43h.053l3.287-9.43h3.357v12.8h-2.566v-3.815l.246-5.651-.053-.009-3.428,9.475h-1.722l-3.41-9.44-.053.009.246,5.616v3.815h-2.566v-12.8Z" fill="#fff"/><path d="M1192.747,8142.6a5.217,5.217,0,0,1-.241-.686,4.564,4.564,0,0,1-.146-.738,3.532,3.532,0,0,1-1.042,1.151,2.6,2.6,0,0,1-1.542.457,3.216,3.216,0,0,1-2.3-.768,2.758,2.758,0,0,1-.808-2.1,2.507,2.507,0,0,1,1.077-2.167,5.377,5.377,0,0,1,3.141-.769h1.433v-.755a1.48,1.48,0,0,0-.36-1.064,1.683,1.683,0,0,0-2.027-.074,1.068,1.068,0,0,0-.338.839l-2.478-.009-.009-.053a2.414,2.414,0,0,1,1.046-2.078,4.557,4.557,0,0,1,2.909-.875,4.255,4.255,0,0,1,2.769.865,3,3,0,0,1,1.063,2.466v3.929a7.368,7.368,0,0,0,.1,1.257,6.343,6.343,0,0,0,.321,1.169Zm-2.347-1.714a2.205,2.205,0,0,0,1.2-.334,1.737,1.737,0,0,0,.712-.774v-1.344h-1.433a1.715,1.715,0,0,0-1.239.408,1.328,1.328,0,0,0-.422.989.99.99,0,0,0,.317.765A1.226,1.226,0,0,0,1190.4,8140.882Z" fill="#fff"/><path d="M1199.18,8133.086l.115,1.362a3.479,3.479,0,0,1,1.169-1.134,3.035,3.035,0,0,1,1.555-.4,2.862,2.862,0,0,1,2.25.9,4.182,4.182,0,0,1,.809,2.839v5.942H1202.5v-5.947a1.932,1.932,0,0,0-.387-1.361,1.556,1.556,0,0,0-1.169-.4,1.973,1.973,0,0,0-.914.207,1.864,1.864,0,0,0-.677.586v6.915h-2.566v-9.51Z" fill="#fff"/><path d="M1206.6,8137.92a6.133,6.133,0,0,1,.98-3.63,3.176,3.176,0,0,1,2.747-1.38,2.7,2.7,0,0,1,1.406.36,3.164,3.164,0,0,1,1.037,1.029l.2-1.213h2.215v9.466a3.532,3.532,0,0,1-1.217,2.87,5.142,5.142,0,0,1-3.388,1.014,6.381,6.381,0,0,1-1.53-.2,7.043,7.043,0,0,1-1.494-.54l.475-1.916a6.059,6.059,0,0,0,1.2.427,5.8,5.8,0,0,0,1.332.144,2.3,2.3,0,0,0,1.551-.439,1.74,1.74,0,0,0,.5-1.371v-.861a2.876,2.876,0,0,1-.993.817,2.937,2.937,0,0,1-1.31.281,3.233,3.233,0,0,1-2.729-1.288,5.441,5.441,0,0,1-.98-3.388Zm2.567.186a3.91,3.91,0,0,0,.422,1.976,1.467,1.467,0,0,0,1.371.721,2.11,2.11,0,0,0,1-.217,1.65,1.65,0,0,0,.655-.632V8135.8a1.774,1.774,0,0,0-.655-.671,1.908,1.908,0,0,0-.98-.239,1.45,1.45,0,0,0-1.376.839,4.79,4.79,0,0,0-.434,2.193Z" fill="#fff"/><path d="M1222.735,8142.6a5.217,5.217,0,0,1-.241-.686,4.672,4.672,0,0,1-.146-.738,3.522,3.522,0,0,1-1.042,1.151,2.6,2.6,0,0,1-1.542.457,3.213,3.213,0,0,1-2.3-.768,2.758,2.758,0,0,1-.809-2.1,2.507,2.507,0,0,1,1.077-2.167,5.379,5.379,0,0,1,3.142-.769h1.432v-.755a1.48,1.48,0,0,0-.36-1.064,1.681,1.681,0,0,0-2.026-.074,1.065,1.065,0,0,0-.338.839l-2.479-.009-.009-.053a2.414,2.414,0,0,1,1.046-2.078,4.561,4.561,0,0,1,2.91-.875,4.254,4.254,0,0,1,2.768.865,3,3,0,0,1,1.064,2.466v3.929a7.472,7.472,0,0,0,.1,1.257,6.421,6.421,0,0,0,.321,1.169Zm-2.347-1.714a2.2,2.2,0,0,0,1.2-.334,1.737,1.737,0,0,0,.712-.774v-1.344h-1.432a1.718,1.718,0,0,0-1.24.408,1.327,1.327,0,0,0-.421.989.989.989,0,0,0,.316.765A1.226,1.226,0,0,0,1220.388,8140.882Z" fill="#fff"/><path d="M1106.327,8240.618h5.695v1.978h-8.262v-12.8h2.567Z" fill="#fff"/><path d="M1118.869,8242.6a5.143,5.143,0,0,1-.241-.686,4.538,4.538,0,0,1-.146-.738,3.538,3.538,0,0,1-1.042,1.151,2.6,2.6,0,0,1-1.542.457,3.212,3.212,0,0,1-2.3-.769,2.756,2.756,0,0,1-.808-2.1,2.507,2.507,0,0,1,1.077-2.167,5.382,5.382,0,0,1,3.142-.77h1.432v-.755a1.479,1.479,0,0,0-.36-1.063,1.683,1.683,0,0,0-2.027-.074,1.068,1.068,0,0,0-.337.839l-2.479-.009-.009-.053a2.414,2.414,0,0,1,1.046-2.078,4.558,4.558,0,0,1,2.909-.875,4.252,4.252,0,0,1,2.769.865,3,3,0,0,1,1.063,2.466v3.929a7.469,7.469,0,0,0,.1,1.257,6.308,6.308,0,0,0,.321,1.169Zm-2.347-1.714a2.209,2.209,0,0,0,1.2-.334,1.736,1.736,0,0,0,.712-.773v-1.345h-1.432a1.72,1.72,0,0,0-1.24.408,1.33,1.33,0,0,0-.422.989.989.989,0,0,0,.317.765A1.225,1.225,0,0,0,1116.522,8240.882Z" fill="#fff"/><path d="M1127.957,8235.292l-.941-.027a1.707,1.707,0,0,0-.94.238,1.506,1.506,0,0,0-.563.668v6.425h-2.557v-9.51h2.382l.114,1.406a2.994,2.994,0,0,1,.865-1.164,1.934,1.934,0,0,1,1.227-.418,1.9,1.9,0,0,1,.355.031c.108.021.219.045.33.073Z" fill="#fff"/><path d="M1128.862,8237.92a6.141,6.141,0,0,1,.979-3.63,3.179,3.179,0,0,1,2.748-1.38,2.711,2.711,0,0,1,1.406.359,3.161,3.161,0,0,1,1.037,1.029l.2-1.213h2.215v9.466a3.532,3.532,0,0,1-1.217,2.87,5.146,5.146,0,0,1-3.389,1.014,6.4,6.4,0,0,1-1.529-.2,7.048,7.048,0,0,1-1.494-.54l.475-1.916a6.037,6.037,0,0,0,1.2.427,5.816,5.816,0,0,0,1.332.144,2.3,2.3,0,0,0,1.551-.438,1.74,1.74,0,0,0,.5-1.371v-.861a2.9,2.9,0,0,1-.993.817,2.944,2.944,0,0,1-1.31.281,3.238,3.238,0,0,1-2.73-1.288,5.448,5.448,0,0,1-.979-3.389Zm2.566.187a3.919,3.919,0,0,0,.422,1.976,1.47,1.47,0,0,0,1.371.721,2.1,2.1,0,0,0,1-.217,1.641,1.641,0,0,0,.656-.632V8235.8a1.771,1.771,0,0,0-.656-.671,1.9,1.9,0,0,0-.979-.239,1.45,1.45,0,0,0-1.376.839,4.789,4.789,0,0,0-.435,2.193Z" fill="#fff"/><path d="M1139.022,8237.753a5.111,5.111,0,0,1,1.187-3.486,4.685,4.685,0,0,1,6.591,0,5.076,5.076,0,0,1,1.2,3.489v.184a5.086,5.086,0,0,1-1.192,3.5,4.7,4.7,0,0,1-6.591,0,5.086,5.086,0,0,1-1.191-3.5Zm2.558.179a4.12,4.12,0,0,0,.457,2.085,1.757,1.757,0,0,0,2.931,0,4.106,4.106,0,0,0,.461-2.081v-.183a4.068,4.068,0,0,0-.465-2.063,1.579,1.579,0,0,0-1.468-.8,1.558,1.558,0,0,0-1.455.8,4.1,4.1,0,0,0-.461,2.059Z" fill="#fff"/><path d="M1153.665,8237.92a6.176,6.176,0,0,1,.971-3.63,3.153,3.153,0,0,1,2.738-1.38,2.664,2.664,0,0,1,1.283.308,3.086,3.086,0,0,1,1,.879v-5.212h2.575V8242.6h-2.206l-.211-1.161a3.128,3.128,0,0,1-1.06,1,2.8,2.8,0,0,1-1.4.344,3.217,3.217,0,0,1-2.72-1.283,5.479,5.479,0,0,1-.971-3.394Zm2.557.187a3.919,3.919,0,0,0,.422,1.976,1.468,1.468,0,0,0,1.371.721,2,2,0,0,0,.967-.226,1.8,1.8,0,0,0,.677-.658v-4.076a1.972,1.972,0,0,0-.673-.7,1.775,1.775,0,0,0-.953-.252,1.447,1.447,0,0,0-1.375.839,4.763,4.763,0,0,0-.436,2.193Z" fill="#fff"/><path d="M1168.43,8242.78a4.283,4.283,0,0,1-3.287-1.318,4.715,4.715,0,0,1-1.23-3.349v-.352a5.191,5.191,0,0,1,1.165-3.489,4.341,4.341,0,0,1,6.112-.2,4.464,4.464,0,0,1,1.064,3.138v1.4h-5.678l-.018.053a2.466,2.466,0,0,0,.629,1.541,1.965,1.965,0,0,0,1.516.6,4.9,4.9,0,0,0,1.415-.172,6.489,6.489,0,0,0,1.23-.54l.695,1.586a4.748,4.748,0,0,1-1.521.79A6.587,6.587,0,0,1,1168.43,8242.78Zm-.228-7.893a1.337,1.337,0,0,0-1.125.544,2.843,2.843,0,0,0-.51,1.434l.026.044h3.147v-.229a2.056,2.056,0,0,0-.383-1.306A1.379,1.379,0,0,0,1168.2,8234.888Z" fill="#fff"/><path d="M1178.9,8242.6v-7.708h-1.415v-1.8h1.415v-1.055a3.214,3.214,0,0,1,.923-2.465,3.643,3.643,0,0,1,2.593-.866,4.857,4.857,0,0,1,.664.048c.224.033.472.078.742.137l-.22,1.907c-.14-.024-.276-.044-.409-.062a3.519,3.519,0,0,0-.461-.026,1.233,1.233,0,0,0-.945.343,1.385,1.385,0,0,0-.32.984v1.055h1.889v1.8h-1.889v7.708Z" fill="#fff"/><path d="M1190.245,8242.6a5.143,5.143,0,0,1-.241-.686,4.551,4.551,0,0,1-.146-.738,3.537,3.537,0,0,1-1.042,1.151,2.6,2.6,0,0,1-1.542.457,3.212,3.212,0,0,1-2.3-.769,2.756,2.756,0,0,1-.808-2.1,2.507,2.507,0,0,1,1.077-2.167,5.382,5.382,0,0,1,3.142-.77h1.432v-.755a1.479,1.479,0,0,0-.36-1.063,1.683,1.683,0,0,0-2.027-.074,1.068,1.068,0,0,0-.337.839l-2.479-.009-.009-.053a2.414,2.414,0,0,1,1.046-2.078,4.558,4.558,0,0,1,2.909-.875,4.253,4.253,0,0,1,2.769.865,3,3,0,0,1,1.063,2.466v3.929a7.469,7.469,0,0,0,.1,1.257,6.317,6.317,0,0,0,.321,1.169Zm-2.347-1.714a2.21,2.21,0,0,0,1.2-.334,1.736,1.736,0,0,0,.712-.773v-1.345h-1.432a1.72,1.72,0,0,0-1.24.408,1.33,1.33,0,0,0-.422.989.99.99,0,0,0,.317.765A1.226,1.226,0,0,0,1187.9,8240.882Z" fill="#fff"/><path d="M1197.03,8242.6h-2.566v-13.711h2.566Z" fill="#fff"/><path d="M1198.744,8237.92a6.176,6.176,0,0,1,.971-3.63,3.153,3.153,0,0,1,2.738-1.38,2.664,2.664,0,0,1,1.283.308,3.085,3.085,0,0,1,1,.879v-5.212h2.575V8242.6h-2.206l-.211-1.161a3.134,3.134,0,0,1-1.059,1,2.807,2.807,0,0,1-1.4.344,3.217,3.217,0,0,1-2.72-1.283,5.479,5.479,0,0,1-.971-3.394Zm2.557.187a3.919,3.919,0,0,0,.422,1.976,1.47,1.47,0,0,0,1.371.721,2,2,0,0,0,.967-.226,1.8,1.8,0,0,0,.677-.658v-4.076a1.963,1.963,0,0,0-.673-.7,1.775,1.775,0,0,0-.953-.252,1.447,1.447,0,0,0-1.375.839,4.763,4.763,0,0,0-.436,2.193Z" fill="#fff"/><path d="M1214.881,8242.6a5.305,5.305,0,0,1-.242-.686,4.657,4.657,0,0,1-.145-.738,3.548,3.548,0,0,1-1.042,1.151,2.6,2.6,0,0,1-1.542.457,3.212,3.212,0,0,1-2.3-.769,2.756,2.756,0,0,1-.808-2.1,2.507,2.507,0,0,1,1.077-2.167,5.377,5.377,0,0,1,3.141-.77h1.433v-.755a1.479,1.479,0,0,0-.36-1.063,1.683,1.683,0,0,0-2.027-.074,1.069,1.069,0,0,0-.338.839l-2.478-.009-.009-.053a2.413,2.413,0,0,1,1.046-2.078,4.557,4.557,0,0,1,2.909-.875,4.253,4.253,0,0,1,2.769.865,3,3,0,0,1,1.063,2.466v3.929a7.368,7.368,0,0,0,.1,1.257,6.242,6.242,0,0,0,.321,1.169Zm-2.347-1.714a2.212,2.212,0,0,0,1.2-.334,1.736,1.736,0,0,0,.712-.773v-1.345h-1.433a1.716,1.716,0,0,0-1.239.408,1.33,1.33,0,0,0-.422.989.99.99,0,0,0,.317.765A1.224,1.224,0,0,0,1212.534,8240.882Z" fill="#fff"/><path d="M1082.536,8414.459h5.695v1.977h-8.262v-12.8h2.567Z" fill="#fff"/><path d="M1095.078,8416.436a5.081,5.081,0,0,1-.241-.685,4.538,4.538,0,0,1-.146-.738,3.537,3.537,0,0,1-1.042,1.151,2.6,2.6,0,0,1-1.542.457,3.208,3.208,0,0,1-2.3-.77,2.754,2.754,0,0,1-.808-2.1,2.506,2.506,0,0,1,1.077-2.167,5.383,5.383,0,0,1,3.142-.769h1.432v-.756a1.481,1.481,0,0,0-.36-1.063,1.683,1.683,0,0,0-2.027-.074,1.067,1.067,0,0,0-.337.838l-2.479-.008-.009-.053a2.415,2.415,0,0,1,1.046-2.078,4.558,4.558,0,0,1,2.909-.875,4.253,4.253,0,0,1,2.769.865,3,3,0,0,1,1.063,2.466v3.929a7.449,7.449,0,0,0,.1,1.256,6.276,6.276,0,0,0,.321,1.169Zm-2.347-1.713a2.2,2.2,0,0,0,1.2-.334,1.736,1.736,0,0,0,.712-.773v-1.346h-1.432a1.721,1.721,0,0,0-1.24.409,1.33,1.33,0,0,0-.422.989.985.985,0,0,0,.317.764A1.222,1.222,0,0,0,1092.731,8414.723Z" fill="#fff"/><path d="M1104.166,8409.133l-.941-.026a1.7,1.7,0,0,0-.94.237,1.5,1.5,0,0,0-.563.668v6.424h-2.557v-9.509h2.382l.114,1.406a3,3,0,0,1,.865-1.164,1.928,1.928,0,0,1,1.227-.418,1.9,1.9,0,0,1,.355.031c.108.021.219.045.33.074Z" fill="#fff"/><path d="M1105.071,8411.761a6.14,6.14,0,0,1,.979-3.63,3.179,3.179,0,0,1,2.748-1.38,2.7,2.7,0,0,1,1.406.36,3.148,3.148,0,0,1,1.037,1.028l.2-1.213h2.215v9.465a3.533,3.533,0,0,1-1.217,2.871,5.146,5.146,0,0,1-3.389,1.015,6.4,6.4,0,0,1-1.529-.2,7.1,7.1,0,0,1-1.494-.54l.475-1.916a6.1,6.1,0,0,0,1.2.427,5.869,5.869,0,0,0,1.332.145,2.3,2.3,0,0,0,1.551-.439,1.74,1.74,0,0,0,.5-1.371v-.861a2.885,2.885,0,0,1-.993.817,2.93,2.93,0,0,1-1.31.281,3.236,3.236,0,0,1-2.73-1.288,5.448,5.448,0,0,1-.979-3.388Zm2.566.187a3.917,3.917,0,0,0,.422,1.976,1.466,1.466,0,0,0,1.371.72,2.1,2.1,0,0,0,1-.216,1.64,1.64,0,0,0,.656-.632v-4.156a1.764,1.764,0,0,0-.656-.671,1.893,1.893,0,0,0-.979-.24,1.45,1.45,0,0,0-1.376.841,4.785,4.785,0,0,0-.435,2.192Z" fill="#fff"/><path d="M1115.231,8411.594a5.107,5.107,0,0,1,1.187-3.485,4.138,4.138,0,0,1,3.287-1.357,4.18,4.18,0,0,1,3.3,1.353,5.08,5.08,0,0,1,1.2,3.49v.185a5.085,5.085,0,0,1-1.192,3.494,4.7,4.7,0,0,1-6.591,0,5.085,5.085,0,0,1-1.191-3.494Zm2.558.18a4.125,4.125,0,0,0,.457,2.085,1.758,1.758,0,0,0,2.931-.006,4.1,4.1,0,0,0,.461-2.079v-.184a4.059,4.059,0,0,0-.465-2.062,1.578,1.578,0,0,0-1.468-.8,1.559,1.559,0,0,0-1.455.8,4.1,4.1,0,0,0-.461,2.059Z" fill="#fff"/><path d="M1129.874,8411.761a6.176,6.176,0,0,1,.971-3.63,3.153,3.153,0,0,1,2.738-1.38,2.663,2.663,0,0,1,1.283.307,3.108,3.108,0,0,1,1,.879v-5.212h2.575v13.711h-2.206l-.211-1.159a3.146,3.146,0,0,1-1.06,1,2.812,2.812,0,0,1-1.4.343,3.215,3.215,0,0,1-2.72-1.283,5.478,5.478,0,0,1-.971-3.393Zm2.557.187a3.917,3.917,0,0,0,.422,1.976,1.465,1.465,0,0,0,1.371.72,1.986,1.986,0,0,0,.967-.225,1.811,1.811,0,0,0,.677-.658v-4.077a1.985,1.985,0,0,0-.673-.7,1.767,1.767,0,0,0-.953-.253,1.447,1.447,0,0,0-1.375.841,4.761,4.761,0,0,0-.436,2.192Z" fill="#fff"/><path d="M1144.639,8416.621a4.282,4.282,0,0,1-3.287-1.318,4.716,4.716,0,0,1-1.23-3.349v-.353a5.193,5.193,0,0,1,1.165-3.488,4.341,4.341,0,0,1,6.112-.2,4.463,4.463,0,0,1,1.064,3.138v1.4h-5.678l-.018.053a2.466,2.466,0,0,0,.629,1.541,1.961,1.961,0,0,0,1.516.6,4.907,4.907,0,0,0,1.415-.171,6.424,6.424,0,0,0,1.23-.54l.695,1.585a4.71,4.71,0,0,1-1.521.79A6.586,6.586,0,0,1,1144.639,8416.621Zm-.228-7.894a1.336,1.336,0,0,0-1.125.546,2.827,2.827,0,0,0-.51,1.433l.026.044h3.147v-.229a2.054,2.054,0,0,0-.383-1.306A1.376,1.376,0,0,0,1144.411,8408.728Z" fill="#fff"/><path d="M1163.017,8411.945a5.466,5.466,0,0,1-.975,3.393,3.229,3.229,0,0,1-2.725,1.283,3.06,3.06,0,0,1-1.327-.276,2.732,2.732,0,0,1-.993-.813v4.562h-2.558v-13.166h2.312l.149,1.125a3.045,3.045,0,0,1,1.016-.963,2.748,2.748,0,0,1,1.383-.338,3.167,3.167,0,0,1,2.743,1.38,6.161,6.161,0,0,1,.975,3.63Zm-2.566-.2a4.623,4.623,0,0,0-.448-2.184,1.463,1.463,0,0,0-1.371-.837,1.936,1.936,0,0,0-.99.238,1.706,1.706,0,0,0-.645.677v4.174a1.579,1.579,0,0,0,.645.615,2.173,2.173,0,0,0,1.007.211,1.472,1.472,0,0,0,1.366-.729,3.856,3.856,0,0,0,.436-1.981Z" fill="#fff"/><path d="M1170.18,8416.436a5.385,5.385,0,0,1-.241-.685,4.67,4.67,0,0,1-.145-.738,3.547,3.547,0,0,1-1.042,1.151,2.6,2.6,0,0,1-1.542.457,3.208,3.208,0,0,1-2.3-.77,2.755,2.755,0,0,1-.809-2.1,2.508,2.508,0,0,1,1.077-2.167,5.382,5.382,0,0,1,3.142-.769h1.433v-.756a1.477,1.477,0,0,0-.361-1.063,1.681,1.681,0,0,0-2.026-.074,1.064,1.064,0,0,0-.338.838l-2.478-.008-.009-.053a2.412,2.412,0,0,1,1.046-2.078,4.558,4.558,0,0,1,2.909-.875,4.25,4.25,0,0,1,2.768.865,3,3,0,0,1,1.064,2.466v3.929a7.451,7.451,0,0,0,.1,1.256,6.279,6.279,0,0,0,.322,1.169Zm-2.346-1.713a2.2,2.2,0,0,0,1.2-.334,1.742,1.742,0,0,0,.712-.773v-1.346h-1.433a1.716,1.716,0,0,0-1.239.409,1.33,1.33,0,0,0-.422.989.984.984,0,0,0,.316.764A1.222,1.222,0,0,0,1167.834,8414.723Z" fill="#fff"/><path d="M1176.614,8406.927l.114,1.362a3.483,3.483,0,0,1,1.169-1.134,3.037,3.037,0,0,1,1.556-.4,2.861,2.861,0,0,1,2.25.905,4.18,4.18,0,0,1,.808,2.839v5.94h-2.575v-5.945a1.931,1.931,0,0,0-.387-1.361,1.554,1.554,0,0,0-1.168-.4,2,2,0,0,0-.915.207,1.873,1.873,0,0,0-.676.587v6.914h-2.567v-9.509Z" fill="#fff"/><path d="M1187.477,8404.6v2.329h1.6v1.8h-1.6v4.844a1.116,1.116,0,0,0,.229.791.816.816,0,0,0,.615.236,2.225,2.225,0,0,0,.347-.021,2.818,2.818,0,0,0,.339-.074l.219,1.854a5.289,5.289,0,0,1-.756.2,4.642,4.642,0,0,1-.8.065,2.732,2.732,0,0,1-2.044-.73,3.193,3.193,0,0,1-.716-2.311v-4.853h-1.389v-1.8h1.389V8404.6Z" fill="#fff"/><path d="M1196.293,8416.436a5.24,5.24,0,0,1-.242-.685,4.67,4.67,0,0,1-.145-.738,3.537,3.537,0,0,1-1.042,1.151,2.6,2.6,0,0,1-1.542.457,3.208,3.208,0,0,1-2.3-.77,2.754,2.754,0,0,1-.808-2.1,2.506,2.506,0,0,1,1.077-2.167,5.379,5.379,0,0,1,3.141-.769h1.433v-.756a1.481,1.481,0,0,0-.36-1.063,1.683,1.683,0,0,0-2.027-.074,1.068,1.068,0,0,0-.338.838l-2.478-.008-.009-.053a2.415,2.415,0,0,1,1.046-2.078,4.557,4.557,0,0,1,2.909-.875,4.253,4.253,0,0,1,2.769.865,3,3,0,0,1,1.063,2.466v3.929a7.349,7.349,0,0,0,.1,1.256,6.276,6.276,0,0,0,.321,1.169Zm-2.347-1.713a2.2,2.2,0,0,0,1.2-.334,1.737,1.737,0,0,0,.712-.773v-1.346h-1.433a1.716,1.716,0,0,0-1.239.409,1.33,1.33,0,0,0-.422.989.985.985,0,0,0,.317.764A1.222,1.222,0,0,0,1193.946,8414.723Z" fill="#fff"/><path d="M1203.078,8416.436h-2.567v-13.711h2.567Z" fill="#fff"/><path d="M1204.792,8411.594a5.106,5.106,0,0,1,1.186-3.485,4.139,4.139,0,0,1,3.287-1.357,4.182,4.182,0,0,1,3.3,1.353,5.08,5.08,0,0,1,1.2,3.49v.185a5.085,5.085,0,0,1-1.191,3.494,4.7,4.7,0,0,1-6.592,0,5.084,5.084,0,0,1-1.19-3.494Zm2.557.18a4.134,4.134,0,0,0,.457,2.085,1.759,1.759,0,0,0,2.932-.006,4.1,4.1,0,0,0,.461-2.079v-.184a4.05,4.05,0,0,0-.466-2.062,1.578,1.578,0,0,0-1.468-.8,1.56,1.56,0,0,0-1.455.8,4.114,4.114,0,0,0-.461,2.059Z" fill="#fff"/><path d="M1217.694,8406.927l.114,1.362a3.483,3.483,0,0,1,1.169-1.134,3.036,3.036,0,0,1,1.556-.4,2.861,2.861,0,0,1,2.25.905,4.18,4.18,0,0,1,.808,2.839v5.94h-2.575v-5.945a1.936,1.936,0,0,0-.386-1.361,1.558,1.558,0,0,0-1.169-.4,1.991,1.991,0,0,0-.914.207,1.868,1.868,0,0,0-.677.587v6.914H1215.3v-9.509Z" fill="#fff"/><ellipse cx="14.696" cy="5.848" rx="14.696" ry="5.848" transform="translate(1002.399 7918.565)" fill="none" stroke="#ccc" stroke-miterlimit="10" stroke-width="1"/><ellipse cx="14.696" cy="5.848" rx="14.696" ry="5.848" transform="translate(1002.399 7932.913)" fill="none" stroke="#ccc" stroke-miterlimit="10" stroke-width="1"/><ellipse cx="45.326" cy="4.826" rx="45.326" ry="4.826" transform="translate(971.268 8001.13)" fill="none" stroke="#ccc" stroke-miterlimit="10" stroke-width="1"/><ellipse cx="32.704" cy="4.826" rx="32.704" ry="4.826" transform="translate(984.122 8069.304)" fill="none" stroke="#ccc" stroke-miterlimit="10" stroke-width="1"/><ellipse cx="49.21" cy="5.402" rx="49.21" ry="5.402" transform="translate(967.363 8128.522)" fill="none" stroke="#ccc" stroke-miterlimit="10" stroke-width="1"/><ellipse cx="5.771" cy="1.12" rx="5.771" ry="1.12" transform="translate(1076.421 8163.848)" fill="none" stroke="#ccc" stroke-miterlimit="10" stroke-width="1"/><ellipse cx="8.674" cy="1.875" rx="8.674" ry="1.875" transform="translate(1071.41 8073.62)" fill="none" stroke="#ccc" stroke-miterlimit="10" stroke-width="1"/><ellipse cx="5.771" cy="1.12" rx="5.771" ry="1.12" transform="translate(945.095 8163.848)" fill="none" stroke="#ccc" stroke-miterlimit="10" stroke-width="1"/><path d="M962.585,8075.5c0,1.035-3.883,1.875-8.674,1.875s-8.674-.84-8.674-1.875,3.884-1.875,8.674-1.875S962.585,8074.459,962.585,8075.5Z" fill="none" stroke="#ccc" stroke-miterlimit="10" stroke-width="1"/><path d="M1048.79,8289.3c-1.1-1.26-2.077-2.282-2.826-3.044-1.69-1.716-2.263-2.121-2.956-2.435a5.12,5.12,0,0,0-3.044-.521,6.969,6.969,0,0,0-2.7,1.479,19.161,19.161,0,0,0-3.043,2.651,17.842,17.842,0,0,0-1.7,2.175" fill="none" stroke="#ccc" stroke-miterlimit="10" stroke-width="1"/><path d="M1001.358,8289.3c-1.1-1.26-2.077-2.282-2.827-3.044-1.689-1.716-2.262-2.121-2.956-2.435a5.116,5.116,0,0,0-3.044-.521,6.973,6.973,0,0,0-2.7,1.479,19.183,19.183,0,0,0-3.044,2.651,17.828,17.828,0,0,0-1.7,2.175" fill="none" stroke="#ccc" stroke-miterlimit="10" stroke-width="1"/><path d="M1039.355,8483.478a9.859,9.859,0,0,1-3.913,3.565,12.6,12.6,0,0,1-4.174,1.044,6.944,6.944,0,0,1-3.043,0,7.422,7.422,0,0,1-2.609-2c-.585-.557-1.041-1.047-1.348-1.391" fill="none" stroke="#ccc" stroke-miterlimit="10" stroke-width="1"/><path d="M994.486,8484.261a14.813,14.813,0,0,0,2.913,2.3,10.6,10.6,0,0,0,3.217,1.435,8.482,8.482,0,0,0,7.913-1.957,13.136,13.136,0,0,0,2.609-3.3,19.773,19.773,0,0,0,.956-1.739" fill="none" stroke="#ccc" stroke-miterlimit="10" stroke-width="1"/><path d="M965.008,8143.652c2.2,1.663,6.337,4.088,10.3,6.5,2.827,1.719,5.059,2.885,9.521,5.218,5.577,2.914,8.706,4.549,13.3,6.521,2.5,1.072,1.149.407,8.282,3.261a37.593,37.593,0,0,0,6.2,2.087,19.9,19.9,0,0,0,4.892.652,19.072,19.072,0,0,0,6.391-1.369c4.214-1.429,7.413-2.81,9.652-3.783,5.008-2.175,7.511-3.263,8.348-3.652,2.035-.949,7.3-3.45,13.891-7.239a64.487,64.487,0,0,0,9.261-6.131c1.352-1.1,2.428-2.076,3.17-2.777" fill="none" stroke="#ccc" stroke-miterlimit="10" stroke-width="1"/><path d="M1002.616,7910.261a24.314,24.314,0,0,0,4.392-3.218c2.078-1.923,2.325-2.857,4.26-4a11.419,11.419,0,0,1,4.261-1.478,11,11,0,0,1,3.435.087,11.686,11.686,0,0,1,3.087,1.087,22.056,22.056,0,0,1,4.565,3.609c1.058.964,1.333,1.274,3.348,3.13.638.588,1.167,1.07,1.522,1.392" fill="none" stroke="#ccc" stroke-miterlimit="10" stroke-width="1"/><path d="M1016.833,7901.7v266.609" fill="none" stroke="#ccc" stroke-miterlimit="10" stroke-width="1"/><path d="M1066.964,7960.783c-.466,1.115-1.025,2.57-1.565,4.3a51.64,51.64,0,0,0-1.305,5.13,84.35,84.35,0,0,0-1.347,10.479c-.291,3.7-.37,6.488-.435,8.913-.079,2.94,0,2.393-.087,10.782-.026,2.528-.043,3.579,0,5.3.071,2.858.247,5.2.391,6.782" fill="none" stroke="#ccc" stroke-miterlimit="10" stroke-width="1"/><path d="M967.3,7960.783c.465,1.115,1.024,2.57,1.565,4.3a51.432,51.432,0,0,1,1.3,5.13,84.229,84.229,0,0,1,1.348,10.479c.291,3.7.37,6.488.435,8.913.079,2.94,0,2.393.087,10.782.025,2.528.043,3.579,0,5.3-.071,2.858-.693,6.442-.837,8.021" fill="none" stroke="#ccc" stroke-miterlimit="10" stroke-width="1"/><path d="M984.138,8154.435c.751-2.942,1.615-6.36,2.565-10.174.709-2.845,1.743-7.028,2.957-12.044,2.036-8.417,3.053-12.625,3.652-15.391.922-4.264,1.919-9.93,3.913-21.261,1.769-10.054,1.936-11.359,2.087-12.782a125.315,125.315,0,0,0,.521-16.827c-.187-6.768-.691-10.5-1.7-20.086-1.572-15-1.022-12.4-2.218-23.218-1.066-9.653-2.145-17.218-4.3-32.347-2-14.029-.767-4.252-2.869-18.131a114.659,114.659,0,0,0-3.131-15c-.435-1.539-.829-2.8-1.108-3.672" fill="none" stroke="#ccc" stroke-miterlimit="10" stroke-width="1"/><path d="M1049.529,8154.435c-.751-2.942-1.615-6.36-2.565-10.174-.709-2.845-1.743-7.028-2.957-12.044-2.035-8.417-3.053-12.625-3.652-15.391-.922-4.264-1.919-9.93-3.913-21.261-1.769-10.054-1.936-11.359-2.087-12.782a125.315,125.315,0,0,1-.521-16.827c.187-6.768.691-10.5,1.7-20.086,1.572-15,1.022-12.4,2.218-23.218,1.066-9.653,2.145-17.218,4.3-32.347,2-14.029.767-4.252,2.87-18.131a114.441,114.441,0,0,1,3.13-15c.435-1.539.829-2.8,1.108-3.672" fill="none" stroke="#ccc" stroke-miterlimit="10" stroke-width="1"/><line x1="228.441" transform="translate(868.455 7944.609)" fill="none" stroke="#9e005d" stroke-miterlimit="10" stroke-width="1" stroke-dasharray="8"/><line x1="171.485" transform="translate(925.411 8010.783)" fill="none" stroke="#9e005d" stroke-miterlimit="10" stroke-width="1" stroke-dasharray="8"/><line x1="198.759" transform="translate(898.138 8074.13)" fill="none" stroke="#9e005d" stroke-miterlimit="10" stroke-width="1" stroke-dasharray="8"/><line x1="227.889" transform="translate(869.007 8144.696)" fill="none" stroke="#9e005d" stroke-miterlimit="10" stroke-width="1" stroke-dasharray="8"/><line y2="200.087" transform="translate(871.964 7944.609)" fill="none" stroke="#0e4c7a" stroke-miterlimit="10" stroke-width="1"/><line x2="7.5" transform="translate(868.16 8144.696)" fill="none" stroke="#0e4c7a" stroke-miterlimit="10" stroke-width="1"/><line x1="6.813" transform="translate(868.455 7944.609)" fill="none" stroke="#0e4c7a" stroke-miterlimit="10" stroke-width="1"/><line y2="129.522" transform="translate(900.833 7944.609)" fill="none" stroke="#0e4c7a" stroke-miterlimit="10" stroke-width="1"/><line x1="7.217" transform="translate(897.225 8074.13)" fill="none" stroke="#0e4c7a" stroke-miterlimit="10" stroke-width="1"/><line x1="8.304" transform="translate(896.877 7944.609)" fill="none" stroke="#0e4c7a" stroke-miterlimit="10" stroke-width="1"/><line y2="66.174" transform="translate(928.833 7944.609)" fill="none" stroke="#00a99d" stroke-miterlimit="10" stroke-width="1"/><line x2="6.335" transform="translate(925.411 8010.946)" fill="none" stroke="#00a99d" stroke-miterlimit="10" stroke-width="1"/><line x2="7.087" transform="translate(924.877 7944.609)" fill="none" stroke="#00a99d" stroke-miterlimit="10" stroke-width="1"/></g></svg>