<svg xmlns="http://www.w3.org/2000/svg" width="146.016" height="220.128" viewBox="0 0 146.016 220.128">
  <g id="Grupo_55667" data-name="Grupo 55667" transform="translate(-276.454 -6314.548)">
    <path id="Trazado_106798" data-name="Trazado 106798" d="M299.047,6323.224l-3.541,12.768a8.9,8.9,0,0,0,8.574,11.275h12.809a8.9,8.9,0,0,0,8.5-11.537l-3.885-12.506Z" fill="#51310f"/>
    <path id="Trazado_106799" data-name="Trazado 106799" d="M341.936,6433.777a23.25,23.25,0,0,1-3.631,8.633.361.361,0,0,1-.639-.271c.131-1.024.131-1.783.387-4.338.229-2.246.865-4.61.531-5.365s-.322-1.8-.838-1.76c-1.026.086-.754,2.932-.671,4.441,0,.04,0,.078,0,.118a.643.643,0,0,1-1.18.385,24.09,24.09,0,0,1-1.2-5.615c0-.043,0-.083,0-.124a4.742,4.742,0,0,1,.03-.548c.252-2.1.5-2.932,1.172-3.772s0-3.772,0-3.772-4.411-17.559-5.615-23.471c-1.263-6.194-4.122-24.276-4.419-26.162l-.007-.04-.008-.048a.14.14,0,0,0,0,.036l.007.065c.01.1.02.2.03.3.008.065.013.13.018.193l.023.264.007.119c.008.1.013.188.018.279.01.173.017.342.022.508.011.349.011.681,0,1-.005.116-.008.229-.013.34,0,.03,0,.057-.005.088-.007.12-.015.239-.025.354-.01.131-.02.257-.032.377s-.028.244-.043.363c-.013.1-.028.2-.043.291-.033.214-.07.415-.113.606-.008.041-.015.081-.025.119-.018.088-.038.173-.061.256s-.04.164-.063.241a7.417,7.417,0,0,1-.862,2.015c-.025.043-.053.083-.081.123a3.638,3.638,0,0,1-.435.538l-.032.033a.548.548,0,0,1-.048.043.281.281,0,0,0-.028.042l0,0a2.109,2.109,0,0,0-.2.523c-.018.07-.038.143-.055.224-.01.048-.02.1-.03.146-.068.324-.129.711-.182,1.151-.012.109-.025.222-.037.335-.018.161-.035.329-.051.5-.022.239-.045.488-.062.747-.01.111-.018.224-.026.337-.047.682-.085,1.416-.115,2.176-.005.123-.01.249-.015.374-.005.146-.01.292-.015.44,0,.114-.008.227-.01.34,0,.043,0,.085,0,.131-.005.138-.01.279-.013.42-.005.246-.012.493-.017.739,0,.126,0,.254-.005.38v.053c0,.078,0,.153-.005.228-.038,2.729.01,5.327.1,6.652.015.211.031.415.048.606a40.9,40.9,0,0,0,2.392,10.6,76.66,76.66,0,0,1,3.166,9.538A60.9,60.9,0,0,1,330.5,6430c.012,1.556-.038,3.178-.154,4.944a91.818,91.818,0,0,1-2.859,15.682c-1.137,4.655-3.073,9.109-3.041,13.942.031,4.547.679,9.232.513,13.683a74.262,74.262,0,0,1-1.715,13.11c-3.52,16.095-4.861,25.317-4.861,28.5s1.342,4.193,1.006,5.2a5.176,5.176,0,0,0-.337,2.683,21.946,21.946,0,0,0,2.013,3.664,1.494,1.494,0,0,1,.027,1.585,3.619,3.619,0,0,1-2.709,1.455,20.711,20.711,0,0,1-5.586.065,1.512,1.512,0,0,1-.78-.34h0a1.521,1.521,0,0,1-.526-1.428l.688-4,.672-4.024h0a5.44,5.44,0,0,1-.206-3.423l.206-.769a59.859,59.859,0,0,0,.334-11.065,148.483,148.483,0,0,1-.772-19.239c.075-7.313,1.692-14.5,1.285-22.427-.576-11.271-2.389-22.822-2.2-34.015.02-1.237.058-2.535-.03-3.787-.02-.325-.05-.649-.093-.966a4.98,4.98,0,0,1-1.119.173,5.038,5.038,0,0,1-1.124-.173c-.043.317-.073.639-.093.966-.088,1.252-.051,2.55-.028,3.787.184,11.193-1.627,22.744-2.206,34.015-.4,7.927,1.213,15.114,1.286,22.427a148.482,148.482,0,0,1-.77,19.239,59.861,59.861,0,0,0,.334,11.065l.206.769a5.44,5.44,0,0,1-.206,3.423h0l.672,4.024.688,4a1.521,1.521,0,0,1-.526,1.428h0a1.508,1.508,0,0,1-.78.34,20.711,20.711,0,0,1-5.586-.065,3.619,3.619,0,0,1-2.71-1.455,1.494,1.494,0,0,1,.028-1.584,21.8,21.8,0,0,0,2.01-3.665,5.162,5.162,0,0,0-.334-2.683c-.335-1.006,1.006-2.012,1.006-5.2s-1.341-12.405-4.861-28.5a74.262,74.262,0,0,1-1.715-13.11c-.166-4.451.482-9.136.513-13.683.03-4.833-1.907-9.287-3.041-13.942a91.818,91.818,0,0,1-2.859-15.682c-.116-1.766-.169-3.388-.153-4.944a60.7,60.7,0,0,1,1.561-12.7,77.976,77.976,0,0,1,3.2-9.644,40.685,40.685,0,0,0,2.356-10.5c.018-.191.033-.393.048-.6.09-1.325.138-3.921.1-6.647,0-.078,0-.153,0-.228v-.053c0-.126-.005-.252-.005-.377-.005-.249-.012-.5-.017-.745,0-.141-.008-.279-.013-.42,0-.045,0-.088,0-.131,0-.113-.008-.226-.01-.339-.006-.148-.011-.294-.016-.44-.005-.126-.01-.252-.015-.375-.012-.324-.027-.641-.042-.95,0-.106-.01-.212-.018-.315-.018-.314-.035-.618-.055-.913-.008-.115-.018-.226-.025-.337q-.031-.4-.066-.777c-.015-.163-.03-.319-.048-.47-.01-.1-.022-.191-.032-.284s-.023-.181-.036-.269-.022-.174-.035-.257c-.017-.133-.037-.261-.06-.382q-.049-.269-.1-.49c-.015-.056-.028-.111-.04-.161l0-.015a2.59,2.59,0,0,0-.083-.267c-.008-.025-.018-.05-.028-.073a1.41,1.41,0,0,0-.088-.184l-.005-.007c-.01-.013-.018-.025-.025-.035s-2.5-2.457-1.761-8.473c-.284,1.788-3.156,19.965-4.421,26.177-1.207,5.912-5.618,23.471-5.618,23.471s-.669,2.935,0,3.772.923,1.677,1.175,3.772a4.8,4.8,0,0,1,.027.672,24.142,24.142,0,0,1-1.2,5.615.629.629,0,0,1-.53.292.641.641,0,0,1-.649-.677l.007-.118c.083-1.509.352-4.355-.671-4.441-.516-.043-.5,1.006-.838,1.76s.3,3.119.529,5.365c.259,2.555.259,3.314.387,4.338a.361.361,0,0,1-.639.271,23.217,23.217,0,0,1-3.631-8.633A9.971,9.971,0,0,1,278.9,6430a24.046,24.046,0,0,1,1.421-3.69c.251-.669,3.186-32.021,3.186-32.021a206.8,206.8,0,0,1,2.6-27.663c.7-3.883,1.4-7.335,2.7-9.664,2.183-3.916,5.638-3.38,9.408-3.574.465-.022.92-.058,1.36-.115a7.107,7.107,0,0,0,2.523-.727c2.736-1.491,3.5-3.594,3.435-6.247a17.116,17.116,0,0,0-.146-1.8,7.615,7.615,0,0,0,4.806,1.916,8.113,8.113,0,0,0,4.919-1.916c-.073.563-.123,1.109-.143,1.632-.1,2.734.638,4.9,3.432,6.418a7.12,7.12,0,0,0,2.53.729c.108.015.219.028.332.038.035,0,.068.005.1.01.191.018.385.033.579.045.115.008.231.015.347.02,3.769.194,7.217-.339,9.4,3.574,1.3,2.329,2,5.781,2.693,9.664a207.349,207.349,0,0,1,2.606,27.663s2.932,31.352,3.184,32.021A24.307,24.307,0,0,1,341.6,6430,9.992,9.992,0,0,1,341.936,6433.777Z" fill="#ffc188"/>
    <g id="Grupo_55647" data-name="Grupo 55647">
      <path id="Trazado_106800" data-name="Trazado 106800" d="M310.316,6358.805c-.808,0-1.753-1.129-2.04-1.5a.377.377,0,1,1,.6-.464c.526.676,1.233,1.259,1.455,1.207a3.579,3.579,0,0,0,1.294-1.194.377.377,0,1,1,.613.438c-.094.132-.941,1.293-1.724,1.488A.8.8,0,0,1,310.316,6358.805Z" fill="#f7b176"/>
    </g>
    <path id="Trazado_106801" data-name="Trazado 106801" d="M285.537,6394.507c.863,1.494,2.945,3.319,2.9,2.383a8.814,8.814,0,0,0-1.947-3.964C286.1,6392.33,285.18,6393.889,285.537,6394.507Z" fill="#f7b176"/>
    <path id="Trazado_106802" data-name="Trazado 106802" d="M315.113,6344c-.073.563-.123,1.109-.143,1.632a7.122,7.122,0,0,1-5.012,2.045,6.258,6.258,0,0,1-4.424-1.874,17.117,17.117,0,0,0-.146-1.8,7.615,7.615,0,0,0,4.806,1.916A8.113,8.113,0,0,0,315.113,6344Z" fill="#f7b176"/>
    <path id="Trazado_106803" data-name="Trazado 106803" d="M320.069,6331.8s-1.307,14.87-10.111,14.87c-8,0-9.5-14.87-9.5-14.87s-1.456-16.386,9.636-16.386S320.069,6331.8,320.069,6331.8Z" fill="#ffc188"/>
    <path id="Trazado_106804" data-name="Trazado 106804" d="M325.982,6374.827c-.005.116-.008.229-.013.34,0,.03,0,.057-.005.088-.007.12-.015.239-.025.354-.01.131-.02.257-.032.377s-.028.244-.043.363c-.013.1-.028.2-.043.291-.033.214-.07.415-.113.606-.008.041-.015.081-.025.119-.018.088-.038.173-.061.256s-.04.164-.063.241a7.417,7.417,0,0,1-.862,2.015c-.025.043-.053.083-.081.123a3.638,3.638,0,0,1-.435.538l-.032.033a.548.548,0,0,1-.048.043.281.281,0,0,0-.028.042l0,0a2.109,2.109,0,0,0-.2.523c-.018.07-.038.143-.055.224-.01.048-.02.1-.03.146-.068.324-.129.711-.182,1.151-.012.109-.025.222-.037.335-.018.161-.035.329-.051.5-.022.239-.045.488-.062.747-.01.111-.018.224-.026.337-.047.682-.085,1.416-.115,2.176-.005.123-.01.249-.015.374-.005.146-.01.292-.015.44,0,.114-.008.227-.01.34,0,.043,0,.085,0,.131-.005.138-.01.279-.013.42-.005.246-.012.493-.017.739,0,.126,0,.254-.005.38v.053c0,.078,0,.153-.005.228-.038,2.729.01,5.327.1,6.652.015.211.031.415.048.606a40.9,40.9,0,0,0,2.392,10.6c-.783,1.394-4.336,4.382-7.717,9.319a101.179,101.179,0,0,0-6.683,11.956,4.98,4.98,0,0,1-1.119.173,5.038,5.038,0,0,1-1.124-.173,100.026,100.026,0,0,0-6.586-11.906c-3.392-5-6.983-8.078-7.776-9.475a40.685,40.685,0,0,0,2.356-10.5c.018-.191.033-.393.048-.6.09-1.325.138-3.921.1-6.647,0-.078,0-.153,0-.228v-.053c0-.126-.005-.252-.005-.377-.005-.249-.012-.5-.017-.745,0-.141-.008-.279-.013-.42,0-.045,0-.088,0-.131,0-.113-.008-.226-.01-.339-.006-.148-.011-.294-.016-.44-.005-.126-.01-.252-.015-.375-.012-.324-.027-.641-.042-.95,0-.106-.01-.212-.018-.315-.018-.314-.035-.618-.055-.913-.008-.115-.018-.226-.025-.337q-.031-.4-.066-.777c-.015-.163-.03-.319-.048-.47-.01-.1-.022-.191-.032-.284s-.023-.181-.036-.269-.022-.174-.035-.257c-.017-.133-.037-.261-.06-.382q-.049-.269-.1-.49c-.015-.056-.028-.111-.04-.161l0-.015a2.59,2.59,0,0,0-.083-.267c-.008-.025-.018-.05-.028-.073a1.41,1.41,0,0,0-.088-.184l-.005-.007c-.01-.013-.018-.025-.025-.035s-2.5-2.457-1.761-8.473a.14.14,0,0,0,.03.083l-.03-.083a46.591,46.591,0,0,0,3.579-18.748c.465-.022.92-.058,1.36-.115.01.037.023.075.033.115.6,2.186.936,8.478,2.279,13.238a17.94,17.94,0,0,0,3.166,6.433,10.817,10.817,0,0,0,5.2,3.775,10.875,10.875,0,0,0,5.329-3.938,18.115,18.115,0,0,0,3.038-6.27c1.343-4.76,1.677-11.052,2.279-13.238.01-.04.022-.075.032-.113v0c.111.015.222.027.332.04.035,0,.068.005.1.01.191.018.385.033.579.045.115.008.231.015.347.02a46.841,46.841,0,0,0,3.543,18.668.041.041,0,0,0,.01-.028.238.238,0,0,0,.005.035.14.14,0,0,0,0,.036s.005.007.005.012a.131.131,0,0,1,.012.025l-.005.015-.005.013c.01.1.02.2.03.3.008.065.013.13.018.193l.023.264.007.119c.008.1.013.188.018.279.01.173.017.342.022.508C325.99,6374.178,325.99,6374.51,325.982,6374.827Z" fill="#ff9696"/>
    <g id="Grupo_55648" data-name="Grupo 55648">
      <path id="Trazado_106805" data-name="Trazado 106805" d="M307.3,6379.977c-.04.028-3.39,2.475-6.9,2.475a6.46,6.46,0,0,1-1.929-.277,5.114,5.114,0,0,1-1.843-.995,2.184,2.184,0,0,0-.2-.524,4.872,4.872,0,0,0,2.115,1.28c3.978,1.218,8.741-2.19,8.782-2.135A.127.127,0,0,1,307.3,6379.977Z" fill="#e88787"/>
    </g>
    <path id="Trazado_106806" data-name="Trazado 106806" d="M334.963,6394.507c-.863,1.494-2.946,3.319-2.9,2.383a8.814,8.814,0,0,1,1.947-3.964C334.4,6392.33,335.319,6393.889,334.963,6394.507Z" fill="#f7b176"/>
    <g id="Grupo_55649" data-name="Grupo 55649">
      <path id="Trazado_106807" data-name="Trazado 106807" d="M321.958,6381.936a4.92,4.92,0,0,0,2.113-1.277,2.109,2.109,0,0,0-.2.523,5.119,5.119,0,0,1-1.841.993,6.483,6.483,0,0,1-1.929.277c-3.51,0-6.86-2.447-6.9-2.475a.128.128,0,0,1-.028-.176c.043-.055,3.5,2.4,6.921,2.4A6.364,6.364,0,0,0,321.958,6381.936Z" fill="#e88787"/>
      <path id="Trazado_106808" data-name="Trazado 106808" d="M324.616,6380a3.638,3.638,0,0,1-.435.538A5.06,5.06,0,0,0,324.616,6380Z" fill="#e88787"/>
    </g>
    <path id="Trazado_106809" data-name="Trazado 106809" d="M321.241,6330.252c.813.355-.267,2.818-.319,3.118-.256,1.5-.139.877-.395,2.374a1.029,1.029,0,0,1-.785.719.577.577,0,0,1-.539-.279c-.1-.171.13-.37.119-.562a13.238,13.238,0,0,1,.467-4.327,1.543,1.543,0,0,1,.407-.781A1.205,1.205,0,0,1,321.241,6330.252Z" fill="#ffc188"/>
    <path id="Trazado_106810" data-name="Trazado 106810" d="M319.72,6331.562v-.01c-.033-2.359-2.545-7.927-4.7-8.907a2.835,2.835,0,0,0-1.735-.073l-.088.017c-3.77.845-10.112,6.3-9.376,11.727-.052-.06-2.411-4.444-2.514-4.59-2.737-3.9-2.835-9.765,1.1-12.694a11.4,11.4,0,0,1,2.218-1.233,14.63,14.63,0,0,1,6.677-1.111l0,0a14,14,0,0,1,4.521,1.019,10.664,10.664,0,0,1,2.075,1.137,7.9,7.9,0,0,1,2.288,2.595l0,0C322.29,6323.135,322.207,6328.622,319.72,6331.562Z" fill="#603e15"/>
    <path id="Trazado_106811" data-name="Trazado 106811" d="M313.285,6322.572l-.088.017a11.875,11.875,0,0,0,.367-2.019c.168-1.627-.626-5.06-2.258-5.88a5.485,5.485,0,0,1,2.763,4.1A6.111,6.111,0,0,1,313.285,6322.572Z" fill="#51310f"/>
    <path id="Trazado_106812" data-name="Trazado 106812" d="M299.923,6320.344s-5.611,13.48-.209,20.72a39,39,0,0,0,3.6,4.443s-3.939-13.58-.251-18.358S299.923,6320.344,299.923,6320.344Z" fill="#603e15"/>
    <path id="Trazado_106813" data-name="Trazado 106813" d="M422.41,6433.777a23.25,23.25,0,0,1-3.631,8.633.361.361,0,0,1-.639-.271c.131-1.024.131-1.783.387-4.338.229-2.246.865-4.61.531-5.365s-.322-1.8-.838-1.76c-1.026.086-.754,2.932-.671,4.441,0,.04,0,.078,0,.118a.643.643,0,0,1-1.18.385,24.09,24.09,0,0,1-1.2-5.615c0-.043,0-.083,0-.124a4.521,4.521,0,0,1,.031-.548c.251-2.1.5-2.932,1.171-3.772s0-3.772,0-3.772-4.411-17.559-5.615-23.471c-1.263-6.194-4.122-24.276-4.419-26.162l-.007-.04,0-.01a.069.069,0,0,0,0-.02.019.019,0,0,0,0,.018l0,.01v0c-.063.309-.613,2.953-1.086,5.216-.37,1.775-.694,3.317-.7,3.324l0,0a2.109,2.109,0,0,0-.2.523c-.018.07-.038.143-.055.224-.01.048-.02.1-.03.146-.068.324-.129.711-.181,1.151-.013.109-.026.222-.038.335-.018.161-.035.329-.051.5-.022.239-.045.488-.062.747-.01.111-.018.224-.026.337-.047.682-.085,1.416-.115,2.176-.005.123-.01.249-.015.374-.005.146-.01.292-.015.44,0,.114-.008.227-.01.34,0,.043,0,.085,0,.131-.005.138-.01.279-.013.42-.005.246-.012.493-.017.739,0,.126,0,.254-.005.38v.053c0,.078,0,.153-.005.228-.028,2-.01,3.934.038,5.344.007.36.025.732.05,1.109,0,.066.007.131.012.2.013.2.031.4.048.606a40.9,40.9,0,0,0,2.392,10.6,76.66,76.66,0,0,1,3.166,9.538,60.9,60.9,0,0,1,1.562,12.7c.012,1.556-.038,3.178-.154,4.944a91.818,91.818,0,0,1-2.859,15.682c-1.137,4.655-3.073,9.109-3.041,13.942.031,4.547.679,9.232.513,13.683a74.262,74.262,0,0,1-1.715,13.11c-3.52,16.095-4.861,25.317-4.861,28.5s1.341,4.193,1.006,5.2a5.166,5.166,0,0,0-.337,2.683c.126.631,1.185,6.45-.417,6.7a22.843,22.843,0,0,1-5.837.066,1.537,1.537,0,0,1-.78-.34c-.352-.294.161-5.424.161-5.424l.672-4.024a5.443,5.443,0,0,1-.207-3.423l.207-.769a59.859,59.859,0,0,0,.334-11.065,148.488,148.488,0,0,1-.772-19.239c.076-7.313,1.693-14.5,1.285-22.427-.576-11.271-2.389-22.822-2.2-34.015.02-1.215.055-2.487-.025-3.719,0-.023,0-.046-.005-.068-.018-.29-.043-.579-.08-.86,0-.036-.008-.071-.013-.106a5.546,5.546,0,0,1-1,.171c-.038,0-.076,0-.116,0s-.073,0-.111,0a5.525,5.525,0,0,1-1.013-.171c-.005.035-.01.07-.013.106-.038.281-.063.568-.08.86,0,.022,0,.047-.005.07-.081,1.23-.046,2.5-.023,3.717.184,11.193-1.627,22.744-2.2,34.015-.4,7.927,1.212,15.114,1.285,22.427a148.482,148.482,0,0,1-.77,19.239,59.826,59.826,0,0,0,.335,11.065l.206.769a5.446,5.446,0,0,1-.206,3.423l.671,4.024s.581,5.075.161,5.424a1.529,1.529,0,0,1-.78.34,22.843,22.843,0,0,1-5.837-.066c-1.6-.254-.545-6.073-.42-6.7a5.162,5.162,0,0,0-.334-2.683c-.334-1.006,1.006-2.012,1.006-5.2s-1.34-12.405-4.861-28.5a74.262,74.262,0,0,1-1.715-13.11c-.166-4.451.483-9.136.513-13.683.03-4.833-1.907-9.287-3.041-13.942a91.916,91.916,0,0,1-2.859-15.682c-.116-1.766-.169-3.388-.153-4.944a60.7,60.7,0,0,1,1.561-12.7,77.976,77.976,0,0,1,3.2-9.644,40.685,40.685,0,0,0,2.356-10.5c.018-.191.033-.393.048-.6.09-1.325.138-3.921.1-6.647,0-.078,0-.153,0-.228v-.053c0-.126-.005-.252-.005-.377-.005-.249-.012-.5-.017-.745,0-.141-.008-.279-.013-.42,0-.045,0-.088,0-.131,0-.113-.008-.226-.01-.339,0-.148-.011-.294-.016-.44-.005-.126-.01-.252-.015-.375-.012-.324-.027-.641-.042-.95,0-.106-.01-.212-.018-.315-.018-.314-.035-.618-.055-.913-.008-.115-.018-.226-.025-.337q-.031-.4-.066-.777c-.015-.163-.03-.319-.048-.47-.01-.1-.022-.191-.032-.284s-.023-.181-.036-.269-.022-.174-.035-.257c-.017-.133-.037-.261-.06-.382-.033-.179-.065-.342-.1-.49-.015-.056-.028-.111-.04-.161l0-.015,0-.011c-.038-.158-.435-1.85-.868-3.724-.47-2.009-.985-4.222-1.159-4.967.013-.118.025-.239.04-.362-.012.078-.03.184-.05.32-.478,3.01-3.161,19.937-4.371,25.882-1.207,5.912-5.618,23.471-5.618,23.471a11.269,11.269,0,0,0-.274,2.922v0a1.675,1.675,0,0,0,.274.845c.672.84.923,1.677,1.175,3.772a4.8,4.8,0,0,1,.027.672,24.142,24.142,0,0,1-1.2,5.615.629.629,0,0,1-.53.292.641.641,0,0,1-.649-.677l.007-.118c.083-1.509.113-5.1-.671-4.441-.4.34-.5,1.006-.838,1.76s.3,3.119.529,5.365c.259,2.555.259,3.314.387,4.338a.361.361,0,0,1-.639.271,23.233,23.233,0,0,1-3.631-8.633,9.971,9.971,0,0,1,.339-3.772,24.158,24.158,0,0,1,1.421-3.69c.252-.669,3.186-32.021,3.186-32.021a206.8,206.8,0,0,1,2.6-27.663c.7-3.883,1.4-7.335,2.7-9.664,2.183-3.916,5.638-3.38,9.408-3.574.465-.022.92-.058,1.36-.115a7.107,7.107,0,0,0,2.523-.727,6.071,6.071,0,0,0,3.04-3.32,6.215,6.215,0,0,0,.242-.875,9.308,9.308,0,0,0,.153-2.052c0-.131-.007-.264-.015-.4.02-.4.023-.807.015-1.23a.344.344,0,0,0,0-.045,7.582,7.582,0,0,0,4.662,1.788,8.047,8.047,0,0,0,4.771-1.79c-.01.437-.005.865.017,1.28-.005.075-.01.151-.012.226a9.2,9.2,0,0,0,.153,2.223,5.824,5.824,0,0,0,3.279,4.195,7.12,7.12,0,0,0,2.53.729c.108.015.219.028.332.038.035,0,.068.005.1.01.191.018.385.033.579.045.115.008.231.015.347.02,3.769.194,6.966-.088,9.149,3.825,1.3,2.329,2,5.782,2.693,9.665a207.275,207.275,0,0,1,2.6,27.663s3.184,31.1,3.436,31.769a24.307,24.307,0,0,1,1.423,3.69A9.992,9.992,0,0,1,422.41,6433.777Z" fill="#ffc188"/>
    <path id="Trazado_106814" data-name="Trazado 106814" d="M395.587,6344c-.073.563-.123,1.109-.143,1.632a7.122,7.122,0,0,1-5.012,2.045,6.258,6.258,0,0,1-4.424-1.874,17.117,17.117,0,0,0-.146-1.8,7.615,7.615,0,0,0,4.806,1.916A8.109,8.109,0,0,0,395.587,6344Z" fill="#f7b176"/>
    <path id="Trazado_106815" data-name="Trazado 106815" d="M385.855,6348.356a9.308,9.308,0,0,0,.153-2.052c0-.131-.007-.264-.015-.4.02-.4.023-.807.015-1.23a.344.344,0,0,0,0-.045,7.582,7.582,0,0,0,4.662,1.788,8.047,8.047,0,0,0,4.771-1.79c-.01.437-.005.865.017,1.28-.005.075-.01.151-.012.226a9.2,9.2,0,0,0,.153,2.223Z" fill="#f7b176"/>
    <g id="Grupo_55652" data-name="Grupo 55652">
      <g id="Grupo_55650" data-name="Grupo 55650">
        <path id="Trazado_106816" data-name="Trazado 106816" d="M394.734,6430.156a10.776,10.776,0,0,1-2.778-.078c-.005,0-.008,0-.013,0,0-.023,0-.046-.005-.068-.018-.29-.043-.579-.08-.86a.367.367,0,0,1,.3-.046c3.156.88,9.8-.857,9.866-.654S397.657,6430.156,394.734,6430.156Z" fill="#f7b176"/>
      </g>
      <g id="Grupo_55651" data-name="Grupo 55651">
        <path id="Trazado_106817" data-name="Trazado 106817" d="M389.589,6429.145c-.038.281-.063.568-.08.86,0,.022,0,.047-.005.07a10.209,10.209,0,0,1-3.031.161c-2.748,0-6.858-1.592-6.8-1.793s6.41,1.667,9.6.661A.366.366,0,0,1,389.589,6429.145Z" fill="#f7b176"/>
      </g>
    </g>
    <path id="Trazado_106818" data-name="Trazado 106818" d="M366.274,6430a24.142,24.142,0,0,1-1.2,5.615.629.629,0,0,1-.53.292.641.641,0,0,1-.649-.677l.007-.118c.083-1.509.352-4.355-.671-4.441a19.076,19.076,0,0,0,1.2-2.39,25.664,25.664,0,0,0,.37-3.57,1.675,1.675,0,0,0,.274.845c.672.84.923,1.677,1.175,3.772A4.8,4.8,0,0,1,366.274,6430Z" fill="#f7b176"/>
    <path id="Trazado_106819" data-name="Trazado 106819" d="M415.2,6430a24.2,24.2,0,0,0,1.2,5.615.632.632,0,0,0,.531.292.641.641,0,0,0,.649-.677l-.008-.118c-.083-1.509-.352-4.355.672-4.441a19.045,19.045,0,0,1-1.2-2.39,25.66,25.66,0,0,1-.37-3.57,1.656,1.656,0,0,1-.274.845c-.671.84-.923,1.677-1.174,3.772A4.791,4.791,0,0,0,415.2,6430Z" fill="#f7b176"/>
    <path id="Trazado_106820" data-name="Trazado 106820" d="M406.245,6407.764c-.782,1.393-14.4,7.277-14.4,21.275,0,.12-.438.163-1,.171-.038,0-.076,0-.116,0s-.073,0-.111,0c-.54-.01-1.013-.085-1.013-.171,0-13.746-13.57-19.983-14.362-21.381a40.685,40.685,0,0,0,2.356-10.5c.018-.191.033-.393.048-.6.09-1.325.138-3.921.1-6.647,0-.078,0-.153,0-.228v-.053c0-.126-.005-.252-.005-.377-.005-.249-.012-.5-.017-.745,0-.141-.008-.279-.013-.42,0-.045,0-.088,0-.131,0-.113-.008-.226-.01-.339,0-.148-.011-.294-.016-.44-.005-.126-.01-.252-.015-.375-.012-.324-.027-.641-.042-.95,0-.106-.01-.212-.018-.315-.018-.314-.035-.618-.055-.913-.008-.115-.018-.226-.025-.337q-.031-.4-.066-.777c-.015-.163-.03-.319-.048-.47-.01-.1-.022-.191-.032-.284s-.023-.181-.035-.269-.023-.174-.036-.257c-.017-.133-.037-.261-.06-.382-.033-.179-.065-.342-.1-.49-.015-.056-.028-.111-.04-.161l0-.015,0-.011c-.038-.158-1.4-6.6-1.858-8.473,1.176-6.812,3.563-12.533,3.45-19.3.465-.022.92-.058,1.36-.115.01.037.023.075.033.115.6,2.186-3.6,49.892,10.645,49.892,13.93,0,10.045-47.706,10.646-49.892.01-.04.022-.073.032-.113v0c.111.015.222.027.332.04.035,0,.068.005.1.01.191.018.385.033.579.045.115.008.231.015.347.02-.108,6.418,2.294,12.284,3.468,19.19-.395,1.776-1.685,8.066-1.688,8.073l0,0a2.109,2.109,0,0,0-.2.523c-.018.07-.038.143-.055.224-.01.048-.02.1-.03.146-.068.324-.129.711-.182,1.151-.012.109-.025.222-.037.335-.018.161-.035.329-.05.5-.023.239-.046.488-.063.747-.01.111-.018.224-.026.337-.047.682-.085,1.416-.115,2.176-.005.123-.01.249-.015.374-.005.146-.01.292-.015.44,0,.114-.008.227-.01.34,0,.043,0,.085,0,.131-.005.138-.01.279-.013.42-.005.246-.012.493-.017.739,0,.126,0,.254-.005.38v.053c0,.078,0,.153-.005.228-.028,2-.01,3.934.038,5.344.007.36.025.732.05,1.109,0,.066.007.131.012.2.013.2.031.4.048.606A40.9,40.9,0,0,0,406.245,6407.764Z" fill="#ff9696"/>
    <path id="Trazado_106821" data-name="Trazado 106821" d="M302.98,6469.628c-1.719.144-4.407-.525-3.61-1.02a8.837,8.837,0,0,1,4.366-.663C304.449,6467.928,303.691,6469.569,302.98,6469.628Z" fill="#f7b176"/>
    <path id="Trazado_106822" data-name="Trazado 106822" d="M317.99,6469.628c1.718.144,4.406-.525,3.61-1.02a8.837,8.837,0,0,0-4.366-.663C316.52,6467.928,317.278,6469.569,317.99,6469.628Z" fill="#f7b176"/>
    <rect id="Rectángulo_5426" data-name="Rectángulo 5426" width="31.676" height="1.307" transform="translate(294.406 6375.939)" fill="#93cadb"/>
    <rect id="Rectángulo_5427" data-name="Rectángulo 5427" width="31.676" height="1.307" transform="translate(374.886 6371.611)" fill="#93cadb"/>
    <rect id="Rectángulo_5428" data-name="Rectángulo 5428" width="31.676" height="1.307" transform="translate(294.406 6382.452)" fill="#93cadb"/>
    <path id="Trazado_106823" data-name="Trazado 106823" d="M304.738,6352.124l-16.179,2.668-.245-1.284,16.179-2.668Z" fill="#93cadb"/>
    <rect id="Rectángulo_5429" data-name="Rectángulo 5429" width="28.746" height="1.307" transform="translate(295.871 6396.492)" fill="#93cadb"/>
    <rect id="Rectángulo_5430" data-name="Rectángulo 5430" width="28.889" height="1.307" transform="translate(376.279 6396.492)" fill="#93cadb"/>
    <rect id="Rectángulo_5431" data-name="Rectángulo 5431" width="44.649" height="1.307" transform="translate(368.4 6354.762)" fill="#93cadb"/>
    <rect id="Rectángulo_5432" data-name="Rectángulo 5432" width="40.47" height="1.307" transform="translate(290.009 6417.381)" fill="#93cadb"/>
    <rect id="Rectángulo_5433" data-name="Rectángulo 5433" width="40.47" height="1.307" transform="translate(370.489 6417.381)" fill="#93cadb"/>
    <rect id="Rectángulo_5434" data-name="Rectángulo 5434" width="13.98" height="1.307" transform="translate(376.744 6489.807)" fill="#93cadb"/>
    <rect id="Rectángulo_5435" data-name="Rectángulo 5435" width="12.471" height="1.307" transform="translate(384.488 6349.458)" fill="#93cadb"/>
    <rect id="Rectángulo_5436" data-name="Rectángulo 5436" width="19.647" height="1.307" transform="translate(371.229 6445.489)" fill="#93cadb"/>
    <rect id="Rectángulo_5437" data-name="Rectángulo 5437" width="5.481" height="1.307" transform="matrix(0.993, 0.12, -0.12, 0.993, 279.862, 6422.695)" fill="#93cadb"/>
    <rect id="Rectángulo_5438" data-name="Rectángulo 5438" width="49.197" height="1.307" transform="translate(299.879 6418.034) rotate(90)" fill="#93cadb"/>
    <rect id="Rectángulo_5439" data-name="Rectángulo 5439" width="53.975" height="1.307" transform="translate(295.941 6467.231) rotate(90)" fill="#93cadb"/>
    <path id="Trazado_106824" data-name="Trazado 106824" d="M276.454,6423.594l7.257-68.289,1.3.159-7.257,68.289Z" fill="#93cadb"/>
    <rect id="Rectángulo_5440" data-name="Rectángulo 5440" width="31.893" height="1.307" transform="translate(310.904 6397.347) rotate(90)" fill="#93cadb"/>
    <rect id="Rectángulo_5441" data-name="Rectángulo 5441" width="41.701" height="1.307" transform="translate(391.378 6355.372) rotate(90)" fill="#93cadb"/>
    <rect id="Rectángulo_5442" data-name="Rectángulo 5442" width="21.327" height="1.307" transform="matrix(0.184, 0.983, -0.983, 0.184, 299.693, 6376.077)" fill="#93cadb"/>
    <g id="Grupo_55653" data-name="Grupo 55653">
      <path id="Trazado_106825" data-name="Trazado 106825" d="M302.506,6351.884l-4.164,24.194,1.285.24,4.164-24.194Z" fill="#93cadb"/>
      <path id="Trazado_106826" data-name="Trazado 106826" d="M320.861,6376.318l-4.164-25.2,1.31.262,4.139,24.7Z" fill="#93cadb"/>
    </g>
    <g id="Grupo_55657" data-name="Grupo 55657">
      <g id="Grupo_55654" data-name="Grupo 55654">
        <rect id="Rectángulo_5443" data-name="Rectángulo 5443" width="0.629" height="0.251" transform="translate(391.938 6429.879)" fill="#181b1c"/>
      </g>
      <g id="Grupo_55655" data-name="Grupo 55655">
        <path id="Trazado_106827" data-name="Trazado 106827" d="M410.366,6430.13h-1.272v-.251h1.272Zm-2.543,0h-1.271v-.251h1.271Zm-2.543,0h-1.271v-.251h1.271Zm-2.542,0h-1.272v-.251h1.272Zm-2.543,0h-1.272v-.251H400.2Zm-2.543,0h-1.271v-.251h1.271Zm-2.543,0h-1.271v-.251h1.271Z" fill="#181b1c"/>
      </g>
      <g id="Grupo_55656" data-name="Grupo 55656">
        <rect id="Rectángulo_5444" data-name="Rectángulo 5444" width="0.629" height="0.251" transform="translate(411.637 6429.879)" fill="#181b1c"/>
      </g>
    </g>
    <g id="Grupo_55660" data-name="Grupo 55660">
      <g id="Grupo_55658" data-name="Grupo 55658">
        <path id="Trazado_106828" data-name="Trazado 106828" d="M410.366,6521.167h-1.272v-.252h1.272Zm-2.543,0h-1.271v-.252h1.271Zm-2.543,0h-1.271v-.252h1.271Zm-2.542,0h-1.272v-.252h1.272Zm-2.543,0h-1.272v-.252H400.2Zm-2.543,0h-1.271v-.252h1.271Zm-2.543,0h-1.271v-.252h1.271Z" fill="#181b1c"/>
      </g>
      <g id="Grupo_55659" data-name="Grupo 55659">
        <rect id="Rectángulo_5445" data-name="Rectángulo 5445" width="0.629" height="0.251" transform="translate(411.637 6520.915)" fill="#181b1c"/>
      </g>
    </g>
    <g id="Grupo_55663" data-name="Grupo 55663">
      <g id="Grupo_55661" data-name="Grupo 55661">
        <rect id="Rectángulo_5446" data-name="Rectángulo 5446" width="0.629" height="0.251" transform="translate(295.941 6520.915)" fill="#181b1c"/>
      </g>
      <g id="Grupo_55662" data-name="Grupo 55662">
        <path id="Trazado_106829" data-name="Trazado 106829" d="M307.59,6521.167h-1.378v-.252h1.378Zm-2.755,0h-1.378v-.252h1.378Zm-2.755,0H300.7v-.252h1.378Zm-2.755,0h-1.378v-.252h1.378Z" fill="#181b1c"/>
      </g>
    </g>
    <g id="Grupo_55666" data-name="Grupo 55666">
      <g id="Grupo_55664" data-name="Grupo 55664">
        <rect id="Rectángulo_5447" data-name="Rectángulo 5447" width="0.629" height="0.251" transform="translate(295.941 6467.759)" fill="#181b1c"/>
      </g>
      <g id="Grupo_55665" data-name="Grupo 55665">
        <path id="Trazado_106830" data-name="Trazado 106830" d="M306.033,6468.011h-1.182v-.252h1.182Zm-2.365,0h-1.183v-.252h1.183Zm-2.366,0h-1.183v-.252H301.3Zm-2.366,0h-1.183v-.252h1.183Z" fill="#181b1c"/>
      </g>
    </g>
    <rect id="Rectángulo_5448" data-name="Rectángulo 5448" width="91.613" height="1.383" transform="translate(413.096 6429.56) rotate(90)" fill="#93cadb"/>
    <path id="Trazado_106831" data-name="Trazado 106831" d="M405.859,6335.73q-.939-3.026-1.88-6.053c-.717-2.309-1.416-4.6-2.062-6.929a10.205,10.205,0,0,0-7.125-7.614,14.2,14.2,0,0,0-10.234.83c-4.868,2.448-4.952,7.865-6.428,12.391-.818,2.507-1.444,5.093-2.15,7.637a8.9,8.9,0,0,0,8.574,11.275h12.809A8.9,8.9,0,0,0,405.859,6335.73Z" fill="#51310f"/>
  </g>
</svg>
