<svg xmlns="http://www.w3.org/2000/svg" width="101.381" height="101.001" viewBox="0 0 101.381 101.001">
  <g id="Grupo_56446" data-name="Grupo 56446" transform="translate(-868.675 -3526.368)">
    <path id="Trazado_124848" data-name="Trazado 124848" d="M894.164,3557.132l-24.1,16.26a3.163,3.163,0,0,0-.956,4.227l7.9,13.409a3.162,3.162,0,0,0,4,1.287L898.5,3584.6Z" transform="translate(0 -14.143)" fill="#96ceb4"/>
    <path id="Trazado_124849" data-name="Trazado 124849" d="M1029.545,3572.562l-24.1-16.261-4.337,27.468,17.485,7.716a3.162,3.162,0,0,0,4-1.287l7.9-13.409A3.159,3.159,0,0,0,1029.545,3572.562Z" transform="translate(-60.883 -13.76)" fill="#96ceb4"/>
    <path id="Trazado_124850" data-name="Trazado 124850" d="M961.3,3552.389l-8.407-2.167c.016.271.042.539.042.812a13.552,13.552,0,1,1-27.1,0c0-.274.025-.542.042-.812l-9.491,2.167c-4.1,1.627-6,3.771-6,7.084v67.81a4.251,4.251,0,0,0,4.25,4.25h48.419a4.25,4.25,0,0,0,4.249-4.25v-67.81C967.3,3556.16,964.858,3553.474,961.3,3552.389Z" transform="translate(-19.173 -10.966)" fill="#ff6f69"/>
    <path id="Trazado_124851" data-name="Trazado 124851" d="M921.4,3611.474V3552.11l-5.027,1.148c-.531.21-1.021.43-1.478.66v57.556h-4.521v6.5H914.9V3632.4h6.5v-14.423H967.3v-6.5Z" transform="translate(-19.172 -11.834)" fill="#e05858"/>
    <path id="Trazado_124852" data-name="Trazado 124852" d="M966.036,3550.222h-3.794c.022.269.041.539.041.812a9.757,9.757,0,1,1-19.513,0c0-.274.018-.543.04-.812h-3.795c-.016.271-.042.539-.042.812a13.552,13.552,0,1,0,27.1,0C966.077,3550.761,966.052,3550.493,966.036,3550.222Z" transform="translate(-32.317 -10.966)" fill="#96ceb4"/>
    <path id="Trazado_124853" data-name="Trazado 124853" d="M965.47,3550.222H946.036c-.022.269-.042.539-.042.812a9.758,9.758,0,0,0,19.515,0C965.51,3550.761,965.491,3550.491,965.47,3550.222Z" transform="translate(-35.545 -10.966)" fill="#e05858"/>
    <path id="Trazado_124854" data-name="Trazado 124854" d="M966.807,3657.536h-77.84l0,6.5h77.84Z" transform="translate(-9.329 -60.3)" fill="#ffeead"/>
    <path id="Trazado_124855" data-name="Trazado 124855" d="M899.241,3663.806h1.265v3.117h-1.265Z" transform="translate(-14.052 -63.182)" fill="#99734a"/>
    <path id="Trazado_124856" data-name="Trazado 124856" d="M905.931,3663.806H907.2v3.117h-1.265Z" transform="translate(-17.127 -63.182)" fill="#99734a"/>
    <path id="Trazado_124857" data-name="Trazado 124857" d="M912.619,3663.806h1.265v3.117h-1.265Z" transform="translate(-20.202 -63.182)" fill="#99734a"/>
    <path id="Trazado_124858" data-name="Trazado 124858" d="M918.86,3657.536h2.05v6.5h-2.05Z" transform="translate(-23.071 -60.3)" fill="#c9b77d"/>
    <path id="Trazado_124859" data-name="Trazado 124859" d="M919.308,3661.55h1.265v4.335h-1.265Z" transform="translate(-23.277 -62.145)" fill="#825e3b"/>
    <path id="Trazado_124860" data-name="Trazado 124860" d="M924.825,3663.806h1.265v3.117h-1.265Z" transform="translate(-25.813 -63.182)" fill="#99734a"/>
    <path id="Trazado_124861" data-name="Trazado 124861" d="M931.514,3663.806h1.265v3.117h-1.265Z" transform="translate(-28.888 -63.182)" fill="#99734a"/>
    <path id="Trazado_124862" data-name="Trazado 124862" d="M938.2,3663.806h1.265v3.117H938.2Z" transform="translate(-31.964 -63.182)" fill="#99734a"/>
    <path id="Trazado_124863" data-name="Trazado 124863" d="M944.892,3661.55h1.265v4.335h-1.265Z" transform="translate(-35.038 -62.145)" fill="#99734a"/>
    <path id="Trazado_124864" data-name="Trazado 124864" d="M950.411,3663.806h1.264v3.117h-1.264Z" transform="translate(-37.575 -63.182)" fill="#99734a"/>
    <path id="Trazado_124865" data-name="Trazado 124865" d="M957.1,3663.806h1.265v3.117H957.1Z" transform="translate(-40.65 -63.182)" fill="#99734a"/>
    <path id="Trazado_124866" data-name="Trazado 124866" d="M963.789,3663.806h1.265v3.117h-1.265Z" transform="translate(-43.725 -63.182)" fill="#99734a"/>
    <path id="Trazado_124867" data-name="Trazado 124867" d="M970.476,3661.55h1.265v4.335h-1.265Z" transform="translate(-46.8 -62.145)" fill="#99734a"/>
    <path id="Trazado_124868" data-name="Trazado 124868" d="M975.995,3663.806h1.265v3.117h-1.265Z" transform="translate(-49.337 -63.182)" fill="#99734a"/>
    <path id="Trazado_124869" data-name="Trazado 124869" d="M982.683,3663.806h1.265v3.117h-1.265Z" transform="translate(-52.411 -63.182)" fill="#99734a"/>
    <path id="Trazado_124870" data-name="Trazado 124870" d="M989.373,3663.806h1.265v3.117h-1.265Z" transform="translate(-55.487 -63.182)" fill="#99734a"/>
    <path id="Trazado_124871" data-name="Trazado 124871" d="M996.062,3661.55h1.264v4.335h-1.264Z" transform="translate(-58.562 -62.145)" fill="#99734a"/>
    <path id="Trazado_124872" data-name="Trazado 124872" d="M1001.579,3663.806h1.265v3.117h-1.265Z" transform="translate(-61.098 -63.182)" fill="#99734a"/>
    <path id="Trazado_124873" data-name="Trazado 124873" d="M1008.267,3663.806h1.266v3.117h-1.266Z" transform="translate(-64.173 -63.182)" fill="#99734a"/>
    <path id="Trazado_124874" data-name="Trazado 124874" d="M1014.957,3663.806h1.265v3.117h-1.265Z" transform="translate(-67.248 -63.182)" fill="#99734a"/>
    <path id="Trazado_124875" data-name="Trazado 124875" d="M1021.646,3661.55h1.265v4.335h-1.265Z" transform="translate(-70.323 -62.145)" fill="#99734a"/>
    <path id="Trazado_124876" data-name="Trazado 124876" d="M1035.069,3657.536h-4.214v6.5h4.214a1.631,1.631,0,0,0,1.631-1.63v-3.245A1.631,1.631,0,0,0,1035.069,3657.536Z" transform="translate(-74.556 -60.3)" fill="#ffcc5c"/>
    <path id="Trazado_124877" data-name="Trazado 124877" d="M1030.951,3662.567a1.16,1.16,0,1,1-1.16-1.16A1.159,1.159,0,0,1,1030.951,3662.567Z" transform="translate(-73.534 -62.08)" fill="#ffeead"/>
    <path id="Trazado_124878" data-name="Trazado 124878" d="M881.742,3657.536a1.63,1.63,0,0,0-1.631,1.63v3.245a1.63,1.63,0,0,0,1.631,1.63h4.214v-6.5Z" transform="translate(-5.258 -60.3)" fill="#ffcc5c"/>
    <path id="Trazado_124879" data-name="Trazado 124879" d="M890.811,3662.567a1.16,1.16,0,1,1-1.161-1.16A1.16,1.16,0,0,1,890.811,3662.567Z" transform="translate(-9.109 -62.08)" fill="#ffeead"/>
    <path id="Trazado_124880" data-name="Trazado 124880" d="M922.539,3535.228v92.32l6.505,0v-92.319Z" transform="translate(-24.762 -4.071)" fill="#ffeead"/>
    <g id="Grupo_56445" data-name="Grupo 56445" transform="translate(897.777 3536.704)">
      <path id="Trazado_124881" data-name="Trazado 124881" d="M922.539,3545.5h3.118v1.264h-3.118Z" transform="translate(-922.539 -3545.499)" fill="#99734a"/>
      <path id="Trazado_124882" data-name="Trazado 124882" d="M922.539,3552.189h3.118v1.264h-3.118Z" transform="translate(-922.539 -3548.574)" fill="#99734a"/>
      <path id="Trazado_124883" data-name="Trazado 124883" d="M922.539,3558.876h3.118v1.266h-3.118Z" transform="translate(-922.539 -3551.648)" fill="#99734a"/>
      <path id="Trazado_124884" data-name="Trazado 124884" d="M922.539,3565.564h4.337v1.265h-4.337Z" transform="translate(-922.539 -3554.723)" fill="#99734a"/>
      <path id="Trazado_124885" data-name="Trazado 124885" d="M922.539,3571.083h3.118v1.266h-3.118Z" transform="translate(-922.539 -3557.26)" fill="#99734a"/>
      <path id="Trazado_124886" data-name="Trazado 124886" d="M922.539,3577.773h3.118v1.266h-3.118Z" transform="translate(-922.539 -3560.336)" fill="#99734a"/>
      <path id="Trazado_124887" data-name="Trazado 124887" d="M922.539,3584.461h3.118v1.265h-3.118Z" transform="translate(-922.539 -3563.41)" fill="#99734a"/>
      <path id="Trazado_124888" data-name="Trazado 124888" d="M922.539,3591.149h4.337v1.265h-4.337Z" transform="translate(-922.539 -3566.485)" fill="#99734a"/>
      <path id="Trazado_124889" data-name="Trazado 124889" d="M922.539,3596.667h3.118v1.266h-3.118Z" transform="translate(-922.539 -3569.022)" fill="#99734a"/>
      <path id="Trazado_124890" data-name="Trazado 124890" d="M922.539,3603.355h3.118v1.265h-3.118Z" transform="translate(-922.539 -3572.096)" fill="#99734a"/>
      <path id="Trazado_124891" data-name="Trazado 124891" d="M922.539,3610.045h3.118v1.265h-3.118Z" transform="translate(-922.539 -3575.171)" fill="#99734a"/>
      <path id="Trazado_124892" data-name="Trazado 124892" d="M922.539,3616.734h4.337V3618h-4.337Z" transform="translate(-922.539 -3578.247)" fill="#99734a"/>
      <path id="Trazado_124893" data-name="Trazado 124893" d="M922.539,3622.252h3.118v1.265h-3.118Z" transform="translate(-922.539 -3580.784)" fill="#99734a"/>
      <path id="Trazado_124894" data-name="Trazado 124894" d="M922.539,3628.941h3.118v1.265h-3.118Z" transform="translate(-922.539 -3583.858)" fill="#99734a"/>
      <path id="Trazado_124895" data-name="Trazado 124895" d="M922.539,3635.632h3.118v1.264h-3.118Z" transform="translate(-922.539 -3586.934)" fill="#99734a"/>
      <path id="Trazado_124896" data-name="Trazado 124896" d="M922.539,3642.319h4.337v1.265h-4.337Z" transform="translate(-922.539 -3590.009)" fill="#99734a"/>
      <path id="Trazado_124897" data-name="Trazado 124897" d="M922.539,3647.837h3.118v1.266h-3.118Z" transform="translate(-922.539 -3592.545)" fill="#99734a"/>
      <path id="Trazado_124898" data-name="Trazado 124898" d="M922.539,3654.525h3.118v1.266h-3.118Z" transform="translate(-922.539 -3595.619)" fill="#99734a"/>
      <path id="Trazado_124899" data-name="Trazado 124899" d="M922.539,3661.216h3.118v1.265h-3.118Z" transform="translate(-922.539 -3598.696)" fill="#99734a"/>
      <path id="Trazado_124900" data-name="Trazado 124900" d="M922.539,3667.9h4.337v1.265h-4.337Z" transform="translate(-922.539 -3601.77)" fill="#99734a"/>
      <path id="Trazado_124901" data-name="Trazado 124901" d="M922.539,3673.422h3.118v1.265h-3.118Z" transform="translate(-922.539 -3604.307)" fill="#99734a"/>
      <path id="Trazado_124902" data-name="Trazado 124902" d="M922.539,3680.109h3.118v1.266h-3.118Z" transform="translate(-922.539 -3607.381)" fill="#99734a"/>
      <path id="Trazado_124903" data-name="Trazado 124903" d="M922.539,3686.8h3.118v1.265h-3.118Z" transform="translate(-922.539 -3610.457)" fill="#99734a"/>
      <path id="Trazado_124904" data-name="Trazado 124904" d="M922.539,3693.487h4.337v1.266h-4.337Z" transform="translate(-922.539 -3613.531)" fill="#99734a"/>
    </g>
    <path id="Trazado_124905" data-name="Trazado 124905" d="M922.539,3702.491v4.213a1.631,1.631,0,0,0,1.631,1.631h3.243a1.631,1.631,0,0,0,1.631-1.631v-4.213Z" transform="translate(-24.762 -80.967)" fill="#ffcc5c"/>
    <path id="Trazado_124906" data-name="Trazado 124906" d="M928.732,3701.427a1.16,1.16,0,1,1-1.16-1.16A1.161,1.161,0,0,1,928.732,3701.427Z" transform="translate(-26.542 -79.943)" fill="#ffeead"/>
    <path id="Trazado_124907" data-name="Trazado 124907" d="M927.413,3526.368H924.17a1.631,1.631,0,0,0-1.631,1.631v4.214h6.506V3528A1.632,1.632,0,0,0,927.413,3526.368Z" transform="translate(-24.762)" fill="#ffcc5c"/>
    <path id="Trazado_124908" data-name="Trazado 124908" d="M928.732,3535.908a1.16,1.16,0,1,1-1.16-1.161A1.161,1.161,0,0,1,928.732,3535.908Z" transform="translate(-26.542 -3.852)" fill="#ffeead"/>
  </g>
</svg>
