<svg xmlns="http://www.w3.org/2000/svg" width="604" height="289.631" viewBox="0 0 604 289.631">
  <g id="Grupo_56501" data-name="Grupo 56501" transform="translate(-180 -15018.184)">
    <g id="Grupo_55961" data-name="Grupo 55961" transform="translate(58.082 5621.14)">
      <rect id="Rectángulo_5463" data-name="Rectángulo 5463" width="604" height="289.63" transform="translate(121.918 9397.044)" fill="#f4f9fa"/>
      <ellipse id="Elipse_4056" data-name="Elipse 4056" cx="62.687" cy="5.224" rx="62.687" ry="5.224" transform="translate(339.457 9661.129)" fill="#502960" opacity="0.1" style="mix-blend-mode: multiply;isolation: isolate"/>
      <g id="Grupo_55953" data-name="Grupo 55953" transform="translate(340.609 9414.424)">
        <path id="Trazado_107191" data-name="Trazado 107191" d="M502.2,9442.967a12.263,12.263,0,0,1-1.018,2.513s3.21,10.91-6.021,10.91L467,9455.521s-6.049-4.477-4.036-9.209a5.6,5.6,0,0,1-1.245-7.16,2.906,2.906,0,0,1,1.367-1.245c-2.25-4.143.946-6.861,3.074-6.626.121-4.612,5.089-7.1,7.694-5.089,1.537-4.968,6.739-4.5,7.807-2.961,5.089-3.9,9.7-.47,9.7,1.894,4.975-.825,7.693,3.672,6.512,5.679,3.786.947,4.376,6.513,2.961,7.929C502.689,9439.437,502.638,9441.358,502.2,9442.967Z" transform="translate(-418.13 -9421.463)" fill="#50368c"/>
        <path id="Trazado_107192" data-name="Trazado 107192" d="M501.179,9452.645s3.21,10.911-6.021,10.911L467,9462.688s-6.049-4.477-4.036-9.21a5.6,5.6,0,0,1-1.245-7.159,4.746,4.746,0,0,0,.236,1.509,2.835,2.835,0,0,0,3,2.078,3.019,3.019,0,0,0,1.117,3.1,5.205,5.205,0,0,0,3.28,1.011,8.409,8.409,0,0,0,4.968-1.6,2.832,2.832,0,0,1,.89-.526,2.656,2.656,0,0,1,.826-.028,22.669,22.669,0,0,0,5.188-.264c2.021-.342,4.142-.946,6.064-.234,1.509.569,2.641,1.886,4.156,2.447a4.784,4.784,0,0,0,5.758-2.334,7.443,7.443,0,0,0,5-1.345A12.24,12.24,0,0,1,501.179,9452.645Z" transform="translate(-418.13 -9428.63)" fill="#472e75"/>
        <path id="Trazado_107193" data-name="Trazado 107193" d="M499.15,9460.39l.01.688-1.6.129-.464-10.179c-.051-.263-.1-.53-.152-.8-.069-.38-.157-.736-.249-1.089a26.021,26.021,0,0,1-11.537-7.062,51.452,51.452,0,0,1-11.715,7.81l-1.063,12.357-1.423-.051-.291-3.446a38.478,38.478,0,0,0,1.3,11.949,7.176,7.176,0,0,0,.413,1.153,10.855,10.855,0,0,0,5.815,5.31,18.4,18.4,0,0,0,12.142.782,10.885,10.885,0,0,0,6.256-4.42c.107-.163.206-.327.3-.5A17.7,17.7,0,0,0,499.15,9460.39Z" transform="translate(-420.922 -9427.406)" fill="#fad0a5"/>
        <path id="Trazado_107194" data-name="Trazado 107194" d="M528.817,9589.821c.861,1.152-.576,3.452-2.014,2.014s-4.321-4.9-4.321-4.9,2.883,6.335,3.167,7.2-.861,3.452-2.59,1.723-3.744-6.334-3.744-6.334.576,5.181.86,6.334-1.722,2.015-2.59.576-2.05-7.337-2.05-7.337-.668,5.046-.668,5.906-1.88,1.972-2.455-.334-2.449-14.711-2.449-14.711l-2.882-7.879-17.422-45.491s-1.929,35.729,3.167,60.751c-2.4.121-4.7.227-6.911.32l.092.548s-6.49.384-21.351.121c-14.86.263-21.351-.121-21.351-.121l.093-.548c-2.206-.094-4.505-.2-6.911-.32,6.014-26.879,3.167-60.751,3.167-60.751l-18.042,49.848-1.544,4.234s-1.879,12.4-2.455,14.711-2.456,1.2-2.456.334-.668-5.907-.668-5.907-1.189,5.9-2.05,7.338-2.882.577-2.591-.576.86-6.335.86-6.335-2.013,4.612-3.743,6.335-2.875-.861-2.591-1.723,3.167-7.2,3.167-7.2-2.875,3.459-4.321,4.9-2.875-.861-2.013-2.015,5.815-7.408,5.815-7.408l-5.239,2.228s-1.437-2.306-.861-2.883,8.107-5.473,8.107-5.473l9.031-31.108S429,9508.744,434.474,9502.7s23.322-8.641,23.322-8.641l.284-5.473,2.676-.221.114-.641,3.786.313,3.794-.313.106.641,2.676.221.292,5.473s17.849,2.591,23.315,8.641,16.412,43.186,16.412,43.186l9.743,30.4s7.537,4.9,8.114,5.473-.868,2.884-.868,2.884L523,9582.412S527.956,9588.668,528.817,9589.821Z" transform="translate(-400.788 -9440.567)" fill="#fad0a5"/>
        <path id="Trazado_107195" data-name="Trazado 107195" d="M509.074,9468.662c3.652,2.752,6.859-5.48,4.6-8.447-1.863-2.445-3.546-.674-3.546-.674l-.26,6.479-.907.346" transform="translate(-431.974 -9432.263)" fill="#fad0a5"/>
        <path id="Trazado_107196" data-name="Trazado 107196" d="M470.676,9721.569c.249,8.683.491,15.5.491,15.5s-25.316.911-25.087,0,7.785-3.638,15.393-7.886c-7.387-24.056-9.871-59.84-10.675-76.123-.114-2.192-.192-4.035-.248-5.444-.093-2.484-.122-3.879-.122-3.879l21.893,3.337s-1.929,30.255-2.164,42.688C470.035,9696.7,470.363,9710.616,470.676,9721.569Z" transform="translate(-413.845 -9485.546)" fill="#fad0a5"/>
        <path id="Trazado_107197" data-name="Trazado 107197" d="M472.438,9721.569c-2.448-20.3-4.635-56.107-3.859-66.832-6.555.669-12.426-.794-16.02-1.676-.114-2.192-.192-4.035-.248-5.444-.093-2.484-.122-3.879-.122-3.879l21.893,3.337s-1.929,30.255-2.164,42.688C471.8,9696.7,472.124,9710.616,472.438,9721.569Z" transform="translate(-415.607 -9485.546)" fill="#fab799"/>
        <path id="Trazado_107198" data-name="Trazado 107198" d="M525.315,9737.07c.227.911-24.77,0-24.77,0s.221-6.4.46-14.689c.317-11.066.664-25.507.532-32.617-.227-12.434-2.129-42.688-2.129-42.688l21.578-3.337s-.036,2.021-.191,5.529c-.574,13.331-2.787,53.783-10.7,79.917C517.6,9733.433,525.088,9736.159,525.315,9737.07Z" transform="translate(-429.22 -9485.546)" fill="#fad0a5"/>
        <path id="Trazado_107199" data-name="Trazado 107199" d="M520.987,9643.738s-.036,2.021-.191,5.529c-6.728,4.513-15.084,4.711-15.084,4.711s.492,25.75-1.5,46.574a206.294,206.294,0,0,1-3.206,21.828c.317-11.066.664-25.507.532-32.617-.227-12.434-2.129-42.688-2.129-42.688Z" transform="translate(-429.22 -9485.546)" fill="#fab799"/>
        <path id="Trazado_107200" data-name="Trazado 107200" d="M471.958,9766.465s2.366,0,2.366-3.076C477.165,9765.045,473.614,9767.176,471.958,9766.465Z" transform="translate(-421.306 -9520.041)" fill="#fab799"/>
        <path id="Trazado_107201" data-name="Trazado 107201" d="M504.167,9763.08a2.811,2.811,0,0,0,4.023,1.893C505.824,9768.523,502.51,9764.736,504.167,9763.08Z" transform="translate(-430.463 -9519.952)" fill="#fab799"/>
        <path id="Trazado_107202" data-name="Trazado 107202" d="M498.453,9461.223a1.1,1.1,0,1,1,1,1.412A1.245,1.245,0,0,1,498.453,9461.223Z" transform="translate(-428.944 -9432.548)" fill="#451d3a"/>
        <path id="Trazado_107203" data-name="Trazado 107203" d="M480.558,9461.422a1.1,1.1,0,1,1,1,1.412A1.242,1.242,0,0,1,480.558,9461.422Z" transform="translate(-423.785 -9432.606)" fill="#451d3a"/>
        <path id="Trazado_107204" data-name="Trazado 107204" d="M499.841,9468.438a2.761,2.761,0,1,0,2.891-2.625A2.762,2.762,0,0,0,499.841,9468.438Z" transform="translate(-429.344 -9434.249)" fill="#fa8998"/>
        <path id="Trazado_107205" data-name="Trazado 107205" d="M474.66,9467.84a2.761,2.761,0,1,0,2.89-2.626A2.759,2.759,0,0,0,474.66,9467.84Z" transform="translate(-422.084 -9434.076)" fill="#fa8998"/>
        <path id="Trazado_107206" data-name="Trazado 107206" d="M471.513,9469.268c-6.071,2.726-9.078-7.087-5.662-8.593,2.539-1.12,3.619.736,3.619.736l-.13,4.622,1.987.172Z" transform="translate(-419.132 -9432.665)" fill="#fad0a5"/>
        <path id="Trazado_107207" data-name="Trazado 107207" d="M505.5,9605.874a80.63,80.63,0,0,1,2.648,29.168c-9.356,6.583-24.6,2.771-24.6,2.771l-2.055-10h-4.666l-2.289,10.352s-17.153,4.506-24.6-1.733c-2.517-14.907,1.9-30.446,1.9-30.446A195.792,195.792,0,0,0,505.5,9605.874Z" transform="translate(-414.733 -9474.63)" fill="#451d3a"/>
        <path id="Trazado_107208" data-name="Trazado 107208" d="M494.286,9595.039c0,.951-1.43,1.721-3.195,1.721s-3.195-.77-3.195-1.721,1.431,0,3.195,0S494.286,9594.089,494.286,9595.039Z" transform="translate(-425.901 -9471.385)" fill="#fab799"/>
        <path id="Trazado_107209" data-name="Trazado 107209" d="M458.352,9536.677l.327-3.878s6.768,8.933,14.06,5.531C471.913,9541.968,460.833,9539.983,458.352,9536.677Z" transform="translate(-417.384 -9453.562)" fill="#fab799"/>
        <path id="Trazado_107210" data-name="Trazado 107210" d="M516.029,9536.677l-.607-3.878s-8.73,9.137-13.78,5.531C502.469,9541.968,513.549,9539.983,516.029,9536.677Z" transform="translate(-429.864 -9453.562)" fill="#fab799"/>
        <path id="Trazado_107211" data-name="Trazado 107211" d="M476.181,9547.97s10.584-5.127,20.506.165C492.222,9543.34,482.134,9543.34,476.181,9547.97Z" transform="translate(-422.524 -9456.94)" fill="#fab799"/>
        <path id="Trazado_107212" data-name="Trazado 107212" d="M449.037,9533.828l-.946,6.057-18.042,49.848c.769-6.456,1.644-15.031,4.761-23.984C439.943,9551.029,449.037,9533.828,449.037,9533.828Z" transform="translate(-409.224 -9453.858)" fill="#fab799"/>
        <path id="Trazado_107213" data-name="Trazado 107213" d="M542.3,9585.445l-17.422-45.492-1.929-5.885s9.921,12.9,14.718,24.8C540.913,9566.928,541.967,9577.845,542.3,9585.445Z" transform="translate(-436.007 -9453.928)" fill="#fab799"/>
        <path id="Trazado_107214" data-name="Trazado 107214" d="M482.518,9492.007s5.953,2.978,11.08.166C492.275,9496.968,484.337,9496.142,482.518,9492.007Z" transform="translate(-424.351 -9441.802)" fill="#fab799"/>
        <path id="Trazado_107215" data-name="Trazado 107215" d="M493.021,9467a1.428,1.428,0,0,1-.1.513c-.342.548-3.623.484-3.758.143a3.067,3.067,0,0,1-.028-.591c.014-1.559.3-5.629.3-5.629.342-.343,3.281.135,3.281.135A53.832,53.832,0,0,1,493.021,9467Z" transform="translate(-426.258 -9432.951)" fill="#faa678"/>
        <path id="Trazado_107216" data-name="Trazado 107216" d="M484.7,9472.4l5.537,1.093S485.588,9474.722,484.7,9472.4Z" transform="translate(-424.98 -9436.148)" fill="#fff"/>
        <path id="Trazado_107217" data-name="Trazado 107217" d="M477.615,9457.483s4.016-.833,5.911-.228C484.435,9455.361,478.221,9454.149,477.615,9457.483Z" transform="translate(-422.937 -9431.245)" fill="#50368c"/>
        <path id="Trazado_107218" data-name="Trazado 107218" d="M502.475,9455.562s-3.919-1.212-5.863-.788C495.887,9452.8,502.189,9452.185,502.475,9455.562Z" transform="translate(-428.397 -9430.603)" fill="#50368c"/>
        <path id="Trazado_107219" data-name="Trazado 107219" d="M452.5,9603.315s-1.421,2.841.158,3.63,14.519,2.367,27.933,2.051,25.251-2.209,26.2-3,0-3,0-3-14.993,1.578-27.461,1.578S452.5,9603.315,452.5,9603.315Z" transform="translate(-415.527 -9473.801)" fill="#5a3650"/>
        <path id="Trazado_107220" data-name="Trazado 107220" d="M487,9632.926l-2.552-6.621,10.889-2.683-3.671,9.3Z" transform="translate(-424.907 -9479.746)" fill="#502960" opacity="0.2" style="mix-blend-mode: multiply;isolation: isolate"/>
        <path id="Trazado_107221" data-name="Trazado 107221" d="M412.549,9619.665s4.253.065,5.155-3.092C417.64,9619.215,414.482,9620.89,412.549,9619.665Z" transform="translate(-404.179 -9477.714)" fill="#fab799"/>
        <path id="Trazado_107222" data-name="Trazado 107222" d="M411.825,9623.816a9.877,9.877,0,0,0,9.214,1.61C416.851,9627.811,413.5,9626.2,411.825,9623.816Z" transform="translate(-403.97 -9479.803)" fill="#fab799"/>
        <path id="Trazado_107223" data-name="Trazado 107223" d="M568.607,9619.665s-4.252.065-5.154-3.092C563.517,9619.215,566.674,9620.89,568.607,9619.665Z" transform="translate(-447.684 -9477.714)" fill="#fab799"/>
        <path id="Trazado_107224" data-name="Trazado 107224" d="M567.687,9623.816a9.877,9.877,0,0,1-9.214,1.61C562.661,9627.811,566.012,9626.2,567.687,9623.816Z" transform="translate(-446.249 -9479.803)" fill="#fab799"/>
        <path id="Trazado_107225" data-name="Trazado 107225" d="M464.888,9504.063s8.993-.631,14.2.474C476.405,9501.382,465.835,9502.013,464.888,9504.063Z" transform="translate(-419.268 -9444.783)" fill="#fab799"/>
        <path id="Trazado_107226" data-name="Trazado 107226" d="M511.573,9504.063s-8.994-.631-14.2.474C500.055,9501.382,510.626,9502.013,511.573,9504.063Z" transform="translate(-428.633 -9444.783)" fill="#fab799"/>
        <path id="Trazado_107227" data-name="Trazado 107227" d="M486.567,9477.079a1.446,1.446,0,0,0,1.346-.618.232.232,0,0,0,.053-.176c-.021-.087-.12-.123-.206-.147l-1.277-.349C485.033,9475.393,485.44,9476.942,486.567,9477.079Z" transform="translate(-425.225 -9437.107)" fill="#fab799"/>
        <path id="Trazado_107228" data-name="Trazado 107228" d="M493.021,9468.967a1.428,1.428,0,0,1-.1.513c-.342.548-3.623.484-3.758.143a3.067,3.067,0,0,1-.028-.591,4.475,4.475,0,0,1,1.886-.89,2.887,2.887,0,0,1,1.729.612C492.843,9468.824,492.935,9468.9,493.021,9468.967Z" transform="translate(-426.258 -9434.921)" fill="#fa7e5c"/>
        <path id="Trazado_107229" data-name="Trazado 107229" d="M512.1,9467.712a.353.353,0,0,1-.312-.184,5.659,5.659,0,0,1-.558-2.729,7.239,7.239,0,0,1,.245-2.075,3.569,3.569,0,0,1,1.184-1.828.356.356,0,1,1,.438.561,2.915,2.915,0,0,0-.939,1.471,6.579,6.579,0,0,0-.216,1.87,5.017,5.017,0,0,0,.469,2.386.357.357,0,0,1-.139.484A.352.352,0,0,1,512.1,9467.712Z" transform="translate(-432.628 -9432.811)" fill="#faad98"/>
        <path id="Trazado_107230" data-name="Trazado 107230" d="M511.694,9465.37a.356.356,0,0,1-.008-.712l1.041-.021a.352.352,0,0,1,.363.349.356.356,0,0,1-.348.363l-1.04.021Z" transform="translate(-432.659 -9433.911)" fill="#faad98"/>
        <path id="Trazado_107231" data-name="Trazado 107231" d="M469.075,9467.674h-.012a.356.356,0,0,1-.344-.368,8.538,8.538,0,0,0-.9-4.1,1.2,1.2,0,0,0-.232-.352.227.227,0,0,0-.18-.07.356.356,0,1,1-.193-.685.914.914,0,0,1,.848.226,1.817,1.817,0,0,1,.394.563,9.26,9.26,0,0,1,.972,4.438A.356.356,0,0,1,469.075,9467.674Z" transform="translate(-419.864 -9433.172)" fill="#faad98"/>
        <path id="Trazado_107232" data-name="Trazado 107232" d="M467.979,9466.512a.355.355,0,0,1-.225-.632,8.236,8.236,0,0,1,.848-.6.356.356,0,1,1,.374.605,7.461,7.461,0,0,0-.773.55A.35.35,0,0,1,467.979,9466.512Z" transform="translate(-420.056 -9434.079)" fill="#faad98"/>
        <path id="Trazado_107233" data-name="Trazado 107233" d="M489.226,9439.483s-.606,4.243-2.88,5.911c2.956-.682,5.23-4.4,5.23-4.4" transform="translate(-425.454 -9426.659)" fill="#50368c"/>
        <path id="Trazado_107234" data-name="Trazado 107234" d="M491.451,9442.252s-.683,4.623,6.82,6.744a9.532,9.532,0,0,1-5-6.214" transform="translate(-426.922 -9427.457)" fill="#50368c"/>
        <path id="Trazado_107235" data-name="Trazado 107235" d="M462.16,9709.061s3.414,2.087,5.5.19C467.091,9706.027,464.246,9705.268,462.16,9709.061Z" transform="translate(-418.481 -9503.644)" fill="#fab799"/>
        <path id="Trazado_107236" data-name="Trazado 107236" d="M519.361,9710.128s-3.414,2.085-5.5.188C514.429,9707.094,517.274,9706.334,519.361,9710.128Z" transform="translate(-433.387 -9503.951)" fill="#fab799"/>
      </g>
      <g id="Grupo_55960" data-name="Grupo 55960" transform="translate(374.647 9479.779)">
        <g id="Grupo_55955" data-name="Grupo 55955" transform="translate(0.48 48.418)">
          <path id="Trazado_107237" data-name="Trazado 107237" d="M476.858,9596.338a35.2,35.2,0,0,1-14.315-2.9,31.149,31.149,0,0,1-13.085-10.473,1.068,1.068,0,0,1,1.8-1.149h0a29.585,29.585,0,0,0,12.253,9.715c10.942,4.776,24.521,3.134,39.271-4.753a1.067,1.067,0,1,1,1.006,1.882C493.078,9594.388,484.106,9596.338,476.858,9596.338Z" transform="translate(-449.29 -9581.325)" fill="#5c9bcf"/>
          <g id="Grupo_55954" data-name="Grupo 55954" transform="translate(43.104 1.768)">
            <path id="Trazado_107238" data-name="Trazado 107238" d="M518.38,9599.363l-2.008-.73,3.611-9.889-10.127-2.879.586-2.056,12.333,3.509Z" transform="translate(-509.855 -9583.81)" fill="#5c9bcf"/>
          </g>
        </g>
        <g id="Grupo_55957" data-name="Grupo 55957" transform="translate(0 17.489)">
          <path id="Trazado_107239" data-name="Trazado 107239" d="M503.961,9556.125a1.067,1.067,0,0,1-.9-.492h0a29.59,29.59,0,0,0-12.254-9.714c-10.942-4.778-24.521-3.135-39.272,4.753a1.067,1.067,0,1,1-1.006-1.882c19.454-10.406,33.167-8.342,41.245-4.778a31.152,31.152,0,0,1,13.086,10.472,1.067,1.067,0,0,1-.9,1.642Z" transform="translate(-449.004 -9538.803)" fill="#5c9bcf"/>
          <g id="Grupo_55956" data-name="Grupo 55956">
            <path id="Trazado_107240" data-name="Trazado 107240" d="M453.01,9537.867l2.008.73-3.611,9.889,10.128,2.879-.586,2.056-12.333-3.509Z" transform="translate(-448.615 -9537.867)" fill="#5c9bcf"/>
          </g>
        </g>
        <g id="Grupo_55959" data-name="Grupo 55959" transform="translate(57.764)">
          <path id="Trazado_107241" data-name="Trazado 107241" d="M544.82,9564.295a1.067,1.067,0,0,1-.789-.885c-.041-.293-4.109-29.537-3.357-47.344a1.067,1.067,0,0,1,2.133.09c-.743,17.615,3.3,46.666,3.339,46.958a1.065,1.065,0,0,1-1.326,1.181Z" transform="translate(-532.893 -9513.799)" fill="#d4145a"/>
          <g id="Grupo_55958" data-name="Grupo 55958">
            <path id="Trazado_107242" data-name="Trazado 107242" d="M547.235,9522.913l-1.6,1.414-6.958-7.9-7.371,7.518-1.525-1.5,8.98-9.153Z" transform="translate(-529.779 -9513.294)" fill="#d4145a"/>
          </g>
        </g>
      </g>
    </g>
    <g id="Grupo_55280" data-name="Grupo 55280" transform="translate(-275.243 12177.511)">
      <g id="Grupo_55168" data-name="Grupo 55168" transform="translate(887.983 2958.271)">
        <path id="Trazado_104473" data-name="Trazado 104473" d="M2409.914,3043.5c16.5-3.311,32.554,7.342,32.554,7.342s-10.7,16.02-27.2,19.331-32.554-7.342-32.554-7.342S2393.413,3046.807,2409.914,3043.5Z" transform="translate(-2356.842 -3042.858)" fill="#8f8b66"/>
        <path id="Trazado_104474" data-name="Trazado 104474" d="M2298.074,3096.3a.736.736,0,0,1-.356-1.266,109.332,109.332,0,0,1,26.242-16.336,138.884,138.884,0,0,1,50.016-11.492.736.736,0,1,1,.054,1.47,139.38,139.38,0,0,0-49.466,11.363,107.826,107.826,0,0,0-25.854,16.082A.736.736,0,0,1,2298.074,3096.3Z" transform="translate(-2297.478 -3059.818)" fill="#b3ae7f"/>
        <path id="Trazado_104475" data-name="Trazado 104475" d="M2475.9,3060.29a.735.735,0,0,1-.294-1.317l9.917-7.205a.736.736,0,1,1,.865,1.191l-9.917,7.2A.734.734,0,0,1,2475.9,3060.29Z" transform="translate(-2421.331 -3048.965)" fill="#b3ae7f"/>
        <path id="Trazado_104476" data-name="Trazado 104476" d="M2456.8,3092.543a.722.722,0,0,1-.238-.09l-12.333-7.339a.736.736,0,0,1,.752-1.265l12.333,7.339a.736.736,0,0,1-.515,1.355Z" transform="translate(-2399.437 -3071.335)" fill="#b3ae7f"/>
        <path id="Trazado_104477" data-name="Trazado 104477" d="M2408.677,3076.747a.735.735,0,0,1-.426-1.193l6.949-8.341a.736.736,0,1,1,1.13.942l-6.949,8.34A.735.735,0,0,1,2408.677,3076.747Z" transform="translate(-2374.511 -3059.637)" fill="#b3ae7f"/>
      </g>
      <g id="Grupo_55190" data-name="Grupo 55190" transform="translate(887.983 2876.828)">
        <path id="Trazado_104478" data-name="Trazado 104478" d="M2476.624,2874.8c-2.94,1.263-14.272-.049-14.272-.049s6.759-9.335,9.7-10.6,11.6,1.09,11.6,1.09S2479.564,2873.54,2476.624,2874.8Z" transform="translate(-2387.965 -2858.646)" fill="#7d6871"/>
        <g id="Grupo_55170" data-name="Grupo 55170" transform="translate(0 13.954)">
          <g id="Grupo_55169" data-name="Grupo 55169">
            <path id="Trazado_104479" data-name="Trazado 104479" d="M2218.126,2975.421l-.859-.228c16.654-62.809,78.532-82.24,79.137-82.361l.175.871C2295.979,2893.823,2234.653,2913.09,2218.126,2975.421Z" transform="translate(-2217.267 -2892.832)" fill="#54464c"/>
          </g>
        </g>
        <g id="Grupo_55173" data-name="Grupo 55173" transform="translate(58.465 23.345)">
          <path id="Trazado_104480" data-name="Trazado 104480" d="M2440.206,2938.624c-2.986-1.149-10.181-10-10.181-10s11.357-1.962,14.343-.812,7.543,8.883,7.543,8.883S2443.192,2939.772,2440.206,2938.624Z" transform="translate(-2423.914 -2926.333)" fill="#7d6871"/>
          <g id="Grupo_55172" data-name="Grupo 55172">
            <g id="Grupo_55171" data-name="Grupo 55171">
              <path id="Trazado_104481" data-name="Trazado 104481" d="M2430.79,2931.23c-5.218-2.47-20.743-6.557-20.9-6.6l.225-.859c.641.168,15.761,4.149,21.053,6.654Z" transform="translate(-2409.891 -2923.773)" fill="#54464c"/>
            </g>
          </g>
        </g>
        <g id="Grupo_55176" data-name="Grupo 55176" transform="translate(40.04 35.859)">
          <path id="Trazado_104482" data-name="Trazado 104482" d="M2379.5,2979.855c-2.986-1.149-10.181-10-10.181-10s11.356-1.961,14.343-.812,7.543,8.883,7.543,8.883S2382.49,2981,2379.5,2979.855Z" transform="translate(-2363.212 -2967.565)" fill="#7d6871"/>
          <g id="Grupo_55175" data-name="Grupo 55175">
            <g id="Grupo_55174" data-name="Grupo 55174">
              <path id="Trazado_104483" data-name="Trazado 104483" d="M2370.087,2972.462c-5.218-2.47-20.743-6.557-20.9-6.6l.226-.859c.641.168,15.761,4.149,21.054,6.654Z" transform="translate(-2349.188 -2965.005)" fill="#54464c"/>
            </g>
          </g>
        </g>
        <g id="Grupo_55179" data-name="Grupo 55179" transform="translate(24.918 50.807)">
          <path id="Trazado_104484" data-name="Trazado 104484" d="M2329.682,3029.1c-2.987-1.149-10.181-10-10.181-10s11.357-1.961,14.343-.812,7.543,8.883,7.543,8.883S2332.668,3030.254,2329.682,3029.1Z" transform="translate(-2313.39 -3016.814)" fill="#7d6871"/>
          <g id="Grupo_55178" data-name="Grupo 55178">
            <g id="Grupo_55177" data-name="Grupo 55177">
              <path id="Trazado_104485" data-name="Trazado 104485" d="M2320.265,3021.711c-5.219-2.47-20.743-6.557-20.9-6.6l.225-.859c.641.168,15.761,4.149,21.054,6.654Z" transform="translate(-2299.366 -3014.254)" fill="#54464c"/>
            </g>
          </g>
        </g>
        <g id="Grupo_55182" data-name="Grupo 55182" transform="translate(13.505 65.813)">
          <path id="Trazado_104486" data-name="Trazado 104486" d="M2292.078,3078.544c-2.986-1.149-10.181-10-10.181-10s11.356-1.961,14.343-.812,7.543,8.883,7.543,8.883S2295.064,3079.694,2292.078,3078.544Z" transform="translate(-2275.785 -3066.254)" fill="#7d6871"/>
          <g id="Grupo_55181" data-name="Grupo 55181">
            <g id="Grupo_55180" data-name="Grupo 55180">
              <path id="Trazado_104487" data-name="Trazado 104487" d="M2282.661,3071.151c-5.218-2.47-20.743-6.557-20.9-6.6l.226-.859c.641.168,15.761,4.149,21.054,6.654Z" transform="translate(-2261.761 -3063.694)" fill="#54464c"/>
            </g>
          </g>
        </g>
        <g id="Grupo_55186" data-name="Grupo 55186" transform="translate(48.898)">
          <g id="Grupo_55184" data-name="Grupo 55184">
            <g id="Grupo_55183" data-name="Grupo 55183">
              <path id="Trazado_104488" data-name="Trazado 104488" d="M2389.706,2858.29c-.822,3.093-8.853,11.195-8.853,11.195s-3.168-11.081-2.345-14.173,8.022-8.452,8.022-8.452S2390.529,2855.2,2389.706,2858.29Z" transform="translate(-2378.372 -2846.859)" fill="#7d6871"/>
            </g>
          </g>
          <g id="Grupo_55185" data-name="Grupo 55185" transform="translate(0.837 7.077)">
            <path id="Trazado_104489" data-name="Trazado 104489" d="M2382.009,2891.954l-.879-.133c.1-.655,2.435-16.115,4.359-21.646l.839.292C2384.432,2875.92,2382.033,2891.793,2382.009,2891.954Z" transform="translate(-2381.13 -2870.175)" fill="#54464c"/>
          </g>
        </g>
        <g id="Grupo_55189" data-name="Grupo 55189" transform="translate(25.902 15.238)">
          <path id="Trazado_104490" data-name="Trazado 104490" d="M2314.169,2907.721c-.243,3.191-6.658,12.624-6.658,12.624s-5.139-10.315-4.9-13.506,6.344-9.776,6.344-9.776S2314.412,2904.531,2314.169,2907.721Z" transform="translate(-2302.606 -2897.063)" fill="#7d6871"/>
          <g id="Grupo_55188" data-name="Grupo 55188" transform="translate(4.224 7.499)">
            <g id="Grupo_55187" data-name="Grupo 55187">
              <path id="Trazado_104491" data-name="Trazado 104491" d="M2316.7,2943.848c-.023-.662-.551-16.289.33-22.078l.878.134c-.868,5.707-.325,21.752-.32,21.913Z" transform="translate(-2316.524 -2921.77)" fill="#54464c"/>
            </g>
          </g>
        </g>
      </g>
      <g id="Grupo_55192" data-name="Grupo 55192" transform="translate(965.536 2975.087)">
        <g id="Grupo_55191" data-name="Grupo 55191">
          <path id="Trazado_104492" data-name="Trazado 104492" d="M2455.377,3236.455q-.4,0-.8-.01a.351.351,0,0,1-.342-.359.359.359,0,0,1,.359-.341,32.309,32.309,0,0,0,4.148-.167.35.35,0,0,1,.074.7A32.93,32.93,0,0,1,2455.377,3236.455Zm-4.973-.384a.373.373,0,0,1-.054,0,32.305,32.305,0,0,1-4.14-.928.35.35,0,1,1,.2-.672,31.569,31.569,0,0,0,4.05.907.35.35,0,0,1-.053.7Zm12.508-.507a.35.35,0,0,1-.082-.69,31.523,31.523,0,0,0,3.961-1.236.35.35,0,1,1,.252.653,32.246,32.246,0,0,1-4.049,1.263A.352.352,0,0,1,2462.912,3235.564Zm-20.545-1.859a.346.346,0,0,1-.142-.031,32.423,32.423,0,0,1-3.756-1.975.35.35,0,1,1,.366-.6,31.747,31.747,0,0,0,3.675,1.933.35.35,0,0,1-.142.67Zm28.356-1.156a.35.35,0,0,1-.168-.657,31.86,31.86,0,0,0,3.5-2.225.35.35,0,0,1,.413.565,32.475,32.475,0,0,1-3.582,2.273A.345.345,0,0,1,2470.723,3232.549Zm-35.5-3.222a.351.351,0,0,1-.22-.078,32.7,32.7,0,0,1-3.117-2.879.35.35,0,1,1,.508-.482,31.974,31.974,0,0,0,3.05,2.817.35.35,0,0,1-.22.622Zm42.264-1.719a.35.35,0,0,1-.242-.6,32.023,32.023,0,0,0,2.813-3.053.35.35,0,1,1,.545.439,32.666,32.666,0,0,1-2.874,3.121A.349.349,0,0,1,2477.487,3227.608Zm-48.033-4.351a.35.35,0,0,1-.283-.145,32.618,32.618,0,0,1-2.268-3.583.35.35,0,0,1,.615-.335,31.808,31.808,0,0,0,2.219,3.506.35.35,0,0,1-.282.556Zm53.294-2.167a.35.35,0,0,1-.3-.533,31.735,31.735,0,0,0,1.928-3.677.35.35,0,0,1,.64.283,32.285,32.285,0,0,1-1.97,3.759A.35.35,0,0,1,2482.748,3221.09Zm-57.3-5.183a.35.35,0,0,1-.327-.224,32.254,32.254,0,0,1-1.259-4.052.35.35,0,1,1,.681-.163,31.594,31.594,0,0,0,1.231,3.963.351.351,0,0,1-.326.476Zm-1.953-8.144a.35.35,0,0,1-.348-.314,32.93,32.93,0,0,1-.176-3.4q0-.422.011-.841a.35.35,0,1,1,.7.017q-.01.411-.01.824a32.274,32.274,0,0,0,.172,3.324.35.35,0,0,1-.312.384Zm.217-8.372a.319.319,0,0,1-.055,0,.35.35,0,0,1-.292-.4,32.25,32.25,0,0,1,.932-4.139.35.35,0,0,1,.671.2,31.56,31.56,0,0,0-.912,4.049A.35.35,0,0,1,2423.714,3199.39Zm2.375-8.033a.35.35,0,0,1-.32-.493,32.407,32.407,0,0,1,1.98-3.754.35.35,0,1,1,.6.367,31.781,31.781,0,0,0-1.937,3.672A.35.35,0,0,1,2426.09,3191.358Zm57.492-2.2a.35.35,0,0,1-.308-.184,31.891,31.891,0,0,0-2.212-3.513.35.35,0,0,1,.567-.411,32.466,32.466,0,0,1,2.261,3.591.35.35,0,0,1-.307.517Zm-53.107-4.942a.35.35,0,0,1-.272-.57,32.79,32.79,0,0,1,2.882-3.113.35.35,0,1,1,.482.508,32.094,32.094,0,0,0-2.82,3.046A.349.349,0,0,1,2430.475,3184.219Zm48.191-1.84a.35.35,0,0,1-.254-.11,32.016,32.016,0,0,0-3.043-2.824.35.35,0,1,1,.442-.543,32.77,32.77,0,0,1,3.11,2.886.35.35,0,0,1-.254.591Zm-42.113-3.922a.35.35,0,0,1-.206-.634,32.454,32.454,0,0,1,3.586-2.263.35.35,0,1,1,.334.615,31.786,31.786,0,0,0-3.508,2.215A.347.347,0,0,1,2436.553,3178.456Zm35.614-1.363a.349.349,0,0,1-.183-.052,31.7,31.7,0,0,0-3.67-1.941.35.35,0,0,1,.286-.639,32.5,32.5,0,0,1,3.75,1.984.35.35,0,0,1-.184.648Zm-28.259-2.631a.35.35,0,0,1-.125-.677,32.314,32.314,0,0,1,4.053-1.254.35.35,0,0,1,.163.681,31.5,31.5,0,0,0-3.965,1.227A.349.349,0,0,1,2443.908,3174.462Zm20.613-.79a.354.354,0,0,1-.1-.015,31.646,31.646,0,0,0-4.049-.917.35.35,0,1,1,.11-.691,32.327,32.327,0,0,1,4.139.938.35.35,0,0,1-.1.686Zm-12.467-1.152a.35.35,0,0,1-.035-.7,32.829,32.829,0,0,1,4.239-.16.35.35,0,0,1-.019.7,32.577,32.577,0,0,0-4.148.157Z" transform="translate(-2422.974 -3171.649)" fill="#b5ac84"/>
        </g>
      </g>
      <g id="Grupo_55199" data-name="Grupo 55199" transform="translate(1027.61 2965.27)">
        <g id="Grupo_55198" data-name="Grupo 55198">
          <g id="Grupo_55193" data-name="Grupo 55193">
            <path id="Trazado_104493" data-name="Trazado 104493" d="M2617.034,3256.625a9.817,9.817,0,1,1,9.817-9.817A9.828,9.828,0,0,1,2617.034,3256.625Zm0-18.6a8.783,8.783,0,1,0,8.783,8.784A8.794,8.794,0,0,0,2617.034,3238.024Z" transform="translate(-2607.217 -3236.991)" fill="#b5ac84"/>
          </g>
          <g id="Grupo_55194" data-name="Grupo 55194" transform="translate(4.403 8.461)">
            <path id="Trazado_104494" data-name="Trazado 104494" d="M2623.078,3267.58a1.355,1.355,0,1,1,1.355-1.356A1.357,1.357,0,0,1,2623.078,3267.58Zm0-2.022a.667.667,0,1,0,.667.667A.667.667,0,0,0,2623.078,3265.558Z" transform="translate(-2621.723 -3264.869)" fill="#b5ac84"/>
          </g>
          <g id="Grupo_55195" data-name="Grupo 55195" transform="translate(12.325 8.461)">
            <path id="Trazado_104495" data-name="Trazado 104495" d="M2649.18,3267.58a1.355,1.355,0,1,1,1.355-1.356A1.357,1.357,0,0,1,2649.18,3267.58Zm0-2.022a.667.667,0,1,0,.667.667A.667.667,0,0,0,2649.18,3265.558Z" transform="translate(-2647.825 -3264.869)" fill="#b5ac84"/>
          </g>
          <g id="Grupo_55196" data-name="Grupo 55196" transform="translate(8.364 4.5)">
            <path id="Trazado_104496" data-name="Trazado 104496" d="M2634.774,3253.173a1.355,1.355,0,1,1,1.356,1.355A1.357,1.357,0,0,1,2634.774,3253.173Zm2.022,0a.667.667,0,1,0-.666.667A.667.667,0,0,0,2636.8,3253.173Z" transform="translate(-2634.774 -3251.818)" fill="#b5ac84"/>
          </g>
          <g id="Grupo_55197" data-name="Grupo 55197" transform="translate(8.364 12.423)">
            <path id="Trazado_104497" data-name="Trazado 104497" d="M2634.774,3279.275a1.355,1.355,0,1,1,1.356,1.355A1.357,1.357,0,0,1,2634.774,3279.275Zm2.022,0a.667.667,0,1,0-.666.667A.667.667,0,0,0,2636.8,3279.275Z" transform="translate(-2634.774 -3277.92)" fill="#b5ac84"/>
          </g>
        </g>
      </g>
      <g id="Grupo_55218" data-name="Grupo 55218" transform="translate(495.904 2863.655)">
        <g id="Grupo_55217" data-name="Grupo 55217" transform="translate(0 0)">
          <g id="Grupo_55203" data-name="Grupo 55203" transform="translate(14.536 8.915)">
            <g id="Grupo_55200" data-name="Grupo 55200" transform="translate(0 17.782)">
              <path id="Trazado_104498" data-name="Trazado 104498" d="M387.486,2939.16a.35.35,0,0,1-.29-.546c.392-.582.8-1.163,1.223-1.727a.35.35,0,0,1,.562.418c-.413.554-.818,1.127-1.2,1.7A.35.35,0,0,1,387.486,2939.16Z" transform="translate(-387.136 -2936.747)" fill="#b5ac84"/>
            </g>
            <g id="Grupo_55201" data-name="Grupo 55201" transform="translate(3.595 1.125)">
              <path id="Trazado_104499" data-name="Trazado 104499" d="M399.329,2896.288a.35.35,0,0,1-.262-.582c.837-.947,1.725-1.873,2.638-2.748a.35.35,0,0,1,.484.505c-.9.862-1.774,1.773-2.6,2.706A.348.348,0,0,1,399.329,2896.288Zm5.455-5.225a.35.35,0,0,1-.22-.622c.985-.8,2.014-1.561,3.059-2.27a.35.35,0,1,1,.393.579c-1.029.7-2.042,1.45-3.012,2.235A.347.347,0,0,1,404.784,2891.063Zm6.25-4.243a.35.35,0,0,1-.172-.655c1.1-.62,2.246-1.2,3.4-1.725a.35.35,0,0,1,.291.637c-1.132.516-2.258,1.088-3.344,1.7A.345.345,0,0,1,411.034,2886.82Zm6.873-3.133a.35.35,0,0,1-.118-.68c1.193-.426,2.417-.806,3.639-1.128a.35.35,0,1,1,.179.677c-1.2.318-2.408.691-3.582,1.11A.348.348,0,0,1,417.907,2883.688Z" transform="translate(-398.979 -2881.868)" fill="#b5ac84"/>
            </g>
            <g id="Grupo_55202" data-name="Grupo 55202" transform="translate(29.481)">
              <path id="Trazado_104500" data-name="Trazado 104500" d="M484.618,2879.175a.35.35,0,0,1-.06-.695c.691-.121,1.4-.228,2.093-.317a.35.35,0,0,1,.088.7c-.687.087-1.38.192-2.061.311A.342.342,0,0,1,484.618,2879.175Z" transform="translate(-484.268 -2878.161)" fill="#b5ac84"/>
            </g>
          </g>
          <g id="Grupo_55207" data-name="Grupo 55207" transform="translate(6.919 9.723)">
            <g id="Grupo_55204" data-name="Grupo 55204" transform="translate(55.137)">
              <path id="Trazado_104501" data-name="Trazado 104501" d="M546.085,2882.048a.349.349,0,0,1-.1-.013c-.667-.189-1.346-.364-2.018-.52a.35.35,0,0,1,.158-.682c.683.159,1.372.337,2.05.528a.35.35,0,0,1-.1.687Z" transform="translate(-543.701 -2880.824)" fill="#b5ac84"/>
            </g>
            <g id="Grupo_55205" data-name="Grupo 55205" transform="translate(0.067 1.883)">
              <path id="Trazado_104502" data-name="Trazado 104502" d="M408.071,2974.529a.35.35,0,0,1,0-.7c1.41-.019,2.833-.105,4.228-.256a.35.35,0,1,1,.075.7c-1.417.153-2.861.24-4.293.26Zm-4.266-.141h-.029c-1.427-.114-2.863-.3-4.267-.547a.35.35,0,1,1,.122-.689c1.382.244,2.8.426,4.2.538a.35.35,0,0,1-.028.7Zm12.743-.776a.35.35,0,0,1-.07-.693c1.379-.284,2.759-.637,4.1-1.051a.35.35,0,0,1,.206.669c-1.365.42-2.767.78-4.168,1.068A.355.355,0,0,1,416.549,2973.612Zm-21.14-.71a.349.349,0,0,1-.094-.012c-1.377-.382-2.752-.836-4.086-1.347a.35.35,0,0,1,.251-.654c1.313.5,2.666.95,4.022,1.327a.35.35,0,0,1-.094.687Zm29.291-1.8a.35.35,0,0,1-.134-.674c1.3-.539,2.585-1.149,3.828-1.812a.35.35,0,0,1,.329.618c-1.263.673-2.571,1.292-3.888,1.84A.345.345,0,0,1,424.7,2971.1Zm-37.254-1.257a.346.346,0,0,1-.156-.037c-1.278-.636-2.542-1.343-3.756-2.1a.35.35,0,1,1,.37-.594c1.2.745,2.439,1.44,3.7,2.067a.35.35,0,0,1-.156.663Zm44.78-2.755a.35.35,0,0,1-.194-.642c1.172-.777,2.323-1.619,3.417-2.5a.35.35,0,1,1,.44.545c-1.112.9-2.279,1.754-3.47,2.543A.35.35,0,0,1,432.225,2967.091Zm-52.018-1.755a.348.348,0,0,1-.212-.072c-1.135-.866-2.242-1.8-3.292-2.77a.35.35,0,1,1,.475-.514c1.034.957,2.125,1.875,3.242,2.728a.35.35,0,0,1-.212.628Zm58.652-3.606a.35.35,0,0,1-.245-.6c1.006-.984,1.977-2.028,2.886-3.1a.35.35,0,1,1,.535.452c-.923,1.091-1.909,2.15-2.931,3.15A.348.348,0,0,1,438.859,2961.73Zm-64.912-2.188a.349.349,0,0,1-.261-.116c-.954-1.066-1.866-2.19-2.713-3.34a.35.35,0,0,1,.564-.415c.834,1.132,1.732,2.238,2.672,3.288a.35.35,0,0,1-.261.583Zm70.42-4.324a.35.35,0,0,1-.287-.55c.8-1.155,1.56-2.363,2.25-3.589a.35.35,0,1,1,.61.343c-.7,1.246-1.469,2.472-2.285,3.646A.349.349,0,0,1,444.367,2955.218Zm-75.479-2.542a.351.351,0,0,1-.3-.17c-.735-1.226-1.419-2.5-2.034-3.791a.35.35,0,0,1,.632-.3c.605,1.27,1.279,2.526,2,3.732a.35.35,0,0,1-.12.48A.345.345,0,0,1,368.888,2952.675Zm79.66-4.892a.341.341,0,0,1-.142-.031.349.349,0,0,1-.178-.461c.57-1.288,1.084-2.617,1.528-3.951a.35.35,0,1,1,.664.221c-.451,1.355-.973,2.706-1.553,4.013A.35.35,0,0,1,448.548,2947.783Zm-83.33-2.807a.35.35,0,0,1-.329-.23c-.489-1.343-.918-2.725-1.277-4.109a.35.35,0,0,1,.678-.175c.352,1.362.775,2.723,1.257,4.044a.351.351,0,0,1-.329.47Zm86.023-5.286a.35.35,0,0,1-.341-.428c.314-1.369.566-2.772.749-4.168a.35.35,0,0,1,.694.09c-.185,1.419-.441,2.844-.761,4.235A.35.35,0,0,1,451.242,2939.691Zm-88.161-2.97a.35.35,0,0,1-.345-.295c-.224-1.409-.384-2.848-.474-4.276a.35.35,0,0,1,.7-.044c.089,1.406.246,2.823.467,4.21a.35.35,0,0,1-.291.4A.328.328,0,0,1,363.08,2936.721Zm89.269-5.485h-.012a.351.351,0,0,1-.337-.363c.019-.536.029-1.081.029-1.618,0-.87-.025-1.751-.076-2.618a.35.35,0,1,1,.7-.041c.051.88.076,1.775.076,2.658,0,.546-.01,1.1-.029,1.643A.35.35,0,0,1,452.349,2931.236Zm-.5-8.515a.35.35,0,0,1-.345-.3c-.214-1.391-.5-2.788-.843-4.151a.35.35,0,1,1,.678-.172c.351,1.385.639,2.8.856,4.217a.35.35,0,0,1-.293.4A.4.4,0,0,1,451.853,2922.721Zm-2.094-8.268a.351.351,0,0,1-.33-.232c-.474-1.324-1.018-2.64-1.617-3.913a.35.35,0,1,1,.634-.3c.608,1.293,1.16,2.63,1.642,3.974a.351.351,0,0,1-.33.469Zm-3.627-7.715a.35.35,0,0,1-.3-.172c-.716-1.209-1.5-2.4-2.329-3.537a.35.35,0,1,1,.566-.412c.842,1.155,1.638,2.364,2.366,3.592a.35.35,0,0,1-.3.529Zm-5.022-6.893a.349.349,0,0,1-.262-.118c-.932-1.053-1.926-2.075-2.954-3.037a.35.35,0,0,1,.478-.512c1.044.977,2.053,2.015,3,3.084a.35.35,0,0,1-.262.582Zm-6.23-5.827a.349.349,0,0,1-.214-.073c-1.114-.86-2.283-1.677-3.473-2.427a.35.35,0,1,1,.373-.592c1.209.762,2.4,1.591,3.527,2.465a.35.35,0,0,1-.214.627Zm-7.217-4.55a.346.346,0,0,1-.157-.038c-1.257-.635-2.559-1.215-3.87-1.727a.35.35,0,0,1,.254-.652c1.332.52,2.655,1.109,3.931,1.754a.35.35,0,0,1-.158.663Z" transform="translate(-362.261 -2887.029)" fill="#b5ac84"/>
            </g>
            <g id="Grupo_55206" data-name="Grupo 55206" transform="translate(0 40.201)">
              <path id="Trazado_104503" data-name="Trazado 104503" d="M362.39,3016.073h-.011a.35.35,0,0,1-.339-.361c.022-.7.062-1.413.116-2.114a.35.35,0,0,1,.7.055c-.054.69-.092,1.39-.114,2.081A.35.35,0,0,1,362.39,3016.073Z" transform="translate(-362.039 -3013.276)" fill="#b5ac84"/>
            </g>
          </g>
          <g id="Grupo_55211" data-name="Grupo 55211" transform="translate(14.536 8.915)">
            <g id="Grupo_55208" data-name="Grupo 55208" transform="translate(0 17.782)">
              <path id="Trazado_104504" data-name="Trazado 104504" d="M387.486,2939.16a.35.35,0,0,1-.29-.546c.392-.582.8-1.163,1.223-1.727a.35.35,0,0,1,.562.418c-.413.554-.818,1.127-1.2,1.7A.35.35,0,0,1,387.486,2939.16Z" transform="translate(-387.136 -2936.747)" fill="#b5ac84"/>
            </g>
            <g id="Grupo_55209" data-name="Grupo 55209" transform="translate(3.595 1.125)">
              <path id="Trazado_104505" data-name="Trazado 104505" d="M399.329,2896.288a.35.35,0,0,1-.262-.582c.837-.947,1.725-1.873,2.638-2.748a.35.35,0,0,1,.484.505c-.9.862-1.774,1.773-2.6,2.706A.348.348,0,0,1,399.329,2896.288Zm5.455-5.225a.35.35,0,0,1-.22-.622c.985-.8,2.014-1.561,3.059-2.27a.35.35,0,1,1,.393.579c-1.029.7-2.042,1.45-3.012,2.235A.347.347,0,0,1,404.784,2891.063Zm6.25-4.243a.35.35,0,0,1-.172-.655c1.1-.62,2.246-1.2,3.4-1.725a.35.35,0,0,1,.291.637c-1.132.516-2.258,1.088-3.344,1.7A.345.345,0,0,1,411.034,2886.82Zm6.873-3.133a.35.35,0,0,1-.118-.68c1.193-.426,2.417-.806,3.639-1.128a.35.35,0,1,1,.179.677c-1.2.318-2.408.691-3.582,1.11A.348.348,0,0,1,417.907,2883.688Z" transform="translate(-398.979 -2881.868)" fill="#b5ac84"/>
            </g>
            <g id="Grupo_55210" data-name="Grupo 55210" transform="translate(29.481)">
              <path id="Trazado_104506" data-name="Trazado 104506" d="M484.618,2879.175a.35.35,0,0,1-.06-.695c.691-.121,1.4-.228,2.093-.317a.35.35,0,0,1,.088.7c-.687.087-1.38.192-2.061.311A.342.342,0,0,1,484.618,2879.175Z" transform="translate(-484.268 -2878.161)" fill="#b5ac84"/>
            </g>
          </g>
          <g id="Grupo_55212" data-name="Grupo 55212" transform="translate(44.282)">
            <path id="Trazado_104507" data-name="Trazado 104507" d="M499.683,2865.886l-5.555-4.036-5.555,4.036,2.122-6.531-5.555-4.036h6.867l2.122-6.531,2.122,6.531h6.867l-5.555,4.036Zm-5.555-4.9,4.224,3.069-1.613-4.965,4.224-3.069h-5.221l-1.613-4.965-1.613,4.965h-5.221l4.224,3.069-1.614,4.965Z" transform="translate(-485.139 -2848.788)" fill="#b5ac84"/>
          </g>
          <g id="Grupo_55216" data-name="Grupo 55216" transform="translate(0 29.359)">
            <g id="Grupo_55213" data-name="Grupo 55213">
              <path id="Trazado_104508" data-name="Trazado 104508" d="M349.06,2965.149a9.817,9.817,0,1,1,9.817-9.816A9.828,9.828,0,0,1,349.06,2965.149Zm0-18.6a8.784,8.784,0,1,0,8.783,8.784A8.794,8.794,0,0,0,349.06,2946.549Z" transform="translate(-339.243 -2945.516)" fill="#b5ac84"/>
            </g>
            <g id="Grupo_55214" data-name="Grupo 55214" transform="translate(5.092 8.461)">
              <path id="Trazado_104509" data-name="Trazado 104509" d="M357.375,2976.1a1.355,1.355,0,1,1,1.355-1.355A1.357,1.357,0,0,1,357.375,2976.1Zm0-2.022a.666.666,0,1,0,.666.666A.667.667,0,0,0,357.375,2974.083Z" transform="translate(-356.019 -2973.394)" fill="#b5ac84"/>
            </g>
            <g id="Grupo_55215" data-name="Grupo 55215" transform="translate(11.637 8.461)">
              <path id="Trazado_104510" data-name="Trazado 104510" d="M378.937,2976.1a1.355,1.355,0,1,1,1.355-1.355A1.357,1.357,0,0,1,378.937,2976.1Zm0-2.022a.666.666,0,1,0,.666.666A.667.667,0,0,0,378.937,2974.083Z" transform="translate(-377.582 -2973.394)" fill="#b5ac84"/>
            </g>
          </g>
        </g>
      </g>
      <g id="Grupo_55246" data-name="Grupo 55246" transform="translate(887.746 3027.036)">
        <path id="Trazado_104511" data-name="Trazado 104511" d="M2480.875,3468.973c-2.326,1-11.289-.039-11.289-.039s5.346-7.384,7.671-8.383,9.177.862,9.177.862S2483.2,3467.974,2480.875,3468.973Z" transform="translate(-2410.746 -3456.194)" fill="#8f8b66"/>
        <g id="Grupo_55220" data-name="Grupo 55220" transform="translate(0 11.037)">
          <g id="Grupo_55219" data-name="Grupo 55219">
            <path id="Trazado_104512" data-name="Trazado 104512" d="M2276.406,3548.56l-.68-.18c13.173-49.681,62.118-65.051,62.6-65.147l.138.689C2337.986,3484.017,2289.478,3499.257,2276.406,3548.56Z" transform="translate(-2275.726 -3483.233)" fill="#b3ae7f"/>
          </g>
        </g>
        <g id="Grupo_55224" data-name="Grupo 55224" transform="translate(46.245 18.465)">
          <path id="Trazado_104513" data-name="Trazado 104513" d="M2452.069,3519.454c-2.362-.909-8.053-7.911-8.053-7.911s8.983-1.552,11.345-.643,5.967,7.026,5.967,7.026S2454.431,3520.363,2452.069,3519.454Z" transform="translate(-2439.182 -3509.732)" fill="#8f8b66"/>
          <g id="Grupo_55223" data-name="Grupo 55223">
            <g id="Grupo_55222" data-name="Grupo 55222">
              <g id="Grupo_55221" data-name="Grupo 55221">
                <path id="Trazado_104514" data-name="Trazado 104514" d="M2444.62,3513.606c-4.127-1.954-16.407-5.186-16.531-5.219l.178-.68c.507.133,12.467,3.283,16.653,5.264Z" transform="translate(-2428.089 -3507.707)" fill="#b3ae7f"/>
              </g>
            </g>
          </g>
        </g>
        <g id="Grupo_55228" data-name="Grupo 55228" transform="translate(31.671 28.364)">
          <path id="Trazado_104515" data-name="Trazado 104515" d="M2404.054,3552.068c-2.362-.909-8.053-7.911-8.053-7.911s8.983-1.552,11.345-.643,5.967,7.026,5.967,7.026S2406.416,3552.977,2404.054,3552.068Z" transform="translate(-2391.167 -3542.346)" fill="#8f8b66"/>
          <g id="Grupo_55227" data-name="Grupo 55227">
            <g id="Grupo_55226" data-name="Grupo 55226">
              <g id="Grupo_55225" data-name="Grupo 55225">
                <path id="Trazado_104516" data-name="Trazado 104516" d="M2396.605,3546.22c-4.128-1.953-16.407-5.186-16.531-5.219l.178-.68c.507.133,12.467,3.282,16.653,5.264Z" transform="translate(-2380.074 -3540.321)" fill="#b3ae7f"/>
              </g>
            </g>
          </g>
        </g>
        <g id="Grupo_55232" data-name="Grupo 55232" transform="translate(19.71 40.188)">
          <path id="Trazado_104517" data-name="Trazado 104517" d="M2364.646,3591.023c-2.362-.909-8.053-7.912-8.053-7.912s8.982-1.552,11.345-.643,5.966,7.026,5.966,7.026S2367.008,3591.932,2364.646,3591.023Z" transform="translate(-2351.759 -3581.302)" fill="#8f8b66"/>
          <g id="Grupo_55231" data-name="Grupo 55231">
            <g id="Grupo_55230" data-name="Grupo 55230">
              <g id="Grupo_55229" data-name="Grupo 55229">
                <path id="Trazado_104518" data-name="Trazado 104518" d="M2357.2,3585.176c-4.128-1.953-16.408-5.186-16.531-5.219l.179-.679c.507.133,12.467,3.282,16.653,5.263Z" transform="translate(-2340.665 -3579.277)" fill="#b3ae7f"/>
              </g>
            </g>
          </g>
        </g>
        <g id="Grupo_55236" data-name="Grupo 55236" transform="translate(10.682 52.057)">
          <path id="Trazado_104519" data-name="Trazado 104519" d="M2334.9,3630.13c-2.362-.909-8.053-7.912-8.053-7.912s8.983-1.551,11.345-.642,5.967,7.026,5.967,7.026S2337.263,3631.039,2334.9,3630.13Z" transform="translate(-2322.014 -3620.408)" fill="#8f8b66"/>
          <g id="Grupo_55235" data-name="Grupo 55235">
            <g id="Grupo_55234" data-name="Grupo 55234">
              <g id="Grupo_55233" data-name="Grupo 55233">
                <path id="Trazado_104520" data-name="Trazado 104520" d="M2327.452,3624.281c-4.127-1.953-16.407-5.186-16.531-5.218l.178-.68c.507.133,12.467,3.282,16.653,5.263Z" transform="translate(-2310.921 -3618.383)" fill="#b3ae7f"/>
              </g>
            </g>
          </g>
        </g>
        <g id="Grupo_55241" data-name="Grupo 55241" transform="translate(38.678)">
          <g id="Grupo_55239" data-name="Grupo 55239">
            <g id="Grupo_55238" data-name="Grupo 55238">
              <g id="Grupo_55237" data-name="Grupo 55237">
                <path id="Trazado_104521" data-name="Trazado 104521" d="M2412.124,3455.912c-.651,2.446-7,8.855-7,8.855s-2.506-8.765-1.855-11.211,6.346-6.686,6.346-6.686S2412.774,3453.466,2412.124,3455.912Z" transform="translate(-2403.158 -3446.87)" fill="#8f8b66"/>
              </g>
            </g>
          </g>
          <g id="Grupo_55240" data-name="Grupo 55240" transform="translate(0.662 5.597)">
            <path id="Trazado_104522" data-name="Trazado 104522" d="M2406.035,3482.538l-.7-.1c.078-.518,1.926-12.747,3.448-17.122l.663.231C2407.952,3469.856,2406.054,3482.412,2406.035,3482.538Z" transform="translate(-2405.34 -3465.312)" fill="#b3ae7f"/>
          </g>
        </g>
        <g id="Grupo_55245" data-name="Grupo 55245" transform="translate(20.488 12.053)">
          <path id="Trazado_104523" data-name="Trazado 104523" d="M2352.375,3495.011c-.193,2.524-5.267,9.985-5.267,9.985s-4.065-8.16-3.872-10.683,5.018-7.732,5.018-7.732S2352.568,3492.487,2352.375,3495.011Z" transform="translate(-2343.229 -3486.581)" fill="#8f8b66"/>
          <g id="Grupo_55244" data-name="Grupo 55244" transform="translate(3.341 5.932)">
            <g id="Grupo_55243" data-name="Grupo 55243">
              <g id="Grupo_55242" data-name="Grupo 55242">
                <path id="Trazado_104524" data-name="Trazado 104524" d="M2354.378,3523.586c-.018-.524-.435-12.884.261-17.463l.695.105c-.686,4.515-.258,17.206-.253,17.333Z" transform="translate(-2354.238 -3506.124)" fill="#b3ae7f"/>
              </g>
            </g>
          </g>
        </g>
      </g>
      <g id="Grupo_55249" data-name="Grupo 55249" transform="translate(563.939 2973.338)">
        <path id="Trazado_104525" data-name="Trazado 104525" d="M641.845,3271.538c2.6,1.869,7.313,12.256,7.313,12.256s-11.483-.981-14.08-2.85a5.794,5.794,0,1,1,6.767-9.406Z" transform="translate(-632.667 -3270.447)" fill="#7d6871"/>
        <path id="Trazado_104526" data-name="Trazado 104526" d="M725.652,3367.8a.533.533,0,0,1-.484-.309c-.171-.37-17.584-37.336-58.705-68.862a.533.533,0,0,1,.649-.847c41.341,31.7,58.852,68.889,59.024,69.261a.533.533,0,0,1-.483.757Z" transform="translate(-656.06 -3289.406)" fill="#54464c"/>
        <g id="Grupo_55247" data-name="Grupo 55247" transform="translate(11.075 22.87)">
          <path id="Trazado_104527" data-name="Trazado 104527" d="M673.909,3345.856c3.148-.575,13.9,3.23,13.9,3.23s-8.67,7.593-11.818,8.168a5.794,5.794,0,0,1-2.084-11.4Z" transform="translate(-669.156 -3345.797)" fill="#7d6871"/>
          <path id="Trazado_104528" data-name="Trazado 104528" d="M687.4,3357.827a.533.533,0,0,1-.1-1.056c9.615-1.889,13.681-2.771,13.721-2.779a.533.533,0,1,1,.226,1.042c-.04.009-4.114.892-13.742,2.783A.5.5,0,0,1,687.4,3357.827Z" transform="translate(-681.493 -3351.496)" fill="#54464c"/>
        </g>
        <g id="Grupo_55248" data-name="Grupo 55248" transform="translate(38.489 18.946)">
          <path id="Trazado_104529" data-name="Trazado 104529" d="M771.01,3339.312c-.358,3.18-7.108,12.376-7.108,12.376s-4.765-10.494-4.407-13.673a5.794,5.794,0,0,1,11.515,1.3Z" transform="translate(-759.476 -3332.869)" fill="#7d6871"/>
          <path id="Trazado_104530" data-name="Trazado 104530" d="M772.76,3365.541h-.043a.533.533,0,0,1-.489-.573c0-.041.334-4.2,1.3-13.96a.533.533,0,0,1,1.061.105c-.969,9.75-1.3,13.9-1.3,13.939A.533.533,0,0,1,772.76,3365.541Z" transform="translate(-768.356 -3345.166)" fill="#54464c"/>
        </g>
      </g>
      <g id="Grupo_55250" data-name="Grupo 55250" transform="translate(539.243 3001.804)">
        <path id="Trazado_104531" data-name="Trazado 104531" d="M589.962,3393.719c37.694-.939,63.225,26.588,65.815,50.087,0,0-22.636-.077-28.8-3.023s-14.233-21.831-15.76-24.954-8.367-13.631-8.367-13.631Z" transform="translate(-589.962 -3393.695)" fill="#8f8b66"/>
        <path id="Trazado_104532" data-name="Trazado 104532" d="M589.962,3393.772c26.112,7.819,21.776,26.81,31.689,37.906s34.126,12.182,34.126,12.182c-41.926,8.271-43.154-15.558-48.459-29.784A39.653,39.653,0,0,0,589.962,3393.772Z" transform="translate(-589.962 -3393.749)" fill="#54464c"/>
        <path id="Trazado_104533" data-name="Trazado 104533" d="M752.151,3511.488q-4.8-6.431-8.956-12.04c-10.592-14.259-18.469-24.862-25.409-33.187l.631-6.7a.888.888,0,1,0-1.769-.166l-.467,4.965a123.446,123.446,0,0,0-13.855-14.139.879.879,0,0,0,0-.385l-2.62-11.295a.888.888,0,0,0-1.73.4l2.2,9.505a95.087,95.087,0,0,0-11.907-8.1.888.888,0,0,0-.891,1.537A91.548,91.548,0,0,1,709,3458.959L691.328,3458a.888.888,0,0,0-.324,1.731.849.849,0,0,0,.228.042l19.439,1.059c.023,0,.044-.009.067-.01,1.7,1.853,3.431,3.844,5.234,6a.88.88,0,0,0,.6.8c.026.009.055.011.083.018,6.744,8.141,14.521,18.607,25.117,32.871q4.176,5.622,8.958,12.042a.888.888,0,0,0,1.424-1.062Z" transform="translate(-657.507 -3424.449)" fill="#b3ae7f"/>
      </g>
      <g id="Grupo_55251" data-name="Grupo 55251" transform="translate(557.411 3075.794)">
        <path id="Trazado_104534" data-name="Trazado 104534" d="M655.576,3597.989c-14.812-2.983-29.23,6.57-29.23,6.57s9.6,14.389,24.409,17.372,29.23-6.57,29.23-6.57S670.389,3600.972,655.576,3597.989Z" transform="translate(-626.346 -3597.412)" fill="#8f8b66"/>
        <path id="Trazado_104535" data-name="Trazado 104535" d="M720.5,3645.592a.461.461,0,0,1-.577-.035,97,97,0,0,0-23.253-14.489,125.331,125.331,0,0,0-44.475-10.252.46.46,0,0,1,.035-.919,126.312,126.312,0,0,1,44.819,10.333,97.951,97.951,0,0,1,23.5,14.648.46.46,0,0,1,.029.65A.467.467,0,0,1,720.5,3645.592Z" transform="translate(-644.042 -3613.072)" fill="#b3ae7f"/>
        <path id="Trazado_104536" data-name="Trazado 104536" d="M696.586,3613.244a.461.461,0,0,1-.538,0l-8.9-6.475a.46.46,0,0,1,.541-.744l8.9,6.475a.46.46,0,0,1,.1.642A.467.467,0,0,1,696.586,3613.244Z" transform="translate(-668.563 -3603.347)" fill="#b3ae7f"/>
        <path id="Trazado_104537" data-name="Trazado 104537" d="M719.617,3635.774a.353.353,0,0,1-.033.021l-11.077,6.581a.46.46,0,1,1-.47-.791L719.115,3635a.46.46,0,0,1,.5.77Z" transform="translate(-683.085 -3623.55)" fill="#b3ae7f"/>
        <path id="Trazado_104538" data-name="Trazado 104538" d="M763.036,3628.069a.46.46,0,0,1-.62-.081l-6.233-7.492a.46.46,0,1,1,.707-.588l6.233,7.492a.46.46,0,0,1-.059.647Z" transform="translate(-716.701 -3612.966)" fill="#b3ae7f"/>
      </g>
      <g id="Grupo_55256" data-name="Grupo 55256" transform="translate(578.064 2867.934)">
        <g id="Grupo_55255" data-name="Grupo 55255" transform="translate(0 0)">
          <g id="Grupo_55252" data-name="Grupo 55252">
            <path id="Trazado_104539" data-name="Trazado 104539" d="M677.16,2901.26a5.661,5.661,0,1,1,5.661-5.661A5.667,5.667,0,0,1,677.16,2901.26Zm0-10.726a5.065,5.065,0,1,0,5.065,5.065A5.071,5.071,0,0,0,677.16,2890.534Z" transform="translate(-671.499 -2889.938)" fill="#b5ac84"/>
          </g>
          <g id="Grupo_55253" data-name="Grupo 55253" transform="translate(2.539 4.879)">
            <path id="Trazado_104540" data-name="Trazado 104540" d="M680.646,2907.577a.782.782,0,1,1,.782-.781A.782.782,0,0,1,680.646,2907.577Zm0-1.166a.384.384,0,1,0,.384.384A.385.385,0,0,0,680.646,2906.412Z" transform="translate(-679.864 -2906.014)" fill="#b5ac84"/>
          </g>
          <g id="Grupo_55254" data-name="Grupo 55254" transform="translate(7.107 4.879)">
            <path id="Trazado_104541" data-name="Trazado 104541" d="M695.7,2907.577a.782.782,0,1,1,.781-.781A.782.782,0,0,1,695.7,2907.577Zm0-1.166a.384.384,0,1,0,.384.384A.385.385,0,0,0,695.7,2906.412Z" transform="translate(-694.916 -2906.014)" fill="#b5ac84"/>
          </g>
        </g>
      </g>
      <g id="Grupo_55261" data-name="Grupo 55261" transform="translate(983.672 2887.486)">
        <g id="Grupo_55260" data-name="Grupo 55260" transform="translate(0 0)">
          <g id="Grupo_55257" data-name="Grupo 55257">
            <path id="Trazado_104542" data-name="Trazado 104542" d="M2522.479,2992.035a5.661,5.661,0,1,1,5.661-5.661A5.667,5.667,0,0,1,2522.479,2992.035Zm0-10.726a5.065,5.065,0,1,0,5.065,5.065A5.07,5.07,0,0,0,2522.479,2981.309Z" transform="translate(-2516.818 -2980.713)" fill="#b5ac84"/>
          </g>
          <g id="Grupo_55258" data-name="Grupo 55258" transform="translate(2.539 4.88)">
            <path id="Trazado_104543" data-name="Trazado 104543" d="M2525.966,2998.353a.781.781,0,1,1,.781-.781A.783.783,0,0,1,2525.966,2998.353Zm0-1.166a.384.384,0,1,0,.384.384A.385.385,0,0,0,2525.966,2997.187Z" transform="translate(-2525.184 -2996.79)" fill="#b5ac84"/>
          </g>
          <g id="Grupo_55259" data-name="Grupo 55259" transform="translate(7.107 4.88)">
            <path id="Trazado_104544" data-name="Trazado 104544" d="M2541.017,2998.353a.781.781,0,1,1,.781-.781A.782.782,0,0,1,2541.017,2998.353Zm0-1.166a.384.384,0,1,0,.384.384A.385.385,0,0,0,2541.017,2997.187Z" transform="translate(-2540.235 -2996.79)" fill="#b5ac84"/>
          </g>
        </g>
      </g>
      <g id="Grupo_55270" data-name="Grupo 55270" transform="translate(882.053 2913.234)">
        <g id="Grupo_55269" data-name="Grupo 55269">
          <g id="Grupo_55262" data-name="Grupo 55262" transform="translate(0 2.651)">
            <path id="Trazado_104545" data-name="Trazado 104545" d="M2253.84,2893.055h-11.861V2874.6h11.861Zm-10.957-.9h10.054V2875.5h-10.054Z" transform="translate(-2241.979 -2874.597)" fill="#b5ac84"/>
          </g>
          <g id="Grupo_55263" data-name="Grupo 55263" transform="translate(3.299)">
            <path id="Trazado_104546" data-name="Trazado 104546" d="M2258.111,2869.358h-5.263v-3.5h5.263Zm-4.359-.9h3.456v-1.689h-3.456Z" transform="translate(-2252.848 -2865.862)" fill="#b5ac84"/>
          </g>
          <g id="Grupo_55264" data-name="Grupo 55264" transform="translate(3.299 20.232)">
            <path id="Trazado_104547" data-name="Trazado 104547" d="M2258.111,2936.017h-5.263v-3.5h5.263Zm-4.359-.9h3.456v-1.688h-3.456Z" transform="translate(-2252.848 -2932.521)" fill="#b5ac84"/>
          </g>
          <g id="Grupo_55265" data-name="Grupo 55265" transform="translate(1.158 4.104)">
            <path id="Trazado_104548" data-name="Trazado 104548" d="M2254.692,2885.729a.469.469,0,0,1-.118-.016c-1.637-.442-6.742-2.6-8.705-5.632a.452.452,0,0,1,.759-.491c1.8,2.779,6.7,4.85,8.182,5.25a.452.452,0,0,1-.117.888Z" transform="translate(-2245.796 -2879.385)" fill="#b5ac84"/>
          </g>
          <g id="Grupo_55266" data-name="Grupo 55266" transform="translate(1.158 6.99)">
            <path id="Trazado_104549" data-name="Trazado 104549" d="M2254.692,2895.237a.458.458,0,0,1-.118-.016c-1.637-.442-6.742-2.6-8.705-5.632a.452.452,0,1,1,.759-.49c1.8,2.779,6.7,4.849,8.182,5.25a.452.452,0,0,1-.117.888Z" transform="translate(-2245.796 -2888.893)" fill="#b5ac84"/>
          </g>
          <g id="Grupo_55267" data-name="Grupo 55267" transform="translate(1.158 9.876)">
            <path id="Trazado_104550" data-name="Trazado 104550" d="M2254.692,2904.745a.448.448,0,0,1-.118-.016c-1.637-.442-6.742-2.6-8.705-5.632a.452.452,0,1,1,.759-.49c1.8,2.779,6.7,4.85,8.182,5.25a.452.452,0,0,1-.117.888Z" transform="translate(-2245.796 -2898.401)" fill="#b5ac84"/>
          </g>
          <g id="Grupo_55268" data-name="Grupo 55268" transform="translate(1.158 12.762)">
            <path id="Trazado_104551" data-name="Trazado 104551" d="M2254.692,2914.254a.438.438,0,0,1-.118-.016c-1.637-.441-6.742-2.6-8.705-5.632a.452.452,0,0,1,.759-.49c1.8,2.779,6.7,4.85,8.182,5.25a.452.452,0,0,1-.117.888Z" transform="translate(-2245.796 -2907.909)" fill="#b5ac84"/>
          </g>
        </g>
      </g>
      <path id="Trazado_104552" data-name="Trazado 104552" d="M2535.051,3256.976a.343.343,0,0,0-.381.3,2.033,2.033,0,0,1-1.1,1.33c-.794.451-2.582,1-5.625-.393-2.7-1.234-5.167-1.354-6.765-.327a3.4,3.4,0,0,0-1.228,1.371c-.023,0-.045-.007-.069-.007a1.483,1.483,0,0,0-1.483,1.482c0,.819.664,19.669,1.483,19.669s1.483-18.851,1.483-19.669a1.476,1.476,0,0,0-.74-1.276,2.724,2.724,0,0,1,.927-.991c1.4-.9,3.622-.761,6.106.374,3.321,1.519,5.342.881,6.251.366a2.682,2.682,0,0,0,1.445-1.854A.344.344,0,0,0,2535.051,3256.976Zm-14.359,4.049a.809.809,0,1,1-1.056-.766,4.22,4.22,0,0,0-.064.7.344.344,0,0,0,.689,0,3.41,3.41,0,0,1,.059-.612A.807.807,0,0,1,2520.693,3261.025Z" transform="translate(-1523.901 -255.989)" fill="#b5ac84"/>
      <g id="Grupo_55275" data-name="Grupo 55275" transform="translate(593.358 2954.551)">
        <g id="Grupo_55274" data-name="Grupo 55274" transform="translate(0)">
          <g id="Grupo_55271" data-name="Grupo 55271">
            <path id="Trazado_104553" data-name="Trazado 104553" d="M722.623,3247.1c-2.379-1.776.785-8.979,5.217-14.917s10.439-11.019,12.817-9.243-.785,8.979-5.217,14.916S725,3248.875,722.623,3247.1Zm17.658-23.656c-1.592-1.188-6.768,2.191-11.937,9.115s-6.937,12.848-5.345,14.037,6.768-2.19,11.937-9.115S741.872,3224.633,740.281,3223.444Z" transform="translate(-721.808 -3222.582)" fill="#b5ac84"/>
          </g>
          <g id="Grupo_55272" data-name="Grupo 55272" transform="translate(0.021 16.685)">
            <path id="Trazado_104554" data-name="Trazado 104554" d="M722.67,3285.388c-1.247-.931-1-3.3.565-5.394s3.764-3.006,5.011-2.075,1,3.3-.565,5.394S723.917,3286.318,722.67,3285.388Zm5.2-6.965c-.932-.7-2.824.2-4.131,1.947s-1.624,3.818-.692,4.514,2.824-.2,4.131-1.947S728.8,3279.118,727.87,3278.423Z" transform="translate(-721.877 -3277.555)" fill="#b5ac84"/>
          </g>
          <g id="Grupo_55273" data-name="Grupo 55273" transform="translate(10.839 0.316)">
            <path id="Trazado_104555" data-name="Trazado 104555" d="M762.2,3228.122a1.886,1.886,0,0,1,.412,2.6,8.886,8.886,0,0,1,1.145,1.869c2.214-4.2,2.946-7.654,1.582-8.672s-4.436.65-7.821,3.939a8.616,8.616,0,0,1,2.095.585A1.885,1.885,0,0,1,762.2,3228.122Z" transform="translate(-757.521 -3223.622)" fill="#b5ac84"/>
          </g>
        </g>
      </g>
      <g id="Grupo_55277" data-name="Grupo 55277" transform="translate(516.001 3048.12)">
        <g id="Grupo_55276" data-name="Grupo 55276" transform="translate(0 0)">
          <path id="Trazado_104556" data-name="Trazado 104556" d="M590.21,3527.056l-5.555-4.036-5.555,4.036,2.122-6.531-5.555-4.036h6.867l2.122-6.531,2.122,6.531h6.867l-5.555,4.036Zm-5.555-4.9,4.224,3.069-1.613-4.965,4.223-3.069h-5.221l-1.613-4.965-1.613,4.965h-5.221l4.224,3.069-1.614,4.965Z" transform="translate(-575.666 -3509.958)" fill="#b5ac84"/>
        </g>
      </g>
      <g id="Grupo_55279" data-name="Grupo 55279" transform="translate(980.344 3066.115)">
        <g id="Grupo_55278" data-name="Grupo 55278">
          <path id="Trazado_104557" data-name="Trazado 104557" d="M2446.089,3637.253l-5.555-4.036-5.555,4.036,2.122-6.531-5.556-4.036h6.867l2.122-6.531,2.122,6.531h6.867l-5.555,4.036Zm-5.555-4.9,4.223,3.068-1.613-4.965,4.224-3.069h-5.221l-1.614-4.965-1.614,4.965H2433.7l4.224,3.069-1.614,4.965Z" transform="translate(-2431.545 -3620.155)" fill="#b5ac84"/>
        </g>
      </g>
    </g>
  </g>
</svg>
