<svg xmlns="http://www.w3.org/2000/svg" width="139.337" height="353.732" viewBox="0 0 139.337 353.732">
  <g id="Grupo_56571" data-name="Grupo 56571" transform="translate(-802.77 -4892.739)">
    <g id="Grupo_56530" data-name="Grupo 56530" transform="translate(809.368 5057.051)">
      <path id="Trazado_125051" data-name="Trazado 125051" d="M812.895,5047.243a4.244,4.244,0,0,0,.977-2.481,5.53,5.53,0,0,0-.691-2.767l-.469-1.444-1.281-2.054-2.6,1.058.163,3.316,1.465,3.4,1.078.589Z" transform="translate(-808.585 -5038.207)" fill="#fff"/>
      <path id="Trazado_125052" data-name="Trazado 125052" d="M812.98,5047.536l-1.532-.44-1.148-.629-1.514-3.552-.172-3.481,2.94-1.193,1.409,2.272.469,1.443a5.588,5.588,0,0,1,.7,2.882,4.388,4.388,0,0,1-1.055,2.617Zm-1.33-.864,1.209.344a4.508,4.508,0,0,0,.811-2.264,5.342,5.342,0,0,0-.669-2.613l-.475-1.454-1.162-1.863-2.268.921.152,3.107,1.416,3.284Z" transform="translate(-808.613 -5038.24)"/>
    </g>
    <g id="Grupo_56531" data-name="Grupo 56531" transform="translate(807.168 5050.367)">
      <path id="Trazado_125053" data-name="Trazado 125053" d="M808.1,5037.066a5.2,5.2,0,0,0-1.139,4.271c.488,2.523,3.122,7.466,4.953,7.589s.945-1.526.945-1.526a33.779,33.779,0,0,1-2.715-5s-.132-1.586,2.471-2.5,4.76-4.821,4.76-4.821l-1.261-2.5-6.3,1.912Z" transform="translate(-806.638 -5032.289)" fill="#fff"/>
      <path id="Trazado_125054" data-name="Trazado 125054" d="M812.127,5049.2c-.063,0-.13,0-.2-.008-2.03-.135-4.674-5.231-5.168-7.775a5.39,5.39,0,0,1,1.185-4.46l1.745-2.639,6.575-2,1.4,2.789-.06.108c-.089.162-2.229,3.994-4.886,4.928-2.2.773-2.315,2-2.316,2.229a33.075,33.075,0,0,0,2.672,4.92,1.6,1.6,0,0,1,.115,1.456A1.178,1.178,0,0,1,812.127,5049.2Zm-2.14-14.483-1.686,2.543a5.008,5.008,0,0,0-1.081,4.067c.486,2.51,3.111,7.29,4.738,7.4.3.02.7,0,.842-.226.176-.273-.032-.8-.117-.956a33.26,33.26,0,0,1-2.724-5.021l-.019-.074c-.006-.072-.115-1.778,2.627-2.742,2.254-.791,4.207-3.983,4.572-4.607l-1.116-2.214Z" transform="translate(-806.665 -5032.321)"/>
    </g>
    <g id="Grupo_56532" data-name="Grupo 56532" transform="translate(913.19 5044.243)">
      <path id="Trazado_125055" data-name="Trazado 125055" d="M900.849,5027.206l4.242,7.871,1.1,2.076s2.2,2.837,2.716,0a18.521,18.521,0,0,0-2.99-7.415C903.473,5026.351,900.849,5027.206,900.849,5027.206Z" transform="translate(-900.51 -5026.871)" fill="#fff"/>
      <path id="Trazado_125056" data-name="Trazado 125056" d="M908.013,5038.674c-.893,0-1.857-1.2-1.971-1.351l-1.121-2.109-4.373-8.116.266-.087c.114-.038,2.816-.867,5.327,2.617a18.553,18.553,0,0,1,3.032,7.52l.006.036-.007.038c-.15.83-.465,1.31-.94,1.426A.928.928,0,0,1,908.013,5038.674Zm-6.772-11.278,5.194,9.674c.245.31,1.135,1.259,1.688,1.124.335-.083.5-.592.583-1.019a18.436,18.436,0,0,0-2.943-7.274C903.891,5027.3,901.952,5027.291,901.241,5027.4Z" transform="translate(-900.549 -5026.898)"/>
    </g>
    <g id="Grupo_56533" data-name="Grupo 56533" transform="translate(903.773 5038.271)">
      <path id="Trazado_125057" data-name="Trazado 125057" d="M896.366,5021.817s4.841,3.031,6.489,4.374,10.455,7.627,10.455,7.627l1.465.855s1.057,1.3-.286,1.424a6.874,6.874,0,0,1-4.373-1.343c-1.587-1.038-5.614-4.027-5.614-4.027a5.777,5.777,0,0,0-4.333-1.343,13.831,13.831,0,0,1-3.8.244s-2.054-.427-1.993,1.647l4.088,4.027,1.831,2.318s.855,2.015.061,1.893a14.656,14.656,0,0,1-5.492-3.662,16.917,16.917,0,0,1-2.44-3.355l.427-8.787,2.258-1.893Z" transform="translate(-892.183 -5021.583)" fill="#fff"/>
      <path id="Trazado_125058" data-name="Trazado 125058" d="M900.445,5039.781a.575.575,0,0,1-.1-.009,14.841,14.841,0,0,1-5.631-3.736,17.111,17.111,0,0,1-2.477-3.408l-.027-.054,0-.061.431-8.89,2.4-2.013h1.413l.058.037c.2.124,4.872,3.054,6.513,4.389,1.623,1.323,10.354,7.557,10.442,7.619l1.51.9c.064.08.62.788.394,1.326a.906.906,0,0,1-.839.479,7.09,7.09,0,0,1-4.522-1.379c-1.574-1.03-5.585-4.007-5.626-4.036a5.594,5.594,0,0,0-4.15-1.3,13.926,13.926,0,0,1-3.876.245,1.788,1.788,0,0,0-1.333.253,1.325,1.325,0,0,0-.4,1.063l4.019,3.96,1.883,2.394c.156.366.637,1.6.289,2.044A.461.461,0,0,1,900.445,5039.781Zm-7.761-7.309a17.527,17.527,0,0,0,2.378,3.251,14.58,14.58,0,0,0,5.354,3.587c.146-.12-.018-.865-.3-1.541l-1.81-2.293-4.137-4.072,0-.094a1.815,1.815,0,0,1,.567-1.53,2.214,2.214,0,0,1,1.708-.354h0a13.888,13.888,0,0,0,3.714-.246,5.96,5.96,0,0,1,4.528,1.4c.026.017,4.026,2.986,5.588,4.007a6.585,6.585,0,0,0,4.225,1.305c.174-.015.393-.062.449-.194.088-.209-.15-.619-.3-.817l-1.426-.832c-.1-.074-8.85-6.316-10.484-7.647-1.522-1.24-5.86-3.976-6.409-4.321h-1.108l-2.114,1.771Z" transform="translate(-892.21 -5021.61)"/>
    </g>
    <g id="Grupo_56534" data-name="Grupo 56534" transform="translate(802.77 4926.493)">
      <path id="Trazado_125059" data-name="Trazado 125059" d="M880.9,4926.114s-2.2,8.3,1.465,12.123c0,0,.814,1.057,6.753,2.359a8.632,8.632,0,0,1,9.112,6.866s1.546,6.977,0,21.047c0,0-2.6,25.948-2.034,32.213,0,0,11.513,12.652,11.513,26.442s.976,20.137-3.3,38.321-8.543,35.025-8.543,35.025-3.3,15.012,1.1,26.484-2.685,42.616-5.615,49.012-5.126,24.946-5.126,33.977.733,18.15.733,18.15a1.777,1.777,0,0,0,.976,1.741c1.1.489,2.32,1.212,2.32,1.7s-10.01,6.107-10.01,6.107a3.8,3.8,0,0,1-3.822,0c-2.36-1.1-5.981-5.248-5.981-5.248s-1.057-.854.325-1.668a6.111,6.111,0,0,0,2.076-2.074l2.684-24.653s-.569-2.44,1.058-3.5,3.092-9.925,3.58-15.54.569-42.145.569-42.145l.489-21.886a25.772,25.772,0,0,1-1.383-10.414c.325-6.346,2.766-24.815,2.766-24.815s.814-16.924.733-26.6-.081-29.535-.081-29.535-1.871.9-2.767-.244a115.876,115.876,0,0,1-3.661,23.758c-3.336,12.448-7.16,35.962-7.16,35.962s-1.3,10.658-1.3,13.017-.325,8.055-2.522,12.449l-3.336,4.88-.489.408s.041,10.821-7.16,32.789-11.471,34.9-11.471,34.9l-2.32,7.444v7.078s.367,4.76-2.2,7.078l.855,25.02a4.239,4.239,0,0,0,.61,1.505c.407.487,2.562,1.5.651,3.212a24.229,24.229,0,0,1-5.207,3.173s-4.19.814-6.509-.244-7.119-3.742-7.119-3.742a.85.85,0,0,1-.325-1.546c1.058-1.1,2.115-.813,3.092-3.336s3.051-14.6,3.051-14.6l2.806-9.235s-.488-5.695,1.871-9.925,2.929-28.721,2.929-28.721.488-31.324,10.414-47.922l5.207-10.251a51.428,51.428,0,0,0,.9-14.563c-.652-8.137-.733-55.245-.733-55.245s0-22.456,7.241-37.914a11.7,11.7,0,0,0,.408-9.845c-2.2-5.532-9.682-20.823-10.008-33.64,0,0-4.882,22.576-7.322,28.6a32.953,32.953,0,0,0-.733,3.986c0,.895.081,5.857-4.23,15.459s-11.635,28.313-11.635,28.313a18.371,18.371,0,0,0-.813,3.173c-.081,1.058-.164,3.742-.164,3.742s.57,1.139-1.138,3.011-8.015,8.38-8.015,8.38-1.953,1.708-3.112.671c0,0-.488-1.221,1.1-2.93s4.821-6.406,4.821-6.406l-5.99,4.21a12.111,12.111,0,0,0-3.713,3.783,33.2,33.2,0,0,0-2.5,5.492,2.339,2.339,0,0,1-2.074,1.525c-1.587.061,1.037-7.444,1.037-7.444s1.953-7.2,8.238-10.556,7.322-6.59,8.055-9.764,5.919-30.145,5.919-30.145.61-9.4,6.225-16.841c0,0,1.891-3.905,1.831-10.74s6.163-33.806,6.163-33.806.916-9.214,9.764-9.58c0,0,10.435,1.1,12.387-.244s4.577-5.126,4.882-10.313l4.821.976Z" transform="translate(-802.744 -4922.597)" fill="#fff"/>
      <path id="Trazado_125060" data-name="Trazado 125060" d="M832.549,5242.607a8.4,8.4,0,0,1-3.346-.566c-2.3-1.05-7.088-3.725-7.137-3.752h0a1.307,1.307,0,0,1-.819-.782,1.219,1.219,0,0,1,.439-1.129,4.915,4.915,0,0,1,1.08-.816,4.065,4.065,0,0,0,1.963-2.442c.956-2.471,3.017-14.439,3.038-14.56l2.8-9.22c-.045-.587-.379-5.922,1.9-10.015,2.3-4.133,2.893-28.368,2.9-28.612,0-.312.6-31.575,10.447-48.037L851,5112.464a51.84,51.84,0,0,0,.883-14.465c-.644-8.052-.732-54.792-.733-55.263,0-.226.084-22.685,7.263-38.013a11.574,11.574,0,0,0,.4-9.659c-.338-.85-.8-1.941-1.345-3.2-2.78-6.5-7.827-18.288-8.591-28.763-1.193,5.385-4.933,21.926-6.959,26.925h0a33.478,33.478,0,0,0-.716,3.9v.048c.006,3.883-1.5,9.391-4.251,15.507-4.261,9.485-11.557,28.116-11.63,28.3a18.149,18.149,0,0,0-.8,3.105c-.073.962-.149,3.311-.16,3.681.1.281.393,1.464-1.2,3.212-1.692,1.852-7.956,8.319-8.019,8.385-.1.088-2.138,1.844-3.436.683l-.041-.038-.02-.051c-.023-.055-.524-1.378,1.145-3.174,1.088-1.172,2.982-3.8,4.036-5.292l-4.9,3.445a12,12,0,0,0-3.645,3.713,33.2,33.2,0,0,0-2.481,5.446,2.6,2.6,0,0,1-2.287,1.684.615.615,0,0,1-.531-.254c-.83-1.123.969-6.446,1.338-7.5.015-.057,2.046-7.321,8.348-10.686,6.034-3.221,7.164-6.258,7.938-9.609.723-3.133,5.865-29.866,5.916-30.136,0-.065.676-9.524,6.268-16.938a26.4,26.4,0,0,0,1.784-10.6c-.061-6.784,5.914-32.758,6.168-33.86,0-.066,1.034-9.391,9.982-9.762,3.615.379,10.777.82,12.265-.2,1.753-1.2,4.473-4.9,4.78-10.132l.016-.271,5.085,1.03,8.334,2.324-.059.223c-.021.082-2.121,8.217,1.407,11.9.02.024.953,1.043,6.6,2.285a8.9,8.9,0,0,1,9.323,7.043c.017.078,1.538,7.184.006,21.131-.025.255-2.574,25.785-2.041,32.089.855.966,11.521,13.3,11.521,26.541,0,2.283.026,4.338.052,6.326.126,9.78.217,16.849-3.354,32.049-4.222,17.977-8.5,34.861-8.543,35.029-.032.142-3.228,15.069,1.09,26.343,4.419,11.538-2.5,42.377-5.619,49.192-2.914,6.36-5.105,24.937-5.105,33.88,0,8.917.725,18.041.732,18.132a1.554,1.554,0,0,0,.838,1.546c.918.408,2.458,1.2,2.458,1.918,0,.155,0,.63-10.13,6.312a4,4,0,0,1-4.035.008c-2.377-1.107-5.907-5.136-6.057-5.307h0a1.254,1.254,0,0,1-.442-.962,1.422,1.422,0,0,1,.824-1.062,5.973,5.973,0,0,0,1.967-1.947l2.675-24.565c-.072-.347-.48-2.638,1.167-3.708,1.478-.962,2.968-9.54,3.475-15.364.481-5.54.567-41.761.568-42.127l.488-21.842a26.583,26.583,0,0,1-1.382-10.469c.322-6.283,2.744-24.65,2.768-24.833.007-.15.811-17.008.729-26.573-.073-8.872-.08-26.5-.081-29.191a2.736,2.736,0,0,1-2.318-.076,118.417,118.417,0,0,1-3.649,23.305c-3.294,12.294-7.117,35.7-7.155,35.938-.011.1-1.3,10.662-1.3,12.98,0,1.75-.184,7.827-2.547,12.553l-3.4,4.957-.4.339c-.024,1.208-.423,12.166-7.171,32.75-7.118,21.716-11.429,34.775-11.472,34.9l-2.307,7.407v7.042c.015.18.338,4.786-2.193,7.177l.852,24.912h0a4.069,4.069,0,0,0,.556,1.364,2.746,2.746,0,0,0,.326.287,2.484,2.484,0,0,1,1.158,1.692,2.1,2.1,0,0,1-.857,1.56,24.091,24.091,0,0,1-5.268,3.211l-.05.017A19.33,19.33,0,0,1,832.549,5242.607Zm16.665-283.228.05,1.952c.274,10.8,5.716,23.513,8.641,30.344.542,1.267,1.01,2.36,1.35,3.216a12.044,12.044,0,0,1-.424,10.051c-7.125,15.214-7.208,37.57-7.208,37.793,0,.471.089,47.191.732,55.226a52.209,52.209,0,0,1-.9,14.638l-.019.051-5.208,10.251c-9.787,16.369-10.383,47.506-10.388,47.819-.023,1-.6,24.6-2.959,28.831-2.3,4.121-1.846,9.737-1.842,9.793l0,.045-.012.043-2.807,9.234c-.078.465-2.083,12.1-3.057,14.621a4.5,4.5,0,0,1-2.155,2.671,4.515,4.515,0,0,0-.986.742c-.18.187-.381.456-.323.69.063.257.42.427.552.471.089.045,4.859,2.71,7.143,3.752,2.132.973,5.986.3,6.342.233a23.952,23.952,0,0,0,5.121-3.123,1.68,1.68,0,0,0,.7-1.2c-.014-.558-.575-1.009-.984-1.338a2.929,2.929,0,0,1-.392-.352,4.376,4.376,0,0,1-.659-1.609l-.863-25.165.08-.074c2.449-2.215,2.124-6.84,2.121-6.886v-7.132l2.33-7.479c.044-.133,4.354-13.191,11.472-34.907,7.1-21.667,7.149-32.607,7.148-32.715v-.11l.548-.456,3.318-4.855c2.3-4.607,2.481-10.592,2.481-12.317,0-2.347,1.25-12.609,1.3-13.045.039-.245,3.866-23.676,7.166-35.995a116.655,116.655,0,0,0,3.653-23.7l.018-.645.4.507c.768.978,2.465.187,2.482.177l.334-.158v.37c0,.2,0,19.962.081,29.533s-.724,26.449-.733,26.618c-.026.2-2.445,18.552-2.766,24.816a25.807,25.807,0,0,0,1.364,10.312l.019.046v.05L881,5142.9c0,.361-.088,36.6-.571,42.161-.4,4.606-1.828,14.509-3.685,15.716-1.473.956-.963,3.226-.958,3.249l.009.04,0,.039-2.69,24.7-.023.041a6.281,6.281,0,0,1-2.16,2.164c-.26.152-.573.395-.6.689a.826.826,0,0,0,.3.6c.064.069,3.644,4.152,5.931,5.217a3.556,3.556,0,0,0,3.583.025c3.6-2.022,9.354-5.36,9.907-5.966-.082-.249-.765-.819-2.172-1.445a1.986,1.986,0,0,1-1.115-1.977c-.007-.05-.733-9.191-.733-18.128,0-8.982,2.21-27.662,5.147-34.075,2.768-6.042,9.993-37.383,5.608-48.83-4.368-11.406-1.142-26.467-1.108-26.617.044-.175,4.322-17.056,8.544-35.029,3.556-15.144,3.466-22.188,3.34-31.936-.026-1.989-.052-4.045-.052-6.332,0-13.544-11.338-26.159-11.452-26.284l-.053-.059-.007-.078c-.566-6.215,2.008-32,2.034-32.259,1.523-13.861.02-20.9,0-20.972a8.325,8.325,0,0,0-8.86-6.684l-.037,0-.037-.008c-5.853-1.283-6.8-2.33-6.887-2.445-3.4-3.548-1.894-10.714-1.561-12.1l-7.877-2.2-4.542-.919c-.368,4.93-2.813,8.743-4.965,10.223-2,1.375-12.115.33-12.544.284-8.5.354-9.469,9-9.506,9.371-.067.3-6.222,27.052-6.161,33.78.06,6.811-1.776,10.683-1.854,10.844-5.529,7.339-6.2,16.662-6.2,16.755-.056.3-5.2,27.042-5.925,30.182-.8,3.465-1.966,6.6-8.173,9.917-6.118,3.267-8.1,10.34-8.122,10.411-.828,2.371-1.937,6.371-1.408,7.085a.132.132,0,0,0,.136.065,2.084,2.084,0,0,0,1.862-1.367,33.873,33.873,0,0,1,2.523-5.537,12.249,12.249,0,0,1,3.793-3.864l7.042-4.949-.74,1.072c-.132.193-3.261,4.733-4.841,6.434-1.294,1.395-1.13,2.4-1.068,2.636,1,.8,2.739-.7,2.757-.712.049-.052,6.308-6.515,8-8.362,1.56-1.708,1.106-2.741,1.1-2.751l-.024-.05v-.059c0-.027.084-2.7.164-3.754a18.328,18.328,0,0,1,.826-3.231c.077-.2,7.378-18.837,11.643-28.333,2.72-6.056,4.216-11.5,4.21-15.314v-.048a32.462,32.462,0,0,1,.739-4.04c2.417-5.967,7.273-28.367,7.322-28.592Zm40.853,272.152Z" transform="translate(-802.77 -4922.628)"/>
    </g>
    <path id="Trazado_125061" data-name="Trazado 125061" d="M877.758,4965.3c-7.432,0-9.419-7.3-9.44-7.38l.453-.118c.086.331,2.216,8.108,10.683,6.905a5.947,5.947,0,0,0,4.84-3.139c1.764-3.522.111-8.993-1.432-11.812l.41-.225c1.59,2.9,3.285,8.563,1.44,12.248a6.391,6.391,0,0,1-5.193,3.392A12.444,12.444,0,0,1,877.758,4965.3Z" transform="translate(8.474 7.342)"/>
    <path id="Trazado_125062" data-name="Trazado 125062" d="M858.081,4965.168a12.371,12.371,0,0,1-1.762-.129c-8.186-1.163-7.7-9.5-7.44-13.98l.032-.542.466.025-.03.544c-.27,4.634-.722,12.388,7.038,13.49,8.467,1.206,10.6-6.574,10.683-6.905l.453.117C867.5,4957.867,865.511,4965.168,858.081,4965.168Z" transform="translate(5.947 7.47)"/>
    <circle id="Elipse_4121" data-name="Elipse 4121" cx="0.694" cy="0.694" r="0.694" transform="translate(878.358 5001.729)"/>
    <path id="Trazado_125063" data-name="Trazado 125063" d="M895.643,4929.218c-.076-.119-.064-.228-.139-.347a6.383,6.383,0,0,1-.652-1.25,2.29,2.29,0,0,1-.069-1.075c.14-.584.622-1.164.765-1.766a1.889,1.889,0,0,0,.007-.975,3.266,3.266,0,0,0-.592-.971c-.5-.542-1.189-.938-1.772-1.453.885.29,2.047.208,2.857.828a1.784,1.784,0,0,1,.372.592,18.029,18.029,0,0,0,.32,2.04,3.176,3.176,0,0,0,1.589,1.288,4.333,4.333,0,0,0,1.247.383,2.128,2.128,0,0,0,.472-.017l.123.056a.321.321,0,0,0,.351-.1.4.4,0,0,0-.139-.33c-.246-.117-.406-.227-.65-.369a1.3,1.3,0,0,1-.384-.464,1.716,1.716,0,0,1-.192-1.583,8.288,8.288,0,0,0,.189-2.906,2.179,2.179,0,0,0-.573-1.174c-1.242-1.333-3.458-.506-4.95-1.015a1.527,1.527,0,0,1-.8-.605,3.759,3.759,0,0,1-.334-1c-.031-.584.029-1.211,0-1.8a15.107,15.107,0,0,0,.01-2.83,7.792,7.792,0,0,0-.592-1.886,3.29,3.29,0,0,0-1.153-1.375,9.437,9.437,0,0,0-3.143-1.126,3.971,3.971,0,0,1-2.516-1.435,5.615,5.615,0,0,1-.742-2.1c-.424-1.853-.313-3.929-1.006-5.645a9.346,9.346,0,0,0-5.912-5.312,11.61,11.61,0,0,0-5.5-.656,7.954,7.954,0,0,0-1.224.277,8.042,8.042,0,0,0-1.074.506l-.006.007a1.533,1.533,0,0,0-.152-.132l0-.035c0-.034.006-.06-.081-.051l-.041.01a.177.177,0,0,0-.184.008c-.012.011-.012.028-.02.042a17.877,17.877,0,0,0-4.269,1.558,8.3,8.3,0,0,0-2.507,2.1,15.708,15.708,0,0,0-1.115,1.845,9.56,9.56,0,0,0-.953,1.938,11.188,11.188,0,0,1-.742,1.52,3.214,3.214,0,0,1-.67.749c-1.389,1.126-3.532,1.189-5.072,2.1a4.391,4.391,0,0,0-1.807,1.924,3.831,3.831,0,0,0-.216,1.374c.112,1.533,1.333,3.093.589,4.622a3.151,3.151,0,0,1-.767.877c-.548.367-1.255.617-1.712.933a4.442,4.442,0,0,0-1.583,1.364,4.369,4.369,0,0,0-.949,1.894,1.4,1.4,0,0,0,.157,1.05c.5,1,2.173,1.445,1.946,2.945-.178,1.891-2.5,1.988-3.378,3.17a1.969,1.969,0,0,0-.456,1.214c-.007.068.072.135.158.144s.09-.06.1-.136v.016c.084.017.086-.009.175-.043a3.194,3.194,0,0,1,.3-.459,2.011,2.011,0,0,1,.639-.428c.706-.223,1.555-.169,2.261-.393a3.437,3.437,0,0,0,.718-.368,4.206,4.206,0,0,0,.758-.767,2.786,2.786,0,0,0,.46-.707c.012,1.429.031,2.758-.025,3.339-.1.2-.121.365-.219.509a1.58,1.58,0,0,1-.382.417c-.1.12-.365.239-.461.35-.182.12-.193.248-.036.382a8.218,8.218,0,0,0,2.27,1.325,1.312,1.312,0,0,0,1.2-.066,7.856,7.856,0,0,0,.575-.638c.2-.339.409-.723.614-1.087l.191-.371.006.051c-.07.578-.265,1.053-.318,1.616a2.152,2.152,0,0,0,.077,1,2.693,2.693,0,0,0,.265.813c.155.168.236.219.323.2.263-.078.461-.35.666-.715.317-.646.491-1.586.7-1.969a3.579,3.579,0,0,0,.308-.552c-.043.45-.262.968-.287,1.23a4.023,4.023,0,0,0,1.11,2.739,4.068,4.068,0,0,0,2.7,1.248.231.231,0,0,0,.276-.206q-.015-.026-.031-.048a.119.119,0,0,0,.123-.105.128.128,0,0,0-.114-.139,2.225,2.225,0,0,1-1.433-1.086,3.77,3.77,0,0,1-.594-1.738c-.093-1.6,1.1-2.954,1.536-4.492a4.377,4.377,0,0,0,.168-1.314c-.009-.215-.028-.433-.047-.652.023.128.038.259.063.386a9.391,9.391,0,0,0,.917,2.96,15.8,15.8,0,0,0,2.982,4.642,6.225,6.225,0,0,0,3.15,1.965,3.551,3.551,0,0,0,1.365.026,11.557,11.557,0,0,0,1.671-.493,11.742,11.742,0,0,0,4.09-2.563,18.314,18.314,0,0,0,2.075-2.506c-.062.16-.124.321-.18.484a7.786,7.786,0,0,0-.383,1.679c-.063.6,0,1.194-.054,1.8a3.552,3.552,0,0,1-.131.707c-.131.425-.239.9-.378,1.345a3.875,3.875,0,0,1-.321.817,6.968,6.968,0,0,1-.457.531l-.2-.011a.19.19,0,0,0-.187.179c-.095.1-.019.2.15.22.025.005.05.01.073.016a.327.327,0,0,0,.211.092,1.1,1.1,0,0,0,.194-.008,5.555,5.555,0,0,0,.871.1,3.633,3.633,0,0,0,.951-.106,14.628,14.628,0,0,0,2.365-.589,2.232,2.232,0,0,0,.918-.667c.093-.077.1-.178.2-.289.025-.262-.027-.61.166-.848.114-.305.228-.6.343-.917a1.011,1.011,0,0,0,.067-.7,9.755,9.755,0,0,0-.107-1.584c.018-.194.037-.39.057-.6a13.483,13.483,0,0,1,1.286-2.854c0,.052,0,.1,0,.154a12.578,12.578,0,0,1-.32,1.577,3.012,3.012,0,0,0-.167.857,14.153,14.153,0,0,1,.076,1.922,20.747,20.747,0,0,1-.3,2.264,4.2,4.2,0,0,0,.073,1.033.751.751,0,0,0,.534.674,2.8,2.8,0,0,0,1.118-.057,8.714,8.714,0,0,0,2.657-.972,2.625,2.625,0,0,0,1.4-1.3c.087-.026.095-.111.019-.212a1.771,1.771,0,0,0-.386-.429c-.07-.17-.224-.355-.291-.55a1.234,1.234,0,0,1-.032-.567,1.22,1.22,0,0,1,.138-.551c.417-.782,1.482-1.2,1.659-2.179a2.428,2.428,0,0,0-.146-1.16c-.273-.736-.817-1.317-1.082-2.137a2.78,2.78,0,0,1-.17-1.82,7.549,7.549,0,0,1,.618-1.292,14.733,14.733,0,0,0,.126,1.567,3.615,3.615,0,0,0,.469,1.378,8.581,8.581,0,0,0,1.548,1.72,4.611,4.611,0,0,1,.442.751,1.293,1.293,0,0,1-.273,1.078,8.038,8.038,0,0,0-.636,1.308,1.4,1.4,0,0,0-.079.831,1.3,1.3,0,0,0,.678.986,2.712,2.712,0,0,0,1.583.433,4.485,4.485,0,0,0,1.862-.7c.726-.445,2.188-1.444,2.193-1.486.09-.052.093-.077.1-.145l.009-.1c0-.042-.08-.058-.082-.032C895.609,4929.574,895.72,4929.3,895.643,4929.218Z" transform="translate(5.571)" fill="#fff" fill-rule="evenodd"/>
    <g id="Grupo_56563" data-name="Grupo 56563" transform="translate(851.431 4892.739)">
      <g id="Grupo_56535" data-name="Grupo 56535" transform="translate(11.878 12.021)">
        <path id="Trazado_125064" data-name="Trazado 125064" d="M858.724,4918.318c-.106-.077-.194-.163-.294-.242a3.476,3.476,0,0,1-.893-1.166,5.721,5.721,0,0,1-.416-2.751,4.718,4.718,0,0,1,.113-.747,2.8,2.8,0,0,1,.236-.665,3.588,3.588,0,0,1,.509-.711c.321-.364.681-.7,1.006-1.051.643-.733,1.215-1.545,1.889-2.234a4.6,4.6,0,0,1,1.4-1.063c1.2-.554,2.577-.479,3.828-.82a5.028,5.028,0,0,0,1-.395,3.409,3.409,0,0,0,.75-.544c.486-.451.9-1.026,1.33-1.493a6.4,6.4,0,0,1,.49-.515.623.623,0,0,1,.316-.191l-.176,1.547a9.885,9.885,0,0,0,.079,2.521,5.44,5.44,0,0,0,.628,1.637,5.074,5.074,0,0,0,1.4,1.434c1.136.805,2.563,1.311,3.5,2.319a1.406,1.406,0,0,1,.356.672c.1.47.058.967.14,1.488a3.35,3.35,0,0,0,.3.924,5.183,5.183,0,0,0,.488.788c.44.585,1.285.932,1.831,1.474a1.094,1.094,0,0,1,.343.611,3.285,3.285,0,0,1-.123,1.495,23.494,23.494,0,0,1-.97,2.3,6.389,6.389,0,0,0-.483,1.775,4.835,4.835,0,0,0,.131,1.828.1.1,0,0,0,.119.077.107.107,0,0,0,.082-.117,4.885,4.885,0,0,1,.09-1.718,6.479,6.479,0,0,1,.565-1.613,22.963,22.963,0,0,0,1.167-2.3,4.009,4.009,0,0,0,.252-1.845,1.916,1.916,0,0,0-.559-1.1c-.506-.525-1.318-.847-1.731-1.406a3.572,3.572,0,0,1-.387-.639,2.366,2.366,0,0,1-.222-.672c-.08-.54-.038-1.06-.148-1.542a2.255,2.255,0,0,0-.57-1.105c-.988-1.048-2.458-1.594-3.652-2.424a4.281,4.281,0,0,1-1.187-1.162,4.84,4.84,0,0,1-.751-1.726,11.67,11.67,0,0,1-.225-1.974,12.355,12.355,0,0,0,.042-1.453c-.039-.29-.174-.44-.329-.443a.816.816,0,0,0-.44.167,5.715,5.715,0,0,0-.66.6c-.392.362-.775.8-1.2,1.175a3.26,3.26,0,0,1-.859.563c-1.225.519-2.6.347-3.888.577a5.356,5.356,0,0,0-1.06.294,5.288,5.288,0,0,0-1.8,1.209c-.7.7-1.237,1.579-1.877,2.354-.352.445-.769.871-1.1,1.348a4.646,4.646,0,0,0-.406.708,4,4,0,0,0-.217.708,6.276,6.276,0,0,0,.633,4.049,2.934,2.934,0,0,0,1.152,1.2,1.881,1.881,0,0,0,.4.127.07.07,0,0,0,.1-.038A.078.078,0,0,0,858.724,4918.318Z" transform="translate(-856.379 -4903.384)" fill-rule="evenodd"/>
      </g>
      <g id="Grupo_56536" data-name="Grupo 56536" transform="translate(23.285 21.142)">
        <path id="Trazado_125065" data-name="Trazado 125065" d="M866.666,4911.554a6.1,6.1,0,0,0-.184.867,1.689,1.689,0,0,0,.027.343c.044.481.088.963.125,1.451.152,1.931.109,3.916.128,5.87,0,1.081.078,2.139.123,3.183a.223.223,0,0,0,.217.236.227.227,0,0,0,.235-.217c.112-.927.265-1.856.343-2.816a36.67,36.67,0,0,0,.081-4.274,12.176,12.176,0,0,0-.411-3.8,4.333,4.333,0,0,0-.532-.874.07.07,0,0,0-.09-.057A.076.076,0,0,0,866.666,4911.554Z" transform="translate(-866.479 -4911.46)" fill-rule="evenodd"/>
      </g>
      <g id="Grupo_56537" data-name="Grupo 56537" transform="translate(16.271 26.843)">
        <path id="Trazado_125066" data-name="Trazado 125066" d="M861.625,4923.532a3.783,3.783,0,0,1-1.1-1.781c-.562-1.8-.178-4.166.821-4.957a1.216,1.216,0,0,1,1.374-.134,5.646,5.646,0,0,1,1.547,1.649c.053.107.119.236.176.371a6.635,6.635,0,0,1,.943,2.33c.282,1.626-.29,2.927-1.92,3.114a2.134,2.134,0,0,1-.443,0A1.479,1.479,0,0,1,861.625,4923.532Z" transform="translate(-860.269 -4916.509)" fill="#fdd9d9" fill-rule="evenodd"/>
      </g>
      <g id="Grupo_56538" data-name="Grupo 56538" transform="translate(26.652 27.386)">
        <path id="Trazado_125067" data-name="Trazado 125067" d="M870.452,4923.92l-.054-.03a2.1,2.1,0,0,1-.918-1.577,5.849,5.849,0,0,1,.458-2.609,6.029,6.029,0,0,1,1.413-2.173,1.719,1.719,0,0,1,1.67-.473,1.528,1.528,0,0,1,1.049,1.533,6.913,6.913,0,0,1-.526,2.384,4.825,4.825,0,0,1-.019.608c-.147,1.56-1.057,2.829-2.316,2.62A.81.81,0,0,1,870.452,4923.92Zm.789-1.756.007-.012h-.006Z" transform="translate(-869.461 -4916.99)" fill="#fdd9d9" fill-rule="evenodd"/>
      </g>
      <g id="Grupo_56539" data-name="Grupo 56539" transform="translate(23.462 0.652)">
        <path id="Trazado_125068" data-name="Trazado 125068" d="M868.914,4908.245a.787.787,0,0,0,.113-.317c.041-.227.034-.5.076-.667.066-.36.132-.72.18-1.087.072-.553.119-1.107.143-1.65.018-.738.077-1.5.06-2.269a20.7,20.7,0,0,0-.348-3.45,11.332,11.332,0,0,0-1.311-3.668c-.282-.476-.251-1.019-.551-1.446a1.43,1.43,0,0,0-.33-.313.176.176,0,1,0-.272.224l.558,1.851a11.025,11.025,0,0,1,.96,3.5c.134,1.1.137,2.229.18,3.331.036.774.114,1.526.173,2.265l.158,2.674.06.931a.086.086,0,0,0,.034.119A.088.088,0,0,0,868.914,4908.245Z" transform="translate(-866.637 -4893.316)" fill-rule="evenodd"/>
      </g>
      <g id="Grupo_56540" data-name="Grupo 56540" transform="translate(8.665 6.863)">
        <path id="Trazado_125069" data-name="Trazado 125069" d="M870.164,4898.9c-.053.412-.108.8-.177,1.192a5.3,5.3,0,0,1-.311,1.113,4.991,4.991,0,0,1-2.089,2.333,13.828,13.828,0,0,1-4.614,1.716,17.693,17.693,0,0,0-3.251.836,4.929,4.929,0,0,0-1.884,1.376,1.907,1.907,0,0,0-.416,1.072,7.455,7.455,0,0,1-.116,2.187,1.391,1.391,0,0,1-.439.5c-.32.246-.716.44-1.01.625a5.212,5.212,0,0,0-1.74,1.827,3.885,3.885,0,0,0-.549,2.484c.185,1.239,1.4,1.783,2.1,2.691a1.8,1.8,0,0,1,.4,1.148,7.3,7.3,0,0,1-.141,1.5,3.693,3.693,0,0,1-.316.9,14.015,14.015,0,0,1-1,1.248,2.481,2.481,0,0,0-.351.725,5.774,5.774,0,0,0-.14,1.15c0,.384-.009.769.025,1.157.01.163.041.319.058.488a.127.127,0,0,0,.115.139.134.134,0,0,0,.146-.114,4.407,4.407,0,0,0,.129-.554,14.025,14.025,0,0,1,.238-2.116,1.481,1.481,0,0,1,.263-.534,16.685,16.685,0,0,0,1.036-1.309,3.95,3.95,0,0,0,.369-1.057,8.115,8.115,0,0,0,.152-1.617,2.376,2.376,0,0,0-.519-1.506c-.654-.833-1.825-1.284-2-2.418a3.307,3.307,0,0,1,.482-2.12,4.592,4.592,0,0,1,1.541-1.627,10.485,10.485,0,0,0,1.064-.658,2.026,2.026,0,0,0,.613-.719,8.137,8.137,0,0,0,.191-2.358,1.26,1.26,0,0,1,.294-.724,4.265,4.265,0,0,1,1.669-1.153,16.992,16.992,0,0,1,3.148-.691,13.7,13.7,0,0,0,4.877-1.859,5.419,5.419,0,0,0,2.2-2.785,3.985,3.985,0,0,0,.2-1,11.062,11.062,0,0,0-.071-1.484.087.087,0,0,0-.081-.091A.092.092,0,0,0,870.164,4898.9Z" transform="translate(-853.534 -4898.817)" fill-rule="evenodd"/>
      </g>
      <g id="Grupo_56541" data-name="Grupo 56541" transform="translate(10.346 17.161)">
        <path id="Trazado_125070" data-name="Trazado 125070" d="M856.095,4925.845a2.726,2.726,0,0,1,.582-.645,5.93,5.93,0,0,0,.409-.462,2.786,2.786,0,0,0,.4-.6,5.533,5.533,0,0,0,.376-1.113,7.765,7.765,0,0,0,.168-1.719c0-2.158-1.861-3.959-2.351-5.982a3.193,3.193,0,0,1,.936-3.182c.741-.766,1.722-1.366,2.457-2.08l1.6-1.911a.133.133,0,0,0-.2-.173l-1.713,1.752a28.834,28.834,0,0,0-2.886,2.47,3.632,3.632,0,0,0-.768,1.546,3.855,3.855,0,0,0,.025,1.705c.447,1.989,2.279,3.748,2.261,5.854a7.716,7.716,0,0,1-.125,1.323,5.315,5.315,0,0,1-.35,1.258,8.478,8.478,0,0,1-.657,1.042,1.935,1.935,0,0,0-.333.882.079.079,0,0,0,.067.1A.087.087,0,0,0,856.095,4925.845Z" transform="translate(-855.022 -4907.936)" fill-rule="evenodd"/>
      </g>
      <g id="Grupo_56542" data-name="Grupo 56542" transform="translate(12.415 23.774)">
        <path id="Trazado_125071" data-name="Trazado 125071" d="M856.872,4913.88a4.263,4.263,0,0,0,.209,1.734c.253.789.676,1.535.9,2.346a14.725,14.725,0,0,1,.379,1.757,14.092,14.092,0,0,1,.166,1.775c.058,1.638-1.106,3.011-1.485,4.516a3.97,3.97,0,0,0-.112,1.313,4.022,4.022,0,0,0,1.067,2.3,2.269,2.269,0,0,0,1.524.729.123.123,0,0,0,.138-.11.128.128,0,0,0-.114-.139,2.225,2.225,0,0,1-1.433-1.086,3.774,3.774,0,0,1-.594-1.738c-.093-1.6,1.1-2.954,1.535-4.492a4.343,4.343,0,0,0,.169-1.314,14.637,14.637,0,0,0-.2-1.868,16.1,16.1,0,0,0-.438-1.827c-.322-.942-.857-1.8-1.221-2.716a4.183,4.183,0,0,1-.318-1.18.1.1,0,0,0-.088-.091A.084.084,0,0,0,856.872,4913.88Z" transform="translate(-856.854 -4913.792)" fill-rule="evenodd"/>
      </g>
      <g id="Grupo_56543" data-name="Grupo 56543" transform="translate(5.784 4.306)">
        <path id="Trazado_125072" data-name="Trazado 125072" d="M851.633,4928.883l.021-.037c.06-.091.344-.372.44-.5l.6-.894a6.889,6.889,0,0,0,.617-1.624,5.105,5.105,0,0,0,.141-1.7c-.274-2.543-2.181-4.868-2.442-7.276a4.781,4.781,0,0,1,.855-3.343,4.2,4.2,0,0,1,.662-.753c.888-.822,2.071-1.32,2.8-2.324a2.337,2.337,0,0,0,.352-.732c.206-.68.185-1.42.374-2.128a3.851,3.851,0,0,1,.751-1.42,4.8,4.8,0,0,1,1.184-1.044c2.033-1.247,4.488-1.612,6.7-2.533a9.94,9.94,0,0,0,1.538-.774,8.61,8.61,0,0,0,2.168-1.67,4.531,4.531,0,0,0,.867-1.569c.138-.45.343-.783.41-1.15a1.241,1.241,0,0,0-.1-.754.071.071,0,0,1,.035-.092.073.073,0,0,1,.094.034,1.431,1.431,0,0,1,.171.839c-.042.375-.217.737-.318,1.2a4.551,4.551,0,0,1-1.075,2.2,10.159,10.159,0,0,1-1.885,1.53,9.675,9.675,0,0,1-1.613.888c-2.164.946-4.606,1.242-6.616,2.472a3.9,3.9,0,0,0-1.009.88,3.151,3.151,0,0,0-.617,1.148c-.2.714-.183,1.46-.388,2.148a3.01,3.01,0,0,1-.462.938c-.766,1.04-1.977,1.567-2.906,2.411a3.786,3.786,0,0,0-.567.634,4.166,4.166,0,0,0-.769,2.9c.248,2.406,2.134,4.743,2.39,7.284a5.3,5.3,0,0,1-.173,1.9,7.213,7.213,0,0,1-.742,1.734,4.156,4.156,0,0,1-.337.495,4.3,4.3,0,0,1-.419.429c-.119.093-.41.257-.533.342a.069.069,0,0,1-.043.041c-.254.175-.286.108-.214-.033C851.569,4928.94,851.585,4928.91,851.633,4928.883Z" transform="translate(-850.983 -4896.552)" fill-rule="evenodd"/>
      </g>
      <g id="Grupo_56544" data-name="Grupo 56544" transform="translate(7.254 3.252)">
        <path id="Trazado_125073" data-name="Trazado 125073" d="M869.763,4895.681c.01-.05.019-.069.044-.06a.05.05,0,0,1,.008.052.038.038,0,0,1-.052.008h0l-.009.024a2.949,2.949,0,0,1,.316.86,2.056,2.056,0,0,1-.125,1.054,5.134,5.134,0,0,1-1.023,1.521,6.449,6.449,0,0,1-1.422,1.111,11.5,11.5,0,0,1-1.466.7c-1.136.458-2.309.79-3.43,1.288-.832.377-1.59.916-2.384,1.367a8.812,8.812,0,0,1-1.124.542,17.7,17.7,0,0,0-3.685,1.684,6.1,6.1,0,0,0-1.826,1.862,3.106,3.106,0,0,0-.378.941c-.219.955-.131,2.063-.265,3.077a4.826,4.826,0,0,1-.364,1.34.156.156,0,0,1-.2.091.152.152,0,0,1-.091-.188,6,6,0,0,0,.156-1.508c.023-.781.009-1.6.1-2.36a4.045,4.045,0,0,1,.533-1.7,6.813,6.813,0,0,1,1.982-2.068,18.6,18.6,0,0,1,3.791-1.793,7.325,7.325,0,0,0,1.031-.507,28.117,28.117,0,0,1,2.432-1.414c1.115-.519,2.3-.862,3.434-1.34a10.952,10.952,0,0,0,1.368-.667,6.062,6.062,0,0,0,1.243-1,4.573,4.573,0,0,0,.923-1.268,4.691,4.691,0,0,0,.112-.779,1.887,1.887,0,0,1,.158-.519c.056-.116.134-.129.169-.221.01-.045.019-.076.029-.108C869.743,4895.686,869.744,4895.673,869.763,4895.681Z" transform="translate(-852.284 -4895.619)" fill-rule="evenodd"/>
      </g>
      <g id="Grupo_56545" data-name="Grupo 56545" transform="translate(13.467 2.389)">
        <path id="Trazado_125074" data-name="Trazado 125074" d="M857.893,4903.623a2.85,2.85,0,0,0,.975-.461c.46-.309.9-.7,1.247-.961a14.418,14.418,0,0,0,1.161-1.008c1.436-1.406,2.645-3.039,4.2-4.305a9.223,9.223,0,0,1,1.883-1.241,2.977,2.977,0,0,1,1.38-.39.2.2,0,0,0,.216-.18.2.2,0,0,0-.18-.208,3.463,3.463,0,0,0-1.623.315,9.544,9.544,0,0,0-2.1,1.2,11.556,11.556,0,0,0-1.145,1.034c-1.407,1.429-2.554,3.112-4.086,4.431a17.724,17.724,0,0,1-1.331,1.237,2.258,2.258,0,0,1-.645.37.085.085,0,1,0,.043.165Z" transform="translate(-857.786 -4894.854)" fill-rule="evenodd"/>
      </g>
      <g id="Grupo_56546" data-name="Grupo 56546" transform="translate(28.927 32.64)">
        <path id="Trazado_125075" data-name="Trazado 125075" d="M875.626,4921.757a1.114,1.114,0,0,1-.027.421c-.046.214-.15.436-.219.687a6.158,6.158,0,0,0-.228,1.121,3.165,3.165,0,0,0,.03.761,10.53,10.53,0,0,1,.486,2.621,7.7,7.7,0,0,1-.242,1.261,6.453,6.453,0,0,1-.466,1.2,3.388,3.388,0,0,1-1.083,1.208,4.483,4.483,0,0,1-1.532.78,3.884,3.884,0,0,1-.524.175c-.123.021-.246.021-.295-.067-.01-.026.242-.118.469-.276a2.147,2.147,0,0,0,.455-.4,3.357,3.357,0,0,0,.344-.649c.2-.507.32-1.074.481-1.566a3.547,3.547,0,0,0,.166-.8c.056-.6,0-1.189.067-1.792a8.514,8.514,0,0,1,.253-1.184c.255-.939.62-1.874.88-2.788a.153.153,0,0,0-.1-.2.156.156,0,0,0-.2.1c-.278.77-.647,1.544-.921,2.341a7.786,7.786,0,0,0-.383,1.679c-.063.6,0,1.194-.055,1.8a3.471,3.471,0,0,1-.13.707c-.131.425-.239.9-.378,1.345a3.875,3.875,0,0,1-.321.817c-.041.093-.387.426-.557.654-.088.121-.123.22-.112.234a.278.278,0,0,0,.256.14,3.278,3.278,0,0,0,.638-.088,4.107,4.107,0,0,0,1.8-.518,3.492,3.492,0,0,0,1.337-1.376,7.028,7.028,0,0,0,.534-1.292,8.456,8.456,0,0,0,.283-1.368,2.953,2.953,0,0,0-.017-.778,14.762,14.762,0,0,1-.573-2.643c.009-.295.116-.7.161-1.1a2.454,2.454,0,0,0-.1-1.218.078.078,0,0,0-.1-.055A.1.1,0,0,0,875.626,4921.757Z" transform="translate(-871.476 -4921.643)" fill-rule="evenodd"/>
      </g>
      <g id="Grupo_56547" data-name="Grupo 56547" transform="translate(25.564 10.419)">
        <path id="Trazado_125076" data-name="Trazado 125076" d="M879.3,4925.562c.066-.36.2-.694.287-1.065a6.145,6.145,0,0,0,.167-1.7c-.06-.866-.377-1.725-.51-2.559a3.557,3.557,0,0,1-.053-.59c-.019-1.164.753-2.267.777-3.4a2.63,2.63,0,0,0-.521-1.623,3.268,3.268,0,0,0-.7-.734c-.975-.76-2.248-.88-3.047-1.874-1.241-1.557-1.485-3.6-2.353-5.284a6.185,6.185,0,0,0-.862-1.282c-.581-.646-2.251-1.266-3.091-2.161a2.047,2.047,0,0,1-.37-.568,1.352,1.352,0,0,1-.2-.706c.008-.019-.01-.039-.028-.047s-.038,0-.047.027a1.227,1.227,0,0,0-.23.877,1.669,1.669,0,0,0,.457.8c.8.917,2.454,1.562,3.015,2.212a6.045,6.045,0,0,1,.766,1.15c.883,1.735,1.136,3.813,2.4,5.411.827,1.047,2.134,1.2,3.151,2a2.745,2.745,0,0,1,.561.586,1.94,1.94,0,0,1,.388,1.2c-.025,1.147-.8,2.256-.779,3.426a3.5,3.5,0,0,0,.062.693c.129.815.442,1.647.5,2.495a17.91,17.91,0,0,1-.034,1.86,4.522,4.522,0,0,0,.112.852.094.094,0,0,0,.088.091A.1.1,0,0,0,879.3,4925.562Z" transform="translate(-868.498 -4901.965)" fill-rule="evenodd"/>
      </g>
      <g id="Grupo_56548" data-name="Grupo 56548" transform="translate(25.999 8.037)">
        <path id="Trazado_125077" data-name="Trazado 125077" d="M869.113,4900.027c.037.087.122.276.132.3l.355.8a5.2,5.2,0,0,0,.935,1.456,3.155,3.155,0,0,0,.846.71c.912.464,1.843.951,2.783,1.406.62.3,1.248.593,1.886.852a8.691,8.691,0,0,1,2.445,1.375,3.324,3.324,0,0,1,1.05,1.674c.325,1.308.435,2.667.664,3.986a12.564,12.564,0,0,0,.378,1.636c.464,1.476,1.5,2.57,1.994,3.914a4.473,4.473,0,0,1,.273,2c-.267,3.032-1.916,6.152-2.175,9.236a8.453,8.453,0,0,0,.333,3.134c.079.251.138.508.236.768a.066.066,0,0,1-.028.094.065.065,0,0,1-.094-.028,5.286,5.286,0,0,1-.427-.714,6.8,6.8,0,0,1-.506-3.286c.164-3.086,1.827-6.224,2.062-9.253a3.965,3.965,0,0,0-.254-1.732c-.508-1.352-1.561-2.447-2.044-3.931a12.422,12.422,0,0,1-.416-1.715c-.23-1.306-.329-2.646-.651-3.935a2.693,2.693,0,0,0-.842-1.345,7.962,7.962,0,0,0-2.259-1.254c-.641-.273-1.282-.571-1.913-.88-.94-.468-1.869-.967-2.787-1.445a3.647,3.647,0,0,1-1.223-1.117,4.983,4.983,0,0,1-.713-1.442l-.222-.844a3.135,3.135,0,0,1-.049-.435c.01-.114.072-.153.116-.149a.115.115,0,0,1,.1.073A.09.09,0,0,1,869.113,4900.027Zm-.035.037a.109.109,0,0,1-.077,0C869.043,4900.092,869.064,4900.081,869.078,4900.064Z" transform="translate(-868.884 -4899.856)" fill-rule="evenodd"/>
      </g>
      <g id="Grupo_56549" data-name="Grupo 56549" transform="translate(24.809 5.201)">
        <path id="Trazado_125078" data-name="Trazado 125078" d="M884.2,4922.118a.852.852,0,0,0,.045-.073c.133-.245.359-.873.408-.983a4.481,4.481,0,0,0,.5-1.539,6.689,6.689,0,0,0,.04-1.634,3.331,3.331,0,0,0-.48-1.517c-.695-1.157-1.879-1.937-2.547-3.233a14.269,14.269,0,0,1-.714-1.693,26.463,26.463,0,0,1-.754-2.621c-.12-.513-.189-1.071-.325-1.6a3.354,3.354,0,0,0-.375-.916,13.668,13.668,0,0,0-.919-1.352,3.48,3.48,0,0,0-.731-.705,4.466,4.466,0,0,0-1.081-.519c-1.637-.56-3.488-.407-5.013-1.264a6.807,6.807,0,0,1-.836-.541c-.384-.288-.753-.6-1.129-.9a10.738,10.738,0,0,1-1.927-1.839,1.945,1.945,0,0,1-.455-1.771.113.113,0,0,1,.142-.076.119.119,0,0,1,.07.141c-.1.459.227.92.638,1.39a14.858,14.858,0,0,0,1.9,1.694c.37.292.74.6,1.118.876a7.494,7.494,0,0,0,.769.5c1.5.829,3.317.661,4.929,1.192a5.143,5.143,0,0,1,1.229.591,4.035,4.035,0,0,1,.873.827,14.538,14.538,0,0,1,.972,1.4,3.516,3.516,0,0,1,.372.825c.2.609.278,1.284.419,1.889.16.677.355,1.414.6,2.137a14.16,14.16,0,0,0,.823,2.024c.662,1.29,1.842,2.056,2.524,3.2a3.884,3.884,0,0,1,.575,1.808,6.56,6.56,0,0,1-.124,1.793,4.72,4.72,0,0,1-.72,1.646c-.075.1-.471.624-.62.847a.232.232,0,0,1-.185.124.085.085,0,0,1-.02-.124C884.182,4922.124,884.189,4922.124,884.2,4922.118Z" transform="translate(-867.829 -4897.345)" fill-rule="evenodd"/>
      </g>
      <g id="Grupo_56550" data-name="Grupo 56550" transform="translate(24.744 3.254)">
        <path id="Trazado_125079" data-name="Trazado 125079" d="M867.871,4895.666c-.243.388-.015.9.4,1.373a6.376,6.376,0,0,0,1.706,1.312,12.108,12.108,0,0,0,2.065.721,42,42,0,0,1,4.785,1.223,6.391,6.391,0,0,1,2.413,1.583,6.548,6.548,0,0,1,1.319,2.417c.7,2.154.859,4.713,1.688,6.615a5.755,5.755,0,0,0,.875,1.4c1.31,1.575,3.348,2.571,4.3,4.44a5.017,5.017,0,0,1,.522,2.227c.033,1.9-.684,3.782-.357,5.748.23,1.305.786,2.5,1.082,3.717a4.867,4.867,0,0,1,.036,2.477.078.078,0,0,0,.049.095.076.076,0,0,0,.095-.05,4.5,4.5,0,0,0,.293-1.943c-.1-1.461-.8-2.852-1.006-4.379-.278-1.954.513-3.8.491-5.677a5.508,5.508,0,0,0-.617-2.517c-.995-1.906-3.077-2.918-4.435-4.524a5.1,5.1,0,0,1-.794-1.25c-.811-1.889-.95-4.432-1.635-6.565a7.021,7.021,0,0,0-1.436-2.666,6.949,6.949,0,0,0-2.64-1.765,32.62,32.62,0,0,0-4.872-1.263,14.037,14.037,0,0,1-2.008-.569,6.183,6.183,0,0,1-1.668-1.049c-.372-.345-.652-.711-.5-1.044a.087.087,0,0,0-.034-.119A.086.086,0,0,0,867.871,4895.666Z" transform="translate(-867.772 -4895.621)" fill-rule="evenodd"/>
      </g>
      <g id="Grupo_56551" data-name="Grupo 56551" transform="translate(38.529 13.352)">
        <path id="Trazado_125080" data-name="Trazado 125080" d="M888.188,4919.822a3.079,3.079,0,0,0-.015-1c-.123-.737-.432-1.536-.539-2.183-.3-1.447-.112-2.766-.379-4.011a4.577,4.577,0,0,0-1.374-2.456,4.137,4.137,0,0,0-.737-.551c-.567-.329-1.215-.6-1.739-.974a8.259,8.259,0,0,1-1.43-1.445,19.113,19.113,0,0,1-1.786-2.576.111.111,0,1,0-.2.1,16.484,16.484,0,0,0,1.282,2.343,8.463,8.463,0,0,0,1.828,2c.528.39,1.189.671,1.76,1.02a3.182,3.182,0,0,1,.641.479,4.155,4.155,0,0,1,1.207,2.176c.262,1.245.1,2.559.412,4.009.164.638.521,1.417.735,2.143a3.131,3.131,0,0,1,.158.915.093.093,0,0,0,.073.1A.086.086,0,0,0,888.188,4919.822Z" transform="translate(-879.979 -4904.563)" fill-rule="evenodd"/>
      </g>
      <g id="Grupo_56552" data-name="Grupo 56552" transform="translate(24.556 1.081)">
        <path id="Trazado_125081" data-name="Trazado 125081" d="M880.646,4903.215a2.227,2.227,0,0,0-.289-.952c-.346-.688-.931-1.438-1.191-1.873a13.3,13.3,0,0,0-1.744-2.272,8.248,8.248,0,0,0-2.33-1.722c-1.56-.7-3.684-.785-5.39-1.415a4.086,4.086,0,0,1-1.887-1.238.12.12,0,0,0-.158-.028.108.108,0,0,0-.028.158,4.094,4.094,0,0,0,1.881,1.572c1.645.739,3.786.781,5.323,1.511a7.9,7.9,0,0,1,2.191,1.562,14.239,14.239,0,0,1,1.738,2.13c.295.412.929,1.114,1.344,1.758a2.217,2.217,0,0,1,.367.811.082.082,0,0,0,.087.086A.09.09,0,0,0,880.646,4903.215Z" transform="translate(-867.606 -4893.696)" fill-rule="evenodd"/>
      </g>
      <g id="Grupo_56553" data-name="Grupo 56553" transform="translate(14.338 17.838)">
        <path id="Trazado_125082" data-name="Trazado 125082" d="M859.155,4908.6a7.864,7.864,0,0,0-.3,1.382l-.2,2.094c-.165,1.746-.075,3.5-.069,5.262a26.956,26.956,0,0,0,.426,4.546,9.391,9.391,0,0,0,.917,2.96,15.8,15.8,0,0,0,2.982,4.642,6.232,6.232,0,0,0,3.15,1.965,3.57,3.57,0,0,0,1.365.026,11.557,11.557,0,0,0,1.671-.493,11.752,11.752,0,0,0,4.09-2.563,19.825,19.825,0,0,0,2.925-3.8c.538-1.165,1.077-2.362,1.536-3.585a29.3,29.3,0,0,0,1.119-3.707c.006-.068.011-.128-.071-.152s-.173.018-.18.086a28.932,28.932,0,0,1-1.363,3.574,26.83,26.83,0,0,1-1.854,3.339,17.723,17.723,0,0,1-2.733,3.582,10.945,10.945,0,0,1-3.737,2.435,11.692,11.692,0,0,1-1.584.484,2.377,2.377,0,0,1-.94,0,5.6,5.6,0,0,1-2.825-1.772,15.922,15.922,0,0,1-2.746-4.432,15.224,15.224,0,0,1-.937-2.756,25.143,25.143,0,0,1-.439-4.4c-.061-1.16-.122-2.32-.1-3.473a17.069,17.069,0,0,1,.026-2.083c.012-1.043-.06-2.084.038-3.127,0-.042-.077-.093-.077-.093C859.163,4908.528,859.16,4908.562,859.155,4908.6Z" transform="translate(-858.558 -4908.535)" fill-rule="evenodd"/>
      </g>
      <g id="Grupo_56554" data-name="Grupo 56554" transform="translate(0 0.669)">
        <path id="Trazado_125083" data-name="Trazado 125083" d="M869.607,4893.333a18.259,18.259,0,0,0-4.514,1.618,8.3,8.3,0,0,0-2.507,2.1,15.708,15.708,0,0,0-1.115,1.845,9.56,9.56,0,0,0-.953,1.938,11.188,11.188,0,0,1-.742,1.52,3.214,3.214,0,0,1-.67.749c-1.389,1.126-3.532,1.189-5.072,2.1a4.384,4.384,0,0,0-1.807,1.924,3.831,3.831,0,0,0-.216,1.374c.112,1.533,1.333,3.093.589,4.622a3.151,3.151,0,0,1-.767.877c-.548.367-1.255.617-1.712.933a4.442,4.442,0,0,0-1.583,1.364,4.369,4.369,0,0,0-.949,1.894,1.4,1.4,0,0,0,.157,1.05c.5,1,2.173,1.445,1.946,2.945-.178,1.891-2.5,1.988-3.378,3.17a1.969,1.969,0,0,0-.456,1.214c-.007.068.072.135.157.144s.091-.06.1-.137c.178-1.881,2.405-1.928,3.46-3.136a2.7,2.7,0,0,0,.456-1.214,1.86,1.86,0,0,0-.075-1.016,5.528,5.528,0,0,0-1.316-1.458c-.475-.4-.863-.826-.715-1.487a4.7,4.7,0,0,1,.848-1.741,5.011,5.011,0,0,1,1.488-1.271c.542-.307,1.165-.565,1.713-.933a2.414,2.414,0,0,0,1.033-.988,2.3,2.3,0,0,0,.291-1.273,8.171,8.171,0,0,0-.367-2.454,3.059,3.059,0,0,1,.03-2.127,3.748,3.748,0,0,1,1.512-1.525c1.541-.932,3.692-1.062,5.169-2.213a3.073,3.073,0,0,0,.863-.988c.22-.517.444-1.086.666-1.622a24.656,24.656,0,0,1,1.068-2.268c.3-.492.605-.96.9-1.41a7.531,7.531,0,0,1,2.245-2.046,17.147,17.147,0,0,1,4.287-1.921l.01-.1C869.691,4893.35,869.694,4893.324,869.607,4893.333Z" transform="translate(-845.861 -4893.331)" fill-rule="evenodd"/>
      </g>
      <g id="Grupo_56555" data-name="Grupo 56555" transform="translate(0.254 25.939)">
        <path id="Trazado_125084" data-name="Trazado 125084" d="M846.261,4923.658a3.194,3.194,0,0,1,.3-.459,2.01,2.01,0,0,1,.639-.428c.706-.223,1.555-.169,2.261-.393a3.434,3.434,0,0,0,.718-.368,4.237,4.237,0,0,0,.758-.767,3.435,3.435,0,0,0,.749-1.6,7.683,7.683,0,0,0,.016-1.973,3.442,3.442,0,0,1,.258-1.832.1.1,0,0,0-.073-.127c0-.016-.086,0-.089.043a3.264,3.264,0,0,0-.523,1.917,14.06,14.06,0,0,1-.093,1.881,2.5,2.5,0,0,1-.641,1.358c-.193.238-.473.486-.663.69a2.322,2.322,0,0,1-.542.291c-.792.241-1.641.187-2.266.461a1.927,1.927,0,0,0-.829.623,1.489,1.489,0,0,0-.143.628l-.009.093C846.17,4923.718,846.172,4923.692,846.261,4923.658Z" transform="translate(-846.086 -4915.708)" fill-rule="evenodd"/>
      </g>
      <g id="Grupo_56556" data-name="Grupo 56556" transform="translate(4.332 25.949)">
        <path id="Trazado_125085" data-name="Trazado 125085" d="M854.678,4924.658l-.21.408c-.206.365-.412.748-.615,1.087a7.653,7.653,0,0,1-.574.638,1.316,1.316,0,0,1-1.2.066,8.218,8.218,0,0,1-2.27-1.325c-.157-.135-.146-.263.036-.382.1-.11.365-.23.461-.35a1.58,1.58,0,0,0,.382-.417c.1-.144.115-.314.219-.509.085-.9,0-3.575.021-5.66a8.684,8.684,0,0,1,.294-2.2.281.281,0,0,1,.107-.238c0-.042.007-.068.091-.051,0,.007.079.058.076.1l-.025.254c-.049.526-.128,1.356-.132,2.3.05,1.287,0,2.754-.025,3.9a13.771,13.771,0,0,1-.072,1.661,1.592,1.592,0,0,1-.23.637,2.174,2.174,0,0,1-.474.493c-.008.085-.2.255-.372.307a8.371,8.371,0,0,0,1.7,1.041c.493.217.91.333,1.186.121a7.288,7.288,0,0,0,.566-.554,5.436,5.436,0,0,0,.527-1.062l.4-.587a.934.934,0,0,0,.2-.314c.176-.052.263-.068.243.151a18.137,18.137,0,0,1-.381,2.212,3.817,3.817,0,0,0,.086.906c-.007.068.456.6.355.777a.992.992,0,0,0,.393-.536,12.673,12.673,0,0,0,.613-1.977,3.749,3.749,0,0,0,.61-1.029.269.269,0,0,1,.352-.1.73.73,0,0,1,.125.482,11.114,11.114,0,0,0-.309,1.467,3.825,3.825,0,0,0,3.427,3.548c.086,0,.161.1.235.227a.231.231,0,0,1-.276.206,4.074,4.074,0,0,1-2.7-1.248,4.023,4.023,0,0,1-1.11-2.739c.025-.262.244-.78.287-1.23a3.684,3.684,0,0,1-.308.552c-.208.383-.382,1.324-.7,1.969-.206.365-.4.637-.666.715-.087.018-.168-.033-.323-.2a2.672,2.672,0,0,1-.265-.812,2.152,2.152,0,0,1-.077-1C854.4,4925.77,854.62,4925.277,854.678,4924.658Z" transform="translate(-849.697 -4915.717)" fill-rule="evenodd"/>
      </g>
      <g id="Grupo_56557" data-name="Grupo 56557" transform="translate(23.94)">
        <path id="Trazado_125086" data-name="Trazado 125086" d="M867.175,4893.764a10.745,10.745,0,0,1,1.13-.193c.347-.052.777-.081,1.121-.108a12.562,12.562,0,0,1,5.223.835,8.768,8.768,0,0,1,5.27,4.859c.614,1.649.593,3.682,1.022,5.475a6.924,6.924,0,0,0,.886,2.384,4.921,4.921,0,0,0,3,1.763,8.532,8.532,0,0,1,2.9,1.018,4.133,4.133,0,0,1,.926,1.063,10.971,10.971,0,0,1,.445,1.624,26.261,26.261,0,0,1,0,2.685,7.516,7.516,0,0,0-.014,1.957,3.756,3.756,0,0,0,.558,1.335,2.012,2.012,0,0,0,1.2.857c1.415.417,3.556-.527,4.723.695a2.208,2.208,0,0,1,.287,2.4,7.6,7.6,0,0,0-.185,1.958,1.8,1.8,0,0,0,.479,1.259c.07.177.312.329.471.455a3.54,3.54,0,0,0,.812.461.321.321,0,0,0,.351-.1.4.4,0,0,0-.139-.33c-.246-.117-.406-.227-.65-.369a1.308,1.308,0,0,1-.384-.464,1.716,1.716,0,0,1-.192-1.583,8.292,8.292,0,0,0,.189-2.907,2.179,2.179,0,0,0-.573-1.173c-1.242-1.332-3.458-.507-4.95-1.015a1.527,1.527,0,0,1-.8-.605,3.759,3.759,0,0,1-.334-1c-.031-.584.029-1.211,0-1.8a15.107,15.107,0,0,0,.01-2.83,7.792,7.792,0,0,0-.592-1.886,3.29,3.29,0,0,0-1.153-1.375,9.416,9.416,0,0,0-3.143-1.126,3.971,3.971,0,0,1-2.516-1.435,5.636,5.636,0,0,1-.742-2.1c-.424-1.853-.313-3.93-1.006-5.645a9.346,9.346,0,0,0-5.912-5.312,11.61,11.61,0,0,0-5.5-.656,7.954,7.954,0,0,0-1.224.277,8.042,8.042,0,0,0-1.074.506c0,.017-.09.051-.009.1C867.091,4893.756,867.088,4893.773,867.175,4893.764Z" transform="translate(-867.06 -4892.739)" fill-rule="evenodd"/>
      </g>
      <g id="Grupo_56558" data-name="Grupo 56558" transform="translate(46.335 27.771)">
        <path id="Trazado_125087" data-name="Trazado 125087" d="M894.887,4923.142c-.247-.1-.405-.235-.736-.353a9.14,9.14,0,0,1-1.56-.685,2.23,2.23,0,0,1-.621-.674,17.98,17.98,0,0,1-.326-1.981,2.09,2.09,0,0,0-.605-.836,2.409,2.409,0,0,0-.813-.436,14.006,14.006,0,0,0-1.93-.4,2.546,2.546,0,0,1-1.159-.409c-.079-.059-.166-.059-.172.009a.121.121,0,0,0-.02.212,2.624,2.624,0,0,0,.719.53c.9.393,2.2.234,3.08.905a1.784,1.784,0,0,1,.372.592,18.029,18.029,0,0,0,.32,2.04,3.176,3.176,0,0,0,1.589,1.288,4.333,4.333,0,0,0,1.247.383,3.218,3.218,0,0,0,.6-.029s.088-.026.093-.068S894.886,4923.15,894.887,4923.142Z" transform="translate(-886.891 -4917.331)" fill-rule="evenodd"/>
      </g>
      <g id="Grupo_56559" data-name="Grupo 56559" transform="translate(46.169 27.223)">
        <path id="Trazado_125088" data-name="Trazado 125088" d="M886.774,4916.946l-.031.331a1.962,1.962,0,0,0,.664,1.124c.774.859,1.927,1.319,2.333,2.46a.857.857,0,0,1-.061.644c-.145.611-.626,1.181-.767,1.775a3,3,0,0,0,.178,1.727,2.7,2.7,0,0,0,.663,1.14,2.113,2.113,0,0,0,.323.2.187.187,0,0,0,.28-.248c-.076-.119-.064-.228-.139-.347a6.383,6.383,0,0,1-.652-1.25,2.3,2.3,0,0,1-.069-1.075c.14-.584.622-1.164.765-1.766a1.9,1.9,0,0,0,.007-.975,3.246,3.246,0,0,0-.593-.971c-.775-.843-2.012-1.328-2.589-2.459a.568.568,0,0,1-.138-.347c-.082-.042-.08-.067-.165-.066Z" transform="translate(-886.744 -4916.846)" fill-rule="evenodd"/>
      </g>
      <g id="Grupo_56560" data-name="Grupo 56560" transform="translate(41.873 28.648)">
        <path id="Trazado_125089" data-name="Trazado 125089" d="M890.9,4926.312c-.084-.018-.081-.042-.167-.042s-.175.052-.18.095c-.807.4-1.642,1.084-2.537,1.513a3.236,3.236,0,0,1-1.233.38,2.329,2.329,0,0,1-1.086-.266,1.038,1.038,0,0,1-.618-.708c-.082-.932.842-1.674,1.088-2.463a1.615,1.615,0,0,0-.086-.889,1.871,1.871,0,0,0-.51-.937c-.46-.574-1.11-.934-1.473-1.618a3.234,3.234,0,0,1-.429-.878c-.186-.754-.364-1.592-.552-2.31,0-.052-.077-.094-.078-.077-.086,0-.091.06-.1.11a19.508,19.508,0,0,0,.147,2.076,3.61,3.61,0,0,0,.469,1.378,8.581,8.581,0,0,0,1.548,1.72,4.569,4.569,0,0,1,.442.751,1.292,1.292,0,0,1-.273,1.077,8.092,8.092,0,0,0-.636,1.308,1.4,1.4,0,0,0-.079.831,1.3,1.3,0,0,0,.678.986,2.709,2.709,0,0,0,1.583.434,4.493,4.493,0,0,0,1.862-.705c.726-.445,1.461-.982,2.1-1.385,0-.042.09-.06.095-.1.09-.052.093-.077.1-.145l.009-.1C890.986,4926.3,890.9,4926.285,890.9,4926.312Z" transform="translate(-882.94 -4918.107)" fill-rule="evenodd"/>
      </g>
      <g id="Grupo_56561" data-name="Grupo 56561" transform="translate(35.769 28.745)">
        <path id="Trazado_125090" data-name="Trazado 125090" d="M882.993,4929.583c-.08-.049-.219-.387-.3-.421a2.327,2.327,0,0,1-.358-.735,1.4,1.4,0,0,1-.115-.592,2.06,2.06,0,0,1,.239-.722c.41-.73,1.39-1.143,1.477-2.058a2.842,2.842,0,0,0-.086-.915c-.272-.735-.9-1.308-1.167-2.127a3.1,3.1,0,0,1-.058-2.117,2.658,2.658,0,0,1,.822-1.454.94.94,0,0,1,.362-.223c0-.034.089-.034.086,0,.082.033.078.084-.009.1a.755.755,0,0,1-.2.356,8.215,8.215,0,0,0-.64,1.334,2.78,2.78,0,0,0,.17,1.82c.265.82.809,1.4,1.081,2.137a2.413,2.413,0,0,1,.147,1.16c-.177.976-1.243,1.4-1.659,2.179a1.22,1.22,0,0,0-.138.551,1.234,1.234,0,0,0,.032.567c.068.195.221.38.291.55a1.771,1.771,0,0,1,.386.429c.076.1.068.187-.019.212a2.623,2.623,0,0,1-1.406,1.3,8.693,8.693,0,0,1-2.657.972,2.79,2.79,0,0,1-1.117.057.749.749,0,0,1-.534-.674,4.251,4.251,0,0,1-.074-1.033,20.485,20.485,0,0,0,.3-2.264,14.353,14.353,0,0,0-.076-1.922,3.012,3.012,0,0,1,.167-.857,12.578,12.578,0,0,0,.32-1.577,2.548,2.548,0,0,0-.159-1.042c.006-.06.011-.119.1-.136,0-.025.085.008.079.059a2.005,2.005,0,0,1,.237,1.117,5.789,5.789,0,0,1-.243,1.662l-.073.779c.025.644.137,1.28.158,1.948a20.341,20.341,0,0,0-.3,2.272,3.2,3.2,0,0,0,0,.905c.067.2.143.288.226.321a2.566,2.566,0,0,0,.946-.056,10.337,10.337,0,0,0,2.48-.912A3.367,3.367,0,0,0,882.993,4929.583Z" transform="translate(-877.535 -4918.193)" fill-rule="evenodd"/>
      </g>
      <g id="Grupo_56562" data-name="Grupo 56562" transform="translate(28.71 33.158)">
        <path id="Trazado_125091" data-name="Trazado 125091" d="M879.068,4922.149c-.093.077-.1.137-.192.221-.408.7-.818,1.42-1.229,2.15a5.593,5.593,0,0,0-.453,1.17l-.07.747c.035.526.159,1.025.194,1.567l-.052.55c-.114.289-.225.561-.337.841l-.269,1.034a1.747,1.747,0,0,1-1,.582c-.7.191-1.478.262-2,.384a5.514,5.514,0,0,1-1.039.133c-.429.01-.77.012-1.111-.012a.19.19,0,0,0-.187.179c-.095.1-.019.2.15.22a6.3,6.3,0,0,0,1.35.2,3.632,3.632,0,0,0,.951-.106,14.629,14.629,0,0,0,2.365-.589,2.233,2.233,0,0,0,.918-.667c.093-.077.1-.178.2-.289.025-.262-.027-.61.166-.848.114-.305.228-.6.343-.917a1.011,1.011,0,0,0,.067-.7,9.761,9.761,0,0,0-.107-1.584l.057-.6c.2-1.169,1.051-2.072,1.413-3.184l.039-.415c0-.042.008-.084-.076-.1C879.16,4922.089,879.071,4922.115,879.068,4922.149Z" transform="translate(-871.284 -4922.101)" fill-rule="evenodd"/>
      </g>
    </g>
    <path id="Trazado_125092" data-name="Trazado 125092" d="M879.894,5100.391l-.374-.282c2.677-3.544,1.915-10.5,1.907-10.573l.464-.053C881.925,5089.775,882.684,5096.7,879.894,5100.391Z" transform="translate(9.922 25.435)"/>
    <path id="Trazado_125093" data-name="Trazado 125093" d="M876.014,5100.636c-.2-.154-4.848-3.818-5.064-8.993l.468-.02c.206,4.961,4.836,8.606,4.883,8.642Z" transform="translate(8.814 25.712)"/>
    <path id="Trazado_125094" data-name="Trazado 125094" d="M850.1,5094.481a29.323,29.323,0,0,1-.573-8.463l.463.066a29.518,29.518,0,0,0,.566,8.3Z" transform="translate(6.027 24.988)"/>
    <path id="Trazado_125095" data-name="Trazado 125095" d="M851.346,5104.237l-.452-.12c.042-.157,1.089-3.914,7.079-10.351a12,12,0,0,0,2.619-3.829l.434.173a12.232,12.232,0,0,1-2.722,3.987C852.42,5100.42,851.356,5104.2,851.346,5104.237Z" transform="translate(6.221 25.494)"/>
    <path id="Trazado_125096" data-name="Trazado 125096" d="M837.987,5203.543c-.094-.03-9.547-3-17.577-1.023l-.112-.455c8.159-2.006,17.735,1,17.831,1.031Z" transform="translate(2.266 39.9)"/>
    <path id="Trazado_125097" data-name="Trazado 125097" d="M838.749,5201.048c-.095-.03-9.55-3-17.577-1.023l-.112-.453c8.157-2.008,17.735,1,17.831,1.03Z" transform="translate(2.364 39.578)"/>
    <path id="Trazado_125098" data-name="Trazado 125098" d="M879.617,5198.34c-.082-.025-8.377-2.455-16.407-.48l-.112-.454c8.156-2.007,16.569.461,16.653.486Z" transform="translate(7.799 39.286)"/>
    <path id="Trazado_125099" data-name="Trazado 125099" d="M882.366,5196.7c-.106-.033-10.763-3.167-18.794-1.193l-.112-.454c8.155-2.006,18.931,1.166,19.04,1.2Z" transform="translate(7.846 38.998)"/>
    <path id="Trazado_125100" data-name="Trazado 125100" d="M865.661,4941.114c-2.288-2.941-4.08-13.073-4.155-13.5l.46-.081c.019.1,1.848,10.448,4.064,13.3Z" transform="translate(7.593 4.498)"/>
    <path id="Trazado_125101" data-name="Trazado 125101" d="M866.63,4941l-.369-.287c2.228-2.864,5.419-12.23,5.451-12.324l.443.15C872.024,4928.931,868.907,4938.076,866.63,4941Z" transform="translate(8.208 4.61)"/>
    <path id="Trazado_125102" data-name="Trazado 125102" d="M867.493,4941.055c-.513-1.83-3.963-1.7-4-1.7-6.9-.122-12.963-5.607-13.024-5.663l.316-.345c.06.055,6,5.422,12.7,5.54.142-.008,3.838-.146,4.452,2.042Z" transform="translate(6.167 5.25)"/>
    <path id="Trazado_125103" data-name="Trazado 125103" d="M868.167,4941.15l-.275-.378c1.558-1.131,6.3-.712,6.5-.694,6.536.945,8.73-1.433,8.752-1.457l.352.309c-.094.106-2.356,2.593-9.16,1.612C874.3,4940.538,869.584,4940.121,868.167,4941.15Z" transform="translate(8.419 5.932)"/>
    <path id="Trazado_125104" data-name="Trazado 125104" d="M875.576,5001.854q-.617,0-1.258-.016a201.632,201.632,0,0,1-23.175-2.009l.072-.462a201.114,201.114,0,0,0,23.114,2c12.073.306,17.613-3.934,17.668-3.978l.29.368C892.068,4997.934,886.961,5001.854,875.576,5001.854Z" transform="translate(6.254 13.53)"/>
    <path id="Trazado_125105" data-name="Trazado 125105" d="M874.308,5019.012c-6.95-9.466-24.8-14.508-24.977-14.559l.125-.449c.181.049,18.185,5.136,25.229,14.731Z" transform="translate(6.019 14.384)"/>
    <path id="Trazado_125106" data-name="Trazado 125106" d="M874.281,5019.492l-.387-.262c9.354-13.819,18.861-17.083,18.955-17.115l.148.443C892.9,5002.59,883.538,5005.818,874.281,5019.492Z" transform="translate(9.195 14.14)"/>
    <path id="Trazado_125107" data-name="Trazado 125107" d="M889.48,4999.677c-.071-.081-7.1-8.14-9.207-10.43-2.178-2.365-1.9-7.229-1.891-7.434l1.038-17.879.466.028-1.038,17.879c0,.048-.273,4.872,1.77,7.089,2.114,2.295,9.144,10.358,9.215,10.439Z" transform="translate(9.773 9.205)"/>
    <g id="Grupo_56570" data-name="Grupo 56570" transform="translate(827.306 4952.305)">
      <g id="Grupo_56565" data-name="Grupo 56565" transform="translate(15.733 55.861)">
        <path id="Trazado_125108" data-name="Trazado 125108" d="M877.327,5016.135a49.644,49.644,0,0,1-20.2-4.091c-12.431-5.482-18.223-14.4-18.464-14.775a1.507,1.507,0,0,1,2.54-1.622h0a41.737,41.737,0,0,0,17.289,13.706c15.44,6.741,34.6,4.422,55.411-6.707a1.506,1.506,0,0,1,1.419,2.656C900.214,5013.384,887.554,5016.135,877.327,5016.135Z" transform="translate(-838.429 -4994.952)" fill="#5c9bcf"/>
        <g id="Grupo_56564" data-name="Grupo 56564" transform="translate(60.82 2.496)">
          <path id="Trazado_125109" data-name="Trazado 125109" d="M904.315,5019.107l-2.833-1.03,5.095-13.953-14.29-4.062.827-2.9,17.4,4.951Z" transform="translate(-892.286 -4997.162)" fill="#5c9bcf"/>
        </g>
      </g>
      <g id="Grupo_56567" data-name="Grupo 56567">
        <path id="Trazado_125110" data-name="Trazado 125110" d="M901.887,4969.555a1.506,1.506,0,0,1-1.27-.694h0a41.744,41.744,0,0,0-17.29-13.707c-15.439-6.742-34.6-4.423-55.411,6.707a1.506,1.506,0,1,1-1.421-2.656c27.451-14.683,46.8-11.771,58.2-6.742,12.432,5.483,18.223,14.4,18.464,14.776a1.506,1.506,0,0,1-1.268,2.316Z" transform="translate(-824.342 -4945.112)" fill="#5c9bcf"/>
        <g id="Grupo_56566" data-name="Grupo 56566">
          <path id="Trazado_125111" data-name="Trazado 125111" d="M830.7,4945.486l2.833,1.031-5.095,13.953,14.29,4.063-.827,2.9-17.4-4.95Z" transform="translate(-824.497 -4945.486)" fill="#5c9bcf"/>
        </g>
      </g>
      <g id="Grupo_56569" data-name="Grupo 56569" transform="translate(82.29 0.084)">
        <path id="Trazado_125112" data-name="Trazado 125112" d="M927.44,5013.262a1.506,1.506,0,0,1-1.391-.928c-.161-.385-16.126-38.864-21.44-63.445a1.506,1.506,0,1,1,2.944-.637c5.257,24.315,21.118,62.542,21.278,62.924a1.508,1.508,0,0,1-1.39,2.086Z" transform="translate(-896.435 -4945.366)" fill="#d4145a"/>
        <g id="Grupo_56568" data-name="Grupo 56568">
          <path id="Trazado_125113" data-name="Trazado 125113" d="M921.367,4955.675l-1.684,2.5-12.313-8.309-7.388,12.889-2.615-1.5,9-15.694Z" transform="translate(-897.367 -4945.56)" fill="#d4145a"/>
        </g>
      </g>
    </g>
  </g>
</svg>
