<svg xmlns="http://www.w3.org/2000/svg" width="243.926" height="243.938" viewBox="0 0 243.926 243.938">
  <g id="Grupo_56468" data-name="Grupo 56468" transform="translate(-915.07 -1135.488)">
    <g id="Grupo_53784" data-name="Grupo 53784" transform="translate(915.07 1135.488)">
      <g id="Grupo_53781" data-name="Grupo 53781" transform="translate(6.22)">
        <path id="Trazado_100549" data-name="Trazado 100549" d="M1022.548,849.264a1.045,1.045,0,0,1-.981-.684,122.745,122.745,0,0,0-5.4-12.456,120.711,120.711,0,0,0-162.014-53.789c-26.992,13.537-46.961,35.094-57.75,62.342l-1.051,2.46a1.045,1.045,0,1,1-1.922-.822l1.04-2.434c10.969-27.707,31.287-49.645,58.744-63.415a122.8,122.8,0,0,1,164.821,54.721,124.86,124.86,0,0,1,5.5,12.67,1.046,1.046,0,0,1-.982,1.408Z" transform="translate(-793.341 -767.373)" fill="#d4c99b"/>
      </g>
      <g id="Grupo_53782" data-name="Grupo 53782" transform="translate(74.344 124.823)">
        <path id="Trazado_100550" data-name="Trazado 100550" d="M909.88,1013.905q-.989,0-1.977-.012a1.045,1.045,0,0,1,.025-2.091q.976.01,1.952.012c3.075,0,6.138-.086,9.127-.257a1.033,1.033,0,0,1,1.1.986,1.046,1.046,0,0,1-.984,1.1c-3.028.171-6.132.259-9.223.259Zm-13.1-.511c-.027,0-.056,0-.082,0-3.738-.291-7.49-.707-11.152-1.238a1.046,1.046,0,1,1,.3-2.07c3.617.525,7.323.937,11.014,1.224a1.046,1.046,0,0,1-.079,2.089Zm33.393-.788a1.046,1.046,0,0,1-.136-2.083c3.73-.494,7.4-1.135,10.9-1.907a1.046,1.046,0,1,1,.451,2.043c-3.559.784-7.286,1.436-11.074,1.939A1.122,1.122,0,0,1,930.169,1012.606Zm-55.451-2.429a1.111,1.111,0,0,1-.224-.023c-3.767-.824-7.425-1.778-10.874-2.838a1.046,1.046,0,0,1,.614-2c3.393,1.043,7,1.983,10.706,2.794a1.045,1.045,0,0,1-.222,2.067Zm77.2-2.421a1.046,1.046,0,0,1-.326-2.04,91.733,91.733,0,0,0,10.255-4.044,1.046,1.046,0,1,1,.888,1.894,93.608,93.608,0,0,1-10.491,4.137A1.054,1.054,0,0,1,951.918,1007.757Zm20.2-9.351a1.046,1.046,0,0,1-.536-1.945c3.16-1.884,6.266-3.932,9.229-6.089a1.046,1.046,0,0,1,1.231,1.692c-3.016,2.193-6.175,4.277-9.391,6.193A1.039,1.039,0,0,1,972.122,998.406ZM990.139,985.3a1.046,1.046,0,0,1-.692-1.831c2.758-2.424,5.434-5.005,7.958-7.673a1.046,1.046,0,0,1,1.519,1.437c-2.567,2.715-5.291,5.341-8.1,7.807A1.043,1.043,0,0,1,990.139,985.3Zm15.3-16.188a1.045,1.045,0,0,1-.822-1.691c2.266-2.889,4.425-5.918,6.417-9a1.046,1.046,0,1,1,1.757,1.134c-2.026,3.138-4.222,6.219-6.527,9.159A1.044,1.044,0,0,1,1005.443,969.109Zm12.085-18.713a1.046,1.046,0,0,1-.926-1.531c1.7-3.254,3.273-6.625,4.671-10.019a1.046,1.046,0,1,1,1.934.8c-1.421,3.452-3.019,6.881-4.751,10.192A1.047,1.047,0,0,1,1017.528,950.4Zm8.485-20.6a1.059,1.059,0,0,1-.308-.047,1.046,1.046,0,0,1-.691-1.308c1.083-3.507,2.018-7.107,2.779-10.7a1.046,1.046,0,1,1,2.046.433c-.774,3.654-1.724,7.316-2.826,10.884A1.048,1.048,0,0,1,1026.013,929.8Zm4.611-21.8a1.043,1.043,0,0,1-1.039-1.168c.429-3.647.694-7.356.787-11.026a1.046,1.046,0,1,1,2.091.054c-.095,3.732-.364,7.506-.8,11.216A1.045,1.045,0,0,1,1030.624,908Z" transform="translate(-862.881 -894.791)" fill="#d4c99b"/>
      </g>
      <g id="Grupo_53783" data-name="Grupo 53783" transform="translate(0 128.089)">
        <path id="Trazado_100551" data-name="Trazado 100551" d="M862.382,1007.43a1.029,1.029,0,0,1-.389-.075c-1.485-.595-2.981-1.227-4.443-1.878a1.046,1.046,0,1,1,.852-1.91c1.437.641,2.907,1.263,4.367,1.847a1.046,1.046,0,0,1-.388,2.017Zm-14.371-6.864a1.049,1.049,0,0,1-.511-.133c-3.258-1.827-6.471-3.826-9.549-5.94a1.046,1.046,0,0,1,1.184-1.724c3.025,2.079,6.184,4.044,9.387,5.839a1.046,1.046,0,0,1-.511,1.958Zm-18.356-12.619a1.043,1.043,0,0,1-.668-.242c-2.874-2.39-5.668-4.942-8.306-7.582a1.046,1.046,0,0,1,1.479-1.478c2.593,2.6,5.34,5.1,8.164,7.453a1.046,1.046,0,0,1-.669,1.85Zm-15.743-15.762a1.038,1.038,0,0,1-.805-.378c-2.386-2.876-4.665-5.9-6.775-8.978a1.046,1.046,0,0,1,1.727-1.181c2.073,3.029,4.312,6,6.657,8.825a1.045,1.045,0,0,1-.8,1.714ZM801.325,953.8a1.047,1.047,0,0,1-.915-.537c-1.814-3.254-3.5-6.641-5.024-10.065a1.046,1.046,0,0,1,1.911-.848c1.494,3.366,3.156,6.695,4.94,9.894a1.047,1.047,0,0,1-.913,1.556Zm-8.706-20.481a1.047,1.047,0,0,1-1.01-.775,105.732,105.732,0,0,1-2.284-11.028,1.045,1.045,0,0,1,2.065-.325A103.437,103.437,0,0,0,793.63,932a1.046,1.046,0,0,1-.74,1.28A1.029,1.029,0,0,1,792.619,933.32Zm-3.63-21.99a1.046,1.046,0,0,1-1.039-.944c-.31-3.177-.562-6.3-.807-9.32L787,899.255a1.046,1.046,0,0,1,2.085-.17l.147,1.811c.244,3.012.5,6.127.8,9.286a1.047,1.047,0,0,1-.939,1.142C789.058,911.328,789.024,911.33,788.99,911.33Z" transform="translate(-786.992 -898.124)" fill="#d4c99b"/>
      </g>
    </g>
    <g id="Grupo_53805" data-name="Grupo 53805" transform="translate(942.73 1163.69)">
      <g id="Grupo_53802" data-name="Grupo 53802" transform="translate(151.183 24.141)">
        <path id="Trazado_100569" data-name="Trazado 100569" d="M985.092,944.324a1.144,1.144,0,0,1-.926-1.815,89,89,0,0,0,5.488-8.575,1.144,1.144,0,1,1,1.994,1.121,91.121,91.121,0,0,1-5.629,8.8A1.145,1.145,0,0,1,985.092,944.324Zm10.084-17.952a1.144,1.144,0,0,1-1.054-1.587,88.759,88.759,0,0,0,3.391-9.6,1.144,1.144,0,1,1,2.2.637,91.234,91.234,0,0,1-3.479,9.848A1.145,1.145,0,0,1,995.176,926.372Zm5.738-19.778a1.175,1.175,0,0,1-.192-.016,1.146,1.146,0,0,1-.938-1.32c.321-1.9.585-3.829.784-5.747.15-1.455.265-2.927.345-4.374a1.144,1.144,0,1,1,2.284.125c-.081,1.483-.2,2.992-.354,4.484-.2,1.966-.473,3.949-.8,5.893A1.143,1.143,0,0,1,1000.914,906.594Zm1.112-20.562a1.143,1.143,0,0,1-1.14-1.075,88.57,88.57,0,0,0-1.2-10.108,1.144,1.144,0,0,1,2.253-.4,90.941,90.941,0,0,1,1.226,10.369,1.144,1.144,0,0,1-1.073,1.211C1002.073,886.032,1002.05,886.032,1002.026,886.032Zm-3.593-20.27a1.144,1.144,0,0,1-1.1-.816,89.119,89.119,0,0,0-3.475-9.568,1.144,1.144,0,0,1,2.1-.9,91.4,91.4,0,0,1,3.565,9.815,1.144,1.144,0,0,1-.768,1.424A1.161,1.161,0,0,1,998.433,865.763Zm-8.121-18.918a1.142,1.142,0,0,1-.993-.576,90.079,90.079,0,0,0-5.553-8.535,1.144,1.144,0,1,1,1.844-1.355,92.306,92.306,0,0,1,5.694,8.753,1.143,1.143,0,0,1-.991,1.712Zm-12.19-16.6a1.142,1.142,0,0,1-.84-.366,89.939,89.939,0,0,0-7.332-7.067,1.144,1.144,0,0,1,1.491-1.735,92.1,92.1,0,0,1,7.52,7.247,1.144,1.144,0,0,1-.84,1.921Z" transform="translate(-969.552 -820.804)" fill="#86bec4"/>
      </g>
      <g id="Grupo_53803" data-name="Grupo 53803" transform="translate(2.409 32.586)">
        <path id="Trazado_100570" data-name="Trazado 100570" d="M831.246,937.34a1.143,1.143,0,0,1-.987-.562,91.033,91.033,0,0,1-4.786-9.284,1.144,1.144,0,0,1,2.091-.929,89.011,89.011,0,0,0,4.666,9.049,1.143,1.143,0,0,1-.984,1.726Zm-8.366-18.816a1.143,1.143,0,0,1-1.091-.8,90.614,90.614,0,0,1-2.528-10.133,1.144,1.144,0,0,1,2.247-.425,88.292,88.292,0,0,0,2.465,9.877,1.143,1.143,0,0,1-1.092,1.485Zm-3.823-20.232a1.144,1.144,0,0,1-1.139-1.062c-.155-2.163-.233-4.36-.232-6.532,0-1.294.029-2.61.082-3.91a1.144,1.144,0,0,1,2.286.1c-.054,1.268-.081,2.551-.081,3.813,0,2.118.075,4.26.227,6.369a1.145,1.145,0,0,1-1.06,1.223C819.113,898.292,819.086,898.293,819.057,898.293Zm.869-20.575a1.1,1.1,0,0,1-.178-.014,1.144,1.144,0,0,1-.953-1.307,91.847,91.847,0,0,1,2.2-10.21,1.144,1.144,0,0,1,2.206.608,89.572,89.572,0,0,0-2.144,9.955A1.142,1.142,0,0,1,819.926,877.717Zm5.478-19.849a1.147,1.147,0,0,1-1.06-1.573,91.224,91.224,0,0,1,4.463-9.442,1.144,1.144,0,1,1,2.008,1.094,88.938,88.938,0,0,0-4.35,9.2A1.146,1.146,0,0,1,825.4,857.868Zm9.852-18.08a1.144,1.144,0,0,1-.935-1.8,91.849,91.849,0,0,1,6.494-8.177,1.144,1.144,0,0,1,1.707,1.523,89.147,89.147,0,0,0-6.33,7.971A1.143,1.143,0,0,1,835.257,839.788Z" transform="translate(-817.686 -829.425)" fill="#86bec4"/>
      </g>
      <g id="Grupo_53804" data-name="Grupo 53804" transform="translate(46.678 170.182)">
        <path id="Trazado_100571" data-name="Trazado 100571" d="M909.981,984.665c-2.323,0-4.677-.09-7.007-.268a1.144,1.144,0,1,1,.174-2.281c2.272.172,4.568.261,6.826.261,1.117,0,2.243-.021,3.354-.064a1.156,1.156,0,0,1,1.185,1.1,1.143,1.143,0,0,1-1.1,1.186C912.275,984.642,911.119,984.665,909.981,984.665Zm13.654-1.043a1.145,1.145,0,0,1-.172-2.276,88.939,88.939,0,0,0,9.957-2.123,1.144,1.144,0,1,1,.6,2.207,91.512,91.512,0,0,1-10.214,2.178A1.2,1.2,0,0,1,923.635,983.621Zm-30.8-.582a1.146,1.146,0,0,1-.216-.021,92.049,92.049,0,0,1-10.13-2.538,1.144,1.144,0,1,1,.682-2.184,89.63,89.63,0,0,0,9.877,2.475,1.144,1.144,0,0,1-.213,2.268Zm50.656-4.863a1.144,1.144,0,0,1-.428-2.205,88.959,88.959,0,0,0,9.212-4.337,1.144,1.144,0,1,1,1.091,2.011,91.546,91.546,0,0,1-9.449,4.449A1.152,1.152,0,0,1,943.5,978.177Zm-70.313-1.28a1.126,1.126,0,0,1-.463-.1,90.272,90.272,0,0,1-9.283-4.787,1.144,1.144,0,0,1,1.165-1.969,88.05,88.05,0,0,0,9.047,4.666,1.144,1.144,0,0,1-.465,2.189Z" transform="translate(-862.875 -969.881)" fill="#86bec4"/>
      </g>
      <circle id="Elipse_3991" data-name="Elipse 3991" cx="66.248" cy="66.248" r="66.248" transform="translate(0 93.689) rotate(-45)" fill="#86bec4"/>
    </g>
    <g id="Grupo_53826" data-name="Grupo 53826" transform="translate(991.046 1208.832)">
      <path id="Trazado_101297" data-name="Trazado 101297" d="M930.059,925.484h-.274l-25.4-1.015a.756.756,0,0,1-.725-.786.745.745,0,0,1,.762-.728h.023l25.405,1.009a5.3,5.3,0,0,0,5.445-4.489l7.094-46.212a.757.757,0,0,1,1.5.228l-7.092,46.213a6.814,6.814,0,0,1-6.729,5.778Z" transform="translate(-865.343 -842.861)" fill="#8c757e"/>
      <path id="Trazado_101298" data-name="Trazado 101298" d="M901.423,948.412a.733.733,0,0,1-.225-.035.757.757,0,0,1-.5-.948l7.118-22.727a.757.757,0,1,1,1.445.455l-7.118,22.72a.759.759,0,0,1-.723.536Z" transform="translate(-865.283 -843.91)" fill="#8c757e"/>
      <path id="Trazado_101299" data-name="Trazado 101299" d="M934.965,948.43a.759.759,0,0,1-.741-.606l-4.588-21.878a.757.757,0,0,1,1.483-.3l4.588,21.878a.756.756,0,0,1-.586.9h0A.7.7,0,0,1,934.965,948.43Z" transform="translate(-865.872 -843.928)" fill="#8c757e"/>
      <path id="Trazado_101300" data-name="Trazado 101300" d="M935.348,875.283l-4.223,36.46a8.417,8.417,0,0,1-2.433,5.179,8.551,8.551,0,0,1-5.1,2.435l-23.9-1.235-8.179,18.458a4.251,4.251,0,0,1-4.021,2.859,4.762,4.762,0,0,1-1.387-.225,4.254,4.254,0,0,1-2.6-5.408l9.576-24.135.012-.035a3.916,3.916,0,0,1,3.879-2.436l17.747.564,3.107-27.589-9.968,6.257a4.059,4.059,0,0,1-2.272.652,4.319,4.319,0,0,1-1.444-.255l-16.979-6.043a4.246,4.246,0,1,1,2.9-7.983l15.025,5.334,17.977-11.268a9.182,9.182,0,0,1,4.671-.849,8.483,8.483,0,0,1,7.615,9.261Z" transform="translate(-864.928 -842.726)" fill="#fff"/>
      <circle id="Elipse_3993" data-name="Elipse 3993" cx="8.959" cy="8.959" r="8.959" transform="translate(56.131 0.757)" fill="#fff"/>
      <path id="Trazado_101301" data-name="Trazado 101301" d="M935.719,875.706l-4.241,36.465a8.387,8.387,0,0,1-2.424,5.176,8.674,8.674,0,0,1-4.33,2.323,7.622,7.622,0,0,0,.739-.659,8.313,8.313,0,0,0,2.439-5.178l4.218-36.466a8.483,8.483,0,0,0-7.616-9.257,10.178,10.178,0,0,0-2.66.179l1.579-1a9.324,9.324,0,0,1,4.678-.841,8.481,8.481,0,0,1,7.617,9.256Z" transform="translate(-865.714 -842.734)" fill="#e6e6e6"/>
      <path id="Trazado_101302" data-name="Trazado 101302" d="M939.831,851.982a8.936,8.936,0,0,1-7.078,8.756,8.952,8.952,0,0,0-5.453-16.054,8.25,8.25,0,0,0-1.879.2,8.783,8.783,0,0,1,5.453-1.877,8.96,8.96,0,0,1,8.957,8.962v.014Z" transform="translate(-865.786 -842.258)" fill="#e6e6e6"/>
      <path id="Trazado_101303" data-name="Trazado 101303" d="M900.117,854.5H865.3a.757.757,0,1,1,0-1.514h34.812a.757.757,0,1,1,0,1.514Z" transform="translate(-864.547 -842.461)" fill="#8c757e"/>
      <path id="Trazado_101304" data-name="Trazado 101304" d="M894.184,860.246a.757.757,0,0,1-.505-1.319l5.895-5.3-5.895-5.3a.757.757,0,1,1,1.013-1.127l6.521,5.866a.758.758,0,0,1,.056,1.07.767.767,0,0,1-.056.056l-6.513,5.866A.754.754,0,0,1,894.184,860.246Z" transform="translate(-865.135 -842.339)" fill="#8c757e"/>
      <path id="Trazado_101305" data-name="Trazado 101305" d="M920.08,904.706h-.1a.909.909,0,0,1-.8-1l.243-2.215a.908.908,0,1,1,1.81.152c0,.017,0,.034-.006.052l-.248,2.208A.909.909,0,0,1,920.08,904.706Z" transform="translate(-865.659 -843.431)" fill="#fff"/>
      <path id="Trazado_101306" data-name="Trazado 101306" d="M920.682,899.185a.628.628,0,0,1-.1,0,.908.908,0,0,1-.8-1l1.119-10.473a.909.909,0,0,1,1.805.2l-1.119,10.473A.909.909,0,0,1,920.682,899.185Z" transform="translate(-865.671 -843.152)" fill="#fff"/>
      <g id="Grupo_53825" data-name="Grupo 53825" transform="translate(13.467)">
        <path id="Trazado_101307" data-name="Trazado 101307" d="M887.477,940.182a5.459,5.459,0,0,1-1.612-.261,5.009,5.009,0,0,1-3.091-6.375v0l9.587-24.168a4.672,4.672,0,0,1,4.62-2.949l17.049.542,2.853-25.332-8.634,5.421a4.978,4.978,0,0,1-4.364.469l-16.979-6.043a5,5,0,0,1-.35-9.27,4.875,4.875,0,0,1,3.758-.134l14.668,5.206,17.667-11.073a9.9,9.9,0,0,1,5.137-.962,9.248,9.248,0,0,1,8.3,10.084v.016l-4.227,36.463a9.108,9.108,0,0,1-2.653,5.63,9.252,9.252,0,0,1-5.54,2.656l-23.505-1.211-7.973,17.984a4.962,4.962,0,0,1-4.714,3.309Zm9.335-32.243a3.141,3.141,0,0,0-3.029,1.933l-9.594,24.2a3.477,3.477,0,0,0,.167,2.638,3.433,3.433,0,0,0,1.983,1.774,3.494,3.494,0,0,0,4.442-2.16l8.2-18.523a.758.758,0,0,1,.732-.454l23.9,1.235a7.744,7.744,0,0,0,4.521-2.214,7.631,7.631,0,0,0,2.218-4.718l4.224-36.468a7.734,7.734,0,0,0-6.937-8.425,8.392,8.392,0,0,0-4.229.757L905.47,878.763a.748.748,0,0,1-.656.071L889.789,873.5a3.378,3.378,0,0,0-2.61.09,3.55,3.55,0,0,0-1.863,2.009,3.51,3.51,0,0,0,2.1,4.461l16.963,6.038a3.452,3.452,0,0,0,3.03-.312l9.984-6.268a.758.758,0,0,1,1.154.726l-3.1,27.586a.744.744,0,0,1-.777.671l-17.747-.565Z" transform="translate(-878.379 -842.71)" fill="#8c757e"/>
        <path id="Trazado_101308" data-name="Trazado 101308" d="M930.788,861.674a9.716,9.716,0,1,1,9.722-9.716A9.715,9.715,0,0,1,930.788,861.674Zm0-17.918a8.2,8.2,0,1,0,8.207,8.2A8.2,8.2,0,0,0,930.788,843.757Z" transform="translate(-879.165 -842.242)" fill="#8c757e"/>
        <path id="Trazado_101309" data-name="Trazado 101309" d="M886.983,946.12h-.075a10.525,10.525,0,0,1-2.059-.421,9.606,9.606,0,0,1-6.552-9.362.758.758,0,0,1,1.515.042h0a8.094,8.094,0,0,0,5.516,7.876,8.963,8.963,0,0,0,1.736.354.758.758,0,1,1-.073,1.515Z" transform="translate(-878.294 -844.143)" fill="#8c757e"/>
        <path id="Trazado_101310" data-name="Trazado 101310" d="M879.753,933.819a.758.758,0,0,1-.7-1.036l1.3-3.282a.758.758,0,0,1,1.409.558l-1.3,3.283a.759.759,0,0,1-.7.477Z" transform="translate(-878.308 -844.009)" fill="#8c757e"/>
        <path id="Trazado_101311" data-name="Trazado 101311" d="M905.7,874.108a.757.757,0,0,1-.4-1.4l2.145-1.345a.758.758,0,0,1,.8,1.284l-2.145,1.345A.75.75,0,0,1,905.7,874.108Z" transform="translate(-878.836 -842.833)" fill="#8c757e"/>
        <path id="Trazado_101312" data-name="Trazado 101312" d="M910.276,871.158a.757.757,0,0,1-.4-1.4l8.55-5.361a.758.758,0,0,1,.8,1.284l-8.55,5.359A.74.74,0,0,1,910.276,871.158Z" transform="translate(-878.929 -842.691)" fill="#8c757e"/>
      </g>
    </g>
  </g>
</svg>
