<svg xmlns="http://www.w3.org/2000/svg" xmlns:xlink="http://www.w3.org/1999/xlink" width="312" height="280.337" viewBox="0 0 312 280.337">
  <defs>
    <clipPath id="clip-path">
      <path id="Trazado_103066" data-name="Trazado 103066" d="M1025.04,4631.788s-41.389,51.244-55.354,64.678c-19.816,19.062-78.759,66.3-78.759,66.3-19.557,15.68-60.12,37.175-85.7,41.061-5.234.795-28.561,1.875-40.615-8.974-13.189-11.868-14.885-36.333-12.213-45.919,11.526-41.348,62.184-89.973,77.42-105.882,18.816-19.648,75.237-60.174,94.351-73.716a123.755,123.755,0,0,1,22.106-12.526c25.663-11.188,61.9-18.972,82.606-3.433C1028.878,4553.375,1065.74,4580.056,1025.04,4631.788Z" transform="translate(-751.321 -4544.648)" fill="none"/>
    </clipPath>
    <clipPath id="clip-path-2">
      <rect id="Rectángulo_5173" data-name="Rectángulo 5173" width="201.959" height="51.979" transform="translate(0 201.959) rotate(-90)" fill="none"/>
    </clipPath>
  </defs>
  <g id="Grupo_54497" data-name="Grupo 54497" transform="translate(-730.913 -4508.728)">
    <g id="Grupo_54367" data-name="Grupo 54367" transform="translate(730.913 4540.861)">
      <path id="Trazado_103041" data-name="Trazado 103041" d="M733.846,4575.063H732.39v-5.977h-1.477v-1.028l2.933-.259Z" transform="translate(-730.913 -4567.695)" fill="#8c757e"/>
      <path id="Trazado_103042" data-name="Trazado 103042" d="M741.381,4575.688h-1.417l2.664-7.888h1.417Z" transform="translate(-735.024 -4567.695)" fill="#8c757e"/>
      <path id="Trazado_103043" data-name="Trazado 103043" d="M752.13,4575.063h-1.457v-5.977H749.2v-1.028l2.933-.259Z" transform="translate(-739.218 -4567.695)" fill="#8c757e"/>
      <path id="Trazado_103044" data-name="Trazado 103044" d="M762.2,4567.606a3.459,3.459,0,0,1,.756.078,4.02,4.02,0,0,1,.7.227l-.259,1.067a5.535,5.535,0,0,0-.586-.172,2.776,2.776,0,0,0-.6-.058,1.3,1.3,0,0,0-1.065.5,2.018,2.018,0,0,0-.372,1.375l.015.025a1.677,1.677,0,0,1,.618-.4,2.317,2.317,0,0,1,.843-.145,1.843,1.843,0,0,1,1.524.69,2.746,2.746,0,0,1,.551,1.765,2.518,2.518,0,0,1-.681,1.811,2.33,2.33,0,0,1-1.763.714A2.441,2.441,0,0,1,760,4574.3a3.06,3.06,0,0,1-.723-2.163v-1.417a3.112,3.112,0,0,1,.823-2.271A2.806,2.806,0,0,1,762.2,4567.606Zm-.335,3.6a1.652,1.652,0,0,0-.688.129,1.044,1.044,0,0,0-.439.354v.483a2.363,2.363,0,0,0,.312,1.324.957.957,0,0,0,.831.463.83.83,0,0,0,.721-.41,1.762,1.762,0,0,0,.272-.994,1.61,1.61,0,0,0-.275-.977A.864.864,0,0,0,761.865,4571.2Z" transform="translate(-743.799 -4567.606)" fill="#8c757e"/>
    </g>
    <g id="Grupo_54368" data-name="Grupo 54368" transform="translate(756.035 4540.861)">
      <path id="Trazado_103045" data-name="Trazado 103045" d="M778.561,4570.725h.819a1,1,0,0,0,.768-.271,1.076,1.076,0,0,0,.249-.756.985.985,0,0,0-.249-.7.949.949,0,0,0-.723-.265,1.023,1.023,0,0,0-.689.24.788.788,0,0,0-.279.629h-1.411l-.01-.03a1.651,1.651,0,0,1,.653-1.407,2.6,2.6,0,0,1,1.7-.555,2.791,2.791,0,0,1,1.8.54,1.856,1.856,0,0,1,.671,1.536,1.54,1.54,0,0,1-.3.9,1.987,1.987,0,0,1-.823.667,1.844,1.844,0,0,1,.921.659,1.731,1.731,0,0,1,.317,1.032,1.888,1.888,0,0,1-.726,1.57,2.915,2.915,0,0,1-1.858.572,2.846,2.846,0,0,1-1.739-.537,1.714,1.714,0,0,1-.7-1.514l.01-.03h1.411a.887.887,0,0,0,.3.688,1.087,1.087,0,0,0,.759.27,1.1,1.1,0,0,0,.8-.279,1,1,0,0,0,.292-.755,1.1,1.1,0,0,0-.286-.84,1.206,1.206,0,0,0-.846-.266h-.819Z" transform="translate(-776.944 -4567.606)" fill="#8c757e"/>
      <path id="Trazado_103046" data-name="Trazado 103046" d="M788.337,4575.688H786.92l2.664-7.888H791Z" transform="translate(-781.475 -4567.695)" fill="#8c757e"/>
      <path id="Trazado_103047" data-name="Trazado 103047" d="M796.845,4570.725h.819a.994.994,0,0,0,.768-.271,1.076,1.076,0,0,0,.249-.756.984.984,0,0,0-.249-.7.948.948,0,0,0-.723-.265,1.022,1.022,0,0,0-.689.24.789.789,0,0,0-.279.629h-1.412l-.01-.03a1.652,1.652,0,0,1,.653-1.407,2.6,2.6,0,0,1,1.7-.555,2.791,2.791,0,0,1,1.8.54,1.856,1.856,0,0,1,.671,1.536,1.536,1.536,0,0,1-.3.9,1.989,1.989,0,0,1-.823.667,1.844,1.844,0,0,1,.92.659,1.73,1.73,0,0,1,.317,1.032,1.888,1.888,0,0,1-.726,1.57,2.914,2.914,0,0,1-1.858.572,2.847,2.847,0,0,1-1.739-.537,1.715,1.715,0,0,1-.7-1.514l.01-.03h1.412a.887.887,0,0,0,.3.688,1.088,1.088,0,0,0,.759.27,1.1,1.1,0,0,0,.8-.279.993.993,0,0,0,.292-.755,1.1,1.1,0,0,0-.286-.84,1.206,1.206,0,0,0-.846-.266h-.819Z" transform="translate(-785.249 -4567.606)" fill="#8c757e"/>
      <path id="Trazado_103048" data-name="Trazado 103048" d="M811.1,4574.976H806.14v-.953l2.35-2.52a5.672,5.672,0,0,0,.723-.985,1.59,1.59,0,0,0,.214-.746,1.124,1.124,0,0,0-.247-.751.869.869,0,0,0-.7-.292.906.906,0,0,0-.766.342,1.46,1.46,0,0,0-.262.911h-1.417l-.01-.03a2.2,2.2,0,0,1,.647-1.664,2.421,2.421,0,0,1,1.808-.681,2.522,2.522,0,0,1,1.765.584,2,2,0,0,1,.641,1.556,2.184,2.184,0,0,1-.362,1.215,12.037,12.037,0,0,1-1.195,1.459l-1.292,1.407.01.025H811.1Z" transform="translate(-790.153 -4567.606)" fill="#8c757e"/>
    </g>
    <g id="Grupo_54369" data-name="Grupo 54369" transform="translate(783.954 4540.861)">
      <path id="Trazado_103049" data-name="Trazado 103049" d="M831.033,4575.063h-1.457v-5.977H828.1v-1.028l2.933-.259Z" transform="translate(-828.1 -4567.695)" fill="#8c757e"/>
      <path id="Trazado_103050" data-name="Trazado 103050" d="M838.568,4575.688h-1.417l2.664-7.888h1.417Z" transform="translate(-832.211 -4567.695)" fill="#8c757e"/>
      <path id="Trazado_103051" data-name="Trazado 103051" d="M849.317,4575.063h-1.457v-5.977h-1.477v-1.028l2.933-.259Z" transform="translate(-836.405 -4567.695)" fill="#8c757e"/>
      <path id="Trazado_103052" data-name="Trazado 103052" d="M861.18,4569.638a1.659,1.659,0,0,1-.288.962,1.905,1.905,0,0,1-.79.654,2.145,2.145,0,0,1,.913.7,1.707,1.707,0,0,1,.334,1.038,1.86,1.86,0,0,1-.684,1.549,2.788,2.788,0,0,1-1.786.542,2.818,2.818,0,0,1-1.8-.542,1.857,1.857,0,0,1-.686-1.549,1.709,1.709,0,0,1,.332-1.04,2.155,2.155,0,0,1,.915-.7,1.9,1.9,0,0,1-.793-.651,1.665,1.665,0,0,1-.284-.96,1.846,1.846,0,0,1,.634-1.5,2.893,2.893,0,0,1,3.343,0A1.841,1.841,0,0,1,861.18,4569.638Zm-1.288,3.25a1.076,1.076,0,0,0-.284-.781.985.985,0,0,0-.739-.293.966.966,0,0,0-.736.293,1.093,1.093,0,0,0-.277.781,1.075,1.075,0,0,0,.279.785.993.993,0,0,0,.743.286.976.976,0,0,0,.733-.288A1.077,1.077,0,0,0,859.892,4572.888Zm-.164-3.186a1.041,1.041,0,0,0-.232-.707.789.789,0,0,0-.627-.267.777.777,0,0,0-.623.262,1.054,1.054,0,0,0-.224.711,1.074,1.074,0,0,0,.227.721.781.781,0,0,0,.631.267.771.771,0,0,0,.621-.267A1.078,1.078,0,0,0,859.728,4569.7Z" transform="translate(-840.953 -4567.606)" fill="#8c757e"/>
    </g>
    <g id="Grupo_54370" data-name="Grupo 54370" transform="translate(814.476 4540.861)">
      <path id="Trazado_103053" data-name="Trazado 103053" d="M884.157,4571.847l.42-4.047h4.051v1.167h-2.859l-.2,1.678a1.735,1.735,0,0,1,.485-.248,2.274,2.274,0,0,1,2.252.531,2.626,2.626,0,0,1,.577,1.807,2.484,2.484,0,0,1-.632,1.74,2.329,2.329,0,0,1-1.818.694,2.734,2.734,0,0,1-1.716-.548,1.736,1.736,0,0,1-.689-1.508l.01-.025,1.4-.069a1.018,1.018,0,0,0,.275.756.973.973,0,0,0,.718.271.839.839,0,0,0,.751-.36,1.667,1.667,0,0,0,.242-.944,1.745,1.745,0,0,0-.26-1,.87.87,0,0,0-.768-.38,1.109,1.109,0,0,0-.641.155.84.84,0,0,0-.317.42Z" transform="translate(-884.026 -4567.695)" fill="#8c757e"/>
      <path id="Trazado_103054" data-name="Trazado 103054" d="M895.053,4575.688h-1.417l2.664-7.888h1.417Z" transform="translate(-888.391 -4567.695)" fill="#8c757e"/>
      <path id="Trazado_103055" data-name="Trazado 103055" d="M903.562,4570.725h.819a1,1,0,0,0,.768-.271,1.076,1.076,0,0,0,.249-.756.985.985,0,0,0-.249-.7.949.949,0,0,0-.723-.265,1.022,1.022,0,0,0-.689.24.788.788,0,0,0-.279.629h-1.411l-.01-.03a1.651,1.651,0,0,1,.653-1.407,2.6,2.6,0,0,1,1.7-.555,2.792,2.792,0,0,1,1.8.54,1.857,1.857,0,0,1,.671,1.536,1.54,1.54,0,0,1-.3.9,1.986,1.986,0,0,1-.823.667,1.844,1.844,0,0,1,.921.659,1.731,1.731,0,0,1,.317,1.032,1.888,1.888,0,0,1-.726,1.57,2.915,2.915,0,0,1-1.858.572,2.846,2.846,0,0,1-1.739-.537,1.714,1.714,0,0,1-.7-1.514l.01-.03h1.411a.887.887,0,0,0,.3.688,1.086,1.086,0,0,0,.759.27,1.1,1.1,0,0,0,.8-.279.994.994,0,0,0,.292-.755,1.1,1.1,0,0,0-.286-.84,1.207,1.207,0,0,0-.846-.266h-.819Z" transform="translate(-892.166 -4567.606)" fill="#8c757e"/>
      <path id="Trazado_103056" data-name="Trazado 103056" d="M917.817,4574.976h-4.959v-.953l2.349-2.52a5.657,5.657,0,0,0,.724-.985,1.6,1.6,0,0,0,.214-.746,1.124,1.124,0,0,0-.247-.751.869.869,0,0,0-.7-.292.906.906,0,0,0-.766.342,1.46,1.46,0,0,0-.262.911h-1.417l-.01-.03a2.2,2.2,0,0,1,.646-1.664,2.424,2.424,0,0,1,1.809-.681,2.52,2.52,0,0,1,1.764.584,2,2,0,0,1,.641,1.556,2.189,2.189,0,0,1-.362,1.215,12.045,12.045,0,0,1-1.195,1.459l-1.293,1.407.01.025h3.054Z" transform="translate(-897.07 -4567.606)" fill="#8c757e"/>
    </g>
    <g id="Grupo_54371" data-name="Grupo 54371" transform="translate(849.679 4540.861)">
      <path id="Trazado_103057" data-name="Trazado 103057" d="M950.147,4570.725h.819a1,1,0,0,0,.768-.271,1.076,1.076,0,0,0,.249-.756.985.985,0,0,0-.249-.7.949.949,0,0,0-.723-.265,1.022,1.022,0,0,0-.689.24.788.788,0,0,0-.279.629h-1.411l-.01-.03a1.651,1.651,0,0,1,.653-1.407,2.6,2.6,0,0,1,1.7-.555,2.791,2.791,0,0,1,1.8.54,1.856,1.856,0,0,1,.671,1.536,1.54,1.54,0,0,1-.3.9,1.986,1.986,0,0,1-.823.667,1.844,1.844,0,0,1,.921.659,1.731,1.731,0,0,1,.317,1.032,1.888,1.888,0,0,1-.726,1.57,2.915,2.915,0,0,1-1.858.572,2.845,2.845,0,0,1-1.739-.537,1.714,1.714,0,0,1-.7-1.514l.01-.03h1.412a.888.888,0,0,0,.3.688,1.087,1.087,0,0,0,.759.27,1.1,1.1,0,0,0,.8-.279,1,1,0,0,0,.292-.755,1.1,1.1,0,0,0-.286-.84,1.208,1.208,0,0,0-.846-.266h-.819Z" transform="translate(-948.53 -4567.606)" fill="#8c757e"/>
      <path id="Trazado_103058" data-name="Trazado 103058" d="M959.923,4575.688h-1.417l2.664-7.888h1.417Z" transform="translate(-953.061 -4567.695)" fill="#8c757e"/>
      <path id="Trazado_103059" data-name="Trazado 103059" d="M970.672,4575.063h-1.457v-5.977h-1.477v-1.028l2.933-.259Z" transform="translate(-957.255 -4567.695)" fill="#8c757e"/>
      <path id="Trazado_103060" data-name="Trazado 103060" d="M980.742,4567.606a3.46,3.46,0,0,1,.756.078,4.02,4.02,0,0,1,.7.227l-.259,1.067a5.536,5.536,0,0,0-.586-.172,2.775,2.775,0,0,0-.6-.058,1.3,1.3,0,0,0-1.065.5,2.018,2.018,0,0,0-.372,1.375l.015.025a1.677,1.677,0,0,1,.618-.4,2.318,2.318,0,0,1,.843-.145,1.843,1.843,0,0,1,1.524.69,2.745,2.745,0,0,1,.551,1.765,2.518,2.518,0,0,1-.681,1.811,2.33,2.33,0,0,1-1.763.714,2.44,2.44,0,0,1-1.876-.781,3.06,3.06,0,0,1-.723-2.163v-1.417a3.112,3.112,0,0,1,.823-2.271A2.806,2.806,0,0,1,980.742,4567.606Zm-.335,3.6a1.652,1.652,0,0,0-.688.129,1.043,1.043,0,0,0-.439.354v.483a2.364,2.364,0,0,0,.312,1.324.958.958,0,0,0,.831.463.83.83,0,0,0,.721-.41,1.763,1.763,0,0,0,.272-.994,1.611,1.611,0,0,0-.275-.977A.865.865,0,0,0,980.407,4571.2Z" transform="translate(-961.836 -4567.606)" fill="#8c757e"/>
    </g>
    <g id="Grupo_54372" data-name="Grupo 54372" transform="translate(884.037 4540.861)">
      <path id="Trazado_103061" data-name="Trazado 103061" d="M1016.618,4568.922a8.534,8.534,0,0,0-1.594,2.55,12.561,12.561,0,0,0-.611,2.854l-.07.738h-1.457l.07-.738a10.471,10.471,0,0,1,.729-2.94,9.066,9.066,0,0,1,1.532-2.463h-3.732V4567.8h5.134Z" transform="translate(-1011.484 -4567.695)" fill="#8c757e"/>
      <path id="Trazado_103062" data-name="Trazado 103062" d="M1022.966,4575.688h-1.417l2.664-7.888h1.417Z" transform="translate(-1016.056 -4567.695)" fill="#8c757e"/>
      <path id="Trazado_103063" data-name="Trazado 103063" d="M1031.475,4570.725h.819a.994.994,0,0,0,.768-.271,1.076,1.076,0,0,0,.249-.756.985.985,0,0,0-.249-.7.948.948,0,0,0-.723-.265,1.022,1.022,0,0,0-.689.24.787.787,0,0,0-.279.629h-1.412l-.01-.03a1.651,1.651,0,0,1,.653-1.407,2.6,2.6,0,0,1,1.7-.555,2.792,2.792,0,0,1,1.8.54,1.857,1.857,0,0,1,.671,1.536,1.536,1.536,0,0,1-.3.9,1.987,1.987,0,0,1-.823.667,1.844,1.844,0,0,1,.92.659,1.73,1.73,0,0,1,.317,1.032,1.888,1.888,0,0,1-.726,1.57,2.914,2.914,0,0,1-1.858.572,2.846,2.846,0,0,1-1.739-.537,1.714,1.714,0,0,1-.7-1.514l.01-.03h1.412a.887.887,0,0,0,.3.688,1.087,1.087,0,0,0,.759.27,1.1,1.1,0,0,0,.8-.279,1,1,0,0,0,.292-.755,1.1,1.1,0,0,0-.287-.84,1.206,1.206,0,0,0-.846-.266h-.819Z" transform="translate(-1019.83 -4567.606)" fill="#8c757e"/>
      <path id="Trazado_103064" data-name="Trazado 103064" d="M1045.73,4574.976h-4.959v-.953l2.35-2.52a5.68,5.68,0,0,0,.723-.985,1.6,1.6,0,0,0,.215-.746,1.124,1.124,0,0,0-.247-.751.869.869,0,0,0-.7-.292.906.906,0,0,0-.766.342,1.46,1.46,0,0,0-.262.911h-1.417l-.01-.03a2.2,2.2,0,0,1,.646-1.664,2.424,2.424,0,0,1,1.809-.681,2.52,2.52,0,0,1,1.764.584,2,2,0,0,1,.641,1.556,2.185,2.185,0,0,1-.362,1.215,12.054,12.054,0,0,1-1.194,1.459l-1.293,1.407.01.025h3.053Z" transform="translate(-1024.734 -4567.606)" fill="#8c757e"/>
    </g>
    <g id="Grupo_54376" data-name="Grupo 54376" transform="translate(740.966 4527.275)">
      <path id="Trazado_103065" data-name="Trazado 103065" d="M796.41,4804.5c-9.643,0-24.523-1.7-33.435-9.718-13.459-12.113-15.314-37.052-12.535-47.025,10.49-37.629,52.278-80.344,72.361-100.871,2.07-2.115,3.856-3.942,5.322-5.472,19.05-19.893,77.153-61.557,94.508-73.852a125.344,125.344,0,0,1,22.3-12.636c26.942-11.746,63.078-18.781,83.7-3.306a42.453,42.453,0,0,1,15.306,27.359c2.246,16.075-4.126,33.774-18.941,52.6l-.009.011c-.414.513-41.592,51.451-55.446,64.778-19.625,18.878-78.244,65.893-78.833,66.365-20.519,16.451-60.976,37.453-86.222,41.288A58.89,58.89,0,0,1,796.41,4804.5Zm200.7-259.634c-16.85,0-35.645,5.232-51.308,12.06a123.249,123.249,0,0,0-21.912,12.417c-17.314,12.267-75.277,53.827-94.193,73.581-1.474,1.538-3.264,3.369-5.338,5.489-19.955,20.4-61.479,62.84-71.818,99.931-2.653,9.517-.907,33.3,11.892,44.815,11.635,10.471,34.291,9.531,39.721,8.706,24.9-3.782,64.882-24.555,85.185-40.833.589-.472,59.131-47.425,78.685-66.235,13.73-13.208,54.693-63.872,55.259-64.573,14.429-18.342,20.649-35.481,18.489-50.944a40.881,40.881,0,0,0-14.439-25.9C1019.258,4547.317,1008.64,4544.869,997.113,4544.869Z" transform="translate(-749.334 -4542.713)" fill="#ff9696"/>
      <g id="Grupo_54375" data-name="Grupo 54375" transform="translate(1.084 1.056)">
        <g id="Grupo_54374" data-name="Grupo 54374" clip-path="url(#clip-path)">
          <g id="Grupo_54373" data-name="Grupo 54373" transform="translate(-17.583 16.836)">
            <rect id="Rectángulo_5167" data-name="Rectángulo 5167" width="2.184" height="148.754" transform="matrix(0.317, -0.948, 0.948, 0.317, 0, 180.816)" fill="#ff9696"/>
            <rect id="Rectángulo_5168" data-name="Rectángulo 5168" width="2.183" height="181.41" transform="translate(22.197 134.094) rotate(-72.12)" fill="#ff9696"/>
            <rect id="Rectángulo_5169" data-name="Rectángulo 5169" width="2.183" height="190.021" transform="translate(59.508 95.758) rotate(-73.858)" fill="#ff9696"/>
            <rect id="Rectángulo_5170" data-name="Rectángulo 5170" width="2.183" height="193.716" transform="translate(100.706 58.953) rotate(-74.655)" fill="#ff9696"/>
            <rect id="Rectángulo_5171" data-name="Rectángulo 5171" width="2.183" height="178.327" transform="translate(136.341 31.037) rotate(-76.776)" fill="#ff9696"/>
            <rect id="Rectángulo_5172" data-name="Rectángulo 5172" width="2.183" height="148.673" transform="translate(179.03 2.137) rotate(-78.223)" fill="#ff9696"/>
          </g>
        </g>
      </g>
    </g>
    <g id="Grupo_54488" data-name="Grupo 54488" transform="translate(731.069 4581.555)">
      <g id="Grupo_54487" data-name="Grupo 54487" transform="translate(0 0)" clip-path="url(#clip-path-2)">
        <g id="Grupo_54486" data-name="Grupo 54486" transform="translate(0.018 -66.517)">
          <g id="Grupo_54485" data-name="Grupo 54485">
            <g id="Grupo_54478" data-name="Grupo 54478" transform="translate(0 1.607)">
              <g id="Grupo_54377" data-name="Grupo 54377" transform="translate(0 258.001)">
                <path id="Trazado_103067" data-name="Trazado 103067" d="M765.308,4996.627a.656.656,0,0,1-.656.656H731.886a.656.656,0,0,1,0-1.312h32.766A.656.656,0,0,1,765.308,4996.627Z" transform="translate(-731.231 -4995.972)" fill="#8c757e"/>
              </g>
              <g id="Grupo_54378" data-name="Grupo 54378" transform="translate(0 206.401)">
                <path id="Trazado_103068" data-name="Trazado 103068" d="M765.308,4902.079a.656.656,0,0,1-.656.656H731.886a.655.655,0,0,1,0-1.311h32.766A.655.655,0,0,1,765.308,4902.079Z" transform="translate(-731.231 -4901.425)" fill="#8c757e"/>
              </g>
              <g id="Grupo_54379" data-name="Grupo 54379" transform="translate(0.164 232.365)">
                <path id="Trazado_103069" data-name="Trazado 103069" d="M755.45,4949.49a.491.491,0,0,1-.491.492H732.022a.492.492,0,0,1,0-.983h22.937A.491.491,0,0,1,755.45,4949.49Z" transform="translate(-731.531 -4948.999)" fill="#8c757e"/>
              </g>
              <g id="Grupo_54380" data-name="Grupo 54380" transform="translate(0.409 237.77)">
                <path id="Trazado_103070" data-name="Trazado 103070" d="M745.579,4959.149a.246.246,0,0,1-.246.246H732.227a.246.246,0,0,1,0-.491h13.106A.246.246,0,0,1,745.579,4959.149Z" transform="translate(-731.981 -4958.904)" fill="#8c757e"/>
              </g>
              <g id="Grupo_54381" data-name="Grupo 54381" transform="translate(0.409 242.93)">
                <path id="Trazado_103071" data-name="Trazado 103071" d="M745.579,4968.6a.245.245,0,0,1-.246.245H732.227a.246.246,0,0,1,0-.491h13.106A.246.246,0,0,1,745.579,4968.6Z" transform="translate(-731.981 -4968.358)" fill="#8c757e"/>
              </g>
              <g id="Grupo_54382" data-name="Grupo 54382" transform="translate(0.409 248.09)">
                <path id="Trazado_103072" data-name="Trazado 103072" d="M745.579,4978.059a.246.246,0,0,1-.246.246H732.227a.246.246,0,0,1,0-.492h13.106A.246.246,0,0,1,745.579,4978.059Z" transform="translate(-731.981 -4977.813)" fill="#8c757e"/>
              </g>
              <g id="Grupo_54383" data-name="Grupo 54383" transform="translate(0.409 253.25)">
                <path id="Trazado_103073" data-name="Trazado 103073" d="M745.579,4987.514a.246.246,0,0,1-.246.246H732.227a.246.246,0,0,1,0-.491h13.106A.246.246,0,0,1,745.579,4987.514Z" transform="translate(-731.981 -4987.268)" fill="#8c757e"/>
              </g>
              <g id="Grupo_54384" data-name="Grupo 54384" transform="translate(0.409 240.35)">
                <path id="Trazado_103074" data-name="Trazado 103074" d="M740.336,4963.876a.247.247,0,0,1-.246.247h-7.864a.246.246,0,0,1,0-.492h7.864A.246.246,0,0,1,740.336,4963.876Z" transform="translate(-731.981 -4963.631)" fill="#8c757e"/>
              </g>
              <g id="Grupo_54385" data-name="Grupo 54385" transform="translate(0.409 235.19)">
                <path id="Trazado_103075" data-name="Trazado 103075" d="M740.336,4954.422a.247.247,0,0,1-.246.246h-7.864a.246.246,0,0,1,0-.492h7.864A.246.246,0,0,1,740.336,4954.422Z" transform="translate(-731.981 -4954.176)" fill="#8c757e"/>
              </g>
              <g id="Grupo_54386" data-name="Grupo 54386" transform="translate(0.409 245.51)">
                <path id="Trazado_103076" data-name="Trazado 103076" d="M740.336,4973.331a.245.245,0,0,1-.246.246h-7.864a.245.245,0,1,1,0-.491h7.864A.245.245,0,0,1,740.336,4973.331Z" transform="translate(-731.981 -4973.086)" fill="#8c757e"/>
              </g>
              <g id="Grupo_54387" data-name="Grupo 54387" transform="translate(0.409 250.67)">
                <path id="Trazado_103077" data-name="Trazado 103077" d="M740.336,4982.786a.246.246,0,0,1-.246.246h-7.864a.246.246,0,0,1,0-.491h7.864A.246.246,0,0,1,740.336,4982.786Z" transform="translate(-731.981 -4982.541)" fill="#8c757e"/>
              </g>
              <g id="Grupo_54388" data-name="Grupo 54388" transform="translate(0.409 255.83)">
                <path id="Trazado_103078" data-name="Trazado 103078" d="M740.336,4992.241a.247.247,0,0,1-.246.246h-7.864a.246.246,0,0,1,0-.492h7.864A.246.246,0,0,1,740.336,4992.241Z" transform="translate(-731.981 -4991.995)" fill="#8c757e"/>
              </g>
              <g id="Grupo_54389" data-name="Grupo 54389" transform="translate(0.409 211.97)">
                <path id="Trazado_103079" data-name="Trazado 103079" d="M745.579,4911.875a.246.246,0,0,1-.246.246H732.227a.246.246,0,0,1,0-.491h13.106A.246.246,0,0,1,745.579,4911.875Z" transform="translate(-731.981 -4911.63)" fill="#8c757e"/>
              </g>
              <g id="Grupo_54390" data-name="Grupo 54390" transform="translate(0.409 217.13)">
                <path id="Trazado_103080" data-name="Trazado 103080" d="M745.579,4921.331a.245.245,0,0,1-.246.245H732.227a.245.245,0,1,1,0-.491h13.106A.246.246,0,0,1,745.579,4921.331Z" transform="translate(-731.981 -4921.085)" fill="#8c757e"/>
              </g>
              <g id="Grupo_54391" data-name="Grupo 54391" transform="translate(0.409 222.29)">
                <path id="Trazado_103081" data-name="Trazado 103081" d="M745.579,4930.785a.246.246,0,0,1-.246.245H732.227a.246.246,0,0,1,0-.491h13.106A.246.246,0,0,1,745.579,4930.785Z" transform="translate(-731.981 -4930.539)" fill="#8c757e"/>
              </g>
              <g id="Grupo_54392" data-name="Grupo 54392" transform="translate(0.409 227.45)">
                <path id="Trazado_103082" data-name="Trazado 103082" d="M745.579,4940.24a.246.246,0,0,1-.246.246H732.227a.246.246,0,0,1,0-.492h13.106A.246.246,0,0,1,745.579,4940.24Z" transform="translate(-731.981 -4939.994)" fill="#8c757e"/>
              </g>
              <g id="Grupo_54393" data-name="Grupo 54393" transform="translate(0.409 214.55)">
                <path id="Trazado_103083" data-name="Trazado 103083" d="M740.336,4916.6a.246.246,0,0,1-.246.246h-7.864a.246.246,0,0,1,0-.492h7.864A.246.246,0,0,1,740.336,4916.6Z" transform="translate(-731.981 -4916.357)" fill="#8c757e"/>
              </g>
              <g id="Grupo_54394" data-name="Grupo 54394" transform="translate(0.409 209.39)">
                <path id="Trazado_103084" data-name="Trazado 103084" d="M740.336,4907.148a.246.246,0,0,1-.246.246h-7.864a.246.246,0,0,1,0-.492h7.864A.246.246,0,0,1,740.336,4907.148Z" transform="translate(-731.981 -4906.902)" fill="#8c757e"/>
              </g>
              <g id="Grupo_54395" data-name="Grupo 54395" transform="translate(0.409 219.71)">
                <path id="Trazado_103085" data-name="Trazado 103085" d="M740.336,4926.057a.245.245,0,0,1-.246.246h-7.864a.246.246,0,0,1,0-.491h7.864A.246.246,0,0,1,740.336,4926.057Z" transform="translate(-731.981 -4925.812)" fill="#8c757e"/>
              </g>
              <g id="Grupo_54396" data-name="Grupo 54396" transform="translate(0.409 224.87)">
                <path id="Trazado_103086" data-name="Trazado 103086" d="M740.336,4935.512a.246.246,0,0,1-.246.246h-7.864a.246.246,0,0,1,0-.491h7.864A.245.245,0,0,1,740.336,4935.512Z" transform="translate(-731.981 -4935.267)" fill="#8c757e"/>
              </g>
              <g id="Grupo_54397" data-name="Grupo 54397" transform="translate(0.409 230.03)">
                <path id="Trazado_103087" data-name="Trazado 103087" d="M740.336,4944.967a.246.246,0,0,1-.246.245h-7.864a.246.246,0,0,1,0-.491h7.864A.246.246,0,0,1,740.336,4944.967Z" transform="translate(-731.981 -4944.721)" fill="#8c757e"/>
              </g>
              <g id="Grupo_54398" data-name="Grupo 54398" transform="translate(0 154.8)">
                <path id="Trazado_103088" data-name="Trazado 103088" d="M765.308,4807.532a.655.655,0,0,1-.656.655H731.886a.655.655,0,0,1,0-1.311h32.766A.656.656,0,0,1,765.308,4807.532Z" transform="translate(-731.231 -4806.877)" fill="#8c757e"/>
              </g>
              <g id="Grupo_54399" data-name="Grupo 54399" transform="translate(0.164 180.764)">
                <path id="Trazado_103089" data-name="Trazado 103089" d="M755.45,4854.942a.492.492,0,0,1-.491.492H732.022a.492.492,0,0,1,0-.983h22.937A.491.491,0,0,1,755.45,4854.942Z" transform="translate(-731.531 -4854.451)" fill="#8c757e"/>
              </g>
              <g id="Grupo_54400" data-name="Grupo 54400" transform="translate(0.409 186.17)">
                <path id="Trazado_103090" data-name="Trazado 103090" d="M745.579,4864.6a.246.246,0,0,1-.246.246H732.227a.246.246,0,0,1,0-.491h13.106A.245.245,0,0,1,745.579,4864.6Z" transform="translate(-731.981 -4864.356)" fill="#8c757e"/>
              </g>
              <g id="Grupo_54401" data-name="Grupo 54401" transform="translate(0.409 191.33)">
                <path id="Trazado_103091" data-name="Trazado 103091" d="M745.579,4874.057a.246.246,0,0,1-.246.245H732.227a.246.246,0,0,1,0-.491h13.106A.246.246,0,0,1,745.579,4874.057Z" transform="translate(-731.981 -4873.811)" fill="#8c757e"/>
              </g>
              <g id="Grupo_54402" data-name="Grupo 54402" transform="translate(0.409 196.49)">
                <path id="Trazado_103092" data-name="Trazado 103092" d="M745.579,4883.511a.246.246,0,0,1-.246.246H732.227a.246.246,0,0,1,0-.492h13.106A.246.246,0,0,1,745.579,4883.511Z" transform="translate(-731.981 -4883.265)" fill="#8c757e"/>
              </g>
              <g id="Grupo_54403" data-name="Grupo 54403" transform="translate(0.409 201.65)">
                <path id="Trazado_103093" data-name="Trazado 103093" d="M745.579,4892.966a.246.246,0,0,1-.246.246H732.227a.246.246,0,0,1,0-.492h13.106A.246.246,0,0,1,745.579,4892.966Z" transform="translate(-731.981 -4892.72)" fill="#8c757e"/>
              </g>
              <g id="Grupo_54404" data-name="Grupo 54404" transform="translate(0.409 188.75)">
                <path id="Trazado_103094" data-name="Trazado 103094" d="M740.336,4869.33a.246.246,0,0,1-.246.245h-7.864a.246.246,0,0,1,0-.491h7.864A.246.246,0,0,1,740.336,4869.33Z" transform="translate(-731.981 -4869.083)" fill="#8c757e"/>
              </g>
              <g id="Grupo_54405" data-name="Grupo 54405" transform="translate(0.409 183.59)">
                <path id="Trazado_103095" data-name="Trazado 103095" d="M740.336,4859.875a.246.246,0,0,1-.246.246h-7.864a.246.246,0,0,1,0-.492h7.864A.247.247,0,0,1,740.336,4859.875Z" transform="translate(-731.981 -4859.628)" fill="#8c757e"/>
              </g>
              <g id="Grupo_54406" data-name="Grupo 54406" transform="translate(0.409 193.91)">
                <path id="Trazado_103096" data-name="Trazado 103096" d="M740.336,4878.783a.246.246,0,0,1-.246.246h-7.864a.246.246,0,0,1,0-.492h7.864A.246.246,0,0,1,740.336,4878.783Z" transform="translate(-731.981 -4878.538)" fill="#8c757e"/>
              </g>
              <g id="Grupo_54407" data-name="Grupo 54407" transform="translate(0.409 199.07)">
                <path id="Trazado_103097" data-name="Trazado 103097" d="M740.336,4888.239a.246.246,0,0,1-.246.246h-7.864a.246.246,0,0,1,0-.491h7.864A.246.246,0,0,1,740.336,4888.239Z" transform="translate(-731.981 -4887.993)" fill="#8c757e"/>
              </g>
              <g id="Grupo_54408" data-name="Grupo 54408" transform="translate(0.409 204.23)">
                <path id="Trazado_103098" data-name="Trazado 103098" d="M740.336,4897.694a.245.245,0,0,1-.246.245h-7.864a.245.245,0,1,1,0-.491h7.864A.245.245,0,0,1,740.336,4897.694Z" transform="translate(-731.981 -4897.448)" fill="#8c757e"/>
              </g>
              <g id="Grupo_54409" data-name="Grupo 54409" transform="translate(0.409 160.37)">
                <path id="Trazado_103099" data-name="Trazado 103099" d="M745.579,4817.328a.247.247,0,0,1-.246.247H732.227a.246.246,0,0,1,0-.492h13.106A.246.246,0,0,1,745.579,4817.328Z" transform="translate(-731.981 -4817.082)" fill="#8c757e"/>
              </g>
              <g id="Grupo_54410" data-name="Grupo 54410" transform="translate(0.409 165.53)">
                <path id="Trazado_103100" data-name="Trazado 103100" d="M745.579,4826.782a.246.246,0,0,1-.246.246H732.227a.245.245,0,1,1,0-.491h13.106A.246.246,0,0,1,745.579,4826.782Z" transform="translate(-731.981 -4826.537)" fill="#8c757e"/>
              </g>
              <g id="Grupo_54411" data-name="Grupo 54411" transform="translate(0.409 170.69)">
                <path id="Trazado_103101" data-name="Trazado 103101" d="M745.579,4836.237a.246.246,0,0,1-.246.246H732.227a.246.246,0,0,1,0-.491h13.106A.246.246,0,0,1,745.579,4836.237Z" transform="translate(-731.981 -4835.992)" fill="#8c757e"/>
              </g>
              <g id="Grupo_54412" data-name="Grupo 54412" transform="translate(0.409 175.85)">
                <path id="Trazado_103102" data-name="Trazado 103102" d="M745.579,4845.691a.246.246,0,0,1-.246.246H732.227a.246.246,0,0,1,0-.492h13.106A.246.246,0,0,1,745.579,4845.691Z" transform="translate(-731.981 -4845.445)" fill="#8c757e"/>
              </g>
              <g id="Grupo_54413" data-name="Grupo 54413" transform="translate(0.409 162.95)">
                <path id="Trazado_103103" data-name="Trazado 103103" d="M740.336,4822.056a.246.246,0,0,1-.246.245h-7.864a.245.245,0,1,1,0-.491h7.864A.246.246,0,0,1,740.336,4822.056Z" transform="translate(-731.981 -4821.81)" fill="#8c757e"/>
              </g>
              <g id="Grupo_54414" data-name="Grupo 54414" transform="translate(0.409 157.79)">
                <path id="Trazado_103104" data-name="Trazado 103104" d="M740.336,4812.6a.246.246,0,0,1-.246.246h-7.864a.246.246,0,0,1,0-.492h7.864A.246.246,0,0,1,740.336,4812.6Z" transform="translate(-731.981 -4812.354)" fill="#8c757e"/>
              </g>
              <g id="Grupo_54415" data-name="Grupo 54415" transform="translate(0.409 168.11)">
                <path id="Trazado_103105" data-name="Trazado 103105" d="M740.336,4831.51a.246.246,0,0,1-.246.246h-7.864a.246.246,0,0,1,0-.492h7.864A.246.246,0,0,1,740.336,4831.51Z" transform="translate(-731.981 -4831.264)" fill="#8c757e"/>
              </g>
              <g id="Grupo_54416" data-name="Grupo 54416" transform="translate(0.409 173.27)">
                <path id="Trazado_103106" data-name="Trazado 103106" d="M740.336,4840.965a.246.246,0,0,1-.246.246h-7.864a.246.246,0,0,1,0-.491h7.864A.245.245,0,0,1,740.336,4840.965Z" transform="translate(-731.981 -4840.72)" fill="#8c757e"/>
              </g>
              <g id="Grupo_54417" data-name="Grupo 54417" transform="translate(0.409 178.43)">
                <path id="Trazado_103107" data-name="Trazado 103107" d="M740.336,4850.419a.246.246,0,0,1-.246.246h-7.864a.246.246,0,0,1,0-.492h7.864A.246.246,0,0,1,740.336,4850.419Z" transform="translate(-731.981 -4850.173)" fill="#8c757e"/>
              </g>
              <g id="Grupo_54418" data-name="Grupo 54418" transform="translate(0 103.2)">
                <path id="Trazado_103108" data-name="Trazado 103108" d="M765.308,4712.984a.656.656,0,0,1-.656.656H731.886a.656.656,0,0,1,0-1.311h32.766A.656.656,0,0,1,765.308,4712.984Z" transform="translate(-731.231 -4712.329)" fill="#8c757e"/>
              </g>
              <g id="Grupo_54419" data-name="Grupo 54419" transform="translate(0.164 129.164)">
                <path id="Trazado_103109" data-name="Trazado 103109" d="M755.45,4760.395a.491.491,0,0,1-.491.491H732.022a.491.491,0,0,1,0-.983h22.937A.492.492,0,0,1,755.45,4760.395Z" transform="translate(-731.531 -4759.903)" fill="#8c757e"/>
              </g>
              <g id="Grupo_54420" data-name="Grupo 54420" transform="translate(0.409 134.57)">
                <path id="Trazado_103110" data-name="Trazado 103110" d="M745.579,4770.054a.246.246,0,0,1-.246.246H732.227a.246.246,0,0,1,0-.492h13.106A.246.246,0,0,1,745.579,4770.054Z" transform="translate(-731.981 -4769.808)" fill="#8c757e"/>
              </g>
              <g id="Grupo_54421" data-name="Grupo 54421" transform="translate(0.409 139.73)">
                <path id="Trazado_103111" data-name="Trazado 103111" d="M745.579,4779.508a.246.246,0,0,1-.246.246H732.227a.246.246,0,0,1,0-.492h13.106A.246.246,0,0,1,745.579,4779.508Z" transform="translate(-731.981 -4779.263)" fill="#8c757e"/>
              </g>
              <g id="Grupo_54422" data-name="Grupo 54422" transform="translate(0.409 144.89)">
                <path id="Trazado_103112" data-name="Trazado 103112" d="M745.579,4788.963a.246.246,0,0,1-.246.246H732.227a.246.246,0,0,1,0-.492h13.106A.246.246,0,0,1,745.579,4788.963Z" transform="translate(-731.981 -4788.718)" fill="#8c757e"/>
              </g>
              <g id="Grupo_54423" data-name="Grupo 54423" transform="translate(0.409 150.05)">
                <path id="Trazado_103113" data-name="Trazado 103113" d="M745.579,4798.418a.245.245,0,0,1-.246.245H732.227a.245.245,0,1,1,0-.491h13.106A.246.246,0,0,1,745.579,4798.418Z" transform="translate(-731.981 -4798.173)" fill="#8c757e"/>
              </g>
              <g id="Grupo_54424" data-name="Grupo 54424" transform="translate(0.409 137.15)">
                <path id="Trazado_103114" data-name="Trazado 103114" d="M740.336,4774.782a.245.245,0,0,1-.246.245h-7.864a.245.245,0,1,1,0-.491h7.864A.245.245,0,0,1,740.336,4774.782Z" transform="translate(-731.981 -4774.536)" fill="#8c757e"/>
              </g>
              <g id="Grupo_54425" data-name="Grupo 54425" transform="translate(0.409 131.99)">
                <path id="Trazado_103115" data-name="Trazado 103115" d="M740.336,4765.327a.246.246,0,0,1-.246.246h-7.864a.246.246,0,0,1,0-.491h7.864A.246.246,0,0,1,740.336,4765.327Z" transform="translate(-731.981 -4765.081)" fill="#8c757e"/>
              </g>
              <g id="Grupo_54426" data-name="Grupo 54426" transform="translate(0.409 142.31)">
                <path id="Trazado_103116" data-name="Trazado 103116" d="M740.336,4784.235a.246.246,0,0,1-.246.246h-7.864a.246.246,0,0,1,0-.491h7.864A.245.245,0,0,1,740.336,4784.235Z" transform="translate(-731.981 -4783.99)" fill="#8c757e"/>
              </g>
              <g id="Grupo_54427" data-name="Grupo 54427" transform="translate(0.409 147.47)">
                <path id="Trazado_103117" data-name="Trazado 103117" d="M740.336,4793.691a.246.246,0,0,1-.246.245h-7.864a.246.246,0,0,1,0-.491h7.864A.246.246,0,0,1,740.336,4793.691Z" transform="translate(-731.981 -4793.445)" fill="#8c757e"/>
              </g>
              <g id="Grupo_54428" data-name="Grupo 54428" transform="translate(0.409 152.63)">
                <path id="Trazado_103118" data-name="Trazado 103118" d="M740.336,4803.146a.245.245,0,0,1-.246.246h-7.864a.245.245,0,1,1,0-.491h7.864A.245.245,0,0,1,740.336,4803.146Z" transform="translate(-731.981 -4802.9)" fill="#8c757e"/>
              </g>
              <g id="Grupo_54429" data-name="Grupo 54429" transform="translate(0.409 108.77)">
                <path id="Trazado_103119" data-name="Trazado 103119" d="M745.579,4722.779a.246.246,0,0,1-.246.246H732.227a.246.246,0,0,1,0-.491h13.106A.245.245,0,0,1,745.579,4722.779Z" transform="translate(-731.981 -4722.534)" fill="#8c757e"/>
              </g>
              <g id="Grupo_54430" data-name="Grupo 54430" transform="translate(0.409 113.93)">
                <path id="Trazado_103120" data-name="Trazado 103120" d="M745.579,4732.234a.246.246,0,0,1-.246.246H732.227a.246.246,0,0,1,0-.492h13.106A.246.246,0,0,1,745.579,4732.234Z" transform="translate(-731.981 -4731.989)" fill="#8c757e"/>
              </g>
              <g id="Grupo_54431" data-name="Grupo 54431" transform="translate(0.409 119.09)">
                <path id="Trazado_103121" data-name="Trazado 103121" d="M745.579,4741.69a.246.246,0,0,1-.246.246H732.227a.246.246,0,0,1,0-.492h13.106A.246.246,0,0,1,745.579,4741.69Z" transform="translate(-731.981 -4741.444)" fill="#8c757e"/>
              </g>
              <g id="Grupo_54432" data-name="Grupo 54432" transform="translate(0.409 124.25)">
                <path id="Trazado_103122" data-name="Trazado 103122" d="M745.579,4751.145a.245.245,0,0,1-.246.245H732.227a.245.245,0,1,1,0-.491h13.106A.246.246,0,0,1,745.579,4751.145Z" transform="translate(-731.981 -4750.899)" fill="#8c757e"/>
              </g>
              <g id="Grupo_54433" data-name="Grupo 54433" transform="translate(0.409 111.35)">
                <path id="Trazado_103123" data-name="Trazado 103123" d="M740.336,4727.507a.246.246,0,0,1-.246.246h-7.864a.246.246,0,0,1,0-.492h7.864A.246.246,0,0,1,740.336,4727.507Z" transform="translate(-731.981 -4727.261)" fill="#8c757e"/>
              </g>
              <g id="Grupo_54434" data-name="Grupo 54434" transform="translate(0.409 106.19)">
                <path id="Trazado_103124" data-name="Trazado 103124" d="M740.336,4718.053a.246.246,0,0,1-.246.246h-7.864a.246.246,0,0,1,0-.492h7.864A.246.246,0,0,1,740.336,4718.053Z" transform="translate(-731.981 -4717.808)" fill="#8c757e"/>
              </g>
              <g id="Grupo_54435" data-name="Grupo 54435" transform="translate(0.409 116.51)">
                <path id="Trazado_103125" data-name="Trazado 103125" d="M740.336,4736.962a.247.247,0,0,1-.246.247h-7.864a.246.246,0,0,1,0-.492h7.864A.246.246,0,0,1,740.336,4736.962Z" transform="translate(-731.981 -4736.717)" fill="#8c757e"/>
              </g>
              <g id="Grupo_54436" data-name="Grupo 54436" transform="translate(0.409 121.67)">
                <path id="Trazado_103126" data-name="Trazado 103126" d="M740.336,4746.417a.247.247,0,0,1-.246.247h-7.864a.246.246,0,0,1,0-.492h7.864A.246.246,0,0,1,740.336,4746.417Z" transform="translate(-731.981 -4746.172)" fill="#8c757e"/>
              </g>
              <g id="Grupo_54437" data-name="Grupo 54437" transform="translate(0.409 126.83)">
                <path id="Trazado_103127" data-name="Trazado 103127" d="M740.336,4755.871a.246.246,0,0,1-.246.246h-7.864a.246.246,0,0,1,0-.491h7.864A.246.246,0,0,1,740.336,4755.871Z" transform="translate(-731.981 -4755.625)" fill="#8c757e"/>
              </g>
              <g id="Grupo_54438" data-name="Grupo 54438" transform="translate(0 51.6)">
                <path id="Trazado_103128" data-name="Trazado 103128" d="M765.308,4618.437a.655.655,0,0,1-.656.656H731.886a.655.655,0,0,1,0-1.311h32.766A.655.655,0,0,1,765.308,4618.437Z" transform="translate(-731.231 -4617.782)" fill="#8c757e"/>
              </g>
              <g id="Grupo_54439" data-name="Grupo 54439" transform="translate(0.164 77.564)">
                <path id="Trazado_103129" data-name="Trazado 103129" d="M755.45,4665.848a.492.492,0,0,1-.491.492H732.022a.492.492,0,0,1,0-.983h22.937A.491.491,0,0,1,755.45,4665.848Z" transform="translate(-731.531 -4665.356)" fill="#8c757e"/>
              </g>
              <g id="Grupo_54440" data-name="Grupo 54440" transform="translate(0.409 82.97)">
                <path id="Trazado_103130" data-name="Trazado 103130" d="M745.579,4675.506a.246.246,0,0,1-.246.246H732.227a.245.245,0,1,1,0-.491h13.106A.245.245,0,0,1,745.579,4675.506Z" transform="translate(-731.981 -4675.261)" fill="#8c757e"/>
              </g>
              <g id="Grupo_54441" data-name="Grupo 54441" transform="translate(0.409 88.13)">
                <path id="Trazado_103131" data-name="Trazado 103131" d="M745.579,4684.961a.246.246,0,0,1-.246.246H732.227a.246.246,0,0,1,0-.492h13.106A.247.247,0,0,1,745.579,4684.961Z" transform="translate(-731.981 -4684.715)" fill="#8c757e"/>
              </g>
              <g id="Grupo_54442" data-name="Grupo 54442" transform="translate(0.409 93.29)">
                <path id="Trazado_103132" data-name="Trazado 103132" d="M745.579,4694.416a.247.247,0,0,1-.246.247H732.227a.246.246,0,0,1,0-.492h13.106A.246.246,0,0,1,745.579,4694.416Z" transform="translate(-731.981 -4694.17)" fill="#8c757e"/>
              </g>
              <g id="Grupo_54443" data-name="Grupo 54443" transform="translate(0.409 98.45)">
                <path id="Trazado_103133" data-name="Trazado 103133" d="M745.579,4703.87a.246.246,0,0,1-.246.246H732.227a.246.246,0,0,1,0-.492h13.106A.246.246,0,0,1,745.579,4703.87Z" transform="translate(-731.981 -4703.625)" fill="#8c757e"/>
              </g>
              <g id="Grupo_54444" data-name="Grupo 54444" transform="translate(0.409 85.55)">
                <path id="Trazado_103134" data-name="Trazado 103134" d="M740.336,4680.235a.246.246,0,0,1-.246.246h-7.864a.246.246,0,0,1,0-.492h7.864A.246.246,0,0,1,740.336,4680.235Z" transform="translate(-731.981 -4679.989)" fill="#8c757e"/>
              </g>
              <g id="Grupo_54445" data-name="Grupo 54445" transform="translate(0.409 80.39)">
                <path id="Trazado_103135" data-name="Trazado 103135" d="M740.336,4670.779a.245.245,0,0,1-.246.245h-7.864a.245.245,0,1,1,0-.491h7.864A.245.245,0,0,1,740.336,4670.779Z" transform="translate(-731.981 -4670.533)" fill="#8c757e"/>
              </g>
              <g id="Grupo_54446" data-name="Grupo 54446" transform="translate(0.409 90.709)">
                <path id="Trazado_103136" data-name="Trazado 103136" d="M740.336,4689.688a.246.246,0,0,1-.246.246h-7.864a.246.246,0,0,1,0-.492h7.864A.246.246,0,0,1,740.336,4689.688Z" transform="translate(-731.981 -4689.442)" fill="#8c757e"/>
              </g>
              <g id="Grupo_54447" data-name="Grupo 54447" transform="translate(0.409 95.87)">
                <path id="Trazado_103137" data-name="Trazado 103137" d="M740.336,4699.144a.246.246,0,0,1-.246.246h-7.864a.246.246,0,0,1,0-.492h7.864A.246.246,0,0,1,740.336,4699.144Z" transform="translate(-731.981 -4698.898)" fill="#8c757e"/>
              </g>
              <g id="Grupo_54448" data-name="Grupo 54448" transform="translate(0.409 101.03)">
                <path id="Trazado_103138" data-name="Trazado 103138" d="M740.336,4708.6a.246.246,0,0,1-.246.246h-7.864a.246.246,0,0,1,0-.491h7.864A.246.246,0,0,1,740.336,4708.6Z" transform="translate(-731.981 -4708.352)" fill="#8c757e"/>
              </g>
              <g id="Grupo_54449" data-name="Grupo 54449" transform="translate(0.409 57.17)">
                <path id="Trazado_103139" data-name="Trazado 103139" d="M745.579,4628.232a.246.246,0,0,1-.246.246H732.227a.246.246,0,0,1,0-.491h13.106A.245.245,0,0,1,745.579,4628.232Z" transform="translate(-731.981 -4627.987)" fill="#8c757e"/>
              </g>
              <g id="Grupo_54450" data-name="Grupo 54450" transform="translate(0.409 62.33)">
                <path id="Trazado_103140" data-name="Trazado 103140" d="M745.579,4637.688a.246.246,0,0,1-.246.246H732.227a.246.246,0,0,1,0-.491h13.106A.246.246,0,0,1,745.579,4637.688Z" transform="translate(-731.981 -4637.442)" fill="#8c757e"/>
              </g>
              <g id="Grupo_54451" data-name="Grupo 54451" transform="translate(0.409 67.49)">
                <path id="Trazado_103141" data-name="Trazado 103141" d="M745.579,4647.142a.245.245,0,0,1-.246.245H732.227a.246.246,0,0,1,0-.491h13.106A.246.246,0,0,1,745.579,4647.142Z" transform="translate(-731.981 -4646.896)" fill="#8c757e"/>
              </g>
              <g id="Grupo_54452" data-name="Grupo 54452" transform="translate(0.409 72.65)">
                <path id="Trazado_103142" data-name="Trazado 103142" d="M745.579,4656.6a.246.246,0,0,1-.246.246H732.227a.246.246,0,0,1,0-.492h13.106A.246.246,0,0,1,745.579,4656.6Z" transform="translate(-731.981 -4656.351)" fill="#8c757e"/>
              </g>
              <g id="Grupo_54453" data-name="Grupo 54453" transform="translate(0.409 59.75)">
                <path id="Trazado_103143" data-name="Trazado 103143" d="M740.336,4632.959a.246.246,0,0,1-.246.246h-7.864a.246.246,0,0,1,0-.491h7.864A.246.246,0,0,1,740.336,4632.959Z" transform="translate(-731.981 -4632.713)" fill="#8c757e"/>
              </g>
              <g id="Grupo_54454" data-name="Grupo 54454" transform="translate(0.409 54.59)">
                <path id="Trazado_103144" data-name="Trazado 103144" d="M740.336,4623.505a.247.247,0,0,1-.246.247h-7.864a.246.246,0,0,1,0-.492h7.864A.246.246,0,0,1,740.336,4623.505Z" transform="translate(-731.981 -4623.26)" fill="#8c757e"/>
              </g>
              <g id="Grupo_54455" data-name="Grupo 54455" transform="translate(0.409 64.91)">
                <path id="Trazado_103145" data-name="Trazado 103145" d="M740.336,4642.415a.246.246,0,0,1-.246.246h-7.864a.246.246,0,0,1,0-.491h7.864A.246.246,0,0,1,740.336,4642.415Z" transform="translate(-731.981 -4642.169)" fill="#8c757e"/>
              </g>
              <g id="Grupo_54456" data-name="Grupo 54456" transform="translate(0.409 70.069)">
                <path id="Trazado_103146" data-name="Trazado 103146" d="M740.336,4651.868a.246.246,0,0,1-.246.246h-7.864a.246.246,0,0,1,0-.492h7.864A.246.246,0,0,1,740.336,4651.868Z" transform="translate(-731.981 -4651.623)" fill="#8c757e"/>
              </g>
              <g id="Grupo_54457" data-name="Grupo 54457" transform="translate(0.409 75.23)">
                <path id="Trazado_103147" data-name="Trazado 103147" d="M740.336,4661.324a.246.246,0,0,1-.246.247h-7.864a.246.246,0,0,1,0-.492h7.864A.246.246,0,0,1,740.336,4661.324Z" transform="translate(-731.981 -4661.079)" fill="#8c757e"/>
              </g>
              <g id="Grupo_54458" data-name="Grupo 54458">
                <path id="Trazado_103148" data-name="Trazado 103148" d="M765.308,4523.89a.655.655,0,0,1-.656.654H731.886a.655.655,0,0,1,0-1.311h32.766A.655.655,0,0,1,765.308,4523.89Z" transform="translate(-731.231 -4523.233)" fill="#8c757e"/>
              </g>
              <g id="Grupo_54459" data-name="Grupo 54459" transform="translate(0.164 25.964)">
                <path id="Trazado_103149" data-name="Trazado 103149" d="M755.45,4571.3a.491.491,0,0,1-.491.491H732.022a.491.491,0,1,1,0-.982h22.937A.491.491,0,0,1,755.45,4571.3Z" transform="translate(-731.531 -4570.808)" fill="#8c757e"/>
              </g>
              <g id="Grupo_54460" data-name="Grupo 54460" transform="translate(0.409 31.37)">
                <path id="Trazado_103150" data-name="Trazado 103150" d="M745.579,4580.958a.246.246,0,0,1-.246.246H732.227a.246.246,0,0,1,0-.492h13.106A.246.246,0,0,1,745.579,4580.958Z" transform="translate(-731.981 -4580.712)" fill="#8c757e"/>
              </g>
              <g id="Grupo_54461" data-name="Grupo 54461" transform="translate(0.409 36.53)">
                <path id="Trazado_103151" data-name="Trazado 103151" d="M745.579,4590.413a.246.246,0,0,1-.246.246H732.227a.246.246,0,0,1,0-.491h13.106A.245.245,0,0,1,745.579,4590.413Z" transform="translate(-731.981 -4590.168)" fill="#8c757e"/>
              </g>
              <g id="Grupo_54462" data-name="Grupo 54462" transform="translate(0.409 41.69)">
                <path id="Trazado_103152" data-name="Trazado 103152" d="M745.579,4599.869a.246.246,0,0,1-.246.246H732.227a.246.246,0,0,1,0-.491h13.106A.246.246,0,0,1,745.579,4599.869Z" transform="translate(-731.981 -4599.623)" fill="#8c757e"/>
              </g>
              <g id="Grupo_54463" data-name="Grupo 54463" transform="translate(0.409 46.85)">
                <path id="Trazado_103153" data-name="Trazado 103153" d="M745.579,4609.323a.246.246,0,0,1-.246.246H732.227a.246.246,0,0,1,0-.492h13.106A.246.246,0,0,1,745.579,4609.323Z" transform="translate(-731.981 -4609.077)" fill="#8c757e"/>
              </g>
              <g id="Grupo_54464" data-name="Grupo 54464" transform="translate(0.409 33.95)">
                <path id="Trazado_103154" data-name="Trazado 103154" d="M740.336,4585.687a.245.245,0,0,1-.246.246h-7.864a.246.246,0,0,1,0-.492h7.864A.246.246,0,0,1,740.336,4585.687Z" transform="translate(-731.981 -4585.44)" fill="#8c757e"/>
              </g>
              <g id="Grupo_54465" data-name="Grupo 54465" transform="translate(0.409 28.789)">
                <path id="Trazado_103155" data-name="Trazado 103155" d="M740.336,4576.23a.246.246,0,0,1-.246.246h-7.864a.246.246,0,0,1,0-.491h7.864A.245.245,0,0,1,740.336,4576.23Z" transform="translate(-731.981 -4575.985)" fill="#8c757e"/>
              </g>
              <g id="Grupo_54466" data-name="Grupo 54466" transform="translate(0.409 39.11)">
                <path id="Trazado_103156" data-name="Trazado 103156" d="M740.336,4595.141a.246.246,0,0,1-.246.245h-7.864a.246.246,0,0,1,0-.491h7.864A.246.246,0,0,1,740.336,4595.141Z" transform="translate(-731.981 -4594.895)" fill="#8c757e"/>
              </g>
              <g id="Grupo_54467" data-name="Grupo 54467" transform="translate(0.409 44.27)">
                <path id="Trazado_103157" data-name="Trazado 103157" d="M740.336,4604.6a.246.246,0,0,1-.246.245h-7.864a.246.246,0,0,1,0-.491h7.864A.246.246,0,0,1,740.336,4604.6Z" transform="translate(-731.981 -4604.35)" fill="#8c757e"/>
              </g>
              <g id="Grupo_54468" data-name="Grupo 54468" transform="translate(0.409 49.429)">
                <path id="Trazado_103158" data-name="Trazado 103158" d="M740.336,4614.05a.246.246,0,0,1-.246.246h-7.864a.246.246,0,0,1,0-.491h7.864A.245.245,0,0,1,740.336,4614.05Z" transform="translate(-731.981 -4613.805)" fill="#8c757e"/>
              </g>
              <g id="Grupo_54469" data-name="Grupo 54469" transform="translate(0.409 5.57)">
                <path id="Trazado_103159" data-name="Trazado 103159" d="M745.579,4533.685a.246.246,0,0,1-.246.246H732.227a.246.246,0,0,1,0-.492h13.106A.246.246,0,0,1,745.579,4533.685Z" transform="translate(-731.981 -4533.438)" fill="#8c757e"/>
              </g>
              <g id="Grupo_54470" data-name="Grupo 54470" transform="translate(0.409 10.73)">
                <path id="Trazado_103160" data-name="Trazado 103160" d="M745.579,4543.14a.246.246,0,0,1-.246.246H732.227a.246.246,0,0,1,0-.491h13.106A.245.245,0,0,1,745.579,4543.14Z" transform="translate(-731.981 -4542.895)" fill="#8c757e"/>
              </g>
              <g id="Grupo_54471" data-name="Grupo 54471" transform="translate(0.409 15.89)">
                <path id="Trazado_103161" data-name="Trazado 103161" d="M745.579,4552.595a.246.246,0,0,1-.246.246H732.227a.246.246,0,0,1,0-.492h13.106A.246.246,0,0,1,745.579,4552.595Z" transform="translate(-731.981 -4552.349)" fill="#8c757e"/>
              </g>
              <g id="Grupo_54472" data-name="Grupo 54472" transform="translate(0.409 21.05)">
                <path id="Trazado_103162" data-name="Trazado 103162" d="M745.579,4562.049a.246.246,0,0,1-.246.246H732.227a.246.246,0,0,1,0-.492h13.106A.246.246,0,0,1,745.579,4562.049Z" transform="translate(-731.981 -4561.803)" fill="#8c757e"/>
              </g>
              <g id="Grupo_54473" data-name="Grupo 54473" transform="translate(0.409 8.149)">
                <path id="Trazado_103163" data-name="Trazado 103163" d="M740.336,4538.412a.247.247,0,0,1-.246.247h-7.864a.246.246,0,0,1,0-.492h7.864A.246.246,0,0,1,740.336,4538.412Z" transform="translate(-731.981 -4538.166)" fill="#8c757e"/>
              </g>
              <g id="Grupo_54474" data-name="Grupo 54474" transform="translate(0.409 2.99)">
                <path id="Trazado_103164" data-name="Trazado 103164" d="M740.336,4528.958a.246.246,0,0,1-.246.246h-7.864a.246.246,0,0,1,0-.492h7.864A.246.246,0,0,1,740.336,4528.958Z" transform="translate(-731.981 -4528.712)" fill="#8c757e"/>
              </g>
              <g id="Grupo_54475" data-name="Grupo 54475" transform="translate(0.409 13.31)">
                <path id="Trazado_103165" data-name="Trazado 103165" d="M740.336,4547.868a.246.246,0,0,1-.246.246h-7.864a.246.246,0,0,1,0-.492h7.864A.246.246,0,0,1,740.336,4547.868Z" transform="translate(-731.981 -4547.622)" fill="#8c757e"/>
              </g>
              <g id="Grupo_54476" data-name="Grupo 54476" transform="translate(0.409 18.469)">
                <path id="Trazado_103166" data-name="Trazado 103166" d="M740.336,4557.321a.246.246,0,0,1-.246.245h-7.864a.246.246,0,0,1,0-.491h7.864A.246.246,0,0,1,740.336,4557.321Z" transform="translate(-731.981 -4557.075)" fill="#8c757e"/>
              </g>
              <g id="Grupo_54477" data-name="Grupo 54477" transform="translate(0.409 23.63)">
                <path id="Trazado_103167" data-name="Trazado 103167" d="M740.336,4566.776a.246.246,0,0,1-.246.246h-7.864a.246.246,0,0,1,0-.491h7.864A.245.245,0,0,1,740.336,4566.776Z" transform="translate(-731.981 -4566.531)" fill="#8c757e"/>
              </g>
            </g>
            <g id="Grupo_54479" data-name="Grupo 54479" transform="translate(36.455 257.63)">
              <path id="Trazado_103168" data-name="Trazado 103168" d="M801.91,4997.174c-2.525,0-3.882-.909-3.882-2.419s1.357-2.407,3.882-2.407,3.929.909,3.929,2.407S804.435,4997.174,801.91,4997.174Zm0-3.882c-2.206,0-3.1.591-3.1,1.463s.9,1.476,3.1,1.476,3.151-.59,3.151-1.476S804.117,4993.292,801.91,4993.292Z" transform="translate(-798.028 -4992.349)" fill="#8c757e"/>
            </g>
            <g id="Grupo_54480" data-name="Grupo 54480" transform="translate(36.597 206.259)">
              <path id="Trazado_103169" data-name="Trazado 103169" d="M805.013,4902.469v-1.722h-5.545v1.368h-.625a4.479,4.479,0,0,0-.554-1.593v-.743h6.725v-1.558h.8v4.248Z" transform="translate(-798.288 -4898.222)" fill="#8c757e"/>
            </g>
            <g id="Grupo_54481" data-name="Grupo 54481" transform="translate(36.455 154.571)">
              <path id="Trazado_103170" data-name="Trazado 103170" d="M805.12,4808.373c-2.253-2.265-3.611-3.54-4.826-3.54a1.333,1.333,0,0,0-1.475,1.427,2.217,2.217,0,0,0,.909,1.6l-.555.554a2.952,2.952,0,0,1-1.145-2.277,2.091,2.091,0,0,1,2.218-2.253c1.416,0,2.82,1.286,4.684,3.068-.036-.414-.07-.873-.07-1.263v-2.183h.838v4.861Z" transform="translate(-798.028 -4803.512)" fill="#8c757e"/>
            </g>
            <g id="Grupo_54482" data-name="Grupo 54482" transform="translate(36.455 103.106)">
              <path id="Trazado_103171" data-name="Trazado 103171" d="M804.14,4713.671a2.552,2.552,0,0,0,.9-1.922,1.4,1.4,0,0,0-1.38-1.558c-.9,0-1.5.613-1.5,2.407h-.744c0-1.6-.613-2.135-1.4-2.135a1.159,1.159,0,0,0-1.192,1.3,2.286,2.286,0,0,0,.767,1.605l-.613.519a3.1,3.1,0,0,1-.944-2.16c0-1.309.7-2.254,1.912-2.254a1.867,1.867,0,0,1,1.793,1.369h.047a1.943,1.943,0,0,1,1.911-1.628,2.232,2.232,0,0,1,2.147,2.479,3.2,3.2,0,0,1-1.062,2.478Z" transform="translate(-798.028 -4709.211)" fill="#8c757e"/>
            </g>
            <g id="Grupo_54483" data-name="Grupo 54483" transform="translate(36.597 51.299)">
              <path id="Trazado_103172" data-name="Trazado 103172" d="M803.739,4614.286v1.026h2.077v.921h-2.077v3.386H803.1l-4.814-3.222v-1.085h4.672v-1.026Zm-.779,1.947h-2.182c-.4,0-1.051-.036-1.451-.06v.047c.366.189.7.4,1.062.613l2.572,1.759Z" transform="translate(-798.288 -4614.286)" fill="#8c757e"/>
            </g>
            <g id="Grupo_54484" data-name="Grupo 54484" transform="translate(36.597)">
              <path id="Trazado_103173" data-name="Trazado 103173" d="M804.294,4524.82a2.561,2.561,0,0,0,.862-1.9,1.625,1.625,0,0,0-1.723-1.652,1.513,1.513,0,0,0-1.651,1.6,2.114,2.114,0,0,0,.46,1.286l-.331.52-3.622-.248v-3.764h.838v2.915l2.23.2a2.309,2.309,0,0,1-.307-1.156,2.167,2.167,0,0,1,2.36-2.335,2.461,2.461,0,0,1,2.549,2.537,3.3,3.3,0,0,1-1.027,2.466Z" transform="translate(-798.288 -4520.29)" fill="#8c757e"/>
            </g>
          </g>
        </g>
      </g>
    </g>
    <rect id="Rectángulo_5174" data-name="Rectángulo 5174" width="8.732" height="27.033" transform="translate(738.522 4508.728)" fill="#8c757e"/>
    <rect id="Rectángulo_5175" data-name="Rectángulo 5175" width="9.871" height="27.033" transform="translate(760.543 4508.728)" fill="#8c757e"/>
    <rect id="Rectángulo_5176" data-name="Rectángulo 5176" width="14.237" height="27.033" transform="translate(786.834 4508.728)" fill="#8c757e"/>
    <rect id="Rectángulo_5177" data-name="Rectángulo 5177" width="17.806" height="24.818" transform="translate(815.916 4510.942)" fill="#8c757e"/>
    <rect id="Rectángulo_5178" data-name="Rectángulo 5178" width="22.033" height="27.033" transform="translate(848.706 4508.728)" fill="#8c757e"/>
    <rect id="Rectángulo_5179" data-name="Rectángulo 5179" width="25.529" height="27.033" transform="translate(881.465 4508.728)" fill="#8c757e"/>
    <g id="Grupo_54489" data-name="Grupo 54489" transform="translate(924.758 4539.354)">
      <path id="Trazado_103174" data-name="Trazado 103174" d="M1089.032,4572.108h-1.457v-5.978H1086.1V4565.1l2.934-.258Z" transform="translate(-1086.098 -4564.845)" fill="#8c757e"/>
      <path id="Trazado_103175" data-name="Trazado 103175" d="M1096.566,4572.732h-1.417l2.664-7.888h1.417Z" transform="translate(-1090.209 -4564.845)" fill="#8c757e"/>
      <path id="Trazado_103176" data-name="Trazado 103176" d="M1107.82,4569.409h.824v1.122h-.824v1.577h-1.452v-1.577H1103.4l-.065-.873,3.014-4.813h1.466Zm-3.123,0h1.671v-2.619l-.03-.011-.115.205Z" transform="translate(-1093.93 -4564.845)" fill="#8c757e"/>
    </g>
    <rect id="Rectángulo_5180" data-name="Rectángulo 5180" width="27.683" height="27.033" transform="translate(918.702 4508.728)" fill="#8c757e"/>
    <g id="Grupo_54490" data-name="Grupo 54490" transform="translate(964.806 4540.197)">
      <path id="Trazado_103177" data-name="Trazado 103177" d="M1161.664,4572.741a1.172,1.172,0,0,0,.936-.424,1.826,1.826,0,0,0,.362-1.217v-.359a1.621,1.621,0,0,1-.581.47,1.673,1.673,0,0,1-.726.16,2.012,2.012,0,0,1-1.594-.662,2.611,2.611,0,0,1-.581-1.789,2.514,2.514,0,0,1,.689-1.809,2.5,2.5,0,0,1,3.557.044,3.1,3.1,0,0,1,.694,2.154v1.716a2.777,2.777,0,0,1-.776,2.08,2.714,2.714,0,0,1-1.979.759,4.075,4.075,0,0,1-.781-.078,3.455,3.455,0,0,1-.746-.228l.17-1.057a3.48,3.48,0,0,0,.641.182A4.007,4.007,0,0,0,1161.664,4572.741Zm.235-2.439a1.4,1.4,0,0,0,.629-.135,1.18,1.18,0,0,0,.434-.359v-.668a2.175,2.175,0,0,0-.279-1.213.871.871,0,0,0-.758-.415.836.836,0,0,0-.717.41,1.741,1.741,0,0,0-.277,1,1.783,1.783,0,0,0,.252,1A.807.807,0,0,0,1161.9,4570.3Z" transform="translate(-1159.479 -4566.39)" fill="#8c757e"/>
      <path id="Trazado_103178" data-name="Trazado 103178" d="M1170.76,4574.471h-1.417l2.664-7.888h1.417Z" transform="translate(-1163.96 -4566.478)" fill="#8c757e"/>
      <path id="Trazado_103179" data-name="Trazado 103179" d="M1179.269,4569.508h.818a.994.994,0,0,0,.768-.271,1.075,1.075,0,0,0,.249-.755.984.984,0,0,0-.249-.7.947.947,0,0,0-.723-.265,1.021,1.021,0,0,0-.689.241.785.785,0,0,0-.279.628h-1.412l-.01-.03a1.654,1.654,0,0,1,.653-1.408,2.611,2.611,0,0,1,1.7-.553,2.794,2.794,0,0,1,1.8.539,1.858,1.858,0,0,1,.671,1.537,1.542,1.542,0,0,1-.3.9,1.989,1.989,0,0,1-.823.666,1.845,1.845,0,0,1,.921.659,1.731,1.731,0,0,1,.316,1.032,1.888,1.888,0,0,1-.726,1.57,2.918,2.918,0,0,1-1.858.571,2.845,2.845,0,0,1-1.739-.537,1.715,1.715,0,0,1-.7-1.514l.01-.03h1.411a.888.888,0,0,0,.3.688,1.239,1.239,0,0,0,1.554-.009,1,1,0,0,0,.292-.756,1.1,1.1,0,0,0-.287-.838,1.2,1.2,0,0,0-.846-.268h-.818Z" transform="translate(-1167.734 -4566.39)" fill="#8c757e"/>
      <path id="Trazado_103180" data-name="Trazado 103180" d="M1193.524,4573.759h-4.959v-.954l2.349-2.52a5.625,5.625,0,0,0,.724-.985,1.6,1.6,0,0,0,.214-.746,1.125,1.125,0,0,0-.247-.751.87.87,0,0,0-.7-.292.9.9,0,0,0-.766.343,1.458,1.458,0,0,0-.262.91h-1.417l-.01-.03a2.2,2.2,0,0,1,.646-1.664,2.426,2.426,0,0,1,1.809-.682,2.52,2.52,0,0,1,1.764.584,2,2,0,0,1,.641,1.556,2.189,2.189,0,0,1-.362,1.215,12.1,12.1,0,0,1-1.195,1.459l-1.293,1.407.01.025h3.053Z" transform="translate(-1172.638 -4566.39)" fill="#8c757e"/>
    </g>
    <rect id="Rectángulo_5181" data-name="Rectángulo 5181" width="28.717" height="27.033" transform="translate(961.271 4508.728)" fill="#8c757e"/>
    <g id="Grupo_54491" data-name="Grupo 54491" transform="translate(1010.112 4540.197)">
      <path id="Trazado_103181" data-name="Trazado 103181" d="M1245.411,4566.39a3.5,3.5,0,0,1,.756.077,4.066,4.066,0,0,1,.7.228l-.259,1.067a5.792,5.792,0,0,0-.586-.172,2.809,2.809,0,0,0-.6-.057,1.3,1.3,0,0,0-1.065.5,2.017,2.017,0,0,0-.372,1.375l.015.025a1.683,1.683,0,0,1,.618-.4,2.318,2.318,0,0,1,.843-.145,1.844,1.844,0,0,1,1.524.691,2.744,2.744,0,0,1,.551,1.765,2.517,2.517,0,0,1-.681,1.811,2.329,2.329,0,0,1-1.763.713,2.442,2.442,0,0,1-1.876-.781,3.061,3.061,0,0,1-.723-2.164V4569.5a3.113,3.113,0,0,1,.823-2.271A2.8,2.8,0,0,1,1245.411,4566.39Zm-.334,3.6a1.642,1.642,0,0,0-.689.13,1.038,1.038,0,0,0-.439.353v.483a2.367,2.367,0,0,0,.311,1.325.957.957,0,0,0,.831.462.829.829,0,0,0,.721-.411,1.757,1.757,0,0,0,.272-.993,1.611,1.611,0,0,0-.275-.977A.865.865,0,0,0,1245.077,4569.987Z" transform="translate(-1242.493 -4566.39)" fill="#8c757e"/>
      <path id="Trazado_103182" data-name="Trazado 103182" d="M1253.619,4574.471H1252.2l2.664-7.888h1.417Z" transform="translate(-1246.903 -4566.478)" fill="#8c757e"/>
      <path id="Trazado_103183" data-name="Trazado 103183" d="M1264.368,4573.847h-1.457v-5.977h-1.477v-1.028l2.933-.259Z" transform="translate(-1251.097 -4566.478)" fill="#8c757e"/>
      <path id="Trazado_103184" data-name="Trazado 103184" d="M1274.438,4566.39a3.5,3.5,0,0,1,.757.077,4.065,4.065,0,0,1,.7.228l-.259,1.067a5.72,5.72,0,0,0-.586-.172,2.8,2.8,0,0,0-.6-.057,1.3,1.3,0,0,0-1.065.5,2.015,2.015,0,0,0-.371,1.375l.015.025a1.688,1.688,0,0,1,.619-.4,2.315,2.315,0,0,1,.843-.145,1.845,1.845,0,0,1,1.524.691,2.747,2.747,0,0,1,.551,1.765,2.517,2.517,0,0,1-.681,1.811,2.33,2.33,0,0,1-1.763.713,2.443,2.443,0,0,1-1.876-.781,3.063,3.063,0,0,1-.723-2.164V4569.5a3.114,3.114,0,0,1,.823-2.271A2.805,2.805,0,0,1,1274.438,4566.39Zm-.334,3.6a1.636,1.636,0,0,0-.689.13,1.042,1.042,0,0,0-.439.353v.483a2.369,2.369,0,0,0,.312,1.325.957.957,0,0,0,.831.462.829.829,0,0,0,.721-.411,1.758,1.758,0,0,0,.272-.993,1.612,1.612,0,0,0-.274-.977A.865.865,0,0,0,1274.1,4569.987Z" transform="translate(-1255.678 -4566.39)" fill="#8c757e"/>
    </g>
    <g id="Grupo_54492" data-name="Grupo 54492" transform="translate(1013.253 4572.12)">
      <path id="Trazado_103185" data-name="Trazado 103185" d="M1249.391,4627.815v-1.458h5.977v-1.477h1.028l.259,2.934Z" transform="translate(-1248.768 -4624.881)" fill="#8c757e"/>
      <path id="Trazado_103186" data-name="Trazado 103186" d="M1249.391,4638.558V4637.1h5.977v-1.477h1.028l.259,2.934Z" transform="translate(-1248.768 -4629.761)" fill="#8c757e"/>
      <path id="Trazado_103187" data-name="Trazado 103187" d="M1248.249,4646.092v-1.417l7.888,2.665v1.416Z" transform="translate(-1248.249 -4633.873)" fill="#8c757e"/>
      <path id="Trazado_103188" data-name="Trazado 103188" d="M1253.555,4654.6v.818a.994.994,0,0,0,.272.769,1.075,1.075,0,0,0,.756.249.981.981,0,0,0,.7-.249.948.948,0,0,0,.265-.723,1.02,1.02,0,0,0-.24-.688.788.788,0,0,0-.628-.279v-1.412l.03-.01a1.653,1.653,0,0,1,1.407.653,2.61,2.61,0,0,1,.553,1.7,2.792,2.792,0,0,1-.539,1.8,1.859,1.859,0,0,1-1.537.67,1.541,1.541,0,0,1-.9-.3,2,2,0,0,1-.667-.823,1.84,1.84,0,0,1-.659.92,1.733,1.733,0,0,1-1.032.317,1.887,1.887,0,0,1-1.569-.726,2.915,2.915,0,0,1-.571-1.858,2.847,2.847,0,0,1,.536-1.739,1.716,1.716,0,0,1,1.515-.7l.029.01v1.412a.887.887,0,0,0-.687.3,1.087,1.087,0,0,0-.27.758,1.1,1.1,0,0,0,.278.8.994.994,0,0,0,.756.292,1.1,1.1,0,0,0,.839-.287,1.2,1.2,0,0,0,.266-.846v-.818Z" transform="translate(-1248.681 -4637.646)" fill="#8c757e"/>
      <path id="Trazado_103189" data-name="Trazado 103189" d="M1249.391,4668.855V4663.9h.953l2.52,2.35a5.654,5.654,0,0,0,.985.723,1.585,1.585,0,0,0,.745.215,1.125,1.125,0,0,0,.751-.247.869.869,0,0,0,.292-.7.906.906,0,0,0-.342-.766,1.467,1.467,0,0,0-.91-.261v-1.417l.029-.01a2.2,2.2,0,0,1,1.664.646,2.425,2.425,0,0,1,.681,1.808,2.526,2.526,0,0,1-.583,1.765,2,2,0,0,1-1.557.641,2.188,2.188,0,0,1-1.215-.362,12.016,12.016,0,0,1-1.459-1.195l-1.407-1.292-.025.01v3.054Z" transform="translate(-1248.768 -4642.551)" fill="#8c757e"/>
    </g>
    <g id="Grupo_54493" data-name="Grupo 54493" transform="translate(1013.253 4631.009)">
      <path id="Trazado_103190" data-name="Trazado 103190" d="M1253.555,4734.4v.818a.994.994,0,0,0,.272.768,1.075,1.075,0,0,0,.756.249.981.981,0,0,0,.7-.249.948.948,0,0,0,.265-.723,1.022,1.022,0,0,0-.24-.689.789.789,0,0,0-.628-.279v-1.411l.03-.011a1.653,1.653,0,0,1,1.407.653,2.609,2.609,0,0,1,.553,1.7,2.791,2.791,0,0,1-.539,1.8,1.857,1.857,0,0,1-1.537.671,1.538,1.538,0,0,1-.9-.3,1.989,1.989,0,0,1-.667-.823,1.845,1.845,0,0,1-.659.921,1.732,1.732,0,0,1-1.032.316,1.888,1.888,0,0,1-1.569-.726,2.917,2.917,0,0,1-.571-1.858,2.845,2.845,0,0,1,.536-1.739,1.715,1.715,0,0,1,1.515-.7l.029.01v1.411a.888.888,0,0,0-.687.3,1.238,1.238,0,0,0,.008,1.554,1,1,0,0,0,.756.292,1.1,1.1,0,0,0,.839-.287,1.2,1.2,0,0,0,.266-.846v-.818Z" transform="translate(-1248.681 -4732.785)" fill="#8c757e"/>
      <path id="Trazado_103191" data-name="Trazado 103191" d="M1248.249,4744.178v-1.416l7.888,2.663v1.418Z" transform="translate(-1248.249 -4737.317)" fill="#8c757e"/>
      <path id="Trazado_103192" data-name="Trazado 103192" d="M1254.643,4756.048a1.665,1.665,0,0,1-.963-.287,1.9,1.9,0,0,1-.653-.79,2.143,2.143,0,0,1-.7.913,1.7,1.7,0,0,1-1.037.334,1.861,1.861,0,0,1-1.549-.684,3.237,3.237,0,0,1,0-3.584,1.856,1.856,0,0,1,1.549-.686,1.708,1.708,0,0,1,1.04.332,2.145,2.145,0,0,1,.7.915,1.9,1.9,0,0,1,.652-.793,1.663,1.663,0,0,1,.96-.284,1.849,1.849,0,0,1,1.5.633,2.9,2.9,0,0,1,0,3.343A1.844,1.844,0,0,1,1254.643,4756.048Zm-3.251-1.287a1.074,1.074,0,0,0,.781-.285.984.984,0,0,0,.294-.739.964.964,0,0,0-.294-.735,1.09,1.09,0,0,0-.781-.277,1.071,1.071,0,0,0-.784.28.992.992,0,0,0-.286.743.974.974,0,0,0,.288.733A1.073,1.073,0,0,0,1251.392,4754.761Zm3.186-.165a1.038,1.038,0,0,0,.706-.232.789.789,0,0,0,.267-.626.778.778,0,0,0-.263-.624,1.056,1.056,0,0,0-.711-.224,1.076,1.076,0,0,0-.721.227.783.783,0,0,0-.266.631.773.773,0,0,0,.266.621A1.079,1.079,0,0,0,1254.577,4754.6Z" transform="translate(-1248.681 -4741.179)" fill="#8c757e"/>
    </g>
    <g id="Grupo_54494" data-name="Grupo 54494" transform="translate(1013.253 4688.949)">
      <path id="Trazado_103193" data-name="Trazado 103193" d="M1249.391,4841.884v-1.458h5.977v-1.477h1.028l.259,2.934Z" transform="translate(-1248.768 -4838.95)" fill="#8c757e"/>
      <path id="Trazado_103194" data-name="Trazado 103194" d="M1253.555,4850.383v.819a1,1,0,0,0,.272.769,1.08,1.08,0,0,0,.756.25.986.986,0,0,0,.7-.25.95.95,0,0,0,.265-.724,1.018,1.018,0,0,0-.24-.688.788.788,0,0,0-.628-.28v-1.411l.03-.011a1.653,1.653,0,0,1,1.407.653,2.608,2.608,0,0,1,.553,1.7,2.793,2.793,0,0,1-.539,1.8,1.858,1.858,0,0,1-1.537.671,1.542,1.542,0,0,1-.9-.3,1.992,1.992,0,0,1-.667-.823,1.84,1.84,0,0,1-.659.92,1.729,1.729,0,0,1-1.032.317,1.889,1.889,0,0,1-1.569-.726,2.918,2.918,0,0,1-.571-1.859,2.841,2.841,0,0,1,.536-1.738,1.713,1.713,0,0,1,1.515-.7l.029.01v1.411a.888.888,0,0,0-.687.3,1.238,1.238,0,0,0,.008,1.554.994.994,0,0,0,.756.293,1.1,1.1,0,0,0,.839-.287,1.2,1.2,0,0,0,.266-.846v-.819Z" transform="translate(-1248.681 -4843.409)" fill="#8c757e"/>
      <path id="Trazado_103195" data-name="Trazado 103195" d="M1248.249,4860.16v-1.417l7.888,2.664v1.417Z" transform="translate(-1248.249 -4847.941)" fill="#8c757e"/>
      <path id="Trazado_103196" data-name="Trazado 103196" d="M1253.555,4868.669v.819a.993.993,0,0,0,.272.768,1.075,1.075,0,0,0,.756.25.981.981,0,0,0,.7-.25.946.946,0,0,0,.265-.723,1.02,1.02,0,0,0-.24-.688.786.786,0,0,0-.628-.279v-1.412l.03-.01a1.656,1.656,0,0,1,1.407.654,2.609,2.609,0,0,1,.553,1.7,2.79,2.79,0,0,1-.539,1.8,1.856,1.856,0,0,1-1.537.672,1.542,1.542,0,0,1-.9-.3,2,2,0,0,1-.667-.823,1.848,1.848,0,0,1-.659.92,1.735,1.735,0,0,1-1.032.316,1.888,1.888,0,0,1-1.569-.725,2.918,2.918,0,0,1-.571-1.859,2.844,2.844,0,0,1,.536-1.738,1.713,1.713,0,0,1,1.515-.7l.029.009v1.413a.888.888,0,0,0-.687.3,1.087,1.087,0,0,0-.27.758,1.1,1.1,0,0,0,.278.8,1,1,0,0,0,.756.292,1.093,1.093,0,0,0,.839-.288,1.2,1.2,0,0,0,.266-.845v-.819Z" transform="translate(-1248.681 -4851.715)" fill="#8c757e"/>
      <path id="Trazado_103197" data-name="Trazado 103197" d="M1249.391,4882.922v-4.959h.953l2.52,2.35a5.6,5.6,0,0,0,.985.723,1.6,1.6,0,0,0,.745.215,1.122,1.122,0,0,0,.751-.247.868.868,0,0,0,.292-.7.905.905,0,0,0-.342-.766,1.458,1.458,0,0,0-.91-.261v-1.417l.029-.01a2.194,2.194,0,0,1,1.664.646,2.423,2.423,0,0,1,.681,1.809,2.523,2.523,0,0,1-.583,1.764,2.006,2.006,0,0,1-1.557.641,2.185,2.185,0,0,1-1.215-.362,11.982,11.982,0,0,1-1.459-1.2l-1.407-1.292-.025.01v3.052Z" transform="translate(-1248.768 -4856.619)" fill="#8c757e"/>
    </g>
    <rect id="Rectángulo_5182" data-name="Rectángulo 5182" width="32.081" height="27.033" transform="translate(1003.903 4508.728)" fill="#8c757e"/>
    <rect id="Rectángulo_5183" data-name="Rectángulo 5183" width="42.198" height="18.357" transform="translate(1042.913 4563.95) rotate(90)" fill="#8c757e"/>
    <rect id="Rectángulo_5184" data-name="Rectángulo 5184" width="44.135" height="18.357" transform="translate(1042.913 4616.153) rotate(90)" fill="#8c757e"/>
    <rect id="Rectángulo_5185" data-name="Rectángulo 5185" width="45.523" height="18.357" transform="translate(1042.913 4679.117) rotate(90)" fill="#8c757e"/>
    <g id="Grupo_54495" data-name="Grupo 54495" transform="translate(1011.385 4755.868)">
      <path id="Trazado_103198" data-name="Trazado 103198" d="M1252.109,4966.7a8.5,8.5,0,0,0-2.55-1.594,12.517,12.517,0,0,0-2.853-.612l-.739-.069v-1.457l.739.07a10.406,10.406,0,0,1,2.941.729,9.058,9.058,0,0,1,2.462,1.531v-3.732h1.123v5.134Z" transform="translate(-1245.344 -4961.567)" fill="#8c757e"/>
      <path id="Trazado_103199" data-name="Trazado 103199" d="M1244.825,4973.05v-1.417l7.888,2.665v1.417Z" transform="translate(-1244.825 -4966.139)" fill="#8c757e"/>
      <path id="Trazado_103200" data-name="Trazado 103200" d="M1245.967,4983.8v-1.458h5.978v-1.477h1.028l.259,2.934Z" transform="translate(-1245.344 -4970.333)" fill="#8c757e"/>
      <path id="Trazado_103201" data-name="Trazado 103201" d="M1253.249,4993.869a3.45,3.45,0,0,1-.077.756,4.013,4.013,0,0,1-.227.7l-1.068-.259a5.478,5.478,0,0,0,.172-.586,2.81,2.81,0,0,0,.057-.6,1.3,1.3,0,0,0-.5-1.065,2.009,2.009,0,0,0-1.374-.371l-.025.015a1.683,1.683,0,0,1,.4.62,2.319,2.319,0,0,1,.145.843,1.842,1.842,0,0,1-.691,1.523,2.739,2.739,0,0,1-1.764.551,2.515,2.515,0,0,1-1.811-.682,2.328,2.328,0,0,1-.714-1.763,2.443,2.443,0,0,1,.781-1.876,3.063,3.063,0,0,1,2.163-.723h1.416a3.11,3.11,0,0,1,2.27.823A2.8,2.8,0,0,1,1253.249,4993.869Zm-3.6-.334a1.653,1.653,0,0,0-.13-.688,1.045,1.045,0,0,0-.353-.439h-.483a2.364,2.364,0,0,0-1.325.312.958.958,0,0,0-.463.831.828.828,0,0,0,.411.721,1.76,1.76,0,0,0,.993.272,1.61,1.61,0,0,0,.976-.275A.863.863,0,0,0,1249.652,4993.534Z" transform="translate(-1245.256 -4974.914)" fill="#8c757e"/>
    </g>
    <g id="Grupo_54496" data-name="Grupo 54496" transform="translate(827.354 4688.538)">
      <path id="Trazado_103202" data-name="Trazado 103202" d="M920.239,4848.629l.022.065a5.907,5.907,0,0,1-1.637,4.223,6.18,6.18,0,0,1-4.433,1.458,6.479,6.479,0,0,1-4.742-1.792,6.24,6.24,0,0,1-1.825-4.656v-3.283a6.378,6.378,0,0,1,1.755-4.65,6.1,6.1,0,0,1,4.563-1.8,6.359,6.359,0,0,1,4.557,1.5,6.293,6.293,0,0,1,1.782,4.268l-.021.064h-3.553a3.87,3.87,0,0,0-.686-2.279,2.548,2.548,0,0,0-2.079-.745,2.273,2.273,0,0,0-1.955,1,4.407,4.407,0,0,0-.713,2.619v3.3a4.185,4.185,0,0,0,.778,2.635,2.553,2.553,0,0,0,2.138,1,2.242,2.242,0,0,0,1.869-.7,3.963,3.963,0,0,0,.626-2.236Z" transform="translate(-907.624 -4838.196)" fill="#8c757e"/>
      <path id="Trazado_103203" data-name="Trazado 103203" d="M941.737,4851.281H936.78l-.885,3.057h-3.672l5.076-15.726h3.921l5.087,15.726h-3.672Zm-4.148-2.808h3.338l-1.642-5.627h-.065Z" transform="translate(-918.797 -4838.385)" fill="#8c757e"/>
      <path id="Trazado_103204" data-name="Trazado 103204" d="M963.727,4851.529H970.5v2.808H960.066v-15.726h3.661Z" transform="translate(-931.445 -4838.385)" fill="#8c757e"/>
      <path id="Trazado_103205" data-name="Trazado 103205" d="M986.107,4854.337h-3.64v-15.726h3.64Z" transform="translate(-941.621 -4838.385)" fill="#8c757e"/>
      <path id="Trazado_103206" data-name="Trazado 103206" d="M994.1,4854.337v-15.726h5.4a8.229,8.229,0,0,1,4.569,1.085,3.623,3.623,0,0,1,1.642,3.235,3.782,3.782,0,0,1-.529,2,1.383,1.383,0,1,0,.411,2.576,3.714,3.714,0,0,1,.659,2.176,4.1,4.1,0,0,1-1.544,3.478,7.19,7.19,0,0,1-4.428,1.178Zm3.661-9.17h1.814a3.189,3.189,0,0,0,1.858-.479,1.574,1.574,0,0,0,.616-1.345,1.691,1.691,0,0,0-.627-1.463,3.257,3.257,0,0,0-1.922-.459h-1.739Zm0,2.42v3.942h2.516a2.8,2.8,0,0,0,1.75-.459,1.684,1.684,0,0,0,.583-1.409,1.833,1.833,0,0,0-2.128-2.074Z" transform="translate(-946.907 -4838.385)" fill="#8c757e"/>
      <path id="Trazado_103207" data-name="Trazado 103207" d="M1023.789,4848.311v6.027h-3.661v-15.726h6.048a6.794,6.794,0,0,1,4.331,1.264,4.168,4.168,0,0,1,1.6,3.456,3.44,3.44,0,0,1-.643,2.094,4.551,4.551,0,0,1-1.9,1.426,3.522,3.522,0,0,1,2.079,1.366,4.229,4.229,0,0,1,.632,2.382v.994a6.275,6.275,0,0,0,.183,1.4,1.863,1.863,0,0,0,.638,1.124v.216h-3.759a1.8,1.8,0,0,1-.567-1.188,10.122,10.122,0,0,1-.135-1.578v-.95a2.323,2.323,0,0,0-.594-1.717,2.356,2.356,0,0,0-1.739-.594Zm0-2.808h2.408a2.508,2.508,0,0,0,1.685-.5,1.8,1.8,0,0,0,.583-1.442,2.075,2.075,0,0,0-.6-1.549,2.309,2.309,0,0,0-1.69-.588h-2.387Z" transform="translate(-958.728 -4838.385)" fill="#8c757e"/>
      <path id="Trazado_103208" data-name="Trazado 103208" d="M1054.28,4851.281h-4.958l-.885,3.057h-3.672l5.076-15.726h3.921l5.087,15.726h-3.672Zm-4.148-2.808h3.337l-1.641-5.627h-.065Z" transform="translate(-969.919 -4838.385)" fill="#8c757e"/>
      <path id="Trazado_103209" data-name="Trazado 103209" d="M1072.609,4854.337v-15.726h5.681a6.414,6.414,0,0,1,4.644,1.81,6.175,6.175,0,0,1,1.869,4.639v2.829a6.173,6.173,0,0,1-1.869,4.645,6.427,6.427,0,0,1-4.644,1.8Zm3.661-12.917v10.109h1.771a2.785,2.785,0,0,0,2.279-1,4.028,4.028,0,0,0,.821-2.641v-2.851a3.99,3.99,0,0,0-.821-2.624,2.792,2.792,0,0,0-2.279-.994Z" transform="translate(-982.567 -4838.385)" fill="#8c757e"/>
      <path id="Trazado_103210" data-name="Trazado 103210" d="M1111.793,4847.7a6.57,6.57,0,0,1-1.842,4.791,6.428,6.428,0,0,1-4.811,1.885,6.412,6.412,0,0,1-6.707-6.675v-2.829a6.554,6.554,0,0,1,1.853-4.785,7.1,7.1,0,0,1,9.649,0,6.545,6.545,0,0,1,1.858,4.785Zm-3.64-2.851a4.551,4.551,0,0,0-.794-2.765,2.893,2.893,0,0,0-4.5-.006,4.59,4.59,0,0,0-.783,2.771v2.851a4.589,4.589,0,0,0,.794,2.787,2.652,2.652,0,0,0,2.274,1.08,2.592,2.592,0,0,0,2.224-1.08,4.61,4.61,0,0,0,.789-2.787Z" transform="translate(-994.297 -4838.196)" fill="#8c757e"/>
      <path id="Trazado_103211" data-name="Trazado 103211" d="M1130.454,4848.311v6.027h-3.661v-15.726h6.048a6.8,6.8,0,0,1,4.331,1.264,4.168,4.168,0,0,1,1.6,3.456,3.44,3.44,0,0,1-.642,2.094,4.551,4.551,0,0,1-1.9,1.426,3.522,3.522,0,0,1,2.079,1.366,4.227,4.227,0,0,1,.632,2.382v.994a6.275,6.275,0,0,0,.183,1.4,1.863,1.863,0,0,0,.637,1.124v.216h-3.758a1.8,1.8,0,0,1-.567-1.188,10.109,10.109,0,0,1-.135-1.578v-.95a2.324,2.324,0,0,0-.594-1.717,2.358,2.358,0,0,0-1.739-.594Zm0-2.808h2.409a2.508,2.508,0,0,0,1.685-.5,1.8,1.8,0,0,0,.583-1.442,2.074,2.074,0,0,0-.6-1.549,2.309,2.309,0,0,0-1.69-.588h-2.387Z" transform="translate(-1007.18 -4838.385)" fill="#8c757e"/>
    </g>
    <rect id="Rectángulo_5186" data-name="Rectángulo 5186" width="45.523" height="18.357" transform="translate(1042.913 4741.001) rotate(90)" fill="#8c757e"/>
  </g>
</svg>
