<svg xmlns="http://www.w3.org/2000/svg" width="77.307" height="98.561" viewBox="0 0 77.307 98.561">
  <g id="Grupo_56452" data-name="Grupo 56452" transform="translate(-663.406 -3564.354)">
    <path id="Trazado_124909" data-name="Trazado 124909" d="M691.392,3580.647c-5.58,2.3-19.711,7.318-19.711,7.318v0l-.006-.008c-.349.818-7.3,17.292-7.3,28.771,0,9.09-.662,36.359-.964,48.32a3,3,0,0,0,3,3.072h8.581c.116-10.354.689-47.7,2.926-53.24l.044-.125c-.013-.07-.025-.141-.038-.212a103.355,103.355,0,0,1,2.058,15.479c.3,12.884-3.457,20.882-4.789,34.655l-.2,3.445h54.728l-.2-3.445c-1.333-13.773-5.086-21.77-4.79-34.655a103.218,103.218,0,0,1,2.054-15.459c-.012.064-.022.129-.035.192l.044.125c2.238,5.542,2.81,42.887,2.926,53.24h8a3,3,0,0,0,3-3.026c-.12-11.938-.386-39.265-.386-48.366,0-11.479-6.957-27.953-7.3-28.771l-.007.008v0s-14.131-5.021-19.711-7.318" transform="translate(0 -5.21)" fill="#4d4a5b"/>
    <path id="Trazado_124910" data-name="Trazado 124910" d="M731.864,3580.647c5.58,2.3,19.711,7.318,19.711,7.318s-8,29.175-8.293,42.06,3.457,20.882,4.79,34.655l.2,3.445H737.853l-.2-3.445c-1.333-13.773-5.086-21.77-4.789-34.655.224-9.746,4.854-28.813,7.1-37.524a5.148,5.148,0,0,0-3.239-6.126c-4.63-1.671-11.7-4.257-15.276-5.728h10.42" transform="translate(-18.56 -5.21)" fill="#444251"/>
    <path id="Trazado_124911" data-name="Trazado 124911" d="M714.627,3584.269a12.692,12.692,0,0,0,11.988-8.53c-.261-.1-.51-.206-.742-.3-1.656-.682-2.848-5.659-2.848-5.659l-.131-4.09a1.379,1.379,0,0,0-1.378-1.334h-13.2a1.379,1.379,0,0,0-1.378,1.335l-.131,4.089s-1.193,4.978-2.848,5.659c-.38.156-.8.326-1.252.5A12.7,12.7,0,0,0,714.627,3584.269Z" transform="translate(-12.568)" fill="#fed9a8"/>
    <path id="Trazado_124912" data-name="Trazado 124912" d="M728.763,3569.778l-.131-4.089a1.379,1.379,0,0,0-1.378-1.335h-6.6v19.909a12.692,12.692,0,0,0,11.7-8.524c-.261-.1-.509-.206-.742-.3C729.956,3574.755,728.763,3569.778,728.763,3569.778Z" transform="translate(-18.307)" fill="#f4cfa2"/>
    <path id="Trazado_124913" data-name="Trazado 124913" d="M716.148,3581.717l-9.587,6.673,9.587,51.787,9.587-51.787Z" transform="translate(-13.8 -5.552)" fill="#fff"/>
    <g id="Grupo_56447" data-name="Grupo 56447" transform="translate(691.392 3569.824)">
      <path id="Trazado_124914" data-name="Trazado 124914" d="M707.385,3572.4c-.119.479-1.232,4.81-2.756,5.573a.588.588,0,0,1-.081.041h0l1.37,7.4,9.586-6.672S710.02,3576.611,707.385,3572.4Z" transform="translate(-704.548 -3572.395)" fill="#f2f2f2"/>
      <path id="Trazado_124915" data-name="Trazado 124915" d="M728.775,3572.4c.118.479,1.231,4.81,2.755,5.573a.591.591,0,0,0,.081.041h0l-1.37,7.4-9.586-6.672S726.14,3576.611,728.775,3572.4Z" transform="translate(-709.699 -3572.395)" fill="#f2f2f2"/>
    </g>
    <path id="Trazado_124916" data-name="Trazado 124916" d="M718.406,3581.717l-4.784,3.33,1.887,3.991H721.3l1.887-3.991Z" transform="translate(-16.058 -5.552)" fill="#e25959"/>
    <g id="Grupo_56448" data-name="Grupo 56448" transform="translate(683.857 3626.823)">
      <path id="Trazado_124917" data-name="Trazado 124917" d="M721.445,3692.281v-34.6a1.491,1.491,0,0,0-2.982,0v34.6Z" transform="translate(-701.463 -3656.19)" fill="#3a3847"/>
      <path id="Trazado_124918" data-name="Trazado 124918" d="M703.9,3687.765h-9.666a.759.759,0,0,1-.758-.759v-4.161a.758.758,0,0,1,.758-.759H703.9a.759.759,0,0,1,.759.759v4.161A.758.758,0,0,1,703.9,3687.765Z" transform="translate(-693.471 -3664.471)" fill="#3a3847"/>
      <path id="Trazado_124919" data-name="Trazado 124919" d="M740.9,3687.765h-9.666a.759.759,0,0,1-.759-.759v-4.161a.758.758,0,0,1,.759-.759H740.9a.759.759,0,0,1,.758.759v4.161A.759.759,0,0,1,740.9,3687.765Z" transform="translate(-705.305 -3664.471)" fill="#3a3847"/>
    </g>
    <g id="Grupo_56449" data-name="Grupo 56449" transform="translate(682.207 3575.438)">
      <path id="Trazado_124920" data-name="Trazado 124920" d="M711.187,3639.835l-10.956-59.187c-1.389.572-3.286,1.312-5.358,2.1-.976,1.664-2.222,3.974-3.827,7.141l6.238,1.467-3.128,3.864Z" transform="translate(-691.045 -3580.648)" fill="#666277"/>
      <path id="Trazado_124921" data-name="Trazado 124921" d="M720.655,3639.835l10.956-59.187c1.389.572,3.286,1.312,5.358,2.1.977,1.664,2.222,3.974,3.827,7.141l-6.238,1.467,3.128,3.864Z" transform="translate(-700.514 -3580.648)" fill="#666277"/>
    </g>
    <path id="Trazado_124922" data-name="Trazado 124922" d="M718.074,3643.616v0l5.49-29.657-2.625-21.481h-5.73l-2.625,21.482Z" transform="translate(-15.726 -8.994)" fill="#f33a3a"/>
    <g id="Grupo_56450" data-name="Grupo 56450" transform="translate(691.392 3569.862)">
      <path id="Trazado_124923" data-name="Trazado 124923" d="M732.713,3572.861l.015.057Z" transform="translate(-713.555 -3572.582)" fill="#f15a24"/>
      <path id="Trazado_124924" data-name="Trazado 124924" d="M732.631,3572.549l.011.043Z" transform="translate(-713.528 -3572.482)" fill="#f15a24"/>
      <path id="Trazado_124925" data-name="Trazado 124925" d="M732.768,3573.062l.016.058C732.778,3573.1,732.773,3573.081,732.768,3573.062Z" transform="translate(-713.572 -3572.646)" fill="#f15a24"/>
      <path id="Trazado_124926" data-name="Trazado 124926" d="M732.667,3572.689l.014.052Z" transform="translate(-713.54 -3572.527)" fill="#f15a24"/>
      <path id="Trazado_124927" data-name="Trazado 124927" d="M732.606,3572.451l.006.026Z" transform="translate(-713.52 -3572.451)" fill="#f15a24"/>
      <path id="Trazado_124928" data-name="Trazado 124928" d="M732.982,3573.811l0,.012Z" transform="translate(-713.641 -3572.886)" fill="#f15a24"/>
      <path id="Trazado_124929" data-name="Trazado 124929" d="M732.831,3573.289l.016.055Z" transform="translate(-713.592 -3572.719)" fill="#f15a24"/>
      <path id="Trazado_124930" data-name="Trazado 124930" d="M708.4,3573.56l0-.006Z" transform="translate(-705.78 -3572.804)" fill="#f15a24"/>
      <path id="Trazado_124931" data-name="Trazado 124931" d="M704.548,3580.648Z" transform="translate(-704.548 -3575.072)" fill="#f15a24"/>
      <path id="Trazado_124932" data-name="Trazado 124932" d="M708.467,3573.325l0-.017Z" transform="translate(-705.801 -3572.725)" fill="#f15a24"/>
      <path id="Trazado_124933" data-name="Trazado 124933" d="M708.528,3573.106l.005-.02Z" transform="translate(-705.821 -3572.654)" fill="#f15a24"/>
      <path id="Trazado_124934" data-name="Trazado 124934" d="M708.631,3572.733h0Z" transform="translate(-705.854 -3572.541)" fill="#f15a24"/>
      <path id="Trazado_124935" data-name="Trazado 124935" d="M708.584,3572.906l0-.01Z" transform="translate(-705.839 -3572.593)" fill="#f15a24"/>
    </g>
    <path id="Trazado_124936" data-name="Trazado 124936" d="M720.655,3592.48h0v51.138h0l5.49-29.657-2.625-21.481Z" transform="translate(-18.307 -8.994)" fill="#c13a3a"/>
    <g id="Grupo_56451" data-name="Grupo 56451" transform="translate(683.856 3644.438)">
      <path id="Trazado_124937" data-name="Trazado 124937" d="M703.9,3682.086h-9.666a.759.759,0,0,0-.759.759v1.321a.759.759,0,0,0,.759.759H703.9a.759.759,0,0,0,.76-.759v-1.321A.759.759,0,0,0,703.9,3682.086Z" transform="translate(-693.47 -3682.086)" fill="#666277"/>
      <path id="Trazado_124938" data-name="Trazado 124938" d="M740.9,3682.086h-9.666a.759.759,0,0,0-.76.759v1.321a.759.759,0,0,0,.76.759H740.9a.759.759,0,0,0,.759-.759v-1.321A.759.759,0,0,0,740.9,3682.086Z" transform="translate(-705.304 -3682.086)" fill="#666277"/>
    </g>
  </g>
</svg>
