<svg xmlns="http://www.w3.org/2000/svg" width="396" height="138.128" viewBox="0 0 396 138.128">
  <g id="Grupo_55708" data-name="Grupo 55708" transform="translate(-798.363 -9131.265)">
    <g id="Grupo_55709" data-name="Grupo 55709" transform="translate(798.363 9131.265)">
      <path id="Trazado_106990" data-name="Trazado 106990" d="M822.452,9151.957l.042.128a10.008,10.008,0,0,1-3.026,7.867q-3.112,2.911-8.639,2.91a12,12,0,0,1-9.007-3.563,12.628,12.628,0,0,1-3.459-9.176v-6.1a12.85,12.85,0,0,1,3.375-9.175,11.5,11.5,0,0,1,8.775-3.587q5.7,0,8.9,2.922a10,10,0,0,1,3.122,7.963l-.042.127H816.5a6.716,6.716,0,0,0-1.456-4.651,5.812,5.812,0,0,0-4.535-1.614,5.139,5.139,0,0,0-4.387,2.245,9.508,9.508,0,0,0-1.625,5.721v6.132a9.256,9.256,0,0,0,1.709,5.765,5.5,5.5,0,0,0,4.619,2.243,5.441,5.441,0,0,0,4.273-1.549,6.745,6.745,0,0,0,1.381-4.61Z" transform="translate(-798.363 -9131.265)" fill="#ff9696"/>
      <path id="Trazado_106991" data-name="Trazado 106991" d="M852.852,9131.734v20.377a9.73,9.73,0,0,1-3.416,7.973,13.647,13.647,0,0,1-8.943,2.8,13.48,13.48,0,0,1-8.891-2.8,9.77,9.77,0,0,1-3.385-7.973v-20.377h6.18v20.36a5.906,5.906,0,0,0,1.623,4.542,6.322,6.322,0,0,0,4.473,1.506,6.488,6.488,0,0,0,4.535-1.5,5.852,5.852,0,0,0,1.645-4.552v-20.36Z" transform="translate(-800.035 -9131.291)" fill="#ff9696"/>
      <path id="Trazado_106992" data-name="Trazado 106992" d="M875.772,9155.822H864.993l-2.089,6.623h-6.221l10.567-30.711h6.307l10.525,30.711H877.86Zm-9.26-4.829h7.741l-3.8-12.066h-.127Z" transform="translate(-801.629 -9131.291)" fill="#ff9696"/>
      <path id="Trazado_106993" data-name="Trazado 106993" d="M888.746,9162.445v-30.711h10.547a12.674,12.674,0,0,1,9.281,3.6,12.4,12.4,0,0,1,3.649,9.228v5.084a12.356,12.356,0,0,1-3.649,9.229,12.716,12.716,0,0,1-9.281,3.574Zm6.16-25.965v21.22h4.071a6.41,6.41,0,0,0,5.188-2.233,8.765,8.765,0,0,0,1.878-5.837v-5.121a8.7,8.7,0,0,0-1.878-5.795,6.413,6.413,0,0,0-5.188-2.233Z" transform="translate(-803.424 -9131.291)" fill="#ff9696"/>
      <path id="Trazado_106994" data-name="Trazado 106994" d="M924.892,9150.17v12.275h-6.16v-30.711h11.58q5.252,0,8.216,2.394a8.106,8.106,0,0,1,2.964,6.677,6.76,6.76,0,0,1-1.245,4.092,8.68,8.68,0,0,1-3.649,2.763,6.619,6.619,0,0,1,3.913,2.68,8.486,8.486,0,0,1,1.191,4.641v2.257a11.154,11.154,0,0,0,.348,2.689,3.708,3.708,0,0,0,1.191,2.078v.441h-6.348a3.462,3.462,0,0,1-1.1-2.256,18.957,18.957,0,0,1-.253-3v-2.173a4.879,4.879,0,0,0-1.256-3.575,4.733,4.733,0,0,0-3.532-1.276Zm0-4.746h5.316a5.82,5.82,0,0,0,3.87-1.1,4.048,4.048,0,0,0,1.277-3.249,4.464,4.464,0,0,0-1.277-3.354,5.182,5.182,0,0,0-3.765-1.245h-5.42Z" transform="translate(-805.103 -9131.291)" fill="#ff9696"/>
      <path id="Trazado_106995" data-name="Trazado 106995" d="M973.631,9149.827a12.881,12.881,0,0,1-3.575,9.344,12.358,12.358,0,0,1-9.292,3.691,12.2,12.2,0,0,1-9.217-3.691,12.943,12.943,0,0,1-3.544-9.344V9144.3a12.979,12.979,0,0,1,3.533-9.335,12.148,12.148,0,0,1,9.207-3.7,12.377,12.377,0,0,1,9.3,3.7,12.877,12.877,0,0,1,3.585,9.335Zm-6.159-5.553a9.326,9.326,0,0,0-1.793-5.9,5.913,5.913,0,0,0-4.936-2.3,5.751,5.751,0,0,0-4.873,2.294,9.545,9.545,0,0,0-1.729,5.906v5.579a9.579,9.579,0,0,0,1.75,5.959,5.771,5.771,0,0,0,4.873,2.3,5.87,5.87,0,0,0,4.936-2.3,9.5,9.5,0,0,0,1.772-5.959Z" transform="translate(-806.742 -9131.265)" fill="#ff9696"/>
      <path id="Trazado_106996" data-name="Trazado 106996" d="M991.642,9162.445v-30.711h10.545a12.677,12.677,0,0,1,9.282,3.6,12.4,12.4,0,0,1,3.649,9.228v5.084a12.356,12.356,0,0,1-3.649,9.229,12.719,12.719,0,0,1-9.282,3.574Zm6.159-25.965v21.22h4.071a6.413,6.413,0,0,0,5.188-2.233,8.765,8.765,0,0,0,1.878-5.837v-5.121a8.7,8.7,0,0,0-1.878-5.795,6.416,6.416,0,0,0-5.188-2.233Z" transform="translate(-809.185 -9131.291)" fill="#ff9696"/>
      <path id="Trazado_106997" data-name="Trazado 106997" d="M1040.506,9148.946h-12.719v8.754h14.871v4.745h-21.03v-30.711h20.987v4.746h-14.828v7.72h12.719Z" transform="translate(-810.864 -9131.291)" fill="#ff9696"/>
      <path id="Trazado_106998" data-name="Trazado 106998" d="M1080.385,9136.48h-8.691v25.965h-6.159V9136.48h-8.648v-4.746h23.5Z" transform="translate(-812.839 -9131.291)" fill="#ff9696"/>
      <path id="Trazado_106999" data-name="Trazado 106999" d="M1099.506,9155.822h-10.779l-2.089,6.623h-6.222l10.567-30.711h6.307l10.525,30.711h-6.221Zm-9.261-4.829h7.741l-3.8-12.066h-.128Z" transform="translate(-814.156 -9131.291)" fill="#ff9696"/>
      <path id="Trazado_107000" data-name="Trazado 107000" d="M1118.64,9157.7h13.668v4.745H1112.48v-30.711h6.16Z" transform="translate(-815.952 -9131.291)" fill="#ff9696"/>
      <path id="Trazado_107001" data-name="Trazado 107001" d="M1143.4,9157.7h13.668v4.745h-19.828v-30.711h6.16Z" transform="translate(-817.338 -9131.291)" fill="#ff9696"/>
      <path id="Trazado_107002" data-name="Trazado 107002" d="M1178.806,9155.822h-10.779l-2.089,6.623h-6.222l10.567-30.711h6.307l10.525,30.711h-6.222Zm-9.261-4.829h7.741l-3.8-12.066h-.127Z" transform="translate(-818.597 -9131.291)" fill="#ff9696"/>
      <path id="Trazado_107003" data-name="Trazado 107003" d="M1208.3,9154.4a3.568,3.568,0,0,0-1.255-2.848,12.7,12.7,0,0,0-4.4-2.024,25.038,25.038,0,0,1-8.29-3.755,7.114,7.114,0,0,1-2.8-5.948,7.369,7.369,0,0,1,3.216-6.17,13.4,13.4,0,0,1,8.216-2.395,12.344,12.344,0,0,1,8.247,2.69,8.051,8.051,0,0,1,3.08,6.633l-.043.127H1208.3a4.477,4.477,0,0,0-1.425-3.448,5.662,5.662,0,0,0-4-1.319,5.911,5.911,0,0,0-3.818,1.1,3.457,3.457,0,0,0-1.35,2.806,3.01,3.01,0,0,0,1.444,2.563,19.959,19.959,0,0,0,4.988,2.119,19.376,19.376,0,0,1,7.7,3.734,7.76,7.76,0,0,1,2.615,6.1,7.3,7.3,0,0,1-3.111,6.223,13.6,13.6,0,0,1-8.216,2.277,15,15,0,0,1-8.753-2.583,8.072,8.072,0,0,1-3.629-7.246l.043-.126h5.991a4.725,4.725,0,0,0,1.677,4.019,7.565,7.565,0,0,0,4.672,1.275,6.161,6.161,0,0,0,3.839-1.033A3.325,3.325,0,0,0,1208.3,9154.4Z" transform="translate(-820.334 -9131.265)" fill="#ff9696"/>
    </g>
    <g id="Grupo_55710" data-name="Grupo 55710" transform="translate(798.998 9171.975)">
      <path id="Trazado_107004" data-name="Trazado 107004" d="M830.133,9204.494H809.1v20.857H799.036v-50.2h34.612v7.758H809.1v13.822h21.031Z" transform="translate(-799.036 -9174.433)" fill="#8c757e"/>
      <path id="Trazado_107005" data-name="Trazado 107005" d="M874.178,9203.287H853.389v14.307h24.3v7.758h-34.37v-50.2h34.3v7.758H853.389v12.617h20.789Z" transform="translate(-801.516 -9174.433)" fill="#8c757e"/>
      <path id="Trazado_107006" data-name="Trazado 107006" d="M900.527,9175.156l12.789,36.99h.207l12.893-36.99h13.17v50.2H929.519v-14.963l.965-22.166-.207-.035-13.445,37.164h-6.757L896.7,9188.326l-.208.033.966,22.029v14.963H887.392v-50.2Z" transform="translate(-803.983 -9174.433)" fill="#8c757e"/>
      <path id="Trazado_107007" data-name="Trazado 107007" d="M984.628,9203.287H963.84v14.307h24.3v7.758H953.773v-50.2h34.3v7.758H963.84v12.617h20.788Z" transform="translate(-807.7 -9174.433)" fill="#8c757e"/>
      <path id="Trazado_107008" data-name="Trazado 107008" d="M1038.417,9225.352h-10.032l-20.27-34.3-.208.035v34.268H997.842v-50.2h10.066l20.272,34.268.206-.035v-34.232h10.032Z" transform="translate(-810.168 -9174.433)" fill="#8c757e"/>
      <path id="Trazado_107009" data-name="Trazado 107009" d="M1062.64,9225.352h-10.066v-50.2h10.066Z" transform="translate(-813.233 -9174.433)" fill="#8c757e"/>
      <path id="Trazado_107010" data-name="Trazado 107010" d="M1115.562,9225.352H1105.53l-20.271-34.3-.208.035v34.268h-10.066v-50.2h10.066l20.272,34.268.207-.035v-34.232h10.032Z" transform="translate(-814.487 -9174.433)" fill="#8c757e"/>
      <path id="Trazado_107011" data-name="Trazado 107011" d="M1155.732,9214.525h-17.616l-3.414,10.826h-10.17l17.272-50.2h10.308l17.2,50.2h-10.171Zm-15.134-7.895h12.651l-6.2-19.719h-.207Z" transform="translate(-817.262 -9174.433)" fill="#8c757e"/>
      <path id="Trazado_107012" data-name="Trazado 107012" d="M1205.063,9212.209a5.836,5.836,0,0,0-2.052-4.656q-2.052-1.756-7.187-3.309-8.965-2.585-13.549-6.136a11.626,11.626,0,0,1-4.584-9.722,12.042,12.042,0,0,1,5.256-10.084q5.258-3.913,13.428-3.912,8.272,0,13.479,4.4a13.157,13.157,0,0,1,5.033,10.842l-.069.207h-9.756a7.329,7.329,0,0,0-2.327-5.637,9.258,9.258,0,0,0-6.533-2.155,9.665,9.665,0,0,0-6.24,1.792,5.652,5.652,0,0,0-2.206,4.586,4.92,4.92,0,0,0,2.362,4.188,32.639,32.639,0,0,0,8.152,3.466q8.309,2.309,12.583,6.1a12.677,12.677,0,0,1,4.275,9.963,11.932,11.932,0,0,1-5.085,10.17q-5.085,3.722-13.427,3.723a24.509,24.509,0,0,1-14.306-4.224,13.186,13.186,0,0,1-5.929-11.841l.068-.207h9.791q0,4.482,2.741,6.566t7.635,2.087a10.048,10.048,0,0,0,6.275-1.69A5.429,5.429,0,0,0,1205.063,9212.209Z" transform="translate(-820.165 -9174.391)" fill="#8c757e"/>
    </g>
    <g id="Grupo_55711" data-name="Grupo 55711" transform="translate(819.879 9229.19)">
      <path id="Trazado_107013" data-name="Trazado 107013" d="M823.794,9236.153l4.861,12.391h.062l4.859-12.391h2.64V9251.4h-2.064v-6.032l.21-6.2-.052-.01-4.944,12.242h-1.373l-4.922-12.211-.053.01.2,6.169v6.032h-2.064v-15.249Z" transform="translate(-821.155 -9235.063)" fill="#666"/>
      <path id="Trazado_107014" data-name="Trazado 107014" d="M846.357,9251.844a4.779,4.779,0,0,1-3.766-1.577,5.935,5.935,0,0,1-1.4-4.09v-.461a5.81,5.81,0,0,1,1.441-4.027,4.435,4.435,0,0,1,3.409-1.607,4.294,4.294,0,0,1,3.467,1.383,5.508,5.508,0,0,1,1.172,3.687v1.288h-7.353l-.031.053a4.451,4.451,0,0,0,.828,2.679,2.635,2.635,0,0,0,2.231,1.05,5.185,5.185,0,0,0,1.838-.3,4.218,4.218,0,0,0,1.367-.822l.806,1.343a4.819,4.819,0,0,1-1.6,1A6.446,6.446,0,0,1,846.357,9251.844Zm-.314-10.14a2.239,2.239,0,0,0-1.77.872,4.124,4.124,0,0,0-.9,2.188l.021.052h5.227v-.272a3.148,3.148,0,0,0-.649-2.024A2.319,2.319,0,0,0,846.042,9241.7Z" transform="translate(-822.277 -9235.283)" fill="#666"/>
      <path id="Trazado_107015" data-name="Trazado 107015" d="M854.175,9245.882a7.568,7.568,0,0,1,1.168-4.409,3.764,3.764,0,0,1,3.274-1.676,4.049,4.049,0,0,1,1.764.367,3.612,3.612,0,0,1,1.315,1.066V9235h2.063v16.339h-1.686l-.242-1.392a3.678,3.678,0,0,1-1.36,1.2,4.1,4.1,0,0,1-1.876.409,3.889,3.889,0,0,1-3.246-1.5,6.242,6.242,0,0,1-1.173-3.954Zm2.064.22a4.8,4.8,0,0,0,.7,2.75,2.448,2.448,0,0,0,2.178,1.03,2.733,2.733,0,0,0,1.55-.418,3.135,3.135,0,0,0,1.027-1.173V9243a3.209,3.209,0,0,0-1.032-1.114,2.731,2.731,0,0,0-1.524-.413,2.36,2.36,0,0,0-2.2,1.226,6.323,6.323,0,0,0-.706,3.184Z" transform="translate(-823.004 -9234.999)" fill="#666"/>
      <path id="Trazado_107016" data-name="Trazado 107016" d="M870.808,9237.1h-2.065V9235h2.065Zm0,14.233h-2.065v-11.332h2.065Z" transform="translate(-823.82 -9234.999)" fill="#666"/>
      <path id="Trazado_107017" data-name="Trazado 107017" d="M874.769,9245.882a7.568,7.568,0,0,1,1.168-4.409,3.763,3.763,0,0,1,3.274-1.676,4.049,4.049,0,0,1,1.764.367,3.6,3.6,0,0,1,1.314,1.066V9235h2.064v16.339h-1.686l-.242-1.392a3.686,3.686,0,0,1-1.36,1.2,4.1,4.1,0,0,1-1.876.409,3.888,3.888,0,0,1-3.246-1.5,6.242,6.242,0,0,1-1.173-3.954Zm2.064.22a4.806,4.806,0,0,0,.7,2.75,2.45,2.45,0,0,0,2.179,1.03,2.73,2.73,0,0,0,1.549-.418,3.117,3.117,0,0,0,1.027-1.173V9243a3.2,3.2,0,0,0-1.031-1.114,2.736,2.736,0,0,0-1.525-.413,2.36,2.36,0,0,0-2.195,1.226,6.323,6.323,0,0,0-.706,3.184Z" transform="translate(-824.157 -9234.999)" fill="#666"/>
      <path id="Trazado_107018" data-name="Trazado 107018" d="M896.1,9251.622c-.07-.341-.125-.644-.162-.905a6.5,6.5,0,0,1-.068-.791,4.824,4.824,0,0,1-1.5,1.367,3.84,3.84,0,0,1-2,.551,3.707,3.707,0,0,1-2.7-.906,3.334,3.334,0,0,1-.927-2.5,2.926,2.926,0,0,1,1.315-2.538,6.135,6.135,0,0,1,3.566-.917h2.241v-1.121a2.083,2.083,0,0,0-.608-1.576,2.387,2.387,0,0,0-1.717-.581,2.482,2.482,0,0,0-1.619.509,1.529,1.529,0,0,0-.623,1.22h-1.968l-.021-.063a2.738,2.738,0,0,1,1.168-2.262,4.792,4.792,0,0,1,3.178-1.026,4.68,4.68,0,0,1,3.1.979,3.468,3.468,0,0,1,1.173,2.822v5.457a10.7,10.7,0,0,0,.062,1.173,6.065,6.065,0,0,0,.23,1.109Zm-3.425-1.518a3.681,3.681,0,0,0,2.021-.574,2.738,2.738,0,0,0,1.173-1.316v-1.838h-2.315a3,3,0,0,0-1.995.627,1.868,1.868,0,0,0-.75,1.472,1.548,1.548,0,0,0,.472,1.191A1.977,1.977,0,0,0,892.677,9250.1Z" transform="translate(-824.94 -9235.283)" fill="#666"/>
      <path id="Trazado_107019" data-name="Trazado 107019" d="M909.2,9248.606a1.41,1.41,0,0,0-.517-1.121,4.893,4.893,0,0,0-1.964-.764,8.254,8.254,0,0,1-3.106-1.219,2.467,2.467,0,0,1-1.042-2.1,2.956,2.956,0,0,1,1.173-2.352,5.339,5.339,0,0,1,6.2.043,3,3,0,0,1,1.116,2.472l-.021.063h-1.968a1.8,1.8,0,0,0-.624-1.334,2.294,2.294,0,0,0-1.65-.593,2.387,2.387,0,0,0-1.633.48,1.516,1.516,0,0,0-.534,1.165,1.3,1.3,0,0,0,.472,1.057,4.868,4.868,0,0,0,1.916.69,8.291,8.291,0,0,1,3.194,1.253,2.523,2.523,0,0,1,1.047,2.121,2.927,2.927,0,0,1-1.221,2.439,5.1,5.1,0,0,1-3.189.934,4.98,4.98,0,0,1-3.414-1.1,3.14,3.14,0,0,1-1.184-2.566l.021-.062h1.969a1.9,1.9,0,0,0,.818,1.6,3.172,3.172,0,0,0,1.791.506,2.913,2.913,0,0,0,1.723-.446A1.369,1.369,0,0,0,909.2,9248.606Z" transform="translate(-825.696 -9235.283)" fill="#666"/>
      <path id="Trazado_107020" data-name="Trazado 107020" d="M929.056,9251.622c-.07-.341-.125-.644-.162-.905a6.5,6.5,0,0,1-.068-.791,4.814,4.814,0,0,1-1.5,1.367,3.84,3.84,0,0,1-2,.551,3.7,3.7,0,0,1-2.7-.906,3.332,3.332,0,0,1-.928-2.5,2.926,2.926,0,0,1,1.315-2.538,6.135,6.135,0,0,1,3.567-.917h2.241v-1.121a2.085,2.085,0,0,0-.607-1.576,2.391,2.391,0,0,0-1.718-.581,2.482,2.482,0,0,0-1.619.509,1.529,1.529,0,0,0-.623,1.22H922.29l-.021-.063a2.738,2.738,0,0,1,1.168-2.262,4.792,4.792,0,0,1,3.178-1.026,4.678,4.678,0,0,1,3.1.979,3.465,3.465,0,0,1,1.173,2.822v5.457a10.7,10.7,0,0,0,.062,1.173,6.06,6.06,0,0,0,.23,1.109Zm-3.425-1.518a3.681,3.681,0,0,0,2.021-.574,2.737,2.737,0,0,0,1.173-1.316v-1.838h-2.315a3,3,0,0,0-1.995.627,1.868,1.868,0,0,0-.75,1.472,1.548,1.548,0,0,0,.472,1.191A1.977,1.977,0,0,0,925.631,9250.1Z" transform="translate(-826.785 -9235.283)" fill="#666"/>
      <path id="Trazado_107021" data-name="Trazado 107021" d="M937.428,9240.29l.146,1.687a4.111,4.111,0,0,1,1.42-1.4,3.782,3.782,0,0,1,1.943-.5,3.7,3.7,0,0,1,2.839,1.073,4.711,4.711,0,0,1,1.005,3.314v7.153h-2.063v-7.11a3.07,3.07,0,0,0-.592-2.127,2.376,2.376,0,0,0-1.807-.628,2.924,2.924,0,0,0-1.576.428,3.143,3.143,0,0,0-1.094,1.175v8.263h-2.064V9240.29Z" transform="translate(-827.562 -9235.283)" fill="#666"/>
      <path id="Trazado_107022" data-name="Trazado 107022" d="M956.419,9251.622c-.071-.341-.125-.644-.162-.905a6.508,6.508,0,0,1-.069-.791,4.82,4.82,0,0,1-1.5,1.367,3.845,3.845,0,0,1-2,.551,3.7,3.7,0,0,1-2.7-.906,3.335,3.335,0,0,1-.928-2.5,2.926,2.926,0,0,1,1.315-2.538,6.138,6.138,0,0,1,3.566-.917h2.241v-1.121a2.082,2.082,0,0,0-.607-1.576,2.39,2.39,0,0,0-1.718-.581,2.477,2.477,0,0,0-1.618.509,1.527,1.527,0,0,0-.624,1.22h-1.967l-.022-.063a2.738,2.738,0,0,1,1.168-2.262,4.8,4.8,0,0,1,3.179-1.026,4.68,4.68,0,0,1,3.1.979,3.468,3.468,0,0,1,1.172,2.822v5.457a10.7,10.7,0,0,0,.062,1.173,6.06,6.06,0,0,0,.23,1.109Zm-3.425-1.518a3.678,3.678,0,0,0,2.02-.574,2.737,2.737,0,0,0,1.173-1.316v-1.838h-2.315a3,3,0,0,0-1.995.627,1.871,1.871,0,0,0-.75,1.472,1.548,1.548,0,0,0,.472,1.191A1.978,1.978,0,0,0,952.994,9250.1Z" transform="translate(-828.317 -9235.283)" fill="#666"/>
      <path id="Trazado_107023" data-name="Trazado 107023" d="M965.6,9237.407v2.733h2.147v1.529H965.6v6.882a1.539,1.539,0,0,0,.329,1.12,1.192,1.192,0,0,0,.874.325,2.106,2.106,0,0,0,.393-.042,2.538,2.538,0,0,0,.383-.1l.272,1.414a1.827,1.827,0,0,1-.676.309,3.419,3.419,0,0,1-.895.121,2.673,2.673,0,0,1-2-.76,3.294,3.294,0,0,1-.744-2.383v-6.882h-1.8v-1.529h1.8v-2.733Z" transform="translate(-829.027 -9235.134)" fill="#666"/>
      <path id="Trazado_107024" data-name="Trazado 107024" d="M971.268,9245.605a6.234,6.234,0,0,1,1.361-4.143,5.045,5.045,0,0,1,7.42-.006,6.219,6.219,0,0,1,1.368,4.148v.23a6.208,6.208,0,0,1-1.362,4.147,5.066,5.066,0,0,1-7.42-.006,6.2,6.2,0,0,1-1.367-4.142Zm2.063.224a5.365,5.365,0,0,0,.76,2.972,2.744,2.744,0,0,0,4.5,0,5.334,5.334,0,0,0,.765-2.972v-.229a5.313,5.313,0,0,0-.769-2.96,2.525,2.525,0,0,0-2.257-1.183,2.49,2.49,0,0,0-2.236,1.183,5.373,5.373,0,0,0-.76,2.96Zm4.012-10.164h2.409l.02.063-2.827,2.724H975.4Z" transform="translate(-829.56 -9235.036)" fill="#666"/>
      <path id="Trazado_107025" data-name="Trazado 107025" d="M987.513,9240.29l.146,1.487a3.853,3.853,0,0,1,1.409-1.251,4.23,4.23,0,0,1,1.984-.445,3.506,3.506,0,0,1,1.944.523,3.165,3.165,0,0,1,1.22,1.571,4.211,4.211,0,0,1,1.414-1.529,3.713,3.713,0,0,1,2.053-.565,3.393,3.393,0,0,1,2.733,1.188,5.432,5.432,0,0,1,1.005,3.577v6.775h-2.063v-6.8a3.775,3.775,0,0,0-.576-2.373,2.1,2.1,0,0,0-1.718-.7,2.185,2.185,0,0,0-1.712.733,3.192,3.192,0,0,0-.77,1.854v7.278h-2.073v-6.8a3.724,3.724,0,0,0-.592-2.331,2.055,2.055,0,0,0-1.7-.738,2.835,2.835,0,0,0-1.549.387,2.511,2.511,0,0,0-.933,1.091v8.388H985.67V9240.29Z" transform="translate(-830.367 -9235.283)" fill="#666"/>
      <path id="Trazado_107026" data-name="Trazado 107026" d="M1008.748,9237.1h-2.064V9235h2.064Zm0,14.233h-2.064v-11.332h2.064Z" transform="translate(-831.544 -9234.999)" fill="#666"/>
      <path id="Trazado_107027" data-name="Trazado 107027" d="M1017.789,9250.22a2.78,2.78,0,0,0,1.806-.634,1.932,1.932,0,0,0,.781-1.556h1.854l.021.063a3.191,3.191,0,0,1-1.3,2.608,4.755,4.755,0,0,1-3.158,1.143,4.592,4.592,0,0,1-3.782-1.613,6.222,6.222,0,0,1-1.309-4.054v-.439a6.19,6.19,0,0,1,1.315-4.038,5.159,5.159,0,0,1,7.027-.445,3.649,3.649,0,0,1,1.221,2.881l-.021.063h-1.864a2.4,2.4,0,0,0-.733-1.766,2.524,2.524,0,0,0-1.854-.728,2.488,2.488,0,0,0-2.32,1.167,5.486,5.486,0,0,0-.7,2.861v.438a5.564,5.564,0,0,0,.69,2.893A2.491,2.491,0,0,0,1017.789,9250.22Z" transform="translate(-831.88 -9235.283)" fill="#666"/>
      <path id="Trazado_107028" data-name="Trazado 107028" d="M1033.189,9251.622c-.07-.341-.125-.644-.162-.905a6.507,6.507,0,0,1-.068-.791,4.823,4.823,0,0,1-1.5,1.367,3.839,3.839,0,0,1-2,.551,3.707,3.707,0,0,1-2.7-.906,3.334,3.334,0,0,1-.927-2.5,2.926,2.926,0,0,1,1.315-2.538,6.134,6.134,0,0,1,3.566-.917h2.241v-1.121a2.083,2.083,0,0,0-.608-1.576,2.388,2.388,0,0,0-1.717-.581,2.482,2.482,0,0,0-1.619.509,1.529,1.529,0,0,0-.623,1.22h-1.968l-.021-.063a2.738,2.738,0,0,1,1.168-2.262,4.792,4.792,0,0,1,3.179-1.026,4.679,4.679,0,0,1,3.1.979,3.468,3.468,0,0,1,1.172,2.822v5.457a10.677,10.677,0,0,0,.063,1.173,6.075,6.075,0,0,0,.23,1.109Zm-3.425-1.518a3.68,3.68,0,0,0,2.021-.574,2.746,2.746,0,0,0,1.173-1.316v-1.838h-2.315a3.009,3.009,0,0,0-2,.627,1.87,1.87,0,0,0-.75,1.472,1.548,1.548,0,0,0,.472,1.191A1.981,1.981,0,0,0,1029.764,9250.1Z" transform="translate(-832.616 -9235.283)" fill="#666"/>
      <path id="Trazado_107029" data-name="Trazado 107029" d="M1046.283,9248.606a1.408,1.408,0,0,0-.518-1.121,4.881,4.881,0,0,0-1.964-.764,8.255,8.255,0,0,1-3.1-1.219,2.467,2.467,0,0,1-1.042-2.1,2.956,2.956,0,0,1,1.173-2.352,5.339,5.339,0,0,1,6.2.043,3,3,0,0,1,1.116,2.472l-.022.063h-1.967a1.8,1.8,0,0,0-.624-1.334,2.294,2.294,0,0,0-1.65-.593,2.387,2.387,0,0,0-1.633.48,1.517,1.517,0,0,0-.535,1.165,1.3,1.3,0,0,0,.472,1.057,4.873,4.873,0,0,0,1.917.69,8.28,8.28,0,0,1,3.194,1.253,2.521,2.521,0,0,1,1.048,2.121,2.927,2.927,0,0,1-1.221,2.439,5.1,5.1,0,0,1-3.189.934,4.979,4.979,0,0,1-3.414-1.1,3.14,3.14,0,0,1-1.184-2.566l.021-.062h1.969a1.894,1.894,0,0,0,.818,1.6,3.172,3.172,0,0,0,1.791.506,2.913,2.913,0,0,0,1.723-.446A1.369,1.369,0,0,0,1046.283,9248.606Z" transform="translate(-833.372 -9235.283)" fill="#666"/>
      <path id="Trazado_107030" data-name="Trazado 107030" d="M1065.768,9248.606a1.411,1.411,0,0,0-.518-1.121,4.887,4.887,0,0,0-1.964-.764,8.249,8.249,0,0,1-3.1-1.219,2.465,2.465,0,0,1-1.043-2.1,2.955,2.955,0,0,1,1.173-2.352,5.34,5.34,0,0,1,6.206.043,3,3,0,0,1,1.115,2.472l-.021.063h-1.968a1.8,1.8,0,0,0-.623-1.334,2.3,2.3,0,0,0-1.65-.593,2.388,2.388,0,0,0-1.634.48,1.516,1.516,0,0,0-.534,1.165,1.3,1.3,0,0,0,.472,1.057,4.874,4.874,0,0,0,1.916.69,8.279,8.279,0,0,1,3.195,1.253,2.523,2.523,0,0,1,1.047,2.121,2.925,2.925,0,0,1-1.221,2.439,5.1,5.1,0,0,1-3.189.934,4.979,4.979,0,0,1-3.414-1.1,3.14,3.14,0,0,1-1.184-2.566l.022-.062h1.969a1.9,1.9,0,0,0,.817,1.6,3.174,3.174,0,0,0,1.791.506,2.916,2.916,0,0,0,1.724-.446A1.371,1.371,0,0,0,1065.768,9248.606Z" transform="translate(-834.463 -9235.283)" fill="#666"/>
      <path id="Trazado_107031" data-name="Trazado 107031" d="M1074.3,9237.1h-2.064V9235h2.064Zm0,14.233h-2.064v-11.332h2.064Z" transform="translate(-835.214 -9234.999)" fill="#666"/>
      <path id="Trazado_107032" data-name="Trazado 107032" d="M1080.606,9240.29l.146,1.687a4.111,4.111,0,0,1,1.42-1.4,3.781,3.781,0,0,1,1.943-.5,3.694,3.694,0,0,1,2.838,1.073,4.71,4.71,0,0,1,1.006,3.314v7.153H1085.9v-7.11a3.07,3.07,0,0,0-.592-2.127,2.375,2.375,0,0,0-1.807-.628,2.926,2.926,0,0,0-1.576.428,3.15,3.15,0,0,0-1.094,1.175v8.263h-2.063V9240.29Z" transform="translate(-835.579 -9235.283)" fill="#666"/>
      <path id="Trazado_107033" data-name="Trazado 107033" d="M1098.778,9245.882a7.56,7.56,0,0,1,1.169-4.409,3.763,3.763,0,0,1,3.273-1.676,4.05,4.05,0,0,1,1.765.367,3.616,3.616,0,0,1,1.314,1.066V9235h2.064v16.339h-1.686l-.242-1.392a3.682,3.682,0,0,1-1.361,1.2,4.1,4.1,0,0,1-1.875.409,3.891,3.891,0,0,1-3.247-1.5,6.242,6.242,0,0,1-1.173-3.954Zm2.065.22a4.806,4.806,0,0,0,.7,2.75,2.45,2.45,0,0,0,2.179,1.03,2.729,2.729,0,0,0,1.549-.418,3.117,3.117,0,0,0,1.027-1.173V9243a3.191,3.191,0,0,0-1.032-1.114,2.731,2.731,0,0,0-1.524-.413,2.359,2.359,0,0,0-2.195,1.226,6.323,6.323,0,0,0-.706,3.184Z" transform="translate(-836.7 -9234.999)" fill="#666"/>
      <path id="Trazado_107034" data-name="Trazado 107034" d="M1117.845,9251.844a4.781,4.781,0,0,1-3.766-1.577,5.935,5.935,0,0,1-1.4-4.09v-.461a5.809,5.809,0,0,1,1.44-4.027,4.438,4.438,0,0,1,3.409-1.607,4.294,4.294,0,0,1,3.467,1.383,5.507,5.507,0,0,1,1.173,3.687v1.288h-7.353l-.031.053a4.462,4.462,0,0,0,.828,2.679,2.638,2.638,0,0,0,2.231,1.05,5.191,5.191,0,0,0,1.839-.3,4.214,4.214,0,0,0,1.366-.822l.806,1.343a4.808,4.808,0,0,1-1.6,1A6.446,6.446,0,0,1,1117.845,9251.844Zm-.314-10.14a2.239,2.239,0,0,0-1.77.872,4.124,4.124,0,0,0-.9,2.188l.022.052h5.226v-.272a3.148,3.148,0,0,0-.65-2.024A2.317,2.317,0,0,0,1117.53,9241.7Z" transform="translate(-837.479 -9235.283)" fill="#666"/>
      <path id="Trazado_107035" data-name="Trazado 107035" d="M1132.73,9248.606a1.411,1.411,0,0,0-.518-1.121,4.888,4.888,0,0,0-1.965-.764,8.25,8.25,0,0,1-3.1-1.219,2.465,2.465,0,0,1-1.043-2.1,2.956,2.956,0,0,1,1.173-2.352,5.34,5.34,0,0,1,6.206.043,3,3,0,0,1,1.115,2.472l-.021.063H1132.6a1.8,1.8,0,0,0-.623-1.334,2.3,2.3,0,0,0-1.65-.593,2.388,2.388,0,0,0-1.634.48,1.516,1.516,0,0,0-.534,1.165,1.3,1.3,0,0,0,.472,1.057,4.868,4.868,0,0,0,1.916.69,8.278,8.278,0,0,1,3.194,1.253,2.523,2.523,0,0,1,1.047,2.121,2.928,2.928,0,0,1-1.221,2.439,5.1,5.1,0,0,1-3.189.934,4.98,4.98,0,0,1-3.415-1.1,3.14,3.14,0,0,1-1.184-2.566l.022-.062h1.969a1.9,1.9,0,0,0,.817,1.6,3.174,3.174,0,0,0,1.791.506,2.91,2.91,0,0,0,1.723-.446A1.37,1.37,0,0,0,1132.73,9248.606Z" transform="translate(-838.212 -9235.283)" fill="#666"/>
      <path id="Trazado_107036" data-name="Trazado 107036" d="M1145.965,9251.622c-.07-.341-.124-.644-.161-.905a6.318,6.318,0,0,1-.069-.791,4.812,4.812,0,0,1-1.5,1.367,3.839,3.839,0,0,1-2,.551,3.7,3.7,0,0,1-2.7-.906,3.332,3.332,0,0,1-.928-2.5,2.926,2.926,0,0,1,1.315-2.538,6.137,6.137,0,0,1,3.566-.917h2.241v-1.121a2.085,2.085,0,0,0-.607-1.576,2.39,2.39,0,0,0-1.718-.581,2.478,2.478,0,0,0-1.618.509,1.528,1.528,0,0,0-.624,1.22H1139.2l-.021-.063a2.738,2.738,0,0,1,1.168-2.262,4.792,4.792,0,0,1,3.179-1.026,4.682,4.682,0,0,1,3.1.979,3.468,3.468,0,0,1,1.172,2.822v5.457a10.681,10.681,0,0,0,.062,1.173,6.065,6.065,0,0,0,.23,1.109Zm-3.425-1.518a3.681,3.681,0,0,0,2.021-.574,2.737,2.737,0,0,0,1.173-1.316v-1.838h-2.315a3,3,0,0,0-1.995.627,1.871,1.871,0,0,0-.75,1.472,1.548,1.548,0,0,0,.472,1.191A1.977,1.977,0,0,0,1142.54,9250.1Z" transform="translate(-838.931 -9235.283)" fill="#666"/>
      <path id="Trazado_107037" data-name="Trazado 107037" d="M1154.557,9241.524a4.2,4.2,0,0,1,1.44-1.272,3.965,3.965,0,0,1,1.891-.455,3.663,3.663,0,0,1,2.823,1.089,4.8,4.8,0,0,1,1.011,3.352v7.1h-2.063v-7.121a3.026,3.026,0,0,0-.6-2.073,2.288,2.288,0,0,0-1.8-.671,3.049,3.049,0,0,0-1.555.4,3.346,3.346,0,0,0-1.147,1.094v8.368h-2.063V9235h2.063Z" transform="translate(-839.708 -9234.999)" fill="#666"/>
      <path id="Trazado_107038" data-name="Trazado 107038" d="M1165.874,9245.853a6.239,6.239,0,0,1,1.361-4.143,5.047,5.047,0,0,1,7.421-.006,6.22,6.22,0,0,1,1.367,4.148v.23a6.208,6.208,0,0,1-1.361,4.147,5.067,5.067,0,0,1-7.421-.006,6.2,6.2,0,0,1-1.367-4.142Zm2.064.224a5.365,5.365,0,0,0,.759,2.972,2.745,2.745,0,0,0,4.5,0,5.342,5.342,0,0,0,.764-2.972v-.229a5.313,5.313,0,0,0-.769-2.96,2.525,2.525,0,0,0-2.257-1.183,2.49,2.49,0,0,0-2.236,1.183,5.373,5.373,0,0,0-.759,2.96Z" transform="translate(-840.457 -9235.283)" fill="#666"/>
      <path id="Trazado_107039" data-name="Trazado 107039" d="M1179.8,9246.166a7.446,7.446,0,0,1,1.193-4.409,3.831,3.831,0,0,1,3.3-1.676,3.969,3.969,0,0,1,1.895.435,3.719,3.719,0,0,1,1.362,1.252l.251-1.478h1.645v11.4a4.329,4.329,0,0,1-1.268,3.347,5.2,5.2,0,0,1-3.655,1.168,7.694,7.694,0,0,1-1.764-.225,6.884,6.884,0,0,1-1.671-.614l.524-1.6a5.283,5.283,0,0,0,1.34.508,6.409,6.409,0,0,0,1.549.194,3,3,0,0,0,2.195-.687,2.842,2.842,0,0,0,.686-2.09v-1.278a3.625,3.625,0,0,1-1.33,1.075,4.182,4.182,0,0,1-1.781.361,3.956,3.956,0,0,1-3.279-1.509,6.183,6.183,0,0,1-1.193-3.949Zm2.063.22a4.713,4.713,0,0,0,.723,2.744,2.5,2.5,0,0,0,2.2,1.036,2.732,2.732,0,0,0,1.561-.423,3.237,3.237,0,0,0,1.037-1.2v-5.217a3.189,3.189,0,0,0-1.037-1.146,2.716,2.716,0,0,0-1.539-.425,2.4,2.4,0,0,0-2.21,1.235,6.145,6.145,0,0,0-.734,3.174Z" transform="translate(-841.237 -9235.283)" fill="#666"/>
      <path id="Trazado_107040" data-name="Trazado 107040" d="M1193.657,9245.853a6.234,6.234,0,0,1,1.362-4.143,5.045,5.045,0,0,1,7.42-.006,6.218,6.218,0,0,1,1.367,4.148v.23a6.209,6.209,0,0,1-1.361,4.147,5.067,5.067,0,0,1-7.421-.006,6.2,6.2,0,0,1-1.367-4.142Zm2.064.224a5.366,5.366,0,0,0,.759,2.972,2.745,2.745,0,0,0,4.5,0,5.342,5.342,0,0,0,.765-2.972v-.229a5.313,5.313,0,0,0-.77-2.96,2.525,2.525,0,0,0-2.256-1.183,2.493,2.493,0,0,0-2.237,1.183,5.374,5.374,0,0,0-.759,2.96Z" transform="translate(-842.013 -9235.283)" fill="#666"/>
      <path id="Trazado_107041" data-name="Trazado 107041" d="M1214.626,9248.606a1.408,1.408,0,0,0-.518-1.121,4.881,4.881,0,0,0-1.964-.764,8.256,8.256,0,0,1-3.1-1.219,2.467,2.467,0,0,1-1.042-2.1,2.955,2.955,0,0,1,1.173-2.352,5.339,5.339,0,0,1,6.2.043,3,3,0,0,1,1.116,2.472l-.022.063H1214.5a1.8,1.8,0,0,0-.623-1.334,2.294,2.294,0,0,0-1.65-.593,2.387,2.387,0,0,0-1.633.48,1.517,1.517,0,0,0-.535,1.165,1.3,1.3,0,0,0,.472,1.057,4.875,4.875,0,0,0,1.916.69,8.279,8.279,0,0,1,3.195,1.253,2.521,2.521,0,0,1,1.048,2.121,2.928,2.928,0,0,1-1.221,2.439,5.1,5.1,0,0,1-3.189.934,4.976,4.976,0,0,1-3.414-1.1,3.14,3.14,0,0,1-1.184-2.566l.021-.062h1.969a1.9,1.9,0,0,0,.817,1.6,3.175,3.175,0,0,0,1.792.506,2.913,2.913,0,0,0,1.723-.446A1.371,1.371,0,0,0,1214.626,9248.606Z" transform="translate(-842.798 -9235.283)" fill="#666"/>
    </g>
    <g id="Grupo_55712" data-name="Grupo 55712" transform="translate(944.98 9252.832)">
      <path id="Trazado_107042" data-name="Trazado 107042" d="M956.316,9261.2l4.86,12.391h.063L966.1,9261.2h2.64v15.249h-2.065v-6.032l.211-6.2-.053-.009-4.944,12.242h-1.372l-4.923-12.211-.053.01.2,6.169v6.032h-2.063V9261.2Z" transform="translate(-953.677 -9260.107)" fill="#666"/>
      <path id="Trazado_107043" data-name="Trazado 107043" d="M978.879,9276.888a4.783,4.783,0,0,1-3.767-1.577,5.935,5.935,0,0,1-1.4-4.09v-.461a5.814,5.814,0,0,1,1.44-4.027,4.438,4.438,0,0,1,3.41-1.607,4.292,4.292,0,0,1,3.466,1.383,5.5,5.5,0,0,1,1.173,3.687v1.288h-7.353l-.032.053a4.463,4.463,0,0,0,.828,2.679,2.638,2.638,0,0,0,2.232,1.05,5.189,5.189,0,0,0,1.838-.3,4.2,4.2,0,0,0,1.366-.822l.807,1.342a4.794,4.794,0,0,1-1.6,1A6.441,6.441,0,0,1,978.879,9276.888Zm-.314-10.14a2.238,2.238,0,0,0-1.77.871,4.131,4.131,0,0,0-.9,2.188l.022.052h5.226v-.272a3.148,3.148,0,0,0-.648-2.024A2.319,2.319,0,0,0,978.564,9266.748Z" transform="translate(-954.799 -9260.327)" fill="#666"/>
      <path id="Trazado_107044" data-name="Trazado 107044" d="M986.7,9270.926a7.558,7.558,0,0,1,1.169-4.409,3.762,3.762,0,0,1,3.273-1.676,4.05,4.05,0,0,1,1.765.367,3.627,3.627,0,0,1,1.314,1.066v-6.231h2.064v16.339h-1.686l-.242-1.392a3.673,3.673,0,0,1-1.361,1.2,4.1,4.1,0,0,1-1.875.409,3.891,3.891,0,0,1-3.247-1.5,6.242,6.242,0,0,1-1.173-3.954Zm2.065.22a4.808,4.808,0,0,0,.7,2.75,2.45,2.45,0,0,0,2.179,1.031,2.73,2.73,0,0,0,1.549-.419,3.117,3.117,0,0,0,1.027-1.173v-5.29a3.185,3.185,0,0,0-1.032-1.115,2.731,2.731,0,0,0-1.524-.413,2.36,2.36,0,0,0-2.195,1.226,6.328,6.328,0,0,0-.706,3.184Z" transform="translate(-955.526 -9260.043)" fill="#666"/>
      <path id="Trazado_107045" data-name="Trazado 107045" d="M1003.329,9262.149h-2.064v-2.106h2.064Zm0,14.232h-2.064V9265.05h2.064Z" transform="translate(-956.342 -9260.043)" fill="#666"/>
      <path id="Trazado_107046" data-name="Trazado 107046" d="M1007.29,9270.926a7.566,7.566,0,0,1,1.168-4.409,3.765,3.765,0,0,1,3.274-1.676,4.049,4.049,0,0,1,1.764.367,3.622,3.622,0,0,1,1.315,1.066v-6.231h2.063v16.339h-1.686l-.242-1.392a3.67,3.67,0,0,1-1.36,1.2,4.1,4.1,0,0,1-1.875.409,3.89,3.89,0,0,1-3.247-1.5,6.242,6.242,0,0,1-1.173-3.954Zm2.065.22a4.808,4.808,0,0,0,.7,2.75,2.449,2.449,0,0,0,2.178,1.031,2.731,2.731,0,0,0,1.55-.419,3.126,3.126,0,0,0,1.027-1.173v-5.29a3.194,3.194,0,0,0-1.032-1.115,2.731,2.731,0,0,0-1.524-.413,2.36,2.36,0,0,0-2.195,1.226,6.328,6.328,0,0,0-.706,3.184Z" transform="translate(-956.679 -9260.043)" fill="#666"/>
      <path id="Trazado_107047" data-name="Trazado 107047" d="M1028.624,9276.666c-.071-.341-.125-.644-.162-.906a6.5,6.5,0,0,1-.069-.79,4.82,4.82,0,0,1-1.5,1.367,3.855,3.855,0,0,1-2,.551,3.7,3.7,0,0,1-2.7-.906,3.334,3.334,0,0,1-.927-2.5,2.925,2.925,0,0,1,1.314-2.539,6.131,6.131,0,0,1,3.566-.917h2.241v-1.121a2.082,2.082,0,0,0-.607-1.576,2.389,2.389,0,0,0-1.717-.581,2.479,2.479,0,0,0-1.619.509,1.526,1.526,0,0,0-.623,1.22h-1.968l-.022-.063a2.738,2.738,0,0,1,1.168-2.262,4.8,4.8,0,0,1,3.179-1.026,4.68,4.68,0,0,1,3.1.979,3.466,3.466,0,0,1,1.172,2.822v5.456a10.686,10.686,0,0,0,.062,1.174,6,6,0,0,0,.231,1.109Zm-3.425-1.518a3.675,3.675,0,0,0,2.02-.574,2.733,2.733,0,0,0,1.173-1.316v-1.838h-2.315a3,3,0,0,0-1.995.627,1.87,1.87,0,0,0-.75,1.471,1.548,1.548,0,0,0,.472,1.192A1.978,1.978,0,0,0,1025.2,9275.148Z" transform="translate(-957.462 -9260.327)" fill="#666"/>
      <path id="Trazado_107048" data-name="Trazado 107048" d="M1041.718,9273.65a1.411,1.411,0,0,0-.518-1.121,4.888,4.888,0,0,0-1.965-.764,8.249,8.249,0,0,1-3.1-1.219,2.467,2.467,0,0,1-1.043-2.1,2.957,2.957,0,0,1,1.174-2.353,5.339,5.339,0,0,1,6.2.043,3,3,0,0,1,1.116,2.472l-.022.063h-1.968a1.806,1.806,0,0,0-.623-1.334,2.3,2.3,0,0,0-1.65-.593,2.389,2.389,0,0,0-1.634.48,1.517,1.517,0,0,0-.534,1.165,1.3,1.3,0,0,0,.472,1.057,4.888,4.888,0,0,0,1.916.691,8.281,8.281,0,0,1,3.194,1.251,2.526,2.526,0,0,1,1.047,2.122,2.924,2.924,0,0,1-1.221,2.439,5.1,5.1,0,0,1-3.188.934,4.981,4.981,0,0,1-3.416-1.1,3.144,3.144,0,0,1-1.184-2.566l.022-.062h1.969a1.9,1.9,0,0,0,.817,1.6,3.175,3.175,0,0,0,1.792.506,2.914,2.914,0,0,0,1.723-.446A1.371,1.371,0,0,0,1041.718,9273.65Z" transform="translate(-958.218 -9260.327)" fill="#666"/>
      <path id="Trazado_107049" data-name="Trazado 107049" d="M1059.311,9276.888a4.779,4.779,0,0,1-3.766-1.577,5.935,5.935,0,0,1-1.4-4.09v-.461a5.81,5.81,0,0,1,1.441-4.027,4.436,4.436,0,0,1,3.409-1.607,4.294,4.294,0,0,1,3.467,1.383,5.508,5.508,0,0,1,1.172,3.687v1.288h-7.353l-.031.053a4.451,4.451,0,0,0,.828,2.679,2.636,2.636,0,0,0,2.231,1.05,5.185,5.185,0,0,0,1.838-.3,4.2,4.2,0,0,0,1.367-.822l.806,1.342a4.778,4.778,0,0,1-1.6,1A6.447,6.447,0,0,1,1059.311,9276.888Zm-.314-10.14a2.24,2.24,0,0,0-1.77.871,4.129,4.129,0,0,0-.9,2.188l.022.052h5.226v-.272a3.148,3.148,0,0,0-.65-2.024A2.317,2.317,0,0,0,1059,9266.748Z" transform="translate(-959.303 -9260.327)" fill="#666"/>
      <path id="Trazado_107050" data-name="Trazado 107050" d="M1069.472,9265.334l.146,1.687a4.11,4.11,0,0,1,1.42-1.4,3.781,3.781,0,0,1,1.943-.5,3.7,3.7,0,0,1,2.839,1.073,4.711,4.711,0,0,1,1.005,3.315v7.152h-2.063v-7.11a3.07,3.07,0,0,0-.592-2.127,2.376,2.376,0,0,0-1.807-.628,2.924,2.924,0,0,0-1.577.428,3.153,3.153,0,0,0-1.1,1.175v8.263h-2.063v-11.332Z" transform="translate(-960.058 -9260.327)" fill="#666"/>
      <path id="Trazado_107051" data-name="Trazado 107051" d="M1092.724,9275.264a2.781,2.781,0,0,0,1.806-.634,1.933,1.933,0,0,0,.782-1.556h1.853l.022.063a3.194,3.194,0,0,1-1.3,2.608,4.753,4.753,0,0,1-3.158,1.143,4.589,4.589,0,0,1-3.781-1.613,6.222,6.222,0,0,1-1.309-4.054v-.439a6.2,6.2,0,0,1,1.314-4.038,5.16,5.16,0,0,1,7.028-.445,3.652,3.652,0,0,1,1.221,2.881l-.022.063h-1.863a2.4,2.4,0,0,0-.734-1.766,2.523,2.523,0,0,0-1.854-.728,2.49,2.49,0,0,0-2.32,1.167,5.488,5.488,0,0,0-.7,2.861v.438a5.555,5.555,0,0,0,.691,2.893A2.49,2.49,0,0,0,1092.724,9275.264Z" transform="translate(-961.178 -9260.327)" fill="#666"/>
      <path id="Trazado_107052" data-name="Trazado 107052" d="M1105.858,9276.888a4.779,4.779,0,0,1-3.766-1.577,5.935,5.935,0,0,1-1.4-4.09v-.461a5.81,5.81,0,0,1,1.441-4.027,4.435,4.435,0,0,1,3.409-1.607,4.294,4.294,0,0,1,3.467,1.383,5.508,5.508,0,0,1,1.172,3.687v1.288h-7.353l-.031.053a4.451,4.451,0,0,0,.828,2.679,2.635,2.635,0,0,0,2.231,1.05,5.185,5.185,0,0,0,1.838-.3,4.2,4.2,0,0,0,1.367-.822l.806,1.342a4.789,4.789,0,0,1-1.6,1A6.446,6.446,0,0,1,1105.858,9276.888Zm-.314-10.14a2.24,2.24,0,0,0-1.77.871,4.122,4.122,0,0,0-.9,2.188l.021.052h5.227v-.272a3.148,3.148,0,0,0-.649-2.024A2.319,2.319,0,0,0,1105.543,9266.748Z" transform="translate(-961.909 -9260.327)" fill="#666"/>
      <path id="Trazado_107053" data-name="Trazado 107053" d="M1116.018,9265.334l.146,1.687a4.11,4.11,0,0,1,1.42-1.4,3.781,3.781,0,0,1,1.943-.5,3.7,3.7,0,0,1,2.839,1.073,4.711,4.711,0,0,1,1.005,3.315v7.152h-2.064v-7.11a3.075,3.075,0,0,0-.591-2.127,2.377,2.377,0,0,0-1.808-.628,2.923,2.923,0,0,0-1.575.428,3.145,3.145,0,0,0-1.1,1.175v8.263h-2.063v-11.332Z" transform="translate(-962.664 -9260.327)" fill="#666"/>
      <path id="Trazado_107054" data-name="Trazado 107054" d="M1130.722,9262.451v2.733h2.147v1.529h-2.147v6.882a1.539,1.539,0,0,0,.329,1.12,1.192,1.192,0,0,0,.875.325,2.033,2.033,0,0,0,.393-.042,2.553,2.553,0,0,0,.382-.1l.272,1.414a1.821,1.821,0,0,1-.676.309,3.419,3.419,0,0,1-.895.121,2.673,2.673,0,0,1-2-.76,3.3,3.3,0,0,1-.744-2.383v-6.882h-1.8v-1.529h1.8v-2.733Z" transform="translate(-963.374 -9260.178)" fill="#666"/>
      <path id="Trazado_107055" data-name="Trazado 107055" d="M1139.073,9276.432h-2.062V9265.1h2.063Zm-.031-15.489h2.409l.021.063-2.827,2.723h-1.54Z" transform="translate(-963.943 -9260.094)" fill="#666"/>
      <path id="Trazado_107056" data-name="Trazado 107056" d="M1145.433,9265.334l.146,1.487a3.858,3.858,0,0,1,1.408-1.251,4.236,4.236,0,0,1,1.985-.445,3.506,3.506,0,0,1,1.944.523,3.164,3.164,0,0,1,1.22,1.571,4.212,4.212,0,0,1,1.414-1.529,3.711,3.711,0,0,1,2.052-.565,3.394,3.394,0,0,1,2.734,1.188,5.432,5.432,0,0,1,1.005,3.577v6.775h-2.063v-6.8a3.769,3.769,0,0,0-.577-2.373,2.1,2.1,0,0,0-1.717-.7,2.185,2.185,0,0,0-1.712.733,3.19,3.19,0,0,0-.77,1.853v7.279h-2.073v-6.8a3.723,3.723,0,0,0-.592-2.331,2.056,2.056,0,0,0-1.7-.738,2.836,2.836,0,0,0-1.549.387,2.511,2.511,0,0,0-.933,1.091v8.388h-2.063v-11.332Z" transform="translate(-964.311 -9260.327)" fill="#666"/>
      <path id="Trazado_107057" data-name="Trazado 107057" d="M1169.1,9276.888a4.779,4.779,0,0,1-3.766-1.577,5.935,5.935,0,0,1-1.4-4.09v-.461a5.81,5.81,0,0,1,1.441-4.027,4.436,4.436,0,0,1,3.409-1.607,4.294,4.294,0,0,1,3.467,1.383,5.508,5.508,0,0,1,1.172,3.687v1.288h-7.353l-.031.053a4.45,4.45,0,0,0,.828,2.679,2.636,2.636,0,0,0,2.231,1.05,5.185,5.185,0,0,0,1.838-.3,4.2,4.2,0,0,0,1.367-.822l.806,1.342a4.78,4.78,0,0,1-1.6,1A6.446,6.446,0,0,1,1169.1,9276.888Zm-.314-10.14a2.241,2.241,0,0,0-1.77.871,4.131,4.131,0,0,0-.9,2.188l.022.052h5.226v-.272a3.148,3.148,0,0,0-.65-2.024A2.317,2.317,0,0,0,1168.787,9266.748Z" transform="translate(-965.45 -9260.327)" fill="#666"/>
      <path id="Trazado_107058" data-name="Trazado 107058" d="M1180.076,9262.451v2.733h2.147v1.529h-2.147v6.882a1.543,1.543,0,0,0,.329,1.12,1.193,1.193,0,0,0,.875.325,2.027,2.027,0,0,0,.393-.042,2.57,2.57,0,0,0,.382-.1l.272,1.414a1.821,1.821,0,0,1-.675.309,3.426,3.426,0,0,1-.9.121,2.675,2.675,0,0,1-2-.76,3.3,3.3,0,0,1-.744-2.383v-6.882h-1.8v-1.529h1.8v-2.733Z" transform="translate(-966.137 -9260.178)" fill="#666"/>
      <path id="Trazado_107059" data-name="Trazado 107059" d="M1191.616,9267.157l-1.058-.062a2.362,2.362,0,0,0-1.377.387,2.47,2.47,0,0,0-.865,1.09v8.095h-2.063v-11.332h1.843l.2,1.654a3.927,3.927,0,0,1,1.189-1.371,2.777,2.777,0,0,1,1.627-.492,2.448,2.448,0,0,1,.44.037,2.751,2.751,0,0,1,.346.078Z" transform="translate(-966.7 -9260.327)" fill="#666"/>
      <path id="Trazado_107060" data-name="Trazado 107060" d="M1194.285,9270.9a6.239,6.239,0,0,1,1.362-4.144,5.046,5.046,0,0,1,7.42,0,6.219,6.219,0,0,1,1.367,4.148v.23a6.207,6.207,0,0,1-1.361,4.147,5.067,5.067,0,0,1-7.421-.006,6.2,6.2,0,0,1-1.367-4.142Zm2.063.224a5.365,5.365,0,0,0,.759,2.972,2.745,2.745,0,0,0,4.5,0,5.342,5.342,0,0,0,.765-2.972v-.229a5.313,5.313,0,0,0-.77-2.96,2.525,2.525,0,0,0-2.256-1.183,2.492,2.492,0,0,0-2.237,1.183,5.373,5.373,0,0,0-.759,2.96Z" transform="translate(-967.15 -9260.327)" fill="#666"/>
      <path id="Trazado_107061" data-name="Trazado 107061" d="M1215.254,9273.65a1.41,1.41,0,0,0-.518-1.121,4.881,4.881,0,0,0-1.964-.764,8.25,8.25,0,0,1-3.1-1.219,2.466,2.466,0,0,1-1.042-2.1,2.956,2.956,0,0,1,1.173-2.353,5.339,5.339,0,0,1,6.2.043,3,3,0,0,1,1.116,2.472l-.022.063h-1.968a1.8,1.8,0,0,0-.623-1.334,2.3,2.3,0,0,0-1.65-.593,2.386,2.386,0,0,0-1.633.48,1.518,1.518,0,0,0-.535,1.165,1.3,1.3,0,0,0,.472,1.057,4.888,4.888,0,0,0,1.916.691,8.281,8.281,0,0,1,3.194,1.251,2.527,2.527,0,0,1,1.048,2.122,2.926,2.926,0,0,1-1.221,2.439,5.1,5.1,0,0,1-3.189.934,4.98,4.98,0,0,1-3.415-1.1,3.143,3.143,0,0,1-1.183-2.566l.021-.062h1.969a1.9,1.9,0,0,0,.817,1.6,3.176,3.176,0,0,0,1.792.506,2.915,2.915,0,0,0,1.723-.446A1.371,1.371,0,0,0,1215.254,9273.65Z" transform="translate(-967.935 -9260.327)" fill="#666"/>
    </g>
  </g>
</svg>
