<svg id="Grupo_56438" data-name="Grupo 56438" xmlns="http://www.w3.org/2000/svg" width="142.984" height="142.984" viewBox="0 0 142.984 142.984">
  <g id="Grupo_56435" data-name="Grupo 56435">
    <g id="BULINE">
      <circle id="Elipse_4086" data-name="Elipse 4086" cx="71.492" cy="71.492" r="71.492" fill="#86bec4"/>
    </g>
    <g id="Icons" transform="translate(12.114 23.034)">
      <path id="Trazado_124834" data-name="Trazado 124834" d="M1025.988,2429.5H995l.968-10.71.464-5.116h28.12l.463,5.116Z" transform="translate(-951.536 -2337.937)" fill="#e5e5e5"/>
      <path id="Trazado_124835" data-name="Trazado 124835" d="M1024.873,2418.787H995.826l.464-5.116h28.12Z" transform="translate(-951.39 -2337.937)" fill="#ccc"/>
      <path id="Trazado_124836" data-name="Trazado 124836" d="M991.065,2427.106h41.314a2.966,2.966,0,0,1,2.966,2.966v1.447a.955.955,0,0,1-.955.954H989.057a.955.955,0,0,1-.954-.954h0v-1.436a2.965,2.965,0,0,1,2.954-2.977Z" transform="translate(-952.764 -2335.546)" fill="#fff"/>
      <rect id="Rect치ngulo_5525" data-name="Rect치ngulo 5525" width="117.917" height="75.938" rx="3.613" fill="#3e436d"/>
      <path id="Trazado_124837" data-name="Trazado 124837" d="M981.3,2425.315H962.362a4.258,4.258,0,0,1-4.258-4.256v-67.427a4.257,4.257,0,0,1,4.258-4.252H981.3a4.254,4.254,0,0,0-4.258,4.252h0v67.427a4.256,4.256,0,0,0,4.255,4.256Z" transform="translate(-958.104 -2349.38)" fill="#32314b"/>
      <circle id="Elipse_4087" data-name="Elipse 4087" cx="1.435" cy="1.435" r="1.435" transform="translate(58.082 1.374)" fill="#27273d"/>
      <rect id="Rect치ngulo_5526" data-name="Rect치ngulo 5526" width="109.221" height="64.988" rx="3.217" transform="translate(4.351 5.474)" fill="#fff"/>
      <path id="Trazado_124838" data-name="Trazado 124838" d="M976.382,2354.026v64.988h-10.8a3.788,3.788,0,0,1-3.778-3.792v-57.406a3.79,3.79,0,0,1,3.79-3.79Z" transform="translate(-957.445 -2348.552)" fill="#e5e5e5"/>
    </g>
  </g>
  <g id="Grupo_56437" data-name="Grupo 56437" transform="translate(57.124 32.62)">
    <path id="Trazado_124839" data-name="Trazado 124839" d="M1026.115,2383.747v29.5a1.034,1.034,0,0,1-1.033,1.033H997.346a1.034,1.034,0,0,1-1.033-1.033v-47.732a1.036,1.036,0,0,1,1.073-1.031c.117,0,.234,0,.352,0a11.22,11.22,0,0,0,10.132-6.388,1.031,1.031,0,0,1,1.292-.519l2.5.935,1.627.607.177.067,1.64.61,2.5.935a1.03,1.03,0,0,1,.556,1.44,16.023,16.023,0,0,0-1.734,7.364c0,6.678,3.839,12.211,8.853,13.193A1.03,1.03,0,0,1,1026.115,2383.747Z" transform="translate(-996.313 -2357.518)" fill="#ffd6b1"/>
    <g id="Grupo_56436" data-name="Grupo 56436" transform="translate(0 1.001)">
      <path id="Trazado_124840" data-name="Trazado 124840" d="M997.584,2368.181a.868.868,0,0,1-.866.819h-.048c-.134-.007-.253-.016-.357-.025v-1.737a.709.709,0,0,1,.072,0c.1.01.234.019.38.027A.867.867,0,0,1,997.584,2368.181Z" transform="translate(-996.313 -2356.79)" fill="#ffb782"/>
      <path id="Trazado_124841" data-name="Trazado 124841" d="M1000.734,2369.006a.866.866,0,0,0-1-.708c-.238.04-.482.076-.721.1a.868.868,0,0,0,.1,1.729.787.787,0,0,0,.106-.007c.266-.033.537-.072.8-.116A.868.868,0,0,0,1000.734,2369.006Zm3.322-1.157a.868.868,0,0,0-1.134-.469c-.223.09-.45.179-.678.261a.867.867,0,0,0,.293,1.684.852.852,0,0,0,.292-.051c.255-.091.511-.189.759-.292A.867.867,0,0,0,1004.056,2367.849Zm2.971-1.884a.871.871,0,0,0-1.212-.2c-.14.1-.284.2-.427.3-.058.039-.115.078-.174.114a.868.868,0,1,0,.942,1.457c.065-.041.13-.085.194-.127.16-.107.319-.218.477-.33A.867.867,0,0,0,1007.027,2365.965Zm2.463-2.509a.868.868,0,0,0-1.225.083c-.159.181-.324.36-.492.534a.868.868,0,0,0,1.251,1.205c.186-.194.372-.4.549-.6A.868.868,0,0,0,1009.49,2363.457Zm1.84-3a.869.869,0,0,0-1.176.352c-.114.212-.236.424-.361.632a.868.868,0,0,0,1.485.9c.139-.231.275-.467.4-.7A.868.868,0,0,0,1011.33,2360.459Z" transform="translate(-995.968 -2358.014)" fill="#ffb782"/>
      <path id="Trazado_124842" data-name="Trazado 124842" d="M1011,2358.975c-.032.1-.067.219-.112.354a.869.869,0,0,1-.825.6.886.886,0,0,1-.272-.043.866.866,0,0,1-.551-1.1c.046-.142.084-.264.114-.363.006-.019.012-.038.019-.054Z" transform="translate(-994.02 -2358.368)" fill="#ffb782"/>
      <path id="Trazado_124843" data-name="Trazado 124843" d="M1021.8,2382.283v1.756a.919.919,0,0,1-.186-.02c-.1-.021-.238-.053-.419-.1a.868.868,0,0,1,.423-1.684Z" transform="translate(-992.001 -2354.124)" fill="#ffb782"/>
      <path id="Trazado_124844" data-name="Trazado 124844" d="M1021.248,2385.188c-.227-.094-.457-.195-.686-.3a.868.868,0,0,0-.721,1.578c.247.113.5.221.744.323a.843.843,0,0,0,.331.066.866.866,0,0,0,.331-1.668Zm-3.029-1.566c-.211-.132-.421-.271-.623-.411a.868.868,0,0,0-.986,1.428c.223.153.45.305.68.45a.868.868,0,0,0,.929-1.467Zm-2.692-2.072c-.181-.168-.359-.344-.53-.518a.868.868,0,0,0-1.24,1.214c.188.193.385.385.584.572a.868.868,0,1,0,1.186-1.268Zm-2.23-2.543c-.143-.2-.281-.405-.416-.613a.868.868,0,0,0-1.457.942c.147.228.3.455.459.675a.867.867,0,1,0,1.414-1Zm-1.674-2.939c-.1-.225-.2-.455-.284-.682a.868.868,0,0,0-1.618.63c.1.252.2.506.316.755a.869.869,0,0,0,.8.516.843.843,0,0,0,.35-.074A.865.865,0,0,0,1011.624,2376.068Zm-1.045-3.21c-.051-.24-.1-.484-.139-.727a.868.868,0,0,0-1.712.286c.046.269.1.537.153.8a.868.868,0,0,0,.848.686.882.882,0,0,0,.183-.018A.868.868,0,0,0,1010.579,2372.858Zm-.362-4.1a.869.869,0,0,0-1.736-.052c-.006.2-.009.4-.009.6,0,.072,0,.144,0,.216a.868.868,0,0,0,.868.858h.009a.867.867,0,0,0,.859-.876c0-.066,0-.131,0-.2C1010.208,2369.119,1010.212,2368.935,1010.218,2368.753Zm-.266-4.408a.868.868,0,0,0-1.026.674c-.057.264-.107.532-.152.8a.867.867,0,0,0,.71,1,.909.909,0,0,0,.147.013.869.869,0,0,0,.854-.722c.041-.243.087-.49.139-.734A.868.868,0,0,0,1009.951,2364.344Zm1.133-3.375a.868.868,0,0,0-1.12.5c-.1.248-.187.505-.274.761a.868.868,0,0,0,1.642.561c.081-.237.166-.474.255-.7A.865.865,0,0,0,1011.085,2360.969Z" transform="translate(-994.149 -2357.915)" fill="#ffb782"/>
      <path id="Trazado_124845" data-name="Trazado 124845" d="M1012.554,2359.55a.893.893,0,0,1-.073.151c-.012.019-.077.127-.181.314a.867.867,0,1,1-1.52-.835c.052-.1.1-.178.134-.24Z" transform="translate(-993.757 -2358.266)" fill="#ffb782"/>
      <path id="Trazado_124846" data-name="Trazado 124846" d="M1000.113,2411.086a.868.868,0,0,0-.868.867v.04h1.736v-.04A.868.868,0,0,0,1000.113,2411.086Zm0-3.7a.868.868,0,0,0-.868.868v.81a.868.868,0,0,0,1.736,0v-.81A.868.868,0,0,0,1000.113,2407.385Zm0-3.7a.869.869,0,0,0-.868.868v.809a.868.868,0,1,0,1.736,0v-.809A.869.869,0,0,0,1000.113,2403.684Zm0-3.7a.868.868,0,0,0-.868.867v.81a.868.868,0,0,0,1.736,0v-.81A.868.868,0,0,0,1000.113,2399.984Zm0-3.7a.868.868,0,0,0-.868.867v.811a.868.868,0,0,0,1.736,0v-.811A.868.868,0,0,0,1000.113,2396.283Zm0-3.7a.867.867,0,0,0-.868.867v.809a.868.868,0,1,0,1.736,0v-.809A.867.867,0,0,0,1000.113,2392.583Zm0-3.7a.868.868,0,0,0-.868.867v.811a.868.868,0,0,0,1.736,0v-.811A.868.868,0,0,0,1000.113,2388.881Zm0-3.7a.868.868,0,0,0-.868.868v.81a.868.868,0,0,0,1.736,0v-.81A.868.868,0,0,0,1000.113,2385.181Zm0-3.7a.869.869,0,0,0-.868.869v.809a.868.868,0,0,0,1.736,0v-.809A.869.869,0,0,0,1000.113,2381.479Zm0-3.7a.868.868,0,0,0-.868.867v.81a.868.868,0,1,0,1.736,0v-.81A.868.868,0,0,0,1000.113,2377.779Zm0-3.7a.868.868,0,0,0-.868.868v.809a.868.868,0,0,0,1.736,0v-.809A.868.868,0,0,0,1000.113,2374.078Zm0-3.7a.867.867,0,0,0-.868.867v.809a.868.868,0,1,0,1.736,0v-.809A.867.867,0,0,0,1000.113,2370.378Z" transform="translate(-995.791 -2356.23)" fill="#ffb782"/>
      <path id="Trazado_124847" data-name="Trazado 124847" d="M1003.368,2400.355h-.81a.868.868,0,1,0,0,1.735h.81a.868.868,0,1,0,0-1.735Zm3.7,0h-.811a.868.868,0,1,0,0,1.735h.811a.868.868,0,0,0,0-1.735Zm3.7,0h-.81a.868.868,0,1,0,0,1.735h.81a.868.868,0,1,0,0-1.735Zm3.7,0h-.809a.868.868,0,1,0,0,1.735h.809a.868.868,0,1,0,0-1.735Zm3.7,0h-.81a.868.868,0,1,0,0,1.735h.81a.868.868,0,0,0,0-1.735Zm3.7,0h-.81a.868.868,0,1,0,0,1.735h.81a.868.868,0,0,0,0-1.735Zm2.893,0a.868.868,0,1,0,0,1.735h.379v-1.735Z" transform="translate(-995.356 -2350.895)" fill="#ffb782"/>
    </g>
  </g>
</svg>
