<svg xmlns="http://www.w3.org/2000/svg" width="31.518" height="48.931" viewBox="0 0 31.518 48.931">
  <g id="Grupo_54672" data-name="Grupo 54672" transform="translate(-96.363 -5833.079)">
    <g id="Grupo_54620" data-name="Grupo 54620" transform="translate(102.093 5847.532)">
      <g id="Grupo_54619" data-name="Grupo 54619">
        <rect id="Rectángulo_5255" data-name="Rectángulo 5255" width="2.865" height="2.865" fill="#ff9696"/>
      </g>
    </g>
    <g id="Grupo_54622" data-name="Grupo 54622" transform="translate(107.823 5850.398)">
      <g id="Grupo_54621" data-name="Grupo 54621">
        <rect id="Rectángulo_5256" data-name="Rectángulo 5256" width="2.865" height="2.865" fill="#ff9696"/>
      </g>
    </g>
    <g id="Grupo_54624" data-name="Grupo 54624" transform="translate(113.553 5850.398)">
      <g id="Grupo_54623" data-name="Grupo 54623">
        <rect id="Rectángulo_5257" data-name="Rectángulo 5257" width="2.865" height="2.865" fill="#ff9696"/>
      </g>
    </g>
    <g id="Grupo_54626" data-name="Grupo 54626" transform="translate(107.823 5861.859)">
      <g id="Grupo_54625" data-name="Grupo 54625">
        <rect id="Rectángulo_5258" data-name="Rectángulo 5258" width="2.865" height="2.865" fill="#ff9696"/>
      </g>
    </g>
    <g id="Grupo_54628" data-name="Grupo 54628" transform="translate(113.553 5861.859)">
      <g id="Grupo_54627" data-name="Grupo 54627">
        <rect id="Rectángulo_5259" data-name="Rectángulo 5259" width="2.865" height="2.865" fill="#ff9696"/>
      </g>
    </g>
    <g id="Grupo_54630" data-name="Grupo 54630" transform="translate(102.093 5853.263)">
      <g id="Grupo_54629" data-name="Grupo 54629">
        <rect id="Rectángulo_5260" data-name="Rectángulo 5260" width="2.865" height="2.865" fill="#ff9696"/>
      </g>
    </g>
    <g id="Grupo_54632" data-name="Grupo 54632" transform="translate(102.093 5858.994)">
      <g id="Grupo_54631" data-name="Grupo 54631">
        <rect id="Rectángulo_5261" data-name="Rectángulo 5261" width="2.865" height="2.865" fill="#ff9696"/>
      </g>
    </g>
    <g id="Grupo_54634" data-name="Grupo 54634" transform="translate(102.093 5864.724)">
      <g id="Grupo_54633" data-name="Grupo 54633">
        <rect id="Rectángulo_5262" data-name="Rectángulo 5262" width="2.865" height="2.865" fill="#ff9696"/>
      </g>
    </g>
    <g id="Grupo_54636" data-name="Grupo 54636" transform="translate(102.093 5870.455)">
      <g id="Grupo_54635" data-name="Grupo 54635">
        <rect id="Rectángulo_5263" data-name="Rectángulo 5263" width="2.865" height="2.865" fill="#ff9696"/>
      </g>
    </g>
    <g id="Grupo_54638" data-name="Grupo 54638" transform="translate(96.363 5833.079)">
      <g id="Grupo_54637" data-name="Grupo 54637">
        <path id="Trazado_103611" data-name="Trazado 103611" d="M127.879,5860.856v-1.176l-1.153-.229a5.732,5.732,0,0,1,.006-11.23l1.148-.233v-7.911l-13.37-7-.715,1.072a18.219,18.219,0,0,1-14.868,8.224H96.363v39.635h25.428C128.171,5860.148,127.879,5861.151,127.879,5860.856Zm-3.207,1h-5.389v2.846h4.558c-1.126,3.879-2.828,9.74-4.2,14.441H104.958v-2.866h-2.866v2.866H99.228v-33.906a20.2,20.2,0,0,0,9.505-2.6,21.754,21.754,0,0,0,6.7-5.847l9.585,5.017v3.92a8.6,8.6,0,0,0-.332,16.092Z" transform="translate(-96.363 -5833.079)" fill="#ff9696"/>
      </g>
    </g>
  </g>
</svg>
