<svg xmlns="http://www.w3.org/2000/svg" width="396" height="112.794" viewBox="0 0 396 112.794">
  <g id="Grupo_55705" data-name="Grupo 55705" transform="translate(-742.945 -8489.049)">
    <g id="Grupo_55702" data-name="Grupo 55702" transform="translate(742.945 8489.049)">
      <path id="Trazado_106949" data-name="Trazado 106949" d="M767.148,8509.84l.042.128a10.051,10.051,0,0,1-3.041,7.905q-3.125,2.922-8.678,2.923a12.043,12.043,0,0,1-9.049-3.58,12.684,12.684,0,0,1-3.477-9.22v-6.125a12.918,12.918,0,0,1,3.391-9.22,11.559,11.559,0,0,1,8.816-3.6q5.722,0,8.944,2.936a10.045,10.045,0,0,1,3.137,8l-.043.127h-6.018a6.756,6.756,0,0,0-1.462-4.674,5.844,5.844,0,0,0-4.557-1.62,5.158,5.158,0,0,0-4.407,2.255,9.551,9.551,0,0,0-1.632,5.748v6.162a9.3,9.3,0,0,0,1.716,5.791,5.528,5.528,0,0,0,4.642,2.254,5.463,5.463,0,0,0,4.292-1.557,6.774,6.774,0,0,0,1.388-4.632Z" transform="translate(-742.945 -8489.049)" fill="#ff9696"/>
      <path id="Trazado_106950" data-name="Trazado 106950" d="M801.524,8489.581v20.474a9.773,9.773,0,0,1-3.434,8.01,13.71,13.71,0,0,1-8.986,2.818,13.548,13.548,0,0,1-8.933-2.818,9.815,9.815,0,0,1-3.4-8.01v-20.474h6.21v20.456a5.929,5.929,0,0,0,1.632,4.564,6.353,6.353,0,0,0,4.493,1.514,6.518,6.518,0,0,0,4.556-1.5,5.876,5.876,0,0,0,1.654-4.574v-20.456Z" transform="translate(-748.455 -8489.136)" fill="#ff9696"/>
      <path id="Trazado_106951" data-name="Trazado 106951" d="M828.2,8513.783h-10.83l-2.1,6.655h-6.252l10.619-30.857h6.336l10.576,30.857H830.3Zm-9.3-4.853h7.778l-3.815-12.123h-.127Z" transform="translate(-753.709 -8489.136)" fill="#ff9696"/>
      <path id="Trazado_106952" data-name="Trazado 106952" d="M845.355,8520.438v-30.857h10.6a12.732,12.732,0,0,1,9.325,3.613,12.46,12.46,0,0,1,3.667,9.272v5.107a12.418,12.418,0,0,1-3.667,9.272,12.775,12.775,0,0,1-9.325,3.592Zm6.189-26.089v21.32h4.091a6.444,6.444,0,0,0,5.213-2.243,8.814,8.814,0,0,0,1.886-5.866v-5.145a8.739,8.739,0,0,0-1.886-5.821,6.443,6.443,0,0,0-5.213-2.245Z" transform="translate(-759.627 -8489.136)" fill="#ff9696"/>
      <path id="Trazado_106953" data-name="Trazado 106953" d="M885.52,8508.1v12.334h-6.189v-30.857h11.635q5.277,0,8.255,2.405a8.142,8.142,0,0,1,2.977,6.708,6.8,6.8,0,0,1-1.25,4.111,8.746,8.746,0,0,1-3.667,2.776,6.647,6.647,0,0,1,3.933,2.691,8.535,8.535,0,0,1,1.2,4.662v2.268a11.239,11.239,0,0,0,.35,2.7,3.714,3.714,0,0,0,1.2,2.088v.444h-6.38a3.489,3.489,0,0,1-1.1-2.268,19.042,19.042,0,0,1-.254-3.009v-2.184a4.9,4.9,0,0,0-1.261-3.592,4.753,4.753,0,0,0-3.55-1.282Zm0-4.77h5.341a5.847,5.847,0,0,0,3.888-1.1,4.066,4.066,0,0,0,1.282-3.264,4.487,4.487,0,0,0-1.282-3.369,5.208,5.208,0,0,0-3.783-1.251H885.52Z" transform="translate(-765.162 -8489.136)" fill="#ff9696"/>
      <path id="Trazado_106954" data-name="Trazado 106954" d="M938.247,8507.7a12.949,12.949,0,0,1-3.592,9.389,12.421,12.421,0,0,1-9.336,3.707,12.259,12.259,0,0,1-9.261-3.707,13.009,13.009,0,0,1-3.561-9.389v-5.554a13.04,13.04,0,0,1,3.55-9.378,12.206,12.206,0,0,1,9.251-3.72,12.436,12.436,0,0,1,9.346,3.72,12.937,12.937,0,0,1,3.6,9.378Zm-6.189-5.579a9.367,9.367,0,0,0-1.8-5.925,5.939,5.939,0,0,0-4.959-2.315,5.775,5.775,0,0,0-4.9,2.3,9.6,9.6,0,0,0-1.738,5.936v5.605a9.618,9.618,0,0,0,1.76,5.987,5.8,5.8,0,0,0,4.9,2.314,5.9,5.9,0,0,0,4.959-2.314,9.542,9.542,0,0,0,1.781-5.987Z" transform="translate(-770.564 -8489.049)" fill="#ff9696"/>
      <path id="Trazado_106955" data-name="Trazado 106955" d="M961.942,8520.438v-30.857h10.6a12.734,12.734,0,0,1,9.325,3.613,12.46,12.46,0,0,1,3.666,9.272v5.107a12.418,12.418,0,0,1-3.666,9.272,12.776,12.776,0,0,1-9.325,3.592Zm6.189-26.089v21.32h4.091a6.444,6.444,0,0,0,5.213-2.243,8.814,8.814,0,0,0,1.886-5.866v-5.145a8.74,8.74,0,0,0-1.886-5.821,6.443,6.443,0,0,0-5.213-2.245Z" transform="translate(-778.618 -8489.136)" fill="#ff9696"/>
      <path id="Trazado_106956" data-name="Trazado 106956" d="M1014.887,8506.875h-12.779v8.795h14.941v4.769H995.919v-30.857h21.087v4.769h-14.9v7.757h12.779Z" transform="translate(-784.153 -8489.136)" fill="#ff9696"/>
      <path id="Trazado_106957" data-name="Trazado 106957" d="M1059.48,8494.35h-8.732v26.089h-6.189V8494.35h-8.689v-4.769h23.61Z" transform="translate(-790.661 -8489.136)" fill="#ff9696"/>
      <path id="Trazado_106958" data-name="Trazado 106958" d="M1081.709,8513.783H1070.88l-2.1,6.655h-6.252l10.619-30.857h6.336l10.576,30.857h-6.252Zm-9.3-4.853h7.778l-3.815-12.123h-.127Z" transform="translate(-795.003 -8489.136)" fill="#ff9696"/>
      <path id="Trazado_106959" data-name="Trazado 106959" d="M1105.049,8515.67h13.734v4.769H1098.86v-30.857h6.189Z" transform="translate(-800.922 -8489.136)" fill="#ff9696"/>
      <path id="Trazado_106960" data-name="Trazado 106960" d="M1133.1,8515.67h13.734v4.769h-19.922v-30.857h6.189Z" transform="translate(-805.491 -8489.136)" fill="#ff9696"/>
      <path id="Trazado_106961" data-name="Trazado 106961" d="M1171.561,8513.783h-10.83l-2.1,6.655h-6.252L1163,8489.581h6.337l10.576,30.857h-6.252Zm-9.3-4.853h7.778l-3.816-12.123h-.126Z" transform="translate(-809.64 -8489.136)" fill="#ff9696"/>
      <path id="Trazado_106962" data-name="Trazado 106962" d="M1205.179,8512.3a3.579,3.579,0,0,0-1.261-2.86,12.733,12.733,0,0,0-4.419-2.036,25.171,25.171,0,0,1-8.329-3.771,7.151,7.151,0,0,1-2.818-5.977,7.4,7.4,0,0,1,3.232-6.2,13.457,13.457,0,0,1,8.255-2.406,12.406,12.406,0,0,1,8.287,2.7,8.091,8.091,0,0,1,3.094,6.665l-.043.126h-6a4.5,4.5,0,0,0-1.431-3.464,5.689,5.689,0,0,0-4.016-1.324,5.94,5.94,0,0,0-3.836,1.1,3.474,3.474,0,0,0-1.356,2.818,3.026,3.026,0,0,0,1.452,2.575,20.016,20.016,0,0,0,5.013,2.13,19.468,19.468,0,0,1,7.735,3.751,7.8,7.8,0,0,1,2.628,6.126,7.336,7.336,0,0,1-3.126,6.252,13.66,13.66,0,0,1-8.255,2.287,15.069,15.069,0,0,1-8.8-2.595,8.109,8.109,0,0,1-3.645-7.28l.043-.127h6.019a4.746,4.746,0,0,0,1.685,4.037,7.593,7.593,0,0,0,4.694,1.282,6.182,6.182,0,0,0,3.858-1.038A3.339,3.339,0,0,0,1205.179,8512.3Z" transform="translate(-815.368 -8489.049)" fill="#ff9696"/>
    </g>
    <g id="Grupo_55703" data-name="Grupo 55703" transform="translate(743.276 8530.207)">
      <path id="Trazado_106963" data-name="Trazado 106963" d="M754.989,8538.982l11.341,32.8h.183l11.434-32.8h11.678v44.511H780.7v-13.268l.856-19.656-.182-.03-11.923,32.954h-5.992l-11.861-32.834-.184.031.856,19.535v13.268h-8.926v-44.511Z" transform="translate(-743.341 -8538.341)" fill="#8c757e"/>
      <path id="Trazado_106964" data-name="Trazado 106964" d="M832.86,8573.894H817.239l-3.027,9.6h-9.018l15.316-44.511h9.14l15.255,44.511h-9.019Zm-13.42-7h11.219l-5.5-17.487h-.183Z" transform="translate(-753.417 -8538.341)" fill="#8c757e"/>
      <path id="Trazado_106965" data-name="Trazado 106965" d="M882.475,8571.752a5.171,5.171,0,0,0-1.819-4.128,18.393,18.393,0,0,0-6.374-2.935q-7.95-2.292-12.015-5.441a10.311,10.311,0,0,1-4.065-8.621,10.676,10.676,0,0,1,4.661-8.941q4.662-3.469,11.908-3.47,7.336,0,11.953,3.9a11.67,11.67,0,0,1,4.463,9.615l-.061.183h-8.651a6.494,6.494,0,0,0-2.063-5,8.212,8.212,0,0,0-5.794-1.911,8.562,8.562,0,0,0-5.533,1.59,5.01,5.01,0,0,0-1.956,4.066,4.36,4.36,0,0,0,2.094,3.713,28.925,28.925,0,0,0,7.229,3.073q7.368,2.048,11.159,5.411a11.247,11.247,0,0,1,3.79,8.835,10.579,10.579,0,0,1-4.51,9.018q-4.509,3.3-11.906,3.3a21.726,21.726,0,0,1-12.687-3.745,11.692,11.692,0,0,1-5.258-10.5l.06-.185h8.682q0,3.974,2.431,5.823a10.951,10.951,0,0,0,6.771,1.85,8.9,8.9,0,0,0,5.563-1.5A4.812,4.812,0,0,0,882.475,8571.752Z" transform="translate(-761.861 -8538.216)" fill="#8c757e"/>
      <path id="Trazado_106966" data-name="Trazado 106966" d="M940.622,8568.205l.06.184q.123,7.184-4.386,11.4t-12.518,4.218q-8.04,0-13.054-5.166t-5.013-13.3v-8.835q0-8.1,4.891-13.3a16.666,16.666,0,0,1,12.717-5.2q8.253,0,12.9,4.233t4.525,11.54l-.062.184H932q0-4.4-2.109-6.741t-6.573-2.338a7.449,7.449,0,0,0-6.359,3.253,13.79,13.79,0,0,0-2.353,8.292v8.887a13.411,13.411,0,0,0,2.476,8.354,7.974,7.974,0,0,0,6.7,3.252q4.188,0,6.19-2.248t2-6.679Z" transform="translate(-769.79 -8538.216)" fill="#8c757e"/>
      <path id="Trazado_106967" data-name="Trazado 106967" d="M991.329,8538.982v29.531q0,7.488-4.953,11.556t-12.961,4.065q-7.98,0-12.886-4.065t-4.906-11.556v-29.531h8.957v29.508q0,4.4,2.355,6.583a9.157,9.157,0,0,0,6.481,2.184,9.411,9.411,0,0,0,6.573-2.168q2.383-2.169,2.384-6.6v-29.508Z" transform="translate(-777.92 -8538.341)" fill="#8c757e"/>
      <path id="Trazado_106968" data-name="Trazado 106968" d="M1017.637,8576.614h19.81v6.879h-28.736v-44.511h8.926Z" transform="translate(-786.568 -8538.341)" fill="#8c757e"/>
      <path id="Trazado_106969" data-name="Trazado 106969" d="M1059.879,8583.493h-8.926v-44.511h8.926Z" transform="translate(-793.449 -8538.341)" fill="#8c757e"/>
      <path id="Trazado_106970" data-name="Trazado 106970" d="M1109.347,8583.493h-8.9l-17.975-30.418-.184.03v30.388h-8.926v-44.511h8.926l17.976,30.387.183-.03v-30.356h8.9Z" transform="translate(-797.1 -8538.341)" fill="#8c757e"/>
      <path id="Trazado_106971" data-name="Trazado 106971" d="M1150.578,8573.894h-15.621l-3.027,9.6h-9.018l15.316-44.511h9.14l15.255,44.511H1153.6Zm-13.42-7h11.219l-5.5-17.487h-.183Z" transform="translate(-805.171 -8538.341)" fill="#8c757e"/>
      <path id="Trazado_106972" data-name="Trazado 106972" d="M1200.194,8571.752a5.171,5.171,0,0,0-1.819-4.128,18.406,18.406,0,0,0-6.375-2.935q-7.949-2.292-12.014-5.441a10.311,10.311,0,0,1-4.066-8.621,10.677,10.677,0,0,1,4.662-8.941q4.662-3.469,11.907-3.47,7.337,0,11.954,3.9a11.67,11.67,0,0,1,4.464,9.615l-.061.183h-8.651a6.5,6.5,0,0,0-2.064-5,8.211,8.211,0,0,0-5.793-1.911,8.567,8.567,0,0,0-5.534,1.59,5.012,5.012,0,0,0-1.955,4.066,4.36,4.36,0,0,0,2.094,3.713,28.914,28.914,0,0,0,7.229,3.073q7.367,2.048,11.158,5.411a11.245,11.245,0,0,1,3.791,8.835,10.579,10.579,0,0,1-4.51,9.018q-4.509,3.3-11.907,3.3a21.723,21.723,0,0,1-12.686-3.745,11.69,11.69,0,0,1-5.258-10.5l.06-.185h8.682q0,3.974,2.43,5.823a10.952,10.952,0,0,0,6.771,1.85,8.9,8.9,0,0,0,5.564-1.5A4.812,4.812,0,0,0,1200.194,8571.752Z" transform="translate(-813.616 -8538.216)" fill="#8c757e"/>
    </g>
    <g id="Grupo_55704" data-name="Grupo 55704" transform="translate(883.993 8578.235)">
      <path id="Trazado_106973" data-name="Trazado 106973" d="M914.419,8597.059l5.486,13.984h.07l5.485-13.984h2.979v17.213h-2.328v-6.809l.236-7-.059-.012-5.579,13.818H919.16l-5.557-13.783-.059.012.225,6.963v6.809h-2.33v-17.213Z" transform="translate(-911.44 -8595.83)" fill="#666"/>
      <path id="Trazado_106974" data-name="Trazado 106974" d="M942.773,8615.334a5.4,5.4,0,0,1-4.25-1.779,6.7,6.7,0,0,1-1.578-4.616v-.52a6.562,6.562,0,0,1,1.626-4.547,5.008,5.008,0,0,1,3.847-1.814,4.844,4.844,0,0,1,3.913,1.562,6.216,6.216,0,0,1,1.324,4.16v1.455h-8.3l-.036.059a5.04,5.04,0,0,0,.934,3.024,2.979,2.979,0,0,0,2.518,1.184,5.861,5.861,0,0,0,2.075-.336,4.811,4.811,0,0,0,1.543-.928l.909,1.515a5.418,5.418,0,0,1-1.808,1.131A7.3,7.3,0,0,1,942.773,8615.334Zm-.355-11.442a2.523,2.523,0,0,0-2,.983,4.65,4.65,0,0,0-1.017,2.469l.023.059h5.9v-.307a3.551,3.551,0,0,0-.732-2.285A2.617,2.617,0,0,0,942.418,8603.892Z" transform="translate(-915.595 -8596.645)" fill="#666"/>
      <path id="Trazado_106975" data-name="Trazado 106975" d="M953.468,8607.874a8.539,8.539,0,0,1,1.318-4.978A4.248,4.248,0,0,1,958.48,8601a4.573,4.573,0,0,1,1.992.415,4.086,4.086,0,0,1,1.483,1.205v-7.034h2.33v18.441h-1.9l-.271-1.571a4.16,4.16,0,0,1-1.537,1.359,4.618,4.618,0,0,1-2.115.461,4.387,4.387,0,0,1-3.665-1.7,7.045,7.045,0,0,1-1.324-4.463Zm2.329.247a5.427,5.427,0,0,0,.792,3.1,2.766,2.766,0,0,0,2.459,1.165,3.094,3.094,0,0,0,1.75-.473,3.54,3.54,0,0,0,1.158-1.324v-5.97a3.594,3.594,0,0,0-1.164-1.26,3.083,3.083,0,0,0-1.72-.467,2.662,2.662,0,0,0-2.476,1.384,7.132,7.132,0,0,0-.8,3.594Z" transform="translate(-918.286 -8595.591)" fill="#666"/>
      <path id="Trazado_106976" data-name="Trazado 106976" d="M974.34,8597.968h-2.329v-2.377h2.329Zm0,16.064h-2.329v-12.79h2.329Z" transform="translate(-921.307 -8595.591)" fill="#666"/>
      <path id="Trazado_106977" data-name="Trazado 106977" d="M979.68,8607.874A8.539,8.539,0,0,1,981,8602.9a4.248,4.248,0,0,1,3.694-1.892,4.573,4.573,0,0,1,1.992.415,4.085,4.085,0,0,1,1.483,1.205v-7.034h2.33v18.441h-1.9l-.271-1.571a4.159,4.159,0,0,1-1.537,1.359,4.62,4.62,0,0,1-2.115.461,4.386,4.386,0,0,1-3.665-1.7,7.045,7.045,0,0,1-1.324-4.463Zm2.329.247a5.427,5.427,0,0,0,.792,3.1,2.766,2.766,0,0,0,2.459,1.165,3.094,3.094,0,0,0,1.75-.473,3.539,3.539,0,0,0,1.158-1.324v-5.97a3.594,3.594,0,0,0-1.164-1.26,3.083,3.083,0,0,0-1.72-.467,2.662,2.662,0,0,0-2.476,1.384,7.132,7.132,0,0,0-.8,3.594Z" transform="translate(-922.556 -8595.591)" fill="#666"/>
      <path id="Trazado_106978" data-name="Trazado 106978" d="M1005.773,8615.086q-.118-.579-.183-1.022a7.542,7.542,0,0,1-.077-.893,5.419,5.419,0,0,1-1.7,1.542,4.327,4.327,0,0,1-2.253.621,4.18,4.18,0,0,1-3.043-1.022,3.759,3.759,0,0,1-1.046-2.819,3.3,3.3,0,0,1,1.483-2.867,6.935,6.935,0,0,1,4.025-1.034h2.53v-1.265a2.348,2.348,0,0,0-.686-1.779,2.691,2.691,0,0,0-1.939-.655,2.8,2.8,0,0,0-1.826.572,1.724,1.724,0,0,0-.7,1.378h-2.222l-.024-.071a3.094,3.094,0,0,1,1.318-2.553,5.409,5.409,0,0,1,3.588-1.16,5.277,5.277,0,0,1,3.5,1.106,3.915,3.915,0,0,1,1.324,3.186v6.159a12.1,12.1,0,0,0,.071,1.324,6.734,6.734,0,0,0,.26,1.253Zm-3.865-1.714a4.148,4.148,0,0,0,2.28-.648,3.088,3.088,0,0,0,1.324-1.485v-2.075H1002.9a3.4,3.4,0,0,0-2.252.706,2.118,2.118,0,0,0-.845,1.664,1.746,1.746,0,0,0,.532,1.344A2.234,2.234,0,0,0,1001.908,8613.372Z" transform="translate(-925.455 -8596.645)" fill="#666"/>
      <path id="Trazado_106979" data-name="Trazado 106979" d="M1022.5,8611.681a1.586,1.586,0,0,0-.585-1.265,5.509,5.509,0,0,0-2.217-.863,9.3,9.3,0,0,1-3.505-1.375,2.78,2.78,0,0,1-1.176-2.365,3.337,3.337,0,0,1,1.324-2.656,6.022,6.022,0,0,1,7,.049,3.394,3.394,0,0,1,1.259,2.79l-.023.071h-2.223a2.037,2.037,0,0,0-.7-1.507,2.59,2.59,0,0,0-1.863-.668,2.687,2.687,0,0,0-1.844.543,1.706,1.706,0,0,0-.6,1.313,1.463,1.463,0,0,0,.532,1.193,5.5,5.5,0,0,0,2.164.78,9.323,9.323,0,0,1,3.605,1.413,2.847,2.847,0,0,1,1.182,2.394,3.3,3.3,0,0,1-1.377,2.755,5.774,5.774,0,0,1-3.6,1.052,5.613,5.613,0,0,1-3.853-1.242,3.542,3.542,0,0,1-1.336-2.9l.023-.07h2.223a2.142,2.142,0,0,0,.922,1.807,3.582,3.582,0,0,0,2.021.569,3.3,3.3,0,0,0,1.945-.5A1.551,1.551,0,0,0,1022.5,8611.681Z" transform="translate(-928.253 -8596.645)" fill="#666"/>
      <path id="Trazado_106980" data-name="Trazado 106980" d="M1045.147,8615.334a5.4,5.4,0,0,1-4.25-1.779,6.7,6.7,0,0,1-1.578-4.616v-.52a6.562,6.562,0,0,1,1.626-4.547,5.007,5.007,0,0,1,3.847-1.814,4.844,4.844,0,0,1,3.912,1.562,6.215,6.215,0,0,1,1.324,4.16v1.455h-8.3l-.036.059a5.041,5.041,0,0,0,.934,3.024,2.979,2.979,0,0,0,2.518,1.184,5.861,5.861,0,0,0,2.075-.336,4.814,4.814,0,0,0,1.543-.928l.909,1.515a5.417,5.417,0,0,1-1.808,1.131A7.3,7.3,0,0,1,1045.147,8615.334Zm-.355-11.442a2.523,2.523,0,0,0-2,.983,4.65,4.65,0,0,0-1.017,2.469l.023.059h5.9v-.307a3.552,3.552,0,0,0-.733-2.285A2.617,2.617,0,0,0,1044.792,8603.892Z" transform="translate(-932.271 -8596.645)" fill="#666"/>
      <path id="Trazado_106981" data-name="Trazado 106981" d="M1058.559,8602.3l.165,1.9a4.662,4.662,0,0,1,1.6-1.579,4.285,4.285,0,0,1,2.192-.562,4.174,4.174,0,0,1,3.2,1.213,5.313,5.313,0,0,1,1.135,3.74v8.075h-2.328v-8.027a3.458,3.458,0,0,0-.668-2.4,2.672,2.672,0,0,0-2.04-.71,3.292,3.292,0,0,0-1.779.484,3.529,3.529,0,0,0-1.235,1.324v9.327h-2.329V8602.3Z" transform="translate(-935.066 -8596.645)" fill="#666"/>
      <path id="Trazado_106982" data-name="Trazado 106982" d="M1093.49,8609.175a7.047,7.047,0,0,1-1.324,4.463,4.376,4.376,0,0,1-3.652,1.7,5.061,5.061,0,0,1-2.074-.4,3.952,3.952,0,0,1-1.519-1.187V8620h-2.329V8602.3h1.785l.367,1.654a4.233,4.233,0,0,1,1.559-1.407,4.675,4.675,0,0,1,2.176-.485,4.251,4.251,0,0,1,3.694,1.886,8.535,8.535,0,0,1,1.318,4.983Zm-2.329-.254a6.745,6.745,0,0,0-.857-3.571,2.78,2.78,0,0,0-2.524-1.4,3.125,3.125,0,0,0-1.714.454,3.413,3.413,0,0,0-1.146,1.245v6.175a3.293,3.293,0,0,0,1.146,1.235,3.225,3.225,0,0,0,1.738.441,2.868,2.868,0,0,0,2.507-1.209,5.313,5.313,0,0,0,.85-3.123Z" transform="translate(-939.32 -8596.645)" fill="#666"/>
      <path id="Trazado_106983" data-name="Trazado 106983" d="M1108.385,8613.24a4.334,4.334,0,0,1-1.549,1.585,4.239,4.239,0,0,1-2.187.556,4.109,4.109,0,0,1-3.263-1.336,6.2,6.2,0,0,1-1.17-4.162v-7.541h2.329v7.565a4.765,4.765,0,0,0,.6,2.813,2.242,2.242,0,0,0,1.879.769,3.818,3.818,0,0,0,2.051-.5,3.124,3.124,0,0,0,1.224-1.423v-9.221h2.329v12.79h-2.093Z" transform="translate(-942.191 -8596.69)" fill="#666"/>
      <path id="Trazado_106984" data-name="Trazado 106984" d="M1120.508,8614.032h-2.329v-18.441h2.329Z" transform="translate(-945.117 -8595.591)" fill="#666"/>
      <path id="Trazado_106985" data-name="Trazado 106985" d="M1125.877,8608.927a8.4,8.4,0,0,1,1.348-4.977,4.321,4.321,0,0,1,3.724-1.893,4.5,4.5,0,0,1,2.139.491,4.216,4.216,0,0,1,1.537,1.413l.284-1.666h1.856v12.861a4.883,4.883,0,0,1-1.43,3.776,5.882,5.882,0,0,1-4.126,1.318,8.637,8.637,0,0,1-1.992-.255,7.769,7.769,0,0,1-1.885-.691l.591-1.809a5.939,5.939,0,0,0,1.514.572,7.2,7.2,0,0,0,1.75.221,3.393,3.393,0,0,0,2.476-.774,3.209,3.209,0,0,0,.775-2.358v-1.442a4.1,4.1,0,0,1-1.5,1.212,4.715,4.715,0,0,1-2.01.407,4.461,4.461,0,0,1-3.7-1.7,6.969,6.969,0,0,1-1.348-4.457Zm2.329.248a5.307,5.307,0,0,0,.816,3.1,2.819,2.819,0,0,0,2.482,1.17,3.075,3.075,0,0,0,1.761-.479,3.644,3.644,0,0,0,1.171-1.354v-5.888a3.633,3.633,0,0,0-1.171-1.294,3.068,3.068,0,0,0-1.738-.479,2.715,2.715,0,0,0-2.495,1.395,6.948,6.948,0,0,0-.827,3.582Z" transform="translate(-946.371 -8596.645)" fill="#666"/>
      <path id="Trazado_106986" data-name="Trazado 106986" d="M1151.941,8615.086q-.118-.579-.183-1.022a7.529,7.529,0,0,1-.077-.893,5.419,5.419,0,0,1-1.7,1.542,4.327,4.327,0,0,1-2.253.621,4.18,4.18,0,0,1-3.043-1.022,3.759,3.759,0,0,1-1.046-2.819,3.3,3.3,0,0,1,1.484-2.867,6.934,6.934,0,0,1,4.025-1.034h2.53v-1.265a2.348,2.348,0,0,0-.686-1.779,2.691,2.691,0,0,0-1.939-.655,2.8,2.8,0,0,0-1.826.572,1.724,1.724,0,0,0-.7,1.378h-2.222l-.024-.071a3.094,3.094,0,0,1,1.318-2.553,5.408,5.408,0,0,1,3.588-1.16,5.276,5.276,0,0,1,3.5,1.106,3.914,3.914,0,0,1,1.324,3.186v6.159a12.1,12.1,0,0,0,.071,1.324,6.661,6.661,0,0,0,.26,1.253Zm-3.866-1.714a4.148,4.148,0,0,0,2.281-.648,3.088,3.088,0,0,0,1.324-1.485v-2.075h-2.613a3.4,3.4,0,0,0-2.252.706,2.118,2.118,0,0,0-.844,1.664,1.745,1.745,0,0,0,.531,1.344A2.234,2.234,0,0,0,1148.075,8613.372Z" transform="translate(-949.265 -8596.645)" fill="#666"/>
      <path id="Trazado_106987" data-name="Trazado 106987" d="M1160.674,8607.874a8.538,8.538,0,0,1,1.318-4.978,4.249,4.249,0,0,1,3.694-1.892,4.573,4.573,0,0,1,1.992.415,4.085,4.085,0,0,1,1.483,1.205v-7.034h2.33v18.441h-1.9l-.271-1.571a4.159,4.159,0,0,1-1.537,1.359,4.618,4.618,0,0,1-2.115.461,4.388,4.388,0,0,1-3.665-1.7,7.045,7.045,0,0,1-1.324-4.463Zm2.329.247a5.427,5.427,0,0,0,.792,3.1,2.766,2.766,0,0,0,2.459,1.165,3.094,3.094,0,0,0,1.75-.473,3.54,3.54,0,0,0,1.158-1.324v-5.97a3.6,3.6,0,0,0-1.164-1.26,3.081,3.081,0,0,0-1.72-.467,2.662,2.662,0,0,0-2.476,1.384,7.131,7.131,0,0,0-.8,3.594Z" transform="translate(-952.039 -8595.591)" fill="#666"/>
      <path id="Trazado_106988" data-name="Trazado 106988" d="M1186.767,8615.086q-.118-.579-.183-1.022a7.554,7.554,0,0,1-.077-.893,5.42,5.42,0,0,1-1.7,1.542,4.327,4.327,0,0,1-2.252.621,4.18,4.18,0,0,1-3.044-1.022,3.759,3.759,0,0,1-1.046-2.819,3.3,3.3,0,0,1,1.483-2.867,6.935,6.935,0,0,1,4.025-1.034h2.53v-1.265a2.348,2.348,0,0,0-.686-1.779,2.689,2.689,0,0,0-1.938-.655,2.8,2.8,0,0,0-1.827.572,1.724,1.724,0,0,0-.7,1.378h-2.222l-.024-.071a3.094,3.094,0,0,1,1.318-2.553,5.408,5.408,0,0,1,3.588-1.16,5.277,5.277,0,0,1,3.5,1.106,3.915,3.915,0,0,1,1.325,3.186v6.159a12.1,12.1,0,0,0,.07,1.324,6.739,6.739,0,0,0,.26,1.253Zm-3.865-1.714a4.148,4.148,0,0,0,2.28-.648,3.088,3.088,0,0,0,1.324-1.485v-2.075h-2.613a3.405,3.405,0,0,0-2.252.706,2.118,2.118,0,0,0-.845,1.664,1.746,1.746,0,0,0,.531,1.344A2.237,2.237,0,0,0,1182.9,8613.372Z" transform="translate(-954.938 -8596.645)" fill="#666"/>
      <path id="Trazado_106989" data-name="Trazado 106989" d="M1203.493,8611.681a1.587,1.587,0,0,0-.586-1.265,5.5,5.5,0,0,0-2.217-.863,9.305,9.305,0,0,1-3.505-1.375,2.78,2.78,0,0,1-1.176-2.365,3.337,3.337,0,0,1,1.324-2.656,6.022,6.022,0,0,1,7,.049,3.394,3.394,0,0,1,1.259,2.79l-.023.071h-2.223a2.037,2.037,0,0,0-.7-1.507,2.59,2.59,0,0,0-1.863-.668,2.688,2.688,0,0,0-1.844.543,1.709,1.709,0,0,0-.6,1.313,1.463,1.463,0,0,0,.531,1.193,5.5,5.5,0,0,0,2.164.78,9.324,9.324,0,0,1,3.605,1.413,2.847,2.847,0,0,1,1.182,2.394,3.3,3.3,0,0,1-1.377,2.755,5.771,5.771,0,0,1-3.6,1.052,5.614,5.614,0,0,1-3.854-1.242,3.542,3.542,0,0,1-1.336-2.9l.024-.07h2.223a2.142,2.142,0,0,0,.922,1.807,3.583,3.583,0,0,0,2.022.569,3.3,3.3,0,0,0,1.945-.5A1.552,1.552,0,0,0,1203.493,8611.681Z" transform="translate(-957.737 -8596.645)" fill="#666"/>
    </g>
  </g>
</svg>
