<svg xmlns="http://www.w3.org/2000/svg" width="396" height="127.99" viewBox="0 0 396 127.99">
  <g id="Grupo_55697" data-name="Grupo 55697" transform="translate(-742.181 -8054.078)">
    <g id="Grupo_55694" data-name="Grupo 55694" transform="translate(742.181 8054.078)">
      <path id="Trazado_106907" data-name="Trazado 106907" d="M766.238,8074.743l.042.127a10,10,0,0,1-3.023,7.857q-3.108,2.908-8.626,2.906a11.975,11.975,0,0,1-9-3.56,12.6,12.6,0,0,1-3.454-9.164v-6.088a12.834,12.834,0,0,1,3.37-9.163,11.483,11.483,0,0,1,8.763-3.58q5.688,0,8.889,2.916a9.985,9.985,0,0,1,3.118,7.953l-.042.126H760.3a6.715,6.715,0,0,0-1.452-4.646,5.81,5.81,0,0,0-4.53-1.61,5.13,5.13,0,0,0-4.382,2.24,9.5,9.5,0,0,0-1.623,5.715v6.124a9.237,9.237,0,0,0,1.707,5.756,5.492,5.492,0,0,0,4.614,2.241,5.437,5.437,0,0,0,4.266-1.547,6.731,6.731,0,0,0,1.38-4.6Z" transform="translate(-742.181 -8054.079)" fill="#ff9696"/>
      <path id="Trazado_106908" data-name="Trazado 106908" d="M789.593,8054.437v20.35a9.718,9.718,0,0,1-3.413,7.963,13.63,13.63,0,0,1-8.931,2.8,13.461,13.461,0,0,1-8.878-2.8,9.755,9.755,0,0,1-3.382-7.963v-20.35h6.172v20.334a5.89,5.89,0,0,0,1.623,4.535,6.317,6.317,0,0,0,4.466,1.5,6.49,6.49,0,0,0,4.53-1.494,5.85,5.85,0,0,0,1.642-4.546v-20.334Z" transform="translate(-736.846 -8053.995)" fill="#ff9696"/>
      <path id="Trazado_106909" data-name="Trazado 106909" d="M805.8,8078.493H795.039l-2.087,6.615h-6.214l10.554-30.672h6.3l10.511,30.672h-6.214Zm-9.248-4.823h7.732l-3.792-12.05h-.127Z" transform="translate(-731.758 -8053.995)" fill="#ff9696"/>
      <path id="Trazado_106910" data-name="Trazado 106910" d="M811.235,8085.108v-30.672h10.533a12.657,12.657,0,0,1,9.269,3.592,12.38,12.38,0,0,1,3.644,9.216v5.078a12.336,12.336,0,0,1-3.644,9.215,12.693,12.693,0,0,1-9.269,3.571Zm6.152-25.933v21.193h4.066a6.407,6.407,0,0,0,5.183-2.231,8.757,8.757,0,0,0,1.873-5.829v-5.115a8.683,8.683,0,0,0-1.873-5.785,6.407,6.407,0,0,0-5.183-2.232Z" transform="translate(-726.027 -8053.995)" fill="#ff9696"/>
      <path id="Trazado_106911" data-name="Trazado 106911" d="M840.3,8072.848v12.261h-6.151v-30.672h11.566q5.245,0,8.2,2.392a8.09,8.09,0,0,1,2.959,6.666,6.765,6.765,0,0,1-1.241,4.087,8.678,8.678,0,0,1-3.646,2.76,6.592,6.592,0,0,1,3.908,2.676,8.484,8.484,0,0,1,1.191,4.635v2.254a11.138,11.138,0,0,0,.348,2.686,3.694,3.694,0,0,0,1.189,2.074v.443h-6.34a3.471,3.471,0,0,1-1.1-2.255,18.893,18.893,0,0,1-.253-2.991v-2.17a4.873,4.873,0,0,0-1.254-3.569,4.719,4.719,0,0,0-3.528-1.275Zm0-4.74h5.308a5.806,5.806,0,0,0,3.865-1.095,4.041,4.041,0,0,0,1.276-3.244,4.46,4.46,0,0,0-1.276-3.349,5.169,5.169,0,0,0-3.759-1.244H840.3Z" transform="translate(-720.667 -8053.995)" fill="#ff9696"/>
      <path id="Trazado_106912" data-name="Trazado 106912" d="M882.1,8072.616a12.863,12.863,0,0,1-3.571,9.332,12.342,12.342,0,0,1-9.278,3.686,12.19,12.19,0,0,1-9.206-3.686,12.932,12.932,0,0,1-3.539-9.332v-5.52a12.962,12.962,0,0,1,3.528-9.321,12.134,12.134,0,0,1,9.2-3.7,12.363,12.363,0,0,1,9.292,3.7,12.858,12.858,0,0,1,3.58,9.321Zm-6.15-5.547a9.3,9.3,0,0,0-1.792-5.887,5.9,5.9,0,0,0-4.93-2.3,5.738,5.738,0,0,0-4.865,2.288,9.526,9.526,0,0,0-1.728,5.9v5.572a9.56,9.56,0,0,0,1.749,5.952,5.765,5.765,0,0,0,4.867,2.3,5.864,5.864,0,0,0,4.928-2.3,9.484,9.484,0,0,0,1.771-5.952Z" transform="translate(-715.435 -8054.079)" fill="#ff9696"/>
      <path id="Trazado_106913" data-name="Trazado 106913" d="M889.852,8085.108v-30.672h10.533a12.655,12.655,0,0,1,9.268,3.592,12.382,12.382,0,0,1,3.645,9.216v5.078a12.337,12.337,0,0,1-3.645,9.215,12.69,12.69,0,0,1-9.268,3.571ZM896,8059.176v21.193h4.066a6.407,6.407,0,0,0,5.182-2.231,8.757,8.757,0,0,0,1.874-5.829v-5.115a8.683,8.683,0,0,0-1.874-5.785,6.407,6.407,0,0,0-5.182-2.232Z" transform="translate(-707.635 -8053.995)" fill="#ff9696"/>
      <path id="Trazado_106914" data-name="Trazado 106914" d="M931.615,8071.626h-12.7v8.743h14.852v4.739h-21v-30.672h20.961v4.739h-14.81v7.71h12.7Z" transform="translate(-702.276 -8053.995)" fill="#ff9696"/>
      <path id="Trazado_106915" data-name="Trazado 106915" d="M963.169,8059.176h-8.678v25.933h-6.152v-25.933H939.7v-4.739h23.468Z" transform="translate(-695.974 -8053.995)" fill="#ff9696"/>
      <path id="Trazado_106916" data-name="Trazado 106916" d="M976.743,8078.493H965.979l-2.085,6.615h-6.214l10.553-30.672h6.3l10.512,30.672h-6.215Zm-9.248-4.823h7.731l-3.792-12.05h-.126Z" transform="translate(-691.768 -8053.995)" fill="#ff9696"/>
      <path id="Trazado_106917" data-name="Trazado 106917" d="M988.327,8080.369h13.651v4.739h-19.8v-30.672h6.151Z" transform="translate(-686.037 -8053.995)" fill="#ff9696"/>
      <path id="Trazado_106918" data-name="Trazado 106918" d="M1007.242,8080.369h13.651v4.739h-19.8v-30.672h6.151Z" transform="translate(-681.612 -8053.995)" fill="#ff9696"/>
      <path id="Trazado_106919" data-name="Trazado 106919" d="M1037.331,8078.493h-10.765l-2.085,6.615h-6.214l10.552-30.672h6.3l10.511,30.672h-6.214Zm-9.248-4.823h7.731l-3.792-12.05h-.126Z" transform="translate(-677.594 -8053.995)" fill="#ff9696"/>
      <path id="Trazado_106920" data-name="Trazado 106920" d="M1059.506,8077.188a3.559,3.559,0,0,0-1.254-2.844,12.711,12.711,0,0,0-4.393-2.023,24.971,24.971,0,0,1-8.279-3.749,7.106,7.106,0,0,1-2.8-5.94,7.359,7.359,0,0,1,3.212-6.162,13.389,13.389,0,0,1,8.206-2.39,12.334,12.334,0,0,1,8.237,2.686,8.04,8.04,0,0,1,3.075,6.625l-.042.125h-5.961a4.476,4.476,0,0,0-1.423-3.444,5.661,5.661,0,0,0-3.992-1.315,5.9,5.9,0,0,0-3.813,1.1,3.453,3.453,0,0,0-1.349,2.8,3.006,3.006,0,0,0,1.444,2.56,19.953,19.953,0,0,0,4.981,2.117,19.347,19.347,0,0,1,7.69,3.729,7.747,7.747,0,0,1,2.612,6.087,7.289,7.289,0,0,1-3.108,6.214,13.563,13.563,0,0,1-8.2,2.275,14.977,14.977,0,0,1-8.742-2.58,8.055,8.055,0,0,1-3.623-7.236l.042-.125H1048a4.715,4.715,0,0,0,1.676,4.013,7.556,7.556,0,0,0,4.666,1.274,6.144,6.144,0,0,0,3.834-1.033A3.318,3.318,0,0,0,1059.506,8077.188Z" transform="translate(-672.047 -8054.079)" fill="#ff9696"/>
    </g>
    <g id="Grupo_55695" data-name="Grupo 55695" transform="translate(862.222 8163.749)">
      <path id="Trazado_106921" data-name="Trazado 106921" d="M842.384,8143.934l5.376,13.708h.069l5.378-13.708h2.919v16.87h-2.283v-6.673l.232-6.859-.058-.012-5.47,13.544h-1.516l-5.447-13.511-.058.013.22,6.825v6.673h-2.282v-16.87Z" transform="translate(-839.464 -8142.729)" fill="#666"/>
      <path id="Trazado_106922" data-name="Trazado 106922" d="M862.135,8160.271a5.288,5.288,0,0,1-4.165-1.744,6.569,6.569,0,0,1-1.547-4.524v-.512a6.431,6.431,0,0,1,1.593-4.454,4.9,4.9,0,0,1,3.772-1.778,4.748,4.748,0,0,1,3.835,1.529,6.1,6.1,0,0,1,1.3,4.079v1.424h-8.134l-.033.058a4.923,4.923,0,0,0,.914,2.964,2.918,2.918,0,0,0,2.468,1.163,5.725,5.725,0,0,0,2.033-.332,4.7,4.7,0,0,0,1.513-.908l.891,1.484a5.277,5.277,0,0,1-1.772,1.106A7.132,7.132,0,0,1,862.135,8160.271Zm-.347-11.218a2.475,2.475,0,0,0-1.958.965,4.552,4.552,0,0,0-1,2.419l.024.059h5.781v-.3a3.483,3.483,0,0,0-.718-2.24A2.562,2.562,0,0,0,861.788,8149.053Z" transform="translate(-835.497 -8141.951)" fill="#666"/>
      <path id="Trazado_106923" data-name="Trazado 106923" d="M867.409,8155a8.376,8.376,0,0,1,1.292-4.878,4.165,4.165,0,0,1,3.622-1.854,4.488,4.488,0,0,1,1.952.405,4.007,4.007,0,0,1,1.454,1.182v-6.894h2.283v18.074h-1.866l-.267-1.541a4.071,4.071,0,0,1-1.505,1.333,4.528,4.528,0,0,1-2.074.453,4.3,4.3,0,0,1-3.592-1.664,6.909,6.909,0,0,1-1.3-4.374Zm2.284.243a5.312,5.312,0,0,0,.776,3.041,2.708,2.708,0,0,0,2.41,1.142,3.024,3.024,0,0,0,1.714-.463,3.469,3.469,0,0,0,1.135-1.3v-5.852a3.525,3.525,0,0,0-1.14-1.233,3.013,3.013,0,0,0-1.687-.458,2.606,2.606,0,0,0-2.426,1.354,7,7,0,0,0-.782,3.523Z" transform="translate(-832.927 -8142.958)" fill="#666"/>
      <path id="Trazado_106924" data-name="Trazado 106924" d="M882.022,8145.287h-2.283v-2.329h2.283Zm0,15.745h-2.283V8148.5h2.283Z" transform="translate(-830.042 -8142.958)" fill="#666"/>
      <path id="Trazado_106925" data-name="Trazado 106925" d="M884.839,8155a8.366,8.366,0,0,1,1.292-4.878,4.165,4.165,0,0,1,3.62-1.854,4.484,4.484,0,0,1,1.952.405,4.01,4.01,0,0,1,1.455,1.182v-6.894h2.283v18.074h-1.866l-.266-1.541a4.065,4.065,0,0,1-1.507,1.333,4.523,4.523,0,0,1-2.073.453,4.3,4.3,0,0,1-3.592-1.664,6.9,6.9,0,0,1-1.3-4.374Zm2.283.243a5.313,5.313,0,0,0,.776,3.041,2.709,2.709,0,0,0,2.41,1.142,3.028,3.028,0,0,0,1.715-.463,3.468,3.468,0,0,0,1.135-1.3v-5.852a3.515,3.515,0,0,0-1.141-1.233,3.011,3.011,0,0,0-1.686-.458,2.608,2.608,0,0,0-2.427,1.354,7,7,0,0,0-.782,3.523Z" transform="translate(-828.849 -8142.958)" fill="#666"/>
      <path id="Trazado_106926" data-name="Trazado 106926" d="M904.805,8160.026q-.117-.567-.18-1a7.4,7.4,0,0,1-.074-.875,5.318,5.318,0,0,1-1.663,1.512,4.237,4.237,0,0,1-2.208.61,4.1,4.1,0,0,1-2.984-1,3.683,3.683,0,0,1-1.025-2.763,3.232,3.232,0,0,1,1.455-2.81,6.781,6.781,0,0,1,3.945-1.015h2.48v-1.24a2.3,2.3,0,0,0-.672-1.743,2.646,2.646,0,0,0-1.9-.644,2.743,2.743,0,0,0-1.791.563,1.689,1.689,0,0,0-.69,1.35H897.32l-.024-.07a3.031,3.031,0,0,1,1.293-2.5,5.3,5.3,0,0,1,3.516-1.136,5.178,5.178,0,0,1,3.43,1.084,3.834,3.834,0,0,1,1.3,3.121v6.037a11.617,11.617,0,0,0,.07,1.3,6.62,6.62,0,0,0,.254,1.228Zm-3.789-1.679a4.068,4.068,0,0,0,2.237-.638,3.011,3.011,0,0,0,1.3-1.455v-2.033h-2.562a3.336,3.336,0,0,0-2.208.693,2.074,2.074,0,0,0-.828,1.63,1.712,1.712,0,0,0,.521,1.316A2.189,2.189,0,0,0,901.016,8158.347Z" transform="translate(-826.081 -8141.951)" fill="#666"/>
      <path id="Trazado_106927" data-name="Trazado 106927" d="M915.781,8156.689a1.553,1.553,0,0,0-.574-1.239,5.381,5.381,0,0,0-2.172-.846,9.164,9.164,0,0,1-3.437-1.348,2.727,2.727,0,0,1-1.151-2.319,3.266,3.266,0,0,1,1.3-2.6,5.907,5.907,0,0,1,6.866.048,3.326,3.326,0,0,1,1.234,2.734l-.023.068h-2.178a2,2,0,0,0-.69-1.477,2.543,2.543,0,0,0-1.825-.655,2.632,2.632,0,0,0-1.808.533,1.671,1.671,0,0,0-.591,1.286,1.437,1.437,0,0,0,.521,1.171,5.426,5.426,0,0,0,2.121.765,9.123,9.123,0,0,1,3.534,1.385,2.79,2.79,0,0,1,1.159,2.346,3.236,3.236,0,0,1-1.35,2.7,5.656,5.656,0,0,1-3.528,1.032,5.5,5.5,0,0,1-3.777-1.219,3.472,3.472,0,0,1-1.309-2.838l.022-.069H910.3a2.1,2.1,0,0,0,.9,1.77,3.508,3.508,0,0,0,1.982.561,3.24,3.24,0,0,0,1.906-.493A1.521,1.521,0,0,0,915.781,8156.689Z" transform="translate(-823.408 -8141.951)" fill="#666"/>
      <path id="Trazado_106928" data-name="Trazado 106928" d="M930.207,8160.271a5.288,5.288,0,0,1-4.165-1.744A6.57,6.57,0,0,1,924.5,8154v-.512a6.431,6.431,0,0,1,1.593-4.454,4.9,4.9,0,0,1,3.772-1.778,4.748,4.748,0,0,1,3.835,1.529,6.1,6.1,0,0,1,1.3,4.079v1.424h-8.134l-.033.058a4.923,4.923,0,0,0,.914,2.964,2.921,2.921,0,0,0,2.468,1.163,5.725,5.725,0,0,0,2.033-.332,4.7,4.7,0,0,0,1.513-.908l.892,1.484a5.294,5.294,0,0,1-1.773,1.106A7.127,7.127,0,0,1,930.207,8160.271Zm-.347-11.218a2.477,2.477,0,0,0-1.958.965,4.55,4.55,0,0,0-1,2.419l.023.059h5.781v-.3a3.483,3.483,0,0,0-.718-2.24A2.561,2.561,0,0,0,929.86,8149.053Z" transform="translate(-819.572 -8141.951)" fill="#666"/>
      <path id="Trazado_106929" data-name="Trazado 106929" d="M937.945,8147.489l.162,1.866a4.538,4.538,0,0,1,1.571-1.546,4.176,4.176,0,0,1,2.148-.551,4.091,4.091,0,0,1,3.14,1.188,5.207,5.207,0,0,1,1.112,3.667v7.913H943.8v-7.867a3.4,3.4,0,0,0-.654-2.352,2.628,2.628,0,0,0-2-.7,3.227,3.227,0,0,0-1.744.475,3.466,3.466,0,0,0-1.21,1.3v9.143h-2.283v-12.537Z" transform="translate(-816.903 -8141.951)" fill="#666"/>
      <path id="Trazado_106930" data-name="Trazado 106930" d="M958.468,8158.475a3.075,3.075,0,0,0,2-.7,2.142,2.142,0,0,0,.864-1.721h2.051l.022.069a3.526,3.526,0,0,1-1.442,2.885,5.256,5.256,0,0,1-3.493,1.265,5.074,5.074,0,0,1-4.182-1.786,6.876,6.876,0,0,1-1.449-4.482v-.487a6.861,6.861,0,0,1,1.454-4.468,5.709,5.709,0,0,1,7.774-.492,4.037,4.037,0,0,1,1.351,3.187l-.023.07H961.33a2.655,2.655,0,0,0-.811-1.953,2.8,2.8,0,0,0-2.052-.806,2.75,2.75,0,0,0-2.567,1.291,6.075,6.075,0,0,0-.77,3.166V8154a6.134,6.134,0,0,0,.764,3.2A2.757,2.757,0,0,0,958.468,8158.475Z" transform="translate(-812.942 -8141.951)" fill="#666"/>
      <path id="Trazado_106931" data-name="Trazado 106931" d="M969.6,8160.271a5.289,5.289,0,0,1-4.165-1.744,6.569,6.569,0,0,1-1.547-4.524v-.512a6.424,6.424,0,0,1,1.593-4.454,4.9,4.9,0,0,1,3.771-1.778,4.751,4.751,0,0,1,3.836,1.529,6.1,6.1,0,0,1,1.3,4.079v1.424h-8.134l-.035.058a4.931,4.931,0,0,0,.916,2.964,2.918,2.918,0,0,0,2.468,1.163,5.731,5.731,0,0,0,2.034-.332,4.7,4.7,0,0,0,1.513-.908l.891,1.484a5.29,5.29,0,0,1-1.772,1.106A7.132,7.132,0,0,1,969.6,8160.271Zm-.348-11.218a2.479,2.479,0,0,0-1.958.965,4.55,4.55,0,0,0-1,2.419l.022.059H972.1v-.3a3.482,3.482,0,0,0-.718-2.24A2.563,2.563,0,0,0,969.253,8149.053Z" transform="translate(-810.356 -8141.951)" fill="#666"/>
      <path id="Trazado_106932" data-name="Trazado 106932" d="M977.338,8147.489l.163,1.866a4.546,4.546,0,0,1,1.57-1.546,4.177,4.177,0,0,1,2.15-.551,4.093,4.093,0,0,1,3.14,1.188,5.213,5.213,0,0,1,1.112,3.667v7.913h-2.283v-7.867a3.391,3.391,0,0,0-.654-2.352,2.623,2.623,0,0,0-2-.7,3.227,3.227,0,0,0-1.744.475,3.479,3.479,0,0,0-1.212,1.3v9.143H975.3v-12.537Z" transform="translate(-807.687 -8141.951)" fill="#666"/>
      <path id="Trazado_106933" data-name="Trazado 106933" d="M990.308,8145v3.023h2.375v1.692h-2.375v7.611a1.706,1.706,0,0,0,.365,1.241,1.318,1.318,0,0,0,.967.358,2.4,2.4,0,0,0,.434-.045,2.776,2.776,0,0,0,.422-.116l.3,1.564a2,2,0,0,1-.748.34,3.726,3.726,0,0,1-.991.136,2.959,2.959,0,0,1-2.214-.841,3.653,3.653,0,0,1-.822-2.638v-7.611h-1.993v-1.692h1.993V8145Z" transform="translate(-805.176 -8142.481)" fill="#666"/>
      <path id="Trazado_106934" data-name="Trazado 106934" d="M996.907,8160.854h-2.283v-12.537h2.283Zm-.035-17.136h2.664l.023.068-3.128,3.013h-1.7Z" transform="translate(-803.166 -8142.78)" fill="#666"/>
      <path id="Trazado_106935" data-name="Trazado 106935" d="M1002.233,8147.489l.163,1.646a4.269,4.269,0,0,1,1.557-1.386,4.691,4.691,0,0,1,2.2-.491,3.878,3.878,0,0,1,2.15.579,3.5,3.5,0,0,1,1.349,1.738,4.649,4.649,0,0,1,1.565-1.691,4.1,4.1,0,0,1,2.272-.626,3.754,3.754,0,0,1,3.024,1.314,6.008,6.008,0,0,1,1.112,3.957v7.5h-2.283v-7.518a4.173,4.173,0,0,0-.637-2.626,2.326,2.326,0,0,0-1.9-.771,2.423,2.423,0,0,0-1.9.811,3.526,3.526,0,0,0-.85,2.051v8.053h-2.3v-7.518a4.117,4.117,0,0,0-.654-2.58,2.274,2.274,0,0,0-1.883-.816,3.15,3.15,0,0,0-1.715.428,2.78,2.78,0,0,0-1.031,1.206v9.28h-2.283v-12.537Z" transform="translate(-801.864 -8141.951)" fill="#666"/>
      <path id="Trazado_106936" data-name="Trazado 106936" d="M1023.127,8160.271a5.289,5.289,0,0,1-4.165-1.744,6.569,6.569,0,0,1-1.547-4.524v-.512a6.431,6.431,0,0,1,1.593-4.454,4.9,4.9,0,0,1,3.772-1.778,4.748,4.748,0,0,1,3.835,1.529,6.1,6.1,0,0,1,1.3,4.079v1.424h-8.134l-.033.058a4.923,4.923,0,0,0,.914,2.964,2.921,2.921,0,0,0,2.468,1.163,5.726,5.726,0,0,0,2.034-.332,4.7,4.7,0,0,0,1.513-.908l.892,1.484a5.3,5.3,0,0,1-1.773,1.106A7.127,7.127,0,0,1,1023.127,8160.271Zm-.347-11.218a2.477,2.477,0,0,0-1.958.965,4.55,4.55,0,0,0-1,2.419l.023.059h5.781v-.3a3.483,3.483,0,0,0-.718-2.24A2.561,2.561,0,0,0,1022.78,8149.053Z" transform="translate(-797.835 -8141.951)" fill="#666"/>
      <path id="Trazado_106937" data-name="Trazado 106937" d="M1032.078,8145v3.023h2.374v1.692h-2.374v7.611a1.7,1.7,0,0,0,.365,1.241,1.318,1.318,0,0,0,.967.358,2.4,2.4,0,0,0,.433-.045,2.826,2.826,0,0,0,.423-.116l.3,1.564a2.006,2.006,0,0,1-.746.34,3.743,3.743,0,0,1-.991.136,2.957,2.957,0,0,1-2.214-.841,3.653,3.653,0,0,1-.822-2.638v-7.611H1027.8v-1.692h1.993V8145Z" transform="translate(-795.405 -8142.481)" fill="#666"/>
      <path id="Trazado_106938" data-name="Trazado 106938" d="M1042.232,8149.505l-1.17-.069a2.613,2.613,0,0,0-1.523.429,2.763,2.763,0,0,0-.958,1.205v8.956H1036.3v-12.537h2.038l.221,1.832a4.344,4.344,0,0,1,1.314-1.518,3.075,3.075,0,0,1,1.8-.545,2.792,2.792,0,0,1,.486.04,3.206,3.206,0,0,1,.382.087Z" transform="translate(-793.417 -8141.951)" fill="#666"/>
      <path id="Trazado_106939" data-name="Trazado 106939" d="M1043.1,8153.643a6.9,6.9,0,0,1,1.505-4.583,5.048,5.048,0,0,1,4.091-1.8,5.1,5.1,0,0,1,4.119,1.795,6.882,6.882,0,0,1,1.511,4.59v.254a6.872,6.872,0,0,1-1.505,4.588,5.6,5.6,0,0,1-8.209-.006,6.856,6.856,0,0,1-1.511-4.582Zm2.281.248a5.932,5.932,0,0,0,.84,3.287,3.035,3.035,0,0,0,4.976,0,5.9,5.9,0,0,0,.847-3.287v-.255a5.886,5.886,0,0,0-.853-3.275,2.793,2.793,0,0,0-2.5-1.308,2.755,2.755,0,0,0-2.474,1.308,5.947,5.947,0,0,0-.84,3.275Z" transform="translate(-791.826 -8141.951)" fill="#666"/>
      <path id="Trazado_106940" data-name="Trazado 106940" d="M1062.651,8156.689a1.556,1.556,0,0,0-.573-1.239,5.4,5.4,0,0,0-2.173-.846,9.147,9.147,0,0,1-3.435-1.348,2.728,2.728,0,0,1-1.153-2.319,3.269,3.269,0,0,1,1.3-2.6,5.907,5.907,0,0,1,6.866.048,3.326,3.326,0,0,1,1.234,2.734l-.023.068h-2.178a1.993,1.993,0,0,0-.69-1.477,2.543,2.543,0,0,0-1.825-.655,2.632,2.632,0,0,0-1.808.533,1.67,1.67,0,0,0-.59,1.286,1.436,1.436,0,0,0,.52,1.171,5.427,5.427,0,0,0,2.121.765,9.115,9.115,0,0,1,3.534,1.385,2.79,2.79,0,0,1,1.159,2.346,3.236,3.236,0,0,1-1.35,2.7,5.653,5.653,0,0,1-3.528,1.032,5.5,5.5,0,0,1-3.777-1.219,3.472,3.472,0,0,1-1.309-2.838l.022-.069h2.179a2.1,2.1,0,0,0,.9,1.77,3.511,3.511,0,0,0,1.982.561,3.239,3.239,0,0,0,1.906-.493A1.521,1.521,0,0,0,1062.651,8156.689Z" transform="translate(-789.05 -8141.951)" fill="#666"/>
    </g>
    <g id="Grupo_55696" data-name="Grupo 55696" transform="translate(744.423 8095.016)">
      <path id="Trazado_106941" data-name="Trazado 106941" d="M757.156,8152.866H744v-65.611h13.157Z" transform="translate(-743.998 -8087.255)" fill="#8c757e"/>
      <path id="Trazado_106942" data-name="Trazado 106942" d="M819.449,8152.866H806.336l-26.5-44.838-.271.046v44.792H766.411v-65.611h13.157l26.5,44.792.27-.045v-44.747h13.113Z" transform="translate(-738.755 -8087.255)" fill="#8c757e"/>
      <path id="Trazado_106943" data-name="Trazado 106943" d="M861.132,8125.6h-27.49v27.263H820.485v-65.611h45.242v10.14H833.643v18.07h27.49Z" transform="translate(-726.105 -8087.255)" fill="#8c757e"/>
      <path id="Trazado_106944" data-name="Trazado 106944" d="M895.074,8138.717H872.047l-4.463,14.149H854.292l22.576-65.611h13.473l22.486,65.611H899.534ZM875.291,8128.4h16.537l-8.111-25.776h-.27Z" transform="translate(-718.196 -8087.255)" fill="#8c757e"/>
      <path id="Trazado_106945" data-name="Trazado 106945" d="M960.856,8152.866H947.743l-26.5-44.838-.271.046v44.792H907.818v-65.611h13.157l26.5,44.792.27-.045v-44.747h13.113Z" transform="translate(-705.674 -8087.255)" fill="#8c757e"/>
      <path id="Trazado_106946" data-name="Trazado 106946" d="M1008.149,8097.395H989.583v55.472H976.425v-55.472H957.949v-10.14h50.2Z" transform="translate(-693.947 -8087.255)" fill="#8c757e"/>
      <path id="Trazado_106947" data-name="Trazado 106947" d="M1019.521,8152.866h-13.157v-65.611h13.157Z" transform="translate(-682.621 -8087.255)" fill="#8c757e"/>
      <path id="Trazado_106948" data-name="Trazado 106948" d="M1041.933,8142.727h29.2v10.14h-42.36v-65.611h13.157Z" transform="translate(-677.378 -8087.255)" fill="#8c757e"/>
    </g>
  </g>
</svg>
