<svg xmlns="http://www.w3.org/2000/svg" xmlns:xlink="http://www.w3.org/1999/xlink" width="456" height="135.47" viewBox="0 0 456 135.47">
  <defs>
    <clipPath id="clip-path">
      <rect id="Rect치ngulo_5286" data-name="Rect치ngulo 5286" width="454.803" height="63.365" fill="none"/>
    </clipPath>
  </defs>
  <g id="Grupo_55174" data-name="Grupo 55174" transform="translate(-99.942 -6527.323)">
    <g id="Grupo_55123" data-name="Grupo 55123" transform="translate(99.942 6527.323)">
      <g id="Grupo_55122" data-name="Grupo 55122">
        <g id="Grupo_55121" data-name="Grupo 55121" clip-path="url(#clip-path)">
          <rect id="Rect치ngulo_5285" data-name="Rect치ngulo 5285" width="454.803" height="63.365" fill="#f7f1d7"/>
          <g id="Grupo_55009" data-name="Grupo 55009" transform="translate(8.628 34.984)">
            <g id="Grupo_54908" data-name="Grupo 54908">
              <path id="Trazado_103940" data-name="Trazado 103940" d="M107.825,6557.054a.548.548,0,0,0-.549.546v27.268a.55.55,0,0,0,1.1,0V6557.6A.548.548,0,0,0,107.825,6557.054Z" transform="translate(-107.275 -6557.054)" fill="#8c757e"/>
            </g>
            <g id="Grupo_54909" data-name="Grupo 54909" transform="translate(43.266)">
              <path id="Trazado_103941" data-name="Trazado 103941" d="M144.594,6557.054a.548.548,0,0,0-.549.546v27.268a.55.55,0,0,0,1.1,0V6557.6A.549.549,0,0,0,144.594,6557.054Z" transform="translate(-144.045 -6557.054)" fill="#8c757e"/>
            </g>
            <g id="Grupo_54910" data-name="Grupo 54910" transform="translate(21.769 8.318)">
              <path id="Trazado_103942" data-name="Trazado 103942" d="M126.189,6564.124a.41.41,0,0,0-.413.408v19.087a.412.412,0,0,0,.825,0v-19.087A.41.41,0,0,0,126.189,6564.124Z" transform="translate(-125.776 -6564.124)" fill="#8c757e"/>
            </g>
            <g id="Grupo_54911" data-name="Grupo 54911" transform="translate(17.65 16.702)">
              <path id="Trazado_103943" data-name="Trazado 103943" d="M122.481,6571.25a.2.2,0,0,0-.206.2v10.907a.206.206,0,0,0,.412,0v-10.907A.206.206,0,0,0,122.481,6571.25Z" transform="translate(-122.275 -6571.25)" fill="#8c757e"/>
            </g>
            <g id="Grupo_54912" data-name="Grupo 54912" transform="translate(13.323 16.702)">
              <path id="Trazado_103944" data-name="Trazado 103944" d="M118.8,6571.25a.2.2,0,0,0-.206.2v10.907a.206.206,0,0,0,.412,0v-10.907A.206.206,0,0,0,118.8,6571.25Z" transform="translate(-118.598 -6571.25)" fill="#8c757e"/>
            </g>
            <g id="Grupo_54913" data-name="Grupo 54913" transform="translate(8.997 16.702)">
              <path id="Trazado_103945" data-name="Trazado 103945" d="M115.127,6571.25a.2.2,0,0,0-.206.2v10.907a.206.206,0,0,0,.412,0v-10.907A.206.206,0,0,0,115.127,6571.25Z" transform="translate(-114.921 -6571.25)" fill="#8c757e"/>
            </g>
            <g id="Grupo_54914" data-name="Grupo 54914" transform="translate(4.67 16.702)">
              <path id="Trazado_103946" data-name="Trazado 103946" d="M111.45,6571.25a.2.2,0,0,0-.206.2v10.907a.206.206,0,0,0,.412,0v-10.907A.206.206,0,0,0,111.45,6571.25Z" transform="translate(-111.244 -6571.25)" fill="#8c757e"/>
            </g>
            <g id="Grupo_54915" data-name="Grupo 54915" transform="translate(15.486 21.066)">
              <path id="Trazado_103947" data-name="Trazado 103947" d="M120.642,6574.958a.2.2,0,0,0-.206.2v6.544a.206.206,0,0,0,.412,0v-6.544A.2.2,0,0,0,120.642,6574.958Z" transform="translate(-120.436 -6574.958)" fill="#8c757e"/>
            </g>
            <g id="Grupo_54916" data-name="Grupo 54916" transform="translate(19.813 21.066)">
              <path id="Trazado_103948" data-name="Trazado 103948" d="M124.319,6574.958a.2.2,0,0,0-.206.2v6.544a.206.206,0,0,0,.412,0v-6.544A.2.2,0,0,0,124.319,6574.958Z" transform="translate(-124.113 -6574.958)" fill="#8c757e"/>
            </g>
            <g id="Grupo_54917" data-name="Grupo 54917" transform="translate(11.159 21.066)">
              <path id="Trazado_103949" data-name="Trazado 103949" d="M116.965,6574.958a.2.2,0,0,0-.206.2v6.544a.206.206,0,0,0,.412,0v-6.544A.2.2,0,0,0,116.965,6574.958Z" transform="translate(-116.759 -6574.958)" fill="#8c757e"/>
            </g>
            <g id="Grupo_54918" data-name="Grupo 54918" transform="translate(6.833 21.066)">
              <path id="Trazado_103950" data-name="Trazado 103950" d="M113.288,6574.958a.2.2,0,0,0-.206.2v6.544a.206.206,0,0,0,.412,0v-6.544A.2.2,0,0,0,113.288,6574.958Z" transform="translate(-113.082 -6574.958)" fill="#8c757e"/>
            </g>
            <g id="Grupo_54919" data-name="Grupo 54919" transform="translate(2.506 21.066)">
              <path id="Trazado_103951" data-name="Trazado 103951" d="M109.611,6574.958a.2.2,0,0,0-.206.2v6.544a.206.206,0,0,0,.412,0v-6.544A.2.2,0,0,0,109.611,6574.958Z" transform="translate(-109.405 -6574.958)" fill="#8c757e"/>
            </g>
            <g id="Grupo_54920" data-name="Grupo 54920" transform="translate(39.282 16.702)">
              <path id="Trazado_103952" data-name="Trazado 103952" d="M140.866,6571.25a.206.206,0,0,0-.207.2v10.907a.207.207,0,0,0,.413,0v-10.907A.206.206,0,0,0,140.866,6571.25Z" transform="translate(-140.659 -6571.25)" fill="#8c757e"/>
            </g>
            <g id="Grupo_54921" data-name="Grupo 54921" transform="translate(34.955 16.702)">
              <path id="Trazado_103953" data-name="Trazado 103953" d="M137.189,6571.25a.206.206,0,0,0-.207.2v10.907a.207.207,0,0,0,.413,0v-10.907A.206.206,0,0,0,137.189,6571.25Z" transform="translate(-136.982 -6571.25)" fill="#8c757e"/>
            </g>
            <g id="Grupo_54922" data-name="Grupo 54922" transform="translate(30.63 16.702)">
              <path id="Trazado_103954" data-name="Trazado 103954" d="M133.512,6571.25a.2.2,0,0,0-.206.2v10.907a.206.206,0,0,0,.412,0v-10.907A.206.206,0,0,0,133.512,6571.25Z" transform="translate(-133.306 -6571.25)" fill="#8c757e"/>
            </g>
            <g id="Grupo_54923" data-name="Grupo 54923" transform="translate(26.303 16.702)">
              <path id="Trazado_103955" data-name="Trazado 103955" d="M129.835,6571.25a.2.2,0,0,0-.206.2v10.907a.206.206,0,0,0,.412,0v-10.907A.206.206,0,0,0,129.835,6571.25Z" transform="translate(-129.629 -6571.25)" fill="#8c757e"/>
            </g>
            <g id="Grupo_54924" data-name="Grupo 54924" transform="translate(37.119 21.066)">
              <path id="Trazado_103956" data-name="Trazado 103956" d="M139.027,6574.958a.2.2,0,0,0-.206.2v6.544a.206.206,0,0,0,.412,0v-6.544A.2.2,0,0,0,139.027,6574.958Z" transform="translate(-138.821 -6574.958)" fill="#8c757e"/>
            </g>
            <g id="Grupo_54925" data-name="Grupo 54925" transform="translate(41.445 21.066)">
              <path id="Trazado_103957" data-name="Trazado 103957" d="M142.7,6574.958a.2.2,0,0,0-.206.2v6.544a.206.206,0,0,0,.412,0v-6.544A.2.2,0,0,0,142.7,6574.958Z" transform="translate(-142.498 -6574.958)" fill="#8c757e"/>
            </g>
            <g id="Grupo_54926" data-name="Grupo 54926" transform="translate(32.792 21.066)">
              <path id="Trazado_103958" data-name="Trazado 103958" d="M135.35,6574.958a.2.2,0,0,0-.206.2v6.544a.206.206,0,0,0,.412,0v-6.544A.2.2,0,0,0,135.35,6574.958Z" transform="translate(-135.144 -6574.958)" fill="#8c757e"/>
            </g>
            <g id="Grupo_54927" data-name="Grupo 54927" transform="translate(28.466 21.066)">
              <path id="Trazado_103959" data-name="Trazado 103959" d="M131.673,6574.958a.2.2,0,0,0-.206.2v6.544a.206.206,0,0,0,.412,0v-6.544A.2.2,0,0,0,131.673,6574.958Z" transform="translate(-131.467 -6574.958)" fill="#8c757e"/>
            </g>
            <g id="Grupo_54928" data-name="Grupo 54928" transform="translate(24.139 21.066)">
              <path id="Trazado_103960" data-name="Trazado 103960" d="M128,6574.958a.2.2,0,0,0-.206.2v6.544a.206.206,0,0,0,.412,0v-6.544A.2.2,0,0,0,128,6574.958Z" transform="translate(-127.79 -6574.958)" fill="#8c757e"/>
            </g>
            <g id="Grupo_54929" data-name="Grupo 54929" transform="translate(86.53)">
              <path id="Trazado_103961" data-name="Trazado 103961" d="M181.364,6557.054a.548.548,0,0,0-.549.546v27.268a.55.55,0,0,0,1.1,0V6557.6A.548.548,0,0,0,181.364,6557.054Z" transform="translate(-180.814 -6557.054)" fill="#8c757e"/>
            </g>
            <g id="Grupo_54930" data-name="Grupo 54930" transform="translate(65.035 8.318)">
              <path id="Trazado_103962" data-name="Trazado 103962" d="M162.958,6564.124a.41.41,0,0,0-.412.408v19.087a.412.412,0,0,0,.825,0v-19.087A.41.41,0,0,0,162.958,6564.124Z" transform="translate(-162.546 -6564.124)" fill="#8c757e"/>
            </g>
            <g id="Grupo_54931" data-name="Grupo 54931" transform="translate(60.914 16.702)">
              <path id="Trazado_103963" data-name="Trazado 103963" d="M159.25,6571.25a.206.206,0,0,0-.206.2v10.907a.207.207,0,0,0,.413,0v-10.907A.206.206,0,0,0,159.25,6571.25Z" transform="translate(-159.044 -6571.25)" fill="#8c757e"/>
            </g>
            <g id="Grupo_54932" data-name="Grupo 54932" transform="translate(56.588 16.702)">
              <path id="Trazado_103964" data-name="Trazado 103964" d="M155.573,6571.25a.206.206,0,0,0-.206.2v10.907a.207.207,0,0,0,.413,0v-10.907A.206.206,0,0,0,155.573,6571.25Z" transform="translate(-155.367 -6571.25)" fill="#8c757e"/>
            </g>
            <g id="Grupo_54933" data-name="Grupo 54933" transform="translate(52.261 16.702)">
              <path id="Trazado_103965" data-name="Trazado 103965" d="M151.9,6571.25a.206.206,0,0,0-.207.2v10.907a.207.207,0,0,0,.413,0v-10.907A.206.206,0,0,0,151.9,6571.25Z" transform="translate(-151.69 -6571.25)" fill="#8c757e"/>
            </g>
            <g id="Grupo_54934" data-name="Grupo 54934" transform="translate(47.935 16.702)">
              <path id="Trazado_103966" data-name="Trazado 103966" d="M148.22,6571.25a.206.206,0,0,0-.207.2v10.907a.207.207,0,0,0,.413,0v-10.907A.206.206,0,0,0,148.22,6571.25Z" transform="translate(-148.013 -6571.25)" fill="#8c757e"/>
            </g>
            <g id="Grupo_54935" data-name="Grupo 54935" transform="translate(58.752 21.066)">
              <path id="Trazado_103967" data-name="Trazado 103967" d="M157.412,6574.958a.2.2,0,0,0-.206.2v6.544a.206.206,0,0,0,.412,0v-6.544A.2.2,0,0,0,157.412,6574.958Z" transform="translate(-157.206 -6574.958)" fill="#8c757e"/>
            </g>
            <g id="Grupo_54936" data-name="Grupo 54936" transform="translate(63.078 21.066)">
              <path id="Trazado_103968" data-name="Trazado 103968" d="M161.089,6574.958a.2.2,0,0,0-.206.2v6.544a.206.206,0,0,0,.412,0v-6.544A.2.2,0,0,0,161.089,6574.958Z" transform="translate(-160.883 -6574.958)" fill="#8c757e"/>
            </g>
            <g id="Grupo_54937" data-name="Grupo 54937" transform="translate(54.425 21.066)">
              <path id="Trazado_103969" data-name="Trazado 103969" d="M153.735,6574.958a.2.2,0,0,0-.206.2v6.544a.206.206,0,0,0,.412,0v-6.544A.2.2,0,0,0,153.735,6574.958Z" transform="translate(-153.529 -6574.958)" fill="#8c757e"/>
            </g>
            <g id="Grupo_54938" data-name="Grupo 54938" transform="translate(50.099 21.066)">
              <path id="Trazado_103970" data-name="Trazado 103970" d="M150.058,6574.958a.2.2,0,0,0-.206.2v6.544a.206.206,0,0,0,.412,0v-6.544A.2.2,0,0,0,150.058,6574.958Z" transform="translate(-149.852 -6574.958)" fill="#8c757e"/>
            </g>
            <g id="Grupo_54939" data-name="Grupo 54939" transform="translate(45.772 21.066)">
              <path id="Trazado_103971" data-name="Trazado 103971" d="M146.381,6574.958a.2.2,0,0,0-.206.2v6.544a.206.206,0,0,0,.412,0v-6.544A.2.2,0,0,0,146.381,6574.958Z" transform="translate(-146.175 -6574.958)" fill="#8c757e"/>
            </g>
            <g id="Grupo_54940" data-name="Grupo 54940" transform="translate(82.547 16.702)">
              <path id="Trazado_103972" data-name="Trazado 103972" d="M177.635,6571.25a.206.206,0,0,0-.206.2v10.907a.206.206,0,0,0,.412,0v-10.907A.2.2,0,0,0,177.635,6571.25Z" transform="translate(-177.429 -6571.25)" fill="#8c757e"/>
            </g>
            <g id="Grupo_54941" data-name="Grupo 54941" transform="translate(78.221 16.702)">
              <path id="Trazado_103973" data-name="Trazado 103973" d="M173.958,6571.25a.206.206,0,0,0-.206.2v10.907a.206.206,0,0,0,.412,0v-10.907A.2.2,0,0,0,173.958,6571.25Z" transform="translate(-173.752 -6571.25)" fill="#8c757e"/>
            </g>
            <g id="Grupo_54942" data-name="Grupo 54942" transform="translate(73.894 16.702)">
              <path id="Trazado_103974" data-name="Trazado 103974" d="M170.281,6571.25a.206.206,0,0,0-.206.2v10.907a.207.207,0,0,0,.413,0v-10.907A.206.206,0,0,0,170.281,6571.25Z" transform="translate(-170.075 -6571.25)" fill="#8c757e"/>
            </g>
            <g id="Grupo_54943" data-name="Grupo 54943" transform="translate(69.568 16.702)">
              <path id="Trazado_103975" data-name="Trazado 103975" d="M166.6,6571.25a.206.206,0,0,0-.206.2v10.907a.207.207,0,0,0,.413,0v-10.907A.206.206,0,0,0,166.6,6571.25Z" transform="translate(-166.398 -6571.25)" fill="#8c757e"/>
            </g>
            <g id="Grupo_54944" data-name="Grupo 54944" transform="translate(80.385 21.066)">
              <path id="Trazado_103976" data-name="Trazado 103976" d="M175.8,6574.958a.2.2,0,0,0-.206.2v6.544a.206.206,0,0,0,.412,0v-6.544A.2.2,0,0,0,175.8,6574.958Z" transform="translate(-175.591 -6574.958)" fill="#8c757e"/>
            </g>
            <g id="Grupo_54945" data-name="Grupo 54945" transform="translate(84.711 21.066)">
              <path id="Trazado_103977" data-name="Trazado 103977" d="M179.474,6574.958a.2.2,0,0,0-.206.2v6.544a.206.206,0,0,0,.412,0v-6.544A.2.2,0,0,0,179.474,6574.958Z" transform="translate(-179.268 -6574.958)" fill="#8c757e"/>
            </g>
            <g id="Grupo_54946" data-name="Grupo 54946" transform="translate(76.058 21.066)">
              <path id="Trazado_103978" data-name="Trazado 103978" d="M172.12,6574.958a.2.2,0,0,0-.206.2v6.544a.206.206,0,0,0,.412,0v-6.544A.2.2,0,0,0,172.12,6574.958Z" transform="translate(-171.914 -6574.958)" fill="#8c757e"/>
            </g>
            <g id="Grupo_54947" data-name="Grupo 54947" transform="translate(71.731 21.066)">
              <path id="Trazado_103979" data-name="Trazado 103979" d="M168.443,6574.958a.2.2,0,0,0-.206.2v6.544a.206.206,0,0,0,.412,0v-6.544A.2.2,0,0,0,168.443,6574.958Z" transform="translate(-168.237 -6574.958)" fill="#8c757e"/>
            </g>
            <g id="Grupo_54948" data-name="Grupo 54948" transform="translate(67.405 21.066)">
              <path id="Trazado_103980" data-name="Trazado 103980" d="M164.766,6574.958a.2.2,0,0,0-.206.2v6.544a.206.206,0,0,0,.412,0v-6.544A.2.2,0,0,0,164.766,6574.958Z" transform="translate(-164.56 -6574.958)" fill="#8c757e"/>
            </g>
            <g id="Grupo_54949" data-name="Grupo 54949" transform="translate(129.796)">
              <path id="Trazado_103981" data-name="Trazado 103981" d="M218.134,6557.054a.548.548,0,0,0-.549.546v27.268a.55.55,0,0,0,1.1,0V6557.6A.548.548,0,0,0,218.134,6557.054Z" transform="translate(-217.584 -6557.054)" fill="#8c757e"/>
            </g>
            <g id="Grupo_54950" data-name="Grupo 54950" transform="translate(108.301 8.318)">
              <path id="Trazado_103982" data-name="Trazado 103982" d="M199.728,6564.124a.41.41,0,0,0-.412.408v19.087a.412.412,0,0,0,.824,0v-19.087A.409.409,0,0,0,199.728,6564.124Z" transform="translate(-199.316 -6564.124)" fill="#8c757e"/>
            </g>
            <g id="Grupo_54951" data-name="Grupo 54951" transform="translate(104.18 16.702)">
              <path id="Trazado_103983" data-name="Trazado 103983" d="M196.02,6571.25a.206.206,0,0,0-.206.2v10.907a.206.206,0,0,0,.412,0v-10.907A.2.2,0,0,0,196.02,6571.25Z" transform="translate(-195.814 -6571.25)" fill="#8c757e"/>
            </g>
            <g id="Grupo_54952" data-name="Grupo 54952" transform="translate(99.854 16.702)">
              <path id="Trazado_103984" data-name="Trazado 103984" d="M192.343,6571.25a.206.206,0,0,0-.206.2v10.907a.206.206,0,0,0,.412,0v-10.907A.2.2,0,0,0,192.343,6571.25Z" transform="translate(-192.137 -6571.25)" fill="#8c757e"/>
            </g>
            <g id="Grupo_54953" data-name="Grupo 54953" transform="translate(95.527 16.702)">
              <path id="Trazado_103985" data-name="Trazado 103985" d="M188.666,6571.25a.206.206,0,0,0-.206.2v10.907a.206.206,0,0,0,.412,0v-10.907A.2.2,0,0,0,188.666,6571.25Z" transform="translate(-188.46 -6571.25)" fill="#8c757e"/>
            </g>
            <g id="Grupo_54954" data-name="Grupo 54954" transform="translate(91.201 16.702)">
              <path id="Trazado_103986" data-name="Trazado 103986" d="M184.989,6571.25a.206.206,0,0,0-.206.2v10.907a.206.206,0,0,0,.412,0v-10.907A.2.2,0,0,0,184.989,6571.25Z" transform="translate(-184.783 -6571.25)" fill="#8c757e"/>
            </g>
            <g id="Grupo_54955" data-name="Grupo 54955" transform="translate(102.018 21.066)">
              <path id="Trazado_103987" data-name="Trazado 103987" d="M194.182,6574.958a.2.2,0,0,0-.206.2v6.544a.206.206,0,0,0,.412,0v-6.544A.2.2,0,0,0,194.182,6574.958Z" transform="translate(-193.976 -6574.958)" fill="#8c757e"/>
            </g>
            <g id="Grupo_54956" data-name="Grupo 54956" transform="translate(106.344 21.066)">
              <path id="Trazado_103988" data-name="Trazado 103988" d="M197.859,6574.958a.2.2,0,0,0-.206.2v6.544a.206.206,0,0,0,.412,0v-6.544A.2.2,0,0,0,197.859,6574.958Z" transform="translate(-197.653 -6574.958)" fill="#8c757e"/>
            </g>
            <g id="Grupo_54957" data-name="Grupo 54957" transform="translate(97.691 21.066)">
              <path id="Trazado_103989" data-name="Trazado 103989" d="M190.5,6574.958a.2.2,0,0,0-.206.2v6.544a.206.206,0,0,0,.412,0v-6.544A.2.2,0,0,0,190.5,6574.958Z" transform="translate(-190.299 -6574.958)" fill="#8c757e"/>
            </g>
            <g id="Grupo_54958" data-name="Grupo 54958" transform="translate(93.364 21.066)">
              <path id="Trazado_103990" data-name="Trazado 103990" d="M186.828,6574.958a.2.2,0,0,0-.206.2v6.544a.206.206,0,0,0,.412,0v-6.544A.2.2,0,0,0,186.828,6574.958Z" transform="translate(-186.622 -6574.958)" fill="#8c757e"/>
            </g>
            <g id="Grupo_54959" data-name="Grupo 54959" transform="translate(89.038 21.066)">
              <path id="Trazado_103991" data-name="Trazado 103991" d="M183.151,6574.958a.2.2,0,0,0-.206.2v6.544a.206.206,0,0,0,.412,0v-6.544A.2.2,0,0,0,183.151,6574.958Z" transform="translate(-182.945 -6574.958)" fill="#8c757e"/>
            </g>
            <g id="Grupo_54960" data-name="Grupo 54960" transform="translate(125.813 16.702)">
              <path id="Trazado_103992" data-name="Trazado 103992" d="M214.4,6571.25a.2.2,0,0,0-.206.2v10.907a.206.206,0,0,0,.412,0v-10.907A.2.2,0,0,0,214.4,6571.25Z" transform="translate(-214.199 -6571.25)" fill="#8c757e"/>
            </g>
            <g id="Grupo_54961" data-name="Grupo 54961" transform="translate(121.487 16.702)">
              <path id="Trazado_103993" data-name="Trazado 103993" d="M210.728,6571.25a.2.2,0,0,0-.206.2v10.907a.206.206,0,0,0,.412,0v-10.907A.2.2,0,0,0,210.728,6571.25Z" transform="translate(-210.522 -6571.25)" fill="#8c757e"/>
            </g>
            <g id="Grupo_54962" data-name="Grupo 54962" transform="translate(117.16 16.702)">
              <path id="Trazado_103994" data-name="Trazado 103994" d="M207.051,6571.25a.2.2,0,0,0-.206.2v10.907a.206.206,0,0,0,.412,0v-10.907A.2.2,0,0,0,207.051,6571.25Z" transform="translate(-206.845 -6571.25)" fill="#8c757e"/>
            </g>
            <g id="Grupo_54963" data-name="Grupo 54963" transform="translate(112.833 16.702)">
              <path id="Trazado_103995" data-name="Trazado 103995" d="M203.374,6571.25a.206.206,0,0,0-.206.2v10.907a.206.206,0,0,0,.412,0v-10.907A.2.2,0,0,0,203.374,6571.25Z" transform="translate(-203.168 -6571.25)" fill="#8c757e"/>
            </g>
            <g id="Grupo_54964" data-name="Grupo 54964" transform="translate(123.65 21.066)">
              <path id="Trazado_103996" data-name="Trazado 103996" d="M212.567,6574.958a.2.2,0,0,0-.206.2v6.544a.206.206,0,0,0,.412,0v-6.544A.2.2,0,0,0,212.567,6574.958Z" transform="translate(-212.361 -6574.958)" fill="#8c757e"/>
            </g>
            <g id="Grupo_54965" data-name="Grupo 54965" transform="translate(127.976 21.066)">
              <path id="Trazado_103997" data-name="Trazado 103997" d="M216.243,6574.958a.2.2,0,0,0-.206.2v6.544a.206.206,0,0,0,.412,0v-6.544A.2.2,0,0,0,216.243,6574.958Z" transform="translate(-216.037 -6574.958)" fill="#8c757e"/>
            </g>
            <g id="Grupo_54966" data-name="Grupo 54966" transform="translate(119.323 21.066)">
              <path id="Trazado_103998" data-name="Trazado 103998" d="M208.889,6574.958a.2.2,0,0,0-.206.2v6.544a.207.207,0,0,0,.413,0v-6.544A.2.2,0,0,0,208.889,6574.958Z" transform="translate(-208.683 -6574.958)" fill="#8c757e"/>
            </g>
            <g id="Grupo_54967" data-name="Grupo 54967" transform="translate(114.996 21.066)">
              <path id="Trazado_103999" data-name="Trazado 103999" d="M205.212,6574.958a.2.2,0,0,0-.206.2v6.544a.207.207,0,0,0,.413,0v-6.544A.2.2,0,0,0,205.212,6574.958Z" transform="translate(-205.006 -6574.958)" fill="#8c757e"/>
            </g>
            <g id="Grupo_54968" data-name="Grupo 54968" transform="translate(110.671 21.066)">
              <path id="Trazado_104000" data-name="Trazado 104000" d="M201.536,6574.958a.2.2,0,0,0-.206.2v6.544a.206.206,0,0,0,.412,0v-6.544A.2.2,0,0,0,201.536,6574.958Z" transform="translate(-201.33 -6574.958)" fill="#8c757e"/>
            </g>
            <g id="Grupo_54969" data-name="Grupo 54969" transform="translate(173.062)">
              <path id="Trazado_104001" data-name="Trazado 104001" d="M254.9,6557.054a.548.548,0,0,0-.549.546v27.268a.549.549,0,0,0,1.1,0V6557.6A.548.548,0,0,0,254.9,6557.054Z" transform="translate(-254.354 -6557.054)" fill="#8c757e"/>
            </g>
            <g id="Grupo_54970" data-name="Grupo 54970" transform="translate(151.567 8.318)">
              <path id="Trazado_104002" data-name="Trazado 104002" d="M236.5,6564.124a.41.41,0,0,0-.412.408v19.087a.412.412,0,0,0,.824,0v-19.087A.41.41,0,0,0,236.5,6564.124Z" transform="translate(-236.086 -6564.124)" fill="#8c757e"/>
            </g>
            <g id="Grupo_54971" data-name="Grupo 54971" transform="translate(147.446 16.702)">
              <path id="Trazado_104003" data-name="Trazado 104003" d="M232.79,6571.25a.2.2,0,0,0-.206.2v10.907a.206.206,0,0,0,.412,0v-10.907A.2.2,0,0,0,232.79,6571.25Z" transform="translate(-232.584 -6571.25)" fill="#8c757e"/>
            </g>
            <g id="Grupo_54972" data-name="Grupo 54972" transform="translate(143.119 16.702)">
              <path id="Trazado_104004" data-name="Trazado 104004" d="M229.113,6571.25a.2.2,0,0,0-.206.2v10.907a.206.206,0,0,0,.412,0v-10.907A.2.2,0,0,0,229.113,6571.25Z" transform="translate(-228.907 -6571.25)" fill="#8c757e"/>
            </g>
            <g id="Grupo_54973" data-name="Grupo 54973" transform="translate(138.793 16.702)">
              <path id="Trazado_104005" data-name="Trazado 104005" d="M225.436,6571.25a.2.2,0,0,0-.206.2v10.907a.206.206,0,0,0,.412,0v-10.907A.2.2,0,0,0,225.436,6571.25Z" transform="translate(-225.23 -6571.25)" fill="#8c757e"/>
            </g>
            <g id="Grupo_54974" data-name="Grupo 54974" transform="translate(134.466 16.702)">
              <path id="Trazado_104006" data-name="Trazado 104006" d="M221.759,6571.25a.2.2,0,0,0-.206.2v10.907a.206.206,0,0,0,.412,0v-10.907A.2.2,0,0,0,221.759,6571.25Z" transform="translate(-221.553 -6571.25)" fill="#8c757e"/>
            </g>
            <g id="Grupo_54975" data-name="Grupo 54975" transform="translate(145.282 21.066)">
              <path id="Trazado_104007" data-name="Trazado 104007" d="M230.951,6574.958a.2.2,0,0,0-.206.2v6.544a.206.206,0,0,0,.412,0v-6.544A.2.2,0,0,0,230.951,6574.958Z" transform="translate(-230.745 -6574.958)" fill="#8c757e"/>
            </g>
            <g id="Grupo_54976" data-name="Grupo 54976" transform="translate(149.61 21.066)">
              <path id="Trazado_104008" data-name="Trazado 104008" d="M234.629,6574.958a.2.2,0,0,0-.206.2v6.544a.206.206,0,0,0,.412,0v-6.544A.2.2,0,0,0,234.629,6574.958Z" transform="translate(-234.423 -6574.958)" fill="#8c757e"/>
            </g>
            <g id="Grupo_54977" data-name="Grupo 54977" transform="translate(140.957 21.066)">
              <path id="Trazado_104009" data-name="Trazado 104009" d="M227.275,6574.958a.2.2,0,0,0-.206.2v6.544a.206.206,0,0,0,.412,0v-6.544A.2.2,0,0,0,227.275,6574.958Z" transform="translate(-227.069 -6574.958)" fill="#8c757e"/>
            </g>
            <g id="Grupo_54978" data-name="Grupo 54978" transform="translate(136.629 21.066)">
              <path id="Trazado_104010" data-name="Trazado 104010" d="M223.6,6574.958a.2.2,0,0,0-.206.2v6.544a.206.206,0,0,0,.412,0v-6.544A.2.2,0,0,0,223.6,6574.958Z" transform="translate(-223.391 -6574.958)" fill="#8c757e"/>
            </g>
            <g id="Grupo_54979" data-name="Grupo 54979" transform="translate(132.304 21.066)">
              <path id="Trazado_104011" data-name="Trazado 104011" d="M219.921,6574.958a.2.2,0,0,0-.206.2v6.544a.206.206,0,0,0,.412,0v-6.544A.2.2,0,0,0,219.921,6574.958Z" transform="translate(-219.715 -6574.958)" fill="#8c757e"/>
            </g>
            <g id="Grupo_54980" data-name="Grupo 54980" transform="translate(169.079 16.702)">
              <path id="Trazado_104012" data-name="Trazado 104012" d="M251.175,6571.25a.2.2,0,0,0-.206.2v10.907a.206.206,0,0,0,.412,0v-10.907A.2.2,0,0,0,251.175,6571.25Z" transform="translate(-250.969 -6571.25)" fill="#8c757e"/>
            </g>
            <g id="Grupo_54981" data-name="Grupo 54981" transform="translate(164.752 16.702)">
              <path id="Trazado_104013" data-name="Trazado 104013" d="M247.5,6571.25a.2.2,0,0,0-.206.2v10.907a.206.206,0,0,0,.412,0v-10.907A.2.2,0,0,0,247.5,6571.25Z" transform="translate(-247.292 -6571.25)" fill="#8c757e"/>
            </g>
            <g id="Grupo_54982" data-name="Grupo 54982" transform="translate(160.426 16.702)">
              <path id="Trazado_104014" data-name="Trazado 104014" d="M243.821,6571.25a.2.2,0,0,0-.206.2v10.907a.206.206,0,0,0,.412,0v-10.907A.2.2,0,0,0,243.821,6571.25Z" transform="translate(-243.615 -6571.25)" fill="#8c757e"/>
            </g>
            <g id="Grupo_54983" data-name="Grupo 54983" transform="translate(156.099 16.702)">
              <path id="Trazado_104015" data-name="Trazado 104015" d="M240.144,6571.25a.2.2,0,0,0-.206.2v10.907a.206.206,0,0,0,.412,0v-10.907A.2.2,0,0,0,240.144,6571.25Z" transform="translate(-239.938 -6571.25)" fill="#8c757e"/>
            </g>
            <g id="Grupo_54984" data-name="Grupo 54984" transform="translate(166.915 21.066)">
              <path id="Trazado_104016" data-name="Trazado 104016" d="M249.337,6574.958a.2.2,0,0,0-.207.2v6.544a.207.207,0,0,0,.413,0v-6.544A.2.2,0,0,0,249.337,6574.958Z" transform="translate(-249.13 -6574.958)" fill="#8c757e"/>
            </g>
            <g id="Grupo_54985" data-name="Grupo 54985" transform="translate(171.242 21.066)">
              <path id="Trazado_104017" data-name="Trazado 104017" d="M253.013,6574.958a.2.2,0,0,0-.206.2v6.544a.206.206,0,0,0,.412,0v-6.544A.2.2,0,0,0,253.013,6574.958Z" transform="translate(-252.807 -6574.958)" fill="#8c757e"/>
            </g>
            <g id="Grupo_54986" data-name="Grupo 54986" transform="translate(162.588 21.066)">
              <path id="Trazado_104018" data-name="Trazado 104018" d="M245.659,6574.958a.2.2,0,0,0-.206.2v6.544a.206.206,0,0,0,.412,0v-6.544A.2.2,0,0,0,245.659,6574.958Z" transform="translate(-245.453 -6574.958)" fill="#8c757e"/>
            </g>
            <g id="Grupo_54987" data-name="Grupo 54987" transform="translate(158.263 21.066)">
              <path id="Trazado_104019" data-name="Trazado 104019" d="M241.983,6574.958a.2.2,0,0,0-.206.2v6.544a.206.206,0,0,0,.412,0v-6.544A.2.2,0,0,0,241.983,6574.958Z" transform="translate(-241.777 -6574.958)" fill="#8c757e"/>
            </g>
            <g id="Grupo_54988" data-name="Grupo 54988" transform="translate(153.935 21.066)">
              <path id="Trazado_104020" data-name="Trazado 104020" d="M238.3,6574.958a.2.2,0,0,0-.206.2v6.544a.206.206,0,0,0,.412,0v-6.544A.2.2,0,0,0,238.3,6574.958Z" transform="translate(-238.099 -6574.958)" fill="#8c757e"/>
            </g>
            <g id="Grupo_54989" data-name="Grupo 54989" transform="translate(216.328)">
              <path id="Trazado_104021" data-name="Trazado 104021" d="M291.674,6557.054a.548.548,0,0,0-.549.546v27.268a.55.55,0,0,0,1.1,0V6557.6A.548.548,0,0,0,291.674,6557.054Z" transform="translate(-291.124 -6557.054)" fill="#8c757e"/>
            </g>
            <g id="Grupo_54990" data-name="Grupo 54990" transform="translate(194.832 8.318)">
              <path id="Trazado_104022" data-name="Trazado 104022" d="M273.268,6564.124a.409.409,0,0,0-.412.408v19.087a.412.412,0,0,0,.824,0v-19.087A.41.41,0,0,0,273.268,6564.124Z" transform="translate(-272.856 -6564.124)" fill="#8c757e"/>
            </g>
            <g id="Grupo_54991" data-name="Grupo 54991" transform="translate(190.712 16.702)">
              <path id="Trazado_104023" data-name="Trazado 104023" d="M269.56,6571.25a.2.2,0,0,0-.206.2v10.907a.206.206,0,0,0,.412,0v-10.907A.206.206,0,0,0,269.56,6571.25Z" transform="translate(-269.354 -6571.25)" fill="#8c757e"/>
            </g>
            <g id="Grupo_54992" data-name="Grupo 54992" transform="translate(186.385 16.702)">
              <path id="Trazado_104024" data-name="Trazado 104024" d="M265.883,6571.25a.2.2,0,0,0-.206.2v10.907a.206.206,0,0,0,.412,0v-10.907A.206.206,0,0,0,265.883,6571.25Z" transform="translate(-265.677 -6571.25)" fill="#8c757e"/>
            </g>
            <g id="Grupo_54993" data-name="Grupo 54993" transform="translate(182.059 16.702)">
              <path id="Trazado_104025" data-name="Trazado 104025" d="M262.206,6571.25a.2.2,0,0,0-.206.2v10.907a.206.206,0,0,0,.412,0v-10.907A.206.206,0,0,0,262.206,6571.25Z" transform="translate(-262 -6571.25)" fill="#8c757e"/>
            </g>
            <g id="Grupo_54994" data-name="Grupo 54994" transform="translate(177.732 16.702)">
              <path id="Trazado_104026" data-name="Trazado 104026" d="M258.529,6571.25a.2.2,0,0,0-.206.2v10.907a.206.206,0,0,0,.412,0v-10.907A.206.206,0,0,0,258.529,6571.25Z" transform="translate(-258.323 -6571.25)" fill="#8c757e"/>
            </g>
            <g id="Grupo_54995" data-name="Grupo 54995" transform="translate(188.548 21.066)">
              <path id="Trazado_104027" data-name="Trazado 104027" d="M267.721,6574.958a.2.2,0,0,0-.206.2v6.544a.206.206,0,0,0,.412,0v-6.544A.2.2,0,0,0,267.721,6574.958Z" transform="translate(-267.515 -6574.958)" fill="#8c757e"/>
            </g>
            <g id="Grupo_54996" data-name="Grupo 54996" transform="translate(192.874 21.066)">
              <path id="Trazado_104028" data-name="Trazado 104028" d="M271.4,6574.958a.2.2,0,0,0-.206.2v6.544a.207.207,0,0,0,.413,0v-6.544A.2.2,0,0,0,271.4,6574.958Z" transform="translate(-271.192 -6574.958)" fill="#8c757e"/>
            </g>
            <g id="Grupo_54997" data-name="Grupo 54997" transform="translate(184.221 21.066)">
              <path id="Trazado_104029" data-name="Trazado 104029" d="M264.045,6574.958a.2.2,0,0,0-.207.2v6.544a.207.207,0,0,0,.413,0v-6.544A.2.2,0,0,0,264.045,6574.958Z" transform="translate(-263.838 -6574.958)" fill="#8c757e"/>
            </g>
            <g id="Grupo_54998" data-name="Grupo 54998" transform="translate(179.895 21.066)">
              <path id="Trazado_104030" data-name="Trazado 104030" d="M260.367,6574.958a.2.2,0,0,0-.206.2v6.544a.206.206,0,0,0,.412,0v-6.544A.2.2,0,0,0,260.367,6574.958Z" transform="translate(-260.161 -6574.958)" fill="#8c757e"/>
            </g>
            <g id="Grupo_54999" data-name="Grupo 54999" transform="translate(175.568 21.066)">
              <path id="Trazado_104031" data-name="Trazado 104031" d="M256.691,6574.958a.2.2,0,0,0-.207.2v6.544a.207.207,0,0,0,.413,0v-6.544A.2.2,0,0,0,256.691,6574.958Z" transform="translate(-256.484 -6574.958)" fill="#8c757e"/>
            </g>
            <g id="Grupo_55000" data-name="Grupo 55000" transform="translate(212.345 16.702)">
              <path id="Trazado_104032" data-name="Trazado 104032" d="M287.945,6571.25a.2.2,0,0,0-.206.2v10.907a.206.206,0,0,0,.412,0v-10.907A.206.206,0,0,0,287.945,6571.25Z" transform="translate(-287.739 -6571.25)" fill="#8c757e"/>
            </g>
            <g id="Grupo_55001" data-name="Grupo 55001" transform="translate(208.018 16.702)">
              <path id="Trazado_104033" data-name="Trazado 104033" d="M284.268,6571.25a.2.2,0,0,0-.206.2v10.907a.206.206,0,0,0,.412,0v-10.907A.206.206,0,0,0,284.268,6571.25Z" transform="translate(-284.062 -6571.25)" fill="#8c757e"/>
            </g>
            <g id="Grupo_55002" data-name="Grupo 55002" transform="translate(203.691 16.702)">
              <path id="Trazado_104034" data-name="Trazado 104034" d="M280.591,6571.25a.2.2,0,0,0-.206.2v10.907a.206.206,0,0,0,.412,0v-10.907A.206.206,0,0,0,280.591,6571.25Z" transform="translate(-280.385 -6571.25)" fill="#8c757e"/>
            </g>
            <g id="Grupo_55003" data-name="Grupo 55003" transform="translate(199.365 16.702)">
              <path id="Trazado_104035" data-name="Trazado 104035" d="M276.914,6571.25a.2.2,0,0,0-.206.2v10.907a.206.206,0,0,0,.412,0v-10.907A.206.206,0,0,0,276.914,6571.25Z" transform="translate(-276.708 -6571.25)" fill="#8c757e"/>
            </g>
            <g id="Grupo_55004" data-name="Grupo 55004" transform="translate(210.181 21.066)">
              <path id="Trazado_104036" data-name="Trazado 104036" d="M286.106,6574.958a.2.2,0,0,0-.206.2v6.544a.206.206,0,0,0,.412,0v-6.544A.2.2,0,0,0,286.106,6574.958Z" transform="translate(-285.9 -6574.958)" fill="#8c757e"/>
            </g>
            <g id="Grupo_55005" data-name="Grupo 55005" transform="translate(214.507 21.066)">
              <path id="Trazado_104037" data-name="Trazado 104037" d="M289.783,6574.958a.2.2,0,0,0-.206.2v6.544a.206.206,0,0,0,.412,0v-6.544A.2.2,0,0,0,289.783,6574.958Z" transform="translate(-289.577 -6574.958)" fill="#8c757e"/>
            </g>
            <g id="Grupo_55006" data-name="Grupo 55006" transform="translate(205.854 21.066)">
              <path id="Trazado_104038" data-name="Trazado 104038" d="M282.429,6574.958a.2.2,0,0,0-.206.2v6.544a.206.206,0,0,0,.412,0v-6.544A.2.2,0,0,0,282.429,6574.958Z" transform="translate(-282.223 -6574.958)" fill="#8c757e"/>
            </g>
            <g id="Grupo_55007" data-name="Grupo 55007" transform="translate(201.528 21.066)">
              <path id="Trazado_104039" data-name="Trazado 104039" d="M278.752,6574.958a.2.2,0,0,0-.206.2v6.544a.207.207,0,0,0,.413,0v-6.544A.2.2,0,0,0,278.752,6574.958Z" transform="translate(-278.546 -6574.958)" fill="#8c757e"/>
            </g>
            <g id="Grupo_55008" data-name="Grupo 55008" transform="translate(197.201 21.066)">
              <path id="Trazado_104040" data-name="Trazado 104040" d="M275.075,6574.958a.2.2,0,0,0-.206.2v6.544a.206.206,0,0,0,.412,0v-6.544A.2.2,0,0,0,275.075,6574.958Z" transform="translate(-274.869 -6574.958)" fill="#8c757e"/>
            </g>
          </g>
          <g id="Grupo_55010" data-name="Grupo 55010" transform="translate(7.338 26.505)">
            <path id="Trazado_104041" data-name="Trazado 104041" d="M106.179,6553.117c0,2.1.762,3.231,2.029,3.231s2.018-1.13,2.018-3.231-.762-3.269-2.018-3.269S106.179,6551.017,106.179,6553.117Zm3.255,0c0,1.837-.494,2.582-1.226,2.582s-1.237-.745-1.237-2.582.494-2.622,1.237-2.622S109.434,6551.281,109.434,6553.117Z" transform="translate(-106.179 -6549.849)" fill="#8c757e"/>
          </g>
          <g id="Grupo_55011" data-name="Grupo 55011" transform="translate(50.896 26.622)">
            <path id="Trazado_104042" data-name="Trazado 104042" d="M143.2,6555.544h1.444v-4.615h-1.147v-.521a3.8,3.8,0,0,0,1.337-.461h.622v5.6h1.306v.668H143.2Z" transform="translate(-143.197 -6549.948)" fill="#8c757e"/>
          </g>
          <g id="Grupo_55012" data-name="Grupo 55012" transform="translate(93.682 26.622)">
            <path id="Trazado_104043" data-name="Trazado 104043" d="M179.6,6555.849c1.9-1.875,2.968-3,2.968-4.016a1.113,1.113,0,0,0-1.2-1.228,1.866,1.866,0,0,0-1.346.756l-.465-.461a2.485,2.485,0,0,1,1.91-.952,1.747,1.747,0,0,1,1.89,1.846c0,1.178-1.079,2.346-2.572,3.9.346-.031.732-.06,1.059-.06h1.83v.7H179.6Z" transform="translate(-179.559 -6549.948)" fill="#8c757e"/>
          </g>
          <g id="Grupo_55013" data-name="Grupo 55013" transform="translate(136.794 26.505)">
            <path id="Trazado_104044" data-name="Trazado 104044" d="M216.614,6554.934a2.147,2.147,0,0,0,1.612.748,1.174,1.174,0,0,0,1.306-1.15c0-.746-.514-1.246-2.018-1.246v-.618c1.346,0,1.791-.511,1.791-1.169a.968.968,0,0,0-1.088-.992,1.913,1.913,0,0,0-1.345.639l-.435-.511a2.6,2.6,0,0,1,1.81-.785c1.1,0,1.89.578,1.89,1.591a1.554,1.554,0,0,1-1.147,1.491v.04a1.62,1.62,0,0,1,1.365,1.59,1.867,1.867,0,0,1-2.078,1.788,2.691,2.691,0,0,1-2.077-.884Z" transform="translate(-216.199 -6549.849)" fill="#8c757e"/>
          </g>
          <g id="Grupo_55014" data-name="Grupo 55014" transform="translate(179.917 26.622)">
            <path id="Trazado_104045" data-name="Trazado 104045" d="M257.318,6554.484h-.86v1.729h-.772v-1.729h-2.839v-.531l2.7-4.005h.911v3.888h.86Zm-1.632-.648v-1.817c0-.333.029-.873.049-1.207h-.04c-.158.3-.335.579-.514.884l-1.473,2.14Z" transform="translate(-252.847 -6549.948)" fill="#8c757e"/>
          </g>
          <g id="Grupo_55015" data-name="Grupo 55015" transform="translate(223.207 26.947)">
            <path id="Trazado_104046" data-name="Trazado 104046" d="M290.033,6555.222a2.156,2.156,0,0,0,1.593.718,1.357,1.357,0,0,0,1.385-1.435,1.263,1.263,0,0,0-1.345-1.374,1.792,1.792,0,0,0-1.079.382l-.435-.273.208-3.015h3.156v.7h-2.444l-.168,1.855a1.958,1.958,0,0,1,.97-.256,1.812,1.812,0,0,1,1.959,1.966,2.057,2.057,0,0,1-2.127,2.12,2.775,2.775,0,0,1-2.067-.854Z" transform="translate(-289.638 -6550.225)" fill="#8c757e"/>
          </g>
          <g id="Grupo_55016" data-name="Grupo 55016" transform="translate(268.16 34.984)">
            <path id="Trazado_104047" data-name="Trazado 104047" d="M328.391,6557.054a.548.548,0,0,0-.549.546v27.268a.55.55,0,0,0,1.1,0V6557.6A.548.548,0,0,0,328.391,6557.054Z" transform="translate(-327.842 -6557.054)" fill="#8c757e"/>
          </g>
          <g id="Grupo_55017" data-name="Grupo 55017" transform="translate(246.665 43.301)">
            <path id="Trazado_104048" data-name="Trazado 104048" d="M309.986,6564.124a.41.41,0,0,0-.412.408v19.087a.412.412,0,0,0,.824,0v-19.087A.409.409,0,0,0,309.986,6564.124Z" transform="translate(-309.574 -6564.124)" fill="#8c757e"/>
          </g>
          <g id="Grupo_55018" data-name="Grupo 55018" transform="translate(242.544 51.686)">
            <path id="Trazado_104049" data-name="Trazado 104049" d="M306.278,6571.25a.206.206,0,0,0-.206.2v10.907a.206.206,0,0,0,.412,0v-10.907A.2.2,0,0,0,306.278,6571.25Z" transform="translate(-306.072 -6571.25)" fill="#8c757e"/>
          </g>
          <g id="Grupo_55019" data-name="Grupo 55019" transform="translate(238.218 51.686)">
            <path id="Trazado_104050" data-name="Trazado 104050" d="M302.6,6571.25a.206.206,0,0,0-.206.2v10.907a.206.206,0,0,0,.412,0v-10.907A.2.2,0,0,0,302.6,6571.25Z" transform="translate(-302.395 -6571.25)" fill="#8c757e"/>
          </g>
          <g id="Grupo_55020" data-name="Grupo 55020" transform="translate(233.891 51.686)">
            <path id="Trazado_104051" data-name="Trazado 104051" d="M298.924,6571.25a.206.206,0,0,0-.206.2v10.907a.206.206,0,0,0,.412,0v-10.907A.2.2,0,0,0,298.924,6571.25Z" transform="translate(-298.718 -6571.25)" fill="#8c757e"/>
          </g>
          <g id="Grupo_55021" data-name="Grupo 55021" transform="translate(229.565 51.686)">
            <path id="Trazado_104052" data-name="Trazado 104052" d="M295.247,6571.25a.206.206,0,0,0-.206.2v10.907a.206.206,0,0,0,.412,0v-10.907A.2.2,0,0,0,295.247,6571.25Z" transform="translate(-295.041 -6571.25)" fill="#8c757e"/>
          </g>
          <g id="Grupo_55022" data-name="Grupo 55022" transform="translate(240.382 56.049)">
            <path id="Trazado_104053" data-name="Trazado 104053" d="M304.44,6574.958a.2.2,0,0,0-.206.2v6.544a.206.206,0,0,0,.412,0v-6.544A.2.2,0,0,0,304.44,6574.958Z" transform="translate(-304.234 -6574.958)" fill="#8c757e"/>
          </g>
          <g id="Grupo_55023" data-name="Grupo 55023" transform="translate(244.708 56.049)">
            <path id="Trazado_104054" data-name="Trazado 104054" d="M308.117,6574.958a.2.2,0,0,0-.206.2v6.544a.206.206,0,0,0,.412,0v-6.544A.2.2,0,0,0,308.117,6574.958Z" transform="translate(-307.911 -6574.958)" fill="#8c757e"/>
          </g>
          <g id="Grupo_55024" data-name="Grupo 55024" transform="translate(236.055 56.049)">
            <path id="Trazado_104055" data-name="Trazado 104055" d="M300.763,6574.958a.2.2,0,0,0-.206.2v6.544a.206.206,0,0,0,.412,0v-6.544A.2.2,0,0,0,300.763,6574.958Z" transform="translate(-300.557 -6574.958)" fill="#8c757e"/>
          </g>
          <g id="Grupo_55025" data-name="Grupo 55025" transform="translate(231.728 56.049)">
            <path id="Trazado_104056" data-name="Trazado 104056" d="M297.086,6574.958a.2.2,0,0,0-.206.2v6.544a.206.206,0,0,0,.412,0v-6.544A.2.2,0,0,0,297.086,6574.958Z" transform="translate(-296.88 -6574.958)" fill="#8c757e"/>
          </g>
          <g id="Grupo_55026" data-name="Grupo 55026" transform="translate(227.402 56.049)">
            <path id="Trazado_104057" data-name="Trazado 104057" d="M293.409,6574.958a.2.2,0,0,0-.206.2v6.544a.206.206,0,0,0,.412,0v-6.544A.2.2,0,0,0,293.409,6574.958Z" transform="translate(-293.203 -6574.958)" fill="#8c757e"/>
          </g>
          <g id="Grupo_55027" data-name="Grupo 55027" transform="translate(264.177 51.686)">
            <path id="Trazado_104058" data-name="Trazado 104058" d="M324.663,6571.25a.2.2,0,0,0-.206.2v10.907a.206.206,0,0,0,.412,0v-10.907A.2.2,0,0,0,324.663,6571.25Z" transform="translate(-324.457 -6571.25)" fill="#8c757e"/>
          </g>
          <g id="Grupo_55028" data-name="Grupo 55028" transform="translate(259.851 51.686)">
            <path id="Trazado_104059" data-name="Trazado 104059" d="M320.986,6571.25a.2.2,0,0,0-.206.2v10.907a.206.206,0,0,0,.412,0v-10.907A.2.2,0,0,0,320.986,6571.25Z" transform="translate(-320.78 -6571.25)" fill="#8c757e"/>
          </g>
          <g id="Grupo_55029" data-name="Grupo 55029" transform="translate(255.524 51.686)">
            <path id="Trazado_104060" data-name="Trazado 104060" d="M317.309,6571.25a.2.2,0,0,0-.206.2v10.907a.206.206,0,0,0,.412,0v-10.907A.2.2,0,0,0,317.309,6571.25Z" transform="translate(-317.103 -6571.25)" fill="#8c757e"/>
          </g>
          <g id="Grupo_55030" data-name="Grupo 55030" transform="translate(251.197 51.686)">
            <path id="Trazado_104061" data-name="Trazado 104061" d="M313.632,6571.25a.2.2,0,0,0-.206.2v10.907a.206.206,0,0,0,.412,0v-10.907A.2.2,0,0,0,313.632,6571.25Z" transform="translate(-313.426 -6571.25)" fill="#8c757e"/>
          </g>
          <g id="Grupo_55031" data-name="Grupo 55031" transform="translate(262.013 56.049)">
            <path id="Trazado_104062" data-name="Trazado 104062" d="M322.825,6574.958a.2.2,0,0,0-.207.2v6.544a.206.206,0,0,0,.413,0v-6.544A.2.2,0,0,0,322.825,6574.958Z" transform="translate(-322.618 -6574.958)" fill="#8c757e"/>
          </g>
          <g id="Grupo_55032" data-name="Grupo 55032" transform="translate(266.34 56.049)">
            <path id="Trazado_104063" data-name="Trazado 104063" d="M326.5,6574.958a.2.2,0,0,0-.207.2v6.544a.207.207,0,0,0,.413,0v-6.544A.2.2,0,0,0,326.5,6574.958Z" transform="translate(-326.295 -6574.958)" fill="#8c757e"/>
          </g>
          <g id="Grupo_55033" data-name="Grupo 55033" transform="translate(257.688 56.049)">
            <path id="Trazado_104064" data-name="Trazado 104064" d="M319.148,6574.958a.2.2,0,0,0-.206.2v6.544a.206.206,0,0,0,.412,0v-6.544A.2.2,0,0,0,319.148,6574.958Z" transform="translate(-318.942 -6574.958)" fill="#8c757e"/>
          </g>
          <g id="Grupo_55034" data-name="Grupo 55034" transform="translate(253.361 56.049)">
            <path id="Trazado_104065" data-name="Trazado 104065" d="M315.471,6574.958a.2.2,0,0,0-.206.2v6.544a.206.206,0,0,0,.412,0v-6.544A.2.2,0,0,0,315.471,6574.958Z" transform="translate(-315.265 -6574.958)" fill="#8c757e"/>
          </g>
          <g id="Grupo_55035" data-name="Grupo 55035" transform="translate(249.035 56.049)">
            <path id="Trazado_104066" data-name="Trazado 104066" d="M311.794,6574.958a.2.2,0,0,0-.206.2v6.544a.206.206,0,0,0,.412,0v-6.544A.2.2,0,0,0,311.794,6574.958Z" transform="translate(-311.588 -6574.958)" fill="#8c757e"/>
          </g>
          <g id="Grupo_55036" data-name="Grupo 55036" transform="translate(311.426 34.984)">
            <path id="Trazado_104067" data-name="Trazado 104067" d="M365.162,6557.054a.548.548,0,0,0-.55.546v27.268a.55.55,0,0,0,1.1,0V6557.6A.548.548,0,0,0,365.162,6557.054Z" transform="translate(-364.612 -6557.054)" fill="#8c757e"/>
          </g>
          <g id="Grupo_55037" data-name="Grupo 55037" transform="translate(289.931 43.301)">
            <path id="Trazado_104068" data-name="Trazado 104068" d="M346.756,6564.124a.41.41,0,0,0-.412.408v19.087a.412.412,0,0,0,.824,0v-19.087A.41.41,0,0,0,346.756,6564.124Z" transform="translate(-346.344 -6564.124)" fill="#8c757e"/>
          </g>
          <g id="Grupo_55038" data-name="Grupo 55038" transform="translate(285.81 51.686)">
            <path id="Trazado_104069" data-name="Trazado 104069" d="M343.048,6571.25a.2.2,0,0,0-.206.2v10.907a.206.206,0,0,0,.412,0v-10.907A.2.2,0,0,0,343.048,6571.25Z" transform="translate(-342.842 -6571.25)" fill="#8c757e"/>
          </g>
          <g id="Grupo_55039" data-name="Grupo 55039" transform="translate(281.483 51.686)">
            <path id="Trazado_104070" data-name="Trazado 104070" d="M339.371,6571.25a.2.2,0,0,0-.206.2v10.907a.206.206,0,0,0,.412,0v-10.907A.2.2,0,0,0,339.371,6571.25Z" transform="translate(-339.165 -6571.25)" fill="#8c757e"/>
          </g>
          <g id="Grupo_55040" data-name="Grupo 55040" transform="translate(277.157 51.686)">
            <path id="Trazado_104071" data-name="Trazado 104071" d="M335.694,6571.25a.2.2,0,0,0-.206.2v10.907a.206.206,0,0,0,.412,0v-10.907A.2.2,0,0,0,335.694,6571.25Z" transform="translate(-335.488 -6571.25)" fill="#8c757e"/>
          </g>
          <g id="Grupo_55041" data-name="Grupo 55041" transform="translate(272.83 51.686)">
            <path id="Trazado_104072" data-name="Trazado 104072" d="M332.017,6571.25a.2.2,0,0,0-.206.2v10.907a.206.206,0,0,0,.412,0v-10.907A.2.2,0,0,0,332.017,6571.25Z" transform="translate(-331.811 -6571.25)" fill="#8c757e"/>
          </g>
          <g id="Grupo_55042" data-name="Grupo 55042" transform="translate(283.646 56.049)">
            <path id="Trazado_104073" data-name="Trazado 104073" d="M341.209,6574.958a.2.2,0,0,0-.206.2v6.544a.207.207,0,0,0,.413,0v-6.544A.2.2,0,0,0,341.209,6574.958Z" transform="translate(-341.003 -6574.958)" fill="#8c757e"/>
          </g>
          <g id="Grupo_55043" data-name="Grupo 55043" transform="translate(287.973 56.049)">
            <path id="Trazado_104074" data-name="Trazado 104074" d="M344.886,6574.958a.2.2,0,0,0-.206.2v6.544a.207.207,0,0,0,.413,0v-6.544A.2.2,0,0,0,344.886,6574.958Z" transform="translate(-344.68 -6574.958)" fill="#8c757e"/>
          </g>
          <g id="Grupo_55044" data-name="Grupo 55044" transform="translate(279.32 56.049)">
            <path id="Trazado_104075" data-name="Trazado 104075" d="M337.532,6574.958a.2.2,0,0,0-.206.2v6.544a.207.207,0,0,0,.413,0v-6.544A.2.2,0,0,0,337.532,6574.958Z" transform="translate(-337.326 -6574.958)" fill="#8c757e"/>
          </g>
          <g id="Grupo_55045" data-name="Grupo 55045" transform="translate(274.993 56.049)">
            <path id="Trazado_104076" data-name="Trazado 104076" d="M333.856,6574.958a.2.2,0,0,0-.207.2v6.544a.207.207,0,0,0,.413,0v-6.544A.2.2,0,0,0,333.856,6574.958Z" transform="translate(-333.649 -6574.958)" fill="#8c757e"/>
          </g>
          <g id="Grupo_55046" data-name="Grupo 55046" transform="translate(270.666 56.049)">
            <path id="Trazado_104077" data-name="Trazado 104077" d="M330.179,6574.958a.2.2,0,0,0-.207.2v6.544a.207.207,0,0,0,.413,0v-6.544A.2.2,0,0,0,330.179,6574.958Z" transform="translate(-329.972 -6574.958)" fill="#8c757e"/>
          </g>
          <g id="Grupo_55047" data-name="Grupo 55047" transform="translate(307.443 51.686)">
            <path id="Trazado_104078" data-name="Trazado 104078" d="M361.433,6571.25a.2.2,0,0,0-.206.2v10.907a.206.206,0,0,0,.412,0v-10.907A.2.2,0,0,0,361.433,6571.25Z" transform="translate(-361.227 -6571.25)" fill="#8c757e"/>
          </g>
          <g id="Grupo_55048" data-name="Grupo 55048" transform="translate(303.116 51.686)">
            <path id="Trazado_104079" data-name="Trazado 104079" d="M357.756,6571.25a.2.2,0,0,0-.206.2v10.907a.206.206,0,0,0,.412,0v-10.907A.2.2,0,0,0,357.756,6571.25Z" transform="translate(-357.55 -6571.25)" fill="#8c757e"/>
          </g>
          <g id="Grupo_55049" data-name="Grupo 55049" transform="translate(298.79 51.686)">
            <path id="Trazado_104080" data-name="Trazado 104080" d="M354.079,6571.25a.2.2,0,0,0-.206.2v10.907a.206.206,0,0,0,.412,0v-10.907A.2.2,0,0,0,354.079,6571.25Z" transform="translate(-353.873 -6571.25)" fill="#8c757e"/>
          </g>
          <g id="Grupo_55050" data-name="Grupo 55050" transform="translate(294.463 51.686)">
            <path id="Trazado_104081" data-name="Trazado 104081" d="M350.4,6571.25a.2.2,0,0,0-.206.2v10.907a.206.206,0,0,0,.412,0v-10.907A.2.2,0,0,0,350.4,6571.25Z" transform="translate(-350.196 -6571.25)" fill="#8c757e"/>
          </g>
          <g id="Grupo_55051" data-name="Grupo 55051" transform="translate(305.279 56.049)">
            <path id="Trazado_104082" data-name="Trazado 104082" d="M359.594,6574.958a.2.2,0,0,0-.206.2v6.544a.206.206,0,0,0,.412,0v-6.544A.2.2,0,0,0,359.594,6574.958Z" transform="translate(-359.388 -6574.958)" fill="#8c757e"/>
          </g>
          <g id="Grupo_55052" data-name="Grupo 55052" transform="translate(309.606 56.049)">
            <path id="Trazado_104083" data-name="Trazado 104083" d="M363.271,6574.958a.2.2,0,0,0-.206.2v6.544a.206.206,0,0,0,.412,0v-6.544A.2.2,0,0,0,363.271,6574.958Z" transform="translate(-363.065 -6574.958)" fill="#8c757e"/>
          </g>
          <g id="Grupo_55053" data-name="Grupo 55053" transform="translate(300.952 56.049)">
            <path id="Trazado_104084" data-name="Trazado 104084" d="M355.917,6574.958a.2.2,0,0,0-.206.2v6.544a.206.206,0,0,0,.412,0v-6.544A.2.2,0,0,0,355.917,6574.958Z" transform="translate(-355.711 -6574.958)" fill="#8c757e"/>
          </g>
          <g id="Grupo_55054" data-name="Grupo 55054" transform="translate(296.626 56.049)">
            <path id="Trazado_104085" data-name="Trazado 104085" d="M352.24,6574.958a.2.2,0,0,0-.206.2v6.544a.207.207,0,0,0,.413,0v-6.544A.2.2,0,0,0,352.24,6574.958Z" transform="translate(-352.034 -6574.958)" fill="#8c757e"/>
          </g>
          <g id="Grupo_55055" data-name="Grupo 55055" transform="translate(292.299 56.049)">
            <path id="Trazado_104086" data-name="Trazado 104086" d="M348.563,6574.958a.2.2,0,0,0-.206.2v6.544a.207.207,0,0,0,.413,0v-6.544A.2.2,0,0,0,348.563,6574.958Z" transform="translate(-348.357 -6574.958)" fill="#8c757e"/>
          </g>
          <g id="Grupo_55056" data-name="Grupo 55056" transform="translate(354.692 34.984)">
            <path id="Trazado_104087" data-name="Trazado 104087" d="M401.932,6557.054a.547.547,0,0,0-.55.546v27.268a.55.55,0,0,0,1.1,0V6557.6A.548.548,0,0,0,401.932,6557.054Z" transform="translate(-401.382 -6557.054)" fill="#8c757e"/>
          </g>
          <g id="Grupo_55057" data-name="Grupo 55057" transform="translate(333.195 43.301)">
            <path id="Trazado_104088" data-name="Trazado 104088" d="M383.526,6564.124a.41.41,0,0,0-.413.408v19.087a.412.412,0,0,0,.825,0v-19.087A.41.41,0,0,0,383.526,6564.124Z" transform="translate(-383.113 -6564.124)" fill="#8c757e"/>
          </g>
          <g id="Grupo_55058" data-name="Grupo 55058" transform="translate(329.076 51.686)">
            <path id="Trazado_104089" data-name="Trazado 104089" d="M379.818,6571.25a.2.2,0,0,0-.206.2v10.907a.206.206,0,0,0,.412,0v-10.907A.206.206,0,0,0,379.818,6571.25Z" transform="translate(-379.612 -6571.25)" fill="#8c757e"/>
          </g>
          <g id="Grupo_55059" data-name="Grupo 55059" transform="translate(324.749 51.686)">
            <path id="Trazado_104090" data-name="Trazado 104090" d="M376.141,6571.25a.2.2,0,0,0-.206.2v10.907a.206.206,0,0,0,.412,0v-10.907A.206.206,0,0,0,376.141,6571.25Z" transform="translate(-375.935 -6571.25)" fill="#8c757e"/>
          </g>
          <g id="Grupo_55060" data-name="Grupo 55060" transform="translate(320.423 51.686)">
            <path id="Trazado_104091" data-name="Trazado 104091" d="M372.464,6571.25a.2.2,0,0,0-.206.2v10.907a.206.206,0,0,0,.412,0v-10.907A.206.206,0,0,0,372.464,6571.25Z" transform="translate(-372.258 -6571.25)" fill="#8c757e"/>
          </g>
          <g id="Grupo_55061" data-name="Grupo 55061" transform="translate(316.096 51.686)">
            <path id="Trazado_104092" data-name="Trazado 104092" d="M368.787,6571.25a.2.2,0,0,0-.206.2v10.907a.206.206,0,0,0,.412,0v-10.907A.206.206,0,0,0,368.787,6571.25Z" transform="translate(-368.581 -6571.25)" fill="#8c757e"/>
          </g>
          <g id="Grupo_55062" data-name="Grupo 55062" transform="translate(326.912 56.049)">
            <path id="Trazado_104093" data-name="Trazado 104093" d="M377.979,6574.958a.2.2,0,0,0-.206.2v6.544a.206.206,0,0,0,.412,0v-6.544A.2.2,0,0,0,377.979,6574.958Z" transform="translate(-377.773 -6574.958)" fill="#8c757e"/>
          </g>
          <g id="Grupo_55063" data-name="Grupo 55063" transform="translate(331.239 56.049)">
            <path id="Trazado_104094" data-name="Trazado 104094" d="M381.656,6574.958a.2.2,0,0,0-.206.2v6.544a.206.206,0,0,0,.412,0v-6.544A.2.2,0,0,0,381.656,6574.958Z" transform="translate(-381.45 -6574.958)" fill="#8c757e"/>
          </g>
          <g id="Grupo_55064" data-name="Grupo 55064" transform="translate(322.585 56.049)">
            <path id="Trazado_104095" data-name="Trazado 104095" d="M374.3,6574.958a.2.2,0,0,0-.206.2v6.544a.206.206,0,0,0,.412,0v-6.544A.2.2,0,0,0,374.3,6574.958Z" transform="translate(-374.096 -6574.958)" fill="#8c757e"/>
          </g>
          <g id="Grupo_55065" data-name="Grupo 55065" transform="translate(318.259 56.049)">
            <path id="Trazado_104096" data-name="Trazado 104096" d="M370.625,6574.958a.2.2,0,0,0-.206.2v6.544a.206.206,0,0,0,.412,0v-6.544A.2.2,0,0,0,370.625,6574.958Z" transform="translate(-370.419 -6574.958)" fill="#8c757e"/>
          </g>
          <g id="Grupo_55066" data-name="Grupo 55066" transform="translate(313.932 56.049)">
            <path id="Trazado_104097" data-name="Trazado 104097" d="M366.948,6574.958a.2.2,0,0,0-.206.2v6.544a.206.206,0,0,0,.412,0v-6.544A.2.2,0,0,0,366.948,6574.958Z" transform="translate(-366.742 -6574.958)" fill="#8c757e"/>
          </g>
          <g id="Grupo_55067" data-name="Grupo 55067" transform="translate(350.708 51.686)">
            <path id="Trazado_104098" data-name="Trazado 104098" d="M398.2,6571.25a.206.206,0,0,0-.207.2v10.907a.206.206,0,0,0,.413,0v-10.907A.206.206,0,0,0,398.2,6571.25Z" transform="translate(-397.996 -6571.25)" fill="#8c757e"/>
          </g>
          <g id="Grupo_55068" data-name="Grupo 55068" transform="translate(346.382 51.686)">
            <path id="Trazado_104099" data-name="Trazado 104099" d="M394.526,6571.25a.2.2,0,0,0-.206.2v10.907a.206.206,0,0,0,.412,0v-10.907A.206.206,0,0,0,394.526,6571.25Z" transform="translate(-394.32 -6571.25)" fill="#8c757e"/>
          </g>
          <g id="Grupo_55069" data-name="Grupo 55069" transform="translate(342.056 51.686)">
            <path id="Trazado_104100" data-name="Trazado 104100" d="M390.849,6571.25a.2.2,0,0,0-.206.2v10.907a.206.206,0,0,0,.412,0v-10.907A.206.206,0,0,0,390.849,6571.25Z" transform="translate(-390.643 -6571.25)" fill="#8c757e"/>
          </g>
          <g id="Grupo_55070" data-name="Grupo 55070" transform="translate(337.729 51.686)">
            <path id="Trazado_104101" data-name="Trazado 104101" d="M387.172,6571.25a.2.2,0,0,0-.206.2v10.907a.206.206,0,0,0,.412,0v-10.907A.206.206,0,0,0,387.172,6571.25Z" transform="translate(-386.966 -6571.25)" fill="#8c757e"/>
          </g>
          <g id="Grupo_55071" data-name="Grupo 55071" transform="translate(348.545 56.049)">
            <path id="Trazado_104102" data-name="Trazado 104102" d="M396.364,6574.958a.2.2,0,0,0-.206.2v6.544a.206.206,0,0,0,.412,0v-6.544A.2.2,0,0,0,396.364,6574.958Z" transform="translate(-396.158 -6574.958)" fill="#8c757e"/>
          </g>
          <g id="Grupo_55072" data-name="Grupo 55072" transform="translate(352.871 56.049)">
            <path id="Trazado_104103" data-name="Trazado 104103" d="M400.041,6574.958a.2.2,0,0,0-.206.2v6.544a.206.206,0,0,0,.412,0v-6.544A.2.2,0,0,0,400.041,6574.958Z" transform="translate(-399.835 -6574.958)" fill="#8c757e"/>
          </g>
          <g id="Grupo_55073" data-name="Grupo 55073" transform="translate(344.218 56.049)">
            <path id="Trazado_104104" data-name="Trazado 104104" d="M392.687,6574.958a.2.2,0,0,0-.206.2v6.544a.206.206,0,0,0,.412,0v-6.544A.2.2,0,0,0,392.687,6574.958Z" transform="translate(-392.481 -6574.958)" fill="#8c757e"/>
          </g>
          <g id="Grupo_55074" data-name="Grupo 55074" transform="translate(339.892 56.049)">
            <path id="Trazado_104105" data-name="Trazado 104105" d="M389.01,6574.958a.2.2,0,0,0-.206.2v6.544a.206.206,0,0,0,.412,0v-6.544A.2.2,0,0,0,389.01,6574.958Z" transform="translate(-388.804 -6574.958)" fill="#8c757e"/>
          </g>
          <g id="Grupo_55075" data-name="Grupo 55075" transform="translate(335.565 56.049)">
            <path id="Trazado_104106" data-name="Trazado 104106" d="M385.333,6574.958a.2.2,0,0,0-.206.2v6.544a.207.207,0,0,0,.413,0v-6.544A.2.2,0,0,0,385.333,6574.958Z" transform="translate(-385.127 -6574.958)" fill="#8c757e"/>
          </g>
          <g id="Grupo_55076" data-name="Grupo 55076" transform="translate(397.956 34.984)">
            <path id="Trazado_104107" data-name="Trazado 104107" d="M438.7,6557.054a.548.548,0,0,0-.55.546v27.268a.55.55,0,0,0,1.1,0V6557.6A.548.548,0,0,0,438.7,6557.054Z" transform="translate(-438.151 -6557.054)" fill="#8c757e"/>
          </g>
          <g id="Grupo_55077" data-name="Grupo 55077" transform="translate(376.461 43.301)">
            <path id="Trazado_104108" data-name="Trazado 104108" d="M420.295,6564.124a.41.41,0,0,0-.412.408v19.087a.412.412,0,0,0,.825,0v-19.087A.41.41,0,0,0,420.295,6564.124Z" transform="translate(-419.883 -6564.124)" fill="#8c757e"/>
          </g>
          <g id="Grupo_55078" data-name="Grupo 55078" transform="translate(372.34 51.686)">
            <path id="Trazado_104109" data-name="Trazado 104109" d="M416.587,6571.25a.206.206,0,0,0-.206.2v10.907a.207.207,0,0,0,.413,0v-10.907A.206.206,0,0,0,416.587,6571.25Z" transform="translate(-416.381 -6571.25)" fill="#8c757e"/>
          </g>
          <g id="Grupo_55079" data-name="Grupo 55079" transform="translate(368.014 51.686)">
            <path id="Trazado_104110" data-name="Trazado 104110" d="M412.911,6571.25a.206.206,0,0,0-.207.2v10.907a.206.206,0,0,0,.413,0v-10.907A.206.206,0,0,0,412.911,6571.25Z" transform="translate(-412.704 -6571.25)" fill="#8c757e"/>
          </g>
          <g id="Grupo_55080" data-name="Grupo 55080" transform="translate(363.687 51.686)">
            <path id="Trazado_104111" data-name="Trazado 104111" d="M409.234,6571.25a.206.206,0,0,0-.207.2v10.907a.206.206,0,0,0,.413,0v-10.907A.206.206,0,0,0,409.234,6571.25Z" transform="translate(-409.027 -6571.25)" fill="#8c757e"/>
          </g>
          <g id="Grupo_55081" data-name="Grupo 55081" transform="translate(359.361 51.686)">
            <path id="Trazado_104112" data-name="Trazado 104112" d="M405.557,6571.25a.206.206,0,0,0-.207.2v10.907a.207.207,0,0,0,.413,0v-10.907A.206.206,0,0,0,405.557,6571.25Z" transform="translate(-405.35 -6571.25)" fill="#8c757e"/>
          </g>
          <g id="Grupo_55082" data-name="Grupo 55082" transform="translate(370.178 56.049)">
            <path id="Trazado_104113" data-name="Trazado 104113" d="M414.749,6574.958a.2.2,0,0,0-.206.2v6.544a.206.206,0,0,0,.412,0v-6.544A.2.2,0,0,0,414.749,6574.958Z" transform="translate(-414.543 -6574.958)" fill="#8c757e"/>
          </g>
          <g id="Grupo_55083" data-name="Grupo 55083" transform="translate(374.504 56.049)">
            <path id="Trazado_104114" data-name="Trazado 104114" d="M418.426,6574.958a.2.2,0,0,0-.206.2v6.544a.206.206,0,0,0,.412,0v-6.544A.2.2,0,0,0,418.426,6574.958Z" transform="translate(-418.22 -6574.958)" fill="#8c757e"/>
          </g>
          <g id="Grupo_55084" data-name="Grupo 55084" transform="translate(365.851 56.049)">
            <path id="Trazado_104115" data-name="Trazado 104115" d="M411.072,6574.958a.2.2,0,0,0-.206.2v6.544a.206.206,0,0,0,.412,0v-6.544A.2.2,0,0,0,411.072,6574.958Z" transform="translate(-410.866 -6574.958)" fill="#8c757e"/>
          </g>
          <g id="Grupo_55085" data-name="Grupo 55085" transform="translate(361.525 56.049)">
            <path id="Trazado_104116" data-name="Trazado 104116" d="M407.395,6574.958a.2.2,0,0,0-.206.2v6.544a.206.206,0,0,0,.412,0v-6.544A.2.2,0,0,0,407.395,6574.958Z" transform="translate(-407.189 -6574.958)" fill="#8c757e"/>
          </g>
          <g id="Grupo_55086" data-name="Grupo 55086" transform="translate(357.198 56.049)">
            <path id="Trazado_104117" data-name="Trazado 104117" d="M403.718,6574.958a.2.2,0,0,0-.206.2v6.544a.206.206,0,0,0,.412,0v-6.544A.2.2,0,0,0,403.718,6574.958Z" transform="translate(-403.512 -6574.958)" fill="#8c757e"/>
          </g>
          <g id="Grupo_55087" data-name="Grupo 55087" transform="translate(393.973 51.686)">
            <path id="Trazado_104118" data-name="Trazado 104118" d="M434.972,6571.25a.206.206,0,0,0-.206.2v10.907a.206.206,0,0,0,.412,0v-10.907A.2.2,0,0,0,434.972,6571.25Z" transform="translate(-434.766 -6571.25)" fill="#8c757e"/>
          </g>
          <g id="Grupo_55088" data-name="Grupo 55088" transform="translate(389.647 51.686)">
            <path id="Trazado_104119" data-name="Trazado 104119" d="M431.295,6571.25a.206.206,0,0,0-.206.2v10.907a.207.207,0,0,0,.413,0v-10.907A.206.206,0,0,0,431.295,6571.25Z" transform="translate(-431.089 -6571.25)" fill="#8c757e"/>
          </g>
          <g id="Grupo_55089" data-name="Grupo 55089" transform="translate(385.32 51.686)">
            <path id="Trazado_104120" data-name="Trazado 104120" d="M427.618,6571.25a.206.206,0,0,0-.206.2v10.907a.207.207,0,0,0,.413,0v-10.907A.206.206,0,0,0,427.618,6571.25Z" transform="translate(-427.412 -6571.25)" fill="#8c757e"/>
          </g>
          <g id="Grupo_55090" data-name="Grupo 55090" transform="translate(380.994 51.686)">
            <path id="Trazado_104121" data-name="Trazado 104121" d="M423.941,6571.25a.206.206,0,0,0-.206.2v10.907a.207.207,0,0,0,.413,0v-10.907A.206.206,0,0,0,423.941,6571.25Z" transform="translate(-423.735 -6571.25)" fill="#8c757e"/>
          </g>
          <g id="Grupo_55091" data-name="Grupo 55091" transform="translate(391.811 56.049)">
            <path id="Trazado_104122" data-name="Trazado 104122" d="M433.134,6574.958a.2.2,0,0,0-.206.2v6.544a.206.206,0,0,0,.412,0v-6.544A.2.2,0,0,0,433.134,6574.958Z" transform="translate(-432.928 -6574.958)" fill="#8c757e"/>
          </g>
          <g id="Grupo_55092" data-name="Grupo 55092" transform="translate(396.137 56.049)">
            <path id="Trazado_104123" data-name="Trazado 104123" d="M436.811,6574.958a.2.2,0,0,0-.206.2v6.544a.206.206,0,0,0,.412,0v-6.544A.2.2,0,0,0,436.811,6574.958Z" transform="translate(-436.605 -6574.958)" fill="#8c757e"/>
          </g>
          <g id="Grupo_55093" data-name="Grupo 55093" transform="translate(387.484 56.049)">
            <path id="Trazado_104124" data-name="Trazado 104124" d="M429.457,6574.958a.2.2,0,0,0-.206.2v6.544a.206.206,0,0,0,.412,0v-6.544A.2.2,0,0,0,429.457,6574.958Z" transform="translate(-429.251 -6574.958)" fill="#8c757e"/>
          </g>
          <g id="Grupo_55094" data-name="Grupo 55094" transform="translate(383.157 56.049)">
            <path id="Trazado_104125" data-name="Trazado 104125" d="M425.78,6574.958a.2.2,0,0,0-.206.2v6.544a.206.206,0,0,0,.412,0v-6.544A.2.2,0,0,0,425.78,6574.958Z" transform="translate(-425.574 -6574.958)" fill="#8c757e"/>
          </g>
          <g id="Grupo_55095" data-name="Grupo 55095" transform="translate(378.831 56.049)">
            <path id="Trazado_104126" data-name="Trazado 104126" d="M422.1,6574.958a.2.2,0,0,0-.206.2v6.544a.206.206,0,0,0,.412,0v-6.544A.2.2,0,0,0,422.1,6574.958Z" transform="translate(-421.897 -6574.958)" fill="#8c757e"/>
          </g>
          <g id="Grupo_55096" data-name="Grupo 55096" transform="translate(441.222 34.984)">
            <path id="Trazado_104127" data-name="Trazado 104127" d="M475.471,6557.054a.548.548,0,0,0-.549.546v27.268a.55.55,0,0,0,1.1,0V6557.6A.548.548,0,0,0,475.471,6557.054Z" transform="translate(-474.921 -6557.054)" fill="#8c757e"/>
          </g>
          <g id="Grupo_55097" data-name="Grupo 55097" transform="translate(419.727 43.301)">
            <path id="Trazado_104128" data-name="Trazado 104128" d="M457.065,6564.124a.41.41,0,0,0-.412.408v19.087a.412.412,0,0,0,.824,0v-19.087A.409.409,0,0,0,457.065,6564.124Z" transform="translate(-456.653 -6564.124)" fill="#8c757e"/>
          </g>
          <g id="Grupo_55098" data-name="Grupo 55098" transform="translate(415.606 51.686)">
            <path id="Trazado_104129" data-name="Trazado 104129" d="M453.357,6571.25a.206.206,0,0,0-.206.2v10.907a.206.206,0,0,0,.412,0v-10.907A.2.2,0,0,0,453.357,6571.25Z" transform="translate(-453.151 -6571.25)" fill="#8c757e"/>
          </g>
          <g id="Grupo_55099" data-name="Grupo 55099" transform="translate(411.28 51.686)">
            <path id="Trazado_104130" data-name="Trazado 104130" d="M449.68,6571.25a.206.206,0,0,0-.206.2v10.907a.206.206,0,0,0,.412,0v-10.907A.2.2,0,0,0,449.68,6571.25Z" transform="translate(-449.474 -6571.25)" fill="#8c757e"/>
          </g>
          <g id="Grupo_55100" data-name="Grupo 55100" transform="translate(406.953 51.686)">
            <path id="Trazado_104131" data-name="Trazado 104131" d="M446,6571.25a.206.206,0,0,0-.206.2v10.907a.206.206,0,0,0,.412,0v-10.907A.2.2,0,0,0,446,6571.25Z" transform="translate(-445.797 -6571.25)" fill="#8c757e"/>
          </g>
          <g id="Grupo_55101" data-name="Grupo 55101" transform="translate(402.626 51.686)">
            <path id="Trazado_104132" data-name="Trazado 104132" d="M442.326,6571.25a.206.206,0,0,0-.206.2v10.907a.206.206,0,0,0,.412,0v-10.907A.2.2,0,0,0,442.326,6571.25Z" transform="translate(-442.12 -6571.25)" fill="#8c757e"/>
          </g>
          <g id="Grupo_55102" data-name="Grupo 55102" transform="translate(413.442 56.049)">
            <path id="Trazado_104133" data-name="Trazado 104133" d="M451.519,6574.958a.2.2,0,0,0-.207.2v6.544a.207.207,0,0,0,.413,0v-6.544A.2.2,0,0,0,451.519,6574.958Z" transform="translate(-451.312 -6574.958)" fill="#8c757e"/>
          </g>
          <g id="Grupo_55103" data-name="Grupo 55103" transform="translate(417.77 56.049)">
            <path id="Trazado_104134" data-name="Trazado 104134" d="M455.2,6574.958a.2.2,0,0,0-.206.2v6.544a.206.206,0,0,0,.412,0v-6.544A.2.2,0,0,0,455.2,6574.958Z" transform="translate(-454.99 -6574.958)" fill="#8c757e"/>
          </g>
          <g id="Grupo_55104" data-name="Grupo 55104" transform="translate(409.117 56.049)">
            <path id="Trazado_104135" data-name="Trazado 104135" d="M447.842,6574.958a.2.2,0,0,0-.206.2v6.544a.206.206,0,0,0,.412,0v-6.544A.2.2,0,0,0,447.842,6574.958Z" transform="translate(-447.636 -6574.958)" fill="#8c757e"/>
          </g>
          <g id="Grupo_55105" data-name="Grupo 55105" transform="translate(404.789 56.049)">
            <path id="Trazado_104136" data-name="Trazado 104136" d="M444.165,6574.958a.2.2,0,0,0-.207.2v6.544a.207.207,0,0,0,.413,0v-6.544A.2.2,0,0,0,444.165,6574.958Z" transform="translate(-443.958 -6574.958)" fill="#8c757e"/>
          </g>
          <g id="Grupo_55106" data-name="Grupo 55106" transform="translate(400.464 56.049)">
            <path id="Trazado_104137" data-name="Trazado 104137" d="M440.488,6574.958a.2.2,0,0,0-.206.2v6.544a.206.206,0,0,0,.412,0v-6.544A.2.2,0,0,0,440.488,6574.958Z" transform="translate(-440.282 -6574.958)" fill="#8c757e"/>
          </g>
          <g id="Grupo_55107" data-name="Grupo 55107" transform="translate(437.239 51.686)">
            <path id="Trazado_104138" data-name="Trazado 104138" d="M471.742,6571.25a.2.2,0,0,0-.206.2v10.907a.206.206,0,0,0,.412,0v-10.907A.2.2,0,0,0,471.742,6571.25Z" transform="translate(-471.536 -6571.25)" fill="#8c757e"/>
          </g>
          <g id="Grupo_55108" data-name="Grupo 55108" transform="translate(432.912 51.686)">
            <path id="Trazado_104139" data-name="Trazado 104139" d="M468.065,6571.25a.2.2,0,0,0-.206.2v10.907a.206.206,0,0,0,.412,0v-10.907A.2.2,0,0,0,468.065,6571.25Z" transform="translate(-467.859 -6571.25)" fill="#8c757e"/>
          </g>
          <g id="Grupo_55109" data-name="Grupo 55109" transform="translate(428.586 51.686)">
            <path id="Trazado_104140" data-name="Trazado 104140" d="M464.388,6571.25a.2.2,0,0,0-.206.2v10.907a.206.206,0,0,0,.412,0v-10.907A.2.2,0,0,0,464.388,6571.25Z" transform="translate(-464.182 -6571.25)" fill="#8c757e"/>
          </g>
          <g id="Grupo_55110" data-name="Grupo 55110" transform="translate(424.259 51.686)">
            <path id="Trazado_104141" data-name="Trazado 104141" d="M460.711,6571.25a.206.206,0,0,0-.206.2v10.907a.206.206,0,0,0,.412,0v-10.907A.2.2,0,0,0,460.711,6571.25Z" transform="translate(-460.505 -6571.25)" fill="#8c757e"/>
          </g>
          <g id="Grupo_55111" data-name="Grupo 55111" transform="translate(435.076 56.049)">
            <path id="Trazado_104142" data-name="Trazado 104142" d="M469.9,6574.958a.2.2,0,0,0-.206.2v6.544a.206.206,0,0,0,.412,0v-6.544A.2.2,0,0,0,469.9,6574.958Z" transform="translate(-469.698 -6574.958)" fill="#8c757e"/>
          </g>
          <g id="Grupo_55112" data-name="Grupo 55112" transform="translate(439.402 56.049)">
            <path id="Trazado_104143" data-name="Trazado 104143" d="M473.58,6574.958a.2.2,0,0,0-.206.2v6.544a.207.207,0,0,0,.413,0v-6.544A.2.2,0,0,0,473.58,6574.958Z" transform="translate(-473.374 -6574.958)" fill="#8c757e"/>
          </g>
          <g id="Grupo_55113" data-name="Grupo 55113" transform="translate(430.749 56.049)">
            <path id="Trazado_104144" data-name="Trazado 104144" d="M466.226,6574.958a.2.2,0,0,0-.206.2v6.544a.207.207,0,0,0,.413,0v-6.544A.2.2,0,0,0,466.226,6574.958Z" transform="translate(-466.02 -6574.958)" fill="#8c757e"/>
          </g>
          <g id="Grupo_55114" data-name="Grupo 55114" transform="translate(426.423 56.049)">
            <path id="Trazado_104145" data-name="Trazado 104145" d="M462.55,6574.958a.2.2,0,0,0-.206.2v6.544a.206.206,0,0,0,.412,0v-6.544A.2.2,0,0,0,462.55,6574.958Z" transform="translate(-462.344 -6574.958)" fill="#8c757e"/>
          </g>
          <g id="Grupo_55115" data-name="Grupo 55115" transform="translate(422.095 56.049)">
            <path id="Trazado_104146" data-name="Trazado 104146" d="M458.872,6574.958a.2.2,0,0,0-.206.2v6.544a.207.207,0,0,0,.413,0v-6.544A.2.2,0,0,0,458.872,6574.958Z" transform="translate(-458.666 -6574.958)" fill="#8c757e"/>
          </g>
          <g id="Grupo_55116" data-name="Grupo 55116" transform="translate(266.316 26.48)">
            <path id="Trazado_104147" data-name="Trazado 104147" d="M329.863,6550.5a3.065,3.065,0,0,0-.62.047,2.445,2.445,0,0,0-2.123,2.159h.019a1.862,1.862,0,0,1,3.324,1.259,2.046,2.046,0,0,1-2.038,2.16c-1.3,0-2.15-1.016-2.15-2.6a3.8,3.8,0,0,1,1.033-2.751,3.321,3.321,0,0,1,1.952-.9,4.024,4.024,0,0,1,.6-.046Zm-1.418,4.987c.7,0,1.183-.592,1.183-1.466a1.239,1.239,0,0,0-1.259-1.4,1.354,1.354,0,0,0-1.192.752.755.755,0,0,0-.085.355c.009,1,.48,1.757,1.343,1.757Z" transform="translate(-326.275 -6549.828)" fill="#8c757e"/>
          </g>
          <g id="Grupo_55117" data-name="Grupo 55117" transform="translate(309.769 26.573)">
            <path id="Trazado_104148" data-name="Trazado 104148" d="M367.053,6549.906v.545l-2.657,5.56h-.845l2.638-5.4v-.02H363.2v-.686Z" transform="translate(-363.204 -6549.906)" fill="#8c757e"/>
          </g>
          <g id="Grupo_55118" data-name="Grupo 55118" transform="translate(352.978 26.469)">
            <path id="Trazado_104149" data-name="Trazado 104149" d="M402.049,6549.818a1.581,1.581,0,0,1,1.785,1.5,1.55,1.55,0,0,1-1.015,1.426v.029a1.7,1.7,0,0,1,1.231,1.577,1.874,1.874,0,0,1-2.074,1.775c-1.278,0-2.049-.752-2.049-1.644a1.76,1.76,0,0,1,1.2-1.643v-.03a1.506,1.506,0,0,1-.977-1.37,1.71,1.71,0,0,1,1.887-1.625Zm-.056,5.71a1.105,1.105,0,0,0,1.221-1.089c0-.732-.517-1.1-1.343-1.334a1.335,1.335,0,0,0-1.1,1.268,1.123,1.123,0,0,0,1.211,1.155Zm.009-5.118a.971.971,0,0,0-1.06.977c-.009.61.459.939,1.164,1.127a1.2,1.2,0,0,0,.93-1.108.945.945,0,0,0-1.022-1Z" transform="translate(-399.926 -6549.818)" fill="#8c757e"/>
          </g>
          <g id="Grupo_55119" data-name="Grupo 55119" transform="translate(396.467 26.469)">
            <path id="Trazado_104150" data-name="Trazado 104150" d="M437.411,6555.444a3.591,3.591,0,0,0,.667-.038,2.23,2.23,0,0,0,1.277-.583,2.7,2.7,0,0,0,.808-1.624h-.029a1.793,1.793,0,0,1-1.445.657,1.771,1.771,0,0,1-1.8-1.878,2.1,2.1,0,0,1,2.094-2.16c1.248,0,2.019,1.006,2.019,2.573a3.857,3.857,0,0,1-1.052,2.864,3.121,3.121,0,0,1-1.776.817,4.677,4.677,0,0,1-.76.047Zm1.493-5c-.7,0-1.192.619-1.192,1.483a1.174,1.174,0,0,0,1.173,1.3,1.4,1.4,0,0,0,1.212-.64.661.661,0,0,0,.066-.3c.008-1.053-.386-1.841-1.25-1.841Z" transform="translate(-436.885 -6549.818)" fill="#8c757e"/>
          </g>
          <g id="Grupo_55120" data-name="Grupo 55120" transform="translate(438.076 26.469)">
            <path id="Trazado_104151" data-name="Trazado 104151" d="M473.486,6550.676h-.019l-1.061.574-.159-.629,1.333-.715h.7v6.1h-.8Z" transform="translate(-472.247 -6549.803)" fill="#8c757e"/>
            <path id="Trazado_104152" data-name="Trazado 104152" d="M477.83,6556.13c-1.193,0-2.009-1.119-2.029-3.138,0-2.056.893-3.174,2.132-3.174,1.278,0,2.019,1.146,2.019,3.09,0,2.076-.779,3.222-2.113,3.222Zm.047-.639c.835,0,1.24-.986,1.24-2.545,0-1.5-.377-2.489-1.24-2.489-.752,0-1.24.959-1.24,2.489-.018,1.587.471,2.545,1.231,2.545Z" transform="translate(-471.619 -6549.818)" fill="#8c757e"/>
          </g>
        </g>
      </g>
    </g>
    <rect id="Rect치ngulo_5287" data-name="Rect치ngulo 5287" width="454.803" height="63.365" transform="translate(101.139 6599.428)" fill="#f7f1d7"/>
    <g id="Grupo_55124" data-name="Grupo 55124" transform="translate(110.527 6599.429)">
      <path id="Trazado_104153" data-name="Trazado 104153" d="M110.317,6623.458c-.761,0-1.379-.3-1.379-.671v-33.515c0-.369.618-.669,1.379-.669s1.378.3,1.378.669v33.515C111.695,6623.159,111.078,6623.458,110.317,6623.458Z" transform="translate(-108.938 -6588.604)" fill="#8c757e"/>
    </g>
    <g id="Grupo_55125" data-name="Grupo 55125" transform="translate(219.059 6599.429)">
      <path id="Trazado_104154" data-name="Trazado 104154" d="M202.554,6623.458c-.761,0-1.379-.3-1.379-.671v-33.515c0-.369.618-.669,1.379-.669s1.378.3,1.378.669v33.515C203.932,6623.159,203.315,6623.458,202.554,6623.458Z" transform="translate(-201.175 -6588.604)" fill="#8c757e"/>
    </g>
    <g id="Grupo_55126" data-name="Grupo 55126" transform="translate(328.541 6599.429)">
      <path id="Trazado_104155" data-name="Trazado 104155" d="M295.6,6623.458c-.76,0-1.378-.3-1.378-.671v-33.515c0-.369.618-.669,1.378-.669s1.379.3,1.379.669v33.515C296.977,6623.159,296.359,6623.458,295.6,6623.458Z" transform="translate(-294.22 -6588.604)" fill="#8c757e"/>
    </g>
    <g id="Grupo_55127" data-name="Grupo 55127" transform="translate(165.138 6599.596)">
      <path id="Trazado_104156" data-name="Trazado 104156" d="M156.383,6610.063c-.571,0-1.033-.2-1.033-.437v-20.443c0-.242.462-.438,1.033-.438s1.034.2,1.034.438v20.443C157.417,6609.868,156.954,6610.063,156.383,6610.063Z" transform="translate(-155.35 -6588.745)" fill="#8c757e"/>
    </g>
    <g id="Grupo_55128" data-name="Grupo 55128" transform="translate(154.801 6599.848)">
      <path id="Trazado_104157" data-name="Trazado 104157" d="M147.083,6605.968c-.286,0-.518-.138-.518-.307v-16.394c0-.169.232-.308.518-.308s.517.138.517.308v16.394C147.6,6605.83,147.367,6605.968,147.083,6605.968Z" transform="translate(-146.565 -6588.959)" fill="#8c757e"/>
    </g>
    <g id="Grupo_55129" data-name="Grupo 55129" transform="translate(143.949 6599.848)">
      <path id="Trazado_104158" data-name="Trazado 104158" d="M137.859,6605.968c-.286,0-.517-.138-.517-.307v-16.394c0-.169.231-.308.517-.308s.517.138.517.308v16.394C138.375,6605.83,138.143,6605.968,137.859,6605.968Z" transform="translate(-137.342 -6588.959)" fill="#8c757e"/>
    </g>
    <g id="Grupo_55130" data-name="Grupo 55130" transform="translate(133.095 6599.848)">
      <path id="Trazado_104159" data-name="Trazado 104159" d="M128.635,6605.968c-.285,0-.517-.138-.517-.307v-16.394c0-.169.232-.308.517-.308s.517.138.517.308v16.394C129.151,6605.83,128.92,6605.968,128.635,6605.968Z" transform="translate(-128.118 -6588.959)" fill="#8c757e"/>
    </g>
    <g id="Grupo_55131" data-name="Grupo 55131" transform="translate(122.242 6599.848)">
      <path id="Trazado_104160" data-name="Trazado 104160" d="M119.411,6605.968c-.285,0-.517-.138-.517-.307v-16.394c0-.169.232-.308.517-.308s.518.138.518.308v16.394C119.928,6605.83,119.7,6605.968,119.411,6605.968Z" transform="translate(-118.894 -6588.959)" fill="#8c757e"/>
    </g>
    <g id="Grupo_55132" data-name="Grupo 55132" transform="translate(209.068 6599.848)">
      <path id="Trazado_104161" data-name="Trazado 104161" d="M193.2,6605.968c-.285,0-.517-.138-.517-.307v-16.394c0-.169.232-.308.517-.308s.517.138.517.308v16.394C193.717,6605.83,193.486,6605.968,193.2,6605.968Z" transform="translate(-192.684 -6588.959)" fill="#8c757e"/>
    </g>
    <g id="Grupo_55133" data-name="Grupo 55133" transform="translate(198.214 6599.848)">
      <path id="Trazado_104162" data-name="Trazado 104162" d="M183.977,6605.968c-.285,0-.517-.138-.517-.307v-16.394c0-.169.232-.308.517-.308s.518.138.518.308v16.394C184.494,6605.83,184.262,6605.968,183.977,6605.968Z" transform="translate(-183.46 -6588.959)" fill="#8c757e"/>
    </g>
    <g id="Grupo_55134" data-name="Grupo 55134" transform="translate(187.361 6599.848)">
      <path id="Trazado_104163" data-name="Trazado 104163" d="M174.754,6605.968c-.286,0-.518-.138-.518-.307v-16.394c0-.169.232-.308.518-.308s.517.138.517.308v16.394C175.27,6605.83,175.038,6605.968,174.754,6605.968Z" transform="translate(-174.236 -6588.959)" fill="#8c757e"/>
    </g>
    <g id="Grupo_55135" data-name="Grupo 55135" transform="translate(176.508 6599.848)">
      <path id="Trazado_104164" data-name="Trazado 104164" d="M165.53,6605.968c-.286,0-.517-.138-.517-.307v-16.394c0-.169.231-.308.517-.308s.517.138.517.308v16.394C166.046,6605.83,165.816,6605.968,165.53,6605.968Z" transform="translate(-165.013 -6588.959)" fill="#8c757e"/>
    </g>
    <g id="Grupo_55136" data-name="Grupo 55136" transform="translate(274.232 6599.596)">
      <path id="Trazado_104165" data-name="Trazado 104165" d="M249.1,6610.063c-.573,0-1.039-.2-1.039-.437v-20.443c0-.242.466-.438,1.039-.438s1.039.2,1.039.438v20.443C250.143,6609.868,249.677,6610.063,249.1,6610.063Z" transform="translate(-248.065 -6588.745)" fill="#8c757e"/>
    </g>
    <g id="Grupo_55137" data-name="Grupo 55137" transform="translate(263.846 6599.848)">
      <path id="Trazado_104166" data-name="Trazado 104166" d="M239.758,6605.968c-.287,0-.52-.138-.52-.307v-16.394c0-.169.233-.308.52-.308s.519.138.519.308v16.394C240.277,6605.83,240.044,6605.968,239.758,6605.968Z" transform="translate(-239.238 -6588.959)" fill="#8c757e"/>
    </g>
    <g id="Grupo_55138" data-name="Grupo 55138" transform="translate(252.941 6599.848)">
      <path id="Trazado_104167" data-name="Trazado 104167" d="M230.489,6605.968c-.286,0-.519-.138-.519-.307v-16.394c0-.169.233-.308.519-.308s.52.138.52.308v16.394C231.009,6605.83,230.776,6605.968,230.489,6605.968Z" transform="translate(-229.97 -6588.959)" fill="#8c757e"/>
    </g>
    <g id="Grupo_55139" data-name="Grupo 55139" transform="translate(242.034 6599.848)">
      <path id="Trazado_104168" data-name="Trazado 104168" d="M221.221,6605.968c-.287,0-.52-.138-.52-.307v-16.394c0-.169.233-.308.52-.308s.519.138.519.308v16.394C221.74,6605.83,221.507,6605.968,221.221,6605.968Z" transform="translate(-220.701 -6588.959)" fill="#8c757e"/>
    </g>
    <g id="Grupo_55140" data-name="Grupo 55140" transform="translate(231.129 6599.848)">
      <path id="Trazado_104169" data-name="Trazado 104169" d="M211.952,6605.968c-.286,0-.519-.138-.519-.307v-16.394c0-.169.233-.308.519-.308s.52.138.52.308v16.394C212.472,6605.83,212.239,6605.968,211.952,6605.968Z" transform="translate(-211.433 -6588.959)" fill="#8c757e"/>
    </g>
    <g id="Grupo_55141" data-name="Grupo 55141" transform="translate(318.375 6599.848)">
      <path id="Trazado_104170" data-name="Trazado 104170" d="M286.1,6605.968c-.286,0-.519-.138-.519-.307v-16.394c0-.169.233-.308.519-.308s.52.138.52.308v16.394C286.619,6605.83,286.386,6605.968,286.1,6605.968Z" transform="translate(-285.58 -6588.959)" fill="#8c757e"/>
    </g>
    <g id="Grupo_55142" data-name="Grupo 55142" transform="translate(307.469 6599.848)">
      <path id="Trazado_104171" data-name="Trazado 104171" d="M276.831,6605.968c-.287,0-.519-.138-.519-.307v-16.394c0-.169.232-.308.519-.308s.52.138.52.308v16.394C277.351,6605.83,277.118,6605.968,276.831,6605.968Z" transform="translate(-276.312 -6588.959)" fill="#8c757e"/>
    </g>
    <g id="Grupo_55143" data-name="Grupo 55143" transform="translate(296.563 6599.848)">
      <path id="Trazado_104172" data-name="Trazado 104172" d="M267.563,6605.968c-.287,0-.52-.138-.52-.307v-16.394c0-.169.233-.308.52-.308s.519.138.519.308v16.394C268.082,6605.83,267.849,6605.968,267.563,6605.968Z" transform="translate(-267.043 -6588.959)" fill="#8c757e"/>
    </g>
    <g id="Grupo_55144" data-name="Grupo 55144" transform="translate(285.658 6599.848)">
      <path id="Trazado_104173" data-name="Trazado 104173" d="M258.294,6605.968c-.286,0-.519-.138-.519-.307v-16.394c0-.169.233-.308.519-.308s.52.138.52.308v16.394C258.814,6605.83,258.581,6605.968,258.294,6605.968Z" transform="translate(-257.775 -6588.959)" fill="#8c757e"/>
    </g>
    <g id="Grupo_55145" data-name="Grupo 55145" transform="translate(437.613 6599.429)">
      <path id="Trazado_104174" data-name="Trazado 104174" d="M388.294,6623.458c-.76,0-1.378-.3-1.378-.671v-33.515c0-.369.618-.669,1.378-.669s1.379.3,1.379.669v33.515C389.673,6623.159,389.055,6623.458,388.294,6623.458Z" transform="translate(-386.916 -6588.604)" fill="#8c757e"/>
    </g>
    <g id="Grupo_55146" data-name="Grupo 55146" transform="translate(383.304 6599.596)">
      <path id="Trazado_104175" data-name="Trazado 104175" d="M341.8,6610.063c-.573,0-1.039-.2-1.039-.437v-20.443c0-.242.466-.438,1.039-.438s1.039.2,1.039.438v20.443C342.839,6609.868,342.373,6610.063,341.8,6610.063Z" transform="translate(-340.761 -6588.745)" fill="#8c757e"/>
    </g>
    <g id="Grupo_55147" data-name="Grupo 55147" transform="translate(372.917 6599.848)">
      <path id="Trazado_104176" data-name="Trazado 104176" d="M332.454,6605.968c-.287,0-.52-.138-.52-.307v-16.394c0-.169.233-.308.52-.308s.519.138.519.308v16.394C332.973,6605.83,332.74,6605.968,332.454,6605.968Z" transform="translate(-331.934 -6588.959)" fill="#8c757e"/>
    </g>
    <g id="Grupo_55148" data-name="Grupo 55148" transform="translate(362.012 6599.848)">
      <path id="Trazado_104177" data-name="Trazado 104177" d="M323.185,6605.968c-.286,0-.519-.138-.519-.307v-16.394c0-.169.233-.308.519-.308s.52.138.52.308v16.394C323.705,6605.83,323.472,6605.968,323.185,6605.968Z" transform="translate(-322.666 -6588.959)" fill="#8c757e"/>
    </g>
    <g id="Grupo_55149" data-name="Grupo 55149" transform="translate(351.107 6599.848)">
      <path id="Trazado_104178" data-name="Trazado 104178" d="M313.917,6605.968c-.287,0-.519-.138-.519-.307v-16.394c0-.169.232-.308.519-.308s.519.138.519.308v16.394C314.436,6605.83,314.2,6605.968,313.917,6605.968Z" transform="translate(-313.398 -6588.959)" fill="#8c757e"/>
    </g>
    <g id="Grupo_55150" data-name="Grupo 55150" transform="translate(340.2 6599.848)">
      <path id="Trazado_104179" data-name="Trazado 104179" d="M304.648,6605.968c-.286,0-.519-.138-.519-.307v-16.394c0-.169.233-.308.519-.308s.52.138.52.308v16.394C305.168,6605.83,304.935,6605.968,304.648,6605.968Z" transform="translate(-304.129 -6588.959)" fill="#8c757e"/>
    </g>
    <g id="Grupo_55151" data-name="Grupo 55151" transform="translate(427.446 6599.848)">
      <path id="Trazado_104180" data-name="Trazado 104180" d="M378.8,6605.968c-.287,0-.52-.138-.52-.307v-16.394c0-.169.233-.308.52-.308s.519.138.519.308v16.394C379.315,6605.83,379.082,6605.968,378.8,6605.968Z" transform="translate(-378.276 -6588.959)" fill="#8c757e"/>
    </g>
    <g id="Grupo_55152" data-name="Grupo 55152" transform="translate(416.541 6599.848)">
      <path id="Trazado_104181" data-name="Trazado 104181" d="M369.527,6605.968c-.286,0-.519-.138-.519-.307v-16.394c0-.169.233-.308.519-.308s.52.138.52.308v16.394C370.047,6605.83,369.814,6605.968,369.527,6605.968Z" transform="translate(-369.008 -6588.959)" fill="#8c757e"/>
    </g>
    <g id="Grupo_55153" data-name="Grupo 55153" transform="translate(405.634 6599.848)">
      <path id="Trazado_104182" data-name="Trazado 104182" d="M360.259,6605.968c-.287,0-.52-.138-.52-.307v-16.394c0-.169.233-.308.52-.308s.519.138.519.308v16.394C360.778,6605.83,360.546,6605.968,360.259,6605.968Z" transform="translate(-359.739 -6588.959)" fill="#8c757e"/>
    </g>
    <g id="Grupo_55154" data-name="Grupo 55154" transform="translate(394.729 6599.848)">
      <path id="Trazado_104183" data-name="Trazado 104183" d="M350.99,6605.968c-.286,0-.519-.138-.519-.307v-16.394c0-.169.233-.308.519-.308s.52.138.52.308v16.394C351.51,6605.83,351.277,6605.968,350.99,6605.968Z" transform="translate(-350.471 -6588.959)" fill="#8c757e"/>
    </g>
    <g id="Grupo_55155" data-name="Grupo 55155" transform="translate(547.734 6599.429)">
      <path id="Trazado_104184" data-name="Trazado 104184" d="M481.882,6623.458c-.76,0-1.378-.3-1.378-.671v-33.515c0-.369.618-.669,1.378-.669s1.379.3,1.379.669v33.515C483.261,6623.159,482.643,6623.458,481.882,6623.458Z" transform="translate(-480.504 -6588.604)" fill="#8c757e"/>
    </g>
    <g id="Grupo_55156" data-name="Grupo 55156" transform="translate(493.425 6599.596)">
      <path id="Trazado_104185" data-name="Trazado 104185" d="M435.388,6610.063c-.573,0-1.039-.2-1.039-.437v-20.443c0-.242.466-.438,1.039-.438s1.039.2,1.039.438v20.443C436.427,6609.868,435.961,6610.063,435.388,6610.063Z" transform="translate(-434.349 -6588.745)" fill="#8c757e"/>
    </g>
    <g id="Grupo_55157" data-name="Grupo 55157" transform="translate(483.039 6599.848)">
      <path id="Trazado_104186" data-name="Trazado 104186" d="M426.042,6605.968c-.287,0-.52-.138-.52-.307v-16.394c0-.169.233-.308.52-.308s.519.138.519.308v16.394C426.561,6605.83,426.328,6605.968,426.042,6605.968Z" transform="translate(-425.522 -6588.959)" fill="#8c757e"/>
    </g>
    <g id="Grupo_55158" data-name="Grupo 55158" transform="translate(472.133 6599.848)">
      <path id="Trazado_104187" data-name="Trazado 104187" d="M416.773,6605.968c-.286,0-.519-.138-.519-.307v-16.394c0-.169.233-.308.519-.308s.52.138.52.308v16.394C417.293,6605.83,417.06,6605.968,416.773,6605.968Z" transform="translate(-416.254 -6588.959)" fill="#8c757e"/>
    </g>
    <g id="Grupo_55159" data-name="Grupo 55159" transform="translate(461.228 6599.848)">
      <path id="Trazado_104188" data-name="Trazado 104188" d="M407.5,6605.968c-.287,0-.519-.138-.519-.307v-16.394c0-.169.232-.308.519-.308s.519.138.519.308v16.394C408.024,6605.83,407.792,6605.968,407.5,6605.968Z" transform="translate(-406.986 -6588.959)" fill="#8c757e"/>
    </g>
    <g id="Grupo_55160" data-name="Grupo 55160" transform="translate(450.322 6599.848)">
      <path id="Trazado_104189" data-name="Trazado 104189" d="M398.236,6605.968c-.286,0-.519-.138-.519-.307v-16.394c0-.169.233-.308.519-.308s.52.138.52.308v16.394C398.756,6605.83,398.523,6605.968,398.236,6605.968Z" transform="translate(-397.717 -6588.959)" fill="#8c757e"/>
    </g>
    <g id="Grupo_55161" data-name="Grupo 55161" transform="translate(537.567 6599.848)">
      <path id="Trazado_104190" data-name="Trazado 104190" d="M472.384,6605.968c-.287,0-.52-.138-.52-.307v-16.394c0-.169.233-.308.52-.308s.519.138.519.308v16.394C472.9,6605.83,472.67,6605.968,472.384,6605.968Z" transform="translate(-471.864 -6588.959)" fill="#8c757e"/>
    </g>
    <g id="Grupo_55162" data-name="Grupo 55162" transform="translate(526.662 6599.848)">
      <path id="Trazado_104191" data-name="Trazado 104191" d="M463.115,6605.968c-.286,0-.519-.138-.519-.307v-16.394c0-.169.233-.308.519-.308s.52.138.52.308v16.394C463.635,6605.83,463.4,6605.968,463.115,6605.968Z" transform="translate(-462.596 -6588.959)" fill="#8c757e"/>
    </g>
    <g id="Grupo_55163" data-name="Grupo 55163" transform="translate(515.756 6599.848)">
      <path id="Trazado_104192" data-name="Trazado 104192" d="M453.847,6605.968c-.287,0-.52-.138-.52-.307v-16.394c0-.169.233-.308.52-.308s.519.138.519.308v16.394C454.366,6605.83,454.134,6605.968,453.847,6605.968Z" transform="translate(-453.327 -6588.959)" fill="#8c757e"/>
    </g>
    <g id="Grupo_55164" data-name="Grupo 55164" transform="translate(504.85 6599.848)">
      <path id="Trazado_104193" data-name="Trazado 104193" d="M444.579,6605.968c-.287,0-.52-.138-.52-.307v-16.394c0-.169.233-.308.52-.308s.519.138.519.308v16.394C445.1,6605.83,444.865,6605.968,444.579,6605.968Z" transform="translate(-444.059 -6588.959)" fill="#8c757e"/>
    </g>
    <g id="Grupo_55165" data-name="Grupo 55165" transform="translate(107.764 6638.228)">
      <path id="Trazado_104194" data-name="Trazado 104194" d="M110.251,6632.967c-2.152,0-3.626-2.017-3.661-5.661,0-3.711,1.61-5.729,3.847-5.729,2.305,0,3.645,2.068,3.645,5.576,0,3.747-1.408,5.814-3.815,5.814Zm.085-1.153c1.507,0,2.237-1.779,2.237-4.592,0-2.712-.678-4.491-2.237-4.491-1.356,0-2.237,1.729-2.237,4.491-.035,2.864.846,4.592,2.219,4.592Z" transform="translate(-106.59 -6621.578)" fill="#8c757e"/>
    </g>
    <g id="Grupo_55166" data-name="Grupo 55166" transform="translate(217.09 6638.414)">
      <path id="Trazado_104195" data-name="Trazado 104195" d="M201.738,6623.126H201.7l-1.914,1.034-.287-1.135,2.406-1.29h1.271v11.019h-1.441Z" transform="translate(-199.502 -6621.735)" fill="#8c757e"/>
    </g>
    <g id="Grupo_55167" data-name="Grupo 55167" transform="translate(157.082 6625.03)">
      <path id="Trazado_104196" data-name="Trazado 104196" d="M150.74,6612.256h-.034l-1.914,1.034-.288-1.136,2.407-1.289h1.271v11.018H150.74Z" transform="translate(-148.503 -6610.272)" fill="#8c757e"/>
      <path id="Trazado_104197" data-name="Trazado 104197" d="M154.38,6622.65l4.711-12.289h1.171l-4.747,12.289Z" transform="translate(-147.465 -6610.361)" fill="#8c757e"/>
      <path id="Trazado_104198" data-name="Trazado 104198" d="M159.983,6621.911V6621l1.168-1.137c2.815-2.677,4.1-4.1,4.1-5.762a1.953,1.953,0,0,0-2.17-2.152,3.754,3.754,0,0,0-2.339.932l-.474-1.05a4.889,4.889,0,0,1,3.119-1.119,3.094,3.094,0,0,1,3.355,3.2c0,2.033-1.474,3.678-3.8,5.915l-.865.813v.034h4.933v1.237Z" transform="translate(-146.475 -6610.3)" fill="#8c757e"/>
    </g>
    <g id="Grupo_55168" data-name="Grupo 55168" transform="translate(325.722 6638.228)">
      <path id="Trazado_104199" data-name="Trazado 104199" d="M291.824,6632.782v-.916l1.168-1.136c2.815-2.677,4.1-4.1,4.1-5.762a1.952,1.952,0,0,0-2.169-2.152,3.757,3.757,0,0,0-2.34.932l-.473-1.051a4.888,4.888,0,0,1,3.118-1.119,3.1,3.1,0,0,1,3.356,3.2c0,2.033-1.474,3.678-3.8,5.916l-.864.813v.034h4.931v1.238Z" transform="translate(-291.824 -6621.578)" fill="#8c757e"/>
    </g>
    <g id="Grupo_55169" data-name="Grupo 55169" transform="translate(266.712 6625.03)">
      <path id="Trazado_104200" data-name="Trazado 104200" d="M243.912,6612.256h-.034l-1.914,1.034-.289-1.136,2.407-1.289h1.271v11.018h-1.44Z" transform="translate(-241.674 -6610.272)" fill="#8c757e"/>
      <path id="Trazado_104201" data-name="Trazado 104201" d="M247.551,6622.65l4.713-12.289h1.17l-4.745,12.289Z" transform="translate(-240.636 -6610.361)" fill="#8c757e"/>
      <path id="Trazado_104202" data-name="Trazado 104202" d="M253.155,6621.911V6621l1.168-1.137c2.815-2.677,4.1-4.1,4.1-5.762a1.952,1.952,0,0,0-2.169-2.152,3.76,3.76,0,0,0-2.34.932l-.473-1.05a4.885,4.885,0,0,1,3.118-1.119,3.1,3.1,0,0,1,3.356,3.2c0,2.033-1.474,3.678-3.8,5.915l-.864.813v.034h4.931v1.237Z" transform="translate(-239.646 -6610.3)" fill="#8c757e"/>
    </g>
    <g id="Grupo_55170" data-name="Grupo 55170" transform="translate(434.187 6638.228)">
      <path id="Trazado_104203" data-name="Trazado 104203" d="M384.411,6631.086a5.143,5.143,0,0,0,2.44.678c1.9,0,2.51-1.2,2.493-2.136-.018-1.542-1.408-2.2-2.848-2.2h-.831v-1.118h.831c1.085,0,2.458-.56,2.458-1.865,0-.881-.56-1.662-1.933-1.662a4.052,4.052,0,0,0-2.2.729l-.407-1.085a5.346,5.346,0,0,1,2.9-.848c2.17,0,3.152,1.288,3.152,2.626a2.759,2.759,0,0,1-2.034,2.611v.034a2.84,2.84,0,0,1,2.458,2.814c0,1.762-1.388,3.3-4.017,3.3a5.588,5.588,0,0,1-2.864-.746Z" transform="translate(-384.005 -6621.578)" fill="#8c757e"/>
    </g>
    <g id="Grupo_55171" data-name="Grupo 55171" transform="translate(375.23 6625.03)">
      <path id="Trazado_104204" data-name="Trazado 104204" d="M336.136,6612.256H336.1l-1.914,1.034-.288-1.136,2.407-1.289h1.271v11.018h-1.441Z" transform="translate(-333.899 -6610.272)" fill="#8c757e"/>
      <path id="Trazado_104205" data-name="Trazado 104205" d="M339.776,6622.65l4.713-12.289h1.17l-4.745,12.289Z" transform="translate(-332.861 -6610.361)" fill="#8c757e"/>
      <path id="Trazado_104206" data-name="Trazado 104206" d="M345.38,6621.911V6621l1.168-1.137c2.813-2.677,4.1-4.1,4.1-5.762a1.953,1.953,0,0,0-2.17-2.152,3.759,3.759,0,0,0-2.339.932l-.473-1.05a4.883,4.883,0,0,1,3.118-1.119,3.1,3.1,0,0,1,3.356,3.2c0,2.033-1.474,3.678-3.8,5.915l-.864.813v.034h4.931v1.237Z" transform="translate(-331.871 -6610.3)" fill="#8c757e"/>
    </g>
    <g id="Grupo_55172" data-name="Grupo 55172" transform="translate(545.806 6638.414)">
      <path id="Trazado_104207" data-name="Trazado 104207" d="M483.984,6632.754v-3.018h-5.118v-.965l4.916-7.035h1.61v6.85h1.541v1.151h-1.541v3.018Zm0-4.169v-3.678c0-.578.018-1.153.051-1.73h-.051c-.339.645-.609,1.119-.915,1.627l-2.695,3.746v.036Z" transform="translate(-478.866 -6621.735)" fill="#8c757e"/>
    </g>
    <g id="Grupo_55173" data-name="Grupo 55173" transform="translate(487.306 6625.03)">
      <path id="Trazado_104208" data-name="Trazado 104208" d="M431.386,6612.256h-.034l-1.914,1.034-.288-1.136,2.407-1.289h1.271v11.018h-1.441Z" transform="translate(-429.149 -6610.272)" fill="#8c757e"/>
      <path id="Trazado_104209" data-name="Trazado 104209" d="M435.026,6622.65l4.713-12.289h1.17l-4.745,12.289Z" transform="translate(-428.111 -6610.361)" fill="#8c757e"/>
      <path id="Trazado_104210" data-name="Trazado 104210" d="M440.63,6621.911V6621l1.168-1.137c2.813-2.677,4.1-4.1,4.1-5.762a1.953,1.953,0,0,0-2.17-2.152,3.759,3.759,0,0,0-2.339.932l-.473-1.05a4.883,4.883,0,0,1,3.118-1.119,3.1,3.1,0,0,1,3.356,3.2c0,2.033-1.474,3.678-3.8,5.915l-.864.813v.034h4.931v1.237Z" transform="translate(-427.121 -6610.3)" fill="#8c757e"/>
    </g>
  </g>
</svg>
