<svg xmlns="http://www.w3.org/2000/svg" width="89.023" height="98.56" viewBox="0 0 89.023 98.56">
  <g id="Grupo_56459" data-name="Grupo 56459" transform="translate(-520.538 -3570.688)">
    <path id="Trazado_124939" data-name="Trazado 124939" d="M575.994,3649.619a15.806,15.806,0,0,0,12.717,0v7.424c-1.939.175-4.1.271-6.359.271s-4.419-.1-6.358-.271v-7.424Z" transform="translate(-17.303 -24.628)" fill="#ffcebd"/>
    <path id="Trazado_124940" data-name="Trazado 124940" d="M588.711,3649.619v7.424c-.525.048-1.049.1-1.606.112-1.018.079-2.067.127-3.163.143v-.35a2.809,2.809,0,0,0-2.814-2.813h-5.134v-4.515a15.806,15.806,0,0,0,12.717,0Z" transform="translate(-17.303 -24.628)" fill="#f9a99b"/>
    <path id="Trazado_124941" data-name="Trazado 124941" d="M593.924,3610.5v7.948a15.9,15.9,0,0,1-31.794,0V3605.73h3.179l4.817-1.447a21.055,21.055,0,0,0,11.08-7.9,9.549,9.549,0,0,0,9.538,9.348h3.18Z" transform="translate(-12.977 -8.017)" fill="#ffcebd"/>
    <path id="Trazado_124942" data-name="Trazado 124942" d="M593.924,3605.73v12.717a15.825,15.825,0,0,1-4.769,11.334v-18.011a3.164,3.164,0,0,0-2.605-3.119,34.33,34.33,0,0,1-7.011-2.23,3.2,3.2,0,0,0-2.833.186c-3.441,1.922-8.972,2.737-14.576,3v-3.879h3.179l4.817-1.447a21.055,21.055,0,0,0,11.08-7.9,9.549,9.549,0,0,0,9.538,9.348Z" transform="translate(-12.977 -8.017)" fill="#f9a99b"/>
    <path id="Trazado_124943" data-name="Trazado 124943" d="M578.322,3588.365a21.054,21.054,0,0,1-11.08,7.9l-4.817,1.447h-9.538v-6.089a20.944,20.944,0,0,1,20.936-20.936,3.189,3.189,0,0,1,2.257.938l2.241,2.241a19.051,19.051,0,0,1,19.076,19.077v4.769H587.86a9.549,9.549,0,0,1-9.538-9.348Z" transform="translate(-10.093)" fill="#a67c52"/>
    <g id="Grupo_56454" data-name="Grupo 56454" transform="translate(542.794 3575.457)">
      <path id="Trazado_124944" data-name="Trazado 124944" d="M597.4,3598.631v4.769H587.86a9.549,9.549,0,0,1-9.538-9.348,21.054,21.054,0,0,1-11.08,7.9l-4.817,1.447h-9.538v-6.152a10.179,10.179,0,0,0,4.769-4.976s1.59,7.949,6.359,1.59,7.948-4.769,7.948-4.769-3.179,7.948,1.59,3.179,9.538,3.18,12.717,0c0,0-3.18,7.949,1.589,4.769,2.957-1.971,6.534-.89,9.189-2.05A19.65,19.65,0,0,1,597.4,3598.631Z" transform="translate(-552.887 -3581.145)" fill="#8c6239"/>
      <path id="Trazado_124945" data-name="Trazado 124945" d="M563.86,3582.389s3.18-4.769,6.359-4.769,3.179,3.179-1.59,4.769S560.68,3587.158,563.86,3582.389Z" transform="translate(-555.911 -3577.62)" fill="#c69c6d"/>
    </g>
    <path id="Trazado_124946" data-name="Trazado 124946" d="M559.246,3616.9v7.949h-2.385a3.974,3.974,0,0,1,0-7.949Z" transform="translate(-10.093 -14.419)" fill="#ffcebd"/>
    <path id="Trazado_124947" data-name="Trazado 124947" d="M613.112,3617.7a3.972,3.972,0,0,1-2.385,7.154h-2.385V3616.9h2.385A3.981,3.981,0,0,1,613.112,3617.7Z" transform="translate(-27.396 -14.419)" fill="#ffcebd"/>
    <path id="Trazado_124948" data-name="Trazado 124948" d="M610.728,3614.738h-2.385v-4.769h4.769v5.563A3.984,3.984,0,0,0,610.728,3614.738Z" transform="translate(-27.396 -12.256)" fill="#a67c52"/>
    <path id="Trazado_124949" data-name="Trazado 124949" d="M557.583,3614.738a3.982,3.982,0,0,0-2.385.794v-5.563h4.769v4.769Z" transform="translate(-10.814 -12.256)" fill="#a67c52"/>
    <path id="Trazado_124950" data-name="Trazado 124950" d="M562.13,3656.182c0,1.3,3.926,2.417,9.538,2.909,1.939.175,4.1.271,6.358.271s4.42-.1,6.359-.271c5.611-.492,9.538-1.606,9.538-2.909v11.128a41.334,41.334,0,0,1-31.794,0Z" transform="translate(-12.977 -26.675)" fill="#949494"/>
    <path id="Trazado_124951" data-name="Trazado 124951" d="M571.668,3651.953v5.818c-5.612-.492-9.538-1.606-9.538-2.909s3.926-2.417,9.538-2.909Z" transform="translate(-12.977 -25.356)" fill="#6f6f6f"/>
    <path id="Trazado_124952" data-name="Trazado 124952" d="M594.479,3651.953c5.611.493,9.538,1.606,9.538,2.909s-3.927,2.417-9.538,2.909Z" transform="translate(-23.071 -25.356)" fill="#6f6f6f"/>
    <path id="Trazado_124953" data-name="Trazado 124953" d="M528.487,3679.288l6.358,20.666-.159,3.179H520.538v-4.768C520.538,3687.236,528.487,3679.288,528.487,3679.288Z" transform="translate(0 -33.885)" fill="#f8f4e8"/>
    <path id="Trazado_124954" data-name="Trazado 124954" d="M601.67,3702.837l.159,3.179H541.1l.159-3.179,7.948-14.307,6.359,14.307,7.948-14.307,7.948,14.307,7.948-14.307,7.949,14.307,6.358-14.307Z" transform="translate(-6.417 -36.768)" fill="#939f5c"/>
    <path id="Trazado_124955" data-name="Trazado 124955" d="M643.445,3698.365v4.768H629.3l-.159-3.179,6.359-20.666S643.445,3687.236,643.445,3698.365Z" transform="translate(-33.885 -33.885)" fill="#f8f4e8"/>
    <path id="Trazado_124956" data-name="Trazado 124956" d="M605.217,3675.684l-6.359,20.666-7.948-14.307-6.358,14.307-7.949-14.307-7.948,14.307-7.948-14.307-7.948,14.307-6.359-14.307-7.948,14.307-6.358-20.666,20.666-7.948v3.179a41.334,41.334,0,0,0,31.794,0v-3.179Z" transform="translate(-3.605 -30.28)" fill="#f8f4e8"/>
    <ellipse id="Elipse_4088" data-name="Elipse 4088" cx="1.59" cy="3.179" rx="1.59" ry="3.179" transform="translate(555.511 3600.892)" fill="#a67c52"/>
    <g id="Grupo_56457" data-name="Grupo 56457" transform="translate(561.076 3612.815)">
      <g id="Grupo_56456" data-name="Grupo 56456" transform="translate(0)">
        <g id="Grupo_56455" data-name="Grupo 56455">
          <path id="Trazado_124957" data-name="Trazado 124957" d="M580.255,3636.689a.795.795,0,0,1,0-1.59c2.883,0,7.154-.762,7.154-2.385a.795.795,0,1,1,1.589,0C589,3636.578,581.15,3636.689,580.255,3636.689Z" transform="translate(-579.46 -3631.92)" fill="#f9a99b"/>
        </g>
      </g>
    </g>
    <ellipse id="Elipse_4089" data-name="Elipse 4089" cx="1.59" cy="3.179" rx="1.59" ry="3.179" transform="translate(571.408 3600.892)" fill="#a67c52"/>
    <g id="Grupo_56458" data-name="Grupo 56458" transform="translate(525.895 3645.403)">
      <path id="Trazado_124958" data-name="Trazado 124958" d="M537.275,3699.954l-.159,3.179h-8.791a21.863,21.863,0,0,0,0-20.65,26.628,26.628,0,0,1,2.592-3.195Z" transform="translate(-528.325 -3679.288)" fill="#d6d4ce"/>
      <path id="Trazado_124959" data-name="Trazado 124959" d="M635.5,3692.8a20.337,20.337,0,0,0,2.591,10.333H629.3l-.159-3.179,6.359-20.666a26.591,26.591,0,0,1,2.591,3.195A20.282,20.282,0,0,0,635.5,3692.8Z" transform="translate(-559.78 -3679.288)" fill="#d6d4ce"/>
    </g>
  </g>
</svg>
