<svg xmlns="http://www.w3.org/2000/svg" width="25.425" height="48.931" viewBox="0 0 25.425 48.931">
  <g id="Grupo_54618" data-name="Grupo 54618" transform="translate(-48.837 -5835.642)">
    <g id="Grupo_54617" data-name="Grupo 54617" transform="translate(48.837 5835.642)">
      <path id="Trazado_103610" data-name="Trazado 103610" d="M71.84,5842.617a.253.253,0,0,0,0-.045v-5.329a1.6,1.6,0,0,0-1.6-1.6H52.855a1.6,1.6,0,0,0-1.6,1.6v5.329a.262.262,0,0,0,0,.045,6.888,6.888,0,0,0-.8.2,2.439,2.439,0,0,0-1.618,2.283v30.092a2.439,2.439,0,0,0,1.61,2.28,1.133,1.133,0,0,1,.808.983c0,1.5,0,4.522,0,4.522a1.6,1.6,0,0,0,1.6,1.6h17.39a1.6,1.6,0,0,0,1.6-1.6v-4.5a1.151,1.151,0,0,1,.808-.992,2.462,2.462,0,0,0,1.61-2.291V5845.1a2.439,2.439,0,0,0-1.618-2.283A6.978,6.978,0,0,0,71.84,5842.617Zm-3.668,33.357h-1.24c-.458,0-.6-.3-.344-.671a16.37,16.37,0,0,0,2.165-4.206c.137-.434.49-.732.828-.653a.933.933,0,0,1,.594.967,13.181,13.181,0,0,1-.855,3.8A1.316,1.316,0,0,1,68.172,5875.975ZM51.085,5849.54l4.755-4.651a2.338,2.338,0,0,1,1.419-.579h.468c.458,0,.611.3.333.664a45.934,45.934,0,0,1-6.926,7.107c-.351.292-.64.154-.64-.3v-.831A2.245,2.245,0,0,1,51.085,5849.54Zm21.522,2.1v.74a.518.518,0,0,1-.769.521,16.3,16.3,0,0,1-4.661-3.49,1.2,1.2,0,0,1-.156-1.328q.125-.226.248-.458a.539.539,0,0,1,.936-.118,17.066,17.066,0,0,0,3.678,2.9A1.585,1.585,0,0,1,72.607,5851.636Zm-22.114,9.08v-.663a1.61,1.61,0,0,1,.714-1.243,36.894,36.894,0,0,0,13.309-13.762,1.483,1.483,0,0,1,1.2-.739h.5a.491.491,0,0,1,.483.753,33.818,33.818,0,0,1-15.457,16.133A.486.486,0,0,1,50.493,5860.716Zm22.114-.522v.768a.646.646,0,0,1-.811.664,22.536,22.536,0,0,1-9.893-5.184.823.823,0,0,1-.036-1.168c.244-.267.487-.539.731-.82a.76.76,0,0,1,1.121-.049,21.06,21.06,0,0,0,8.094,4.73A1.185,1.185,0,0,1,72.607,5860.194Zm-11.892-2.581a23.853,23.853,0,0,0,11.078,5.7,1.041,1.041,0,0,1,.813.978v.572a.681.681,0,0,1-.817.7,25.566,25.566,0,0,1-13.042-6.229.729.729,0,0,1,.045-1.107q.355-.3.714-.627A.907.907,0,0,1,60.715,5857.613Zm-9.565-3.41a46.726,46.726,0,0,0,8.946-9.211,1.778,1.778,0,0,1,1.3-.682h.813c.458,0,.657.328.432.728a35.834,35.834,0,0,1-11.449,11.818c-.383.25-.7.072-.7-.385v-.937A1.912,1.912,0,0,1,51.151,5854.2Zm.107,8.826c.42-.185.925-.422,1.5-.719a.991.991,0,0,1,1.21.281c.111.141.233.29.37.445a.724.724,0,0,1-.092,1.1,20.232,20.232,0,0,1-2.993,1.636.5.5,0,0,1-.759-.5v-1.1A1.359,1.359,0,0,1,51.258,5863.029Zm0,4.547a21.9,21.9,0,0,0,4.249-2.316,1.142,1.142,0,0,1,1.3-.024c.074.053.148.107.224.158a.666.666,0,0,1,.11,1.055,16.057,16.057,0,0,1-5.861,3.606.566.566,0,0,1-.788-.577v-.76A1.342,1.342,0,0,1,51.259,5867.576Zm.031,4.226a17.521,17.521,0,0,0,7.314-4.482,1.164,1.164,0,0,1,1.294-.221c.167.085.339.169.515.253a.663.663,0,0,1,.273,1.026c-2.495,3.265-7.022,5.368-9.419,6.305a.534.534,0,0,1-.775-.537v-1.3A1.172,1.172,0,0,1,51.291,5871.8Zm12.19-3.149.225.082a.681.681,0,0,1,.391,1,18.208,18.208,0,0,1-6.144,5.829,3.553,3.553,0,0,1-1.547.41H53.343c-.458,0-.484-.141-.065-.326,2.761-1.215,6.687-3.386,8.975-6.6A1.1,1.1,0,0,1,63.481,5868.652Zm-2.463,6.832a17.282,17.282,0,0,0,4.68-5.226.97.97,0,0,1,1.02-.55.757.757,0,0,1,.434.98,16.605,16.605,0,0,1-2.64,4.643,1.925,1.925,0,0,1-1.348.643H61.18C60.722,5875.975,60.655,5875.762,61.018,5875.484Zm-5.406-14.86c.18-.12.362-.242.546-.37a1.018,1.018,0,0,1,1.254.111,26.766,26.766,0,0,0,14.376,6.881.994.994,0,0,1,.819.949v.359a.656.656,0,0,1-.813.67c-10.6-2.118-14.824-5.626-16.381-7.49A.75.75,0,0,1,55.612,5860.624Zm9.047-8.786c.2-.285.4-.574.6-.87a.636.636,0,0,1,1.028-.094,16.493,16.493,0,0,0,5.53,3.807,1.241,1.241,0,0,1,.786,1.083v1.059a.564.564,0,0,1-.788.574,19.652,19.652,0,0,1-7.067-4.306A1,1,0,0,1,64.658,5851.838Zm7.948-3.758c0,.458-.318.637-.7.383a14.969,14.969,0,0,1-2.942-2.591,1.251,1.251,0,0,1-.317-1.1,1.168,1.168,0,0,1,1.022-.461h2.105a.808.808,0,0,1,.828.787v2.984Zm-18.924-10.837H69.418a.827.827,0,0,1,.828.828l0,3.674a.827.827,0,0,1-.828.827H53.683a.827.827,0,0,1-.828-.827v-3.674A.827.827,0,0,1,53.683,5837.243Zm-.446,7.066c.458,0,.563.26.236.579l-2.388,2.335c-.327.32-.592.209-.592-.249V5845.1a.808.808,0,0,1,.828-.787Zm-.381,37.836v-3.675a.827.827,0,0,1,.828-.827H69.418a.827.827,0,0,1,.828.827l0,3.675a.827.827,0,0,1-.828.828H53.683A.827.827,0,0,1,52.855,5882.146Zm18.436-6.171c-.27,0-.351-.344-.205-.777a14.6,14.6,0,0,0,.721-3.447c.036-.456.21-.794.42-.755s.381.438.381.9v3.3a.808.808,0,0,1-.828.787Z" transform="translate(-48.837 -5835.642)" fill="#ff9696"/>
    </g>
  </g>
</svg>
