<svg xmlns="http://www.w3.org/2000/svg" width="246.739" height="243.939" viewBox="0 0 246.739 243.939">
  <g id="Grupo_56466" data-name="Grupo 56466" transform="translate(-423.11 -1131.305)">
    <g id="Grupo_53780" data-name="Grupo 53780" transform="translate(423.11 1131.305)">
      <g id="Grupo_53777" data-name="Grupo 53777" transform="translate(9.032)">
        <path id="Trazado_100546" data-name="Trazado 100546" d="M526.609,855.619a1.046,1.046,0,0,1-1.01-.775,121.612,121.612,0,0,0-8.752-22.99,120.71,120.71,0,0,0-162.014-53.789c-26.992,13.537-46.961,35.095-57.749,62.342l-1.051,2.46a1.046,1.046,0,1,1-1.923-.822l1.04-2.433c10.969-27.708,31.287-49.645,58.744-63.416a122.8,122.8,0,0,1,164.821,54.721,123.724,123.724,0,0,1,8.9,23.387,1.044,1.044,0,0,1-1.011,1.316Z" transform="translate(-294.026 -763.103)" fill="#d4c99b"/>
      </g>
      <g id="Grupo_53778" data-name="Grupo 53778" transform="translate(77.156 124.823)">
        <path id="Trazado_100547" data-name="Trazado 100547" d="M410.564,1009.636q-.989,0-1.976-.012a1.047,1.047,0,0,1-1.034-1.059,1.024,1.024,0,0,1,1.058-1.033c.656.008,1.284.009,1.974.012,3.053,0,6.116-.086,9.1-.256a1.045,1.045,0,1,1,.119,2.088c-3.028.172-6.132.26-9.223.26Zm-13.1-.512-.082,0c-3.737-.291-7.49-.708-11.152-1.239a1.045,1.045,0,1,1,.3-2.069c3.617.524,7.323.936,11.014,1.223a1.046,1.046,0,0,1-.079,2.089Zm33.393-.788a1.045,1.045,0,0,1-.136-2.082c3.731-.495,7.4-1.136,10.9-1.908a1.046,1.046,0,0,1,.452,2.043c-3.56.785-7.287,1.437-11.075,1.939A1.109,1.109,0,0,1,430.853,1008.336Zm-55.451-2.427a1.032,1.032,0,0,1-.223-.024c-3.767-.823-7.426-1.778-10.875-2.838a1.046,1.046,0,0,1,.614-2c3.394,1.043,7,1.983,10.707,2.794a1.046,1.046,0,0,1-.223,2.068Zm77.2-2.422a1.046,1.046,0,0,1-.326-2.04,91.554,91.554,0,0,0,10.255-4.044,1.046,1.046,0,0,1,.889,1.894,93.665,93.665,0,0,1-10.491,4.137A1.035,1.035,0,0,1,452.6,1003.487Zm20.2-9.351a1.046,1.046,0,0,1-.536-1.944c3.16-1.884,6.266-3.932,9.229-6.089a1.046,1.046,0,1,1,1.231,1.691c-3.016,2.193-6.175,4.277-9.39,6.193A1.042,1.042,0,0,1,472.806,994.136Zm18.017-13.109a1.046,1.046,0,0,1-.692-1.831c2.758-2.424,5.434-5,7.959-7.674a1.046,1.046,0,0,1,1.519,1.437c-2.568,2.715-5.291,5.342-8.1,7.808A1.043,1.043,0,0,1,490.823,981.027Zm15.3-16.187a1.047,1.047,0,0,1-.823-1.692c2.267-2.889,4.425-5.917,6.417-9a1.045,1.045,0,0,1,1.756,1.133c-2.026,3.138-4.221,6.22-6.526,9.159A1.046,1.046,0,0,1,506.128,964.84Zm12.084-18.714a1.046,1.046,0,0,1-.926-1.53c1.7-3.254,3.274-6.625,4.671-10.02a1.046,1.046,0,0,1,1.934.8c-1.42,3.452-3.019,6.882-4.751,10.192A1.046,1.046,0,0,1,518.212,946.126Zm8.486-20.6a1.027,1.027,0,0,1-.309-.047,1.046,1.046,0,0,1-.691-1.308c1.084-3.507,2.018-7.107,2.779-10.7a1.046,1.046,0,0,1,2.046.433c-.774,3.655-1.725,7.317-2.827,10.884A1.046,1.046,0,0,1,526.7,925.528Zm4.612-21.794a1.075,1.075,0,0,1-.124-.008,1.046,1.046,0,0,1-.916-1.161c.429-3.644.695-7.354.79-11.026a1.045,1.045,0,1,1,2.09.054c-.1,3.735-.366,7.509-.8,11.217A1.046,1.046,0,0,1,531.309,903.734Z" transform="translate(-363.566 -890.521)" fill="#d4c99b"/>
      </g>
      <g id="Grupo_53779" data-name="Grupo 53779" transform="translate(0 109.929)">
        <path id="Trazado_100548" data-name="Trazado 100548" d="M363.008,1002.783a1.042,1.042,0,0,1-.388-.074q-.547-.219-1.091-.442a1.046,1.046,0,0,1,.8-1.935q.535.22,1.072.434a1.046,1.046,0,0,1-.388,2.017Zm-11.189-5.143a1.048,1.048,0,0,1-.484-.119c-3.313-1.731-6.583-3.632-9.72-5.654a1.046,1.046,0,1,1,1.133-1.757c3.083,1.987,6.3,3.857,9.555,5.557a1.046,1.046,0,0,1-.485,1.973ZM333.093,985.57a1.044,1.044,0,0,1-.645-.222c-2.944-2.3-5.813-4.771-8.528-7.331a1.046,1.046,0,1,1,1.435-1.521c2.668,2.516,5.488,4.94,8.382,7.205a1.045,1.045,0,0,1-.645,1.869Zm-16.206-15.284a1.043,1.043,0,0,1-.786-.355c-2.47-2.8-4.839-5.754-7.04-8.772a1.046,1.046,0,0,1,1.69-1.232c2.163,2.965,4.491,5.866,6.919,8.622a1.045,1.045,0,0,1-.784,1.737Zm-13.128-18a1.046,1.046,0,0,1-.9-.509c-1.91-3.2-3.7-6.535-5.318-9.912a1.046,1.046,0,1,1,1.886-.9c1.591,3.32,3.35,6.6,5.228,9.743a1.045,1.045,0,0,1-.362,1.434A1.033,1.033,0,0,1,303.759,952.286Zm-9.667-20.072a1.044,1.044,0,0,1-.976-.672,109.56,109.56,0,0,1-3.516-10.681,1.046,1.046,0,1,1,2.019-.547,107.454,107.454,0,0,0,3.449,10.479,1.047,1.047,0,0,1-.977,1.42Zm-5.787-21.478a1.046,1.046,0,0,1-1.032-.884c-.526-3.348-.949-6.994-1.3-11.142a1.046,1.046,0,0,1,2.085-.174c.342,4.1.76,7.694,1.277,10.992a1.046,1.046,0,0,1-.871,1.2A1.028,1.028,0,0,1,288.305,910.737Zm-1.994-22.19a1.046,1.046,0,0,1-1.044-.994c-.151-3.074-.3-6.617-.46-11.152a1.045,1.045,0,0,1,1.007-1.083,1.064,1.064,0,0,1,1.082,1.007c.164,4.526.31,8.06.459,11.125a1.044,1.044,0,0,1-.992,1.1Z" transform="translate(-284.806 -875.317)" fill="#d4c99b"/>
      </g>
    </g>
    <g id="Grupo_53793" data-name="Grupo 53793" transform="translate(454.916 1160.79)">
      <g id="Grupo_53791" data-name="Grupo 53791" transform="translate(70.959 1.818)">
        <path id="Trazado_100561" data-name="Trazado 100561" d="M411.789,977.465h-.5a1.144,1.144,0,0,1,.007-2.287h.487a89.092,89.092,0,0,0,9.687-.53,1.144,1.144,0,0,1,.25,2.275A91.424,91.424,0,0,1,411.789,977.465Zm-10.782-.642a1.321,1.321,0,0,1-.137-.008,92.08,92.08,0,0,1-10.283-1.824,1.144,1.144,0,0,1,.529-2.227,89.683,89.683,0,0,0,10.026,1.779,1.144,1.144,0,0,1-.134,2.28Zm30.758-1.606a1.144,1.144,0,0,1-.254-2.26,89.057,89.057,0,0,0,9.779-2.83,1.144,1.144,0,1,1,.761,2.157,91.307,91.307,0,0,1-10.031,2.9A1.147,1.147,0,0,1,431.765,975.217Zm19.417-6.853a1.144,1.144,0,0,1-.5-2.172,89.366,89.366,0,0,0,8.879-4.983,1.144,1.144,0,0,1,1.232,1.928,91.617,91.617,0,0,1-9.109,5.112A1.144,1.144,0,0,1,451.182,968.365Zm17.354-11.086a1.144,1.144,0,0,1-.722-2.032c1.116-.908,2.225-1.855,3.3-2.816,1.445-1.3,2.867-2.657,4.226-4.045a1.144,1.144,0,1,1,1.635,1.6c-1.393,1.424-2.852,2.82-4.334,4.149-1.1.985-2.237,1.957-3.382,2.888A1.139,1.139,0,0,1,468.537,957.278Zm14.4-14.718a1.145,1.145,0,0,1-.9-1.846,88.964,88.964,0,0,0,5.771-8.387,1.144,1.144,0,0,1,1.956,1.187,91.59,91.59,0,0,1-5.92,8.6A1.144,1.144,0,0,1,482.933,942.56Zm10.679-17.6a1.132,1.132,0,0,1-.477-.1,1.144,1.144,0,0,1-.562-1.516,89.265,89.265,0,0,0,3.709-9.482,1.144,1.144,0,1,1,2.175.71,91.413,91.413,0,0,1-3.8,9.726A1.144,1.144,0,0,1,493.612,924.957ZM500,905.382a1.173,1.173,0,0,1-.23-.023,1.146,1.146,0,0,1-.892-1.35c.581-2.847,1.027-5.76,1.327-8.66q.074-.71.136-1.417a1.144,1.144,0,1,1,2.279.2q-.063.726-.139,1.453c-.308,2.973-.765,5.961-1.361,8.881A1.145,1.145,0,0,1,500,905.382Zm1.8-20.515a1.143,1.143,0,0,1-1.142-1.115,89.161,89.161,0,0,0-.84-10.145,1.144,1.144,0,0,1,2.266-.319,91.94,91.94,0,0,1,.861,10.406,1.146,1.146,0,0,1-1.115,1.174Zm-2.876-20.385a1.146,1.146,0,0,1-1.106-.855,87.992,87.992,0,0,0-3.142-9.682,1.144,1.144,0,0,1,2.132-.832,90.515,90.515,0,0,1,3.224,9.935,1.145,1.145,0,0,1-1.108,1.433ZM491.454,845.3a1.142,1.142,0,0,1-1.011-.609,89.779,89.779,0,0,0-5.273-8.711,1.144,1.144,0,1,1,1.887-1.294,91.91,91.91,0,0,1,5.409,8.934,1.145,1.145,0,0,1-1.011,1.68ZM479.811,828.31a1.143,1.143,0,0,1-.866-.4,89.952,89.952,0,0,0-7.083-7.31,1.144,1.144,0,0,1,1.551-1.683,92.614,92.614,0,0,1,7.263,7.5,1.145,1.145,0,0,1-.865,1.893Zm-15.144-13.943a1.139,1.139,0,0,1-.673-.219,88.142,88.142,0,0,0-8.559-5.508,1.144,1.144,0,0,1,1.125-1.993,90.654,90.654,0,0,1,8.782,5.651,1.145,1.145,0,0,1-.675,2.069Zm-17.929-10.118a1.143,1.143,0,0,1-.443-.089,88.931,88.931,0,0,0-9.6-3.4,1.144,1.144,0,1,1,.638-2.2,91.1,91.1,0,0,1,9.846,3.485,1.144,1.144,0,0,1-.444,2.2Zm-50.584-5.71a1.145,1.145,0,0,1-.2-2.272,91.28,91.28,0,0,1,10.375-1.2,1.144,1.144,0,1,1,.132,2.284,88.927,88.927,0,0,0-10.114,1.172A1.138,1.138,0,0,1,396.154,798.539Zm30.811-.035a1.183,1.183,0,0,1-.194-.017c-1.949-.332-3.939-.6-5.912-.808-1.39-.144-2.806-.257-4.21-.336a1.144,1.144,0,0,1-1.079-1.206,1.16,1.16,0,0,1,1.207-1.079c1.44.081,2.893.2,4.317.345,2.023.21,4.063.488,6.061.829a1.144,1.144,0,0,1-.19,2.272Z" transform="translate(-389.707 -795.056)" fill="#86bec4"/>
      </g>
      <g id="Grupo_53792" data-name="Grupo 53792" transform="translate(1.674 30.23)">
        <path id="Trazado_100562" data-name="Trazado 100562" d="M343.5,948.405a1.145,1.145,0,0,1-.849-.376,92.714,92.714,0,0,1-6.556-8.127,1.144,1.144,0,1,1,1.859-1.333,90.572,90.572,0,0,0,6.393,7.925,1.144,1.144,0,0,1-.847,1.911Zm-12-16.733a1.145,1.145,0,0,1-1-.588,91.587,91.587,0,0,1-4.554-9.4,1.144,1.144,0,1,1,2.113-.879,89.313,89.313,0,0,0,4.44,9.161,1.145,1.145,0,0,1-1,1.7Zm-7.909-19.01a1.144,1.144,0,0,1-1.1-.829,90.79,90.79,0,0,1-2.3-10.185,1.144,1.144,0,0,1,2.258-.373,88.4,88.4,0,0,0,2.237,9.928,1.145,1.145,0,0,1-.784,1.416A1.176,1.176,0,0,1,323.589,912.662Zm-3.357-20.307a1.144,1.144,0,0,1-1.142-1.088c-.071-1.46-.107-2.947-.107-4.42,0-2,.067-4.024.2-6.023a1.144,1.144,0,0,1,2.284.151c-.129,1.948-.195,3.924-.195,5.871,0,1.437.036,2.887.106,4.31a1.145,1.145,0,0,1-1.087,1.2Zm1.352-20.549a1.124,1.124,0,0,1-.206-.019,1.143,1.143,0,0,1-.921-1.329A91.515,91.515,0,0,1,322.9,860.3a1.144,1.144,0,0,1,2.19.663,89.593,89.593,0,0,0-2.385,9.9A1.143,1.143,0,0,1,321.584,871.807Zm5.959-19.71a1.144,1.144,0,0,1-1.049-1.6,91.082,91.082,0,0,1,4.691-9.331,1.144,1.144,0,1,1,1.981,1.143,89.167,89.167,0,0,0-4.573,9.1A1.143,1.143,0,0,1,327.543,852.1Zm10.29-17.833a1.144,1.144,0,0,1-.918-1.825,91.888,91.888,0,0,1,6.691-8.016,1.144,1.144,0,1,1,1.669,1.563,89.382,89.382,0,0,0-6.522,7.816A1.142,1.142,0,0,1,337.833,834.263Z" transform="translate(-318.983 -824.059)" fill="#86bec4"/>
      </g>
      <circle id="Elipse_3988" data-name="Elipse 3988" cx="65.726" cy="65.726" r="65.726" transform="translate(0 92.95) rotate(-45)" fill="#86bec4"/>
    </g>
    <g id="Grupo_53822" data-name="Grupo 53822" transform="translate(498.613 1205.969)">
      <g id="Grupo_53821" data-name="Grupo 53821">
        <path id="Trazado_101275" data-name="Trazado 101275" d="M413.778,883.106l-2.382,10.28,21.035,21.033a4.449,4.449,0,1,1-6.292,6.29L410.27,904.84l-1.6-1.6L406.768,911a4.449,4.449,0,0,1-5.876,3.105l-12.9-4.817a4.448,4.448,0,0,1,3.112-8.335l8.218,3.068,6.324-24.574h-6.421l-7.487,7.488a4.45,4.45,0,0,1-6.293-6.293l8.792-8.79a4.451,4.451,0,0,1,3.146-1.3h11.089a8.921,8.921,0,1,1,8.705,3.339l-.009.025,6.06,6.058H431.9a4.449,4.449,0,1,1,0,8.9H421.385a4.45,4.45,0,0,1-3.146-1.3Z" transform="translate(-362.332 -839.663)" fill="#fff"/>
        <path id="Trazado_101276" data-name="Trazado 101276" d="M414.321,883.106l-2.382,10.28,21.035,21.033a4.449,4.449,0,1,1-6.292,6.29L410.813,904.84V857.922a8.922,8.922,0,1,1,6.906,15.966l-.009.025,6.06,6.058h8.675a4.449,4.449,0,1,1,0,8.9H421.928a4.45,4.45,0,0,1-3.146-1.3Z" transform="translate(-362.875 -839.663)" fill="#e6e6e6"/>
        <path id="Trazado_101277" data-name="Trazado 101277" d="M446.9,876.274a2.9,2.9,0,0,0-4.1,4.1,6.627,6.627,0,0,1,0,9.36,2.9,2.9,0,0,0,4.1,4.1A12.428,12.428,0,0,0,446.9,876.274Z" transform="translate(-363.509 -840.054)" fill="#ff9696"/>
        <path id="Trazado_101278" data-name="Trazado 101278" d="M454.066,871.779a2.9,2.9,0,0,0-4.1,4.1,12.84,12.84,0,0,1,0,18.168,2.9,2.9,0,0,0,4.1,4.1A18.633,18.633,0,0,0,454.066,871.779Z" transform="translate(-363.655 -839.963)" fill="#ff9696"/>
        <path id="Trazado_101279" data-name="Trazado 101279" d="M378.65,876.274a2.9,2.9,0,0,0-4.1,0,12.409,12.409,0,0,0,0,17.558,2.9,2.9,0,1,0,4.1-4.1,6.615,6.615,0,0,1,0-9.36A2.9,2.9,0,0,0,378.65,876.274Z" transform="translate(-362.063 -840.054)" fill="#ff9696"/>
        <path id="Trazado_101280" data-name="Trazado 101280" d="M371.442,875.878a2.9,2.9,0,0,0-4.1-4.1,18.633,18.633,0,0,0,0,26.365,2.9,2.9,0,0,0,4.1-4.1A12.84,12.84,0,0,1,371.442,875.878Z" transform="translate(-361.879 -839.963)" fill="#ff9696"/>
        <path id="Trazado_101281" data-name="Trazado 101281" d="M379.855,839.319H364.913a2.9,2.9,0,0,0-2.9,2.9v14.943a2.9,2.9,0,1,0,5.8,0V845.115h12.045a2.9,2.9,0,1,0,0-5.8Z" transform="translate(-361.882 -839.319)" fill="#8c757e"/>
        <path id="Trazado_101282" data-name="Trazado 101282" d="M456.282,839.319H441.34a2.9,2.9,0,1,0,0,5.8h12.045v12.045a2.9,2.9,0,1,0,5.8,0V842.217A2.9,2.9,0,0,0,456.282,839.319Z" transform="translate(-363.438 -839.319)" fill="#8c757e"/>
        <path id="Trazado_101283" data-name="Trazado 101283" d="M456.282,915.929a2.9,2.9,0,0,0-2.9,2.9v12.045H441.34a2.9,2.9,0,1,0,0,5.8h14.942a2.9,2.9,0,0,0,2.9-2.9V918.827A2.9,2.9,0,0,0,456.282,915.929Z" transform="translate(-363.438 -840.879)" fill="#8c757e"/>
        <path id="Trazado_101284" data-name="Trazado 101284" d="M379.855,930.871H367.811V918.827a2.9,2.9,0,1,0-5.8,0v14.942a2.9,2.9,0,0,0,2.9,2.9h14.942a2.9,2.9,0,1,0,0-5.8Z" transform="translate(-361.882 -840.879)" fill="#8c757e"/>
      </g>
    </g>
  </g>
</svg>
