<svg xmlns="http://www.w3.org/2000/svg" width="396" height="249.769" viewBox="0 0 396 249.769">
  <g id="Grupo_53924" data-name="Grupo 53924" transform="translate(-2649.665 -1395.035)">
    <path id="Trazado_100521" data-name="Trazado 100521" d="M3312.9,1432.235c-46.747-1.889-29.05,72.82,25.178,69.334S3351.246,1433.785,3312.9,1432.235Z" transform="translate(-359.51 -20.999)" fill="#f7f1d7"/>
    <g id="Grupo_53771" data-name="Grupo 53771" transform="translate(2950.694 1446.226)">
      <path id="Trazado_100522" data-name="Trazado 100522" d="M3414.147,1513.254c13.79-2.766,27.205,6.136,27.205,6.136s-8.943,13.388-22.733,16.154-27.205-6.136-27.205-6.136S3400.356,1516.021,3414.147,1513.254Z" transform="translate(-3369.794 -1512.721)" fill="#8f8b66"/>
      <path id="Trazado_100523" data-name="Trazado 100523" d="M3342.211,1551.234a.615.615,0,0,1-.3-1.058,91.375,91.375,0,0,1,21.929-13.652,116.071,116.071,0,0,1,41.8-9.6.615.615,0,1,1,.044,1.229,116.484,116.484,0,0,0-41.338,9.5,90.108,90.108,0,0,0-21.606,13.44A.615.615,0,0,1,3342.211,1551.234Z" transform="translate(-3341.713 -1520.743)" fill="#b3ae7f"/>
      <path id="Trazado_100524" data-name="Trazado 100524" d="M3445.9,1525.074a.615.615,0,0,1-.246-1.1l8.287-6.021a.615.615,0,1,1,.723.995l-8.287,6.021A.612.612,0,0,1,3445.9,1525.074Z" transform="translate(-3400.301 -1515.61)" fill="#b3ae7f"/>
      <path id="Trazado_100525" data-name="Trazado 100525" d="M3437.881,1543.915a.618.618,0,0,1-.2-.075l-10.306-6.134a.615.615,0,1,1,.628-1.057l10.307,6.133a.615.615,0,0,1-.43,1.132Z" transform="translate(-3389.944 -1526.192)" fill="#b3ae7f"/>
      <path id="Trazado_100526" data-name="Trazado 100526" d="M3406.7,1534.957a.615.615,0,0,1-.356-1l5.808-6.97a.615.615,0,0,1,.944.787l-5.807,6.97A.615.615,0,0,1,3406.7,1534.957Z" transform="translate(-3378.153 -1520.658)" fill="#b3ae7f"/>
    </g>
    <g id="Grupo_53793" data-name="Grupo 53793" transform="translate(2930.349 1396.512)">
      <path id="Trazado_100527" data-name="Trazado 100527" d="M3449.78,1417.509c-2.457,1.055-11.927-.041-11.927-.041s5.648-7.8,8.1-8.856,9.7.91,9.7.91S3452.237,1416.453,3449.78,1417.509Z" transform="translate(-3375.688 -1404.007)" fill="#7d6871"/>
      <g id="Grupo_53773" data-name="Grupo 53773" transform="translate(0 11.661)">
        <g id="Grupo_53772" data-name="Grupo 53772">
          <path id="Trazado_100528" data-name="Trazado 100528" d="M3295.658,1494.257l-.718-.19c13.918-52.489,65.628-68.728,66.135-68.828l.146.728C3360.719,1426.067,3309.469,1442.169,3295.658,1494.257Z" transform="translate(-3294.94 -1425.239)" fill="#54464c"/>
        </g>
      </g>
      <g id="Grupo_53776" data-name="Grupo 53776" transform="translate(48.858 19.509)">
        <path id="Trazado_100529" data-name="Trazado 100529" d="M3427.511,1454.763c-2.5-.96-8.508-8.359-8.508-8.359s9.49-1.639,11.986-.678,6.3,7.423,6.3,7.423S3430.006,1455.724,3427.511,1454.763Z" transform="translate(-3413.896 -1444.492)" fill="#7d6871"/>
        <g id="Grupo_53775" data-name="Grupo 53775">
          <g id="Grupo_53774" data-name="Grupo 53774">
            <path id="Trazado_100530" data-name="Trazado 100530" d="M3424.727,1449.513c-4.36-2.064-17.334-5.479-17.465-5.513l.188-.718c.536.141,13.171,3.467,17.594,5.561Z" transform="translate(-3407.262 -1443.281)" fill="#54464c"/>
          </g>
        </g>
      </g>
      <g id="Grupo_53779" data-name="Grupo 53779" transform="translate(33.461 29.967)">
        <path id="Trazado_100531" data-name="Trazado 100531" d="M3392.114,1478.806c-2.5-.96-8.508-8.359-8.508-8.359s9.491-1.639,11.987-.679,6.3,7.424,6.3,7.424S3394.61,1479.766,3392.114,1478.806Z" transform="translate(-3378.499 -1468.534)" fill="#7d6871"/>
        <g id="Grupo_53778" data-name="Grupo 53778">
          <g id="Grupo_53777" data-name="Grupo 53777">
            <path id="Trazado_100532" data-name="Trazado 100532" d="M3389.331,1473.556c-4.361-2.063-17.335-5.479-17.466-5.513l.189-.718c.535.14,13.171,3.467,17.594,5.561Z" transform="translate(-3371.865 -1467.324)" fill="#54464c"/>
          </g>
        </g>
      </g>
      <g id="Grupo_53782" data-name="Grupo 53782" transform="translate(20.824 42.459)">
        <path id="Trazado_100533" data-name="Trazado 100533" d="M3363.063,1507.523c-2.5-.961-8.508-8.359-8.508-8.359s9.49-1.639,11.986-.678,6.3,7.423,6.3,7.423S3365.559,1508.484,3363.063,1507.523Z" transform="translate(-3349.448 -1497.253)" fill="#7d6871"/>
        <g id="Grupo_53781" data-name="Grupo 53781">
          <g id="Grupo_53780" data-name="Grupo 53780">
            <path id="Trazado_100534" data-name="Trazado 100534" d="M3360.279,1502.274c-4.361-2.064-17.335-5.479-17.466-5.514l.188-.718c.536.14,13.172,3.467,17.595,5.56Z" transform="translate(-3342.813 -1496.042)" fill="#54464c"/>
          </g>
        </g>
      </g>
      <g id="Grupo_53785" data-name="Grupo 53785" transform="translate(11.286 54.999)">
        <path id="Trazado_100535" data-name="Trazado 100535" d="M3341.135,1536.353c-2.5-.961-8.508-8.358-8.508-8.358s9.491-1.64,11.986-.679,6.3,7.423,6.3,7.423S3343.631,1537.313,3341.135,1536.353Z" transform="translate(-3327.52 -1526.081)" fill="#7d6871"/>
        <g id="Grupo_53784" data-name="Grupo 53784">
          <g id="Grupo_53783" data-name="Grupo 53783">
            <path id="Trazado_100536" data-name="Trazado 100536" d="M3338.351,1531.1c-4.361-2.064-17.335-5.48-17.465-5.514l.188-.718c.536.141,13.171,3.467,17.594,5.56Z" transform="translate(-3320.886 -1524.871)" fill="#54464c"/>
          </g>
        </g>
      </g>
      <g id="Grupo_53789" data-name="Grupo 53789" transform="translate(40.863 0)">
        <g id="Grupo_53787" data-name="Grupo 53787">
          <g id="Grupo_53786" data-name="Grupo 53786">
            <path id="Trazado_100537" data-name="Trazado 100537" d="M3398.354,1407.984c-.687,2.584-7.4,9.355-7.4,9.355s-2.648-9.26-1.96-11.844,6.7-7.064,6.7-7.064S3399.042,1405.4,3398.354,1407.984Z" transform="translate(-3388.882 -1398.431)" fill="#7d6871"/>
          </g>
        </g>
        <g id="Grupo_53788" data-name="Grupo 53788" transform="translate(0.7 5.914)">
          <path id="Trazado_100538" data-name="Trazado 100538" d="M3391.225,1430.227l-.734-.11c.083-.547,2.035-13.467,3.642-18.089l.7.244C3393.25,1416.828,3391.246,1430.093,3391.225,1430.227Z" transform="translate(-3390.491 -1412.027)" fill="#54464c"/>
        </g>
      </g>
      <g id="Grupo_53792" data-name="Grupo 53792" transform="translate(21.646 12.734)">
        <path id="Trazado_100539" data-name="Trazado 100539" d="M3354.365,1436.613c-.2,2.667-5.564,10.549-5.564,10.549s-4.3-8.62-4.092-11.287,5.3-8.169,5.3-8.169S3354.569,1433.946,3354.365,1436.613Z" transform="translate(-3344.703 -1427.706)" fill="#7d6871"/>
        <g id="Grupo_53791" data-name="Grupo 53791" transform="translate(3.53 6.267)">
          <g id="Grupo_53790" data-name="Grupo 53790">
            <path id="Trazado_100540" data-name="Trazado 100540" d="M3352.967,1460.563c-.019-.554-.459-13.613.276-18.45l.734.111c-.725,4.77-.272,18.178-.268,18.313Z" transform="translate(-3352.818 -1442.113)" fill="#54464c"/>
          </g>
        </g>
      </g>
    </g>
    <path id="Trazado_100541" data-name="Trazado 100541" d="M2726.2,1636.379c-49.58-23.337-89.476-156.97-5.811-212.36s177.79-19.754,197.932,10.846,31.653,57.534,67.4,53.066c40.284-5.036,100.128,94.317,2.809,148.448Z" transform="translate(-12.577 0)" fill="#fff" opacity="0.5"/>
    <g id="Grupo_53795" data-name="Grupo 53795" transform="translate(2982.526 1478.894)">
      <g id="Grupo_53794" data-name="Grupo 53794" transform="translate(0 0)">
        <path id="Trazado_100542" data-name="Trazado 100542" d="M3441.97,1641.978q-.338,0-.671-.008a.293.293,0,0,1-.286-.3.3.3,0,0,1,.3-.285,27.037,27.037,0,0,0,3.467-.139.292.292,0,1,1,.061.582A27.471,27.471,0,0,1,3441.97,1641.978Zm-4.157-.321a.291.291,0,0,1-.045,0,27.01,27.01,0,0,1-3.459-.775.293.293,0,1,1,.165-.562,26.383,26.383,0,0,0,3.385.758.293.293,0,0,1-.045.582Zm10.454-.424a.292.292,0,0,1-.068-.577,26.441,26.441,0,0,0,3.31-1.033.293.293,0,0,1,.211.546,27.051,27.051,0,0,1-3.384,1.055A.281.281,0,0,1,3448.267,1641.234Zm-17.169-1.554a.294.294,0,0,1-.119-.025,27.153,27.153,0,0,1-3.139-1.651.293.293,0,0,1,.306-.5,26.482,26.482,0,0,0,3.071,1.615.293.293,0,0,1-.119.56Zm23.7-.966a.293.293,0,0,1-.141-.549,26.69,26.69,0,0,0,2.929-1.859.293.293,0,0,1,.345.473,27.191,27.191,0,0,1-2.994,1.9A.288.288,0,0,1,3454.795,1638.714Zm-29.667-2.692a.292.292,0,0,1-.184-.065,27.293,27.293,0,0,1-2.6-2.405.292.292,0,0,1,.424-.4,26.657,26.657,0,0,0,2.549,2.354.293.293,0,0,1-.184.52Zm35.319-1.437a.292.292,0,0,1-.2-.5,26.735,26.735,0,0,0,2.35-2.552.293.293,0,0,1,.456.368,27.386,27.386,0,0,1-2.4,2.608A.293.293,0,0,1,3460.447,1634.585Zm-40.14-3.636a.292.292,0,0,1-.237-.12,27.333,27.333,0,0,1-1.9-2.995.293.293,0,0,1,.514-.28,26.46,26.46,0,0,0,1.854,2.93.293.293,0,0,1-.064.409A.289.289,0,0,1,3420.307,1630.949Zm44.537-1.811a.289.289,0,0,1-.152-.043.293.293,0,0,1-.1-.4,26.4,26.4,0,0,0,1.61-3.073.293.293,0,0,1,.535.237,27.006,27.006,0,0,1-1.646,3.141A.293.293,0,0,1,3464.844,1629.138Zm-47.883-4.332a.292.292,0,0,1-.272-.187,26.963,26.963,0,0,1-1.052-3.386.293.293,0,0,1,.569-.136,26.4,26.4,0,0,0,1.029,3.313.293.293,0,0,1-.168.378A.3.3,0,0,1,3416.96,1624.806Zm-1.632-6.806a.293.293,0,0,1-.291-.262,27.6,27.6,0,0,1-.147-2.838q0-.352.009-.7a.292.292,0,1,1,.584.015q-.008.343-.008.688a26.991,26.991,0,0,0,.144,2.778.293.293,0,0,1-.261.321Zm.182-7a.317.317,0,0,1-.046,0,.293.293,0,0,1-.244-.335,27.037,27.037,0,0,1,.779-3.459.293.293,0,1,1,.561.166,26.466,26.466,0,0,0-.762,3.384A.293.293,0,0,1,3415.51,1611Zm1.984-6.713a.3.3,0,0,1-.119-.025.293.293,0,0,1-.148-.386,27.094,27.094,0,0,1,1.654-3.137.292.292,0,1,1,.5.306,26.624,26.624,0,0,0-1.619,3.069A.293.293,0,0,1,3417.495,1604.291Zm48.046-1.836a.292.292,0,0,1-.258-.153,26.67,26.67,0,0,0-1.848-2.936.293.293,0,1,1,.474-.343,27.284,27.284,0,0,1,1.889,3,.293.293,0,0,1-.257.432Zm-44.381-4.13a.293.293,0,0,1-.227-.477,27.579,27.579,0,0,1,2.408-2.6.293.293,0,0,1,.4.425,26.776,26.776,0,0,0-2.356,2.546A.3.3,0,0,1,3421.16,1598.326Zm40.273-1.539a.292.292,0,0,1-.213-.091,26.743,26.743,0,0,0-2.543-2.359.293.293,0,1,1,.369-.454,27.348,27.348,0,0,1,2.6,2.412.293.293,0,0,1-.212.493Zm-35.194-3.277a.293.293,0,0,1-.172-.529,27.241,27.241,0,0,1,3-1.892.293.293,0,0,1,.279.515,26.574,26.574,0,0,0-2.932,1.851A.29.29,0,0,1,3426.238,1593.51ZM3456,1592.37a.291.291,0,0,1-.153-.043,26.528,26.528,0,0,0-3.067-1.623.292.292,0,1,1,.239-.534,27.149,27.149,0,0,1,3.135,1.658.293.293,0,0,1-.154.542Zm-23.615-2.2a.293.293,0,0,1-.1-.566,26.936,26.936,0,0,1,3.388-1.048.292.292,0,0,1,.136.569,26.312,26.312,0,0,0-3.313,1.025A.3.3,0,0,1,3432.385,1590.172Zm17.226-.66a.3.3,0,0,1-.084-.012,26.311,26.311,0,0,0-3.383-.767.293.293,0,0,1,.091-.578,26.969,26.969,0,0,1,3.458.784.293.293,0,0,1-.083.573Zm-10.419-.963a.292.292,0,0,1-.029-.583,27.452,27.452,0,0,1,3.542-.135.293.293,0,0,1-.016.585,27.1,27.1,0,0,0-3.466.131Z" transform="translate(-3414.891 -1587.821)" fill="#b5ac84"/>
      </g>
    </g>
    <g id="Grupo_53802" data-name="Grupo 53802" transform="translate(3029.258 1495.467)">
      <g id="Grupo_53801" data-name="Grupo 53801">
        <g id="Grupo_53796" data-name="Grupo 53796">
          <path id="Trazado_100543" data-name="Trazado 100543" d="M3530.529,1642.329a8.2,8.2,0,1,1,8.2-8.2A8.213,8.213,0,0,1,3530.529,1642.329Zm0-15.544a7.34,7.34,0,1,0,7.34,7.34A7.349,7.349,0,0,0,3530.529,1626.786Z" transform="translate(-3522.325 -1625.922)" fill="#b5ac84"/>
        </g>
        <g id="Grupo_53797" data-name="Grupo 53797" transform="translate(3.68 7.072)">
          <path id="Trazado_100544" data-name="Trazado 100544" d="M3531.917,1644.444a1.133,1.133,0,1,1,1.133-1.133A1.134,1.134,0,0,1,3531.917,1644.444Zm0-1.69a.557.557,0,1,0,.557.557A.558.558,0,0,0,3531.917,1642.754Z" transform="translate(-3530.784 -1642.179)" fill="#b5ac84"/>
        </g>
        <g id="Grupo_53798" data-name="Grupo 53798" transform="translate(10.3 7.072)">
          <path id="Trazado_100545" data-name="Trazado 100545" d="M3547.137,1644.444a1.133,1.133,0,1,1,1.133-1.133A1.134,1.134,0,0,1,3547.137,1644.444Zm0-1.69a.557.557,0,1,0,.557.557A.557.557,0,0,0,3547.137,1642.754Z" transform="translate(-3546.005 -1642.179)" fill="#b5ac84"/>
        </g>
        <g id="Grupo_53799" data-name="Grupo 53799" transform="translate(6.99 3.761)">
          <path id="Trazado_100546" data-name="Trazado 100546" d="M3538.394,1635.7a1.133,1.133,0,1,1,1.133,1.133A1.134,1.134,0,0,1,3538.394,1635.7Zm1.69,0a.557.557,0,1,0-.557.557A.557.557,0,0,0,3540.084,1635.7Z" transform="translate(-3538.394 -1634.569)" fill="#b5ac84"/>
        </g>
        <g id="Grupo_53800" data-name="Grupo 53800" transform="translate(6.99 10.382)">
          <path id="Trazado_100547" data-name="Trazado 100547" d="M3538.394,1650.921a1.133,1.133,0,1,1,1.133,1.133A1.134,1.134,0,0,1,3538.394,1650.921Zm1.69,0a.557.557,0,1,0-.557.557A.558.558,0,0,0,3540.084,1650.921Z" transform="translate(-3538.394 -1649.789)" fill="#b5ac84"/>
        </g>
      </g>
    </g>
    <g id="Grupo_53821" data-name="Grupo 53821" transform="translate(2656.153 1397.002)">
      <g id="Grupo_53820" data-name="Grupo 53820" transform="translate(0 0)">
        <g id="Grupo_53806" data-name="Grupo 53806" transform="translate(12.148 7.45)">
          <g id="Grupo_53803" data-name="Grupo 53803" transform="translate(0 14.86)">
            <path id="Trazado_100548" data-name="Trazado 100548" d="M2692.8,1452.863a.293.293,0,0,1-.242-.456c.328-.487.671-.973,1.022-1.443a.292.292,0,0,1,.469.349c-.345.464-.683.942-1.007,1.421A.291.291,0,0,1,2692.8,1452.863Z" transform="translate(-2692.508 -1450.846)" fill="#b5ac84"/>
          </g>
          <g id="Grupo_53804" data-name="Grupo 53804" transform="translate(3.004 0.94)">
            <path id="Trazado_100549" data-name="Trazado 100549" d="M2699.705,1430.9a.293.293,0,0,1-.219-.486c.7-.792,1.441-1.565,2.2-2.3a.293.293,0,1,1,.405.422c-.752.72-1.482,1.481-2.171,2.261A.293.293,0,0,1,2699.705,1430.9Zm4.559-4.367a.293.293,0,0,1-.184-.52c.823-.666,1.683-1.3,2.556-1.9a.292.292,0,1,1,.328.484c-.86.584-1.707,1.212-2.517,1.868A.289.289,0,0,1,2704.264,1426.53Zm5.223-3.545a.292.292,0,0,1-.143-.547c.922-.519,1.877-1,2.838-1.442a.293.293,0,0,1,.242.532c-.946.432-1.886.909-2.794,1.42A.29.29,0,0,1,2709.487,1422.984Zm5.743-2.618a.293.293,0,0,1-.1-.568c1-.356,2.02-.673,3.041-.943a.292.292,0,1,1,.15.565c-1.005.265-2.012.578-2.993.928A.3.3,0,0,1,2715.23,1420.366Z" transform="translate(-2699.413 -1418.846)" fill="#b5ac84"/>
          </g>
          <g id="Grupo_53805" data-name="Grupo 53805" transform="translate(24.637)">
            <path id="Trazado_100550" data-name="Trazado 100550" d="M2749.439,1417.531a.292.292,0,0,1-.05-.58c.578-.1,1.166-.19,1.75-.265a.293.293,0,0,1,.074.581c-.574.073-1.154.16-1.722.26A.287.287,0,0,1,2749.439,1417.531Z" transform="translate(-2749.147 -1416.683)" fill="#b5ac84"/>
          </g>
        </g>
        <g id="Grupo_53810" data-name="Grupo 53810" transform="translate(5.782 8.126)">
          <g id="Grupo_53807" data-name="Grupo 53807" transform="translate(46.078)">
            <path id="Trazado_100551" data-name="Trazado 100551" d="M2785.8,1419.26a.314.314,0,0,1-.08-.011c-.558-.158-1.125-.3-1.686-.435a.292.292,0,0,1,.133-.57c.57.133,1.146.281,1.712.442a.293.293,0,0,1-.079.574Z" transform="translate(-2783.802 -1418.236)" fill="#b5ac84"/>
          </g>
          <g id="Grupo_53808" data-name="Grupo 53808" transform="translate(0.056 1.574)">
            <path id="Trazado_100552" data-name="Trazado 100552" d="M2716.286,1494.978a.292.292,0,0,1,0-.585c1.178-.016,2.367-.088,3.533-.214a.292.292,0,0,1,.062.582c-1.184.128-2.391.2-3.587.217Zm-3.565-.118h-.024c-1.193-.1-2.393-.249-3.566-.457a.293.293,0,1,1,.1-.576c1.155.2,2.336.356,3.511.45a.292.292,0,0,1-.023.584Zm10.649-.649a.292.292,0,0,1-.058-.579c1.152-.237,2.306-.533,3.428-.878a.292.292,0,1,1,.172.559c-1.141.351-2.313.651-3.483.892A.279.279,0,0,1,2723.37,1494.211Zm-17.666-.593a.289.289,0,0,1-.079-.01c-1.151-.319-2.3-.7-3.414-1.126a.292.292,0,1,1,.209-.546c1.1.422,2.229.794,3.361,1.109a.292.292,0,0,1-.078.574Zm24.478-1.5a.293.293,0,0,1-.113-.563c1.084-.451,2.16-.96,3.2-1.514a.292.292,0,0,1,.275.516c-1.055.563-2.149,1.08-3.25,1.539A.294.294,0,0,1,2730.182,1492.114Zm-31.133-1.05a.29.29,0,0,1-.13-.031c-1.068-.532-2.124-1.122-3.139-1.754a.293.293,0,0,1,.31-.5c1,.623,2.038,1.2,3.09,1.727a.293.293,0,0,1-.131.555Zm37.422-2.3a.293.293,0,0,1-.162-.536c.98-.649,1.941-1.353,2.856-2.093a.293.293,0,0,1,.368.455c-.929.751-1.905,1.466-2.9,2.125A.29.29,0,0,1,2736.47,1488.762ZM2693,1487.294a.3.3,0,0,1-.178-.06c-.948-.724-1.874-1.5-2.751-2.315a.293.293,0,1,1,.4-.429c.864.8,1.775,1.566,2.709,2.279a.293.293,0,0,1-.178.525Zm49.014-3.013a.29.29,0,0,1-.209-.088.293.293,0,0,1,0-.413c.841-.823,1.653-1.695,2.412-2.592a.293.293,0,1,1,.447.378c-.771.911-1.595,1.8-2.449,2.632A.291.291,0,0,1,2742.014,1484.281Zm-54.245-1.828a.291.291,0,0,1-.218-.1c-.8-.891-1.56-1.83-2.268-2.79a.293.293,0,0,1,.471-.347c.7.945,1.448,1.87,2.233,2.748a.293.293,0,0,1-.218.488Zm58.849-3.614a.292.292,0,0,1-.24-.46c.671-.966,1.3-1.975,1.88-3a.293.293,0,0,1,.51.287c-.585,1.041-1.228,2.066-1.91,3.046A.292.292,0,0,1,2746.618,1478.839Zm-63.077-2.125a.293.293,0,0,1-.251-.142c-.614-1.024-1.186-2.09-1.7-3.168a.292.292,0,1,1,.528-.251c.506,1.061,1.069,2.11,1.674,3.119a.293.293,0,0,1-.251.443Zm66.571-4.088a.293.293,0,0,1-.267-.412c.477-1.076.906-2.186,1.277-3.3a.292.292,0,1,1,.555.185c-.376,1.132-.813,2.261-1.3,3.354A.293.293,0,0,1,2750.112,1472.627Zm-69.637-2.346a.293.293,0,0,1-.275-.193c-.408-1.122-.767-2.277-1.066-3.434a.292.292,0,1,1,.566-.146c.294,1.138.648,2.275,1.05,3.38a.292.292,0,0,1-.175.375A.287.287,0,0,1,2680.474,1470.281Zm71.888-4.417a.282.282,0,0,1-.066-.007.293.293,0,0,1-.22-.35c.262-1.145.473-2.316.626-3.484a.292.292,0,1,1,.58.075c-.155,1.186-.369,2.376-.635,3.539A.292.292,0,0,1,2752.363,1465.864Zm-73.676-2.482a.293.293,0,0,1-.289-.247c-.187-1.178-.32-2.379-.4-3.573a.293.293,0,1,1,.584-.037c.074,1.175.205,2.359.389,3.518a.293.293,0,0,1-.243.335A.356.356,0,0,1,2678.687,1463.382Zm74.6-4.584h-.01a.293.293,0,0,1-.282-.3c.016-.448.024-.9.024-1.353,0-.727-.021-1.463-.063-2.188a.293.293,0,0,1,.584-.034c.042.736.065,1.483.064,2.222,0,.456-.008.919-.024,1.374A.293.293,0,0,1,2753.288,1458.8Zm-.414-7.116a.293.293,0,0,1-.289-.248c-.178-1.163-.415-2.33-.7-3.469a.292.292,0,1,1,.567-.143c.293,1.157.534,2.343.716,3.524a.292.292,0,0,1-.245.333A.263.263,0,0,1,2752.874,1451.682Zm-1.75-6.909a.292.292,0,0,1-.275-.194c-.4-1.106-.851-2.206-1.351-3.27a.293.293,0,1,1,.53-.249c.508,1.081.97,2.2,1.372,3.322a.293.293,0,0,1-.177.374A.305.305,0,0,1,2751.124,1444.773Zm-3.031-6.447a.292.292,0,0,1-.252-.143c-.6-1.01-1.254-2.005-1.946-2.956a.292.292,0,1,1,.472-.344c.7.965,1.369,1.976,1.977,3a.292.292,0,0,1-.251.442Zm-4.2-5.76a.292.292,0,0,1-.219-.1c-.779-.88-1.61-1.734-2.469-2.538a.293.293,0,0,1,.4-.427c.872.816,1.716,1.683,2.507,2.578a.293.293,0,0,1-.219.486Zm-5.206-4.87a.292.292,0,0,1-.179-.061c-.931-.719-1.907-1.4-2.9-2.029a.292.292,0,1,1,.312-.495c1.01.637,2,1.33,2.948,2.061a.292.292,0,0,1-.179.524Zm-6.031-3.8a.291.291,0,0,1-.132-.031c-1.05-.53-2.138-1.015-3.234-1.443a.293.293,0,1,1,.213-.545c1.113.434,2.218.927,3.285,1.465a.292.292,0,0,1-.132.554Z" transform="translate(-2678.002 -1421.855)" fill="#b5ac84"/>
          </g>
          <g id="Grupo_53809" data-name="Grupo 53809" transform="translate(0 33.596)">
            <path id="Trazado_100553" data-name="Trazado 100553" d="M2678.166,1497.809h-.01a.293.293,0,0,1-.283-.3c.019-.587.052-1.181.1-1.766a.293.293,0,0,1,.583.046c-.045.576-.077,1.161-.1,1.739A.293.293,0,0,1,2678.166,1497.809Z" transform="translate(-2677.873 -1495.471)" fill="#b5ac84"/>
          </g>
        </g>
        <g id="Grupo_53814" data-name="Grupo 53814" transform="translate(12.148 7.45)">
          <g id="Grupo_53811" data-name="Grupo 53811" transform="translate(0 14.86)">
            <path id="Trazado_100554" data-name="Trazado 100554" d="M2692.8,1452.863a.293.293,0,0,1-.242-.456c.328-.487.671-.973,1.022-1.443a.292.292,0,0,1,.469.349c-.345.464-.683.942-1.007,1.421A.291.291,0,0,1,2692.8,1452.863Z" transform="translate(-2692.508 -1450.846)" fill="#b5ac84"/>
          </g>
          <g id="Grupo_53812" data-name="Grupo 53812" transform="translate(3.004 0.94)">
            <path id="Trazado_100555" data-name="Trazado 100555" d="M2699.705,1430.9a.293.293,0,0,1-.219-.486c.7-.792,1.441-1.565,2.2-2.3a.293.293,0,1,1,.405.422c-.752.72-1.482,1.481-2.171,2.261A.293.293,0,0,1,2699.705,1430.9Zm4.559-4.367a.293.293,0,0,1-.184-.52c.823-.666,1.683-1.3,2.556-1.9a.292.292,0,1,1,.328.484c-.86.584-1.707,1.212-2.517,1.868A.289.289,0,0,1,2704.264,1426.53Zm5.223-3.545a.292.292,0,0,1-.143-.547c.922-.519,1.877-1,2.838-1.442a.293.293,0,0,1,.242.532c-.946.432-1.886.909-2.794,1.42A.29.29,0,0,1,2709.487,1422.984Zm5.743-2.618a.293.293,0,0,1-.1-.568c1-.356,2.02-.673,3.041-.943a.292.292,0,1,1,.15.565c-1.005.265-2.012.578-2.993.928A.3.3,0,0,1,2715.23,1420.366Z" transform="translate(-2699.413 -1418.846)" fill="#b5ac84"/>
          </g>
          <g id="Grupo_53813" data-name="Grupo 53813" transform="translate(24.637)">
            <path id="Trazado_100556" data-name="Trazado 100556" d="M2749.439,1417.531a.292.292,0,0,1-.05-.58c.578-.1,1.166-.19,1.75-.265a.293.293,0,0,1,.074.581c-.574.073-1.154.16-1.722.26A.287.287,0,0,1,2749.439,1417.531Z" transform="translate(-2749.147 -1416.683)" fill="#b5ac84"/>
          </g>
        </g>
        <g id="Grupo_53815" data-name="Grupo 53815" transform="translate(37.006)">
          <path id="Trazado_100557" data-name="Trazado 100557" d="M2761.809,1413.844l-4.643-3.373-4.643,3.373,1.774-5.458-4.643-3.373h5.738l1.773-5.457,1.773,5.457h5.738l-4.642,3.373Zm-4.643-4.1,3.53,2.564-1.349-4.149,3.53-2.564h-4.362l-1.349-4.149-1.348,4.149h-4.363l3.529,2.564-1.348,4.149Z" transform="translate(-2749.654 -1399.556)" fill="#b5ac84"/>
        </g>
        <g id="Grupo_53819" data-name="Grupo 53819" transform="translate(0 24.534)">
          <g id="Grupo_53816" data-name="Grupo 53816">
            <path id="Trazado_100558" data-name="Trazado 100558" d="M2672.784,1472.367a8.2,8.2,0,1,1,8.2-8.2A8.213,8.213,0,0,1,2672.784,1472.367Zm0-15.544a7.34,7.34,0,1,0,7.34,7.34A7.349,7.349,0,0,0,2672.784,1456.823Z" transform="translate(-2664.58 -1455.959)" fill="#b5ac84"/>
          </g>
          <g id="Grupo_53817" data-name="Grupo 53817" transform="translate(4.255 7.071)">
            <path id="Trazado_100559" data-name="Trazado 100559" d="M2675.5,1474.48a1.133,1.133,0,1,1,1.133-1.133A1.134,1.134,0,0,1,2675.5,1474.48Zm0-1.689a.557.557,0,1,0,.557.557A.558.558,0,0,0,2675.5,1472.791Z" transform="translate(-2674.363 -1472.215)" fill="#b5ac84"/>
          </g>
          <g id="Grupo_53818" data-name="Grupo 53818" transform="translate(9.724 7.071)">
            <path id="Trazado_100560" data-name="Trazado 100560" d="M2688.069,1474.48a1.133,1.133,0,1,1,1.132-1.133A1.134,1.134,0,0,1,2688.069,1474.48Zm0-1.689a.557.557,0,1,0,.557.557A.558.558,0,0,0,2688.069,1472.791Z" transform="translate(-2686.936 -1472.215)" fill="#b5ac84"/>
          </g>
        </g>
      </g>
    </g>
    <g id="Grupo_53849" data-name="Grupo 53849" transform="translate(2977.39 1548.702)">
      <path id="Trazado_100561" data-name="Trazado 100561" d="M3525.56,1763.4c-1.943.835-9.434-.032-9.434-.032s4.468-6.17,6.411-7.005,7.67.72,7.67.72S3527.5,1762.561,3525.56,1763.4Z" transform="translate(-3466.955 -1752.717)" fill="#8f8b66"/>
      <g id="Grupo_53823" data-name="Grupo 53823" transform="translate(0 9.223)">
        <g id="Grupo_53822" data-name="Grupo 53822">
          <path id="Trazado_100562" data-name="Trazado 100562" d="M3403.652,1824.1l-.567-.15c11.009-41.518,51.911-54.363,52.312-54.443l.115.576C3455.114,1770.165,3414.576,1782.9,3403.652,1824.1Z" transform="translate(-3403.084 -1769.51)" fill="#b3ae7f"/>
        </g>
      </g>
      <g id="Grupo_53827" data-name="Grupo 53827" transform="translate(38.646 15.431)">
        <path id="Trazado_100563" data-name="Trazado 100563" d="M3507.946,1792.864c-1.974-.76-6.73-6.612-6.73-6.612s7.507-1.3,9.481-.537,4.987,5.872,4.987,5.872S3509.919,1793.623,3507.946,1792.864Z" transform="translate(-3497.176 -1784.739)" fill="#8f8b66"/>
        <g id="Grupo_53826" data-name="Grupo 53826">
          <g id="Grupo_53825" data-name="Grupo 53825">
            <g id="Grupo_53824" data-name="Grupo 53824">
              <path id="Trazado_100564" data-name="Trazado 100564" d="M3505.744,1788.71c-3.449-1.633-13.711-4.334-13.815-4.361l.15-.568c.424.111,10.418,2.743,13.917,4.4Z" transform="translate(-3491.929 -1783.781)" fill="#b3ae7f"/>
            </g>
          </g>
        </g>
      </g>
      <g id="Grupo_53831" data-name="Grupo 53831" transform="translate(26.467 23.704)">
        <path id="Trazado_100565" data-name="Trazado 100565" d="M3479.948,1811.881c-1.974-.759-6.729-6.611-6.729-6.611s7.507-1.3,9.481-.536,4.986,5.871,4.986,5.871S3481.922,1812.641,3479.948,1811.881Z" transform="translate(-3469.178 -1803.757)" fill="#8f8b66"/>
        <g id="Grupo_53830" data-name="Grupo 53830">
          <g id="Grupo_53829" data-name="Grupo 53829">
            <g id="Grupo_53828" data-name="Grupo 53828">
              <path id="Trazado_100566" data-name="Trazado 100566" d="M3477.746,1807.728c-3.449-1.633-13.712-4.334-13.815-4.361l.149-.568c.424.112,10.418,2.743,13.917,4.4Z" transform="translate(-3463.931 -1802.799)" fill="#b3ae7f"/>
            </g>
          </g>
        </g>
      </g>
      <g id="Grupo_53835" data-name="Grupo 53835" transform="translate(16.471 33.584)">
        <path id="Trazado_100567" data-name="Trazado 100567" d="M3456.969,1834.6c-1.974-.76-6.73-6.612-6.73-6.612s7.507-1.3,9.48-.537,4.987,5.872,4.987,5.872S3458.942,1835.356,3456.969,1834.6Z" transform="translate(-3446.199 -1826.472)" fill="#8f8b66"/>
        <g id="Grupo_53834" data-name="Grupo 53834">
          <g id="Grupo_53833" data-name="Grupo 53833">
            <g id="Grupo_53832" data-name="Grupo 53832">
              <path id="Trazado_100568" data-name="Trazado 100568" d="M3454.766,1830.443c-3.45-1.632-13.712-4.334-13.815-4.361l.149-.568c.424.111,10.418,2.743,13.917,4.4Z" transform="translate(-3440.951 -1825.514)" fill="#b3ae7f"/>
            </g>
          </g>
        </g>
      </g>
      <g id="Grupo_53839" data-name="Grupo 53839" transform="translate(8.927 43.504)">
        <path id="Trazado_100569" data-name="Trazado 100569" d="M3439.624,1857.4c-1.974-.759-6.73-6.611-6.73-6.611s7.507-1.3,9.481-.537,4.986,5.872,4.986,5.872S3441.6,1858.16,3439.624,1857.4Z" transform="translate(-3428.854 -1849.275)" fill="#8f8b66"/>
        <g id="Grupo_53838" data-name="Grupo 53838">
          <g id="Grupo_53837" data-name="Grupo 53837">
            <g id="Grupo_53836" data-name="Grupo 53836">
              <path id="Trazado_100570" data-name="Trazado 100570" d="M3437.421,1853.247c-3.449-1.633-13.711-4.334-13.814-4.361l.149-.568c.424.111,10.418,2.743,13.917,4.4Z" transform="translate(-3423.607 -1848.318)" fill="#b3ae7f"/>
            </g>
          </g>
        </g>
      </g>
      <g id="Grupo_53844" data-name="Grupo 53844" transform="translate(32.323 0)">
        <g id="Grupo_53842" data-name="Grupo 53842">
          <g id="Grupo_53841" data-name="Grupo 53841">
            <g id="Grupo_53840" data-name="Grupo 53840">
              <path id="Trazado_100571" data-name="Trazado 100571" d="M3484.884,1755.862c-.544,2.044-5.852,7.4-5.852,7.4s-2.094-7.325-1.55-9.369,5.3-5.587,5.3-5.587S3485.428,1753.818,3484.884,1755.862Z" transform="translate(-3477.392 -1748.306)" fill="#8f8b66"/>
            </g>
          </g>
        </g>
        <g id="Grupo_53843" data-name="Grupo 53843" transform="translate(0.553 4.678)">
          <path id="Trazado_100572" data-name="Trazado 100572" d="M3479.245,1773.456l-.581-.087c.065-.433,1.61-10.652,2.881-14.308l.554.193C3480.846,1762.857,3479.261,1773.35,3479.245,1773.456Z" transform="translate(-3478.664 -1759.06)" fill="#b3ae7f"/>
        </g>
      </g>
      <g id="Grupo_53848" data-name="Grupo 53848" transform="translate(17.122 10.072)">
        <path id="Trazado_100573" data-name="Trazado 100573" d="M3450.09,1778.507c-.161,2.109-4.4,8.344-4.4,8.344s-3.4-6.818-3.236-8.927,4.193-6.462,4.193-6.462S3450.25,1776.4,3450.09,1778.507Z" transform="translate(-3442.447 -1771.461)" fill="#8f8b66"/>
        <g id="Grupo_53847" data-name="Grupo 53847" transform="translate(2.792 4.957)">
          <g id="Grupo_53846" data-name="Grupo 53846">
            <g id="Grupo_53845" data-name="Grupo 53845">
              <path id="Trazado_100574" data-name="Trazado 100574" d="M3448.983,1797.451c-.015-.438-.364-10.768.218-14.594l.58.088c-.573,3.773-.214,14.379-.211,14.485Z" transform="translate(-3448.865 -1782.857)" fill="#b3ae7f"/>
            </g>
          </g>
        </g>
      </g>
    </g>
    <g id="Grupo_53852" data-name="Grupo 53852" transform="translate(2664.123 1503.954)">
      <path id="Trazado_100575" data-name="Trazado 100575" d="M2690.574,1646.344c2.171,1.562,6.112,10.242,6.112,10.242s-9.6-.82-11.767-2.382a4.842,4.842,0,1,1,5.655-7.86Z" transform="translate(-2682.904 -1645.432)" fill="#7d6871"/>
      <path id="Trazado_100576" data-name="Trazado 100576" d="M2752.127,1719.909a.445.445,0,0,1-.4-.259c-.144-.309-14.695-31.2-49.06-57.547a.446.446,0,0,1,.542-.707c34.548,26.487,49.182,57.57,49.325,57.88a.446.446,0,0,1-.217.591A.439.439,0,0,1,2752.127,1719.909Z" transform="translate(-2693.97 -1654.4)" fill="#54464c"/>
      <g id="Grupo_53850" data-name="Grupo 53850" transform="translate(9.255 19.112)">
        <path id="Trazado_100577" data-name="Trazado 100577" d="M2708.154,1689.419c2.631-.48,11.617,2.7,11.617,2.7s-7.245,6.345-9.876,6.826a4.842,4.842,0,0,1-1.741-9.526Z" transform="translate(-2704.182 -1689.369)" fill="#7d6871"/>
        <path id="Trazado_100578" data-name="Trazado 100578" d="M2714.955,1697.355a.446.446,0,0,1-.085-.883c8.035-1.578,11.433-2.315,11.466-2.322a.445.445,0,0,1,.189.871c-.034.007-3.438.746-11.484,2.326A.446.446,0,0,1,2714.955,1697.355Z" transform="translate(-2710.017 -1692.065)" fill="#54464c"/>
      </g>
      <g id="Grupo_53851" data-name="Grupo 53851" transform="translate(32.165 15.833)">
        <path id="Trazado_100579" data-name="Trazado 100579" d="M2766.487,1687.214c-.3,2.657-5.94,10.343-5.94,10.343s-3.982-8.769-3.682-11.427a4.842,4.842,0,1,1,9.623,1.084Z" transform="translate(-2756.849 -1681.83)" fill="#7d6871"/>
        <path id="Trazado_100580" data-name="Trazado 100580" d="M2764.729,1704.675h-.036a.446.446,0,0,1-.409-.479c0-.034.28-3.507,1.09-11.666a.446.446,0,0,1,.887.088c-.81,8.148-1.086,11.614-1.089,11.649A.445.445,0,0,1,2764.729,1704.675Z" transform="translate(-2761.049 -1687.648)" fill="#54464c"/>
      </g>
    </g>
    <g id="Grupo_53853" data-name="Grupo 53853" transform="translate(2653.292 1535.215)">
      <path id="Trazado_100581" data-name="Trazado 100581" d="M2658,1717.319c31.5-.785,52.837,22.22,55,41.857,0,0-18.916-.065-24.066-2.527s-11.894-18.243-13.171-20.853-6.992-11.391-6.992-11.391Z" transform="translate(-2658.002 -1717.299)" fill="#8f8b66"/>
      <path id="Trazado_100582" data-name="Trazado 100582" d="M2658,1717.344c21.821,6.535,18.2,22.405,26.482,31.677S2713,1759.2,2713,1759.2c-35.037,6.912-36.063-13-40.5-24.89A33.138,33.138,0,0,0,2658,1717.344Z" transform="translate(-2658.002 -1717.324)" fill="#54464c"/>
      <path id="Trazado_100583" data-name="Trazado 100583" d="M2769.047,1804.585q-4.008-5.375-7.484-10.061c-8.852-11.916-15.435-20.777-21.234-27.734l.527-5.6a.742.742,0,1,0-1.478-.139l-.391,4.15a103.1,103.1,0,0,0-11.578-11.815.734.734,0,0,0,0-.322l-2.189-9.439a.742.742,0,0,0-1.446.336l1.843,7.943a79.429,79.429,0,0,0-9.951-6.766.742.742,0,1,0-.744,1.285,76.492,76.492,0,0,1,18.066,14.267l-14.771-.8a.742.742,0,0,0-.271,1.447.761.761,0,0,0,.19.035l16.245.885c.02,0,.036-.008.055-.008,1.418,1.548,2.867,3.212,4.374,5.015a.737.737,0,0,0,.5.669c.022.007.046.009.07.014,5.636,6.8,12.135,15.55,20.99,27.47q3.49,4.7,7.486,10.063a.742.742,0,1,0,1.19-.888Z" transform="translate(-2689.954 -1731.847)" fill="#b3ae7f"/>
    </g>
    <g id="Grupo_53854" data-name="Grupo 53854" transform="translate(2662.52 1586.886)">
      <path id="Trazado_100584" data-name="Trazado 100584" d="M2703.646,1836.572c-12.378-2.493-24.427,5.49-24.427,5.49s8.02,12.025,20.4,14.517,24.427-5.49,24.427-5.49S2716.024,1839.064,2703.646,1836.572Z" transform="translate(-2679.218 -1836.089)" fill="#8f8b66"/>
      <path id="Trazado_100585" data-name="Trazado 100585" d="M2751.486,1870.673a.385.385,0,0,1-.482-.029,81.052,81.052,0,0,0-19.432-12.109,104.744,104.744,0,0,0-37.168-8.567.385.385,0,0,1,.029-.769,105.551,105.551,0,0,1,37.454,8.635,81.856,81.856,0,0,1,19.635,12.241.384.384,0,0,1-.036.6Z" transform="translate(-2687.589 -1843.497)" fill="#b3ae7f"/>
      <path id="Trazado_100586" data-name="Trazado 100586" d="M2722.606,1847.167a.383.383,0,0,1-.449,0l-7.436-5.411a.385.385,0,1,1,.453-.622l7.435,5.411a.384.384,0,0,1,0,.624Z" transform="translate(-2699.189 -1838.897)" fill="#b3ae7f"/>
      <path id="Trazado_100587" data-name="Trazado 100587" d="M2736.587,1858.669l-.027.018-9.257,5.5a.384.384,0,0,1-.393-.661l9.257-5.5a.384.384,0,0,1,.42.643Z" transform="translate(-2706.058 -1848.453)" fill="#b3ae7f"/>
      <path id="Trazado_100588" data-name="Trazado 100588" d="M2760.682,1856.068a.384.384,0,0,1-.519-.067l-5.209-6.261a.385.385,0,1,1,.591-.492l5.209,6.261a.385.385,0,0,1-.05.542Z" transform="translate(-2721.96 -1843.447)" fill="#b3ae7f"/>
    </g>
    <g id="Grupo_53855" data-name="Grupo 53855" transform="translate(2706.088 1446.825)">
      <rect id="Rectángulo_5081" data-name="Rectángulo 5081" width="10.168" height="111.543" transform="translate(0 10.732) rotate(-9.947)" fill="#c46588"/>
      <rect id="Rectángulo_5082" data-name="Rectángulo 5082" width="4.701" height="111.543" transform="translate(0 10.732) rotate(-9.947)" fill="#c4c4c4" style="mix-blend-mode: multiply;isolation: isolate"/>
      <path id="Trazado_100589" data-name="Trazado 100589" d="M2789.393,1523.071l-10.015,1.756,3.28-10.732Z" transform="translate(-2779.378 -1514.096)" fill="#ffbb96"/>
      <path id="Trazado_100590" data-name="Trazado 100590" d="M2787.718,1516.91l-2.112-2.814-1.01,3.305c.945.872,1.534.037,1.534.037A1.012,1.012,0,0,0,2787.718,1516.91Z" transform="translate(-2782.326 -1514.096)" fill="#c46588"/>
    </g>
    <g id="Grupo_53856" data-name="Grupo 53856" transform="translate(2931.165 1470.109)">
      <rect id="Rectángulo_5083" data-name="Rectángulo 5083" width="49.8" height="157.227" transform="translate(13.296 8.85)" fill="#c4c4c4" style="mix-blend-mode: multiply;isolation: isolate"/>
      <rect id="Rectángulo_5084" data-name="Rectángulo 5084" width="57.975" height="166.078" transform="translate(0)" fill="#78646c"/>
      <rect id="Rectángulo_5085" data-name="Rectángulo 5085" width="51.533" height="39.982" transform="translate(3.221 63.048)" fill="#ff9696"/>
      <rect id="Rectángulo_5086" data-name="Rectángulo 5086" width="51.533" height="39.982" transform="translate(3.221 113.35)" fill="#ffbb96"/>
      <rect id="Rectángulo_5087" data-name="Rectángulo 5087" width="51.533" height="39.982" transform="translate(3.221 12.746)" fill="#fff4c5"/>
    </g>
    <path id="Rectángulo_5088" data-name="Rectángulo 5088" d="M8.425,0H291.946a8.425,8.425,0,0,1,8.425,8.425v0a0,0,0,0,1,0,0H0a0,0,0,0,1,0,0v0A8.425,8.425,0,0,1,8.425,0Z" transform="translate(2705.2 1636.379)" fill="#d4c99b"/>
    <g id="Grupo_53859" data-name="Grupo 53859" transform="translate(2720.7 1407.678)">
      <path id="Trazado_100591" data-name="Trazado 100591" d="M2817.714,1669.809a4.776,4.776,0,0,1-4.743-4.226l31.835-206.166a4.775,4.775,0,0,1,4.744-5.324h171.286a4.775,4.775,0,0,1,4.743,4.226l-31.835,206.166a4.775,4.775,0,0,1-4.743,5.325Z" transform="translate(-2812.971 -1441.047)" fill="#54494d"/>
      <path id="Trazado_100592" data-name="Trazado 100592" d="M2914.736,1669.809a4.775,4.775,0,0,1-4.743-4.226l-23.876-206.166a4.774,4.774,0,0,1,4.743-5.324h171.286a4.775,4.775,0,0,1,4.743,4.226l23.876,206.166a4.775,4.775,0,0,1-4.743,5.325Z" transform="translate(-2854.281 -1441.047)" fill="#736369"/>
      <path id="Trazado_100593" data-name="Trazado 100593" d="M3092.226,1671.236H2920.939l-23.876-206.166H3068.35Z" transform="translate(-2860.484 -1447.249)" fill="#fff2f6"/>
      <circle id="Elipse_3989" data-name="Elipse 3989" cx="5.606" cy="5.606" r="5.606" transform="matrix(0.924, -0.383, 0.383, 0.924, 61.816, 23.784)" fill="#54494d"/>
      <path id="Trazado_100594" data-name="Trazado 100594" d="M2934.5,1452.822a1.592,1.592,0,0,1-1.262-2.56,14.159,14.159,0,0,0,2.941-8.686,14.294,14.294,0,0,0-27.677-5.019,1.592,1.592,0,0,1-2.98-1.118,17.477,17.477,0,0,1,33.841,6.138,17.316,17.316,0,0,1-3.6,10.623A1.592,1.592,0,0,1,2934.5,1452.822Z" transform="translate(-2865.208 -1424.101)" fill="#736369"/>
      <circle id="Elipse_3990" data-name="Elipse 3990" cx="5.606" cy="5.606" r="5.606" transform="matrix(0.924, -0.383, 0.383, 0.924, 102.406, 23.784)" fill="#54494d"/>
      <path id="Trazado_100595" data-name="Trazado 100595" d="M3027.817,1452.822a1.592,1.592,0,0,1-1.262-2.56,14.159,14.159,0,0,0,2.941-8.686,14.294,14.294,0,0,0-27.677-5.019,1.591,1.591,0,1,1-2.98-1.118,17.477,17.477,0,0,1,33.84,6.138,17.317,17.317,0,0,1-3.6,10.623A1.591,1.591,0,0,1,3027.817,1452.822Z" transform="translate(-2917.932 -1424.101)" fill="#736369"/>
      <circle id="Elipse_3991" data-name="Elipse 3991" cx="5.606" cy="5.606" r="5.606" transform="translate(143.576 30.986) rotate(-76.717)" fill="#54494d"/>
      <path id="Trazado_100596" data-name="Trazado 100596" d="M3121.13,1452.822a1.592,1.592,0,0,1-1.262-2.56,14.159,14.159,0,0,0,2.941-8.686,14.294,14.294,0,0,0-27.677-5.019,1.592,1.592,0,1,1-2.98-1.118,17.477,17.477,0,0,1,33.841,6.138,17.318,17.318,0,0,1-3.6,10.623A1.592,1.592,0,0,1,3121.13,1452.822Z" transform="translate(-2970.655 -1424.101)" fill="#736369"/>
      <circle id="Elipse_3992" data-name="Elipse 3992" cx="5.606" cy="5.606" r="5.606" transform="translate(182.981 26.818) rotate(-45)" fill="#54494d"/>
      <path id="Trazado_100597" data-name="Trazado 100597" d="M3214.442,1452.822a1.592,1.592,0,0,1-1.262-2.56,14.156,14.156,0,0,0,2.941-8.686,14.294,14.294,0,0,0-27.676-5.019,1.592,1.592,0,1,1-2.98-1.118,17.477,17.477,0,0,1,33.841,6.138,17.318,17.318,0,0,1-3.6,10.623A1.592,1.592,0,0,1,3214.442,1452.822Z" transform="translate(-3023.379 -1424.101)" fill="#736369"/>
      <g id="Grupo_53857" data-name="Grupo 53857" transform="translate(79.348 58.532)">
        <path id="Trazado_100598" data-name="Trazado 100598" d="M3089.319,1700.224h-82.456l-11.477-109.344.142-.135c.123-.117,12.246-11.93,8.189-31.6l-.1-.478h7.842l.086.281c.068.221,6.891,22.136,19.148,27.509,5.274-2.041,12.494-16.555,12.1-27.223l-.015-.412h7.784l.032.363c.017.186,1.763,18.665,11.481,26.561l.105.085Zm-81.74-.8h80.733l-26.844-113.155c-9.245-7.622-11.341-23.94-11.63-26.66H3043.6c.222,11.213-7.223,25.717-12.788,27.644l-.145.05-.141-.06c-12.067-5.143-18.781-25.054-19.653-27.789h-6.281c3.63,18.674-7.01,30.322-8.375,31.722Z" transform="translate(-2995.386 -1558.662)" fill="#736369"/>
      </g>
      <g id="Grupo_53858" data-name="Grupo 53858" transform="translate(144.748 58.739)">
        <rect id="Rectángulo_5089" data-name="Rectángulo 5089" width="26.368" height="0.796" fill="#736369"/>
        <rect id="Rectángulo_5090" data-name="Rectángulo 5090" width="26.368" height="0.796" transform="translate(36.61 140.87)" fill="#736369"/>
        <path id="Trazado_100599" data-name="Trazado 100599" d="M3224.139,1694.849l-3.58-.392a24.069,24.069,0,0,1,5.281,5.719,24.029,24.029,0,0,1,2.074-7.5l-3,1.988-31.005-127.849,3.58.393a24.038,24.038,0,0,1-5.281-5.719,24.043,24.043,0,0,1-2.075,7.5l3-1.989Z" transform="translate(-3170.821 -1560.465)" fill="#736369"/>
      </g>
    </g>
    <g id="Grupo_53860" data-name="Grupo 53860" transform="translate(2730.719 1436.24)">
      <path id="Trazado_100600" data-name="Trazado 100600" d="M2846.151,1511.992l-10.148.63,9.705,164.722,7.354-54.023Z" transform="translate(-2836.003 -1502.323)" fill="#8f8b66"/>
      <path id="Trazado_100601" data-name="Trazado 100601" d="M2840.7,1512.771l-4.692.291,9.705,164.722,4.692-.291Z" transform="translate(-2836.003 -1502.763)" fill="#c4c4c4" style="mix-blend-mode: multiply;isolation: isolate"/>
      <path id="Trazado_100602" data-name="Trazado 100602" d="M2846.151,1499.432l-10.148.63,4.454-10.3Z" transform="translate(-2836.003 -1489.763)" fill="#ffbb96"/>
      <path id="Trazado_100603" data-name="Trazado 100603" d="M2846.246,1492.794l-1.785-3.031-1.372,3.172c.842.971,1.521.207,1.521.207A1.011,1.011,0,0,0,2846.246,1492.794Z" transform="translate(-2840.007 -1489.763)" fill="#8f8b66"/>
    </g>
    <g id="Grupo_53894" data-name="Grupo 53894" transform="translate(2883.935 1498.63)">
      <path id="Trazado_100604" data-name="Trazado 100604" d="M3315.834,1774.836c4.9,10.8,5.042,25.922,6.122,27.473a11,11,0,0,1,1.4,4.105s1.188,22.292,3.132,27.8,2.485,9.722,1.945,10.047-9.83,1.729-11.558.54-7.994-5.617-9.831-9.506-6.158-20.849-6.158-22.146,3.133-14.152,3.781-17.068S3315.834,1774.836,3315.834,1774.836Z" transform="translate(-3251.888 -1713.224)" fill="#f08741"/>
      <rect id="Rectángulo_5091" data-name="Rectángulo 5091" width="2.593" height="16.492" transform="translate(56.456 85.451)" fill="#3b3336"/>
      <path id="Trazado_100605" data-name="Trazado 100605" d="M3317.025,1774.132c4.213,7.94,5.185,21.876,5.023,22.362-8.264,5.185-16.2,4.051-16.366,3.4s-1.621-11.991-.162-15.07S3317.025,1774.132,3317.025,1774.132Z" transform="translate(-3254.141 -1712.826)" fill="#54494d"/>
      <path id="Trazado_100606" data-name="Trazado 100606" d="M3301.122,1683.019c-.009.329-.657,2.669,3.448,4.9s9.4,6.662,8.678,11.991-8.138,13.251-8.138,13.251l-16.2-6.194s-4.9-13.4-4.1-15.844,3.241-2.161,5.474-3.385,2.34-4.722,2.34-4.722Z" transform="translate(-3242.749 -1661.346)" fill="#54494d"/>
      <ellipse id="Elipse_3993" data-name="Elipse 3993" cx="4.254" cy="1.175" rx="4.254" ry="1.175" transform="translate(49.866 20.499)" fill="#3b3336"/>
      <rect id="Rectángulo_5092" data-name="Rectángulo 5092" width="1.08" height="2.809" transform="translate(53.58 18.852)" fill="#54494d"/>
      <path id="Trazado_100607" data-name="Trazado 100607" d="M3312.066,1672.108a1.971,1.971,0,1,1-1.971-1.972A1.971,1.971,0,0,1,3312.066,1672.108Z" transform="translate(-3255.976 -1654.067)" fill="#3b3336"/>
      <path id="Trazado_100608" data-name="Trazado 100608" d="M3311.262,1670.649a1.969,1.969,0,0,1-2.683,2.605,1.97,1.97,0,1,0,2.683-2.605Z" transform="translate(-3256.233 -1654.356)" fill="#dedede" style="mix-blend-mode: multiply;isolation: isolate"/>
      <path id="Trazado_100609" data-name="Trazado 100609" d="M3265.17,1695.53c-9.074.648-11.523,3.1-12.171,9.074s4.609,4.033,4.753,8.354,3.457,11.739,5.4,12.387c-2.809,4.537-6.841,25.279-6.914,32.984s-2.448,30.9-4.465,34.137-6.266,13.684-6.266,13.684,49.656.324,49.332,0c-2.449-2.233-5.617-15.556-7.922-23.622s-15.268-17.212-9.147-33.345,6.77-19.156,6.77-19.156a7.676,7.676,0,0,1-.432-3.961c.36-2.161,5.545-12.819,5.905-15.484C3269.707,1713.678,3264.81,1699.347,3265.17,1695.53Z" transform="translate(-3220.597 -1668.414)" fill="#ffad54"/>
      <g id="Grupo_53874" data-name="Grupo 53874">
        <path id="Trazado_100610" data-name="Trazado 100610" d="M3227.856,1939.415a6.829,6.829,0,0,0-.216,3.169h18.472c-1.8-1.765-9.362-4.718-9.758-5.257S3227.856,1939.415,3227.856,1939.415Z" transform="translate(-3210.447 -1804.993)" fill="#2b1710"/>
        <path id="Trazado_100611" data-name="Trazado 100611" d="M3226.61,1754.857s4.5,31.292,4.015,39.07-.216,39.97-.216,39.97c-2,2.052-9.669,3.079-10.262,2.808s-2.971-28.2-3.187-32.192-.756-34.785-.756-34.785l6.266-15.34Z" transform="translate(-3204.039 -1701.67)" fill="#2e3b4a"/>
        <path id="Trazado_100612" data-name="Trazado 100612" d="M3192.949,1939.415a6.836,6.836,0,0,0-.215,3.169h18.472c-1.8-1.765-9.362-4.718-9.758-5.257S3192.949,1939.415,3192.949,1939.415Z" transform="translate(-3190.724 -1804.993)" fill="#2b1710"/>
        <path id="Trazado_100613" data-name="Trazado 100613" d="M3194.894,1752.981s-3.943,6.824-4.807,12.6,2.107,27.223,1.134,28.735-1.836,16.636-2.593,24.2a91.1,91.1,0,0,0,0,17.068c5.185,2.053,11.775-2.592,11.775-2.592-.324-3.781,1.4-34.353,3.457-38.35s3.457-27.547,4.1-28.088c1.729-2.16,1.188-12.963,1.188-12.963Z" transform="translate(-3188.239 -1700.875)" fill="#3b4b5e"/>
        <path id="Trazado_100614" data-name="Trazado 100614" d="M3203.539,1749.427c4.933,2.2,12.675,2.161,15.916,1.081-.072-.793-.108-1.945-.108-1.945l-15.7-1.872Z" transform="translate(-3196.884 -1697.321)" fill="#2b1710"/>
        <path id="Trazado_100615" data-name="Trazado 100615" d="M3200.091,1680.877s-5.437,1.044-6.95,6.014,3.313,14.908,3.817,17.573.576,4.825.648,5.042c4.249,4.177,15.7,1.872,15.7,1.872s-.648-2.376.288-2.736c3.528-1.224,13.4-7.85,13.936-9.4l-1.044-2.881s-11.163,3.205-11.235,2.989c0-.288,1.152-3.745,1.152-3.745l6.842.72a22.4,22.4,0,0,1,2.593-6.338s-10.155-4.1-12.891-5.545-4.376-2.323-4.376-2.323a20.123,20.123,0,0,1-2.97.018C3205.313,1681.994,3200.091,1680.877,3200.091,1680.877Z" transform="translate(-3190.843 -1660.135)" fill="#86bec4"/>
        <path id="Trazado_100616" data-name="Trazado 100616" d="M3271.223,1711.116l-1.045-2.881s1.585-4.033,2.161-4.5,3.026-1.944,3.781-1.837,4.033.828,4.033.828c-.936.648-3.745.288-3.853.4s-.828.756-.828.756a8.493,8.493,0,0,1,1.512-.36c.4,0,3.637.18,3.529.469a4.1,4.1,0,0,1-1.4.936c.18.288-1.332,1.476-1.332,1.476s.9-.252.828.036-.9.684-2.593,1.656S3273.347,1710.5,3271.223,1711.116Z" transform="translate(-3234.535 -1672.009)" fill="#ff8762"/>
        <circle id="Elipse_3994" data-name="Elipse 3994" cx="4.159" cy="4.159" r="4.159" transform="translate(2.982 2.215)" fill="#2b1710"/>
        <path id="Trazado_100617" data-name="Trazado 100617" d="M3210.372,1647.129c-5.437-4.069-3.565-11.559-.613-13.071a9.5,9.5,0,0,1,7.814-.036c5.4,1.188,7.094,7.85,3.025,10.407S3210.372,1647.129,3210.372,1647.129Z" transform="translate(-3198.783 -1633.193)" fill="#2b1710"/>
        <path id="Trazado_100618" data-name="Trazado 100618" d="M3218.951,1638.161c.162,4.375-4.969,6.1-6.7,6.1a.936.936,0,0,1,0,1.3c-1.351-.972-2.539-.486-2.539,1.081a2.285,2.285,0,0,0,1.728,2.268c1.188,3.619.378,7.238-1.945,7.832a21.214,21.214,0,0,0,9.345,7.184,13.521,13.521,0,0,0-.865-5.941c-.324,0-1.4-1.026-1.215-1.81s.432-1.62.432-1.62a6.787,6.787,0,0,0,2.728-.486c.837-.513,1.963-3.268,2.43-6.257a13.724,13.724,0,0,0,.108-5.293A7.618,7.618,0,0,0,3218.951,1638.161Z" transform="translate(-3200.251 -1636)" fill="#ff8762"/>
        <path id="Trazado_100619" data-name="Trazado 100619" d="M3227.035,1655.684c0,.5-.247.9-.552.9s-.552-.4-.552-.9.248-.9.552-.9S3227.035,1655.188,3227.035,1655.684Z" transform="translate(-3209.535 -1645.394)" fill="#2b1710"/>
        <path id="Trazado_100620" data-name="Trazado 100620" d="M3236.224,1656.015c0,.5-.247.9-.552.9s-.552-.4-.552-.9.248-.9.552-.9S3236.224,1655.52,3236.224,1656.015Z" transform="translate(-3214.727 -1645.581)" fill="#2b1710"/>
        <path id="Trazado_100621" data-name="Trazado 100621" d="M3222.661,1650.977a4.134,4.134,0,0,1,3.376-.459C3224.592,1649.478,3223.174,1649.667,3222.661,1650.977Z" transform="translate(-3207.688 -1642.604)" fill="#2b1710"/>
        <path id="Trazado_100622" data-name="Trazado 100622" d="M3234.861,1651.077c1.715-.365,2.093.473,2.093.473A1.112,1.112,0,0,0,3234.861,1651.077Z" transform="translate(-3214.581 -1642.961)" fill="#2b1710"/>
        <g id="Grupo_53861" data-name="Grupo 53861" transform="translate(19.173 8.678)">
          <path id="Trazado_100623" data-name="Trazado 100623" d="M3232.315,1657.926v-.1a8.168,8.168,0,0,0,1.37-.192,2.641,2.641,0,0,0-.193-.539c-.106-.254-.237-.569-.374-.956a3.64,3.64,0,0,1,.3-2.994l.1.039c-.563,1.4-.625,2-.3,2.921.137.384.268.7.373.95.19.456.254.61.158.665A7.263,7.263,0,0,1,3232.315,1657.926Z" transform="translate(-3232.315 -1653.142)" fill="#2b1710"/>
        </g>
        <g id="Grupo_53862" data-name="Grupo 53862" transform="translate(10.201 9.589)">
          <path id="Trazado_100624" data-name="Trazado 100624" d="M3213.34,1657.824c-.746,0-1.124-.4-1.166-.823a.91.91,0,0,1,.8-.97,1.188,1.188,0,0,0-.507-.61.881.881,0,0,0-.738,0l-.038-.1a.934.934,0,0,1,1.1.219,1.444,1.444,0,0,1,.292.49l.009.025h0a.07.07,0,0,1,0,.04l-.042.024v0h-.01a.815.815,0,0,0-.761.865c.038.375.382.789,1.229.724l.007.1C3213.454,1657.822,3213.4,1657.824,3213.34,1657.824Z" transform="translate(-3211.69 -1655.236)" fill="#e0b3a8" style="mix-blend-mode: multiply;isolation: isolate"/>
        </g>
        <g id="Grupo_53863" data-name="Grupo 53863" transform="translate(12.405 14.582)">
          <path id="Trazado_100625" data-name="Trazado 100625" d="M3220.808,1670.784a7.69,7.69,0,0,1-4.051-4.027l.1-.04a7.709,7.709,0,0,0,3.979,3.967Z" transform="translate(-3216.756 -1666.716)" fill="#e0b3a8" style="mix-blend-mode: multiply;isolation: isolate"/>
        </g>
        <g id="Grupo_53864" data-name="Grupo 53864" transform="translate(18.229 16.631)">
          <path id="Trazado_100626" data-name="Trazado 100626" d="M3230.8,1671.815a1.615,1.615,0,0,1-.655-.138l.042-.095a1.713,1.713,0,0,0,1.57-.156l.06.084A1.925,1.925,0,0,1,3230.8,1671.815Z" transform="translate(-3230.146 -1671.426)" fill="#e0b3a8" style="mix-blend-mode: multiply;isolation: isolate"/>
        </g>
        <path id="Trazado_100627" data-name="Trazado 100627" d="M3226.717,1666.65c1.332-.594,3.421-1.026,3.439.126C3230.156,1668.019,3228.391,1669.027,3226.717,1666.65Z" transform="translate(-3209.98 -1651.76)" fill="#ff4d4d"/>
        <g id="Grupo_53865" data-name="Grupo 53865" transform="translate(16.126 14.679)">
          <path id="Trazado_100628" data-name="Trazado 100628" d="M3227.885,1667.449a7.7,7.7,0,0,1-2.573-.411l.035-.1a8.794,8.794,0,0,0,4.435.215l.025.1A9.159,9.159,0,0,1,3227.885,1667.449Z" transform="translate(-3225.311 -1666.94)" fill="#2b1710"/>
        </g>
        <circle id="Elipse_3995" data-name="Elipse 3995" cx="0.882" cy="0.882" r="0.882" transform="translate(10.688 12.694)" fill="#fff"/>
        <g id="Grupo_53866" data-name="Grupo 53866" transform="translate(40.432 32.844)">
          <path id="Trazado_100629" data-name="Trazado 100629" d="M3281.26,1710.246l-.072-.075a11.85,11.85,0,0,1,1.306-1.088,12.873,12.873,0,0,1,2.507-.385l.008.1a13.386,13.386,0,0,0-2.463.371A12,12,0,0,0,3281.26,1710.246Z" transform="translate(-3281.189 -1708.698)" fill="#e0b3a8" style="mix-blend-mode: multiply;isolation: isolate"/>
        </g>
        <g id="Grupo_53867" data-name="Grupo 53867" transform="translate(3.074 24.762)">
          <path id="Trazado_100630" data-name="Trazado 100630" d="M3202.567,1693.145a5.929,5.929,0,0,0-7.229-2.566l-.032-.1a6.033,6.033,0,0,1,7.354,2.619Z" transform="translate(-3195.305 -1690.12)" fill="#dedede" style="mix-blend-mode: multiply;isolation: isolate"/>
        </g>
        <g id="Grupo_53868" data-name="Grupo 53868" transform="translate(12.497 32.384)">
          <path id="Trazado_100631" data-name="Trazado 100631" d="M3222.9,1716.253c-.348,0-5.15-7.125-5.933-8.562l.091-.049a84.472,84.472,0,0,0,5.851,8.508c.207,0,4.071-1.013,5.541-1.4l.026.1C3228.261,1714.9,3223.175,1716.253,3222.9,1716.253Z" transform="translate(-3216.969 -1707.642)" fill="#dedede" style="mix-blend-mode: multiply;isolation: isolate"/>
        </g>
        <g id="Grupo_53869" data-name="Grupo 53869" transform="translate(17.677 41.312)">
          <path id="Trazado_100632" data-name="Trazado 100632" d="M3228.978,1730.074l-.1-.015c.028-.2.464-1.892.668-1.892h0c.045,0,.074.037.083.111.037.3.1.912.136,1.259a7.42,7.42,0,0,0,.3-1.253h.1a9.843,9.843,0,0,1-.381,1.528l-.076.239-.024-.249c0-.011-.106-1.056-.16-1.494A9.573,9.573,0,0,0,3228.978,1730.074Z" transform="translate(-3228.876 -1728.167)" fill="#dedede" style="mix-blend-mode: multiply;isolation: isolate"/>
        </g>
        <g id="Grupo_53870" data-name="Grupo 53870" transform="translate(5.159 36.749)">
          <path id="Trazado_100633" data-name="Trazado 100633" d="M3213.774,1729.886a4.322,4.322,0,0,1-2.652-.684c-1.391-1.124-10.928-11.353-11.024-11.456l.076-.071c.1.1,9.628,10.327,11.013,11.446,1.368,1.1,4.583.61,6,.1l.035.1A11.156,11.156,0,0,1,3213.774,1729.886Z" transform="translate(-3200.098 -1717.676)" fill="#dedede" style="mix-blend-mode: multiply;isolation: isolate"/>
        </g>
        <g id="Grupo_53871" data-name="Grupo 53871" transform="translate(20.545 25.469)">
          <path id="Trazado_100634" data-name="Trazado 100634" d="M3240.16,1701.494h-.1c0-.017,0-1.735-.108-2.587a12.187,12.187,0,0,0-1.723-2.86c-.83-1.2-1.864-2.7-2.754-4.25l.09-.052c.887,1.547,1.92,3.042,2.749,4.243a11.678,11.678,0,0,1,1.741,2.906C3240.158,1699.752,3240.16,1701.476,3240.16,1701.494Z" transform="translate(-3235.471 -1691.745)" fill="#dedede" style="mix-blend-mode: multiply;isolation: isolate"/>
        </g>
        <rect id="Rectángulo_5093" data-name="Rectángulo 5093" width="0.828" height="2.665" transform="translate(15.765 51.746)" fill="#3b4b5e"/>
        <path id="Trazado_100635" data-name="Trazado 100635" d="M3206.053,1750.635h-.828v-3.128l.833.455Z" transform="translate(-3197.836 -1697.782)" fill="#3b4b5e"/>
        <g id="Grupo_53873" data-name="Grupo 53873" transform="translate(3.092 93.041)" style="mix-blend-mode: multiply;isolation: isolate">
          <g id="Grupo_53872" data-name="Grupo 53872">
            <path id="Trazado_100636" data-name="Trazado 100636" d="M3197.1,1849.386a4.322,4.322,0,0,1-1.753-.9l.158-.213c.823.611,1.564.95,1.653.836.045-.059.038-.086.035-.095-.035-.13-.416-.283-.752-.419l-.229-.094c-.352-.146-.388-.31-.356-.421.125-.437,1.475-.251,1.886-.184.484.079.635-.007.646-.033,0-.005-.007-.041-.064-.1a3.15,3.15,0,0,0-2.472-.337l-.045-.261c1.517-.261,2.541.139,2.783.506a.3.3,0,0,1,.02.334c-.114.177-.429.229-.911.15a2.94,2.94,0,0,0-1.574-.011.611.611,0,0,0,.188.109l.227.092c.468.189.838.339.908.6a.362.362,0,0,1-.081.326A.316.316,0,0,1,3197.1,1849.386Z" transform="translate(-3195.347 -1847.089)" fill="#dedede"/>
          </g>
        </g>
        <path id="Trazado_100637" data-name="Trazado 100637" d="M3205.78,1756.829c-.276,2.05-1.448,6.734-6.358,6.159a29.733,29.733,0,0,1,2.511-6.7l-.091-.05c-1.9,3.454-3.823,9.99-3.823,16.8,0,3.324.3,8.926.562,13.868.242,4.553.471,8.855.326,9.134a.354.354,0,0,0-.18.2,2.31,2.31,0,0,0,.161,1.448c.125.292-.188.681-.551,1.132a5.936,5.936,0,0,0-.6.839c-.23.423-1.261,7.924-1.959,15.99-.64,7.393-1.171,17.048-.062,21.066l.1-.027c-1.105-4-.575-13.645.065-21.029.723-8.347,1.752-15.592,1.947-15.949a5.81,5.81,0,0,1,.589-.824c.383-.477.715-.889.565-1.238a2.237,2.237,0,0,1-.161-1.368.254.254,0,0,1,.133-.149c.188-.075.106-2.146-.271-9.232-.263-4.941-.561-10.541-.561-13.863a40.94,40.94,0,0,1,1.274-9.951,7.1,7.1,0,0,0,.838.052c4.311,0,5.384-4.337,5.648-6.3Z" transform="translate(-3192.1 -1702.714)" fill="#dedede" style="mix-blend-mode: multiply;isolation: isolate"/>
      </g>
      <g id="Grupo_53888" data-name="Grupo 53888" transform="translate(58.167 55.311)">
        <g id="Grupo_53886" data-name="Grupo 53886" transform="translate(6.92)">
          <path id="Trazado_100638" data-name="Trazado 100638" d="M3415.808,1930.35a13.677,13.677,0,0,1,4.357,3.925,4.171,4.171,0,0,0-2.269,1.4h5.509s-2.592-9.9-2.664-10.515a17.353,17.353,0,0,0-5.942,1.873Z" transform="translate(-3381.336 -1853.472)" fill="#2b1710"/>
          <path id="Trazado_100639" data-name="Trazado 100639" d="M3358.946,1877.314c-14.944,10.371-23.3,25.639-20.562,29.24s34.857-1.873,34.857-1.873c-.5-2.232-.936-6.194-.936-6.194s-17.14.72-17.212,0,6.121-3.529,13.035-7.2,9.579-9.29,7.994-13.611S3358.946,1877.314,3358.946,1877.314Z" transform="translate(-3337.869 -1825.499)" fill="#86bec4"/>
          <path id="Trazado_100640" data-name="Trazado 100640" d="M3369.072,1760.455c-5.257-.5-5.437,5.654-4.465,8.894s-3.493,9.939.18,13.828,9.038,3.421,11.091,2.772,6.95-4.465,6.95-4.465c-2.089-6.122-1.656-7.706-2.2-12.891S3376.994,1759.663,3369.072,1760.455Z" transform="translate(-3352.245 -1760.349)" fill="#2b1710"/>
          <path id="Trazado_100641" data-name="Trazado 100641" d="M3362.884,1836.715c7.454,4.861,17.608,3.133,18.473.216-1.4-17.608-5.33-29.276-10.227-32.732-4.465-1.728-6.086,2.737-6.086,2.737s-.648,1.584-.756,2.016c-1.837,2.7-13.288,9.182-17.5,9.723a21.7,21.7,0,0,1,1.4,4.1c1.512.324,12.207.108,12.207.108,0,.649,2.106,4.537,2.106,4.537-6.157-.054-14.8,1.188-17.392.216a26.539,26.539,0,0,0-.27,4.213c1.188.7,17.338,2.971,17.987,2.971A12.564,12.564,0,0,1,3362.884,1836.715Z" transform="translate(-3341.808 -1784.9)" fill="#3b4b5e"/>
          <path id="Trazado_100642" data-name="Trazado 100642" d="M3372.55,1781.086c.144.252,1.08.4,2.34-.108,2.089.18,2.629,2.268,3.817,5.005,0,0,.9-2.413,6.086-2.737.36,0-5.365-4.177-4.465-8.03.719-.468.972-2.737.108-3.637s-2.7-.9-2.7,1.081a5.316,5.316,0,0,1-.576-1.44s-5.15-.828-5.51-4.5c-2.089,2.088-1.872,3.781-1.548,4.9a3.794,3.794,0,0,1,.108,2.341,18.552,18.552,0,0,1-1.188,1.944c.108.18,1.224.36,1.224.36.18.108.289.648.289.756,0,.252.031.45.423.747-.243.648.3,1.337.473,1.31.486.027.972.837.972,1.35S3372.55,1781.086,3372.55,1781.086Z" transform="translate(-3355.471 -1763.948)" fill="#ff8762"/>
          <path id="Trazado_100643" data-name="Trazado 100643" d="M3375.13,1779.512c0,.5.192.9.427.9s.427-.4.427-.9-.191-.9-.427-.9S3375.13,1779.016,3375.13,1779.512Z" transform="translate(-3358.922 -1770.669)" fill="#2b1710"/>
          <g id="Grupo_53875" data-name="Grupo 53875" transform="translate(22.814 8.125)">
            <path id="Trazado_100644" data-name="Trazado 100644" d="M3390.806,1781.981c.684-.3.868-.818.738-1.223a.911.911,0,0,0-1.12-.567,1.188,1.188,0,0,1,.219-.762.881.881,0,0,1,.674-.3l0-.1a.934.934,0,0,0-.918.641,1.469,1.469,0,0,0-.071.567l0,.026h0a.08.08,0,0,0,.016.037l.048.006v0l.006,0h0a.815.815,0,0,1,1.044.486c.116.358-.033.876-.834,1.156l.035.1C3390.7,1782.024,3390.755,1782,3390.806,1781.981Z" transform="translate(-3390.317 -1779.027)" fill="#e0b3a8" style="mix-blend-mode: multiply;isolation: isolate"/>
          </g>
          <g id="Grupo_53876" data-name="Grupo 53876" transform="translate(19.959 10.906)">
            <path id="Trazado_100645" data-name="Trazado 100645" d="M3383.827,1791.144l-.074-.116a6.245,6.245,0,0,0,3.182-4.805l0-.072.072,0a1.2,1.2,0,0,0,1.333-.735l.132.042a1.346,1.346,0,0,1-1.4.836A6.45,6.45,0,0,1,3383.827,1791.144Z" transform="translate(-3383.753 -1785.42)" fill="#e0b3a8" style="mix-blend-mode: multiply;isolation: isolate"/>
          </g>
          <path id="Trazado_100646" data-name="Trazado 100646" d="M3372.319,1774.876a7.583,7.583,0,0,1,3.2.36C3373.58,1773.777,3372.175,1773.832,3372.319,1774.876Z" transform="translate(-3357.328 -1768.126)" fill="#2b1710"/>
          <path id="Trazado_100647" data-name="Trazado 100647" d="M3375.143,1790.284a16.633,16.633,0,0,0-2.656-.06.379.379,0,0,1,.005.055c0,.252.031.45.423.747a1.149,1.149,0,0,0,.439,1.307A4.731,4.731,0,0,0,3375.143,1790.284Z" transform="translate(-3357.428 -1777.21)" fill="#ff4d4d"/>
          <g id="Grupo_53878" data-name="Grupo 53878" transform="translate(15.72 12.666)">
            <g id="Grupo_53877" data-name="Grupo 53877">
              <path id="Trazado_100648" data-name="Trazado 100648" d="M3374.027,1790.658l-.019-.136a3.781,3.781,0,0,0,2.359-1.055l.107.087A3.853,3.853,0,0,1,3374.027,1790.658Z" transform="translate(-3374.008 -1789.466)" fill="#2b1710"/>
            </g>
          </g>
          <g id="Grupo_53879" data-name="Grupo 53879" transform="translate(23.439 20.625)">
            <path id="Trazado_100649" data-name="Trazado 100649" d="M3391.89,1813.2l-.137-.017c.007-.057.768-5.678,5.8-5.408l-.008.138C3392.643,1807.647,3391.9,1813.142,3391.89,1813.2Z" transform="translate(-3391.753 -1807.763)" fill="#dedede" style="mix-blend-mode: multiply;isolation: isolate"/>
          </g>
          <g id="Grupo_53880" data-name="Grupo 53880" transform="translate(19.074 26.645)">
            <path id="Trazado_100650" data-name="Trazado 100650" d="M3381.834,1832.444l-.116-.076c1-1.523,2.69-7.89,2.69-10.765h.138C3384.547,1824.5,3382.841,1830.908,3381.834,1832.444Z" transform="translate(-3381.719 -1821.603)" fill="#dedede" style="mix-blend-mode: multiply;isolation: isolate"/>
          </g>
          <g id="Grupo_53881" data-name="Grupo 53881" transform="translate(21.926 30.854)">
            <path id="Trazado_100651" data-name="Trazado 100651" d="M3388.412,1843.011l-.137-.013c.01-.108,1.025-10.755.972-11.711l.138-.007C3389.439,1832.246,3388.455,1842.572,3388.412,1843.011Z" transform="translate(-3388.275 -1831.28)" fill="#dedede" style="mix-blend-mode: multiply;isolation: isolate"/>
          </g>
          <g id="Grupo_53882" data-name="Grupo 53882" transform="translate(21.718 36.467)">
            <path id="Trazado_100652" data-name="Trazado 100652" d="M3389.535,1857.889c-1.006,0-1.721-.069-1.738-.07l.013-.138a16.527,16.527,0,0,0,6.234-.589c2.418-.947,3.832-12.788,3.846-12.907l.137.016c-.057.491-1.438,12.043-3.932,13.02A13.389,13.389,0,0,1,3389.535,1857.889Z" transform="translate(-3387.797 -1844.184)" fill="#dedede" style="mix-blend-mode: multiply;isolation: isolate"/>
          </g>
          <g id="Grupo_53883" data-name="Grupo 53883" transform="translate(11.778 54.896)">
            <path id="Trazado_100653" data-name="Trazado 100653" d="M3366.308,1908.476c-.405,0-.462-.176-.528-.493a2.206,2.206,0,0,0-.624-1.2.964.964,0,0,1-.2-.8c.219-1.93,3.611-5.9,6.98-8.162,2.453-1.65,10.532-7.337,11.494-11.266l.134.033c-.948,3.869-8.394,9.225-11.551,11.348-3.662,2.462-6.727,6.356-6.92,8.063a.835.835,0,0,0,.162.69,2.359,2.359,0,0,1,.658,1.272c.069.333.09.434.651.364.207-.026.409-.054.61-.082a11.613,11.613,0,0,1,3.007-.135c1.419.142,16.546-.5,16.7-.5l.006.138c-.624.027-15.289.647-16.718.5a11.472,11.472,0,0,0-2.973.134c-.2.028-.4.057-.612.082A2.247,2.247,0,0,1,3366.308,1908.476Z" transform="translate(-3364.947 -1886.55)" fill="#dedede" style="mix-blend-mode: multiply;isolation: isolate"/>
          </g>
          <g id="Grupo_53884" data-name="Grupo 53884" transform="translate(25.064 54.004)">
            <path id="Trazado_100654" data-name="Trazado 100654" d="M3397.538,1890.157a2.5,2.5,0,0,1-1.841-1.705,4.163,4.163,0,0,1,.774-3.952l.107.088a4.023,4.023,0,0,0-.75,3.818,2.364,2.364,0,0,0,1.737,1.616Z" transform="translate(-3395.489 -1884.5)" fill="#dedede" style="mix-blend-mode: multiply;isolation: isolate"/>
          </g>
          <g id="Grupo_53885" data-name="Grupo 53885" transform="translate(12.788 72.866)">
            <path id="Trazado_100655" data-name="Trazado 100655" d="M3368.794,1930.627a.149.149,0,0,1-.14-.071c-.166-.287.884-1.455,1.407-1.816a.662.662,0,0,0,.131-.11,6.938,6.938,0,0,0-2.226.608c-.349.146-.571.18-.659.1a.123.123,0,0,1-.035-.13c.074-.269,1.1-.938,3.248-1.345l.026.136c-2.132.4-3.095,1.063-3.139,1.239a1.053,1.053,0,0,0,.507-.128c.794-.331,2.281-.8,2.418-.546.054.1-.066.2-.191.289-.634.439-1.444,1.493-1.366,1.634a.053.053,0,0,0,.021,0,.659.659,0,0,0,.25-.081,5.958,5.958,0,0,0,1.653-1.173l.1.094a5.975,5.975,0,0,1-1.7,1.2A.819.819,0,0,1,3368.794,1930.627Z" transform="translate(-3367.267 -1927.864)" fill="#dedede" style="mix-blend-mode: multiply;isolation: isolate"/>
          </g>
        </g>
        <path id="Trazado_100656" data-name="Trazado 100656" d="M3332.051,1854.719l.246-4.126s-1.584-4.034-2.161-4.5-3.024-1.944-3.781-1.837-4.032.828-4.032.828c.936.648,3.745.288,3.853.4s.828.756.828.756a8.486,8.486,0,0,0-1.512-.36c-.4,0-3.637.18-3.528.468a4.089,4.089,0,0,0,1.4.937c-.18.288,1.332,1.477,1.332,1.477s-.9-.252-.828.036.9.684,2.593,1.657S3329.926,1854.107,3332.051,1854.719Z" transform="translate(-3321.96 -1807.754)" fill="#ff8762"/>
        <g id="Grupo_53887" data-name="Grupo 53887" transform="translate(1.727 39.457)">
          <path id="Trazado_100657" data-name="Trazado 100657" d="M3329.679,1852.6l.071-.076a11.869,11.869,0,0,0-1.306-1.088,12.894,12.894,0,0,0-2.506-.385l-.008.1a13.4,13.4,0,0,1,2.463.371A12.006,12.006,0,0,1,3329.679,1852.6Z" transform="translate(-3325.93 -1851.057)" fill="#e0b3a8" style="mix-blend-mode: multiply;isolation: isolate"/>
        </g>
      </g>
      <path id="Trazado_100658" data-name="Trazado 100658" d="M3289.591,1763.826a49.183,49.183,0,0,0,18.851.7C3297.369,1769.768,3290.239,1764.474,3289.591,1763.826Z" transform="translate(-3245.504 -1707.003)" fill="#54494d"/>
      <g id="Grupo_53889" data-name="Grupo 53889" transform="translate(43.355 38.009)">
        <path id="Trazado_100659" data-name="Trazado 100659" d="M3303.883,1728.77a24.188,24.188,0,0,1-3.92-.313,18.812,18.812,0,0,1-6.407-2.229,15.645,15.645,0,0,1-5.648-5.62l.06-.035a16.659,16.659,0,0,0,12.007,7.815,23.875,23.875,0,0,0,7.4.054l.013.067A21.341,21.341,0,0,1,3303.883,1728.77Z" transform="translate(-3287.908 -1720.573)" fill="#dedede" style="mix-blend-mode: multiply;isolation: isolate"/>
      </g>
      <g id="Grupo_53890" data-name="Grupo 53890" transform="translate(44.498 47.726)">
        <path id="Trazado_100660" data-name="Trazado 100660" d="M3298.317,1745.933a12.626,12.626,0,0,1-7.781-2.484l.042-.055a13.6,13.6,0,0,0,10.729,2.2c3.247-.571,5.941-1.948,6.562-2.682l.052.045c-.627.742-3.34,2.132-6.6,2.705A17.422,17.422,0,0,1,3298.317,1745.933Z" transform="translate(-3290.536 -1742.913)" fill="#dedede" style="mix-blend-mode: multiply;isolation: isolate"/>
      </g>
      <g id="Grupo_53891" data-name="Grupo 53891" transform="translate(49.473 68.102)">
        <path id="Trazado_100661" data-name="Trazado 100661" d="M3306.121,1823.491c-3.851-4.9-6.461-16.679-1.14-33.736l.066.021c-5.313,17.032-2.713,28.784,1.128,33.673Z" transform="translate(-3301.974 -1789.755)" fill="#dedede" style="mix-blend-mode: multiply;isolation: isolate"/>
      </g>
      <g id="Grupo_53892" data-name="Grupo 53892" transform="translate(37.572 95.334)">
        <path id="Trazado_100662" data-name="Trazado 100662" d="M3274.68,1888.183l-.065-.022c2.593-7.53,3.6-16.862,3.988-23.365.42-7.047.225-12.381.222-12.434l.07,0c0,.053.2,5.39-.224,12.44C3278.284,1871.306,3277.276,1880.646,3274.68,1888.183Z" transform="translate(-3274.615 -1852.359)" fill="#dedede" style="mix-blend-mode: multiply;isolation: isolate"/>
      </g>
      <g id="Grupo_53893" data-name="Grupo 53893" transform="translate(50.373 113.152)">
        <path id="Trazado_100663" data-name="Trazado 100663" d="M3305.569,1912.777l-.069,0a77.239,77.239,0,0,0-1.458-19.435l.067-.015A77.3,77.3,0,0,1,3305.569,1912.777Z" transform="translate(-3304.042 -1893.322)" fill="#dedede" style="mix-blend-mode: multiply;isolation: isolate"/>
      </g>
    </g>
    <path id="Trazado_100664" data-name="Trazado 100664" d="M2900.368,1748.478v-2.447h-13.224v-2.73H2795.5v4.989h-13.166v2.447H2795.5v5.01h-10.517v2.447H2795.5v5.01h-13.166v2.447H2795.5v7.415h-13.166v2.447H2795.5v9.821h-10.517v2.447H2795.5v8.858h-13.166v2.447H2795.5v5.01h-10.517v2.447H2795.5v5.01h-13.166V1814H2795.5v7.415h-13.166v2.447H2795.5v5.01h-10.517v2.447H2795.5v1.966h91.643v-4.225h10.574v-2.447h-10.574v-5.01h13.224v-2.448h-13.224v-7.415h13.224v-2.447h-13.224v-5.01h10.574v-2.447h-10.574v-5.01h13.224v-2.447h-13.224v-8.858h10.574v-2.447h-10.574v-9.821h13.224v-2.447h-13.224v-7.415h13.224v-2.447h-13.224v-5.01h10.574v-2.447h-10.574v-5.01Z" transform="translate(-74.961 -196.776)" fill="#dedede" style="mix-blend-mode: multiply;isolation: isolate"/>
    <g id="Grupo_53895" data-name="Grupo 53895" transform="translate(2701.811 1537.402)">
      <rect id="Rectángulo_5094" data-name="Rectángulo 5094" width="91.643" height="99.108" transform="translate(13.166 0)" fill="#ff9696"/>
      <rect id="Rectángulo_5095" data-name="Rectángulo 5095" width="21.252" height="2.695" transform="translate(0 5.494)" fill="#ff9696"/>
      <rect id="Rectángulo_5096" data-name="Rectángulo 5096" width="21.252" height="2.695" transform="translate(2.649 13.707)" fill="#ff9696"/>
      <rect id="Rectángulo_5097" data-name="Rectángulo 5097" width="21.252" height="2.695" transform="translate(0 21.92)" fill="#ff9696"/>
      <rect id="Rectángulo_5098" data-name="Rectángulo 5098" width="21.252" height="2.695" transform="translate(0 32.782)" fill="#ff9696"/>
      <rect id="Rectángulo_5099" data-name="Rectángulo 5099" width="21.252" height="2.695" transform="translate(2.649 46.294)" fill="#ff9696"/>
      <rect id="Rectángulo_5100" data-name="Rectángulo 5100" width="21.252" height="2.695" transform="translate(0 58.746)" fill="#ff9696"/>
      <rect id="Rectángulo_5101" data-name="Rectángulo 5101" width="21.252" height="2.695" transform="translate(2.649 66.959)" fill="#ff9696"/>
      <rect id="Rectángulo_5102" data-name="Rectángulo 5102" width="21.252" height="2.695" transform="translate(0 75.172)" fill="#ff9696"/>
      <rect id="Rectángulo_5103" data-name="Rectángulo 5103" width="21.252" height="2.695" transform="translate(0 86.034)" fill="#ff9696"/>
      <rect id="Rectángulo_5104" data-name="Rectángulo 5104" width="21.252" height="2.695" transform="translate(2.649 94.247)" fill="#ff9696"/>
      <rect id="Rectángulo_5105" data-name="Rectángulo 5105" width="21.252" height="2.695" transform="translate(118.033 5.702) rotate(180)" fill="#ff9696"/>
      <rect id="Rectángulo_5106" data-name="Rectángulo 5106" width="21.252" height="2.695" transform="translate(115.384 13.915) rotate(180)" fill="#ff9696"/>
      <rect id="Rectángulo_5107" data-name="Rectángulo 5107" width="21.252" height="2.695" transform="translate(118.033 22.128) rotate(180)" fill="#ff9696"/>
      <rect id="Rectángulo_5108" data-name="Rectángulo 5108" width="21.252" height="2.695" transform="translate(118.033 32.99) rotate(180)" fill="#ff9696"/>
      <rect id="Rectángulo_5109" data-name="Rectángulo 5109" width="21.252" height="2.695" transform="translate(115.384 46.501) rotate(180)" fill="#ff9696"/>
      <rect id="Rectángulo_5110" data-name="Rectángulo 5110" width="21.252" height="2.695" transform="translate(118.033 58.953) rotate(180)" fill="#ff9696"/>
      <rect id="Rectángulo_5111" data-name="Rectángulo 5111" width="21.252" height="2.695" transform="translate(115.384 67.166) rotate(180)" fill="#ff9696"/>
      <rect id="Rectángulo_5112" data-name="Rectángulo 5112" width="21.252" height="2.695" transform="translate(118.033 75.379) rotate(180)" fill="#ff9696"/>
      <rect id="Rectángulo_5113" data-name="Rectángulo 5113" width="21.252" height="2.695" transform="translate(118.033 86.241) rotate(180)" fill="#ff9696"/>
      <rect id="Rectángulo_5114" data-name="Rectángulo 5114" width="21.252" height="2.695" transform="translate(115.384 94.454) rotate(180)" fill="#ff9696"/>
      <path id="Trazado_100665" data-name="Trazado 100665" d="M2826.381,1734.177l-5.424,5.425a1.659,1.659,0,0,1-2.346,0h0a1.659,1.659,0,0,1,0-2.346l5.425-5.425a1.658,1.658,0,0,1,2.345,0h0A1.659,1.659,0,0,1,2826.381,1734.177Z" transform="translate(-2796.994 -1727.423)" fill="#ffb5b5"/>
      <path id="Trazado_100666" data-name="Trazado 100666" d="M2863.534,1734.177l-5.425,5.425a1.659,1.659,0,0,1-2.346,0h0a1.658,1.658,0,0,1,0-2.346l5.425-5.425a1.659,1.659,0,0,1,2.345,0h0A1.659,1.659,0,0,1,2863.534,1734.177Z" transform="translate(-2817.985 -1727.423)" fill="#ffb5b5"/>
      <path id="Trazado_100667" data-name="Trazado 100667" d="M2900.687,1734.177l-5.425,5.425a1.659,1.659,0,0,1-2.346,0h0a1.658,1.658,0,0,1,0-2.346l5.425-5.425a1.659,1.659,0,0,1,2.346,0h0A1.659,1.659,0,0,1,2900.687,1734.177Z" transform="translate(-2838.978 -1727.423)" fill="#ffb5b5"/>
      <path id="Trazado_100668" data-name="Trazado 100668" d="M2937.84,1734.177l-5.425,5.425a1.659,1.659,0,0,1-2.346,0h0a1.659,1.659,0,0,1,0-2.346l5.424-5.425a1.659,1.659,0,0,1,2.346,0h0A1.659,1.659,0,0,1,2937.84,1734.177Z" transform="translate(-2859.969 -1727.423)" fill="#ffb5b5"/>
      <path id="Trazado_100669" data-name="Trazado 100669" d="M2974.993,1734.177l-5.425,5.425a1.659,1.659,0,0,1-2.346,0h0a1.659,1.659,0,0,1,0-2.346l5.425-5.425a1.659,1.659,0,0,1,2.346,0h0A1.659,1.659,0,0,1,2974.993,1734.177Z" transform="translate(-2880.962 -1727.423)" fill="#ffb5b5"/>
      <path id="Trazado_100670" data-name="Trazado 100670" d="M2826.381,1765.239l-5.424,5.425a1.659,1.659,0,0,1-2.346,0h0a1.659,1.659,0,0,1,0-2.346l5.425-5.424a1.658,1.658,0,0,1,2.345,0h0A1.658,1.658,0,0,1,2826.381,1765.239Z" transform="translate(-2796.994 -1744.974)" fill="#ffb5b5"/>
      <path id="Trazado_100671" data-name="Trazado 100671" d="M2863.534,1765.239l-5.425,5.425a1.659,1.659,0,0,1-2.346,0h0a1.659,1.659,0,0,1,0-2.346l5.425-5.424a1.658,1.658,0,0,1,2.345,0h0A1.658,1.658,0,0,1,2863.534,1765.239Z" transform="translate(-2817.985 -1744.974)" fill="#ffb5b5"/>
      <path id="Trazado_100672" data-name="Trazado 100672" d="M2900.687,1765.239l-5.425,5.425a1.659,1.659,0,0,1-2.346,0h0a1.659,1.659,0,0,1,0-2.346l5.425-5.424a1.658,1.658,0,0,1,2.346,0h0A1.658,1.658,0,0,1,2900.687,1765.239Z" transform="translate(-2838.978 -1744.974)" fill="#ffb5b5"/>
      <path id="Trazado_100673" data-name="Trazado 100673" d="M2937.84,1765.239l-5.425,5.425a1.659,1.659,0,0,1-2.346,0h0a1.659,1.659,0,0,1,0-2.346l5.424-5.424a1.659,1.659,0,0,1,2.346,0h0A1.658,1.658,0,0,1,2937.84,1765.239Z" transform="translate(-2859.969 -1744.974)" fill="#ffb5b5"/>
      <path id="Trazado_100674" data-name="Trazado 100674" d="M2974.993,1765.239l-5.425,5.425a1.66,1.66,0,0,1-2.346,0h0a1.659,1.659,0,0,1,0-2.346l5.425-5.424a1.658,1.658,0,0,1,2.346,0h0A1.658,1.658,0,0,1,2974.993,1765.239Z" transform="translate(-2880.962 -1744.974)" fill="#ffb5b5"/>
      <path id="Trazado_100675" data-name="Trazado 100675" d="M2826.381,1796.3l-5.424,5.424a1.659,1.659,0,0,1-2.346,0h0a1.659,1.659,0,0,1,0-2.345l5.425-5.425a1.658,1.658,0,0,1,2.345,0h0A1.659,1.659,0,0,1,2826.381,1796.3Z" transform="translate(-2796.994 -1762.525)" fill="#ffb5b5"/>
      <path id="Trazado_100676" data-name="Trazado 100676" d="M2863.534,1796.3l-5.425,5.424a1.659,1.659,0,0,1-2.346,0h0a1.658,1.658,0,0,1,0-2.345l5.425-5.425a1.659,1.659,0,0,1,2.345,0h0A1.659,1.659,0,0,1,2863.534,1796.3Z" transform="translate(-2817.985 -1762.525)" fill="#ffb5b5"/>
      <path id="Trazado_100677" data-name="Trazado 100677" d="M2900.687,1796.3l-5.425,5.424a1.659,1.659,0,0,1-2.346,0h0a1.658,1.658,0,0,1,0-2.345l5.425-5.425a1.659,1.659,0,0,1,2.346,0h0A1.659,1.659,0,0,1,2900.687,1796.3Z" transform="translate(-2838.978 -1762.525)" fill="#ffb5b5"/>
      <path id="Trazado_100678" data-name="Trazado 100678" d="M2937.84,1796.3l-5.425,5.424a1.659,1.659,0,0,1-2.346,0h0a1.658,1.658,0,0,1,0-2.345l5.424-5.425a1.659,1.659,0,0,1,2.346,0h0A1.659,1.659,0,0,1,2937.84,1796.3Z" transform="translate(-2859.969 -1762.525)" fill="#ffb5b5"/>
      <path id="Trazado_100679" data-name="Trazado 100679" d="M2974.993,1796.3l-5.425,5.424a1.66,1.66,0,0,1-2.346,0h0a1.659,1.659,0,0,1,0-2.345l5.425-5.425a1.659,1.659,0,0,1,2.346,0h0A1.659,1.659,0,0,1,2974.993,1796.3Z" transform="translate(-2880.962 -1762.525)" fill="#ffb5b5"/>
      <path id="Trazado_100680" data-name="Trazado 100680" d="M2826.381,1827.364l-5.424,5.424a1.658,1.658,0,0,1-2.346,0h0a1.659,1.659,0,0,1,0-2.346l5.425-5.425a1.658,1.658,0,0,1,2.345,0h0A1.658,1.658,0,0,1,2826.381,1827.364Z" transform="translate(-2796.994 -1780.075)" fill="#ffb5b5"/>
      <path id="Trazado_100681" data-name="Trazado 100681" d="M2863.534,1827.364l-5.425,5.424a1.658,1.658,0,0,1-2.346,0h0a1.658,1.658,0,0,1,0-2.346l5.425-5.425a1.659,1.659,0,0,1,2.345,0h0A1.659,1.659,0,0,1,2863.534,1827.364Z" transform="translate(-2817.985 -1780.075)" fill="#ffb5b5"/>
      <path id="Trazado_100682" data-name="Trazado 100682" d="M2900.687,1827.364l-5.425,5.424a1.658,1.658,0,0,1-2.346,0h0a1.658,1.658,0,0,1,0-2.346l5.425-5.425a1.659,1.659,0,0,1,2.346,0h0A1.659,1.659,0,0,1,2900.687,1827.364Z" transform="translate(-2838.978 -1780.075)" fill="#ffb5b5"/>
      <path id="Trazado_100683" data-name="Trazado 100683" d="M2937.84,1827.364l-5.425,5.424a1.658,1.658,0,0,1-2.346,0h0a1.659,1.659,0,0,1,0-2.346l5.424-5.425a1.659,1.659,0,0,1,2.346,0h0A1.658,1.658,0,0,1,2937.84,1827.364Z" transform="translate(-2859.969 -1780.075)" fill="#ffb5b5"/>
      <path id="Trazado_100684" data-name="Trazado 100684" d="M2974.993,1827.364l-5.425,5.424a1.659,1.659,0,0,1-2.346,0h0a1.659,1.659,0,0,1,0-2.346l5.425-5.425a1.659,1.659,0,0,1,2.346,0h0A1.659,1.659,0,0,1,2974.993,1827.364Z" transform="translate(-2880.962 -1780.075)" fill="#ffb5b5"/>
      <path id="Trazado_100685" data-name="Trazado 100685" d="M2826.381,1858.426l-5.424,5.425a1.659,1.659,0,0,1-2.346,0h0a1.659,1.659,0,0,1,0-2.346l5.425-5.425a1.658,1.658,0,0,1,2.345,0h0A1.658,1.658,0,0,1,2826.381,1858.426Z" transform="translate(-2796.994 -1797.626)" fill="#ffb5b5"/>
      <path id="Trazado_100686" data-name="Trazado 100686" d="M2863.534,1858.426l-5.425,5.425a1.659,1.659,0,0,1-2.346,0h0a1.658,1.658,0,0,1,0-2.346l5.425-5.425a1.659,1.659,0,0,1,2.345,0h0A1.659,1.659,0,0,1,2863.534,1858.426Z" transform="translate(-2817.985 -1797.626)" fill="#ffb5b5"/>
      <path id="Trazado_100687" data-name="Trazado 100687" d="M2900.687,1858.426l-5.425,5.425a1.659,1.659,0,0,1-2.346,0h0a1.658,1.658,0,0,1,0-2.346l5.425-5.425a1.659,1.659,0,0,1,2.346,0h0A1.659,1.659,0,0,1,2900.687,1858.426Z" transform="translate(-2838.978 -1797.626)" fill="#ffb5b5"/>
      <path id="Trazado_100688" data-name="Trazado 100688" d="M2937.84,1858.426l-5.425,5.425a1.659,1.659,0,0,1-2.346,0h0a1.659,1.659,0,0,1,0-2.346l5.424-5.425a1.659,1.659,0,0,1,2.346,0h0A1.658,1.658,0,0,1,2937.84,1858.426Z" transform="translate(-2859.969 -1797.626)" fill="#ffb5b5"/>
      <path id="Trazado_100689" data-name="Trazado 100689" d="M2974.993,1858.426l-5.425,5.425a1.66,1.66,0,0,1-2.346,0h0a1.659,1.659,0,0,1,0-2.346l5.425-5.425a1.659,1.659,0,0,1,2.346,0h0A1.659,1.659,0,0,1,2974.993,1858.426Z" transform="translate(-2880.962 -1797.626)" fill="#ffb5b5"/>
      <path id="Trazado_100690" data-name="Trazado 100690" d="M2826.381,1889.488l-5.424,5.425a1.659,1.659,0,0,1-2.346,0h0a1.659,1.659,0,0,1,0-2.346l5.425-5.425a1.658,1.658,0,0,1,2.345,0h0A1.659,1.659,0,0,1,2826.381,1889.488Z" transform="translate(-2796.994 -1815.176)" fill="#ffb5b5"/>
      <path id="Trazado_100691" data-name="Trazado 100691" d="M2863.534,1889.488l-5.425,5.425a1.659,1.659,0,0,1-2.346,0h0a1.658,1.658,0,0,1,0-2.346l5.425-5.425a1.659,1.659,0,0,1,2.345,0h0A1.659,1.659,0,0,1,2863.534,1889.488Z" transform="translate(-2817.985 -1815.176)" fill="#ffb5b5"/>
      <path id="Trazado_100692" data-name="Trazado 100692" d="M2900.687,1889.488l-5.425,5.425a1.659,1.659,0,0,1-2.346,0h0a1.658,1.658,0,0,1,0-2.346l5.425-5.425a1.659,1.659,0,0,1,2.346,0h0A1.659,1.659,0,0,1,2900.687,1889.488Z" transform="translate(-2838.978 -1815.176)" fill="#ffb5b5"/>
      <path id="Trazado_100693" data-name="Trazado 100693" d="M2937.84,1889.488l-5.425,5.425a1.659,1.659,0,0,1-2.346,0h0a1.659,1.659,0,0,1,0-2.346l5.424-5.425a1.659,1.659,0,0,1,2.346,0h0A1.659,1.659,0,0,1,2937.84,1889.488Z" transform="translate(-2859.969 -1815.176)" fill="#ffb5b5"/>
      <path id="Trazado_100694" data-name="Trazado 100694" d="M2974.993,1889.488l-5.425,5.425a1.66,1.66,0,0,1-2.346,0h0a1.659,1.659,0,0,1,0-2.346l5.425-5.425a1.659,1.659,0,0,1,2.346,0h0A1.659,1.659,0,0,1,2974.993,1889.488Z" transform="translate(-2880.962 -1815.176)" fill="#ffb5b5"/>
      <path id="Trazado_100695" data-name="Trazado 100695" d="M2826.381,1920.55l-5.424,5.424a1.659,1.659,0,0,1-2.346,0h0a1.659,1.659,0,0,1,0-2.346l5.425-5.425a1.658,1.658,0,0,1,2.345,0h0A1.659,1.659,0,0,1,2826.381,1920.55Z" transform="translate(-2796.994 -1832.727)" fill="#ffb5b5"/>
      <path id="Trazado_100696" data-name="Trazado 100696" d="M2863.534,1920.55l-5.425,5.424a1.659,1.659,0,0,1-2.346,0h0a1.658,1.658,0,0,1,0-2.346l5.425-5.425a1.658,1.658,0,0,1,2.345,0h0A1.659,1.659,0,0,1,2863.534,1920.55Z" transform="translate(-2817.985 -1832.727)" fill="#ffb5b5"/>
      <path id="Trazado_100697" data-name="Trazado 100697" d="M2900.687,1920.55l-5.425,5.424a1.659,1.659,0,0,1-2.346,0h0a1.658,1.658,0,0,1,0-2.346l5.425-5.425a1.659,1.659,0,0,1,2.346,0h0A1.659,1.659,0,0,1,2900.687,1920.55Z" transform="translate(-2838.978 -1832.727)" fill="#ffb5b5"/>
      <path id="Trazado_100698" data-name="Trazado 100698" d="M2937.84,1920.55l-5.425,5.424a1.659,1.659,0,0,1-2.346,0h0a1.659,1.659,0,0,1,0-2.346l5.424-5.425a1.659,1.659,0,0,1,2.346,0h0A1.659,1.659,0,0,1,2937.84,1920.55Z" transform="translate(-2859.969 -1832.727)" fill="#ffb5b5"/>
      <path id="Trazado_100699" data-name="Trazado 100699" d="M2974.993,1920.55l-5.425,5.424a1.659,1.659,0,0,1-2.346,0h0a1.659,1.659,0,0,1,0-2.346l5.425-5.425a1.659,1.659,0,0,1,2.346,0h0A1.659,1.659,0,0,1,2974.993,1920.55Z" transform="translate(-2880.962 -1832.727)" fill="#ffb5b5"/>
    </g>
    <path id="Trazado_100700" data-name="Trazado 100700" d="M2961.782,1884.157l.014.073a5.327,5.327,0,0,0,10.606,0l-.008-.073a5.326,5.326,0,0,1,10.605,0l.014.073a5.326,5.326,0,0,0,10.6,0v-37.436a5.326,5.326,0,0,0-10.6,0l-.014.073a5.326,5.326,0,0,1-10.605,0l.008-.073a5.327,5.327,0,0,0-10.606,0l-.014.073a5.326,5.326,0,0,1-10.6,0l.007-.073a5.326,5.326,0,0,0-10.605,0v37.436a5.326,5.326,0,0,0,10.605,0l-.007-.073a5.326,5.326,0,0,1,10.6,0Z" transform="translate(-164.372 -252.525)" fill="#dedede" style="mix-blend-mode: multiply;isolation: isolate"/>
    <path id="Trazado_100701" data-name="Trazado 100701" d="M2948.992,1877.612l.014.08a5.3,5.3,0,1,0,10.605,0l-.007-.08a5.3,5.3,0,1,1,10.605,0l.014.08a5.3,5.3,0,1,0,10.605,0v-41.146a5.3,5.3,0,1,0-10.605,0l-.014.081a5.3,5.3,0,0,1-10.605,0l.007-.081a5.3,5.3,0,1,0-10.605,0l-.014.081a5.3,5.3,0,0,1-10.6,0l.007-.081a5.3,5.3,0,0,0-10.606,0v41.146a5.3,5.3,0,1,0,10.606,0l-.007-.08a5.3,5.3,0,1,1,10.6,0Z" transform="translate(-157.144 -246.465)" fill="#fff4c5"/>
    <rect id="Rectángulo_5115" data-name="Rectángulo 5115" width="64.275" height="23.637" transform="translate(2722.925 1467.184)" fill="#c4c4c4" style="mix-blend-mode: multiply;isolation: isolate"/>
    <rect id="Rectángulo_5116" data-name="Rectángulo 5116" width="64.275" height="23.637" transform="translate(2722.234 1464.834)" fill="#fff4c5"/>
    <g id="Grupo_53900" data-name="Grupo 53900" transform="translate(2740.428 1407.439)">
      <g id="Grupo_53899" data-name="Grupo 53899">
        <g id="Grupo_53896" data-name="Grupo 53896">
          <path id="Trazado_100702" data-name="Trazado 100702" d="M2863.054,1433.013a4.731,4.731,0,1,1,4.731-4.731A4.736,4.736,0,0,1,2863.054,1433.013Zm0-8.964a4.233,4.233,0,1,0,4.233,4.233A4.237,4.237,0,0,0,2863.054,1424.049Z" transform="translate(-2858.323 -1423.551)" fill="#b5ac84"/>
        </g>
        <g id="Grupo_53897" data-name="Grupo 53897" transform="translate(2.122 4.078)">
          <path id="Trazado_100703" data-name="Trazado 100703" d="M2863.854,1434.232a.653.653,0,1,1,.653-.653A.654.654,0,0,1,2863.854,1434.232Zm0-.974a.321.321,0,1,0,.321.321A.321.321,0,0,0,2863.854,1433.257Z" transform="translate(-2863.201 -1432.925)" fill="#b5ac84"/>
        </g>
        <g id="Grupo_53898" data-name="Grupo 53898" transform="translate(5.94 4.078)">
          <path id="Trazado_100704" data-name="Trazado 100704" d="M2872.631,1434.232a.653.653,0,1,1,.653-.653A.654.654,0,0,1,2872.631,1434.232Zm0-.974a.321.321,0,1,0,.322.321A.321.321,0,0,0,2872.631,1433.257Z" transform="translate(-2871.978 -1432.925)" fill="#b5ac84"/>
        </g>
      </g>
    </g>
    <g id="Grupo_53905" data-name="Grupo 53905" transform="translate(3006.329 1430.464)">
      <g id="Grupo_53904" data-name="Grupo 53904">
        <g id="Grupo_53901" data-name="Grupo 53901">
          <path id="Trazado_100705" data-name="Trazado 100705" d="M3474.344,1485.946a4.731,4.731,0,1,1,4.73-4.731A4.736,4.736,0,0,1,3474.344,1485.946Zm0-8.964a4.233,4.233,0,1,0,4.233,4.233A4.238,4.238,0,0,0,3474.344,1476.982Z" transform="translate(-3469.613 -1476.484)" fill="#b5ac84"/>
        </g>
        <g id="Grupo_53902" data-name="Grupo 53902" transform="translate(2.122 4.078)">
          <path id="Trazado_100706" data-name="Trazado 100706" d="M3475.144,1487.164a.653.653,0,1,1,.653-.653A.654.654,0,0,1,3475.144,1487.164Zm0-.974a.321.321,0,1,0,.321.321A.321.321,0,0,0,3475.144,1486.19Z" transform="translate(-3474.491 -1485.858)" fill="#b5ac84"/>
        </g>
        <g id="Grupo_53903" data-name="Grupo 53903" transform="translate(5.94 4.078)">
          <path id="Trazado_100707" data-name="Trazado 100707" d="M3483.921,1487.164a.653.653,0,1,1,.654-.653A.654.654,0,0,1,3483.921,1487.164Zm0-.974a.321.321,0,1,0,.322.321A.321.321,0,0,0,3483.921,1486.19Z" transform="translate(-3483.268 -1485.858)" fill="#b5ac84"/>
        </g>
      </g>
    </g>
    <g id="Grupo_53914" data-name="Grupo 53914" transform="translate(2936.617 1401.333)">
      <g id="Grupo_53913" data-name="Grupo 53913" transform="translate(0 0)">
        <g id="Grupo_53906" data-name="Grupo 53906" transform="translate(0 2.215)">
          <path id="Trazado_100708" data-name="Trazado 100708" d="M3319.263,1430.031h-9.912v-15.425h9.912Zm-9.157-.755h8.4V1415.36h-8.4Z" transform="translate(-3309.351 -1414.605)" fill="#b5ac84"/>
        </g>
        <g id="Grupo_53907" data-name="Grupo 53907" transform="translate(2.756)">
          <path id="Trazado_100709" data-name="Trazado 100709" d="M3320.087,1412.433h-4.4v-2.921h4.4Zm-3.643-.755h2.888v-1.411h-2.888Z" transform="translate(-3315.688 -1409.512)" fill="#b5ac84"/>
        </g>
        <g id="Grupo_53908" data-name="Grupo 53908" transform="translate(2.756 16.908)">
          <path id="Trazado_100710" data-name="Trazado 100710" d="M3320.087,1451.3h-4.4v-2.921h4.4Zm-3.643-.755h2.888v-1.411h-2.888Z" transform="translate(-3315.688 -1448.382)" fill="#b5ac84"/>
        </g>
        <g id="Grupo_53909" data-name="Grupo 53909" transform="translate(0.968 3.43)">
          <path id="Trazado_100711" data-name="Trazado 100711" d="M3319.01,1422.7a.39.39,0,0,1-.1-.013c-1.369-.369-5.635-2.17-7.275-4.707a.377.377,0,1,1,.634-.409c1.5,2.322,5.6,4.052,6.838,4.387a.378.378,0,0,1-.1.742Z" transform="translate(-3311.576 -1417.397)" fill="#b5ac84"/>
        </g>
        <g id="Grupo_53910" data-name="Grupo 53910" transform="translate(0.968 5.842)">
          <path id="Trazado_100712" data-name="Trazado 100712" d="M3319.01,1428.244a.365.365,0,0,1-.1-.013c-1.369-.369-5.635-2.17-7.275-4.706a.377.377,0,0,1,.634-.41c1.5,2.322,5.6,4.053,6.838,4.388a.378.378,0,0,1-.1.742Z" transform="translate(-3311.576 -1422.942)" fill="#b5ac84"/>
        </g>
        <g id="Grupo_53911" data-name="Grupo 53911" transform="translate(0.968 8.253)">
          <path id="Trazado_100713" data-name="Trazado 100713" d="M3319.01,1433.788a.385.385,0,0,1-.1-.013c-1.369-.369-5.635-2.17-7.275-4.706a.378.378,0,0,1,.634-.41c1.5,2.323,5.6,4.053,6.838,4.388a.377.377,0,0,1-.1.742Z" transform="translate(-3311.576 -1428.486)" fill="#b5ac84"/>
        </g>
        <g id="Grupo_53912" data-name="Grupo 53912" transform="translate(0.968 10.665)">
          <path id="Trazado_100714" data-name="Trazado 100714" d="M3319.01,1439.332a.364.364,0,0,1-.1-.013c-1.369-.369-5.635-2.17-7.275-4.707a.377.377,0,1,1,.634-.41c1.5,2.322,5.6,4.052,6.838,4.387a.377.377,0,0,1-.1.742Z" transform="translate(-3311.576 -1434.03)" fill="#b5ac84"/>
        </g>
      </g>
    </g>
    <path id="Trazado_100715" data-name="Trazado 100715" d="M3484.45,1637.577a.285.285,0,0,0-.317.254,1.7,1.7,0,0,1-.92,1.112c-.664.376-2.158.835-4.7-.328-2.257-1.031-4.318-1.131-5.653-.273a2.831,2.831,0,0,0-1.026,1.146c-.02,0-.038-.006-.059-.006a1.239,1.239,0,0,0-1.239,1.239c0,.684.555,16.437,1.239,16.437s1.24-15.753,1.24-16.437a1.233,1.233,0,0,0-.618-1.067,2.279,2.279,0,0,1,.774-.828c1.167-.75,3.027-.636,5.1.313,2.775,1.269,4.464.736,5.224.305a2.243,2.243,0,0,0,1.208-1.549A.288.288,0,0,0,3484.45,1637.577Zm-12,3.383a.676.676,0,1,1-.882-.64,3.5,3.5,0,0,0-.053.584.288.288,0,0,0,.575,0,2.847,2.847,0,0,1,.049-.511A.674.674,0,0,1,3472.451,1640.96Z" transform="translate(-463.805 -137.039)" fill="#b5ac84"/>
    <g id="Grupo_53919" data-name="Grupo 53919" transform="translate(2686.734 1491.813)">
      <g id="Grupo_53918" data-name="Grupo 53918" transform="translate(0 0)">
        <g id="Grupo_53915" data-name="Grupo 53915">
          <path id="Trazado_100716" data-name="Trazado 100716" d="M2735.564,1638.01c-1.988-1.484.655-7.5,4.359-12.465s8.724-9.208,10.712-7.724-.656,7.5-4.36,12.465S2737.552,1639.494,2735.564,1638.01Zm14.756-19.769c-1.33-.993-5.656,1.831-9.976,7.617s-5.8,10.737-4.467,11.73,5.656-1.831,9.976-7.618S2751.651,1619.234,2750.321,1618.241Z" transform="translate(-2734.884 -1617.52)" fill="#b5ac84"/>
        </g>
        <g id="Grupo_53916" data-name="Grupo 53916" transform="translate(0.017 13.944)">
          <path id="Trazado_100717" data-name="Trazado 100717" d="M2735.587,1656.122c-1.042-.778-.834-2.758.471-4.508s3.146-2.512,4.188-1.734.834,2.757-.472,4.507S2736.629,1656.9,2735.587,1656.122Zm4.345-5.821c-.779-.582-2.36.164-3.452,1.627s-1.357,3.191-.579,3.772,2.36-.164,3.453-1.627S2740.71,1650.883,2739.932,1650.3Z" transform="translate(-2734.924 -1649.576)" fill="#b5ac84"/>
        </g>
        <g id="Grupo_53917" data-name="Grupo 53917" transform="translate(9.058 0.264)">
          <path id="Trazado_100718" data-name="Trazado 100718" d="M2759.621,1621.888a1.574,1.574,0,0,1,.344,2.17,7.44,7.44,0,0,1,.958,1.563c1.85-3.514,2.462-6.4,1.322-7.247s-3.707.543-6.535,3.292a7.186,7.186,0,0,1,1.75.489A1.575,1.575,0,0,1,2759.621,1621.888Z" transform="translate(-2755.708 -1618.127)" fill="#b5ac84"/>
        </g>
      </g>
    </g>
    <g id="Grupo_53921" data-name="Grupo 53921" transform="translate(2649.665 1564.704)">
      <g id="Grupo_53920" data-name="Grupo 53920" transform="translate(0 0)">
        <path id="Trazado_100719" data-name="Trazado 100719" d="M2661.82,1799.381l-4.642-3.373-4.643,3.373,1.773-5.458-4.642-3.373h5.739l1.773-5.458,1.773,5.458h5.739l-4.643,3.373Zm-4.642-4.1,3.529,2.564-1.348-4.149,3.529-2.564h-4.363l-1.348-4.149-1.348,4.149h-4.363l3.53,2.564-1.348,4.149Z" transform="translate(-2649.665 -1785.093)" fill="#b5ac84"/>
      </g>
    </g>
    <g id="Grupo_53923" data-name="Grupo 53923" transform="translate(3016.913 1592.655)">
      <g id="Grupo_53922" data-name="Grupo 53922" transform="translate(0 0)">
        <path id="Trazado_100720" data-name="Trazado 100720" d="M3506.1,1863.639l-4.643-3.373-4.642,3.373,1.773-5.458-4.643-3.373h5.739l1.773-5.458,1.774,5.458h5.739l-4.642,3.373Zm-4.643-4.1,3.53,2.564-1.349-4.149,3.53-2.564H3502.8l-1.349-4.15-1.348,4.15h-4.363l3.53,2.564-1.349,4.149Z" transform="translate(-3493.944 -1849.351)" fill="#b5ac84"/>
      </g>
    </g>
  </g>
</svg>
