<svg id="Grupo_56431" data-name="Grupo 56431" xmlns="http://www.w3.org/2000/svg" width="142.984" height="142.984" viewBox="0 0 142.984 142.984">
  <g id="BULINE" transform="translate(0)">
    <circle id="Elipse_4077" data-name="Elipse 4077" cx="71.492" cy="71.492" r="71.492" fill="#86bec4"/>
  </g>
  <g id="Icons" transform="translate(12.115 23.034)">
    <path id="Trazado_124812" data-name="Trazado 124812" d="M332.19,2429.5H301.206l.968-10.71.464-5.116h28.12l.463,5.116Z" transform="translate(-257.738 -2337.937)" fill="#e5e5e5"/>
    <path id="Trazado_124813" data-name="Trazado 124813" d="M331.075,2418.787H302.028l.464-5.116h28.12Z" transform="translate(-257.592 -2337.937)" fill="#ccc"/>
    <path id="Trazado_124814" data-name="Trazado 124814" d="M297.268,2427.106h41.314a2.966,2.966,0,0,1,2.966,2.966v1.447a.955.955,0,0,1-.955.954H295.259a.955.955,0,0,1-.954-.954h0v-1.436a2.965,2.965,0,0,1,2.954-2.977Z" transform="translate(-258.966 -2335.546)" fill="#fff"/>
    <rect id="Rect치ngulo_5523" data-name="Rect치ngulo 5523" width="117.917" height="75.938" rx="3.613" fill="#3e436d"/>
    <path id="Trazado_124815" data-name="Trazado 124815" d="M287.5,2425.315H268.564a4.258,4.258,0,0,1-4.258-4.256v-67.427a4.257,4.257,0,0,1,4.258-4.252H287.5a4.256,4.256,0,0,0-4.26,4.252h0v67.427a4.257,4.257,0,0,0,4.256,4.256Z" transform="translate(-264.306 -2349.38)" fill="#32314b"/>
    <circle id="Elipse_4078" data-name="Elipse 4078" cx="1.435" cy="1.435" r="1.435" transform="translate(58.082 1.374)" fill="#27273d"/>
    <rect id="Rect치ngulo_5524" data-name="Rect치ngulo 5524" width="109.221" height="64.988" rx="3.217" transform="translate(4.351 5.474)" fill="#fff"/>
    <path id="Trazado_124816" data-name="Trazado 124816" d="M282.583,2354.026v64.988h-10.8a3.788,3.788,0,0,1-3.778-3.792v-57.406a3.79,3.79,0,0,1,3.79-3.79Z" transform="translate(-263.646 -2348.552)" fill="#e5e5e5"/>
    <path id="Trazado_124817" data-name="Trazado 124817" d="M316.727,2386.777l-12.556-6.309v-16.831l12.556,6.306Z" transform="translate(-257.21 -2346.842)" fill="#e03d77"/>
    <path id="Trazado_124818" data-name="Trazado 124818" d="M314.83,2386.777l12.556-6.309v-16.831l-12.556,6.306Z" transform="translate(-255.313 -2346.842)" fill="#fc4581"/>
    <path id="Trazado_124819" data-name="Trazado 124819" d="M329.283,2364.465l-12.556-5.479-12.556,5.479,12.556,6.306Z" transform="translate(-257.21 -2347.67)" fill="#fc6b9f"/>
    <path id="Trazado_124820" data-name="Trazado 124820" d="M306.068,2406.354l-12.555-6.308v-16.834l12.555,6.31Z" transform="translate(-259.107 -2343.358)" fill="#e03d77"/>
    <path id="Trazado_124821" data-name="Trazado 124821" d="M304.171,2406.354l12.556-6.308v-16.834l-12.556,6.31Z" transform="translate(-257.21 -2343.358)" fill="#fc4581"/>
    <path id="Trazado_124822" data-name="Trazado 124822" d="M318.624,2384.153l-12.556-6.228-12.555,6.228,12.555,6.31Z" transform="translate(-259.107 -2344.299)" fill="#fc6b9f"/>
    <path id="Trazado_124823" data-name="Trazado 124823" d="M327.386,2406.354l-12.556-6.308v-16.834l12.556,6.31Z" transform="translate(-255.313 -2343.358)" fill="#e03d77"/>
    <path id="Trazado_124824" data-name="Trazado 124824" d="M325.489,2406.354l12.556-6.308v-16.834l-12.556,6.31Z" transform="translate(-253.416 -2343.358)" fill="#fc4581"/>
    <g id="Grupo_56430" data-name="Grupo 56430" transform="translate(48.31 20.532)">
      <path id="Trazado_124825" data-name="Trazado 124825" d="M339.942,2384.153l-12.556-6.228-12.556,6.228,12.556,6.31Z" transform="translate(-303.623 -2364.831)" fill="#fc6b9f"/>
      <circle id="Elipse_4079" data-name="Elipse 4079" cx="1.681" cy="1.681" r="1.681" transform="translate(19.903 3.011)" fill="#fc6b9f"/>
      <circle id="Elipse_4080" data-name="Elipse 4080" cx="1.19" cy="1.19" r="1.19" transform="translate(20.395)" fill="#fc6b9f"/>
      <circle id="Elipse_4081" data-name="Elipse 4081" cx="1.681" cy="1.681" r="1.681" transform="translate(31.803 25.603)" fill="#fc6b9f"/>
      <circle id="Elipse_4082" data-name="Elipse 4082" cx="1.19" cy="1.19" r="1.19" transform="translate(32.294 22.596)" fill="#fc6b9f"/>
      <circle id="Elipse_4083" data-name="Elipse 4083" cx="1.681" cy="1.681" r="1.681" transform="translate(0 29.524)" fill="#fc6b9f"/>
      <circle id="Elipse_4084" data-name="Elipse 4084" cx="1.19" cy="1.19" r="1.19" transform="translate(0.492 26.513)" fill="#fc6b9f"/>
    </g>
  </g>
</svg>
