<svg xmlns="http://www.w3.org/2000/svg" xmlns:xlink="http://www.w3.org/1999/xlink" width="594.831" height="405.377" viewBox="0 0 594.831 405.377">
  <defs>
    <clipPath id="clip-path">
      <path id="Trazado_125010" data-name="Trazado 125010" d="M2255.234,3926.158l-11.746-1.783.458,13.549a5.093,5.093,0,0,0,.877,2.75c.8.815,7.069,7.488,7.069,7.488a5.022,5.022,0,0,0,6.683,0s6.264-6.673,7.068-7.488a5.093,5.093,0,0,0,.877-2.75l.459-13.549Z" fill="none"/>
    </clipPath>
    <clipPath id="clip-path-2">
      <path id="Trazado_125022" data-name="Trazado 125022" d="M2102.1,4113.061a24.033,24.033,0,0,1-.669-9.32c2.822-22.3-5.035-31.852-3.049-43.129,2.565-14.562,1.964-65.383-4.578-73.7-6.487-8.242-29.648-13.037-37.83-16.371-8.154-3.323-11.5-15.725-11.5-15.725l-9.776.016s-3.311,12.413-11.455,15.763c-8.173,3.361-31.323,8.233-37.785,16.5-6.519,8.335-6.968,59.162-4.359,73.718,2.02,11.271-5.81,20.852-2.921,43.143a24.045,24.045,0,0,1-.641,9.324c-1.772,6.572-4.526,17.6-3.119,17.771,2.015.242,9.073-16.629,9.713-19.481,1.186-5.289,14.855-76.811,20.109-104.335,3.6,11.906,8.272,43.556,8.709,60.207.82,31.255-21.624,47.7,4.464,107.492,7.62,17.465-2.054,22.287-1.64,43.974.015-.389.022-.623.024-.736-.032,1.489-.477,32.239,10.166,60.955a5.119,5.119,0,0,1-.951,5.6l-12.1,10.932a2.143,2.143,0,0,0,.438,3.453c2.941,1.152,8.145,1.582,11.093,1.738a4.676,4.676,0,0,0,3.839-1.808c2.908-3.508,6.316-9.876,6.4-16.022l3.424-185.585,3.347-.006,4.009,185.57c.107,6.146,3.534,12.5,6.452,16a4.669,4.669,0,0,0,3.844,1.794c2.948-.168,8.15-.618,11.087-1.782a2.143,2.143,0,0,0,.428-3.454l-12.132-10.884a5.122,5.122,0,0,1-.968-5.595c10.557-28.755,10.02-59.5,9.983-60.991,0,.113.011.347.027.736.349-21.688-9.076-26.344-1.819-43.965,24.007-58.291,3.42-75.657,4.159-107.5.387-16.652,4.991-48.321,8.559-60.238,5.335,27.5,19.216,98.973,20.418,104.257.648,2.849,7.755,19.694,9.768,19.444C2106.675,4130.645,2103.888,4119.627,2102.1,4113.061Z" fill="#f2f2f2"/>
    </clipPath>
    <clipPath id="clip-path-3">
      <path id="Trazado_125030" data-name="Trazado 125030" d="M2058.473,3935.368c1.009-15.284-.661-28.951-19.018-28.92s-19.983,13.7-18.924,28.982c.955,13.779,3.8,23.989,19.01,23.964S2057.562,3949.15,2058.473,3935.368Z" fill="#f2f2f2"/>
    </clipPath>
    <clipPath id="clip-path-4">
      <path id="Trazado_125035" data-name="Trazado 125035" d="M2448.276,4117.592l-7.484-6.7a6.135,6.135,0,0,1-1.934-5.727c4.9-25.468-2.6-48.6-5.1-53.916a5.824,5.824,0,0,1-.54-2.7c1.158-30.987-1.453-53.954-4.486-62.483-3.3-9.284-26.568-17.712-29.766-20.664s-3.015-14.514-3.015-14.514h-10.726s.184,11.562-3.014,14.514-26.465,11.38-29.767,20.664c-3.033,8.529-5.643,31.5-4.486,62.483a5.824,5.824,0,0,1-.54,2.7c-2.494,5.311-9.993,28.448-5.1,53.916a6.138,6.138,0,0,1-1.935,5.727l-7.483,6.7a1.222,1.222,0,0,0,1.143,2.088,11.318,11.318,0,0,0,2.716-1.2c4.06-2.4,8.488-6.458,10.148-9.594,1.491-2.816,15.317-86.038,18.133-103.054,2.341,9.346,5.126,20.811,3.793,30.913-2.3,17.454-23.279,60.583,6.03,129.389a21.55,21.55,0,0,1,1.333,12.712c-7.737,38.235-9.25,41.9,6.136,92.956,0,0,1.693,12.446-10.229,25.291a1.031,1.031,0,0,0,.555,1.7c3.075.647,9.558,1.621,14.9-.179a1.032,1.032,0,0,0,.687-.975l1.164-208.5h2.364l1.165,208.5a1.029,1.029,0,0,0,.686.975c5.337,1.8,11.82.826,14.9.179a1.031,1.031,0,0,0,.555-1.7c-11.922-12.845-10.229-25.291-10.229-25.291,15.385-51.051,13.872-54.721,6.136-92.956a21.542,21.542,0,0,1,1.333-12.712c29.309-68.806,8.331-111.935,6.029-129.389-1.333-10.1,1.452-21.567,3.793-30.913,2.816,17.016,16.643,100.238,18.133,103.054,1.661,3.136,6.089,7.195,10.148,9.594a11.343,11.343,0,0,0,2.716,1.2A1.222,1.222,0,0,0,2448.276,4117.592Z" fill="#f2f2f2"/>
    </clipPath>
    <clipPath id="clip-path-5">
      <path id="Trazado_125045" data-name="Trazado 125045" d="M2390,3908.347a39.205,39.205,0,0,0-16.664,5.946,65.22,65.22,0,0,0-1.048,11.982c0,20.216,12.282,27.781,17.712,27.781s17.711-7.565,17.711-27.781a65.224,65.224,0,0,0-1.047-11.982C2406.647,3914.3,2401.141,3909.094,2390,3908.347Z" fill="#f2f2f2"/>
    </clipPath>
    <clipPath id="clip-path-6">
      <path id="Trazado_125039" data-name="Trazado 125039" d="M2390,3943.738c2.966-.05,5.727-4.237,5.5-4.069-.156.173-2.89-1.137-3.272-1.2-.465.217-2.174,2.057-2.223,2.017a17.278,17.278,0,0,0-2.224-2.018c-.529.007-3.129,1.352-3.273,1.2C2384.277,3939.5,2387.037,3943.686,2390,3943.738Z" fill="#f45656"/>
    </clipPath>
  </defs>
  <g id="Grupo_56504" data-name="Grupo 56504" transform="translate(-1853.859 -3895.479)">
    <g id="Grupo_56506" data-name="Grupo 56506">
      <circle id="Elipse_4090" data-name="Elipse 4090" cx="10.785" cy="10.785" r="10.785" transform="translate(1934.423 3978.683)" fill="#e7b048"/>
      <circle id="Elipse_4091" data-name="Elipse 4091" cx="8.986" cy="8.986" r="8.986" transform="translate(1943.008 4044.065)" fill="#e7b048"/>
      <path id="Trazado_124962" data-name="Trazado 124962" d="M1921.323,4028.664a83.834,83.834,0,0,0-13.9-.866,81.314,81.314,0,0,0-13.932.881c-3.508.635-3.985,1.414-4.028,1.53a2.382,2.382,0,0,0,1.862,1.242l.015.014a18.457,18.457,0,0,1,1.155-1.632c.26-.1,4.172-1.5,14.928-1.5s14.668,1.4,14.913,1.5a18.233,18.233,0,0,1,1.285,1.834l.014-.014s1.834-.015,2.195-1.386C1925.828,4030.267,1925.409,4029.372,1921.323,4028.664Z" fill="#d69a3a"/>
      <path id="Trazado_124963" data-name="Trazado 124963" d="M1945.044,4050.241a7.626,7.626,0,0,0,1.684.318,30.939,30.939,0,0,0,4.383.046,22.13,22.13,0,0,0,6.807-1.2c1.021-.387,1.57-.822,1.54-1.148-.044-.8.93-23.077.478-28.763-.452-5.706-3.981-21.78-4.386-23.791a8.22,8.22,0,0,0-.846-2.345c-.293.458-2.712,2.955-8.208,3.816a15.152,15.152,0,0,1-9.067-1.408,3.913,3.913,0,0,0-.224,1.248c-.027,1.205.2,20.2.859,24.353.527,3.355,3.222,18.044,4.553,24.46a29.184,29.184,0,0,0,.688,2.932A2.481,2.481,0,0,0,1945.044,4050.241Z" fill="#f3c75d"/>
      <path id="Trazado_124964" data-name="Trazado 124964" d="M1929.711,4293.381s-6.684.477-7.16,7.392c0,0,10.351.188,20.515,0s18.1-.419,18.1-.419-.838-5.6-4.274-8a11.931,11.931,0,0,0-8.359-2.223c-.808.072-4.865.779-9.009,1.5-2.569.448-5.182.924-7.059,1.256C1930.809,4293.179,1929.711,4293.381,1929.711,4293.381Z" fill="#f1cc5f"/>
      <g id="Grupo_56504-2" data-name="Grupo 56504">
        <path id="Trazado_124965" data-name="Trazado 124965" d="M1948.885,4056.6c-2.577.712-4.479-.011-4.1,4.744-.032,3.984-.124,17.512.17,21.937.358,5.212,3.666,23.868,4,25.2a2.1,2.1,0,0,0,1.027,1.375c.054-.227.131-.437.2-.656.333-.048,8.675-1.416,12.572-.934a5.919,5.919,0,0,1,.484,1.118,3.6,3.6,0,0,0,1.031-1.464s.884-21,.4-25.757-3.354-23.984-3.8-25.233c-.3-.849-.545-1.107-1.832-1.183-.6-.031-1.394-.027-2.552-.012A48.225,48.225,0,0,0,1948.885,4056.6Z" fill="#f1cc5f"/>
        <path id="Trazado_124966" data-name="Trazado 124966" d="M1950.211,4109c-.065.218-.143.429-.2.656a6.877,6.877,0,0,0,2.328,7,11.335,11.335,0,0,1,3.454-1.823,6.979,6.979,0,0,1,6.115,1.018,5.523,5.523,0,0,0,.466-.537,6.887,6.887,0,0,0,.891-6.134,5.879,5.879,0,0,0-.484-1.117C1958.886,4107.579,1950.545,4108.948,1950.211,4109Z" fill="#e7b048"/>
        <path id="Trazado_124967" data-name="Trazado 124967" d="M1958.858,4112.6a11.352,11.352,0,0,0-3.906-.028c-6.6,1.259-5.607,9.981-5.127,12.324a29.4,29.4,0,0,0,1.335,4.273c1.334,3.466,3.533,7.337,6.05,6.721,3.763-.934,7.72-7.956,7.785-13.754a11.864,11.864,0,0,0-1.233-5.745A6.977,6.977,0,0,0,1958.858,4112.6Z" fill="#fcd268"/>
      </g>
      <circle id="Elipse_4092" data-name="Elipse 4092" cx="10.785" cy="10.785" r="10.785" transform="translate(1859.734 3978.683)" fill="#e7b048"/>
      <circle id="Elipse_4093" data-name="Elipse 4093" cx="8.986" cy="8.986" r="8.986" transform="translate(1856.967 4045.11)" fill="#e7b048"/>
      <path id="Trazado_124968" data-name="Trazado 124968" d="M1872.812,4051.066a7.57,7.57,0,0,1-1.674.372,30.88,30.88,0,0,1-4.379.185,22.16,22.16,0,0,1-6.842-.981c-1.032-.355-1.595-.772-1.575-1.1.018-.8-1.665-23.036-1.4-28.733.27-5.717,3.285-21.9,3.627-23.918a8.224,8.224,0,0,1,.77-2.371c.308.448,2.805,2.867,8.326,3.552a15.15,15.15,0,0,0,9.017-1.7,3.962,3.962,0,0,1,.264,1.241c.065,1.2.447,20.191-.083,24.368-.42,3.37-2.646,18.137-3.772,24.592a29.2,29.2,0,0,1-.594,2.952A2.479,2.479,0,0,1,1872.812,4051.066Z" fill="#f3c75d"/>
      <g id="Grupo_56505" data-name="Grupo 56505">
        <path id="Trazado_124969" data-name="Trazado 124969" d="M1869.175,4057.541c2.6.629,4.477-.153,4.246,4.611.159,3.981.681,17.5.529,21.932-.192,5.221-2.9,23.972-3.2,25.313a2.1,2.1,0,0,1-.982,1.407c-.061-.225-.145-.433-.218-.649-.335-.037-8.716-1.139-12.595-.533a5.848,5.848,0,0,0-.449,1.133,3.592,3.592,0,0,1-1.076-1.431s-1.553-20.963-1.219-25.731,2.589-24.079,2.994-25.341c.276-.858.509-1.124,1.794-1.241.6-.05,1.392-.072,2.549-.094A48.45,48.45,0,0,1,1869.175,4057.541Z" fill="#f1cc5f"/>
        <path id="Trazado_124970" data-name="Trazado 124970" d="M1869.518,4109.956c.073.216.157.424.218.649a6.876,6.876,0,0,1-2.1,7.074,11.348,11.348,0,0,0-3.511-1.713,6.981,6.981,0,0,0-6.079,1.213,5.5,5.5,0,0,1-.483-.521,6.888,6.888,0,0,1-1.086-6.1,5.814,5.814,0,0,1,.449-1.132C1860.8,4108.816,1869.183,4109.918,1869.518,4109.956Z" fill="#e7b048"/>
        <path id="Trazado_124971" data-name="Trazado 124971" d="M1860.991,4113.836a11.364,11.364,0,0,1,3.9-.152c6.641,1.048,5.922,9.8,5.517,12.155a29.415,29.415,0,0,1-1.2,4.313c-1.223,3.506-3.3,7.446-5.833,6.91-3.791-.813-7.97-7.706-8.219-13.5a11.86,11.86,0,0,1,1.049-5.781A6.978,6.978,0,0,1,1860.991,4113.836Z" fill="#fcd268"/>
      </g>
      <path id="Trazado_124972" data-name="Trazado 124972" d="M1941.016,4199.526c-.116.058-5.631,2.642-13.109-.014a6.535,6.535,0,0,1-.737-1.213,2.191,2.191,0,0,0-1.2,1.819c-.173,1.819-2.7,38.633-2.815,41.94-.13,3.32,4.389,41.2,4.389,41.2s-.231.707.852,1.328c.924.534,2.8,1.025,6.6.967,2.252-.029,5.154-.187,6.627-.851a1.44,1.44,0,0,0,.9-.838c.361-1.386,3.667-38.142,3.8-42.1.115-3.985-3.436-41.752-3.436-41.752a2.417,2.417,0,0,0-1.126-1.718,7.939,7.939,0,0,1-.722,1.213Z" fill="#f1cc5f"/>
      <path id="Trazado_124973" data-name="Trazado 124973" d="M1924.962,4112.673a45.8,45.8,0,0,0-8.374,1.429c-1.357.477-2.079,1.069-2.093,1.935-.072,1.992.534,31.169,1.14,37.536s9.615,36.454,9.615,36.454a2.79,2.79,0,0,0,1.661,1.761,7.634,7.634,0,0,1,.462-1,39.486,39.486,0,0,1,13.152-1.43,6.911,6.911,0,0,1,.563.708,2.148,2.148,0,0,0,1.256-1.848c.115-1.978,1.2-32.96.953-38.316s-7.219-35.616-7.392-36.756c-.087-.491-.9-.795-2.325-.91A47.424,47.424,0,0,0,1924.962,4112.673Z" fill="#f3c75d"/>
      <path id="Trazado_124974" data-name="Trazado 124974" d="M1927.373,4190.792a7.634,7.634,0,0,0-.462,1,8,8,0,0,0-.563,2.96,8.184,8.184,0,0,0,.822,3.551,6.535,6.535,0,0,0,.737,1.213c7.478,2.656,12.993.072,13.109.014l.014-.014a8.341,8.341,0,0,0,1.559-4.764,8.036,8.036,0,0,0-1.5-4.678,6.911,6.911,0,0,0-.563-.708A39.486,39.486,0,0,0,1927.373,4190.792Z" fill="#e7b048"/>
      <path id="Trazado_124975" data-name="Trazado 124975" d="M1928.4,4284.589a6.791,6.791,0,0,0,4.071,8.3c1.877-.332,4.49-.808,7.059-1.256a6.834,6.834,0,0,0,2.354-5.139,7.354,7.354,0,0,0-.26-1.79c-1.473.664-4.375.822-6.627.851C1931.2,4285.614,1929.322,4285.123,1928.4,4284.589Z" fill="#e7b048"/>
      <path id="Trazado_124976" data-name="Trazado 124976" d="M1935.948,3984.241h-3.595a33.294,33.294,0,0,1,.809,10.28h2.642a10.583,10.583,0,0,1-1.242-5A10.727,10.727,0,0,1,1935.948,3984.241Z" fill="#d69a3a"/>
      <path id="Trazado_124977" data-name="Trazado 124977" d="M1913.21,4106.148a11.063,11.063,0,0,0,3.378,7.954,45.8,45.8,0,0,1,8.374-1.429,47.424,47.424,0,0,1,8.618-.433,11.073,11.073,0,0,0-6.742-16.891h-5.053A11.1,11.1,0,0,0,1913.21,4106.148Z" fill="#e7b048"/>
      <path id="Trazado_124978" data-name="Trazado 124978" d="M1932.353,3984.241a24.191,24.191,0,0,0-4.013-8.72,21.7,21.7,0,0,0-10.294-7.882,29.028,29.028,0,0,0-9.846-1.444,31.992,31.992,0,0,0-10.524,1.487,20.943,20.943,0,0,0-10.713,8.446,25.84,25.84,0,0,0-3.623,8.113,31.115,31.115,0,0,0-.809,10.28c.1,1.212.246,2.165.347,2.714.418,2.468,6.251,31.877,6.424,32.6a3.987,3.987,0,0,0,.159.376c.043-.116.52-.9,4.028-1.53a81.314,81.314,0,0,1,13.932-.881,83.834,83.834,0,0,1,13.9.866c4.086.708,4.505,1.6,4.505,1.6.361-1.386,6.973-32.975,7.218-34.649.029-.231.072-.607.116-1.1A33.294,33.294,0,0,0,1932.353,3984.241Zm-13.7,18.523c-3.075,8.662-6.887,17.815-10.511,17.815s-7.449-9.153-10.51-17.815-4.735-12.632-2.829-18.768,9.095-9.312,13.339-9.312,11.435,3.176,13.34,9.312S1921.728,3994.1,1918.653,4002.764Z" fill="#f1cc5f"/>
      <path id="Trazado_124979" data-name="Trazado 124979" d="M1887.57,4051.922a69.782,69.782,0,0,0-5.414,20.3,116.823,116.823,0,0,0,.086,17.208c.275,3.538.563,5.92.563,5.92h5.357s-1.069-12.214,2.54-20.876c2.931-6.973,7.031-12.43,12.517-14.293a12.969,12.969,0,0,1,4.2-.693,11.515,11.515,0,0,1,3.984.751c5.934,2.194,10.943,8.922,13.6,16.039,3.248,8.663,2.079,19.072,2.079,19.072h5.2s.462-2.758.78-6.945a87.852,87.852,0,0,0-.2-15.462,80.494,80.494,0,0,0-5.5-21.02H1887.57Z" fill="#f1cc5f"/>
      <path id="Trazado_124980" data-name="Trazado 124980" d="M1925.005,4076.277c-2.657-7.117-7.666-13.845-13.6-16.039a11.515,11.515,0,0,0-3.984-.751,12.969,12.969,0,0,0-4.2.693c-5.486,1.863-9.586,7.32-12.517,14.293-3.609,8.662-2.54,20.876-2.54,20.876h38.922S1928.253,4084.94,1925.005,4076.277Z" fill="#fce272"/>
      <path id="Trazado_124981" data-name="Trazado 124981" d="M1925.467,3919.448c-.606-3.032-2.31-7.175-6.439-9.009-6.078-2.714-10.048,1.069-10.048,1.069s-3.436-4.678-11.174-.9a10.464,10.464,0,0,0-4.75,4.5,14.1,14.1,0,0,0-1.285,8.374L1898.21,3952l3.032-.4,7.045-.924,6.338,1.069,3.681.621s7.161-27.979,7.392-29.726A11.636,11.636,0,0,0,1925.467,3919.448Z" fill="#fce272"/>
      <path id="Trazado_124982" data-name="Trazado 124982" d="M1907.421,4028.332c-10.756,0-14.668,1.4-14.928,1.5a18.457,18.457,0,0,0-1.155,1.632,18.791,18.791,0,0,0-2.96,10.164,19,19,0,0,0,3.032,10.293h32.007a18.969,18.969,0,0,0,.2-20.255,18.233,18.233,0,0,0-1.285-1.834C1922.089,4029.733,1918.176,4028.332,1907.421,4028.332Z" fill="#e7b048"/>
      <path id="Trazado_124983" data-name="Trazado 124983" d="M1908.142,3974.684c-4.244,0-11.434,3.176-13.339,9.312s-.246,10.106,2.829,18.768,6.872,17.815,10.51,17.815,7.436-9.153,10.511-17.815,4.735-12.632,2.829-18.768S1912.372,3974.684,1908.142,3974.684Z" fill="#fce272"/>
      <path id="Trazado_124984" data-name="Trazado 124984" d="M1897.834,3955.064c.318-.375,2.8-3.06,10.308-3.06,6.974,0,9.168,2.324,9.63,2.945a1.371,1.371,0,0,1,.1.159,11.615,11.615,0,0,1,1.473,3.378,6.638,6.638,0,0,0,2.512-2.642c-.13-1.92-3.552-3.479-3.552-3.479l-3.681-.621-6.338-1.069-7.045.924-3.032.4a15.389,15.389,0,0,0-2.83,1.544,3.223,3.223,0,0,0-1.14,2.209v.015a4.776,4.776,0,0,0,2.223,2.223,11.983,11.983,0,0,1,1.343-2.887A.191.191,0,0,0,1897.834,3955.064Z" fill="#d69a3a"/>
      <path id="Trazado_124985" data-name="Trazado 124985" d="M1918.046,3967.639a11.916,11.916,0,0,0,1.7-6.121,12.307,12.307,0,0,0-.4-3.032,11.615,11.615,0,0,0-1.473-3.378,1.371,1.371,0,0,0-.1-.159c-.462-.621-2.656-2.945-9.63-2.945-7.507,0-9.99,2.685-10.308,3.06a.191.191,0,0,1-.028.044,11.983,11.983,0,0,0-1.343,2.887,11.8,11.8,0,0,0,1.213,9.687,31.992,31.992,0,0,1,10.524-1.487A29.028,29.028,0,0,1,1918.046,3967.639Z" fill="#e7b048"/>
      <path id="Trazado_124986" data-name="Trazado 124986" d="M1888.162,4095.349a11.1,11.1,0,0,0-6.728,16.891,47.624,47.624,0,0,1,8.633.433,45.832,45.832,0,0,1,8.359,1.429,11.077,11.077,0,0,0-5.183-18.753h-5.081Z" fill="#e7b048"/>
      <path id="Trazado_124987" data-name="Trazado 124987" d="M1881.434,4112.24c-1.429.115-2.238.419-2.31.91-.188,1.14-7.161,31.4-7.406,36.756s.852,36.338.967,38.316a2.137,2.137,0,0,0,1.242,1.848,6.764,6.764,0,0,1,.563-.708,39.578,39.578,0,0,1,13.166,1.43,7.65,7.65,0,0,1,.462,1,2.739,2.739,0,0,0,1.646-1.761s9.023-30.073,9.63-36.454,1.2-35.544,1.14-37.536c-.029-.866-.751-1.458-2.108-1.935a45.832,45.832,0,0,0-8.359-1.429A47.624,47.624,0,0,0,1881.434,4112.24Z" fill="#f3c75d"/>
      <path id="Trazado_124988" data-name="Trazado 124988" d="M1895.38,3953.548a15.389,15.389,0,0,1,2.83-1.544l-6.439-28.513a14.1,14.1,0,0,1,1.285-8.374,10.464,10.464,0,0,1,4.75-4.5c7.738-3.783,11.174.9,11.174.9s3.97-3.783,10.048-1.069c4.129,1.834,5.833,5.977,6.439,9.009a11.636,11.636,0,0,1,.231,3.191c-.231,1.747-7.392,29.726-7.392,29.726s3.422,1.559,3.552,3.479c0,0,5.529-22.132,6.5-27.185a23.515,23.515,0,0,0-.288-9.774c-.289-1.343-.679-2.671-1.1-4-1.386-4.389-9.571-11.853-17.93-11.853s-14.495,3.8-18.162,9.991c-.3.519-.578,1.025-.838,1.53a20.145,20.145,0,0,0-1.934,12.546c.361,3.176,5.3,25.929,5.89,28.008a3.192,3.192,0,0,0,.246.649A3.223,3.223,0,0,1,1895.38,3953.548Z" fill="#f1cc5f"/>
      <path id="Trazado_124989" data-name="Trazado 124989" d="M1874.013,4199.526a.013.013,0,0,1-.014-.014,7.94,7.94,0,0,1-.722-1.213,2.459,2.459,0,0,0-1.14,1.718s-3.537,37.767-3.422,41.752c.115,3.956,3.422,40.712,3.8,42.1a1.4,1.4,0,0,0,.9.838c1.458.664,4.36.822,6.627.851,3.8.058,5.673-.433,6.583-.967,1.083-.621.866-1.328.866-1.328s4.519-37.883,4.389-41.2-2.642-40.121-2.83-41.94a2.211,2.211,0,0,0-1.183-1.819,8.585,8.585,0,0,1-.737,1.213C1879.644,4202.168,1874.129,4199.584,1874.013,4199.526Z" fill="#f1cc5f"/>
      <path id="Trazado_124990" data-name="Trazado 124990" d="M1866.492,4290.133a11.931,11.931,0,0,0-8.359,2.223c-3.436,2.4-4.274,8-4.274,8s7.941.231,18.1.419,20.515,0,20.515,0c-.476-6.915-7.16-7.392-7.16-7.392s-1.1-.2-2.758-.491c-1.877-.332-4.49-.808-7.074-1.256C1871.343,4290.912,1867.286,4290.205,1866.492,4290.133Z" fill="#f1cc5f"/>
      <path id="Trazado_124991" data-name="Trazado 124991" d="M1874.49,4189.362a6.764,6.764,0,0,0-.563.708,8.126,8.126,0,0,0-1.487,4.678,8.339,8.339,0,0,0,1.559,4.764.013.013,0,0,0,.014.014c.116.058,5.631,2.642,13.109-.014a8.585,8.585,0,0,0,.737-1.213,8.184,8.184,0,0,0,.822-3.551,8,8,0,0,0-.563-2.96,7.65,7.65,0,0,0-.462-1A39.578,39.578,0,0,0,1874.49,4189.362Z" fill="#e7b048"/>
      <path id="Trazado_124992" data-name="Trazado 124992" d="M1873.407,4284.705a7.354,7.354,0,0,0-.26,1.79,6.874,6.874,0,0,0,2.339,5.139c2.584.448,5.2.924,7.074,1.256a6.881,6.881,0,0,0,4.36-6.4,6.408,6.408,0,0,0-.3-1.906c-.91.534-2.786,1.025-6.583.967C1877.767,4285.527,1874.865,4285.369,1873.407,4284.705Z" fill="#e7b048"/>
      <path id="Trazado_124993" data-name="Trazado 124993" d="M1883.34,3984.241h-4.072a10.716,10.716,0,0,1,1.386,5.284,10.581,10.581,0,0,1-1.241,5h3.118A31.115,31.115,0,0,1,1883.34,3984.241Z" fill="#d69a3a"/>
    </g>
    <g id="Grupo_56510" data-name="Grupo 56510">
      <ellipse id="Elipse_4094" data-name="Elipse 4094" cx="5.399" cy="1.694" rx="5.399" ry="1.694" transform="translate(2242.562 4268.571) rotate(-9.633)" fill="#faaf41"/>
      <ellipse id="Elipse_4095" data-name="Elipse 4095" cx="1.694" cy="5.399" rx="1.694" ry="5.399" transform="translate(2256.62 4270.104) rotate(-80.367)" fill="#faaf41"/>
      <circle id="Elipse_4096" data-name="Elipse 4096" cx="2.693" cy="2.693" r="2.693" transform="translate(2246.415 4263.324)" fill="#d69a3a"/>
      <circle id="Elipse_4097" data-name="Elipse 4097" cx="2.693" cy="2.693" r="2.693" transform="translate(2259.174 4263.324)" fill="#d69a3a"/>
      <path id="Trazado_124994" data-name="Trazado 124994" d="M2234.813,4170.523s-5.529,17.185-.778,35.6a279.931,279.931,0,0,1,6.509,33.311l2.335,11.69s1.293,7.333,1.408,10.391c.058,1.518.045,1.589.135,1.688a4.959,4.959,0,0,0,4.373,1.444,6.936,6.936,0,0,0,4.661-2.979,124.045,124.045,0,0,1-2.827-16.58c-.459-6.8-.764-17.572.305-24.678s1.6-15.739,1.6-15.739a77.4,77.4,0,0,0,.917-13.37,185.414,185.414,0,0,0-3.056-20.471Z" fill="#fcd268"/>
      <path id="Trazado_124995" data-name="Trazado 124995" d="M2275.337,4170.4s5.529,17.186.778,35.6a279.8,279.8,0,0,0-6.508,33.311l-2.336,11.69s-1.255,7.334-1.408,10.39,0,1.528,0,1.528a4.857,4.857,0,0,1-4.508,1.6,6.932,6.932,0,0,1-4.66-2.98,124.1,124.1,0,0,0,2.826-16.579c.459-6.8.764-17.573-.3-24.678s-1.6-15.739-1.6-15.739a77.307,77.307,0,0,1-.916-13.37,185.066,185.066,0,0,1,3.056-20.471Z" fill="#fcd268"/>
      <ellipse id="Elipse_4098" data-name="Elipse 4098" cx="7.86" cy="2.134" rx="7.86" ry="2.134" transform="translate(2259.745 4168.694)" fill="#faaf41"/>
      <ellipse id="Elipse_4099" data-name="Elipse 4099" cx="7.812" cy="2.134" rx="7.812" ry="2.134" transform="translate(2234.775 4168.694)" fill="#faaf41"/>
      <circle id="Elipse_4100" data-name="Elipse 4100" cx="4.599" cy="4.599" r="4.599" transform="translate(2238.28 4162.037)" fill="#d69a3a"/>
      <circle id="Elipse_4101" data-name="Elipse 4101" cx="4.599" cy="4.599" r="4.599" transform="translate(2263.236 4162.419)" fill="#d69a3a"/>
      <path id="Trazado_124996" data-name="Trazado 124996" d="M2251.011,4162.113s-1.671,2.827-8.132,3.9-7.214-2.98-7.214-2.98l-.7-7.182s-13.345-53.354-12.1-71.105h15.459l13.829,1.35-1.452,48.821Z" fill="#fcd268"/>
      <path id="Trazado_124997" data-name="Trazado 124997" d="M2259.1,4162.113s1.671,2.827,8.132,3.9,7.214-2.98,7.214-2.98l.7-7.182s13.345-53.354,12.1-71.105h-15.459l-13.829,1.35,1.452,48.821Z" fill="#fcd268"/>
      <g id="Grupo_56507" data-name="Grupo 56507">
        <ellipse id="Elipse_4102" data-name="Elipse 4102" cx="7.027" cy="4.011" rx="7.027" ry="4.011" transform="translate(2288.768 4035.209)" fill="#d69a3a"/>
        <circle id="Elipse_4103" data-name="Elipse 4103" cx="3.39" cy="3.39" r="3.39" transform="translate(2297.326 4085.561)" fill="#e7b048"/>
        <path id="Trazado_124998" data-name="Trazado 124998" d="M2302.844,4090.739a11.365,11.365,0,0,0-3.722,1.184c-5.888,3.245-2.236,11.228-1.053,13.307a29.252,29.252,0,0,0,2.594,3.648c2.342,2.882,5.633,5.881,7.836,4.514,3.288-2.054,4.873-9.957,3.137-15.489a11.876,11.876,0,0,0-2.953-5.08A6.98,6.98,0,0,0,2302.844,4090.739Z" fill="#fcd268"/>
        <path id="Trazado_124999" data-name="Trazado 124999" d="M2288.758,4038.4c-.159,3.981,1.406,16.459,2.05,20.847.847,5.778,6.243,29.912,6.316,29.7a13.813,13.813,0,0,0,3.591.357,11.248,11.248,0,0,0,3.492-1.018s.095-22.525.251-27.3c.19-5.781.541-10.878.057-14.618a69.339,69.339,0,0,0-2.158-8.634c-.095-.265-2.689,2.534-6.112,2.445C2291.814,4040.061,2290.286,4039.282,2288.758,4038.4Z" fill="#f1cc5f"/>
      </g>
      <ellipse id="Elipse_4104" data-name="Elipse 4104" cx="7.027" cy="4.011" rx="7.027" ry="4.011" transform="translate(2207.493 4035.209)" fill="#d69a3a"/>
      <ellipse id="Elipse_4105" data-name="Elipse 4105" cx="14.236" cy="3.082" rx="14.236" ry="3.082" transform="translate(2222.869 4081.662)" fill="#faaf41"/>
      <ellipse id="Elipse_4106" data-name="Elipse 4106" cx="14.236" cy="3.082" rx="14.236" ry="3.082" transform="translate(2258.855 4081.662)" fill="#faaf41"/>
      <ellipse id="Elipse_4107" data-name="Elipse 4107" cx="7.027" cy="4.011" rx="7.027" ry="4.011" transform="translate(2215.897 3977.185)" fill="#d69a3a"/>
      <ellipse id="Elipse_4108" data-name="Elipse 4108" cx="7.027" cy="4.011" rx="7.027" ry="4.011" transform="translate(2279.769 3977.185)" fill="#d69a3a"/>
      <circle id="Elipse_4109" data-name="Elipse 4109" cx="4.347" cy="4.347" r="4.347" transform="translate(2290.743 4029.81)" fill="#e7b048"/>
      <circle id="Elipse_4110" data-name="Elipse 4110" cx="4.347" cy="4.347" r="4.347" transform="translate(2209.966 4029.81)" fill="#e7b048"/>
      <circle id="Elipse_4111" data-name="Elipse 4111" cx="3.39" cy="3.39" r="3.39" transform="translate(2206.21 4085.561)" fill="#e7b048"/>
      <circle id="Elipse_4112" data-name="Elipse 4112" cx="6.864" cy="6.864" r="6.864" transform="translate(2218.174 3969.323)" fill="#e7b048"/>
      <circle id="Elipse_4113" data-name="Elipse 4113" cx="6.864" cy="6.864" r="6.864" transform="translate(2277.374 3969.323)" fill="#e7b048"/>
      <path id="Trazado_125000" data-name="Trazado 125000" d="M2263.312,3938.942h-16.58V3960.2h.042c-.027.273-.042.55-.042.83a8.29,8.29,0,0,0,16.58,0c0-.28-.015-.557-.042-.83h.042Z" fill="#e7b048"/>
      <path id="Trazado_125001" data-name="Trazado 125001" d="M2269.315,4029.255c-2.767-.815-7.152-1.482-14.171-1.482-7.181,0-11.537.692-14.2,1.507-3.576,1.087-4.061,2.421-4.106,2.619a2.887,2.887,0,0,0,1.9,2.125l.014.024c5.231,1.179,5.614,1.161,16.577,1.161s11.651.018,16.327-.815l.014-.025a2.465,2.465,0,0,0,2.237-2.371S2273.479,4030.466,2269.315,4029.255Z" fill="#d69a3a"/>
      <path id="Trazado_125002" data-name="Trazado 125002" d="M2290.625,4034.5a46.04,46.04,0,0,0,8.493-.967c.961-.328,1.469-.719,1.427-1.031-.074-.759-2.648-20.9-3.311-26.329-.664-5.452-2.344-22.1-2.814-24.032a8.529,8.529,0,0,0-.9-2.268c-.262.425-2.476,2.7-7.7,3.3-4.612.527-6.528.558-6.687.383a3.6,3.6,0,0,0-.164,1.18c.023,1.145,5.041,20.505,5.843,24.491.64,3.217,3.968,23.506,4.095,23.79A2.664,2.664,0,0,0,2290.625,4034.5Z" fill="#f3c75d"/>
      <path id="Trazado_125003" data-name="Trazado 125003" d="M2219,4034.5a46.04,46.04,0,0,1-8.493-.967c-.96-.328-1.468-.719-1.426-1.031.073-.759,2.648-20.9,3.31-26.329.664-5.452,2.345-22.1,2.815-24.032a8.455,8.455,0,0,1,.9-2.268c.262.425,2.475,2.7,7.7,3.3,4.612.527,6.529.558,6.688.383a3.629,3.629,0,0,1,.164,1.18c-.024,1.145-5.041,20.505-5.844,24.491-.64,3.217-3.967,23.506-4.095,23.79A2.664,2.664,0,0,1,2219,4034.5Z" fill="#f3c75d"/>
      <path id="Trazado_125004" data-name="Trazado 125004" d="M2207.471,4090.739a11.36,11.36,0,0,1,3.722,1.184c5.888,3.245,2.236,11.228,1.053,13.307a29.355,29.355,0,0,1-2.593,3.648c-2.343,2.882-5.634,5.881-7.836,4.514-3.289-2.054-4.873-9.957-3.137-15.489a11.859,11.859,0,0,1,2.953-5.08A6.977,6.977,0,0,1,2207.471,4090.739Z" fill="#fcd268"/>
      <path id="Trazado_125005" data-name="Trazado 125005" d="M2287.455,3970.573s-18.6-8.676-22.224-9.946a29.028,29.028,0,0,0-9.846-1.444,32.017,32.017,0,0,0-10.524,1.487c-3.869,1.343-22.5,9.9-22.5,9.9.573,3.922,3.668,18.042,3.769,18.591.419,2.469,7.467,33.189,7.64,33.911.044.13,3.012,8.694,3.069,8.824.044-.116,1.38-2.2,4.888-2.84a63.741,63.741,0,0,1,13.418-1.286,52.551,52.551,0,0,1,12.65,1.528,12.093,12.093,0,0,1,6.112,2.7c.361-1.386,8.945-37.288,9.19-38.963.029-.231,2.634-12.115,2.678-12.606C2285.933,3978.465,2287.706,3973.028,2287.455,3970.573Zm-21.617,25.179c-3.075,8.662-6.887,17.816-10.51,17.816-3.639,0-7.45-9.154-10.51-17.816-3.076-8.662-4.736-12.632-2.83-18.768s9.095-9.312,13.34-9.312,11.434,3.176,13.339,9.312S2268.913,3987.09,2265.838,3995.752Z" fill="#f1cc5f"/>
      <path id="Trazado_125006" data-name="Trazado 125006" d="M2255.328,3966.812c-4.4,0-11.863,3.295-13.84,9.661s-.255,10.485,2.936,19.472c3.175,8.987,7.129,18.483,10.9,18.483,3.759,0,7.713-9.5,10.9-18.483s4.913-13.106,2.935-19.472S2259.716,3966.812,2255.328,3966.812Z" fill="#fce272"/>
      <path id="Trazado_125007" data-name="Trazado 125007" d="M2267.845,3926s2.6-.153,1.935,4.024-.509,4.839-4.176,7.232l-1.07-9.066Z" fill="#d69a3a"/>
      <path id="Trazado_125008" data-name="Trazado 125008" d="M2241.734,3926s-2.6-.153-1.936,4.024.51,4.839,4.177,7.232l1.07-9.066Z" fill="#d69a3a"/>
      <path id="Trazado_125009" data-name="Trazado 125009" d="M2255.234,3926.158l-11.746-1.783.458,13.549a5.093,5.093,0,0,0,.877,2.75c.8.815,7.069,7.488,7.069,7.488a5.022,5.022,0,0,0,6.683,0s6.264-6.673,7.068-7.488a5.093,5.093,0,0,0,.877-2.75l.459-13.549Z" fill="#fce272"/>
      <ellipse id="Elipse_4114" data-name="Elipse 4114" cx="15.311" cy="15.27" rx="15.311" ry="15.27" transform="translate(2239.923 3905.04)" fill="#f1cc5f"/>
      <g id="Grupo_56509" data-name="Grupo 56509">
        <g id="Grupo_56508" data-name="Grupo 56508" clip-path="url(#clip-path)">
          <ellipse id="Elipse_4115" data-name="Elipse 4115" cx="7.463" cy="7.788" rx="7.463" ry="7.788" transform="translate(2247.77 3935.581)" fill="#f1cc5f"/>
          <ellipse id="Elipse_4116" data-name="Elipse 4116" cx="4.442" cy="4.635" rx="4.442" ry="4.635" transform="translate(2250.792 3942.355)" fill="#f2b85c"/>
        </g>
      </g>
      <ellipse id="Elipse_4117" data-name="Elipse 4117" cx="18.172" cy="3.158" rx="18.172" ry="3.158" transform="translate(2236.748 4038.403)" fill="#e7b048"/>
      <circle id="Elipse_4118" data-name="Elipse 4118" cx="4.347" cy="4.347" r="4.347" transform="translate(2251.025 4032.866)" fill="#fce272"/>
      <path id="Trazado_125011" data-name="Trazado 125011" d="M2227.326,4056.678s10.849,24.411,23.7,34l3.483-18.413-4.367-18.718-17.955.764Z" fill="#e7b048"/>
      <path id="Trazado_125012" data-name="Trazado 125012" d="M2282.8,4056.678s-10.849,24.411-23.7,34l-3.483-18.413,4.367-18.718,17.955.764Z" fill="#e7b048"/>
      <path id="Trazado_125013" data-name="Trazado 125013" d="M2237.182,4040.71s15.128,7.64,35.909,0l9.627,16.2a31.994,31.994,0,0,0-14.211,12.983c-2.729,5.007-7.805,12.071-9.4,20.781h-8.079s-4.741-13.743-8.146-19.478-11.427-13.293-15.553-14.674Z" fill="#f1cc5f"/>
      <circle id="Elipse_4119" data-name="Elipse 4119" cx="6.276" cy="6.276" r="6.276" transform="translate(2231.224 4073.008)" fill="#d69a3a"/>
      <circle id="Elipse_4120" data-name="Elipse 4120" cx="6.276" cy="6.276" r="6.276" transform="translate(2266.815 4073.008)" fill="#d69a3a"/>
      <path id="Trazado_125014" data-name="Trazado 125014" d="M2221.558,4038.4c.159,3.981-1.407,16.459-2.05,20.847-.848,5.778-6.244,29.912-6.316,29.7a13.812,13.812,0,0,1-3.591.357,11.248,11.248,0,0,1-3.493-1.018s-.095-22.525-.251-27.3c-.189-5.781-.541-10.878-.056-14.618a69.256,69.256,0,0,1,2.157-8.634c.1-.265,2.689,2.534,6.112,2.445C2218.5,4040.061,2220.03,4039.282,2221.558,4038.4Z" fill="#f1cc5f"/>
      <path id="Trazado_125015" data-name="Trazado 125015" d="M2242.879,4270.426v2.6s.059.051-.451,1.07-7.182,12.886-7.182,12.886l-1.222,1.783-3.565,4.482s-.815.917,0,1.426a2.155,2.155,0,0,0,1.649.255s.133,1.426,2.884,1.273c0,0,.764,1.528,3.361.917,0,0,.866,1.375,3.26,1.07a4.009,4.009,0,0,0,5.348.305l7.692-8.431a26.418,26.418,0,0,0-.408-7.562,113.757,113.757,0,0,1-.74-14.16S2250.206,4271.6,2242.879,4270.426Z" fill="#f1cc5f"/>
      <path id="Trazado_125016" data-name="Trazado 125016" d="M2267.506,4270.426v2.6s-.058.051.451,1.07,7.182,12.886,7.182,12.886l1.222,1.783,3.566,4.482s.815.917,0,1.426a2.157,2.157,0,0,1-1.65.255s-.133,1.426-2.884,1.273c0,0-.764,1.528-3.361.917,0,0-.866,1.375-3.26,1.07a4.009,4.009,0,0,1-5.348.305l-7.691-8.431a26.385,26.385,0,0,1,.407-7.562,113.738,113.738,0,0,0,.74-14.16S2260.179,4271.6,2267.506,4270.426Z" fill="#f1cc5f"/>
    </g>
    <g id="Grupo_56518" data-name="Grupo 56518">
      <g id="Grupo_56517" data-name="Grupo 56517">
        <g id="Grupo_56516" data-name="Grupo 56516">
          <g id="Grupo_56512" data-name="Grupo 56512">
            <path id="Trazado_125017" data-name="Trazado 125017" d="M2102.1,4113.061a24.033,24.033,0,0,1-.669-9.32c2.822-22.3-5.035-31.852-3.049-43.129,2.565-14.562,1.964-65.383-4.578-73.7-6.487-8.242-29.648-13.037-37.83-16.371-8.154-3.323-11.5-15.725-11.5-15.725l-9.776.016s-3.311,12.413-11.455,15.763c-8.173,3.361-31.323,8.233-37.785,16.5-6.519,8.335-6.968,59.162-4.359,73.718,2.02,11.271-5.81,20.852-2.921,43.143a24.045,24.045,0,0,1-.641,9.324c-1.772,6.572-4.526,17.6-3.119,17.771,2.015.242,9.073-16.629,9.713-19.481,1.186-5.289,14.855-76.811,20.109-104.335,3.6,11.906,8.272,43.556,8.709,60.207.82,31.255-21.624,47.7,4.464,107.492,7.62,17.465-2.054,22.287-1.64,43.974.015-.389.022-.623.024-.736-.032,1.489-.477,32.239,10.166,60.955a5.119,5.119,0,0,1-.951,5.6l-12.1,10.932a2.143,2.143,0,0,0,.438,3.453c2.941,1.152,8.145,1.582,11.093,1.738a4.676,4.676,0,0,0,3.839-1.808c2.908-3.508,6.316-9.876,6.4-16.022l3.424-185.585,3.347-.006,4.009,185.57c.107,6.146,3.534,12.5,6.452,16a4.669,4.669,0,0,0,3.844,1.794c2.948-.168,8.15-.618,11.087-1.782a2.143,2.143,0,0,0,.428-3.454l-12.132-10.884a5.122,5.122,0,0,1-.968-5.595c10.557-28.755,10.02-59.5,9.983-60.991,0,.113.011.347.027.736.349-21.688-9.076-26.344-1.819-43.965,24.007-58.291,3.42-75.657,4.159-107.5.387-16.652,4.991-48.321,8.559-60.238,5.335,27.5,19.216,98.973,20.418,104.257.648,2.849,7.755,19.694,9.768,19.444C2106.675,4130.645,2103.888,4119.627,2102.1,4113.061Z" fill="#f2f2f2"/>
            <g id="Grupo_56511" data-name="Grupo 56511" clip-path="url(#clip-path-2)">
              <path id="Trazado_125018" data-name="Trazado 125018" d="M2001.34,3998.185s1.4,4.033,3.273,10.3l-6.775,44.99Z" fill="#999" opacity="0.2"/>
              <path id="Trazado_125019" data-name="Trazado 125019" d="M2077.95,3998.057s-1.362,3.958-3.187,10.129l7.323,42.422Z" fill="#999" opacity="0.2"/>
              <path id="Trazado_125020" data-name="Trazado 125020" d="M2071.661,4085.749c-1.22-5.061-3.548-14.434-3.9-19.449-25.61,7.52-56.043.2-56.043.2-.347,4.975-3.827,13.194-5.022,18.221,12.975,6.368,31.412,12.716,31.412,12.716l3.347-.006h.018S2058.71,4092.158,2071.661,4085.749Z" fill="#222221"/>
              <path id="Trazado_125021" data-name="Trazado 125021" d="M2018.345,3962.418a52.834,52.834,0,0,0,39.84-12.66" fill="none" stroke="#999" stroke-miterlimit="10" stroke-width="1.028" opacity="0.2"/>
            </g>
          </g>
          <g id="Grupo_56515" data-name="Grupo 56515">
            <path id="Trazado_125023" data-name="Trazado 125023" d="M2058.473,3935.368c1.009-15.284-.661-28.951-19.018-28.92s-19.983,13.7-18.924,28.982c.955,13.779,3.8,23.989,19.01,23.964S2057.562,3949.15,2058.473,3935.368Z" fill="#f2f2f2"/>
            <g id="Grupo_56514" data-name="Grupo 56514" clip-path="url(#clip-path-3)">
              <g id="Grupo_56513" data-name="Grupo 56513">
                <path id="Trazado_125024" data-name="Trazado 125024" d="M2042.627,3938.058c0-.785,1.833-1.425,4.1-1.429s4.1.63,4.1,1.416-1.834,1.424-4.1,1.428S2042.628,3938.843,2042.627,3938.058Z" fill="#ecc9d9"/>
                <path id="Trazado_125025" data-name="Trazado 125025" d="M2028.184,3938.081c0-.785,1.834-1.424,4.1-1.428s4.1.63,4.1,1.415-1.834,1.425-4.1,1.429S2028.185,3938.867,2028.184,3938.081Z" fill="#ecc9d9"/>
                <path id="Trazado_125026" data-name="Trazado 125026" d="M2028.169,3928.7s3.627,11.12,8.2-.014" fill="none" stroke="#222221" stroke-linecap="round" stroke-linejoin="round" stroke-width="1.056"/>
                <path id="Trazado_125027" data-name="Trazado 125027" d="M2050.813,3928.658s-3.591,11.131-8.2.013" fill="none" stroke="#222221" stroke-linecap="round" stroke-linejoin="round" stroke-width="1.056"/>
                <path id="Trazado_125028" data-name="Trazado 125028" d="M2044.6,3944.381a7.489,7.489,0,0,1-10.866.013" fill="none" stroke="#222221" stroke-linecap="round" stroke-linejoin="round" stroke-width="0.603"/>
                <path id="Trazado_125029" data-name="Trazado 125029" d="M2039.03,3928.677l-.614,9.234,2.19-.006" fill="none" stroke="#222221" stroke-linecap="round" stroke-linejoin="round" stroke-width="0.603"/>
              </g>
            </g>
          </g>
        </g>
      </g>
      <path id="Trazado_125031" data-name="Trazado 125031" d="M2056.261,3907.49a3.307,3.307,0,0,0-1.445-1.153c-18.6-7.607-28.913.3-28.913.3s-7.418,4.725-5.323,22.719l9.969-15.236c4.683,2.822,11.2,3.71,11.2,3.71a14.293,14.293,0,0,1-4.966,3.783,13.971,13.971,0,0,0,13.9-4.975L2059,3929.36C2060.613,3915.492,2057.688,3909.506,2056.261,3907.49Z" fill="#f15a24"/>
    </g>
    <g id="Grupo_56529" data-name="Grupo 56529">
      <g id="Grupo_56528" data-name="Grupo 56528">
        <g id="Grupo_56527" data-name="Grupo 56527">
          <g id="Grupo_56520" data-name="Grupo 56520">
            <path id="Trazado_125032" data-name="Trazado 125032" d="M2448.276,4117.592l-7.484-6.7a6.135,6.135,0,0,1-1.934-5.727c4.9-25.468-2.6-48.6-5.1-53.916a5.824,5.824,0,0,1-.54-2.7c1.158-30.987-1.453-53.954-4.486-62.483-3.3-9.284-26.568-17.712-29.766-20.664s-3.015-14.514-3.015-14.514h-10.726s.184,11.562-3.014,14.514-26.465,11.38-29.767,20.664c-3.033,8.529-5.643,31.5-4.486,62.483a5.824,5.824,0,0,1-.54,2.7c-2.494,5.311-9.993,28.448-5.1,53.916a6.138,6.138,0,0,1-1.935,5.727l-7.483,6.7a1.222,1.222,0,0,0,1.143,2.088,11.318,11.318,0,0,0,2.716-1.2c4.06-2.4,8.488-6.458,10.148-9.594,1.491-2.816,15.317-86.038,18.133-103.054,2.341,9.346,5.126,20.811,3.793,30.913-2.3,17.454-23.279,60.583,6.03,129.389a21.55,21.55,0,0,1,1.333,12.712c-7.737,38.235-9.25,41.9,6.136,92.956,0,0,1.693,12.446-10.229,25.291a1.031,1.031,0,0,0,.555,1.7c3.075.647,9.558,1.621,14.9-.179a1.032,1.032,0,0,0,.687-.975l1.164-208.5h2.364l1.165,208.5a1.029,1.029,0,0,0,.686.975c5.337,1.8,11.82.826,14.9.179a1.031,1.031,0,0,0,.555-1.7c-11.922-12.845-10.229-25.291-10.229-25.291,15.385-51.051,13.872-54.721,6.136-92.956a21.542,21.542,0,0,1,1.333-12.712c29.309-68.806,8.331-111.935,6.029-129.389-1.333-10.1,1.452-21.567,3.793-30.913,2.816,17.016,16.643,100.238,18.133,103.054,1.661,3.136,6.089,7.195,10.148,9.594a11.343,11.343,0,0,0,2.716,1.2A1.222,1.222,0,0,0,2448.276,4117.592Z" fill="#f2f2f2"/>
            <g id="Grupo_56519" data-name="Grupo 56519" clip-path="url(#clip-path-4)">
              <path id="Trazado_125033" data-name="Trazado 125033" d="M2418.7,3989.731c1.968,7.011-8.675,29.274-6.3,47.233.945,7.163,5.036,18.652,7.5,34.466-14.651-1.862-28.075,17.932-28.075,17.932h-2.364a43.461,43.461,0,0,0-28.076-17.931c2.469-15.815,6.56-27.3,7.5-34.467,2.37-17.959-8.273-40.222-6.3-47.233,0,0,18.672-8.69,27.423,4.04C2390,3993.771,2399.71,3982.554,2418.7,3989.731Z" fill="#222221"/>
              <path id="Trazado_125034" data-name="Trazado 125034" d="M2381.152,3954.559a22.093,22.093,0,0,0,23.184-12.251" fill="none" stroke="#999" stroke-miterlimit="10" stroke-width="1.026" opacity="0.2"/>
            </g>
          </g>
          <g id="Grupo_56526" data-name="Grupo 56526">
            <path id="Trazado_125036" data-name="Trazado 125036" d="M2390,3908.347a39.205,39.205,0,0,0-16.664,5.946,65.22,65.22,0,0,0-1.048,11.982c0,20.216,12.282,27.781,17.712,27.781s17.711-7.565,17.711-27.781a65.224,65.224,0,0,0-1.047-11.982C2406.647,3914.3,2401.141,3909.094,2390,3908.347Z" fill="#f2f2f2"/>
            <g id="Grupo_56525" data-name="Grupo 56525" clip-path="url(#clip-path-5)">
              <g id="Grupo_56524" data-name="Grupo 56524">
                <g id="Grupo_56523" data-name="Grupo 56523">
                  <g id="Grupo_56522" data-name="Grupo 56522">
                    <path id="Trazado_125037" data-name="Trazado 125037" d="M2390,3943.738c2.966-.05,5.727-4.237,5.5-4.069-.156.173-2.89-1.137-3.272-1.2-.465.217-2.174,2.057-2.223,2.017a17.278,17.278,0,0,0-2.224-2.018c-.529.007-3.129,1.352-3.273,1.2C2384.277,3939.5,2387.037,3943.686,2390,3943.738Z" fill="#f45656"/>
                    <g id="Grupo_56521" data-name="Grupo 56521" clip-path="url(#clip-path-6)">
                      <path id="Trazado_125038" data-name="Trazado 125038" d="M2395.5,3939.652a7.577,7.577,0,0,1-10.994,0" fill="none" stroke="#7c2727" stroke-linecap="round" stroke-linejoin="round" stroke-width="0.301"/>
                    </g>
                  </g>
                </g>
                <path id="Trazado_125040" data-name="Trazado 125040" d="M2393.557,3929.87c0-.8,1.857-1.439,4.149-1.439s4.149.644,4.149,1.439-1.858,1.439-4.149,1.439S2393.557,3930.665,2393.557,3929.87Z" fill="#ecc9d9"/>
                <path id="Trazado_125041" data-name="Trazado 125041" d="M2378.155,3929.87c0-.8,1.857-1.439,4.149-1.439s4.149.644,4.149,1.439-1.858,1.439-4.149,1.439S2378.155,3930.665,2378.155,3929.87Z" fill="#ecc9d9"/>
                <path id="Trazado_125042" data-name="Trazado 125042" d="M2376.892,3920.373s4.762,11.256,10.824,0" fill="none" stroke="#222221" stroke-linecap="round" stroke-linejoin="round" stroke-width="1.204"/>
                <path id="Trazado_125043" data-name="Trazado 125043" d="M2403.118,3920.373s-4.763,11.256-10.824,0" fill="none" stroke="#222221" stroke-linecap="round" stroke-linejoin="round" stroke-width="1.204"/>
                <path id="Trazado_125044" data-name="Trazado 125044" d="M2390.205,3934.628l-2.489-1.423,2.489-10.331" fill="none" stroke="#222221" stroke-linecap="round" stroke-linejoin="round" stroke-width="0.602"/>
              </g>
            </g>
          </g>
          <path id="Trazado_125046" data-name="Trazado 125046" d="M2406.653,3907.336s-.452-14.905-17.557-11.292c-30.47,8.582-17.222,34.026-17.222,34.026,2.259.468,6.8-13.7,6.8-13.7,5.916,1.821,12.772.311,17.595-1.333a46.118,46.118,0,0,1-6.944,3.14c6.164-.151,13.107-5.721,13.107-5.721s1.807,13.249,5.119,16.109C2407.556,3928.564,2412.826,3909.745,2406.653,3907.336Z" fill="#ff9696"/>
        </g>
      </g>
    </g>
    <path id="Trazado_125047" data-name="Trazado 125047" d="M2227.861,3985.208s-4.112,12.075,4.38,16.231c7.182,3.515,11.41.2,16.554-4.737" fill="none" stroke="#754c24" stroke-miterlimit="10" stroke-width="1"/>
    <path id="Trazado_125048" data-name="Trazado 125048" d="M2281.675,3985.208s4.113,12.075-4.38,16.231c-7.182,3.515-11.409.2-16.554-4.737" fill="none" stroke="#754c24" stroke-miterlimit="10" stroke-width="1"/>
    <path id="Trazado_125049" data-name="Trazado 125049" d="M2272.251,3994.055s3.209,1.692,3.476-1.44" fill="none" stroke="#754c24" stroke-miterlimit="10" stroke-width="1"/>
    <path id="Trazado_125050" data-name="Trazado 125050" d="M2237.059,3994.055s-3.208,1.692-3.476-1.44" fill="none" stroke="#754c24" stroke-miterlimit="10" stroke-width="1"/>
  </g>
</svg>
