<svg xmlns="http://www.w3.org/2000/svg" width="48.932" height="48.932" viewBox="0 0 48.932 48.932">
  <g id="Grupo_54679" data-name="Grupo 54679" transform="translate(-149.235 -5833.079)">
    <g id="Grupo_54641" data-name="Grupo 54641" transform="translate(149.235 5833.079)">
      <g id="Grupo_54640" data-name="Grupo 54640">
        <path id="Trazado_103612" data-name="Trazado 103612" d="M197.927,5843.105l-9.786-9.788a.815.815,0,0,0-1.153,0l-37.514,37.514a.815.815,0,0,0,0,1.153l9.786,9.786a.815.815,0,0,0,1.153,0l37.514-37.513a.814.814,0,0,0,0-1.152Zm-38.09,36.937-8.634-8.634,36.36-36.359,8.634,8.633Z" transform="translate(-149.235 -5833.079)" fill="#ff9696"/>
      </g>
    </g>
    <g id="Grupo_54643" data-name="Grupo 54643" transform="translate(185.936 5840.419)">
      <g id="Grupo_54642" data-name="Grupo 54642" transform="translate(0)">
        <path id="Trazado_103613" data-name="Trazado 103613" d="M195.754,5841.893a2.447,2.447,0,1,0,2.447,2.446A2.45,2.45,0,0,0,195.754,5841.893Zm0,3.262a.816.816,0,1,1,.816-.815A.816.816,0,0,1,195.754,5845.155Z" transform="translate(-193.307 -5841.893)" fill="#ff9696"/>
      </g>
    </g>
    <g id="Grupo_54645" data-name="Grupo 54645" transform="translate(179.65 5840.658)">
      <g id="Grupo_54644" data-name="Grupo 54644">
        <rect id="Rectángulo_5264" data-name="Rectángulo 5264" width="1.631" height="3.46" transform="translate(0 1.153) rotate(-45)" fill="#ff9696"/>
      </g>
    </g>
    <g id="Grupo_54647" data-name="Grupo 54647" transform="translate(177.203 5843.105)">
      <g id="Grupo_54646" data-name="Grupo 54646" transform="translate(0)">
        <rect id="Rectángulo_5265" data-name="Rectángulo 5265" width="1.631" height="4.614" transform="translate(0 1.153) rotate(-45)" fill="#ff9696"/>
      </g>
    </g>
    <g id="Grupo_54649" data-name="Grupo 54649" transform="translate(174.757 5845.551)">
      <g id="Grupo_54648" data-name="Grupo 54648">
        <rect id="Rectángulo_5266" data-name="Rectángulo 5266" width="1.631" height="3.46" transform="translate(0 1.153) rotate(-45)" fill="#ff9696"/>
      </g>
    </g>
    <g id="Grupo_54651" data-name="Grupo 54651" transform="translate(172.31 5847.997)">
      <g id="Grupo_54650" data-name="Grupo 54650" transform="translate(0)">
        <rect id="Rectángulo_5267" data-name="Rectángulo 5267" width="1.631" height="4.614" transform="translate(0 1.153) rotate(-45)" fill="#ff9696"/>
      </g>
    </g>
    <g id="Grupo_54653" data-name="Grupo 54653" transform="translate(169.863 5850.443)">
      <g id="Grupo_54652" data-name="Grupo 54652">
        <rect id="Rectángulo_5268" data-name="Rectángulo 5268" width="1.631" height="3.46" transform="translate(0 1.153) rotate(-45)" fill="#ff9696"/>
      </g>
    </g>
    <g id="Grupo_54655" data-name="Grupo 54655" transform="translate(167.416 5852.889)">
      <g id="Grupo_54654" data-name="Grupo 54654">
        <rect id="Rectángulo_5269" data-name="Rectángulo 5269" width="1.631" height="4.614" transform="translate(0 1.153) rotate(-45)" fill="#ff9696"/>
      </g>
    </g>
    <g id="Grupo_54657" data-name="Grupo 54657" transform="translate(164.97 5855.335)">
      <g id="Grupo_54656" data-name="Grupo 54656" transform="translate(0)">
        <rect id="Rectángulo_5270" data-name="Rectángulo 5270" width="1.631" height="3.46" transform="translate(0 1.154) rotate(-45.008)" fill="#ff9696"/>
      </g>
    </g>
    <g id="Grupo_54659" data-name="Grupo 54659" transform="translate(162.523 5857.784)">
      <g id="Grupo_54658" data-name="Grupo 54658" transform="translate(0)">
        <rect id="Rectángulo_5271" data-name="Rectángulo 5271" width="1.631" height="4.614" transform="translate(0 1.153) rotate(-45)" fill="#ff9696"/>
      </g>
    </g>
    <g id="Grupo_54661" data-name="Grupo 54661" transform="translate(160.077 5860.23)">
      <g id="Grupo_54660" data-name="Grupo 54660">
        <rect id="Rectángulo_5272" data-name="Rectángulo 5272" width="1.631" height="3.46" transform="translate(0 1.153) rotate(-45)" fill="#ff9696"/>
      </g>
    </g>
    <g id="Grupo_54663" data-name="Grupo 54663" transform="translate(157.629 5862.677)">
      <g id="Grupo_54662" data-name="Grupo 54662" transform="translate(0)">
        <rect id="Rectángulo_5273" data-name="Rectángulo 5273" width="1.631" height="4.614" transform="translate(0 1.153) rotate(-45)" fill="#ff9696"/>
      </g>
    </g>
    <g id="Grupo_54665" data-name="Grupo 54665" transform="translate(155.185 5865.125)">
      <g id="Grupo_54664" data-name="Grupo 54664" transform="translate(0)">
        <rect id="Rectángulo_5274" data-name="Rectángulo 5274" width="1.631" height="3.46" transform="translate(0 1.153) rotate(-45)" fill="#ff9696"/>
      </g>
    </g>
    <g id="Grupo_54667" data-name="Grupo 54667" transform="translate(152.736 5867.57)">
      <g id="Grupo_54666" data-name="Grupo 54666">
        <rect id="Rectángulo_5275" data-name="Rectángulo 5275" width="1.631" height="4.614" transform="translate(0 1.153) rotate(-45)" fill="#ff9696"/>
      </g>
    </g>
  </g>
</svg>
