<svg xmlns="http://www.w3.org/2000/svg" width="396" height="335.011" viewBox="0 0 396 335.011">
  <g id="Grupo_54089" data-name="Grupo 54089" transform="translate(-712.407 -3575.256)">
    <rect id="Rectángulo_5145" data-name="Rectángulo 5145" width="143.073" height="37.221" rx="4.82" transform="translate(965.334 3605.204)" fill="#86bec4"/>
    <circle id="Elipse_4004" data-name="Elipse 4004" cx="109.809" cy="109.809" r="109.809" transform="translate(797.371 3639.058)" fill="#8c757e"/>
    <path id="Trazado_102023" data-name="Trazado 102023" d="M890.305,3736.2,787.79,3775.548A109.831,109.831,0,0,1,780.5,3736.2c0-60.24,49.57-109.809,109.809-109.809Z" transform="translate(16.875 12.672)" fill="#ede3b7"/>
    <path id="Trazado_102024" data-name="Trazado 102024" d="M868.5,3736.2l102.516,39.352a109.8,109.8,0,0,0,7.294-39.352c0-60.24-49.569-109.809-109.809-109.809Z" transform="translate(38.684 12.672)" fill="#86bec4"/>
    <g id="Grupo_54078" data-name="Grupo 54078" transform="translate(830.947 3699.515)">
      <path id="Trazado_102025" data-name="Trazado 102025" d="M816.891,3698.6h-4.711v-19.33H807.4v-3.324l9.487-.839Z" transform="translate(-807.404 -3674.768)" fill="#8c757e"/>
      <path id="Trazado_102026" data-name="Trazado 102026" d="M824.788,3700.617h-4.582l8.615-25.511H833.4Z" transform="translate(-804.231 -3674.768)" fill="#8c757e"/>
      <path id="Trazado_102027" data-name="Trazado 102027" d="M837.188,3684.92h2.647a3.215,3.215,0,0,0,2.484-.879,3.482,3.482,0,0,0,.807-2.445,3.18,3.18,0,0,0-.807-2.275,3.064,3.064,0,0,0-2.34-.855,3.305,3.305,0,0,0-2.227.775,2.547,2.547,0,0,0-.9,2.033h-4.567l-.033-.1a5.346,5.346,0,0,1,2.114-4.551,8.44,8.44,0,0,1,5.487-1.79,9.019,9.019,0,0,1,5.816,1.742,6.008,6.008,0,0,1,2.17,4.97,5,5,0,0,1-.967,2.912,6.447,6.447,0,0,1-2.663,2.154,5.993,5.993,0,0,1,2.977,2.13,5.6,5.6,0,0,1,1.025,3.34,6.1,6.1,0,0,1-2.348,5.074,9.418,9.418,0,0,1-6.01,1.848,9.2,9.2,0,0,1-5.624-1.734,5.541,5.541,0,0,1-2.266-4.9l.031-.1h4.567a2.867,2.867,0,0,0,.968,2.225,3.521,3.521,0,0,0,2.452.875,3.573,3.573,0,0,0,2.574-.9,3.222,3.222,0,0,0,.943-2.447,3.539,3.539,0,0,0-.927-2.713,3.891,3.891,0,0,0-2.735-.861h-2.647Z" transform="translate(-801.319 -3674.836)" fill="#8c757e"/>
    </g>
    <g id="Grupo_54079" data-name="Grupo 54079" transform="translate(930.774 3699.515)">
      <path id="Trazado_102028" data-name="Trazado 102028" d="M896.891,3698.6h-4.711v-19.33H887.4v-3.324l9.487-.839Z" transform="translate(-887.404 -3674.768)" fill="#f4f9fa"/>
      <path id="Trazado_102029" data-name="Trazado 102029" d="M904.788,3700.617h-4.582l8.615-25.511H913.4Z" transform="translate(-884.231 -3674.768)" fill="#f4f9fa"/>
      <path id="Trazado_102030" data-name="Trazado 102030" d="M917.188,3684.92h2.647a3.215,3.215,0,0,0,2.484-.879,3.482,3.482,0,0,0,.807-2.445,3.18,3.18,0,0,0-.807-2.275,3.064,3.064,0,0,0-2.34-.855,3.306,3.306,0,0,0-2.227.775,2.547,2.547,0,0,0-.9,2.033h-4.567l-.032-.1a5.346,5.346,0,0,1,2.114-4.551,8.44,8.44,0,0,1,5.487-1.79,9.019,9.019,0,0,1,5.816,1.742,6.008,6.008,0,0,1,2.17,4.97,5,5,0,0,1-.967,2.912,6.447,6.447,0,0,1-2.663,2.154,5.994,5.994,0,0,1,2.977,2.13,5.6,5.6,0,0,1,1.025,3.34,6.1,6.1,0,0,1-2.348,5.074,9.418,9.418,0,0,1-6.01,1.848,9.2,9.2,0,0,1-5.624-1.734,5.541,5.541,0,0,1-2.266-4.9l.031-.1h4.567a2.867,2.867,0,0,0,.968,2.225,3.521,3.521,0,0,0,2.452.875,3.573,3.573,0,0,0,2.574-.9,3.222,3.222,0,0,0,.943-2.447,3.539,3.539,0,0,0-.927-2.713,3.891,3.891,0,0,0-2.735-.861h-2.647Z" transform="translate(-881.319 -3674.836)" fill="#f4f9fa"/>
    </g>
    <g id="Grupo_54080" data-name="Grupo 54080" transform="translate(973.501 3613.405)">
      <path id="Trazado_102031" data-name="Trazado 102031" d="M921.645,3621.991V3606.7h5.25a6.31,6.31,0,0,1,4.621,1.791,6.172,6.172,0,0,1,1.816,4.593v2.532a6.149,6.149,0,0,1-1.816,4.592,6.329,6.329,0,0,1-4.621,1.781Zm3.066-12.925v10.562h2.026a3.2,3.2,0,0,0,2.584-1.111,4.368,4.368,0,0,0,.935-2.906v-2.55a4.337,4.337,0,0,0-.935-2.885,3.2,3.2,0,0,0-2.584-1.111Z" transform="translate(-921.645 -3605.611)" fill="#f4f9fa"/>
      <path id="Trazado_102032" data-name="Trazado 102032" d="M937.839,3621.474a5.111,5.111,0,0,1-3.927-1.576,5.633,5.633,0,0,1-1.471-4v-.419a6.214,6.214,0,0,1,1.391-4.168,5.188,5.188,0,0,1,7.3-.241,5.329,5.329,0,0,1,1.27,3.749v1.67h-6.783l-.021.061a2.942,2.942,0,0,0,.751,1.841,2.343,2.343,0,0,0,1.812.722,5.92,5.92,0,0,0,1.69-.2,7.76,7.76,0,0,0,1.47-.645l.83,1.895a5.633,5.633,0,0,1-1.817.944A7.888,7.888,0,0,1,937.839,3621.474Zm-.273-9.429a1.594,1.594,0,0,0-1.344.651,3.39,3.39,0,0,0-.609,1.713l.031.052H939.4v-.273a2.468,2.468,0,0,0-.456-1.56A1.645,1.645,0,0,0,937.566,3612.044Z" transform="translate(-918.969 -3604.873)" fill="#f4f9fa"/>
      <path id="Trazado_102033" data-name="Trazado 102033" d="M944.671,3609.892l.137,1.627a4.129,4.129,0,0,1,1.4-1.354,3.624,3.624,0,0,1,1.858-.483,3.416,3.416,0,0,1,2.688,1.082,4.99,4.99,0,0,1,.967,3.39v7.1h-3.077v-7.1a2.312,2.312,0,0,0-.462-1.626,1.856,1.856,0,0,0-1.4-.479,2.358,2.358,0,0,0-1.092.247,2.245,2.245,0,0,0-.81.7v8.262h-3.066v-11.362Z" transform="translate(-916.646 -3604.873)" fill="#f4f9fa"/>
      <path id="Trazado_102034" data-name="Trazado 102034" d="M951.206,3615.467a6.1,6.1,0,0,1,1.418-4.163,4.938,4.938,0,0,1,3.927-1.622,5,5,0,0,1,3.948,1.616,6.069,6.069,0,0,1,1.429,4.169v.221a6.068,6.068,0,0,1-1.424,4.174,5.614,5.614,0,0,1-7.875,0,6.073,6.073,0,0,1-1.423-4.174Zm3.056.216a4.922,4.922,0,0,0,.545,2.489,2.1,2.1,0,0,0,3.5,0,4.9,4.9,0,0,0,.55-2.484v-.221A4.837,4.837,0,0,0,958.3,3613a1.882,1.882,0,0,0-1.753-.954,1.862,1.862,0,0,0-1.738.959,4.9,4.9,0,0,0-.55,2.458Z" transform="translate(-914.319 -3604.873)" fill="#f4f9fa"/>
      <path id="Trazado_102035" data-name="Trazado 102035" d="M964.157,3609.892l.127,1.5a3.794,3.794,0,0,1,1.37-1.265,3.93,3.93,0,0,1,1.905-.447,3.474,3.474,0,0,1,1.869.483,2.97,2.97,0,0,1,1.175,1.459,3.933,3.933,0,0,1,1.365-1.427,3.694,3.694,0,0,1,1.974-.515,3.277,3.277,0,0,1,2.652,1.159,5.42,5.42,0,0,1,.972,3.534v6.878H974.5v-6.9a2.885,2.885,0,0,0-.421-1.8,1.534,1.534,0,0,0-1.249-.505,2.142,2.142,0,0,0-1.13.289,2.106,2.106,0,0,0-.76.8c0,.134,0,.247.01.342s.011.192.011.29v7.483h-3.057v-6.9a2.891,2.891,0,0,0-.419-1.783,1.522,1.522,0,0,0-1.259-.521,2.376,2.376,0,0,0-1.087.237,2.076,2.076,0,0,0-.772.669v8.3h-3.056v-11.362Z" transform="translate(-911.814 -3604.873)" fill="#f4f9fa"/>
      <path id="Trazado_102036" data-name="Trazado 102036" d="M979.415,3608.127h-3.066v-2.3h3.066Zm0,14.081h-3.066v-11.361h3.066Z" transform="translate(-908.088 -3605.828)" fill="#f4f9fa"/>
      <path id="Trazado_102037" data-name="Trazado 102037" d="M983.641,3609.892l.136,1.627a4.153,4.153,0,0,1,1.4-1.354,3.632,3.632,0,0,1,1.859-.483,3.418,3.418,0,0,1,2.688,1.082,4.991,4.991,0,0,1,.966,3.39v7.1h-3.076v-7.1a2.306,2.306,0,0,0-.463-1.626,1.856,1.856,0,0,0-1.4-.479,2.366,2.366,0,0,0-1.092.247,2.251,2.251,0,0,0-.809.7v8.262h-3.066v-11.362Z" transform="translate(-906.988 -3604.873)" fill="#f4f9fa"/>
      <path id="Trazado_102038" data-name="Trazado 102038" d="M997.341,3621.253a6.268,6.268,0,0,1-.288-.819,5.5,5.5,0,0,1-.173-.882,4.245,4.245,0,0,1-1.244,1.375,3.109,3.109,0,0,1-1.844.546,3.83,3.83,0,0,1-2.75-.919,3.292,3.292,0,0,1-.966-2.5,3,3,0,0,1,1.285-2.589,6.43,6.43,0,0,1,3.755-.918h1.712v-.9a1.764,1.764,0,0,0-.432-1.271,2.009,2.009,0,0,0-2.42-.088,1.275,1.275,0,0,0-.4,1l-2.961-.011-.01-.062a2.886,2.886,0,0,1,1.249-2.484,5.446,5.446,0,0,1,3.475-1.044,5.071,5.071,0,0,1,3.308,1.034,3.58,3.58,0,0,1,1.27,2.945v4.694a8.823,8.823,0,0,0,.121,1.5,7.512,7.512,0,0,0,.383,1.4Zm-2.8-2.048a2.624,2.624,0,0,0,1.439-.4,2.084,2.084,0,0,0,.851-.924v-1.606h-1.712a2.052,2.052,0,0,0-1.481.487,1.588,1.588,0,0,0-.5,1.183,1.178,1.178,0,0,0,.379.912A1.454,1.454,0,0,0,994.537,3619.205Z" transform="translate(-904.686 -3604.873)" fill="#f4f9fa"/>
      <path id="Trazado_102039" data-name="Trazado 102039" d="M999.431,3616.622a7.391,7.391,0,0,1,1.16-4.336,3.769,3.769,0,0,1,3.272-1.648,3.193,3.193,0,0,1,1.534.367,3.717,3.717,0,0,1,1.2,1.051v-6.227h3.076v16.38h-2.635l-.252-1.385a3.776,3.776,0,0,1-1.265,1.2,3.378,3.378,0,0,1-1.676.409,3.838,3.838,0,0,1-3.249-1.534,6.551,6.551,0,0,1-1.16-4.053Zm3.057.222a4.685,4.685,0,0,0,.5,2.362,1.751,1.751,0,0,0,1.638.86,2.358,2.358,0,0,0,1.154-.27,2.12,2.12,0,0,0,.81-.787v-4.87a2.377,2.377,0,0,0-.8-.84,2.127,2.127,0,0,0-1.139-.3,1.73,1.73,0,0,0-1.643,1,5.691,5.691,0,0,0-.519,2.618Z" transform="translate(-902.367 -3605.828)" fill="#f4f9fa"/>
      <path id="Trazado_102040" data-name="Trazado 102040" d="M1009.159,3615.467a6.094,6.094,0,0,1,1.419-4.163,4.934,4.934,0,0,1,3.926-1.622,5,5,0,0,1,3.948,1.616,6.069,6.069,0,0,1,1.429,4.169v.221a6.068,6.068,0,0,1-1.424,4.174,5.614,5.614,0,0,1-7.875,0,6.073,6.073,0,0,1-1.423-4.174Zm3.056.216a4.922,4.922,0,0,0,.547,2.489,2.1,2.1,0,0,0,3.5,0,4.9,4.9,0,0,0,.552-2.484v-.221a4.836,4.836,0,0,0-.558-2.463,1.882,1.882,0,0,0-1.753-.954,1.862,1.862,0,0,0-1.738.959,4.911,4.911,0,0,0-.55,2.458Z" transform="translate(-899.956 -3604.873)" fill="#f4f9fa"/>
      <path id="Trazado_102041" data-name="Trazado 102041" d="M1025.24,3612.527l-1.123-.031a2.045,2.045,0,0,0-1.123.283,1.788,1.788,0,0,0-.671.8v7.676h-3.057v-11.362h2.846l.136,1.679a3.575,3.575,0,0,1,1.034-1.39,2.305,2.305,0,0,1,1.465-.5,2.248,2.248,0,0,1,.426.036c.129.025.261.054.393.09Z" transform="translate(-897.452 -3604.873)" fill="#f4f9fa"/>
    </g>
    <rect id="Rectángulo_5146" data-name="Rectángulo 5146" width="127.558" height="37.221" rx="4.82" transform="translate(712.407 3605.204)" fill="#ede3b7"/>
    <g id="Grupo_54081" data-name="Grupo 54081" transform="translate(723.496 3613.405)">
      <path id="Trazado_102042" data-name="Trazado 102042" d="M733.652,3621.991H730.6l-6.174-10.448-.062.011v10.437h-3.066V3606.7h3.066l6.174,10.437.063-.011V3606.7h3.056Z" transform="translate(-721.294 -3605.611)" fill="#8c757e"/>
      <path id="Trazado_102043" data-name="Trazado 102043" d="M740.248,3619.573a3.832,3.832,0,0,1-1.334,1.376,3.931,3.931,0,0,1-4.667-.667,5.308,5.308,0,0,1-1.013-3.575v-6.856h3.055v6.894a2.951,2.951,0,0,0,.42,1.783,1.472,1.472,0,0,0,1.239.542,3.061,3.061,0,0,0,1.26-.236,2.138,2.138,0,0,0,.861-.7v-8.283h3.066v11.361h-2.614Z" transform="translate(-718.335 -3604.831)" fill="#8c757e"/>
      <path id="Trazado_102044" data-name="Trazado 102044" d="M745.865,3609.892l.127,1.5a3.794,3.794,0,0,1,1.37-1.265,3.931,3.931,0,0,1,1.905-.447,3.474,3.474,0,0,1,1.869.483,2.972,2.972,0,0,1,1.175,1.459,3.933,3.933,0,0,1,1.365-1.427,3.7,3.7,0,0,1,1.974-.515,3.277,3.277,0,0,1,2.652,1.159,5.42,5.42,0,0,1,.972,3.534v6.878H756.21v-6.9a2.885,2.885,0,0,0-.421-1.8,1.534,1.534,0,0,0-1.249-.505,2.142,2.142,0,0,0-1.131.289,2.107,2.107,0,0,0-.76.8c0,.134,0,.247.01.342s.011.192.011.29v7.483h-3.057v-6.9a2.891,2.891,0,0,0-.419-1.783,1.522,1.522,0,0,0-1.259-.521,2.376,2.376,0,0,0-1.087.237,2.077,2.077,0,0,0-.772.669v8.3H743.02v-11.362Z" transform="translate(-715.91 -3604.873)" fill="#8c757e"/>
      <path id="Trazado_102045" data-name="Trazado 102045" d="M763.035,3621.474a5.112,5.112,0,0,1-3.928-1.576,5.633,5.633,0,0,1-1.471-4v-.419a6.208,6.208,0,0,1,1.393-4.168,5.186,5.186,0,0,1,7.3-.241,5.329,5.329,0,0,1,1.272,3.749v1.67h-6.784l-.02.061a2.949,2.949,0,0,0,.75,1.841,2.344,2.344,0,0,0,1.812.722,5.934,5.934,0,0,0,1.691-.2,7.786,7.786,0,0,0,1.47-.645l.83,1.895a5.662,5.662,0,0,1-1.817.944A7.9,7.9,0,0,1,763.035,3621.474Zm-.275-9.429a1.592,1.592,0,0,0-1.343.651,3.382,3.382,0,0,0-.61,1.713l.032.052H764.6v-.273a2.468,2.468,0,0,0-.456-1.56A1.645,1.645,0,0,0,762.761,3612.044Z" transform="translate(-712.287 -3604.873)" fill="#8c757e"/>
      <path id="Trazado_102046" data-name="Trazado 102046" d="M773.028,3612.527l-1.123-.031a2.045,2.045,0,0,0-1.123.283,1.787,1.787,0,0,0-.671.8v7.676h-3.057v-11.362H769.9l.136,1.679a3.577,3.577,0,0,1,1.034-1.39,2.305,2.305,0,0,1,1.465-.5,2.247,2.247,0,0,1,.426.036c.129.025.261.054.393.09Z" transform="translate(-709.953 -3604.873)" fill="#8c757e"/>
      <path id="Trazado_102047" data-name="Trazado 102047" d="M779.873,3621.253a6.277,6.277,0,0,1-.288-.819,5.649,5.649,0,0,1-.173-.882,4.246,4.246,0,0,1-1.244,1.375,3.108,3.108,0,0,1-1.843.546,3.826,3.826,0,0,1-2.75-.919,3.288,3.288,0,0,1-.967-2.5,3,3,0,0,1,1.285-2.589,6.43,6.43,0,0,1,3.755-.918h1.712v-.9a1.768,1.768,0,0,0-.431-1.271,2.01,2.01,0,0,0-2.421-.088,1.275,1.275,0,0,0-.4,1l-2.961-.011-.01-.062a2.886,2.886,0,0,1,1.249-2.484,5.449,5.449,0,0,1,3.475-1.044,5.071,5.071,0,0,1,3.308,1.034,3.58,3.58,0,0,1,1.27,2.945v4.694a8.823,8.823,0,0,0,.121,1.5,7.5,7.5,0,0,0,.383,1.4Zm-2.8-2.048a2.628,2.628,0,0,0,1.44-.4,2.08,2.08,0,0,0,.85-.924v-1.606h-1.712a2.049,2.049,0,0,0-1.48.487,1.585,1.585,0,0,0-.505,1.183,1.178,1.178,0,0,0,.379.912A1.456,1.456,0,0,0,777.069,3619.205Z" transform="translate(-708.577 -3604.873)" fill="#8c757e"/>
      <path id="Trazado_102048" data-name="Trazado 102048" d="M781.965,3616.622a7.391,7.391,0,0,1,1.159-4.336,3.769,3.769,0,0,1,3.272-1.648,3.19,3.19,0,0,1,1.534.367,3.718,3.718,0,0,1,1.2,1.051v-6.227H792.2v16.38h-2.637l-.252-1.385a3.774,3.774,0,0,1-1.265,1.2,3.374,3.374,0,0,1-1.675.409,3.839,3.839,0,0,1-3.251-1.534,6.551,6.551,0,0,1-1.159-4.053Zm3.056.222a4.7,4.7,0,0,0,.5,2.362,1.753,1.753,0,0,0,1.64.86,2.353,2.353,0,0,0,1.153-.27,2.121,2.121,0,0,0,.81-.787v-4.87a2.378,2.378,0,0,0-.8-.84,2.126,2.126,0,0,0-1.139-.3,1.731,1.731,0,0,0-1.643,1,5.689,5.689,0,0,0-.519,2.618Z" transform="translate(-706.258 -3605.828)" fill="#8c757e"/>
      <path id="Trazado_102049" data-name="Trazado 102049" d="M791.692,3615.467a6.093,6.093,0,0,1,1.419-4.163,4.936,4.936,0,0,1,3.926-1.622,4.994,4.994,0,0,1,3.948,1.616,6.068,6.068,0,0,1,1.429,4.169v.221a6.069,6.069,0,0,1-1.424,4.174,5.613,5.613,0,0,1-7.874,0,6.068,6.068,0,0,1-1.424-4.174Zm3.056.216a4.921,4.921,0,0,0,.547,2.489,2.1,2.1,0,0,0,3.5,0,4.9,4.9,0,0,0,.552-2.484v-.221a4.849,4.849,0,0,0-.557-2.463,1.884,1.884,0,0,0-1.754-.954,1.86,1.86,0,0,0-1.737.959,4.9,4.9,0,0,0-.552,2.458Z" transform="translate(-703.847 -3604.873)" fill="#8c757e"/>
      <path id="Trazado_102050" data-name="Trazado 102050" d="M807.773,3612.527l-1.124-.031a2.045,2.045,0,0,0-1.123.283,1.787,1.787,0,0,0-.671.8v7.676H801.8v-11.362h2.845l.136,1.679a3.576,3.576,0,0,1,1.035-1.39,2.305,2.305,0,0,1,1.465-.5,2.247,2.247,0,0,1,.426.036c.129.025.261.054.393.09Z" transform="translate(-701.342 -3604.873)" fill="#8c757e"/>
    </g>
    <g id="Grupo_54082" data-name="Grupo 54082" transform="translate(881.4 3795)">
      <path id="Trazado_102051" data-name="Trazado 102051" d="M857.323,3775.122h-4.711v-19.33h-4.777v-3.324l9.487-.839Z" transform="translate(-847.836 -3751.289)" fill="#f4f9fa"/>
      <path id="Trazado_102052" data-name="Trazado 102052" d="M865.219,3777.138h-4.582l8.616-25.51h4.583Z" transform="translate(-844.663 -3751.289)" fill="#f4f9fa"/>
      <path id="Trazado_102053" data-name="Trazado 102053" d="M877.62,3761.441h2.647a3.212,3.212,0,0,0,2.484-.879,3.478,3.478,0,0,0,.807-2.444,3.18,3.18,0,0,0-.807-2.275,3.068,3.068,0,0,0-2.34-.855,3.3,3.3,0,0,0-2.227.776,2.542,2.542,0,0,0-.9,2.031h-4.566l-.032-.1a5.343,5.343,0,0,1,2.114-4.55,8.441,8.441,0,0,1,5.487-1.791,9.016,9.016,0,0,1,5.816,1.743,6,6,0,0,1,2.17,4.969,5,5,0,0,1-.967,2.912,6.454,6.454,0,0,1-2.663,2.155,5.975,5.975,0,0,1,2.976,2.13,5.6,5.6,0,0,1,1.026,3.34,6.1,6.1,0,0,1-2.348,5.073,9.424,9.424,0,0,1-6.009,1.847,9.2,9.2,0,0,1-5.624-1.733,5.545,5.545,0,0,1-2.267-4.9l.032-.1h4.567a2.866,2.866,0,0,0,.967,2.224,3.519,3.519,0,0,0,2.453.875,3.581,3.581,0,0,0,2.574-.9,3.227,3.227,0,0,0,.942-2.447,3.537,3.537,0,0,0-.927-2.713,3.886,3.886,0,0,0-2.734-.863H877.62Z" transform="translate(-841.751 -3751.357)" fill="#f4f9fa"/>
    </g>
    <g id="Grupo_54084" data-name="Grupo 54084" transform="translate(857.593 3575.256)">
      <circle id="Elipse_4005" data-name="Elipse 4005" cx="18.066" cy="18.066" r="18.066" fill="#ede3b7"/>
      <circle id="Elipse_4006" data-name="Elipse 4006" cx="18.066" cy="18.066" r="18.066" transform="translate(66.732)" fill="#86bec4"/>
      <g id="Grupo_54083" data-name="Grupo 54083" transform="translate(12.739 6.115)">
        <path id="Trazado_102054" data-name="Trazado 102054" d="M848.454,3603.922h-4.711v-19.33h-4.778v-3.325l9.489-.838Z" transform="translate(-838.966 -3580.089)" fill="#8c757e"/>
        <path id="Trazado_102055" data-name="Trazado 102055" d="M869.541,3605.938h-4.582l8.615-25.51h4.582Z" transform="translate(-832.524 -3580.089)" fill="#8c757e"/>
        <path id="Trazado_102056" data-name="Trazado 102056" d="M895.13,3590.241h2.648a3.211,3.211,0,0,0,2.483-.879,3.48,3.48,0,0,0,.806-2.444,3.18,3.18,0,0,0-.806-2.275,3.066,3.066,0,0,0-2.34-.856,3.307,3.307,0,0,0-2.227.775,2.543,2.543,0,0,0-.9,2.033h-4.567l-.032-.1a5.342,5.342,0,0,1,2.114-4.55,8.436,8.436,0,0,1,5.486-1.791,9.012,9.012,0,0,1,5.817,1.744,6,6,0,0,1,2.17,4.969,4.981,4.981,0,0,1-.968,2.912,6.45,6.45,0,0,1-2.662,2.155,5.976,5.976,0,0,1,2.976,2.13,5.6,5.6,0,0,1,1.027,3.339,6.1,6.1,0,0,1-2.35,5.075,9.424,9.424,0,0,1-6.011,1.847,9.2,9.2,0,0,1-5.623-1.733,5.546,5.546,0,0,1-2.266-4.9l.031-.1H894.5a2.865,2.865,0,0,0,.967,2.224,3.517,3.517,0,0,0,2.452.874,3.568,3.568,0,0,0,2.573-.9,3.221,3.221,0,0,0,.943-2.447,3.535,3.535,0,0,0-.926-2.712,3.888,3.888,0,0,0-2.734-.862H895.13Z" transform="translate(-826.343 -3580.157)" fill="#f4f9fa"/>
      </g>
    </g>
    <g id="Grupo_54085" data-name="Grupo 54085" transform="translate(789.559 3871.264)">
      <rect id="Rectángulo_5147" data-name="Rectángulo 5147" width="236.98" height="39.004" fill="#8c757e"/>
      <rect id="Rectángulo_5148" data-name="Rectángulo 5148" width="158.966" height="39.004" transform="translate(78.014)" fill="#ede3b7"/>
      <rect id="Rectángulo_5149" data-name="Rectángulo 5149" width="80.729" height="39.004" transform="translate(156.25)" fill="#86bec4"/>
    </g>
    <g id="Grupo_54086" data-name="Grupo 54086" transform="translate(804.558 3878.986)">
      <path id="Trazado_102057" data-name="Trazado 102057" d="M795.743,3842.427h-4.711V3823.1h-4.777v-3.324l9.487-.839Z" transform="translate(-786.256 -3818.594)" fill="#f4f9fa"/>
      <path id="Trazado_102058" data-name="Trazado 102058" d="M803.639,3844.444h-4.582l8.616-25.511h4.582Z" transform="translate(-783.083 -3818.594)" fill="#f4f9fa"/>
      <path id="Trazado_102059" data-name="Trazado 102059" d="M816.04,3828.745h2.647a3.215,3.215,0,0,0,2.484-.878,3.482,3.482,0,0,0,.806-2.444,3.179,3.179,0,0,0-.806-2.275,3.066,3.066,0,0,0-2.34-.856,3.306,3.306,0,0,0-2.227.775,2.545,2.545,0,0,0-.9,2.033h-4.566l-.032-.1a5.341,5.341,0,0,1,2.114-4.55,8.431,8.431,0,0,1,5.485-1.79,9.023,9.023,0,0,1,5.817,1.742,6.007,6.007,0,0,1,2.17,4.97,4.988,4.988,0,0,1-.968,2.912,6.437,6.437,0,0,1-2.662,2.155,5.987,5.987,0,0,1,2.976,2.13,5.607,5.607,0,0,1,1.026,3.34,6.1,6.1,0,0,1-2.349,5.074,9.424,9.424,0,0,1-6.011,1.847,9.2,9.2,0,0,1-5.623-1.734,5.542,5.542,0,0,1-2.267-4.9l.032-.1h4.567a2.868,2.868,0,0,0,.967,2.224,3.52,3.52,0,0,0,2.453.875,3.571,3.571,0,0,0,2.573-.9,3.224,3.224,0,0,0,.943-2.447,3.539,3.539,0,0,0-.927-2.713,3.892,3.892,0,0,0-2.734-.861H816.04Z" transform="translate(-780.171 -3818.662)" fill="#f4f9fa"/>
    </g>
    <g id="Grupo_54087" data-name="Grupo 54087" transform="translate(968.093 3878.986)">
      <path id="Trazado_102060" data-name="Trazado 102060" d="M926.8,3842.427h-4.712V3823.1h-4.777v-3.324l9.489-.839Z" transform="translate(-917.311 -3818.594)" fill="#f4f9fa"/>
      <path id="Trazado_102061" data-name="Trazado 102061" d="M934.695,3844.444h-4.582l8.615-25.511h4.583Z" transform="translate(-914.138 -3818.594)" fill="#f4f9fa"/>
      <path id="Trazado_102062" data-name="Trazado 102062" d="M947.095,3828.745h2.647a3.216,3.216,0,0,0,2.486-.878,3.488,3.488,0,0,0,.806-2.444,3.184,3.184,0,0,0-.806-2.275,3.067,3.067,0,0,0-2.34-.856,3.312,3.312,0,0,0-2.229.775,2.548,2.548,0,0,0-.9,2.033h-4.566l-.034-.1a5.346,5.346,0,0,1,2.115-4.55,8.429,8.429,0,0,1,5.485-1.79,9.02,9.02,0,0,1,5.816,1.742,6.007,6.007,0,0,1,2.17,4.97,4.986,4.986,0,0,1-.967,2.912,6.434,6.434,0,0,1-2.663,2.155,6,6,0,0,1,2.977,2.13,5.607,5.607,0,0,1,1.024,3.34,6.106,6.106,0,0,1-2.347,5.074,9.425,9.425,0,0,1-6.011,1.847,9.2,9.2,0,0,1-5.624-1.734,5.541,5.541,0,0,1-2.266-4.9l.031-.1h4.567a2.865,2.865,0,0,0,.968,2.224,3.518,3.518,0,0,0,2.453.875,3.573,3.573,0,0,0,2.573-.9,3.225,3.225,0,0,0,.943-2.447,3.54,3.54,0,0,0-.927-2.713,3.9,3.9,0,0,0-2.735-.861h-2.647Z" transform="translate(-911.226 -3818.662)" fill="#f4f9fa"/>
    </g>
    <g id="Grupo_54088" data-name="Grupo 54088" transform="translate(885.627 3878.986)">
      <path id="Trazado_102063" data-name="Trazado 102063" d="M860.713,3842.427H856V3823.1h-4.777v-3.324l9.489-.839Z" transform="translate(-851.224 -3818.594)" fill="#8c757e"/>
      <path id="Trazado_102064" data-name="Trazado 102064" d="M868.608,3844.444h-4.582l8.615-25.511h4.583Z" transform="translate(-848.051 -3818.594)" fill="#8c757e"/>
      <path id="Trazado_102065" data-name="Trazado 102065" d="M881.008,3828.745h2.647a3.216,3.216,0,0,0,2.486-.878,3.488,3.488,0,0,0,.806-2.444,3.184,3.184,0,0,0-.806-2.275,3.066,3.066,0,0,0-2.34-.856,3.306,3.306,0,0,0-2.227.775,2.545,2.545,0,0,0-.9,2.033H876.1l-.034-.1a5.345,5.345,0,0,1,2.115-4.55,8.429,8.429,0,0,1,5.486-1.79,9.019,9.019,0,0,1,5.816,1.742,6,6,0,0,1,2.171,4.97,4.988,4.988,0,0,1-.968,2.912,6.433,6.433,0,0,1-2.663,2.155,6,6,0,0,1,2.977,2.13,5.606,5.606,0,0,1,1.025,3.34,6.106,6.106,0,0,1-2.347,5.074,9.425,9.425,0,0,1-6.011,1.847,9.2,9.2,0,0,1-5.624-1.734,5.541,5.541,0,0,1-2.266-4.9l.031-.1h4.567a2.865,2.865,0,0,0,.968,2.224,3.518,3.518,0,0,0,2.453.875,3.573,3.573,0,0,0,2.573-.9,3.224,3.224,0,0,0,.943-2.447,3.539,3.539,0,0,0-.927-2.713,3.9,3.9,0,0,0-2.735-.861h-2.647Z" transform="translate(-845.139 -3818.662)" fill="#8c757e"/>
    </g>
  </g>
</svg>
