<svg xmlns="http://www.w3.org/2000/svg" width="596.425" height="143.484" viewBox="0 0 596.425 143.484">
  <g id="Grupo_1054817" data-name="Grupo 1054817" transform="translate(-179.787 -10321.5)">
    <g id="Rectángulo_673" data-name="Rectángulo 673" transform="translate(180 10300)">
      <rect id="Rectángulo_5209" data-name="Rectángulo 5209" width="596" height="106" transform="translate(0 22)" fill="#fff"/>
      <rect id="Rectángulo_5210" data-name="Rectángulo 5210" width="595.425" height="105.5" transform="translate(0.288 22)" fill="none" stroke="#e1e1e1" stroke-width="1"/>
    </g>
    <g id="Norma" transform="translate(218 10319)" style="isolation: isolate">
      <text id="Medidas" transform="translate(0 22)" fill="#12263f" font-size="14" font-family="SegoeUI-Bold, Segoe UI" font-weight="700" style="isolation: isolate"><tspan x="0" y="0">Medidas</tspan></text>
    </g>
    <text id="_6" data-name="6" transform="translate(420 10341)" fill="#12263f" font-size="14" font-family="SegoeUI-Bold, Segoe UI" font-weight="700" style="isolation: isolate"><tspan x="-4.026" y="0">6</tspan></text>
    <text id="_84" data-name="84" transform="translate(420 10368)" fill="#12263f" font-size="14" font-family="SegoeUI, Segoe UI" style="isolation: isolate"><tspan x="-7.547" y="0">84</tspan></text>
    <text id="_60" data-name="60" transform="translate(420 10396)" fill="#12263f" font-size="14" font-family="SegoeUI, Segoe UI" style="isolation: isolate"><tspan x="-7.547" y="0">60</tspan></text>
    <text id="_10" data-name="10" transform="translate(525 10341)" fill="#12263f" font-size="14" font-family="SegoeUI-Bold, Segoe UI" font-weight="700" style="isolation: isolate"><tspan x="-8.053" y="0">10</tspan></text>
    <text id="_92" data-name="92" transform="translate(525 10368)" fill="#12263f" font-size="14" font-family="SegoeUI, Segoe UI" style="isolation: isolate"><tspan x="-7.547" y="0">92</tspan></text>
    <text id="_68" data-name="68" transform="translate(525 10396)" fill="#12263f" font-size="14" font-family="SegoeUI, Segoe UI" style="isolation: isolate"><tspan x="-7.547" y="0">68</tspan></text>
    <text id="_4cms" data-name="4cms" transform="translate(493 10460.984)" fill="#12263f" font-size="14" font-family="SegoeUI-Bold, Segoe UI" font-weight="700" style="isolation: isolate"><tspan x="-16.878" y="0">4cms</tspan></text>
    <text id="_14" data-name="14" transform="translate(637 10341)" fill="#12263f" font-size="14" font-family="SegoeUI-Bold, Segoe UI" font-weight="700" style="isolation: isolate"><tspan x="-8.053" y="0">14</tspan></text>
    <text id="_100" data-name="100" transform="translate(637 10368)" fill="#12263f" font-size="14" font-family="SegoeUI, Segoe UI" style="isolation: isolate"><tspan x="-11.32" y="0">100</tspan></text>
    <text id="_76" data-name="76" transform="translate(637 10396)" fill="#12263f" font-size="14" font-family="SegoeUI, Segoe UI" style="isolation: isolate"><tspan x="-7.547" y="0">76</tspan></text>
    <text id="_8" data-name="8" transform="translate(473 10341)" fill="#12263f" font-size="14" font-family="SegoeUI-Bold, Segoe UI" font-weight="700" style="isolation: isolate"><tspan x="-4.026" y="0">8</tspan></text>
    <text id="_88" data-name="88" transform="translate(473 10368)" fill="#12263f" font-size="14" font-family="SegoeUI, Segoe UI" style="isolation: isolate"><tspan x="-7.547" y="0">88</tspan></text>
    <text id="_64" data-name="64" transform="translate(473 10396)" fill="#12263f" font-size="14" font-family="SegoeUI, Segoe UI" style="isolation: isolate"><tspan x="-7.547" y="0">64</tspan></text>
    <text id="_12" data-name="12" transform="translate(581 10341)" fill="#12263f" font-size="14" font-family="SegoeUI-Bold, Segoe UI" font-weight="700" style="isolation: isolate"><tspan x="-8.053" y="0">12</tspan></text>
    <text id="_96" data-name="96" transform="translate(581 10368)" fill="#12263f" font-size="14" font-family="SegoeUI, Segoe UI" style="isolation: isolate"><tspan x="-7.547" y="0">96</tspan></text>
    <text id="_72" data-name="72" transform="translate(581 10396)" fill="#12263f" font-size="14" font-family="SegoeUI, Segoe UI" style="isolation: isolate"><tspan x="-7.547" y="0">72</tspan></text>
    <text id="_16" data-name="16" transform="translate(693 10341)" fill="#12263f" font-size="14" font-family="SegoeUI-Bold, Segoe UI" font-weight="700" style="isolation: isolate"><tspan x="-8.053" y="0">16</tspan></text>
    <text id="_106" data-name="106" transform="translate(693 10368)" fill="#12263f" font-size="14" font-family="SegoeUI, Segoe UI" style="isolation: isolate"><tspan x="-11.32" y="0">106</tspan></text>
    <text id="_82" data-name="82" transform="translate(693 10396)" fill="#12263f" font-size="14" font-family="SegoeUI, Segoe UI" style="isolation: isolate"><tspan x="-7.547" y="0">82</tspan></text>
    <text id="_18" data-name="18" transform="translate(749 10341)" fill="#12263f" font-size="14" font-family="SegoeUI-Bold, Segoe UI" font-weight="700" style="isolation: isolate"><tspan x="-8.053" y="0">18</tspan></text>
    <text id="_112" data-name="112" transform="translate(749 10368)" fill="#12263f" font-size="14" font-family="SegoeUI, Segoe UI" style="isolation: isolate"><tspan x="-11.32" y="0">112</tspan></text>
    <text id="_88-2" data-name="88" transform="translate(749 10396)" fill="#12263f" font-size="14" font-family="SegoeUI, Segoe UI" style="isolation: isolate"><tspan x="-7.547" y="0">88</tspan></text>
    <line id="Línea_52" data-name="Línea 52" y2="106" transform="translate(395 10322)" fill="none" stroke="#e1e1e1" stroke-width="1"/>
    <line id="Línea_52-2" data-name="Línea 52" y2="106" transform="translate(498 10322)" fill="none" stroke="#e1e1e1" stroke-width="1"/>
    <line id="Línea_52-3" data-name="Línea 52" y2="106" transform="translate(447 10322)" fill="none" stroke="#e1e1e1" stroke-width="1"/>
    <line id="Línea_52-4" data-name="Línea 52" y2="106" transform="translate(664 10322)" fill="none" stroke="#e1e1e1" stroke-width="1"/>
    <line id="Línea_52-5" data-name="Línea 52" y2="106" transform="translate(719 10322)" fill="none" stroke="#e1e1e1" stroke-width="1"/>
    <line id="Línea_52-6" data-name="Línea 52" y2="106" transform="translate(554 10322)" fill="none" stroke="#e1e1e1" stroke-width="1"/>
    <line id="Línea_52-7" data-name="Línea 52" y2="106" transform="translate(609 10322)" fill="none" stroke="#e1e1e1" stroke-width="1"/>
    <line id="Línea_55" data-name="Línea 55" x1="595.425" transform="translate(180.575 10374.521)" fill="none" stroke="#e1e1e1" stroke-width="1"/>
    <line id="Línea_55-2" data-name="Línea 55" x1="595.425" transform="translate(180.575 10348)" fill="none" stroke="#e1e1e1" stroke-width="1"/>
    <line id="Línea_55-3" data-name="Línea 55" x1="595.425" transform="translate(180.575 10401.564)" fill="none" stroke="#e1e1e1" stroke-width="1"/>
    <text id="Contorno_de_busto" data-name="Contorno de busto" transform="translate(276 10367.521)" fill="#12263f" font-size="14" font-family="SegoeUI, Segoe UI" style="isolation: isolate"><tspan x="-58.505" y="0">Contorno de busto</tspan></text>
    <text id="Contorno_de_cintura" data-name="Contorno de cintura" transform="translate(279 10395.043)" fill="#12263f" font-size="14" font-family="SegoeUI, Segoe UI" style="isolation: isolate"><tspan x="-62.204" y="0">Contorno de cintura</tspan></text>
    <text id="Contorno_de_cadera" data-name="Contorno de cadera" transform="translate(279 10417.564)" fill="#12263f" font-size="14" font-family="SegoeUI, Segoe UI" style="isolation: isolate"><tspan x="-61.558" y="0">Contorno de cadera</tspan></text>
    <circle id="Elipse_4189" data-name="Elipse 4189" cx="12" cy="12" r="12" transform="translate(461 10402)" fill="#baefe4"/>
    <circle id="Elipse_4190" data-name="Elipse 4190" cx="12" cy="12" r="12" transform="translate(513 10402)" fill="#baefe4"/>
    <g id="Grupo_1054813" data-name="Grupo 1054813" transform="translate(-1810.371 280.076) rotate(-9)">
      <path id="Trazado_774586" data-name="Trazado 774586" d="M640.748,215.021a33.022,33.022,0,0,0,11.191,9.843,31.333,31.333,0,0,0,6.877,2.631,32.379,32.379,0,0,0,7.293.937c1.23.067,2.464-.037,3.7-.084,1.229-.141,2.466-.218,3.687-.457a58.923,58.923,0,0,0,7.289-1.682,107.142,107.142,0,0,0,14.094-5.625,58.843,58.843,0,0,1-13.524,7.306l-1.833.641-.92.313c-.308.1-.625.175-.937.264l-1.882.508c-.63.161-1.275.265-1.912.4-1.272.291-2.581.394-3.876.571-1.309.065-2.617.18-3.933.119a30.887,30.887,0,0,1-7.8-1.131,28.323,28.323,0,0,1-7.2-3.178A27.157,27.157,0,0,1,640.748,215.021Z" transform="translate(23 10172.217)" fill="#73d8c0"/>
      <path id="Trazado_774587" data-name="Trazado 774587" d="M734.656,216.915a16.387,16.387,0,0,0,1.606,1.007c.268.155.545.3.816.436l.834.379a14.257,14.257,0,0,0,3.407,1.018,12.97,12.97,0,0,0,3.457.156,13.548,13.548,0,0,0,1.719-.229c.573-.1,1.129-.292,1.7-.412l.143-.03a1.1,1.1,0,0,1,1.094,1.754l-3.321,4.273-3.385,4.319a17.5,17.5,0,0,1,.862-2.66c.341-.868.746-1.7,1.169-2.529s.885-1.627,1.367-2.415.984-1.556,1.529-2.323l1.237,1.724c-.323.1-.647.194-.974.283a8.225,8.225,0,0,1-.986.246,13.146,13.146,0,0,1-2.031.236,11.7,11.7,0,0,1-4.046-.515,11.327,11.327,0,0,1-3.575-1.825A9.817,9.817,0,0,1,734.656,216.915Z" transform="translate(-28.174 10171.185)" fill="#73d8c0"/>
    </g>
    <text id="_88-3" data-name="88" transform="translate(420 10420)" fill="#12263f" font-size="14" font-family="SegoeUI, Segoe UI" style="isolation: isolate"><tspan x="-7.547" y="0">88</tspan></text>
    <text id="_96-2" data-name="96" transform="translate(525 10420)" fill="#12263f" font-size="14" font-family="SegoeUI, Segoe UI" style="isolation: isolate"><tspan x="-7.547" y="0">96</tspan></text>
    <text id="_104" data-name="104" transform="translate(637 10420)" fill="#12263f" font-size="14" font-family="SegoeUI, Segoe UI" style="isolation: isolate"><tspan x="-11.32" y="0">104</tspan></text>
    <text id="_92-2" data-name="92" transform="translate(473 10420)" fill="#12263f" font-size="14" font-family="SegoeUI, Segoe UI" style="isolation: isolate"><tspan x="-7.547" y="0">92</tspan></text>
    <text id="_100-2" data-name="100" transform="translate(581 10420)" fill="#12263f" font-size="14" font-family="SegoeUI, Segoe UI" style="isolation: isolate"><tspan x="-11.32" y="0">100</tspan></text>
    <text id="_110" data-name="110" transform="translate(693 10420)" fill="#12263f" font-size="14" font-family="SegoeUI, Segoe UI" style="isolation: isolate"><tspan x="-11.32" y="0">110</tspan></text>
    <text id="_116" data-name="116" transform="translate(749 10420)" fill="#12263f" font-size="14" font-family="SegoeUI, Segoe UI" style="isolation: isolate"><tspan x="-11.32" y="0">116</tspan></text>
  </g>
</svg>
