<svg xmlns="http://www.w3.org/2000/svg" width="243.864" height="261.682" viewBox="0 0 243.864 261.682">
  <g id="Grupo_1055096" data-name="Grupo 1055096" transform="translate(11394 10528.678)">
    <g id="Grupo_53785" data-name="Grupo 53785" transform="translate(-11394 -10515.264)">
      <path id="Trazado_100552" data-name="Trazado 100552" d="M158.278,1008.748q-2.658,0-5.323-.112A120.768,120.768,0,0,1,36.918,879.4,127.941,127.941,0,0,1,166.442,760.5a1.045,1.045,0,1,1-.04,2.091,125.85,125.85,0,0,0-127.4,116.941,118.674,118.674,0,0,0,114.036,127.01,126.848,126.848,0,0,0,123.4-83.231,1.045,1.045,0,1,1,1.97.7,129.041,129.041,0,0,1-120.138,84.732Z" transform="translate(-36.644 -760.481)" fill="#d4c99b"/>
    </g>
    <g id="Grupo_53786" data-name="Grupo 53786" transform="translate(-11244.987 -10511.358)">
      <path id="Trazado_100553" data-name="Trazado 100553" d="M282.559,864.206a1.045,1.045,0,0,1-1.044-1.005,91.213,91.213,0,0,0-1.076-10.966,1.046,1.046,0,0,1,2.065-.332,93.78,93.78,0,0,1,1.1,11.218,1.047,1.047,0,0,1-1,1.085ZM279,842.249a1.047,1.047,0,0,1-1-.749,85.879,85.879,0,0,0-3.815-10.326,1.046,1.046,0,1,1,1.911-.848A87.581,87.581,0,0,1,280,840.905a1.045,1.045,0,0,1-.7,1.3A1.06,1.06,0,0,1,279,842.249ZM270.006,821.9a1.043,1.043,0,0,1-.9-.511,107.123,107.123,0,0,0-6.143-9.172,1.046,1.046,0,0,1,1.678-1.249,109.154,109.154,0,0,1,6.263,9.352,1.046,1.046,0,0,1-.9,1.581Zm-13.274-17.889a1.046,1.046,0,0,1-.778-.346c-2.459-2.733-5.073-5.378-7.771-7.864a1.046,1.046,0,0,1,1.418-1.538c2.745,2.528,5.406,5.221,7.909,8a1.046,1.046,0,0,1-.778,1.745Zm-16.387-15.094a1.039,1.039,0,0,1-.632-.214c-2.921-2.221-5.983-4.33-9.1-6.269a1.046,1.046,0,1,1,1.105-1.776c3.174,1.973,6.29,4.119,9.263,6.38a1.045,1.045,0,0,1-.634,1.878Zm-18.92-11.76a1.046,1.046,0,0,1-.466-.11c-3.281-1.635-6.682-3.137-10.11-4.464a1.046,1.046,0,0,1,.754-1.951c3.488,1.351,6.951,2.879,10.288,4.543a1.046,1.046,0,0,1-.466,1.982Zm-20.772-8.043a1.073,1.073,0,0,1-.286-.04c-3.526-1-7.146-1.856-10.76-2.535a1.046,1.046,0,1,1,.387-2.055c3.676.691,7.358,1.559,10.945,2.578a1.046,1.046,0,0,1-.286,2.052Z" transform="translate(-188.754 -764.467)" fill="#d4c99b"/>
    </g>
    <g id="Grupo_53787" data-name="Grupo 53787" transform="translate(-11278.712 -10528.678)">
      <path id="Trazado_100554" data-name="Trazado 100554" d="M168.836,775.762c-.265,0-.53-.008-.8-.022a14.462,14.462,0,1,1,.8.022Zm-.024-26.884a12.394,12.394,0,1,0,9.232,4.111A12.35,12.35,0,0,0,168.812,748.878Z" transform="translate(-154.328 -746.787)" fill="#d4c99b"/>
    </g>
    <g id="Grupo_53801" data-name="Grupo 53801" transform="translate(-11366.105 -10485.071)">
      <g id="Grupo_53798" data-name="Grupo 53798" transform="translate(144.439 17.211)">
        <path id="Trazado_100566" data-name="Trazado 100566" d="M253.037,910.059a1.175,1.175,0,0,1-.27-.032,1.144,1.144,0,0,1-.842-1.382,91.51,91.51,0,0,0,1.843-10.017,1.144,1.144,0,1,1,2.27.288,94,94,0,0,1-1.89,10.269A1.144,1.144,0,0,1,253.037,910.059Zm2.594-20.431a1.148,1.148,0,0,1-1.144-1.161q.01-.679.011-1.355c0-2.933-.145-5.9-.43-8.82a1.143,1.143,0,1,1,2.276-.223c.294,2.994.442,6.036.442,9.043q0,.694-.011,1.389A1.143,1.143,0,0,1,255.631,889.628Zm-2.01-20.487a1.144,1.144,0,0,1-1.117-.905,90.449,90.449,0,0,0-2.689-9.818,1.144,1.144,0,1,1,2.169-.728,92.9,92.9,0,0,1,2.758,10.067,1.145,1.145,0,0,1-.88,1.359A1.185,1.185,0,0,1,253.621,869.14Zm-6.545-19.518a1.144,1.144,0,0,1-1.037-.661,91.207,91.207,0,0,0-4.81-8.975,1.145,1.145,0,0,1,1.954-1.192,93.906,93.906,0,0,1,4.93,9.2,1.144,1.144,0,0,1-1.036,1.627Zm-10.72-17.581a1.143,1.143,0,0,1-.905-.443,91.831,91.831,0,0,0-6.674-7.694,1.144,1.144,0,1,1,1.643-1.593,94.558,94.558,0,0,1,6.841,7.885,1.144,1.144,0,0,1-.9,1.845Zm-14.34-14.782a1.14,1.14,0,0,1-.727-.261,91.209,91.209,0,0,0-8.21-6.027,1.144,1.144,0,0,1,1.248-1.918,93.69,93.69,0,0,1,8.418,6.179,1.144,1.144,0,0,1-.729,2.027Z" transform="translate(-212.558 -808.869)" fill="#86bec4"/>
      </g>
      <g id="Grupo_53799" data-name="Grupo 53799" transform="translate(2.476 25.204)">
        <path id="Trazado_100567" data-name="Trazado 100567" d="M75.363,922.835a1.144,1.144,0,0,1-1.061-.716,93.259,93.259,0,0,1-3.364-9.885,1.144,1.144,0,0,1,2.205-.613,90.71,90.71,0,0,0,3.28,9.641,1.145,1.145,0,0,1-1.06,1.573ZM69.837,903a1.144,1.144,0,0,1-1.129-.963,92.953,92.953,0,0,1-1.063-10.387,1.144,1.144,0,0,1,1.09-1.2h.053a1.144,1.144,0,0,1,1.142,1.092,90.445,90.445,0,0,0,1.036,10.129A1.146,1.146,0,0,1,69.837,903Zm-.938-20.57-.077,0a1.145,1.145,0,0,1-1.066-1.218c.076-1.134.174-2.293.293-3.445.239-2.307.568-4.635.978-6.918a1.144,1.144,0,0,1,2.252.4c-.4,2.228-.721,4.5-.954,6.748-.115,1.125-.212,2.256-.285,3.364A1.145,1.145,0,0,1,68.9,882.427Zm3.641-20.272a1.145,1.145,0,0,1-1.1-1.471,93.241,93.241,0,0,1,3.539-9.823,1.144,1.144,0,0,1,2.105.9,91.331,91.331,0,0,0-3.453,9.582A1.143,1.143,0,0,1,72.54,862.155ZM80.6,843.206A1.145,1.145,0,0,1,79.6,841.5a92.885,92.885,0,0,1,5.644-8.784,1.144,1.144,0,0,1,1.852,1.343,91,91,0,0,0-5.5,8.568A1.145,1.145,0,0,1,80.6,843.206Zm12.086-16.67a1.144,1.144,0,0,1-.845-1.915c2.1-2.3,4.343-4.524,6.665-6.608q.394-.353.791-.7a1.144,1.144,0,1,1,1.508,1.72q-.388.339-.772.685c-2.266,2.032-4.453,4.2-6.5,6.445A1.142,1.142,0,0,1,92.685,826.535Z" transform="translate(-67.645 -817.028)" fill="#86bec4"/>
      </g>
      <g id="Grupo_53800" data-name="Grupo 53800" transform="translate(43.579 167.691)">
        <path id="Trazado_100568" data-name="Trazado 100568" d="M159.316,983.423c-2.471-.062-4.935-.22-7.357-.471-1.025-.106-2.06-.23-3.079-.37a1.144,1.144,0,1,1,.311-2.267c.993.136,2,.258,3,.362,2.364.244,4.769.4,7.15.459a1.144,1.144,0,0,1-.028,2.287Zm10.306-.318a1.144,1.144,0,0,1-.1-2.284,90.763,90.763,0,0,0,10.078-1.455,1.144,1.144,0,1,1,.454,2.242,93.157,93.157,0,0,1-10.332,1.492C169.688,983.1,169.655,983.1,169.622,983.1Zm-30.711-2.479a1.161,1.161,0,0,1-.281-.035,92.707,92.707,0,0,1-9.963-3.13,1.144,1.144,0,1,1,.807-2.14,90.6,90.6,0,0,0,9.717,3.052,1.144,1.144,0,0,1-.28,2.253Zm50.893-1.607a1.144,1.144,0,0,1-.351-2.233,90.9,90.9,0,0,0,9.5-3.67,1.144,1.144,0,1,1,.943,2.084,93.129,93.129,0,0,1-9.74,3.764A1.159,1.159,0,0,1,189.8,979.019Zm-70.163-5.667a1.13,1.13,0,0,1-.521-.126,92.947,92.947,0,0,1-9.007-5.283,1.144,1.144,0,0,1,1.266-1.905,90.683,90.683,0,0,0,8.785,5.153,1.144,1.144,0,0,1-.523,2.162Zm88.927-2.821a1.145,1.145,0,0,1-.587-2.128,91.316,91.316,0,0,0,8.444-5.694,1.144,1.144,0,1,1,1.383,1.823,93.734,93.734,0,0,1-8.657,5.837A1.136,1.136,0,0,1,208.568,970.531Z" transform="translate(-109.602 -962.477)" fill="#86bec4"/>
      </g>
      <circle id="Elipse_3990" data-name="Elipse 3990" cx="67.545" cy="67.545" r="67.545" transform="translate(0 95.523) rotate(-45)" fill="#86bec4"/>
    </g>
    <g id="Grupo_53820" data-name="Grupo 53820" transform="translate(-11323.055 -10442.02)">
      <path id="Trazado_101265" data-name="Trazado 101265" d="M186.025,931c-2.6-6.19-8.921-21.249-14.223-33.832h-8.217l16.748,36.337a3.11,3.11,0,0,0,5.693-2.5Z" transform="translate(-110.174 -836.508)" fill="#baefe4"/>
      <path id="Trazado_101266" data-name="Trazado 101266" d="M153.075,897.169c-5.3,12.583-11.625,27.642-14.223,33.832a3.111,3.111,0,0,0,5.694,2.5l16.747-36.337Z" transform="translate(-109.666 -836.508)" fill="#baefe4"/>
      <path id="Trazado_101267" data-name="Trazado 101267" d="M201.294,856.354a2.638,2.638,0,0,0-3.553-1.135l-35.893,18.5-35.892-18.5a2.638,2.638,0,0,0-2.638,4.562L149.558,876.7h24.579l26.241-16.915A2.64,2.64,0,0,0,201.294,856.354Z" transform="translate(-109.33 -835.648)" fill="#baefe4"/>
      <path id="Trazado_101268" data-name="Trazado 101268" d="M202.757,870.555h-35.8a2.588,2.588,0,0,1-1.3-4.825,7.572,7.572,0,1,0-7.742.025,2.561,2.561,0,0,1,1.243,2.21,2.589,2.589,0,0,1-2.589,2.589h-35.8a2.692,2.692,0,0,0-2.713,2.459,2.638,2.638,0,0,0,2.378,2.8l31.178,3.021c-.118.578-.187,44.086-.2,56.478a3.11,3.11,0,0,0,6.219.114l1.121-29.537h6.026l1.121,29.537a3.11,3.11,0,0,0,6.219-.114c-.017-12.392-.086-55.9-.2-56.478l31.177-3.021a2.638,2.638,0,0,0,2.378-2.8A2.691,2.691,0,0,0,202.757,870.555Z" transform="translate(-109.247 -835.581)" fill="#fff"/>
      <path id="Trazado_101269" data-name="Trazado 101269" d="M206.831,861.068v-7.618a3.666,3.666,0,0,0-3.662-3.663h-5.314A52.564,52.564,0,0,0,143.083,838.6a1.539,1.539,0,0,0,1.084,2.88,49.5,49.5,0,0,1,49.072,8.305H129.924a49.579,49.579,0,0,1,7.946-5.414,1.539,1.539,0,1,0-1.479-2.7,52.553,52.553,0,0,0-11.084,8.113H120a3.666,3.666,0,0,0-3.663,3.662v7.658a52.584,52.584,0,0,0,0,53.356v22.158A3.667,3.667,0,0,0,120,940.285h83.172a3.667,3.667,0,0,0,3.662-3.664V914.463a52.656,52.656,0,0,0,0-53.4Zm-90.5,46.688a49.588,49.588,0,0,1,0-39.912Zm86.834-54.891a.586.586,0,0,1,.586.586v3q-1.378-1.847-2.929-3.584Zm-83.757.586a.587.587,0,0,1,.586-.586h2.342q-1.546,1.738-2.928,3.6ZM120,937.207a.587.587,0,0,1-.586-.586V919.082a53.339,53.339,0,0,0,5.035,5.82,52.331,52.331,0,0,0,19.343,12.3Zm83.757-.586a.586.586,0,0,1-.585.586H179.376a52.331,52.331,0,0,0,19.343-12.3,53.235,53.235,0,0,0,5.035-5.82Zm1.538-41.505a1.539,1.539,0,0,0-1.538,1.539V913.6a49.976,49.976,0,0,1-17.093,16.792l-7.96,3.779a48.56,48.56,0,0,1-5.3,1.618l-8.712,1.317c-1.03.064-2.065.1-3.106.1s-2.076-.035-3.106-.1l-8.712-1.317a48.5,48.5,0,0,1-5.3-1.618l-7.96-3.779A50,50,0,0,1,119.411,913.6V861.96q.767-1.253,1.609-2.46l5.093-6.178c.149-.153.3-.307.449-.457H196.6c.152.151.3.306.448.459l5.1,6.165q.839,1.2,1.6,2.44v28.025a1.539,1.539,0,1,0,3.077,0V867.776a49.749,49.749,0,0,1,0,39.98v-11.1A1.539,1.539,0,0,0,205.292,895.116Z" transform="translate(-109.064 -835.247)" fill="#025157"/>
      <path id="Trazado_101270" data-name="Trazado 101270" d="M153.853,879.716c.008-.041.015-.081.02-.123A1.217,1.217,0,0,1,153.853,879.716Z" transform="translate(-109.976 -836.15)" fill="#474d54"/>
      <path id="Trazado_101271" data-name="Trazado 101271" d="M171.495,879.716c0-.023-.014-.064-.02-.122C171.48,879.634,171.487,879.675,171.495,879.716Z" transform="translate(-110.335 -836.15)" fill="#474d54"/>
      <path id="Trazado_101272" data-name="Trazado 101272" d="M182.849,890.186h2.693a1.539,1.539,0,0,0,0-3.077h-2.693a1.539,1.539,0,1,0,0,3.077Z" transform="translate(-110.535 -836.303)" fill="#fff"/>
      <path id="Trazado_101273" data-name="Trazado 101273" d="M193.957,892.8H182.849a1.539,1.539,0,1,0,0,3.078h11.108a1.539,1.539,0,1,0,0-3.078Z" transform="translate(-110.535 -836.419)" fill="#fff"/>
      <path id="Trazado_101274" data-name="Trazado 101274" d="M190.675,896.863h-7.826a1.539,1.539,0,1,0,0,3.077h7.826a1.539,1.539,0,0,0,0-3.077Z" transform="translate(-110.535 -836.502)" fill="#fff"/>
    </g>
  </g>
</svg>
