<svg xmlns="http://www.w3.org/2000/svg" width="250.978" height="254.997" viewBox="0 0 250.978 254.997">
  <g id="Grupo_1055101" data-name="Grupo 1055101" transform="translate(11397 8833.317)">
    <g id="Grupo_53788" data-name="Grupo 53788" transform="translate(-11271.906 -8833.317)">
      <path id="Trazado_100557" data-name="Trazado 100557" d="M1163.349,778.233a1.683,1.683,0,0,1-1.681-1.684v-23.27a1.682,1.682,0,0,1,2.377-1.533l25.666,11.636a1.682,1.682,0,0,1,0,3.064l-25.667,11.636A1.682,1.682,0,0,1,1163.349,778.233Zm.411-24.32v22l24.267-11Z" transform="translate(-1161.668 -751.595)" fill="#d4c99b"/>
    </g>
    <g id="Grupo_53789" data-name="Grupo 53789" transform="translate(-11389.624 -8821.111)">
      <path id="Trazado_100559" data-name="Trazado 100559" d="M1163.813,1006.846q-3.195,0-6.413-.163a128.44,128.44,0,0,1-115.853-91.464,1.046,1.046,0,0,1,2.005-.6,126.345,126.345,0,0,0,113.953,89.971,118.886,118.886,0,0,0,125.464-116.177,124.625,124.625,0,0,0-33.532-88.355c-13.752-14.85-32.819-26.916-53.687-33.972a1.046,1.046,0,1,1,.67-1.981c21.193,7.166,40.567,19.43,54.551,34.532a126.7,126.7,0,0,1,34.088,89.83,120.933,120.933,0,0,1-121.247,118.374Z" transform="translate(-1041.503 -764.055)" fill="#d4c99b"/>
    </g>
    <g id="Grupo_53790" data-name="Grupo 53790" transform="translate(-11397 -8821.169)">
      <path id="Trazado_100560" data-name="Trazado 100560" d="M1035.02,879.611a1.045,1.045,0,0,1-1.045-1.045c0-3.308.117-6.6.35-9.777a1.046,1.046,0,0,1,2.087.153c-.229,3.128-.346,6.366-.346,9.624A1.045,1.045,0,0,1,1035.02,879.611Zm1.56-20.078a.993.993,0,0,1-.169-.014,1.046,1.046,0,0,1-.864-1.2c.571-3.512,1.308-6.984,2.188-10.319a1.046,1.046,0,1,1,2.022.534c-.864,3.269-1.586,6.674-2.146,10.121A1.045,1.045,0,0,1,1036.58,859.533Zm5.355-20.168a1.046,1.046,0,0,1-.977-1.417,97.79,97.79,0,0,1,4.272-9.657,1.046,1.046,0,0,1,1.864.949,95.635,95.635,0,0,0-4.181,9.449A1.046,1.046,0,0,1,1041.934,839.365Zm9.462-18.594a1.046,1.046,0,0,1-.875-1.617,103.546,103.546,0,0,1,6.22-8.529,1.046,1.046,0,0,1,1.625,1.317,101.531,101.531,0,0,0-6.095,8.355A1.044,1.044,0,0,1,1051.4,820.772Zm13.113-16.243a1.046,1.046,0,0,1-.749-1.776c2.381-2.437,4.962-4.867,7.669-7.22a1.046,1.046,0,0,1,1.372,1.578c-2.665,2.316-5.2,4.706-7.544,7.1A1.045,1.045,0,0,1,1064.51,804.528Zm15.731-13.734a1.045,1.045,0,0,1-.63-1.88c2.426-1.831,5.021-3.685,7.714-5.511q.426-.289.857-.577a1.046,1.046,0,0,1,1.16,1.741c-.281.188-.563.377-.843.567-2.664,1.807-5.229,3.639-7.627,5.45A1.046,1.046,0,0,1,1080.24,790.795Zm17.446-11.5a1.045,1.045,0,0,1-.507-1.96c3.111-1.724,6.288-3.3,9.444-4.7a1.046,1.046,0,1,1,.844,1.914c-3.1,1.367-6.219,2.917-9.275,4.611A1.035,1.035,0,0,1,1097.687,779.3Zm19.116-8.4a1.046,1.046,0,0,1-.325-2.04,100.249,100.249,0,0,1,10.2-2.76,1.046,1.046,0,1,1,.437,2.046,98.071,98.071,0,0,0-9.983,2.7A1.044,1.044,0,0,1,1116.8,770.9Zm20.414-4.351a1.045,1.045,0,0,1-.1-2.086,93.275,93.275,0,0,1,10.562-.456,1.045,1.045,0,0,1,1.032,1.059,1.025,1.025,0,0,1-1.06,1.032,91.6,91.6,0,0,0-10.325.446C1137.287,766.544,1137.251,766.546,1137.216,766.546Z" transform="translate(-1033.975 -763.996)" fill="#d4c99b"/>
    </g>
    <g id="Grupo_53809" data-name="Grupo 53809" transform="translate(-11359.869 -8791.291)">
      <g id="Grupo_53806" data-name="Grupo 53806" transform="translate(58.902 128.228)">
        <path id="Trazado_100572" data-name="Trazado 100572" d="M1163.452,979.7c-2.824-.031-5.669-.195-8.467-.484q-.986-.1-1.965-.224a1.144,1.144,0,0,1,.283-2.271q.957.119,1.917.219c2.73.282,5.5.441,8.245.472a1.144,1.144,0,0,1-.013,2.287Zm10.3-.474a1.144,1.144,0,0,1-.117-2.282,89.212,89.212,0,0,0,10.048-1.63,1.144,1.144,0,1,1,.5,2.234,91.285,91.285,0,0,1-10.308,1.672C1173.832,979.227,1173.792,979.229,1173.751,979.229Zm-30.734-2.077a1.171,1.171,0,0,1-.27-.032,91.645,91.645,0,0,1-9.993-3.032,1.144,1.144,0,1,1,.789-2.147,89.208,89.208,0,0,0,9.743,2.955,1.145,1.145,0,0,1-.267,2.257Zm50.834-2.384a1.144,1.144,0,0,1-.374-2.225,89.03,89.03,0,0,0,9.413-3.878,1.144,1.144,0,0,1,.991,2.062,91.47,91.47,0,0,1-9.656,3.978A1.132,1.132,0,0,1,1193.851,974.769Zm18.559-8.922a1.144,1.144,0,0,1-.612-2.111,89.546,89.546,0,0,0,8.289-5.916,1.144,1.144,0,1,1,1.433,1.784,92.125,92.125,0,0,1-8.5,6.067A1.143,1.143,0,0,1,1212.411,965.846Zm16.055-12.9a1.144,1.144,0,0,1-.813-1.948,89.721,89.721,0,0,0,6.738-7.633,1.144,1.144,0,1,1,1.8,1.414,91.863,91.863,0,0,1-6.911,7.829A1.142,1.142,0,0,1,1228.466,952.95Zm12.719-16.191a1.145,1.145,0,0,1-.974-1.744,88.841,88.841,0,0,0,4.825-8.966,1.144,1.144,0,1,1,2.073.967,91.473,91.473,0,0,1-4.947,9.2A1.145,1.145,0,0,1,1241.185,936.759Z" transform="translate(-1132.003 -925.389)" fill="#86bec4"/>
      </g>
      <g id="Grupo_53807" data-name="Grupo 53807" transform="translate(65.042)">
        <path id="Trazado_100573" data-name="Trazado 100573" d="M1254.3,894.684c-.033,0-.067,0-.1,0a1.143,1.143,0,0,1-1.04-1.238c.222-2.572.336-5.175.336-7.739q0-.914-.019-1.823a1.145,1.145,0,0,1,1.121-1.168,1.159,1.159,0,0,1,1.167,1.12q.021.935.019,1.872c0,2.628-.116,5.3-.344,7.936A1.145,1.145,0,0,1,1254.3,894.684Zm-.485-19.96a1.145,1.145,0,0,1-1.132-.99,88.157,88.157,0,0,0-1.956-9.987,1.144,1.144,0,0,1,2.217-.569,90.726,90.726,0,0,1,2.006,10.248,1.144,1.144,0,0,1-.979,1.288A1.224,1.224,0,0,1,1253.814,874.723Zm-5.112-19.935a1.145,1.145,0,0,1-1.069-.735,89,89,0,0,0-4.18-9.277,1.144,1.144,0,0,1,2.029-1.058,91.374,91.374,0,0,1,4.288,9.516,1.143,1.143,0,0,1-.659,1.477A1.128,1.128,0,0,1,1248.7,854.789Zm-9.509-18.253a1.142,1.142,0,0,1-.949-.5,90.565,90.565,0,0,0-6.17-8.1,1.144,1.144,0,1,1,1.739-1.487,92.7,92.7,0,0,1,6.327,8.305,1.144,1.144,0,0,1-.946,1.784Zm-13.387-15.644a1.146,1.146,0,0,1-.78-.307,89.483,89.483,0,0,0-7.835-6.5,1.144,1.144,0,0,1,1.357-1.842,91.838,91.838,0,0,1,8.038,6.668,1.144,1.144,0,0,1-.78,1.982Zm-16.575-12.222a1.142,1.142,0,0,1-.568-.151,88.362,88.362,0,0,0-9.112-4.549,1.144,1.144,0,0,1,.9-2.1,90.94,90.94,0,0,1,9.347,4.667,1.143,1.143,0,0,1-.57,2.136Zm-18.928-8.121a1.145,1.145,0,0,1-.327-.048,89.29,89.29,0,0,0-9.906-2.344,1.144,1.144,0,1,1,.4-2.252,91.186,91.186,0,0,1,10.16,2.4,1.144,1.144,0,0,1-.326,2.24Zm-50.888-.218a1.144,1.144,0,0,1-.317-2.242,91.172,91.172,0,0,1,10.18-2.328,1.144,1.144,0,0,1,.381,2.256,88.928,88.928,0,0,0-9.925,2.269A1.16,1.16,0,0,1,1139.414,800.332Zm30.619-3.374-.072,0c-1.847-.114-3.71-.172-5.541-.172-1.545,0-3.1.041-4.641.121a1.144,1.144,0,1,1-.12-2.284c1.577-.083,3.177-.124,4.756-.124,1.883,0,3.794.059,5.688.176a1.144,1.144,0,0,1-.069,2.286Z" transform="translate(-1138.271 -794.495)" fill="#86bec4"/>
      </g>
      <g id="Grupo_53808" data-name="Grupo 53808" transform="translate(0 31.05)">
        <path id="Trazado_100574" data-name="Trazado 100574" d="M1098.652,950.512a1.137,1.137,0,0,1-.819-.346c-1.913-1.966-3.768-4.052-5.513-6.2q-.679-.835-1.336-1.683a1.144,1.144,0,1,1,1.807-1.4q.644.827,1.3,1.644c1.7,2.1,3.512,4.13,5.377,6.047a1.143,1.143,0,0,1-.82,1.942Zm-12.613-16.283a1.144,1.144,0,0,1-.979-.55,91.423,91.423,0,0,1-4.907-9.22,1.144,1.144,0,0,1,2.078-.957,89.166,89.166,0,0,0,4.785,8.988,1.145,1.145,0,0,1-.977,1.739Zm-8.61-18.705a1.144,1.144,0,0,1-1.087-.789,90.188,90.188,0,0,1-2.662-10.1,1.144,1.144,0,0,1,2.242-.454,88.085,88.085,0,0,0,2.593,9.843,1.144,1.144,0,0,1-1.086,1.5Zm-4.089-20.179a1.143,1.143,0,0,1-1.137-1.047c-.216-2.552-.326-5.148-.325-7.715q0-1.359.039-2.724a1.144,1.144,0,0,1,2.288.068q-.04,1.331-.039,2.657c0,2.5.106,5.033.317,7.522a1.143,1.143,0,0,1-1.042,1.236C1073.405,895.345,1073.373,895.346,1073.34,895.346Zm.606-20.583a1.16,1.16,0,0,1-.164-.012,1.142,1.142,0,0,1-.97-1.294,91.836,91.836,0,0,1,2.065-10.237,1.144,1.144,0,0,1,2.214.58,89.39,89.39,0,0,0-2.015,9.982A1.143,1.143,0,0,1,1073.945,874.762Zm5.22-19.918a1.145,1.145,0,0,1-1.066-1.56,91.2,91.2,0,0,1,4.339-9.5,1.144,1.144,0,1,1,2.023,1.069,88.984,88.984,0,0,0-4.23,9.26A1.145,1.145,0,0,1,1079.166,854.844Zm9.615-18.208a1.131,1.131,0,0,1-.646-.2,1.143,1.143,0,0,1-.3-1.59,91.327,91.327,0,0,1,6.388-8.262,1.144,1.144,0,1,1,1.726,1.5,89.13,89.13,0,0,0-6.228,8.054A1.143,1.143,0,0,1,1088.781,836.637Z" transform="translate(-1071.877 -826.191)" fill="#86bec4"/>
      </g>
      <circle id="Elipse_3992" data-name="Elipse 3992" cx="66.246" cy="66.246" r="66.246" transform="translate(25.032 25.028)" fill="#86bec4"/>
    </g>
    <g id="Grupo_53829" data-name="Grupo 53829" transform="translate(-11320.822 -8752.249)">
      <path id="Trazado_101313" data-name="Trazado 101313" d="M1194.842,889.743a3.06,3.06,0,0,0,0-4.328l-17.456-17.456a4.9,4.9,0,0,0-6.924,0l-.866.866,20.918,20.918a3.06,3.06,0,0,0,4.328,0Z" transform="translate(-1112.914 -835.004)" fill="#fff"/>
      <path id="Trazado_101314" data-name="Trazado 101314" d="M1178.252,877.48l4.328-4.328-5.194-5.193a4.9,4.9,0,0,0-6.924,0l-.866.866Z" transform="translate(-1112.914 -835.004)" fill="#fff"/>
      <path id="Trazado_101315" data-name="Trazado 101315" d="M1134.715,889.743a3.061,3.061,0,0,1,0-4.328l17.456-17.456a4.9,4.9,0,0,1,6.925,0l.865.866-20.918,20.918A3.06,3.06,0,0,1,1134.715,889.743Z" transform="translate(-1112.185 -835.004)" fill="#fff"/>
      <path id="Trazado_101316" data-name="Trazado 101316" d="M1151.579,877.48l-4.327-4.328,5.193-5.193a4.9,4.9,0,0,1,6.925,0l.865.866Z" transform="translate(-1112.459 -835.004)" fill="#fff"/>
      <path id="Trazado_101317" data-name="Trazado 101317" d="M1155.679,866.525h18.361V891.11h-18.361Z" transform="translate(-1112.631 -835.004)" fill="#fff"/>
      <path id="Trazado_101318" data-name="Trazado 101318" d="M1168.175,866.525h6.12V891.11h-6.12Z" transform="translate(-1112.885 -835.004)" fill="#e6e6e6"/>
      <path id="Trazado_101319" data-name="Trazado 101319" d="M1174.04,889.434v36.724h-6.12V898.615a3.06,3.06,0,1,0-6.121,0v27.543h-6.121V889.434Z" transform="translate(-1112.631 -835.47)" fill="#fff"/>
      <g id="Grupo_53827" data-name="Grupo 53827" transform="translate(55.29 53.964)">
        <path id="Trazado_101320" data-name="Trazado 101320" d="M1168.175,889.434h6.12v36.724h-6.12Z" transform="translate(-1168.175 -889.434)" fill="#e6e6e6"/>
      </g>
      <path id="Trazado_101321" data-name="Trazado 101321" d="M1161.8,926.785h-6.121v-3.469a3.06,3.06,0,0,1,6.121,0Z" transform="translate(-1112.631 -836.098)" fill="#fff"/>
      <path id="Trazado_101322" data-name="Trazado 101322" d="M1174.295,926.785h-6.12v-3.469a3.06,3.06,0,1,1,6.12,0Z" transform="translate(-1112.885 -836.098)" fill="#fff"/>
      <path id="Trazado_101323" data-name="Trazado 101323" d="M1164.987,870.478a3.06,3.06,0,0,1-3.06-3.06v-7.141h6.121v7.141A3.06,3.06,0,0,1,1164.987,870.478Z" transform="translate(-1112.758 -834.877)" fill="#fff"/>
      <path id="Trazado_101324" data-name="Trazado 101324" d="M1164.924,863.912a6.12,6.12,0,0,1-6.121-6.121v-3.264a6.12,6.12,0,1,1,12.24,0v3.264A6.12,6.12,0,0,1,1164.924,863.912Z" transform="translate(-1112.694 -834.635)" fill="#fff"/>
      <path id="Trazado_101325" data-name="Trazado 101325" d="M1164.924,848.406a6.121,6.121,0,0,0-6.121,6.121v.2a12.774,12.774,0,0,0,12.24,0v-.2A6.121,6.121,0,0,0,1164.924,848.406Z" transform="translate(-1112.694 -834.635)" fill="#fff"/>
      <g id="Grupo_53828" data-name="Grupo 53828">
        <path id="Trazado_101326" data-name="Trazado 101326" d="M1132.235,864.077a1.53,1.53,0,1,0-3-.615c-.211,1.026-.378,2.074-.5,3.116a1.53,1.53,0,1,0,3.04.349C1131.89,865.973,1132.043,865.014,1132.235,864.077Z" transform="translate(-1112.082 -834.917)" fill="#025157"/>
        <path id="Trazado_101327" data-name="Trazado 101327" d="M1131.561,882.234a1.53,1.53,0,1,0-3.06,0v3.023a1.53,1.53,0,1,0,3.06,0Z" transform="translate(-1112.077 -835.293)" fill="#025157"/>
        <path id="Trazado_101328" data-name="Trazado 101328" d="M1130.031,899.219a1.531,1.531,0,0,0-1.53,1.531v3.023a1.53,1.53,0,1,0,3.06,0V900.75A1.531,1.531,0,0,0,1130.031,899.219Z" transform="translate(-1112.077 -835.67)" fill="#025157"/>
        <path id="Trazado_101329" data-name="Trazado 101329" d="M1131.561,872.976a1.53,1.53,0,1,0-3.06,0V876a1.53,1.53,0,1,0,3.06,0Z" transform="translate(-1112.077 -835.104)" fill="#025157"/>
        <path id="Trazado_101330" data-name="Trazado 101330" d="M1134.529,918.187a1.53,1.53,0,1,0-2.787,1.263c.432.955.912,1.9,1.427,2.815a1.531,1.531,0,0,0,2.666-1.5c-.471-.836-.911-1.7-1.306-2.572Z" transform="translate(-1112.141 -836.038)" fill="#025157"/>
        <path id="Trazado_101331" data-name="Trazado 101331" d="M1139.2,925.672a1.53,1.53,0,1,0-2.36,1.948c.666.808,1.377,1.6,2.112,2.343a1.53,1.53,0,0,0,2.181-2.147c-.672-.684-1.323-1.4-1.933-2.144Z" transform="translate(-1112.24 -836.197)" fill="#025157"/>
        <path id="Trazado_101332" data-name="Trazado 101332" d="M1138.267,850.693c.576-.766,1.193-1.516,1.835-2.23a1.53,1.53,0,1,0-2.275-2.047c-.7.78-1.376,1.6-2.006,2.436a1.531,1.531,0,0,0,2.446,1.841Z" transform="translate(-1112.22 -834.584)" fill="#025157"/>
        <path id="Trazado_101333" data-name="Trazado 101333" d="M1201.536,885.242a1.53,1.53,0,1,0-3.059,0v3.023a1.53,1.53,0,1,0,3.059,0Z" transform="translate(-1113.502 -835.354)" fill="#025157"/>
        <path id="Trazado_101334" data-name="Trazado 101334" d="M1144.452,844.408c.756-.591,1.547-1.154,2.351-1.675a1.53,1.53,0,1,0-1.664-2.569c-.879.569-1.743,1.184-2.57,1.83a1.531,1.531,0,1,0,1.883,2.414Z" transform="translate(-1112.352 -834.462)" fill="#025157"/>
        <path id="Trazado_101335" data-name="Trazado 101335" d="M1199.987,871.281h.045a1.53,1.53,0,0,0,1.485-1.574c-.03-1.049-.107-2.107-.228-3.147a1.53,1.53,0,0,0-3.04.356c.111.95.181,1.919.208,2.879A1.531,1.531,0,0,0,1199.987,871.281Z" transform="translate(-1113.497 -834.977)" fill="#025157"/>
        <path id="Trazado_101336" data-name="Trazado 101336" d="M1201.536,894.5a1.53,1.53,0,1,0-3.059,0v3.023a1.53,1.53,0,1,0,3.059,0Z" transform="translate(-1113.502 -835.542)" fill="#025157"/>
        <path id="Trazado_101337" data-name="Trazado 101337" d="M1199.816,908.306l.107,0a1.53,1.53,0,0,0,1.525-1.424c.057-.831.086-1.676.086-2.512v-.614a1.53,1.53,0,1,0-3.06,0v.614c0,.766-.026,1.54-.079,2.3a1.532,1.532,0,0,0,1.421,1.633Z" transform="translate(-1113.5 -835.731)" fill="#025157"/>
        <path id="Trazado_101338" data-name="Trazado 101338" d="M1131.561,891.492a1.53,1.53,0,1,0-3.06,0v3.023a1.53,1.53,0,1,0,3.06,0Z" transform="translate(-1112.077 -835.481)" fill="#025157"/>
        <path id="Trazado_101339" data-name="Trazado 101339" d="M1201.536,875.984a1.53,1.53,0,1,0-3.059,0v3.023a1.53,1.53,0,1,0,3.059,0Z" transform="translate(-1113.502 -835.165)" fill="#025157"/>
        <path id="Trazado_101340" data-name="Trazado 101340" d="M1131.948,859.228a1.528,1.528,0,0,0,1.989-.854c.355-.889.755-1.775,1.188-2.629a1.53,1.53,0,1,0-2.729-1.384c-.474.936-.912,1.9-1.3,2.878A1.532,1.532,0,0,0,1131.948,859.228Z" transform="translate(-1112.128 -834.739)" fill="#025157"/>
        <path id="Trazado_101341" data-name="Trazado 101341" d="M1196.074,858.365c.357.89.679,1.8.956,2.722a1.53,1.53,0,1,0,2.93-.886c-.3-1-.655-2.006-1.046-2.978a1.53,1.53,0,1,0-2.84,1.141Z" transform="translate(-1113.451 -834.795)" fill="#025157"/>
        <path id="Trazado_101342" data-name="Trazado 101342" d="M1132.57,912.565c-.234-.928-.431-1.878-.583-2.825a1.53,1.53,0,1,0-3.021.485c.167,1.036.381,2.077.638,3.092a1.53,1.53,0,1,0,2.966-.751Z" transform="translate(-1112.086 -835.858)" fill="#025157"/>
        <path id="Trazado_101343" data-name="Trazado 101343" d="M1172.568,838.2a1.531,1.531,0,0,0,.33-3.026c-1.023-.226-2.068-.41-3.107-.546a1.53,1.53,0,1,0-.4,3.035c.951.124,1.906.293,2.841.5a1.494,1.494,0,0,0,.333.037Z" transform="translate(-1112.883 -834.354)" fill="#025157"/>
        <path id="Trazado_101344" data-name="Trazado 101344" d="M1181.235,841.358a1.531,1.531,0,0,0,.713-2.885c-.928-.489-1.889-.942-2.856-1.346a1.53,1.53,0,0,0-1.18,2.824c.884.369,1.762.784,2.611,1.23a1.527,1.527,0,0,0,.712.176Z" transform="translate(-1113.064 -834.403)" fill="#025157"/>
        <path id="Trazado_101345" data-name="Trazado 101345" d="M1181.907,933.251c-.826.487-1.683.941-2.548,1.353a1.53,1.53,0,1,0,1.314,2.765c.946-.45,1.884-.947,2.787-1.478a1.531,1.531,0,0,0-1.553-2.639Z" transform="translate(-1113.095 -836.358)" fill="#025157"/>
        <path id="Trazado_101346" data-name="Trazado 101346" d="M1173.775,936.679c-.923.252-1.87.465-2.813.635a1.53,1.53,0,0,0,.268,3.037,1.5,1.5,0,0,0,.271-.023c1.032-.185,2.068-.418,3.079-.694a1.531,1.531,0,0,0-.805-2.955Z" transform="translate(-1112.916 -836.431)" fill="#025157"/>
        <path id="Trazado_101347" data-name="Trazado 101347" d="M1188.772,846.682a1.531,1.531,0,0,0,1.042-2.652c-.768-.713-1.576-1.4-2.4-2.044a1.53,1.53,0,0,0-1.878,2.417c.757.589,1.5,1.219,2.2,1.87a1.521,1.521,0,0,0,1.04.409Z" transform="translate(-1113.227 -834.498)" fill="#025157"/>
        <path id="Trazado_101348" data-name="Trazado 101348" d="M1196.26,920.167a1.531,1.531,0,0,0-2.083.585c-.469.836-.982,1.661-1.523,2.453a1.531,1.531,0,1,0,2.527,1.728c.592-.866,1.152-1.768,1.665-2.681a1.532,1.532,0,0,0-.585-2.085Z" transform="translate(-1113.378 -836.092)" fill="#025157"/>
        <path id="Trazado_101349" data-name="Trazado 101349" d="M1194.666,853.783a1.515,1.515,0,0,0,.81-.233,1.53,1.53,0,0,0,.486-2.109c-.556-.888-1.157-1.762-1.79-2.6a1.53,1.53,0,0,0-2.441,1.846c.578.765,1.13,1.565,1.637,2.378a1.527,1.527,0,0,0,1.3.718Z" transform="translate(-1113.359 -834.632)" fill="#025157"/>
        <path id="Trazado_101350" data-name="Trazado 101350" d="M1188.867,927.812c-.672.685-1.381,1.348-2.109,1.971a1.531,1.531,0,1,0,1.99,2.327c.8-.681,1.571-1.406,2.3-2.154a1.53,1.53,0,1,0-2.185-2.143Z" transform="translate(-1113.252 -836.242)" fill="#025157"/>
        <path id="Trazado_101351" data-name="Trazado 101351" d="M1199.521,916.325c.344-.991.647-2.009.9-3.026a1.53,1.53,0,1,0-2.968-.745c-.233.93-.51,1.859-.825,2.765a1.53,1.53,0,0,0,2.891,1.005Z" transform="translate(-1113.463 -835.918)" fill="#025157"/>
        <path id="Trazado_101352" data-name="Trazado 101352" d="M1156.213,936.68c-.926-.25-1.849-.545-2.749-.876a1.531,1.531,0,0,0-1.056,2.873c.983.362,1.995.685,3.007.958a1.531,1.531,0,0,0,.8-2.956Z" transform="translate(-1112.544 -836.413)" fill="#025157"/>
        <path id="Trazado_101353" data-name="Trazado 101353" d="M1163.443,837.409a1.531,1.531,0,0,0-.136-3.058c-1.048.047-2.105.14-3.142.278a1.531,1.531,0,0,0,.2,3.048,1.428,1.428,0,0,0,.2-.014c.947-.125,1.914-.212,2.874-.254Z" transform="translate(-1112.695 -834.349)" fill="#025157"/>
        <path id="Trazado_101354" data-name="Trazado 101354" d="M1165.032,937.85h-.075c-.962,0-1.932-.041-2.885-.124a1.531,1.531,0,0,0-.266,3.05c1.04.091,2.1.137,3.162.137h.064a1.531,1.531,0,0,0,0-3.061Z" transform="translate(-1112.727 -836.454)" fill="#025157"/>
        <path id="Trazado_101355" data-name="Trazado 101355" d="M1152.059,839.957c.884-.372,1.794-.708,2.7-1a1.531,1.531,0,0,0-.932-2.916c-1,.319-1.993.687-2.959,1.093a1.531,1.531,0,0,0,1.186,2.822Z" transform="translate(-1112.514 -834.382)" fill="#025157"/>
        <path id="Trazado_101356" data-name="Trazado 101356" d="M1148.085,933.253c-.828-.484-1.643-1.012-2.425-1.567a1.53,1.53,0,1,0-1.772,2.5c.854.607,1.746,1.184,2.65,1.713a1.53,1.53,0,0,0,1.547-2.641Z" transform="translate(-1112.378 -836.325)" fill="#025157"/>
        <path id="Trazado_101357" data-name="Trazado 101357" d="M1216.539,886h-7.527l1.265-1.265a1.531,1.531,0,0,0-2.164-2.165l-3.877,3.877a1.532,1.532,0,0,0,0,2.165l3.877,3.877a1.53,1.53,0,0,0,2.164-2.164l-1.265-1.265h7.527a1.531,1.531,0,0,0,0-3.061Z" transform="translate(-1113.61 -835.322)" fill="#baefe4"/>
        <path id="Trazado_101358" data-name="Trazado 101358" d="M1204.221,929.207h1.788a1.531,1.531,0,0,0,0-3.061h-5.482a1.531,1.531,0,0,0-1.53,1.531v5.484a1.53,1.53,0,1,0,3.059,0v-1.789l5.322,5.324a1.531,1.531,0,1,0,2.164-2.165Z" transform="translate(-1113.513 -836.218)" fill="#baefe4"/>
        <path id="Trazado_101359" data-name="Trazado 101359" d="M1200.527,848.917h5.482a1.531,1.531,0,0,0,0-3.061h-1.788l5.321-5.323a1.53,1.53,0,0,0-2.163-2.165l-5.322,5.324V841.9a1.53,1.53,0,1,0-3.06,0v5.484A1.53,1.53,0,0,0,1200.527,848.917Z" transform="translate(-1113.513 -834.421)" fill="#baefe4"/>
        <path id="Trazado_101360" data-name="Trazado 101360" d="M1121.693,892.495l3.876-3.878a1.53,1.53,0,0,0,0-2.164l-3.876-3.878a1.531,1.531,0,0,0-2.164,2.165l1.264,1.265h-7.527a1.531,1.531,0,0,0,0,3.061h7.527l-1.264,1.265a1.531,1.531,0,0,0,2.164,2.165Z" transform="translate(-1111.736 -835.322)" fill="#baefe4"/>
        <path id="Trazado_101361" data-name="Trazado 101361" d="M1129.346,926.147h-5.482a1.53,1.53,0,1,0,0,3.06h1.788l-5.322,5.324a1.531,1.531,0,0,0,2.164,2.165l5.322-5.324v1.789a1.53,1.53,0,1,0,3.06,0v-5.484A1.53,1.53,0,0,0,1129.346,926.147Z" transform="translate(-1111.902 -836.218)" fill="#baefe4"/>
        <path id="Trazado_101362" data-name="Trazado 101362" d="M1125.652,845.856h-1.788a1.531,1.531,0,0,0,0,3.061h5.482a1.531,1.531,0,0,0,1.53-1.53V841.9a1.53,1.53,0,1,0-3.06,0v1.789l-5.322-5.324a1.531,1.531,0,0,0-2.164,2.165Z" transform="translate(-1111.902 -834.421)" fill="#baefe4"/>
      </g>
    </g>
  </g>
</svg>
