<svg xmlns="http://www.w3.org/2000/svg" width="59.15" height="23.978" viewBox="0 0 59.15 23.978">
  <g id="Grupo_1054813" data-name="Grupo 1054813" transform="translate(-2280.498 -10147.054) rotate(-9)">
    <path id="Trazado_774586" data-name="Trazado 774586" d="M640.748,215.021a33.022,33.022,0,0,0,11.191,9.843,31.333,31.333,0,0,0,6.877,2.631,32.379,32.379,0,0,0,7.293.937c1.23.067,2.464-.037,3.7-.084,1.229-.141,2.466-.218,3.687-.457a58.923,58.923,0,0,0,7.289-1.682,107.142,107.142,0,0,0,14.094-5.625,58.843,58.843,0,0,1-13.524,7.306l-1.833.641-.92.313c-.308.1-.625.175-.937.264l-1.882.508c-.63.161-1.275.265-1.912.4-1.272.291-2.581.394-3.876.571-1.309.065-2.617.18-3.933.119a30.887,30.887,0,0,1-7.8-1.131,28.323,28.323,0,0,1-7.2-3.178A27.157,27.157,0,0,1,640.748,215.021Z" transform="translate(23 10172.217)" fill="#73d8c0"/>
    <path id="Trazado_774587" data-name="Trazado 774587" d="M734.656,216.915a16.387,16.387,0,0,0,1.606,1.007c.268.155.545.3.816.436l.834.379a14.257,14.257,0,0,0,3.407,1.018,12.97,12.97,0,0,0,3.457.156,13.548,13.548,0,0,0,1.719-.229c.573-.1,1.129-.292,1.7-.412l.143-.03a1.1,1.1,0,0,1,1.094,1.754l-3.321,4.273-3.385,4.319a17.5,17.5,0,0,1,.862-2.66c.341-.868.746-1.7,1.169-2.529s.885-1.627,1.367-2.415.984-1.556,1.529-2.323l1.237,1.724c-.323.1-.647.194-.974.283a8.225,8.225,0,0,1-.986.246,13.146,13.146,0,0,1-2.031.236,11.7,11.7,0,0,1-4.046-.515,11.327,11.327,0,0,1-3.575-1.825A9.817,9.817,0,0,1,734.656,216.915Z" transform="translate(-28.174 10171.185)" fill="#73d8c0"/>
  </g>
</svg>
