<svg xmlns="http://www.w3.org/2000/svg" width="127" height="127" viewBox="0 0 127 127">
  <g id="Grupo_1054979" data-name="Grupo 1054979" transform="translate(3825 8715)">
    <circle id="Elipse_4183" data-name="Elipse 4183" cx="63.5" cy="63.5" r="63.5" transform="translate(-3825 -8715)" fill="#f5947a"/>
    <g id="Grupo_1054978" data-name="Grupo 1054978">
      <path id="Trazado_774653" data-name="Trazado 774653" d="M54.5,0A54.5,54.5,0,1,1,0,54.5,54.5,54.5,0,0,1,54.5,0Z" transform="translate(-3816 -8706)" fill="#fff"/>
    </g>
    <g id="bosquejo" transform="translate(-3816.457 -8685)">
      <g id="Grupo_1054706" data-name="Grupo 1054706" transform="translate(26.341 0.962)">
        <g id="Grupo_1054705" data-name="Grupo 1054705" transform="translate(0)">
          <g id="Grupo_1054701" data-name="Grupo 1054701" transform="translate(9.979 3.443)">
            <path id="Trazado_774561" data-name="Trazado 774561" d="M157.937,35.884a1.539,1.539,0,0,0-1.539-1.539H112.222a1.539,1.539,0,0,0-1.539,1.539v5.749h47.254Z" transform="translate(-110.683 -34.345)" fill="#ffe270"/>
            <path id="Trazado_774562" data-name="Trazado 774562" d="M110.683,91.172v51.472a1.539,1.539,0,0,0,1.539,1.539H156.4a1.539,1.539,0,0,0,1.539-1.539V91.172Z" transform="translate(-110.683 -83.884)" fill="#eaf6ff"/>
          </g>
          <g id="Grupo_1054702" data-name="Grupo 1054702" transform="translate(9.979 3.443)">
            <path id="Trazado_774563" data-name="Trazado 774563" d="M115.428,34.345h-3.206a1.539,1.539,0,0,0-1.539,1.539v5.749h3.206V35.884A1.539,1.539,0,0,1,115.428,34.345Z" transform="translate(-110.683 -34.345)" fill="#ffd15b"/>
            <path id="Trazado_774564" data-name="Trazado 774564" d="M113.889,142.644V91.172h-3.206v51.472a1.539,1.539,0,0,0,1.539,1.539h3.206A1.539,1.539,0,0,1,113.889,142.644Z" transform="translate(-110.683 -83.884)" fill="#d8ecfe"/>
          </g>
          <path id="Trazado_774565" data-name="Trazado 774565" d="M38.641,79.434v39.44a1.616,1.616,0,0,1-1.615,1.616H34.5a1.616,1.616,0,0,1-1.616-1.616V79.434a2.412,2.412,0,0,1,.013-.255,2.51,2.51,0,0,1,.122-.573l2.074-6.168a.709.709,0,0,1,1.344,0l2.074,6.168a2.51,2.51,0,0,1,.122.573,2.413,2.413,0,0,1,.013.255Z" transform="translate(-32.88 -63.688)" fill="#8ac9fe"/>
          <path id="Trazado_774566" data-name="Trazado 774566" d="M36.084,118.87V79.429a2.6,2.6,0,0,1,.135-.828l1.142-3.4-.932-2.771a.709.709,0,0,0-1.343,0L33.013,78.6a2.6,2.6,0,0,0-.135.828v39.44a1.616,1.616,0,0,0,1.616,1.616h2.53a1.62,1.62,0,0,0,.338-.036A1.616,1.616,0,0,1,36.084,118.87Z" transform="translate(-32.878 -63.684)" fill="#60b7ff"/>
          <path id="Trazado_774567" data-name="Trazado 774567" d="M38.716,79.179H32.98a.1.1,0,0,1,0-.019c0-.038.008-.078.014-.117s.014-.088.023-.132c.005-.027.012-.054.018-.08s.017-.068.026-.1.024-.083.038-.124l2.074-6.168a.709.709,0,0,1,1.344,0l.931,2.77,1.143,3.4A2.509,2.509,0,0,1,38.716,79.179Z" transform="translate(-32.967 -63.688)" fill="#eaf6ff"/>
          <path id="Trazado_774568" data-name="Trazado 774568" d="M38.641,411.38v3.386a1.616,1.616,0,0,1-1.277,1.58h0a1.616,1.616,0,0,1-.336.036H34.5a1.616,1.616,0,0,1-1.616-1.616V411.38Z" transform="translate(-32.88 -359.58)" fill="#ffe270"/>
          <path id="Trazado_774569" data-name="Trazado 774569" d="M209.144,186.566H194.033a.543.543,0,0,1-.543-.543V173.548a1.633,1.633,0,0,1,.467-1.141c1.006-1.028,1.716-1.826,2.742-2.87a.544.544,0,0,1,.749-.026l3.06,2.713a1.63,1.63,0,0,0,2.163,0l3.06-2.713a.544.544,0,0,1,.749.026c1.026,1.044,1.737,1.842,2.742,2.87a1.633,1.633,0,0,1,.467,1.141v12.475A.544.544,0,0,1,209.144,186.566Z" transform="translate(-172.891 -148.612)" fill="#f58a97"/>
          <path id="Trazado_774570" data-name="Trazado 774570" d="M186.967,305.427h-16.6a.372.372,0,0,0-.368.318l-2.8,19.232a.672.672,0,0,0,.665.768h4.145a.672.672,0,0,0,.629-.436L174,321.691a.672.672,0,0,1,1.244-.033l1.614,3.686a.672.672,0,0,0,.615.4h11.992a.672.672,0,0,0,.665-.769l-2.8-19.232A.372.372,0,0,0,186.967,305.427Z" transform="translate(-149.971 -267.216)" fill="#f58a97"/>
          <path id="Trazado_774571" data-name="Trazado 774571" d="M196.7,173.546v12.475a.544.544,0,0,0,.544.544h-3.206a.544.544,0,0,1-.544-.544V173.546a1.631,1.631,0,0,1,.467-1.141c1.005-1.029,1.716-1.826,2.742-2.87a.544.544,0,0,1,.749-.026l1.34,1.189c-.523.554-1.021,1.089-1.625,1.707A1.632,1.632,0,0,0,196.7,173.546Z" transform="translate(-172.891 -148.61)" fill="#f07281"/>
          <g id="Grupo_1054703" data-name="Grupo 1054703" transform="translate(17.227 38.21)">
            <path id="Trazado_774572" data-name="Trazado 774572" d="M170.412,324.977l2.8-19.232a.372.372,0,0,1,.368-.318h-3.206a.372.372,0,0,0-.368.318l-2.8,19.232a.672.672,0,0,0,.665.768h3.206A.672.672,0,0,1,170.412,324.977Z" transform="translate(-167.198 -305.426)" fill="#f07281"/>
          </g>
          <path id="Trazado_774573" data-name="Trazado 774573" d="M37.363,416.346a1.616,1.616,0,0,1-.336.036H34.5a1.616,1.616,0,0,1-1.616-1.616V411.38h3.206v3.386A1.615,1.615,0,0,0,37.363,416.346Z" transform="translate(-32.88 -359.58)" fill="#ffd15b"/>
          <path id="Trazado_774574" data-name="Trazado 774574" d="M36.186,79.179H32.98a.1.1,0,0,1,0-.019c0-.038.008-.078.014-.117s.014-.088.023-.132c.005-.027.012-.054.018-.08s.017-.068.026-.1.024-.083.038-.124l2.074-6.168a.709.709,0,0,1,1.344,0l.931,2.77-1.143,3.4A2.51,2.51,0,0,0,36.186,79.179Z" transform="translate(-32.967 -63.688)" fill="#d8ecfe"/>
          <path id="Trazado_774575" data-name="Trazado 774575" d="M198.282,290.974H181.133a1.026,1.026,0,0,1-1.026-1.026v-2a1.026,1.026,0,0,1,1.026-1.026h17.149a1.026,1.026,0,0,1,1.026,1.026v2A1.026,1.026,0,0,1,198.282,290.974Z" transform="translate(-161.224 -251.086)" fill="#b6c4cf"/>
          <path id="Trazado_774576" data-name="Trazado 774576" d="M183.312,289.949v-2a1.026,1.026,0,0,1,1.026-1.026h-3.206a1.026,1.026,0,0,0-1.026,1.026v2a1.026,1.026,0,0,0,1.026,1.026h3.206A1.026,1.026,0,0,1,183.312,289.949Z" transform="translate(-161.223 -251.087)" fill="#9facba"/>
          <g id="Grupo_1054704" data-name="Grupo 1054704" transform="translate(15.88)">
            <path id="Trazado_774577" data-name="Trazado 774577" d="M158.487,14.481H158.3a1.6,1.6,0,0,1-1.6-1.6V9.1a1.6,1.6,0,0,1,1.6-1.6h.189a1.6,1.6,0,0,1,1.6,1.6v3.774A1.6,1.6,0,0,1,158.487,14.481Z" transform="translate(-156.694 -7.5)" fill="#c5d3dd"/>
            <path id="Trazado_774578" data-name="Trazado 774578" d="M220.972,14.481h-.189a1.6,1.6,0,0,1-1.6-1.6V9.1a1.6,1.6,0,0,1,1.6-1.6h.189a1.6,1.6,0,0,1,1.6,1.6v3.774A1.6,1.6,0,0,1,220.972,14.481Z" transform="translate(-211.165 -7.5)" fill="#c5d3dd"/>
            <path id="Trazado_774579" data-name="Trazado 774579" d="M283.457,14.481h-.189a1.6,1.6,0,0,1-1.6-1.6V9.1a1.6,1.6,0,0,1,1.6-1.6h.189a1.6,1.6,0,0,1,1.6,1.6v3.774A1.6,1.6,0,0,1,283.457,14.481Z" transform="translate(-265.636 -7.5)" fill="#c5d3dd"/>
            <path id="Trazado_774580" data-name="Trazado 774580" d="M345.941,14.481h-.189a1.6,1.6,0,0,1-1.6-1.6V9.1a1.6,1.6,0,0,1,1.6-1.6h.189a1.6,1.6,0,0,1,1.6,1.6v3.774A1.6,1.6,0,0,1,345.941,14.481Z" transform="translate(-320.106 -7.5)" fill="#c5d3dd"/>
            <path id="Trazado_774581" data-name="Trazado 774581" d="M408.426,14.481h-.19a1.6,1.6,0,0,1-1.6-1.6V9.1a1.6,1.6,0,0,1,1.6-1.6h.19a1.6,1.6,0,0,1,1.6,1.6v3.774A1.6,1.6,0,0,1,408.426,14.481Z" transform="translate(-374.577 -7.5)" fill="#c5d3dd"/>
          </g>
        </g>
      </g>
      <g id="Grupo_1054707" data-name="Grupo 1054707" transform="translate(25.379 0)">
        <path id="Trazado_774582" data-name="Trazado 774582" d="M30.805,65.588a1.671,1.671,0,0,0-3.167,0l-2.074,6.168a3.55,3.55,0,0,0-.186,1.135v39.44a2.581,2.581,0,0,0,2.578,2.578h2.53a2.581,2.581,0,0,0,2.578-2.578V72.891a3.552,3.552,0,0,0-.186-1.135ZM27.3,73.6h3.838v34.384H27.3Zm1.919-6.683,1.6,4.759h-3.2Zm1.265,46.07h-2.53a.655.655,0,0,1-.654-.654v-2.425h3.838v2.425A.655.655,0,0,1,30.487,112.986Z" transform="translate(-25.379 -56.184)"/>
        <path id="Trazado_774583" data-name="Trazado 774583" d="M149.858,3.442h-3.4V2.66a2.66,2.66,0,0,0-5.32,0v.783h-2.694V2.66a2.66,2.66,0,1,0-5.319,0v.783H130.43V2.66a2.66,2.66,0,0,0-5.32,0v.783h-2.694V2.66a2.66,2.66,0,0,0-5.32,0v.783H114.4V2.66a2.66,2.66,0,0,0-5.32,0v.783h-3.4a2.5,2.5,0,0,0-2.5,2.5V63.166a2.5,2.5,0,0,0,2.5,2.5h44.176a2.5,2.5,0,0,0,2.5-2.5V34.716a.962.962,0,0,0-1.924,0v28.45a.578.578,0,0,1-.577.577H105.682a.578.578,0,0,1-.577-.577V12.655h45.33V30.227a.962.962,0,0,0,1.924,0V5.943a2.5,2.5,0,0,0-2.5-2.5Zm-6.8-.783a.736.736,0,1,1,1.472,0V6.244a.736.736,0,1,1-1.472,0Zm-8.014,0a.736.736,0,1,1,1.472,0V6.244a.736.736,0,1,1-1.472,0Zm-8.014,0a.736.736,0,0,1,1.472,0V6.244a.736.736,0,0,1-1.472,0Zm-8.014,0a.736.736,0,1,1,1.472,0V6.244a.736.736,0,1,1-1.472,0Zm-8.014,0a.736.736,0,1,1,1.472,0V6.244a.736.736,0,1,1-1.472,0Zm-5.9,8.072V5.943a.578.578,0,0,1,.577-.577h3.4v.878a2.66,2.66,0,0,0,5.32,0V5.366H117.1v.878a2.66,2.66,0,0,0,5.32,0V5.366h2.694v.878a2.66,2.66,0,0,0,5.32,0V5.366h2.694v.878a2.66,2.66,0,0,0,5.32,0V5.366h2.694v.878a2.66,2.66,0,0,0,5.32,0V5.366h3.4a.578.578,0,0,1,.577.577v4.788Z" transform="translate(-93.202 0)"/>
        <path id="Trazado_774584" data-name="Trazado 774584" d="M160.093,167.636a1.634,1.634,0,0,0,1.237.565h4.145A1.643,1.643,0,0,0,167,167.143l1.107-2.95,1.328,3.031a1.633,1.633,0,0,0,1.5.978h11.991a1.634,1.634,0,0,0,1.618-1.869L182,148.859a1.978,1.978,0,0,0,.475-1.286v-2a1.989,1.989,0,0,0-1.287-1.858v-10.07a2.581,2.581,0,0,0-.741-1.814c-.478-.489-2.2-2.323-2.744-2.872-.028-.029-.058-.056-.088-.082v-4.315a.962.962,0,1,0-1.924,0v4.276c-.02.016-.041.032-.061.049l-3.058,2.712a.672.672,0,0,1-.888,0l-3.059-2.712c-.02-.018-.041-.033-.061-.049v-4.277a.962.962,0,1,0-1.924,0v4.315c-.03.026-.06.053-.088.082-.539.549-2.266,2.383-2.743,2.872a2.581,2.581,0,0,0-.741,1.814v3.11a.962.962,0,0,0,1.924,0v-3.11a.667.667,0,0,1,.193-.469c.491-.5,2.053-2.162,2.463-2.584l2.762,2.45a2.6,2.6,0,0,0,3.439,0l2.761-2.448c.41.422,1.972,2.082,2.463,2.585a.667.667,0,0,1,.192.469v9.94H164.991v-2.341a.962.962,0,0,0-1.924,0v2.362a1.989,1.989,0,0,0-1.717,1.967v2a1.986,1.986,0,0,0,.854,1.63l-2.493,17.13A1.632,1.632,0,0,0,160.093,167.636Zm3.246-20a.064.064,0,0,1-.064-.064v-2a.064.064,0,0,1,.064-.064h17.149a.064.064,0,0,1,.064.064v2a.064.064,0,0,1-.064.064Zm.758,1.924h16.062l2.433,16.717H171.125l-1.538-3.51a1.633,1.633,0,0,0-3.026.08l-1.287,3.43h-3.609Z" transform="translate(-142.468 -107.749)"/>
        <path id="Trazado_774585" data-name="Trazado 774585" d="M386.422,166.277a.962.962,0,0,0,0,1.924h3.032a1.733,1.733,0,0,0,1.731-1.731V125.331a1.733,1.733,0,0,0-1.731-1.731h-3.032a.962.962,0,0,0,0,1.924h2.84V128h-2.84a.962.962,0,0,0,0,1.924h2.84v2.512h-2.84a.962.962,0,0,0,0,1.924h2.84v9.227h-2.84a.962.962,0,1,0,0,1.924h2.84v2.127h-2.84a.962.962,0,0,0,0,1.924h2.84v16.717Z" transform="translate(-339.278 -107.748)"/>
      </g>
    </g>
  </g>
</svg>
