<svg xmlns="http://www.w3.org/2000/svg" width="127" height="127" viewBox="0 0 127 127">
  <g id="Grupo_1054981" data-name="Grupo 1054981" transform="translate(3499 8715)">
    <circle id="Elipse_4188" data-name="Elipse 4188" cx="63.5" cy="63.5" r="63.5" transform="translate(-3499 -8715)" fill="#f5947a"/>
    <circle id="Elipse_4187" data-name="Elipse 4187" cx="54.5" cy="54.5" r="54.5" transform="translate(-3490 -8706)" fill="#fff"/>
    <g id="modista" transform="translate(-3465.514 -8682.168)">
      <path id="Trazado_774533" data-name="Trazado 774533" d="M52,51.93V58a1,1,0,0,1-1,1H49a1,1,0,0,1-1-1V51.93Z" fill="#ff5722"/>
      <path id="Trazado_774534" data-name="Trazado 774534" d="M3.328,26.51a21.621,21.621,0,0,1-2.3-9.36C1.028,6.05,8.818,1,16.618,1,28.427,1,44.53,5.484,37.123,26.893L3.328,26.51Z" fill="sienna"/>
      <path id="Trazado_774535" data-name="Trazado 774535" d="M16.618,1c-.357,0-.713.022-1.069.044,11.53.488,25.567,5.582,18.585,25.815l2.989.034C44.529,5.484,28.427,1,16.618,1Z" fill="#783e22"/>
      <path id="Trazado_774536" data-name="Trazado 774536" d="M34,26h.98a3.005,3.005,0,0,1,1.85.64A2.922,2.922,0,0,1,38,29a2.96,2.96,0,0,1-.89,2.12,3.016,3.016,0,0,1-2.13.88h-30a2.961,2.961,0,0,1-2.105-.88A3,3,0,0,1,2,29a3.005,3.005,0,0,1,2.979-3Z" fill="#ffe0b2"/>
      <path id="Trazado_774537" data-name="Trazado 774537" d="M36.828,26.64a3.005,3.005,0,0,0-1.85-.64h-3a3.005,3.005,0,0,1,1.85.64A2.922,2.922,0,0,1,35,29a2.96,2.96,0,0,1-.89,2.12,3.016,3.016,0,0,1-2.13.88h3a3.016,3.016,0,0,0,2.13-.88A2.96,2.96,0,0,0,38,29,2.922,2.922,0,0,0,36.828,26.64Z" fill="#dfc49c"/>
      <path id="Trazado_774538" data-name="Trazado 774538" d="M58.406,50.47A21.016,21.016,0,0,1,50,52a21.016,21.016,0,0,1-8.406-1.53.985.985,0,0,1-.5-1.33C42.153,46.97,45,41.2,45,38c0-4-3-6-3-8,0-3,2.817-2,3.854-3a3.892,3.892,0,0,0,.956-2.139A1.031,1.031,0,0,1,47.836,24h4.328a1.032,1.032,0,0,1,1.026.861A3.888,3.888,0,0,0,54.146,27C55.183,28,58,27,58,30c0,2-3,4-3,8,0,3.2,2.846,8.97,3.9,11.14a.984.984,0,0,1-.5,1.33Z" fill="#ff9801"/>
      <path id="Trazado_774539" data-name="Trazado 774539" d="M58.9,49.14C57.847,46.97,55,41.2,55,38c0-4,3-6,3-8,0-3-2.818-2-3.854-3a3.9,3.9,0,0,1-.956-2.139A1.031,1.031,0,0,0,52.164,24h-3a1.032,1.032,0,0,1,1.026.861A3.888,3.888,0,0,0,51.146,27C52.182,28,55,27,55,30c0,2-3,4-3,8,0,3.2,2.846,8.97,3.9,11.14a.984.984,0,0,1-.5,1.33A19.961,19.961,0,0,1,48.5,51.959c.478.026.978.041,1.5.041a21.016,21.016,0,0,0,8.406-1.53A.985.985,0,0,0,58.9,49.14Z" fill="#f57c00"/>
      <path id="Trazado_774540" data-name="Trazado 774540" d="M16.968,41.85V45a3.7,3.7,0,0,1-2,3c-2.836.945-9.247,3.678-9.939,9.888a1.007,1.007,0,0,0,1,1.112H33.907a1.007,1.007,0,0,0,1-1.112c-.692-6.21-7.1-8.943-9.939-9.888a3.7,3.7,0,0,1-2-3V41.85Z" fill="#ffe0b2"/>
      <path id="Trazado_774541" data-name="Trazado 774541" d="M24.968,48a3.7,3.7,0,0,1-2-3V41.85h-3V45a3.7,3.7,0,0,0,2,3c2.836.945,9.247,3.678,9.939,9.888a1.007,1.007,0,0,1-1,1.112h3a1.007,1.007,0,0,0,1-1.112c-.692-6.21-7.1-8.943-9.939-9.888Z" fill="#dfc49c"/>
      <path id="Trazado_774542" data-name="Trazado 774542" d="M32.893,18.6c-6.108-3.023-7.9-7.491-7.9-7.491-4.62,6.161-13.392,7.577-17.181,7.9A1.993,1.993,0,0,0,6,21v8A13,13,0,0,0,19,42h2A13,13,0,0,0,34,29V20.381A1.992,1.992,0,0,0,32.893,18.6Z" fill="#ffe0b2"/>
      <path id="Trazado_774543" data-name="Trazado 774543" d="M32.893,18.6c-6.108-3.023-7.9-7.491-7.9-7.491a14.979,14.979,0,0,1-1.812,2A18.11,18.11,0,0,0,29.894,18.6,1.992,1.992,0,0,1,31,20.38V29A12.99,12.99,0,0,1,18.5,41.974c.167.006.331.025.5.025h2A13,13,0,0,0,34,29V20.38a1.992,1.992,0,0,0-1.1-1.784Z" fill="#dfc49c"/>
      <path id="Trazado_774544" data-name="Trazado 774544" d="M24.78,49.19,23,59H17l-1.78-9.8A13.153,13.153,0,0,0,20,50,12.919,12.919,0,0,0,24.78,49.19Z" fill="#f5f5f5"/>
      <path id="Trazado_774545" data-name="Trazado 774545" d="M21.649,49.911,20,59h3l1.78-9.81A11.806,11.806,0,0,1,21.649,49.911Z" fill="#cfd8dc"/>
      <path id="Trazado_774546" data-name="Trazado 774546" d="M15.22,49.2,17,59H6.03a1,1,0,0,1-1-1.11c.6-5.42,5.56-8.19,8.7-9.43a6.181,6.181,0,0,0,.77.42,6,6,0,0,0,.72.32Z" fill="#607d8b"/>
      <path id="Trazado_774547" data-name="Trazado 774547" d="M34.91,57.89a1.012,1.012,0,0,1-1,1.11H23l1.78-9.81a4.728,4.728,0,0,0,.72-.31,6.606,6.606,0,0,0,.75-.4c3.14,1.25,8.05,4.02,8.66,9.41Z" fill="#607d8b"/>
      <path id="Trazado_774548" data-name="Trazado 774548" d="M26.25,48.48a9.053,9.053,0,0,1-1.431.7c2.993,1.477,6.576,4.156,7.091,8.71a1.012,1.012,0,0,1-1,1.11h3a1.012,1.012,0,0,0,1-1.11c-.61-5.39-5.52-8.16-8.66-9.41Z" fill="#37474f"/>
      <g id="Grupo_1054700" data-name="Grupo 1054700">
        <path id="Trazado_774549" data-name="Trazado 774549" d="M17,59l-6-4,3.5-6.12L15,48l.22,1.2Z" fill="#607d8b"/>
        <path id="Trazado_774550" data-name="Trazado 774550" d="M17,59l-6-4,3.5-6.12L15,48l.22,1.2Z" fill="#607d8b"/>
        <path id="Trazado_774551" data-name="Trazado 774551" d="M29,55l-6,4,1.78-9.81L25,48l.5.88Z" fill="#607d8b"/>
      </g>
      <path id="Trazado_774552" data-name="Trazado 774552" d="M25.5,48.88,25,48l-.22,1.19-.506,2.791L26,55l-2.587,1.725L23,59l6-4Z" fill="#37474f"/>
      <path id="Trazado_774553" data-name="Trazado 774553" d="M52.164,23H47.836a2.027,2.027,0,0,0-2.013,1.7,2.9,2.9,0,0,1-.663,1.58,2.757,2.757,0,0,1-.992.3C43.061,26.8,41,27.2,41,30a6.23,6.23,0,0,0,1.269,3.155A8.828,8.828,0,0,1,44,38c0,2.9-2.713,8.468-3.735,10.563l-.075.154a1.984,1.984,0,0,0,1,2.669A20.042,20.042,0,0,0,47,52.839V58a2,2,0,0,0,2,2h2a2,2,0,0,0,2-2V52.839a20.109,20.109,0,0,0,5.808-1.452l0,0A1.986,1.986,0,0,0,59.8,48.7l-.074-.151C58.71,46.459,56,40.9,56,38a8.835,8.835,0,0,1,1.731-4.845A6.242,6.242,0,0,0,59,30c0-2.8-2.061-3.2-3.167-3.419a2.75,2.75,0,0,1-.992-.3,2.879,2.879,0,0,1-.663-1.58A2.027,2.027,0,0,0,52.165,23ZM51,58H49V52.972c.33.012.652.028,1,.028s.67-.016,1-.028Zm4.451-29.456C56.653,28.778,57,28.9,57,30a5.045,5.045,0,0,1-.967,2.1A10.625,10.625,0,0,0,54,38c0,3.359,2.755,9.013,3.931,11.427l.076.125-.005,0A20.109,20.109,0,0,1,50,51a20.7,20.7,0,0,1-8.005-1.422l.068-.139C43.241,47.022,46,41.364,46,38a10.622,10.622,0,0,0-2.033-5.9A5.045,5.045,0,0,1,43,30c0-1.1.347-1.222,1.549-1.456a3.748,3.748,0,0,0,2-.824A5.219,5.219,0,0,0,47.837,25l4.367.022a4.871,4.871,0,0,0,1.249,2.7,3.742,3.742,0,0,0,2,.824Z"/>
      <path id="Trazado_774554" data-name="Trazado 774554" d="M2.062,26.286A4,4,0,0,0,4.977,33h.61a14.043,14.043,0,0,0,10.381,9.661V45a2.667,2.667,0,0,1-1.4,2.08c-3.665,1.236-9.813,4.252-10.532,10.7A2.008,2.008,0,0,0,6.03,60H33.907A2.006,2.006,0,0,0,35.9,57.777c-.714-6.408-6.794-9.424-10.466-10.674a.474.474,0,0,0-.049-.017l-.015-.005a2.666,2.666,0,0,1-1.4-2.08V42.677A14.04,14.04,0,0,0,34.409,33h.57a4.034,4.034,0,0,0,2.83-1.166,3.937,3.937,0,0,0,.432-5.143c2.622-7.889,2.307-14.211-.954-18.79C32.39,1.026,22.235,0,16.618,0,8.36,0,.028,5.3.028,17.15a23.3,23.3,0,0,0,2.059,9.115c-.007.008-.017.014-.024.022ZM6.021,58c.458-4.107,3.738-6.588,6.69-8.009L10.131,54.5a1,1,0,0,0,.313,1.328L13.694,58H6.022Zm6.31-3.313,2.175-3.807,1.088,5.983ZM33.906,58H26.3l3.251-2.168a1,1,0,0,0,.313-1.328L27.311,50.03c2.928,1.429,6.146,3.9,6.594,7.969Zm-8.413-7.122,2.175,3.807L24.4,56.86ZM4.977,31a1.96,1.96,0,0,1-1.4-.584A2,2,0,0,1,3,29a1.973,1.973,0,0,1,.54-1.363A1.928,1.928,0,0,1,4.977,27H5v2a13.884,13.884,0,0,0,.16,2h-.18ZM22.165,58H17.834l-1.343-7.386a16.133,16.133,0,0,0,7.016,0L22.164,58ZM20,49a12.757,12.757,0,0,1-3.885-.559A4.359,4.359,0,0,0,17.966,45V42.948c.341.025.682.052,1.03.052h2c.328,0,.648-.027.97-.049V45a4.37,4.37,0,0,0,1.871,3.456A12.819,12.819,0,0,1,20,49ZM33,29A12.013,12.013,0,0,1,21,41H19A12.013,12.013,0,0,1,7,29V21a.988.988,0,0,1,.9-1c3.515-.3,11.858-1.6,16.919-7.123a18.627,18.627,0,0,0,7.628,6.612.994.994,0,0,1,.547.887V29Zm3.4,1.413A2.023,2.023,0,0,1,34.977,31h-.14A14.028,14.028,0,0,0,35,29V27a2.03,2.03,0,0,1,1.23.439A1.929,1.929,0,0,1,37,29a1.96,1.96,0,0,1-.6,1.413ZM2.028,17.15C2.028,6.685,9.355,2,16.618,2c5.232,0,14.663.917,19.039,7.061,2.776,3.9,3.081,9.376.919,16.289A3.989,3.989,0,0,0,35,25V20.381a3.009,3.009,0,0,0-1.661-2.68c-5.652-2.8-7.4-6.928-7.41-6.966a1,1,0,0,0-1.728-.229c-4.407,5.876-12.984,7.207-16.467,7.506A2.977,2.977,0,0,0,5,21v4H4.978a3.941,3.941,0,0,0-1.186.2,21.558,21.558,0,0,1-1.763-8.053Z"/>
      <path id="Trazado_774555" data-name="Trazado 774555" d="M15.968,28a3,3,0,1,0-6,0,1,1,0,1,0,2,0,1,1,0,0,1,2,0,1,1,0,0,0,2,0Z"/>
      <path id="Trazado_774556" data-name="Trazado 774556" d="M26.968,25a3,3,0,0,0-3,3,1,1,0,0,0,2,0,1,1,0,0,1,2,0,1,1,0,0,0,2,0A3,3,0,0,0,26.968,25Z"/>
      <path id="Trazado_774557" data-name="Trazado 774557" d="M10.284,23.949l3-1a1,1,0,1,0-.633-1.9l-3,1a1,1,0,1,0,.633,1.9Z"/>
      <path id="Trazado_774558" data-name="Trazado 774558" d="M30.284,22.051l-3-1a1,1,0,0,0-.633,1.9l3,1a1,1,0,1,0,.633-1.9Z"/>
      <path id="Trazado_774559" data-name="Trazado 774559" d="M18.968,33h2a1,1,0,1,0,0-2h-2a1,1,0,0,0,0,2Z"/>
      <path id="Trazado_774560" data-name="Trazado 774560" d="M24.425,34.12a1.009,1.009,0,0,0-1.345.42A3.394,3.394,0,0,1,19.968,36a3.4,3.4,0,0,1-3.111-1.458,1,1,0,0,0-1.783.906A5.316,5.316,0,0,0,19.969,38a5.318,5.318,0,0,0,4.9-2.553.994.994,0,0,0-.438-1.328Z"/>
    </g>
  </g>
</svg>
