<svg xmlns="http://www.w3.org/2000/svg" xmlns:xlink="http://www.w3.org/1999/xlink" width="976.795" height="542.675" viewBox="0 0 976.795 542.675">
  <defs>
    <linearGradient id="linear-gradient" y1="0.5" x2="1" y2="0.5" gradientUnits="objectBoundingBox">
      <stop offset="0" stop-color="#ed938c"/>
      <stop offset="0.089" stop-color="#ed938c" stop-opacity="0.98"/>
      <stop offset="0.194" stop-color="#ee958e" stop-opacity="0.918"/>
      <stop offset="0.307" stop-color="#f09891" stop-opacity="0.82"/>
      <stop offset="0.426" stop-color="#f29d95" stop-opacity="0.678"/>
      <stop offset="0.549" stop-color="#f6a39a" stop-opacity="0.498"/>
      <stop offset="0.676" stop-color="#faaaa0" stop-opacity="0.278"/>
      <stop offset="0.804" stop-color="#feb2a8" stop-opacity="0.02"/>
      <stop offset="0.814" stop-color="#ffb3a9" stop-opacity="0"/>
    </linearGradient>
    <linearGradient id="linear-gradient-2" x1="-0.001" y1="-0.53" x2="0.987" y2="1.502" xlink:href="#linear-gradient"/>
    <linearGradient id="linear-gradient-3" x1="0.5" y1="-1.452" x2="0.5" y2="2.566" gradientUnits="objectBoundingBox">
      <stop offset="0" stop-color="#d4c99b"/>
      <stop offset="0.077" stop-color="#d8cea4" stop-opacity="0.886"/>
      <stop offset="0.345" stop-color="#e9e1c4" stop-opacity="0.51"/>
      <stop offset="0.565" stop-color="#f4f0db" stop-opacity="0.235"/>
      <stop offset="0.727" stop-color="#fcf8e9" stop-opacity="0.063"/>
      <stop offset="0.814" stop-color="#fffcef" stop-opacity="0"/>
    </linearGradient>
    <clipPath id="clip-path">
      <path id="Trazado_126532" data-name="Trazado 126532" d="M631.045,8510.447s58.638-211.751,66.231-223.575h50.413l.156.313a85.052,85.052,0,0,1,8.9,40.274l10.015,184.529H719.83l-4.738-166.938-18.086,165.4Z" fill="#f38bab"/>
    </clipPath>
    <linearGradient id="linear-gradient-4" x1="0.854" y1="0.055" x2="0.057" y2="1.058" gradientUnits="objectBoundingBox">
      <stop offset="0" stop-color="#d4c99b"/>
      <stop offset="0.748" stop-color="#d4c99b" stop-opacity="0"/>
    </linearGradient>
    <linearGradient id="linear-gradient-5" x1="0.988" y1="0.023" x2="0.243" y2="1.074" xlink:href="#linear-gradient-4"/>
    <linearGradient id="linear-gradient-6" x1="0.5" y1="-0.524" x2="0.5" y2="1.472" gradientUnits="objectBoundingBox">
      <stop offset="0.321" stop-color="#d57354" stop-opacity="0.8"/>
      <stop offset="0.84" stop-color="#ffb89f" stop-opacity="0"/>
    </linearGradient>
    <linearGradient id="linear-gradient-9" x1="0.002" y1="-1.677" x2="0.984" y2="2.618" xlink:href="#linear-gradient"/>
  </defs>
  <g id="Grupo_1055085" data-name="Grupo 1055085" transform="translate(-318 -1769.692)">
    <rect id="Rectángulo_5788" data-name="Rectángulo 5788" width="976.795" height="542.675" transform="translate(318 1769.692)" fill="#fffcef"/>
    <rect id="Rectángulo_5789" data-name="Rectángulo 5789" width="976.795" height="107.473" transform="translate(318 2204.895)" fill="#ffc4c0"/>
    <ellipse id="Elipse_4169" data-name="Elipse 4169" cx="225.897" cy="14.22" rx="225.897" ry="14.22" transform="translate(673.042 2264.589)" fill="url(#linear-gradient)"/>
    <g id="Grupo_56940" data-name="Grupo 56940" transform="translate(90.071 -6263.361)">
      <rect id="Rectángulo_5790" data-name="Rectángulo 5790" width="56.783" height="19.835" transform="translate(399.045 8069.614)" fill="#73d8c0"/>
      <rect id="Rectángulo_5791" data-name="Rectángulo 5791" width="56.783" height="19.835" transform="translate(339.429 8069.614)" fill="#73d8c0"/>
      <rect id="Rectángulo_5792" data-name="Rectángulo 5792" width="56.783" height="19.835" transform="translate(428.118 8092.732)" fill="#73d8c0"/>
      <rect id="Rectángulo_5793" data-name="Rectángulo 5793" width="56.783" height="19.835" transform="translate(943.041 8399.204)" fill="#73d8c0"/>
      <rect id="Rectángulo_5794" data-name="Rectángulo 5794" width="56.783" height="19.835" transform="translate(883.424 8399.204)" fill="#73d8c0"/>
      <rect id="Rectángulo_5795" data-name="Rectángulo 5795" width="56.783" height="19.835" transform="translate(972.114 8422.322)" fill="#73d8c0"/>
      <rect id="Rectángulo_5796" data-name="Rectángulo 5796" width="56.783" height="19.835" transform="translate(441.934 8369.909)" fill="#73d8c0"/>
      <rect id="Rectángulo_5797" data-name="Rectángulo 5797" width="56.783" height="19.835" transform="translate(382.317 8369.909)" fill="#73d8c0"/>
      <rect id="Rectángulo_5798" data-name="Rectángulo 5798" width="56.783" height="19.835" transform="translate(471.007 8393.027)" fill="#73d8c0"/>
      <rect id="Rectángulo_5799" data-name="Rectángulo 5799" width="56.783" height="19.835" transform="translate(399.045 8169.861)" fill="#73d8c0"/>
      <rect id="Rectángulo_5800" data-name="Rectángulo 5800" width="56.783" height="19.835" transform="translate(459.123 8169.861)" fill="#73d8c0"/>
      <rect id="Rectángulo_5801" data-name="Rectángulo 5801" width="56.783" height="19.835" transform="translate(429.38 8193.41)" fill="#73d8c0"/>
      <rect id="Rectángulo_5802" data-name="Rectángulo 5802" width="56.783" height="19.835" transform="translate(569.471 8169.861)" fill="#73d8c0"/>
      <rect id="Rectángulo_5803" data-name="Rectángulo 5803" width="56.783" height="19.835" transform="translate(629.549 8169.861)" fill="#73d8c0"/>
      <rect id="Rectángulo_5804" data-name="Rectángulo 5804" width="56.783" height="19.835" transform="translate(598.273 8147.076)" fill="#73d8c0"/>
      <rect id="Rectángulo_5805" data-name="Rectángulo 5805" width="56.783" height="19.835" transform="translate(658.35 8147.076)" fill="#73d8c0"/>
      <rect id="Rectángulo_5806" data-name="Rectángulo 5806" width="56.783" height="19.835" transform="translate(803.972 8145.572)" fill="#73d8c0"/>
      <rect id="Rectángulo_5807" data-name="Rectángulo 5807" width="56.783" height="19.835" transform="translate(744.355 8145.572)" fill="#73d8c0"/>
      <rect id="Rectángulo_5808" data-name="Rectángulo 5808" width="56.783" height="19.835" transform="translate(833.045 8168.691)" fill="#73d8c0"/>
      <rect id="Rectángulo_5809" data-name="Rectángulo 5809" width="56.783" height="19.835" transform="translate(803.972 8245.819)" fill="#73d8c0"/>
      <rect id="Rectángulo_5810" data-name="Rectángulo 5810" width="56.783" height="19.835" transform="translate(864.049 8245.819)" fill="#73d8c0"/>
      <rect id="Rectángulo_5811" data-name="Rectángulo 5811" width="56.783" height="19.835" transform="translate(834.307 8269.368)" fill="#73d8c0"/>
      <rect id="Rectángulo_5812" data-name="Rectángulo 5812" width="56.783" height="19.835" transform="translate(1071.547 8117.625) rotate(180)" fill="#73d8c0"/>
      <rect id="Rectángulo_5813" data-name="Rectángulo 5813" width="56.783" height="19.835" transform="translate(1011.47 8117.625) rotate(180)" fill="#73d8c0"/>
      <rect id="Rectángulo_5814" data-name="Rectángulo 5814" width="56.783" height="19.835" transform="translate(1041.213 8094.076) rotate(180)" fill="#73d8c0"/>
      <rect id="Rectángulo_5815" data-name="Rectángulo 5815" width="56.783" height="19.835" transform="translate(776.041 8396.133) rotate(180)" fill="#73d8c0"/>
      <rect id="Rectángulo_5816" data-name="Rectángulo 5816" width="56.783" height="19.835" transform="translate(715.964 8396.133) rotate(180)" fill="#73d8c0"/>
      <rect id="Rectángulo_5817" data-name="Rectángulo 5817" width="56.783" height="19.835" transform="translate(745.706 8372.584) rotate(180)" fill="#73d8c0"/>
      <rect id="Rectángulo_5818" data-name="Rectángulo 5818" width="56.783" height="19.835" transform="translate(582.162 8290.297) rotate(180)" fill="#73d8c0"/>
      <rect id="Rectángulo_5819" data-name="Rectángulo 5819" width="56.783" height="19.835" transform="translate(522.085 8290.297) rotate(180)" fill="#73d8c0"/>
      <rect id="Rectángulo_5820" data-name="Rectángulo 5820" width="56.783" height="19.835" transform="translate(551.827 8266.748) rotate(180)" fill="#73d8c0"/>
      <rect id="Rectángulo_5821" data-name="Rectángulo 5821" width="56.783" height="19.835" transform="translate(974.398 8245.819)" fill="#73d8c0"/>
      <rect id="Rectángulo_5822" data-name="Rectángulo 5822" width="56.783" height="19.835" transform="translate(1034.475 8245.819)" fill="#73d8c0"/>
      <rect id="Rectángulo_5823" data-name="Rectángulo 5823" width="56.783" height="19.835" transform="translate(1003.2 8223.034)" fill="#73d8c0"/>
      <rect id="Rectángulo_5824" data-name="Rectángulo 5824" width="56.783" height="19.835" transform="translate(1063.277 8223.034)" fill="#73d8c0"/>
    </g>
    <g id="Grupo_56952" data-name="Grupo 56952" transform="translate(90.071 -6263.361)">
      <ellipse id="Elipse_4170" data-name="Elipse 4170" cx="54.547" cy="13.807" rx="54.547" ry="13.807" transform="translate(292.288 8474.048)" fill="url(#linear-gradient-2)"/>
      <g id="Grupo_56951" data-name="Grupo 56951">
        <g id="Grupo_56949" data-name="Grupo 56949">
          <g id="Grupo_56948" data-name="Grupo 56948">
            <g id="Grupo_56947" data-name="Grupo 56947">
              <g id="Grupo_56942" data-name="Grupo 56942">
                <g id="Grupo_56941" data-name="Grupo 56941">
                  <path id="Trazado_126359" data-name="Trazado 126359" d="M362.943,8309.115a7.02,7.02,0,0,1,.072,2.264,47.357,47.357,0,0,0-4.548-2.273c-3.883.019-7.813.091-11.342.264a83.132,83.132,0,0,0-9.014.819c-2.355.4-4.775.837-7.14,1.445a27.78,27.78,0,0,0-9.168,3.911,30.293,30.293,0,0,1,5.2,4.793,54.073,54.073,0,0,1-8.768-1.382,1.2,1.2,0,0,0-.137.182c-5.284,7.158-2.465,18.382,4.885,23.412a20.868,20.868,0,0,0,13.152,3.348,25.552,25.552,0,0,0,12.015-3.947v-.009c.009,0,.009,0,.018-.011-1.71,4.63-2.765,9.679-1.673,14.49,1.073,4.757,4.666,9.187,9.45,10.1l.155.027c6.849,1.21,13.015-4.993,15.217-11.588a37.076,37.076,0,0,0,1.71-9.768c-.255-.392-.492-.8-.71-1.211a16.608,16.608,0,0,1-1.483-11.651q1.161,1.351,2.32,2.7c-.009-1.593.009-3.176.082-4.748.327-7.549,6.931-19.02,7.867-20.6v-.01c.073-.118.11-.172.11-.172S372.729,8309.16,362.943,8309.115Zm-26.514,23.594a45.024,45.024,0,0,1-9.423-1.156,7.056,7.056,0,0,1-2.856-1.246,2.459,2.459,0,0,1-.81-2.81c1.01-2.065,7.65-1.847,12.388-.582,2.274.609,4.112,1.464,4.676,2.428C341.923,8331.89,339.576,8332.663,336.429,8332.709Zm18.473-11.743a3.2,3.2,0,0,1-2.8,1.455,8.8,8.8,0,0,1-3.211-.754c-1.192-.455-2.511-1.083-2.856-2.311-.5-1.737,1.519-3.356,3.32-3.2s4.711,2.01,4.711,2.01A2,2,0,0,1,354.9,8320.966Zm10.323,32.99c-.145,1.291-.554,2.792-1.773,3.238a2.232,2.232,0,0,1-1.828-.183,4.712,4.712,0,0,1-1.647-1.546,9.363,9.363,0,0,1-1.582-5.2,3.333,3.333,0,0,1,4.711-3.129,2.363,2.363,0,0,1,.846.655,6.859,6.859,0,0,1,1.355,4.193A14.058,14.058,0,0,1,365.225,8353.956Z" fill="#41a0a3"/>
                  <path id="Trazado_126360" data-name="Trazado 126360" d="M373.03,8345.188a37.076,37.076,0,0,1-1.71,9.768c-2.2,6.595-8.368,12.8-15.217,11.588l-.155-.027a91.408,91.408,0,0,1,5.676-9.5,2.232,2.232,0,0,0,1.828.183c1.219-.446,1.628-1.947,1.773-3.238a14.058,14.058,0,0,0,.082-1.974,90.236,90.236,0,0,1,7.013-8C372.538,8344.387,372.775,8344.8,373.03,8345.188Z" fill="#11605e"/>
                  <path id="Trazado_126361" data-name="Trazado 126361" d="M324.273,8462.867l-.117-.617c9.811-1.858,9.768-52.332,9.754-68.918,0-1.647,0-2.993.005-3.971a92.556,92.556,0,0,1,13.969-47.58,93.494,93.494,0,0,1,33.071-32.383l.312.545a92.875,92.875,0,0,0-32.847,32.166,91.914,91.914,0,0,0-13.876,47.258c-.008.976-.007,2.319-.006,3.964C334.562,8422.343,333.525,8461.115,324.273,8462.867Z" fill="#11605e"/>
                </g>
                <path id="Trazado_126362" data-name="Trazado 126362" d="M336.631,8337.829a66.165,66.165,0,0,1-.489,8.065,20.812,20.812,0,0,1-13.155-3.349c-7.348-5.022-10.174-16.248-4.89-23.407.045-.065.089-.122.139-.183a53.76,53.76,0,0,0,8.772,1.385,30.128,30.128,0,0,0-5.2-4.795,27.814,27.814,0,0,1,9.167-3.916,57.84,57.84,0,0,1,4.75,15.286c-4.739-1.268-11.375-1.485-12.382.578a2.448,2.448,0,0,0,.807,2.809,7.054,7.054,0,0,0,2.859,1.246,44.359,44.359,0,0,0,9.423,1.157C336.564,8334.386,336.631,8336.1,336.631,8337.829Z" fill="#11605e"/>
              </g>
              <g id="Grupo_56943" data-name="Grupo 56943">
                <path id="Trazado_126363" data-name="Trazado 126363" d="M349.663,8405.365c.2-21.555,9.912-42.466,25.209-57.652,2.45-2.433,5.1-4.8,8.333-6.017s7.193-1.04,9.777,1.251c2.1,1.858,2.96,4.778,3.076,7.579.387,9.313-6.167,17.3-12.342,24.287l-6.3,1.276c2.381.142,3.785,3.059,3.235,5.379s-2.393,4.084-4.2,5.635C368.236,8394.144,358.925,8399.772,349.663,8405.365Z" fill="#41a0a3"/>
                <path id="Trazado_126364" data-name="Trazado 126364" d="M338.6,8447.39l-.617-.115a223.205,223.205,0,0,1,42.67-95.224l.5.384A222.569,222.569,0,0,0,338.6,8447.39Z" fill="#11605e"/>
              </g>
              <g id="Grupo_56944" data-name="Grupo 56944">
                <path id="Trazado_126365" data-name="Trazado 126365" d="M314.771,8415.83c-.165-17.9-8.231-35.267-20.935-47.879a20.414,20.414,0,0,0-6.921-5c-2.685-1.006-5.973-.863-8.119,1.039a8.8,8.8,0,0,0-2.555,6.294c-.321,7.735,5.122,14.371,10.25,20.17l5.228,1.061c-1.977.117-3.143,2.539-2.687,4.468s1.987,3.391,3.491,4.68C299.347,8406.512,307.079,8411.185,314.771,8415.83Z" fill="#41a0a3"/>
                <path id="Trazado_126366" data-name="Trazado 126366" d="M323.958,8450.731a184.842,184.842,0,0,0-35.336-78.859l.412-.318a185.346,185.346,0,0,1,35.437,79.082Z" fill="#11605e"/>
              </g>
              <g id="Grupo_56945" data-name="Grupo 56945">
                <path id="Trazado_126367" data-name="Trazado 126367" d="M332.008,8339.175a79.545,79.545,0,0,1-2.61,20.857c-.646,2.51-5.73,24.147-10.46,21.283a19.943,19.943,0,0,1-4.5-4.284c-1.556-1.847-3.029-3.829-4.4-5.239-1.464-1.51-2.983-3.1-4.538-4.766a17.568,17.568,0,0,0-1.883-11.843,17.976,17.976,0,0,0-14.18-8.6c-3.911-6.467-6.794-13.343-7.531-20.365a129.649,129.649,0,0,1,11.433-6.339,31.163,31.163,0,0,1-11.424-.537,31.075,31.075,0,0,1,3.538-11.36,22.4,22.4,0,0,1,21.238-11.987,18.148,18.148,0,0,1,7.2,2.037,8.234,8.234,0,0,0-.682,4.82,10.331,10.331,0,0,0,6.594,7.567,13.328,13.328,0,0,0,5.83.764,57.982,57.982,0,0,1,4.066,10.869A69.4,69.4,0,0,1,332.008,8339.175Z" fill="#41a0a3"/>
                <path id="Trazado_126368" data-name="Trazado 126368" d="M332.008,8339.175a79.545,79.545,0,0,1-2.61,20.857c-.646,2.51-5.73,24.147-10.46,21.283a19.943,19.943,0,0,1-4.5-4.284l.027-.791a58.831,58.831,0,0,1,1.173-9.414,52.85,52.85,0,0,1,4.557-13.179,43.835,43.835,0,0,1,8.259-11.406A31.693,31.693,0,0,1,332.008,8339.175Z" fill="#11605e"/>
                <path id="Trazado_126369" data-name="Trazado 126369" d="M306.057,8423.307l-.576-.252q.977-2.231,1.968-4.467c4.564-10.326,9.285-21,11.771-32.132a96.9,96.9,0,0,0,.782-36.835,116.462,116.462,0,0,0-8.5-27.816c-4.13-9.312-8.4-18.178-15.17-24.321l.422-.466c6.863,6.227,11.164,15.157,15.322,24.532a117.067,117.067,0,0,1,8.545,27.967,97.516,97.516,0,0,1-.787,37.076c-2.5,11.188-7.233,21.9-11.81,32.249Q307.035,8421.077,306.057,8423.307Z" fill="#11605e"/>
              </g>
              <g id="Grupo_56946" data-name="Grupo 56946">
                <path id="Trazado_126370" data-name="Trazado 126370" d="M354.393,8358.113c-.109.565-.232,1.125-.377,1.67-1.6,6.02-4.626,11.336-8,16.478q-1.308-.98-2.68-1.866c-1.082-.7-2.752-1.234-3.457-.159a2.607,2.607,0,0,0-.189,1.778q.545,3.987,1.1,7.988a96.639,96.639,0,0,0-5.759,9.42,43.091,43.091,0,0,0-3.493,8.627c-.588,2.135-.225,7.328-1.641,8.875a2.672,2.672,0,0,1-3.268.835c-2.658-1.147-5.069-5.948-5.716-7.894a70.551,70.551,0,0,1-3.493-25,55.363,55.363,0,0,1,1.09-8.729,49.11,49.11,0,0,1,4.226-12.208,40.584,40.584,0,0,1,7.647-10.573,22.331,22.331,0,0,1,9.318-5.89,12.267,12.267,0,0,1,10.632,1.612,9.59,9.59,0,0,1,.827.705C354.8,8347.227,355.381,8352.986,354.393,8358.113Z" fill="#41a0a3"/>
                <path id="Trazado_126371" data-name="Trazado 126371" d="M354.44,8357.262c-.044.28-.092.567-.146.848-.108.566-.238,1.129-.383,1.674-.27,1.025-.589,2.03-.94,3.018-.086.055-.178.1-.264.142a33.13,33.13,0,0,1-9.422,2.521q-12.367,2.042-24.745,4.076c.049-.221.1-.448.151-.669a48.525,48.525,0,0,1,3.947-10.939,40.592,40.592,0,0,1,7.646-10.577,22.359,22.359,0,0,1,9.319-5.885,12.261,12.261,0,0,1,10.625,1.609,9.572,9.572,0,0,1,.832.707C354.5,8347.035,355.206,8352.359,354.44,8357.262Z" fill="#11605e"/>
                <path id="Trazado_126372" data-name="Trazado 126372" d="M338.6,8439.294a71.278,71.278,0,0,1,11.038-96.5l.447.523a70.589,70.589,0,0,0-10.93,95.57Z" fill="#11605e"/>
                <path id="Trazado_126373" data-name="Trazado 126373" d="M336.42,8359.406c6.582-2.388,13.419-4.208,20.01-6.578,3.785-1.36,7.858-3.252,9.115-6.657,1.284-3.478-1.1-7.426-4.716-9.266s-8.1-1.9-12.187-1.132a35.938,35.938,0,0,0-20.615,12.374,42.621,42.621,0,0,0-5.584,8.708c-1.379,2.833-3.809,12.716-3.809,12.716a15.014,15.014,0,0,1,2.814-2.777,47.37,47.37,0,0,1,4.741-2.907A76.084,76.084,0,0,1,336.42,8359.406Z" fill="#6fc9c9"/>
                <path id="Trazado_126374" data-name="Trazado 126374" d="M319.125,8368.868l-.637-.267a45.339,45.339,0,0,1,46.354-27.613l-.068.686a44.649,44.649,0,0,0-45.649,27.194Z" fill="#11605e"/>
              </g>
            </g>
          </g>
        </g>
        <g id="Grupo_56950" data-name="Grupo 56950">
          <path id="Trazado_126375" data-name="Trazado 126375" d="M367.183,8406.51V8465.6a25.332,25.332,0,0,1-25.331,25.331H316.221a25.344,25.344,0,0,1-25.332-25.331V8406.51Z" fill="#025157"/>
          <path id="Trazado_126376" data-name="Trazado 126376" d="M349.62,8406.51v44.023a25.331,25.331,0,0,1-25.331,25.322H298.657a24.723,24.723,0,0,1-5.894-.7,25.07,25.07,0,0,1-1.874-9.552V8406.51Z" fill="#9b878f"/>
        </g>
      </g>
    </g>
    <g id="Grupo_56953" data-name="Grupo 56953" transform="translate(90.071 -6263.361)">
      <path id="Trazado_126377" data-name="Trazado 126377" d="M738.181,8303.72H357.528l-36.019-46.155H702.162Z" fill="url(#linear-gradient-3)"/>
      <rect id="Rectángulo_5825" data-name="Rectángulo 5825" width="385.564" height="204.555" transform="translate(317.398 8051.843)" fill="#fff"/>
      <path id="Trazado_126378" data-name="Trazado 126378" d="M703.77,8257.206H316.591v-206.17H703.77Zm-385.564-1.615H702.155v-202.94H318.206Z" fill="#2c2c2b"/>
    </g>
    <g id="Grupo_56994" data-name="Grupo 56994" transform="translate(90.071 -6263.361)">
      <path id="Trazado_126507" data-name="Trazado 126507" d="M747.134,8174.221c1.36,4.835.867,10.28,4.152,14.416,4,5.037,12.706,5.219,15.383,11.068,2.586,5.648-2.505,12.153-1.412,18.269.922,5.159,5.832,8.447,9.125,12.523a22.774,22.774,0,0,1,2.2,24.723,22.374,22.374,0,0,1-22.16,11.055c-11.2-1.613-21.62-11.853-32.248-7.961-6.873,2.516-10.506,10.091-16.687,14.012-6.81,4.319-16.291,3.379-22.643-1.59s-9.539-13.411-8.9-21.451,4.813-15.578,10.715-21.074c2.541-2.367,5.612-4.769,5.993-8.22.322-2.91-1.4-5.589-2.542-8.286a22.261,22.261,0,0,1,4.568-23.72c2.711-2.74,6.295-4.972,7.483-8.639,2.24-6.915,2.045-14.175,8.582-18.656,8.469-5.8,20.609-5.531,28.941.36a25.229,25.229,0,0,1,9.114,12.081C746.916,8173.489,747.03,8173.854,747.134,8174.221Z" fill="#2c2c2b"/>
      <path id="Trazado_126508" data-name="Trazado 126508" d="M716.149,8217.691h0v-18.613h16.489v2.124A16.49,16.49,0,0,1,716.149,8217.691Z" fill="#aa4a1a"/>
      <g id="Grupo_56955" data-name="Grupo 56955">
        <path id="Trazado_126509" data-name="Trazado 126509" d="M752.66,8298.975l-4.225-16.053,1.069-3.46,2.348-7.644h-55.22l2.348,7.644,1.048,3.46-7.294,16.938Z" fill="#be612b"/>
        <path id="Trazado_126510" data-name="Trazado 126510" d="M721.929,8285.868a.122.122,0,0,1-.121-.121v-4.072a.121.121,0,1,1,.242,0v4.072A.121.121,0,0,1,721.929,8285.868Z" fill="#342d3a"/>
      </g>
      <g id="Grupo_56958" data-name="Grupo 56958">
        <g id="Grupo_56957" data-name="Grupo 56957">
          <path id="Trazado_126511" data-name="Trazado 126511" d="M661.067,8525.217l11.941-.229,5.9-17.405-11.941.229Z" fill="#be612b"/>
          <g id="Grupo_56956" data-name="Grupo 56956">
            <path id="Trazado_126512" data-name="Trazado 126512" d="M681.357,8536.39l-51.527.987-.036-1.885a6.831,6.831,0,0,1,4.157-6.427l11-1.012,9.582-9.218,22.127-.424a4.374,4.374,0,0,1,4.442,4.306Z" fill="#2c2c2b"/>
            <rect id="Rectángulo_5826" data-name="Rectángulo 5826" width="19.524" height="4.703" transform="matrix(-1, 0.019, -0.019, -1, 681.446, 8541.092)" fill="#2c2c2b"/>
            <rect id="Rectángulo_5827" data-name="Rectángulo 5827" width="28.903" height="4.703" transform="matrix(-1, 0.019, -0.019, -1, 658.817, 8541.526)" fill="#2c2c2b"/>
          </g>
        </g>
      </g>
      <g id="Grupo_56960" data-name="Grupo 56960">
        <g id="Grupo_56959" data-name="Grupo 56959">
          <rect id="Rectángulo_5828" data-name="Rectángulo 5828" width="12.671" height="18.735" transform="translate(736.853 8511.324)" fill="#be612b"/>
          <path id="Trazado_126513" data-name="Trazado 126513" d="M741.815,8531.037h4c5.751,0,15.238,4.663,15.238,10.414v1.007H731.4v-1.007A10.414,10.414,0,0,1,741.815,8531.037Z" fill="#2c2c2b"/>
          <rect id="Rectángulo_5829" data-name="Rectángulo 5829" width="29.647" height="4.528" transform="translate(731.403 8542.458)" fill="#2c2c2b"/>
          <path id="Trazado_126514" data-name="Trazado 126514" d="M752.995,8536.119H735v-13.584h16.3Z" fill="#2c2c2b"/>
          <path id="Trazado_126515" data-name="Trazado 126515" d="M734.777,8533.8a23.673,23.673,0,0,1,11.431-1.992" fill="#2c2c2b"/>
        </g>
      </g>
      <g id="Grupo_56966" data-name="Grupo 56966">
        <path id="Trazado_126516" data-name="Trazado 126516" d="M631.045,8510.447s58.638-211.751,66.231-223.575h50.413l.156.313a85.052,85.052,0,0,1,8.9,40.274l10.015,184.529H719.83l-4.738-166.938-18.086,165.4Z" fill="#f38bab"/>
        <g id="Grupo_56965" data-name="Grupo 56965" clip-path="url(#clip-path)">
          <g id="Grupo_56963" data-name="Grupo 56963">
            <path id="Trazado_126517" data-name="Trazado 126517" d="M766.766,8511.993H719.83l-1.847-65.115-1.09-38.64-1.8-63.187-.313,2.826-5.864,53.679-4.633,42.354-7.278,66.538H631.045s3.967-14.343,9.972-35.763c3.927-13.97,8.711-30.947,13.829-48.925,1.11-3.905,2.231-7.862,3.371-11.84,2.8-9.811,5.663-19.784,8.509-29.6,3.18-11.013,6.339-21.844,9.357-32.049,3.16-10.688,6.168-20.691,8.883-29.523,5.955-19.392,10.538-33.108,12.314-35.874h50.409l.151.313a85.282,85.282,0,0,1,8.913,40.274l.465,8.53,4.158,76.743.838,15.423.707,12.931.494,9.094,2.574,47.492Z" fill="#73d8c0"/>
            <g id="Grupo_56961" data-name="Grupo 56961">
              <path id="Trazado_126518" data-name="Trazado 126518" d="M756.949,8336.367c-2.534-1.792-5.045-3.73-7.473-5.6-1.968-1.521-4.006-3.093-6.038-4.574a62.59,62.59,0,0,0-13.417-7.818,41.04,41.04,0,0,0-5.807-1.856c-12.156-2.962-26.015-.608-39.022,6.637l-.453-.812c13.212-7.36,27.309-9.747,39.693-6.729a42.005,42.005,0,0,1,5.938,1.9,65.145,65.145,0,0,1,13.615,7.928c2.044,1.49,4.085,3.066,6.06,4.591,2.42,1.867,4.922,3.8,7.441,5.581Z" fill="#025157"/>
              <path id="Trazado_126519" data-name="Trazado 126519" d="M761.046,8413.057a72.437,72.437,0,0,1-8.159-9.875c-12.271-17.918-16.929-41.5-12.782-64.713a100.839,100.839,0,0,1,3.163-12.8,113.4,113.4,0,0,1,10.187-22.855l.8.469a112.467,112.467,0,0,0-10.1,22.667,99.74,99.74,0,0,0-3.134,12.68c-4.1,22.97.5,46.3,12.634,64.024a71.425,71.425,0,0,0,8.053,9.748Z" fill="#025157"/>
              <path id="Trazado_126520" data-name="Trazado 126520" d="M692.657,8510.638a482.026,482.026,0,0,1-22.864-62.511c-2.89-9.982-6.716-19.545-15.075-21.918l.254-.895c8.794,2.5,12.749,12.315,15.713,22.555a481.311,481.311,0,0,0,22.822,62.39Z" fill="#025157"/>
              <path id="Trazado_126521" data-name="Trazado 126521" d="M660.1,8510.468l-.93-.039c.021-.484.031-.979.021-1.465-.158-13.023-4.976-24.229-13.218-30.743a24.43,24.43,0,0,0-5.15-3.109l.379-.85a25.427,25.427,0,0,1,5.346,3.229c8.465,6.69,13.412,18.157,13.573,31.459C660.135,8509.449,660.126,8509.964,660.1,8510.468Z" fill="#025157"/>
              <path id="Trazado_126522" data-name="Trazado 126522" d="M762,8428.619a56.642,56.642,0,0,1-22.813-4.755c-8.595-3.832-15.872-9.645-22.59-15.27q-1.431-1.2-2.86-2.405c-1.7-1.432-3.4-2.865-5.109-4.273q-1.664-1.377-3.354-2.71c-13.988-11.029-26.363-15.774-37.846-14.509-.211.021-.427.05-.632.079l-.131-.92c.219-.031.448-.062.667-.084,11.722-1.3,24.329,3.515,38.517,14.7q1.7,1.337,3.371,2.724c1.713,1.41,3.416,2.846,5.117,4.279q1.43,1.206,2.858,2.4c6.666,5.583,13.885,11.35,22.37,15.133A55.691,55.691,0,0,0,762,8427.688h.217l0,.93Z" fill="#025157"/>
              <path id="Trazado_126523" data-name="Trazado 126523" d="M758.748,8499.207a17.272,17.272,0,0,1-8.249-1.944c-6.4-3.414-10.037-11.549-8.852-19.787.969-6.669,4.7-13.223,11.076-19.483a60.816,60.816,0,0,1,10.446-8.208l.492.789a59.917,59.917,0,0,0-10.286,8.082c-6.233,6.114-9.868,12.492-10.808,18.955-1.13,7.855,2.312,15.6,8.369,18.832,4.03,2.149,9.052,2.413,14.929.779l.248.9A27.607,27.607,0,0,1,758.748,8499.207Z" fill="#025157"/>
              <path id="Trazado_126524" data-name="Trazado 126524" d="M676.213,8352.716l-.258-.895c1.424-.41,2.891-.768,4.311-1.113,1.124-.274,2.247-.547,3.357-.848a63.444,63.444,0,0,0,40.278-34,58.253,58.253,0,0,0,2.694-6.771,61.158,61.158,0,0,0,2.894-22.2l.93-.046a62.142,62.142,0,0,1-2.94,22.536,59.189,59.189,0,0,1-2.737,6.878,64.386,64.386,0,0,1-40.876,34.5c-1.117.3-2.248.578-3.38.854C679.076,8351.955,677.618,8352.31,676.213,8352.716Z" fill="#025157"/>
              <path id="Trazado_126525" data-name="Trazado 126525" d="M729.6,8448.126a87.318,87.318,0,0,1-11.683-.787,90.108,90.108,0,0,1-42.769-17.839c-4.034-3.127-7.879-6.672-11.6-10.1-1.84-1.7-3.745-3.452-5.644-5.132l.615-.7c1.907,1.686,3.815,3.443,5.66,5.145,3.7,3.415,7.534,6.945,11.537,10.048a89.169,89.169,0,0,0,42.324,17.652,85.385,85.385,0,0,0,12.558.773,87.892,87.892,0,0,0,32.142-6.537l.349.861a88.794,88.794,0,0,1-32.479,6.605C730.279,8448.124,729.941,8448.126,729.6,8448.126Z" fill="#025157"/>
            </g>
            <path id="Trazado_126526" data-name="Trazado 126526" d="M753.574,8511.993H719.83l-5.37-177.2Z" fill="url(#linear-gradient-4)"/>
            <path id="Trazado_126527" data-name="Trazado 126527" d="M714.783,8347.877l-17.775,162.571h-25.7c17.18-56.5,32.8-118.007,43.151-175.652C714.712,8338.874,714.8,8343.274,714.783,8347.877Z" fill="url(#linear-gradient-5)"/>
            <g id="Grupo_56962" data-name="Grupo 56962">
              <path id="Trazado_126528" data-name="Trazado 126528" d="M738.8,8294.161c-.359,3.666,1.968,7.215,5.083,9.184s6.887,2.6,10.566,2.8" fill="#d4c99b"/>
              <path id="Trazado_126529" data-name="Trazado 126529" d="M704.991,8294.161c.358,3.666-1.969,7.215-5.083,9.184s-6.888,2.6-10.566,2.8" fill="#d4c99b"/>
            </g>
          </g>
          <g id="Grupo_56964" data-name="Grupo 56964">
            <path id="Trazado_126530" data-name="Trazado 126530" d="M750.694,8317.489a23.88,23.88,0,0,1-17.576-15.021l.875-.316a22.932,22.932,0,0,0,16.879,14.425Z" fill="#e55187"/>
            <path id="Trazado_126531" data-name="Trazado 126531" d="M690.644,8314.638l-.148-.768a19.267,19.267,0,0,0,14.182-12.12l.735.267A20.07,20.07,0,0,1,690.644,8314.638Z" fill="#e55187"/>
          </g>
        </g>
      </g>
      <path id="Trazado_126533" data-name="Trazado 126533" d="M687.606,8242.421l9.027,29.4h55.22l9.027-29.4a16.472,16.472,0,0,0-16.481-17.194H704.077A16.457,16.457,0,0,0,687.606,8242.421Z" fill="#fff"/>
      <g id="Grupo_56967" data-name="Grupo 56967">
        <path id="Trazado_126534" data-name="Trazado 126534" d="M735.985,8333.371h26.729l-9.434-47.955,9.434-44.612a16.709,16.709,0,0,0-16.709-16.709h-10.02Z" fill="#86bec4"/>
        <path id="Trazado_126535" data-name="Trazado 126535" d="M697.463,8330.227l-19.654-3.145,18.868-41.666-9.434-44.612a16.709,16.709,0,0,1,16.709-16.709h10.021Z" fill="#86bec4"/>
      </g>
      <path id="Trazado_126536" data-name="Trazado 126536" d="M656.375,8298.9h0a12.021,12.021,0,0,1-3.292-16.678l35-52.218a12.02,12.02,0,0,1,16.677-3.292h0a12.02,12.02,0,0,1,3.292,16.678l-35,52.219A12.022,12.022,0,0,1,656.375,8298.9Z" fill="#86bec4"/>
      <path id="Trazado_126537" data-name="Trazado 126537" d="M744.024,8227h0a12.02,12.02,0,0,0-5.406,16.117l28.006,56.28a12.021,12.021,0,0,0,16.117,5.405h0a12.019,12.019,0,0,0,5.406-16.115l-28.006-56.281A12.021,12.021,0,0,0,744.024,8227Z" fill="#86bec4"/>
      <path id="Trazado_126538" data-name="Trazado 126538" d="M786.177,8302.045l13.137-18.971-14.687-13.417-15.717,18.118a11.2,11.2,0,0,0,17.267,14.27Z" fill="#86bec4"/>
      <g id="Grupo_56977" data-name="Grupo 56977">
        <g id="Grupo_56969" data-name="Grupo 56969">
          <path id="Trazado_126539" data-name="Trazado 126539" d="M800.275,8242.408c1.54-3.155,4.073-5.634,6.434-8.369a2.5,2.5,0,0,1,.418-.382,2.453,2.453,0,0,1,1.212-.958l8.087-2.941a2.465,2.465,0,0,1,3.16,1.475l.038.105a2.465,2.465,0,0,1-1.474,3.16l-7.552,2.747c-.024.03-.046.061-.071.091l-1.907,2.209a10.866,10.866,0,0,1,1.58.043,10.607,10.607,0,0,1,2.712.645l5.549-5.034a5.861,5.861,0,0,1,2.639-.829l9.185.621a2.5,2.5,0,0,1,2.328,2.667l-.013.185a2.5,2.5,0,0,1-2.666,2.329l-8.587-.582-4.1,3.725a10.237,10.237,0,0,1-7.285,16.824l-12.281,24.517-13.852-12.595,15.79-18.134c.451-.651-.668-2.762-.756-3.554a14.856,14.856,0,0,1,.286-4.72A14.113,14.113,0,0,1,800.275,8242.408Z" fill="#be612b"/>
          <g id="Grupo_56968" data-name="Grupo 56968">
            <path id="Trazado_126540" data-name="Trazado 126540" d="M809.388,8248.349l-.472-.165a10.839,10.839,0,0,0-.628-8.462l.443-.232A11.353,11.353,0,0,1,809.388,8248.349Z" fill="#93360d"/>
            <path id="Trazado_126541" data-name="Trazado 126541" d="M821.334,8239.76a3.021,3.021,0,0,1-1.6-3.456l.484.123a2.52,2.52,0,0,0,1.334,2.883Z" fill="#93360d"/>
            <path id="Trazado_126542" data-name="Trazado 126542" d="M803.759,8255.515a16.534,16.534,0,0,1-4.2-1.5l.231-.443a16.121,16.121,0,0,0,4.07,1.459Z" fill="#93360d"/>
          </g>
        </g>
        <path id="Trazado_126543" data-name="Trazado 126543" d="M876.716,8357.141c-16.254-36.031-21.275-76.015-25.369-117.234-.691-6.958-2.116-14.414-7.45-16.96-4.692-2.24-10.57.581-13.716,4.373-3.72,4.487-5.318,10.72-6.728,16.218-.092.4-10.453,46.53,3.448,73.986l-4.461,2.258c-14.723-29.079-4.3-75.466-3.846-77.426,1.556-6.067,3.3-12.878,7.738-18.228,4.46-5.377,12.663-9.062,19.719-5.694,7.575,3.616,9.443,12.634,10.271,20.979,4.052,40.79,9.009,80.331,24.952,115.673Z" fill="#eaab40"/>
        <g id="Grupo_56972" data-name="Grupo 56972">
          <g id="Grupo_56970" data-name="Grupo 56970">
            <path id="Trazado_126544" data-name="Trazado 126544" d="M814.8,8255.114a2.255,2.255,0,0,0-.253.477,2.408,2.408,0,0,0,3.062,3.145l7.8-2.837a2.407,2.407,0,0,0,1.444-3.07l-.005-.015a2.407,2.407,0,0,0-2.746-1.534,2.149,2.149,0,0,0-.34.095l-6.565,2.39-1.233.448A2.388,2.388,0,0,0,814.8,8255.114Z" fill="#be612b"/>
            <path id="Trazado_126545" data-name="Trazado 126545" d="M814.8,8255.114a2.255,2.255,0,0,0-.253.477,2.408,2.408,0,0,0,3.062,3.145l7.8-2.837a2.407,2.407,0,0,0,1.444-3.07c-.585.371-1.242.986-1.586,1.193a18.433,18.433,0,0,1-5.2,2.146,5.069,5.069,0,0,1-3.49-.11A7.731,7.731,0,0,0,814.8,8255.114Z" fill="#aa4a1a"/>
          </g>
          <g id="Grupo_56971" data-name="Grupo 56971">
            <path id="Trazado_126546" data-name="Trazado 126546" d="M816.782,8259.132a2.66,2.66,0,0,1-2.188-4.16,2.66,2.66,0,0,1,1.286-1l7.8-2.837a2.386,2.386,0,0,1,.38-.105,2.658,2.658,0,0,1,3.027,1.693,2.67,2.67,0,0,1-1.588,3.406l-7.8,2.837A2.665,2.665,0,0,1,816.782,8259.132Zm7.809-7.653a2.136,2.136,0,0,0-.437.046,1.9,1.9,0,0,0-.3.084l-7.8,2.839a2.135,2.135,0,0,0-1.043.809h0a2,2,0,0,0-.226.425,2.16,2.16,0,0,0-.022,1.529,2.163,2.163,0,0,0,2.764,1.289l7.8-2.838a2.163,2.163,0,0,0,1.294-2.75,2.161,2.161,0,0,0-2.028-1.434Z" fill="#93360d"/>
          </g>
        </g>
        <g id="Grupo_56976" data-name="Grupo 56976">
          <g id="Grupo_56975" data-name="Grupo 56975">
            <g id="Grupo_56973" data-name="Grupo 56973">
              <path id="Trazado_126547" data-name="Trazado 126547" d="M814.119,8245.319a2.3,2.3,0,0,0-.253.476,2.408,2.408,0,0,0,3.062,3.145l7.8-2.838a2.4,2.4,0,0,0,1.445-3.068l-.006-.017a2.406,2.406,0,0,0-2.745-1.532,2.193,2.193,0,0,0-.34.094l-6.566,2.391-1.233.447A2.4,2.4,0,0,0,814.119,8245.319Z" fill="#be612b"/>
              <path id="Trazado_126548" data-name="Trazado 126548" d="M814.119,8245.319a2.3,2.3,0,0,0-.253.476,2.408,2.408,0,0,0,3.062,3.145l7.8-2.838a2.4,2.4,0,0,0,1.445-3.068c-.585.37-1.243.985-1.586,1.191a18.39,18.39,0,0,1-5.2,2.146,5.069,5.069,0,0,1-3.49-.11A7.753,7.753,0,0,0,814.119,8245.319Z" fill="#aa4a1a"/>
              <path id="Trazado_126549" data-name="Trazado 126549" d="M816.1,8249.337a2.656,2.656,0,0,1-2.468-3.633,2.521,2.521,0,0,1,.28-.526,2.643,2.643,0,0,1,1.284-1l7.8-2.838a2.521,2.521,0,0,1,.38-.1,2.658,2.658,0,0,1,3.027,1.693,2.671,2.671,0,0,1-1.589,3.406l-7.8,2.837A2.661,2.661,0,0,1,816.1,8249.337Zm7.807-7.653a2.205,2.205,0,0,0-.437.045,2.094,2.094,0,0,0-.3.085l-7.8,2.838a2.147,2.147,0,0,0-1.043.809v0a2.021,2.021,0,0,0-.226.425,2.153,2.153,0,0,0,.826,2.6,2.139,2.139,0,0,0,1.917.223l7.8-2.838a2.162,2.162,0,0,0,1.294-2.75,2.161,2.161,0,0,0-2.028-1.434Z" fill="#93360d"/>
            </g>
            <g id="Grupo_56974" data-name="Grupo 56974">
              <path id="Trazado_126550" data-name="Trazado 126550" d="M815.328,8249.932a2.332,2.332,0,0,0-.254.477,2.407,2.407,0,0,0,3.062,3.144l7.8-2.837a2.4,2.4,0,0,0,1.444-3.068l-.006-.017a2.406,2.406,0,0,0-2.745-1.533,2.121,2.121,0,0,0-.34.095l-6.565,2.39-1.233.448A2.389,2.389,0,0,0,815.328,8249.932Z" fill="#be612b"/>
              <path id="Trazado_126551" data-name="Trazado 126551" d="M815.328,8249.932a2.332,2.332,0,0,0-.254.477,2.407,2.407,0,0,0,3.062,3.144l7.8-2.837a2.4,2.4,0,0,0,1.444-3.068c-.585.369-1.242.985-1.586,1.191a18.419,18.419,0,0,1-5.2,2.146,5.075,5.075,0,0,1-3.49-.11A7.751,7.751,0,0,0,815.328,8249.932Z" fill="#aa4a1a"/>
              <path id="Trazado_126552" data-name="Trazado 126552" d="M817.309,8253.949a2.658,2.658,0,0,1-2.467-3.633,2.6,2.6,0,0,1,.28-.526,2.637,2.637,0,0,1,1.285-1l7.8-2.838a2.688,2.688,0,0,1,.38-.106,2.657,2.657,0,0,1,1.438,5.1l-7.8,2.837A2.68,2.68,0,0,1,817.309,8253.949Zm7.807-7.652a2.059,2.059,0,0,0-.436.045,1.86,1.86,0,0,0-.3.084l-7.8,2.839a2.138,2.138,0,0,0-1.044.808h0a2.038,2.038,0,0,0-.227.426,2.155,2.155,0,0,0-.02,1.529,2.159,2.159,0,0,0,2.763,1.289l7.8-2.837a2.162,2.162,0,0,0,1.294-2.752,2.159,2.159,0,0,0-2.029-1.432Z" fill="#93360d"/>
            </g>
          </g>
        </g>
      </g>
      <rect id="Rectángulo_5830" data-name="Rectángulo 5830" width="23.888" height="9.53" transform="matrix(-0.755, -0.656, 0.656, -0.755, 797.378, 8289.1)" fill="#c0dee1"/>
      <g id="Grupo_56989" data-name="Grupo 56989">
        <rect id="Rectángulo_5831" data-name="Rectángulo 5831" width="16.797" height="26.148" transform="translate(716.149 8199.078)" fill="#be612b"/>
        <g id="Grupo_56979" data-name="Grupo 56979">
          <circle id="Elipse_4171" data-name="Elipse 4171" cx="6.641" cy="6.641" r="6.641" transform="translate(694.643 8185.624)" fill="#be612b"/>
          <g id="Grupo_56978" data-name="Grupo 56978">
            <path id="Trazado_126553" data-name="Trazado 126553" d="M703.13,8194.489a5.169,5.169,0,0,0-4.2-2.453l.014-.5a5.681,5.681,0,0,1,4.613,2.7Z" fill="#93360d"/>
            <path id="Trazado_126554" data-name="Trazado 126554" d="M698.752,8195.448a5.087,5.087,0,0,1,3.663-6.834l.105.488a4.589,4.589,0,0,0-3.3,6.163Z" fill="#93360d"/>
          </g>
        </g>
        <path id="Trazado_126555" data-name="Trazado 126555" d="M708.589,8206.285h-9.923a.266.266,0,0,1-.231-.4l4.961-8.624a.277.277,0,0,1,.461,0l4.962,8.624a.266.266,0,0,1-.23.4Zm-9.463-.531h9l-4.5-7.825Z" fill="#eaab40"/>
        <path id="Trazado_126556" data-name="Trazado 126556" d="M743.888,8181.854a23.633,23.633,0,0,1-.559,5.156l-.123,1.151-.942,8.692c-.538,6.518-14.058,14.745-14.058,14.745a9.563,9.563,0,0,1-3.055,1.546,14.117,14.117,0,0,1-3.364.7,8.533,8.533,0,0,1-5.773-1.843c-.411-.324-.843-.62-1.274-.916-2.714-1.859-10.654-7.714-11.39-12.879l-1.324-12.985a21.828,21.828,0,0,1-.255-2.508c-.012-.284-.017-.568-.017-.855a21.067,21.067,0,1,1,42.134,0Z" fill="#be612b"/>
        <g id="Grupo_56982" data-name="Grupo 56982">
          <path id="Trazado_126557" data-name="Trazado 126557" d="M724.357,8189.274s2.694-5.22,6.25-5.359,6.878,4.513,6.878,4.513-3.014,3.236-6.57,3.375S724.357,8189.274,724.357,8189.274Z" fill="#aa4a1a"/>
          <g id="Grupo_56981" data-name="Grupo 56981">
            <path id="Trazado_126558" data-name="Trazado 126558" d="M724.357,8189.274a10.621,10.621,0,0,0,6.551,2.476c3.542-.134,6.316-3,6.316-3a10.632,10.632,0,0,0-6.551-2.477c-.045.013-.074,0-.118.01a9.677,9.677,0,0,0-4.958,1.925s.029.016.006.022A10.907,10.907,0,0,0,724.357,8189.274Z" fill="#fcfcfc"/>
            <path id="Trazado_126559" data-name="Trazado 126559" d="M724.334,8187.415l-.41-.287a7.583,7.583,0,0,1,2.5-2.264l.244.438A7.036,7.036,0,0,0,724.334,8187.415Z" fill="#93360d"/>
            <g id="Grupo_56980" data-name="Grupo 56980">
              <path id="Trazado_126560" data-name="Trazado 126560" d="M728.036,8187.86a2.777,2.777,0,1,0,5.542.361,2.63,2.63,0,0,0-.141-1.057,9.663,9.663,0,0,0-5.317.119s.021.025,0,.024A4.548,4.548,0,0,0,728.036,8187.86Z" fill="#839ddd"/>
              <path id="Trazado_126561" data-name="Trazado 126561" d="M729.3,8187.286a1.534,1.534,0,1,1,.919,1.965A1.535,1.535,0,0,1,729.3,8187.286Z" fill="#2c2c2b"/>
            </g>
            <path id="Trazado_126562" data-name="Trazado 126562" d="M724.353,8189.266a8.554,8.554,0,0,1,2.669-2.534,7.485,7.485,0,0,1,7.4-.423,9.761,9.761,0,0,1,3.051,2.171l-.408-.057c.671-.2,1.34-.407,2.039-.548-.553.451-1.137.836-1.717,1.228l-.152.1-.258-.16a16.33,16.33,0,0,0-3.071-1.455,8.6,8.6,0,0,0-6.4.115A19.9,19.9,0,0,0,724.353,8189.266Z" fill="#071321"/>
          </g>
        </g>
        <g id="Grupo_56985" data-name="Grupo 56985">
          <path id="Trazado_126563" data-name="Trazado 126563" d="M715.568,8189.274s-2.445-5.059-5.668-5.2-6.2,4.682-6.2,4.682,2.7,2.905,5.925,3.046S715.568,8189.274,715.568,8189.274Z" fill="#aa4a1a"/>
          <g id="Grupo_56984" data-name="Grupo 56984">
            <path id="Trazado_126564" data-name="Trazado 126564" d="M715.568,8189.274s-2.707,2.617-5.938,2.476c-3.212-.134-5.726-3-5.726-3s2.707-2.617,5.939-2.477c.04.013.066,0,.107.01a8.329,8.329,0,0,1,4.494,1.925s-.026.016-.006.022A10.162,10.162,0,0,1,715.568,8189.274Z" fill="#fcfcfc"/>
            <path id="Trazado_126565" data-name="Trazado 126565" d="M715.564,8187.4a6.65,6.65,0,0,0-2.112-2.109l.262-.426a7.147,7.147,0,0,1,2.272,2.268Z" fill="#93360d"/>
            <g id="Grupo_56983" data-name="Grupo 56983">
              <path id="Trazado_126566" data-name="Trazado 126566" d="M706.746,8187.823a2.777,2.777,0,1,0,5.536.441,2.655,2.655,0,0,0-.125-1.059,9.673,9.673,0,0,0-5.319.042s.022.025,0,.023A4.37,4.37,0,0,0,706.746,8187.823Z" fill="#839ddd"/>
              <circle id="Elipse_4172" data-name="Elipse 4172" cx="1.534" cy="1.534" r="1.534" transform="translate(707.916 8186.277)" fill="#2c2c2b"/>
            </g>
            <path id="Trazado_126567" data-name="Trazado 126567" d="M715.572,8189.266a19.148,19.148,0,0,0-2.856-1.547,10.739,10.739,0,0,0-1.45-.49,7.59,7.59,0,0,0-1.45-.2,7.93,7.93,0,0,0-2.884.56,14.826,14.826,0,0,0-2.771,1.442l-.3.2-.169-.154c-.479-.437-.962-.868-1.406-1.36.63.2,1.221.469,1.816.728l-.466.045a8.72,8.72,0,0,1,2.728-2.162,6.379,6.379,0,0,1,6.876.438A7.738,7.738,0,0,1,715.572,8189.266Z" fill="#071321"/>
          </g>
        </g>
        <path id="Trazado_126568" data-name="Trazado 126568" d="M743.888,8181.854a23.633,23.633,0,0,1-.559,5.156l-.123,1.151a39.222,39.222,0,0,1-14.577-19.823c-5.567,4.437-15.3-.942-20.592,3.82-2.146,1.928-2.853,4.946-4.165,7.512a14.694,14.694,0,0,1-2.1,3.039c-.012-.284-.017-.568-.017-.855a21.067,21.067,0,1,1,42.134,0Z" fill="#2c2c2b"/>
        <g id="Grupo_56987" data-name="Grupo 56987">
          <path id="Trazado_126569" data-name="Trazado 126569" d="M751.344,8192.266a6.641,6.641,0,1,0-6.641,6.642A6.642,6.642,0,0,0,751.344,8192.266Z" fill="#be612b"/>
          <g id="Grupo_56986" data-name="Grupo 56986">
            <path id="Trazado_126570" data-name="Trazado 126570" d="M742.858,8194.489l-.43-.258a5.684,5.684,0,0,1,4.614-2.7l.013.5A5.168,5.168,0,0,0,742.858,8194.489Z" fill="#93360d"/>
            <path id="Trazado_126571" data-name="Trazado 126571" d="M747.236,8195.448l-.465-.184a4.589,4.589,0,0,0-3.3-6.163l.106-.488a5.087,5.087,0,0,1,3.663,6.834Z" fill="#93360d"/>
          </g>
        </g>
        <path id="Trazado_126572" data-name="Trazado 126572" d="M747.7,8206.285h-9.924a.266.266,0,0,1-.23-.4l4.961-8.624a.277.277,0,0,1,.461,0l4.962,8.624a.266.266,0,0,1-.23.4Zm-9.464-.531h9l-4.5-7.825Z" fill="#eaab40"/>
        <path id="Trazado_126573" data-name="Trazado 126573" d="M723.421,8197.045h-.5a3.228,3.228,0,0,0-6.447,0h-.5a3.728,3.728,0,0,1,7.447,0Z" fill="#93360d"/>
        <g id="Grupo_56988" data-name="Grupo 56988">
          <path id="Trazado_126574" data-name="Trazado 126574" d="M714.453,8201.82a4.969,4.969,0,0,0,.13,1.16,5.232,5.232,0,0,0,3.167,3.688,1.174,1.174,0,0,0,.2.065,4.7,4.7,0,0,0,1.759.324,5.2,5.2,0,0,0,3.753-1.6,3.068,3.068,0,0,0,.287-.312,5.056,5.056,0,0,0,1.069-2.162,4.814,4.814,0,0,0,.13-1.16v-.039l-5.239.039Z" fill="#091227"/>
          <path id="Trazado_126575" data-name="Trazado 126575" d="M717.945,8206.733a4.7,4.7,0,0,0,1.759.324,5.2,5.2,0,0,0,3.753-1.6,3.485,3.485,0,0,0-2.241-.794A3.636,3.636,0,0,0,717.945,8206.733Z" fill="#ef7265"/>
          <path id="Trazado_126576" data-name="Trazado 126576" d="M714.453,8201.82a4.969,4.969,0,0,0,.13,1.16h10.23a4.814,4.814,0,0,0,.13-1.16v-.039l-5.239.039Z" fill="#fcfcfc"/>
        </g>
      </g>
      <g id="Grupo_56990" data-name="Grupo 56990">
        <path id="Trazado_126577" data-name="Trazado 126577" d="M655.54,8303.219l22.954,8.044,9.527-18.678-22.808-10.905a11.806,11.806,0,0,0-9.673,21.539Z" fill="#86bec4"/>
        <path id="Trazado_126578" data-name="Trazado 126578" d="M678.494,8311.264l36.027,9.752,9.754-12.614-36.254-15.816Z" fill="#be612b"/>
        <rect id="Rectángulo_5832" data-name="Rectángulo 5832" width="30.83" height="9.53" transform="translate(670.969 8315.234) rotate(-66.657)" fill="#c0dee1"/>
      </g>
      <path id="Trazado_126579" data-name="Trazado 126579" d="M714.62,8181.618a24.393,24.393,0,0,1-2.692.278c-.795.044-1.532.071-2.27.084s-1.476.009-2.271-.01a26.2,26.2,0,0,1-2.7-.189,4.673,4.673,0,0,1,2.086-2.111,6.348,6.348,0,0,1,5.69-.085A4.784,4.784,0,0,1,714.62,8181.618Z" fill="#2c2c2b"/>
      <path id="Trazado_126580" data-name="Trazado 126580" d="M725.658,8181.618a4.784,4.784,0,0,1,2.156-2.033,6.348,6.348,0,0,1,5.69.085,4.673,4.673,0,0,1,2.086,2.111,26.2,26.2,0,0,1-2.7.189c-.8.019-1.534.024-2.272.01s-1.475-.04-2.27-.084A24.392,24.392,0,0,1,725.658,8181.618Z" fill="#2c2c2b"/>
      <g id="Grupo_56991" data-name="Grupo 56991">
        <path id="Trazado_126581" data-name="Trazado 126581" d="M709.324,8197.208a8.195,8.195,0,1,1,8.194-8.194A8.2,8.2,0,0,1,709.324,8197.208Zm0-15.781a7.586,7.586,0,1,0,7.587,7.587A7.6,7.6,0,0,0,709.324,8181.427Z" fill="#fefefe"/>
        <path id="Trazado_126582" data-name="Trazado 126582" d="M730.456,8197.208a8.195,8.195,0,1,1,8.194-8.194A8.2,8.2,0,0,1,730.456,8197.208Zm0-15.781a7.586,7.586,0,1,0,7.587,7.587A7.6,7.6,0,0,0,730.456,8181.427Z" fill="#fefefe"/>
        <rect id="Rectángulo_5833" data-name="Rectángulo 5833" width="5.96" height="0.607" transform="translate(717.23 8186.116)" fill="#fefefe"/>
        <rect id="Rectángulo_5834" data-name="Rectángulo 5834" width="6.14" height="0.607" transform="matrix(0.82, -0.572, 0.572, 0.82, 738.682, 8187.36)" fill="#fefefe"/>
      </g>
      <g id="Grupo_56993" data-name="Grupo 56993">
        <g id="Grupo_56992" data-name="Grupo 56992">
          <path id="Trazado_126583" data-name="Trazado 126583" d="M742.845,8324.745l5.2-3.512-4.79-4.041,1.336-2.687,5.6,4.708,2.729.916-.206,3.749-2.672-.021-6.138,4.692Z" fill="#bababa"/>
          <path id="Trazado_126584" data-name="Trazado 126584" d="M734.714,8321.618c-4.947.316-8.764,3.6-8.524,7.34s4.444,6.509,9.392,6.191,8.764-3.6,8.524-7.341S739.662,8321.3,734.714,8321.618Zm.154,2.392c3.2-.205,5.917,1.587,6.071,4s-2.312,4.54-5.51,4.746-5.917-1.587-6.072-4S731.669,8324.215,734.868,8324.01Z" fill="#d83939"/>
          <path id="Trazado_126585" data-name="Trazado 126585" d="M737.938,8306.553c-4.749-1.424-9.471.328-10.546,3.915s1.9,7.648,6.651,9.073,9.47-.329,10.546-3.916S742.687,8307.977,737.938,8306.553Zm-.689,2.295c3.07.921,4.995,3.547,4.3,5.866s-3.748,3.451-6.818,2.531-4.995-3.547-4.3-5.865S734.179,8307.928,737.249,8308.848Z" fill="#d83939"/>
          <path id="Trazado_126586" data-name="Trazado 126586" d="M752.921,8320.13l25.65-11.535.806.905-26.661,14.379Z" fill="#555a5e"/>
          <path id="Trazado_126587" data-name="Trazado 126587" d="M752.714,8323.886l24.233,14.274.9-.811-24.927-17.212Z" fill="#555a5e"/>
          <path id="Trazado_126588" data-name="Trazado 126588" d="M750.6,8322.9a1.13,1.13,0,1,0-1.067-1.19A1.131,1.131,0,0,0,750.6,8322.9Z" fill="#858789"/>
        </g>
        <path id="Trazado_126589" data-name="Trazado 126589" d="M718.372,8309.04s15.126-2.156,16.6-.51,1.493,1.9.966,3.275a13.23,13.23,0,0,0-.576,1.658s5.171,8.726,3.952,13.969c-.8,3.441-4.285.688-4.285.688s.133,2.656-2.25,2.78a3.527,3.527,0,0,1-3.24-1.215s-1.418,2.391-3.219,1.7a5,5,0,0,1-2.438-1.724s.01,2.781-1.843,1.776-9.244-12.865-9.244-12.865Z" fill="#be612b"/>
      </g>
    </g>
    <g id="Grupo_56998" data-name="Grupo 56998" transform="translate(90.071 -6263.361)">
      <g id="Grupo_56995" data-name="Grupo 56995">
        <path id="Trazado_126590" data-name="Trazado 126590" d="M639.07,8082.751h-.807v-1.212h-1.212v-.807h2.019Z" fill="#474646"/>
        <path id="Trazado_126591" data-name="Trazado 126591" d="M639.07,8238.24h-.807V8235h.807Zm0-6.479h-.807v-3.239h.807Zm0-6.479h-.807v-3.239h.807Zm0-6.479h-.807v-3.239h.807Zm0-6.479h-.807v-3.239h.807Zm0-6.479h-.807v-3.239h.807Zm0-6.479h-.807v-3.239h.807Zm0-6.479h-.807v-3.24h.807Zm0-6.479h-.807v-3.239h.807Zm0-6.478h-.807v-3.24h.807Zm0-6.48h-.807v-3.239h.807Zm0-6.478h-.807v-3.24h.807Zm0-6.479h-.807v-3.239h.807Zm0-6.479h-.807v-3.239h.807Zm0-6.479h-.807V8144.3h.807Zm0-6.479h-.807v-3.239h.807Zm0-6.478h-.807v-3.239h.807Zm0-6.479h-.807v-3.239h.807Zm0-6.479h-.807v-3.239h.807Zm0-6.479h-.807V8111.9h.807Zm0-6.478h-.807v-3.239h.807Zm0-6.479h-.807v-3.239h.807Zm0-6.479h-.807v-3.239h.807Zm0-6.479h-.807v-3.239h.807Z" fill="#474646"/>
        <path id="Trazado_126592" data-name="Trazado 126592" d="M639.07,8243.5h-2.019v-.807h1.212v-1.211h.807Z" fill="#474646"/>
        <path id="Trazado_126593" data-name="Trazado 126593" d="M633.594,8243.5h-3.457v-.807h3.457Zm-6.914,0h-3.457v-.807h3.457Zm-6.914,0h-3.457v-.807h3.457Zm-6.914,0H609.4v-.807h3.457Zm-6.913,0h-3.457v-.807h3.457Z" fill="#474646"/>
        <path id="Trazado_126594" data-name="Trazado 126594" d="M599.024,8243.5h-1.978l-.038-.361c-.012-.113-.025-.405-.01-1.659l.806.011c-.005.59-.006.965,0,1.2h1.224Z" fill="#474646"/>
        <path id="Trazado_126595" data-name="Trazado 126595" d="M597.859,8238.246l-.807-.019.073-3.254.806.02Zm.151-6.506-.806-.02.082-3.252.806.02Zm.169-6.5-.806-.021.087-3.252.806.021Zm.175-6.5-.806-.021.087-3.253.807.021Zm.175-6.509-.807-.021c.026-1.021.042-1.68.041-1.856q0-.7.021-1.4l.807.023q-.021.684-.021,1.376C598.571,8210.523,598.556,8211.193,598.529,8212.226Zm.277-6.464-.8-.084c.112-1.087.269-2.179.464-3.246l.795.147C599.071,8203.624,598.918,8204.7,598.806,8205.762Zm1.166-6.317-.779-.211c.288-1.065.621-2.119.989-3.133l.76.278C600.581,8197.369,600.255,8198.4,599.972,8199.444Zm2.2-6.035-.733-.342c.464-.993.976-1.972,1.52-2.912l.7.406C603.122,8191.479,602.622,8192.437,602.169,8193.409Zm3.221-5.549-.658-.467c.627-.885,1.3-1.757,2.015-2.59l.615.523C606.668,8186.141,606,8186.994,605.39,8187.86Zm4.161-4.878-.566-.576c.772-.757,1.592-1.495,2.439-2.193l.513.623C611.108,8181.519,610.3,8182.241,609.551,8182.982Z" fill="#474646"/>
        <path id="Trazado_126596" data-name="Trazado 126596" d="M614.473,8178.915l-.461-.664q.535-.371,1.083-.727l-.433-1.221.762-.27.615,1.734-.234.262C615.352,8178.316,614.91,8178.611,614.473,8178.915Z" fill="#474646"/>
        <path id="Trazado_126597" data-name="Trazado 126597" d="M613.575,8173.241l-1.087-3.062.762-.27,1.087,3.063Zm-2.174-6.124-1.088-3.061.762-.27,1.088,3.062Zm-2.175-6.124-1.088-3.061.762-.27,1.088,3.062Zm-2.179-6.115-1.125-3.049.757-.279,1.125,3.047Zm-2.246-6.1-1.121-3.05.758-.279,1.121,3.05Zm-2.247-6.1-.492-1.33.012-.048-.634-1.661.754-.289.726,1.9-.014.053.406,1.094Zm-2.273-6.074-1.16-3.035.754-.289,1.16,3.035Zm-2.32-6.07L596.8,8127.5l.754-.289,1.161,3.034Zm-2.321-6.069-1.161-3.036.754-.289,1.161,3.036Zm-2.321-6.081a13.8,13.8,0,0,1-.729-3.26l.8-.078a12.956,12.956,0,0,0,.687,3.068Zm.158-6.478-.8-.121a13.753,13.753,0,0,1,.9-3.216l.746.311A12.926,12.926,0,0,0,593.477,8111.91Zm2.4-5.76-.649-.48a13.863,13.863,0,0,1,2.295-2.424l.516.621A13.1,13.1,0,0,0,595.878,8106.15Zm4.809-3.97-.347-.729a13.583,13.583,0,0,1,3.169-1.051l.159.793A12.689,12.689,0,0,0,600.687,8102.18Zm14.308-1.237h-1.676v-.806h1.676a11.247,11.247,0,0,0,1.514-.1l.11.8A11.988,11.988,0,0,1,614.995,8100.943Zm-4.926,0H606.82v-.806h3.249Zm9.773-1.03-.33-.736a11.093,11.093,0,0,0,2.644-1.666l.523.615A11.855,11.855,0,0,1,619.842,8099.913Zm5.066-4.289-.672-.447a11.056,11.056,0,0,0,1.346-2.82l.771.242A11.859,11.859,0,0,1,624.908,8095.624Zm1.978-6.342h-.806v-3.249h.806Z" fill="#474646"/>
        <path id="Trazado_126598" data-name="Trazado 126598" d="M626.886,8082.751h-.807v-2.019H628.1v.807h-1.212Z" fill="#474646"/>
        <rect id="Rectángulo_5835" data-name="Rectángulo 5835" width="2.984" height="0.807" transform="translate(631.083 8080.732)" fill="#474646"/>
      </g>
      <g id="Grupo_56997" data-name="Grupo 56997">
        <path id="Trazado_126599" data-name="Trazado 126599" d="M583.779,8155.016a58.917,58.917,0,0,1-5.876-79.654l.633.5a58.111,58.111,0,0,0,5.8,78.565Z" fill="#474646"/>
        <g id="Grupo_56996" data-name="Grupo 56996">
          <path id="Trazado_126600" data-name="Trazado 126600" d="M579.485,8077.368l.59-3.982-3.745,1.479Z" fill="#474646"/>
        </g>
      </g>
    </g>
    <g id="Grupo_57008" data-name="Grupo 57008" transform="translate(90.071 -6263.361)">
      <g id="Grupo_57001" data-name="Grupo 57001">
        <g id="Grupo_56999" data-name="Grupo 56999">
          <path id="Trazado_126601" data-name="Trazado 126601" d="M683.9,8105.764H665.55l-1.739-2.918,18.511-18.511Z" fill="url(#linear-gradient-6)"/>
          <rect id="Rectángulo_5836" data-name="Rectángulo 5836" width="18.511" height="18.511" transform="translate(663.811 8084.334)" fill="#f38bab"/>
        </g>
        <g id="Grupo_57000" data-name="Grupo 57000">
          <rect id="Rectángulo_5837" data-name="Rectángulo 5837" width="12.599" height="0.404" transform="translate(666.767 8097.896)" fill="#fff"/>
          <rect id="Rectángulo_5838" data-name="Rectángulo 5838" width="12.599" height="0.404" transform="translate(666.767 8094.847)" fill="#fff"/>
          <rect id="Rectángulo_5839" data-name="Rectángulo 5839" width="5.733" height="0.404" transform="translate(666.767 8090.586)" fill="#fff"/>
        </g>
      </g>
      <g id="Grupo_57004" data-name="Grupo 57004">
        <g id="Grupo_57002" data-name="Grupo 57002">
          <path id="Trazado_126602" data-name="Trazado 126602" d="M683.9,8191.794H665.55l-1.739-2.918,18.511-18.511Z" fill="url(#linear-gradient-6)"/>
          <rect id="Rectángulo_5840" data-name="Rectángulo 5840" width="18.511" height="18.511" transform="translate(663.811 8170.365)" fill="#f38bab"/>
        </g>
        <g id="Grupo_57003" data-name="Grupo 57003">
          <rect id="Rectángulo_5841" data-name="Rectángulo 5841" width="12.599" height="0.404" transform="translate(667.556 8184.533)" fill="#fff"/>
          <rect id="Rectángulo_5842" data-name="Rectángulo 5842" width="12.599" height="0.404" transform="translate(667.556 8181.484)" fill="#fff"/>
          <rect id="Rectángulo_5843" data-name="Rectángulo 5843" width="5.733" height="0.404" transform="translate(667.556 8177.223)" fill="#fff"/>
        </g>
      </g>
      <g id="Grupo_57007" data-name="Grupo 57007">
        <g id="Grupo_57005" data-name="Grupo 57005">
          <path id="Trazado_126603" data-name="Trazado 126603" d="M683.9,8150.963H665.55l-1.739-2.918,18.511-18.511Z" fill="url(#linear-gradient-6)"/>
          <rect id="Rectángulo_5844" data-name="Rectángulo 5844" width="18.511" height="18.511" transform="translate(663.811 8129.534)" fill="#41a0a3"/>
        </g>
        <g id="Grupo_57006" data-name="Grupo 57006">
          <rect id="Rectángulo_5845" data-name="Rectángulo 5845" width="12.599" height="0.404" transform="translate(667.556 8143.096)" fill="#fff"/>
          <rect id="Rectángulo_5846" data-name="Rectángulo 5846" width="12.599" height="0.404" transform="translate(667.556 8140.047)" fill="#fff"/>
          <rect id="Rectángulo_5847" data-name="Rectángulo 5847" width="5.733" height="0.404" transform="translate(667.556 8135.785)" fill="#fff"/>
        </g>
      </g>
    </g>
    <ellipse id="Elipse_4173" data-name="Elipse 4173" cx="63.884" cy="7.601" rx="63.884" ry="7.601" transform="translate(1121.859 2262.168)" fill="url(#linear-gradient-9)"/>
    <g id="Grupo_57010" data-name="Grupo 57010" transform="translate(90.071 -6263.361)">
      <g id="Grupo_57009" data-name="Grupo 57009">
        <path id="Trazado_126604" data-name="Trazado 126604" d="M1091.224,8158.24V8335.4h-30.477a8.426,8.426,0,0,1-8.595-8.715c.528-9.6,2.018-25.295,6.221-37.427,6.511-18.8,14.5-19.937,14.5-38.735s-13.022-18.514-14.206-32.186.592-16.8,2.072-18.229,18.645-7.69,21.013-16.52.888-23.356.888-23.356S1085.009,8158.24,1091.224,8158.24Z" fill="#025157"/>
        <path id="Trazado_126605" data-name="Trazado 126605" d="M1091.224,8158.24V8335.4H1121.7a8.428,8.428,0,0,0,8.6-8.715c-.529-9.6-2.019-25.295-6.221-37.427-6.511-18.8-14.5-19.937-14.5-38.735s13.022-18.514,14.206-32.186-.592-16.8-2.072-18.229-18.645-7.69-21.013-16.52-.888-23.356-.888-23.356S1097.439,8158.24,1091.224,8158.24Z" fill="#9b878f"/>
        <path id="Trazado_126606" data-name="Trazado 126606" d="M1091.224,8335.4v179.35s-8.879,1.184-13.318,6.511-5.919,12.208-12.209,12.208-5.1-2.885-3.477-3.772,6.659-1.924,7.547-7.1,4.291-11.542,8.731-14.206a24.667,24.667,0,0,1,9.322-3.107s-5.623-1.479-5.327-9.322,5.919-10.211,5.919-10.211-3.4-.74-3.4-3.255a3.487,3.487,0,0,1,2.367-3.256,4.243,4.243,0,0,1-.425-2.793c.333-1.5,2.164-1.609,2.164-1.609V8339.544s-3.274-.444-3.607-.888a3.272,3.272,0,0,1-.333-1.5h-4.051s-4.162,0-3.995-2.22S1091.224,8335.4,1091.224,8335.4Z" fill="#025157"/>
        <path id="Trazado_126607" data-name="Trazado 126607" d="M1091.224,8335.4v179.35s8.878,1.184,13.318,6.511,5.919,12.208,12.208,12.208,5.1-2.885,3.477-3.772-6.659-1.924-7.546-7.1-4.292-11.542-8.731-14.206a24.674,24.674,0,0,0-9.323-3.107s5.623-1.479,5.327-9.322-5.919-10.211-5.919-10.211,3.4-.74,3.4-3.255a3.487,3.487,0,0,0-2.368-3.256,4.24,4.24,0,0,0,.426-2.793c-.333-1.5-2.165-1.609-2.165-1.609V8339.544s3.274-.444,3.607-.888a3.272,3.272,0,0,0,.333-1.5h4.051s4.162,0,4-2.22S1091.224,8335.4,1091.224,8335.4Z" fill="#9b878f"/>
      </g>
      <path id="Trazado_126608" data-name="Trazado 126608" d="M799.9,8343.447v12.931H610.448l37.627-12.931Z" fill="#9b878f"/>
      <path id="Trazado_126609" data-name="Trazado 126609" d="M610.448,8356.378H799.9v59.258H634.928L618.919,8539.88h-8.472Z" fill="#025157"/>
      <path id="Trazado_126610" data-name="Trazado 126610" d="M799.9,8343.447v12.931H989.361l-37.627-12.931Z" fill="#9b878f"/>
      <path id="Trazado_126611" data-name="Trazado 126611" d="M989.361,8356.378H799.9v59.258H964.881l16.008,124.244h8.472Z" fill="#025157"/>
      <path id="Trazado_126612" data-name="Trazado 126612" d="M736.819,8343.448s29.194,11.01,31.619,12.93,2.02,69.5,0,103.441a157.313,157.313,0,0,0,9.293,61.821s18.183-4.849,27.073-3.232-6.061,7.678,0,8.89,36.366-5.657,41.214,0-5.253,7.727-1.616,10.732,15.759,7.562,33.538,1.85,42.831,1.156,65.458,2.772,29.093,3.637,43.64.808,40.406-2.828,46.467-.808-10.91-17.779-26.264-22.627-26.264-153.547-31.517-163.647-44.448-12.93-54.953-12.93-56.57-2.627-73.54-3.638-61.621.606-68.692.606S736.819,8343.448,736.819,8343.448Z" fill="#f5947a"/>
      <path id="Trazado_126613" data-name="Trazado 126613" d="M807.691,8520.067s-12.45-38.238-13.259-71.938,1.886-79.5,1.886-79.5.649,72.8,4.668,92.2,24.829,63.907,24.829,63.907l.4.861s-16.059,2.912-20.352,2.255-3.434-1.564-1.667-3.687S807.3,8521.625,807.691,8520.067Z" fill="#e59a4e"/>
      <path id="Trazado_126614" data-name="Trazado 126614" d="M847.231,8529.4s-16.7-51.395-19.4-73.483-3.771-41.215-3.771-41.215,8.352,56.3,23.167,85.123,27.538,40.985,27.538,40.985-10.164,4.606-21.41,2.317-11.718-5.253-10.169-7.61S846.9,8532.235,847.231,8529.4Z" fill="#e59a4e"/>
      <path id="Trazado_126615" data-name="Trazado 126615" d="M978.148,8388.838s2.424,85.123-19.4,103.71-66.267-32.864-66.267-32.864,40.676,31.248,56.03,22.9S978.148,8388.838,978.148,8388.838Z" fill="#e59a4e"/>
      <path id="Trazado_126616" data-name="Trazado 126616" d="M844.267,8394.225S869.589,8478.54,917,8506.556s74.887,7.813,74.887,7.813-15.893,23.436-67.344,12.391S844.267,8394.225,844.267,8394.225Z" fill="#e59a4e"/>
      <path id="Trazado_126617" data-name="Trazado 126617" d="M754.169,8350.162l163.908-.25.808,1.213-163.587-.514Z" fill="#fff"/>
      <path id="Trazado_126618" data-name="Trazado 126618" d="M1109.377,8189.768s-.942,13.2-5.387,18.856-11.583,5.388-11.583,5.388-.809,44.716,1.346,61.688,11.584,43.5,10.91,43.37,8.082-2.426,8.082-2.426a59.769,59.769,0,0,1,7.273-12.525c4.175-5.118,11.179-9.7,11.179-9.7s-12.257-16.836-14.681-33.134-3.042-17.7.673-26.129,8.082-11.181,8.082-11.181-6.957-6.153-6.6-15.758,6.869-18.452,6.869-18.452Z" fill="#ffe3c2"/>
      <path id="Trazado_126619" data-name="Trazado 126619" d="M1094.157,8215.358l-1.9-5.859h.95Z" fill="#9b938a"/>
      <path id="Trazado_126620" data-name="Trazado 126620" d="M1119.008,8200.341l5.118-4.714.606.605Z" fill="#9b938a"/>
      <path id="Trazado_126621" data-name="Trazado 126621" d="M1109.512,8195.627l-2.088-7-.741.4Z" fill="#9b938a"/>
      <path id="Trazado_126622" data-name="Trazado 126622" d="M1107.492,8248.021l8.081-5.455.4.741Z" fill="#9b938a"/>
      <path id="Trazado_126623" data-name="Trazado 126623" d="M1109.849,8261.826l9.63-1.414v.942Z" fill="#9b938a"/>
      <path id="Trazado_126624" data-name="Trazado 126624" d="M1102.239,8303.714l-7-4.579-.539.809Z" fill="#9b938a"/>
      <path id="Trazado_126625" data-name="Trazado 126625" d="M1125.338,8295.027l3.973-8.284,1,.4Z" fill="#9b938a"/>
      <circle id="Elipse_4174" data-name="Elipse 4174" cx="0.96" cy="0.96" r="0.96" transform="translate(1091.733 8207.9)" fill="#d83939"/>
      <circle id="Elipse_4175" data-name="Elipse 4175" cx="0.96" cy="0.96" r="0.96" transform="translate(1115.017 8241.942)" fill="#d83939"/>
      <circle id="Elipse_4176" data-name="Elipse 4176" cx="0.96" cy="0.96" r="0.96" transform="translate(1118.519 8259.957)" fill="#d83939"/>
      <circle id="Elipse_4177" data-name="Elipse 4177" cx="0.96" cy="0.96" r="0.96" transform="translate(1128.924 8285.784)" fill="#d83939"/>
      <circle id="Elipse_4178" data-name="Elipse 4178" cx="0.96" cy="0.96" r="0.96" transform="translate(1093.737 8298.479)" fill="#d83939"/>
      <circle id="Elipse_4179" data-name="Elipse 4179" cx="0.96" cy="0.96" r="0.96" transform="translate(1106.002 8187.52)" fill="#d83939"/>
      <circle id="Elipse_4180" data-name="Elipse 4180" cx="0.96" cy="0.96" r="0.96" transform="translate(1123.772 8194.768)" fill="#d83939"/>
    </g>
    <path id="Trazado_774820" data-name="Trazado 774820" d="M7.406,17H1.469V5.8H7.156V6.984H2.781v3.727H6.828v1.18H2.781v3.922H7.406Zm1.5-.289V15.336a3.792,3.792,0,0,0,2.3.773q1.688,0,1.688-1.125a.976.976,0,0,0-.145-.543,1.44,1.44,0,0,0-.391-.395,3.007,3.007,0,0,0-.578-.309q-.332-.137-.715-.285a9.207,9.207,0,0,1-.934-.426,2.82,2.82,0,0,1-.672-.484,1.8,1.8,0,0,1-.406-.613,2.17,2.17,0,0,1-.137-.8,1.912,1.912,0,0,1,.258-1A2.286,2.286,0,0,1,9.867,9.4a3.206,3.206,0,0,1,.98-.441,4.349,4.349,0,0,1,1.137-.148,4.59,4.59,0,0,1,1.859.359v1.3a3.624,3.624,0,0,0-2.031-.578,2.374,2.374,0,0,0-.648.082,1.587,1.587,0,0,0-.5.23,1.065,1.065,0,0,0-.32.355.936.936,0,0,0-.113.457,1.1,1.1,0,0,0,.113.523,1.152,1.152,0,0,0,.332.375,2.538,2.538,0,0,0,.531.3q.312.133.711.289a9.894,9.894,0,0,1,.953.418,3.269,3.269,0,0,1,.719.484,1.893,1.893,0,0,1,.457.621,2,2,0,0,1,.16.836,1.971,1.971,0,0,1-.262,1.031,2.243,2.243,0,0,1-.7.727,3.2,3.2,0,0,1-1.008.43,4.976,4.976,0,0,1-1.2.141A4.539,4.539,0,0,1,8.906,16.711Zm10.984.211a2.47,2.47,0,0,1-1.2.25q-2.1,0-2.1-2.344V10.094H15.219V9h1.375V7.047l1.281-.414V9h2.016v1.094H17.875V14.6a1.869,1.869,0,0,0,.273,1.148,1.091,1.091,0,0,0,.906.344,1.347,1.347,0,0,0,.836-.266Zm5.055.266a3.711,3.711,0,0,1-2.832-1.121,4.153,4.153,0,0,1-1.059-2.973,4.326,4.326,0,0,1,1.1-3.148,3.96,3.96,0,0,1,2.977-1.133,3.588,3.588,0,0,1,2.793,1.1,4.368,4.368,0,0,1,1,3.055,4.3,4.3,0,0,1-1.082,3.066A3.791,3.791,0,0,1,24.945,17.188Zm.094-7.3a2.437,2.437,0,0,0-1.953.84,3.449,3.449,0,0,0-.719,2.316,3.262,3.262,0,0,0,.727,2.242,2.469,2.469,0,0,0,1.945.82,2.342,2.342,0,0,0,1.91-.8,3.492,3.492,0,0,0,.668-2.289,3.552,3.552,0,0,0-.668-2.312A2.332,2.332,0,0,0,25.039,9.891Zm11.633,5.953h-.031V20.68H35.359V9h1.281v1.406h.031a3.03,3.03,0,0,1,2.766-1.594,2.93,2.93,0,0,1,2.414,1.074,4.449,4.449,0,0,1,.867,2.879,4.959,4.959,0,0,1-.977,3.215,3.251,3.251,0,0,1-2.672,1.207A2.676,2.676,0,0,1,36.672,15.844Zm-.031-3.227v1.117a2.379,2.379,0,0,0,.645,1.684,2.3,2.3,0,0,0,3.461-.2,4.086,4.086,0,0,0,.66-2.477,3.225,3.225,0,0,0-.617-2.094,2.043,2.043,0,0,0-1.672-.758,2.27,2.27,0,0,0-1.8.777A2.854,2.854,0,0,0,36.641,12.617Zm14.555.7H45.547a2.992,2.992,0,0,0,.719,2.063,2.478,2.478,0,0,0,1.891.727,3.931,3.931,0,0,0,2.484-.891v1.2a4.643,4.643,0,0,1-2.789.766,3.381,3.381,0,0,1-2.664-1.09,4.461,4.461,0,0,1-.969-3.066,4.375,4.375,0,0,1,1.059-3.043,3.394,3.394,0,0,1,2.629-1.176,3.008,3.008,0,0,1,2.43,1.016,4.234,4.234,0,0,1,.859,2.82Zm-1.312-1.086a2.607,2.607,0,0,0-.535-1.727,1.823,1.823,0,0,0-1.465-.617,2.07,2.07,0,0,0-1.539.648,2.943,2.943,0,0,0-.781,1.7ZM57.3,10.3a1.567,1.567,0,0,0-.969-.258,1.635,1.635,0,0,0-1.371.773,3.576,3.576,0,0,0-.551,2.109V17H53.133V9h1.281v1.648h.031a2.794,2.794,0,0,1,.836-1.316,1.906,1.906,0,0,1,1.258-.473,2.092,2.092,0,0,1,.766.109ZM70.055,17H68.773V12.406a3.466,3.466,0,0,0-.41-1.922,1.555,1.555,0,0,0-1.379-.594,1.708,1.708,0,0,0-1.395.75,2.869,2.869,0,0,0-.574,1.8V17H63.734V12.25q0-2.359-1.82-2.359a1.686,1.686,0,0,0-1.391.707,2.923,2.923,0,0,0-.547,1.84V17H58.7V9h1.281v1.266h.031a2.718,2.718,0,0,1,2.484-1.453,2.311,2.311,0,0,1,2.266,1.656,2.855,2.855,0,0,1,2.656-1.656q2.641,0,2.641,3.258ZM73.133,6.969a.812.812,0,0,1-.586-.234.791.791,0,0,1-.242-.594.821.821,0,0,1,.828-.836.827.827,0,0,1,.6.238.835.835,0,0,1,0,1.184A.82.82,0,0,1,73.133,6.969ZM73.758,17H72.477V9h1.281Zm6.3-.078a2.47,2.47,0,0,1-1.2.25q-2.1,0-2.1-2.344V10.094H75.391V9h1.375V7.047l1.281-.414V9h2.016v1.094H78.047V14.6a1.869,1.869,0,0,0,.273,1.148,1.091,1.091,0,0,0,.906.344,1.347,1.347,0,0,0,.836-.266Zm8.141-3.6H82.555a2.992,2.992,0,0,0,.719,2.063,2.478,2.478,0,0,0,1.891.727,3.931,3.931,0,0,0,2.484-.891v1.2a4.643,4.643,0,0,1-2.789.766A3.381,3.381,0,0,1,82.2,16.1a4.461,4.461,0,0,1-.969-3.066,4.375,4.375,0,0,1,1.059-3.043,3.394,3.394,0,0,1,2.629-1.176,3.008,3.008,0,0,1,2.43,1.016,4.234,4.234,0,0,1,.859,2.82Zm-1.312-1.086a2.607,2.607,0,0,0-.535-1.727,1.823,1.823,0,0,0-1.465-.617,2.07,2.07,0,0,0-1.539.648,2.943,2.943,0,0,0-.781,1.7Zm14.063,1.086H95.3a2.992,2.992,0,0,0,.719,2.063,2.478,2.478,0,0,0,1.891.727,3.931,3.931,0,0,0,2.484-.891v1.2a4.643,4.643,0,0,1-2.789.766,3.381,3.381,0,0,1-2.664-1.09,4.461,4.461,0,0,1-.969-3.066,4.375,4.375,0,0,1,1.059-3.043,3.394,3.394,0,0,1,2.629-1.176,3.008,3.008,0,0,1,2.43,1.016,4.234,4.234,0,0,1,.859,2.82Zm-1.312-1.086a2.607,2.607,0,0,0-.535-1.727,1.823,1.823,0,0,0-1.465-.617,2.07,2.07,0,0,0-1.539.648,2.943,2.943,0,0,0-.781,1.7ZM109.531,17H108.25V12.438q0-2.547-1.859-2.547a2.017,2.017,0,0,0-1.59.723,2.679,2.679,0,0,0-.629,1.824V17h-1.281V9h1.281v1.328h.031a2.887,2.887,0,0,1,2.625-1.516,2.448,2.448,0,0,1,2.008.848,3.776,3.776,0,0,1,.7,2.449Zm6.125-.078a2.47,2.47,0,0,1-1.2.25q-2.1,0-2.1-2.344V10.094h-1.375V9h1.375V7.047l1.281-.414V9h2.016v1.094h-2.016V14.6a1.869,1.869,0,0,0,.273,1.148,1.091,1.091,0,0,0,.906.344,1.347,1.347,0,0,0,.836-.266Zm8.141-3.6h-5.648a2.992,2.992,0,0,0,.719,2.063,2.478,2.478,0,0,0,1.891.727,3.931,3.931,0,0,0,2.484-.891v1.2a4.643,4.643,0,0,1-2.789.766,3.381,3.381,0,0,1-2.664-1.09,4.461,4.461,0,0,1-.969-3.066,4.375,4.375,0,0,1,1.059-3.043,3.394,3.394,0,0,1,2.629-1.176,3.008,3.008,0,0,1,2.43,1.016,4.234,4.234,0,0,1,.859,2.82Zm-1.312-1.086a2.607,2.607,0,0,0-.535-1.727,1.823,1.823,0,0,0-1.465-.617,2.07,2.07,0,0,0-1.539.648,2.943,2.943,0,0,0-.781,1.7ZM132.375,17h-1.281V12.438q0-2.547-1.859-2.547a2.017,2.017,0,0,0-1.59.723,2.679,2.679,0,0,0-.629,1.824V17h-1.281V9h1.281v1.328h.031a2.887,2.887,0,0,1,2.625-1.516,2.448,2.448,0,0,1,2.008.848,3.776,3.776,0,0,1,.7,2.449Zm9.242,0h-1.281V15.641H140.3a2.958,2.958,0,0,1-2.75,1.547,2.988,2.988,0,0,1-2.41-1.074,4.407,4.407,0,0,1-.9-2.926,4.794,4.794,0,0,1,1-3.18,3.3,3.3,0,0,1,2.664-1.2,2.564,2.564,0,0,1,2.4,1.3h.031V5.156h1.281Zm-1.281-3.617V12.2a2.289,2.289,0,0,0-.641-1.641,2.149,2.149,0,0,0-1.625-.672,2.212,2.212,0,0,0-1.844.859,3.766,3.766,0,0,0-.672,2.375,3.387,3.387,0,0,0,.645,2.184,2.107,2.107,0,0,0,1.73.8,2.188,2.188,0,0,0,1.738-.773A2.882,2.882,0,0,0,140.336,13.383Zm10.3-.062h-5.648a2.992,2.992,0,0,0,.719,2.063,2.478,2.478,0,0,0,1.891.727,3.931,3.931,0,0,0,2.484-.891v1.2a4.643,4.643,0,0,1-2.789.766,3.381,3.381,0,0,1-2.664-1.09,4.461,4.461,0,0,1-.969-3.066,4.374,4.374,0,0,1,1.059-3.043,3.394,3.394,0,0,1,2.629-1.176,3.008,3.008,0,0,1,2.43,1.016,4.234,4.234,0,0,1,.859,2.82Zm-1.312-1.086a2.607,2.607,0,0,0-.535-1.727,1.823,1.823,0,0,0-1.465-.617,2.07,2.07,0,0,0-1.539.648,2.943,2.943,0,0,0-.781,1.7ZM156.75,10.3a1.567,1.567,0,0,0-.969-.258,1.635,1.635,0,0,0-1.371.773,3.576,3.576,0,0,0-.551,2.109V17h-1.281V9h1.281v1.648h.031a2.794,2.794,0,0,1,.836-1.316,1.906,1.906,0,0,1,1.258-.473,2.092,2.092,0,0,1,.766.109ZM163.8,17h-1.281V5.156H163.8Zm8.32,0h-1.281V15.75h-.031a2.682,2.682,0,0,1-2.461,1.438,2.63,2.63,0,0,1-1.871-.633,2.192,2.192,0,0,1-.676-1.68q0-2.242,2.641-2.609l2.4-.336q0-2.039-1.648-2.039a3.938,3.938,0,0,0-2.609.984V9.563a4.958,4.958,0,0,1,2.719-.75q2.82,0,2.82,2.984Zm-1.281-4.047-1.93.266a3.133,3.133,0,0,0-1.344.441,1.273,1.273,0,0,0-.453,1.121,1.221,1.221,0,0,0,.418.957,1.615,1.615,0,0,0,1.113.371,2.056,2.056,0,0,0,1.574-.668,2.387,2.387,0,0,0,.621-1.691ZM5.25,30.281A1.707,1.707,0,0,0,4.4,30.07q-1.344,0-1.344,1.7V33H4.93v1.094H3.055V41H1.781V34.094H.414V33H1.781V31.7a2.7,2.7,0,0,1,.727-1.988,2.453,2.453,0,0,1,1.813-.73,2.511,2.511,0,0,1,.93.141Zm1.711.688a.812.812,0,0,1-.586-.234.791.791,0,0,1-.242-.594.821.821,0,0,1,.828-.836.827.827,0,0,1,.6.238.835.835,0,0,1,0,1.184A.82.82,0,0,1,6.961,30.969ZM7.586,41H6.3V33H7.586Zm9.422-.641q0,4.406-4.219,4.406A5.664,5.664,0,0,1,10.2,44.2V42.922a5.327,5.327,0,0,0,2.578.75q2.953,0,2.953-3.141v-.875H15.7a3,3,0,0,1-2.75,1.531,3,3,0,0,1-2.4-1.066,4.263,4.263,0,0,1-.91-2.863,4.981,4.981,0,0,1,.98-3.242,3.275,3.275,0,0,1,2.684-1.2,2.608,2.608,0,0,1,2.4,1.3h.031V33h1.281Zm-1.281-2.977V36.2a2.289,2.289,0,0,0-.645-1.633,2.122,2.122,0,0,0-1.605-.68,2.225,2.225,0,0,0-1.859.863,3.853,3.853,0,0,0-.672,2.418,3.308,3.308,0,0,0,.645,2.137,2.082,2.082,0,0,0,1.707.8,2.23,2.23,0,0,0,1.754-.766A2.854,2.854,0,0,0,15.727,37.383ZM26.07,41H24.789V39.734h-.031a2.631,2.631,0,0,1-2.469,1.453q-2.859,0-2.859-3.406V33H20.7v4.578q0,2.531,1.938,2.531a1.96,1.96,0,0,0,1.543-.691,2.645,2.645,0,0,0,.605-1.809V33H26.07Zm6.758-6.7a1.567,1.567,0,0,0-.969-.258,1.635,1.635,0,0,0-1.371.773,3.576,3.576,0,0,0-.551,2.109V41H28.656V33h1.281v1.648h.031a2.793,2.793,0,0,1,.836-1.316,1.906,1.906,0,0,1,1.258-.473,2.092,2.092,0,0,1,.766.109ZM39.945,41H38.664V39.75h-.031a2.682,2.682,0,0,1-2.461,1.438,2.63,2.63,0,0,1-1.871-.633,2.192,2.192,0,0,1-.676-1.68q0-2.242,2.641-2.609l2.4-.336q0-2.039-1.648-2.039a3.938,3.938,0,0,0-2.609.984V33.563a4.958,4.958,0,0,1,2.719-.75q2.82,0,2.82,2.984Zm-1.281-4.047-1.93.266a3.133,3.133,0,0,0-1.344.441,1.273,1.273,0,0,0-.453,1.121,1.221,1.221,0,0,0,.418.957,1.615,1.615,0,0,0,1.113.371,2.056,2.056,0,0,0,1.574-.668,2.387,2.387,0,0,0,.621-1.691ZM53.383,41H52.1V36.391q0-2.5-1.859-2.5a2.027,2.027,0,0,0-1.578.723,2.693,2.693,0,0,0-.641,1.855V41H46.742V29.156h1.281v5.172h.031a2.91,2.91,0,0,1,2.625-1.516q2.7,0,2.7,3.258Zm8.883,0H60.984V39.734h-.031a2.631,2.631,0,0,1-2.469,1.453q-2.859,0-2.859-3.406V33H56.9v4.578q0,2.531,1.938,2.531a1.96,1.96,0,0,0,1.543-.691,2.645,2.645,0,0,0,.605-1.809V33h1.281Zm13.945,0H74.93V36.406a3.466,3.466,0,0,0-.41-1.922,1.555,1.555,0,0,0-1.379-.594,1.708,1.708,0,0,0-1.395.75,2.869,2.869,0,0,0-.574,1.8V41H69.891V36.25q0-2.359-1.82-2.359a1.686,1.686,0,0,0-1.391.707,2.923,2.923,0,0,0-.547,1.84V41H64.852V33h1.281v1.266h.031a2.718,2.718,0,0,1,2.484-1.453,2.311,2.311,0,0,1,2.266,1.656,2.855,2.855,0,0,1,2.656-1.656q2.641,0,2.641,3.258Zm8.148,0H83.078V39.75h-.031a2.682,2.682,0,0,1-2.461,1.438,2.63,2.63,0,0,1-1.871-.633,2.192,2.192,0,0,1-.676-1.68q0-2.242,2.641-2.609l2.4-.336q0-2.039-1.648-2.039a3.938,3.938,0,0,0-2.609.984V33.563a4.958,4.958,0,0,1,2.719-.75q2.82,0,2.82,2.984Zm-1.281-4.047-1.93.266a3.133,3.133,0,0,0-1.344.441,1.273,1.273,0,0,0-.453,1.121,1.221,1.221,0,0,0,.418.957,1.615,1.615,0,0,0,1.113.371,2.056,2.056,0,0,0,1.574-.668,2.387,2.387,0,0,0,.621-1.691ZM93.414,41H92.133V36.438q0-2.547-1.859-2.547a2.017,2.017,0,0,0-1.59.723,2.679,2.679,0,0,0-.629,1.824V41H86.773V33h1.281v1.328h.031a2.887,2.887,0,0,1,2.625-1.516,2.448,2.448,0,0,1,2.008.848,3.776,3.776,0,0,1,.7,2.449Zm8.141,0h-1.281V39.75h-.031a2.682,2.682,0,0,1-2.461,1.438,2.63,2.63,0,0,1-1.871-.633,2.192,2.192,0,0,1-.676-1.68q0-2.242,2.641-2.609l2.4-.336q0-2.039-1.648-2.039a3.938,3.938,0,0,0-2.609.984V33.563a4.958,4.958,0,0,1,2.719-.75q2.82,0,2.82,2.984Zm-1.281-4.047-1.93.266A3.133,3.133,0,0,0,97,37.66a1.273,1.273,0,0,0-.453,1.121,1.221,1.221,0,0,0,.418.957,1.615,1.615,0,0,0,1.113.371,2.056,2.056,0,0,0,1.574-.668,2.387,2.387,0,0,0,.621-1.691ZM115.18,41H113.9V39.641h-.031a2.958,2.958,0,0,1-2.75,1.547,2.988,2.988,0,0,1-2.41-1.074,4.407,4.407,0,0,1-.9-2.926,4.794,4.794,0,0,1,1-3.18,3.3,3.3,0,0,1,2.664-1.2,2.564,2.564,0,0,1,2.4,1.3h.031V29.156h1.281ZM113.9,37.383V36.2a2.289,2.289,0,0,0-.641-1.641,2.149,2.149,0,0,0-1.625-.672,2.212,2.212,0,0,0-1.844.859,3.766,3.766,0,0,0-.672,2.375,3.387,3.387,0,0,0,.645,2.184,2.107,2.107,0,0,0,1.73.8,2.188,2.188,0,0,0,1.738-.773A2.882,2.882,0,0,0,113.9,37.383Zm10.3-.062h-5.648a2.992,2.992,0,0,0,.719,2.063,2.478,2.478,0,0,0,1.891.727,3.931,3.931,0,0,0,2.484-.891v1.2a4.643,4.643,0,0,1-2.789.766A3.381,3.381,0,0,1,118.2,40.1a4.461,4.461,0,0,1-.969-3.066,4.375,4.375,0,0,1,1.059-3.043,3.394,3.394,0,0,1,2.629-1.176,3.008,3.008,0,0,1,2.43,1.016,4.234,4.234,0,0,1,.859,2.82Zm-1.312-1.086a2.607,2.607,0,0,0-.535-1.727,1.823,1.823,0,0,0-1.465-.617,2.07,2.07,0,0,0-1.539.648,2.943,2.943,0,0,0-.781,1.7Zm2.766,4.477V39.336a3.792,3.792,0,0,0,2.3.773q1.688,0,1.688-1.125a.976.976,0,0,0-.145-.543,1.44,1.44,0,0,0-.391-.395,3.007,3.007,0,0,0-.578-.309q-.332-.137-.715-.285a9.206,9.206,0,0,1-.934-.426,2.82,2.82,0,0,1-.672-.484,1.8,1.8,0,0,1-.406-.613,2.17,2.17,0,0,1-.137-.8,1.912,1.912,0,0,1,.258-1,2.286,2.286,0,0,1,.688-.727,3.206,3.206,0,0,1,.98-.441,4.349,4.349,0,0,1,1.137-.148,4.59,4.59,0,0,1,1.859.359v1.3a3.624,3.624,0,0,0-2.031-.578,2.374,2.374,0,0,0-.648.082,1.587,1.587,0,0,0-.5.23,1.065,1.065,0,0,0-.32.355.936.936,0,0,0-.113.457,1.1,1.1,0,0,0,.113.523,1.152,1.152,0,0,0,.332.375,2.538,2.538,0,0,0,.531.3q.312.133.711.289a9.894,9.894,0,0,1,.953.418,3.269,3.269,0,0,1,.719.484,1.893,1.893,0,0,1,.457.621,2,2,0,0,1,.16.836,1.971,1.971,0,0,1-.262,1.031,2.243,2.243,0,0,1-.7.727,3.2,3.2,0,0,1-1.008.43,4.976,4.976,0,0,1-1.2.141A4.539,4.539,0,0,1,125.656,40.711Zm14.1.289h-1.281V39.641h-.031a2.958,2.958,0,0,1-2.75,1.547,2.988,2.988,0,0,1-2.41-1.074,4.407,4.407,0,0,1-.9-2.926,4.794,4.794,0,0,1,1-3.18,3.3,3.3,0,0,1,2.664-1.2,2.564,2.564,0,0,1,2.4,1.3h.031V29.156h1.281Zm-1.281-3.617V36.2a2.289,2.289,0,0,0-.641-1.641,2.149,2.149,0,0,0-1.625-.672,2.212,2.212,0,0,0-1.844.859,3.766,3.766,0,0,0-.672,2.375,3.387,3.387,0,0,0,.645,2.184,2.107,2.107,0,0,0,1.73.8,2.188,2.188,0,0,0,1.738-.773A2.882,2.882,0,0,0,138.477,37.383Zm10.3-.062h-5.648a2.992,2.992,0,0,0,.719,2.063,2.478,2.478,0,0,0,1.891.727,3.931,3.931,0,0,0,2.484-.891v1.2a4.643,4.643,0,0,1-2.789.766,3.381,3.381,0,0,1-2.664-1.09,4.461,4.461,0,0,1-.969-3.066,4.374,4.374,0,0,1,1.059-3.043,3.394,3.394,0,0,1,2.629-1.176,3.008,3.008,0,0,1,2.43,1.016,4.234,4.234,0,0,1,.859,2.82Zm-1.312-1.086a2.607,2.607,0,0,0-.535-1.727,1.823,1.823,0,0,0-1.465-.617,2.07,2.07,0,0,0-1.539.648,2.943,2.943,0,0,0-.781,1.7Zm7.148,4.477V39.336a3.792,3.792,0,0,0,2.3.773q1.688,0,1.688-1.125a.976.976,0,0,0-.145-.543,1.44,1.44,0,0,0-.391-.395,3.007,3.007,0,0,0-.578-.309q-.332-.137-.715-.285a9.206,9.206,0,0,1-.934-.426,2.82,2.82,0,0,1-.672-.484,1.8,1.8,0,0,1-.406-.613,2.17,2.17,0,0,1-.137-.8,1.912,1.912,0,0,1,.258-1,2.286,2.286,0,0,1,.688-.727,3.206,3.206,0,0,1,.98-.441,4.349,4.349,0,0,1,1.137-.148,4.59,4.59,0,0,1,1.859.359v1.3a3.624,3.624,0,0,0-2.031-.578,2.374,2.374,0,0,0-.648.082,1.587,1.587,0,0,0-.5.23,1.065,1.065,0,0,0-.32.355.936.936,0,0,0-.113.457,1.1,1.1,0,0,0,.113.523,1.152,1.152,0,0,0,.332.375,2.538,2.538,0,0,0,.531.3q.312.133.711.289a9.894,9.894,0,0,1,.953.418,3.269,3.269,0,0,1,.719.484,1.893,1.893,0,0,1,.457.621,2,2,0,0,1,.16.836,1.971,1.971,0,0,1-.262,1.031,2.243,2.243,0,0,1-.7.727,3.2,3.2,0,0,1-1.008.43,4.976,4.976,0,0,1-1.2.141A4.539,4.539,0,0,1,154.617,40.711ZM168.359,41h-1.281V39.734h-.031a2.631,2.631,0,0,1-2.469,1.453q-2.859,0-2.859-3.406V33h1.273v4.578q0,2.531,1.938,2.531a1.96,1.96,0,0,0,1.543-.691,2.645,2.645,0,0,0,.605-1.809V33h1.281ZM5.008,64.922a2.47,2.47,0,0,1-1.2.25q-2.1,0-2.1-2.344V58.094H.336V57H1.711V55.047l1.281-.414V57H5.008v1.094H2.992V62.6a1.869,1.869,0,0,0,.273,1.148,1.091,1.091,0,0,0,.906.344,1.347,1.347,0,0,0,.836-.266ZM10.891,58.3a1.567,1.567,0,0,0-.969-.258,1.635,1.635,0,0,0-1.371.773A3.576,3.576,0,0,0,8,60.922V65H6.719V57H8v1.648h.031a2.793,2.793,0,0,1,.836-1.316,1.906,1.906,0,0,1,1.258-.473,2.092,2.092,0,0,1,.766.109Zm2.047-3.328a.812.812,0,0,1-.586-.234.791.791,0,0,1-.242-.594.821.821,0,0,1,.828-.836.827.827,0,0,1,.6.238.835.835,0,0,1,0,1.184A.82.82,0,0,1,12.938,54.969ZM13.563,65H12.281V57h1.281Zm9.422,0H21.7V63.641h-.031a2.958,2.958,0,0,1-2.75,1.547,2.988,2.988,0,0,1-2.41-1.074,4.407,4.407,0,0,1-.9-2.926,4.794,4.794,0,0,1,1-3.18,3.3,3.3,0,0,1,2.664-1.2,2.564,2.564,0,0,1,2.4,1.3H21.7V53.156h1.281ZM21.7,61.383V60.2a2.289,2.289,0,0,0-.641-1.641,2.149,2.149,0,0,0-1.625-.672,2.212,2.212,0,0,0-1.844.859,3.766,3.766,0,0,0-.672,2.375,3.387,3.387,0,0,0,.645,2.184,2.107,2.107,0,0,0,1.73.8,2.188,2.188,0,0,0,1.738-.773A2.882,2.882,0,0,0,21.7,61.383Zm4.531-6.414a.812.812,0,0,1-.586-.234.791.791,0,0,1-.242-.594.821.821,0,0,1,.828-.836.827.827,0,0,1,.6.238.835.835,0,0,1,0,1.184A.82.82,0,0,1,26.234,54.969ZM26.859,65H25.578V57h1.281Zm13.953,0H39.531V60.406a3.466,3.466,0,0,0-.41-1.922,1.555,1.555,0,0,0-1.379-.594,1.708,1.708,0,0,0-1.395.75,2.869,2.869,0,0,0-.574,1.8V65H34.492V60.25q0-2.359-1.82-2.359a1.686,1.686,0,0,0-1.391.707,2.923,2.923,0,0,0-.547,1.84V65H29.453V57h1.281v1.266h.031a2.718,2.718,0,0,1,2.484-1.453,2.311,2.311,0,0,1,2.266,1.656,2.855,2.855,0,0,1,2.656-1.656q2.641,0,2.641,3.258Zm8.852-3.68H44.016a2.992,2.992,0,0,0,.719,2.063,2.478,2.478,0,0,0,1.891.727,3.931,3.931,0,0,0,2.484-.891v1.2a4.643,4.643,0,0,1-2.789.766,3.381,3.381,0,0,1-2.664-1.09,4.461,4.461,0,0,1-.969-3.066,4.375,4.375,0,0,1,1.059-3.043,3.394,3.394,0,0,1,2.629-1.176,3.008,3.008,0,0,1,2.43,1.016,4.234,4.234,0,0,1,.859,2.82Zm-1.312-1.086a2.607,2.607,0,0,0-.535-1.727,1.823,1.823,0,0,0-1.465-.617,2.07,2.07,0,0,0-1.539.648,2.943,2.943,0,0,0-.781,1.7ZM58.242,65H56.961V60.438q0-2.547-1.859-2.547a2.017,2.017,0,0,0-1.59.723,2.679,2.679,0,0,0-.629,1.824V65H51.6V57h1.281v1.328h.031a2.887,2.887,0,0,1,2.625-1.516,2.448,2.448,0,0,1,2.008.848,3.776,3.776,0,0,1,.7,2.449Zm1.93-.289V63.336a3.792,3.792,0,0,0,2.3.773q1.688,0,1.688-1.125a.976.976,0,0,0-.145-.543,1.44,1.44,0,0,0-.391-.395,3.007,3.007,0,0,0-.578-.309q-.332-.137-.715-.285a9.206,9.206,0,0,1-.934-.426,2.82,2.82,0,0,1-.672-.484,1.8,1.8,0,0,1-.406-.613,2.17,2.17,0,0,1-.137-.8,1.912,1.912,0,0,1,.258-1,2.286,2.286,0,0,1,.688-.727,3.206,3.206,0,0,1,.98-.441,4.349,4.349,0,0,1,1.137-.148,4.59,4.59,0,0,1,1.859.359v1.3a3.624,3.624,0,0,0-2.031-.578,2.374,2.374,0,0,0-.648.082,1.587,1.587,0,0,0-.5.23,1.065,1.065,0,0,0-.32.355.936.936,0,0,0-.113.457,1.1,1.1,0,0,0,.113.523,1.152,1.152,0,0,0,.332.375,2.538,2.538,0,0,0,.531.3q.312.133.711.289a9.894,9.894,0,0,1,.953.418,3.269,3.269,0,0,1,.719.484,1.893,1.893,0,0,1,.457.621,2,2,0,0,1,.16.836,1.971,1.971,0,0,1-.262,1.031,2.243,2.243,0,0,1-.7.727,3.2,3.2,0,0,1-1.008.43,4.976,4.976,0,0,1-1.2.141A4.539,4.539,0,0,1,60.172,64.711Zm7.93-9.742a.812.812,0,0,1-.586-.234.791.791,0,0,1-.242-.594A.821.821,0,0,1,68.1,53.3a.827.827,0,0,1,.6.238.835.835,0,0,1,0,1.184A.82.82,0,0,1,68.1,54.969ZM68.727,65H67.445V57h1.281Zm5.938.188a3.711,3.711,0,0,1-2.832-1.121,4.153,4.153,0,0,1-1.059-2.973,4.326,4.326,0,0,1,1.1-3.148,3.96,3.96,0,0,1,2.977-1.133,3.588,3.588,0,0,1,2.793,1.1,4.368,4.368,0,0,1,1,3.055,4.3,4.3,0,0,1-1.082,3.066A3.791,3.791,0,0,1,74.664,65.188Zm.094-7.3a2.437,2.437,0,0,0-1.953.84,3.449,3.449,0,0,0-.719,2.316,3.262,3.262,0,0,0,.727,2.242,2.469,2.469,0,0,0,1.945.82,2.342,2.342,0,0,0,1.91-.8,3.492,3.492,0,0,0,.668-2.289,3.552,3.552,0,0,0-.668-2.312A2.332,2.332,0,0,0,74.758,57.891ZM87.336,65H86.055V60.438q0-2.547-1.859-2.547a2.017,2.017,0,0,0-1.59.723,2.679,2.679,0,0,0-.629,1.824V65H80.7V57h1.281v1.328h.031a2.887,2.887,0,0,1,2.625-1.516,2.448,2.448,0,0,1,2.008.848,3.776,3.776,0,0,1,.7,2.449Zm8.141,0H94.2V63.75h-.031A2.682,2.682,0,0,1,91.7,65.188a2.63,2.63,0,0,1-1.871-.633,2.192,2.192,0,0,1-.676-1.68q0-2.242,2.641-2.609l2.4-.336q0-2.039-1.648-2.039a3.938,3.938,0,0,0-2.609.984V57.563a4.958,4.958,0,0,1,2.719-.75q2.82,0,2.82,2.984ZM94.2,60.953l-1.93.266a3.133,3.133,0,0,0-1.344.441,1.273,1.273,0,0,0-.453,1.121,1.221,1.221,0,0,0,.418.957A1.615,1.615,0,0,0,92,64.109a2.056,2.056,0,0,0,1.574-.668A2.387,2.387,0,0,0,94.2,61.75ZM99.172,65H97.891V53.156h1.281Zm3.25-10.031a.812.812,0,0,1-.586-.234.791.791,0,0,1-.242-.594.821.821,0,0,1,.828-.836.827.827,0,0,1,.6.238.835.835,0,0,1,0,1.184A.82.82,0,0,1,102.422,54.969ZM103.047,65h-1.281V57h1.281Zm9.422,0h-1.281V63.641h-.031a2.958,2.958,0,0,1-2.75,1.547A2.988,2.988,0,0,1,106,64.113a4.407,4.407,0,0,1-.9-2.926,4.794,4.794,0,0,1,1-3.18,3.3,3.3,0,0,1,2.664-1.2,2.564,2.564,0,0,1,2.4,1.3h.031V53.156h1.281Zm-1.281-3.617V60.2a2.289,2.289,0,0,0-.641-1.641,2.149,2.149,0,0,0-1.625-.672,2.212,2.212,0,0,0-1.844.859,3.766,3.766,0,0,0-.672,2.375,3.387,3.387,0,0,0,.645,2.184,2.107,2.107,0,0,0,1.73.8,2.188,2.188,0,0,0,1.738-.773A2.882,2.882,0,0,0,111.188,61.383Zm9.6,3.617h-1.281V63.75h-.031a2.682,2.682,0,0,1-2.461,1.438,2.63,2.63,0,0,1-1.871-.633,2.192,2.192,0,0,1-.676-1.68q0-2.242,2.641-2.609l2.4-.336q0-2.039-1.648-2.039a3.938,3.938,0,0,0-2.609.984V57.563a4.958,4.958,0,0,1,2.719-.75q2.82,0,2.82,2.984Zm-1.281-4.047-1.93.266a3.133,3.133,0,0,0-1.344.441,1.273,1.273,0,0,0-.453,1.121,1.221,1.221,0,0,0,.418.957,1.615,1.615,0,0,0,1.113.371,2.056,2.056,0,0,0,1.574-.668,2.387,2.387,0,0,0,.621-1.691ZM130.031,65H128.75V63.641h-.031a2.958,2.958,0,0,1-2.75,1.547,2.988,2.988,0,0,1-2.41-1.074,4.407,4.407,0,0,1-.9-2.926,4.794,4.794,0,0,1,1-3.18,3.3,3.3,0,0,1,2.664-1.2,2.564,2.564,0,0,1,2.4,1.3h.031V53.156h1.281Zm-1.281-3.617V60.2a2.289,2.289,0,0,0-.641-1.641,2.149,2.149,0,0,0-1.625-.672,2.212,2.212,0,0,0-1.844.859,3.766,3.766,0,0,0-.672,2.375,3.387,3.387,0,0,0,.645,2.184,2.107,2.107,0,0,0,1.73.8,2.188,2.188,0,0,0,1.738-.773A2.882,2.882,0,0,0,128.75,61.383Zm9.57,2.461h-.031V68.68h-1.281V57h1.281v1.406h.031a3.03,3.03,0,0,1,2.766-1.594,2.93,2.93,0,0,1,2.414,1.074,4.449,4.449,0,0,1,.867,2.879,4.958,4.958,0,0,1-.977,3.215,3.251,3.251,0,0,1-2.672,1.207A2.676,2.676,0,0,1,138.32,63.844Zm-.031-3.227v1.117a2.379,2.379,0,0,0,.645,1.684,2.3,2.3,0,0,0,3.461-.2,4.086,4.086,0,0,0,.66-2.477,3.225,3.225,0,0,0-.617-2.094,2.043,2.043,0,0,0-1.672-.758,2.27,2.27,0,0,0-1.8.777A2.854,2.854,0,0,0,138.289,60.617ZM152.141,65h-1.281V63.75h-.031a2.682,2.682,0,0,1-2.461,1.438,2.63,2.63,0,0,1-1.871-.633,2.192,2.192,0,0,1-.676-1.68q0-2.242,2.641-2.609l2.4-.336q0-2.039-1.648-2.039a3.938,3.938,0,0,0-2.609.984V57.563a4.958,4.958,0,0,1,2.719-.75q2.82,0,2.82,2.984Zm-1.281-4.047-1.93.266a3.133,3.133,0,0,0-1.344.441,1.273,1.273,0,0,0-.453,1.121,1.221,1.221,0,0,0,.418.957,1.615,1.615,0,0,0,1.113.371,2.056,2.056,0,0,0,1.574-.668,2.387,2.387,0,0,0,.621-1.691Zm7.867-2.656a1.567,1.567,0,0,0-.969-.258,1.635,1.635,0,0,0-1.371.773,3.576,3.576,0,0,0-.551,2.109V65h-1.281V57h1.281v1.648h.031a2.794,2.794,0,0,1,.836-1.316,1.906,1.906,0,0,1,1.258-.473,2.092,2.092,0,0,1,.766.109Zm7.117,6.7h-1.281V63.75h-.031a2.682,2.682,0,0,1-2.461,1.438,2.63,2.63,0,0,1-1.871-.633,2.192,2.192,0,0,1-.676-1.68q0-2.242,2.641-2.609l2.4-.336q0-2.039-1.648-2.039a3.938,3.938,0,0,0-2.609.984V57.563a4.958,4.958,0,0,1,2.719-.75q2.82,0,2.82,2.984Zm-1.281-4.047-1.93.266a3.133,3.133,0,0,0-1.344.441,1.273,1.273,0,0,0-.453,1.121,1.221,1.221,0,0,0,.418.957,1.615,1.615,0,0,0,1.113.371,2.056,2.056,0,0,0,1.574-.668,2.387,2.387,0,0,0,.621-1.691Zm7.594,3.758V63.336a3.792,3.792,0,0,0,2.3.773q1.688,0,1.688-1.125a.976.976,0,0,0-.145-.543,1.44,1.44,0,0,0-.391-.395,3.007,3.007,0,0,0-.578-.309q-.332-.137-.715-.285a9.206,9.206,0,0,1-.934-.426,2.82,2.82,0,0,1-.672-.484,1.8,1.8,0,0,1-.406-.613,2.17,2.17,0,0,1-.137-.8,1.912,1.912,0,0,1,.258-1,2.286,2.286,0,0,1,.688-.727,3.206,3.206,0,0,1,.98-.441,4.349,4.349,0,0,1,1.137-.148,4.59,4.59,0,0,1,1.859.359v1.3a3.624,3.624,0,0,0-2.031-.578,2.374,2.374,0,0,0-.648.082,1.587,1.587,0,0,0-.5.23,1.065,1.065,0,0,0-.32.355.936.936,0,0,0-.113.457,1.1,1.1,0,0,0,.113.523,1.152,1.152,0,0,0,.332.375,2.538,2.538,0,0,0,.531.3q.312.133.711.289a9.894,9.894,0,0,1,.953.418,3.269,3.269,0,0,1,.719.484,1.893,1.893,0,0,1,.457.621,2,2,0,0,1,.16.836,1.971,1.971,0,0,1-.262,1.031,2.243,2.243,0,0,1-.7.727,3.2,3.2,0,0,1-1.008.43,4.976,4.976,0,0,1-1.2.141A4.539,4.539,0,0,1,172.156,64.711ZM185.9,65h-1.281V63.734h-.031a2.631,2.631,0,0,1-2.469,1.453q-2.859,0-2.859-3.406V57h1.273v4.578q0,2.531,1.938,2.531a1.96,1.96,0,0,0,1.543-.691,2.645,2.645,0,0,0,.605-1.809V57H185.9ZM7.023,89H5.742V87.75H5.711A2.682,2.682,0,0,1,3.25,89.188a2.63,2.63,0,0,1-1.871-.633A2.192,2.192,0,0,1,.7,86.875q0-2.242,2.641-2.609l2.4-.336q0-2.039-1.648-2.039a3.938,3.938,0,0,0-2.609.984V81.563a4.958,4.958,0,0,1,2.719-.75q2.82,0,2.82,2.984ZM5.742,84.953l-1.93.266a3.133,3.133,0,0,0-1.344.441,1.273,1.273,0,0,0-.453,1.121,1.221,1.221,0,0,0,.418.957,1.615,1.615,0,0,0,1.113.371,2.056,2.056,0,0,0,1.574-.668,2.387,2.387,0,0,0,.621-1.691Zm5.008,2.891h-.031V92.68H9.438V81h1.281v1.406h.031a3.03,3.03,0,0,1,2.766-1.594,2.93,2.93,0,0,1,2.414,1.074,4.449,4.449,0,0,1,.867,2.879,4.959,4.959,0,0,1-.977,3.215,3.251,3.251,0,0,1-2.672,1.207A2.676,2.676,0,0,1,10.75,87.844Zm-.031-3.227v1.117a2.379,2.379,0,0,0,.645,1.684A2.14,2.14,0,0,0,13,88.109a2.145,2.145,0,0,0,1.824-.891,4.086,4.086,0,0,0,.66-2.477,3.225,3.225,0,0,0-.617-2.094,2.043,2.043,0,0,0-1.672-.758,2.27,2.27,0,0,0-1.8.777A2.854,2.854,0,0,0,10.719,84.617ZM20.125,89H18.844V77.156h1.281Zm3.25-10.031a.812.812,0,0,1-.586-.234.791.791,0,0,1-.242-.594.821.821,0,0,1,.828-.836.827.827,0,0,1,.6.238.835.835,0,0,1,0,1.184A.82.82,0,0,1,23.375,78.969ZM24,89H22.719V81H24Zm8.047-.367a4.163,4.163,0,0,1-2.187.555A3.622,3.622,0,0,1,27.1,88.074a4.035,4.035,0,0,1-1.051-2.887,4.435,4.435,0,0,1,1.133-3.176,3.963,3.963,0,0,1,3.023-1.2,4.209,4.209,0,0,1,1.859.391v1.313a3.258,3.258,0,0,0-1.906-.625,2.576,2.576,0,0,0-2.012.879,3.335,3.335,0,0,0-.785,2.309A3.176,3.176,0,0,0,28.1,87.3a2.545,2.545,0,0,0,1.98.813,3.211,3.211,0,0,0,1.969-.7ZM39.711,89H38.43V87.75H38.4a2.682,2.682,0,0,1-2.461,1.438,2.63,2.63,0,0,1-1.871-.633,2.192,2.192,0,0,1-.676-1.68q0-2.242,2.641-2.609l2.4-.336q0-2.039-1.648-2.039a3.938,3.938,0,0,0-2.609.984V81.563a4.958,4.958,0,0,1,2.719-.75q2.82,0,2.82,2.984ZM38.43,84.953l-1.93.266a3.133,3.133,0,0,0-1.344.441,1.273,1.273,0,0,0-.453,1.121,1.221,1.221,0,0,0,.418.957,1.615,1.615,0,0,0,1.113.371,2.056,2.056,0,0,0,1.574-.668,2.387,2.387,0,0,0,.621-1.691Zm9.148,3.68a4.163,4.163,0,0,1-2.187.555,3.622,3.622,0,0,1-2.762-1.113,4.035,4.035,0,0,1-1.051-2.887,4.435,4.435,0,0,1,1.133-3.176,3.963,3.963,0,0,1,3.023-1.2,4.209,4.209,0,0,1,1.859.391v1.313a3.258,3.258,0,0,0-1.906-.625,2.576,2.576,0,0,0-2.012.879,3.335,3.335,0,0,0-.785,2.309,3.176,3.176,0,0,0,.738,2.219,2.545,2.545,0,0,0,1.98.813,3.211,3.211,0,0,0,1.969-.7Zm2.594-9.664a.812.812,0,0,1-.586-.234.791.791,0,0,1-.242-.594.821.821,0,0,1,.828-.836.827.827,0,0,1,.6.238.835.835,0,0,1,0,1.184A.82.82,0,0,1,50.172,78.969ZM50.8,89H49.516V81H50.8Zm5.938.188A3.711,3.711,0,0,1,53.9,88.066a4.153,4.153,0,0,1-1.059-2.973,4.326,4.326,0,0,1,1.1-3.148,3.96,3.96,0,0,1,2.977-1.133,3.588,3.588,0,0,1,2.793,1.1,4.368,4.368,0,0,1,1,3.055,4.3,4.3,0,0,1-1.082,3.066A3.791,3.791,0,0,1,56.734,89.188Zm.094-7.3a2.437,2.437,0,0,0-1.953.84,3.449,3.449,0,0,0-.719,2.316,3.262,3.262,0,0,0,.727,2.242,2.469,2.469,0,0,0,1.945.82,2.342,2.342,0,0,0,1.91-.8,3.492,3.492,0,0,0,.668-2.289,3.552,3.552,0,0,0-.668-2.312A2.332,2.332,0,0,0,56.828,81.891ZM58.7,76.922l-2.047,2.563h-.992l1.742-2.562ZM69.406,89H68.125V84.438q0-2.547-1.859-2.547a2.017,2.017,0,0,0-1.59.723,2.679,2.679,0,0,0-.629,1.824V89H62.766V81h1.281v1.328h.031A2.887,2.887,0,0,1,66.7,80.813a2.448,2.448,0,0,1,2.008.848,3.776,3.776,0,0,1,.7,2.449Zm13.227-3.68H76.984a2.992,2.992,0,0,0,.719,2.063,2.478,2.478,0,0,0,1.891.727,3.931,3.931,0,0,0,2.484-.891v1.2a4.643,4.643,0,0,1-2.789.766,3.381,3.381,0,0,1-2.664-1.09,4.461,4.461,0,0,1-.969-3.066,4.375,4.375,0,0,1,1.059-3.043,3.394,3.394,0,0,1,2.629-1.176,3.008,3.008,0,0,1,2.43,1.016,4.234,4.234,0,0,1,.859,2.82ZM81.32,84.234a2.607,2.607,0,0,0-.535-1.727,1.823,1.823,0,0,0-1.465-.617,2.07,2.07,0,0,0-1.539.648,2.943,2.943,0,0,0-.781,1.7ZM91.211,89H89.93V84.438q0-2.547-1.859-2.547a2.017,2.017,0,0,0-1.59.723,2.679,2.679,0,0,0-.629,1.824V89H84.57V81h1.281v1.328h.031a2.887,2.887,0,0,1,2.625-1.516,2.448,2.448,0,0,1,2.008.848,3.776,3.776,0,0,1,.7,2.449Zm8.078,0H98.008V77.156h1.281Zm8.32,0h-1.281V87.75H106.3a2.682,2.682,0,0,1-2.461,1.438,2.63,2.63,0,0,1-1.871-.633,2.192,2.192,0,0,1-.676-1.68q0-2.242,2.641-2.609l2.4-.336q0-2.039-1.648-2.039a3.938,3.938,0,0,0-2.609.984V81.563a4.958,4.958,0,0,1,2.719-.75q2.82,0,2.82,2.984Zm-1.281-4.047-1.93.266a3.133,3.133,0,0,0-1.344.441,1.273,1.273,0,0,0-.453,1.121,1.221,1.221,0,0,0,.418.957,1.615,1.615,0,0,0,1.113.371,2.056,2.056,0,0,0,1.574-.668,2.387,2.387,0,0,0,.621-1.691Zm14.508.367h-5.648a2.992,2.992,0,0,0,.719,2.063,2.478,2.478,0,0,0,1.891.727,3.931,3.931,0,0,0,2.484-.891v1.2a4.643,4.643,0,0,1-2.789.766,3.381,3.381,0,0,1-2.664-1.09,4.461,4.461,0,0,1-.969-3.066,4.375,4.375,0,0,1,1.059-3.043,3.394,3.394,0,0,1,2.629-1.176,3.008,3.008,0,0,1,2.43,1.016,4.234,4.234,0,0,1,.859,2.82Zm-1.312-1.086a2.607,2.607,0,0,0-.535-1.727,1.823,1.823,0,0,0-1.465-.617,2.07,2.07,0,0,0-1.539.648,2.943,2.943,0,0,0-.781,1.7ZM124.055,89h-1.281V77.156h1.281Zm8.32,0h-1.281V87.75h-.031a2.682,2.682,0,0,1-2.461,1.438,2.63,2.63,0,0,1-1.871-.633,2.192,2.192,0,0,1-.676-1.68q0-2.242,2.641-2.609l2.4-.336q0-2.039-1.648-2.039a3.938,3.938,0,0,0-2.609.984V81.563a4.958,4.958,0,0,1,2.719-.75q2.82,0,2.82,2.984Zm-1.281-4.047-1.93.266a3.133,3.133,0,0,0-1.344.441,1.273,1.273,0,0,0-.453,1.121,1.221,1.221,0,0,0,.418.957,1.615,1.615,0,0,0,1.113.371,2.056,2.056,0,0,0,1.574-.668,2.387,2.387,0,0,0,.621-1.691Zm5.008,2.891h-.031V89h-1.281V77.156h1.281v5.25h.031a3.03,3.03,0,0,1,2.766-1.594,2.932,2.932,0,0,1,2.41,1.074,4.436,4.436,0,0,1,.871,2.879,4.959,4.959,0,0,1-.977,3.215,3.251,3.251,0,0,1-2.672,1.207A2.631,2.631,0,0,1,136.1,87.844Zm-.031-3.227v1.117a2.379,2.379,0,0,0,.645,1.684,2.3,2.3,0,0,0,3.461-.2,4.086,4.086,0,0,0,.66-2.477,3.225,3.225,0,0,0-.617-2.094,2.043,2.043,0,0,0-1.672-.758,2.27,2.27,0,0,0-1.8.777A2.854,2.854,0,0,0,136.07,84.617Zm11.469,4.57a3.711,3.711,0,0,1-2.832-1.121,4.153,4.153,0,0,1-1.059-2.973,4.326,4.326,0,0,1,1.1-3.148,3.96,3.96,0,0,1,2.977-1.133,3.588,3.588,0,0,1,2.793,1.1,4.368,4.368,0,0,1,1,3.055,4.3,4.3,0,0,1-1.082,3.066A3.791,3.791,0,0,1,147.539,89.188Zm.094-7.3a2.437,2.437,0,0,0-1.953.84,3.449,3.449,0,0,0-.719,2.316,3.262,3.262,0,0,0,.727,2.242,2.469,2.469,0,0,0,1.945.82,2.342,2.342,0,0,0,1.91-.8,3.492,3.492,0,0,0,.668-2.289,3.552,3.552,0,0,0-.668-2.312A2.332,2.332,0,0,0,147.633,81.891Zm10.109.406a1.567,1.567,0,0,0-.969-.258,1.635,1.635,0,0,0-1.371.773,3.576,3.576,0,0,0-.551,2.109V89H153.57V81h1.281v1.648h.031a2.794,2.794,0,0,1,.836-1.316,1.906,1.906,0,0,1,1.258-.473,2.092,2.092,0,0,1,.766.109Zm7.117,6.7h-1.281V87.75h-.031a2.682,2.682,0,0,1-2.461,1.438,2.63,2.63,0,0,1-1.871-.633,2.192,2.192,0,0,1-.676-1.68q0-2.242,2.641-2.609l2.4-.336q0-2.039-1.648-2.039a3.938,3.938,0,0,0-2.609.984V81.563a4.958,4.958,0,0,1,2.719-.75q2.82,0,2.82,2.984Zm-1.281-4.047-1.93.266a3.133,3.133,0,0,0-1.344.441,1.273,1.273,0,0,0-.453,1.121,1.221,1.221,0,0,0,.418.957,1.615,1.615,0,0,0,1.113.371,2.056,2.056,0,0,0,1.574-.668,2.387,2.387,0,0,0,.621-1.691Zm9.148,3.68a4.163,4.163,0,0,1-2.187.555,3.622,3.622,0,0,1-2.762-1.113,4.035,4.035,0,0,1-1.051-2.887,4.435,4.435,0,0,1,1.133-3.176,3.963,3.963,0,0,1,3.023-1.2,4.209,4.209,0,0,1,1.859.391v1.313a3.258,3.258,0,0,0-1.906-.625,2.576,2.576,0,0,0-2.012.879,3.335,3.335,0,0,0-.785,2.309,3.176,3.176,0,0,0,.738,2.219,2.545,2.545,0,0,0,1.98.813,3.211,3.211,0,0,0,1.969-.7Zm2.594-9.664a.812.812,0,0,1-.586-.234.791.791,0,0,1-.242-.594.821.821,0,0,1,.828-.836.827.827,0,0,1,.6.238.835.835,0,0,1,0,1.184A.82.82,0,0,1,175.32,78.969ZM175.945,89h-1.281V81h1.281Zm5.938.188a3.711,3.711,0,0,1-2.832-1.121,4.153,4.153,0,0,1-1.059-2.973,4.326,4.326,0,0,1,1.1-3.148,3.96,3.96,0,0,1,2.977-1.133,3.588,3.588,0,0,1,2.793,1.1,4.368,4.368,0,0,1,1,3.055,4.3,4.3,0,0,1-1.082,3.066A3.791,3.791,0,0,1,181.883,89.188Zm.094-7.3a2.437,2.437,0,0,0-1.953.84,3.449,3.449,0,0,0-.719,2.316,3.262,3.262,0,0,0,.727,2.242,2.469,2.469,0,0,0,1.945.82,2.342,2.342,0,0,0,1.91-.8,3.492,3.492,0,0,0,.668-2.289,3.552,3.552,0,0,0-.668-2.312A2.332,2.332,0,0,0,181.977,81.891Zm1.875-4.969L181.8,79.484h-.992l1.742-2.562ZM194.555,89h-1.281V84.438q0-2.547-1.859-2.547a2.017,2.017,0,0,0-1.59.723,2.679,2.679,0,0,0-.629,1.824V89h-1.281V81H189.2v1.328h.031a2.887,2.887,0,0,1,2.625-1.516,2.448,2.448,0,0,1,2.008.848,3.776,3.776,0,0,1,.7,2.449ZM8.125,113H6.844v-1.359H6.813a2.958,2.958,0,0,1-2.75,1.547,2.988,2.988,0,0,1-2.41-1.074,4.407,4.407,0,0,1-.9-2.926,4.794,4.794,0,0,1,1-3.18,3.3,3.3,0,0,1,2.664-1.2,2.564,2.564,0,0,1,2.4,1.3h.031v-4.953H8.125Zm-1.281-3.617V108.2a2.289,2.289,0,0,0-.641-1.641,2.149,2.149,0,0,0-1.625-.672,2.212,2.212,0,0,0-1.844.859,3.766,3.766,0,0,0-.672,2.375,3.387,3.387,0,0,0,.645,2.184,2.107,2.107,0,0,0,1.73.8,2.188,2.188,0,0,0,1.738-.773A2.882,2.882,0,0,0,6.844,109.383Zm10.3-.062H11.5a2.992,2.992,0,0,0,.719,2.063,2.478,2.478,0,0,0,1.891.727,3.931,3.931,0,0,0,2.484-.891v1.2a4.643,4.643,0,0,1-2.789.766,3.381,3.381,0,0,1-2.664-1.09,4.461,4.461,0,0,1-.969-3.066,4.375,4.375,0,0,1,1.059-3.043,3.394,3.394,0,0,1,2.629-1.176,3.008,3.008,0,0,1,2.43,1.016,4.234,4.234,0,0,1,.859,2.82Zm-1.312-1.086a2.607,2.607,0,0,0-.535-1.727,1.823,1.823,0,0,0-1.465-.617,2.07,2.07,0,0,0-1.539.648,2.943,2.943,0,0,0-.781,1.7Zm8.945,3.609H24.75v4.836H23.469V105H24.75v1.406h.031a3.03,3.03,0,0,1,2.766-1.594,2.93,2.93,0,0,1,2.414,1.074,4.449,4.449,0,0,1,.867,2.879,4.959,4.959,0,0,1-.977,3.215,3.251,3.251,0,0,1-2.672,1.207A2.676,2.676,0,0,1,24.781,111.844Zm-.031-3.227v1.117a2.379,2.379,0,0,0,.645,1.684,2.3,2.3,0,0,0,3.461-.2,4.086,4.086,0,0,0,.66-2.477,3.225,3.225,0,0,0-.617-2.094,2.043,2.043,0,0,0-1.672-.758,2.27,2.27,0,0,0-1.8.777A2.854,2.854,0,0,0,24.75,108.617Zm12.3-2.32a1.567,1.567,0,0,0-.969-.258,1.635,1.635,0,0,0-1.371.773,3.576,3.576,0,0,0-.551,2.109V113H32.875v-8h1.281v1.648h.031a2.793,2.793,0,0,1,.836-1.316,1.906,1.906,0,0,1,1.258-.473,2.092,2.092,0,0,1,.766.109Zm7.82,3.023H39.219a2.992,2.992,0,0,0,.719,2.063,2.478,2.478,0,0,0,1.891.727,3.931,3.931,0,0,0,2.484-.891v1.2a4.643,4.643,0,0,1-2.789.766,3.381,3.381,0,0,1-2.664-1.09,4.461,4.461,0,0,1-.969-3.066,4.375,4.375,0,0,1,1.059-3.043,3.394,3.394,0,0,1,2.629-1.176,3.008,3.008,0,0,1,2.43,1.016,4.234,4.234,0,0,1,.859,2.82Zm-1.312-1.086a2.607,2.607,0,0,0-.535-1.727,1.823,1.823,0,0,0-1.465-.617,2.07,2.07,0,0,0-1.539.648,2.943,2.943,0,0,0-.781,1.7ZM53.445,113H52.164v-4.562q0-2.547-1.859-2.547a2.017,2.017,0,0,0-1.59.723,2.679,2.679,0,0,0-.629,1.824V113H46.8v-8h1.281v1.328h.031a2.887,2.887,0,0,1,2.625-1.516,2.448,2.448,0,0,1,2.008.848,3.776,3.776,0,0,1,.7,2.449Zm9.242,0H61.406v-1.359h-.031a2.958,2.958,0,0,1-2.75,1.547,2.988,2.988,0,0,1-2.41-1.074,4.407,4.407,0,0,1-.9-2.926,4.794,4.794,0,0,1,1-3.18,3.3,3.3,0,0,1,2.664-1.2,2.564,2.564,0,0,1,2.4,1.3h.031v-4.953h1.281Zm-1.281-3.617V108.2a2.289,2.289,0,0,0-.641-1.641,2.149,2.149,0,0,0-1.625-.672,2.212,2.212,0,0,0-1.844.859,3.766,3.766,0,0,0-.672,2.375,3.387,3.387,0,0,0,.645,2.184,2.107,2.107,0,0,0,1.73.8,2.188,2.188,0,0,0,1.738-.773A2.882,2.882,0,0,0,61.406,109.383Zm9.6,3.617H69.727v-1.25H69.7a2.682,2.682,0,0,1-2.461,1.438,2.63,2.63,0,0,1-1.871-.633,2.192,2.192,0,0,1-.676-1.68q0-2.242,2.641-2.609l2.4-.336q0-2.039-1.648-2.039a3.938,3.938,0,0,0-2.609.984v-1.312a4.958,4.958,0,0,1,2.719-.75q2.82,0,2.82,2.984Zm-1.281-4.047-1.93.266a3.133,3.133,0,0,0-1.344.441A1.273,1.273,0,0,0,66,110.781a1.221,1.221,0,0,0,.418.957,1.615,1.615,0,0,0,1.113.371,2.056,2.056,0,0,0,1.574-.668,2.387,2.387,0,0,0,.621-1.691Zm3.211,3.758v-1.375a3.792,3.792,0,0,0,2.3.773q1.688,0,1.688-1.125a.976.976,0,0,0-.145-.543,1.44,1.44,0,0,0-.391-.395,3.007,3.007,0,0,0-.578-.309q-.332-.137-.715-.285a9.207,9.207,0,0,1-.934-.426,2.82,2.82,0,0,1-.672-.484,1.8,1.8,0,0,1-.406-.613,2.17,2.17,0,0,1-.137-.8,1.912,1.912,0,0,1,.258-1,2.286,2.286,0,0,1,.688-.727,3.206,3.206,0,0,1,.98-.441,4.349,4.349,0,0,1,1.137-.148,4.59,4.59,0,0,1,1.859.359v1.3a3.624,3.624,0,0,0-2.031-.578,2.374,2.374,0,0,0-.648.082,1.587,1.587,0,0,0-.5.23,1.065,1.065,0,0,0-.32.355.936.936,0,0,0-.113.457,1.1,1.1,0,0,0,.113.523,1.152,1.152,0,0,0,.332.375,2.538,2.538,0,0,0,.531.3q.313.133.711.289a9.9,9.9,0,0,1,.953.418,3.269,3.269,0,0,1,.719.484,1.893,1.893,0,0,1,.457.621,2,2,0,0,1,.16.836,1.971,1.971,0,0,1-.262,1.031,2.243,2.243,0,0,1-.7.727,3.2,3.2,0,0,1-1.008.43,4.976,4.976,0,0,1-1.2.141A4.539,4.539,0,0,1,72.938,112.711ZM91.422,113H90.141v-1.359h-.031a2.958,2.958,0,0,1-2.75,1.547,2.988,2.988,0,0,1-2.41-1.074,4.407,4.407,0,0,1-.9-2.926,4.794,4.794,0,0,1,1-3.18,3.3,3.3,0,0,1,2.664-1.2,2.564,2.564,0,0,1,2.4,1.3h.031v-4.953h1.281Zm-1.281-3.617V108.2a2.289,2.289,0,0,0-.641-1.641,2.149,2.149,0,0,0-1.625-.672,2.212,2.212,0,0,0-1.844.859,3.766,3.766,0,0,0-.672,2.375A3.387,3.387,0,0,0,86,111.309a2.107,2.107,0,0,0,1.73.8,2.188,2.188,0,0,0,1.738-.773A2.882,2.882,0,0,0,90.141,109.383Zm10.3-.062H94.8a2.992,2.992,0,0,0,.719,2.063,2.478,2.478,0,0,0,1.891.727,3.931,3.931,0,0,0,2.484-.891v1.2a4.643,4.643,0,0,1-2.789.766,3.381,3.381,0,0,1-2.664-1.09,4.461,4.461,0,0,1-.969-3.066,4.375,4.375,0,0,1,1.059-3.043,3.394,3.394,0,0,1,2.629-1.176,3.008,3.008,0,0,1,2.43,1.016,4.234,4.234,0,0,1,.859,2.82Zm-1.312-1.086a2.607,2.607,0,0,0-.535-1.727,1.823,1.823,0,0,0-1.465-.617,2.07,2.07,0,0,0-1.539.648,2.943,2.943,0,0,0-.781,1.7ZM113.055,105l-3.187,8h-1.258l-3.031-8h1.406l2.031,5.813a5.217,5.217,0,0,1,.281,1.117h.031a5.283,5.283,0,0,1,.25-1.086L111.7,105Zm7.8,4.32h-5.648a2.992,2.992,0,0,0,.719,2.063,2.478,2.478,0,0,0,1.891.727,3.931,3.931,0,0,0,2.484-.891v1.2a4.643,4.643,0,0,1-2.789.766,3.381,3.381,0,0,1-2.664-1.09,4.461,4.461,0,0,1-.969-3.066,4.375,4.375,0,0,1,1.059-3.043,3.394,3.394,0,0,1,2.629-1.176,3.008,3.008,0,0,1,2.43,1.016,4.234,4.234,0,0,1,.859,2.82Zm-1.312-1.086a2.607,2.607,0,0,0-.535-1.727,1.823,1.823,0,0,0-1.465-.617,2.07,2.07,0,0,0-1.539.648,2.943,2.943,0,0,0-.781,1.7Zm2.766,4.477v-1.375a3.792,3.792,0,0,0,2.3.773q1.688,0,1.688-1.125a.976.976,0,0,0-.145-.543,1.44,1.44,0,0,0-.391-.395,3.007,3.007,0,0,0-.578-.309q-.332-.137-.715-.285a9.207,9.207,0,0,1-.934-.426,2.82,2.82,0,0,1-.672-.484,1.8,1.8,0,0,1-.406-.613,2.17,2.17,0,0,1-.137-.8,1.912,1.912,0,0,1,.258-1,2.286,2.286,0,0,1,.688-.727,3.206,3.206,0,0,1,.98-.441,4.349,4.349,0,0,1,1.137-.148,4.59,4.59,0,0,1,1.859.359v1.3a3.624,3.624,0,0,0-2.031-.578,2.374,2.374,0,0,0-.648.082,1.587,1.587,0,0,0-.5.23,1.065,1.065,0,0,0-.32.355.936.936,0,0,0-.113.457,1.1,1.1,0,0,0,.113.523,1.152,1.152,0,0,0,.332.375,2.538,2.538,0,0,0,.531.3q.313.133.711.289a9.9,9.9,0,0,1,.953.418,3.269,3.269,0,0,1,.719.484,1.893,1.893,0,0,1,.457.621,2,2,0,0,1,.16.836,1.971,1.971,0,0,1-.262,1.031,2.243,2.243,0,0,1-.7.727,3.2,3.2,0,0,1-1.008.43,4.976,4.976,0,0,1-1.2.141A4.539,4.539,0,0,1,122.313,112.711Zm10.984.211a2.47,2.47,0,0,1-1.2.25q-2.1,0-2.1-2.344v-4.734h-1.375V105H130v-1.953l1.281-.414V105H133.3v1.094h-2.016V110.6a1.869,1.869,0,0,0,.273,1.148,1.091,1.091,0,0,0,.906.344,1.347,1.347,0,0,0,.836-.266Zm2.367-9.953a.812.812,0,0,1-.586-.234.791.791,0,0,1-.242-.594.821.821,0,0,1,.828-.836.827.827,0,0,1,.6.238.835.835,0,0,1,0,1.184A.82.82,0,0,1,135.664,102.969ZM136.289,113h-1.281v-8h1.281Zm6.766-6.7a1.567,1.567,0,0,0-.969-.258,1.635,1.635,0,0,0-1.371.773,3.576,3.576,0,0,0-.551,2.109V113h-1.281v-8h1.281v1.648h.031a2.794,2.794,0,0,1,.836-1.316,1.906,1.906,0,0,1,1.258-.473,2.092,2.092,0,0,1,.766.109Zm1.836,6.875a.829.829,0,0,1-.613-.258.849.849,0,0,1-.254-.617.862.862,0,0,1,.254-.621.823.823,0,0,1,.613-.262.845.845,0,0,1,.625.262.855.855,0,0,1,.258.621.842.842,0,0,1-.258.617A.851.851,0,0,1,144.891,113.172Z" transform="translate(428 1836.15)" fill="#12263f"/>
  </g>
</svg>
