<svg xmlns="http://www.w3.org/2000/svg" width="78.6" height="78.604" viewBox="0 0 78.6 78.604">
  <g id="info-support-book-help-service" transform="translate(-2 -1.997)">
    <path id="Trazado_774620" data-name="Trazado 774620" d="M3,21H78.98V73.4H3Z" transform="translate(0.31 5.891)" fill="#004fac"/>
    <path id="Trazado_774621" data-name="Trazado 774621" d="M7,17H39.75V69.4H7Z" transform="translate(1.55 4.651)" fill="#9bc9ff"/>
    <path id="Trazado_774622" data-name="Trazado 774622" d="M32,17H64.75V69.4H32Z" transform="translate(9.3 4.651)" fill="#bddbff"/>
    <path id="Trazado_774623" data-name="Trazado 774623" d="M35.82,51.06H7v7.86H39.75V50.807a31.888,31.888,0,0,1-3.93.253Z" transform="translate(1.55 15.131)" fill="#57a4ff"/>
    <path id="Trazado_774624" data-name="Trazado 774624" d="M59.51,17V30.1a31.438,31.438,0,0,1-27.5,31.186L32,69.4H64.75V17Z" transform="translate(9.3 4.651)" fill="#9bc9ff"/>
    <path id="Trazado_774625" data-name="Trazado 774625" d="M11,25H33.27V40.72H11Z" transform="translate(2.79 7.131)" fill="#ff5023"/>
    <path id="Trazado_774626" data-name="Trazado 774626" d="M54.68,21.34A18.349,18.349,0,0,1,42.026,38.776L36.341,48.942,30.655,38.776A18.34,18.34,0,1,1,54.68,21.34Z" transform="translate(4.959 0.311)" fill="#ffcd00"/>
    <path id="Trazado_774627" data-name="Trazado 774627" d="M32.31,3c-.443,0-.875.035-1.31.067a18.328,18.328,0,0,1,4.375,35.709L31,46.6l1.31,2.342L38,38.776A18.34,18.34,0,0,0,32.31,3Z" transform="translate(8.99 0.311)" fill="#ebbf00"/>
    <path id="Trazado_774628" data-name="Trazado 774628" d="M36,43H58.27V53.48H36Z" transform="translate(10.54 12.711)" fill="#ed1c24"/>
    <path id="Trazado_774629" data-name="Trazado 774629" d="M30,16h5.24V29.1H30Z" transform="translate(8.68 4.341)" fill="#ed1c24"/>
    <circle id="Elipse_4193" data-name="Elipse 4193" cx="2.62" cy="2.62" r="2.62" transform="translate(38.68 11.171)" fill="#ed1c24"/>
    <g id="Grupo_1054943" data-name="Grupo 1054943" transform="translate(2 1.997)">
      <path id="Trazado_774630" data-name="Trazado 774630" d="M79.29,25.581H75.36v-3.93a1.31,1.31,0,0,0-1.31-1.31H60.884a19.626,19.626,0,0,0-39.169,0H8.55a1.31,1.31,0,0,0-1.31,1.31v3.93H3.31A1.31,1.31,0,0,0,2,26.891v52.4A1.31,1.31,0,0,0,3.31,80.6H79.29a1.31,1.31,0,0,0,1.31-1.31v-52.4A1.31,1.31,0,0,0,79.29,25.581ZM41.3,4.621a17.03,17.03,0,0,1,5.279,33.221,1.289,1.289,0,0,0-.734.6L41.3,46.567l-4.546-8.122a1.289,1.289,0,0,0-.734-.6A17.03,17.03,0,0,1,41.3,4.621ZM9.86,22.961H21.7a19.586,19.586,0,0,0,13.008,17.2l5.45,9.733a1.31,1.31,0,0,0,2.279,0l5.45-9.733A19.586,19.586,0,0,0,60.9,22.961H72.74v49.78H42.61V54.4a1.31,1.31,0,1,0-2.62,0v18.34H9.86Zm68.12,55.02H4.62V28.2H7.24v45.85a1.31,1.31,0,0,0,1.31,1.31h65.5a1.31,1.31,0,0,0,1.31-1.31V28.2h2.62Z" transform="translate(-2 -1.997)" fill="#231f20"/>
      <path id="Trazado_774631" data-name="Trazado 774631" d="M11.31,42.34H33.58a1.31,1.31,0,1,0,0-2.62H12.62V26.62h5.24a1.31,1.31,0,0,0,0-2.62H11.31A1.31,1.31,0,0,0,10,25.31V41.03A1.31,1.31,0,0,0,11.31,42.34Z" transform="translate(0.48 4.824)" fill="#231f20"/>
      <path id="Trazado_774632" data-name="Trazado 774632" d="M11.31,44.62h1.31a1.31,1.31,0,0,0,0-2.62H11.31a1.31,1.31,0,0,0,0,2.62Z" transform="translate(0.48 10.404)" fill="#231f20"/>
      <path id="Trazado_774633" data-name="Trazado 774633" d="M32.03,42H16.31a1.31,1.31,0,1,0,0,2.62H32.03a1.31,1.31,0,0,0,0-2.62Z" transform="translate(2.03 10.404)" fill="#231f20"/>
      <path id="Trazado_774634" data-name="Trazado 774634" d="M11.31,48.62h1.31a1.31,1.31,0,0,0,0-2.62H11.31a1.31,1.31,0,0,0,0,2.62Z" transform="translate(0.48 11.644)" fill="#231f20"/>
      <path id="Trazado_774635" data-name="Trazado 774635" d="M32.03,46H16.31a1.31,1.31,0,1,0,0,2.62H32.03a1.31,1.31,0,0,0,0-2.62Z" transform="translate(2.03 11.644)" fill="#231f20"/>
      <path id="Trazado_774636" data-name="Trazado 774636" d="M11.31,52.62h1.31a1.31,1.31,0,0,0,0-2.62H11.31a1.31,1.31,0,0,0,0,2.62Z" transform="translate(0.48 12.884)" fill="#231f20"/>
      <path id="Trazado_774637" data-name="Trazado 774637" d="M32.03,50H16.31a1.31,1.31,0,1,0,0,2.62H32.03a1.31,1.31,0,0,0,0-2.62Z" transform="translate(2.03 12.884)" fill="#231f20"/>
      <path id="Trazado_774638" data-name="Trazado 774638" d="M36.31,55.1H58.58a1.31,1.31,0,0,0,1.31-1.31V43.31A1.31,1.31,0,0,0,58.58,42H36.31A1.31,1.31,0,0,0,35,43.31V53.79A1.31,1.31,0,0,0,36.31,55.1Zm1.31-10.48H57.27v7.86H37.62Z" transform="translate(8.23 10.404)" fill="#231f20"/>
      <path id="Trazado_774639" data-name="Trazado 774639" d="M38.31,38.62H57.96a1.31,1.31,0,1,0,0-2.62H38.31a1.31,1.31,0,0,0,0,2.62Z" transform="translate(8.85 8.544)" fill="#231f20"/>
      <path id="Trazado_774640" data-name="Trazado 774640" d="M40.31,34.62H57.34a1.31,1.31,0,1,0,0-2.62H40.31a1.31,1.31,0,0,0,0,2.62Z" transform="translate(9.47 7.304)" fill="#231f20"/>
      <path id="Trazado_774641" data-name="Trazado 774641" d="M45.31,30.62H55.79a1.31,1.31,0,1,0,0-2.62H45.31a1.31,1.31,0,0,0,0,2.62Z" transform="translate(11.02 6.064)" fill="#231f20"/>
      <path id="Trazado_774642" data-name="Trazado 774642" d="M47.31,26.62h7.86a1.31,1.31,0,1,0,0-2.62H47.31a1.31,1.31,0,1,0,0,2.62Z" transform="translate(11.64 4.824)" fill="#231f20"/>
      <path id="Trazado_774643" data-name="Trazado 774643" d="M32.93,15.86A3.93,3.93,0,1,0,29,11.93,3.93,3.93,0,0,0,32.93,15.86Zm0-5.24a1.31,1.31,0,1,1-1.31,1.31A1.31,1.31,0,0,1,32.93,10.62Z" transform="translate(6.37 -0.136)" fill="#231f20"/>
      <path id="Trazado_774644" data-name="Trazado 774644" d="M38.79,28.1H37.48V16.31A1.31,1.31,0,0,0,36.17,15H28.31a1.31,1.31,0,1,0,0,2.62h1.31V28.1H28.31a1.31,1.31,0,1,0,0,2.62H38.79a1.31,1.31,0,0,0,0-2.62Zm-3.93,0H32.24V17.62h2.62Z" transform="translate(5.75 2.034)" fill="#231f20"/>
    </g>
  </g>
</svg>
