<svg xmlns="http://www.w3.org/2000/svg" xmlns:xlink="http://www.w3.org/1999/xlink" width="1125.939" height="1304.804" viewBox="0 0 1125.939 1304.804">
  <defs>
    <filter id="Rectángulo_5480" x="313.737" y="354.594" width="211.251" height="230.211" filterUnits="userSpaceOnUse">
      <feOffset dy="4" input="SourceAlpha"/>
      <feGaussianBlur stdDeviation="1.5" result="blur"/>
      <feFlood flood-color="#9ba9aa" flood-opacity="0.6"/>
      <feComposite operator="in" in2="blur"/>
      <feComposite in="SourceGraphic"/>
    </filter>
    <filter id="Rectángulo_5481" x="888.163" y="30.527" width="211.251" height="211.25" filterUnits="userSpaceOnUse">
      <feOffset dy="4" input="SourceAlpha"/>
      <feGaussianBlur stdDeviation="1.5" result="blur-2"/>
      <feFlood flood-color="#9ba9aa" flood-opacity="0.6"/>
      <feComposite operator="in" in2="blur-2"/>
      <feComposite in="SourceGraphic"/>
    </filter>
    <filter id="Rectángulo_5482" x="600.949" y="373.554" width="211.251" height="226.178" filterUnits="userSpaceOnUse">
      <feOffset dy="4" input="SourceAlpha"/>
      <feGaussianBlur stdDeviation="1.5" result="blur-3"/>
      <feFlood flood-color="#9ba9aa" flood-opacity="0.6"/>
      <feComposite operator="in" in2="blur-3"/>
      <feComposite in="SourceGraphic"/>
    </filter>
    <filter id="Rectángulo_5483" x="26.524" y="373.554" width="211.251" height="211.25" filterUnits="userSpaceOnUse">
      <feOffset dy="4" input="SourceAlpha"/>
      <feGaussianBlur stdDeviation="1.5" result="blur-4"/>
      <feFlood flood-color="#9ba9aa" flood-opacity="0.6"/>
      <feComposite operator="in" in2="blur-4"/>
      <feComposite in="SourceGraphic"/>
    </filter>
    <filter id="Rectángulo_5484" x="888.163" y="373.554" width="211.251" height="211.25" filterUnits="userSpaceOnUse">
      <feOffset dy="4" input="SourceAlpha"/>
      <feGaussianBlur stdDeviation="1.5" result="blur-5"/>
      <feFlood flood-color="#9ba9aa" flood-opacity="0.6"/>
      <feComposite operator="in" in2="blur-5"/>
      <feComposite in="SourceGraphic"/>
    </filter>
    <filter id="Rectángulo_5485" x="313.738" y="30.527" width="211.251" height="244.727" filterUnits="userSpaceOnUse">
      <feOffset dy="4" input="SourceAlpha"/>
      <feGaussianBlur stdDeviation="1.5" result="blur-6"/>
      <feFlood flood-color="#9ba9aa" flood-opacity="0.6"/>
      <feComposite operator="in" in2="blur-6"/>
      <feComposite in="SourceGraphic"/>
    </filter>
    <filter id="Rectángulo_5486" x="27.425" y="23.84" width="211.251" height="217.937" filterUnits="userSpaceOnUse">
      <feOffset dy="4" input="SourceAlpha"/>
      <feGaussianBlur stdDeviation="1.5" result="blur-7"/>
      <feFlood flood-color="#9ba9aa" flood-opacity="0.6"/>
      <feComposite operator="in" in2="blur-7"/>
      <feComposite in="SourceGraphic"/>
    </filter>
    <filter id="Rectángulo_5487" x="600.95" y="18.402" width="211.251" height="223.375" filterUnits="userSpaceOnUse">
      <feOffset dy="4" input="SourceAlpha"/>
      <feGaussianBlur stdDeviation="1.5" result="blur-8"/>
      <feFlood flood-color="#9ba9aa" flood-opacity="0.6"/>
      <feComposite operator="in" in2="blur-8"/>
      <feComposite in="SourceGraphic"/>
    </filter>
    <filter id="Rectángulo_5505" x="888.163" y="727.189" width="211.251" height="211.25" filterUnits="userSpaceOnUse">
      <feOffset dy="4" input="SourceAlpha"/>
      <feGaussianBlur stdDeviation="1.5" result="blur-9"/>
      <feFlood flood-color="#9ba9aa" flood-opacity="0.6"/>
      <feComposite operator="in" in2="blur-9"/>
      <feComposite in="SourceGraphic"/>
    </filter>
    <filter id="Rectángulo_5506" x="313.738" y="727.189" width="211.251" height="244.727" filterUnits="userSpaceOnUse">
      <feOffset dy="4" input="SourceAlpha"/>
      <feGaussianBlur stdDeviation="1.5" result="blur-10"/>
      <feFlood flood-color="#9ba9aa" flood-opacity="0.6"/>
      <feComposite operator="in" in2="blur-10"/>
      <feComposite in="SourceGraphic"/>
    </filter>
    <filter id="Rectángulo_5507" x="27.425" y="720.502" width="211.251" height="217.937" filterUnits="userSpaceOnUse">
      <feOffset dy="4" input="SourceAlpha"/>
      <feGaussianBlur stdDeviation="1.5" result="blur-11"/>
      <feFlood flood-color="#9ba9aa" flood-opacity="0.6"/>
      <feComposite operator="in" in2="blur-11"/>
      <feComposite in="SourceGraphic"/>
    </filter>
    <filter id="Rectángulo_5508" x="600.95" y="704.408" width="211.251" height="234.031" filterUnits="userSpaceOnUse">
      <feOffset dy="4" input="SourceAlpha"/>
      <feGaussianBlur stdDeviation="1.5" result="blur-12"/>
      <feFlood flood-color="#9ba9aa" flood-opacity="0.6"/>
      <feComposite operator="in" in2="blur-12"/>
      <feComposite in="SourceGraphic"/>
    </filter>
    <filter id="Rectángulo_5513" x="313.737" y="1052.068" width="211.251" height="230.211" filterUnits="userSpaceOnUse">
      <feOffset dy="4" input="SourceAlpha"/>
      <feGaussianBlur stdDeviation="1.5" result="blur-13"/>
      <feFlood flood-color="#9ba9aa" flood-opacity="0.6"/>
      <feComposite operator="in" in2="blur-13"/>
      <feComposite in="SourceGraphic"/>
    </filter>
    <filter id="Rectángulo_5514" x="600.949" y="1071.028" width="211.251" height="226.179" filterUnits="userSpaceOnUse">
      <feOffset dy="4" input="SourceAlpha"/>
      <feGaussianBlur stdDeviation="1.5" result="blur-14"/>
      <feFlood flood-color="#9ba9aa" flood-opacity="0.6"/>
      <feComposite operator="in" in2="blur-14"/>
      <feComposite in="SourceGraphic"/>
    </filter>
    <filter id="Rectángulo_5515" x="888.163" y="1071.028" width="211.251" height="211.25" filterUnits="userSpaceOnUse">
      <feOffset dy="4" input="SourceAlpha"/>
      <feGaussianBlur stdDeviation="1.5" result="blur-15"/>
      <feFlood flood-color="#9ba9aa" flood-opacity="0.6"/>
      <feComposite operator="in" in2="blur-15"/>
      <feComposite in="SourceGraphic"/>
    </filter>
  </defs>
  <g id="Grupo_1054982" data-name="Grupo 1054982" transform="translate(-259.59 -2933.248)">
    <g transform="matrix(1, 0, 0, 1, 259.59, 2933.25)" filter="url(#Rectángulo_5480)">
      <rect id="Rectángulo_5480-2" data-name="Rectángulo 5480" width="202.251" height="221.211" rx="7.076" transform="translate(520.49 576.3) rotate(180)" fill="#fff"/>
    </g>
    <g transform="matrix(1, 0, 0, 1, 259.59, 2933.25)" filter="url(#Rectángulo_5481)">
      <rect id="Rectángulo_5481-2" data-name="Rectángulo 5481" width="202.251" height="202.251" rx="7.076" transform="translate(892.66 31.03)" fill="#fff"/>
    </g>
    <g transform="matrix(1, 0, 0, 1, 259.59, 2933.25)" filter="url(#Rectángulo_5482)">
      <rect id="Rectángulo_5482-2" data-name="Rectángulo 5482" width="202.251" height="217.179" rx="7.076" transform="translate(605.45 374.05)" fill="#fff"/>
    </g>
    <g transform="matrix(1, 0, 0, 1, 259.59, 2933.25)" filter="url(#Rectángulo_5483)">
      <rect id="Rectángulo_5483-2" data-name="Rectángulo 5483" width="202.251" height="202.251" rx="7.076" transform="translate(31.02 374.05)" fill="#fff"/>
    </g>
    <g transform="matrix(1, 0, 0, 1, 259.59, 2933.25)" filter="url(#Rectángulo_5484)">
      <rect id="Rectángulo_5484-2" data-name="Rectángulo 5484" width="202.251" height="202.251" rx="7.076" transform="translate(1094.91 576.3) rotate(180)" fill="#fff"/>
    </g>
    <g transform="matrix(1, 0, 0, 1, 259.59, 2933.25)" filter="url(#Rectángulo_5485)">
      <rect id="Rectángulo_5485-2" data-name="Rectángulo 5485" width="202.251" height="235.727" rx="7.076" transform="translate(318.24 31.03)" fill="#fff"/>
    </g>
    <g transform="matrix(1, 0, 0, 1, 259.59, 2933.25)" filter="url(#Rectángulo_5486)">
      <rect id="Rectángulo_5486-2" data-name="Rectángulo 5486" width="202.251" height="208.937" rx="7.076" transform="translate(31.93 24.34)" fill="#fff"/>
    </g>
    <g transform="matrix(1, 0, 0, 1, 259.59, 2933.25)" filter="url(#Rectángulo_5487)">
      <rect id="Rectángulo_5487-2" data-name="Rectángulo 5487" width="202.251" height="214.376" rx="7.076" transform="translate(605.45 18.9)" fill="#fff"/>
    </g>
    <path id="Trazado_124057" data-name="Trazado 124057" d="M685.521,1281.966v86.367a21.364,21.364,0,0,1-21.34,21.34H467.75a21.364,21.364,0,0,1-21.341-21.34V1263.819h-20.3v-22.251l-28.547,28.547,28.547,28.549v-22.252h7.7v91.918a33.973,33.973,0,0,0,33.934,33.936H664.181a33.973,33.973,0,0,0,33.934-33.936V1294.56Z" transform="translate(112.987 2138.311)" fill="#025157"/>
    <path id="Trazado_124058" data-name="Trazado 124058" d="M1194.557,827.155H998.125a33.974,33.974,0,0,0-33.935,33.936v73.774l12.593,12.594V861.091a21.367,21.367,0,0,1,21.341-21.342h196.433a21.368,21.368,0,0,1,21.343,21.342v196.431a21.368,21.368,0,0,1-21.343,21.342H1094.542v.04h-4.5v76.068h-22.252l28.548,28.547,28.548-28.547h-22.251v-63.515h91.92a33.973,33.973,0,0,0,33.934-33.936V861.091A33.973,33.973,0,0,0,1194.557,827.155Z" transform="translate(157.038 2106.093)" fill="#73d8c0"/>
    <path id="Trazado_124059" data-name="Trazado 124059" d="M198.846,1142.769H395.277a33.973,33.973,0,0,1,33.935,33.935v73.775l-12.592,12.592V1176.7a21.369,21.369,0,0,0-21.343-21.343H198.846A21.368,21.368,0,0,0,177.5,1176.7v196.433a21.367,21.367,0,0,0,21.343,21.342H298.86v.041h4.5v76.067H325.61l-28.548,28.547-28.547-28.547h22.25v-63.515H198.846a33.974,33.974,0,0,1-33.935-33.935V1176.7A33.974,33.974,0,0,1,198.846,1142.769Z" transform="translate(94.9 2130.63)" fill="#73d8c0"/>
    <path id="Trazado_124060" data-name="Trazado 124060" d="M998.246,951.833,969.7,923.284v22.253H949.4v104.512a21.365,21.365,0,0,1-21.342,21.34H731.629a21.364,21.364,0,0,1-21.34-21.34V963.682l-12.593,12.593v73.774a33.974,33.974,0,0,0,33.934,33.936H928.062A33.973,33.973,0,0,0,962,1050.049V958.131h7.7v22.25Z" transform="translate(136.32 2113.566)" fill="#025157"/>
    <path id="Trazado_124061" data-name="Trazado 124061" d="M465.256,951.833l-28.548-28.549v22.253H416.414v12.593h0v91.919a21.365,21.365,0,0,1-21.343,21.34H198.641a21.365,21.365,0,0,1-21.343-21.34V945.537H164.706v104.512a33.974,33.974,0,0,0,33.935,33.936H395.073a33.973,33.973,0,0,0,33.934-33.936V958.131h7.7v22.25Z" transform="translate(94.884 2113.566)" fill="#025157"/>
    <path id="Trazado_124062" data-name="Trazado 124062" d="M731.751,959.307,703.2,930.759V953.01h-7.7v-91.92a33.973,33.973,0,0,0-33.934-33.936H465.135A33.974,33.974,0,0,0,431.2,861.091v73.773l12.593,12.595V861.091a21.366,21.366,0,0,1,21.341-21.342H661.568a21.366,21.366,0,0,1,21.34,21.342V965.6H703.2v22.25Z" transform="translate(115.602 2106.093)" fill="#73d8c0"/>
    <path id="Trazado_124063" data-name="Trazado 124063" d="M930.676,1145.439H734.243a33.973,33.973,0,0,0-33.934,33.936v91.917h-7.7v-22.251l-28.549,28.549,28.549,28.547v-22.252H712.9V1179.373a21.366,21.366,0,0,1,21.341-21.34H930.676a21.366,21.366,0,0,1,21.341,21.34v86.369l12.592-12.593v-73.774A33.973,33.973,0,0,0,930.676,1145.439Z" transform="translate(133.705 2130.837)" fill="#73d8c0"/>
    <path id="Trazado_124064" data-name="Trazado 124064" d="M1197.172,1145.438H1123.4l-12.592,12.592h86.367a21.369,21.369,0,0,1,21.343,21.343V1375.8a21.368,21.368,0,0,1-21.343,21.342H1000.74A21.367,21.367,0,0,1,979.4,1375.8V1271.292H959.1v-22.251l-28.549,28.547,28.549,28.549v-22.252h7.7V1375.8a33.974,33.974,0,0,0,33.935,33.936h196.432a33.973,33.973,0,0,0,33.934-33.936V1179.373A33.973,33.973,0,0,0,1197.172,1145.438Z" transform="translate(154.423 2130.837)" fill="#025157"/>
    <rect id="Rectángulo_5488" data-name="Rectángulo 5488" width="56.266" height="56.266" rx="3.806" transform="translate(705.82 2982.266)" fill="#73d8c0"/>
    <g id="Grupo_56322" data-name="Grupo 56322" transform="translate(722.643 2995.02)">
      <path id="Trazado_124065" data-name="Trazado 124065" d="M616.844,917.124H594.87V912.9l10.412-11.164a25.126,25.126,0,0,0,3.205-4.366,7.08,7.08,0,0,0,.951-3.305,4.972,4.972,0,0,0-1.094-3.327,3.845,3.845,0,0,0-3.106-1.293,4.017,4.017,0,0,0-3.394,1.514A6.471,6.471,0,0,0,600.683,895H594.4l-.044-.133a9.731,9.731,0,0,1,2.864-7.374,10.743,10.743,0,0,1,8.014-3.018q4.974,0,7.816,2.586a8.879,8.879,0,0,1,2.841,6.9,9.68,9.68,0,0,1-1.6,5.383A53.166,53.166,0,0,1,609,905.8l-5.725,6.236.044.11h13.529Z" transform="translate(-594.356 -884.471)" fill="#12263f"/>
    </g>
    <rect id="Rectángulo_5489" data-name="Rectángulo 5489" width="56.266" height="56.266" rx="3.806" transform="translate(302.002 3094.831)" fill="#025157"/>
    <g id="Grupo_56324" data-name="Grupo 56324" transform="translate(320.929 3108.05)">
      <g id="Grupo_56323" data-name="Grupo 56323">
        <path id="Trazado_124066" data-name="Trazado 124066" d="M234.619,1021.537h-6.455V995.051H221.62V990.5l13-1.149Z" transform="translate(-221.62 -989.348)" fill="#fff"/>
      </g>
    </g>
    <rect id="Rectángulo_5490" data-name="Rectángulo 5490" width="56.266" height="56.266" rx="3.806" transform="translate(883.031 3093.438)" fill="#025157"/>
    <g id="Grupo_56326" data-name="Grupo 56326" transform="translate(899.721 3106.229)">
      <g id="Grupo_56325" data-name="Grupo 56325">
        <path id="Trazado_124067" data-name="Trazado 124067" d="M765.828,1001.476h3.625a4.408,4.408,0,0,0,3.406-1.2,4.774,4.774,0,0,0,1.1-3.349,4.358,4.358,0,0,0-1.1-3.117,4.2,4.2,0,0,0-3.206-1.173,4.527,4.527,0,0,0-3.051,1.062,3.49,3.49,0,0,0-1.237,2.786h-6.256l-.045-.133a7.323,7.323,0,0,1,2.9-6.235,11.557,11.557,0,0,1,7.517-2.454,12.366,12.366,0,0,1,7.971,2.387,8.231,8.231,0,0,1,2.972,6.809,6.839,6.839,0,0,1-1.326,3.991,8.831,8.831,0,0,1-3.648,2.952,8.207,8.207,0,0,1,4.078,2.917,7.679,7.679,0,0,1,1.4,4.576,8.365,8.365,0,0,1-3.216,6.954,12.921,12.921,0,0,1-8.236,2.531,12.594,12.594,0,0,1-7.7-2.377,7.586,7.586,0,0,1-3.107-6.709l.044-.133h6.256a3.927,3.927,0,0,0,1.327,3.046,4.821,4.821,0,0,0,3.36,1.2,4.9,4.9,0,0,0,3.527-1.235,4.419,4.419,0,0,0,1.292-3.353,4.853,4.853,0,0,0-1.271-3.716,5.328,5.328,0,0,0-3.748-1.18h-3.625Z" transform="translate(-758.661 -987.659)" fill="#fff"/>
      </g>
    </g>
    <rect id="Rectángulo_5491" data-name="Rectángulo 5491" width="56.266" height="56.266" rx="3.806" transform="translate(993.514 3325.293)" fill="#73d8c0"/>
    <g id="Grupo_56328" data-name="Grupo 56328" transform="translate(1010.848 3338.082)">
      <g id="Grupo_56327" data-name="Grupo 56327">
        <path id="Trazado_124068" data-name="Trazado 124068" d="M874.7,1202.787a15.389,15.389,0,0,1,3.35.343,17.556,17.556,0,0,1,3.083,1.005l-1.149,4.733a23.619,23.619,0,0,0-2.6-.763,12.159,12.159,0,0,0-2.642-.254,5.768,5.768,0,0,0-4.72,2.2,8.925,8.925,0,0,0-1.647,6.09l.067.111a7.462,7.462,0,0,1,2.741-1.769,10.285,10.285,0,0,1,3.737-.641,8.162,8.162,0,0,1,6.754,3.062,12.142,12.142,0,0,1,2.442,7.816,11.157,11.157,0,0,1-3.017,8.025,10.325,10.325,0,0,1-7.816,3.161,10.814,10.814,0,0,1-8.313-3.46q-3.206-3.459-3.205-9.584v-6.279q0-6.321,3.647-10.059A12.425,12.425,0,0,1,874.7,1202.787Zm-1.482,15.941a7.324,7.324,0,0,0-3.05.573,4.627,4.627,0,0,0-1.946,1.566v2.141a10.472,10.472,0,0,0,1.383,5.869,4.242,4.242,0,0,0,3.68,2.053,3.677,3.677,0,0,0,3.2-1.821,7.8,7.8,0,0,0,1.2-4.4,7.131,7.131,0,0,0-1.217-4.325A3.831,3.831,0,0,0,873.223,1218.728Z" transform="translate(-861.772 -1202.787)" fill="#12263f"/>
      </g>
    </g>
    <rect id="Rectángulo_5492" data-name="Rectángulo 5492" width="56.266" height="56.266" rx="3.806" transform="translate(1280.728 2982.266)" fill="#73d8c0"/>
    <g id="Grupo_56330" data-name="Grupo 56330" transform="translate(1297.132 2995.484)">
      <g id="Grupo_56329" data-name="Grupo 56329" transform="translate(0)">
        <path id="Trazado_124069" data-name="Trazado 124069" d="M1147.258,905.131h3.648V910.1h-3.648v6.986h-6.433V910.1h-13.132l-.288-3.869L1140.76,884.9h6.5Zm-13.839,0h7.406V893.524l-.133-.044-.509.909Z" transform="translate(-1127.405 -884.902)" fill="#12263f"/>
      </g>
    </g>
    <rect id="Rectángulo_5493" data-name="Rectángulo 5493" width="56.266" height="56.266" rx="3.806" transform="translate(1170.245 3436.467)" fill="#025157"/>
    <g id="Grupo_56332" data-name="Grupo 56332" transform="translate(1187.818 3449.721)">
      <g id="Grupo_56331" data-name="Grupo 56331" transform="translate(0)">
        <path id="Trazado_124070" data-name="Trazado 124070" d="M1026.555,1324.3l1.857-17.929h17.952v5.173H1033.7l-.885,7.428a7.744,7.744,0,0,1,2.145-1.094,10.084,10.084,0,0,1,9.982,2.355q2.553,2.874,2.553,8a11.031,11.031,0,0,1-2.8,7.715q-2.8,3.073-8.058,3.073a12.11,12.11,0,0,1-7.605-2.431,7.685,7.685,0,0,1-3.05-6.677l.044-.111,6.212-.311a4.5,4.5,0,0,0,1.216,3.35,4.321,4.321,0,0,0,3.183,1.206,3.725,3.725,0,0,0,3.328-1.6,7.384,7.384,0,0,0,1.071-4.182,7.758,7.758,0,0,0-1.149-4.458,3.858,3.858,0,0,0-3.406-1.677,4.942,4.942,0,0,0-2.84.686,3.732,3.732,0,0,0-1.4,1.857Z" transform="translate(-1025.977 -1306.372)" fill="#fff"/>
      </g>
    </g>
    <rect id="Rectángulo_5494" data-name="Rectángulo 5494" width="56.266" height="56.266" rx="3.806" transform="translate(595.818 3436.466)" fill="#025157"/>
    <g id="Grupo_56334" data-name="Grupo 56334" transform="translate(612.29 3449.722)">
      <g id="Grupo_56333" data-name="Grupo 56333">
        <path id="Trazado_124071" data-name="Trazado 124071" d="M514.713,1311.347a37.742,37.742,0,0,0-7.063,11.3,55.455,55.455,0,0,0-2.707,12.645l-.31,3.272h-6.456l.309-3.272a46.351,46.351,0,0,1,3.228-13.032,40.213,40.213,0,0,1,6.788-10.911H491.964v-4.974h22.749Z" transform="translate(-491.964 -1306.373)" fill="#fff"/>
      </g>
    </g>
    <rect id="Rectángulo_5495" data-name="Rectángulo 5495" width="56.266" height="56.266" rx="3.806" transform="translate(419.089 3325.293)" fill="#73d8c0"/>
    <g id="Grupo_56336" data-name="Grupo 56336" transform="translate(436.247 3338.082)">
      <g id="Grupo_56335" data-name="Grupo 56335">
        <path id="Trazado_124072" data-name="Trazado 124072" d="M349.821,1211.785a7.372,7.372,0,0,1-1.272,4.267,8.459,8.459,0,0,1-3.5,2.9,9.474,9.474,0,0,1,4.046,3.095,7.558,7.558,0,0,1,1.481,4.6,8.242,8.242,0,0,1-3.03,6.864,14.345,14.345,0,0,1-15.884,0,8.228,8.228,0,0,1-3.039-6.864,7.582,7.582,0,0,1,1.469-4.609,9.564,9.564,0,0,1,4.058-3.106,8.39,8.39,0,0,1-3.516-2.885,7.371,7.371,0,0,1-1.26-4.256,8.189,8.189,0,0,1,2.808-6.643,12.823,12.823,0,0,1,14.812,0A8.159,8.159,0,0,1,349.821,1211.785Zm-5.7,14.4a4.77,4.77,0,0,0-1.26-3.463,4.353,4.353,0,0,0-3.272-1.3,4.272,4.272,0,0,0-3.261,1.3,4.843,4.843,0,0,0-1.226,3.463,4.76,4.76,0,0,0,1.237,3.475,4.395,4.395,0,0,0,3.295,1.268,4.317,4.317,0,0,0,3.249-1.279A4.771,4.771,0,0,0,344.117,1226.188Zm-.73-14.115a4.6,4.6,0,0,0-1.028-3.129,3.49,3.49,0,0,0-2.774-1.182,3.444,3.444,0,0,0-2.763,1.161,4.677,4.677,0,0,0-1,3.151,4.77,4.77,0,0,0,1.007,3.194,3.471,3.471,0,0,0,2.8,1.182,3.423,3.423,0,0,0,2.753-1.182A4.769,4.769,0,0,0,343.387,1212.073Z" transform="translate(-328.62 -1202.787)" fill="#12263f"/>
      </g>
    </g>
    <g id="Grupo_56365" data-name="Grupo 56365" transform="translate(402.193 3042.101)">
      <g id="Grupo_56346" data-name="Grupo 56346" transform="translate(7.785 19.64)">
        <g id="Grupo_56345" data-name="Grupo 56345">
          <rect id="Rectángulo_5496" data-name="Rectángulo 5496" width="3.893" height="3.893" fill="#025157"/>
        </g>
      </g>
      <g id="Grupo_56348" data-name="Grupo 56348" transform="translate(15.572 23.533)">
        <g id="Grupo_56347" data-name="Grupo 56347">
          <rect id="Rectángulo_5497" data-name="Rectángulo 5497" width="3.893" height="3.893" fill="#025157"/>
        </g>
      </g>
      <g id="Grupo_56350" data-name="Grupo 56350" transform="translate(23.358 23.533)">
        <g id="Grupo_56349" data-name="Grupo 56349">
          <rect id="Rectángulo_5498" data-name="Rectángulo 5498" width="3.893" height="3.893" fill="#025157"/>
        </g>
      </g>
      <g id="Grupo_56352" data-name="Grupo 56352" transform="translate(15.572 39.107)">
        <g id="Grupo_56351" data-name="Grupo 56351">
          <rect id="Rectángulo_5499" data-name="Rectángulo 5499" width="3.893" height="3.893" fill="#025157"/>
        </g>
      </g>
      <g id="Grupo_56354" data-name="Grupo 56354" transform="translate(23.358 39.107)">
        <g id="Grupo_56353" data-name="Grupo 56353">
          <rect id="Rectángulo_5500" data-name="Rectángulo 5500" width="3.893" height="3.893" fill="#025157"/>
        </g>
      </g>
      <g id="Grupo_56356" data-name="Grupo 56356" transform="translate(7.785 27.426)">
        <g id="Grupo_56355" data-name="Grupo 56355">
          <rect id="Rectángulo_5501" data-name="Rectángulo 5501" width="3.893" height="3.893" fill="#025157"/>
        </g>
      </g>
      <g id="Grupo_56358" data-name="Grupo 56358" transform="translate(7.785 35.214)">
        <g id="Grupo_56357" data-name="Grupo 56357">
          <rect id="Rectángulo_5502" data-name="Rectángulo 5502" width="3.893" height="3.893" fill="#025157"/>
        </g>
      </g>
      <g id="Grupo_56360" data-name="Grupo 56360" transform="translate(7.785 43)">
        <g id="Grupo_56359" data-name="Grupo 56359">
          <rect id="Rectángulo_5503" data-name="Rectángulo 5503" width="3.893" height="3.893" fill="#025157"/>
        </g>
      </g>
      <g id="Grupo_56362" data-name="Grupo 56362" transform="translate(7.785 50.786)">
        <g id="Grupo_56361" data-name="Grupo 56361">
          <rect id="Rectángulo_5504" data-name="Rectángulo 5504" width="3.893" height="3.893" fill="#025157"/>
        </g>
      </g>
      <g id="Grupo_56364" data-name="Grupo 56364">
        <g id="Grupo_56363" data-name="Grupo 56363">
          <path id="Trazado_124480" data-name="Trazado 124480" d="M339.846,965.9v-1.6l-1.567-.311a7.789,7.789,0,0,1,.008-15.26l1.559-.317V937.663l-18.167-9.508-.971,1.457a24.758,24.758,0,0,1-20.2,11.175h-3.482v53.856h34.551C340.243,964.937,339.846,966.3,339.846,965.9Zm-4.357,1.362h-7.322v3.867h6.194c-1.53,5.271-3.843,13.235-5.707,19.622H308.7v-3.894h-3.893v3.894h-3.893V944.678a27.453,27.453,0,0,0,12.916-3.53,29.56,29.56,0,0,0,9.1-7.945l13.025,6.817v5.326a11.688,11.688,0,0,0-.451,21.865Z" transform="translate(-297.022 -928.155)" fill="#025157"/>
        </g>
      </g>
    </g>
    <g id="Grupo_56366" data-name="Grupo 56366" transform="translate(639.993 3044.208)">
      <path id="Trazado_124481" data-name="Trazado 124481" d="M593.253,997.221c-12.777-12.773-23.136-30.911-24.511-33.367v-5.547a32.415,32.415,0,0,1,.7-5.331,1.259,1.259,0,0,0-2.473-.471,45.922,45.922,0,0,0-.683,4.543H545a109.9,109.9,0,0,0-2.79-13.764,3.732,3.732,0,0,1,2.193-2.159c3.251-1.206,8.765,1.265,10.615,2.32a1.264,1.264,0,0,0,1.248,0c1.852-1.055,7.367-3.529,10.619-2.32a3.744,3.744,0,0,1,2.192,2.159c-.187.719-.6,2.338-1.05,4.269a1.259,1.259,0,1,0,2.452.573c.6-2.573,1.131-4.576,1.137-4.6a1.263,1.263,0,0,0-.032-.745,6.445,6.445,0,0,0-2.68-3.464,12.976,12.976,0,0,0-4.206-8.909,1.258,1.258,0,0,0-1.9.316,22.663,22.663,0,0,0-2.842,8.405c-.192.064-.385.125-.581.194a28.948,28.948,0,0,0-3.729,1.594,29.059,29.059,0,0,0-3.73-1.594c-.2-.069-.388-.13-.581-.194a22.694,22.694,0,0,0-2.841-8.405,1.26,1.26,0,0,0-1.9-.316,12.967,12.967,0,0,0-4.205,8.909,6.452,6.452,0,0,0-2.681,3.464,1.262,1.262,0,0,0-.03.745c.029.107,2.874,10.871,2.874,14.776v5.547c-1.376,2.456-11.736,20.593-24.512,33.367a1.263,1.263,0,0,0,.094,1.866,54.15,54.15,0,0,0,8.449,5.333l0,0a1.258,1.258,0,0,0,.254,1.8,42.34,42.34,0,0,0,6.444,3.571,1.259,1.259,0,0,0,1.053-2.288,46.817,46.817,0,0,1-4.93-2.616c10.25-13.448,18.269-31.935,18.35-32.124a1.259,1.259,0,1,0-2.313-1c-.079.181-7.6,17.52-17.3,30.613a59.431,59.431,0,0,1-7.3-4.416c12.036-12.41,21.739-29.05,23.709-32.53h22.2c1.973,3.48,11.676,20.12,23.711,32.53a58.989,58.989,0,0,1-7.294,4.416c-9.7-13.093-17.228-30.432-17.306-30.613a1.259,1.259,0,1,0-2.312,1c.082.19,8.1,18.674,18.348,32.123a52.131,52.131,0,0,1-26.246,7.4,50.3,50.3,0,0,1-16.756-2.939,1.259,1.259,0,1,0-.837,2.375,52.306,52.306,0,0,0,46.407-5.505,1.26,1.26,0,0,0,.258-1.8l0,0a54.055,54.055,0,0,0,8.447-5.333,1.258,1.258,0,0,0,.094-1.866ZM564.2,933.506a10.759,10.759,0,0,1,2.062,4.879,11.583,11.583,0,0,0-3.687.1A19.531,19.531,0,0,1,564.2,933.506Zm-17.1,0a19.562,19.562,0,0,1,1.625,4.98,11.582,11.582,0,0,0-3.687-.1A10.736,10.736,0,0,1,547.095,933.506Zm19.13,29.415H545.066v-3.354h21.158Z" transform="translate(-517.668 -930.111)" fill="#73d8c0"/>
    </g>
    <g id="Grupo_56368" data-name="Grupo 56368" transform="translate(979.322 3055.756)">
      <g id="Grupo_56367" data-name="Grupo 56367">
        <path id="Trazado_124482" data-name="Trazado 124482" d="M862.478,949.91a.345.345,0,0,0,.005-.059V942.91a2.086,2.086,0,0,0-2.083-2.084H837.752a2.086,2.086,0,0,0-2.083,2.084v6.941a.342.342,0,0,0,.005.059,8.806,8.806,0,0,0-1.048.254,3.178,3.178,0,0,0-2.107,2.974v39.19a3.178,3.178,0,0,0,2.1,2.97,1.474,1.474,0,0,1,1.053,1.28c0,1.955,0,5.89,0,5.89a2.086,2.086,0,0,0,2.083,2.082H860.4a2.086,2.086,0,0,0,2.083-2.082v-5.864a1.5,1.5,0,0,1,1.053-1.292,3.206,3.206,0,0,0,2.1-2.983V953.139a3.178,3.178,0,0,0-2.107-2.974A8.913,8.913,0,0,0,862.478,949.91ZM857.7,993.354h-1.615c-.6,0-.787-.385-.448-.875A21.3,21.3,0,0,0,858.457,987c.179-.566.638-.954,1.078-.85a1.215,1.215,0,0,1,.774,1.259,17.159,17.159,0,0,1-1.113,4.949A1.715,1.715,0,0,1,857.7,993.354Zm-22.254-34.428,6.193-6.058a3.042,3.042,0,0,1,1.848-.753h.609c.6,0,.8.391.434.865a59.773,59.773,0,0,1-9.021,9.255c-.457.382-.833.2-.833-.4v-1.082A2.924,2.924,0,0,1,835.447,958.926Zm28.03,2.73v.965a.675.675,0,0,1-1,.678,21.23,21.23,0,0,1-6.07-4.545,1.567,1.567,0,0,1-.2-1.73c.109-.2.217-.4.323-.6a.7.7,0,0,1,1.219-.154,22.223,22.223,0,0,0,4.789,3.776A2.066,2.066,0,0,1,863.477,961.655Zm-28.8,11.826v-.863a2.1,2.1,0,0,1,.93-1.619c3.5-2.107,12.2-8.068,17.333-17.924a1.932,1.932,0,0,1,1.562-.962h.654a.639.639,0,0,1,.629.981A44.037,44.037,0,0,1,835.654,974.1.633.633,0,0,1,834.676,973.481Zm28.8-.68v1a.841.841,0,0,1-1.056.863,29.357,29.357,0,0,1-12.884-6.751,1.072,1.072,0,0,1-.047-1.522q.477-.521.952-1.069a.989.989,0,0,1,1.46-.064,27.451,27.451,0,0,0,10.541,6.161A1.542,1.542,0,0,1,863.477,972.8ZM847.99,969.44a31.063,31.063,0,0,0,14.428,7.429,1.357,1.357,0,0,1,1.06,1.274v.745a.888.888,0,0,1-1.064.91,33.3,33.3,0,0,1-16.985-8.112.949.949,0,0,1,.058-1.442q.462-.394.93-.817A1.181,1.181,0,0,1,847.99,969.44ZM835.533,965a60.857,60.857,0,0,0,11.652-12,2.318,2.318,0,0,1,1.688-.888h1.059c.6,0,.856.427.563.947-4.417,7.831-11.266,13.019-14.911,15.391-.5.327-.909.095-.909-.5V966.73A2.488,2.488,0,0,1,835.533,965Zm.139,11.5c.547-.24,1.2-.55,1.953-.937a1.292,1.292,0,0,1,1.576.366c.144.183.3.377.482.579a.942.942,0,0,1-.12,1.433,26.294,26.294,0,0,1-3.9,2.131.652.652,0,0,1-.988-.647v-1.433A1.769,1.769,0,0,1,835.672,976.494Zm0,5.921a28.548,28.548,0,0,0,5.533-3.017,1.486,1.486,0,0,1,1.693-.031c.1.069.193.139.292.206a.867.867,0,0,1,.143,1.374,20.915,20.915,0,0,1-7.633,4.7.737.737,0,0,1-1.026-.751V983.9A1.748,1.748,0,0,1,835.674,982.415Zm.041,5.5a22.814,22.814,0,0,0,9.525-5.837,1.517,1.517,0,0,1,1.686-.289c.218.112.442.221.67.331a.864.864,0,0,1,.356,1.336c-3.249,4.252-9.146,6.99-12.267,8.211a.7.7,0,0,1-1.01-.7v-1.688A1.526,1.526,0,0,1,835.715,987.919Zm15.876-4.1.293.108a.886.886,0,0,1,.509,1.305,23.711,23.711,0,0,1-8,7.591,4.631,4.631,0,0,1-2.014.534h-3.99c-.6,0-.63-.183-.085-.423,3.6-1.583,8.709-4.41,11.689-8.6A1.438,1.438,0,0,1,851.592,983.817Zm-3.207,8.9a22.51,22.51,0,0,0,6.095-6.806,1.261,1.261,0,0,1,1.328-.716.985.985,0,0,1,.565,1.276,21.645,21.645,0,0,1-3.438,6.047,2.508,2.508,0,0,1-1.756.837h-2.583C848,993.354,847.911,993.077,848.384,992.715Zm-7.041-19.353c.234-.156.471-.316.711-.482a1.325,1.325,0,0,1,1.633.143,34.854,34.854,0,0,0,18.723,8.963,1.3,1.3,0,0,1,1.067,1.235v.468a.854.854,0,0,1-1.058.873c-13.81-2.758-19.307-7.328-21.334-9.755A.977.977,0,0,1,841.343,973.362Zm11.782-11.443c.264-.371.527-.747.787-1.133a.828.828,0,0,1,1.339-.122,21.489,21.489,0,0,0,7.2,4.958,1.618,1.618,0,0,1,1.024,1.411v1.381a.735.735,0,0,1-1.026.747,25.593,25.593,0,0,1-9.2-5.607A1.3,1.3,0,0,1,853.125,961.918Zm10.352-4.894c0,.6-.414.831-.908.5a19.486,19.486,0,0,1-3.831-3.374,1.629,1.629,0,0,1-.413-1.436,1.521,1.521,0,0,1,1.331-.6H862.4a1.053,1.053,0,0,1,1.078,1.025v3.886Zm-24.646-14.113h20.492a1.077,1.077,0,0,1,1.078,1.078l0,4.785a1.077,1.077,0,0,1-1.078,1.078H838.831a1.077,1.077,0,0,1-1.078-1.078v-4.785A1.078,1.078,0,0,1,838.831,942.911Zm-.581,9.2c.6,0,.733.338.307.753l-3.11,3.041c-.426.417-.771.272-.771-.324v-2.445a1.053,1.053,0,0,1,1.078-1.025Zm-.5,49.276V996.6a1.077,1.077,0,0,1,1.078-1.078h20.492A1.077,1.077,0,0,1,860.4,996.6l0,4.786a1.077,1.077,0,0,1-1.078,1.078H838.831A1.077,1.077,0,0,1,837.753,1001.391Zm24.01-8.037c-.351,0-.457-.448-.267-1.012a19,19,0,0,0,.939-4.49c.047-.594.274-1.034.547-.983s.5.57.5,1.166v4.294a1.053,1.053,0,0,1-1.078,1.025Z" transform="translate(-832.52 -940.826)" fill="#025157"/>
      </g>
    </g>
    <g id="Grupo_56370" data-name="Grupo 56370" transform="translate(1187.688 2981.923)">
      <g id="Grupo_56369" data-name="Grupo 56369">
        <path id="Trazado_124483" data-name="Trazado 124483" d="M1084.325,872.319h-41.643a1.774,1.774,0,0,0-1.774,1.774v21.588l-5.427-11.638a1.775,1.775,0,0,0-2.358-.859,9.34,9.34,0,0,0-4.52,12.42l7.959,17.069-3.169,6.857a6.508,6.508,0,1,0,3.218,1.5l1.914-4.143.876,1.879a1.775,1.775,0,0,0,1.609,1.025c.53,0,.236.072,6-2.617l1.855,3.978a6.506,6.506,0,1,0,3.216-1.5l-2.32-4.978h34.562a1.774,1.774,0,0,0,1.774-1.775v-38.8a1.774,1.774,0,0,0-1.774-1.774ZM1035.041,927.2a2.957,2.957,0,1,1-1.43-3.931A2.954,2.954,0,0,1,1035.041,927.2Zm40.41-47.123v3.478a1.774,1.774,0,0,0,3.549,0v-5.791a18.175,18.175,0,0,1,3.549-1.32v34.1a18.175,18.175,0,0,1-3.549-1.32v-6.737a1.774,1.774,0,1,0-3.549,0v4.424a17.287,17.287,0,0,1,0-26.83Zm-.286-4.212a20.9,20.9,0,0,0-6.786,28.156h-5.509a1.775,1.775,0,0,0,0,3.549h8.123a21.577,21.577,0,0,0,4.173,3.549h-25.578l1.655-3.549h4.688a1.775,1.775,0,1,0,0-3.549H1052.9l3.982-8.539a9.356,9.356,0,0,0-4.521-12.419,1.775,1.775,0,0,0-2.358.858l-5.545,11.893V875.868Zm-28.275,32.643-2.219-4.757,7.68-16.469a5.81,5.81,0,0,1,1.314,6.7Zm-5.024,7.144L1031.818,894.1a5.8,5.8,0,0,1,1.312-6.7l12.383,26.556Zm13.934,9.166a2.958,2.958,0,1,1-3.933-1.429A2.963,2.963,0,0,1,1055.8,924.821Z" transform="translate(-1025.855 -872.319)" fill="#73d8c0"/>
        <path id="Trazado_124484" data-name="Trazado 124484" d="M1073.649,895.46a1.774,1.774,0,0,0,1.774-1.774V889.9a1.775,1.775,0,0,0-3.549,0v3.786A1.774,1.774,0,0,0,1073.649,895.46Z" transform="translate(-1022.278 -871.09)" fill="#73d8c0"/>
      </g>
    </g>
    <g transform="matrix(1, 0, 0, 1, 259.59, 2933.25)" filter="url(#Rectángulo_5505)">
      <rect id="Rectángulo_5505-2" data-name="Rectángulo 5505" width="202.251" height="202.251" rx="7.076" transform="translate(892.66 727.69)" fill="#fff"/>
    </g>
    <g transform="matrix(1, 0, 0, 1, 259.59, 2933.25)" filter="url(#Rectángulo_5506)">
      <rect id="Rectángulo_5506-2" data-name="Rectángulo 5506" width="202.251" height="235.727" rx="7.076" transform="translate(318.24 727.69)" fill="#fff"/>
    </g>
    <g transform="matrix(1, 0, 0, 1, 259.59, 2933.25)" filter="url(#Rectángulo_5507)">
      <rect id="Rectángulo_5507-2" data-name="Rectángulo 5507" width="202.251" height="208.937" rx="7.076" transform="translate(31.93 721)" fill="#fff"/>
    </g>
    <g transform="matrix(1, 0, 0, 1, 259.59, 2933.25)" filter="url(#Rectángulo_5508)">
      <rect id="Rectángulo_5508-2" data-name="Rectángulo 5508" width="202.251" height="225.031" rx="7.076" transform="translate(605.45 704.91)" fill="#fff"/>
    </g>
    <path id="Trazado_124485" data-name="Trazado 124485" d="M1194.557,1473.564H998.125A33.973,33.973,0,0,0,964.19,1507.5v73.774l12.593,12.593V1507.5a21.367,21.367,0,0,1,21.341-21.343h196.433A21.368,21.368,0,0,1,1215.9,1507.5v196.431a21.368,21.368,0,0,1-21.343,21.343H1094.542v.04h-4.5v76.067h-22.252l28.548,28.547,28.548-28.547h-22.251v-63.514h91.92a33.973,33.973,0,0,0,33.934-33.936V1507.5A33.973,33.973,0,0,0,1194.557,1473.564Z" transform="translate(157.038 2156.347)" fill="#73d8c0"/>
    <path id="Trazado_124486" data-name="Trazado 124486" d="M998.246,1598.242l-28.549-28.55v22.253H949.4v104.512a21.365,21.365,0,0,1-21.342,21.34H731.629a21.364,21.364,0,0,1-21.34-21.34v-86.367l-12.593,12.594v73.773a33.974,33.974,0,0,0,33.934,33.936H928.062A33.973,33.973,0,0,0,962,1696.458v-91.919h7.7v22.251Z" transform="translate(136.32 2163.82)" fill="#025157"/>
    <path id="Trazado_124487" data-name="Trazado 124487" d="M731.751,1605.716,703.2,1577.168v22.251h-7.7V1507.5a33.973,33.973,0,0,0-33.934-33.936H465.135A33.973,33.973,0,0,0,431.2,1507.5v73.773l12.593,12.594V1507.5a21.366,21.366,0,0,1,21.341-21.343H661.568a21.366,21.366,0,0,1,21.34,21.343v104.512H703.2v22.251Z" transform="translate(115.602 2156.347)" fill="#73d8c0"/>
    <rect id="Rectángulo_5509" data-name="Rectángulo 5509" width="56.266" height="56.266" rx="3.806" transform="translate(705.82 3678.928)" fill="#73d8c0"/>
    <g id="Grupo_56371" data-name="Grupo 56371" transform="translate(711.759 3691.683)">
      <path id="Trazado_124488" data-name="Trazado 124488" d="M597.257,1563.5H590.8v-26.485h-6.544v-4.555l13-1.149Z" transform="translate(-584.258 -1530.846)" fill="#12263f"/>
      <path id="Trazado_124489" data-name="Trazado 124489" d="M628.579,1551q0,6.389-2.929,9.694a11.222,11.222,0,0,1-15.907,0q-2.939-3.3-2.94-9.694v-7.1q0-6.366,2.929-9.694a11.156,11.156,0,0,1,15.9,0q2.95,3.329,2.952,9.694Zm-6.434-7.766a10.578,10.578,0,0,0-1.15-5.6,3.988,3.988,0,0,0-6.632-.011q-1.127,1.767-1.127,5.611v8.37q0,3.888,1.139,5.655a3.732,3.732,0,0,0,3.349,1.767,3.667,3.667,0,0,0,3.295-1.767q1.127-1.767,1.127-5.655Z" transform="translate(-582.505 -1530.88)" fill="#12263f"/>
    </g>
    <rect id="Rectángulo_5510" data-name="Rectángulo 5510" width="56.266" height="56.266" rx="3.806" transform="translate(302.002 3791.494)" fill="#025157"/>
    <g id="Grupo_56373" data-name="Grupo 56373" transform="translate(318.961 3804.248)">
      <g id="Grupo_56372" data-name="Grupo 56372">
        <path id="Trazado_124490" data-name="Trazado 124490" d="M229.477,1663.469a5.189,5.189,0,0,0,4.145-1.883,8.085,8.085,0,0,0,1.6-5.391V1654.6a7.172,7.172,0,0,1-2.576,2.078,7.405,7.405,0,0,1-3.216.708,8.919,8.919,0,0,1-7.064-2.929,11.579,11.579,0,0,1-2.576-7.926,11.144,11.144,0,0,1,3.051-8.014,11.08,11.08,0,0,1,15.763.2q3.073,3.395,3.073,9.54v7.606q0,5.858-3.437,9.219a12.024,12.024,0,0,1-8.766,3.36,18.206,18.206,0,0,1-3.46-.345,15.588,15.588,0,0,1-3.305-1.01l.751-4.682a15.58,15.58,0,0,0,2.842.807A17.8,17.8,0,0,0,229.477,1663.469Zm1.039-10.811a6.145,6.145,0,0,0,2.786-.6,5.236,5.236,0,0,0,1.923-1.592v-2.962a9.629,9.629,0,0,0-1.237-5.373,3.858,3.858,0,0,0-3.361-1.835,3.7,3.7,0,0,0-3.172,1.813,7.709,7.709,0,0,0-1.228,4.422,7.914,7.914,0,0,0,1.118,4.433A3.58,3.58,0,0,0,230.516,1652.658Z" transform="translate(-219.794 -1635.326)" fill="#fff"/>
      </g>
    </g>
    <rect id="Rectángulo_5511" data-name="Rectángulo 5511" width="56.266" height="56.266" rx="3.806" transform="translate(883.031 3790.102)" fill="#025157"/>
    <g id="Grupo_56375" data-name="Grupo 56375" transform="translate(888.969 3803.356)">
      <g id="Grupo_56374" data-name="Grupo 56374" transform="translate(0 0)">
        <path id="Trazado_124491" data-name="Trazado 124491" d="M761.685,1666.688H755.23V1640.2h-6.545v-4.555l13-1.15Z" transform="translate(-748.685 -1634.498)" fill="#fff"/>
        <path id="Trazado_124492" data-name="Trazado 124492" d="M785.788,1666.688h-6.455V1640.2h-6.544v-4.555l13-1.15Z" transform="translate(-746.811 -1634.498)" fill="#fff"/>
      </g>
    </g>
    <rect id="Rectángulo_5512" data-name="Rectángulo 5512" width="56.266" height="56.266" rx="3.806" transform="translate(1280.728 3678.928)" fill="#73d8c0"/>
    <g id="Grupo_56377" data-name="Grupo 56377" transform="translate(1286.664 3691.683)">
      <g id="Grupo_56376" data-name="Grupo 56376" transform="translate(0 0)">
        <path id="Trazado_124493" data-name="Trazado 124493" d="M1130.692,1563.5h-6.456v-26.485h-6.544v-4.555l13-1.149Z" transform="translate(-1117.692 -1530.846)" fill="#12263f"/>
        <path id="Trazado_124494" data-name="Trazado 124494" d="M1162.331,1563.533h-21.975v-4.223l10.412-11.164a25.114,25.114,0,0,0,3.206-4.367,7.079,7.079,0,0,0,.951-3.3,4.965,4.965,0,0,0-1.1-3.327,3.842,3.842,0,0,0-3.106-1.294,4.012,4.012,0,0,0-3.393,1.515,6.458,6.458,0,0,0-1.161,4.034h-6.28l-.044-.133a9.732,9.732,0,0,1,2.865-7.373,10.735,10.735,0,0,1,8.013-3.018q4.974,0,7.816,2.587a8.877,8.877,0,0,1,2.841,6.9,9.684,9.684,0,0,1-1.6,5.383,53.2,53.2,0,0,1-5.3,6.467l-5.725,6.235.044.11h13.53Z" transform="translate(-1115.97 -1530.88)" fill="#12263f"/>
      </g>
    </g>
    <g id="Grupo_56384" data-name="Grupo 56384" transform="translate(1271.856 3429.465)">
      <g id="Grupo_56383" data-name="Grupo 56383">
        <g id="Grupo_56382" data-name="Grupo 56382">
          <path id="Trazado_124633" data-name="Trazado 124633" d="M1127.281,1350.535h-3.373v-13.163h2.662a1.405,1.405,0,0,0,1.37-1.092l1.068-4.673a1.406,1.406,0,0,0-2.741-.626l-.818,3.58h-12.076l-2.226-9.746a22.112,22.112,0,0,1-.555-4.922,7.286,7.286,0,0,1,2.679-5.661h12.282a7.279,7.279,0,0,1,2.624,4.766,1.4,1.4,0,0,0,1.392,1.234,1.343,1.343,0,0,0,.173-.011,1.405,1.405,0,0,0,1.223-1.566,10.067,10.067,0,0,0-3.267-6.282l3.866-12.253a4.88,4.88,0,0,0-3.389-6.183l-2.238-.6a2.376,2.376,0,0,1-1.757-2.291v-2.062a1.406,1.406,0,0,0-1.405-1.405h-6.695a1.4,1.4,0,0,0-1.4,1.405v2.062a2.377,2.377,0,0,1-1.758,2.291l-2.239.6a4.878,4.878,0,0,0-3.388,6.182l3.858,12.226a10.074,10.074,0,0,0-3.37,7.548,24.9,24.9,0,0,0,.626,5.548l2.475,10.839a1.406,1.406,0,0,0,1.37,1.092h2.662v13.163h-3.372a7.6,7.6,0,0,0-7.589,7.589,1.406,1.406,0,0,0,1.406,1.405h28.105a1.406,1.406,0,0,0,1.406-1.405,7.6,7.6,0,0,0-7.589-7.589Zm-2.229-39.114h-11.246l-2.909-9.216a6.513,6.513,0,0,1,7.4,2.159,1.405,1.405,0,0,0,2.228,0,6.514,6.514,0,0,1,7.432-2.147Zm-7.565-21.032h3.883v.656a5.187,5.187,0,0,0,.146,1.218l-2.106,2.106-2.077-2.077a5.2,5.2,0,0,0,.152-1.247v-.656Zm-7.357,7.267a2.054,2.054,0,0,1,1.279-1l2.238-.6a5.168,5.168,0,0,0,2.223-1.248l2.547,2.547a1.405,1.405,0,0,0,1.987,0l2.564-2.564a5.165,5.165,0,0,0,2.241,1.265l2.239.6a2.072,2.072,0,0,1,1.438,2.622l-.082.259a9.343,9.343,0,0,0-9.392,1.9,9.261,9.261,0,0,0-6.29-2.434,9.379,9.379,0,0,0-3.071.518l-.079-.247a2.053,2.053,0,0,1,.159-1.618Zm7.594,39.716h3.372v13.163h-3.372Zm-10.75,19.346a4.788,4.788,0,0,1,4.568-3.373h15.739a4.786,4.786,0,0,1,4.566,3.373Z" transform="translate(-1103.953 -1287.578)" fill="#025157"/>
          <path id="Trazado_124634" data-name="Trazado 124634" d="M1126.344,1321.526a1.4,1.4,0,1,0,.993-.412A1.419,1.419,0,0,0,1126.344,1321.526Z" transform="translate(-1102.244 -1284.971)" fill="#025157"/>
        </g>
      </g>
    </g>
    <g id="Grupo_56386" data-name="Grupo 56386" transform="translate(902.595 3346.043)">
      <g id="Grupo_56385" data-name="Grupo 56385" transform="translate(0 0)">
        <path id="Trazado_124635" data-name="Trazado 124635" d="M839.519,1221.105a1.145,1.145,0,0,0-1.618,0l-7.1,7.1a6.191,6.191,0,0,1-8.642.113c.121-.113.234-.222.337-.324a10.583,10.583,0,0,0,3.129-7.422,10.241,10.241,0,0,0-3.007-7.393,10.489,10.489,0,0,0-14.816.122c-.361.36-.788.841-1.26,1.418a16.787,16.787,0,0,0-6.616-1.346h-.1a16.83,16.83,0,0,0-11.9,28.732c1.251,1.252,2.969,2.969,4.849,4.848l-27.267,23.342,20.872-24.382a1.144,1.144,0,0,0-1.738-1.487l-22.8,26.635a2.058,2.058,0,0,0,2.9,2.9l29.656-25.386,10.745,10.738c-1.915,1.915-6.158,6.534-6.158,9.862a7.789,7.789,0,1,0,15.578,0c0-3.328-4.244-7.947-6.158-9.862l1.251-1.251a8.122,8.122,0,0,0,0-11.488l-1.452-1.451a1.144,1.144,0,0,0-1.618,1.618l1.452,1.451a5.835,5.835,0,0,1,0,8.252l-1.264,1.264c-2.739-2.736-11.761-11.753-16.432-16.424l5.591-6.532a49.553,49.553,0,0,0,6-8.819,70.209,70.209,0,0,1,5.264-8.331,14.614,14.614,0,0,1,3.013,2.318l3.809,3.809L813,1224.75a1.382,1.382,0,0,1-1.951,0,1.482,1.482,0,0,1-.109-.122,1.144,1.144,0,0,0-1.607-.189,1.222,1.222,0,0,0,.1,1.928,3.672,3.672,0,0,0,5.186,0l3.587-3.588a3.666,3.666,0,0,0-5.185-5.185l-.946.945-.24-.24a16.93,16.93,0,0,0-3.2-2.514c.291-.342.558-.635.793-.871a8.2,8.2,0,0,1,11.579-.122,7.965,7.965,0,0,1,2.338,5.755,8.307,8.307,0,0,1-2.458,5.825,56.966,56.966,0,0,1-11.015,7.488,49.485,49.485,0,0,0-8.819,6l-3.554,3.042a1.144,1.144,0,0,0,1.488,1.739l3.554-3.042a47.316,47.316,0,0,1,8.411-5.725,69.661,69.661,0,0,0,9.454-6.083l.025.026a8.484,8.484,0,0,0,12,0l7.1-7.1a1.144,1.144,0,0,0,0-1.619Zm-24.886-1.892a1.379,1.379,0,0,1,1.951,1.95l-.945.946-1.951-1.951Zm-7.862,55.461a5.507,5.507,0,0,1-5.5-5.5c0-2.073,3.108-5.87,5.5-8.26,2.393,2.387,5.5,6.184,5.5,8.26a5.507,5.507,0,0,1-5.5,5.5Zm-6.853-49.823a47.282,47.282,0,0,1-5.726,8.411l-5.446,6.362a14.543,14.543,0,0,1,11.078-23.965h.1a14.53,14.53,0,0,1,5.165.941,72,72,0,0,0-5.175,8.251Z" transform="translate(-761.328 -1210.173)" fill="#73d8c0"/>
      </g>
    </g>
    <g id="Grupo_56390" data-name="Grupo 56390" transform="translate(656.163 3347.346)">
      <g id="Grupo_56389" data-name="Grupo 56389">
        <g id="Grupo_56388" data-name="Grupo 56388">
          <g id="Grupo_56387" data-name="Grupo 56387">
            <path id="Trazado_124636" data-name="Trazado 124636" d="M591.591,1250.779a1.347,1.347,0,0,0-.947-.355,6.44,6.44,0,0,1-5.087-2.011c-3.549-3.667-3.194-10.885-3.194-11,0-13.133,3.313-19.522,3.432-19.522a1.652,1.652,0,0,0,0-1.065,1.254,1.254,0,0,0-.829-.709l-22.48-4.732a1.427,1.427,0,0,0-.946.236,1.078,1.078,0,0,0-.473.947,11.27,11.27,0,0,1-3.668,8.756c-7.335,6.743-23.307,5.443-23.426,5.443a1.34,1.34,0,0,0-.946.355,1.071,1.071,0,0,0-.354.828V1280a1.117,1.117,0,0,0,1.182,1.182h27.212a1.152,1.152,0,0,0,1.183-.946l2.484-15.38,3.432,15.38a1.152,1.152,0,0,0,1.183.946h17.746a1.258,1.258,0,0,0,1.183-1.065l3.549-28.394A.922.922,0,0,0,591.591,1250.779Zm-5.561,28.041H570.295l-4.5-20.35a1.212,1.212,0,0,0-2.366,0l-3.313,20.35H535.038v-34.311h1.183a1.183,1.183,0,1,0,0-2.366h-1.183v-12.9c4.141.118,17.037.118,23.9-6.27a13.607,13.607,0,0,0,4.378-8.992l19.758,4.259c-1.065,2.6-3.076,8.873-3.076,19.167a24.438,24.438,0,0,0,.357,4.732h-1.54a1.183,1.183,0,1,0,0,2.366H580.9a13.093,13.093,0,0,0,3,5.443,8.613,8.613,0,0,0,5.443,2.721Z" transform="translate(-532.672 -1211.382)" fill="#025157"/>
            <path id="Trazado_124637" data-name="Trazado 124637" d="M547.37,1239.924h-4.732a1.183,1.183,0,1,0,0,2.366h4.732a1.183,1.183,0,0,0,0-2.366Z" transform="translate(-531.989 -1209.163)" fill="#025157"/>
            <path id="Trazado_124638" data-name="Trazado 124638" d="M569.325,1239.924h-4.732a1.183,1.183,0,1,0,0,2.366h4.732a1.183,1.183,0,1,0,0-2.366Z" transform="translate(-530.282 -1209.163)" fill="#025157"/>
            <path id="Trazado_124639" data-name="Trazado 124639" d="M558.347,1239.924h-4.732a1.183,1.183,0,0,0,0,2.366h4.732a1.183,1.183,0,1,0,0-2.366Z" transform="translate(-531.136 -1209.163)" fill="#025157"/>
          </g>
        </g>
      </g>
    </g>
    <g id="Grupo_56403" data-name="Grupo 56403" transform="translate(313.272 3334.008)">
      <g id="Grupo_56392" data-name="Grupo 56392" transform="translate(0 15.149)">
        <g id="Grupo_56391" data-name="Grupo 56391">
          <path id="Trazado_124640" data-name="Trazado 124640" d="M260.682,1223.186a5.979,5.979,0,1,0-10.228-3.315,1.185,1.185,0,0,0-.058.369v7.176h-4.951a4.392,4.392,0,0,0-4.218-3.189h-7.973a4.393,4.393,0,0,0-4.206,3.146,13.172,13.172,0,0,1-12.14-13.113,1.2,1.2,0,1,0-2.391,0,15.568,15.568,0,0,0,14.352,15.5v9.576a10.745,10.745,0,0,0-2.393,6.762v24.771a1.2,1.2,0,0,0,1.2,1.2h3.588v3.842l-3.966,1.323a1.2,1.2,0,1,0,.757,2.268l4.784-1.594a1.2,1.2,0,0,0,.817-1.135v-4.7h1.2a1.2,1.2,0,0,0,1.2-1.2v-22.724h2.392V1261.3a1.2,1.2,0,0,0,2.393,0v-13.156h1.2a1.2,1.2,0,0,0,0-2.391h-9.568a1.2,1.2,0,1,0,0,2.391h1.2v21.528h-4.783V1246.1a8.357,8.357,0,0,1,2.093-5.534,1.2,1.2,0,0,0,.3-.791v-3.588h11.96v3.588a1.192,1.192,0,0,0,.3.791,8.362,8.362,0,0,1,2.093,5.534v23.574h-4.784v-3.588a1.2,1.2,0,0,0-2.393,0v4.784a1.2,1.2,0,0,0,1.2,1.2h1.2v4.7a1.2,1.2,0,0,0,.818,1.135l4.784,1.594a1.185,1.185,0,0,0,.378.063,1.2,1.2,0,0,0,.377-2.331l-3.966-1.323v-3.842h3.588a1.2,1.2,0,0,0,1.2-1.2V1246.1a10.75,10.75,0,0,0-2.391-6.762v-9.53H250.4v17.143a1.2,1.2,0,0,0,1.2,1.2h4.784a1.2,1.2,0,0,0,1.2-1.2v-17.143h1.2a3.587,3.587,0,0,0,1.914-6.621Zm-17.463,10.608H231.26v-5.183a2,2,0,0,1,1.994-1.994h7.973a2,2,0,0,1,1.993,1.994Zm11.961,11.96h-2.393v-2.393h2.393Zm0-4.784h-2.393v-17.146a5.968,5.968,0,0,0,2.393,1.079Zm3.588-13.555h-1.2v-2.392h1.2a1.2,1.2,0,1,1,0,2.392Zm-2.393-4.784a3.588,3.588,0,1,1,3.589-3.588A3.592,3.592,0,0,1,256.375,1222.631Z" transform="translate(-214.516 -1213.063)" fill="#73d8c0"/>
        </g>
      </g>
      <g id="Grupo_56394" data-name="Grupo 56394" transform="translate(23.92 40.664)">
        <g id="Grupo_56393" data-name="Grupo 56393">
          <circle id="Elipse_4074" data-name="Elipse 4074" cx="1.196" cy="1.196" r="1.196" fill="#73d8c0"/>
        </g>
      </g>
      <g id="Grupo_56396" data-name="Grupo 56396" transform="translate(19.136 40.664)">
        <g id="Grupo_56395" data-name="Grupo 56395">
          <circle id="Elipse_4075" data-name="Elipse 4075" cx="1.196" cy="1.196" r="1.196" fill="#73d8c0"/>
        </g>
      </g>
      <g id="Grupo_56398" data-name="Grupo 56398" transform="translate(40.664 19.933)">
        <g id="Grupo_56397" data-name="Grupo 56397">
          <circle id="Elipse_4076" data-name="Elipse 4076" cx="1.196" cy="1.196" r="1.196" fill="#73d8c0"/>
        </g>
      </g>
      <g id="Grupo_56400" data-name="Grupo 56400" transform="translate(46.166 21.528)">
        <g id="Grupo_56399" data-name="Grupo 56399">
          <path id="Trazado_124641" data-name="Trazado 124641" d="M278.242,1234.116v-10.749a4.39,4.39,0,0,0-4.385-4.385h-7.973a4.39,4.39,0,0,0-4.385,4.385v10.749c-1,1.34-4.146,6.249-4.146,14.765a1.193,1.193,0,0,0,.571,1.02c.162.1,3.855,2.311,10.75,2.547v12.506a3.594,3.594,0,0,0-2.393,3.383v7.176a1.2,1.2,0,0,1-1.2,1.2,1.2,1.2,0,1,0,0,2.391,3.591,3.591,0,0,0,3.588-3.588v-3.588h2.392v3.588a3.592,3.592,0,0,0,3.589,3.588,1.2,1.2,0,0,0,0-2.391,1.2,1.2,0,0,1-1.2-1.2v-7.176a3.594,3.594,0,0,0-2.393-3.383v-12.506c6.9-.236,10.589-2.448,10.752-2.547a1.2,1.2,0,0,0,.571-1.02C282.388,1240.365,279.238,1235.456,278.242,1234.116Zm-14.352-10.749a2,2,0,0,1,1.994-1.994h7.973a2,2,0,0,1,1.993,1.994v.4H263.89Zm0,2.79h11.96v2.393H263.89Zm0,4.784h11.96v2.393H263.89Zm7.176,38.591h-2.392v-1.2a1.2,1.2,0,1,1,2.392,0Zm-1.2-19.454a24.326,24.326,0,0,1-10.118-1.922c.164-7,2.656-11.168,3.538-12.431h13.158c.885,1.267,3.375,5.438,3.539,12.431A24.342,24.342,0,0,1,269.87,1250.078Z" transform="translate(-257.352 -1218.982)" fill="#73d8c0"/>
        </g>
      </g>
      <g id="Grupo_56402" data-name="Grupo 56402" transform="translate(10.764)">
        <g id="Grupo_56401" data-name="Grupo 56401">
          <path id="Trazado_124642" data-name="Trazado 124642" d="M246.671,1206.738a5.978,5.978,0,0,0-5.972-5.979,5.988,5.988,0,0,0-8.464,0,10.513,10.513,0,0,0-1,20.332,8.349,8.349,0,0,0,10.449,0,9.147,9.147,0,0,0,4.983-14.352Zm-10.207,13.8a5.98,5.98,0,1,1,5.979-5.98A5.987,5.987,0,0,1,236.464,1220.535Zm8.326-6.857a8.372,8.372,0,0,0-16.652,0,3.584,3.584,0,0,1,.094-5.5,1.2,1.2,0,0,0,.438-1.056,3.585,3.585,0,0,1,3.948-3.948,1.193,1.193,0,0,0,1.056-.437,3.585,3.585,0,0,1,5.583,0,1.2,1.2,0,0,0,1.056.437,3.586,3.586,0,0,1,3.948,3.948,1.2,1.2,0,0,0,.438,1.056,3.583,3.583,0,0,1,.093,5.5Z" transform="translate(-224.504 -1199.007)" fill="#73d8c0"/>
        </g>
      </g>
    </g>
    <g transform="matrix(1, 0, 0, 1, 259.59, 2933.25)" filter="url(#Rectángulo_5513)">
      <rect id="Rectángulo_5513-2" data-name="Rectángulo 5513" width="202.251" height="221.211" rx="7.076" transform="translate(520.49 1273.78) rotate(180)" fill="#fff"/>
    </g>
    <g transform="matrix(1, 0, 0, 1, 259.59, 2933.25)" filter="url(#Rectángulo_5514)">
      <rect id="Rectángulo_5514-2" data-name="Rectángulo 5514" width="202.251" height="217.179" rx="7.076" transform="translate(605.45 1071.53)" fill="#fff"/>
    </g>
    <g transform="matrix(1, 0, 0, 1, 259.59, 2933.25)" filter="url(#Rectángulo_5515)">
      <rect id="Rectángulo_5515-2" data-name="Rectángulo 5515" width="202.251" height="202.251" rx="7.076" transform="translate(1094.91 1273.78) rotate(180)" fill="#fff"/>
    </g>
    <path id="Trazado_124643" data-name="Trazado 124643" d="M682.907,1927.523v86.367a21.364,21.364,0,0,1-21.34,21.341H465.135a21.365,21.365,0,0,1-21.341-21.341V1909.376L431.2,1921.969v91.918a33.973,33.973,0,0,0,33.934,33.936H661.566a33.973,33.973,0,0,0,33.934-33.936v-73.771Z" transform="translate(115.602 2190.228)" fill="#025157"/>
    <path id="Trazado_124644" data-name="Trazado 124644" d="M930.676,1792.6H734.243a33.973,33.973,0,0,0-33.934,33.936v91.917h-7.7V1896.2l-28.549,28.549,28.549,28.547v-22.252H712.9V1826.535a21.365,21.365,0,0,1,21.341-21.34H930.676a21.365,21.365,0,0,1,21.341,21.34V1912.9l12.592-12.593v-73.774A33.973,33.973,0,0,0,930.676,1792.6Z" transform="translate(133.705 2181.149)" fill="#73d8c0"/>
    <path id="Trazado_124645" data-name="Trazado 124645" d="M1197.172,1792.6H1123.4l-12.592,12.592h86.367a21.368,21.368,0,0,1,21.343,21.343v196.432a21.368,21.368,0,0,1-21.343,21.342H1000.74a21.367,21.367,0,0,1-21.341-21.342V1918.454H959.1V1896.2l-28.549,28.547L959.1,1953.3v-22.252h7.7v91.919a33.973,33.973,0,0,0,33.935,33.936h196.432a33.973,33.973,0,0,0,33.934-33.936V1826.535A33.973,33.973,0,0,0,1197.172,1792.6Z" transform="translate(154.423 2181.149)" fill="#025157"/>
    <rect id="Rectángulo_5516" data-name="Rectángulo 5516" width="56.266" height="56.266" rx="3.806" transform="translate(993.514 4022.767)" fill="#73d8c0"/>
    <g id="Grupo_56405" data-name="Grupo 56405" transform="translate(999.451 4036.021)">
      <g id="Grupo_56404" data-name="Grupo 56404" transform="translate(0 0)">
        <path id="Trazado_124646" data-name="Trazado 124646" d="M864.2,1882.569h-6.456v-26.484H851.2v-4.555l13-1.15Z" transform="translate(-851.197 -1850.38)" fill="#12263f"/>
        <path id="Trazado_124647" data-name="Trazado 124647" d="M892.815,1870.609h3.647v4.974h-3.647v6.986h-6.433v-6.986H873.249l-.287-3.869,13.353-21.334h6.5Zm-13.839,0h7.406V1859l-.133-.044-.509.909Z" transform="translate(-849.505 -1850.38)" fill="#12263f"/>
      </g>
    </g>
    <rect id="Rectángulo_5517" data-name="Rectángulo 5517" width="56.266" height="56.266" rx="3.806" transform="translate(1170.245 4133.941)" fill="#025157"/>
    <g id="Grupo_56407" data-name="Grupo 56407" transform="translate(1176.181 4146.73)">
      <g id="Grupo_56406" data-name="Grupo 56406" transform="translate(0)">
        <path id="Trazado_124648" data-name="Trazado 124648" d="M1028.178,1985.723h-6.454v-26.484h-6.545v-4.556l13-1.149Z" transform="translate(-1015.179 -1953.069)" fill="#fff"/>
        <path id="Trazado_124649" data-name="Trazado 124649" d="M1044.374,1966.92H1048a4.4,4.4,0,0,0,3.406-1.2,4.773,4.773,0,0,0,1.1-3.35,4.36,4.36,0,0,0-1.1-3.117,4.2,4.2,0,0,0-3.206-1.172,4.53,4.53,0,0,0-3.051,1.061,3.491,3.491,0,0,0-1.238,2.786h-6.255l-.045-.132a7.324,7.324,0,0,1,2.9-6.235,11.557,11.557,0,0,1,7.517-2.454,12.362,12.362,0,0,1,7.97,2.388,8.228,8.228,0,0,1,2.974,6.809,6.835,6.835,0,0,1-1.326,3.99,8.83,8.83,0,0,1-3.648,2.952,8.207,8.207,0,0,1,4.078,2.919,7.675,7.675,0,0,1,1.4,4.576,8.365,8.365,0,0,1-3.216,6.953,12.922,12.922,0,0,1-8.236,2.531,12.606,12.606,0,0,1-7.7-2.376,7.59,7.59,0,0,1-3.106-6.71l.044-.133h6.256a3.922,3.922,0,0,0,1.327,3.046,4.821,4.821,0,0,0,3.36,1.2,4.9,4.9,0,0,0,3.526-1.235,4.417,4.417,0,0,0,1.293-3.353,4.855,4.855,0,0,0-1.271-3.717,5.332,5.332,0,0,0-3.748-1.18h-3.625Z" transform="translate(-1013.466 -1953.103)" fill="#fff"/>
      </g>
    </g>
    <rect id="Rectángulo_5518" data-name="Rectángulo 5518" width="56.266" height="56.266" rx="3.806" transform="translate(595.818 4133.939)" fill="#025157"/>
    <g id="Grupo_56409" data-name="Grupo 56409" transform="translate(601.755 4147.196)">
      <g id="Grupo_56408" data-name="Grupo 56408">
        <path id="Trazado_124650" data-name="Trazado 124650" d="M495.189,1985.724h-6.456v-26.484h-6.544v-4.556l13-1.149Z" transform="translate(-482.189 -1953.535)" fill="#fff"/>
        <path id="Trazado_124651" data-name="Trazado 124651" d="M505.617,1971.464l1.857-17.929h17.952v5.173H512.758l-.885,7.428a7.718,7.718,0,0,1,2.145-1.094A10.082,10.082,0,0,1,524,1967.4q2.552,2.874,2.553,8a11.034,11.034,0,0,1-2.8,7.715q-2.8,3.073-8.059,3.073a12.108,12.108,0,0,1-7.6-2.431,7.684,7.684,0,0,1-3.05-6.677l.044-.111,6.211-.309a4.5,4.5,0,0,0,1.217,3.349,4.322,4.322,0,0,0,3.182,1.206,3.724,3.724,0,0,0,3.328-1.6,7.381,7.381,0,0,0,1.071-4.182,7.75,7.75,0,0,0-1.149-4.458,3.86,3.86,0,0,0-3.4-1.677,4.946,4.946,0,0,0-2.841.686,3.742,3.742,0,0,0-1.4,1.857Z" transform="translate(-480.413 -1953.535)" fill="#fff"/>
      </g>
    </g>
    <path id="Trazado_124745" data-name="Trazado 124745" d="M198.64,1473.643h73.774l12.593,12.592H198.64a21.368,21.368,0,0,0-21.342,21.343V1704.01a21.367,21.367,0,0,0,21.342,21.342H395.071a21.368,21.368,0,0,0,21.343-21.342V1599.5h20.293v-22.251l28.549,28.547-28.549,28.549v-22.252h-7.7v91.92a33.974,33.974,0,0,1-33.936,33.935H198.64a33.973,33.973,0,0,1-33.934-33.935V1507.578A33.973,33.973,0,0,1,198.64,1473.643Z" transform="translate(94.884 2156.353)" fill="#025157"/>
    <g id="Grupo_56414" data-name="Grupo 56414" transform="translate(377.215 3720.882)">
      <g id="Grupo_56413" data-name="Grupo 56413">
        <path id="Trazado_124746" data-name="Trazado 124746" d="M322.532,1622.377H294.224a.782.782,0,0,1-.759-.6l-6.558-27.286-3.729,3.939a.781.781,0,0,1-1.251-.161l-7.985-14.528a.781.781,0,0,1,.24-1.017l15.606-10.782a.79.79,0,0,1,.328-.13l19.236-2.888a.82.82,0,0,1,.247,0l17.057,2.888a.768.768,0,0,1,.313.128l15.606,10.782a.779.779,0,0,1,.24,1.017l-7.985,14.528a.777.777,0,0,1-.584.4.794.794,0,0,1-.666-.238l-3.729-3.939-6.558,27.286a.783.783,0,0,1-.76.6Zm-27.693-1.561h27.078l6.751-28.087a.781.781,0,0,1,1.327-.354l3.982,4.208,7.129-12.973-14.883-10.283-16.764-2.839-18.933,2.842-14.877,10.28,7.129,12.973,3.982-4.208a.782.782,0,0,1,1.327.354Z" transform="translate(-273.846 -1557.122)" fill="#025157"/>
        <path id="Trazado_124747" data-name="Trazado 124747" d="M307.89,1579.8c-7.548,0-13.59-3.632-13.755-8.269a.781.781,0,0,1,.752-.807h0a.79.79,0,0,1,.807.752c.133,3.73,5.6,6.764,12.2,6.764,6.4,0,11.859-2.942,12.182-6.559a.78.78,0,1,1,1.554.138c-.4,4.476-6.432,7.982-13.736,7.982Z" transform="translate(-272.269 -1556.982)" fill="#025157"/>
        <path id="Trazado_124748" data-name="Trazado 124748" d="M306.954,1570.786a.78.78,0,0,1-.78-.781h0v-4.265a.78.78,0,0,1,1.561,0v4.265a.781.781,0,0,1-.779.781Z" transform="translate(-271.333 -1557.43)" fill="#025157"/>
        <path id="Trazado_124749" data-name="Trazado 124749" d="M307.216,1566.793a.781.781,0,0,1,0-1.562,2.849,2.849,0,1,0-2.85-2.849.78.78,0,1,1-1.561,0,4.41,4.41,0,1,1,4.41,4.41Z" transform="translate(-271.594 -1557.973)" fill="#025157"/>
        <path id="Trazado_124750" data-name="Trazado 124750" d="M322.044,1612.38H292.009a.78.78,0,1,1,0-1.561h30.035a.78.78,0,1,1,0,1.561Z" transform="translate(-272.494 -1553.864)" fill="#025157"/>
        <path id="Trazado_124751" data-name="Trazado 124751" d="M323.654,1605.821h-1.821a.78.78,0,1,1,0-1.561h1.821a.78.78,0,0,1,0,1.561Zm-4.944,0H315.59a.78.78,0,0,1,0-1.561h3.121a.78.78,0,0,1,0,1.561Zm-6.243,0h-3.121a.78.78,0,0,1,0-1.561h3.121a.78.78,0,0,1,0,1.561Zm-6.243,0H303.1a.78.78,0,0,1,0-1.561h3.121a.78.78,0,0,1,0,1.561Zm-6.242,0H296.86a.78.78,0,0,1,0-1.561h3.122a.78.78,0,1,1,0,1.561Zm-6.243,0h-3.122a.78.78,0,1,1,0-1.561h3.122a.78.78,0,0,1,0,1.561Z" transform="translate(-272.603 -1554.374)" fill="#025157"/>
      </g>
    </g>
    <g id="Grupo_56415" data-name="Grupo 56415" transform="translate(615.133 3731.688)">
      <path id="Trazado_124752" data-name="Trazado 124752" d="M559.412,1568H543.763a1.957,1.957,0,0,0-1.956,1.956v45.25h-6.932c-.393-.906-.247-.584-3.659-7.56l-.008-.015a5.862,5.862,0,0,1-.164-4.891l6.277-15.42a6.527,6.527,0,0,0-4.227-8.786l-7.2-2.092v-6.486a1.957,1.957,0,0,0-1.956-1.956H508.294a1.957,1.957,0,0,0-1.956,1.956v6.493l-7.025,2.08a6.526,6.526,0,0,0-4.229,8.726s6.143,15.49,6.146,15.495a5.869,5.869,0,0,1-.192,4.857c-3.38,6.909-3.281,6.684-3.678,7.6h-.8a1.955,1.955,0,0,0-1.955,1.956v15.648a1.955,1.955,0,0,0,1.955,1.956h62.855a1.955,1.955,0,0,0,1.955-1.956v-62.854A1.956,1.956,0,0,0,559.412,1568Zm-1.956,3.912v4.043h-5.868a1.956,1.956,0,1,0,0,3.912h5.868v3.912H555.5a1.956,1.956,0,0,0,0,3.912h1.956v3.911h-5.868a1.956,1.956,0,0,0,0,3.912h5.868v3.912H555.5a1.956,1.956,0,1,0,0,3.912h1.956v3.912h-5.868a1.956,1.956,0,0,0,0,3.912h5.868v4.043H545.719v-43.294Zm-34.06,7.877,8.618,2.5a2.613,2.613,0,0,1,1.7,3.524c0,.006-6.276,15.419-6.276,15.419a9.754,9.754,0,0,0-.612,2.1h-8.747v-31.427h3.912v6A1.956,1.956,0,0,0,523.4,1579.789Zm-24.679,6.016-.008-.018a2.615,2.615,0,0,1,1.7-3.5l8.435-2.5a1.956,1.956,0,0,0,1.4-1.875v-6h3.912v31.427h-8.723a9.75,9.75,0,0,0-.583-2.057Zm6.588,21.446h21.636c.324,1.373.461,1.5,3.618,7.955H501.677C504.836,1608.748,504.976,1608.618,505.3,1607.251Zm-6.792,11.867h43.294v11.736h-4.173v-5.869a1.956,1.956,0,0,0-3.912,0v5.869H529.81V1628.9a1.956,1.956,0,1,0-3.911,0v1.956h-3.912v-5.869a1.956,1.956,0,0,0-3.912,0v5.869h-3.912V1628.9a1.956,1.956,0,1,0-3.912,0v1.956h-3.912v-5.869a1.956,1.956,0,0,0-3.912,0v5.869h-3.912Zm58.943,11.736H545.719v-11.736h11.737Z" transform="translate(-494.602 -1568)" fill="#73d8c0"/>
    </g>
    <g id="Grupo_56419" data-name="Grupo 56419" transform="translate(965.311 3720.555)">
      <g id="Grupo_56418" data-name="Grupo 56418">
        <g id="Grupo_56417" data-name="Grupo 56417">
          <g id="Grupo_56416" data-name="Grupo 56416">
            <path id="Trazado_124753" data-name="Trazado 124753" d="M884.542,1580.813a22.106,22.106,0,0,1-22.042-22.041,1.041,1.041,0,0,0-1.1-1.1H843.766a1.041,1.041,0,0,0-1.1,1.1,22.106,22.106,0,0,1-22.041,22.041,1.041,1.041,0,0,0-1.1,1.1v40.776a1.041,1.041,0,0,0,1.1,1.1h63.919a1.041,1.041,0,0,0,1.1-1.1v-40.776A1.041,1.041,0,0,0,884.542,1580.813Zm-1.1,40.776H821.724v-38.572a24.286,24.286,0,0,0,23.143-23.143H860.3a24.287,24.287,0,0,0,23.144,23.143v38.572Z" transform="translate(-819.52 -1557.67)" fill="#025157"/>
            <path id="Trazado_124754" data-name="Trazado 124754" d="M829.593,1612.144h-2.756v-2.755a1.1,1.1,0,1,0-2.2,0v3.857a1.041,1.041,0,0,0,1.1,1.1h3.857a1.1,1.1,0,0,0,0-2.2Z" transform="translate(-819.122 -1553.735)" fill="#025157"/>
            <path id="Trazado_124755" data-name="Trazado 124755" d="M825.735,1604.44a1.04,1.04,0,0,0,1.1-1.1v-8.265a1.1,1.1,0,1,0-2.2,0v8.265A1.041,1.041,0,0,0,825.735,1604.44Z" transform="translate(-819.122 -1554.848)" fill="#025157"/>
            <path id="Trazado_124756" data-name="Trazado 124756" d="M825.735,1589.876a1.2,1.2,0,0,0,1.211-1.1v-2.866a30.084,30.084,0,0,0,2.976-.882,1.116,1.116,0,1,0-.771-2.094c-1.212.331-2.425.662-3.637.882a1.075,1.075,0,0,0-.882,1.1v3.857A1.041,1.041,0,0,0,825.735,1589.876Z" transform="translate(-819.122 -1555.711)" fill="#025157"/>
            <path id="Trazado_124757" data-name="Trazado 124757" d="M843.342,1573.332a1.063,1.063,0,0,0-1.542.221,26.034,26.034,0,0,1-6.5,6.5,1.185,1.185,0,0,0-.221,1.543,1,1,0,0,0,.882.441,4.7,4.7,0,0,0,.551-.111,30.6,30.6,0,0,0,7.054-7.053A.989.989,0,0,0,843.342,1573.332Z" transform="translate(-818.325 -1556.471)" fill="#025157"/>
            <path id="Trazado_124758" data-name="Trazado 124758" d="M855.583,1563.664a1.075,1.075,0,0,0-1.1-.882h-7.715a1.073,1.073,0,0,0-1.1.882,33.381,33.381,0,0,1-.882,3.527,1.115,1.115,0,1,0,2.093.771,30.165,30.165,0,0,0,.882-2.976H853.6a30.449,30.449,0,0,0,.882,2.976,1.059,1.059,0,0,0,.993.772h.33a1.148,1.148,0,0,0,.662-1.434C856.134,1566.089,855.8,1564.877,855.583,1563.664Z" transform="translate(-817.561 -1557.272)" fill="#025157"/>
            <path id="Trazado_124759" data-name="Trazado 124759" d="M859.132,1573.446a1.1,1.1,0,0,0-1.763,1.324,30.637,30.637,0,0,0,7.053,7.053,1.574,1.574,0,0,0,.662.221.706.706,0,0,0,.772-.552,1.063,1.063,0,0,0-.221-1.542A26.037,26.037,0,0,1,859.132,1573.446Z" transform="translate(-816.592 -1556.475)" fill="#025157"/>
            <path id="Trazado_124760" data-name="Trazado 124760" d="M871.008,1584.924a30.282,30.282,0,0,0,2.976.882v2.976a1.1,1.1,0,1,0,2.2,0v-3.857a1.074,1.074,0,0,0-.882-1.1,24.5,24.5,0,0,1-3.526-.992,1.116,1.116,0,0,0-.772,2.094Z" transform="translate(-815.574 -1555.719)" fill="#025157"/>
            <path id="Trazado_124761" data-name="Trazado 124761" d="M874.818,1593.971a1.042,1.042,0,0,0-1.1,1.1v8.265a1.1,1.1,0,0,0,2.2,0v-8.265A1.041,1.041,0,0,0,874.818,1593.971Z" transform="translate(-815.307 -1554.848)" fill="#025157"/>
            <path id="Trazado_124762" data-name="Trazado 124762" d="M871.239,1614.348H875.1a1.041,1.041,0,0,0,1.1-1.1v-3.857a1.1,1.1,0,1,0-2.2,0v2.755h-2.755a1.1,1.1,0,1,0,0,2.2Z" transform="translate(-815.585 -1553.735)" fill="#025157"/>
            <path id="Trazado_124763" data-name="Trazado 124763" d="M857.969,1612.969a1.041,1.041,0,0,0,1.1,1.1h7.054a1.1,1.1,0,0,0,0-2.2H859.07A1.041,1.041,0,0,0,857.969,1612.969Z" transform="translate(-816.531 -1553.457)" fill="#025157"/>
            <path id="Trazado_124764" data-name="Trazado 124764" d="M854.057,1611.866H847a1.1,1.1,0,1,0,0,2.2h7.053a1.1,1.1,0,0,0,1.1-1.1A1.042,1.042,0,0,0,854.057,1611.866Z" transform="translate(-817.469 -1553.457)" fill="#025157"/>
            <path id="Trazado_124765" data-name="Trazado 124765" d="M841.991,1611.866h-7.053a1.1,1.1,0,1,0,0,2.2h6.943a1.133,1.133,0,0,0,1.212-1.1A1.041,1.041,0,0,0,841.991,1611.866Z" transform="translate(-818.407 -1553.457)" fill="#025157"/>
          </g>
        </g>
      </g>
    </g>
    <g id="Grupo_56420" data-name="Grupo 56420" transform="translate(1190.295 3713.897)">
      <path id="Trazado_124766" data-name="Trazado 124766" d="M1079.627,1555.615h2.214v5.534h-2.214Z" transform="translate(-1024.282 -1551.172)" fill="#86bec4"/>
      <path id="Trazado_124767" data-name="Trazado 124767" d="M1078.726,1572.532l.538-2.147a4.745,4.745,0,0,1-3.589-4.461v-.554l-2.16,1.081a6.953,6.953,0,0,0,5.211,6.081Z" transform="translate(-1024.758 -1550.414)" fill="#86bec4"/>
      <path id="Trazado_124768" data-name="Trazado 124768" d="M1080.654,1576.9a10.88,10.88,0,0,0,1.144,4.841l1.187,2.374,1.981-.991-1.188-2.375a8.613,8.613,0,0,1,.813-9.02l3.775-5.034.142-.179-2.016-1.01-3.672,4.9a10.894,10.894,0,0,0-2.165,6.5Z" transform="translate(-1024.203 -1550.403)" fill="#86bec4"/>
      <path id="Trazado_124769" data-name="Trazado 124769" d="M1029.382,1619.335h44.276a1.107,1.107,0,0,0,1.107-1.107,1.1,1.1,0,0,0-.023-.222l-2.908-14.51a1.2,1.2,0,0,0-.042-.151,9.569,9.569,0,0,0-6.721-6.115l-8.018-2v-5.247a9.964,9.964,0,0,0,4.427-8.278v-7.748a9.96,9.96,0,0,0-12.973-9.495,7.736,7.736,0,0,0-13.592,5.067v11.068a3.32,3.32,0,0,1-3.321,3.321,1.108,1.108,0,0,0-.99,1.6l.139.277a8.6,8.6,0,0,0,13.409,2.59,10.059,10.059,0,0,0,1.832,1.6v5.247l-8.016,2a9.566,9.566,0,0,0-6.722,6.115,1.2,1.2,0,0,0-.042.151l-2.908,14.51a1.107,1.107,0,0,0,.863,1.306,1.08,1.08,0,0,0,.221.023Zm11.07-20.445,2.214-.553v7.715a1.106,1.106,0,0,0,1.107,1.107h15.5a1.107,1.107,0,0,0,1.107-1.107v-7.715l2.214.553v18.231h-22.137Zm29.227,5.12,2.629,13.111H1064.8v-17.66A7.352,7.352,0,0,1,1069.679,1604.01Zm-10.411-22.311a7.748,7.748,0,1,1-15.5,0v-5.534h2.214a6.647,6.647,0,0,0,5.962-3.718,9.851,9.851,0,0,0,7.32,3.709Zm-7.748-15.5a7.747,7.747,0,0,1,7.748,7.716,7.643,7.643,0,0,1-6.72-4.806,1.107,1.107,0,0,0-2.135.411,4.427,4.427,0,0,1-4.427,4.427h-2.214a7.755,7.755,0,0,1,7.748-7.748Zm-13.071,22.138a6.364,6.364,0,0,1-5.083-2.506,5.541,5.541,0,0,0,3.763-5.243v-11.068a5.524,5.524,0,0,1,9.248-4.09,9.953,9.953,0,0,0-4.82,8.517v7.748a9.891,9.891,0,0,0,1.284,4.877A6.349,6.349,0,0,1,1038.449,1588.342Zm8.912,8.821a1.107,1.107,0,0,0,.839-1.073v-5.008a9.786,9.786,0,0,0,6.641,0v5.008a1.107,1.107,0,0,0,.837,1.073l2.483.62v7.162h-13.282v-7.162Zm-14,6.847a7.355,7.355,0,0,1,4.877-4.548v17.659h-7.5Z" transform="translate(-1028.275 -1550.693)" fill="#86bec4"/>
      <path id="Trazado_124770" data-name="Trazado 124770" d="M1078.212,1560.363a1.106,1.106,0,0,0-1.073.839l-.983,3.934-6.186,3.092a1.107,1.107,0,0,0-.554,1.341l4.142,12.427a4.4,4.4,0,0,1,.227,1.405,4.468,4.468,0,0,1-.471,1.993,27.16,27.16,0,0,0-2.849,12.075v1.635a1.106,1.106,0,0,0,1.107,1.107h6.641v18.817a1.107,1.107,0,0,0,1.107,1.107h4.427a1.107,1.107,0,0,0,1.107-1.107V1600.21h6.641a1.106,1.106,0,0,0,1.107-1.107v-1.635a27.164,27.164,0,0,0-2.849-12.076,4.471,4.471,0,0,1-.471-1.993,4.42,4.42,0,0,1,.23-1.406l4.142-12.428a1.107,1.107,0,0,0-.553-1.34l-6.187-3.092-.985-3.933a1.106,1.106,0,0,0-1.073-.839h-2.214v-2.417a3.321,3.321,0,1,0-2.214,0v2.417Zm3.32-6.642a1.107,1.107,0,1,1-1.107,1.107A1.107,1.107,0,0,1,1081.532,1553.721Zm1.107,64.2h-2.214v-17.71h2.214Zm2.247-51.756a1.106,1.106,0,0,0,.579.723l1.229.614-3,4a10.827,10.827,0,0,0-1.022,11.336l1.187,2.374,1.981-.99-1.188-2.375a8.613,8.613,0,0,1,.813-9.02l3.236-4.317,2.546,1.271-3.838,11.511a6.666,6.666,0,0,0,.361,5.091,24.9,24.9,0,0,1,2.614,11.09V1598h-17.709v-.528a24.91,24.91,0,0,1,2.617-11.086,6.662,6.662,0,0,0,.361-5.091l-3.838-11.511,2.228-1.116a6.952,6.952,0,0,0,5,4.948l.538-2.147a4.748,4.748,0,0,1-3.516-3.813l1.528-.764a1.106,1.106,0,0,0,.579-.723l.9-3.588h4.912Z" transform="translate(-1025.081 -1551.493)" fill="#86bec4"/>
    </g>
    <g id="Grupo_56422" data-name="Grupo 56422" transform="translate(1253.853 4058.628)">
      <g id="Grupo_56421" data-name="Grupo 56421">
        <path id="Trazado_124771" data-name="Trazado 124771" d="M1146.314,1888.994v-13.473h-8.9l-4.166-4.165h-17.471l-4.164,4.165h-8.9v23.886h1.953v-21.933h6.95l8.735,8.735,3.189-3.189v34.156h-18.874v-15.685h-1.953v17.638h43.606v-28.051h-1.952v26.1h-18.876V1883.02l3.19,3.189,8.735-8.735h6.95v11.52Zm-25.968-5.546-6.951-6.951,2.785-2.785,6.95,6.951Zm4.165-4.166-5.975-5.974h11.949Zm4.166,4.166-2.785-2.785,6.95-6.951,2.785,2.785Z" transform="translate(-1086.046 -1871.356)" fill="#025157"/>
        <path id="Trazado_124772" data-name="Trazado 124772" d="M1126.864,1899.65l6.183,3.71,6.183-3.71v-10.9h-12.366Zm1.953-8.949h8.46v2.214h-8.46Zm0,4.165h8.46v3.678l-4.23,2.538-4.23-2.538Z" transform="translate(-1084.168 -1870.004)" fill="#025157"/>
        <path id="Trazado_124773" data-name="Trazado 124773" d="M1097.532,1884.884h-10.284v51.938h60.268v-10.284h-49.984Zm-1.953,45.819h-3.189v1.953h3.189v2.213H1089.2v-6.378h6.378Zm0-8.331h-3.189v1.953h3.189v2.213H1089.2v-6.378h6.378Zm0-8.33h-3.189v1.952h3.189v2.214H1089.2v-6.379h6.378Zm0-8.331h-3.189v1.952h3.189v2.214H1089.2V1903.5h6.378Zm0-8.331h-3.189v1.952h3.189v2.214H1089.2v-6.379h6.378Zm0-8.331h-3.189V1891h3.189v2.214H1089.2v-6.379h6.378Zm49.986,39.6v6.071a3.188,3.188,0,0,1,0-6.071Zm-6.379-.154h3.326a5.128,5.128,0,0,0,0,6.378h-3.326Zm-8.331,0h6.38v6.378h-2.214v-3.189h-1.952v3.189h-2.214Zm-8.331,0h6.379v6.378h-2.214v-3.189h-1.952v3.189h-2.214Zm-8.33,0h6.378v6.378h-2.214v-3.189h-1.952v3.189h-2.213Zm-8.331,0h6.378v6.378h-2.213v-3.189h-1.953v3.189h-2.212Zm-1.953,0v6.378H1101.7v-3.189h-1.953v3.189h-2.212v-6.378Z" transform="translate(-1087.248 -1870.304)" fill="#025157"/>
        <path id="Trazado_124774" data-name="Trazado 124774" d="M1107.479,1881.019h2.082v1.952h-2.082Z" transform="translate(-1085.675 -1870.605)" fill="#025157"/>
        <path id="Trazado_124775" data-name="Trazado 124775" d="M1133.567,1884.884h2.083v1.952h-2.083Z" transform="translate(-1083.647 -1870.304)" fill="#025157"/>
        <path id="Trazado_124776" data-name="Trazado 124776" d="M1129.7,1884.884h2.083v1.952H1129.7Z" transform="translate(-1083.947 -1870.304)" fill="#025157"/>
        <path id="Trazado_124777" data-name="Trazado 124777" d="M1107.479,1884.884h2.082v1.952h-2.082Z" transform="translate(-1085.675 -1870.304)" fill="#025157"/>
        <path id="Trazado_124778" data-name="Trazado 124778" d="M1107.479,1888.749h2.082v1.952h-2.082Z" transform="translate(-1085.675 -1870.004)" fill="#025157"/>
        <path id="Trazado_124779" data-name="Trazado 124779" d="M1107.479,1892.614h2.082v1.952h-2.082Z" transform="translate(-1085.675 -1869.703)" fill="#025157"/>
        <path id="Trazado_124780" data-name="Trazado 124780" d="M1107.479,1896.479h2.082v1.952h-2.082Z" transform="translate(-1085.675 -1869.403)" fill="#025157"/>
        <path id="Trazado_124781" data-name="Trazado 124781" d="M1107.479,1900.344h2.082v1.952h-2.082Z" transform="translate(-1085.675 -1869.102)" fill="#025157"/>
        <path id="Trazado_124782" data-name="Trazado 124782" d="M1107.479,1904.209h2.082v1.952h-2.082Z" transform="translate(-1085.675 -1868.802)" fill="#025157"/>
        <path id="Trazado_124783" data-name="Trazado 124783" d="M1107.479,1908.074h2.082v1.952h-2.082Z" transform="translate(-1085.675 -1868.501)" fill="#025157"/>
        <path id="Trazado_124784" data-name="Trazado 124784" d="M1111.344,1908.074h2.082v1.952h-2.082Z" transform="translate(-1085.375 -1868.501)" fill="#025157"/>
        <path id="Trazado_124785" data-name="Trazado 124785" d="M1115.209,1908.074h2.082v1.952h-2.082Z" transform="translate(-1085.074 -1868.501)" fill="#025157"/>
      </g>
    </g>
    <g id="Grupo_56423" data-name="Grupo 56423" transform="translate(890.755 4036.565)">
      <g id="outline" transform="translate(0 0)">
        <path id="Trazado_124786" data-name="Trazado 124786" d="M779.893,1883.738v-2.5h-2.5v-2.5h-2.5v2.5h-2.5v2.5h2.5v2.5h2.5v-2.5Z" transform="translate(-748.628 -1848.72)" fill="#73d8c0"/>
        <path id="Trazado_124787" data-name="Trazado 124787" d="M765.428,1871.773h2.5v2.5h-2.5Z" transform="translate(-749.169 -1849.261)" fill="#73d8c0"/>
        <path id="Trazado_124788" data-name="Trazado 124788" d="M765.428,1876.414h2.5v2.5h-2.5Z" transform="translate(-749.169 -1848.9)" fill="#73d8c0"/>
        <path id="Trazado_124789" data-name="Trazado 124789" d="M765.428,1881.056h2.5v2.5h-2.5Z" transform="translate(-749.169 -1848.539)" fill="#73d8c0"/>
        <path id="Trazado_124790" data-name="Trazado 124790" d="M783.994,1871.773h2.5v2.5h-2.5Z" transform="translate(-747.726 -1849.261)" fill="#73d8c0"/>
        <path id="Trazado_124791" data-name="Trazado 124791" d="M783.994,1876.414h2.5v2.5h-2.5Z" transform="translate(-747.726 -1848.9)" fill="#73d8c0"/>
        <path id="Trazado_124792" data-name="Trazado 124792" d="M783.994,1881.056h2.5v2.5h-2.5Z" transform="translate(-747.726 -1848.539)" fill="#73d8c0"/>
        <path id="Trazado_124793" data-name="Trazado 124793" d="M765.428,1885.7h2.5v2.5h-2.5Z" transform="translate(-749.169 -1848.178)" fill="#73d8c0"/>
        <path id="Trazado_124794" data-name="Trazado 124794" d="M783.994,1885.7h2.5v2.5h-2.5Z" transform="translate(-747.726 -1848.178)" fill="#73d8c0"/>
        <path id="Trazado_124795" data-name="Trazado 124795" d="M765.428,1890.339h2.5v2.5h-2.5Z" transform="translate(-749.169 -1847.818)" fill="#73d8c0"/>
        <path id="Trazado_124796" data-name="Trazado 124796" d="M770.069,1890.339h2.5v2.5h-2.5Z" transform="translate(-748.809 -1847.818)" fill="#73d8c0"/>
        <path id="Trazado_124797" data-name="Trazado 124797" d="M774.711,1890.339h2.5v2.5h-2.5Z" transform="translate(-748.448 -1847.818)" fill="#73d8c0"/>
        <path id="Trazado_124798" data-name="Trazado 124798" d="M779.352,1890.339h2.5v2.5h-2.5Z" transform="translate(-748.087 -1847.818)" fill="#73d8c0"/>
        <path id="Trazado_124799" data-name="Trazado 124799" d="M770.069,1871.773h2.5v2.5h-2.5Z" transform="translate(-748.809 -1849.261)" fill="#73d8c0"/>
        <path id="Trazado_124800" data-name="Trazado 124800" d="M774.711,1871.773h2.5v2.5h-2.5Z" transform="translate(-748.448 -1849.261)" fill="#73d8c0"/>
        <path id="Trazado_124801" data-name="Trazado 124801" d="M779.352,1871.773h2.5v2.5h-2.5Z" transform="translate(-748.087 -1849.261)" fill="#73d8c0"/>
        <path id="Trazado_124802" data-name="Trazado 124802" d="M783.994,1890.339h2.5v2.5h-2.5Z" transform="translate(-747.726 -1847.818)" fill="#73d8c0"/>
        <path id="Trazado_124803" data-name="Trazado 124803" d="M802.65,1868.033h12.507a1.251,1.251,0,0,0,1.061-1.913l-6.253-10.006a1.253,1.253,0,0,0-1.724-.4,1.274,1.274,0,0,0-.4.4l-6.253,10.006a1.25,1.25,0,0,0,1.06,1.913Zm6.254-8.9,4,6.395h-7.994Z" transform="translate(-746.373 -1850.524)" fill="#73d8c0"/>
        <path id="Trazado_124804" data-name="Trazado 124804" d="M808.9,1890.261a7.5,7.5,0,1,0-7.5-7.5A7.5,7.5,0,0,0,808.9,1890.261Zm0-12.506a5,5,0,1,1-5,5A5,5,0,0,1,808.9,1877.755Z" transform="translate(-746.373 -1848.99)" fill="#73d8c0"/>
        <path id="Trazado_124805" data-name="Trazado 124805" d="M802.65,1908.828h12.507a1.251,1.251,0,0,0,1.25-1.25v-12.506a1.251,1.251,0,0,0-1.25-1.251H802.65a1.251,1.251,0,0,0-1.25,1.251v12.506A1.251,1.251,0,0,0,802.65,1908.828Zm1.251-12.506h10v10h-10Z" transform="translate(-746.373 -1847.547)" fill="#73d8c0"/>
        <path id="Trazado_124806" data-name="Trazado 124806" d="M822.878,1850.885h-20.01a2.505,2.505,0,0,0-2.5,2.5v12.722l-6.573-7.3h0a1.249,1.249,0,0,0-.929-.415H762.848a1.246,1.246,0,0,0-.928.415h0l-11.256,12.506a1.251,1.251,0,0,0-.031,1.637l6.253,7.5a1.255,1.255,0,0,0,.9.448h.057a1.246,1.246,0,0,0,.884-.366l2.868-2.868v29.5a1.251,1.251,0,0,0,1.25,1.251h30.015a1.251,1.251,0,0,0,1.25-1.251v-29.5l2.868,2.868a1.251,1.251,0,0,0,.885.366h.056a1.253,1.253,0,0,0,.9-.448l1.54-1.849v3.031l-3.385,3.385a1.252,1.252,0,0,0,0,1.77h0l3.385,3.384v24.495a2.505,2.505,0,0,0,2.5,2.5h20.01a2.505,2.505,0,0,0,2.5-2.5v-61.28a2.505,2.505,0,0,0-2.5-2.5Zm-28.765,23.244V1862.9l5.142,5.713-4.8,5.862Zm-21.26-13.238h10v2.5a5,5,0,1,1-10,0ZM761.6,1874.129l-.344.345-4.8-5.863,5.141-5.712Zm-3.668,3.669-4.683-5.62,1.516-1.684,4.712,5.758Zm6.169,28.115v-2.5h18.759v-2.5H764.1v-40.019h6.253v2.5a7.5,7.5,0,1,0,15.008,0v-2.5h6.253v40.019H785.36v2.5h6.253v2.5Zm33.683-28.115-1.545-1.547,4.712-5.758,1.516,1.684Zm25.1,36.87h-20.01v-25.012a1.252,1.252,0,0,0-.366-.885l-2.867-2.867,2.867-2.868a1.251,1.251,0,0,0,.366-.885v-6.55l2.211-2.653a1.251,1.251,0,0,0-.031-1.638l-2.18-2.423v-15.5h20.01Z" transform="translate(-750.342 -1850.885)" fill="#73d8c0"/>
      </g>
    </g>
    <g id="Grupo_56424" data-name="Grupo 56424" transform="translate(683.347 4062.529)">
      <path id="Trazado_124807" data-name="Trazado 124807" d="M557.9,1932.4a5.766,5.766,0,0,0,5.9,5.584h34.618a5.788,5.788,0,0,0,5.77-4.648,5.681,5.681,0,0,0,4.91-5.513V1902.67H611.9a1.009,1.009,0,0,0,.555-.153l5.146-3.343a1.012,1.012,0,0,0,0-1.7l-5.146-3.377a1.049,1.049,0,0,0-.555-.193h-2.813v-5.544a1.262,1.262,0,0,0-.452-.875l-11.716-11.935a1.026,1.026,0,0,0-.239-.244l-.031-.03a1.019,1.019,0,0,0-.725-.3H568.616a5.814,5.814,0,0,0-5.792,4.648,5.7,5.7,0,0,0-4.93,5.514Zm17.277-31.765v-4.7h35.7v4.7Zm37.73-.834v-2.951l2.267,1.475Zm-15.752-21.166,8.427,8.662h-7.069a1.327,1.327,0,0,1-1.358-1.3Zm-28.533-1.629h26.5V1886a3.361,3.361,0,0,0,3.391,3.334h8.551v4.573H574.207a1.111,1.111,0,0,0-1.067,1.073v.13l-3.025-.06h-.009a1.044,1.044,0,0,0-1.016,1.047l.032,4.423a1.016,1.016,0,0,0,1.015,1.009h3v.149a1.042,1.042,0,0,0,1.067.994h2.147l-.014,1.525a2.24,2.24,0,0,0,.607,1.566,1.884,1.884,0,0,0,1.317.594H590.6a1.016,1.016,0,0,0,0-2.033H578.376c0-.127,0-.063,0-.079l.015-1.573h28.671v25.156a3.7,3.7,0,0,1-3.823,3.556H568.616a3.736,3.736,0,0,1-3.862-3.556v-47.1c0-.052.033-.1.033-.157a.875.875,0,0,0,0-.131A3.72,3.72,0,0,1,568.616,1877.009Zm4.523,22.486h-1.993l-.043-2.377,2.036.024Zm-13.212-14.357a3.714,3.714,0,0,1,2.795-3.426v46.113a5.768,5.768,0,0,0,5.894,5.588h33.457a3.729,3.729,0,0,1-3.663,2.541H563.792a3.735,3.735,0,0,1-3.865-3.551Z" transform="translate(-557.895 -1874.976)" fill="#025157"/>
      <path id="Trazado_124808" data-name="Trazado 124808" d="M569.338,1908.6h16.709a1.016,1.016,0,0,0,0-2.033H569.338a1.016,1.016,0,1,0,0,2.033Z" transform="translate(-557.084 -1872.52)" fill="#025157"/>
      <path id="Trazado_124809" data-name="Trazado 124809" d="M569.338,1913.2h29.08a1.016,1.016,0,0,0,0-2.033h-29.08a1.016,1.016,0,1,0,0,2.033Z" transform="translate(-557.084 -1872.162)" fill="#025157"/>
      <path id="Trazado_124810" data-name="Trazado 124810" d="M569.338,1917.792h29.08a1.016,1.016,0,0,0,0-2.033h-29.08a1.016,1.016,0,1,0,0,2.033Z" transform="translate(-557.084 -1871.805)" fill="#025157"/>
      <path id="Trazado_124811" data-name="Trazado 124811" d="M569.338,1922.39h29.08a1.016,1.016,0,0,0,0-2.033h-29.08a1.016,1.016,0,1,0,0,2.033Z" transform="translate(-557.084 -1871.448)" fill="#025157"/>
    </g>
    <text id="Construcción_de_patrones_base." data-name="Construcción de patrones base." transform="translate(331 2979)" fill="#12263f" font-size="14" font-family="SegoeUI, Segoe UI"><tspan x="0" y="15">Construcción de </tspan><tspan x="0" y="33">patrones base.</tspan></text>
    <text id="Análisis_de_la_prenda:_talla_-_horma_-_material_-_insumos_f._técnica_." data-name="Análisis de la prenda: talla - horma - material - insumos (f. técnica)." transform="translate(893 2972)" fill="#12263f" font-size="14" font-family="SegoeUI, Segoe UI"><tspan x="0" y="15">Análisis de la prenda: </tspan><tspan x="0" y="33">talla - horma - material </tspan><tspan x="0" y="51">- insumos (f. técnica).</tspan></text>
    <text id="Trazo_de_planos:_tipo_de_planos_a_trabajar_desahogos_sistema_de_ajuste_pinzas_cortes_y_sistema_de_cierre." data-name="Trazo de planos: tipo de planos a trabajar, desahogos, sistema de ajuste, pinzas, cortes y sistema de cierre." transform="translate(1179 3059)" fill="#12263f" font-size="14" font-family="SegoeUI, Segoe UI"><tspan x="0" y="15">Trazo de planos: tipo de </tspan><tspan x="0" y="33">planos a trabajar, </tspan><tspan x="0" y="51">desahogos, sistema de </tspan><tspan x="0" y="69">ajuste, pinzas, cortes y </tspan><tspan x="0" y="87">sistema de cierre.</tspan></text>
    <text id="Definición_del_diseño." data-name="Definición del diseño." transform="translate(600 3154)" fill="#12263f" font-size="14" font-family="SegoeUI, Segoe UI"><tspan x="0" y="15">Definición del diseño.</tspan></text>
    <text id="Confección_de_muestra_física_prueba_o_prototipo." data-name="Confección de muestra física, prueba o prototipo." transform="translate(313 3432)" fill="#12263f" font-size="14" font-family="SegoeUI, Segoe UI"><tspan x="0" y="15">Confección de muestra </tspan><tspan x="0" y="33">física, prueba o </tspan><tspan x="0" y="51">prototipo.</tspan></text>
    <text id="Trazo_y_corte." data-name="Trazo y corte." transform="translate(600 3306)" fill="#12263f" font-size="14" font-family="SegoeUI, Segoe UI"><tspan x="0" y="15">Trazo y corte.</tspan></text>
    <text id="Despiece:_señalización_-_costuras_-_complementos." data-name="Despiece: señalización - costuras - complementos." transform="translate(885 3460)" fill="#12263f" font-size="14" font-family="SegoeUI, Segoe UI"><tspan x="0" y="15">Despiece: señalización - </tspan><tspan x="0" y="33">costuras - complementos.</tspan></text>
    <text id="Verificación_del_despiece." data-name="Verificación del despiece." transform="translate(885 3661)" fill="#12263f" font-size="14" font-family="SegoeUI, Segoe UI"><tspan x="0" y="15">Verificación del </tspan><tspan x="0" y="33">despiece.</tspan></text>
    <text id="Contramuestra_prueba_o_prototipo_final." data-name="Contramuestra, prueba o prototipo final." transform="translate(1180 3803)" fill="#12263f" font-size="14" font-family="SegoeUI, Segoe UI"><tspan x="0" y="15">Contramuestra, prueba </tspan><tspan x="0" y="33">o prototipo final.</tspan></text>
    <text id="Corrección_y_o_ajustes_de_la_muestra_física_sobre_el_plano." data-name="Corrección y/o ajustes de la muestra física sobre el plano." transform="translate(600 3821)" fill="#12263f" font-size="14" font-family="SegoeUI, Segoe UI"><tspan x="0" y="15">Corrección y/o ajustes </tspan><tspan x="0" y="33">de la muestra física </tspan><tspan x="0" y="51">sobre el plano.</tspan></text>
    <text id="Documentación_técnica." data-name="Documentación técnica." transform="translate(600 4008)" fill="#12263f" font-size="14" font-family="SegoeUI, Segoe UI"><tspan x="0" y="15">Documentación </tspan><tspan x="0" y="33">técnica.</tspan></text>
    <text id="Industrialización_del_patrón:_digitalización_-_escalado." data-name="Industrialización del patrón: digitalización - escalado." transform="translate(889 4140)" fill="#12263f" font-size="14" font-family="SegoeUI, Segoe UI"><tspan x="0" y="15">Industrialización del </tspan><tspan x="0" y="33">patrón: digitalización </tspan><tspan x="0" y="51">- escalado.</tspan></text>
    <text id="Validación_de_la_prenda." data-name="Validación de la prenda." transform="translate(1176 4029)" fill="#12263f" font-size="14" font-family="SegoeUI, Segoe UI"><tspan x="0" y="15">Validación de la </tspan><tspan x="0" y="33">prenda.</tspan></text>
    <text id="Verificación_de_muestra_física." data-name="Verificación de muestra física." transform="translate(312 3676)" fill="#12263f" font-size="14" font-family="SegoeUI, Segoe UI"><tspan x="0" y="15">Verificación de muestra </tspan><tspan x="0" y="33">física.</tspan></text>
    <text id="Transformación_de_la_base_o_interpretación_del_diseño:_básica_-_intermedia_-_avanzada_y_sencillo_-_cruzado_-_cortando_y_ampliando." data-name="Transformación de la base o interpretación del diseño: básica - intermedia - avanzada y sencillo - cruzado - cortando y ampliando." transform="translate(1166 3317)" fill="#12263f" font-size="14" font-family="SegoeUI, Segoe UI"><tspan x="0" y="15">Transformación de la base </tspan><tspan x="0" y="33">o interpretación del </tspan><tspan x="0" y="51">diseño: básica - intermedia </tspan><tspan x="0" y="69">- avanzada y sencillo - </tspan><tspan x="0" y="87">cruzado - cortando y </tspan><tspan x="0" y="105">ampliando.</tspan></text>
  </g>
</svg>
