<svg xmlns="http://www.w3.org/2000/svg" width="610.412" height="95.668" viewBox="0 0 610.412 95.668">
  <g id="Grupo_1054823" data-name="Grupo 1054823" transform="translate(-287.794 -10415.5)">
    <g id="Rectángulo_673" data-name="Rectángulo 673" transform="translate(288 10416)">
      <rect id="Rectángulo_5209" data-name="Rectángulo 5209" width="610" height="54" fill="#fff"/>
      <rect id="Rectángulo_5210" data-name="Rectángulo 5210" width="609.412" height="53.243" transform="translate(0.294 0)" fill="none" stroke="#e1e1e1" stroke-width="1"/>
    </g>
    <g id="Norma" transform="translate(326.893 10420.094)" style="isolation: isolate">
      <text id="Medidas" transform="translate(0.107 14.906)" fill="#12263f" font-size="14" font-family="SegoeUI-Bold, Segoe UI" font-weight="700" style="isolation: isolate"><tspan x="0" y="0">Medidas</tspan></text>
    </g>
    <text id="_6" data-name="6" transform="translate(534 10435)" fill="#12263f" font-size="14" font-family="SegoeUI-Bold, Segoe UI" font-weight="700" style="isolation: isolate"><tspan x="-4.026" y="0">6</tspan></text>
    <text id="_84" data-name="84" transform="translate(533 10463)" fill="#12263f" font-size="14" font-family="SegoeUI, Segoe UI" style="isolation: isolate"><tspan x="-7.547" y="0">84</tspan></text>
    <text id="_10" data-name="10" transform="translate(641 10435)" fill="#12263f" font-size="14" font-family="SegoeUI-Bold, Segoe UI" font-weight="700" style="isolation: isolate"><tspan x="-8.053" y="0">10</tspan></text>
    <text id="_92" data-name="92" transform="translate(641 10463)" fill="#12263f" font-size="14" font-family="SegoeUI, Segoe UI" style="isolation: isolate"><tspan x="-7.547" y="0">92</tspan></text>
    <text id="_4cms" data-name="4cms" transform="translate(542.362 10507.168)" fill="#12263f" font-size="14" font-family="SegoeUI-Bold, Segoe UI" font-weight="700" style="isolation: isolate"><tspan x="-16.878" y="0">4cms</tspan></text>
    <text id="_4cms-2" data-name="4cms" transform="translate(603.249 10507.168)" fill="#12263f" font-size="14" font-family="SegoeUI-Bold, Segoe UI" font-weight="700" style="isolation: isolate"><tspan x="-16.878" y="0">4cms</tspan></text>
    <text id="_4cms-3" data-name="4cms" transform="translate(662.11 10507.168)" fill="#12263f" font-size="14" font-family="SegoeUI-Bold, Segoe UI" font-weight="700" style="isolation: isolate"><tspan x="-16.878" y="0">4cms</tspan></text>
    <text id="_4cms-4" data-name="4cms" transform="translate(722.997 10507.168)" fill="#12263f" font-size="14" font-family="SegoeUI-Bold, Segoe UI" font-weight="700" style="isolation: isolate"><tspan x="-16.878" y="0">4cms</tspan></text>
    <text id="_6cms" data-name="6cms" transform="translate(783.884 10507.168)" fill="#12263f" font-size="14" font-family="SegoeUI-Bold, Segoe UI" font-weight="700" style="isolation: isolate"><tspan x="-16.878" y="0">6cms</tspan></text>
    <text id="_6cms-2" data-name="6cms" transform="translate(844.771 10507.168)" fill="#12263f" font-size="14" font-family="SegoeUI-Bold, Segoe UI" font-weight="700" style="isolation: isolate"><tspan x="-16.878" y="0">6cms</tspan></text>
    <text id="_14" data-name="14" transform="translate(756 10435)" fill="#12263f" font-size="14" font-family="SegoeUI-Bold, Segoe UI" font-weight="700" style="isolation: isolate"><tspan x="-8.053" y="0">14</tspan></text>
    <text id="_100" data-name="100" transform="translate(755 10463)" fill="#12263f" font-size="14" font-family="SegoeUI, Segoe UI" style="isolation: isolate"><tspan x="-11.32" y="0">100</tspan></text>
    <text id="_8" data-name="8" transform="translate(588 10435)" fill="#12263f" font-size="14" font-family="SegoeUI-Bold, Segoe UI" font-weight="700" style="isolation: isolate"><tspan x="-4.026" y="0">8</tspan></text>
    <text id="_88" data-name="88" transform="translate(588 10463)" fill="#12263f" font-size="14" font-family="SegoeUI, Segoe UI" style="isolation: isolate"><tspan x="-7.547" y="0">88</tspan></text>
    <text id="_12" data-name="12" transform="translate(698 10435)" fill="#12263f" font-size="14" font-family="SegoeUI-Bold, Segoe UI" font-weight="700" style="isolation: isolate"><tspan x="-8.053" y="0">12</tspan></text>
    <text id="_96" data-name="96" transform="translate(698 10463)" fill="#12263f" font-size="14" font-family="SegoeUI, Segoe UI" style="isolation: isolate"><tspan x="-7.547" y="0">96</tspan></text>
    <text id="_16" data-name="16" transform="translate(813 10435)" fill="#12263f" font-size="14" font-family="SegoeUI-Bold, Segoe UI" font-weight="700" style="isolation: isolate"><tspan x="-8.053" y="0">16</tspan></text>
    <text id="_106" data-name="106" transform="translate(813 10463)" fill="#12263f" font-size="14" font-family="SegoeUI, Segoe UI" style="isolation: isolate"><tspan x="-11.32" y="0">106</tspan></text>
    <text id="_18" data-name="18" transform="translate(870 10435)" fill="#12263f" font-size="14" font-family="SegoeUI-Bold, Segoe UI" font-weight="700" style="isolation: isolate"><tspan x="-8.053" y="0">18</tspan></text>
    <text id="_112" data-name="112" transform="translate(870 10463)" fill="#12263f" font-size="14" font-family="SegoeUI, Segoe UI" style="isolation: isolate"><tspan x="-11.32" y="0">112</tspan></text>
    <line id="Línea_52" data-name="Línea 52" y2="54" transform="translate(508 10416)" fill="none" stroke="#e1e1e1" stroke-width="1"/>
    <line id="Línea_52-2" data-name="Línea 52" y2="54" transform="translate(613 10416)" fill="none" stroke="#e1e1e1" stroke-width="1"/>
    <line id="Línea_52-3" data-name="Línea 52" y2="54" transform="translate(561 10416)" fill="none" stroke="#e1e1e1" stroke-width="1"/>
    <line id="Línea_52-4" data-name="Línea 52" y2="54" transform="translate(783 10416)" fill="none" stroke="#e1e1e1" stroke-width="1"/>
    <line id="Línea_52-5" data-name="Línea 52" y2="54" transform="translate(840 10416)" fill="none" stroke="#e1e1e1" stroke-width="1"/>
    <line id="Línea_52-6" data-name="Línea 52" y2="54" transform="translate(671 10416)" fill="none" stroke="#e1e1e1" stroke-width="1"/>
    <line id="Línea_52-7" data-name="Línea 52" y2="54" transform="translate(727 10416)" fill="none" stroke="#e1e1e1" stroke-width="1"/>
    <line id="Línea_55" data-name="Línea 55" x1="609.412" transform="translate(288.588 10442.61)" fill="none" stroke="#e1e1e1" stroke-width="1"/>
    <text id="Contorno_de_busto" data-name="Contorno de busto" transform="translate(384.893 10462.238)" fill="#12263f" font-size="14" font-family="SegoeUI, Segoe UI" style="isolation: isolate"><tspan x="-58.505" y="0">Contorno de busto</tspan></text>
    <g id="Grupo_1054813" data-name="Grupo 1054813" transform="translate(519.351 10481.537) rotate(-9)">
      <path id="Trazado_774586" data-name="Trazado 774586" d="M0,0A33.8,33.8,0,0,0,11.454,10.075a32.069,32.069,0,0,0,7.039,2.693,33.138,33.138,0,0,0,7.465.959c1.259.069,2.522-.038,3.784-.086,1.258-.144,2.524-.223,3.774-.468a60.309,60.309,0,0,0,7.461-1.721A109.657,109.657,0,0,0,55.4,5.695a60.225,60.225,0,0,1-13.842,7.478l-1.876.656-.942.32c-.316.1-.639.179-.959.27l-1.926.52c-.645.165-1.3.271-1.957.409-1.3.3-2.641.4-3.967.585-1.339.066-2.678.185-4.025.121A31.613,31.613,0,0,1,17.923,14.9a28.989,28.989,0,0,1-7.372-3.253A27.8,27.8,0,0,1,0,0Z" transform="translate(0 0)" fill="#73d8c0"/>
      <path id="Trazado_774587" data-name="Trazado 774587" d="M0,0A16.772,16.772,0,0,0,1.643,1.031c.275.159.558.3.836.447l.853.388A14.592,14.592,0,0,0,6.819,2.908a13.275,13.275,0,0,0,3.538.159,13.868,13.868,0,0,0,1.76-.234c.586-.1,1.156-.3,1.743-.422l.146-.03a1.127,1.127,0,0,1,1.12,1.795l-3.4,4.373L8.262,12.969a17.915,17.915,0,0,1,.882-2.723c.349-.888.764-1.743,1.2-2.588s.905-1.665,1.4-2.471S12.747,3.594,13.3,2.809l1.266,1.764c-.33.1-.663.2-1,.29a8.421,8.421,0,0,1-1.009.252,13.456,13.456,0,0,1-2.079.241,11.972,11.972,0,0,1-4.141-.528A11.592,11.592,0,0,1,2.687,2.961,10.047,10.047,0,0,1,0,0Z" transform="translate(43.738 0.882)" fill="#73d8c0"/>
    </g>
    <g id="Grupo_1054818" data-name="Grupo 1054818" transform="translate(580.238 10481.537) rotate(-9)">
      <path id="Trazado_774586-2" data-name="Trazado 774586" d="M0,0A33.8,33.8,0,0,0,11.454,10.075a32.069,32.069,0,0,0,7.039,2.693,33.138,33.138,0,0,0,7.465.959c1.259.069,2.522-.038,3.784-.086,1.258-.144,2.524-.223,3.774-.468a60.309,60.309,0,0,0,7.461-1.721A109.657,109.657,0,0,0,55.4,5.695a60.225,60.225,0,0,1-13.842,7.478l-1.876.656-.942.32c-.316.1-.639.179-.959.27l-1.926.52c-.645.165-1.3.271-1.957.409-1.3.3-2.641.4-3.967.585-1.339.066-2.678.185-4.025.121A31.613,31.613,0,0,1,17.923,14.9a28.989,28.989,0,0,1-7.372-3.253A27.8,27.8,0,0,1,0,0Z" transform="translate(0 0)" fill="#73d8c0"/>
      <path id="Trazado_774587-2" data-name="Trazado 774587" d="M0,0A16.772,16.772,0,0,0,1.643,1.031c.275.159.558.3.836.447l.853.388A14.592,14.592,0,0,0,6.819,2.908a13.275,13.275,0,0,0,3.538.159,13.868,13.868,0,0,0,1.76-.234c.586-.1,1.156-.3,1.743-.422l.146-.03a1.127,1.127,0,0,1,1.12,1.795l-3.4,4.373L8.262,12.969a17.915,17.915,0,0,1,.882-2.723c.349-.888.764-1.743,1.2-2.588s.905-1.665,1.4-2.471S12.747,3.594,13.3,2.809l1.266,1.764c-.33.1-.663.2-1,.29a8.421,8.421,0,0,1-1.009.252,13.456,13.456,0,0,1-2.079.241,11.972,11.972,0,0,1-4.141-.528A11.592,11.592,0,0,1,2.687,2.961,10.047,10.047,0,0,1,0,0Z" transform="translate(43.738 0.882)" fill="#73d8c0"/>
    </g>
    <g id="Grupo_1054819" data-name="Grupo 1054819" transform="translate(639.099 10481.537) rotate(-9)">
      <path id="Trazado_774586-3" data-name="Trazado 774586" d="M0,0A33.8,33.8,0,0,0,11.454,10.075a32.069,32.069,0,0,0,7.039,2.693,33.138,33.138,0,0,0,7.465.959c1.259.069,2.522-.038,3.784-.086,1.258-.144,2.524-.223,3.774-.468a60.309,60.309,0,0,0,7.461-1.721A109.657,109.657,0,0,0,55.4,5.695a60.225,60.225,0,0,1-13.842,7.478l-1.876.656-.942.32c-.316.1-.639.179-.959.27l-1.926.52c-.645.165-1.3.271-1.957.409-1.3.3-2.641.4-3.967.585-1.339.066-2.678.185-4.025.121A31.613,31.613,0,0,1,17.923,14.9a28.989,28.989,0,0,1-7.372-3.253A27.8,27.8,0,0,1,0,0Z" transform="translate(0 0)" fill="#73d8c0"/>
      <path id="Trazado_774587-3" data-name="Trazado 774587" d="M0,0A16.772,16.772,0,0,0,1.643,1.031c.275.159.558.3.836.447l.853.388A14.592,14.592,0,0,0,6.819,2.908a13.275,13.275,0,0,0,3.538.159,13.868,13.868,0,0,0,1.76-.234c.586-.1,1.156-.3,1.743-.422l.146-.03a1.127,1.127,0,0,1,1.12,1.795l-3.4,4.373L8.262,12.969a17.915,17.915,0,0,1,.882-2.723c.349-.888.764-1.743,1.2-2.588s.905-1.665,1.4-2.471S12.747,3.594,13.3,2.809l1.266,1.764c-.33.1-.663.2-1,.29a8.421,8.421,0,0,1-1.009.252,13.456,13.456,0,0,1-2.079.241,11.972,11.972,0,0,1-4.141-.528A11.592,11.592,0,0,1,2.687,2.961,10.047,10.047,0,0,1,0,0Z" transform="translate(43.738 0.882)" fill="#73d8c0"/>
    </g>
    <g id="Grupo_1054820" data-name="Grupo 1054820" transform="translate(699.986 10481.537) rotate(-9)">
      <path id="Trazado_774586-4" data-name="Trazado 774586" d="M0,0A33.8,33.8,0,0,0,11.454,10.075a32.069,32.069,0,0,0,7.039,2.693,33.138,33.138,0,0,0,7.465.959c1.259.069,2.522-.038,3.784-.086,1.258-.144,2.524-.223,3.774-.468a60.309,60.309,0,0,0,7.461-1.721A109.657,109.657,0,0,0,55.4,5.695a60.225,60.225,0,0,1-13.842,7.478l-1.876.656-.942.32c-.316.1-.639.179-.959.27l-1.926.52c-.645.165-1.3.271-1.957.409-1.3.3-2.641.4-3.967.585-1.339.066-2.678.185-4.025.121A31.613,31.613,0,0,1,17.923,14.9a28.989,28.989,0,0,1-7.372-3.253A27.8,27.8,0,0,1,0,0Z" transform="translate(0 0)" fill="#73d8c0"/>
      <path id="Trazado_774587-4" data-name="Trazado 774587" d="M0,0A16.772,16.772,0,0,0,1.643,1.031c.275.159.558.3.836.447l.853.388A14.592,14.592,0,0,0,6.819,2.908a13.275,13.275,0,0,0,3.538.159,13.868,13.868,0,0,0,1.76-.234c.586-.1,1.156-.3,1.743-.422l.146-.03a1.127,1.127,0,0,1,1.12,1.795l-3.4,4.373L8.262,12.969a17.915,17.915,0,0,1,.882-2.723c.349-.888.764-1.743,1.2-2.588s.905-1.665,1.4-2.471S12.747,3.594,13.3,2.809l1.266,1.764c-.33.1-.663.2-1,.29a8.421,8.421,0,0,1-1.009.252,13.456,13.456,0,0,1-2.079.241,11.972,11.972,0,0,1-4.141-.528A11.592,11.592,0,0,1,2.687,2.961,10.047,10.047,0,0,1,0,0Z" transform="translate(43.738 0.882)" fill="#73d8c0"/>
    </g>
    <g id="Grupo_1054821" data-name="Grupo 1054821" transform="translate(760.873 10481.537) rotate(-9)">
      <path id="Trazado_774586-5" data-name="Trazado 774586" d="M0,0A33.8,33.8,0,0,0,11.454,10.075a32.069,32.069,0,0,0,7.039,2.693,33.138,33.138,0,0,0,7.465.959c1.259.069,2.522-.038,3.784-.086,1.258-.144,2.524-.223,3.774-.468a60.309,60.309,0,0,0,7.461-1.721A109.657,109.657,0,0,0,55.4,5.695a60.225,60.225,0,0,1-13.842,7.478l-1.876.656-.942.32c-.316.1-.639.179-.959.27l-1.926.52c-.645.165-1.3.271-1.957.409-1.3.3-2.641.4-3.967.585-1.339.066-2.678.185-4.025.121A31.613,31.613,0,0,1,17.923,14.9a28.989,28.989,0,0,1-7.372-3.253A27.8,27.8,0,0,1,0,0Z" transform="translate(0 0)" fill="#73d8c0"/>
      <path id="Trazado_774587-5" data-name="Trazado 774587" d="M0,0A16.772,16.772,0,0,0,1.643,1.031c.275.159.558.3.836.447l.853.388A14.592,14.592,0,0,0,6.819,2.908a13.275,13.275,0,0,0,3.538.159,13.868,13.868,0,0,0,1.76-.234c.586-.1,1.156-.3,1.743-.422l.146-.03a1.127,1.127,0,0,1,1.12,1.795l-3.4,4.373L8.262,12.969a17.915,17.915,0,0,1,.882-2.723c.349-.888.764-1.743,1.2-2.588s.905-1.665,1.4-2.471S12.747,3.594,13.3,2.809l1.266,1.764c-.33.1-.663.2-1,.29a8.421,8.421,0,0,1-1.009.252,13.456,13.456,0,0,1-2.079.241,11.972,11.972,0,0,1-4.141-.528A11.592,11.592,0,0,1,2.687,2.961,10.047,10.047,0,0,1,0,0Z" transform="translate(43.738 0.882)" fill="#73d8c0"/>
    </g>
    <g id="Grupo_1054822" data-name="Grupo 1054822" transform="translate(821.761 10481.537) rotate(-9)">
      <path id="Trazado_774586-6" data-name="Trazado 774586" d="M0,0A33.8,33.8,0,0,0,11.454,10.075a32.069,32.069,0,0,0,7.039,2.693,33.138,33.138,0,0,0,7.465.959c1.259.069,2.522-.038,3.784-.086,1.258-.144,2.524-.223,3.774-.468a60.309,60.309,0,0,0,7.461-1.721A109.657,109.657,0,0,0,55.4,5.695a60.225,60.225,0,0,1-13.842,7.478l-1.876.656-.942.32c-.316.1-.639.179-.959.27l-1.926.52c-.645.165-1.3.271-1.957.409-1.3.3-2.641.4-3.967.585-1.339.066-2.678.185-4.025.121A31.613,31.613,0,0,1,17.923,14.9a28.989,28.989,0,0,1-7.372-3.253A27.8,27.8,0,0,1,0,0Z" transform="translate(0 0)" fill="#73d8c0"/>
      <path id="Trazado_774587-6" data-name="Trazado 774587" d="M0,0A16.772,16.772,0,0,0,1.643,1.031c.275.159.558.3.836.447l.853.388A14.592,14.592,0,0,0,6.819,2.908a13.275,13.275,0,0,0,3.538.159,13.868,13.868,0,0,0,1.76-.234c.586-.1,1.156-.3,1.743-.422l.146-.03a1.127,1.127,0,0,1,1.12,1.795l-3.4,4.373L8.262,12.969a17.915,17.915,0,0,1,.882-2.723c.349-.888.764-1.743,1.2-2.588s.905-1.665,1.4-2.471S12.747,3.594,13.3,2.809l1.266,1.764c-.33.1-.663.2-1,.29a8.421,8.421,0,0,1-1.009.252,13.456,13.456,0,0,1-2.079.241,11.972,11.972,0,0,1-4.141-.528A11.592,11.592,0,0,1,2.687,2.961,10.047,10.047,0,0,1,0,0Z" transform="translate(43.738 0.882)" fill="#73d8c0"/>
    </g>
  </g>
</svg>
