<svg xmlns="http://www.w3.org/2000/svg" width="48.932" height="48.932" viewBox="0 0 48.932 48.932">
  <g id="Grupo_1054579" data-name="Grupo 1054579" opacity="0.5">
    <g id="Grupo_54641" data-name="Grupo 54641">
      <g id="Grupo_54640" data-name="Grupo 54640">
        <path id="Trazado_103612" data-name="Trazado 103612" d="M197.927,5843.105l-9.786-9.788a.815.815,0,0,0-1.153,0l-37.514,37.514a.815.815,0,0,0,0,1.153l9.786,9.786a.815.815,0,0,0,1.153,0l37.514-37.513a.814.814,0,0,0,0-1.152Zm-38.09,36.937-8.634-8.634,36.36-36.359,8.634,8.633Z" transform="translate(-149.235 -5833.079)" fill="#025157"/>
      </g>
    </g>
    <g id="Grupo_54643" data-name="Grupo 54643" transform="translate(36.701 7.34)">
      <g id="Grupo_54642" data-name="Grupo 54642">
        <path id="Trazado_103613" data-name="Trazado 103613" d="M195.754,5841.893a2.447,2.447,0,1,0,2.447,2.446A2.45,2.45,0,0,0,195.754,5841.893Zm0,3.262a.816.816,0,1,1,.816-.815A.816.816,0,0,1,195.754,5845.155Z" transform="translate(-193.307 -5841.893)" fill="#025157"/>
      </g>
    </g>
    <g id="Grupo_54645" data-name="Grupo 54645" transform="translate(30.415 7.579)">
      <g id="Grupo_54644" data-name="Grupo 54644">
        <rect id="Rectángulo_5264" data-name="Rectángulo 5264" width="1.631" height="3.46" transform="translate(0 1.153) rotate(-45)" fill="#025157"/>
      </g>
    </g>
    <g id="Grupo_54647" data-name="Grupo 54647" transform="translate(27.968 10.026)">
      <g id="Grupo_54646" data-name="Grupo 54646">
        <rect id="Rectángulo_5265" data-name="Rectángulo 5265" width="1.631" height="4.614" transform="translate(0 1.153) rotate(-45)" fill="#025157"/>
      </g>
    </g>
    <g id="Grupo_54649" data-name="Grupo 54649" transform="translate(25.522 12.472)">
      <g id="Grupo_54648" data-name="Grupo 54648">
        <rect id="Rectángulo_5266" data-name="Rectángulo 5266" width="1.631" height="3.46" transform="translate(0 1.153) rotate(-45)" fill="#025157"/>
      </g>
    </g>
    <g id="Grupo_54651" data-name="Grupo 54651" transform="translate(23.075 14.918)">
      <g id="Grupo_54650" data-name="Grupo 54650">
        <rect id="Rectángulo_5267" data-name="Rectángulo 5267" width="1.631" height="4.614" transform="translate(0 1.153) rotate(-45)" fill="#025157"/>
      </g>
    </g>
    <g id="Grupo_54653" data-name="Grupo 54653" transform="translate(20.628 17.364)">
      <g id="Grupo_54652" data-name="Grupo 54652">
        <rect id="Rectángulo_5268" data-name="Rectángulo 5268" width="1.631" height="3.46" transform="translate(0 1.153) rotate(-45)" fill="#025157"/>
      </g>
    </g>
    <g id="Grupo_54655" data-name="Grupo 54655" transform="translate(18.181 19.81)">
      <g id="Grupo_54654" data-name="Grupo 54654">
        <rect id="Rectángulo_5269" data-name="Rectángulo 5269" width="1.631" height="4.614" transform="translate(0 1.153) rotate(-45)" fill="#025157"/>
      </g>
    </g>
    <g id="Grupo_54657" data-name="Grupo 54657" transform="translate(15.735 22.256)">
      <g id="Grupo_54656" data-name="Grupo 54656">
        <rect id="Rectángulo_5270" data-name="Rectángulo 5270" width="1.631" height="3.46" transform="translate(0 1.153) rotate(-45.008)" fill="#025157"/>
      </g>
    </g>
    <g id="Grupo_54659" data-name="Grupo 54659" transform="translate(13.288 24.705)">
      <g id="Grupo_54658" data-name="Grupo 54658">
        <rect id="Rectángulo_5271" data-name="Rectángulo 5271" width="1.631" height="4.614" transform="translate(0 1.153) rotate(-45)" fill="#025157"/>
      </g>
    </g>
    <g id="Grupo_54661" data-name="Grupo 54661" transform="translate(10.842 27.151)">
      <g id="Grupo_54660" data-name="Grupo 54660">
        <rect id="Rectángulo_5272" data-name="Rectángulo 5272" width="1.631" height="3.46" transform="translate(0 1.153) rotate(-45)" fill="#025157"/>
      </g>
    </g>
    <g id="Grupo_54663" data-name="Grupo 54663" transform="translate(8.395 29.598)">
      <g id="Grupo_54662" data-name="Grupo 54662">
        <rect id="Rectángulo_5273" data-name="Rectángulo 5273" width="1.631" height="4.614" transform="translate(0 1.153) rotate(-45)" fill="#025157"/>
      </g>
    </g>
    <g id="Grupo_54665" data-name="Grupo 54665" transform="translate(5.95 32.046)">
      <g id="Grupo_54664" data-name="Grupo 54664">
        <rect id="Rectángulo_5274" data-name="Rectángulo 5274" width="1.631" height="3.46" transform="translate(0 1.153) rotate(-45)" fill="#025157"/>
      </g>
    </g>
    <g id="Grupo_54667" data-name="Grupo 54667" transform="translate(3.501 34.492)">
      <g id="Grupo_54666" data-name="Grupo 54666">
        <rect id="Rectángulo_5275" data-name="Rectángulo 5275" width="1.631" height="4.614" transform="translate(0 1.153) rotate(-45)" fill="#025157"/>
      </g>
    </g>
  </g>
</svg>
