<svg xmlns="http://www.w3.org/2000/svg" xmlns:xlink="http://www.w3.org/1999/xlink" width="400" height="145.203" viewBox="0 0 400 145.203">
  <defs>
    <clipPath id="clip-path">
      <rect id="Rectángulo_5138" data-name="Rectángulo 5138" width="250.989" height="64.598" fill="none"/>
    </clipPath>
  </defs>
  <g id="Grupo_1054561" data-name="Grupo 1054561" transform="translate(-487.872 -4218.569)">
    <rect id="Rectángulo_5136" data-name="Rectángulo 5136" width="156.883" height="44.741" transform="translate(730.989 4299.174)" fill="#86bec4"/>
    <g id="Grupo_53912" data-name="Grupo 53912" transform="translate(745.382 4303.244)">
      <path id="Trazado_101831" data-name="Trazado 101831" d="M874.836,4353.033a1.484,1.484,0,0,0-.522-1.185,5.272,5.272,0,0,0-1.829-.841,10.372,10.372,0,0,1-3.447-1.562,2.956,2.956,0,0,1-1.167-2.473,3.062,3.062,0,0,1,1.338-2.564,5.563,5.563,0,0,1,3.416-1,5.131,5.131,0,0,1,3.429,1.118,3.348,3.348,0,0,1,1.281,2.758l-.017.053h-2.482a1.861,1.861,0,0,0-.592-1.433,2.354,2.354,0,0,0-1.662-.548,2.461,2.461,0,0,0-1.587.456,1.438,1.438,0,0,0-.562,1.167,1.253,1.253,0,0,0,.6,1.066,8.267,8.267,0,0,0,2.075.88,8.076,8.076,0,0,1,3.2,1.553,3.227,3.227,0,0,1,1.088,2.535,3.037,3.037,0,0,1-1.294,2.587,5.663,5.663,0,0,1-3.416.947,6.245,6.245,0,0,1-3.64-1.074,3.355,3.355,0,0,1-1.508-3.012l.017-.053h2.491a1.965,1.965,0,0,0,.7,1.67,3.146,3.146,0,0,0,1.943.532,2.552,2.552,0,0,0,1.6-.431A1.379,1.379,0,0,0,874.836,4353.033Z" transform="translate(-867.538 -4343.411)" fill="#12263f"/>
      <path id="Trazado_101832" data-name="Trazado 101832" d="M887.725,4356.453h-2.561v-12.771h2.561Z" transform="translate(-873.209 -4343.499)" fill="#12263f"/>
      <path id="Trazado_101833" data-name="Trazado 101833" d="M899.4,4353.033a1.484,1.484,0,0,0-.522-1.185,5.264,5.264,0,0,0-1.829-.841,10.378,10.378,0,0,1-3.447-1.562,2.958,2.958,0,0,1-1.167-2.473,3.063,3.063,0,0,1,1.338-2.564,5.563,5.563,0,0,1,3.416-1,5.134,5.134,0,0,1,3.429,1.118,3.35,3.35,0,0,1,1.28,2.758l-.017.053H899.4a1.863,1.863,0,0,0-.591-1.433,2.356,2.356,0,0,0-1.662-.548,2.461,2.461,0,0,0-1.587.456,1.436,1.436,0,0,0-.562,1.167,1.254,1.254,0,0,0,.6,1.066,8.278,8.278,0,0,0,2.075.88,8.085,8.085,0,0,1,3.2,1.553,3.229,3.229,0,0,1,1.087,2.535,3.035,3.035,0,0,1-1.294,2.587,5.66,5.66,0,0,1-3.416.947,6.242,6.242,0,0,1-3.64-1.074,3.355,3.355,0,0,1-1.508-3.012l.017-.053h2.491a1.963,1.963,0,0,0,.7,1.67,3.142,3.142,0,0,0,1.943.532,2.552,2.552,0,0,0,1.6-.431A1.379,1.379,0,0,0,899.4,4353.033Z" transform="translate(-875.443 -4343.411)" fill="#12263f"/>
      <path id="Trazado_101834" data-name="Trazado 101834" d="M917.873,4345.656H914.26v10.8H911.7v-10.8h-3.6v-1.974h9.769Z" transform="translate(-880.59 -4343.499)" fill="#12263f"/>
      <path id="Trazado_101835" data-name="Trazado 101835" d="M932.466,4350.839h-5.289v3.639h6.183v1.975h-8.743v-12.771h8.726v1.974h-6.166v3.209h5.289Z" transform="translate(-885.903 -4343.499)" fill="#12263f"/>
      <path id="Trazado_101836" data-name="Trazado 101836" d="M943.165,4343.682l3.254,9.411h.053l3.28-9.411h3.35v12.771h-2.56v-3.808l.245-5.639-.052-.008-3.42,9.455h-1.719l-3.4-9.42-.053.009.245,5.6v3.808h-2.56v-12.771Z" transform="translate(-890.795 -4343.499)" fill="#12263f"/>
      <path id="Trazado_101837" data-name="Trazado 101837" d="M969.264,4353.7h-4.481l-.869,2.754h-2.587l4.394-12.771h2.623l4.376,12.771h-2.588Zm-3.85-2.009h3.219l-1.579-5.017H967Z" transform="translate(-897.714 -4343.499)" fill="#12263f"/>
      <path id="Trazado_101838" data-name="Trazado 101838" d="M870.928,4388.232h-2.561v-12.77h2.561Z" transform="translate(-867.805 -4353.723)" fill="#12263f"/>
      <path id="Trazado_101839" data-name="Trazado 101839" d="M886.229,4388.232h-2.552l-5.157-8.727-.053.008v8.718h-2.56v-12.77h2.56l5.157,8.718.053-.009v-8.708h2.552Z" transform="translate(-870.23 -4353.723)" fill="#12263f"/>
      <path id="Trazado_101840" data-name="Trazado 101840" d="M903.029,4377.436h-3.613v10.8h-2.561v-10.8h-3.6v-1.974h9.77Z" transform="translate(-875.814 -4353.723)" fill="#12263f"/>
      <path id="Trazado_101841" data-name="Trazado 101841" d="M917.621,4382.62h-5.288v3.639h6.183v1.974h-8.744v-12.77H918.5v1.974h-6.165v3.209h5.288Z" transform="translate(-881.127 -4353.723)" fill="#12263f"/>
      <path id="Trazado_101842" data-name="Trazado 101842" d="M927.539,4383.128v5.1h-2.561v-12.77h4.815a5.3,5.3,0,0,1,3.416,1,3.366,3.366,0,0,1,1.232,2.775,2.808,2.808,0,0,1-.517,1.7,3.623,3.623,0,0,1-1.518,1.15,2.737,2.737,0,0,1,1.627,1.114,3.528,3.528,0,0,1,.5,1.929v.938a4.657,4.657,0,0,0,.144,1.119,1.541,1.541,0,0,0,.5.863v.184h-2.64a1.441,1.441,0,0,1-.456-.939,7.915,7.915,0,0,1-.105-1.245v-.9a2.027,2.027,0,0,0-.522-1.485,1.962,1.962,0,0,0-1.469-.53Zm0-1.975h2.21a2.42,2.42,0,0,0,1.609-.456,1.685,1.685,0,0,0,.531-1.351,1.862,1.862,0,0,0-.531-1.4,2.158,2.158,0,0,0-1.565-.516h-2.254Z" transform="translate(-886.019 -4353.723)" fill="#12263f"/>
      <path id="Trazado_101843" data-name="Trazado 101843" d="M952.81,4388.232h-2.552l-5.157-8.727-.053.008v8.718h-2.56v-12.77h2.56l5.157,8.718.053-.009v-8.708h2.552Z" transform="translate(-891.653 -4353.723)" fill="#12263f"/>
      <path id="Trazado_101844" data-name="Trazado 101844" d="M967.571,4385.478h-4.482l-.868,2.754h-2.588l4.394-12.77h2.622l4.376,12.77h-2.587Zm-3.851-2.009h3.219l-1.579-5.016h-.052Z" transform="translate(-897.169 -4353.723)" fill="#12263f"/>
      <path id="Trazado_101845" data-name="Trazado 101845" d="M987.648,4383.794l.017.053a4.157,4.157,0,0,1-1.258,3.271,5.051,5.051,0,0,1-3.591,1.21,4.986,4.986,0,0,1-3.745-1.481,5.252,5.252,0,0,1-1.439-3.816V4380.5a5.342,5.342,0,0,1,1.4-3.815,4.78,4.78,0,0,1,3.648-1.492,5.3,5.3,0,0,1,3.7,1.215,4.156,4.156,0,0,1,1.3,3.311l-.018.053h-2.49a2.794,2.794,0,0,0-.606-1.934,2.423,2.423,0,0,0-1.886-.67,2.139,2.139,0,0,0-1.824.932,3.957,3.957,0,0,0-.675,2.379v2.55a3.849,3.849,0,0,0,.71,2.4,2.29,2.29,0,0,0,1.921.933,2.261,2.261,0,0,0,1.776-.644,2.8,2.8,0,0,0,.575-1.917Z" transform="translate(-902.96 -4353.635)" fill="#12263f"/>
      <path id="Trazado_101846" data-name="Trazado 101846" d="M997.91,4388.232h-2.562v-12.77h2.562Z" transform="translate(-908.66 -4353.723)" fill="#12263f"/>
      <path id="Trazado_101847" data-name="Trazado 101847" d="M1012.974,4382.907a5.359,5.359,0,0,1-1.486,3.886,5.139,5.139,0,0,1-3.864,1.535,5.071,5.071,0,0,1-3.832-1.535,5.386,5.386,0,0,1-1.474-3.886v-2.3a5.4,5.4,0,0,1,1.469-3.881,5.05,5.05,0,0,1,3.829-1.54,5.143,5.143,0,0,1,3.867,1.54,5.351,5.351,0,0,1,1.491,3.881Zm-2.56-2.309a3.875,3.875,0,0,0-.746-2.451,2.456,2.456,0,0,0-2.052-.957,2.391,2.391,0,0,0-2.027.952,3.968,3.968,0,0,0-.719,2.456v2.321a3.985,3.985,0,0,0,.728,2.478,2.4,2.4,0,0,0,2.026.958,2.444,2.444,0,0,0,2.053-.958,3.955,3.955,0,0,0,.737-2.478Z" transform="translate(-910.903 -4353.635)" fill="#12263f"/>
      <path id="Trazado_101848" data-name="Trazado 101848" d="M1031.3,4388.232h-2.552l-5.157-8.727-.053.008v8.718h-2.561v-12.77h2.561l5.157,8.718.053-.009v-8.708h2.552Z" transform="translate(-916.906 -4353.723)" fill="#12263f"/>
      <path id="Trazado_101849" data-name="Trazado 101849" d="M1046.061,4385.478h-4.482l-.868,2.754h-2.587l4.394-12.77h2.622l4.377,12.77h-2.588Zm-3.85-2.009h3.219l-1.579-5.016h-.052Z" transform="translate(-922.423 -4353.723)" fill="#12263f"/>
      <path id="Trazado_101850" data-name="Trazado 101850" d="M1059.24,4386.258h5.684v1.974h-8.245v-12.77h2.561Z" transform="translate(-928.393 -4353.723)" fill="#12263f"/>
    </g>
    <g id="Grupo_53962" data-name="Grupo 53962" transform="translate(487.872 4299.174)">
      <g id="Grupo_53961" data-name="Grupo 53961" clip-path="url(#clip-path)">
        <g id="Grupo_53960" data-name="Grupo 53960" transform="translate(0 -0.321)">
          <rect id="Rectángulo_5137" data-name="Rectángulo 5137" width="349.278" height="64.598" transform="translate(0 0.321)" fill="#f7f1d7"/>
          <g id="Grupo_53959" data-name="Grupo 53959" transform="translate(7.481)">
            <g id="Grupo_53954" data-name="Grupo 53954" transform="translate(2.183)">
              <g id="Grupo_53913" data-name="Grupo 53913">
                <path id="Trazado_101851" data-name="Trazado 101851" d="M502.936,4379.287a.815.815,0,0,1-.815-.814v-40.721a.815.815,0,0,1,1.629,0v40.721A.815.815,0,0,1,502.936,4379.287Z" transform="translate(-502.121 -4336.938)" fill="#025157"/>
              </g>
              <g id="Grupo_53914" data-name="Grupo 53914" transform="translate(162.883)">
                <path id="Trazado_101852" data-name="Trazado 101852" d="M743.087,4379.287a.815.815,0,0,1-.815-.814v-40.721a.814.814,0,0,1,1.628,0v40.721A.814.814,0,0,1,743.087,4379.287Z" transform="translate(-742.272 -4336.938)" fill="#025157"/>
              </g>
              <g id="Grupo_53915" data-name="Grupo 53915" transform="translate(81.646 0.203)">
                <path id="Trazado_101853" data-name="Trazado 101853" d="M623.107,4366.964a.611.611,0,0,1-.61-.611v-28.5a.611.611,0,1,1,1.222,0v28.5A.611.611,0,0,1,623.107,4366.964Z" transform="translate(-622.497 -4337.238)" fill="#025157"/>
              </g>
              <g id="Grupo_53916" data-name="Grupo 53916" transform="translate(65.662 0.509)">
                <path id="Trazado_101854" data-name="Trazado 101854" d="M599.237,4354.587a.306.306,0,0,1-.305-.306v-16.288a.305.305,0,1,1,.61,0v16.288A.306.306,0,0,1,599.237,4354.587Z" transform="translate(-598.932 -4337.688)" fill="#025157"/>
              </g>
              <g id="Grupo_53917" data-name="Grupo 53917" transform="translate(49.374 0.509)">
                <path id="Trazado_101855" data-name="Trazado 101855" d="M575.222,4354.587a.306.306,0,0,1-.305-.306v-16.288a.305.305,0,1,1,.61,0v16.288A.306.306,0,0,1,575.222,4354.587Z" transform="translate(-574.917 -4337.688)" fill="#025157"/>
              </g>
              <g id="Grupo_53918" data-name="Grupo 53918" transform="translate(33.086 0.509)">
                <path id="Trazado_101856" data-name="Trazado 101856" d="M551.207,4354.587a.306.306,0,0,1-.305-.306v-16.288a.305.305,0,1,1,.61,0v16.288A.305.305,0,0,1,551.207,4354.587Z" transform="translate(-550.902 -4337.688)" fill="#025157"/>
              </g>
              <g id="Grupo_53919" data-name="Grupo 53919" transform="translate(16.798 0.509)">
                <path id="Trazado_101857" data-name="Trazado 101857" d="M527.192,4354.587a.306.306,0,0,1-.305-.306v-16.288a.305.305,0,1,1,.61,0v16.288A.306.306,0,0,1,527.192,4354.587Z" transform="translate(-526.887 -4337.688)" fill="#025157"/>
              </g>
              <g id="Grupo_53920" data-name="Grupo 53920" transform="translate(57.518 0.509)">
                <path id="Trazado_101858" data-name="Trazado 101858" d="M587.23,4348.072a.306.306,0,0,1-.306-.306v-9.772a.306.306,0,1,1,.611,0v9.772A.306.306,0,0,1,587.23,4348.072Z" transform="translate(-586.924 -4337.688)" fill="#025157"/>
              </g>
              <g id="Grupo_53921" data-name="Grupo 53921" transform="translate(73.806 0.509)">
                <path id="Trazado_101859" data-name="Trazado 101859" d="M611.245,4348.072a.306.306,0,0,1-.306-.306v-9.772a.306.306,0,1,1,.611,0v9.772A.306.306,0,0,1,611.245,4348.072Z" transform="translate(-610.939 -4337.688)" fill="#025157"/>
              </g>
              <g id="Grupo_53922" data-name="Grupo 53922" transform="translate(41.23 0.509)">
                <path id="Trazado_101860" data-name="Trazado 101860" d="M563.215,4348.072a.306.306,0,0,1-.306-.306v-9.772a.306.306,0,1,1,.611,0v9.772A.306.306,0,0,1,563.215,4348.072Z" transform="translate(-562.909 -4337.688)" fill="#025157"/>
              </g>
              <g id="Grupo_53923" data-name="Grupo 53923" transform="translate(24.941 0.509)">
                <path id="Trazado_101861" data-name="Trazado 101861" d="M539.2,4348.072a.306.306,0,0,1-.305-.306v-9.772a.306.306,0,1,1,.611,0v9.772A.306.306,0,0,1,539.2,4348.072Z" transform="translate(-538.894 -4337.688)" fill="#025157"/>
              </g>
              <g id="Grupo_53924" data-name="Grupo 53924" transform="translate(8.653 0.509)">
                <path id="Trazado_101862" data-name="Trazado 101862" d="M515.184,4348.072a.306.306,0,0,1-.305-.306v-9.772a.306.306,0,1,1,.611,0v9.772A.306.306,0,0,1,515.184,4348.072Z" transform="translate(-514.879 -4337.688)" fill="#025157"/>
              </g>
              <g id="Grupo_53925" data-name="Grupo 53925" transform="translate(147.104 0.509)">
                <path id="Trazado_101863" data-name="Trazado 101863" d="M719.313,4354.587a.306.306,0,0,1-.306-.306v-16.288a.306.306,0,1,1,.611,0v16.288A.306.306,0,0,1,719.313,4354.587Z" transform="translate(-719.007 -4337.688)" fill="#025157"/>
              </g>
              <g id="Grupo_53926" data-name="Grupo 53926" transform="translate(130.816 0.509)">
                <path id="Trazado_101864" data-name="Trazado 101864" d="M695.3,4354.587a.306.306,0,0,1-.305-.306v-16.288a.306.306,0,1,1,.611,0v16.288A.306.306,0,0,1,695.3,4354.587Z" transform="translate(-694.992 -4337.688)" fill="#025157"/>
              </g>
              <g id="Grupo_53927" data-name="Grupo 53927" transform="translate(114.527 0.509)">
                <path id="Trazado_101865" data-name="Trazado 101865" d="M671.282,4354.587a.306.306,0,0,1-.305-.306v-16.288a.306.306,0,1,1,.611,0v16.288A.306.306,0,0,1,671.282,4354.587Z" transform="translate(-670.977 -4337.688)" fill="#025157"/>
              </g>
              <g id="Grupo_53928" data-name="Grupo 53928" transform="translate(98.239 0.509)">
                <path id="Trazado_101866" data-name="Trazado 101866" d="M647.267,4354.587a.306.306,0,0,1-.305-.306v-16.288a.306.306,0,1,1,.611,0v16.288A.306.306,0,0,1,647.267,4354.587Z" transform="translate(-646.962 -4337.688)" fill="#025157"/>
              </g>
              <g id="Grupo_53929" data-name="Grupo 53929" transform="translate(138.96 0.509)">
                <path id="Trazado_101867" data-name="Trazado 101867" d="M707.305,4348.072a.306.306,0,0,1-.305-.306v-9.772a.305.305,0,1,1,.61,0v9.772A.306.306,0,0,1,707.305,4348.072Z" transform="translate(-707 -4337.688)" fill="#025157"/>
              </g>
              <g id="Grupo_53930" data-name="Grupo 53930" transform="translate(155.248 0.509)">
                <path id="Trazado_101868" data-name="Trazado 101868" d="M731.32,4348.072a.306.306,0,0,1-.305-.306v-9.772a.305.305,0,1,1,.61,0v9.772A.306.306,0,0,1,731.32,4348.072Z" transform="translate(-731.015 -4337.688)" fill="#025157"/>
              </g>
              <g id="Grupo_53931" data-name="Grupo 53931" transform="translate(122.672 0.509)">
                <path id="Trazado_101869" data-name="Trazado 101869" d="M683.29,4348.072a.306.306,0,0,1-.305-.306v-9.772a.305.305,0,1,1,.61,0v9.772A.306.306,0,0,1,683.29,4348.072Z" transform="translate(-682.985 -4337.688)" fill="#025157"/>
              </g>
              <g id="Grupo_53932" data-name="Grupo 53932" transform="translate(106.383 0.509)">
                <path id="Trazado_101870" data-name="Trazado 101870" d="M659.275,4348.072a.306.306,0,0,1-.305-.306v-9.772a.305.305,0,1,1,.61,0v9.772A.306.306,0,0,1,659.275,4348.072Z" transform="translate(-658.97 -4337.688)" fill="#025157"/>
              </g>
              <g id="Grupo_53933" data-name="Grupo 53933" transform="translate(90.095 0.509)">
                <path id="Trazado_101871" data-name="Trazado 101871" d="M635.26,4348.072a.306.306,0,0,1-.306-.306v-9.772a.306.306,0,1,1,.611,0v9.772A.306.306,0,0,1,635.26,4348.072Z" transform="translate(-634.954 -4337.688)" fill="#025157"/>
              </g>
              <g id="Grupo_53934" data-name="Grupo 53934" transform="translate(325.767)">
                <path id="Trazado_101872" data-name="Trazado 101872" d="M983.237,4379.287a.814.814,0,0,1-.814-.814v-40.721a.814.814,0,0,1,1.628,0v40.721A.814.814,0,0,1,983.237,4379.287Z" transform="translate(-982.423 -4336.938)" fill="#025157"/>
              </g>
              <g id="Grupo_53935" data-name="Grupo 53935" transform="translate(244.528 0.203)">
                <path id="Trazado_101873" data-name="Trazado 101873" d="M863.258,4366.964a.611.611,0,0,1-.611-.611v-28.5a.611.611,0,0,1,1.222,0v28.5A.611.611,0,0,1,863.258,4366.964Z" transform="translate(-862.647 -4337.238)" fill="#025157"/>
              </g>
              <g id="Grupo_53936" data-name="Grupo 53936" transform="translate(228.546 0.509)">
                <path id="Trazado_101874" data-name="Trazado 101874" d="M839.388,4354.587a.306.306,0,0,1-.305-.306v-16.288a.305.305,0,1,1,.61,0v16.288A.306.306,0,0,1,839.388,4354.587Z" transform="translate(-839.083 -4337.688)" fill="#025157"/>
              </g>
              <g id="Grupo_53937" data-name="Grupo 53937" transform="translate(212.258 0.509)">
                <path id="Trazado_101875" data-name="Trazado 101875" d="M815.373,4354.587a.306.306,0,0,1-.305-.306v-16.288a.305.305,0,1,1,.61,0v16.288A.306.306,0,0,1,815.373,4354.587Z" transform="translate(-815.068 -4337.688)" fill="#025157"/>
              </g>
              <g id="Grupo_53938" data-name="Grupo 53938" transform="translate(195.969 0.509)">
                <path id="Trazado_101876" data-name="Trazado 101876" d="M791.358,4354.587a.306.306,0,0,1-.306-.306v-16.288a.306.306,0,1,1,.611,0v16.288A.306.306,0,0,1,791.358,4354.587Z" transform="translate(-791.052 -4337.688)" fill="#025157"/>
              </g>
              <g id="Grupo_53939" data-name="Grupo 53939" transform="translate(179.68 0.509)">
                <path id="Trazado_101877" data-name="Trazado 101877" d="M767.343,4354.587a.306.306,0,0,1-.306-.306v-16.288a.306.306,0,1,1,.611,0v16.288A.306.306,0,0,1,767.343,4354.587Z" transform="translate(-767.037 -4337.688)" fill="#025157"/>
              </g>
              <g id="Grupo_53940" data-name="Grupo 53940" transform="translate(220.401 0.509)">
                <path id="Trazado_101878" data-name="Trazado 101878" d="M827.38,4348.072a.306.306,0,0,1-.305-.306v-9.772a.306.306,0,1,1,.611,0v9.772A.306.306,0,0,1,827.38,4348.072Z" transform="translate(-827.075 -4337.688)" fill="#025157"/>
              </g>
              <g id="Grupo_53941" data-name="Grupo 53941" transform="translate(236.69 0.509)">
                <path id="Trazado_101879" data-name="Trazado 101879" d="M851.4,4348.072a.306.306,0,0,1-.305-.306v-9.772a.306.306,0,1,1,.611,0v9.772A.306.306,0,0,1,851.4,4348.072Z" transform="translate(-851.09 -4337.688)" fill="#025157"/>
              </g>
              <g id="Grupo_53942" data-name="Grupo 53942" transform="translate(204.113 0.509)">
                <path id="Trazado_101880" data-name="Trazado 101880" d="M803.365,4348.072a.306.306,0,0,1-.305-.306v-9.772a.306.306,0,1,1,.611,0v9.772A.306.306,0,0,1,803.365,4348.072Z" transform="translate(-803.06 -4337.688)" fill="#025157"/>
              </g>
              <g id="Grupo_53943" data-name="Grupo 53943" transform="translate(187.825 0.509)">
                <path id="Trazado_101881" data-name="Trazado 101881" d="M779.35,4348.072a.306.306,0,0,1-.305-.306v-9.772a.306.306,0,1,1,.611,0v9.772A.306.306,0,0,1,779.35,4348.072Z" transform="translate(-779.045 -4337.688)" fill="#025157"/>
              </g>
              <g id="Grupo_53944" data-name="Grupo 53944" transform="translate(171.537 0.509)">
                <path id="Trazado_101882" data-name="Trazado 101882" d="M755.335,4348.072a.306.306,0,0,1-.305-.306v-9.772a.305.305,0,1,1,.61,0v9.772A.306.306,0,0,1,755.335,4348.072Z" transform="translate(-755.03 -4337.688)" fill="#025157"/>
              </g>
              <g id="Grupo_53945" data-name="Grupo 53945" transform="translate(309.987 0.509)">
                <path id="Trazado_101883" data-name="Trazado 101883" d="M959.463,4354.587a.306.306,0,0,1-.305-.306v-16.288a.306.306,0,1,1,.611,0v16.288A.306.306,0,0,1,959.463,4354.587Z" transform="translate(-959.158 -4337.688)" fill="#025157"/>
              </g>
              <g id="Grupo_53946" data-name="Grupo 53946" transform="translate(293.699 0.509)">
                <path id="Trazado_101884" data-name="Trazado 101884" d="M935.448,4354.587a.306.306,0,0,1-.305-.306v-16.288a.306.306,0,1,1,.611,0v16.288A.306.306,0,0,1,935.448,4354.587Z" transform="translate(-935.143 -4337.688)" fill="#025157"/>
              </g>
              <g id="Grupo_53947" data-name="Grupo 53947" transform="translate(277.411 0.509)">
                <path id="Trazado_101885" data-name="Trazado 101885" d="M911.433,4354.587a.306.306,0,0,1-.305-.306v-16.288a.305.305,0,1,1,.611,0v16.288A.306.306,0,0,1,911.433,4354.587Z" transform="translate(-911.128 -4337.688)" fill="#025157"/>
              </g>
              <g id="Grupo_53948" data-name="Grupo 53948" transform="translate(261.122 0.509)">
                <path id="Trazado_101886" data-name="Trazado 101886" d="M887.418,4354.587a.306.306,0,0,1-.305-.306v-16.288a.305.305,0,1,1,.61,0v16.288A.306.306,0,0,1,887.418,4354.587Z" transform="translate(-887.113 -4337.688)" fill="#025157"/>
              </g>
              <g id="Grupo_53949" data-name="Grupo 53949" transform="translate(301.843 0.509)">
                <path id="Trazado_101887" data-name="Trazado 101887" d="M947.456,4348.072a.306.306,0,0,1-.305-.306v-9.772a.305.305,0,1,1,.61,0v9.772A.306.306,0,0,1,947.456,4348.072Z" transform="translate(-947.151 -4337.688)" fill="#025157"/>
              </g>
              <g id="Grupo_53950" data-name="Grupo 53950" transform="translate(318.132 0.509)">
                <path id="Trazado_101888" data-name="Trazado 101888" d="M971.471,4348.072a.306.306,0,0,1-.305-.306v-9.772a.305.305,0,1,1,.61,0v9.772A.306.306,0,0,1,971.471,4348.072Z" transform="translate(-971.166 -4337.688)" fill="#025157"/>
              </g>
              <g id="Grupo_53951" data-name="Grupo 53951" transform="translate(285.554 0.509)">
                <path id="Trazado_101889" data-name="Trazado 101889" d="M923.441,4348.072a.306.306,0,0,1-.306-.306v-9.772a.306.306,0,1,1,.611,0v9.772A.306.306,0,0,1,923.441,4348.072Z" transform="translate(-923.135 -4337.688)" fill="#025157"/>
              </g>
              <g id="Grupo_53952" data-name="Grupo 53952" transform="translate(269.266 0.509)">
                <path id="Trazado_101890" data-name="Trazado 101890" d="M899.426,4348.072a.306.306,0,0,1-.306-.306v-9.772a.306.306,0,1,1,.611,0v9.772A.306.306,0,0,1,899.426,4348.072Z" transform="translate(-899.12 -4337.688)" fill="#025157"/>
              </g>
              <g id="Grupo_53953" data-name="Grupo 53953" transform="translate(252.978 0.509)">
                <path id="Trazado_101891" data-name="Trazado 101891" d="M875.411,4348.072a.306.306,0,0,1-.306-.306v-9.772a.306.306,0,1,1,.611,0v9.772A.306.306,0,0,1,875.411,4348.072Z" transform="translate(-875.105 -4337.688)" fill="#025157"/>
              </g>
            </g>
            <g id="Grupo_53955" data-name="Grupo 53955" transform="translate(0 44.087)">
              <path id="Trazado_101892" data-name="Trazado 101892" d="M498.9,4406.763c0-3.138,1.129-4.824,3.007-4.824,1.862,0,2.991,1.687,2.991,4.824s-1.129,4.883-2.991,4.883C500.031,4411.646,498.9,4409.9,498.9,4406.763Zm4.824,0c0-2.743-.733-3.856-1.818-3.856-1.1,0-1.833,1.114-1.833,3.856s.733,3.916,1.833,3.916C502.993,4410.679,503.726,4409.506,503.726,4406.763Z" transform="translate(-498.902 -4401.939)" fill="#025157"/>
            </g>
            <g id="Grupo_53956" data-name="Grupo 53956" transform="translate(65.574 31.908)">
              <path id="Trazado_101893" data-name="Trazado 101893" d="M595.582,4385.193a.838.838,0,1,1,.836.776A.779.779,0,0,1,595.582,4385.193Zm.22,2.243H597v7.126h-1.2Z" transform="translate(-595.582 -4384.122)" fill="#025157"/>
              <path id="Trazado_101894" data-name="Trazado 101894" d="M601.223,4388.786h1l.1,1.026h.043a3.361,3.361,0,0,1,2.39-1.2c1.5,0,2.17.968,2.17,2.786v4.517h-1.2v-4.355c0-1.335-.41-1.907-1.349-1.907-.733,0-1.232.381-1.95,1.1v5.161h-1.2Z" transform="translate(-597.397 -4385.471)" fill="#025157"/>
              <path id="Trazado_101895" data-name="Trazado 101895" d="M615.7,4388.609a2.945,2.945,0,0,1,2.084.851l-.6.777a2.157,2.157,0,0,0-1.437-.631c-1.291,0-2.229,1.115-2.229,2.757,0,1.627.895,2.727,2.2,2.727a2.54,2.54,0,0,0,1.671-.718l.543.792a3.527,3.527,0,0,1-2.317.924c-1.892,0-3.343-1.363-3.343-3.724A3.452,3.452,0,0,1,615.7,4388.609Z" transform="translate(-600.95 -4385.471)" fill="#025157"/>
              <path id="Trazado_101896" data-name="Trazado 101896" d="M622.9,4383.982h1.2v2.846l-.044,1.466a3.411,3.411,0,0,1,2.375-1.173c1.5,0,2.17.968,2.17,2.787v4.516h-1.2v-4.355c0-1.335-.41-1.906-1.349-1.906-.733,0-1.232.381-1.95,1.1v5.161h-1.2Z" transform="translate(-604.372 -4383.982)" fill="#025157"/>
              <path id="Trazado_101897" data-name="Trazado 101897" d="M637.077,4388.609c1.818,0,2.844,1.305,2.844,3.344a4.266,4.266,0,0,1-.043.659h-4.81a2.371,2.371,0,0,0,2.375,2.508,3.221,3.221,0,0,0,1.774-.557l.425.792a4.241,4.241,0,0,1-2.346.733,3.408,3.408,0,0,1-3.417-3.724C633.88,4390.032,635.449,4388.609,637.077,4388.609Zm1.789,3.212c0-1.452-.645-2.259-1.76-2.259a2.225,2.225,0,0,0-2.052,2.259Z" transform="translate(-607.904 -4385.471)" fill="#025157"/>
              <path id="Trazado_101898" data-name="Trazado 101898" d="M644.813,4394.3a3.2,3.2,0,0,0,2.1.85c.938,0,1.407-.5,1.407-1.115,0-.733-.851-1.055-1.628-1.348-1.012-.367-2.126-.851-2.126-2.053,0-1.145.909-2.024,2.448-2.024a3.562,3.562,0,0,1,2.215.806l-.573.764a2.644,2.644,0,0,0-1.628-.631c-.894,0-1.3.483-1.3,1.026,0,.675.777.924,1.584,1.232,1.026.382,2.17.806,2.17,2.156,0,1.158-.924,2.125-2.611,2.125a4.29,4.29,0,0,1-2.654-.982Z" transform="translate(-611.228 -4385.471)" fill="#025157"/>
            </g>
            <g id="Grupo_53957" data-name="Grupo 53957" transform="translate(163.397 44.264)">
              <path id="Trazado_101899" data-name="Trazado 101899" d="M739.811,4410.557h2.14v-6.892h-1.7v-.777a5.594,5.594,0,0,0,1.98-.689h.923v8.358h1.936v1h-5.278Z" transform="translate(-739.811 -4402.199)" fill="#025157"/>
            </g>
            <g id="Grupo_53958" data-name="Grupo 53958" transform="translate(325.651 44.087)">
              <path id="Trazado_101900" data-name="Trazado 101900" d="M979.091,4410.752c2.815-2.8,4.4-4.487,4.4-6a1.656,1.656,0,0,0-1.774-1.832,2.759,2.759,0,0,0-1.995,1.128l-.688-.689a3.672,3.672,0,0,1,2.83-1.422,2.6,2.6,0,0,1,2.8,2.757c0,1.76-1.6,3.5-3.813,5.822.513-.044,1.085-.088,1.57-.088h2.713v1.041h-6.042Z" transform="translate(-979.033 -4401.939)" fill="#025157"/>
            </g>
          </g>
        </g>
      </g>
    </g>
    <rect id="Rectángulo_5139" data-name="Rectángulo 5139" width="111.823" height="44.741" transform="translate(730.989 4218.569)" fill="#baefe4"/>
    <g id="Grupo_53963" data-name="Grupo 53963" transform="translate(746.739 4224.132)">
      <path id="Trazado_101901" data-name="Trazado 101901" d="M876.836,4236.391a1.481,1.481,0,0,0-.522-1.183,5.252,5.252,0,0,0-1.828-.841,10.4,10.4,0,0,1-3.447-1.562,2.958,2.958,0,0,1-1.167-2.474,3.063,3.063,0,0,1,1.338-2.565,5.573,5.573,0,0,1,3.416-1,5.129,5.129,0,0,1,3.429,1.119,3.346,3.346,0,0,1,1.281,2.757l-.017.053h-2.482a1.861,1.861,0,0,0-.592-1.434,2.354,2.354,0,0,0-1.662-.549,2.459,2.459,0,0,0-1.587.457,1.439,1.439,0,0,0-.562,1.167,1.253,1.253,0,0,0,.6,1.065,8.262,8.262,0,0,0,2.075.881,8.056,8.056,0,0,1,3.2,1.553,3.228,3.228,0,0,1,1.088,2.536,3.036,3.036,0,0,1-1.293,2.587,5.656,5.656,0,0,1-3.416.946,6.245,6.245,0,0,1-3.64-1.074,3.355,3.355,0,0,1-1.508-3.012l.017-.053h2.491a1.966,1.966,0,0,0,.7,1.671,3.149,3.149,0,0,0,1.943.531,2.552,2.552,0,0,0,1.6-.43A1.382,1.382,0,0,0,876.836,4236.391Z" transform="translate(-869.538 -4226.771)" fill="#12263f"/>
      <path id="Trazado_101902" data-name="Trazado 101902" d="M889.725,4239.813h-2.561v-12.77h2.561Z" transform="translate(-875.209 -4226.859)" fill="#12263f"/>
      <path id="Trazado_101903" data-name="Trazado 101903" d="M901.4,4236.391a1.481,1.481,0,0,0-.522-1.183,5.247,5.247,0,0,0-1.829-.841,10.408,10.408,0,0,1-3.447-1.562,2.96,2.96,0,0,1-1.167-2.474,3.065,3.065,0,0,1,1.338-2.565,5.573,5.573,0,0,1,3.416-1,5.132,5.132,0,0,1,3.429,1.119,3.347,3.347,0,0,1,1.28,2.757l-.017.053H901.4a1.863,1.863,0,0,0-.591-1.434,2.356,2.356,0,0,0-1.662-.549,2.458,2.458,0,0,0-1.587.457,1.437,1.437,0,0,0-.562,1.167,1.254,1.254,0,0,0,.6,1.065,8.275,8.275,0,0,0,2.075.881,8.065,8.065,0,0,1,3.2,1.553,3.23,3.23,0,0,1,1.087,2.536,3.034,3.034,0,0,1-1.294,2.587,5.653,5.653,0,0,1-3.416.946,6.242,6.242,0,0,1-3.64-1.074,3.354,3.354,0,0,1-1.508-3.012l.017-.053h2.491a1.965,1.965,0,0,0,.7,1.671,3.145,3.145,0,0,0,1.943.531,2.552,2.552,0,0,0,1.6-.43A1.382,1.382,0,0,0,901.4,4236.391Z" transform="translate(-877.443 -4226.771)" fill="#12263f"/>
      <path id="Trazado_101904" data-name="Trazado 101904" d="M919.874,4229.016h-3.613v10.8H913.7v-10.8h-3.6v-1.973h9.77Z" transform="translate(-882.59 -4226.859)" fill="#12263f"/>
      <path id="Trazado_101905" data-name="Trazado 101905" d="M934.466,4234.2h-5.289v3.639h6.183v1.974h-8.743v-12.77h8.726v1.973h-6.166v3.209h5.289Z" transform="translate(-887.903 -4226.859)" fill="#12263f"/>
      <path id="Trazado_101906" data-name="Trazado 101906" d="M945.165,4227.043l3.254,9.411h.053l3.28-9.411h3.35v12.77h-2.56v-3.807l.245-5.64-.052-.008-3.42,9.455h-1.719l-3.4-9.42-.053.009.246,5.6v3.807h-2.56v-12.77Z" transform="translate(-892.795 -4226.859)" fill="#12263f"/>
      <path id="Trazado_101907" data-name="Trazado 101907" d="M971.264,4237.058h-4.481l-.869,2.755h-2.587l4.394-12.77h2.623l4.376,12.77h-2.588Zm-3.851-2.008h3.219l-1.579-5.017H969Z" transform="translate(-899.714 -4226.859)" fill="#12263f"/>
      <path id="Trazado_101908" data-name="Trazado 101908" d="M872.928,4271.591h-2.561v-12.77h2.561Z" transform="translate(-869.805 -4237.083)" fill="#12263f"/>
      <path id="Trazado_101909" data-name="Trazado 101909" d="M888.229,4271.591h-2.552l-5.158-8.726-.053.008v8.717h-2.56v-12.77h2.56l5.157,8.719.053-.01v-8.709h2.552Z" transform="translate(-872.23 -4237.083)" fill="#12263f"/>
      <path id="Trazado_101910" data-name="Trazado 101910" d="M906.307,4269.759a4.846,4.846,0,0,1-1.776,1.343,6.965,6.965,0,0,1-3.047.587,5.225,5.225,0,0,1-3.824-1.457,5.063,5.063,0,0,1-1.483-3.779v-2.667a5.177,5.177,0,0,1,1.426-3.775,4.9,4.9,0,0,1,3.67-1.46,5.113,5.113,0,0,1,3.574,1.135,3.942,3.942,0,0,1,1.267,2.987l-.018.053h-2.412a2.461,2.461,0,0,0-.648-1.61,2.268,2.268,0,0,0-1.693-.592,2.3,2.3,0,0,0-1.894.906,3.644,3.644,0,0,0-.72,2.335v2.682a3.6,3.6,0,0,0,.746,2.362,2.466,2.466,0,0,0,2.008.906,4.6,4.6,0,0,0,1.438-.184,2.182,2.182,0,0,0,.825-.455v-2.361h-2.263v-1.771h4.824Z" transform="translate(-878.109 -4236.996)" fill="#12263f"/>
      <path id="Trazado_101911" data-name="Trazado 101911" d="M916.918,4269.619H922.6v1.973h-8.244v-12.77h2.56Z" transform="translate(-883.959 -4237.083)" fill="#12263f"/>
      <path id="Trazado_101912" data-name="Trazado 101912" d="M936.534,4264.44h-5.288v3.64h6.183v1.972h-8.744v-12.769h8.727v1.974h-6.165v3.209h5.288Zm-3.3-10.4h2.71l.018.052-2.43,2.28h-2.044Z" transform="translate(-888.568 -4235.544)" fill="#12263f"/>
      <path id="Trazado_101913" data-name="Trazado 101913" d="M950.593,4268.171a1.482,1.482,0,0,0-.521-1.183,5.3,5.3,0,0,0-1.829-.842,10.434,10.434,0,0,1-3.447-1.562,2.959,2.959,0,0,1-1.166-2.473,3.064,3.064,0,0,1,1.337-2.565,5.573,5.573,0,0,1,3.417-1,5.132,5.132,0,0,1,3.429,1.118,3.347,3.347,0,0,1,1.281,2.758l-.018.054h-2.482a1.869,1.869,0,0,0-.591-1.435,2.359,2.359,0,0,0-1.662-.548,2.45,2.45,0,0,0-1.587.458,1.436,1.436,0,0,0-.562,1.166,1.253,1.253,0,0,0,.6,1.065,8.3,8.3,0,0,0,2.074.881,8.062,8.062,0,0,1,3.2,1.553,3.227,3.227,0,0,1,1.088,2.535,3.033,3.033,0,0,1-1.294,2.587,5.647,5.647,0,0,1-3.416.948,6.238,6.238,0,0,1-3.64-1.075,3.354,3.354,0,0,1-1.508-3.013l.017-.053h2.491a1.969,1.969,0,0,0,.7,1.671,3.145,3.145,0,0,0,1.943.53,2.559,2.559,0,0,0,1.6-.429A1.382,1.382,0,0,0,950.593,4268.171Z" transform="translate(-893.269 -4236.996)" fill="#12263f"/>
    </g>
    <g id="Grupo_54076" data-name="Grupo 54076" transform="translate(487.872 4218.569)">
      <g id="Grupo_54075" data-name="Grupo 54075" clip-path="url(#clip-path)">
        <g id="Grupo_54074" data-name="Grupo 54074">
          <rect id="Rectángulo_5140" data-name="Rectángulo 5140" width="349.278" height="64.598" fill="#f7f1d7"/>
          <g id="Grupo_54073" data-name="Grupo 54073" transform="translate(7.481 0.022)">
            <g id="Grupo_54065" data-name="Grupo 54065" transform="translate(1.911)">
              <g id="Grupo_53964" data-name="Grupo 53964">
                <path id="Trazado_101914" data-name="Trazado 101914" d="M502.535,4260.951a.814.814,0,0,1-.815-.814v-40.721a.815.815,0,0,1,1.629,0v40.721A.814.814,0,0,1,502.535,4260.951Z" transform="translate(-501.72 -4218.601)" fill="#025157"/>
              </g>
              <g id="Grupo_53965" data-name="Grupo 53965" transform="translate(64.128)">
                <path id="Trazado_101915" data-name="Trazado 101915" d="M597.082,4260.951a.814.814,0,0,1-.814-.814v-40.721a.814.814,0,1,1,1.629,0v40.721A.814.814,0,0,1,597.082,4260.951Z" transform="translate(-596.268 -4218.601)" fill="#025157"/>
              </g>
              <g id="Grupo_53966" data-name="Grupo 53966" transform="translate(32.267 0.203)">
                <path id="Trazado_101916" data-name="Trazado 101916" d="M549.905,4248.627a.611.611,0,0,1-.611-.611v-28.5a.611.611,0,1,1,1.221,0v28.5A.61.61,0,0,1,549.905,4248.627Z" transform="translate(-549.294 -4218.901)" fill="#025157"/>
              </g>
              <g id="Grupo_53967" data-name="Grupo 53967" transform="translate(26.16 0.509)">
                <path id="Trazado_101917" data-name="Trazado 101917" d="M540.6,4236.25a.305.305,0,0,1-.305-.306v-16.288a.305.305,0,0,1,.61,0v16.288A.306.306,0,0,1,540.6,4236.25Z" transform="translate(-540.29 -4219.352)" fill="#025157"/>
              </g>
              <g id="Grupo_53968" data-name="Grupo 53968" transform="translate(19.747 0.509)">
                <path id="Trazado_101918" data-name="Trazado 101918" d="M531.14,4236.25a.306.306,0,0,1-.305-.306v-16.288a.305.305,0,0,1,.61,0v16.288A.305.305,0,0,1,531.14,4236.25Z" transform="translate(-530.835 -4219.352)" fill="#025157"/>
              </g>
              <g id="Grupo_53969" data-name="Grupo 53969" transform="translate(13.334 0.509)">
                <path id="Trazado_101919" data-name="Trazado 101919" d="M521.685,4236.25a.306.306,0,0,1-.305-.306v-16.288a.306.306,0,0,1,.611,0v16.288A.306.306,0,0,1,521.685,4236.25Z" transform="translate(-521.38 -4219.352)" fill="#025157"/>
              </g>
              <g id="Grupo_53970" data-name="Grupo 53970" transform="translate(6.922 0.509)">
                <path id="Trazado_101920" data-name="Trazado 101920" d="M512.231,4236.25a.306.306,0,0,1-.306-.306v-16.288a.306.306,0,0,1,.611,0v16.288A.306.306,0,0,1,512.231,4236.25Z" transform="translate(-511.925 -4219.352)" fill="#025157"/>
              </g>
              <g id="Grupo_53971" data-name="Grupo 53971" transform="translate(22.953 0.509)">
                <path id="Trazado_101921" data-name="Trazado 101921" d="M535.867,4229.735a.305.305,0,0,1-.305-.305v-9.773a.306.306,0,0,1,.611,0v9.773A.305.305,0,0,1,535.867,4229.735Z" transform="translate(-535.562 -4219.352)" fill="#025157"/>
              </g>
              <g id="Grupo_53972" data-name="Grupo 53972" transform="translate(29.366 0.509)">
                <path id="Trazado_101922" data-name="Trazado 101922" d="M545.322,4229.735a.305.305,0,0,1-.305-.305v-9.773a.306.306,0,0,1,.611,0v9.773A.305.305,0,0,1,545.322,4229.735Z" transform="translate(-545.017 -4219.352)" fill="#025157"/>
              </g>
              <g id="Grupo_53973" data-name="Grupo 53973" transform="translate(16.541 0.509)">
                <path id="Trazado_101923" data-name="Trazado 101923" d="M526.413,4229.735a.305.305,0,0,1-.306-.305v-9.773a.306.306,0,0,1,.611,0v9.773A.305.305,0,0,1,526.413,4229.735Z" transform="translate(-526.107 -4219.352)" fill="#025157"/>
              </g>
              <g id="Grupo_53974" data-name="Grupo 53974" transform="translate(10.128 0.509)">
                <path id="Trazado_101924" data-name="Trazado 101924" d="M516.958,4229.735a.3.3,0,0,1-.305-.305v-9.773a.305.305,0,0,1,.61,0v9.773A.3.3,0,0,1,516.958,4229.735Z" transform="translate(-516.653 -4219.352)" fill="#025157"/>
              </g>
              <g id="Grupo_53975" data-name="Grupo 53975" transform="translate(3.715 0.509)">
                <path id="Trazado_101925" data-name="Trazado 101925" d="M507.5,4229.735a.305.305,0,0,1-.305-.305v-9.773a.305.305,0,0,1,.61,0v9.773A.3.3,0,0,1,507.5,4229.735Z" transform="translate(-507.198 -4219.352)" fill="#025157"/>
              </g>
              <g id="Grupo_53976" data-name="Grupo 53976" transform="translate(58.223 0.509)">
                <path id="Trazado_101926" data-name="Trazado 101926" d="M587.869,4236.25a.306.306,0,0,1-.306-.306v-16.288a.306.306,0,0,1,.611,0v16.288A.306.306,0,0,1,587.869,4236.25Z" transform="translate(-587.563 -4219.352)" fill="#025157"/>
              </g>
              <g id="Grupo_53977" data-name="Grupo 53977" transform="translate(51.811 0.509)">
                <path id="Trazado_101927" data-name="Trazado 101927" d="M578.414,4236.25a.305.305,0,0,1-.305-.306v-16.288a.305.305,0,0,1,.61,0v16.288A.306.306,0,0,1,578.414,4236.25Z" transform="translate(-578.109 -4219.352)" fill="#025157"/>
              </g>
              <g id="Grupo_53978" data-name="Grupo 53978" transform="translate(45.398 0.509)">
                <path id="Trazado_101928" data-name="Trazado 101928" d="M568.959,4236.25a.306.306,0,0,1-.305-.306v-16.288a.305.305,0,0,1,.61,0v16.288A.305.305,0,0,1,568.959,4236.25Z" transform="translate(-568.654 -4219.352)" fill="#025157"/>
              </g>
              <g id="Grupo_53979" data-name="Grupo 53979" transform="translate(38.985 0.509)">
                <path id="Trazado_101929" data-name="Trazado 101929" d="M559.5,4236.25a.306.306,0,0,1-.305-.306v-16.288a.306.306,0,0,1,.611,0v16.288A.306.306,0,0,1,559.5,4236.25Z" transform="translate(-559.199 -4219.352)" fill="#025157"/>
              </g>
              <g id="Grupo_53980" data-name="Grupo 53980" transform="translate(55.017 0.509)">
                <path id="Trazado_101930" data-name="Trazado 101930" d="M583.141,4229.735a.305.305,0,0,1-.305-.305v-9.773a.306.306,0,0,1,.611,0v9.773A.305.305,0,0,1,583.141,4229.735Z" transform="translate(-582.836 -4219.352)" fill="#025157"/>
              </g>
              <g id="Grupo_53981" data-name="Grupo 53981" transform="translate(61.43 0.509)">
                <path id="Trazado_101931" data-name="Trazado 101931" d="M592.6,4229.735a.3.3,0,0,1-.305-.305v-9.773a.305.305,0,0,1,.61,0v9.773A.3.3,0,0,1,592.6,4229.735Z" transform="translate(-592.291 -4219.352)" fill="#025157"/>
              </g>
              <g id="Grupo_53982" data-name="Grupo 53982" transform="translate(48.604 0.509)">
                <path id="Trazado_101932" data-name="Trazado 101932" d="M573.687,4229.735a.305.305,0,0,1-.306-.305v-9.773a.306.306,0,0,1,.611,0v9.773A.305.305,0,0,1,573.687,4229.735Z" transform="translate(-573.381 -4219.352)" fill="#025157"/>
              </g>
              <g id="Grupo_53983" data-name="Grupo 53983" transform="translate(42.192 0.509)">
                <path id="Trazado_101933" data-name="Trazado 101933" d="M564.232,4229.735a.3.3,0,0,1-.305-.305v-9.773a.305.305,0,0,1,.61,0v9.773A.305.305,0,0,1,564.232,4229.735Z" transform="translate(-563.927 -4219.352)" fill="#025157"/>
              </g>
              <g id="Grupo_53984" data-name="Grupo 53984" transform="translate(35.779 0.509)">
                <path id="Trazado_101934" data-name="Trazado 101934" d="M554.777,4229.735a.3.3,0,0,1-.305-.305v-9.773a.305.305,0,0,1,.61,0v9.773A.3.3,0,0,1,554.777,4229.735Z" transform="translate(-554.472 -4219.352)" fill="#025157"/>
              </g>
              <g id="Grupo_53985" data-name="Grupo 53985" transform="translate(128.254)">
                <path id="Trazado_101935" data-name="Trazado 101935" d="M691.63,4260.951a.814.814,0,0,1-.815-.814v-40.721a.815.815,0,0,1,1.629,0v40.721A.814.814,0,0,1,691.63,4260.951Z" transform="translate(-690.815 -4218.601)" fill="#025157"/>
              </g>
              <g id="Grupo_53986" data-name="Grupo 53986" transform="translate(96.395 0.203)">
                <path id="Trazado_101936" data-name="Trazado 101936" d="M644.452,4248.627a.61.61,0,0,1-.61-.611v-28.5a.611.611,0,1,1,1.222,0v28.5A.611.611,0,0,1,644.452,4248.627Z" transform="translate(-643.842 -4218.901)" fill="#025157"/>
              </g>
              <g id="Grupo_53987" data-name="Grupo 53987" transform="translate(90.287 0.509)">
                <path id="Trazado_101937" data-name="Trazado 101937" d="M635.142,4236.25a.306.306,0,0,1-.305-.306v-16.288a.306.306,0,0,1,.611,0v16.288A.306.306,0,0,1,635.142,4236.25Z" transform="translate(-634.837 -4219.352)" fill="#025157"/>
              </g>
              <g id="Grupo_53988" data-name="Grupo 53988" transform="translate(83.874 0.509)">
                <path id="Trazado_101938" data-name="Trazado 101938" d="M625.688,4236.25a.306.306,0,0,1-.306-.306v-16.288a.306.306,0,0,1,.611,0v16.288A.306.306,0,0,1,625.688,4236.25Z" transform="translate(-625.382 -4219.352)" fill="#025157"/>
              </g>
              <g id="Grupo_53989" data-name="Grupo 53989" transform="translate(77.462 0.509)">
                <path id="Trazado_101939" data-name="Trazado 101939" d="M616.233,4236.25a.305.305,0,0,1-.305-.306v-16.288a.305.305,0,0,1,.61,0v16.288A.305.305,0,0,1,616.233,4236.25Z" transform="translate(-615.928 -4219.352)" fill="#025157"/>
              </g>
              <g id="Grupo_53990" data-name="Grupo 53990" transform="translate(71.049 0.509)">
                <path id="Trazado_101940" data-name="Trazado 101940" d="M606.778,4236.25a.306.306,0,0,1-.305-.306v-16.288a.306.306,0,0,1,.611,0v16.288A.306.306,0,0,1,606.778,4236.25Z" transform="translate(-606.473 -4219.352)" fill="#025157"/>
              </g>
              <g id="Grupo_53991" data-name="Grupo 53991" transform="translate(87.081 0.509)">
                <path id="Trazado_101941" data-name="Trazado 101941" d="M630.415,4229.735a.305.305,0,0,1-.305-.305v-9.773a.305.305,0,0,1,.61,0v9.773A.3.3,0,0,1,630.415,4229.735Z" transform="translate(-630.11 -4219.352)" fill="#025157"/>
              </g>
              <g id="Grupo_53992" data-name="Grupo 53992" transform="translate(93.494 0.509)">
                <path id="Trazado_101942" data-name="Trazado 101942" d="M639.87,4229.735a.3.3,0,0,1-.305-.305v-9.773a.305.305,0,0,1,.61,0v9.773A.305.305,0,0,1,639.87,4229.735Z" transform="translate(-639.565 -4219.352)" fill="#025157"/>
              </g>
              <g id="Grupo_53993" data-name="Grupo 53993" transform="translate(80.668 0.509)">
                <path id="Trazado_101943" data-name="Trazado 101943" d="M620.96,4229.735a.305.305,0,0,1-.305-.305v-9.773a.306.306,0,0,1,.611,0v9.773A.305.305,0,0,1,620.96,4229.735Z" transform="translate(-620.655 -4219.352)" fill="#025157"/>
              </g>
              <g id="Grupo_53994" data-name="Grupo 53994" transform="translate(74.255 0.509)">
                <path id="Trazado_101944" data-name="Trazado 101944" d="M611.506,4229.735a.305.305,0,0,1-.306-.305v-9.773a.306.306,0,0,1,.611,0v9.773A.305.305,0,0,1,611.506,4229.735Z" transform="translate(-611.2 -4219.352)" fill="#025157"/>
              </g>
              <g id="Grupo_53995" data-name="Grupo 53995" transform="translate(67.843 0.509)">
                <path id="Trazado_101945" data-name="Trazado 101945" d="M602.051,4229.735a.3.3,0,0,1-.305-.305v-9.773a.305.305,0,0,1,.61,0v9.773A.305.305,0,0,1,602.051,4229.735Z" transform="translate(-601.746 -4219.352)" fill="#025157"/>
              </g>
              <g id="Grupo_53996" data-name="Grupo 53996" transform="translate(122.351 0.509)">
                <path id="Trazado_101946" data-name="Trazado 101946" d="M682.416,4236.25a.306.306,0,0,1-.305-.306v-16.288a.306.306,0,0,1,.611,0v16.288A.306.306,0,0,1,682.416,4236.25Z" transform="translate(-682.111 -4219.352)" fill="#025157"/>
              </g>
              <g id="Grupo_53997" data-name="Grupo 53997" transform="translate(115.938 0.509)">
                <path id="Trazado_101947" data-name="Trazado 101947" d="M672.962,4236.25a.306.306,0,0,1-.306-.306v-16.288a.306.306,0,0,1,.611,0v16.288A.306.306,0,0,1,672.962,4236.25Z" transform="translate(-672.656 -4219.352)" fill="#025157"/>
              </g>
              <g id="Grupo_53998" data-name="Grupo 53998" transform="translate(109.525 0.509)">
                <path id="Trazado_101948" data-name="Trazado 101948" d="M663.507,4236.25a.306.306,0,0,1-.306-.306v-16.288a.306.306,0,0,1,.611,0v16.288A.306.306,0,0,1,663.507,4236.25Z" transform="translate(-663.201 -4219.352)" fill="#025157"/>
              </g>
              <g id="Grupo_53999" data-name="Grupo 53999" transform="translate(103.113 0.509)">
                <path id="Trazado_101949" data-name="Trazado 101949" d="M654.052,4236.25a.305.305,0,0,1-.305-.306v-16.288a.305.305,0,0,1,.61,0v16.288A.305.305,0,0,1,654.052,4236.25Z" transform="translate(-653.747 -4219.352)" fill="#025157"/>
              </g>
              <g id="Grupo_54000" data-name="Grupo 54000" transform="translate(119.145 0.509)">
                <path id="Trazado_101950" data-name="Trazado 101950" d="M677.689,4229.735a.3.3,0,0,1-.305-.305v-9.773a.305.305,0,0,1,.61,0v9.773A.3.3,0,0,1,677.689,4229.735Z" transform="translate(-677.384 -4219.352)" fill="#025157"/>
              </g>
              <g id="Grupo_54001" data-name="Grupo 54001" transform="translate(125.557 0.509)">
                <path id="Trazado_101951" data-name="Trazado 101951" d="M687.144,4229.735a.305.305,0,0,1-.306-.305v-9.773a.306.306,0,0,1,.611,0v9.773A.305.305,0,0,1,687.144,4229.735Z" transform="translate(-686.838 -4219.352)" fill="#025157"/>
              </g>
              <g id="Grupo_54002" data-name="Grupo 54002" transform="translate(112.732 0.509)">
                <path id="Trazado_101952" data-name="Trazado 101952" d="M668.234,4229.735a.305.305,0,0,1-.305-.305v-9.773a.305.305,0,0,1,.61,0v9.773A.3.3,0,0,1,668.234,4229.735Z" transform="translate(-667.929 -4219.352)" fill="#025157"/>
              </g>
              <g id="Grupo_54003" data-name="Grupo 54003" transform="translate(106.319 0.509)">
                <path id="Trazado_101953" data-name="Trazado 101953" d="M658.779,4229.735a.305.305,0,0,1-.305-.305v-9.773a.306.306,0,0,1,.611,0v9.773A.305.305,0,0,1,658.779,4229.735Z" transform="translate(-658.474 -4219.352)" fill="#025157"/>
              </g>
              <g id="Grupo_54004" data-name="Grupo 54004" transform="translate(99.906 0.509)">
                <path id="Trazado_101954" data-name="Trazado 101954" d="M649.325,4229.735a.305.305,0,0,1-.306-.305v-9.773a.306.306,0,0,1,.611,0v9.773A.305.305,0,0,1,649.325,4229.735Z" transform="translate(-649.019 -4219.352)" fill="#025157"/>
              </g>
              <g id="Grupo_54005" data-name="Grupo 54005" transform="translate(192.382)">
                <path id="Trazado_101955" data-name="Trazado 101955" d="M786.178,4260.951a.814.814,0,0,1-.815-.814v-40.721a.814.814,0,1,1,1.629,0v40.721A.814.814,0,0,1,786.178,4260.951Z" transform="translate(-785.363 -4218.601)" fill="#025157"/>
              </g>
              <g id="Grupo_54006" data-name="Grupo 54006" transform="translate(160.522 0.203)">
                <path id="Trazado_101956" data-name="Trazado 101956" d="M739,4248.627a.611.611,0,0,1-.611-.611v-28.5a.611.611,0,1,1,1.222,0v28.5A.611.611,0,0,1,739,4248.627Z" transform="translate(-738.389 -4218.901)" fill="#025157"/>
              </g>
              <g id="Grupo_54007" data-name="Grupo 54007" transform="translate(154.415 0.509)">
                <path id="Trazado_101957" data-name="Trazado 101957" d="M729.69,4236.25a.305.305,0,0,1-.305-.306v-16.288a.305.305,0,0,1,.61,0v16.288A.305.305,0,0,1,729.69,4236.25Z" transform="translate(-729.385 -4219.352)" fill="#025157"/>
              </g>
              <g id="Grupo_54008" data-name="Grupo 54008" transform="translate(148.002 0.509)">
                <path id="Trazado_101958" data-name="Trazado 101958" d="M720.235,4236.25a.306.306,0,0,1-.305-.306v-16.288a.306.306,0,0,1,.611,0v16.288A.306.306,0,0,1,720.235,4236.25Z" transform="translate(-719.93 -4219.352)" fill="#025157"/>
              </g>
              <g id="Grupo_54009" data-name="Grupo 54009" transform="translate(141.589 0.509)">
                <path id="Trazado_101959" data-name="Trazado 101959" d="M710.781,4236.25a.306.306,0,0,1-.306-.306v-16.288a.306.306,0,0,1,.611,0v16.288A.306.306,0,0,1,710.781,4236.25Z" transform="translate(-710.475 -4219.352)" fill="#025157"/>
              </g>
              <g id="Grupo_54010" data-name="Grupo 54010" transform="translate(135.177 0.509)">
                <path id="Trazado_101960" data-name="Trazado 101960" d="M701.326,4236.25a.305.305,0,0,1-.305-.306v-16.288a.305.305,0,0,1,.61,0v16.288A.306.306,0,0,1,701.326,4236.25Z" transform="translate(-701.021 -4219.352)" fill="#025157"/>
              </g>
              <g id="Grupo_54011" data-name="Grupo 54011" transform="translate(151.209 0.509)">
                <path id="Trazado_101961" data-name="Trazado 101961" d="M724.963,4229.735a.3.3,0,0,1-.305-.305v-9.773a.305.305,0,0,1,.61,0v9.773A.305.305,0,0,1,724.963,4229.735Z" transform="translate(-724.658 -4219.352)" fill="#025157"/>
              </g>
              <g id="Grupo_54012" data-name="Grupo 54012" transform="translate(157.621 0.509)">
                <path id="Trazado_101962" data-name="Trazado 101962" d="M734.418,4229.735a.305.305,0,0,1-.306-.305v-9.773a.306.306,0,0,1,.611,0v9.773A.305.305,0,0,1,734.418,4229.735Z" transform="translate(-734.112 -4219.352)" fill="#025157"/>
              </g>
              <g id="Grupo_54013" data-name="Grupo 54013" transform="translate(144.796 0.509)">
                <path id="Trazado_101963" data-name="Trazado 101963" d="M715.508,4229.735a.3.3,0,0,1-.305-.305v-9.773a.305.305,0,0,1,.61,0v9.773A.3.3,0,0,1,715.508,4229.735Z" transform="translate(-715.203 -4219.352)" fill="#025157"/>
              </g>
              <g id="Grupo_54014" data-name="Grupo 54014" transform="translate(138.383 0.509)">
                <path id="Trazado_101964" data-name="Trazado 101964" d="M706.053,4229.735a.305.305,0,0,1-.305-.305v-9.773a.305.305,0,0,1,.61,0v9.773A.3.3,0,0,1,706.053,4229.735Z" transform="translate(-705.748 -4219.352)" fill="#025157"/>
              </g>
              <g id="Grupo_54015" data-name="Grupo 54015" transform="translate(131.97 0.509)">
                <path id="Trazado_101965" data-name="Trazado 101965" d="M696.6,4229.735a.305.305,0,0,1-.305-.305v-9.773a.306.306,0,0,1,.611,0v9.773A.305.305,0,0,1,696.6,4229.735Z" transform="translate(-696.293 -4219.352)" fill="#025157"/>
              </g>
              <g id="Grupo_54016" data-name="Grupo 54016" transform="translate(186.479 0.509)">
                <path id="Trazado_101966" data-name="Trazado 101966" d="M776.964,4236.25a.305.305,0,0,1-.305-.306v-16.288a.305.305,0,0,1,.61,0v16.288A.305.305,0,0,1,776.964,4236.25Z" transform="translate(-776.659 -4219.352)" fill="#025157"/>
              </g>
              <g id="Grupo_54017" data-name="Grupo 54017" transform="translate(180.066 0.509)">
                <path id="Trazado_101967" data-name="Trazado 101967" d="M767.509,4236.25a.306.306,0,0,1-.305-.306v-16.288a.306.306,0,0,1,.611,0v16.288A.306.306,0,0,1,767.509,4236.25Z" transform="translate(-767.204 -4219.352)" fill="#025157"/>
              </g>
              <g id="Grupo_54018" data-name="Grupo 54018" transform="translate(173.653 0.509)">
                <path id="Trazado_101968" data-name="Trazado 101968" d="M758.054,4236.25a.306.306,0,0,1-.305-.306v-16.288a.306.306,0,0,1,.611,0v16.288A.306.306,0,0,1,758.054,4236.25Z" transform="translate(-757.749 -4219.352)" fill="#025157"/>
              </g>
              <g id="Grupo_54019" data-name="Grupo 54019" transform="translate(167.24 0.509)">
                <path id="Trazado_101969" data-name="Trazado 101969" d="M748.6,4236.25a.306.306,0,0,1-.306-.306v-16.288a.306.306,0,0,1,.611,0v16.288A.306.306,0,0,1,748.6,4236.25Z" transform="translate(-748.294 -4219.352)" fill="#025157"/>
              </g>
              <g id="Grupo_54020" data-name="Grupo 54020" transform="translate(183.272 0.509)">
                <path id="Trazado_101970" data-name="Trazado 101970" d="M772.237,4229.735a.305.305,0,0,1-.305-.305v-9.773a.305.305,0,0,1,.61,0v9.773A.3.3,0,0,1,772.237,4229.735Z" transform="translate(-771.932 -4219.352)" fill="#025157"/>
              </g>
              <g id="Grupo_54021" data-name="Grupo 54021" transform="translate(189.684 0.509)">
                <path id="Trazado_101971" data-name="Trazado 101971" d="M781.691,4229.735a.305.305,0,0,1-.306-.305v-9.773a.306.306,0,0,1,.611,0v9.773A.305.305,0,0,1,781.691,4229.735Z" transform="translate(-781.385 -4219.352)" fill="#025157"/>
              </g>
              <g id="Grupo_54022" data-name="Grupo 54022" transform="translate(176.859 0.509)">
                <path id="Trazado_101972" data-name="Trazado 101972" d="M762.781,4229.735a.305.305,0,0,1-.305-.305v-9.773a.306.306,0,0,1,.611,0v9.773A.305.305,0,0,1,762.781,4229.735Z" transform="translate(-762.476 -4219.352)" fill="#025157"/>
              </g>
              <g id="Grupo_54023" data-name="Grupo 54023" transform="translate(170.446 0.509)">
                <path id="Trazado_101973" data-name="Trazado 101973" d="M753.326,4229.735a.305.305,0,0,1-.305-.305v-9.773a.306.306,0,0,1,.611,0v9.773A.305.305,0,0,1,753.326,4229.735Z" transform="translate(-753.021 -4219.352)" fill="#025157"/>
              </g>
              <g id="Grupo_54024" data-name="Grupo 54024" transform="translate(164.034 0.509)">
                <path id="Trazado_101974" data-name="Trazado 101974" d="M743.873,4229.735a.3.3,0,0,1-.305-.305v-9.773a.305.305,0,0,1,.61,0v9.773A.305.305,0,0,1,743.873,4229.735Z" transform="translate(-743.568 -4219.352)" fill="#025157"/>
              </g>
              <g id="Grupo_54025" data-name="Grupo 54025" transform="translate(256.51)">
                <path id="Trazado_101975" data-name="Trazado 101975" d="M880.725,4260.951a.814.814,0,0,1-.814-.814v-40.721a.814.814,0,1,1,1.628,0v40.721A.814.814,0,0,1,880.725,4260.951Z" transform="translate(-879.911 -4218.601)" fill="#025157"/>
              </g>
              <g id="Grupo_54026" data-name="Grupo 54026" transform="translate(224.649 0.203)">
                <path id="Trazado_101976" data-name="Trazado 101976" d="M833.548,4248.627a.611.611,0,0,1-.611-.611v-28.5a.611.611,0,1,1,1.222,0v28.5A.61.61,0,0,1,833.548,4248.627Z" transform="translate(-832.937 -4218.901)" fill="#025157"/>
              </g>
              <g id="Grupo_54027" data-name="Grupo 54027" transform="translate(218.542 0.509)">
                <path id="Trazado_101977" data-name="Trazado 101977" d="M824.238,4236.25a.306.306,0,0,1-.306-.306v-16.288a.306.306,0,0,1,.611,0v16.288A.306.306,0,0,1,824.238,4236.25Z" transform="translate(-823.932 -4219.352)" fill="#025157"/>
              </g>
              <g id="Grupo_54028" data-name="Grupo 54028" transform="translate(212.129 0.509)">
                <path id="Trazado_101978" data-name="Trazado 101978" d="M814.783,4236.25a.305.305,0,0,1-.305-.306v-16.288a.305.305,0,0,1,.61,0v16.288A.305.305,0,0,1,814.783,4236.25Z" transform="translate(-814.478 -4219.352)" fill="#025157"/>
              </g>
              <g id="Grupo_54029" data-name="Grupo 54029" transform="translate(205.717 0.509)">
                <path id="Trazado_101979" data-name="Trazado 101979" d="M805.328,4236.25a.306.306,0,0,1-.305-.306v-16.288a.306.306,0,0,1,.611,0v16.288A.306.306,0,0,1,805.328,4236.25Z" transform="translate(-805.023 -4219.352)" fill="#025157"/>
              </g>
              <g id="Grupo_54030" data-name="Grupo 54030" transform="translate(199.304 0.509)">
                <path id="Trazado_101980" data-name="Trazado 101980" d="M795.873,4236.25a.306.306,0,0,1-.305-.306v-16.288a.306.306,0,0,1,.611,0v16.288A.306.306,0,0,1,795.873,4236.25Z" transform="translate(-795.568 -4219.352)" fill="#025157"/>
              </g>
              <g id="Grupo_54031" data-name="Grupo 54031" transform="translate(215.336 0.509)">
                <path id="Trazado_101981" data-name="Trazado 101981" d="M819.51,4229.735a.3.3,0,0,1-.305-.305v-9.773a.305.305,0,0,1,.61,0v9.773A.305.305,0,0,1,819.51,4229.735Z" transform="translate(-819.205 -4219.352)" fill="#025157"/>
              </g>
              <g id="Grupo_54032" data-name="Grupo 54032" transform="translate(221.748 0.509)">
                <path id="Trazado_101982" data-name="Trazado 101982" d="M828.966,4229.735a.305.305,0,0,1-.306-.305v-9.773a.306.306,0,0,1,.611,0v9.773A.305.305,0,0,1,828.966,4229.735Z" transform="translate(-828.66 -4219.352)" fill="#025157"/>
              </g>
              <g id="Grupo_54033" data-name="Grupo 54033" transform="translate(208.923 0.509)">
                <path id="Trazado_101983" data-name="Trazado 101983" d="M810.056,4229.735a.305.305,0,0,1-.305-.305v-9.773a.306.306,0,0,1,.611,0v9.773A.305.305,0,0,1,810.056,4229.735Z" transform="translate(-809.751 -4219.352)" fill="#025157"/>
              </g>
              <g id="Grupo_54034" data-name="Grupo 54034" transform="translate(202.51 0.509)">
                <path id="Trazado_101984" data-name="Trazado 101984" d="M800.6,4229.735a.305.305,0,0,1-.305-.305v-9.773a.306.306,0,0,1,.611,0v9.773A.305.305,0,0,1,800.6,4229.735Z" transform="translate(-800.295 -4219.352)" fill="#025157"/>
              </g>
              <g id="Grupo_54035" data-name="Grupo 54035" transform="translate(196.098 0.509)">
                <path id="Trazado_101985" data-name="Trazado 101985" d="M791.147,4229.735a.305.305,0,0,1-.306-.305v-9.773a.306.306,0,0,1,.611,0v9.773A.305.305,0,0,1,791.147,4229.735Z" transform="translate(-790.841 -4219.352)" fill="#025157"/>
              </g>
              <g id="Grupo_54036" data-name="Grupo 54036" transform="translate(250.605 0.509)">
                <path id="Trazado_101986" data-name="Trazado 101986" d="M871.512,4236.25a.306.306,0,0,1-.306-.306v-16.288a.306.306,0,0,1,.611,0v16.288A.306.306,0,0,1,871.512,4236.25Z" transform="translate(-871.206 -4219.352)" fill="#025157"/>
              </g>
              <g id="Grupo_54037" data-name="Grupo 54037" transform="translate(244.193 0.509)">
                <path id="Trazado_101987" data-name="Trazado 101987" d="M862.057,4236.25a.305.305,0,0,1-.305-.306v-16.288a.305.305,0,0,1,.61,0v16.288A.306.306,0,0,1,862.057,4236.25Z" transform="translate(-861.752 -4219.352)" fill="#025157"/>
              </g>
              <g id="Grupo_54038" data-name="Grupo 54038" transform="translate(237.78 0.509)">
                <path id="Trazado_101988" data-name="Trazado 101988" d="M852.6,4236.25a.306.306,0,0,1-.305-.306v-16.288a.305.305,0,0,1,.61,0v16.288A.305.305,0,0,1,852.6,4236.25Z" transform="translate(-852.297 -4219.352)" fill="#025157"/>
              </g>
              <g id="Grupo_54039" data-name="Grupo 54039" transform="translate(231.367 0.509)">
                <path id="Trazado_101989" data-name="Trazado 101989" d="M843.147,4236.25a.306.306,0,0,1-.305-.306v-16.288a.306.306,0,0,1,.611,0v16.288A.306.306,0,0,1,843.147,4236.25Z" transform="translate(-842.842 -4219.352)" fill="#025157"/>
              </g>
              <g id="Grupo_54040" data-name="Grupo 54040" transform="translate(247.4 0.509)">
                <path id="Trazado_101990" data-name="Trazado 101990" d="M866.785,4229.735a.3.3,0,0,1-.305-.305v-9.773a.305.305,0,1,1,.61,0v9.773A.305.305,0,0,1,866.785,4229.735Z" transform="translate(-866.48 -4219.352)" fill="#025157"/>
              </g>
              <g id="Grupo_54041" data-name="Grupo 54041" transform="translate(253.811 0.509)">
                <path id="Trazado_101991" data-name="Trazado 101991" d="M876.238,4229.735a.305.305,0,0,1-.305-.305v-9.773a.306.306,0,0,1,.611,0v9.773A.305.305,0,0,1,876.238,4229.735Z" transform="translate(-875.933 -4219.352)" fill="#025157"/>
              </g>
              <g id="Grupo_54042" data-name="Grupo 54042" transform="translate(240.986 0.509)">
                <path id="Trazado_101992" data-name="Trazado 101992" d="M857.329,4229.735a.3.3,0,0,1-.305-.305v-9.773a.305.305,0,0,1,.61,0v9.773A.305.305,0,0,1,857.329,4229.735Z" transform="translate(-857.024 -4219.352)" fill="#025157"/>
              </g>
              <g id="Grupo_54043" data-name="Grupo 54043" transform="translate(234.574 0.509)">
                <path id="Trazado_101993" data-name="Trazado 101993" d="M847.875,4229.735a.305.305,0,0,1-.305-.305v-9.773a.306.306,0,0,1,.611,0v9.773A.305.305,0,0,1,847.875,4229.735Z" transform="translate(-847.57 -4219.352)" fill="#025157"/>
              </g>
              <g id="Grupo_54044" data-name="Grupo 54044" transform="translate(228.161 0.509)">
                <path id="Trazado_101994" data-name="Trazado 101994" d="M838.419,4229.735a.305.305,0,0,1-.305-.305v-9.773a.306.306,0,0,1,.611,0v9.773A.305.305,0,0,1,838.419,4229.735Z" transform="translate(-838.114 -4219.352)" fill="#025157"/>
              </g>
              <g id="Grupo_54045" data-name="Grupo 54045" transform="translate(320.637)">
                <path id="Trazado_101995" data-name="Trazado 101995" d="M975.273,4260.951a.814.814,0,0,1-.815-.814v-40.721a.815.815,0,0,1,1.629,0v40.721A.814.814,0,0,1,975.273,4260.951Z" transform="translate(-974.458 -4218.601)" fill="#025157"/>
              </g>
              <g id="Grupo_54046" data-name="Grupo 54046" transform="translate(288.777 0.203)">
                <path id="Trazado_101996" data-name="Trazado 101996" d="M928.1,4248.627a.61.61,0,0,1-.61-.611v-28.5a.611.611,0,1,1,1.222,0v28.5A.611.611,0,0,1,928.1,4248.627Z" transform="translate(-927.485 -4218.901)" fill="#025157"/>
              </g>
              <g id="Grupo_54047" data-name="Grupo 54047" transform="translate(282.669 0.509)">
                <path id="Trazado_101997" data-name="Trazado 101997" d="M918.785,4236.25a.306.306,0,0,1-.305-.306v-16.288a.306.306,0,0,1,.611,0v16.288A.306.306,0,0,1,918.785,4236.25Z" transform="translate(-918.48 -4219.352)" fill="#025157"/>
              </g>
              <g id="Grupo_54048" data-name="Grupo 54048" transform="translate(276.256 0.509)">
                <path id="Trazado_101998" data-name="Trazado 101998" d="M909.331,4236.25a.306.306,0,0,1-.306-.306v-16.288a.306.306,0,0,1,.611,0v16.288A.306.306,0,0,1,909.331,4236.25Z" transform="translate(-909.025 -4219.352)" fill="#025157"/>
              </g>
              <g id="Grupo_54049" data-name="Grupo 54049" transform="translate(269.844 0.509)">
                <path id="Trazado_101999" data-name="Trazado 101999" d="M899.876,4236.25a.305.305,0,0,1-.305-.306v-16.288a.305.305,0,0,1,.61,0v16.288A.306.306,0,0,1,899.876,4236.25Z" transform="translate(-899.571 -4219.352)" fill="#025157"/>
              </g>
              <g id="Grupo_54050" data-name="Grupo 54050" transform="translate(263.431 0.509)">
                <path id="Trazado_102000" data-name="Trazado 102000" d="M890.421,4236.25a.305.305,0,0,1-.305-.306v-16.288a.305.305,0,0,1,.61,0v16.288A.305.305,0,0,1,890.421,4236.25Z" transform="translate(-890.116 -4219.352)" fill="#025157"/>
              </g>
              <g id="Grupo_54051" data-name="Grupo 54051" transform="translate(279.462 0.509)">
                <path id="Trazado_102001" data-name="Trazado 102001" d="M914.057,4229.735a.305.305,0,0,1-.305-.305v-9.773a.306.306,0,0,1,.611,0v9.773A.305.305,0,0,1,914.057,4229.735Z" transform="translate(-913.752 -4219.352)" fill="#025157"/>
              </g>
              <g id="Grupo_54052" data-name="Grupo 54052" transform="translate(285.876 0.509)">
                <path id="Trazado_102002" data-name="Trazado 102002" d="M923.513,4229.735a.305.305,0,0,1-.305-.305v-9.773a.306.306,0,0,1,.611,0v9.773A.305.305,0,0,1,923.513,4229.735Z" transform="translate(-923.208 -4219.352)" fill="#025157"/>
              </g>
              <g id="Grupo_54053" data-name="Grupo 54053" transform="translate(273.051 0.509)">
                <path id="Trazado_102003" data-name="Trazado 102003" d="M904.6,4229.735a.3.3,0,0,1-.305-.305v-9.773a.305.305,0,1,1,.61,0v9.773A.305.305,0,0,1,904.6,4229.735Z" transform="translate(-904.299 -4219.352)" fill="#025157"/>
              </g>
              <g id="Grupo_54054" data-name="Grupo 54054" transform="translate(266.637 0.509)">
                <path id="Trazado_102004" data-name="Trazado 102004" d="M895.148,4229.735a.3.3,0,0,1-.305-.305v-9.773a.305.305,0,0,1,.61,0v9.773A.305.305,0,0,1,895.148,4229.735Z" transform="translate(-894.843 -4219.352)" fill="#025157"/>
              </g>
              <g id="Grupo_54055" data-name="Grupo 54055" transform="translate(260.225 0.509)">
                <path id="Trazado_102005" data-name="Trazado 102005" d="M885.694,4229.735a.305.305,0,0,1-.305-.305v-9.773a.306.306,0,0,1,.611,0v9.773A.305.305,0,0,1,885.694,4229.735Z" transform="translate(-885.389 -4219.352)" fill="#025157"/>
              </g>
              <g id="Grupo_54056" data-name="Grupo 54056" transform="translate(314.733 0.509)">
                <path id="Trazado_102006" data-name="Trazado 102006" d="M966.059,4236.25a.306.306,0,0,1-.305-.306v-16.288a.306.306,0,0,1,.611,0v16.288A.306.306,0,0,1,966.059,4236.25Z" transform="translate(-965.754 -4219.352)" fill="#025157"/>
              </g>
              <g id="Grupo_54057" data-name="Grupo 54057" transform="translate(308.32 0.509)">
                <path id="Trazado_102007" data-name="Trazado 102007" d="M956.6,4236.25a.306.306,0,0,1-.305-.306v-16.288a.306.306,0,0,1,.611,0v16.288A.306.306,0,0,1,956.6,4236.25Z" transform="translate(-956.299 -4219.352)" fill="#025157"/>
              </g>
              <g id="Grupo_54058" data-name="Grupo 54058" transform="translate(301.907 0.509)">
                <path id="Trazado_102008" data-name="Trazado 102008" d="M947.15,4236.25a.306.306,0,0,1-.306-.306v-16.288a.306.306,0,0,1,.611,0v16.288A.306.306,0,0,1,947.15,4236.25Z" transform="translate(-946.844 -4219.352)" fill="#025157"/>
              </g>
              <g id="Grupo_54059" data-name="Grupo 54059" transform="translate(295.495 0.509)">
                <path id="Trazado_102009" data-name="Trazado 102009" d="M937.7,4236.25a.305.305,0,0,1-.305-.306v-16.288a.305.305,0,0,1,.611,0v16.288A.305.305,0,0,1,937.7,4236.25Z" transform="translate(-937.39 -4219.352)" fill="#025157"/>
              </g>
              <g id="Grupo_54060" data-name="Grupo 54060" transform="translate(311.527 0.509)">
                <path id="Trazado_102010" data-name="Trazado 102010" d="M961.332,4229.735a.305.305,0,0,1-.305-.305v-9.773a.306.306,0,0,1,.611,0v9.773A.305.305,0,0,1,961.332,4229.735Z" transform="translate(-961.027 -4219.352)" fill="#025157"/>
              </g>
              <g id="Grupo_54061" data-name="Grupo 54061" transform="translate(317.939 0.509)">
                <path id="Trazado_102011" data-name="Trazado 102011" d="M970.786,4229.735a.305.305,0,0,1-.305-.305v-9.773a.305.305,0,1,1,.61,0v9.773A.3.3,0,0,1,970.786,4229.735Z" transform="translate(-970.481 -4219.352)" fill="#025157"/>
              </g>
              <g id="Grupo_54062" data-name="Grupo 54062" transform="translate(305.113 0.509)">
                <path id="Trazado_102012" data-name="Trazado 102012" d="M951.876,4229.735a.305.305,0,0,1-.305-.305v-9.773a.306.306,0,0,1,.611,0v9.773A.305.305,0,0,1,951.876,4229.735Z" transform="translate(-951.571 -4219.352)" fill="#025157"/>
              </g>
              <g id="Grupo_54063" data-name="Grupo 54063" transform="translate(298.702 0.509)">
                <path id="Trazado_102013" data-name="Trazado 102013" d="M942.423,4229.735a.3.3,0,0,1-.305-.305v-9.773a.305.305,0,0,1,.611,0v9.773A.3.3,0,0,1,942.423,4229.735Z" transform="translate(-942.118 -4219.352)" fill="#025157"/>
              </g>
              <g id="Grupo_54064" data-name="Grupo 54064" transform="translate(292.288 0.509)">
                <path id="Trazado_102014" data-name="Trazado 102014" d="M932.967,4229.735a.3.3,0,0,1-.305-.305v-9.773a.305.305,0,0,1,.61,0v9.773A.3.3,0,0,1,932.967,4229.735Z" transform="translate(-932.662 -4219.352)" fill="#025157"/>
              </g>
            </g>
            <g id="Grupo_54066" data-name="Grupo 54066" transform="translate(26.046 35.108)">
              <path id="Trazado_102015" data-name="Trazado 102015" d="M540.734,4270.362a2.94,2.94,0,0,1,2.083.851l-.6.777a2.154,2.154,0,0,0-1.437-.63c-1.291,0-2.229,1.114-2.229,2.756s.9,2.728,2.2,2.728a2.544,2.544,0,0,0,1.672-.719l.542.792a3.526,3.526,0,0,1-2.316.923c-1.892,0-3.344-1.363-3.344-3.724A3.452,3.452,0,0,1,540.734,4270.362Z" transform="translate(-537.303 -4270.362)" fill="#025157"/>
              <path id="Trazado_102016" data-name="Trazado 102016" d="M547.937,4270.539h1l.1,1.026h.044a3.132,3.132,0,0,1,2.214-1.2,1.872,1.872,0,0,1,1.966,1.364,3.366,3.366,0,0,1,2.346-1.364c1.466,0,2.17.968,2.17,2.787v4.517h-1.2v-4.355c0-1.335-.425-1.907-1.321-1.907a2.616,2.616,0,0,0-1.789,1.1v5.162h-1.2v-4.355c0-1.335-.425-1.907-1.334-1.907a2.672,2.672,0,0,0-1.789,1.1v5.162h-1.2Z" transform="translate(-540.724 -4270.362)" fill="#025157"/>
            </g>
            <g id="Grupo_54067" data-name="Grupo 54067" transform="translate(0 45.306)">
              <path id="Trazado_102017" data-name="Trazado 102017" d="M498.9,4290.224c0-3.138,1.129-4.825,3.007-4.825,1.862,0,2.991,1.688,2.991,4.825s-1.129,4.882-2.991,4.882C500.031,4295.106,498.9,4293.362,498.9,4290.224Zm4.824,0c0-2.742-.733-3.857-1.818-3.857-1.1,0-1.833,1.115-1.833,3.857s.733,3.915,1.833,3.915C502.993,4294.139,503.726,4292.966,503.726,4290.224Z" transform="translate(-498.902 -4285.399)" fill="#025157"/>
            </g>
            <g id="Grupo_54068" data-name="Grupo 54068" transform="translate(64.561 45.482)">
              <path id="Trazado_102018" data-name="Trazado 102018" d="M594.089,4294.017h2.14v-6.892h-1.7v-.777a5.579,5.579,0,0,0,1.98-.688h.923v8.357h1.936v1h-5.279Z" transform="translate(-594.089 -4285.659)" fill="#025157"/>
            </g>
            <g id="Grupo_54069" data-name="Grupo 54069" transform="translate(127.977 45.306)">
              <path id="Trazado_102019" data-name="Trazado 102019" d="M687.647,4294.212c2.815-2.8,4.4-4.487,4.4-6a1.657,1.657,0,0,0-1.774-1.832,2.758,2.758,0,0,0-1.995,1.128l-.689-.689a3.674,3.674,0,0,1,2.83-1.423,2.6,2.6,0,0,1,2.8,2.757c0,1.759-1.6,3.5-3.812,5.822.513-.044,1.085-.089,1.57-.089h2.712v1.042h-6.041Z" transform="translate(-687.588 -4285.399)" fill="#025157"/>
            </g>
            <g id="Grupo_54070" data-name="Grupo 54070" transform="translate(191.877 45.306)">
              <path id="Trazado_102020" data-name="Trazado 102020" d="M782.417,4293a3.175,3.175,0,0,0,2.39,1.114,1.743,1.743,0,0,0,1.936-1.715c0-1.115-.762-1.863-2.991-1.863v-.923c1.994,0,2.654-.763,2.654-1.746a1.44,1.44,0,0,0-1.613-1.48,2.837,2.837,0,0,0-1.995.953l-.645-.763a3.851,3.851,0,0,1,2.683-1.173c1.628,0,2.8.866,2.8,2.376a2.319,2.319,0,0,1-1.7,2.229v.059a2.412,2.412,0,0,1,2.023,2.375c0,1.658-1.364,2.669-3.079,2.669a3.973,3.973,0,0,1-3.079-1.319Z" transform="translate(-781.801 -4285.399)" fill="#025157"/>
            </g>
            <g id="Grupo_54071" data-name="Grupo 54071" transform="translate(255.792 45.482)">
              <path id="Trazado_102021" data-name="Trazado 102021" d="M882.663,4292.433h-1.276v2.581h-1.144v-2.581h-4.209v-.791l4-5.983h1.349v5.806h1.276Zm-2.419-.968v-2.713c0-.5.043-1.305.073-1.8h-.058c-.235.455-.5.865-.762,1.319l-2.185,3.2Z" transform="translate(-876.035 -4285.659)" fill="#025157"/>
            </g>
            <g id="Grupo_54072" data-name="Grupo 54072" transform="translate(319.957 45.482)">
              <path id="Trazado_102022" data-name="Trazado 102022" d="M971.224,4293.123a3.185,3.185,0,0,0,2.362,1.07,2.019,2.019,0,0,0,2.052-2.141,1.88,1.88,0,0,0-1.994-2.053,2.634,2.634,0,0,0-1.6.571l-.645-.41.308-4.5h4.677v1.041h-3.622l-.249,2.771a2.877,2.877,0,0,1,1.437-.382,2.693,2.693,0,0,1,2.9,2.934,3.058,3.058,0,0,1-3.152,3.167,4.1,4.1,0,0,1-3.064-1.275Z" transform="translate(-970.638 -4285.659)" fill="#025157"/>
            </g>
          </g>
        </g>
      </g>
    </g>
  </g>
</svg>
