<svg xmlns="http://www.w3.org/2000/svg" width="400" height="650" viewBox="0 0 400 650">
  <g id="Grupo_1055091" data-name="Grupo 1055091" transform="translate(11472 7744)">
    <path id="Trazado_774852" data-name="Trazado 774852" d="M0,0H400V650H0Z" transform="translate(-11472 -7744)" fill="#feefeb"/>
    <path id="Trazado_101665" data-name="Trazado 101665" d="M568.548,495.322H289.312v23.991H568.548c2.9,0,5.244-1.044,5.244-2.331v-19.33C573.792,496.365,571.443,495.322,568.548,495.322Z" transform="translate(-11709.512 -7742.706)" fill="#73d8c0"/>
    <path id="Trazado_101667" data-name="Trazado 101667" d="M568.181,22.636H330.466V46.628H568.181c2.466,0,4.465-1.044,4.465-2.331V24.967C572.646,23.68,570.647,22.636,568.181,22.636Z" transform="translate(-11717.506 -7652.563)" fill="#73d8c0"/>
    <path id="Trazado_101674" data-name="Trazado 101674" d="M969.006,48.836H819.3a2.569,2.569,0,0,0-2.569,2.569V75.931A2.569,2.569,0,0,0,819.3,78.5H969.006a2.871,2.871,0,0,0,2.86-2.882v-23.9A2.871,2.871,0,0,0,969.006,48.836Z" transform="translate(-12055.866 -7747.979)" fill="#73d8c0"/>
    <path id="Trazado_101678" data-name="Trazado 101678" d="M928.058,436.816H778.347a2.569,2.569,0,0,0-2.569,2.569v24.526a2.569,2.569,0,0,0,2.569,2.569H928.057a2.871,2.871,0,0,0,2.86-2.882V439.7A2.873,2.873,0,0,0,928.058,436.816Z" transform="translate(-12014.916 -7592.816)" fill="#73d8c0"/>
    <path id="Trazado_101696" data-name="Trazado 101696" d="M193.228,436.816H43.519a2.569,2.569,0,0,0-2.569,2.569v24.526a2.569,2.569,0,0,0,2.569,2.569H193.228a2.871,2.871,0,0,0,2.86-2.882V439.7A2.872,2.872,0,0,0,193.228,436.816Z" transform="translate(-11500.95 -7592.816)" fill="#73d8c0"/>
    <path id="Trazado_101703" data-name="Trazado 101703" d="M167.686,45.64H2.829A2.709,2.709,0,0,0,0,48.209V72.735A2.709,2.709,0,0,0,2.829,75.3H167.686a3.025,3.025,0,0,0,3.149-2.882v-23.9A3.025,3.025,0,0,0,167.686,45.64Z" transform="translate(-11460 -7744.783)" fill="#73d8c0"/>
    <path id="Trazado_101721" data-name="Trazado 101721" d="M555.006,178.084H330.466v23.991h224.54c2.329,0,4.217-1.044,4.217-2.331v-19.33C559.224,179.127,557.336,178.084,555.006,178.084Z" transform="translate(-11717.506 -7682.653)" fill="#73d8c0"/>
    <path id="Trazado_101728" data-name="Trazado 101728" d="M556.159,270.868H336.06v23.991h220.1c2.283,0,4.134-1.044,4.134-2.331V273.2C560.294,271.912,558.443,270.868,556.159,270.868Z" transform="translate(-11718.247 -7700.223)" fill="#73d8c0"/>
    <path id="Trazado_101666" data-name="Trazado 101666" d="M303.656,494.118l4.043,1.715,8.3,3.3,11.34,4.378,10.443,4.167,4.721,2.215,1.292,1.187.264,1.424-.844,1.107-2.4.527-6.62.659-5.248.343-4.009-.316-10.76.132-21.1-.316-8.36-.132-4.484-.343-1.766-.659-2.347-1.292-1.53-2.4-.58-2.9.475-3.718.975-3.508,1.926-9.441.527-6.54-.818-6.356-2.136-9.678-4.484-16.14-2.426-10.338-1-9.653v-9.468l1.74-10.048,1.24-6.434,3.138-11.377,3.086-9.3,3.639-12.079,1.134-3.692L281,362.73l-.632-34.363.685-22.575.211-6.013-1.934-1.565-2.532-2.567-3.534-3.956-3.147-7.367-.915-7.015.193-5.538.879-8.439L273.055,254l1.512-4.167,3.481-7.6,2.215-8.228.264-3.85-.211-7.253.792-1.309,33.757,6.048,16.808,39.735,9.495,21.66-10.2,26.091.695,12.167.287,2.456-1.474,1.974-6.751,18-4.219,10.056-.774,1.969-.773,8.5-2.462,5-2.109,4.853-1.055,5.555-2.883,4.782-2.672,5.908-1.758,6.681-1.547,19.34-1.758,17.582-3.094,16.034-1.758,13.784-.7,10.2.563,6.963.493,3.517,1.573,1.688,1.732.844Z" transform="translate(-11705.001 -7690.73)" fill="#fff"/>
    <g id="Grupo_53908" data-name="Grupo 53908" transform="translate(-11440 -7648.353)">
      <g id="Grupo_53907" data-name="Grupo 53907" transform="translate(0 0)">
        <path id="Trazado_101795" data-name="Trazado 101795" d="M281.837,185.915l1.937,3.836c2.668,4.771,4.953,9.811,8.075,14.263,10.066,14.352,20.454,28.478,30.669,42.726a5.98,5.98,0,0,1,1.311,3.241c-.145,6.465,2.12,12.315,4.754,17.956,2.331,4.992,4.083,9.7.807,14.911a2.506,2.506,0,0,0,.229,2.393c.407.411,1.576.166,2.386.049a11.551,11.551,0,0,0,2.173-.889l-1.936,1.846a3.706,3.706,0,0,0,2.882.1c1.8-.748,3.454-1.933,5.3-2.454,4.762-1.343,5.07-1.621,5.292-6.44.1-2.145.391-4.281.6-6.421l.732.061-.775,8.991c1.349-2.164,1.693-4.55,2.607-6.694,1.626-3.811,1.087-7.115-1.254-10.43-8.04-11.383-12.848-24.336-17.929-37.162-7.017-17.712-13.765-35.546-23.248-52.17a6.571,6.571,0,0,1-.55-4.658c2.669-8.734,1.964-17.551,1.187-26.418-.507-5.786-.916-11.591-1.074-17.395-.185-6.786,3.346-12.074,7.327-17.1a33.489,33.489,0,0,1-3.048,6.452,21.271,21.271,0,0,0-3.276,13.8q.675,7.7,1.272,15.411c.624,8.187,1.6,16.368-1.045,24.458a6.817,6.817,0,0,0,.423,4.979c8,13.674,13.768,28.355,19.663,42.981,1.321,3.279,2.607,6.572,3.909,9.858a9.2,9.2,0,0,0,1.349-3.981c1.113-9.028,2.416-18.04,3.23-27.1.862-9.583,1.875-19.226,1.6-28.808-.153-5.373.038-10.389,1.65-15.465a32.827,32.827,0,0,0,.471-16.888,22.027,22.027,0,0,1-.1-8.693c1.327-6.4.4-12-4.366-16.648-8.344-8.151-14.722-18.28-25-24.512a5.784,5.784,0,0,1-2.635-7.4,50.5,50.5,0,0,0,2.1-8.528c.493-2.932,1.922-4.239,4.915-3.943a60.6,60.6,0,0,0,6.892.368c4.373-.069,4.96-1.407,3.714-5.505-.691-2.274-1.021-5.39.033-7.252a3.828,3.828,0,0,0,.236-4.262c-.3-.669.557-2.688.97-2.713,4.672-.282,2.792-2.663,1.641-4.784-.626-1.154-1.358-2.254-2.094-3.343-1.326-1.965-1.355-4-1.453-6.388-.188-4.6-.888-9.557-2.944-13.56-1.059-2.062-5.48-2.418-8.4-3.485a9.928,9.928,0,0,0-1.952-.25c-2.463-.357-3.382.411-3.472,3.172a48.838,48.838,0,0,1-1.755,11.578c-.869,3.081-2.713,5.887-4.388,9.361a10.634,10.634,0,0,1-2.68-1.163c-1.683-1.208-3.009-3.018-4.813-3.921-1.493-.748-3.759-1.192-5.115-.558-.967.453-1.6,3.042-1.3,4.453.473,2.265,1.836,4.343,2.679,6.187a23.937,23.937,0,0,0-1.48,4.557c-.468,4.059-2.344,6.49-6.631,6.67-.386.016-.761.323-.492.2.157,4.6,1.16,9,.237,12.947a52.378,52.378,0,0,1-6.293,16.032c-6.515,10.257-9.4,21.253-9.867,33.234-.544,13.969,2.939,27.1,7.168,40.188,1.973,6.106,3.365,12.4,5.02,18.609l-.052-.155,2.378,6.076a25.766,25.766,0,0,0-.332-6.523c-1.647-8.377-3.608-16.7-5.071-25.1-1.378-7.919-.437-16.281-4.676-23.642-.119-.206.064-.586.174-1.367,2.253,3.985,4.161,7.476,4.393,11.878.3,5.67,1.188,11.319,2.013,16.949C278.361,163.67,280.125,174.788,281.837,185.915Zm25.046,34.591-.727.647-11.578-16.3.663-.463ZM294,83.661c-7.471-2.8-13.261.688-18.8,5.17C280.389,83.039,286.35,80.12,294,83.661Zm26.869,39.972c3.657,2.968,7.829,2.61,12.984,1.39C328.6,127.934,324.436,127.369,320.865,123.634ZM325.4,188.76c2.164,4.231,2.866,7.8,1.147,11.627C326.185,196.7,325.831,193.109,325.4,188.76Z" transform="translate(-264.734 -2.445)" fill="#fff"/>
        <path id="Trazado_101796" data-name="Trazado 101796" d="M277.68,171.974c-1.655-6.209-3.046-12.5-5.02-18.609-4.229-13.087-7.711-26.22-7.168-40.188.466-11.981,3.352-22.977,9.867-33.234a52.382,52.382,0,0,0,6.293-16.032c.922-3.949-.08-8.346-.237-12.947-.268.121.106-.186.492-.2,4.287-.18,6.164-2.612,6.631-6.67a23.948,23.948,0,0,1,1.48-4.557c-.843-1.844-2.206-3.923-2.679-6.187-.295-1.411.335-4,1.3-4.453,1.356-.634,3.621-.19,5.115.558,1.8.9,3.13,2.712,4.813,3.921a10.633,10.633,0,0,0,2.68,1.163c1.675-3.473,3.519-6.279,4.388-9.361a48.841,48.841,0,0,0,1.755-11.578c.09-2.761,1.009-3.529,3.472-3.172a9.93,9.93,0,0,1,1.952.25c2.924,1.067,7.344,1.423,8.4,3.485,2.056,4,2.756,8.956,2.944,13.56.1,2.384.127,4.423,1.453,6.388.735,1.09,1.467,2.19,2.094,3.343,1.152,2.121,3.031,4.5-1.641,4.784-.414.025-1.269,2.044-.97,2.713a3.828,3.828,0,0,1-.236,4.262c-1.054,1.862-.724,4.979-.033,7.252,1.246,4.1.659,5.436-3.714,5.505a60.594,60.594,0,0,1-6.892-.368c-2.993-.3-4.423,1.011-4.915,3.943a50.5,50.5,0,0,1-2.1,8.528,5.784,5.784,0,0,0,2.635,7.4c10.281,6.232,16.659,16.361,25,24.512,4.762,4.652,5.693,10.25,4.366,16.648a22.025,22.025,0,0,0,.1,8.693,32.826,32.826,0,0,1-.471,16.888c-1.611,5.076-1.8,10.092-1.65,15.465.274,9.582-.739,19.225-1.6,28.808-.814,9.055-2.117,18.067-3.23,27.1a9.2,9.2,0,0,1-1.349,3.981c-1.3-3.286-2.588-6.579-3.909-9.858-5.9-14.626-11.66-29.307-19.663-42.981a6.818,6.818,0,0,1-.423-4.979c2.645-8.09,1.669-16.271,1.045-24.458q-.588-7.709-1.272-15.411a21.272,21.272,0,0,1,3.276-13.8,33.481,33.481,0,0,0,3.048-6.452c-3.981,5.022-7.513,10.31-7.327,17.1.159,5.8.567,11.609,1.074,17.395.777,8.867,1.482,17.684-1.187,26.418a6.571,6.571,0,0,0,.55,4.658c9.483,16.624,16.231,34.458,23.248,52.17,5.081,12.825,9.888,25.779,17.929,37.162,2.341,3.314,2.88,6.618,1.254,10.43-.914,2.143-1.258,4.53-2.607,6.694l.775-8.991-.732-.061c-.2,2.14-.5,4.276-.595,6.421-.223,4.819-.53,5.1-5.292,6.44-1.85.522-3.5,1.707-5.3,2.454a3.705,3.705,0,0,1-2.882-.1l1.936-1.846a11.553,11.553,0,0,1-2.173.889c-.809.118-1.978.363-2.386-.049a2.506,2.506,0,0,1-.229-2.393c3.276-5.212,1.524-9.919-.807-14.911-2.635-5.641-4.9-11.491-4.754-17.956A5.98,5.98,0,0,0,322.3,244.3c-10.215-14.248-20.6-28.374-30.669-42.726-3.123-4.452-5.407-9.492-8.075-14.263,2.875,5.868,5.116,12.167,8.752,17.519,8.984,13.227,18.658,25.985,27.912,39.033,1.185,1.671,1.594,3.921,2.238,5.943,2.051,6.444,3.822,12.987,6.146,19.329,1.226,3.345,1.377,6.288-.165,9.467-1.855,3.826-1.533,4.595,2.747,6.926-2.857,6.986-5.691,14.061-8.645,21.084-1.653,3.929-3.569,7.748-5.208,11.683-.3.723.383,1.8.236,2.652-.548,3.179-.744,6.561-2.04,9.429-1.317,2.915-3.179,5.422-3.5,8.87-.409,4.442-2.715,8.039-5.506,11.711-2.08,2.736-2.046,7.257-2.479,11.037-1.484,12.942-2.142,26.011-4.281,38.838-2.312,13.857-4.892,27.6-4.312,41.731.258,6.289.609,6.987,6.416,9.282q17.229,6.809,34.461,13.612c1,.4,2.016.765,3.025,1.146l.362-.868c-2.525-1.047-5.034-2.135-7.579-3.133q-12.673-4.968-25.366-9.886c-.2-.079-.387-.211-.592-.287-10.494-3.9-9.6-3.9-9.775-15.212-.229-14.475,3.251-28.446,5.536-42.6,1.5-9.279,1.988-18.732,2.673-28.126.493-6.767,1.5-13.261,5.609-18.949a14.431,14.431,0,0,0,2.065-4.79c1.233-4.763,2.26-9.565,5.178-13.705a5.117,5.117,0,0,0,.948-3.1c-.744-8.577,4.008-15.537,6.714-23.078,1.883-5.248,4.09-10.386,6.337-15.492a5.258,5.258,0,0,1,2.624-2.137,14.712,14.712,0,0,1,3.224-.555c5.627-1.1,10.605-2.809,11.175-9.831.191-2.349,1.507-4.6,1.778-6.952a10.59,10.59,0,0,0-.717-5.63c-5.044-10.191-10.469-20.194-15.4-30.435a15.9,15.9,0,0,1-1.215-8.231c1.665-15.253,3.736-30.462,5.444-45.711a45.5,45.5,0,0,0,.038-12.449,32.956,32.956,0,0,1,1.164-16.47,32.977,32.977,0,0,0,.38-18.786,17.685,17.685,0,0,1,.267-8.082,16.55,16.55,0,0,0-3.868-15.887c-6.068-6.77-12.209-13.481-18.5-20.044-1.706-1.78-4.054-2.948-6.124-4.374-4.159-2.865-4.586-4.745-2.763-9.338a25.093,25.093,0,0,0,1.376-6.7c.237-2.352,1.28-3.285,3.612-3.158,2.734.149,5.482.207,8.219.134,4.1-.109,5.518-2.434,3.692-6.062-.734-1.458-.628-2.438-.029-4.1.96-2.663.65-5.783.877-8.709l-.932-.3c.688-.215,1.367-.463,2.065-.638,2.01-.5,2.773-1.635,1.863-3.621a16.426,16.426,0,0,0-1.046-2.044c-2.309-3.6-4.407-7.061-3.66-11.821.4-2.535-.893-5.338-1.441-8.017-.534-2.61-1.46-5.076.12-7.825,1.116-1.942.26-3.909-2.122-4.641C310.292,1.5,298.824-1.427,287,.747,275.471,2.865,266.16,15.6,269.747,27.752c2.307,7.819,5.779,15.326,9.113,22.8,2.08,4.662,3.661,9.308,1.843,14.223-2.074,5.605-4.038,11.417-7.188,16.423-6.384,10.146-8.611,21.144-8.962,32.836-.364,12.119,2.063,23.727,5.8,35.15C272.829,156.769,275.24,164.376,277.68,171.974Z" transform="translate(-264.517 0)"/>
        <path id="Trazado_101797" data-name="Trazado 101797" d="M329.4,555.655c-2.178.007-4.356-.236-6.536-.333-6.019-.268-12.037-.634-18.058-.727-6.229-.1-12.463.16-18.694.1a30.92,30.92,0,0,1-7.133-.824c-3.759-.938-5.4-4.308-4.58-8.107,1.6-7.454,4.234-14.7,3.653-22.573-.742-10.051-3.851-19.507-6.829-28.98-4.728-15.041-4.808-30.154-1.427-45.389,1.01-4.553,2.388-9.025,3.6-13.534l-1.064-.26c-1.58,6.776-3.42,13.5-4.674,20.341a72.5,72.5,0,0,0-.015,27.1c1.4,7.166,3.646,14.164,5.4,21.266,1.36,5.51,2.726,11.03,3.751,16.607,1.344,7.311-.48,14.356-2.42,21.344-2.715,9.783.45,13.9,10.508,14.021,10.5.125,21,.513,31.5.658,3.044.042,6.1-.523,9.142-.5,2.636.02,5.288.812,7.9.659a46.041,46.041,0,0,0,9.522-1.667c.826-.228,1.487-1.948,1.7-3.081.077-.409-2.394-1.623-4-2.616a6.152,6.152,0,0,0-1.046-.435.74.74,0,0,0,.111,1.065c1.127,1.168,3.71,2.93,3.852,3.4a11.327,11.327,0,0,1-2.964.73C338.94,553.879,329.984,555.653,329.4,555.655Z" transform="translate(-264.872 -83.195)"/>
        <path id="Trazado_101798" data-name="Trazado 101798" d="M282.508,212.143c-1.711-11.127-3.476-22.246-5.11-33.385-.826-5.63-1.714-11.279-2.013-16.949-.232-4.4-2.14-7.893-4.393-11.878-.11.781-.293,1.161-.174,1.367,4.239,7.361,3.3,15.723,4.676,23.642,1.463,8.407,3.424,16.726,5.071,25.1a25.763,25.763,0,0,1,.332,6.523l-2.378-6.076c.578,2.881,1.221,5.751,1.72,8.645,1.307,7.586-.1,14.736-3.412,21.628-5.227,10.88-8.49,22.2-7.478,34.462.637,7.719,3.274,14.324,9.793,18.945l.311-.129c-.675-.669-.957-1.006-1.37-1.41-7.379-7.212-8.58-16.213-7.833-25.987.722-9.446,4.071-18.035,7.923-26.519,2.187-4.816,3.9-9.736,2.868-15.209a9.094,9.094,0,0,1,.521-4.659Z" transform="translate(-265.405 -28.674)"/>
        <path id="Trazado_101799" data-name="Trazado 101799" d="M281.5,315.885c2.056,1.875,2.16,4.206,1.981,6.777a353.739,353.739,0,0,0,.248,53.248c.332,4.092.049,8.235.334,12.357,0-7.389-.032-14.778.007-22.167.076-14.573-.113-28.8.083-43.372a14.986,14.986,0,0,0-.281-4.642c-1.049-1.459-.85-1.529-2.061-2.33Z" transform="translate(-267.765 -60.386)"/>
        <path id="Trazado_101800" data-name="Trazado 101800" d="M313.086,579.005H295.269q.008.267.016.534H313.1Q313.091,579.272,313.086,579.005Z" transform="translate(-270.398 -110.73)"/>
        <path id="Trazado_101801" data-name="Trazado 101801" d="M284.016,543.662q-.992,5.621-1.981,11.242c-.53,3.047.424,4.093,4.132,4.173-3.234-.674-3.08-2.8-2.738-5.236.469-3.329.668-6.7.983-10.048Z" transform="translate(-267.841 -103.971)"/>
        <path id="Trazado_101802" data-name="Trazado 101802" d="M287.194,362.293v17.77l.371-.019V362.271Z" transform="translate(-268.854 -69.281)"/>
        <path id="Trazado_101803" data-name="Trazado 101803" d="M313.722,265.814l-11.642-16.119-.663.463L313,266.46Z" transform="translate(-271.574 -47.752)"/>
        <path id="Trazado_101804" data-name="Trazado 101804" d="M296.253,100.057c-7.646-3.541-13.608-.623-18.8,5.17C282.992,100.745,288.782,97.257,296.253,100.057Z" transform="translate(-266.992 -18.841)"/>
        <path id="Trazado_101805" data-name="Trazado 101805" d="M333.92,149.845c3.571,3.736,7.73,4.3,12.984,1.39C341.75,152.455,337.577,152.812,333.92,149.845Z" transform="translate(-277.79 -28.657)"/>
        <path id="Trazado_101806" data-name="Trazado 101806" d="M339.529,230.371,340.676,242C342.394,238.174,341.692,234.6,339.529,230.371Z" transform="translate(-278.862 -44.057)"/>
      </g>
      <path id="Trazado_101807" data-name="Trazado 101807" d="M347.2,347.288l-.256-.607c4.859-2.052,4.274-6.245,4.267-6.286l-.006-.041,0-.04.916-9.845.656.06-.913,9.81C351.921,340.833,352.242,345.159,347.2,347.288Z" transform="translate(-280.28 -63.2)"/>
      <path id="Trazado_101808" data-name="Trazado 101808" d="M354.979,346.945l-.244-.611c3.221-1.289,4.252-7.357,4.263-7.418l0-10.25h.658v10.3C359.6,339.286,358.546,345.519,354.979,346.945Z" transform="translate(-281.77 -62.855)"/>
      <path id="Trazado_101809" data-name="Trazado 101809" d="M363.9,343.542l-.631-.185,1.7-5.794a46.148,46.148,0,0,1,.578-6.995A11.772,11.772,0,0,0,365,324.8l.611-.244a12.223,12.223,0,0,1,.59,6.135,45.855,45.855,0,0,0-.566,6.923l-.013.093Z" transform="translate(-283.403 -62.068)"/>
      <path id="Trazado_101810" data-name="Trazado 101810" d="M274.294,426.529l-.616-.234c1.214-3.2,7.973-25.088,8.336-26.263V383.023h.658l-.015,17.155C282.587,400.408,275.543,423.237,274.294,426.529Z" transform="translate(-266.269 -73.25)"/>
      <path id="Trazado_101811" data-name="Trazado 101811" d="M336.06,199.91a5.815,5.815,0,0,0,2.3-1.458,7.592,7.592,0,0,0,1.566-2.2,11.636,11.636,0,0,0,.885-2.561l.338-1.363c.131-.454.279-.9.433-1.349a25.723,25.723,0,0,1,2.575-5c.521-.777,1.06-1.539,1.629-2.279.59-.723,1.178-1.447,1.835-2.109q-1.632,2.264-3.033,4.653A33.9,33.9,0,0,0,342.2,191.2c-.154.429-.3.862-.432,1.3l-.352,1.336a10.51,10.51,0,0,1-1.043,2.648A6.541,6.541,0,0,1,336.06,199.91Z" transform="translate(-278.199 -34.728)"/>
      <path id="Trazado_101812" data-name="Trazado 101812" d="M342.093,143.3a4.086,4.086,0,0,0,1.8,1.619,3.292,3.292,0,0,0,1.151.212c.2.013.414-.018.631-.016.215-.021.431-.052.667-.054a4.642,4.642,0,0,1-.584.367,3.617,3.617,0,0,1-.666.215,2.575,2.575,0,0,1-1.441-.111,2.419,2.419,0,0,1-1.128-.915A2.446,2.446,0,0,1,342.093,143.3Z" transform="translate(-279.353 -27.406)"/>
      <path id="Trazado_101813" data-name="Trazado 101813" d="M289.454,223.032a6.221,6.221,0,0,0,1.93,4.125,11.306,11.306,0,0,0,1.823,1.455l1.023.614c.354.187.711.373,1.062.59-.4-.078-.794-.186-1.192-.294-.384-.141-.768-.292-1.145-.462a7.759,7.759,0,0,1-2.038-1.439,5.647,5.647,0,0,1-1.352-2.124A4.07,4.07,0,0,1,289.454,223.032Z" transform="translate(-269.259 -42.653)"/>
      <path id="Trazado_101814" data-name="Trazado 101814" d="M323.107,141.957a9.969,9.969,0,0,0,2.905,2.339,5.188,5.188,0,0,0,1.727.523,8.586,8.586,0,0,0,1.893,0,4.1,4.1,0,0,1-1.92.513,4.2,4.2,0,0,1-1.988-.444,5.3,5.3,0,0,1-1.6-1.232A4.968,4.968,0,0,1,323.107,141.957Z" transform="translate(-275.722 -27.148)"/>
      <path id="Trazado_101815" data-name="Trazado 101815" d="M311.811,82.34c-3.878-3.189-10.624-18.034-10.909-18.664l.6-.271c.069.153,6.968,15.335,10.728,18.428Z" transform="translate(-271.475 -12.126)"/>
      <path id="Trazado_101816" data-name="Trazado 101816" d="M305.342,54.123c.232,1.2.422,2.41.633,3.615l.283,1.812a3.03,3.03,0,0,0,.714,1.523,28.471,28.471,0,0,0,2.792,2.274q1.469,1.074,3.021,2.026a49.84,49.84,0,0,0,6.469,3.329l1.692.68,1.723.6,1.743.557q.884.236,1.766.494a35.039,35.039,0,0,1-7.111-1.865,39.09,39.09,0,0,1-6.626-3.239,31.564,31.564,0,0,1-5.855-4.538,3.489,3.489,0,0,1-.738-1.792l-.191-1.824C305.553,56.561,305.427,55.345,305.342,54.123Z" transform="translate(-272.324 -10.351)"/>
      <path id="Trazado_101817" data-name="Trazado 101817" d="M329.346,62.062c-.6-1.771,1.226-3.714,1.3-3.8l.477.454c-.017.017-1.63,1.737-1.157,3.13Z" transform="translate(-276.892 -11.143)"/>
      <path id="Trazado_101818" data-name="Trazado 101818" d="M335.671,51.127a3.091,3.091,0,0,1,2.072-3.909l.165.638a2.424,2.424,0,0,0-1.594,3.131Z" transform="translate(-278.103 -9.03)"/>
      <ellipse id="Elipse_4003" data-name="Elipse 4003" cx="1.388" cy="0.415" rx="1.388" ry="0.415" transform="translate(59.721 41.197)"/>
      <path id="Trazado_101819" data-name="Trazado 101819" d="M337.783,63.958a1.085,1.085,0,0,1-.564-.136,2.767,2.767,0,0,1-.494-.493,8.858,8.858,0,0,0-2.969-2.353.165.165,0,0,1-.008-.294,22.526,22.526,0,0,0,3.053-1.9,2.406,2.406,0,0,1,2.542-.815.726.726,0,0,1,.512.481,2.725,2.725,0,0,1-.472,2.056.878.878,0,0,1-.661.278c-.046.005-.091.01-.134.017-.089.014-.194.027-.31.039a1.575,1.575,0,0,1,.8.33,1.535,1.535,0,0,1,.316,1.158,1.479,1.479,0,0,1-1.617,1.635Zm-3.174-2.9a9.622,9.622,0,0,1,2.364,2.055,3.1,3.1,0,0,0,.418.431,1.454,1.454,0,0,0,1.334-.223,1.693,1.693,0,0,0,.348-1.016,1.247,1.247,0,0,0-.227-.912C338.465,60.989,336.165,60.971,334.608,61.057Zm4.03-2.864a2.226,2.226,0,0,0-1.6.819,17.619,17.619,0,0,1-2.711,1.732c.392-.031.96-.058,1.561-.087.992-.048,2.116-.1,2.654-.185l.147-.019c.183-.021.357-.041.432-.144a2.474,2.474,0,0,0,.427-1.754.394.394,0,0,0-.287-.273A2.381,2.381,0,0,0,338.638,58.193Z" transform="translate(-277.74 -11.067)"/>
      <path id="Trazado_101820" data-name="Trazado 101820" d="M325.894,33.62s1.545-3.306,4.508-1.932,3.5,1.674,3.5,1.674,1.052.3,1.264-.172.61-.987-.3-1.46-3.483-1.5-3.483-1.5-2.962-1.03-4.637,1.03l-1.417,1.588s-.343.515,0,.773A.387.387,0,0,0,325.894,33.62Z" transform="translate(-276.119 -5.732)"/>
      <path id="Trazado_101821" data-name="Trazado 101821" d="M301.162,46.216a.817.817,0,0,1-.372-.1,20.551,20.551,0,0,1-2.452-1.883s-2.231-1.5-1.288-3.751a2.2,2.2,0,0,1,1.29-1.361,2.12,2.12,0,0,1,1.609.21.165.165,0,0,1-.171.282,1.813,1.813,0,0,0-1.34-.177,1.892,1.892,0,0,0-1.085,1.174c-.837,1.993,1.1,3.307,1.184,3.363a21.355,21.355,0,0,0,2.4,1.851.372.372,0,0,0,.537-.131.458.458,0,0,0-.2-.627,1.757,1.757,0,0,1-.825-1.338c-.049-.193-.107-.418-.189-.685a1.739,1.739,0,0,1,1.028-1.956.168.168,0,0,1,.221.073.165.165,0,0,1-.073.221c-.048.024-1.158.6-.861,1.565.084.273.142.5.193.7.153.6.217.85.681,1.14a.784.784,0,0,1,.309,1.069A.694.694,0,0,1,301.162,46.216Z" transform="translate(-270.694 -7.467)"/>
      <path id="Trazado_101822" data-name="Trazado 101822" d="M297.572,46.947a.165.165,0,0,1-.134-.069l-.73-1.03c-.131-.146-3.468-3.946-3.078-7.625a2.4,2.4,0,0,1,1.138-2.035c1.357-.712,3.355.358,3.44.4a.165.165,0,0,1-.157.289c-.019-.01-1.928-1.032-3.131-.4a2.094,2.094,0,0,0-.963,1.777c-.375,3.536,2.974,7.348,3.007,7.386l.741,1.044a.165.165,0,0,1-.134.26Z" transform="translate(-270.079 -6.874)"/>
      <path id="Trazado_101823" data-name="Trazado 101823" d="M333.669,40.224a26.782,26.782,0,0,1-5.695-1.154.165.165,0,0,1-.016-.309l1.6-.687a6.768,6.768,0,0,1,3.145-1.1,2.764,2.764,0,0,0,2.162-.952.168.168,0,0,1,.227-.051.164.164,0,0,1,.051.226,3.011,3.011,0,0,1-2.418,1.1,6.632,6.632,0,0,0-3.007,1.057l-1.215.524a23.154,23.154,0,0,0,5.293,1.009h.005a.165.165,0,0,1,.005.329Z" transform="translate(-276.63 -6.875)"/>
      <path id="Trazado_101824" data-name="Trazado 101824" d="M333.871,40.46c-.463,0-.705-.816-.705-1.622s.242-1.621.705-1.621.706.816.706,1.621S334.335,40.46,333.871,40.46Zm0-2.914c-.112,0-.376.44-.376,1.292s.264,1.293.376,1.293c.133,0,.377-.491.377-1.293S334,37.546,333.871,37.546Z" transform="translate(-277.645 -7.118)"/>
      <path id="Trazado_101825" data-name="Trazado 101825" d="M327.385,37.975a.165.165,0,0,1-.1-.292c.116-.093,2.85-2.28,5.514-1.227a.165.165,0,1,1-.121.306c-2.487-.981-5.158,1.155-5.185,1.177A.166.166,0,0,1,327.385,37.975Z" transform="translate(-276.508 -6.917)"/>
      <path id="Trazado_101826" data-name="Trazado 101826" d="M330.5,42.176a.164.164,0,0,1-.059-.318,14.233,14.233,0,0,1,2.634-.784.165.165,0,0,1,0,.329,14.092,14.092,0,0,0-2.517.762A.163.163,0,0,1,330.5,42.176Z" transform="translate(-277.104 -7.855)"/>
    </g>
    <path id="Trazado_101827" data-name="Trazado 101827" d="M265.655,225.332a58.687,58.687,0,0,0,19.89,17.494,55.691,55.691,0,0,0,12.222,4.676,57.543,57.543,0,0,0,12.962,1.666c2.186.119,4.379-.066,6.571-.15,2.184-.251,4.383-.388,6.553-.812a104.721,104.721,0,0,0,12.955-2.989,190.419,190.419,0,0,0,25.049-10,104.583,104.583,0,0,1-24.036,12.985l-3.258,1.139-1.636.556c-.548.178-1.11.311-1.665.469l-3.345.9c-1.12.286-2.266.471-3.4.711-2.261.517-4.586.7-6.889,1.015-2.326.115-4.651.321-6.989.211a54.9,54.9,0,0,1-13.862-2.011,50.339,50.339,0,0,1-12.8-5.649A48.263,48.263,0,0,1,265.655,225.332Z" transform="translate(-11704.734 -7691.446)" fill="#025157"/>
    <path id="Trazado_101828" data-name="Trazado 101828" d="M359.562,227.225a29.156,29.156,0,0,0,2.854,1.79c.477.276.969.524,1.451.776l1.482.674a25.342,25.342,0,0,0,6.055,1.809,23.051,23.051,0,0,0,6.144.276,24.074,24.074,0,0,0,3.056-.406c1.018-.17,2.007-.52,3.027-.733l.253-.053a1.957,1.957,0,0,1,1.945,3.116l-5.9,7.594-6.017,7.677a31.1,31.1,0,0,1,1.532-4.728c.607-1.542,1.326-3.027,2.077-4.494s1.572-2.891,2.43-4.291,1.749-2.766,2.718-4.129l2.2,3.063c-.574.175-1.15.345-1.73.5a14.609,14.609,0,0,1-1.752.437,23.363,23.363,0,0,1-3.609.419,20.79,20.79,0,0,1-7.191-.916,20.131,20.131,0,0,1-6.354-3.244A17.448,17.448,0,0,1,359.562,227.225Z" transform="translate(-11722.693 -7691.808)" fill="#025157"/>
    <g id="Grupo_53906" data-name="Grupo 53906" transform="translate(-11183.841 -7634.511)">
      <g id="Grupo_53905" data-name="Grupo 53905" transform="translate(0 0)">
        <path id="Trazado_101777" data-name="Trazado 101777" d="M688.227,88.278c.714,3.91,1.607,7.758,2.074,11.656a12.682,12.682,0,0,1-3.3,10.417c-7.337,7.935-14.789,15.764-22.144,23.683-2.32,2.5-4.916,4.884-6.626,7.772-4.693,7.926-1.788,17.277,6.635,21.032,2.845,1.268,3.553,3.055,3.6,5.587.177,8.992.5,17.989.334,26.977-.118,6.521-1.327,13.032-1.3,19.544.03,7.687.821,15.374,1.365,23.054.674,9.5,2.039,18.993,2.014,28.487a128.888,128.888,0,0,0,6.267,40.444,89.52,89.52,0,0,1,4.524,28.364c-.035,7.8,2.411,15.584,3.507,23.411,2.167,15.483,4.31,30.972,6.175,46.493,1.15,9.568,1.679,19.209,2.662,28.8a14.537,14.537,0,0,1-4.354,12.59c-7.261,6.969-15.579,12-25.916,12.863a13.065,13.065,0,0,0-1.589.223c-2.035.427-3.765,1.3-3.759,3.684a3.678,3.678,0,0,0,3.628,3.831c5.753.407,11.556.981,17.287.632,7.908-.482,15.7-1.426,23.675-.047,8.215,1.419,14.277-6.658,10.141-13.859-4.313-7.509-4.035-15-3.082-22.993,2.105-17.654,4.117-35.324,5.81-53.022a67.4,67.4,0,0,0-2.754-27.042c-3.309-10.289-2.509-20.421-1.289-30.8,2.213-18.817,4.048-37.679,6.095-56.516a4.208,4.208,0,0,1,1.138-2.748c8.272-5.9,9.585-14.148,8.3-23.425-1.169-8.469-4.751-15.952-9.092-23.153-1.106-1.835-2.209-3.677-3.431-5.434-3.678-5.29-4.941-10.671-4.826-17.511.182-10.805,2.82-20.7,6.27-30.575,4.976-14.238,4.382-28.654,2-43.174-.623-3.8-1.687-7.522-2.357-11.314a3.073,3.073,0,0,1,.914-2.548c9.916-6.89,13.863-17.028,14.666-28.394.423-5.994-.611-12.136-1.4-18.156-.683-5.18-1.921-10.29-2.983-15.417a32.73,32.73,0,0,0-7.418-15.115c-8.832-10.135-20.276-12.175-32.149-5.9a85.991,85.991,0,0,1-10.752,4.955c-7.745,2.811-10.092,7.138-7.994,15.208a16.657,16.657,0,0,1,.49,5.317,16.819,16.819,0,0,0,1.721,9.625,7.2,7.2,0,0,1,.058,5.012c-.523,1.67-1.868,3.088-2.877,4.6-2.168,3.249-1.995,4.068,1.229,6.4a2.332,2.332,0,0,1,.917,1.45c.182,1.976.184,3.969.309,5.951.025.395.21,1.037.466,1.121,3,.981,2.912,3.064,2.672,5.739-.223,2.5,2.1,3.473,4.216,3.4C681.162,89.357,684.311,88.76,688.227,88.278Zm-14.5-41.21c-.56-.9-1.124-1.8-1.678-2.706-4.8-7.847-2.25-14.653,6.324-17.432a52,52,0,0,0,8.12-3.8c5.675-3.008,11.477-5.594,18.077-3.958,10.4,2.577,16.846,9.561,19.939,19.492,1.672,5.368,2.015,11.137,3.5,16.578,3.212,11.778,3.113,23.3-1.762,34.6a29.557,29.557,0,0,1-9.189,12.178c-2.246,1.706-3.98,1.881-5.276-1.025-1.129-2.534-2.679-4.931-3.445-7.563-1.224-4.208-1.951-8.56-2.937-13.075-2.329,5.116-4.487,10.217-9.592,13.837.083-1.39.134-2.253.242-4.047l-2.207,5.71c5.342-1.8,7.829-5.98,10.33-9.227,2.4,5.016,4.836,10.055,7.232,15.111a84.7,84.7,0,0,1,3.619,8.048,41.468,41.468,0,0,1,1.46,6.9c2.175,12.974,3.508,25.949-.415,38.854-1.682,5.532-3.447,11.039-5.174,16.557l-.652-.151-2.128-40.027-.829-.032a43.639,43.639,0,0,0-.548,6.253c.327,6.42,1.11,12.823,1.276,19.244.433,16.771,2.4,33.584-1.969,50.216-3.782,14.406-7.264,28.874-14.834,41.93a23.136,23.136,0,0,0-3,13.285,18.293,18.293,0,0,1-.272,6.057,23.013,23.013,0,0,0-.156,13.285c.256.875-.55,2.061-.866,3.1l-1.748-.492c2.831,3.037.161,4.137-1.213,4.5-1.433.379-3.475.5-4.66-1.82-3.7-7.239-3.744-14.689-1.523-22.183,1.572-5.3,4.279-10.289,5.635-15.632,2.605-10.266,4.9-20.632,6.783-31.054,1.832-10.138,4.979-20.048,3.534-30.737-1.88-13.9-2.726-27.935-4.106-41.9a25.716,25.716,0,0,0-1.495-4.75c-.477.745-.679.913-.665,1.06,1.646,17.492,3.334,34.981,4.93,52.478a20.908,20.908,0,0,1-.331,5.722c-1.617,8.519-3.208,17.049-5.1,25.511-2.786,12.494-4.795,25.11-10.029,37.074-3.559,8.137-3.661,17.208,1.265,25.406a5.85,5.85,0,0,0,3.526,2.67c5.1.717,8.68-3.92,7.783-9.346a51.265,51.265,0,0,1-.636-9.178,62.759,62.759,0,0,1,.913-9.856c.735-4.154,1.055-8.668,2.974-12.27a142.126,142.126,0,0,0,11.215-28.643c1.747-6.219,3.252-12.505,4.909-18.929.47.375.788.517.935.762,3.476,5.78,7.036,11.513,10.368,17.375a48.4,48.4,0,0,1,6,19.842c.9,10.066-4.3,18.308-13.1,20.6-1.568.409-3.212.53-4.82.784l.071.784,7.468-.367c0,3.847.378,7.823-.065,11.7-1.981,17.344-4.241,34.657-6.3,51.992-.759,6.381-1.313,12.733.688,19.1a83.25,83.25,0,0,1,4.006,32.035c-1.269,15.047-3.164,30.04-4.669,45.068-1.107,11.054-4.165,22.087,2.473,32.843,2.809,4.552-.574,9.782-5.82,10.567-2.35.352-4.853-.4-7.292-.553-3.5-.216-7.015-.578-10.508-.452-6.823.246-13.631.972-20.453,1.115-2.83.059-5.822-.572-7.894-3.77A16.2,16.2,0,0,1,663.4,461.2c10.078-.783,18.367-5.483,25.824-11.863a17.465,17.465,0,0,0,6.447-15.98c-1.269-11.713-2.123-23.474-3.533-35.169-1.665-13.818-3.617-27.6-5.673-41.37-1.2-8.025-4.167-15.859-3.159-24.106.806-6.6-.477-12.858-2.516-18.921a158.071,158.071,0,0,1-8.363-55.934,77.114,77.114,0,0,0-1.121-14.4,161.226,161.226,0,0,1-1.5-39.059c.946-11.167.471-22.458.529-33.694a53.224,53.224,0,0,0-.658-6.186l3.959-1.208a3.917,3.917,0,0,0-2.367-.624c-11.332-.612-17.129-11.557-11.071-21.1a37.946,37.946,0,0,1,4.993-5.829c6.56-6.76,13.094-13.551,19.812-20.153,7.074-6.951,8.406-15.062,5.555-24.219-.5-1.592-.9-3.214-1.272-4.578l4.342-3.185c-.586.239-1.16.518-1.761.71-3.848,1.232-7.641,2.721-11.572,3.584-3.6.791-4.892-.677-4.672-4.157.062-.977-.026-2.511-.621-2.892-3.139-2.011-3.064-5.008-3.087-8.131-.009-1.226.633-3.357-2.1-2.817-.055.011-.965-2.086-.645-2.85a24.378,24.378,0,0,1,3.036-4.867c1.891-2.561,1.605-4.856.249-7.714-1.234-2.6-1.346-5.732-1.952-8.63l.989-.287Z" transform="translate(-655.996 -17.115)"/>
        <path id="Trazado_101778" data-name="Trazado 101778" d="M694.048,83.987l-4.342,3.185c.377,1.363.776,2.986,1.272,4.578,2.851,9.157,1.519,17.268-5.555,24.219-6.718,6.6-13.252,13.392-19.812,20.153a37.959,37.959,0,0,0-4.993,5.829c-6.058,9.541-.261,20.486,11.071,21.1a3.916,3.916,0,0,1,2.367.624l-3.959,1.208a53.225,53.225,0,0,1,.658,6.186c-.058,11.236.417,22.527-.529,33.694a161.217,161.217,0,0,0,1.5,39.059,77.119,77.119,0,0,1,1.121,14.4,158.073,158.073,0,0,0,8.363,55.934c2.039,6.064,3.322,12.324,2.516,18.921-1.008,8.246,1.96,16.081,3.159,24.106,2.057,13.766,4.008,27.553,5.673,41.37,1.409,11.695,2.264,23.456,3.533,35.169a17.465,17.465,0,0,1-6.447,15.98c-7.457,6.38-15.746,11.08-25.824,11.863a16.2,16.2,0,0,0-3.434,1.122c2.072,3.2,5.064,3.829,7.894,3.77,6.822-.143,13.631-.869,20.453-1.115,3.493-.126,7.008.236,10.508.452,2.44.151,4.943.905,7.292.553,5.246-.785,8.629-6.015,5.82-10.567-6.639-10.756-3.581-21.789-2.473-32.843,1.505-15.028,3.4-30.022,4.669-45.068a83.252,83.252,0,0,0-4.006-32.035c-2-6.372-1.447-12.723-.688-19.1,2.062-17.335,4.322-34.648,6.3-51.992.443-3.882.065-7.857.065-11.7l-7.468.367-.071-.784c1.609-.254,3.252-.375,4.82-.784,8.794-2.3,14-10.538,13.1-20.6a48.4,48.4,0,0,0-6-19.842c-3.332-5.862-6.891-11.6-10.368-17.375-.147-.245-.466-.388-.935-.762-1.657,6.424-3.161,12.711-4.909,18.929a142.127,142.127,0,0,1-11.215,28.643c-1.92,3.6-2.239,8.116-2.975,12.27a62.766,62.766,0,0,0-.913,9.856,51.254,51.254,0,0,0,.636,9.178c.9,5.426-2.685,10.063-7.783,9.346a5.85,5.85,0,0,1-3.526-2.67c-4.926-8.2-4.825-17.27-1.265-25.406,5.234-11.964,7.243-24.58,10.029-37.074,1.887-8.462,3.478-16.991,5.1-25.511a20.908,20.908,0,0,0,.331-5.722c-1.6-17.5-3.285-34.985-4.93-52.478-.014-.148.188-.315.666-1.06a25.693,25.693,0,0,1,1.495,4.75c1.38,13.968,2.227,28.005,4.106,41.9,1.446,10.69-1.7,20.6-3.534,30.737-1.884,10.422-4.178,20.788-6.783,31.054-1.356,5.342-4.063,10.329-5.635,15.632-2.221,7.494-2.177,14.944,1.523,22.183,1.185,2.319,3.228,2.2,4.66,1.82,1.374-.363,4.044-1.463,1.213-4.5l1.748.492c.316-1.043,1.123-2.229.866-3.1a23.013,23.013,0,0,1,.156-13.285,18.293,18.293,0,0,0,.272-6.057,23.136,23.136,0,0,1,3-13.285c7.57-13.056,11.051-27.524,14.834-41.93,4.367-16.631,2.4-33.444,1.969-50.215-.166-6.421-.949-12.824-1.276-19.245a43.656,43.656,0,0,1,.548-6.253l.829.032,2.128,40.027.652.151c1.727-5.518,3.492-11.025,5.174-16.557,3.923-12.905,2.591-25.881.415-38.854a41.457,41.457,0,0,0-1.46-6.9,84.707,84.707,0,0,0-3.619-8.048c-2.4-5.056-4.829-10.1-7.232-15.111-2.5,3.247-4.988,7.432-10.33,9.227l2.207-5.71-.242,4.047c5.1-3.619,7.263-8.721,9.592-13.837.986,4.515,1.714,8.867,2.937,13.075.765,2.632,2.315,5.03,3.445,7.563,1.3,2.906,3.03,2.731,5.276,1.025a29.557,29.557,0,0,0,9.189-12.178c4.875-11.3,4.974-22.817,1.762-34.6-1.484-5.441-1.827-11.21-3.5-16.578-3.093-9.931-9.537-16.915-19.939-19.492-6.6-1.635-12.4.951-18.077,3.958a51.987,51.987,0,0,1-8.12,3.8c-8.574,2.779-11.129,9.585-6.324,17.432.554.905,1.119,1.8,1.678,2.706l-.122-.12,4.893,3.42.816-3.119,6.287,7.516.89,1.523c4.849,6.091,5.855,13.214,5.283,21.276C696.261,74.394,696.7,69.8,698,65.72V84.832l-.586-.01-.432-2.346-3.032,1.615Z" transform="translate(-656.414 -17.482)" fill="#fff"/>
        <path id="Trazado_101779" data-name="Trazado 101779" d="M689.592,63.018l-.89-1.523-4.44-3.922c-.945.409-2.037,1.183-2.317.955-1.844-1.5-3.513-3.209-5.24-4.85l.122.12-2.238-1.5-.989.287c.606,2.9.718,6.03,1.952,8.63,1.356,2.857,1.642,5.152-.249,7.714a24.38,24.38,0,0,0-3.036,4.867c-.321.764.59,2.861.644,2.85,2.738-.541,2.1,1.59,2.1,2.817.023,3.123-.052,6.12,3.087,8.131.594.381.683,1.914.621,2.892-.22,3.48,1.069,4.948,4.672,4.157,3.93-.863,7.724-2.352,11.572-3.584.6-.193,1.175-.472,1.761-.71l-.1.1a9.264,9.264,0,0,0,3.2-10.7l-6.37,8.084c0-5.379.5-9.769-.15-13.982C692.74,70.137,690.882,66.621,689.592,63.018Z" transform="translate(-659.095 -23.844)" fill="#fff"/>
        <path id="Trazado_101780" data-name="Trazado 101780" d="M693.705,65.552c1.29,3.6,3.148,7.12,3.721,10.834.65,4.213.15,8.6.15,13.982l6.37-8.084a9.264,9.264,0,0,1-3.2,10.7l3.033-1.615.432,2.346.586.01V74.615c-1.3,4.081-1.738,8.675-5.805,12.213C699.56,78.766,698.554,71.643,693.705,65.552Z" transform="translate(-663.208 -26.378)"/>
        <path id="Trazado_101781" data-name="Trazado 101781" d="M677.772,54c1.726,1.642,3.4,3.354,5.24,4.85.28.227,1.372-.546,2.317-.955l4.44,3.922L683.481,54.3l-.816,3.119Z" transform="translate(-660.161 -24.17)"/>
      </g>
      <path id="Trazado_101782" data-name="Trazado 101782" d="M694.639,33.386a20.225,20.225,0,0,1,4.1,1.971,25.708,25.708,0,0,1,3.607,2.806,27.416,27.416,0,0,1,5.485,7.3,32.583,32.583,0,0,1,1.671,4.267l.341,1.094a7.38,7.38,0,0,1,.293,1.105c.155.747.3,1.5.437,2.246a16.225,16.225,0,0,1,.279,2.265l.193,2.272c0,1.519-.045,3.038-.1,4.549-.1-1.515-.115-3.026-.227-4.529l-.284-2.243a15.927,15.927,0,0,0-.365-2.224c-.171-.732-.337-1.464-.491-2.2a7.187,7.187,0,0,0-.3-1.082l-.349-1.069a32.353,32.353,0,0,0-1.688-4.157A28.328,28.328,0,0,0,702,38.527,24.624,24.624,0,0,0,694.639,33.386Z" transform="translate(-663.386 -20.227)"/>
      <path id="Trazado_101783" data-name="Trazado 101783" d="M702.849,24.822a20.048,20.048,0,0,1,8.442,2.322A21.031,21.031,0,0,1,718.06,32.8,24.282,24.282,0,0,1,722,40.694,33.508,33.508,0,0,1,722.94,45c.093.728.159,1.459.239,2.186.043.731.076,1.463.1,2.193l-.278-2.173c-.129-.718-.243-1.438-.384-2.151a33.741,33.741,0,0,0-1.109-4.208,29.8,29.8,0,0,0-1.653-4A24.386,24.386,0,0,0,717.54,33.2a21.367,21.367,0,0,0-6.489-5.616,22.119,22.119,0,0,0-3.958-1.768A20.522,20.522,0,0,0,702.849,24.822Z" transform="translate(-664.956 -18.589)"/>
      <path id="Trazado_101784" data-name="Trazado 101784" d="M733.51,64.244a50.543,50.543,0,0,1,4,20.26,36.175,36.175,0,0,1-1.687,10.263,29.705,29.705,0,0,1-2.048,4.786,28.556,28.556,0,0,1-2.9,4.3,31.734,31.734,0,0,0,4.464-9.239,37.612,37.612,0,0,0,1.513-10.127,52.168,52.168,0,0,0-.8-10.246c-.282-1.7-.643-3.379-1.069-5.046S734.084,65.873,733.51,64.244Z" transform="translate(-670.317 -26.128)"/>
      <path id="Trazado_101785" data-name="Trazado 101785" d="M715.879,77.692a26.3,26.3,0,0,1-.134,5.187,31.277,31.277,0,0,1-1.035,5.1,26.382,26.382,0,0,1-1.916,4.845,22.235,22.235,0,0,1-2.867,4.328c.409-.767.923-1.456,1.281-2.241l.6-1.134.526-1.171a37.323,37.323,0,0,0,1.742-4.811,48.086,48.086,0,0,0,1.168-4.991c.148-.844.279-1.691.377-2.544C715.745,79.41,715.815,78.554,715.879,77.692Z" transform="translate(-666.31 -28.7)"/>
      <path id="Trazado_101786" data-name="Trazado 101786" d="M682.324,35.651c.447.826.883,1.653,1.363,2.457q.685,1.223,1.425,2.412c.986,1.584,2,3.145,3.094,4.654s2.264,2.951,3.488,4.352c.635.678,1.259,1.372,1.952,1.995.643.682,1.393,1.238,2.088,1.874a25.182,25.182,0,0,1-4.408-3.52,36.9,36.9,0,0,1-3.655-4.316,45.419,45.419,0,0,1-3-4.787A38,38,0,0,1,682.324,35.651Z" transform="translate(-661.031 -20.66)"/>
      <path id="Trazado_101787" data-name="Trazado 101787" d="M687.39,64.7s-3.821-3.563-6.783-3.177a10.509,10.509,0,0,0-2.447.558c-.644.343-.987.215-1.116-.258s.129-.859,1.159-1.073S683.14,59.287,687.39,64.7Z" transform="translate(-660.016 -25.407)"/>
      <path id="Trazado_101788" data-name="Trazado 101788" d="M679.36,65.032a11.759,11.759,0,0,1,3.472.582,13.192,13.192,0,0,1,3.208,1.51l.281.181-.25.2a6.1,6.1,0,0,1-1.374.84,7.768,7.768,0,0,1-1.5.511,9.122,9.122,0,0,1-1.554.223,9.374,9.374,0,0,1-1.556-.059,13.94,13.94,0,0,0,1.532-.168,10.142,10.142,0,0,0,1.482-.346,10.517,10.517,0,0,0,1.4-.571,6.617,6.617,0,0,0,1.243-.793l.031.386a16.8,16.8,0,0,0-1.5-.847,17.152,17.152,0,0,0-1.576-.7,14.853,14.853,0,0,0-1.643-.551A15.4,15.4,0,0,0,679.36,65.032Z" transform="translate(-660.464 -26.279)"/>
      <ellipse id="Elipse_4002" data-name="Elipse 4002" cx="0.812" cy="1.995" rx="0.812" ry="1.995" transform="translate(18.572 38.946) rotate(-10.696)"/>
      <path id="Trazado_101789" data-name="Trazado 101789" d="M678.215,80.4a1.509,1.509,0,0,1,.664,1.323,1.456,1.456,0,0,1-.231.749,1.343,1.343,0,0,1-.562.5,4.047,4.047,0,0,0,.3-1.269A4.964,4.964,0,0,0,678.215,80.4Z" transform="translate(-660.221 -29.218)"/>
      <path id="Trazado_101790" data-name="Trazado 101790" d="M675.306,93.505a.472.472,0,0,1-.211-.049c-.365-.178-.524-.794-.5-1.939a.248.248,0,0,1,.16-.227c.032-.012.453-.168,1.063-.342-.573-.1-1.075-.309-1.211-.7a2.012,2.012,0,0,1,.008-1.515.97.97,0,0,1,1.059-.681c.069,0,.142.006.22.008a4.607,4.607,0,0,1,3.456,1.65l.7.786a.249.249,0,0,1,.06.2c0,.027-.416,2.716-4.554,2.746A.551.551,0,0,1,675.306,93.505Zm-.222-1.808c0,1.18.224,1.315.227,1.316a.3.3,0,0,1,.172-.063c3.332,0,4-1.755,4.112-2.215l-.6-.68a4.1,4.1,0,0,0-3.112-1.5c-.085,0-.165,0-.239-.01a.518.518,0,0,0-.57.368,1.554,1.554,0,0,0,0,1.173c.129.368,1.5.523,2.7.443a.247.247,0,0,1,.049.491A14.961,14.961,0,0,0,675.084,91.7Z" transform="translate(-659.529 -30.682)"/>
      <path id="Trazado_101791" data-name="Trazado 101791" d="M707.334,137.053a12.557,12.557,0,0,0-3.366-.451,8.726,8.726,0,0,0-3.244.628,4.11,4.11,0,0,0-.75.343,4.629,4.629,0,0,0-.714.415l-.684.472-.622.559-.315.28-.277.318-.564.635c-.363.437-.661.925-1.027,1.38.234-.525.481-1.054.763-1.565l.5-.725.256-.36.3-.323a7.568,7.568,0,0,1,2.894-2.041,7.781,7.781,0,0,1,3.5-.528A8.428,8.428,0,0,1,707.334,137.053Z" transform="translate(-663.603 -39.864)"/>
      <path id="Trazado_101792" data-name="Trazado 101792" d="M690.436,334.682c-.018,1.145.018,2.28.1,3.4a13.806,13.806,0,0,0,.592,3.268,7.2,7.2,0,0,0,.294.756l.377.756c.247.507.521,1,.788,1.5.549.99,1.1,1.981,1.688,2.967a19.548,19.548,0,0,1-2.128-2.7c-.324-.475-.614-.972-.9-1.473-.144-.25-.27-.509-.4-.765a7.574,7.574,0,0,1-.34-.83,10.868,10.868,0,0,1-.479-3.46A14.913,14.913,0,0,1,690.436,334.682Z" transform="translate(-662.503 -77.847)"/>
      <path id="Trazado_101793" data-name="Trazado 101793" d="M687.593,335.5a25.535,25.535,0,0,0,.049,3.973,16.234,16.234,0,0,0,.8,3.823,12.74,12.74,0,0,0,.8,1.776l.921,1.773,1.816,3.567a33.708,33.708,0,0,1-2.263-3.315,21.081,21.081,0,0,1-1.89-3.582,13.171,13.171,0,0,1-.688-4.013A14.37,14.37,0,0,1,687.593,335.5Z" transform="translate(-661.95 -78.003)"/>
      <path id="Trazado_101794" data-name="Trazado 101794" d="M683.742,335.5a14.184,14.184,0,0,0,.036,2.085,16.853,16.853,0,0,0,.269,2.051,20.694,20.694,0,0,0,1.156,3.946c.519,1.265,1.132,2.538,1.678,3.815l.857,1.908c.275.643.573,1.272.869,1.908a30.6,30.6,0,0,1-2.181-3.593c-.661-1.241-1.278-2.478-1.833-3.791a15.588,15.588,0,0,1-1.044-4.118A12.056,12.056,0,0,1,683.742,335.5Z" transform="translate(-661.247 -78.003)"/>
    </g>
    <path id="Trazado_101829" data-name="Trazado 101829" d="M640.748,215.021a58.691,58.691,0,0,0,19.89,17.494,55.689,55.689,0,0,0,12.222,4.676,57.548,57.548,0,0,0,12.962,1.666c2.186.119,4.379-.066,6.571-.15,2.184-.251,4.383-.388,6.553-.812a104.729,104.729,0,0,0,12.955-2.989,190.431,190.431,0,0,0,25.049-10A104.582,104.582,0,0,1,712.914,237.9l-3.258,1.139-1.636.556c-.548.178-1.11.311-1.665.469l-3.345.9c-1.12.286-2.266.471-3.4.711-2.261.517-4.586.7-6.889,1.015-2.326.115-4.651.321-6.989.211a54.9,54.9,0,0,1-13.862-2.011,50.338,50.338,0,0,1-12.8-5.649A48.267,48.267,0,0,1,640.748,215.021Z" transform="translate(-11836.921 -7689.474)" fill="#ec4011"/>
    <path id="Trazado_101830" data-name="Trazado 101830" d="M734.656,216.915a29.133,29.133,0,0,0,2.854,1.79c.477.276.969.524,1.451.776l1.482.674a25.341,25.341,0,0,0,6.055,1.809,23.05,23.05,0,0,0,6.144.276,24.074,24.074,0,0,0,3.056-.406c1.018-.17,2.007-.52,3.027-.733l.253-.053a1.957,1.957,0,0,1,1.945,3.116l-5.9,7.594L749,239.435a31.1,31.1,0,0,1,1.532-4.728c.607-1.542,1.326-3.027,2.077-4.494s1.572-2.891,2.43-4.291,1.749-2.766,2.717-4.129l2.2,3.063c-.574.175-1.15.345-1.73.5a14.611,14.611,0,0,1-1.752.437,23.364,23.364,0,0,1-3.609.419,20.79,20.79,0,0,1-7.191-.916,20.131,20.131,0,0,1-6.354-3.244A17.448,17.448,0,0,1,734.656,216.915Z" transform="translate(-11854.88 -7689.836)" fill="#ec4011"/>
    <path id="Trazado_774853" data-name="Trazado 774853" d="M9.617-7.039a3.416,3.416,0,0,1-.546,1.912A3.556,3.556,0,0,1,7.515-3.834a5.65,5.65,0,0,1-2.351.458H4.2V0H1.033V-10.5H5.339a5.1,5.1,0,0,1,3.248.842A3.192,3.192,0,0,1,9.617-7.039Zm-3.347.11A1.231,1.231,0,0,0,5.9-7.9a1.614,1.614,0,0,0-1.1-.33H4.2V-5.64h.71Q6.27-5.64,6.27-6.929Zm9.954,2.1a2.425,2.425,0,0,0-.476-.146,2.409,2.409,0,0,0-.5-.066q-1.545,0-1.545,1.787V0h-3.12V-7.5H13.7v1.318h.029a2.342,2.342,0,0,1,.813-1.08,2.088,2.088,0,0,1,1.23-.37,1.057,1.057,0,0,1,.447.088Zm3.589,1.963a1.054,1.054,0,0,0,.557.758,2.51,2.51,0,0,0,1.26.275,5.188,5.188,0,0,0,2.065-.417V-.271A7.423,7.423,0,0,1,20.94.183a4.345,4.345,0,0,1-3.054-1,3.565,3.565,0,0,1-1.091-2.761,4.556,4.556,0,0,1,.48-2.131A3.452,3.452,0,0,1,18.7-7.159a4.2,4.2,0,0,1,2.076-.524,4.085,4.085,0,0,1,1.992.454A3.025,3.025,0,0,1,24.02-5.955a4.089,4.089,0,0,1,.428,1.919v1.172ZM21.687-4.5q0-1.3-.93-1.3a.787.787,0,0,0-.652.355A1.773,1.773,0,0,0,19.8-4.5Zm8.7,4.5V-4.094a1.82,1.82,0,0,0-.209-1,.763.763,0,0,0-.677-.3.733.733,0,0,0-.63.315,1.344,1.344,0,0,0-.227.806V0h-3.12V-7.5h3.12v1.172h.029a2.648,2.648,0,0,1,1-1,2.741,2.741,0,0,1,1.37-.355q2.461,0,2.461,3.105V0Zm9.536,0V-.872H39.9a2.575,2.575,0,0,1-.974.773,2.776,2.776,0,0,1-1.187.282,3.052,3.052,0,0,1-1.692-.472,2.869,2.869,0,0,1-1.095-1.322,5.088,5.088,0,0,1-.363-2.007,4.938,4.938,0,0,1,.432-2.117A3.383,3.383,0,0,1,36.233-7.17a3.141,3.141,0,0,1,1.758-.513,2.661,2.661,0,0,1,.853.132,2.308,2.308,0,0,1,.681.355,1.06,1.06,0,0,1,.37.443h.029V-11.1h3.12V0Zm.066-3.977a1.645,1.645,0,0,0-.3-1.047.97.97,0,0,0-.8-.374.962.962,0,0,0-.824.465,2.161,2.161,0,0,0-.319,1.241q0,1.589,1.1,1.589a.977.977,0,0,0,.831-.428,2.109,2.109,0,0,0,.311-1.249ZM48.706,0V-1.143h-.029A2.454,2.454,0,0,1,46.392.183a2.188,2.188,0,0,1-1.663-.63,2.34,2.34,0,0,1-.6-1.685q0-2.212,2.717-2.563l1.86-.242a.709.709,0,0,0-.33-.6,1.5,1.5,0,0,0-.886-.234,5.837,5.837,0,0,0-2.659.718V-7.083a7.113,7.113,0,0,1,1.523-.432,8.866,8.866,0,0,1,1.567-.168,3.935,3.935,0,0,1,2.772.817,3.64,3.64,0,0,1,.861,2.728V0ZM46.86-2.549a.691.691,0,0,0,.194.505.74.74,0,0,0,.553.2.983.983,0,0,0,.795-.366,1.419,1.419,0,0,0,.3-.937v-.286l-1.055.146Q46.86-3.157,46.86-2.549Zm12.195.059a2.291,2.291,0,0,1-.97,1.974,4.562,4.562,0,0,1-2.706.7,9.41,9.41,0,0,1-1.249-.1,7.714,7.714,0,0,1-1.212-.249v-2.19a5.969,5.969,0,0,0,2.314.615q.916,0,.916-.476a.376.376,0,0,0-.212-.326,7.508,7.508,0,0,0-1.113-.428,3.144,3.144,0,0,1-1.45-.835,1.985,1.985,0,0,1-.454-1.355,2.162,2.162,0,0,1,.927-1.842,4.347,4.347,0,0,1,2.6-.677,8.276,8.276,0,0,1,2.08.286v2.1a6.29,6.29,0,0,0-1.011-.33,4.082,4.082,0,0,0-.923-.132,1,1,0,0,0-.491.1.315.315,0,0,0-.183.286.4.4,0,0,0,.2.344,3.5,3.5,0,0,0,.791.315,3.67,3.67,0,0,1,1.648.864A1.894,1.894,0,0,1,59.055-2.49Zm11.411,0A2.291,2.291,0,0,1,69.5-.516a4.562,4.562,0,0,1-2.706.7,9.41,9.41,0,0,1-1.249-.1,7.714,7.714,0,0,1-1.212-.249v-2.19a5.969,5.969,0,0,0,2.314.615q.916,0,.916-.476a.376.376,0,0,0-.212-.326,7.508,7.508,0,0,0-1.113-.428,3.144,3.144,0,0,1-1.45-.835,1.985,1.985,0,0,1-.454-1.355,2.162,2.162,0,0,1,.927-1.842,4.347,4.347,0,0,1,2.6-.677,8.276,8.276,0,0,1,2.08.286v2.1a6.29,6.29,0,0,0-1.011-.33,4.082,4.082,0,0,0-.923-.132,1,1,0,0,0-.491.1.315.315,0,0,0-.183.286.4.4,0,0,0,.2.344,3.5,3.5,0,0,0,.791.315,3.67,3.67,0,0,1,1.648.864A1.894,1.894,0,0,1,70.466-2.49ZM76.392,0V-1.157h-.029a4.1,4.1,0,0,1-.7.784,2.691,2.691,0,0,1-.7.4,2.486,2.486,0,0,1-.912.154,2.268,2.268,0,0,1-1.875-.8,3.691,3.691,0,0,1-.645-2.358V-7.5h3.12v4.292q0,1.106.828,1.106a.81.81,0,0,0,.685-.3,1.369,1.369,0,0,0,.231-.85V-7.5h3.12V0ZM89.465-3.977A5.336,5.336,0,0,1,89.048-1.8,3.372,3.372,0,0,1,87.869-.337a2.97,2.97,0,0,1-1.714.52,2.3,2.3,0,0,1-2-.959h-.029V3.45h-3.12V-7.5h3.12v1.018h.029a2.643,2.643,0,0,1,.967-.883,2.8,2.8,0,0,1,1.348-.319,2.679,2.679,0,0,1,2.223.967A4.29,4.29,0,0,1,89.465-3.977Zm-3.164.1A1.955,1.955,0,0,0,86.027-5a.953.953,0,0,0-.846-.4.951.951,0,0,0-.806.425,1.951,1.951,0,0,0-.308,1.165v.146a2.135,2.135,0,0,0,.264,1.135.87.87,0,0,0,.791.425.985.985,0,0,0,.872-.465A2.374,2.374,0,0,0,86.3-3.882Zm7.024,1.018a1.054,1.054,0,0,0,.557.758,2.51,2.51,0,0,0,1.26.275,5.188,5.188,0,0,0,2.065-.417V-.271a7.423,7.423,0,0,1-2.754.454,4.345,4.345,0,0,1-3.054-1,3.565,3.565,0,0,1-1.091-2.761,4.556,4.556,0,0,1,.48-2.131,3.452,3.452,0,0,1,1.421-1.447,4.2,4.2,0,0,1,2.076-.524,4.085,4.085,0,0,1,1.992.454,3.025,3.025,0,0,1,1.256,1.274,4.089,4.089,0,0,1,.428,1.919v1.172ZM95.2-4.5q0-1.3-.93-1.3a.787.787,0,0,0-.652.355,1.773,1.773,0,0,0-.308.941Zm9.478-.33a2.425,2.425,0,0,0-.476-.146,2.409,2.409,0,0,0-.5-.066q-1.545,0-1.545,1.787V0h-3.12V-7.5h3.12v1.318h.029A2.342,2.342,0,0,1,103-7.262a2.088,2.088,0,0,1,1.23-.37,1.057,1.057,0,0,1,.447.088Zm4.2-4.695a1.34,1.34,0,0,1-.48,1.069,1.877,1.877,0,0,1-1.263.41,1.831,1.831,0,0,1-1.249-.425,1.344,1.344,0,0,1-.487-1.055,1.3,1.3,0,0,1,.472-1.044,1.893,1.893,0,0,1,1.263-.4,1.911,1.911,0,0,1,1.263.4A1.293,1.293,0,0,1,108.882-9.521ZM105.579,0V-7.5h3.12V0Zm12.964-3.882A3.906,3.906,0,0,1,117.4-.9a4.479,4.479,0,0,1-3.2,1.084A4.5,4.5,0,0,1,111.01-.875a3.788,3.788,0,0,1-1.139-2.919,3.91,3.91,0,0,1,.535-2.073,3.477,3.477,0,0,1,1.523-1.348,5.259,5.259,0,0,1,2.278-.469,5.094,5.094,0,0,1,2.311.491,3.572,3.572,0,0,1,1.5,1.362A3.71,3.71,0,0,1,118.542-3.882Zm-3.164.015q0-1.531-1.172-1.531t-1.172,1.6q0,1.692,1.187,1.692Q115.378-2.1,115.378-3.867Zm9.968-.959a2.425,2.425,0,0,0-.476-.146,2.409,2.409,0,0,0-.5-.066q-1.545,0-1.545,1.787V0h-3.12V-7.5h3.12v1.318h.029a2.342,2.342,0,0,1,.813-1.08,2.088,2.088,0,0,1,1.23-.37,1.057,1.057,0,0,1,.447.088Zm3.589,1.963a1.054,1.054,0,0,0,.557.758,2.51,2.51,0,0,0,1.26.275,5.188,5.188,0,0,0,2.065-.417V-.271a7.423,7.423,0,0,1-2.754.454,4.345,4.345,0,0,1-3.054-1,3.565,3.565,0,0,1-1.091-2.761,4.556,4.556,0,0,1,.48-2.131,3.452,3.452,0,0,1,1.421-1.447,4.2,4.2,0,0,1,2.076-.524,4.085,4.085,0,0,1,1.992.454,3.025,3.025,0,0,1,1.256,1.274,4.089,4.089,0,0,1,.428,1.919v1.172ZM130.811-4.5q0-1.3-.93-1.3a.787.787,0,0,0-.652.355,1.773,1.773,0,0,0-.308.941Zm9.932,2.007a2.291,2.291,0,0,1-.97,1.974,4.562,4.562,0,0,1-2.706.7,9.41,9.41,0,0,1-1.249-.1A7.714,7.714,0,0,1,134.6-.168v-2.19a5.969,5.969,0,0,0,2.314.615q.916,0,.916-.476a.376.376,0,0,0-.212-.326,7.508,7.508,0,0,0-1.113-.428,3.144,3.144,0,0,1-1.45-.835,1.985,1.985,0,0,1-.454-1.355,2.162,2.162,0,0,1,.927-1.842,4.347,4.347,0,0,1,2.6-.677,8.276,8.276,0,0,1,2.08.286v2.1a6.29,6.29,0,0,0-1.011-.33,4.082,4.082,0,0,0-.923-.132,1,1,0,0,0-.491.1.315.315,0,0,0-.183.286.4.4,0,0,0,.2.344,3.5,3.5,0,0,0,.791.315,3.67,3.67,0,0,1,1.648.864A1.894,1.894,0,0,1,140.742-2.49Z" transform="translate(-11440 -7677)" fill="#12263f"/>
    <path id="Trazado_774861" data-name="Trazado 774861" d="M6.343-8.027V0H3.164V-8.027H.227V-10.5H9.316v2.476Zm12.29,4.146A3.906,3.906,0,0,1,17.487-.9a4.479,4.479,0,0,1-3.2,1.084A4.5,4.5,0,0,1,11.1-.875,3.788,3.788,0,0,1,9.961-3.794,3.91,3.91,0,0,1,10.5-5.867a3.477,3.477,0,0,1,1.523-1.348A5.259,5.259,0,0,1,14.3-7.683a5.094,5.094,0,0,1,2.311.491,3.572,3.572,0,0,1,1.5,1.362A3.71,3.71,0,0,1,18.633-3.882Zm-3.164.015Q15.469-5.4,14.3-5.4t-1.172,1.6q0,1.692,1.187,1.692Q15.469-2.1,15.469-3.867Zm12.788-.11A5.336,5.336,0,0,1,27.839-1.8,3.372,3.372,0,0,1,26.66-.337a2.97,2.97,0,0,1-1.714.52,2.3,2.3,0,0,1-2-.959h-.029V3.45H19.8V-7.5h3.12v1.018h.029a2.643,2.643,0,0,1,.967-.883,2.8,2.8,0,0,1,1.348-.319,2.679,2.679,0,0,1,2.223.967A4.29,4.29,0,0,1,28.257-3.977Zm-3.164.1A1.955,1.955,0,0,0,24.818-5a.953.953,0,0,0-.846-.4.951.951,0,0,0-.806.425,1.951,1.951,0,0,0-.308,1.165v.146a2.135,2.135,0,0,0,.264,1.135.87.87,0,0,0,.791.425.985.985,0,0,0,.872-.465A2.374,2.374,0,0,0,25.093-3.882Z" transform="translate(-11178.139 -7677.143)" fill="#12263f"/>
    <path id="Trazado_774857" data-name="Trazado 774857" d="M8.848-.286a8.878,8.878,0,0,1-3.01.469A6.126,6.126,0,0,1,2.944-.458,4.388,4.388,0,0,1,1.088-2.281,5.637,5.637,0,0,1,.447-5.01a6.006,6.006,0,0,1,.718-2.959,4.964,4.964,0,0,1,2.029-2,6.26,6.26,0,0,1,3.018-.707,10.488,10.488,0,0,1,2.637.33v2.922A3.721,3.721,0,0,0,7.8-7.837a5.235,5.235,0,0,0-1.23-.146,2.754,2.754,0,0,0-2.032.74,2.7,2.7,0,0,0-.743,2.007,2.657,2.657,0,0,0,.743,1.989,2.718,2.718,0,0,0,1.989.729,5.159,5.159,0,0,0,2.322-.586ZM14.355,0V-1.143h-.029A2.454,2.454,0,0,1,12.041.183a2.188,2.188,0,0,1-1.663-.63,2.34,2.34,0,0,1-.6-1.685q0-2.212,2.717-2.563l1.86-.242a.709.709,0,0,0-.33-.6,1.5,1.5,0,0,0-.886-.234,5.837,5.837,0,0,0-2.659.718V-7.083A7.113,7.113,0,0,1,12-7.515a8.866,8.866,0,0,1,1.567-.168,3.935,3.935,0,0,1,2.772.817A3.64,3.64,0,0,1,17.2-4.138V0ZM12.51-2.549a.691.691,0,0,0,.194.505.74.74,0,0,0,.553.2.983.983,0,0,0,.795-.366,1.419,1.419,0,0,0,.3-.937v-.286L13.3-3.289Q12.51-3.157,12.51-2.549ZM27.07-3.977A5.488,5.488,0,0,1,26.664-1.8,3.313,3.313,0,0,1,25.51-.333a2.905,2.905,0,0,1-1.692.516,2.671,2.671,0,0,1-1.241-.267,2.236,2.236,0,0,1-.817-.692h-.029V0h-3.12V-11.1h3.12v4.622h.029a2.569,2.569,0,0,1,.992-.879,2.972,2.972,0,0,1,1.381-.322,2.631,2.631,0,0,1,2.179.945A4.333,4.333,0,0,1,27.07-3.977Zm-3.164.1a1.862,1.862,0,0,0-.289-1.135.981.981,0,0,0-.831-.381.978.978,0,0,0-.795.4,1.611,1.611,0,0,0-.319,1.036v.454a1.67,1.67,0,0,0,.286,1.025.912.912,0,0,0,.769.381.985.985,0,0,0,.872-.465A2.374,2.374,0,0,0,23.906-3.882ZM30.93-2.864a1.054,1.054,0,0,0,.557.758,2.51,2.51,0,0,0,1.26.275,5.188,5.188,0,0,0,2.065-.417V-.271a7.423,7.423,0,0,1-2.754.454A4.345,4.345,0,0,1,29-.82a3.565,3.565,0,0,1-1.091-2.761,4.556,4.556,0,0,1,.48-2.131,3.452,3.452,0,0,1,1.421-1.447,4.2,4.2,0,0,1,2.076-.524,4.085,4.085,0,0,1,1.992.454,3.025,3.025,0,0,1,1.256,1.274,4.089,4.089,0,0,1,.428,1.919v1.172ZM32.805-4.5q0-1.3-.93-1.3a.787.787,0,0,0-.652.355,1.773,1.773,0,0,0-.308.941Zm7.368,2.336h3.091V0H36.079V-1.443l3.369-3.9H36.394V-7.5h6.8v1.772ZM48.435,0V-1.143h-.029A2.454,2.454,0,0,1,46.121.183a2.188,2.188,0,0,1-1.663-.63,2.34,2.34,0,0,1-.6-1.685q0-2.212,2.717-2.563l1.86-.242a.709.709,0,0,0-.33-.6,1.5,1.5,0,0,0-.886-.234,5.837,5.837,0,0,0-2.659.718V-7.083a7.113,7.113,0,0,1,1.523-.432,8.866,8.866,0,0,1,1.567-.168,3.935,3.935,0,0,1,2.772.817,3.64,3.64,0,0,1,.861,2.728V0ZM46.589-2.549a.691.691,0,0,0,.194.505.74.74,0,0,0,.553.2.983.983,0,0,0,.795-.366,1.419,1.419,0,0,0,.3-.937v-.286l-1.055.146Q46.589-3.157,46.589-2.549Z" transform="translate(-11288.762 -7611.309)" fill="#12263f"/>
    <path id="Trazado_774858" data-name="Trazado 774858" d="M6.343-8.027V0H3.164V-8.027H.227V-10.5H9.316v2.476Zm9.587,3.2a2.425,2.425,0,0,0-.476-.146,2.409,2.409,0,0,0-.5-.066q-1.545,0-1.545,1.787V0h-3.12V-7.5h3.12v1.318h.029a2.342,2.342,0,0,1,.813-1.08,2.088,2.088,0,0,1,1.23-.37,1.057,1.057,0,0,1,.447.088Zm9.243.945A3.906,3.906,0,0,1,24.027-.9a4.479,4.479,0,0,1-3.2,1.084A4.5,4.5,0,0,1,17.64-.875,3.788,3.788,0,0,1,16.5-3.794a3.91,3.91,0,0,1,.535-2.073A3.477,3.477,0,0,1,18.56-7.214a5.259,5.259,0,0,1,2.278-.469,5.094,5.094,0,0,1,2.311.491,3.572,3.572,0,0,1,1.5,1.362A3.71,3.71,0,0,1,25.173-3.882Zm-3.164.015q0-1.531-1.172-1.531t-1.172,1.6q0,1.692,1.187,1.692Q22.009-2.1,22.009-3.867ZM31.2,0V-4.094a1.82,1.82,0,0,0-.209-1,.763.763,0,0,0-.677-.3.733.733,0,0,0-.63.315,1.344,1.344,0,0,0-.227.806V0h-3.12V-7.5h3.12v1.172h.029a2.648,2.648,0,0,1,1-1,2.741,2.741,0,0,1,1.37-.355q2.461,0,2.461,3.105V0ZM41.909-.212a2.941,2.941,0,0,1-.945.286,8.932,8.932,0,0,1-1.487.11,4.573,4.573,0,0,1-2.12-.48,3.5,3.5,0,0,1-1.447-1.344A3.732,3.732,0,0,1,35.4-3.582a4.25,4.25,0,0,1,.546-2.208A3.557,3.557,0,0,1,37.5-7.2a5.339,5.339,0,0,1,2.344-.487,8.2,8.2,0,0,1,1.315.1,2.009,2.009,0,0,1,.751.22v2.432a2.167,2.167,0,0,0-.674-.322,2.707,2.707,0,0,0-.813-.139,1.98,1.98,0,0,0-1.388.436,1.586,1.586,0,0,0-.472,1.227,1.556,1.556,0,0,0,.465,1.2,1.814,1.814,0,0,0,1.278.428,3.183,3.183,0,0,0,1.6-.417ZM51.5-3.882A3.906,3.906,0,0,1,50.35-.9a4.479,4.479,0,0,1-3.2,1.084A4.5,4.5,0,0,1,43.964-.875a3.788,3.788,0,0,1-1.139-2.919,3.91,3.91,0,0,1,.535-2.073,3.477,3.477,0,0,1,1.523-1.348,5.259,5.259,0,0,1,2.278-.469,5.094,5.094,0,0,1,2.311.491,3.572,3.572,0,0,1,1.5,1.362A3.71,3.71,0,0,1,51.5-3.882Zm-3.164.015q0-1.531-1.172-1.531t-1.172,1.6q0,1.692,1.187,1.692Q48.333-2.1,48.333-3.867Z" transform="translate(-11288.762 -7485.569)" fill="#12263f"/>
    <path id="Trazado_774854" data-name="Trazado 774854" d="M10.649,0V-5.757q0-.813.051-1.787l.022-.483h-.088Q10.4-6.79,10.276-6.313L8.73,0H5.757L4.138-6.24q-.066-.234-.344-1.787H3.706q.1,2.461.1,3.076V0H1.033V-10.5H5.771L7.214-4.8a7.043,7.043,0,0,1,.135.714q.084.538.106.831H7.5q.081-.667.256-1.575L9.1-10.5H13.77V0Zm8.2-9.521a1.34,1.34,0,0,1-.48,1.069,1.877,1.877,0,0,1-1.263.41,1.831,1.831,0,0,1-1.249-.425,1.344,1.344,0,0,1-.487-1.055,1.3,1.3,0,0,1,.472-1.044,1.893,1.893,0,0,1,1.263-.4,1.911,1.911,0,0,1,1.263.4A1.293,1.293,0,0,1,18.853-9.521ZM15.549,0V-7.5h3.12V0Zm7.31-2.864a1.054,1.054,0,0,0,.557.758,2.51,2.51,0,0,0,1.26.275,5.188,5.188,0,0,0,2.065-.417V-.271a7.423,7.423,0,0,1-2.754.454,4.345,4.345,0,0,1-3.054-1,3.565,3.565,0,0,1-1.091-2.761,4.556,4.556,0,0,1,.48-2.131,3.452,3.452,0,0,1,1.421-1.447,4.2,4.2,0,0,1,2.076-.524,4.085,4.085,0,0,1,1.992.454,3.025,3.025,0,0,1,1.256,1.274A4.089,4.089,0,0,1,27.5-4.036v1.172ZM24.734-4.5q0-1.3-.93-1.3a.787.787,0,0,0-.652.355,1.773,1.773,0,0,0-.308.941ZM38.3,0V-4.321a1.378,1.378,0,0,0-.194-.809.73.73,0,0,0-.634-.267.791.791,0,0,0-.674.326,1.491,1.491,0,0,0-.242.9V0h-3.12V-4.248q0-1.15-.784-1.15a.83.83,0,0,0-.718.333,1.611,1.611,0,0,0-.242.956V0h-3.12V-7.5h3.12v1.187h.029a2.418,2.418,0,0,1,.56-.641,3.288,3.288,0,0,1,.868-.527,2.7,2.7,0,0,1,1.047-.2,2.651,2.651,0,0,1,1.344.315,2.442,2.442,0,0,1,.912,1,2.673,2.673,0,0,1,1.055-.97,3.143,3.143,0,0,1,1.465-.341,2.2,2.2,0,0,1,1.809.769,3.424,3.424,0,0,1,.63,2.219V0ZM51.284-3.977A5.488,5.488,0,0,1,50.878-1.8,3.313,3.313,0,0,1,49.724-.333a2.905,2.905,0,0,1-1.692.516,2.671,2.671,0,0,1-1.241-.267,2.236,2.236,0,0,1-.817-.692h-.029V0h-3.12V-11.1h3.12v4.622h.029a2.569,2.569,0,0,1,.992-.879,2.972,2.972,0,0,1,1.381-.322,2.631,2.631,0,0,1,2.179.945A4.333,4.333,0,0,1,51.284-3.977Zm-3.164.1a1.862,1.862,0,0,0-.289-1.135A.981.981,0,0,0,47-5.4.978.978,0,0,0,46.2-5a1.611,1.611,0,0,0-.319,1.036v.454a1.67,1.67,0,0,0,.286,1.025.912.912,0,0,0,.769.381.985.985,0,0,0,.872-.465A2.374,2.374,0,0,0,48.12-3.882ZM58.1-4.827a2.425,2.425,0,0,0-.476-.146,2.409,2.409,0,0,0-.5-.066q-1.545,0-1.545,1.787V0h-3.12V-7.5h3.12v1.318h.029a2.342,2.342,0,0,1,.813-1.08,2.088,2.088,0,0,1,1.23-.37,1.057,1.057,0,0,1,.447.088Zm9.243.945A3.906,3.906,0,0,1,66.193-.9a4.479,4.479,0,0,1-3.2,1.084A4.5,4.5,0,0,1,59.806-.875a3.788,3.788,0,0,1-1.139-2.919A3.91,3.91,0,0,1,59.2-5.867a3.477,3.477,0,0,1,1.523-1.348A5.259,5.259,0,0,1,63-7.683a5.094,5.094,0,0,1,2.311.491,3.572,3.572,0,0,1,1.5,1.362A3.71,3.71,0,0,1,67.339-3.882Zm-3.164.015Q64.175-5.4,63-5.4t-1.172,1.6q0,1.692,1.187,1.692Q64.175-2.1,64.175-3.867ZM74.6-2.49a2.291,2.291,0,0,1-.97,1.974,4.562,4.562,0,0,1-2.706.7,9.41,9.41,0,0,1-1.249-.1,7.714,7.714,0,0,1-1.212-.249v-2.19a5.969,5.969,0,0,0,2.314.615q.916,0,.916-.476a.376.376,0,0,0-.212-.326,7.508,7.508,0,0,0-1.113-.428,3.144,3.144,0,0,1-1.45-.835,1.985,1.985,0,0,1-.454-1.355,2.162,2.162,0,0,1,.927-1.842,4.347,4.347,0,0,1,2.6-.677,8.276,8.276,0,0,1,2.08.286v2.1a6.29,6.29,0,0,0-1.011-.33,4.082,4.082,0,0,0-.923-.132,1,1,0,0,0-.491.1.315.315,0,0,0-.183.286.4.4,0,0,0,.2.344,3.5,3.5,0,0,0,.791.315,3.67,3.67,0,0,1,1.648.864A1.894,1.894,0,0,1,74.6-2.49Zm11.411,0a2.291,2.291,0,0,1-.97,1.974,4.562,4.562,0,0,1-2.706.7,9.41,9.41,0,0,1-1.249-.1,7.714,7.714,0,0,1-1.212-.249v-2.19a5.969,5.969,0,0,0,2.314.615q.916,0,.916-.476a.376.376,0,0,0-.212-.326,7.508,7.508,0,0,0-1.113-.428,3.144,3.144,0,0,1-1.45-.835,1.985,1.985,0,0,1-.454-1.355A2.162,2.162,0,0,1,80.8-7.006a4.347,4.347,0,0,1,2.6-.677,8.276,8.276,0,0,1,2.08.286v2.1a6.29,6.29,0,0,0-1.011-.33,4.082,4.082,0,0,0-.923-.132,1,1,0,0,0-.491.1.315.315,0,0,0-.183.286.4.4,0,0,0,.2.344,3.5,3.5,0,0,0,.791.315,3.67,3.67,0,0,1,1.648.864A1.894,1.894,0,0,1,86.008-2.49ZM91.934,0V-1.157H91.9a4.1,4.1,0,0,1-.7.784,2.691,2.691,0,0,1-.7.4,2.486,2.486,0,0,1-.912.154,2.268,2.268,0,0,1-1.875-.8,3.691,3.691,0,0,1-.645-2.358V-7.5h3.12v4.292q0,1.106.828,1.106a.81.81,0,0,0,.685-.3,1.369,1.369,0,0,0,.231-.85V-7.5h3.12V0Zm13.074-3.977A5.336,5.336,0,0,1,104.59-1.8a3.372,3.372,0,0,1-1.179,1.465,2.97,2.97,0,0,1-1.714.52,2.3,2.3,0,0,1-2-.959h-.029V3.45h-3.12V-7.5h3.12v1.018H99.7a2.643,2.643,0,0,1,.967-.883,2.8,2.8,0,0,1,1.348-.319,2.679,2.679,0,0,1,2.223.967A4.29,4.29,0,0,1,105.007-3.977Zm-3.164.1A1.955,1.955,0,0,0,101.569-5a.953.953,0,0,0-.846-.4.951.951,0,0,0-.806.425,1.951,1.951,0,0,0-.308,1.165v.146a2.135,2.135,0,0,0,.264,1.135.87.87,0,0,0,.791.425.985.985,0,0,0,.872-.465A2.374,2.374,0,0,0,101.843-3.882Zm7.024,1.018a1.054,1.054,0,0,0,.557.758,2.51,2.51,0,0,0,1.26.275,5.188,5.188,0,0,0,2.065-.417V-.271A7.423,7.423,0,0,1,110,.183a4.345,4.345,0,0,1-3.054-1,3.565,3.565,0,0,1-1.091-2.761,4.556,4.556,0,0,1,.48-2.131,3.452,3.452,0,0,1,1.421-1.447,4.2,4.2,0,0,1,2.076-.524,4.085,4.085,0,0,1,1.992.454,3.025,3.025,0,0,1,1.256,1.274,4.089,4.089,0,0,1,.428,1.919v1.172ZM110.742-4.5q0-1.3-.93-1.3a.787.787,0,0,0-.652.355,1.773,1.773,0,0,0-.308.941Zm9.478-.33a2.425,2.425,0,0,0-.476-.146,2.409,2.409,0,0,0-.5-.066q-1.545,0-1.545,1.787V0h-3.12V-7.5h3.12v1.318h.029a2.342,2.342,0,0,1,.813-1.08,2.088,2.088,0,0,1,1.23-.37,1.057,1.057,0,0,1,.447.088Zm4.2-4.695a1.34,1.34,0,0,1-.48,1.069,1.877,1.877,0,0,1-1.263.41,1.831,1.831,0,0,1-1.249-.425,1.344,1.344,0,0,1-.487-1.055,1.3,1.3,0,0,1,.472-1.044,1.893,1.893,0,0,1,1.263-.4,1.911,1.911,0,0,1,1.263.4A1.293,1.293,0,0,1,124.424-9.521ZM121.121,0V-7.5h3.12V0Zm12.964-3.882A3.906,3.906,0,0,1,132.938-.9a4.479,4.479,0,0,1-3.2,1.084,4.5,4.5,0,0,1-3.182-1.058,3.788,3.788,0,0,1-1.139-2.919,3.91,3.91,0,0,1,.535-2.073,3.477,3.477,0,0,1,1.523-1.348,5.259,5.259,0,0,1,2.278-.469,5.094,5.094,0,0,1,2.311.491,3.572,3.572,0,0,1,1.5,1.362A3.71,3.71,0,0,1,134.084-3.882Zm-3.164.015q0-1.531-1.172-1.531t-1.172,1.6q0,1.692,1.187,1.692Q130.92-2.1,130.92-3.867Zm9.968-.959a2.425,2.425,0,0,0-.476-.146,2.409,2.409,0,0,0-.5-.066q-1.545,0-1.545,1.787V0h-3.12V-7.5h3.12v1.318h.029a2.342,2.342,0,0,1,.813-1.08,2.088,2.088,0,0,1,1.23-.37,1.057,1.057,0,0,1,.447.088Zm3.589,1.963a1.054,1.054,0,0,0,.557.758,2.51,2.51,0,0,0,1.26.275,5.188,5.188,0,0,0,2.065-.417V-.271a7.423,7.423,0,0,1-2.754.454,4.345,4.345,0,0,1-3.054-1,3.565,3.565,0,0,1-1.091-2.761,4.556,4.556,0,0,1,.48-2.131,3.452,3.452,0,0,1,1.421-1.447,4.2,4.2,0,0,1,2.076-.524,4.085,4.085,0,0,1,1.992.454,3.025,3.025,0,0,1,1.256,1.274,4.089,4.089,0,0,1,.428,1.919v1.172ZM146.353-4.5q0-1.3-.93-1.3a.787.787,0,0,0-.652.355,1.773,1.773,0,0,0-.308.941Zm9.932,2.007a2.291,2.291,0,0,1-.97,1.974,4.562,4.562,0,0,1-2.706.7,9.41,9.41,0,0,1-1.249-.1,7.714,7.714,0,0,1-1.212-.249v-2.19a5.969,5.969,0,0,0,2.314.615q.916,0,.916-.476a.376.376,0,0,0-.212-.326,7.508,7.508,0,0,0-1.113-.428,3.144,3.144,0,0,1-1.45-.835,1.985,1.985,0,0,1-.454-1.355,2.162,2.162,0,0,1,.927-1.842,4.347,4.347,0,0,1,2.6-.677,8.276,8.276,0,0,1,2.08.286v2.1a6.29,6.29,0,0,0-1.011-.33,4.082,4.082,0,0,0-.923-.132,1,1,0,0,0-.491.1.315.315,0,0,0-.183.286.4.4,0,0,0,.2.344,3.5,3.5,0,0,0,.791.315,3.67,3.67,0,0,1,1.648.864A1.894,1.894,0,0,1,156.284-2.49Z" transform="translate(-11346.184 -7412.354)" fill="#12263f"/>
    <path id="Trazado_774855" data-name="Trazado 774855" d="M1.033,0V-10.5H7.573v2.476H4.2V-6.5H7.368v2.476H4.2v1.545H7.815V0ZM15.19-3.992,17.607,0H14.019l-.806-1.707A7.77,7.77,0,0,1,12.9-2.49h-.029q-.154.5-.2.612T11.814,0H8.247l2.49-3.779L8.394-7.5H12L12.8-5.757a4.779,4.779,0,0,1,.322.82h.029q.212-.637.3-.835L14.216-7.5h3.406ZM23.621-.1a3.04,3.04,0,0,1-.7.194A6.361,6.361,0,0,1,21.76.183a2.8,2.8,0,0,1-2.04-.718,2.724,2.724,0,0,1-.736-2.043V-5.339H17.805V-7.5h1.179V-8.972l3.076-.85V-7.5h1.56v2.161h-1.56v2.249q0,.989.784.989a2.126,2.126,0,0,0,.776-.161Zm6.614-4.724a2.425,2.425,0,0,0-.476-.146,2.409,2.409,0,0,0-.5-.066q-1.545,0-1.545,1.787V0h-3.12V-7.5h3.12v1.318h.029a2.342,2.342,0,0,1,.813-1.08,2.088,2.088,0,0,1,1.23-.37,1.057,1.057,0,0,1,.447.088Zm3.589,1.963a1.054,1.054,0,0,0,.557.758,2.51,2.51,0,0,0,1.26.275,5.188,5.188,0,0,0,2.065-.417V-.271a7.423,7.423,0,0,1-2.754.454,4.345,4.345,0,0,1-3.054-1,3.565,3.565,0,0,1-1.091-2.761,4.556,4.556,0,0,1,.48-2.131,3.452,3.452,0,0,1,1.421-1.447,4.2,4.2,0,0,1,2.076-.524,4.085,4.085,0,0,1,1.992.454,3.025,3.025,0,0,1,1.256,1.274,4.089,4.089,0,0,1,.428,1.919v1.172ZM35.7-4.5q0-1.3-.93-1.3a.787.787,0,0,0-.652.355,1.773,1.773,0,0,0-.308.941ZM49.263,0V-4.321a1.378,1.378,0,0,0-.194-.809.73.73,0,0,0-.634-.267.791.791,0,0,0-.674.326,1.491,1.491,0,0,0-.242.9V0H44.4V-4.248q0-1.15-.784-1.15a.83.83,0,0,0-.718.333,1.611,1.611,0,0,0-.242.956V0h-3.12V-7.5h3.12v1.187h.029a2.418,2.418,0,0,1,.56-.641,3.288,3.288,0,0,1,.868-.527,2.7,2.7,0,0,1,1.047-.2,2.651,2.651,0,0,1,1.344.315,2.442,2.442,0,0,1,.912,1,2.673,2.673,0,0,1,1.055-.97,3.143,3.143,0,0,1,1.465-.341,2.2,2.2,0,0,1,1.809.769,3.424,3.424,0,0,1,.63,2.219V0Zm7.83-9.521a1.34,1.34,0,0,1-.48,1.069,1.877,1.877,0,0,1-1.263.41A1.831,1.831,0,0,1,54.1-8.467a1.344,1.344,0,0,1-.487-1.055,1.3,1.3,0,0,1,.472-1.044,1.893,1.893,0,0,1,1.263-.4,1.911,1.911,0,0,1,1.263.4A1.293,1.293,0,0,1,57.092-9.521ZM53.789,0V-7.5h3.12V0ZM63.42,0V-.872h-.029a2.575,2.575,0,0,1-.974.773A2.776,2.776,0,0,1,61.23.183a3.052,3.052,0,0,1-1.692-.472,2.869,2.869,0,0,1-1.095-1.322,5.088,5.088,0,0,1-.363-2.007,4.938,4.938,0,0,1,.432-2.117A3.383,3.383,0,0,1,59.729-7.17a3.141,3.141,0,0,1,1.758-.513,2.661,2.661,0,0,1,.853.132,2.308,2.308,0,0,1,.681.355,1.06,1.06,0,0,1,.37.443h.029V-11.1h3.12V0Zm.066-3.977a1.645,1.645,0,0,0-.3-1.047.97.97,0,0,0-.8-.374.962.962,0,0,0-.824.465,2.161,2.161,0,0,0-.319,1.241q0,1.589,1.1,1.589a.977.977,0,0,0,.831-.428,2.109,2.109,0,0,0,.311-1.249ZM72.2,0V-1.143h-.029A2.454,2.454,0,0,1,69.888.183a2.188,2.188,0,0,1-1.663-.63,2.34,2.34,0,0,1-.6-1.685q0-2.212,2.717-2.563l1.86-.242a.709.709,0,0,0-.33-.6,1.5,1.5,0,0,0-.886-.234,5.837,5.837,0,0,0-2.659.718V-7.083a7.113,7.113,0,0,1,1.523-.432,8.866,8.866,0,0,1,1.567-.168,3.935,3.935,0,0,1,2.772.817,3.64,3.64,0,0,1,.861,2.728V0ZM70.356-2.549a.691.691,0,0,0,.194.505.74.74,0,0,0,.553.2.983.983,0,0,0,.795-.366,1.419,1.419,0,0,0,.3-.937v-.286l-1.055.146Q70.356-3.157,70.356-2.549ZM81.467,0V-.872h-.029a2.575,2.575,0,0,1-.974.773,2.776,2.776,0,0,1-1.187.282,3.052,3.052,0,0,1-1.692-.472A2.869,2.869,0,0,1,76.49-1.611a5.088,5.088,0,0,1-.363-2.007,4.938,4.938,0,0,1,.432-2.117A3.383,3.383,0,0,1,77.776-7.17a3.141,3.141,0,0,1,1.758-.513,2.661,2.661,0,0,1,.853.132,2.308,2.308,0,0,1,.681.355,1.06,1.06,0,0,1,.37.443h.029V-11.1h3.12V0Zm.066-3.977a1.645,1.645,0,0,0-.3-1.047.97.97,0,0,0-.8-.374.962.962,0,0,0-.824.465,2.161,2.161,0,0,0-.319,1.241q0,1.589,1.1,1.589a.977.977,0,0,0,.831-.428,2.109,2.109,0,0,0,.311-1.249Zm7.244,1.113a1.054,1.054,0,0,0,.557.758,2.51,2.51,0,0,0,1.26.275,5.188,5.188,0,0,0,2.065-.417V-.271A7.423,7.423,0,0,1,89.9.183a4.345,4.345,0,0,1-3.054-1,3.565,3.565,0,0,1-1.091-2.761,4.556,4.556,0,0,1,.48-2.131A3.452,3.452,0,0,1,87.66-7.159a4.2,4.2,0,0,1,2.076-.524,4.085,4.085,0,0,1,1.992.454,3.025,3.025,0,0,1,1.256,1.274,4.089,4.089,0,0,1,.428,1.919v1.172ZM90.652-4.5q0-1.3-.93-1.3a.787.787,0,0,0-.652.355,1.773,1.773,0,0,0-.308.941Zm9.932,2.007a2.291,2.291,0,0,1-.97,1.974,4.562,4.562,0,0,1-2.706.7,9.41,9.41,0,0,1-1.249-.1,7.714,7.714,0,0,1-1.212-.249v-2.19a5.969,5.969,0,0,0,2.314.615q.916,0,.916-.476a.376.376,0,0,0-.212-.326,7.508,7.508,0,0,0-1.113-.428,3.144,3.144,0,0,1-1.45-.835,1.985,1.985,0,0,1-.454-1.355,2.162,2.162,0,0,1,.927-1.842,4.347,4.347,0,0,1,2.6-.677,8.276,8.276,0,0,1,2.08.286v2.1a6.29,6.29,0,0,0-1.011-.33,4.082,4.082,0,0,0-.923-.132,1,1,0,0,0-.491.1.315.315,0,0,0-.183.286.4.4,0,0,0,.2.344,3.5,3.5,0,0,0,.791.315,3.67,3.67,0,0,1,1.648.864A1.894,1.894,0,0,1,100.583-2.49Z" transform="translate(-11313.024 -7346.037)" fill="#12263f"/>
    <path id="Trazado_774856" data-name="Trazado 774856" d="M10.649,0V-5.757q0-.813.051-1.787l.022-.483h-.088Q10.4-6.79,10.276-6.313L8.73,0H5.757L4.138-6.24q-.066-.234-.344-1.787H3.706q.1,2.461.1,3.076V0H1.033V-10.5H5.771L7.214-4.8a7.043,7.043,0,0,1,.135.714q.084.538.106.831H7.5q.081-.667.256-1.575L9.1-10.5H13.77V0Zm8.2-9.521a1.34,1.34,0,0,1-.48,1.069,1.877,1.877,0,0,1-1.263.41,1.831,1.831,0,0,1-1.249-.425,1.344,1.344,0,0,1-.487-1.055,1.3,1.3,0,0,1,.472-1.044,1.893,1.893,0,0,1,1.263-.4,1.911,1.911,0,0,1,1.263.4A1.293,1.293,0,0,1,18.853-9.521ZM15.549,0V-7.5h3.12V0Zm7.31-2.864a1.054,1.054,0,0,0,.557.758,2.51,2.51,0,0,0,1.26.275,5.188,5.188,0,0,0,2.065-.417V-.271a7.423,7.423,0,0,1-2.754.454,4.345,4.345,0,0,1-3.054-1,3.565,3.565,0,0,1-1.091-2.761,4.556,4.556,0,0,1,.48-2.131,3.452,3.452,0,0,1,1.421-1.447,4.2,4.2,0,0,1,2.076-.524,4.085,4.085,0,0,1,1.992.454,3.025,3.025,0,0,1,1.256,1.274A4.089,4.089,0,0,1,27.5-4.036v1.172ZM24.734-4.5q0-1.3-.93-1.3a.787.787,0,0,0-.652.355,1.773,1.773,0,0,0-.308.941ZM38.3,0V-4.321a1.378,1.378,0,0,0-.194-.809.73.73,0,0,0-.634-.267.791.791,0,0,0-.674.326,1.491,1.491,0,0,0-.242.9V0h-3.12V-4.248q0-1.15-.784-1.15a.83.83,0,0,0-.718.333,1.611,1.611,0,0,0-.242.956V0h-3.12V-7.5h3.12v1.187h.029a2.418,2.418,0,0,1,.56-.641,3.288,3.288,0,0,1,.868-.527,2.7,2.7,0,0,1,1.047-.2,2.651,2.651,0,0,1,1.344.315,2.442,2.442,0,0,1,.912,1,2.673,2.673,0,0,1,1.055-.97,3.143,3.143,0,0,1,1.465-.341,2.2,2.2,0,0,1,1.809.769,3.424,3.424,0,0,1,.63,2.219V0ZM51.284-3.977A5.488,5.488,0,0,1,50.878-1.8,3.313,3.313,0,0,1,49.724-.333a2.905,2.905,0,0,1-1.692.516,2.671,2.671,0,0,1-1.241-.267,2.236,2.236,0,0,1-.817-.692h-.029V0h-3.12V-11.1h3.12v4.622h.029a2.569,2.569,0,0,1,.992-.879,2.972,2.972,0,0,1,1.381-.322,2.631,2.631,0,0,1,2.179.945A4.333,4.333,0,0,1,51.284-3.977Zm-3.164.1a1.862,1.862,0,0,0-.289-1.135A.981.981,0,0,0,47-5.4.978.978,0,0,0,46.2-5a1.611,1.611,0,0,0-.319,1.036v.454a1.67,1.67,0,0,0,.286,1.025.912.912,0,0,0,.769.381.985.985,0,0,0,.872-.465A2.374,2.374,0,0,0,48.12-3.882ZM58.1-4.827a2.425,2.425,0,0,0-.476-.146,2.409,2.409,0,0,0-.5-.066q-1.545,0-1.545,1.787V0h-3.12V-7.5h3.12v1.318h.029a2.342,2.342,0,0,1,.813-1.08,2.088,2.088,0,0,1,1.23-.37,1.057,1.057,0,0,1,.447.088Zm9.243.945A3.906,3.906,0,0,1,66.193-.9a4.479,4.479,0,0,1-3.2,1.084A4.5,4.5,0,0,1,59.806-.875a3.788,3.788,0,0,1-1.139-2.919A3.91,3.91,0,0,1,59.2-5.867a3.477,3.477,0,0,1,1.523-1.348A5.259,5.259,0,0,1,63-7.683a5.094,5.094,0,0,1,2.311.491,3.572,3.572,0,0,1,1.5,1.362A3.71,3.71,0,0,1,67.339-3.882Zm-3.164.015Q64.175-5.4,63-5.4t-1.172,1.6q0,1.692,1.187,1.692Q64.175-2.1,64.175-3.867ZM74.6-2.49a2.291,2.291,0,0,1-.97,1.974,4.562,4.562,0,0,1-2.706.7,9.41,9.41,0,0,1-1.249-.1,7.714,7.714,0,0,1-1.212-.249v-2.19a5.969,5.969,0,0,0,2.314.615q.916,0,.916-.476a.376.376,0,0,0-.212-.326,7.508,7.508,0,0,0-1.113-.428,3.144,3.144,0,0,1-1.45-.835,1.985,1.985,0,0,1-.454-1.355,2.162,2.162,0,0,1,.927-1.842,4.347,4.347,0,0,1,2.6-.677,8.276,8.276,0,0,1,2.08.286v2.1a6.29,6.29,0,0,0-1.011-.33,4.082,4.082,0,0,0-.923-.132,1,1,0,0,0-.491.1.315.315,0,0,0-.183.286.4.4,0,0,0,.2.344,3.5,3.5,0,0,0,.791.315,3.67,3.67,0,0,1,1.648.864A1.894,1.894,0,0,1,74.6-2.49Zm8.621-7.031a1.34,1.34,0,0,1-.48,1.069,1.877,1.877,0,0,1-1.263.41,1.831,1.831,0,0,1-1.249-.425,1.344,1.344,0,0,1-.487-1.055,1.3,1.3,0,0,1,.472-1.044,1.893,1.893,0,0,1,1.263-.4,1.911,1.911,0,0,1,1.263.4A1.293,1.293,0,0,1,83.218-9.521ZM79.915,0V-7.5h3.12V0ZM89.4,0V-4.094a1.82,1.82,0,0,0-.209-1,.763.763,0,0,0-.677-.3.733.733,0,0,0-.63.315,1.344,1.344,0,0,0-.227.806V0h-3.12V-7.5h3.12v1.172h.029a2.648,2.648,0,0,1,1-1,2.741,2.741,0,0,1,1.37-.355q2.461,0,2.461,3.105V0ZM99.7-8.833A2.748,2.748,0,0,0,98.8-9a1,1,0,0,0-.769.267,1.016,1.016,0,0,0-.249.721V-7.5h1.736v2.161H97.786V0h-3.12V-5.339h-1.26V-7.5h1.26v-.688A3.049,3.049,0,0,1,95.09-9.8a2.833,2.833,0,0,1,1.234-1.088,4.519,4.519,0,0,1,1.967-.388,5.338,5.338,0,0,1,1.414.161Zm3.376,5.969a1.054,1.054,0,0,0,.557.758,2.51,2.51,0,0,0,1.26.275,5.188,5.188,0,0,0,2.065-.417V-.271a7.423,7.423,0,0,1-2.754.454,4.345,4.345,0,0,1-3.054-1,3.565,3.565,0,0,1-1.091-2.761,4.556,4.556,0,0,1,.48-2.131,3.452,3.452,0,0,1,1.421-1.447,4.2,4.2,0,0,1,2.076-.524,4.085,4.085,0,0,1,1.992.454,3.025,3.025,0,0,1,1.256,1.274,4.089,4.089,0,0,1,.428,1.919v1.172ZM104.956-4.5q0-1.3-.93-1.3a.787.787,0,0,0-.652.355,1.773,1.773,0,0,0-.308.941Zm9.478-.33a2.425,2.425,0,0,0-.476-.146,2.409,2.409,0,0,0-.5-.066q-1.545,0-1.545,1.787V0h-3.12V-7.5h3.12v1.318h.029a2.342,2.342,0,0,1,.813-1.08,2.088,2.088,0,0,1,1.23-.37,1.057,1.057,0,0,1,.447.088Zm4.2-4.695a1.34,1.34,0,0,1-.48,1.069,1.877,1.877,0,0,1-1.263.41,1.831,1.831,0,0,1-1.249-.425,1.344,1.344,0,0,1-.487-1.055,1.3,1.3,0,0,1,.472-1.044,1.893,1.893,0,0,1,1.263-.4,1.911,1.911,0,0,1,1.263.4A1.293,1.293,0,0,1,118.638-9.521ZM115.334,0V-7.5h3.12V0ZM128.3-3.882A3.906,3.906,0,0,1,127.152-.9a4.479,4.479,0,0,1-3.2,1.084,4.5,4.5,0,0,1-3.182-1.058,3.788,3.788,0,0,1-1.139-2.919,3.91,3.91,0,0,1,.535-2.073,3.477,3.477,0,0,1,1.523-1.348,5.259,5.259,0,0,1,2.278-.469,5.094,5.094,0,0,1,2.311.491,3.572,3.572,0,0,1,1.5,1.362A3.71,3.71,0,0,1,128.3-3.882Zm-3.164.015q0-1.531-1.172-1.531t-1.172,1.6q0,1.692,1.187,1.692Q125.134-2.1,125.134-3.867Zm9.968-.959a2.425,2.425,0,0,0-.476-.146,2.409,2.409,0,0,0-.5-.066q-1.545,0-1.545,1.787V0h-3.12V-7.5h3.12v1.318h.029a2.342,2.342,0,0,1,.813-1.08,2.088,2.088,0,0,1,1.23-.37,1.057,1.057,0,0,1,.447.088Zm3.589,1.963a1.054,1.054,0,0,0,.557.758,2.51,2.51,0,0,0,1.26.275,5.188,5.188,0,0,0,2.065-.417V-.271a7.423,7.423,0,0,1-2.754.454,4.345,4.345,0,0,1-3.054-1,3.565,3.565,0,0,1-1.091-2.761,4.556,4.556,0,0,1,.48-2.131,3.452,3.452,0,0,1,1.421-1.447,4.2,4.2,0,0,1,2.076-.524,4.085,4.085,0,0,1,1.992.454A3.025,3.025,0,0,1,142.9-5.955a4.089,4.089,0,0,1,.428,1.919v1.172ZM140.566-4.5q0-1.3-.93-1.3a.787.787,0,0,0-.652.355,1.773,1.773,0,0,0-.308.941ZM150.5-2.49a2.291,2.291,0,0,1-.97,1.974,4.562,4.562,0,0,1-2.706.7,9.41,9.41,0,0,1-1.249-.1,7.714,7.714,0,0,1-1.212-.249v-2.19a5.969,5.969,0,0,0,2.314.615q.916,0,.916-.476a.376.376,0,0,0-.212-.326,7.508,7.508,0,0,0-1.113-.428,3.144,3.144,0,0,1-1.45-.835,1.985,1.985,0,0,1-.454-1.355,2.162,2.162,0,0,1,.927-1.842,4.347,4.347,0,0,1,2.6-.677,8.276,8.276,0,0,1,2.08.286v2.1a6.29,6.29,0,0,0-1.011-.33,4.082,4.082,0,0,0-.923-.132,1,1,0,0,0-.491.1.315.315,0,0,0-.183.286.4.4,0,0,0,.2.344,3.5,3.5,0,0,0,.791.315A3.67,3.67,0,0,1,150-3.845,1.894,1.894,0,0,1,150.5-2.49Z" transform="translate(-11346.184 -7229.575)" fill="#12263f"/>
    <path id="Trazado_774859" data-name="Trazado 774859" d="M-17.175-8.042a2.147,2.147,0,0,1-.7,1.641,3.757,3.757,0,0,1-1.923.879v.029a2.45,2.45,0,0,1,1.545.721,2.14,2.14,0,0,1,.557,1.52,2.784,2.784,0,0,1-.549,1.725A3.488,3.488,0,0,1-19.86-.4a7.433,7.433,0,0,1-2.6.4h-4.915l2.219-10.5h4.321a5.031,5.031,0,0,1,2.754.6A2.079,2.079,0,0,1-17.175-8.042Zm-3.354.615a.859.859,0,0,0-.3-.743,1.816,1.816,0,0,0-1.029-.216h-.579L-22.859-6.4h.989a1.5,1.5,0,0,0,.963-.3A.9.9,0,0,0-20.53-7.427Zm-.527,4.109a.914.914,0,0,0-.278-.7,1.073,1.073,0,0,0-.769-.264h-1.187l-.483,2.146h1.113a1.928,1.928,0,0,0,1.179-.319A1.027,1.027,0,0,0-21.057-3.318ZM-8.372-4.38a4.951,4.951,0,0,1-.59,2.4A3.815,3.815,0,0,1-10.605-.355a5.378,5.378,0,0,1-2.476.538,3.824,3.824,0,0,1-2.684-.872,3.156,3.156,0,0,1-.948-2.446,5.052,5.052,0,0,1,.337-1.809,4.2,4.2,0,0,1,.938-1.49,3.991,3.991,0,0,1,1.476-.927,5.776,5.776,0,0,1,2-.322,3.779,3.779,0,0,1,2.651.861A3.149,3.149,0,0,1-8.372-4.38Zm-3.105,0a1.174,1.174,0,0,0-.212-.758.7.7,0,0,0-.571-.26.947.947,0,0,0-.7.311,2.141,2.141,0,0,0-.472.857,3.715,3.715,0,0,0-.172,1.124,1.129,1.129,0,0,0,.216.751.727.727,0,0,0,.582.253,1.092,1.092,0,0,0,.967-.645A3.274,3.274,0,0,0-11.477-4.38Zm9.595-.959H-3.567L-4-3.3a3.8,3.8,0,0,0-.1.754q0,.447.52.447a2.983,2.983,0,0,0,1-.205L-3.025-.146A5.04,5.04,0,0,1-4,.084a7.459,7.459,0,0,1-1.139.1Q-7.3.183-7.3-1.86a4.6,4.6,0,0,1,.1-.784q.1-.52.56-2.7H-7.778l.52-2.161h1.069l.359-1.729,3.252-.747L-3.1-7.5h1.736Zm6.167,0H2.6L2.168-3.3a3.8,3.8,0,0,0-.1.754q0,.447.52.447a2.983,2.983,0,0,0,1-.205L3.142-.146a5.04,5.04,0,0,1-.978.231,7.459,7.459,0,0,1-1.139.1q-2.161,0-2.161-2.043a4.6,4.6,0,0,1,.1-.784q.1-.52.56-2.7H-1.611l.52-2.161H-.022L.337-9.229l3.252-.747L3.069-7.5H4.8Zm8.738.959a4.951,4.951,0,0,1-.59,2.4A3.815,3.815,0,0,1,10.789-.355,5.378,5.378,0,0,1,8.313.183,3.824,3.824,0,0,1,5.629-.688,3.156,3.156,0,0,1,4.68-3.135a5.052,5.052,0,0,1,.337-1.809,4.2,4.2,0,0,1,.938-1.49A3.991,3.991,0,0,1,7.43-7.361a5.776,5.776,0,0,1,2-.322,3.779,3.779,0,0,1,2.651.861A3.149,3.149,0,0,1,13.022-4.38Zm-3.105,0A1.174,1.174,0,0,0,9.7-5.138a.7.7,0,0,0-.571-.26.947.947,0,0,0-.7.311,2.141,2.141,0,0,0-.472.857,3.715,3.715,0,0,0-.172,1.124A1.129,1.129,0,0,0,8-2.355a.727.727,0,0,0,.582.253,1.092,1.092,0,0,0,.967-.645A3.274,3.274,0,0,0,9.917-4.38ZM27.231-5.837a5.97,5.97,0,0,1-.161,1.274L26.111,0h-3.12l.886-4.153a3.278,3.278,0,0,0,.117-.754.437.437,0,0,0-.5-.491.972.972,0,0,0-.56.245,2.311,2.311,0,0,0-.56.645,2.611,2.611,0,0,0-.33.817L21.292,0H18.157l.886-4.153a3.412,3.412,0,0,0,.125-.754.437.437,0,0,0-.5-.491,1.244,1.244,0,0,0-.857.524,2.567,2.567,0,0,0-.6,1.183L16.436,0H13.3l1.062-4.98Q14.619-6.2,14.8-7.5h3.069a8.451,8.451,0,0,1-.146,1.289h.029a4.608,4.608,0,0,1,1.381-1.077,3.262,3.262,0,0,1,1.469-.4A1.586,1.586,0,0,1,22.39-6.028a4.349,4.349,0,0,1,1.4-1.2,3.415,3.415,0,0,1,1.652-.45A1.609,1.609,0,0,1,27.231-5.837Z" transform="translate(-11382 -7135)" fill="#12263f"/>
    <path id="Trazado_774860" data-name="Trazado 774860" d="M9.617-7.039a3.416,3.416,0,0,1-.546,1.912A3.556,3.556,0,0,1,7.515-3.834a5.65,5.65,0,0,1-2.351.458H4.2V0H1.033V-10.5H5.339a5.1,5.1,0,0,1,3.248.842A3.192,3.192,0,0,1,9.617-7.039Zm-3.347.11A1.231,1.231,0,0,0,5.9-7.9a1.614,1.614,0,0,0-1.1-.33H4.2V-5.64h.71Q6.27-5.64,6.27-6.929Zm9.954,2.1a2.425,2.425,0,0,0-.476-.146,2.409,2.409,0,0,0-.5-.066q-1.545,0-1.545,1.787V0h-3.12V-7.5H13.7v1.318h.029a2.342,2.342,0,0,1,.813-1.08,2.088,2.088,0,0,1,1.23-.37,1.057,1.057,0,0,1,.447.088Zm3.589,1.963a1.054,1.054,0,0,0,.557.758,2.51,2.51,0,0,0,1.26.275,5.188,5.188,0,0,0,2.065-.417V-.271A7.423,7.423,0,0,1,20.94.183a4.345,4.345,0,0,1-3.054-1,3.565,3.565,0,0,1-1.091-2.761,4.556,4.556,0,0,1,.48-2.131A3.452,3.452,0,0,1,18.7-7.159a4.2,4.2,0,0,1,2.076-.524,4.085,4.085,0,0,1,1.992.454A3.025,3.025,0,0,1,24.02-5.955a4.089,4.089,0,0,1,.428,1.919v1.172ZM21.687-4.5q0-1.3-.93-1.3a.787.787,0,0,0-.652.355A1.773,1.773,0,0,0,19.8-4.5Zm8.7,4.5V-4.094a1.82,1.82,0,0,0-.209-1,.763.763,0,0,0-.677-.3.733.733,0,0,0-.63.315,1.344,1.344,0,0,0-.227.806V0h-3.12V-7.5h3.12v1.172h.029a2.648,2.648,0,0,1,1-1,2.741,2.741,0,0,1,1.37-.355q2.461,0,2.461,3.105V0Zm9.536,0V-.872H39.9a2.575,2.575,0,0,1-.974.773,2.776,2.776,0,0,1-1.187.282,3.052,3.052,0,0,1-1.692-.472,2.869,2.869,0,0,1-1.095-1.322,5.088,5.088,0,0,1-.363-2.007,4.938,4.938,0,0,1,.432-2.117A3.383,3.383,0,0,1,36.233-7.17a3.141,3.141,0,0,1,1.758-.513,2.661,2.661,0,0,1,.853.132,2.308,2.308,0,0,1,.681.355,1.06,1.06,0,0,1,.37.443h.029V-11.1h3.12V0Zm.066-3.977a1.645,1.645,0,0,0-.3-1.047.97.97,0,0,0-.8-.374.962.962,0,0,0-.824.465,2.161,2.161,0,0,0-.319,1.241q0,1.589,1.1,1.589a.977.977,0,0,0,.831-.428,2.109,2.109,0,0,0,.311-1.249ZM48.706,0V-1.143h-.029A2.454,2.454,0,0,1,46.392.183a2.188,2.188,0,0,1-1.663-.63,2.34,2.34,0,0,1-.6-1.685q0-2.212,2.717-2.563l1.86-.242a.709.709,0,0,0-.33-.6,1.5,1.5,0,0,0-.886-.234,5.837,5.837,0,0,0-2.659.718V-7.083a7.113,7.113,0,0,1,1.523-.432,8.866,8.866,0,0,1,1.567-.168,3.935,3.935,0,0,1,2.772.817,3.64,3.64,0,0,1,.861,2.728V0ZM46.86-2.549a.691.691,0,0,0,.194.505.74.74,0,0,0,.553.2.983.983,0,0,0,.795-.366,1.419,1.419,0,0,0,.3-.937v-.286l-1.055.146Q46.86-3.157,46.86-2.549Zm12.195.059a2.291,2.291,0,0,1-.97,1.974,4.562,4.562,0,0,1-2.706.7,9.41,9.41,0,0,1-1.249-.1,7.714,7.714,0,0,1-1.212-.249v-2.19a5.969,5.969,0,0,0,2.314.615q.916,0,.916-.476a.376.376,0,0,0-.212-.326,7.508,7.508,0,0,0-1.113-.428,3.144,3.144,0,0,1-1.45-.835,1.985,1.985,0,0,1-.454-1.355,2.162,2.162,0,0,1,.927-1.842,4.347,4.347,0,0,1,2.6-.677,8.276,8.276,0,0,1,2.08.286v2.1a6.29,6.29,0,0,0-1.011-.33,4.082,4.082,0,0,0-.923-.132,1,1,0,0,0-.491.1.315.315,0,0,0-.183.286.4.4,0,0,0,.2.344,3.5,3.5,0,0,0,.791.315,3.67,3.67,0,0,1,1.648.864A1.894,1.894,0,0,1,59.055-2.49Zm8.621-7.031a1.34,1.34,0,0,1-.48,1.069,1.877,1.877,0,0,1-1.263.41,1.831,1.831,0,0,1-1.249-.425A1.344,1.344,0,0,1,64.2-9.521a1.3,1.3,0,0,1,.472-1.044,1.893,1.893,0,0,1,1.263-.4,1.911,1.911,0,0,1,1.263.4A1.293,1.293,0,0,1,67.676-9.521ZM64.373,0V-7.5h3.12V0Zm9.485,0V-4.094a1.82,1.82,0,0,0-.209-1,.763.763,0,0,0-.677-.3.733.733,0,0,0-.63.315,1.344,1.344,0,0,0-.227.806V0h-3.12V-7.5h3.12v1.172h.029a2.648,2.648,0,0,1,1-1,2.741,2.741,0,0,1,1.37-.355q2.461,0,2.461,3.105V0ZM84.163-8.833a2.748,2.748,0,0,0-.9-.168,1,1,0,0,0-.769.267,1.016,1.016,0,0,0-.249.721V-7.5h1.736v2.161H82.244V0h-3.12V-5.339h-1.26V-7.5h1.26v-.688A3.049,3.049,0,0,1,79.548-9.8a2.833,2.833,0,0,1,1.234-1.088,4.519,4.519,0,0,1,1.967-.388,5.338,5.338,0,0,1,1.414.161Zm3.376,5.969a1.054,1.054,0,0,0,.557.758,2.51,2.51,0,0,0,1.26.275,5.188,5.188,0,0,0,2.065-.417V-.271a7.423,7.423,0,0,1-2.754.454,4.345,4.345,0,0,1-3.054-1,3.565,3.565,0,0,1-1.091-2.761A4.556,4.556,0,0,1,85-5.713a3.452,3.452,0,0,1,1.421-1.447A4.2,4.2,0,0,1,88.5-7.683a4.085,4.085,0,0,1,1.992.454,3.025,3.025,0,0,1,1.256,1.274,4.089,4.089,0,0,1,.428,1.919v1.172ZM89.414-4.5q0-1.3-.93-1.3a.787.787,0,0,0-.652.355,1.773,1.773,0,0,0-.308.941Zm9.478-.33a2.425,2.425,0,0,0-.476-.146,2.409,2.409,0,0,0-.5-.066q-1.545,0-1.545,1.787V0h-3.12V-7.5h3.12v1.318H96.4a2.342,2.342,0,0,1,.813-1.08,2.088,2.088,0,0,1,1.23-.37,1.057,1.057,0,0,1,.447.088Zm4.2-4.695a1.34,1.34,0,0,1-.48,1.069,1.877,1.877,0,0,1-1.263.41,1.831,1.831,0,0,1-1.249-.425,1.344,1.344,0,0,1-.487-1.055,1.3,1.3,0,0,1,.472-1.044,1.893,1.893,0,0,1,1.263-.4,1.911,1.911,0,0,1,1.263.4A1.293,1.293,0,0,1,103.1-9.521ZM99.792,0V-7.5h3.12V0Zm12.964-3.882A3.906,3.906,0,0,1,111.61-.9a4.479,4.479,0,0,1-3.2,1.084,4.5,4.5,0,0,1-3.182-1.058,3.788,3.788,0,0,1-1.139-2.919,3.91,3.91,0,0,1,.535-2.073,3.477,3.477,0,0,1,1.523-1.348,5.259,5.259,0,0,1,2.278-.469,5.094,5.094,0,0,1,2.311.491,3.572,3.572,0,0,1,1.5,1.362A3.71,3.71,0,0,1,112.756-3.882Zm-3.164.015q0-1.531-1.172-1.531t-1.172,1.6q0,1.692,1.187,1.692Q109.592-2.1,109.592-3.867Zm9.968-.959a2.425,2.425,0,0,0-.476-.146,2.409,2.409,0,0,0-.5-.066q-1.545,0-1.545,1.787V0h-3.12V-7.5h3.12v1.318h.029a2.342,2.342,0,0,1,.813-1.08,2.088,2.088,0,0,1,1.23-.37,1.057,1.057,0,0,1,.447.088Zm3.589,1.963a1.054,1.054,0,0,0,.557.758,2.51,2.51,0,0,0,1.26.275,5.188,5.188,0,0,0,2.065-.417V-.271a7.423,7.423,0,0,1-2.754.454,4.345,4.345,0,0,1-3.054-1,3.565,3.565,0,0,1-1.091-2.761,4.556,4.556,0,0,1,.48-2.131,3.452,3.452,0,0,1,1.421-1.447,4.2,4.2,0,0,1,2.076-.524,4.085,4.085,0,0,1,1.992.454,3.025,3.025,0,0,1,1.256,1.274,4.089,4.089,0,0,1,.428,1.919v1.172ZM125.024-4.5q0-1.3-.93-1.3a.787.787,0,0,0-.652.355,1.773,1.773,0,0,0-.308.941Zm9.932,2.007a2.291,2.291,0,0,1-.97,1.974,4.562,4.562,0,0,1-2.706.7,9.41,9.41,0,0,1-1.249-.1,7.714,7.714,0,0,1-1.212-.249v-2.19a5.969,5.969,0,0,0,2.314.615q.916,0,.916-.476a.376.376,0,0,0-.212-.326,7.508,7.508,0,0,0-1.113-.428,3.144,3.144,0,0,1-1.45-.835,1.985,1.985,0,0,1-.454-1.355,2.162,2.162,0,0,1,.927-1.842,4.347,4.347,0,0,1,2.6-.677,8.276,8.276,0,0,1,2.08.286v2.1a6.29,6.29,0,0,0-1.011-.33,4.082,4.082,0,0,0-.923-.132,1,1,0,0,0-.491.1.315.315,0,0,0-.183.286.4.4,0,0,0,.2.344,3.5,3.5,0,0,0,.791.315,3.67,3.67,0,0,1,1.648.864A1.894,1.894,0,0,1,134.956-2.49Z" transform="translate(-11224.569 -7133)" fill="#12263f"/>
  </g>
</svg>
