<svg xmlns="http://www.w3.org/2000/svg" width="450.925" height="591.36" viewBox="0 0 450.925 591.36">
  <g id="Grupo_1054611" data-name="Grupo 1054611" transform="translate(-81.771 -1484.171)">
    <g id="Grupo_55307" data-name="Grupo 55307" transform="translate(91.632 1561.411)">
      <path id="Trazado_104953" data-name="Trazado 104953" d="M323.064,1573.217l210.571,28.521-3.034,18.2-144.123-7.889-20.936,13.957H262.685l-23.06-13.35-141.7,8.8-4.855-20.632,214.818-27.611Z" transform="translate(-93.075 -1572.781)" fill="#fff"/>
      <path id="Trazado_104954" data-name="Trazado 104954" d="M361.247,1626.384h-6.979v-.872h6.979Zm-13.957,0h-6.979v-.872h6.979Zm-13.957,0h-6.979v-.872h6.979Zm-13.957,0H312.4v-.872h6.979Zm-13.957,0H298.44v-.872h6.979Zm-13.957,0h-6.979v-.872h6.979Zm-13.957,0h-6.979v-.872H277.5Zm-13.957,0h-.967l-5.406-3.129.438-.755,5.2,3.012h.732Zm104.473-1.554-.484-.726,5.807-3.871.483.726ZM97.6,1621.855l-1.23-5.225.848-.2,1.062,4.509,1.607-.1.055.871Zm9.307-.577-.055-.871,6.965-.434.054.872Zm13.93-.865-.055-.87,6.965-.433.054.87Zm403.437-.442-6.967-.382.047-.871,6.968.382Zm-273.141-.212-6.04-3.5.438-.755,6.039,3.5Zm-116.366-.211-.054-.871,6.965-.433.055.871Zm396.383-.242-.861-.143,1.147-6.884.86.143Zm-20.812-.1-6.968-.381.048-.87,6.968.381Zm-361.641-.524-.054-.871,6.965-.432.055.87Zm347.7-.238-6.968-.382.047-.87,6.969.382Zm-333.773-.627-.055-.87,6.965-.433.054.871Zm319.837-.135-6.968-.382.048-.87,6.968.381Zm-102.835-.595-.484-.726,5.806-3.87.484.726Zm-203.072-.135-.055-.871,6.965-.433.054.871Zm291.971-.033-6.969-.381.048-.871,6.968.381Zm-13.936-.763-6.968-.381.048-.871,6.968.381Zm-264.1-.069-.054-.87,6.965-.432.055.87Zm250.169-.693-6.969-.381.048-.871,6.968.381Zm-236.238-.171-.054-.871,6.965-.433.054.871Zm222.3-.592-6.968-.381.047-.871,6.969.381Zm-208.371-.273-.055-.871,6.965-.433.054.87Zm194.434-.489-6.968-.381.048-.871,6.968.381Zm-180.5-.376-.055-.87,6.965-.432.055.871Zm166.569-.387-6.968-.381.047-.871,6.968.382Zm-304.076-3.268-1.6-6.793.848-.2,1.6,6.792Zm438.672-4.3-.861-.143.557-3.347-2.662-.36.118-.865,3.553.482Zm-9.881-4.787-6.915-.936.118-.865,6.914.937Zm-425.721-.156-.111-.865,6.923-.89.111.865Zm411.891-1.717-6.916-.937.118-.864,6.916.937Zm-398.047-.063-.111-.865,6.922-.89.111.865Zm13.844-1.78-.111-.865,6.921-.89.111.866ZM495.9,1597l-6.916-.937.118-.865,6.915.937Zm-356.53-1.747-.111-.866,6.921-.89.111.866Zm342.7-.126-6.916-.937.118-.865,6.916.936Zm-328.854-1.654-.111-.865,6.921-.89.111.865Zm315.024-.22-6.916-.937.118-.864,6.915.937Zm-301.181-1.56-.111-.865,6.922-.89.111.865Zm287.35-.313-6.916-.937.118-.865,6.916.936ZM180.9,1589.917l-.111-.865,6.922-.89.111.865Zm259.677-.407-6.916-.937.118-.865,6.915.937Zm-245.833-1.371-.111-.865,6.922-.89.111.865Zm232-.5-6.916-.937.118-.864,6.916.937Zm-218.159-1.277-.111-.865,6.922-.89.111.865Zm204.328-.6-6.916-.937.118-.865,6.916.937Zm-190.484-1.184-.111-.865,6.921-.89.111.865Zm176.654-.69-6.915-.936.117-.865,6.916.937Zm-162.81-1.089-.111-.865,6.921-.889.111.865Zm148.979-.783-6.916-.937.118-.864,6.916.937Zm-135.136-1-.111-.865,6.921-.89.111.865Zm121.3-.878-6.915-.936.117-.865,6.916.937Zm-107.462-.9-.111-.865,6.922-.89.11.865Zm93.631-.973-6.916-.936.118-.865,6.916.937Zm-79.788-.807-.111-.865,6.922-.89.111.866Zm65.957-1.066-6.915-.937.117-.864,6.916.937Zm-52.114-.713-.111-.866,6.922-.89.111.866Zm38.284-1.161-6.916-.936-3.644,0v-.872h3.7l6.974.94Zm-24.441-.619-.111-.865,2.468-.318,4.546,0v.872h-4.49Z" transform="translate(-93.088 -1572.717)" fill="#1a1a1a"/>
    </g>
    <path id="Trazado_104955" data-name="Trazado 104955" d="M364.428,1506.191c-1.208,9.638-2.157,19.318-3.711,28.9-1.136,7.01-11.541,15.033-18.589,15.027-5.435,0-16.547-8.3-17.289-13.867-1.54-11.539-2.853-23.149-3.379-34.769-.367-8.114,9.695-15.748,20.034-16.044a25.846,25.846,0,0,1,17.191,5.936C363.6,1495.265,364.52,1500.373,364.428,1506.191Z" transform="translate(-30.602 -0.161)" fill="#fff"/>
    <g id="Grupo_55308" data-name="Grupo 55308" transform="translate(352.569 1585.243)">
      <path id="Trazado_104956" data-name="Trazado 104956" d="M411.321,1650.747l102.858,96.486,15.474-16.385L412.249,1600.6l-20.043,5.543Z" transform="translate(-392.206 -1600.109)" fill="#fff"/>
      <path id="Trazado_104957" data-name="Trazado 104957" d="M514.322,1747.777l-1.381-1.3.6-.636.748.7,3.492-3.7.633.6Zm-6.47-6.07-5.09-4.774.6-.636,5.09,4.774Zm15.349-3.333-.633-.6,4.792-5.073.634.6Zm-25.529-6.215-5.09-4.775.6-.636,5.09,4.774Zm29.158-4-4.673-5.183.647-.584,4.673,5.183Zm-39.337-5.549-5.09-4.774.6-.636,5.089,4.774Zm29.992-4.819-4.673-5.183.647-.584,4.673,5.183Zm-40.172-4.73-5.089-4.774.6-.637,5.089,4.774Zm30.827-5.637-4.672-5.183.648-.584,4.671,5.183Zm-41.006-3.912-5.09-4.774.6-.637,5.09,4.775Zm31.662-6.454-4.673-5.184.648-.584,4.672,5.184Zm-41.842-3.094-5.089-4.774.6-.637,5.089,4.774Zm32.5-7.273-4.672-5.183.647-.584,4.672,5.183Zm-42.676-2.275-5.09-4.775.6-.637,5.09,4.775Zm33.331-8.092-4.671-5.184.647-.584,4.671,5.184Zm-43.51-1.458-5.09-4.774.6-.637,5.09,4.774Zm34.165-8.91-4.672-5.183.647-.584,4.672,5.183Zm-44.345-.639-5.09-4.774.6-.637,5.09,4.775Zm-10.179-9.548-5.193-4.921-1.371-3.2.8-.343,1.335,3.116,5.024,4.711Zm45.179-.179-4.672-5.184.647-.584,4.673,5.184Zm-9.345-10.368-4.671-5.183.647-.584,4.672,5.183Zm-45.147-3.989-2.75-6.414.8-.344,2.75,6.415Zm35.8-6.377-4.673-5.184.647-.584,4.673,5.184Zm-41.3-6.451-2.75-6.414.8-.344,2.75,6.414Zm31.956-3.917-4.673-5.183.647-.584,4.673,5.183Zm-37.454-8.912-2.749-6.414.8-.344,2.749,6.415Zm28.109-1.454-4.672-5.183.647-.585,4.672,5.183Zm-27.922-8.642-.232-.841,6.727-1.86.232.841Zm18.578-1.725-2.462-2.731-2.664.737-.232-.841,3.182-.881,2.823,3.132Z" transform="translate(-392.33 -1600.037)" fill="#1a1a1a"/>
    </g>
    <g id="Grupo_55309" data-name="Grupo 55309" transform="translate(133.048 1587.753)">
      <path id="Trazado_104958" data-name="Trazado 104958" d="M258.886,1653.624,156.028,1750.11l-15.474-16.384,117.4-130.247L278,1609.022Z" transform="translate(-140.553 -1602.986)" fill="#fff"/>
      <path id="Trazado_104959" data-name="Trazado 104959" d="M156.27,1750.654l-4.088-4.329.634-.6,3.491,3.7.747-.7.6.636Zm6.47-6.07-.6-.636,5.09-4.775.6.637Zm-15.349-3.334-4.792-5.073.633-.6,4.792,5.073Zm25.529-6.215-.6-.636,5.089-4.774.6.636Zm-29.157-4-.648-.585,4.673-5.183.647.584Zm39.336-5.548-.6-.636,5.09-4.775.6.637Zm-29.991-4.819-.648-.584,4.673-5.184.647.584Zm40.171-4.731-.6-.636,5.089-4.774.6.636Zm-30.827-5.637-.647-.584,4.673-5.184.647.585Zm41.006-3.911-.6-.636,5.09-4.775.6.637Zm-31.662-6.455-.647-.584,4.673-5.183.647.584Zm41.841-3.093-.6-.637,5.09-4.774.6.637Zm-32.5-7.274-.647-.584,4.672-5.183.648.584Zm42.676-2.275-.6-.637,5.09-4.774.6.637Zm-33.331-8.092-.647-.584,4.672-5.183.648.584Zm43.51-1.457-.6-.637,5.09-4.774.6.637Zm-34.165-8.911-.647-.584,4.672-5.183.647.584Zm44.345-.638-.6-.636,5.09-4.775.6.637Zm10.179-9.548-.6-.637,5.024-4.711,1.335-3.116.8.343-1.474,3.346Zm-45.179-.18-.647-.584,4.672-5.183.647.584Zm9.345-10.367-.647-.584,4.672-5.183.647.584Zm45.148-3.988-.8-.344,2.749-6.414.8.344Zm-35.8-6.378-.647-.584,4.672-5.183.647.584Zm41.3-6.451-.8-.343,2.75-6.415.8.344Zm-31.955-3.917-.648-.584,4.673-5.183.647.584Zm37.453-8.912-.8-.344,2.75-6.414.8.344ZM246.555,1617l-.647-.584,4.673-5.183.647.584Zm27.922-8.641-6.726-1.861.232-.84,6.726,1.86ZM255.9,1606.63l-.647-.584,2.822-3.132,3.182.88-.232.841-2.663-.736Z" transform="translate(-140.815 -1602.914)" fill="#1a1a1a"/>
    </g>
    <g id="Grupo_55310" data-name="Grupo 55310" transform="translate(214.464 1484.171)">
      <path id="Trazado_104960" data-name="Trazado 104960" d="M427.354,1766.313c1.059-.351,2.937.2,2.552.872-.872,1.517-4.542,2.324-5.243,2.554-4.52,1.485-9.241,2.347-13.82,3.667-3.279.944-4.208-.374-4.951-3.436q-15.363-63.3-31-126.535a6.063,6.063,0,0,0-2.465-3.735c-1.31,16.571-2.7,33.135-3.823,49.719-.129,1.916.982,4.072,1.951,5.885a124.332,124.332,0,0,1,14.694,58.75c.133,46.411-.869,92.824-1.257,139.236q-.646,77.346-.891,154.695c-.01,4.626-1.3,5.827-5.6,5.729a81.92,81.92,0,0,0-13.245.873c-3.808.537-4.92-.921-5.278-4.5q-4.772-47.862-9.808-95.7-7.117-68.186-14.313-136.364c-1.231-11.759-2.38-23.526-4.3-35.279-1.125,11.346-2.3,22.686-3.363,34.038-1.958,20.982-3.681,41.987-5.8,62.951-4.413,43.715-9.01,87.411-13.549,131.112-1.354,13.04-2.9,26.063-4.061,39.121-.357,4.036-1.886,5.1-5.729,4.589a106.309,106.309,0,0,0-13.781-.87c-3.667-.009-4.922-1.365-4.892-5.069.252-31.37.645-62.745.408-94.114-.277-36.671-1.16-73.336-1.751-110.005-.456-28.35-1.6-56.716-1.062-85.049.423-22.208,4.308-44.025,15.116-64.037a16.615,16.615,0,0,0,1.833-8.51c-.984-15.71-2.324-31.4-3.543-47.095l-1.49-.1c-2.049,8.164-4.13,16.321-6.142,24.494-8.688,35.279-17.415,70.55-25.946,105.867-.879,3.638-2.289,4.137-5.529,3.126a97.81,97.81,0,0,0-12.853-3.169c-4.076-.686-5.157-2.311-4.246-6.482,3.973-18.179,7.635-36.426,11.365-54.658q11.822-57.8,23.594-115.614a21.609,21.609,0,0,0,.784-4.711c-.148-5.951,3.365-8.817,8.34-10.942,10.235-4.369,20.436-8.836,30.511-13.56,8.031-3.765,9.814-7.21,9.1-15.82-.085-1.028-.087-2.488-.722-2.979-7.144-5.521-6.593-13.757-7.574-21.365-.815-6.317-1-12.711-1.634-19.054-.879-8.814,3.52-14.441,10.784-18.437,1.383-.761,2.782-1.493,4.173-2.238h17.032c1.711.907,3.481,1.72,5.124,2.736,6.231,3.853,10.65,8.774,9.815,16.8-1.1,10.55-1.962,21.126-3.285,31.646a14.7,14.7,0,0,1-3.228,7.085c-5.858,7.094-5.614,14.854,2.356,19.393a269.416,269.416,0,0,0,31.07,14.645c6.61,2.716,10.084,6.106,11.527,13.791,7.051,37.57,15.019,74.969,22.685,112.424,3.585,17.514,7.294,35,10.778,52.538.718,3.613,2.825,8.285,3.129,11.952-2.484,1.612-3.531-3.814-3.859-5.331q-3.2-14.811-6.22-29.661-9.477-46.582-18.9-93.174c-3.31-16.264-6.947-32.467-9.9-48.794-1.064-5.884-3.9-9.253-9.207-11.359-8.237-3.271-16.543-6.454-24.495-10.339-8.088-3.951-16.5-8.172-14.845-19.7.013-.087-.25-.214-.819-.673-6.712,5.27-13.855,5.43-21.284-.834-.14,2.3-.442,3.531-.243,4.671.851,4.868-1.26,8.18-5.27,10.573-4.4,2.624-8.633,5.6-13.251,7.755-6.9,3.222-14.075,5.855-21.128,8.749-4.347,1.783-7.5,4.379-8.491,9.459-4.187,21.5-8.578,42.957-12.965,64.415q-8.843,43.248-17.78,86.477c-1.869,9.127-3.617,18.279-5.477,27.711l18.427,4.564,35.126-142.728c.855,2.925,1.978,5.323,2.214,7.806q2.51,26.461,4.654,52.957a8.409,8.409,0,0,1-.967,4.522c-12.264,22.048-16.139,46.057-15.91,70.8.534,57.593,1.5,115.183,2.236,172.775.215,16.67.369,33.343.369,50.014,0,19.51-.256,39.021-.211,58.531,0,1.682,1.248,4.69,2.227,4.826,5.695.785,11.482.9,17.439,1.245,2.217-21.237,4.353-41.672,6.481-62.109,4.187-40.2,8.578-80.377,12.487-120.6,3.114-32.047,5.617-64.154,8.506-96.224.109-1.212,1.424-2.314,2.176-3.468.633,1.113,1.7,2.181,1.827,3.348.7,6.663,1.072,13.361,1.752,20.028q5.556,54.48,11.208,108.951,5.642,54.748,11.295,109.5c1.387,13.356,2.882,26.7,4.389,40.621,6.008-.371,11.638-.545,17.207-1.226.98-.12,2.4-2.351,2.423-3.625.111-6.909-.287-13.824-.266-20.736q.113-36.448.391-72.895c.133-20.1.236-40.211.492-60.314.552-43.267,1.4-86.532,1.712-129.8.154-21.805-3.023-43.137-12.595-63.086-2.347-4.9-5.093-9.376-4.383-15.426,1.859-15.835,2.969-31.757,4.592-47.622.278-2.722,1.609-5.336,2.532-8.252,11.747,47.769,23.307,94.781,35.062,142.585Zm-74.105-260.282c.092-5.818-.83-10.926-5.744-14.816a25.846,25.846,0,0,0-17.191-5.936c-10.339.3-20.4,7.93-20.034,16.044.526,11.62,1.84,23.23,3.379,34.769.742,5.563,11.855,13.864,17.289,13.867,7.048.005,17.453-8.018,18.589-15.027C351.091,1525.349,352.04,1515.669,353.248,1506.031Z" transform="translate(-233.886 -1484.171)"/>
      <path id="Trazado_104961" data-name="Trazado 104961" d="M427.629,1775.556l-18.7,5.778c-11.755-47.8-23.315-94.816-35.062-142.585-.924,2.916-2.254,5.531-2.532,8.252-1.623,15.865-2.733,31.787-4.592,47.622-.71,6.05,2.036,10.531,4.383,15.426,9.571,19.949,12.749,41.281,12.595,63.086-.308,43.269-1.16,86.533-1.712,129.8-.256,20.1-.359,40.21-.492,60.314q-.241,36.448-.391,72.895c-.021,6.912.377,13.827.266,20.736-.021,1.274-1.444,3.506-2.423,3.625-5.569.681-11.2.856-17.207,1.226-1.507-13.92-3-27.265-4.389-40.621q-5.684-54.744-11.295-109.5-5.613-54.475-11.208-108.951c-.68-6.666-1.049-13.365-1.752-20.028-.123-1.167-1.193-2.235-1.827-3.348-.753,1.154-2.067,2.257-2.176,3.468-2.889,32.07-5.392,64.177-8.506,96.224-3.909,40.224-8.3,80.4-12.487,120.6-2.128,20.437-4.265,40.873-6.481,62.109-5.956-.35-11.744-.46-17.439-1.245-.979-.135-2.223-3.143-2.227-4.826-.044-19.51.211-39.021.211-58.531,0-16.672-.154-33.344-.369-50.014-.741-57.592-1.7-115.181-2.236-172.775-.229-24.746,3.646-48.755,15.91-70.8a8.409,8.409,0,0,0,.967-4.522q-2.185-26.49-4.654-52.957c-.236-2.482-1.359-4.881-2.214-7.805l-35.126,142.728-18.427-4.564c1.861-9.432,3.608-18.584,5.477-27.711q8.857-43.245,17.78-86.477c4.388-21.458,8.778-42.916,12.965-64.415.989-5.08,4.144-7.676,8.491-9.459,7.054-2.894,14.228-5.528,21.128-8.749,4.617-2.156,8.853-5.131,13.251-7.755,4.01-2.394,6.12-5.705,5.27-10.573-.2-1.14.1-2.367.243-4.671,7.429,6.264,14.571,6.1,21.284.834.569.46.832.586.819.673-1.65,11.525,6.757,15.746,14.845,19.7,7.952,3.884,16.257,7.067,24.495,10.339,5.3,2.107,8.143,5.476,9.207,11.359,2.954,16.327,6.59,32.53,9.9,48.794q9.48,46.582,18.9,93.174,3.021,14.848,6.22,29.661a18.816,18.816,0,0,0,1.071,3.637C427.4,1774.763,427.629,1775.556,427.629,1775.556Z" transform="translate(-234.161 -1493.414)" fill="#fff"/>
    </g>
    <rect id="Rectángulo_5366" data-name="Rectángulo 5366" width="446.022" height="0.872" transform="translate(81.771 1554.888)" fill="#baefe4"/>
    <rect id="Rectángulo_5367" data-name="Rectángulo 5367" width="446.022" height="0.872" transform="translate(81.771 1627.86)" fill="#baefe4"/>
    <rect id="Rectángulo_5368" data-name="Rectángulo 5368" width="446.022" height="0.872" transform="translate(81.771 1702.69)" fill="#baefe4"/>
    <rect id="Rectángulo_5369" data-name="Rectángulo 5369" width="446.022" height="0.872" transform="translate(81.771 1771.983)" fill="#baefe4"/>
    <rect id="Rectángulo_5370" data-name="Rectángulo 5370" width="446.022" height="0.872" transform="translate(81.771 1849.126)" fill="#baefe4"/>
    <rect id="Rectángulo_5371" data-name="Rectángulo 5371" width="446.022" height="0.872" transform="translate(81.771 1917.015)" fill="#baefe4"/>
    <rect id="Rectángulo_5372" data-name="Rectángulo 5372" width="446.022" height="0.872" transform="translate(81.771 1992.566)" fill="#baefe4"/>
    <rect id="Rectángulo_5373" data-name="Rectángulo 5373" width="446.022" height="0.872" transform="translate(81.771 2062.655)" fill="#baefe4"/>
    <rect id="Rectángulo_5374" data-name="Rectángulo 5374" width="0.872" height="302.139" transform="translate(310.698 1773.392)" fill="#baefe4"/>
    <rect id="Rectángulo_5375" data-name="Rectángulo 5375" width="0.872" height="80.254" transform="translate(310.698 1692.165)" fill="#1a1a1a"/>
    <rect id="Rectángulo_5376" data-name="Rectángulo 5376" width="71.758" height="0.872" transform="translate(276.261 1691.729)" fill="#95bb84"/>
    <rect id="Rectángulo_5377" data-name="Rectángulo 5377" width="292.19" height="0.872" transform="translate(165.665 1897.597)" fill="#95bb84"/>
    <g id="Grupo_55311" data-name="Grupo 55311" transform="translate(202.483 1743.21)">
      <rect id="Rectángulo_5378" data-name="Rectángulo 5378" width="0.872" height="3.489" transform="matrix(0.983, -0.184, 0.184, 0.983, 161.795, 0.16)" fill="#1a1a1a"/>
      <path id="Trazado_104962" data-name="Trazado 104962" d="M459.231,2068.154l-1.255-6.713.857-.16,1.254,6.712Zm-2.509-13.426-1.255-6.713.857-.161,1.254,6.713Zm-2.509-13.427-1.255-6.713.857-.16,1.254,6.713Zm-2.509-13.427-1.255-6.713.858-.161,1.254,6.713Zm-2.51-13.426-1.254-6.713.857-.161,1.254,6.713Zm-2.509-13.427-1.254-6.713.857-.16,1.254,6.713Zm-2.509-13.426-1.254-6.713.857-.161,1.254,6.713Zm-2.509-13.427-1.254-6.713.857-.16,1.254,6.713Zm-2.509-13.427-1.254-6.713.857-.16,1.254,6.713Zm-2.509-13.426L435.4,1940.6l.857-.16,1.254,6.713Zm-2.509-13.427-1.254-6.713.857-.16L435,1933.73Zm-2.509-13.426-1.254-6.713.857-.161,1.254,6.714Zm-2.509-13.427-1.254-6.713.857-.161,1.255,6.714Zm-2.509-13.426-1.254-6.714.857-.16,1.255,6.712Zm-2.509-13.427-1.254-6.714.857-.16,1.255,6.713Zm-2.509-13.426-1.254-6.713.857-.161,1.255,6.713Zm-2.509-13.427-1.254-6.713.857-.16,1.255,6.713Zm-2.509-13.427-1.254-6.713.857-.161,1.255,6.713Zm-2.509-13.426-1.254-6.714.857-.16,1.255,6.713Zm-2.509-13.427-1.254-6.713.857-.16,1.255,6.713Zm-2.509-13.426-1.254-6.713.857-.161,1.255,6.713Z" transform="translate(-244.11 -1782.61)" fill="#1a1a1a"/>
      <path id="Trazado_104963" data-name="Trazado 104963" d="M465.723,2120.958l-.264-.831,2.959-.939-.57-3.051.857-.16.711,3.809Z" transform="translate(-251.472 -1823.879)" fill="#1a1a1a"/>
      <rect id="Rectángulo_5379" data-name="Rectángulo 5379" width="4.359" height="0.872" transform="matrix(0.953, -0.303, 0.303, 0.953, 205.678, 298.886)" fill="#1a1a1a"/>
      <path id="Trazado_104964" data-name="Trazado 104964" d="M447.011,2127l-1.2-3.735.83-.268.936,2.908,2.912-.924.264.831Z" transform="translate(-248.963 -1824.775)" fill="#1a1a1a"/>
      <path id="Trazado_104965" data-name="Trazado 104965" d="M431.465,2078.7l-2.186-6.791.83-.268,2.186,6.791Zm-4.372-13.582-2.186-6.791.83-.268,2.186,6.791Zm-4.372-13.582-2.186-6.791.83-.268,2.185,6.791Zm-4.371-13.582-2.186-6.791.83-.268,2.186,6.791Zm-4.372-13.582-2.186-6.791.83-.268,2.186,6.791Zm-4.372-13.583-2.186-6.79.83-.268,2.186,6.791Zm-4.372-13.581-2.185-6.792.83-.267,2.186,6.791Zm-4.371-13.583-2.186-6.79.83-.268,2.186,6.791Zm-4.372-13.582-2.186-6.791.83-.267,2.186,6.791Zm-4.372-13.582-2.186-6.791.83-.267,2.185,6.79Zm-4.371-13.582-2.186-6.791.83-.268,2.186,6.792Zm-4.372-13.582-2.186-6.791.83-.268,2.186,6.791ZM379,1915.715l-2.186-6.791.83-.268,2.186,6.792Zm-4.372-13.582-2.185-6.791.83-.268,2.186,6.791Zm-4.371-13.582-2.186-6.791.83-.268,2.186,6.791Zm-4.372-13.582-2.186-6.791.83-.268,2.186,6.791Zm-4.372-13.583-2.186-6.79.83-.268,2.185,6.791Zm-4.371-13.581-2.186-6.792.83-.267,2.186,6.791Zm-4.372-13.583-2.186-6.791.83-.268,2.186,6.792Z" transform="translate(-236.805 -1787.003)" fill="#1a1a1a"/>
      <path id="Trazado_104966" data-name="Trazado 104966" d="M341.894,1819.24l-.831-.262,1.141-3.624,4.641-.14,1.17,3.634-.83.267-.969-3.009-3.367.1Z" transform="translate(-235.589 -1785.478)" fill="#1a1a1a"/>
      <path id="Trazado_104967" data-name="Trazado 104967" d="M248.735,2078.714l-.831-.263,2.139-6.788.832.262Zm4.278-13.576-.831-.263,2.138-6.788.831.263Zm4.277-13.575-.831-.262,2.138-6.787.831.263Zm4.277-13.575-.831-.263,2.138-6.787.832.263Zm4.277-13.575-.831-.263,2.139-6.787.831.262Zm4.277-13.575-.831-.262,2.138-6.787.831.262Zm4.277-13.576-.831-.262,2.138-6.787.832.262Zm4.277-13.575-.831-.262,2.139-6.787.831.262Zm4.277-13.575-.831-.263,2.139-6.787.831.263Zm4.277-13.575-.831-.263,2.138-6.787.832.262Zm4.278-13.575-.831-.263,2.138-6.787.831.262Zm4.276-13.576-.831-.263,2.139-6.787.831.262Zm4.277-13.575-.831-.263,2.139-6.788.831.263Zm4.278-13.575-.831-.263,2.138-6.788.831.263Zm4.277-13.575-.831-.263,2.138-6.788.831.263Zm4.276-13.575-.831-.263,2.139-6.788.831.263Zm4.278-13.576-.831-.263,2.139-6.788.831.263Zm4.277-13.575-.831-.263,2.138-6.788.831.263Zm4.277-13.575-.831-.263,2.138-6.787.831.263Z" transform="translate(-223.695 -1787.022)" fill="#1a1a1a"/>
      <path id="Trazado_104968" data-name="Trazado 104968" d="M244.506,2127l-3.741-1.192.264-.832,2.908.927.917-2.91.831.262Z" transform="translate(-222.783 -1824.775)" fill="#1a1a1a"/>
      <rect id="Rectángulo_5380" data-name="Rectángulo 5380" width="0.873" height="4.998" transform="matrix(0.304, -0.953, 0.953, 0.304, 8.457, 297.995)" fill="#1a1a1a"/>
      <path id="Trazado_104969" data-name="Trazado 104969" d="M223.845,2120.266l-3.694-1.178.74-3.806.857.166-.592,3.044,2.954.942Z" transform="translate(-220.151 -1823.79)" fill="#1a1a1a"/>
      <path id="Trazado_104970" data-name="Trazado 104970" d="M223.4,2067.9l-.857-.167,1.349-6.937.857.167Zm2.7-13.873-.857-.167,1.349-6.937.857.167Zm2.7-13.873-.857-.168,1.349-6.936.857.167Zm2.7-13.873-.857-.167,1.349-6.937.857.168Zm2.7-13.873-.857-.167,1.349-6.937.857.167Zm2.7-13.873-.857-.167,1.349-6.937.857.167Zm2.7-13.873-.857-.167,1.349-6.937.857.167Zm2.7-13.873-.857-.167,1.349-6.937.857.167Zm2.7-13.873-.857-.167,1.349-6.936.857.167Zm2.7-13.873-.857-.167,1.349-6.937.857.167Zm2.7-13.873-.857-.166,1.349-6.937.857.167Zm2.7-13.873-.857-.167,1.349-6.937.857.168Zm2.7-13.872-.857-.167,1.349-6.937.857.167Zm2.7-13.873-.857-.167,1.349-6.937.857.167Zm2.7-13.873-.857-.167,1.349-6.937.857.167Zm2.7-13.873-.858-.167,1.349-6.937.857.167Zm2.7-13.872-.857-.167,1.349-6.936.857.167Zm2.7-13.873-.857-.166,1.349-6.937.857.167Zm2.7-13.873-.858-.167,1.349-6.937.857.167Zm2.7-13.873-.857-.167,1.349-6.937.857.167Z" transform="translate(-220.457 -1783.179)" fill="#1a1a1a"/>
      <path id="Trazado_104971" data-name="Trazado 104971" d="M285.277,1788.927l-.855-.167.142-.728.3-2.7.867.1-.3,2.731Z" transform="translate(-228.357 -1781.663)" fill="#1a1a1a"/>
    </g>
    <g id="Grupo_55312" data-name="Grupo 55312" transform="translate(88.725 1542.67)">
      <path id="Trazado_104972" data-name="Trazado 104972" d="M93.312,1560.068H91.54v-7.27h-1.8v-1.25l3.569-.316Z" transform="translate(-89.743 -1551.232)"/>
    </g>
    <g id="Grupo_55313" data-name="Grupo 55313" transform="translate(88.147 1616.5)">
      <path id="Trazado_104973" data-name="Trazado 104973" d="M95.254,1644.831H89.221v-1.158l2.859-3.064a6.91,6.91,0,0,0,.879-1.2,1.938,1.938,0,0,0,.262-.907,1.363,1.363,0,0,0-.3-.913,1.055,1.055,0,0,0-.852-.355,1.1,1.1,0,0,0-.931.416,1.763,1.763,0,0,0-.319,1.107H89.095l-.013-.036a2.677,2.677,0,0,1,.786-2.025,2.948,2.948,0,0,1,2.2-.828,3.068,3.068,0,0,1,2.145.709,2.438,2.438,0,0,1,.78,1.894,2.665,2.665,0,0,1-.44,1.478,14.592,14.592,0,0,1-1.453,1.775l-1.572,1.711.011.031h3.714Z" transform="translate(-89.081 -1635.869)"/>
    </g>
    <g id="Grupo_55314" data-name="Grupo 55314" transform="translate(88.112 1690.534)">
      <path id="Trazado_104974" data-name="Trazado 104974" d="M91.007,1724.531h1a1.21,1.21,0,0,0,.934-.331,1.313,1.313,0,0,0,.3-.92,1.2,1.2,0,0,0-.3-.856,1.157,1.157,0,0,0-.88-.321,1.242,1.242,0,0,0-.837.291.956.956,0,0,0-.34.764H89.162l-.012-.036a2.007,2.007,0,0,1,.795-1.712,3.171,3.171,0,0,1,2.063-.673,3.394,3.394,0,0,1,2.188.655,2.258,2.258,0,0,1,.816,1.868,1.876,1.876,0,0,1-.364,1.1,2.423,2.423,0,0,1-1,.81,2.252,2.252,0,0,1,1.121.8,2.116,2.116,0,0,1,.385,1.256,2.3,2.3,0,0,1-.884,1.909,3.544,3.544,0,0,1-2.26.694,3.456,3.456,0,0,1-2.115-.652,2.085,2.085,0,0,1-.852-1.841l.012-.037H90.77a1.079,1.079,0,0,0,.364.837,1.5,1.5,0,0,0,1.89-.011,1.209,1.209,0,0,0,.356-.92,1.331,1.331,0,0,0-.35-1.02A1.457,1.457,0,0,0,92,1725.86h-1Z" transform="translate(-89.04 -1720.739)"/>
    </g>
    <g id="Grupo_55315" data-name="Grupo 55315" transform="translate(88.033 1761.622)">
      <path id="Trazado_104975" data-name="Trazado 104975" d="M94.4,1807.785h1v1.364h-1v1.918H92.634v-1.918h-3.6l-.079-1.062,3.665-5.856H94.4Zm-3.8,0h2.033V1804.6l-.037-.012-.14.25Z" transform="translate(-88.95 -1802.232)"/>
    </g>
    <g id="Grupo_55316" data-name="Grupo 55316" transform="translate(88.354 1837.894)">
      <path id="Trazado_104976" data-name="Trazado 104976" d="M89.477,1894.589l.509-4.922h4.927v1.42H91.437l-.243,2.039a2.1,2.1,0,0,1,.589-.3,2.764,2.764,0,0,1,2.739.646,3.2,3.2,0,0,1,.7,2.2,3.031,3.031,0,0,1-.768,2.118,2.84,2.84,0,0,1-2.212.844,3.323,3.323,0,0,1-2.087-.667,2.109,2.109,0,0,1-.837-1.833l.012-.031,1.7-.085a1.235,1.235,0,0,0,.334.919,1.187,1.187,0,0,0,.874.331,1.022,1.022,0,0,0,.913-.44,2.033,2.033,0,0,0,.295-1.148,2.121,2.121,0,0,0-.317-1.223,1.058,1.058,0,0,0-.934-.461,1.352,1.352,0,0,0-.779.188,1.028,1.028,0,0,0-.386.51Z" transform="translate(-89.318 -1889.667)"/>
    </g>
    <g id="Grupo_55317" data-name="Grupo 55317" transform="translate(88.288 1905.77)">
      <path id="Trazado_104977" data-name="Trazado 104977" d="M92.792,1967.478a4.29,4.29,0,0,1,.919.093,4.88,4.88,0,0,1,.846.277l-.315,1.3a6.577,6.577,0,0,0-.714-.208,3.356,3.356,0,0,0-.725-.07,1.583,1.583,0,0,0-1.3.6,2.45,2.45,0,0,0-.453,1.672l.018.03a2.04,2.04,0,0,1,.753-.485,2.811,2.811,0,0,1,1.026-.176,2.242,2.242,0,0,1,1.854.84,3.336,3.336,0,0,1,.67,2.145,3.062,3.062,0,0,1-.828,2.2,2.835,2.835,0,0,1-2.146.867,2.967,2.967,0,0,1-2.281-.949,3.721,3.721,0,0,1-.88-2.631v-1.723a3.782,3.782,0,0,1,1-2.762A3.408,3.408,0,0,1,92.792,1967.478Zm-.407,4.375a2.018,2.018,0,0,0-.837.158,1.262,1.262,0,0,0-.535.43v.587a2.881,2.881,0,0,0,.379,1.611,1.165,1.165,0,0,0,1.01.563,1.01,1.01,0,0,0,.878-.5,2.141,2.141,0,0,0,.331-1.209,1.957,1.957,0,0,0-.334-1.187A1.052,1.052,0,0,0,92.386,1971.853Z" transform="translate(-89.242 -1967.478)"/>
    </g>
    <g id="Grupo_55318" data-name="Grupo 55318" transform="translate(168.745 1881.411)">
      <path id="Trazado_104978" data-name="Trazado 104978" d="M198.3,1951.037v4.714h-2.365v-11.792h4.446a4.891,4.891,0,0,1,3.154.918,3.115,3.115,0,0,1,1.138,2.564,2.6,2.6,0,0,1-.477,1.572,3.35,3.35,0,0,1-1.4,1.061,2.538,2.538,0,0,1,1.5,1.028,3.263,3.263,0,0,1,.458,1.782v.866a4.255,4.255,0,0,0,.134,1.033,1.413,1.413,0,0,0,.458.8v.17h-2.438a1.323,1.323,0,0,1-.42-.866,7.25,7.25,0,0,1-.1-1.15v-.834a1.872,1.872,0,0,0-.483-1.374,1.816,1.816,0,0,0-1.356-.49Zm0-1.821h2.041a2.232,2.232,0,0,0,1.486-.421,1.558,1.558,0,0,0,.49-1.248,1.721,1.721,0,0,0-.49-1.288,1.991,1.991,0,0,0-1.445-.477H198.3Z" transform="translate(-195.935 -1943.116)" fill="#12263f"/>
      <path id="Trazado_104979" data-name="Trazado 104979" d="M204.873,1950.884a4.705,4.705,0,0,1,1.094-3.211,3.811,3.811,0,0,1,3.028-1.251,3.851,3.851,0,0,1,3.045,1.248,4.674,4.674,0,0,1,1.1,3.215v.17a4.687,4.687,0,0,1-1.1,3.219,4.332,4.332,0,0,1-6.075,0,4.692,4.692,0,0,1-1.1-3.219Zm2.357.167a3.807,3.807,0,0,0,.423,1.921,1.619,1.619,0,0,0,2.7,0,3.77,3.77,0,0,0,.425-1.917v-.17a3.745,3.745,0,0,0-.428-1.9,1.453,1.453,0,0,0-1.353-.736,1.435,1.435,0,0,0-1.34.739,3.781,3.781,0,0,0-.426,1.9Z" transform="translate(-194.467 -1942.712)" fill="#12263f"/>
      <path id="Trazado_104980" data-name="Trazado 104980" d="M212.915,1951.562a5.7,5.7,0,0,1,.9-3.345,2.907,2.907,0,0,1,2.523-1.273,2.443,2.443,0,0,1,1.182.284,2.828,2.828,0,0,1,.923.809v-4.8h2.374v12.635H218.78l-.194-1.069a2.9,2.9,0,0,1-.977.923,2.591,2.591,0,0,1-1.291.315,2.962,2.962,0,0,1-2.507-1.182,5.054,5.054,0,0,1-.9-3.126Zm2.357.171a3.617,3.617,0,0,0,.389,1.821,1.352,1.352,0,0,0,1.263.664,1.833,1.833,0,0,0,.892-.207,1.648,1.648,0,0,0,.623-.606v-3.758a1.81,1.81,0,0,0-.619-.647,1.632,1.632,0,0,0-.878-.232,1.333,1.333,0,0,0-1.268.773,4.411,4.411,0,0,0-.4,2.021Z" transform="translate(-193.145 -1943.235)" fill="#12263f"/>
      <path id="Trazado_104981" data-name="Trazado 104981" d="M223.739,1945.01h-2.365v-1.774h2.365Zm0,10.861h-2.365v-8.764h2.365Z" transform="translate(-191.755 -1943.235)" fill="#12263f"/>
      <path id="Trazado_104982" data-name="Trazado 104982" d="M227.545,1955.87H225.18v-12.635h2.365Z" transform="translate(-191.13 -1943.235)" fill="#12263f"/>
      <path id="Trazado_104983" data-name="Trazado 104983" d="M231.35,1955.87h-2.366v-12.635h2.366Z" transform="translate(-190.505 -1943.235)" fill="#12263f"/>
      <path id="Trazado_104984" data-name="Trazado 104984" d="M237.894,1955.347a4.928,4.928,0,0,1-.224-.631,4.3,4.3,0,0,1-.133-.681,3.25,3.25,0,0,1-.959,1.061,2.391,2.391,0,0,1-1.423.422,2.955,2.955,0,0,1-2.121-.708,2.538,2.538,0,0,1-.745-1.931,2.311,2.311,0,0,1,.992-2,4.953,4.953,0,0,1,2.9-.709h1.32v-.7a1.365,1.365,0,0,0-.332-.98,1.551,1.551,0,0,0-1.868-.069.985.985,0,0,0-.312.773l-2.283-.008-.008-.048a2.223,2.223,0,0,1,.964-1.915,4.194,4.194,0,0,1,2.68-.807,3.916,3.916,0,0,1,2.551.8,2.761,2.761,0,0,1,.98,2.272v3.62a6.892,6.892,0,0,0,.093,1.159,5.859,5.859,0,0,0,.3,1.077Zm-2.163-1.579a2.031,2.031,0,0,0,1.11-.307,1.611,1.611,0,0,0,.657-.714v-1.239h-1.32a1.577,1.577,0,0,0-1.142.377,1.222,1.222,0,0,0-.389.91.91.91,0,0,0,.291.7A1.132,1.132,0,0,0,235.731,1953.768Z" transform="translate(-189.962 -1942.712)" fill="#12263f"/>
    </g>
    <g id="Grupo_55319" data-name="Grupo 55319" transform="translate(287.688 1674.441)">
      <path id="Trazado_104985" data-name="Trazado 104985" d="M330.1,1712.153l.016.044a3.448,3.448,0,0,1-1.043,2.709,4.181,4.181,0,0,1-2.974,1,4.125,4.125,0,0,1-3.1-1.228,4.344,4.344,0,0,1-1.191-3.159v-2.1a4.423,4.423,0,0,1,1.162-3.159,3.957,3.957,0,0,1,3.021-1.235,4.38,4.38,0,0,1,3.065,1.006,3.44,3.44,0,0,1,1.074,2.741l-.014.043h-2.063a2.315,2.315,0,0,0-.5-1.6,2,2,0,0,0-1.562-.555,1.771,1.771,0,0,0-1.51.772,3.279,3.279,0,0,0-.56,1.97v2.112a3.187,3.187,0,0,0,.588,1.984,1.9,1.9,0,0,0,1.591.773,1.872,1.872,0,0,0,1.471-.534,2.318,2.318,0,0,0,.475-1.587Z" transform="translate(-321.809 -1704.428)" fill="#12263f"/>
      <path id="Trazado_104986" data-name="Trazado 104986" d="M333.272,1706.043h-2.121v-1.59h2.121Zm0,9.738h-2.121v-7.857h2.121Z" transform="translate(-321.399 -1704.453)" fill="#12263f"/>
      <path id="Trazado_104987" data-name="Trazado 104987" d="M336.793,1707.784l.094,1.125a2.885,2.885,0,0,1,.967-.937,2.506,2.506,0,0,1,1.285-.333,2.36,2.36,0,0,1,1.858.747,3.453,3.453,0,0,1,.669,2.346v4.909h-2.128v-4.913a1.6,1.6,0,0,0-.319-1.124,1.281,1.281,0,0,0-.966-.331,1.633,1.633,0,0,0-.755.171,1.547,1.547,0,0,0-.56.483v5.714h-2.121v-7.857Z" transform="translate(-321.238 -1704.313)" fill="#12263f"/>
      <path id="Trazado_104988" data-name="Trazado 104988" d="M345.446,1705.934v1.925h1.32v1.489h-1.32v4a.924.924,0,0,0,.188.653.67.67,0,0,0,.508.2,1.947,1.947,0,0,0,.287-.018,2.409,2.409,0,0,0,.28-.062l.181,1.532a4.25,4.25,0,0,1-.623.163,3.779,3.779,0,0,1-.662.055,2.26,2.26,0,0,1-1.688-.6,2.643,2.643,0,0,1-.592-1.909v-4.009h-1.147v-1.489h1.147v-1.925Z" transform="translate(-320.916 -1704.388)" fill="#12263f"/>
      <path id="Trazado_104989" data-name="Trazado 104989" d="M352.67,1714.5a2.655,2.655,0,0,1-.922.951,2.72,2.72,0,0,1-3.229-.461,3.674,3.674,0,0,1-.7-2.473v-4.741h2.114v4.767a2.042,2.042,0,0,0,.29,1.233,1.016,1.016,0,0,0,.856.376,2.091,2.091,0,0,0,.872-.165,1.456,1.456,0,0,0,.6-.483v-5.728h2.12v7.857h-1.808Z" transform="translate(-320.668 -1704.307)" fill="#12263f"/>
      <path id="Trazado_104990" data-name="Trazado 104990" d="M360.041,1709.607l-.777-.022a1.4,1.4,0,0,0-.777.2,1.229,1.229,0,0,0-.465.552v5.308h-2.114v-7.857h1.968l.1,1.162a2.464,2.464,0,0,1,.715-.963,1.6,1.6,0,0,1,1.013-.344,1.613,1.613,0,0,1,.294.025c.09.017.181.038.273.062Z" transform="translate(-320.313 -1704.313)" fill="#12263f"/>
      <path id="Trazado_104991" data-name="Trazado 104991" d="M365.525,1715.641a4.642,4.642,0,0,1-.2-.567,3.843,3.843,0,0,1-.119-.61,2.935,2.935,0,0,1-.86.951,2.152,2.152,0,0,1-1.276.378,2.65,2.65,0,0,1-1.9-.636,2.275,2.275,0,0,1-.668-1.732,2.074,2.074,0,0,1,.889-1.79,4.441,4.441,0,0,1,2.6-.636h1.184v-.624a1.221,1.221,0,0,0-.3-.879,1.39,1.39,0,0,0-1.673-.062.884.884,0,0,0-.28.694l-2.048-.008-.006-.043a1.992,1.992,0,0,1,.864-1.717,3.766,3.766,0,0,1,2.4-.722,3.506,3.506,0,0,1,2.287.715,2.477,2.477,0,0,1,.879,2.037v3.246a6.152,6.152,0,0,0,.084,1.037,5.28,5.28,0,0,0,.265.967Zm-1.938-1.417a1.822,1.822,0,0,0,.995-.276,1.441,1.441,0,0,0,.589-.639V1712.2h-1.184a1.412,1.412,0,0,0-1.024.339,1.1,1.1,0,0,0-.349.816.818.818,0,0,0,.261.633A1.019,1.019,0,0,0,363.587,1714.225Z" transform="translate(-320.112 -1704.313)" fill="#12263f"/>
    </g>
    <g id="Grupo_55320" data-name="Grupo 55320" transform="translate(88.052 1981.447)">
      <path id="Trazado_104992" data-name="Trazado 104992" d="M95.215,2055.6a10.379,10.379,0,0,0-1.939,3.1,15.257,15.257,0,0,0-.742,3.471l-.085.9H90.676l.085-.9a12.755,12.755,0,0,1,.886-3.578,11.067,11.067,0,0,1,1.863-2.994h-4.54v-1.365h6.244Z" transform="translate(-88.971 -2054.232)"/>
    </g>
    <g id="Grupo_55321" data-name="Grupo 55321" transform="translate(88.24 2052.623)">
      <path id="Trazado_104993" data-name="Trazado 104993" d="M95.006,2138.3a2.02,2.02,0,0,1-.349,1.171,2.325,2.325,0,0,1-.962.8,2.59,2.59,0,0,1,1.11.849,2.076,2.076,0,0,1,.407,1.262,2.265,2.265,0,0,1-.831,1.884,3.935,3.935,0,0,1-4.36,0,2.258,2.258,0,0,1-.835-1.884,2.082,2.082,0,0,1,.4-1.265,2.623,2.623,0,0,1,1.114-.852,2.312,2.312,0,0,1-.966-.793,2.027,2.027,0,0,1-.345-1.167,2.25,2.25,0,0,1,.771-1.824,3.524,3.524,0,0,1,4.066,0A2.24,2.24,0,0,1,95.006,2138.3Zm-1.566,3.953a1.31,1.31,0,0,0-.345-.951,1.2,1.2,0,0,0-.9-.357,1.171,1.171,0,0,0-.9.357,1.331,1.331,0,0,0-.337.951,1.31,1.31,0,0,0,.339.954,1.207,1.207,0,0,0,.9.348,1.185,1.185,0,0,0,.892-.351A1.306,1.306,0,0,0,93.44,2142.249Zm-.2-3.875a1.261,1.261,0,0,0-.283-.858.957.957,0,0,0-.762-.325.943.943,0,0,0-.758.32,1.281,1.281,0,0,0-.274.864,1.308,1.308,0,0,0,.277.877.953.953,0,0,0,.768.324.942.942,0,0,0,.756-.324A1.308,1.308,0,0,0,93.241,2138.374Z" transform="translate(-89.187 -2135.826)"/>
    </g>
  </g>
</svg>
