<svg xmlns="http://www.w3.org/2000/svg" width="400" height="340.486" viewBox="0 0 400 340.486">
  <g id="Grupo_1054841" data-name="Grupo 1054841" transform="translate(-285 -11194)">
    <g id="Grupo_56582" data-name="Grupo 56582" transform="translate(-666.032 6688.485)">
      <g id="Grupo_56572" data-name="Grupo 56572" transform="translate(1099.734 4560.334)">
        <path id="Trazado_125114" data-name="Trazado 125114" d="M1208.382,4653.311s-.121-26.49-1.572-35.562-3.024-12.216-3.024-12.216c-1.573-9.314-7.984-14.516-21.169-18.265s-12.821-12.1-12.821-12.1v-11.128l-22.862,9.919c-1.089,5.686-6.531,13.426-17.539,14.032a18.035,18.035,0,0,0-15.12,8.951c-4.838,6.894-2.419,22.619-2.419,22.619l-.847,1.209c-1.572,2.3-1.936,9.193-1.936,9.193s-.242,21.652-.6,25.522a15.2,15.2,0,0,0,.363,5.927l4.355,8.588,9.8,19.475v5.685l-2.177,6.169c-5.2,8.951-5.443,22.135-5.443,22.135l-2.3,6.653c-4.233,12.217-5.805,35.442-5.805,35.442s.241,30.36.6,32.538a36.929,36.929,0,0,1,.12,6.168l-1.814,6.411c-7.379,11.008-5.806,24.313-5.806,24.313v13.548h20.079l2.662-7.591c3.387-4.807,1.934-28.576,1.934-28.576a104.65,104.65,0,0,1,6.895-14.877c4.839-8.831,4.6-22.5,4.6-22.5,4.354-5.564,8.709-19.475,9.677-30.966s3.87-18.506,3.87-18.506l2.419-2.661s3.388,36.289,3.145,47.3,3.025,18.022,3.025,18.022c.725,9.677,1.936,10.161,1.936,10.161v2.419s.363.726-2.419,10.281,1.089,24.192,1.089,24.192l.847,12.1h18.628l1.088-6.381s.484-.03,2.541-10.553-.121-25.765-1.815-30.965-2.177-23.587-2.177-23.587a46.614,46.614,0,0,0,3.266-7.863c6.411-18.869,4.113-42.7,4.113-42.7l-.726-31.691s11.734-10.644,17.9-22.5S1208.382,4653.311,1208.382,4653.311Zm-80.277,17.137s-2.9-11.854-5.887-15.242c0,0,4.6-2.742,4.6-13.386,0,0,1.129,4.113,1.855,6.611S1128.1,4670.448,1128.1,4670.448Zm57.335-1.291c-1.855,7.015-4.515,8.346-4.515,8.346l-.968-15.846s.6-12.458,4.113-16.935c2.707-3.453,2.964-5.029,2.941-5.571-.025-.148-.038-.234-.038-.234a.76.76,0,0,1,.038.234c.275,1.68,2.148,12.186,6.373,14.522C1193.383,4653.674,1187.294,4662.142,1185.44,4669.157Z" transform="translate(-1099.769 -4563.337)" fill="#fff"/>
        <path id="Trazado_125115" data-name="Trazado 125115" d="M1120.738,4848.949h-20.872v-14.011c-.013-.08-1.5-13.5,5.842-24.509l1.781-6.292a35.855,35.855,0,0,0-.119-6.017c-.364-2.187-.6-31.369-.611-32.611.018-.268,1.627-23.459,5.831-35.6l2.275-6.585c.033-1.093.506-13.684,5.5-22.285l2.114-6.016v-5.5l-14.1-27.963a15.291,15.291,0,0,1-.411-6.182c.358-3.807.6-25.267.6-25.483.016-.306.39-7.071,2.016-9.449l.745-1.063c-.272-1.88-2.136-16.131,2.525-22.771a18.639,18.639,0,0,1,15.474-9.146c10.064-.554,15.924-7.468,17.109-13.656l.046-.241,23.735-10.3v11.835c-.013.345-.155,8.055,12.484,11.649,13.661,3.885,19.893,9.268,21.488,18.569.236.507,1.684,3.838,3.036,12.285,1.42,8.882,1.572,34.661,1.578,35.609.055.52.515,6.473-5.5,18.022-5.749,11.048-16.424,21.163-17.844,22.482l.721,31.482c.02.206,2.232,24.111-4.137,42.859a47.582,47.582,0,0,1-3.238,7.822c.046,1.6.569,18.475,2.151,23.336,1.728,5.308,3.879,20.7,1.827,31.2-1.466,7.508-2.142,9.847-2.545,10.583l-1.147,6.727h-19.451l-.877-12.527c-.145-.518-3.857-14.785-1.071-24.354,2.344-8.052,2.43-9.73,2.418-10.011l-.016-.032v-2.33c-.811-.975-1.5-4.62-1.928-10.243-.377-.842-3.263-7.653-3.032-18.15.216-9.806-2.495-40.157-3.046-46.194l-1.655,1.819a69.03,69.03,0,0,0-3.809,18.3c-.966,11.481-5.292,25.358-9.672,31.083.013,1.653-.043,14.146-4.655,22.564a107.332,107.332,0,0,0-6.834,14.721c.11,1.857,1.333,23.834-1.987,28.724Zm-19.945-.928h19.287l2.61-7.393c3.256-4.621,1.867-28.046,1.852-28.282l-.005-.09.029-.087a106.436,106.436,0,0,1,6.928-14.952c4.724-8.623,4.542-22.13,4.54-22.267l0-.165.1-.129c4.322-5.521,8.619-19.3,9.58-30.719a68.978,68.978,0,0,1,3.9-18.646l.085-.133,3.127-3.439.1,1.046c.033.362,3.386,36.441,3.146,47.348-.236,10.758,2.95,17.749,2.981,17.817l.043.162c.608,8.124,1.554,9.6,1.713,9.793l.224.088v2.733c.124,1.333-1.447,7-2.438,10.41-2.714,9.321,1.053,23.8,1.092,23.943l.83,11.751h17.8l1.084-6.356.12-.008c.2-.492.853-2.481,2.361-10.2,2.021-10.34-.1-25.5-1.8-30.732-1.7-5.206-2.18-22.966-2.2-23.72l0-.122.056-.107a46.569,46.569,0,0,0,3.23-7.775c6.31-18.575,4.119-42.287,4.1-42.523l-.733-31.937.157-.142c.117-.106,11.745-10.728,17.8-22.369,6.007-11.545,5.4-17.454,5.394-17.513l0-.052c0-.266-.137-26.559-1.566-35.492-1.418-8.861-2.966-12.052-2.981-12.083l-.043-.13c-1.507-8.93-7.545-14.116-20.838-17.9-13.382-3.805-13.173-12.206-13.157-12.562v-10.4l-21.991,9.541c-1.354,6.468-7.488,13.592-17.92,14.166a17.684,17.684,0,0,0-14.73,8.693c-4.711,6.722-2.4,22.188-2.377,22.343l.029.184-.954,1.363c-1.476,2.16-1.848,8.884-1.852,8.951-.008.866-.245,21.7-.605,25.542a15.036,15.036,0,0,0,.338,5.73l4.331,8.531,9.848,19.573-.026,5.949-2.177,6.169c-5.115,8.82-5.415,21.859-5.417,21.989l-.026.144-2.3,6.653c-4.165,12.019-5.766,35.089-5.782,35.321.084,10.453.317,30.737.6,32.43a36.756,36.756,0,0,1,.126,6.273l-.016.1-1.877,6.542c-7.2,10.741-5.746,23.87-5.73,24Zm79.676-169.843-1.011-16.547c.024-.565.653-12.708,4.21-17.249,2.7-3.445,2.858-4.9,2.841-5.266l-.032-.188-.558-3.837,1.448,3.6a1.142,1.142,0,0,1,.07.388c.194,1.16,2.058,11.883,6.136,14.137l.456.252-.3.424c-.061.085-6.061,8.48-7.872,15.331h0c-1.886,7.136-4.64,8.584-4.756,8.643Zm6.412-37.058a20.239,20.239,0,0,1-2.483,3.834c-3.378,4.311-4.008,16.547-4.014,16.671l.913,14.906c.855-.84,2.434-2.918,3.659-7.548l.448.118-.448-.118c1.647-6.23,6.489-13.445,7.73-15.231C1189.421,4651.47,1187.627,4644.711,1186.881,4641.12Zm-58.547,32.3-.715-2.918c-.029-.117-2.909-11.782-5.784-15.044l-.369-.419.479-.286c.042-.025,4.37-2.789,4.37-12.987v-3.439l.912,3.316s1.127,4.109,1.853,6.606c.739,2.548-.5,21.374-.547,22.174Zm-5.485-18.186c2.025,2.679,3.93,8.719,4.935,12.284.383-6.479.9-17.312.4-19.01-.322-1.111-.724-2.54-1.072-3.785C1126.512,4651.538,1123.894,4654.364,1122.848,4655.234Z" transform="translate(-1099.734 -4563.282)"/>
      </g>
      <path id="Trazado_125116" data-name="Trazado 125116" d="M1183.571,4601.476c-.073-.1-7.517-9.719-23.2-4.915l-.272-.887c16.336-5,24.138,5.143,24.215,5.247Z" transform="translate(-4.385 -5.201)"/>
      <path id="Trazado_125117" data-name="Trazado 125117" d="M1123.7,4608.176l-.795-.477c.15-.251,3.779-6.2,12.119-11.643,8.582-5.594,14.688.978,14.75,1.044l-.687.624c-.227-.249-5.652-6.046-13.555-.89A40.387,40.387,0,0,0,1123.7,4608.176Z" transform="translate(-1.683 -5.165)"/>
      <path id="Trazado_125118" data-name="Trazado 125118" d="M1157.874,4595.152l-.515-.772c8.835-5.89,14.038-21.851,14.088-22.012l.885.283C1172.117,4573.319,1166.976,4589.084,1157.874,4595.152Z" transform="translate(-4.186 -3.608)"/>
      <path id="Trazado_125119" data-name="Trazado 125119" d="M1153.673,4593.985a16.1,16.1,0,0,1-3.722-14.23l.891.257a15.462,15.462,0,0,0,3.537,13.374Z" transform="translate(-3.619 -4.145)"/>
      <path id="Trazado_125120" data-name="Trazado 125120" d="M1155.19,4599.673a1.053,1.053,0,0,1-.16-.013c-.806-.131-1.106-1.184-1.138-1.305l.9-.237c.081.3.273.607.388.627.068,0,.343-.1.771-.761l.777.505C1156.528,4598.793,1155.956,4599.673,1155.19,4599.673Z" transform="translate(-3.934 -5.469)"/>
      <path id="Trazado_125121" data-name="Trazado 125121" d="M1153.321,4623.868c-1.323-7.223,1.7-19.33,1.728-19.451l.449.114c-.03.121-3.026,12.13-1.719,19.255Z" transform="translate(-3.868 -5.936)"/>
      <path id="Trazado_125122" data-name="Trazado 125122" d="M1170.575,4634.057a48.433,48.433,0,0,1-13.016-2.082l.144-.44c.119.039,11.909,3.815,19.648,1.05,7.67-2.74,8.71-8.313,8.719-8.37.018-.172.532-4.578,3.46-5.582l.15.438c-2.648.908-3.147,5.166-3.151,5.209-.012.071-1.083,5.906-9.022,8.741A20.866,20.866,0,0,1,1170.575,4634.057Z" transform="translate(-4.201 -6.968)"/>
      <ellipse id="Elipse_4122" data-name="Elipse 4122" cx="1.532" cy="0.858" rx="1.532" ry="0.858" transform="translate(1169.357 4621.912)"/>
      <ellipse id="Elipse_4123" data-name="Elipse 4123" cx="1.532" cy="0.858" rx="1.532" ry="0.858" transform="translate(1127.263 4620.196)"/>
      <path id="Trazado_125123" data-name="Trazado 125123" d="M1140.144,4632.891c-6.7,0-11.781-1.69-15.157-5.05-5.037-5.012-4.348-12.058-4.341-12.128l.462.048c-.007.069-.671,6.9,4.21,11.755,4.107,4.085,10.855,5.632,20.047,4.6l.053.46A47.231,47.231,0,0,1,1140.144,4632.891Z" transform="translate(-1.517 -6.757)"/>
      <path id="Trazado_125124" data-name="Trazado 125124" d="M1180.031,4594.489l-.194-.907a35.247,35.247,0,0,0,6.956-2.784l.434.819A35.385,35.385,0,0,1,1180.031,4594.489Z" transform="translate(-5.819 -4.947)"/>
      <ellipse id="Elipse_4124" data-name="Elipse 4124" cx="1.905" cy="0.998" rx="1.905" ry="0.998" transform="translate(1144.843 4666.88)"/>
      <path id="Trazado_125125" data-name="Trazado 125125" d="M1167.724,4696.616l-.8-.463c2.724-4.723,16.957-18.164,17.561-18.734l.636.675C1184.972,4678.233,1170.381,4692.011,1167.724,4696.616Z" transform="translate(-4.881 -11.239)"/>
      <path id="Trazado_125126" data-name="Trazado 125126" d="M1137.792,4694.316a90.471,90.471,0,0,0-8.357-16.97l.777-.506a91.461,91.461,0,0,1,8.457,17.171Z" transform="translate(-2.157 -11.197)"/>
      <path id="Trazado_125127" data-name="Trazado 125127" d="M1125.526,4697.884l-.8-.476c.041-.069,4.111-7.039,4.288-20.937l.927.012C1129.765,4690.658,1125.7,4697.6,1125.526,4697.884Z" transform="translate(-1.816 -11.17)"/>
      <path id="Trazado_125128" data-name="Trazado 125128" d="M1152.372,4732.168c-5.458,0-10.972-11.1-11.219-11.609-.058-.145-4.357-11.069-7.126-13.224-2.8-2.177-8.977-4.015-9.04-4.033l-.38-.112.571-4.149,1.95-4.413.477.423c.078.07,8,6.928,24.583,6.053,17-.886,26.741-3.091,31.579-7.15l.129-.077a1.176,1.176,0,0,1,1.061.188c1.193.828,1.754,3.654,1.669,8.4l-.006.337-.323.1c-.121.037-12.218,3.725-16.53,7.332-4.3,3.592-7.977,12.393-8.013,12.481-.095.282-2.631,7.637-8.281,9.3A3.865,3.865,0,0,1,1152.372,4732.168Zm-26.741-29.639c1.424.444,6.409,2.087,8.966,4.075,2.969,2.311,7.225,13.124,7.405,13.583.045.09,6.169,12.425,11.211,10.934,5.184-1.524,7.65-8.662,7.674-8.735.164-.4,3.815-9.129,8.288-12.868,4.1-3.432,14.514-6.78,16.531-7.407.063-5.566-.833-6.922-1.228-7.248a.459.459,0,0,0-.218-.111c-5.1,4.2-14.692,6.375-32.022,7.279-14.868.779-22.784-4.384-24.762-5.891l-1.422,3.216Z" transform="translate(-1.807 -12.431)"/>
      <path id="Trazado_125129" data-name="Trazado 125129" d="M1157.891,4656.623c-4.3,0-5.381-4.273-5.392-4.32l.9-.219a4.707,4.707,0,0,0,5.522,3.522c4.731-.775,9.875-5.325,9.927-5.372l.618.692c-.219.194-5.4,4.777-10.394,5.6A7.286,7.286,0,0,1,1157.891,4656.623Z" transform="translate(-3.833 -9.264)"/>
      <path id="Trazado_125130" data-name="Trazado 125130" d="M1151.384,4675.018c-.134,0-.217,0-.244,0l.034-.927c.065.007,6.183.179,9.419-3.857,1.231-1.537,2.35-3.179,3.431-4.767,1.921-2.822,3.58-5.259,5.231-6.083l.415.829c-1.434.718-3.031,3.062-4.88,5.777-1.092,1.6-2.219,3.259-3.475,4.825C1158.128,4674.785,1152.623,4675.018,1151.384,4675.018Z" transform="translate(-3.734 -9.929)"/>
      <path id="Trazado_125131" data-name="Trazado 125131" d="M1147.763,4675.844c-.253-.153-6.213-3.808-7.7-8.315a6.554,6.554,0,0,0-5.7-4.319l.048-.925c.051,0,5,.312,6.536,4.955,1.381,4.185,7.24,7.777,7.3,7.812Z" transform="translate(-2.515 -10.14)"/>
      <path id="Trazado_125132" data-name="Trazado 125132" d="M1144.189,4656.726a12.421,12.421,0,0,1-2.017-.177,24.619,24.619,0,0,1-12.679-6.6l.67-.64a24.132,24.132,0,0,0,12.159,6.327c2.386.392,4.191.083,5.365-.92a4.487,4.487,0,0,0,1.435-3.145l.927-.012a5.362,5.362,0,0,1-1.749,3.854A6.1,6.1,0,0,1,1144.189,4656.726Z" transform="translate(-2.162 -9.197)"/>
      <path id="Trazado_125133" data-name="Trazado 125133" d="M1131.384,4645.41a6.584,6.584,0,0,1-4.375-2.558c-1-1.482-1.183-3.422-.536-5.767l.894.246c-.571,2.072-.433,3.753.41,5a5.7,5.7,0,0,0,3.71,2.156Z" transform="translate(-1.915 -8.309)"/>
      <path id="Trazado_125134" data-name="Trazado 125134" d="M1129.406,4637.793c-.056-.009-5.516-.869-4.75-7.849l.922.1c-.667,6.065,3.771,6.8,3.96,6.828Z" transform="translate(-1.805 -7.791)"/>
      <path id="Trazado_125135" data-name="Trazado 125135" d="M1179.679,4654.982a4.778,4.778,0,0,1-1.27-.146l.26-.89-.13.445.128-.445c.189.053,4.754,1.249,9.324-5.65l.774.512C1185.208,4654.179,1181.552,4654.982,1179.679,4654.982Z" transform="translate(-5.715 -9.124)"/>
      <path id="Trazado_125136" data-name="Trazado 125136" d="M1185.243,4639.358l-.182-.91c.052-.01,5.182-1.077,6.678-4.656l.855.357C1190.907,4638.189,1185.473,4639.313,1185.243,4639.358Z" transform="translate(-6.198 -8.07)"/>
      <path id="Trazado_125137" data-name="Trazado 125137" d="M1173.9,4648.731l-.469-.8a17.933,17.933,0,0,1,9.636-2.084c7.451-1.743,7.015-6.3,6.992-6.493l.92-.112c.008.056.6,5.6-7.774,7.524l-.073.017-.075-.006A17.321,17.321,0,0,0,1173.9,4648.731Z" transform="translate(-5.353 -8.466)"/>
      <path id="Trazado_125138" data-name="Trazado 125138" d="M1166.607,4641.92c-5.93-3.851-13.152-1.192-13.225-1.165l-.329-.867c.313-.118,7.726-2.858,14.06,1.255Z" transform="translate(-3.873 -8.44)"/>
      <path id="Trazado_125139" data-name="Trazado 125139" d="M1143.9,4640.847l-.476-.8c4.356-2.6,7.447.022,7.477.048l-.608.7C1150.188,4640.708,1147.659,4638.6,1143.9,4640.847Z" transform="translate(-3.174 -8.441)"/>
      <path id="Trazado_125140" data-name="Trazado 125140" d="M1125.327,4810.193l-.365-.852c15.85-6.81,13.773-59.143,13.75-59.671l.927-.04C1139.733,4751.812,1141.762,4803.133,1125.327,4810.193Z" transform="translate(-1.833 -16.485)"/>
      <path id="Trazado_125141" data-name="Trazado 125141" d="M1121.066,4826.211l-.743-.556c6.983-9.311,2.549-17.8,2.5-17.888l.816-.441C1123.691,4807.417,1128.416,4816.411,1121.066,4826.211Z" transform="translate(-1.496 -20.676)"/>
      <path id="Trazado_125142" data-name="Trazado 125142" d="M1121.933,4851.308l-.925-.046c.005-.128.71-12.81,5.708-21.329l.8.469C1122.634,4838.724,1121.939,4851.184,1121.933,4851.308Z" transform="translate(-1.545 -22.318)"/>
      <path id="Trazado_125143" data-name="Trazado 125143" d="M1167.984,4846.4l-.927-.038c.007-.173.682-17.448-2.684-23.549l.811-.448C1168.674,4828.69,1168.015,4845.678,1167.984,4846.4Z" transform="translate(-4.696 -21.768)"/>
      <path id="Trazado_125144" data-name="Trazado 125144" d="M1168.543,4822.391a15.907,15.907,0,0,0-3.114-4.6l.627-.684a16.566,16.566,0,0,1,3.338,4.912Z" transform="translate(-4.772 -21.387)"/>
      <path id="Trazado_125145" data-name="Trazado 125145" d="M1179.36,4813.388l-.813-.447c2.549-4.634,1.412-11.321,1.4-11.389l.913-.162C1180.911,4801.677,1182.067,4808.463,1179.36,4813.388Z" transform="translate(-5.725 -20.244)"/>
      <path id="Trazado_125146" data-name="Trazado 125146" d="M1179.212,4799.766l-.5-.778c.062-.043,1.588-1.166,5.86-8.713l.808.457C1180.971,4798.512,1179.379,4799.661,1179.212,4799.766Z" transform="translate(-5.737 -19.437)"/>
      <path id="Trazado_125147" data-name="Trazado 125147" d="M1160.3,4777.163l-.887-.269c3.724-12.364,3.095-39.739,3.087-40.013l.927-.024C1163.438,4737.134,1164.072,4764.656,1160.3,4777.163Z" transform="translate(-4.336 -15.557)"/>
      <g id="Grupo_56573" data-name="Grupo 56573" transform="translate(1133.976 4522.699)">
        <path id="Trazado_125148" data-name="Trazado 125148" d="M1143.709,4545.953s-2.661,18.75,7.439,27.1a8.977,8.977,0,0,0,5.02,2.723c3.024.422,8.346-3.207,12.942-8.771,0,0,3.629-4.476,4.6-7.983,0,0,2.42-3.508,2.661-5.685s3.388-8.225,2.3-14.756l-.484-4.718-1.331-4.235a9.106,9.106,0,0,0-8.346-4.717,11.265,11.265,0,0,0-3.427,0s-7.5-4.971-15.685,1.889a21.635,21.635,0,0,1-6,4.644c-3.312,1.573-4.763.363-4.763.363l1.209,2.662-2.419,1.331,1.935,2.418s-2.3.484-.363,1.693,3.991.847,4.475,2.9A7.792,7.792,0,0,1,1143.709,4545.953Z" transform="translate(-1136.713 -4522.732)" fill="#fff"/>
        <path id="Trazado_125149" data-name="Trazado 125149" d="M1156.608,4576.236a4.09,4.09,0,0,1-.56-.038,9.387,9.387,0,0,1-5.305-2.879c-10.128-8.361-7.658-26.688-7.548-27.464l.006-.034a7.654,7.654,0,0,0-.24-2.94c-.242-1.027-.9-1.288-2.143-1.7a9.326,9.326,0,0,1-2.127-.918c-.275-.172-1.111-.695-.979-1.436a1.311,1.311,0,0,1,.813-.877l-1.867-2.333,2.526-1.39-1.873-4.118,1.56,1.3c.006,0,1.313.975,4.267-.425a21.335,21.335,0,0,0,5.854-4.53c7.7-6.467,14.909-2.776,16.114-2.076a12.188,12.188,0,0,1,3.415.035h.01a9.434,9.434,0,0,1,8.688,4.981l1.371,4.38.484,4.718c.8,4.82-.648,9.349-1.609,12.346a16.073,16.073,0,0,0-.689,2.51c-.236,2.127-2.351,5.323-2.7,5.832-1.01,3.546-4.513,7.893-4.662,8.077C1164.9,4572.728,1159.858,4576.236,1156.608,4576.236Zm-12.5-30.239c-.076.567-2.4,18.667,7.278,26.661a8.664,8.664,0,0,0,4.788,2.622c2.813.389,8.078-3.229,12.521-8.608.033-.041,3.577-4.439,4.506-7.812l.066-.14c.024-.034,2.356-3.437,2.583-5.473a16.32,16.32,0,0,1,.728-2.691c.934-2.912,2.344-7.312,1.574-11.938l-.483-4.7-1.316-4.188a8.6,8.6,0,0,0-7.9-4.393,11.122,11.122,0,0,0-3.313-.014l-.2.05-.171-.112c-.295-.195-7.321-4.692-15.131,1.856a21.607,21.607,0,0,1-6.1,4.707,6.661,6.661,0,0,1-4.075.778l.922,2.025-2.313,1.272,2.06,2.575-.734.158a1.508,1.508,0,0,0-.773.364h0a1.506,1.506,0,0,0,.559.482,8.5,8.5,0,0,0,1.927.824c1.17.386,2.382.785,2.753,2.365A8.425,8.425,0,0,1,1144.111,4546Z" transform="translate(-1136.658 -4522.699)"/>
      </g>
      <path id="Trazado_125150" data-name="Trazado 125150" d="M1176.95,4553.35a.481.481,0,0,1-.1-.011.465.465,0,0,1-.352-.554,4.374,4.374,0,0,0-.536-3.537,1.929,1.929,0,0,0-1.584-.726c-1.91,0-2.035,3.939-2.037,3.979a.464.464,0,0,1-.464.456h-.806a.463.463,0,0,1-.462-.42l-.364-3.871a39.524,39.524,0,0,0-2.363-11.72c-2.707,3.7-4.742,3.73-7.736,3.777a31.053,31.053,0,0,0-3.654.216c-5.668.723-14.88.01-14.973,0a.462.462,0,0,1-.426-.5.493.493,0,0,1,.5-.426c.092.008,9.209.715,14.782,0a32.011,32.011,0,0,1,3.758-.223c3.089-.048,4.791-.074,7.488-4.091a.437.437,0,0,1,.432-.2.464.464,0,0,1,.382.285,40.357,40.357,0,0,1,2.735,12.827l.294,3.13c.151-1.371.725-4.148,2.912-4.148a2.847,2.847,0,0,1,2.307,1.073,5.314,5.314,0,0,1,.719,4.318A.465.465,0,0,1,1176.95,4553.35Z" transform="translate(-3.004 -0.93)"/>
      <path id="Trazado_125151" data-name="Trazado 125151" d="M1169.036,4563.281a.469.469,0,0,1-.208-.048.464.464,0,0,1-.207-.623,54.745,54.745,0,0,1,4.08-6.932.464.464,0,1,1,.732.57,55.313,55.313,0,0,0-3.983,6.777A.463.463,0,0,1,1169.036,4563.281Z" transform="translate(-5.001 -2.382)"/>
      <path id="Trazado_125152" data-name="Trazado 125152" d="M1174.514,4559.923a.464.464,0,0,1-.232-.865c.017-.01,1.764-1.05,1.279-1.91a.463.463,0,0,1,.808-.455c.752,1.333-.667,2.62-1.624,3.169A.468.468,0,0,1,1174.514,4559.923Z" transform="translate(-5.399 -2.452)"/>
      <g id="Grupo_56574" data-name="Grupo 56574" transform="translate(1180.385 4673.809)">
        <path id="Trazado_125153" data-name="Trazado 125153" d="M1189.3,4693.9s-1.705-1.82-2.1-8.222" transform="translate(-1186.739 -4685.648)" fill="#fff"/>
        <path id="Trazado_125154" data-name="Trazado 125154" d="M1188.924,4694.213c-.074-.079-1.824-2.017-2.221-8.511l.925-.057c.372,6.087,1.96,7.919,1.976,7.938Z" transform="translate(-1186.703 -4685.646)"/>
      </g>
      <g id="Grupo_56581" data-name="Grupo 56581" transform="translate(1118.114 4603.2)">
        <g id="Grupo_56576" data-name="Grupo 56576" transform="translate(1.207 44.377)">
          <path id="Trazado_125155" data-name="Trazado 125155" d="M1156.508,4676.773a45.524,45.524,0,0,1-18.514-3.749,40.269,40.269,0,0,1-16.922-13.544,1.381,1.381,0,0,1,2.328-1.486h0a38.245,38.245,0,0,0,15.848,12.563c14.15,6.178,31.711,4.054,50.787-6.146a1.38,1.38,0,1,1,1.3,2.434C1177.485,4674.253,1165.881,4676.773,1156.508,4676.773Z" transform="translate(-1120.855 -4657.358)" fill="#5c9bcf"/>
          <g id="Grupo_56575" data-name="Grupo 56575" transform="translate(55.745 2.287)">
            <path id="Trazado_125156" data-name="Trazado 125156" d="M1191.992,4679.939l-2.6-.944,4.669-12.789-13.1-3.724.758-2.658,15.95,4.538Z" transform="translate(-1180.967 -4659.824)" fill="#5c9bcf"/>
          </g>
        </g>
        <g id="Grupo_56578" data-name="Grupo 56578" transform="translate(0 7.908)">
          <path id="Trazado_125157" data-name="Trazado 125157" d="M1189.653,4640.329a1.359,1.359,0,0,1-1.146-.627h0a37.7,37.7,0,0,0-15.609-12.373c-13.938-6.087-31.234-3.994-50.023,6.053a1.359,1.359,0,1,1-1.282-2.4c24.781-13.254,42.248-10.625,52.537-6.086a39.67,39.67,0,0,1,16.668,13.339,1.359,1.359,0,0,1-1.145,2.091Z" transform="translate(-1119.649 -4618.263)" fill="#5c9bcf"/>
          <g id="Grupo_56577" data-name="Grupo 56577">
            <path id="Trazado_125158" data-name="Trazado 125158" d="M1125.152,4618.033l2.558.931-4.6,12.6,12.9,3.667-.747,2.618-15.71-4.469Z" transform="translate(-1119.554 -4618.033)" fill="#5c9bcf"/>
          </g>
        </g>
        <g id="Grupo_56580" data-name="Grupo 56580" transform="translate(74.562 0)">
          <path id="Trazado_125159" data-name="Trazado 125159" d="M1216.253,4673.888a1.36,1.36,0,0,1-1.011-1.121c-.056-.373-5.48-37.566-4.674-60.24a1.359,1.359,0,0,1,2.716.1c-.8,22.432,4.591,59.38,4.646,59.75a1.359,1.359,0,0,1-1.678,1.515Z" transform="translate(-1200.721 -4609.629)" fill="#d4145a"/>
          <g id="Grupo_56579" data-name="Grupo 56579">
            <path id="Trazado_125160" data-name="Trazado 125160" d="M1222.182,4621.679l-2.027,1.815-8.924-10-9.32,9.632-1.953-1.894,11.354-11.729Z" transform="translate(-1199.956 -4609.505)" fill="#d4145a"/>
          </g>
        </g>
      </g>
    </g>
    <rect id="Rectángulo_362016" data-name="Rectángulo 362016" width="400" height="340" transform="translate(285 11194)" fill="none"/>
  </g>
</svg>
