<svg xmlns="http://www.w3.org/2000/svg" width="57" height="64.769" viewBox="0 0 57 64.769">
  <g id="video" transform="translate(0)">
    <path id="Trazado_774505" data-name="Trazado 774505" d="M81.033,216.676v30.319a5.792,5.792,0,0,1-5.775,5.775H34.736a5.792,5.792,0,0,1-5.775-5.775V216.676Zm0,0" transform="translate(-25.298 -189.266)" fill="#d0d7df" fill-rule="evenodd"/>
    <path id="Trazado_774506" data-name="Trazado 774506" d="M10.243,28.656l2.169,7.489L62.428,21.656l-2.169-7.489a5.792,5.792,0,0,0-7.154-3.94L14.183,21.5a5.792,5.792,0,0,0-3.94,7.154Zm0,0" transform="translate(-8.749 -8.735)" fill="#49aaee" fill-rule="evenodd"/>
    <path id="Trazado_774507" data-name="Trazado 774507" d="M28.961,216.676H81.032v11.839H28.961Zm0,0" transform="translate(-25.297 -189.266)" fill="#49aaee" fill-rule="evenodd"/>
    <path id="Trazado_774508" data-name="Trazado 774508" d="M217.18,360.807l-5.557-3.208-5.557-3.209v12.833l5.557-3.208Zm0,0" transform="translate(-179.999 -309.559)" fill="#fa5c66" fill-rule="evenodd"/>
    <path id="Trazado_774509" data-name="Trazado 774509" d="M55.735,26.145H12.576L54.031,14.136a1.265,1.265,0,0,0,.863-1.567L52.725,5.08A7.082,7.082,0,0,0,45.952,0,7.009,7.009,0,0,0,44,.277L5.082,11.552a7.057,7.057,0,0,0-4.8,8.721L2.4,27.589V57.729a7.048,7.048,0,0,0,7.04,7.04h15.2a1.265,1.265,0,1,0,0-2.53H9.438a4.515,4.515,0,0,1-4.51-4.51V40.514H54.47V57.729a4.515,4.515,0,0,1-4.51,4.51h-15.2a1.265,1.265,0,0,0,0,2.53h15.2A7.048,7.048,0,0,0,57,57.729V27.41a1.265,1.265,0,0,0-1.265-1.265ZM33.429,37.984,38.8,28.675h6.991L40.42,37.984Zm-9.913,0,5.375-9.309h6.991l-5.374,9.309Zm-9.912,0,5.374-9.309H25.97l-5.375,9.309Zm4.7-16.376-9-8.645,6.744-1.953a1.255,1.255,0,0,0,.166.2l9,8.645L18.473,21.8a1.259,1.259,0,0,0-.166-.2ZM35.259,5.688l9,8.645-6.744,1.953a1.232,1.232,0,0,0-.166-.2l-9-8.645,6.744-1.953A1.255,1.255,0,0,0,35.259,5.688ZM25.737,8.447l9,8.644-6.744,1.954a1.232,1.232,0,0,0-.166-.2l-9-8.645,6.744-1.953A1.337,1.337,0,0,0,25.737,8.447Zm18.97-5.739a4.473,4.473,0,0,1,1.244-.177,4.539,4.539,0,0,1,4.343,3.254l1.817,6.273-5.075,1.47a1.286,1.286,0,0,0-.167-.2l-9-8.644ZM3.1,16.142a4.477,4.477,0,0,1,2.69-2.159l.743-.215a1.287,1.287,0,0,0,.166.2l9,8.645L4.527,25.842,2.709,19.569A4.478,4.478,0,0,1,3.1,16.142ZM4.928,28.675H16.057l-5.374,9.309H4.928Zm38.413,9.309,5.374-9.309H54.47v9.309Zm0,0" transform="translate(0)" fill-rule="evenodd"/>
    <path id="Trazado_774510" data-name="Trazado 774510" d="M209.71,352.073a1.265,1.265,0,0,0-.633-1.1l-11.114-6.416a1.265,1.265,0,0,0-1.9,1.1v12.833a1.264,1.264,0,0,0,1.9,1.1l11.114-6.416a1.265,1.265,0,0,0,.633-1.1ZM198.6,356.3v-8.451l7.319,4.225Zm0,0" transform="translate(-171.264 -300.825)" fill-rule="evenodd"/>
    <path id="Trazado_774511" data-name="Trazado 774511" d="M226.038,492a1.265,1.265,0,1,0,1.265,1.265A1.267,1.267,0,0,0,226.038,492Zm0,0" transform="translate(-196.339 -429.761)" fill-rule="evenodd"/>
  </g>
</svg>
